<?xml version="1.0" encoding="UTF-8" standalone="no"?>
<!DOCTYPE svg PUBLIC "-//W3C//DTD SVG 1.1//EN"
 "http://www.w3.org/Graphics/SVG/1.1/DTD/svg11.dtd">
<!-- Generated by graphviz version 2.50.0 (20220203.2022)
 -->
<!-- Title: checkValidFile Pages: 1 -->
<svg width="345pt" height="142pt"
 viewBox="0.00 0.00 345.00 142.00" xmlns="http://www.w3.org/2000/svg" xmlns:xlink="http://www.w3.org/1999/xlink">
<g id="graph0" class="graph" transform="scale(1 1) rotate(0) translate(4 138)">
<title>checkValidFile</title>
<polygon fill="white" stroke="transparent" points="-4,4 -4,-138 341,-138 341,4 -4,4"/>
<!-- Node1 -->
<g id="node1" class="node">
<title>Node1</title>
<g id="a_node1"><a xlink:title="Description for error messages.">
<polygon fill="#bfbfbf" stroke="black" points="257,-57.5 257,-76.5 337,-76.5 337,-57.5 257,-57.5"/>
<text text-anchor="middle" x="297" y="-64.5" font-family="Helvetica,sans-Serif" font-size="10.00">checkValidFile</text>
</a>
</g>
</g>
<!-- Node2 -->
<g id="node2" class="node">
<title>Node2</title>
<g id="a_node2"><a xlink:href="main_8cpp.html#a32bd79fa27f816f5f13badbebe4e15b2" target="_top" xlink:title="Create a station object from a file.">
<polygon fill="white" stroke="black" points="122,-114.5 122,-133.5 221,-133.5 221,-114.5 122,-114.5"/>
<text text-anchor="middle" x="171.5" y="-121.5" font-family="Helvetica,sans-Serif" font-size="10.00">addStationDataFile</text>
</a>
</g>
</g>
<!-- Node1&#45;&gt;Node2 -->
<g id="edge1" class="edge">
<title>Node1&#45;&gt;Node2</title>
<path fill="none" stroke="midnightblue" d="M269.18,-81.37C255.01,-88.77 237.24,-97.73 221,-105 213.74,-108.25 205.74,-111.52 198.36,-114.4"/>
<polygon fill="midnightblue" stroke="midnightblue" points="271.13,-84.3 278.35,-76.55 267.87,-78.11 271.13,-84.3"/>
</g>
<!-- Node5 -->
<g id="node4" class="node">
<title>Node5</title>
<g id="a_node4"><a xlink:href="acsConfig_8cpp.html#a730af658b2d0567252d8a37b3982f2f3" target="_top" xlink:title=" ">
<polygon fill="white" stroke="black" points="128.5,-76.5 128.5,-95.5 214.5,-95.5 214.5,-76.5 128.5,-76.5"/>
<text text-anchor="middle" x="171.5" y="-83.5" font-family="Helvetica,sans-Serif" font-size="10.00">checkValidFiles</text>
</a>
</g>
</g>
<!-- Node1&#45;&gt;Node5 -->
<g id="edge3" class="edge">
<title>Node1&#45;&gt;Node5</title>
<path fill="none" stroke="midnightblue" d="M246.92,-74.55C236.27,-76.19 225.1,-77.91 214.74,-79.5"/>
<polygon fill="midnightblue" stroke="midnightblue" points="247.57,-77.99 256.92,-73.01 246.51,-71.07 247.57,-77.99"/>
</g>
<!-- Node6 -->
<g id="node5" class="node">
<title>Node6</title>
<g id="a_node5"><a xlink:href="main_8cpp.html#a044cd088d8a6d17451b655ea49b820f7" target="_top" xlink:title=" ">
<polygon fill="white" stroke="black" points="138,-38.5 138,-57.5 205,-57.5 205,-38.5 138,-38.5"/>
<text text-anchor="middle" x="171.5" y="-45.5" font-family="Helvetica,sans-Serif" font-size="10.00">fileChanged</text>
</a>
</g>
</g>
<!-- Node1&#45;&gt;Node6 -->
<g id="edge4" class="edge">
<title>Node1&#45;&gt;Node6</title>
<path fill="none" stroke="midnightblue" d="M246.9,-59.45C232.86,-57.29 217.9,-54.98 205.11,-53.02"/>
<polygon fill="midnightblue" stroke="midnightblue" points="246.51,-62.93 256.92,-60.99 247.57,-56.01 246.51,-62.93"/>
</g>
<!-- Node7 -->
<g id="node6" class="node">
<title>Node7</title>
<g id="a_node6"><a xlink:href="main_8cpp.html#a34804c3a0ffc29cad1548a9a3af91d45" target="_top" xlink:title=" ">
<polygon fill="white" stroke="black" points="122.5,-0.5 122.5,-19.5 220.5,-19.5 220.5,-0.5 122.5,-0.5"/>
<text text-anchor="middle" x="171.5" y="-7.5" font-family="Helvetica,sans-Serif" font-size="10.00">removeInvalidFiles</text>
</a>
</g>
</g>
<!-- Node1&#45;&gt;Node7 -->
<g id="edge6" class="edge">
<title>Node1&#45;&gt;Node7</title>
<path fill="none" stroke="midnightblue" d="M269.18,-52.63C255.01,-45.23 237.24,-36.27 221,-29 213.74,-25.75 205.74,-22.48 198.36,-19.6"/>
<polygon fill="midnightblue" stroke="midnightblue" points="267.87,-55.89 278.35,-57.45 271.13,-49.7 267.87,-55.89"/>
</g>
<!-- Node3 -->
<g id="node3" class="node">
<title>Node3</title>
<g id="a_node3"><a xlink:href="main_8cpp.html#a414f34e8bd65aa4d83398bab54236157" target="_top" xlink:title=" ">
<polygon fill="white" stroke="red" points="0,-38.5 0,-57.5 86,-57.5 86,-38.5 0,-38.5"/>
<text text-anchor="middle" x="43" y="-45.5" font-family="Helvetica,sans-Serif" font-size="10.00">reloadInputFiles</text>
</a>
</g>
</g>
<!-- Node2&#45;&gt;Node3 -->
<g id="edge2" class="edge">
<title>Node2&#45;&gt;Node3</title>
<path fill="none" stroke="midnightblue" d="M133.06,-110.47C129.26,-108.76 125.51,-106.93 122,-105 96.57,-91.03 69.89,-69.91 55.26,-57.69"/>
<polygon fill="midnightblue" stroke="midnightblue" points="131.92,-113.78 142.49,-114.45 134.64,-107.34 131.92,-113.78"/>
</g>
<!-- Node6&#45;&gt;Node3 -->
<g id="edge5" class="edge">
<title>Node6&#45;&gt;Node3</title>
<path fill="none" stroke="midnightblue" d="M127.92,-48C114.41,-48 99.49,-48 86.02,-48"/>
<polygon fill="midnightblue" stroke="midnightblue" points="127.92,-51.5 137.92,-48 127.92,-44.5 127.92,-51.5"/>
</g>
<!-- Node7&#45;&gt;Node3 -->
<g id="edge7" class="edge">
<title>Node7&#45;&gt;Node3</title>
<path fill="none" stroke="midnightblue" d="M128.77,-22.54C111.56,-27.7 91.94,-33.6 75.91,-38.41"/>
<polygon fill="midnightblue" stroke="midnightblue" points="130.01,-25.82 138.58,-19.59 127.99,-19.11 130.01,-25.82"/>
</g>
</g>
</svg>
