<?xml version="1.0" encoding="UTF-8" standalone="no"?>
<!DOCTYPE svg PUBLIC "-//W3C//DTD SVG 1.1//EN"
 "http://www.w3.org/Graphics/SVG/1.1/DTD/svg11.dtd">
<!-- Generated by graphviz version 2.50.0 (20220203.2022)
 -->
<!-- Title: tryAddRootToPath Pages: 1 -->
<svg width="375pt" height="85pt"
 viewBox="0.00 0.00 375.00 85.00" xmlns="http://www.w3.org/2000/svg" xmlns:xlink="http://www.w3.org/1999/xlink">
<g id="graph0" class="graph" transform="scale(1 1) rotate(0) translate(4 81)">
<title>tryAddRootToPath</title>
<polygon fill="white" stroke="transparent" points="-4,4 -4,-81 371,-81 371,4 -4,4"/>
<!-- Node1 -->
<g id="node1" class="node">
<title>Node1</title>
<g id="a_node1"><a xlink:title="Filename to prepend root path to.">
<polygon fill="#bfbfbf" stroke="black" points="271,-19.5 271,-38.5 367,-38.5 367,-19.5 271,-19.5"/>
<text text-anchor="middle" x="319" y="-26.5" font-family="Helvetica,sans-Serif" font-size="10.00">tryAddRootToPath</text>
</a>
</g>
</g>
<!-- Node2 -->
<g id="node2" class="node">
<title>Node2</title>
<g id="a_node2"><a xlink:href="structACSConfig.html#a7956bea37dde8338349a7a2971c530e6" target="_top" xlink:title="Parse options to set acsConfig values.">
<polygon fill="white" stroke="black" points="141,-38.5 141,-57.5 233,-57.5 233,-38.5 141,-38.5"/>
<text text-anchor="middle" x="187" y="-45.5" font-family="Helvetica,sans-Serif" font-size="10.00">ACSConfig::parse</text>
</a>
</g>
</g>
<!-- Node1&#45;&gt;Node2 -->
<g id="edge1" class="edge">
<title>Node1&#45;&gt;Node2</title>
<path fill="none" stroke="midnightblue" d="M260.53,-37.4C251.42,-38.73 242.1,-40.09 233.31,-41.38"/>
<polygon fill="midnightblue" stroke="midnightblue" points="261.31,-40.82 270.7,-35.91 260.3,-33.9 261.31,-40.82"/>
</g>
<!-- Node5 -->
<g id="node5" class="node">
<title>Node5</title>
<g id="a_node5"><a xlink:href="acsConfig_8cpp.html#a8a6dedf0116b7581a605e02771b0b255" target="_top" xlink:title="Add a root to paths that are not already absolutely defined.">
<polygon fill="white" stroke="black" points="139,-0.5 139,-19.5 235,-19.5 235,-0.5 139,-0.5"/>
<text text-anchor="middle" x="187" y="-7.5" font-family="Helvetica,sans-Serif" font-size="10.00">tryAddRootToPath</text>
</a>
</g>
</g>
<!-- Node1&#45;&gt;Node5 -->
<g id="edge4" class="edge">
<title>Node1&#45;&gt;Node5</title>
<path fill="none" stroke="midnightblue" d="M260.74,-20.63C252.16,-19.38 243.39,-18.1 235.05,-16.88"/>
<polygon fill="midnightblue" stroke="midnightblue" points="260.3,-24.1 270.7,-22.09 261.31,-17.18 260.3,-24.1"/>
</g>
<!-- Node3 -->
<g id="node3" class="node">
<title>Node3</title>
<g id="a_node3"><a xlink:href="test__egm_8cpp.html#ae66f6b31b5ad750f1fe042a706a4e3d4" target="_top" xlink:title=" ">
<polygon fill="white" stroke="black" points="32.5,-57.5 32.5,-76.5 70.5,-76.5 70.5,-57.5 32.5,-57.5"/>
<text text-anchor="middle" x="51.5" y="-64.5" font-family="Helvetica,sans-Serif" font-size="10.00">main</text>
</a>
</g>
</g>
<!-- Node2&#45;&gt;Node3 -->
<g id="edge2" class="edge">
<title>Node2&#45;&gt;Node3</title>
<path fill="none" stroke="midnightblue" d="M130.74,-55.86C109.22,-58.93 86.06,-62.22 70.57,-64.43"/>
<polygon fill="midnightblue" stroke="midnightblue" points="131.4,-59.31 140.8,-54.43 130.41,-52.38 131.4,-59.31"/>
</g>
<!-- Node4 -->
<g id="node4" class="node">
<title>Node4</title>
<g id="a_node4"><a xlink:href="main_8cpp.html#a30c68344d30ddfe1e926f8472b86f094" target="_top" xlink:title=" ">
<polygon fill="white" stroke="black" points="0,-19.5 0,-38.5 103,-38.5 103,-19.5 0,-19.5"/>
<text text-anchor="middle" x="51.5" y="-26.5" font-family="Helvetica,sans-Serif" font-size="10.00">mainOncePerEpoch</text>
</a>
</g>
</g>
<!-- Node2&#45;&gt;Node4 -->
<g id="edge3" class="edge">
<title>Node2&#45;&gt;Node4</title>
<path fill="none" stroke="midnightblue" d="M130.67,-40.13C121.56,-38.83 112.15,-37.49 103.16,-36.21"/>
<polygon fill="midnightblue" stroke="midnightblue" points="130.41,-43.62 140.8,-41.57 131.4,-36.69 130.41,-43.62"/>
</g>
</g>
</svg>
