<?xml version="1.0" encoding="UTF-8" standalone="no"?>
<!DOCTYPE svg PUBLIC "-//W3C//DTD SVG 1.1//EN"
 "http://www.w3.org/Graphics/SVG/1.1/DTD/svg11.dtd">
<!-- Generated by graphviz version 2.50.0 (20220203.2022)
 -->
<!-- Title: stringsToYamlObject Pages: 1 -->
<!--zoomable 320 -->
<svg id="main" version="1.1" xmlns="http://www.w3.org/2000/svg" xmlns:xlink="http://www.w3.org/1999/xlink" xml:space="preserve" onload="init(evt)">
<style type="text/css"><![CDATA[
.edge:hover path { stroke: red; }
.edge:hover polygon { stroke: red; fill: red; }
]]></style>
<script type="text/javascript"><![CDATA[
var edges = document.getElementsByTagName('g');
if (edges && edges.length) {
  for (var i=0;i<edges.length;i++) {
    if (edges[i].id.substr(0,4)=='edge') {
      edges[i].setAttribute('class','edge');
    }
  }
}
]]></script>
        <defs>
                <circle id="rim" cx="0" cy="0" r="7"/>
                <circle id="rim2" cx="0" cy="0" r="3.5"/>
                <g id="zoomPlus">
                        <use xlink:href="#rim" fill="#404040">
                                <set attributeName="fill" to="#808080" begin="zoomplus.mouseover" end="zoomplus.mouseout"/>
                        </use>
                        <path d="M-4,0h8M0,-4v8" fill="none" stroke="white" stroke-width="1.5" pointer-events="none"/>
                </g>
                <g id="zoomMin">
                        <use xlink:href="#rim" fill="#404040">
                                <set attributeName="fill" to="#808080" begin="zoomminus.mouseover" end="zoomminus.mouseout"/>
                        </use>
                        <path d="M-4,0h8" fill="none" stroke="white" stroke-width="1.5" pointer-events="none"/>
                </g>
                <g id="dirArrow">
                        <path fill="none" stroke="white" stroke-width="1.5" d="M0,-3.0v7 M-2.5,-0.5L0,-3.0L2.5,-0.5"/>
                </g>
               <g id="resetDef">
                       <use xlink:href="#rim2" fill="#404040">
                               <set attributeName="fill" to="#808080" begin="reset.mouseover" end="reset.mouseout"/>
                       </use>
               </g>
        </defs>

<script type="text/javascript">
var viewWidth = 695;
var viewHeight = 320;
var sectionId = 'dynsection-18';
</script>
<script xlink:href="svgpan.js"/>
<svg id="graph" class="graph">
<g id="viewport">
<title>stringsToYamlObject</title>
<polygon fill="white" stroke="transparent" points="-4,4 -4,-316.39 691,-316.39 691,4 -4,4"/>
<!-- Node1 -->
<g id="node1" class="node">
<title>Node1</title>
<g id="a_node1"><a xlink:title="Find a yaml node object using a list of strings.">
<polygon fill="#bfbfbf" stroke="black" points="579,-171.5 579,-190.5 687,-190.5 687,-171.5 579,-171.5"/>
<text text-anchor="middle" x="633" y="-178.5" font-family="Helvetica,sans-Serif" font-size="10.00">stringsToYamlObject</text>
</a>
</g>
</g>
<!-- Node2 -->
<g id="node2" class="node">
<title>Node2</title>
<g id="a_node2"><a xlink:href="acsConfig_8cpp.html#a93b507f5cfa7760051904a0a1863118a" target="_top" xlink:title="Set satellite options from yaml.">
<polygon fill="white" stroke="black" points="164.5,-19.5 164.5,-38.5 239.5,-38.5 239.5,-19.5 164.5,-19.5"/>
<text text-anchor="middle" x="202" y="-26.5" font-family="Helvetica,sans-Serif" font-size="10.00">getFromYaml</text>
</a>
</g>
</g>
<!-- Node1&#45;&gt;Node2 -->
<g id="edge1" class="edge">
<title>Node1&#45;&gt;Node2</title>
<path fill="none" stroke="midnightblue" d="M617.3,-163.81C585.61,-128.25 506.68,-47.47 420,-18 358.57,2.89 281.73,-9.26 237.92,-19.48"/>
<polygon fill="midnightblue" stroke="midnightblue" points="614.77,-166.23 623.99,-171.44 620.03,-161.62 614.77,-166.23"/>
</g>
<!-- Node26 -->
<g id="node5" class="node">
<title>Node26</title>
<g id="a_node5"><a xlink:href="structACSConfig.html#a7956bea37dde8338349a7a2971c530e6" target="_top" xlink:title="Parse options to set acsConfig values.">
<polygon fill="white" stroke="black" points="156,-190.5 156,-209.5 248,-209.5 248,-190.5 156,-190.5"/>
<text text-anchor="middle" x="202" y="-197.5" font-family="Helvetica,sans-Serif" font-size="10.00">ACSConfig::parse</text>
</a>
</g>
</g>
<!-- Node1&#45;&gt;Node26 -->
<g id="edge4" class="edge">
<title>Node1&#45;&gt;Node26</title>
<path fill="none" stroke="midnightblue" d="M611.92,-197.07C576.01,-224.58 497.31,-279.42 420,-297 361.06,-310.4 338.75,-322.61 284,-297 244.45,-278.5 217.44,-230.15 207.38,-209.53"/>
<polygon fill="midnightblue" stroke="midnightblue" points="614.35,-199.61 620.1,-190.71 610.05,-194.09 614.35,-199.61"/>
</g>
<!-- Node28 -->
<g id="node8" class="node">
<title>Node28</title>
<g id="a_node8"><a xlink:href="acsConfig_8cpp.html#afab657b38e8402e86a8daef8a8f7d09f" target="_top" xlink:title="Set an enum from yaml, decoding strings to ints.">
<polygon fill="white" stroke="black" points="458,-209.5 458,-228.5 541,-228.5 541,-209.5 458,-209.5"/>
<text text-anchor="middle" x="499.5" y="-216.5" font-family="Helvetica,sans-Serif" font-size="10.00">trySetEnumOpt</text>
</a>
</g>
</g>
<!-- Node1&#45;&gt;Node28 -->
<g id="edge7" class="edge">
<title>Node1&#45;&gt;Node28</title>
<path fill="none" stroke="midnightblue" d="M589.12,-193.39C571.11,-198.59 550.49,-204.55 533.67,-209.41"/>
<polygon fill="midnightblue" stroke="midnightblue" points="590.18,-196.73 598.82,-190.59 588.24,-190 590.18,-196.73"/>
</g>
<!-- Node32 -->
<g id="node12" class="node">
<title>Node32</title>
<g id="a_node12"><a xlink:href="acsConfig_8cpp.html#a555e819507c7608d463fedb0616a95ff" target="_top" xlink:title="Set an output from yaml object if found.">
<polygon fill="white" stroke="black" points="456,-133.5 456,-152.5 543,-152.5 543,-133.5 456,-133.5"/>
<text text-anchor="middle" x="499.5" y="-140.5" font-family="Helvetica,sans-Serif" font-size="10.00">trySetFromYaml</text>
</a>
</g>
</g>
<!-- Node1&#45;&gt;Node32 -->
<g id="edge15" class="edge">
<title>Node1&#45;&gt;Node32</title>
<path fill="none" stroke="midnightblue" d="M589.12,-168.61C571.11,-163.41 550.49,-157.45 533.67,-152.59"/>
<polygon fill="midnightblue" stroke="midnightblue" points="588.24,-172 598.82,-171.41 590.18,-165.27 588.24,-172"/>
</g>
<!-- Node3 -->
<g id="node3" class="node">
<title>Node3</title>
<g id="a_node3"><a xlink:href="structACSConfig.html#a7ddfbaf20a1c9181d73d0dabe92beace" target="_top" xlink:title="Set receiver options for a specific receiver using a hierarchy of sources.">
<polygon fill="white" stroke="red" points="0,-38.5 0,-57.5 120,-57.5 120,-38.5 0,-38.5"/>
<text text-anchor="middle" x="60" y="-45.5" font-family="Helvetica,sans-Serif" font-size="10.00">ACSConfig::getRecOpts</text>
</a>
</g>
</g>
<!-- Node2&#45;&gt;Node3 -->
<g id="edge2" class="edge">
<title>Node2&#45;&gt;Node3</title>
<path fill="none" stroke="midnightblue" d="M154.05,-35.37C143.13,-36.85 131.37,-38.45 120.01,-39.99"/>
<polygon fill="midnightblue" stroke="midnightblue" points="154.78,-38.81 164.22,-33.99 153.84,-31.87 154.78,-38.81"/>
</g>
<!-- Node22 -->
<g id="node4" class="node">
<title>Node22</title>
<g id="a_node4"><a xlink:href="structACSConfig.html#a9f893b7ab2412f42ef7a02423d755940" target="_top" xlink:title="Set satellite options for a specific satellite using a hierarchy of sources.">
<polygon fill="white" stroke="red" points="1,-0.5 1,-19.5 119,-19.5 119,-0.5 1,-0.5"/>
<text text-anchor="middle" x="60" y="-7.5" font-family="Helvetica,sans-Serif" font-size="10.00">ACSConfig::getSatOpts</text>
</a>
</g>
</g>
<!-- Node2&#45;&gt;Node22 -->
<g id="edge3" class="edge">
<title>Node2&#45;&gt;Node22</title>
<path fill="none" stroke="midnightblue" d="M154.2,-22.65C142.98,-21.13 130.87,-19.48 119.2,-17.9"/>
<polygon fill="midnightblue" stroke="midnightblue" points="153.84,-26.13 164.22,-24.01 154.78,-19.19 153.84,-26.13"/>
</g>
<!-- Node27 -->
<g id="node6" class="node">
<title>Node27</title>
<g id="a_node6"><a xlink:href="test__egm_8cpp.html#ae66f6b31b5ad750f1fe042a706a4e3d4" target="_top" xlink:title=" ">
<polygon fill="white" stroke="black" points="41,-209.5 41,-228.5 79,-228.5 79,-209.5 41,-209.5"/>
<text text-anchor="middle" x="60" y="-216.5" font-family="Helvetica,sans-Serif" font-size="10.00">main</text>
</a>
</g>
</g>
<!-- Node26&#45;&gt;Node27 -->
<g id="edge5" class="edge">
<title>Node26&#45;&gt;Node27</title>
<path fill="none" stroke="midnightblue" d="M145.95,-207.47C122.22,-210.69 96.09,-214.24 79.17,-216.53"/>
<polygon fill="midnightblue" stroke="midnightblue" points="146.49,-210.93 155.93,-206.12 145.55,-203.99 146.49,-210.93"/>
</g>
<!-- Node6 -->
<g id="node7" class="node">
<title>Node6</title>
<g id="a_node7"><a xlink:href="main_8cpp.html#a30c68344d30ddfe1e926f8472b86f094" target="_top" xlink:title=" ">
<polygon fill="white" stroke="black" points="8.5,-171.5 8.5,-190.5 111.5,-190.5 111.5,-171.5 8.5,-171.5"/>
<text text-anchor="middle" x="60" y="-178.5" font-family="Helvetica,sans-Serif" font-size="10.00">mainOncePerEpoch</text>
</a>
</g>
</g>
<!-- Node26&#45;&gt;Node6 -->
<g id="edge6" class="edge">
<title>Node26&#45;&gt;Node6</title>
<path fill="none" stroke="midnightblue" d="M145.82,-192.51C134.61,-190.99 122.87,-189.4 111.82,-187.9"/>
<polygon fill="midnightblue" stroke="midnightblue" points="145.55,-196.01 155.93,-193.88 146.49,-189.07 145.55,-196.01"/>
</g>
<!-- Node28&#45;&gt;Node26 -->
<g id="edge9" class="edge">
<title>Node28&#45;&gt;Node26</title>
<path fill="none" stroke="midnightblue" d="M482.18,-235.7C467.42,-249.51 444.33,-268.1 420,-276 362.51,-294.67 340.2,-298.24 284,-276 249.75,-262.45 221.52,-226.81 209.39,-209.59"/>
<polygon fill="midnightblue" stroke="midnightblue" points="484.74,-238.09 489.48,-228.61 479.86,-233.07 484.74,-238.09"/>
</g>
<!-- Node29 -->
<g id="node9" class="node">
<title>Node29</title>
<g id="a_node9"><a xlink:href="acsConfig_8cpp.html#ab3e502fc67eb9847990a79ae33738918" target="_top" xlink:title="Set receiver options from yaml.">
<polygon fill="white" stroke="black" points="314.5,-247.5 314.5,-266.5 389.5,-266.5 389.5,-247.5 314.5,-247.5"/>
<text text-anchor="middle" x="352" y="-254.5" font-family="Helvetica,sans-Serif" font-size="10.00">getFromYaml</text>
</a>
</g>
</g>
<!-- Node28&#45;&gt;Node29 -->
<g id="edge8" class="edge">
<title>Node28&#45;&gt;Node29</title>
<path fill="none" stroke="midnightblue" d="M451.85,-231.18C431.65,-236.46 408.35,-242.54 389.45,-247.48"/>
<polygon fill="midnightblue" stroke="midnightblue" points="452.99,-234.5 461.78,-228.59 451.22,-227.73 452.99,-234.5"/>
</g>
<!-- Node30 -->
<g id="node10" class="node">
<title>Node30</title>
<g id="a_node10"><a xlink:href="acsConfig_8cpp.html#a07e32c516547b7d40d2c391ff83b60f4" target="_top" xlink:title="Set the variables associated with kalman filter states from yaml.">
<polygon fill="white" stroke="black" points="292,-133.5 292,-152.5 412,-152.5 412,-133.5 292,-133.5"/>
<text text-anchor="middle" x="352" y="-140.5" font-family="Helvetica,sans-Serif" font-size="10.00">trySetKalmanFromYaml</text>
</a>
</g>
</g>
<!-- Node28&#45;&gt;Node30 -->
<g id="edge10" class="edge">
<title>Node28&#45;&gt;Node30</title>
<path fill="none" stroke="midnightblue" d="M471.21,-204.74C441.99,-189.48 396.45,-165.7 371.28,-152.55"/>
<polygon fill="midnightblue" stroke="midnightblue" points="469.59,-207.85 480.07,-209.37 472.83,-201.64 469.59,-207.85"/>
</g>
<!-- Node31 -->
<g id="node11" class="node">
<title>Node31</title>
<g id="a_node11"><a xlink:href="acsConfig_8cpp.html#a2fd3f7ff4dc1def562096724f003c42d" target="_top" xlink:title="Set and scale a variable according to yaml options.">
<polygon fill="white" stroke="black" points="293.5,-209.5 293.5,-228.5 410.5,-228.5 410.5,-209.5 293.5,-209.5"/>
<text text-anchor="middle" x="352" y="-216.5" font-family="Helvetica,sans-Serif" font-size="10.00">trySetScaledFromYaml</text>
</a>
</g>
</g>
<!-- Node28&#45;&gt;Node31 -->
<g id="edge13" class="edge">
<title>Node28&#45;&gt;Node31</title>
<path fill="none" stroke="midnightblue" d="M447.73,-219C435.77,-219 422.95,-219 410.71,-219"/>
<polygon fill="midnightblue" stroke="midnightblue" points="447.97,-222.5 457.97,-219 447.97,-215.5 447.97,-222.5"/>
</g>
<!-- Node30&#45;&gt;Node2 -->
<g id="edge11" class="edge">
<title>Node30&#45;&gt;Node2</title>
<path fill="none" stroke="midnightblue" d="M294.14,-129.51C290.6,-127.88 287.19,-126.05 284,-124 248.43,-101.17 220.05,-58 208.55,-38.72"/>
<polygon fill="midnightblue" stroke="midnightblue" points="293.12,-132.88 303.7,-133.41 295.76,-126.4 293.12,-132.88"/>
</g>
<!-- Node30&#45;&gt;Node26 -->
<g id="edge12" class="edge">
<title>Node30&#45;&gt;Node26</title>
<path fill="none" stroke="midnightblue" d="M314.03,-155.92C304.24,-159.43 293.69,-163.29 284,-167 264.14,-174.6 241.78,-183.75 225.59,-190.49"/>
<polygon fill="midnightblue" stroke="midnightblue" points="315.27,-159.2 323.52,-152.54 312.93,-152.6 315.27,-159.2"/>
</g>
<!-- Node31&#45;&gt;Node26 -->
<g id="edge14" class="edge">
<title>Node31&#45;&gt;Node26</title>
<path fill="none" stroke="midnightblue" d="M283.09,-210.28C271.32,-208.77 259.33,-207.23 248.35,-205.82"/>
<polygon fill="midnightblue" stroke="midnightblue" points="282.99,-213.8 293.36,-211.6 283.88,-206.85 282.99,-213.8"/>
</g>
<!-- Node32&#45;&gt;Node2 -->
<g id="edge16" class="edge">
<title>Node32&#45;&gt;Node2</title>
<path fill="none" stroke="midnightblue" d="M489.13,-124.4C476.7,-101.95 452.5,-65.08 420,-48 362.59,-17.83 284.71,-19.56 239.55,-23.98"/>
<polygon fill="midnightblue" stroke="midnightblue" points="486.08,-126.12 493.86,-133.31 492.26,-122.84 486.08,-126.12"/>
</g>
<!-- Node32&#45;&gt;Node26 -->
<g id="edge18" class="edge">
<title>Node32&#45;&gt;Node26</title>
<path fill="none" stroke="midnightblue" d="M451.08,-155C440.86,-157.44 430.09,-159.9 420,-162 360.84,-174.33 292.05,-185.91 248.05,-192.98"/>
<polygon fill="midnightblue" stroke="midnightblue" points="452.18,-158.33 461.08,-152.58 450.53,-151.53 452.18,-158.33"/>
</g>
<!-- Node32&#45;&gt;Node30 -->
<g id="edge21" class="edge">
<title>Node32&#45;&gt;Node30</title>
<path fill="none" stroke="midnightblue" d="M445.44,-143C434.57,-143 423.07,-143 412,-143"/>
<polygon fill="midnightblue" stroke="midnightblue" points="445.63,-146.5 455.63,-143 445.63,-139.5 445.63,-146.5"/>
</g>
<!-- Node32&#45;&gt;Node31 -->
<g id="edge22" class="edge">
<title>Node32&#45;&gt;Node31</title>
<path fill="none" stroke="midnightblue" d="M477.77,-158.74C462.41,-169.89 440.65,-184.65 420,-195 408.84,-200.59 396.06,-205.51 384.67,-209.41"/>
<polygon fill="midnightblue" stroke="midnightblue" points="480.06,-161.4 486.02,-152.65 475.9,-155.77 480.06,-161.4"/>
</g>
<!-- Node33 -->
<g id="node13" class="node">
<title>Node33</title>
<g id="a_node13"><a xlink:href="structACSConfig.html#a92bff361b02a9eb9de0296f29e7e1091" target="_top" xlink:title="Set minimum constraint options for a specific receiver using a hierarchy of sources.">
<polygon fill="white" stroke="red" points="284,-57.5 284,-76.5 420,-76.5 420,-57.5 284,-57.5"/>
<text text-anchor="middle" x="352" y="-64.5" font-family="Helvetica,sans-Serif" font-size="10.00">ACSConfig::getMinConOpts</text>
</a>
</g>
</g>
<!-- Node32&#45;&gt;Node33 -->
<g id="edge17" class="edge">
<title>Node32&#45;&gt;Node33</title>
<path fill="none" stroke="midnightblue" d="M480.24,-126.85C465.05,-114.16 442.37,-96.87 420,-86 412.28,-82.25 403.69,-79.12 395.3,-76.55"/>
<polygon fill="midnightblue" stroke="midnightblue" points="477.98,-129.53 487.86,-133.36 482.53,-124.2 477.98,-129.53"/>
</g>
<!-- Node38 -->
<g id="node14" class="node">
<title>Node38</title>
<g id="a_node14"><a xlink:href="acsConfig_8cpp.html#af81d84a18cd276fe9dd3d51533855022" target="_top" xlink:title="Set an output from any config source if found.">
<polygon fill="white" stroke="black" points="311.5,-95.5 311.5,-114.5 392.5,-114.5 392.5,-95.5 311.5,-95.5"/>
<text text-anchor="middle" x="352" y="-102.5" font-family="Helvetica,sans-Serif" font-size="10.00">trySetFromAny</text>
</a>
</g>
</g>
<!-- Node32&#45;&gt;Node38 -->
<g id="edge19" class="edge">
<title>Node32&#45;&gt;Node38</title>
<path fill="none" stroke="midnightblue" d="M451.85,-130.82C431.65,-125.54 408.35,-119.46 389.45,-114.52"/>
<polygon fill="midnightblue" stroke="midnightblue" points="451.22,-134.27 461.78,-133.41 452.99,-127.5 451.22,-134.27"/>
</g>
<!-- Node38&#45;&gt;Node26 -->
<g id="edge20" class="edge">
<title>Node38&#45;&gt;Node26</title>
<path fill="none" stroke="midnightblue" d="M301.77,-116C295.6,-118.23 289.52,-120.87 284,-124 252.62,-141.76 223.86,-174.13 210.64,-190.28"/>
<polygon fill="midnightblue" stroke="midnightblue" points="303.05,-119.27 311.48,-112.84 300.88,-112.61 303.05,-119.27"/>
</g>
</g>
</svg>
        <g id="navigator" transform="translate(0 0)" fill="#404254">
                <rect fill="#f2f5e9" fill-opacity="0.5" stroke="#606060" stroke-width=".5" x="0" y="0" width="60" height="60"/>
                <use id="zoomplus" xlink:href="#zoomPlus" x="17" y="9" onmousedown="handleZoom(evt,'in')"/>
                <use id="zoomminus" xlink:href="#zoomMin" x="42" y="9" onmousedown="handleZoom(evt,'out')"/>
                <use id="reset" xlink:href="#resetDef" x="30" y="36" onmousedown="handleReset()"/>
                <g id="arrowUp" xlink:href="#dirArrow" transform="translate(30 24)" onmousedown="handlePan(0,-1)">
                  <use xlink:href="#rim" fill="#404040">
                        <set attributeName="fill" to="#808080" begin="arrowUp.mouseover" end="arrowUp.mouseout"/>
                  </use>
                  <path fill="none" stroke="white" stroke-width="1.5" d="M0,-3.0v7 M-2.5,-0.5L0,-3.0L2.5,-0.5"/>
                </g>
                <g id="arrowRight" xlink:href="#dirArrow" transform="rotate(90) translate(36 -43)" onmousedown="handlePan(1,0)">
                  <use xlink:href="#rim" fill="#404040">
                        <set attributeName="fill" to="#808080" begin="arrowRight.mouseover" end="arrowRight.mouseout"/>
                  </use>
                  <path fill="none" stroke="white" stroke-width="1.5" d="M0,-3.0v7 M-2.5,-0.5L0,-3.0L2.5,-0.5"/>
                </g>
                <g id="arrowDown" xlink:href="#dirArrow" transform="rotate(180) translate(-30 -48)" onmousedown="handlePan(0,1)">
                  <use xlink:href="#rim" fill="#404040">
                        <set attributeName="fill" to="#808080" begin="arrowDown.mouseover" end="arrowDown.mouseout"/>
                  </use>
                  <path fill="none" stroke="white" stroke-width="1.5" d="M0,-3.0v7 M-2.5,-0.5L0,-3.0L2.5,-0.5"/>
                </g>
                <g id="arrowLeft" xlink:href="#dirArrow" transform="rotate(270) translate(-36 17)" onmousedown="handlePan(-1,0)">
                  <use xlink:href="#rim" fill="#404040">
                        <set attributeName="fill" to="#808080" begin="arrowLeft.mouseover" end="arrowLeft.mouseout"/>
                  </use>
                  <path fill="none" stroke="white" stroke-width="1.5" d="M0,-3.0v7 M-2.5,-0.5L0,-3.0L2.5,-0.5"/>
                </g>
        </g>
        <svg viewBox="0 0 15 15" width="100%" height="30px" preserveAspectRatio="xMaxYMin meet">
         <g id="arrow_out" transform="scale(0.3 0.3)">
          <a xlink:href="acsConfig_8cpp_aa9088fb45b63f10376cc7f0c65436e0d_icgraph_org.svg" target="_base">
           <rect id="button" ry="5" rx="5" y="6" x="6" height="38" width="38"
                fill="#f2f5e9" fill-opacity="0.5" stroke="#606060" stroke-width="1.0"/>
           <path id="arrow"
             d="M 11.500037,31.436501 C 11.940474,20.09759 22.043105,11.32322 32.158766,21.979434 L 37.068811,17.246167 C 37.068811,17.246167 37.088388,32 37.088388,32 L 22.160133,31.978069 C 22.160133,31.978069 26.997745,27.140456 26.997745,27.140456 C 18.528582,18.264221 13.291696,25.230495 11.500037,31.436501 z"
             style="fill:#404040;"/>
          </a>
         </g>
        </svg>
</svg>
