<?xml version="1.0" encoding="UTF-8" standalone="no"?>
<!DOCTYPE svg PUBLIC "-//W3C//DTD SVG 1.1//EN"
 "http://www.w3.org/Graphics/SVG/1.1/DTD/svg11.dtd">
<!-- Generated by graphviz version 2.50.0 (20220203.2022)
 -->
<!-- Title: getFromYaml Pages: 1 -->
<svg width="520pt" height="598pt"
 viewBox="0.00 0.00 520.00 598.00" xmlns="http://www.w3.org/2000/svg" xmlns:xlink="http://www.w3.org/1999/xlink">
<g id="graph0" class="graph" transform="scale(1 1) rotate(0) translate(4 594)">
<title>getFromYaml</title>
<polygon fill="white" stroke="transparent" points="-4,4 -4,-594 516,-594 516,4 -4,4"/>
<!-- Node1 -->
<g id="node1" class="node">
<title>Node1</title>
<g id="a_node1"><a xlink:title="Set satellite options from yaml.">
<polygon fill="#bfbfbf" stroke="black" points="437,-228.5 437,-247.5 512,-247.5 512,-228.5 437,-228.5"/>
<text text-anchor="middle" x="474.5" y="-235.5" font-family="Helvetica,sans-Serif" font-size="10.00">getFromYaml</text>
</a>
</g>
</g>
<!-- Node2 -->
<g id="node2" class="node">
<title>Node2</title>
<g id="a_node2"><a xlink:href="structACSConfig.html#a7ddfbaf20a1c9181d73d0dabe92beace" target="_top" xlink:title="Set receiver options for a specific receiver using a hierarchy of sources.">
<polygon fill="white" stroke="black" points="281,-342.5 281,-361.5 401,-361.5 401,-342.5 281,-342.5"/>
<text text-anchor="middle" x="341" y="-349.5" font-family="Helvetica,sans-Serif" font-size="10.00">ACSConfig::getRecOpts</text>
</a>
</g>
</g>
<!-- Node1&#45;&gt;Node2 -->
<g id="edge1" class="edge">
<title>Node1&#45;&gt;Node2</title>
<path fill="none" stroke="midnightblue" d="M454.45,-254.52C426.6,-278.66 375.67,-322.81 353.18,-342.31"/>
<polygon fill="midnightblue" stroke="midnightblue" points="457.03,-256.91 462.29,-247.72 452.44,-251.63 457.03,-256.91"/>
</g>
<!-- Node21 -->
<g id="node15" class="node">
<title>Node21</title>
<g id="a_node15"><a xlink:href="structACSConfig.html#a9f893b7ab2412f42ef7a02423d755940" target="_top" xlink:title="Set satellite options for a specific satellite using a hierarchy of sources.">
<polygon fill="white" stroke="black" points="282,-114.5 282,-133.5 400,-133.5 400,-114.5 282,-114.5"/>
<text text-anchor="middle" x="341" y="-121.5" font-family="Helvetica,sans-Serif" font-size="10.00">ACSConfig::getSatOpts</text>
</a>
</g>
</g>
<!-- Node1&#45;&gt;Node21 -->
<g id="edge17" class="edge">
<title>Node1&#45;&gt;Node21</title>
<path fill="none" stroke="midnightblue" d="M454.45,-221.48C426.6,-197.34 375.67,-153.19 353.18,-133.69"/>
<polygon fill="midnightblue" stroke="midnightblue" points="452.44,-224.37 462.29,-228.28 457.03,-219.09 452.44,-224.37"/>
</g>
<!-- Node3 -->
<g id="node3" class="node">
<title>Node3</title>
<g id="a_node3"><a xlink:href="main_8cpp.html#a32bd79fa27f816f5f13badbebe4e15b2" target="_top" xlink:title="Create a station object from a file.">
<polygon fill="white" stroke="red" points="137,-532.5 137,-551.5 236,-551.5 236,-532.5 137,-532.5"/>
<text text-anchor="middle" x="186.5" y="-539.5" font-family="Helvetica,sans-Serif" font-size="10.00">addStationDataFile</text>
</a>
</g>
</g>
<!-- Node2&#45;&gt;Node3 -->
<g id="edge2" class="edge">
<title>Node2&#45;&gt;Node3</title>
<path fill="none" stroke="midnightblue" d="M334.44,-371.35C323.32,-406.64 295.03,-481.59 245,-523 240.3,-526.89 234.78,-529.99 229.05,-532.46"/>
<polygon fill="midnightblue" stroke="midnightblue" points="337.8,-372.34 337.34,-361.76 331.1,-370.32 337.8,-372.34"/>
</g>
<!-- Node6 -->
<g id="node4" class="node">
<title>Node6</title>
<g id="a_node4"><a xlink:href="main_8cpp.html#a5cb00ded83c966f68284b841c381d1f0" target="_top" xlink:title=" ">
<polygon fill="white" stroke="red" points="145.5,-190.5 145.5,-209.5 227.5,-209.5 227.5,-190.5 145.5,-190.5"/>
<text text-anchor="middle" x="186.5" y="-197.5" font-family="Helvetica,sans-Serif" font-size="10.00">avoidCollisions</text>
</a>
</g>
</g>
<!-- Node2&#45;&gt;Node6 -->
<g id="edge3" class="edge">
<title>Node2&#45;&gt;Node6</title>
<path fill="none" stroke="midnightblue" d="M331.33,-333.04C317.25,-304.27 286.71,-249.72 245,-219 239.75,-215.13 233.67,-212.03 227.47,-209.54"/>
<polygon fill="midnightblue" stroke="midnightblue" points="328.32,-334.84 335.77,-342.38 334.64,-331.84 328.32,-334.84"/>
</g>
<!-- Node7 -->
<g id="node5" class="node">
<title>Node7</title>
<g id="a_node5"><a xlink:href="networkEstimator_8cpp.html#ac12f8c95166096d5ea861f0b8213c9a8" target="_top" xlink:title="Check and correct clock jitter/wraparound.">
<polygon fill="white" stroke="black" points="139.5,-494.5 139.5,-513.5 233.5,-513.5 233.5,-494.5 139.5,-494.5"/>
<text text-anchor="middle" x="186.5" y="-501.5" font-family="Helvetica,sans-Serif" font-size="10.00">correctRecClocks</text>
</a>
</g>
</g>
<!-- Node2&#45;&gt;Node7 -->
<g id="edge4" class="edge">
<title>Node2&#45;&gt;Node7</title>
<path fill="none" stroke="midnightblue" d="M331.33,-370.96C317.25,-399.73 286.71,-454.28 245,-485 239.75,-488.87 233.67,-491.97 227.47,-494.46"/>
<polygon fill="midnightblue" stroke="midnightblue" points="334.64,-372.16 335.77,-361.62 328.32,-369.16 334.64,-372.16"/>
</g>
<!-- Node8 -->
<g id="node6" class="node">
<title>Node8</title>
<g id="a_node6"><a xlink:href="networkEstimator_8cpp.html#a36828506971a6b66c6e61db51197c9e1" target="_top" xlink:title="Estimates parameters for a network of stations simultaneously.">
<polygon fill="white" stroke="red" points="0,-399.5 0,-418.5 92,-418.5 92,-399.5 0,-399.5"/>
<text text-anchor="middle" x="46" y="-406.5" font-family="Helvetica,sans-Serif" font-size="10.00">networkEstimator</text>
</a>
</g>
</g>
<!-- Node2&#45;&gt;Node8 -->
<g id="edge8" class="edge">
<title>Node2&#45;&gt;Node8</title>
<path fill="none" stroke="midnightblue" d="M320.61,-367.98C302.38,-381.9 273.67,-401.06 245,-409 194.15,-423.08 133.09,-420.28 92.35,-415.77"/>
<polygon fill="midnightblue" stroke="midnightblue" points="322.98,-370.58 328.67,-361.64 318.65,-365.07 322.98,-370.58"/>
</g>
<!-- Node9 -->
<g id="node7" class="node">
<title>Node9</title>
<g id="a_node7"><a xlink:href="ppppp_8cpp.html#a5485965295cbc1a764c2c64c361f99a9" target="_top" xlink:title=" ">
<polygon fill="white" stroke="red" points="157,-456.5 157,-475.5 216,-475.5 216,-456.5 157,-456.5"/>
<text text-anchor="middle" x="186.5" y="-463.5" font-family="Helvetica,sans-Serif" font-size="10.00">makeLCs</text>
</a>
</g>
</g>
<!-- Node2&#45;&gt;Node9 -->
<g id="edge6" class="edge">
<title>Node2&#45;&gt;Node9</title>
<path fill="none" stroke="midnightblue" d="M325.38,-369.21C307.91,-388.93 276.99,-421.18 245,-442 236.11,-447.78 225.61,-452.65 216.02,-456.47"/>
<polygon fill="midnightblue" stroke="midnightblue" points="328.08,-371.44 332.01,-361.6 322.8,-366.84 328.08,-371.44"/>
</g>
<!-- Node11 -->
<g id="node8" class="node">
<title>Node11</title>
<g id="a_node8"><a xlink:href="GinAR__main_8cpp.html#a5d80c7f56e03c96dc400839ceca50698" target="_top" xlink:title="Ambiguity resolution for network solutions.">
<polygon fill="white" stroke="red" points="137.5,-342.5 137.5,-361.5 235.5,-361.5 235.5,-342.5 137.5,-342.5"/>
<text text-anchor="middle" x="186.5" y="-349.5" font-family="Helvetica,sans-Serif" font-size="10.00">networkAmbigResl</text>
</a>
</g>
</g>
<!-- Node2&#45;&gt;Node11 -->
<g id="edge7" class="edge">
<title>Node2&#45;&gt;Node11</title>
<path fill="none" stroke="midnightblue" d="M270.37,-352C258.64,-352 246.7,-352 235.66,-352"/>
<polygon fill="midnightblue" stroke="midnightblue" points="270.6,-355.5 280.6,-352 270.6,-348.5 270.6,-355.5"/>
</g>
<!-- Node13 -->
<g id="node9" class="node">
<title>Node13</title>
<g id="a_node9"><a xlink:href="corrections_8cpp.html#a5bf581abef6389557c3fdd95086a5c42" target="_top" xlink:title=" ">
<polygon fill="white" stroke="red" points="148.5,-304.5 148.5,-323.5 224.5,-323.5 224.5,-304.5 148.5,-304.5"/>
<text text-anchor="middle" x="186.5" y="-311.5" font-family="Helvetica,sans-Serif" font-size="10.00">obsVariances</text>
</a>
</g>
</g>
<!-- Node2&#45;&gt;Node13 -->
<g id="edge9" class="edge">
<title>Node2&#45;&gt;Node13</title>
<path fill="none" stroke="midnightblue" d="M291.53,-339.92C269.88,-334.53 244.78,-328.27 224.65,-323.26"/>
<polygon fill="midnightblue" stroke="midnightblue" points="290.97,-343.39 301.52,-342.41 292.66,-336.6 290.97,-343.39"/>
</g>
<!-- Node15 -->
<g id="node10" class="node">
<title>Node15</title>
<g id="a_node10"><a xlink:href="ppp__user_8cpp.html#a6840432dd58d1e58178b15080b92bdd8" target="_top" xlink:title=" ">
<polygon fill="white" stroke="red" points="18,-228.5 18,-247.5 74,-247.5 74,-228.5 18,-228.5"/>
<text text-anchor="middle" x="46" y="-235.5" font-family="Helvetica,sans-Serif" font-size="10.00">ppp_filter</text>
</a>
</g>
</g>
<!-- Node2&#45;&gt;Node15 -->
<g id="edge10" class="edge">
<title>Node2&#45;&gt;Node15</title>
<path fill="none" stroke="midnightblue" d="M318.06,-336.58C299.35,-323.99 271.37,-306.47 245,-295 214,-281.51 120.85,-256.87 74.22,-244.9"/>
<polygon fill="midnightblue" stroke="midnightblue" points="316.22,-339.56 326.45,-342.31 320.17,-333.78 316.22,-339.56"/>
</g>
<!-- Node17 -->
<g id="node11" class="node">
<title>Node17</title>
<g id="a_node11"><a xlink:href="networkEstimator_8cpp.html#a552f5bd62ab4b7d536fa38bf0924a849" target="_top" xlink:title="Remove ambiguity states from filter when they deemed old or bad This effectively reinitialises them o...">
<polygon fill="white" stroke="red" points="128,-380.5 128,-399.5 245,-399.5 245,-380.5 128,-380.5"/>
<text text-anchor="middle" x="186.5" y="-387.5" font-family="Helvetica,sans-Serif" font-size="10.00">removeBadAmbiguities</text>
</a>
</g>
</g>
<!-- Node2&#45;&gt;Node17 -->
<g id="edge11" class="edge">
<title>Node2&#45;&gt;Node17</title>
<path fill="none" stroke="midnightblue" d="M291.68,-364.04C270.38,-369.35 245.7,-375.5 225.71,-380.48"/>
<polygon fill="midnightblue" stroke="midnightblue" points="292.66,-367.4 301.52,-361.59 290.97,-360.61 292.66,-367.4"/>
</g>
<!-- Node18 -->
<g id="node12" class="node">
<title>Node18</title>
<g id="a_node12"><a xlink:href="ppppp__obs_8cpp.html#a3db2ffced7ab37c4874c3a53fcb7953e" target="_top" xlink:title=" ">
<polygon fill="white" stroke="red" points="153.5,-152.5 153.5,-171.5 219.5,-171.5 219.5,-152.5 153.5,-152.5"/>
<text text-anchor="middle" x="186.5" y="-159.5" font-family="Helvetica,sans-Serif" font-size="10.00">stationPPP</text>
</a>
</g>
</g>
<!-- Node2&#45;&gt;Node18 -->
<g id="edge13" class="edge">
<title>Node2&#45;&gt;Node18</title>
<path fill="none" stroke="midnightblue" d="M334.44,-332.65C323.32,-297.36 295.03,-222.41 245,-181 237.79,-175.03 228.65,-170.92 219.78,-168.09"/>
<polygon fill="midnightblue" stroke="midnightblue" points="331.1,-333.68 337.34,-342.24 337.8,-331.66 331.1,-333.68"/>
</g>
<!-- Node19 -->
<g id="node13" class="node">
<title>Node19</title>
<g id="a_node13"><a xlink:href="ppp__user_8cpp.html#a123a4552194f4fd53016c9609a867d17" target="_top" xlink:title=" ">
<polygon fill="white" stroke="black" points="153.5,-228.5 153.5,-247.5 219.5,-247.5 219.5,-228.5 153.5,-228.5"/>
<text text-anchor="middle" x="186.5" y="-235.5" font-family="Helvetica,sans-Serif" font-size="10.00">udbias_ppp</text>
</a>
</g>
</g>
<!-- Node2&#45;&gt;Node19 -->
<g id="edge14" class="edge">
<title>Node2&#45;&gt;Node19</title>
<path fill="none" stroke="midnightblue" d="M325.38,-334.79C307.91,-315.07 276.99,-282.82 245,-262 236.11,-256.22 225.61,-251.35 216.02,-247.53"/>
<polygon fill="midnightblue" stroke="midnightblue" points="322.8,-337.16 332.01,-342.4 328.08,-332.56 322.8,-337.16"/>
</g>
<!-- Node20 -->
<g id="node14" class="node">
<title>Node20</title>
<g id="a_node14"><a xlink:href="ppppp_8cpp.html#a0544cce952f9b2692ee25b1aa22753c0" target="_top" xlink:title="Update the accelerations applied to orbital elements during the interval between epochs.">
<polygon fill="white" stroke="red" points="140,-570.5 140,-589.5 233,-589.5 233,-570.5 140,-570.5"/>
<text text-anchor="middle" x="186.5" y="-577.5" font-family="Helvetica,sans-Serif" font-size="10.00">updateRecClocks</text>
</a>
</g>
</g>
<!-- Node2&#45;&gt;Node20 -->
<g id="edge16" class="edge">
<title>Node2&#45;&gt;Node20</title>
<path fill="none" stroke="midnightblue" d="M336.55,-371.55C328.3,-412.63 303.55,-508.42 245,-561 240.7,-564.86 235.59,-567.94 230.22,-570.4"/>
<polygon fill="midnightblue" stroke="midnightblue" points="340.03,-371.98 338.46,-361.5 333.16,-370.67 340.03,-371.98"/>
</g>
<!-- Node7&#45;&gt;Node8 -->
<g id="edge5" class="edge">
<title>Node7&#45;&gt;Node8</title>
<path fill="none" stroke="midnightblue" d="M138.98,-490.61C135.17,-488.92 131.46,-487.06 128,-485 97,-466.57 68.07,-434.51 54.73,-418.57"/>
<polygon fill="midnightblue" stroke="midnightblue" points="137.98,-493.98 148.56,-494.44 140.58,-487.48 137.98,-493.98"/>
</g>
<!-- Node17&#45;&gt;Node8 -->
<g id="edge12" class="edge">
<title>Node17&#45;&gt;Node8</title>
<path fill="none" stroke="midnightblue" d="M117.85,-399.28C109.2,-400.47 100.51,-401.66 92.33,-402.78"/>
<polygon fill="midnightblue" stroke="midnightblue" points="118.54,-402.72 127.97,-397.89 117.58,-395.78 118.54,-402.72"/>
</g>
<!-- Node19&#45;&gt;Node15 -->
<g id="edge15" class="edge">
<title>Node19&#45;&gt;Node15</title>
<path fill="none" stroke="midnightblue" d="M143.12,-238C120.73,-238 93.9,-238 74.28,-238"/>
<polygon fill="midnightblue" stroke="midnightblue" points="143.38,-241.5 153.38,-238 143.38,-234.5 143.38,-241.5"/>
</g>
<!-- Node21&#45;&gt;Node6 -->
<g id="edge18" class="edge">
<title>Node21&#45;&gt;Node6</title>
<path fill="none" stroke="midnightblue" d="M317.94,-139.16C299.16,-151.58 271.15,-169.02 245,-181 237.26,-184.55 228.66,-187.75 220.52,-190.48"/>
<polygon fill="midnightblue" stroke="midnightblue" points="320.01,-141.98 326.37,-133.51 316.11,-136.17 320.01,-141.98"/>
</g>
<!-- Node21&#45;&gt;Node8 -->
<g id="edge19" class="edge">
<title>Node21&#45;&gt;Node8</title>
<path fill="none" stroke="midnightblue" d="M283.62,-113.15C236.81,-107.53 171.15,-107.94 128,-143 125.35,-145.15 63.98,-351.72 49.87,-399.3"/>
<polygon fill="midnightblue" stroke="midnightblue" points="283.22,-116.63 293.6,-114.47 284.14,-109.69 283.22,-116.63"/>
</g>
<!-- Node21&#45;&gt;Node15 -->
<g id="edge21" class="edge">
<title>Node21&#45;&gt;Node15</title>
<path fill="none" stroke="midnightblue" d="M320.61,-108.02C302.38,-94.1 273.67,-74.94 245,-67 194.89,-53.12 171.94,-39.19 128,-67 68.87,-104.42 52.06,-197.95 48.08,-228.31"/>
<polygon fill="midnightblue" stroke="midnightblue" points="318.65,-110.93 328.67,-114.36 322.98,-105.42 318.65,-110.93"/>
</g>
<!-- Node21&#45;&gt;Node18 -->
<g id="edge22" class="edge">
<title>Node21&#45;&gt;Node18</title>
<path fill="none" stroke="midnightblue" d="M291.7,-136.03C268.14,-141.91 240.45,-148.81 219.53,-154.02"/>
<polygon fill="midnightblue" stroke="midnightblue" points="292.66,-139.4 301.52,-133.59 290.97,-132.61 292.66,-139.4"/>
</g>
<!-- Node22 -->
<g id="node16" class="node">
<title>Node22</title>
<g id="a_node16"><a xlink:href="orbits_8cpp.html#adbf44cc33c6497cf698ffbae0894eb14" target="_top" xlink:title=" ">
<polygon fill="white" stroke="red" points="154,-0.5 154,-19.5 219,-19.5 219,-0.5 154,-0.5"/>
<text text-anchor="middle" x="186.5" y="-7.5" font-family="Helvetica,sans-Serif" font-size="10.00">outputOrbit</text>
</a>
</g>
</g>
<!-- Node21&#45;&gt;Node22 -->
<g id="edge20" class="edge">
<title>Node21&#45;&gt;Node22</title>
<path fill="none" stroke="midnightblue" d="M325.38,-106.79C307.91,-87.07 276.99,-54.82 245,-34 236.11,-28.22 225.61,-23.35 216.02,-19.53"/>
<polygon fill="midnightblue" stroke="midnightblue" points="322.8,-109.16 332.01,-114.4 328.08,-104.56 322.8,-109.16"/>
</g>
<!-- Node24 -->
<g id="node17" class="node">
<title>Node24</title>
<g id="a_node17"><a xlink:href="ppppp__pseudoobs_8cpp.html#ab255260e2ca2e89c21d280174f5a5a0b" target="_top" xlink:title=" ">
<polygon fill="white" stroke="red" points="147,-76.5 147,-95.5 226,-95.5 226,-76.5 147,-76.5"/>
<text text-anchor="middle" x="186.5" y="-83.5" font-family="Helvetica,sans-Serif" font-size="10.00">stationPseudo</text>
</a>
</g>
</g>
<!-- Node21&#45;&gt;Node24 -->
<g id="edge23" class="edge">
<title>Node21&#45;&gt;Node24</title>
<path fill="none" stroke="midnightblue" d="M291.68,-111.96C270.38,-106.65 245.7,-100.5 225.71,-95.52"/>
<polygon fill="midnightblue" stroke="midnightblue" points="290.97,-115.39 301.52,-114.41 292.66,-108.6 290.97,-115.39"/>
</g>
</g>
</svg>
