<?xml version="1.0" encoding="UTF-8" standalone="no"?>
<!DOCTYPE svg PUBLIC "-//W3C//DTD SVG 1.1//EN"
 "http://www.w3.org/Graphics/SVG/1.1/DTD/svg11.dtd">
<!-- Generated by graphviz version 2.50.0 (20220203.2022)
 -->
<!-- Title: trySetKalmanFromYaml Pages: 1 -->
<svg width="412pt" height="142pt"
 viewBox="0.00 0.00 412.00 142.00" xmlns="http://www.w3.org/2000/svg" xmlns:xlink="http://www.w3.org/1999/xlink">
<g id="graph0" class="graph" transform="scale(1 1) rotate(0) translate(4 138)">
<title>trySetKalmanFromYaml</title>
<polygon fill="white" stroke="transparent" points="-4,4 -4,-138 408,-138 408,4 -4,4"/>
<!-- Node1 -->
<g id="node1" class="node">
<title>Node1</title>
<g id="a_node1"><a xlink:title="Set the variables associated with kalman filter states from yaml.">
<polygon fill="#bfbfbf" stroke="black" points="284,-57.5 284,-76.5 404,-76.5 404,-57.5 284,-57.5"/>
<text text-anchor="middle" x="344" y="-64.5" font-family="Helvetica,sans-Serif" font-size="10.00">trySetKalmanFromYaml</text>
</a>
</g>
</g>
<!-- Node2 -->
<g id="node2" class="node">
<title>Node2</title>
<g id="a_node2"><a xlink:href="acsConfig_8cpp.html#a93b507f5cfa7760051904a0a1863118a" target="_top" xlink:title="Set satellite options from yaml.">
<polygon fill="white" stroke="black" points="164.5,-76.5 164.5,-95.5 239.5,-95.5 239.5,-76.5 164.5,-76.5"/>
<text text-anchor="middle" x="202" y="-83.5" font-family="Helvetica,sans-Serif" font-size="10.00">getFromYaml</text>
</a>
</g>
</g>
<!-- Node1&#45;&gt;Node2 -->
<g id="edge1" class="edge">
<title>Node1&#45;&gt;Node2</title>
<path fill="none" stroke="midnightblue" d="M273.43,-76.44C261.78,-78.02 250.12,-79.61 239.73,-81.02"/>
<polygon fill="midnightblue" stroke="midnightblue" points="274.19,-79.87 283.63,-75.06 273.25,-72.93 274.19,-79.87"/>
</g>
<!-- Node26 -->
<g id="node5" class="node">
<title>Node26</title>
<g id="a_node5"><a xlink:href="structACSConfig.html#a7956bea37dde8338349a7a2971c530e6" target="_top" xlink:title="Parse options to set acsConfig values.">
<polygon fill="white" stroke="black" points="156,-38.5 156,-57.5 248,-57.5 248,-38.5 156,-38.5"/>
<text text-anchor="middle" x="202" y="-45.5" font-family="Helvetica,sans-Serif" font-size="10.00">ACSConfig::parse</text>
</a>
</g>
</g>
<!-- Node1&#45;&gt;Node26 -->
<g id="edge4" class="edge">
<title>Node1&#45;&gt;Node26</title>
<path fill="none" stroke="midnightblue" d="M273.5,-57.57C264.84,-56.39 256.17,-55.22 248.02,-54.11"/>
<polygon fill="midnightblue" stroke="midnightblue" points="273.25,-61.07 283.63,-58.94 274.19,-54.13 273.25,-61.07"/>
</g>
<!-- Node3 -->
<g id="node3" class="node">
<title>Node3</title>
<g id="a_node3"><a xlink:href="structACSConfig.html#a7ddfbaf20a1c9181d73d0dabe92beace" target="_top" xlink:title="Set receiver options for a specific receiver using a hierarchy of sources.">
<polygon fill="white" stroke="red" points="0,-114.5 0,-133.5 120,-133.5 120,-114.5 0,-114.5"/>
<text text-anchor="middle" x="60" y="-121.5" font-family="Helvetica,sans-Serif" font-size="10.00">ACSConfig::getRecOpts</text>
</a>
</g>
</g>
<!-- Node2&#45;&gt;Node3 -->
<g id="edge2" class="edge">
<title>Node2&#45;&gt;Node3</title>
<path fill="none" stroke="midnightblue" d="M155.88,-98.25C136.59,-103.48 114.39,-109.51 96.32,-114.41"/>
<polygon fill="midnightblue" stroke="midnightblue" points="156.94,-101.59 165.67,-95.59 155.1,-94.83 156.94,-101.59"/>
</g>
<!-- Node22 -->
<g id="node4" class="node">
<title>Node22</title>
<g id="a_node4"><a xlink:href="structACSConfig.html#a9f893b7ab2412f42ef7a02423d755940" target="_top" xlink:title="Set satellite options for a specific satellite using a hierarchy of sources.">
<polygon fill="white" stroke="red" points="1,-76.5 1,-95.5 119,-95.5 119,-76.5 1,-76.5"/>
<text text-anchor="middle" x="60" y="-83.5" font-family="Helvetica,sans-Serif" font-size="10.00">ACSConfig::getSatOpts</text>
</a>
</g>
</g>
<!-- Node2&#45;&gt;Node22 -->
<g id="edge3" class="edge">
<title>Node2&#45;&gt;Node22</title>
<path fill="none" stroke="midnightblue" d="M154.2,-86C142.98,-86 130.87,-86 119.2,-86"/>
<polygon fill="midnightblue" stroke="midnightblue" points="154.22,-89.5 164.22,-86 154.22,-82.5 154.22,-89.5"/>
</g>
<!-- Node27 -->
<g id="node6" class="node">
<title>Node27</title>
<g id="a_node6"><a xlink:href="test__egm_8cpp.html#ae66f6b31b5ad750f1fe042a706a4e3d4" target="_top" xlink:title=" ">
<polygon fill="white" stroke="black" points="41,-38.5 41,-57.5 79,-57.5 79,-38.5 41,-38.5"/>
<text text-anchor="middle" x="60" y="-45.5" font-family="Helvetica,sans-Serif" font-size="10.00">main</text>
</a>
</g>
</g>
<!-- Node26&#45;&gt;Node27 -->
<g id="edge5" class="edge">
<title>Node26&#45;&gt;Node27</title>
<path fill="none" stroke="midnightblue" d="M145.63,-48C121.99,-48 96.02,-48 79.17,-48"/>
<polygon fill="midnightblue" stroke="midnightblue" points="145.93,-51.5 155.93,-48 145.93,-44.5 145.93,-51.5"/>
</g>
<!-- Node6 -->
<g id="node7" class="node">
<title>Node6</title>
<g id="a_node7"><a xlink:href="main_8cpp.html#a30c68344d30ddfe1e926f8472b86f094" target="_top" xlink:title=" ">
<polygon fill="white" stroke="black" points="8.5,-0.5 8.5,-19.5 111.5,-19.5 111.5,-0.5 8.5,-0.5"/>
<text text-anchor="middle" x="60" y="-7.5" font-family="Helvetica,sans-Serif" font-size="10.00">mainOncePerEpoch</text>
</a>
</g>
</g>
<!-- Node26&#45;&gt;Node6 -->
<g id="edge6" class="edge">
<title>Node26&#45;&gt;Node6</title>
<path fill="none" stroke="midnightblue" d="M155.88,-35.75C136.59,-30.52 114.39,-24.49 96.32,-19.59"/>
<polygon fill="midnightblue" stroke="midnightblue" points="155.1,-39.17 165.67,-38.41 156.94,-32.41 155.1,-39.17"/>
</g>
</g>
</svg>
