<?xml version="1.0" encoding="UTF-8" standalone="no"?>
<!DOCTYPE svg PUBLIC "-//W3C//DTD SVG 1.1//EN"
 "http://www.w3.org/Graphics/SVG/1.1/DTD/svg11.dtd">
<!-- Generated by graphviz version 2.50.0 (20220203.2022)
 -->
<!-- Title: cycleslip3 Pages: 1 -->
<svg width="262pt" height="28pt"
 viewBox="0.00 0.00 262.00 28.00" xmlns="http://www.w3.org/2000/svg" xmlns:xlink="http://www.w3.org/1999/xlink">
<g id="graph0" class="graph" transform="scale(1 1) rotate(0) translate(4 24)">
<title>cycleslip3</title>
<polygon fill="white" stroke="transparent" points="-4,4 -4,-24 258,-24 258,4 -4,4"/>
<!-- Node1 -->
<g id="node1" class="node">
<title>Node1</title>
<g id="a_node1"><a xlink:title="Cycle slip detection and repair for triple&#45;frequency.">
<polygon fill="#bfbfbf" stroke="black" points="195,-0.5 195,-19.5 254,-19.5 254,-0.5 195,-0.5"/>
<text text-anchor="middle" x="224.5" y="-7.5" font-family="Helvetica,sans-Serif" font-size="10.00">cycleslip3</text>
</a>
</g>
</g>
<!-- Node2 -->
<g id="node2" class="node">
<title>Node2</title>
<g id="a_node2"><a xlink:href="acsQC_8cpp.html#a099d227578f6d7896777651aca60fe1b" target="_top" xlink:title="Cycle slip detection and repair.">
<polygon fill="white" stroke="black" points="100,-0.5 100,-19.5 159,-19.5 159,-0.5 100,-0.5"/>
<text text-anchor="middle" x="129.5" y="-7.5" font-family="Helvetica,sans-Serif" font-size="10.00">detectslip</text>
</a>
</g>
</g>
<!-- Node1&#45;&gt;Node2 -->
<g id="edge1" class="edge">
<title>Node1&#45;&gt;Node2</title>
<path fill="none" stroke="midnightblue" d="M184.69,-10C176.16,-10 167.28,-10 159.23,-10"/>
<polygon fill="midnightblue" stroke="midnightblue" points="184.84,-13.5 194.84,-10 184.84,-6.5 184.84,-13.5"/>
</g>
<!-- Node3 -->
<g id="node3" class="node">
<title>Node3</title>
<g id="a_node3"><a xlink:href="acsQC_8cpp.html#ae13db6fb21721c9fcb1eb93ea40ba2ff" target="_top" xlink:title="Detect slips for multiple observations.">
<polygon fill="white" stroke="red" points="0,-0.5 0,-19.5 64,-19.5 64,-0.5 0,-0.5"/>
<text text-anchor="middle" x="32" y="-7.5" font-family="Helvetica,sans-Serif" font-size="10.00">detectslips</text>
</a>
</g>
</g>
<!-- Node2&#45;&gt;Node3 -->
<g id="edge2" class="edge">
<title>Node2&#45;&gt;Node3</title>
<path fill="none" stroke="midnightblue" d="M89.78,-10C81.31,-10 72.44,-10 64.3,-10"/>
<polygon fill="midnightblue" stroke="midnightblue" points="89.85,-13.5 99.85,-10 89.85,-6.5 89.85,-13.5"/>
</g>
</g>
</svg>
