<?xml version="1.0" encoding="UTF-8" standalone="no"?>
<!DOCTYPE svg PUBLIC "-//W3C//DTD SVG 1.1//EN"
 "http://www.w3.org/Graphics/SVG/1.1/DTD/svg11.dtd">
<!-- Generated by graphviz version 2.50.0 (20220203.2022)
 -->
<!-- Title: cycleslip3 Pages: 1 -->
<svg width="457pt" height="408pt"
 viewBox="0.00 0.00 457.00 408.00" xmlns="http://www.w3.org/2000/svg" xmlns:xlink="http://www.w3.org/1999/xlink">
<g id="graph0" class="graph" transform="scale(1 1) rotate(0) translate(4 404)">
<title>cycleslip3</title>
<polygon fill="white" stroke="transparent" points="-4,4 -4,-404 453,-404 453,4 -4,4"/>
<!-- Node1 -->
<g id="node1" class="node">
<title>Node1</title>
<g id="a_node1"><a xlink:title="Cycle slip detection and repair for triple&#45;frequency.">
<polygon fill="#bfbfbf" stroke="black" points="0,-190.5 0,-209.5 59,-209.5 59,-190.5 0,-190.5"/>
<text text-anchor="middle" x="29.5" y="-197.5" font-family="Helvetica,sans-Serif" font-size="10.00">cycleslip3</text>
</a>
</g>
</g>
<!-- Node2 -->
<g id="node2" class="node">
<title>Node2</title>
<g id="a_node2"><a xlink:href="trop_8cpp.html#aee11659ecea14ca59feae2dbe9f160d5" target="_top" xlink:title="coefficients multiplication">
<polygon fill="white" stroke="black" points="107.5,-323.5 107.5,-342.5 142.5,-342.5 142.5,-323.5 107.5,-323.5"/>
<text text-anchor="middle" x="125" y="-330.5" font-family="Helvetica,sans-Serif" font-size="10.00">coef</text>
</a>
</g>
</g>
<!-- Node1&#45;&gt;Node2 -->
<g id="edge1" class="edge">
<title>Node1&#45;&gt;Node2</title>
<path fill="none" stroke="midnightblue" d="M34.07,-209.53C42.25,-230.41 64.06,-280.98 95,-314 96.22,-315.3 97.54,-316.55 98.93,-317.75"/>
<polygon fill="midnightblue" stroke="midnightblue" points="97.19,-320.82 107.3,-323.99 101.37,-315.21 97.19,-320.82"/>
</g>
<!-- Node3 -->
<g id="node3" class="node">
<title>Node3</title>
<g id="a_node3"><a xlink:href="linearCombo_8cpp.html#afdd3451cef793c3574f718f2f79d9278" target="_top" xlink:title="Create combinations between specific observation values.">
<polygon fill="white" stroke="black" points="103.5,-285.5 103.5,-304.5 146.5,-304.5 146.5,-285.5 103.5,-285.5"/>
<text text-anchor="middle" x="125" y="-292.5" font-family="Helvetica,sans-Serif" font-size="10.00">getLC</text>
</a>
</g>
</g>
<!-- Node1&#45;&gt;Node3 -->
<g id="edge2" class="edge">
<title>Node1&#45;&gt;Node3</title>
<path fill="none" stroke="midnightblue" d="M37.27,-209.65C48.26,-224.88 71.14,-254.92 95,-276 96.3,-277.15 97.68,-278.28 99.1,-279.39"/>
<polygon fill="midnightblue" stroke="midnightblue" points="97.27,-282.38 107.45,-285.33 101.33,-276.68 97.27,-282.38"/>
</g>
<!-- Node4 -->
<g id="node4" class="node">
<title>Node4</title>
<g id="a_node4"><a xlink:href="structSatSys.html#aec6d07b90d1e8172b8b6a6966abef4fd" target="_top" xlink:title="Returns a std::string of this satellite&#39;s id.">
<polygon fill="white" stroke="black" points="95,-247.5 95,-266.5 155,-266.5 155,-247.5 95,-247.5"/>
<text text-anchor="middle" x="125" y="-254.5" font-family="Helvetica,sans-Serif" font-size="10.00">SatSys::id</text>
</a>
</g>
</g>
<!-- Node1&#45;&gt;Node4 -->
<g id="edge3" class="edge">
<title>Node1&#45;&gt;Node4</title>
<path fill="none" stroke="midnightblue" d="M46.36,-209.67C60.96,-218.57 82.82,-231.9 99.63,-242.14"/>
<polygon fill="midnightblue" stroke="midnightblue" points="98.01,-245.26 108.37,-247.47 101.66,-239.28 98.01,-245.26"/>
</g>
<!-- Node7 -->
<g id="node6" class="node">
<title>Node7</title>
<g id="a_node6"><a xlink:href="acsQC_8cpp.html#ae3b62ae16be377006095445f8e3043ad" target="_top" xlink:title="Melbourne&#45;Wenbunna (MW) measurement noise (m)">
<polygon fill="white" stroke="black" points="97,-209.5 97,-228.5 153,-228.5 153,-209.5 97,-209.5"/>
<text text-anchor="middle" x="125" y="-216.5" font-family="Helvetica,sans-Serif" font-size="10.00">mwnoise</text>
</a>
</g>
</g>
<!-- Node1&#45;&gt;Node7 -->
<g id="edge5" class="edge">
<title>Node1&#45;&gt;Node7</title>
<path fill="none" stroke="midnightblue" d="M59.06,-205.8C67.9,-207.6 77.76,-209.6 87.07,-211.5"/>
<polygon fill="midnightblue" stroke="midnightblue" points="86.4,-214.93 96.89,-213.49 87.79,-208.07 86.4,-214.93"/>
</g>
<!-- Node8 -->
<g id="node7" class="node">
<title>Node8</title>
<g id="a_node7"><a xlink:href="acsQC_8cpp.html#abb64bdd7fce88139b8029b100b8ab662" target="_top" xlink:title="Single channel detection–identification–adaptation (DIA) for integer cycle slips.">
<polygon fill="white" stroke="black" points="105,-171.5 105,-190.5 145,-190.5 145,-171.5 105,-171.5"/>
<text text-anchor="middle" x="125" y="-178.5" font-family="Helvetica,sans-Serif" font-size="10.00">scdia</text>
</a>
</g>
</g>
<!-- Node1&#45;&gt;Node8 -->
<g id="edge6" class="edge">
<title>Node1&#45;&gt;Node8</title>
<path fill="none" stroke="midnightblue" d="M59.06,-194.2C70.41,-191.89 83.45,-189.24 94.86,-186.92"/>
<polygon fill="midnightblue" stroke="midnightblue" points="95.67,-190.33 104.78,-184.91 94.28,-183.47 95.67,-190.33"/>
</g>
<!-- Node32 -->
<g id="node13" class="node">
<title>Node32</title>
<g id="a_node13"><a xlink:href="streamTrace_8cpp.html#ae00e6addd3bdf3a7fd41a254eb9aec89" target="_top" xlink:title=" ">
<polygon fill="white" stroke="black" points="301,-133.5 301,-152.5 365,-152.5 365,-133.5 301,-133.5"/>
<text text-anchor="middle" x="333" y="-140.5" font-family="Helvetica,sans-Serif" font-size="10.00">tracepdeex</text>
</a>
</g>
</g>
<!-- Node1&#45;&gt;Node32 -->
<g id="edge28" class="edge">
<title>Node1&#45;&gt;Node32</title>
<path fill="none" stroke="midnightblue" d="M44.86,-190.29C57.62,-181.98 76.98,-170.1 95,-162 135.9,-143.62 146.71,-137.97 191,-131 224.39,-125.74 262.63,-129.6 290.85,-134.3"/>
<polygon fill="midnightblue" stroke="midnightblue" points="290.31,-137.76 300.76,-136.05 291.53,-130.87 290.31,-137.76"/>
</g>
<!-- Node35 -->
<g id="node15" class="node">
<title>Node35</title>
<g id="a_node15"><a xlink:href="streamTrace_8cpp.html#a26d8a8c49d22d1ec101a45f8ee2e1fcc" target="_top" xlink:title=" ">
<polygon fill="white" stroke="black" points="201,-38.5 201,-57.5 255,-57.5 255,-38.5 201,-38.5"/>
<text text-anchor="middle" x="228" y="-45.5" font-family="Helvetica,sans-Serif" font-size="10.00">tracepde</text>
</a>
</g>
</g>
<!-- Node1&#45;&gt;Node35 -->
<g id="edge27" class="edge">
<title>Node1&#45;&gt;Node35</title>
<path fill="none" stroke="midnightblue" d="M32.3,-190.42C37.36,-166.25 54.14,-102.54 95,-72 122.5,-51.44 162.09,-46.6 190.73,-46.19"/>
<polygon fill="midnightblue" stroke="midnightblue" points="190.74,-49.69 200.75,-46.22 190.76,-42.69 190.74,-49.69"/>
</g>
<!-- Node36 -->
<g id="node16" class="node">
<title>Node36</title>
<g id="a_node16"><a xlink:href="gTime_8cpp.html#abf196aa655d8ca10168c2301a68a8101" target="_top" xlink:title=" ">
<polygon fill="white" stroke="black" points="95.5,-0.5 95.5,-19.5 154.5,-19.5 154.5,-0.5 95.5,-0.5"/>
<text text-anchor="middle" x="125" y="-7.5" font-family="Helvetica,sans-Serif" font-size="10.00">time2gpst</text>
</a>
</g>
</g>
<!-- Node1&#45;&gt;Node36 -->
<g id="edge25" class="edge">
<title>Node1&#45;&gt;Node36</title>
<path fill="none" stroke="midnightblue" d="M32.48,-190.18C38.31,-163.14 57.37,-86.15 95,-34 96.99,-31.24 99.37,-28.62 101.89,-26.18"/>
<polygon fill="midnightblue" stroke="midnightblue" points="104.36,-28.67 109.68,-19.51 99.81,-23.36 104.36,-28.67"/>
</g>
<!-- Node5 -->
<g id="node5" class="node">
<title>Node5</title>
<g id="a_node5"><a xlink:href="structSatSys.html#adbdf98ba1ef1f22b6aaed93916529513" target="_top" xlink:title="Sets a 4 character c_string of this satellite&#39;s id.">
<polygon fill="white" stroke="red" points="191,-380.5 191,-399.5 265,-399.5 265,-380.5 191,-380.5"/>
<text text-anchor="middle" x="228" y="-387.5" font-family="Helvetica,sans-Serif" font-size="10.00">SatSys::getId</text>
</a>
</g>
</g>
<!-- Node4&#45;&gt;Node5 -->
<g id="edge4" class="edge">
<title>Node4&#45;&gt;Node5</title>
<path fill="none" stroke="midnightblue" d="M144.25,-266.51C148.17,-269.18 152.03,-272.37 155,-276 182.28,-309.35 163.86,-332.55 191,-366 193.54,-369.13 196.59,-372 199.83,-374.58"/>
<polygon fill="midnightblue" stroke="midnightblue" points="197.9,-377.5 208.09,-380.39 201.93,-371.77 197.9,-377.5"/>
</g>
<!-- Node9 -->
<g id="node8" class="node">
<title>Node9</title>
<g id="a_node8"><a xlink:href="algebra__old_8cpp.html#a56b19c4e307111fe68e1e2c1f57868a1" target="_top" xlink:title=" ">
<polygon fill="white" stroke="red" points="208,-304.5 208,-323.5 248,-323.5 248,-304.5 208,-304.5"/>
<text text-anchor="middle" x="228" y="-311.5" font-family="Helvetica,sans-Serif" font-size="10.00">filter_</text>
</a>
</g>
</g>
<!-- Node8&#45;&gt;Node9 -->
<g id="edge7" class="edge">
<title>Node8&#45;&gt;Node9</title>
<path fill="none" stroke="midnightblue" d="M144.25,-190.51C148.17,-193.18 152.03,-196.37 155,-200 182.28,-233.35 163.86,-256.55 191,-290 193.54,-293.13 196.59,-296 199.83,-298.58"/>
<polygon fill="midnightblue" stroke="midnightblue" points="197.9,-301.5 208.09,-304.39 201.93,-295.77 197.9,-301.5"/>
</g>
<!-- Node14 -->
<g id="node9" class="node">
<title>Node14</title>
<g id="a_node9"><a xlink:href="algebra__old_8cpp.html#a50d2d9511da542d472f3390449fedf38" target="_top" xlink:title=" ">
<polygon fill="white" stroke="black" points="401,-285.5 401,-304.5 449,-304.5 449,-285.5 401,-285.5"/>
<text text-anchor="middle" x="425" y="-292.5" font-family="Helvetica,sans-Serif" font-size="10.00">matcpy</text>
</a>
</g>
</g>
<!-- Node8&#45;&gt;Node14 -->
<g id="edge20" class="edge">
<title>Node8&#45;&gt;Node14</title>
<path fill="none" stroke="midnightblue" d="M145.17,-190.69C148.86,-193.29 152.38,-196.39 155,-200 190.96,-249.57 142.37,-295.78 191,-333 253.6,-380.91 353.64,-335.39 399.54,-309.78"/>
<polygon fill="midnightblue" stroke="midnightblue" points="401.54,-312.66 408.48,-304.65 398.06,-306.59 401.54,-312.66"/>
</g>
<!-- Node15 -->
<g id="node10" class="node">
<title>Node15</title>
<g id="a_node10"><a xlink:href="algebra__old_8cpp.html#a4035d20f11b4bd8085e6b0f84f8c0764" target="_top" xlink:title=" ">
<polygon fill="white" stroke="red" points="310,-266.5 310,-285.5 356,-285.5 356,-266.5 310,-266.5"/>
<text text-anchor="middle" x="333" y="-273.5" font-family="Helvetica,sans-Serif" font-size="10.00">matinv</text>
</a>
</g>
</g>
<!-- Node8&#45;&gt;Node15 -->
<g id="edge21" class="edge">
<title>Node8&#45;&gt;Node15</title>
<path fill="none" stroke="midnightblue" d="M143.18,-190.52C147.32,-193.27 151.54,-196.48 155,-200 176.01,-221.36 165.79,-240.81 191,-257 223.63,-277.95 269.27,-280.35 299.68,-279.07"/>
<polygon fill="midnightblue" stroke="midnightblue" points="299.98,-282.56 309.76,-278.49 299.58,-275.57 299.98,-282.56"/>
</g>
<!-- Node19 -->
<g id="node11" class="node">
<title>Node19</title>
<g id="a_node11"><a xlink:href="algebra__old_8cpp.html#adc33998911a24938042604ba1f8e6196" target="_top" xlink:title=" ">
<polygon fill="white" stroke="black" points="308.5,-190.5 308.5,-209.5 357.5,-209.5 357.5,-190.5 308.5,-190.5"/>
<text text-anchor="middle" x="333" y="-197.5" font-family="Helvetica,sans-Serif" font-size="10.00">matmul</text>
</a>
</g>
</g>
<!-- Node8&#45;&gt;Node19 -->
<g id="edge22" class="edge">
<title>Node8&#45;&gt;Node19</title>
<path fill="none" stroke="midnightblue" d="M145.01,-182.75C179.89,-185.97 254.51,-192.85 298.21,-196.88"/>
<polygon fill="midnightblue" stroke="midnightblue" points="298.06,-200.38 308.34,-197.82 298.71,-193.41 298.06,-200.38"/>
</g>
<!-- Node20 -->
<g id="node12" class="node">
<title>Node20</title>
<g id="a_node12"><a xlink:href="lambda_8cpp.html#a364f9f201016e3baff0a9366158a823b" target="_top" xlink:title=" ">
<polygon fill="white" stroke="red" points="204,-152.5 204,-171.5 252,-171.5 252,-152.5 204,-152.5"/>
<text text-anchor="middle" x="228" y="-159.5" font-family="Helvetica,sans-Serif" font-size="10.00">lambda</text>
</a>
</g>
</g>
<!-- Node8&#45;&gt;Node20 -->
<g id="edge12" class="edge">
<title>Node8&#45;&gt;Node20</title>
<path fill="none" stroke="midnightblue" d="M145.47,-177.34C159.11,-174.77 177.68,-171.28 193.64,-168.27"/>
<polygon fill="midnightblue" stroke="midnightblue" points="194.51,-171.67 203.69,-166.39 193.21,-164.79 194.51,-171.67"/>
</g>
<!-- Node8&#45;&gt;Node32 -->
<g id="edge24" class="edge">
<title>Node8&#45;&gt;Node32</title>
<path fill="none" stroke="midnightblue" d="M138.05,-171.28C150.47,-161.94 170.81,-148.47 191,-143 223.72,-134.14 262.31,-134.86 290.83,-137.4"/>
<polygon fill="midnightblue" stroke="midnightblue" points="290.56,-140.89 300.86,-138.4 291.25,-133.92 290.56,-140.89"/>
</g>
<!-- Node33 -->
<g id="node14" class="node">
<title>Node33</title>
<g id="a_node14"><a xlink:href="algebra__old_8cpp.html#acc2b857563b3c233a09fe2427965f7b2" target="_top" xlink:title=" ">
<polygon fill="white" stroke="red" points="208,-228.5 208,-247.5 248,-247.5 248,-228.5 208,-228.5"/>
<text text-anchor="middle" x="228" y="-235.5" font-family="Helvetica,sans-Serif" font-size="10.00">lsqqc</text>
</a>
</g>
</g>
<!-- Node8&#45;&gt;Node33 -->
<g id="edge15" class="edge">
<title>Node8&#45;&gt;Node33</title>
<path fill="none" stroke="midnightblue" d="M143.13,-190.67C159.04,-199.65 182.96,-213.14 201.18,-223.43"/>
<polygon fill="midnightblue" stroke="midnightblue" points="199.69,-226.61 210.12,-228.47 203.13,-220.51 199.69,-226.61"/>
</g>
<!-- Node8&#45;&gt;Node35 -->
<g id="edge23" class="edge">
<title>Node8&#45;&gt;Node35</title>
<path fill="none" stroke="midnightblue" d="M133.26,-171.43C150,-149.4 191.49,-94.76 213.22,-66.14"/>
<polygon fill="midnightblue" stroke="midnightblue" points="216.27,-67.92 219.53,-57.84 210.69,-63.68 216.27,-67.92"/>
</g>
<!-- Node9&#45;&gt;Node14 -->
<g id="edge8" class="edge">
<title>Node9&#45;&gt;Node14</title>
<path fill="none" stroke="midnightblue" d="M248.05,-312.14C281.2,-308.91 349.86,-302.22 390.93,-298.22"/>
<polygon fill="midnightblue" stroke="midnightblue" points="391.37,-301.7 400.98,-297.24 390.69,-294.73 391.37,-301.7"/>
</g>
<!-- Node9&#45;&gt;Node15 -->
<g id="edge9" class="edge">
<title>Node9&#45;&gt;Node15</title>
<path fill="none" stroke="midnightblue" d="M248.37,-306.85C262.99,-301.46 283.35,-293.95 300.32,-287.69"/>
<polygon fill="midnightblue" stroke="midnightblue" points="301.68,-290.92 309.85,-284.17 299.26,-284.35 301.68,-290.92"/>
</g>
<!-- Node9&#45;&gt;Node19 -->
<g id="edge11" class="edge">
<title>Node9&#45;&gt;Node19</title>
<path fill="none" stroke="midnightblue" d="M237.78,-304.28C255.26,-284.93 294.62,-241.37 316.54,-217.12"/>
<polygon fill="midnightblue" stroke="midnightblue" points="319.13,-219.46 323.24,-209.69 313.94,-214.77 319.13,-219.46"/>
</g>
<!-- Node15&#45;&gt;Node14 -->
<g id="edge10" class="edge">
<title>Node15&#45;&gt;Node14</title>
<path fill="none" stroke="midnightblue" d="M356.25,-280.7C366.61,-282.88 379.16,-285.53 390.62,-287.95"/>
<polygon fill="midnightblue" stroke="midnightblue" points="390.25,-291.45 400.75,-290.09 391.69,-284.6 390.25,-291.45"/>
</g>
<!-- Node20&#45;&gt;Node19 -->
<g id="edge13" class="edge">
<title>Node20&#45;&gt;Node19</title>
<path fill="none" stroke="midnightblue" d="M252.12,-170.53C265.84,-175.59 283.47,-182.09 298.67,-187.7"/>
<polygon fill="midnightblue" stroke="midnightblue" points="297.65,-191.06 308.25,-191.24 300.08,-184.49 297.65,-191.06"/>
</g>
<!-- Node20&#45;&gt;Node32 -->
<g id="edge14" class="edge">
<title>Node20&#45;&gt;Node32</title>
<path fill="none" stroke="midnightblue" d="M252.12,-157.74C263.55,-155.63 277.71,-153.02 290.91,-150.58"/>
<polygon fill="midnightblue" stroke="midnightblue" points="291.56,-154.02 300.76,-148.76 290.29,-147.14 291.56,-154.02"/>
</g>
<!-- Node33&#45;&gt;Node14 -->
<g id="edge16" class="edge">
<title>Node33&#45;&gt;Node14</title>
<path fill="none" stroke="midnightblue" d="M248.1,-238.1C275.01,-238.81 325.22,-242.23 365,-257 379.06,-262.22 393.24,-271.21 404.17,-279.13"/>
<polygon fill="midnightblue" stroke="midnightblue" points="402.09,-281.94 412.18,-285.16 406.3,-276.35 402.09,-281.94"/>
</g>
<!-- Node33&#45;&gt;Node15 -->
<g id="edge17" class="edge">
<title>Node33&#45;&gt;Node15</title>
<path fill="none" stroke="midnightblue" d="M248.37,-245.15C262.99,-250.54 283.35,-258.05 300.32,-264.31"/>
<polygon fill="midnightblue" stroke="midnightblue" points="299.26,-267.65 309.85,-267.83 301.68,-261.08 299.26,-267.65"/>
</g>
<!-- Node33&#45;&gt;Node19 -->
<g id="edge18" class="edge">
<title>Node33&#45;&gt;Node19</title>
<path fill="none" stroke="midnightblue" d="M248.37,-230.85C262.6,-225.6 282.27,-218.35 298.96,-212.19"/>
<polygon fill="midnightblue" stroke="midnightblue" points="300.2,-215.46 308.37,-208.72 297.78,-208.89 300.2,-215.46"/>
</g>
<!-- Node33&#45;&gt;Node32 -->
<g id="edge19" class="edge">
<title>Node33&#45;&gt;Node32</title>
<path fill="none" stroke="midnightblue" d="M239.63,-228.19C257.23,-211.97 292.58,-179.36 314.08,-159.53"/>
<polygon fill="midnightblue" stroke="midnightblue" points="316.6,-161.97 321.58,-152.61 311.85,-156.82 316.6,-161.97"/>
</g>
<!-- Node37 -->
<g id="node17" class="node">
<title>Node37</title>
<g id="a_node17"><a xlink:href="gTime_8cpp.html#aa46173b9085096882d09e53d96e9dc41" target="_top" xlink:title=" ">
<polygon fill="white" stroke="black" points="194.5,-0.5 194.5,-19.5 261.5,-19.5 261.5,-0.5 194.5,-0.5"/>
<text text-anchor="middle" x="228" y="-7.5" font-family="Helvetica,sans-Serif" font-size="10.00">epoch2time</text>
</a>
</g>
</g>
<!-- Node36&#45;&gt;Node37 -->
<g id="edge26" class="edge">
<title>Node36&#45;&gt;Node37</title>
<path fill="none" stroke="midnightblue" d="M154.67,-10C163.85,-10 174.22,-10 184.17,-10"/>
<polygon fill="midnightblue" stroke="midnightblue" points="184.34,-13.5 194.34,-10 184.34,-6.5 184.34,-13.5"/>
</g>
</g>
</svg>
