<?xml version="1.0" encoding="UTF-8" standalone="no"?>
<!DOCTYPE svg PUBLIC "-//W3C//DTD SVG 1.1//EN"
 "http://www.w3.org/Graphics/SVG/1.1/DTD/svg11.dtd">
<!-- Generated by graphviz version 2.50.0 (20220203.2022)
 -->
<!-- Title: detslp_gf Pages: 1 -->
<svg width="164pt" height="66pt"
 viewBox="0.00 0.00 164.00 66.00" xmlns="http://www.w3.org/2000/svg" xmlns:xlink="http://www.w3.org/1999/xlink">
<g id="graph0" class="graph" transform="scale(1 1) rotate(0) translate(4 62)">
<title>detslp_gf</title>
<polygon fill="white" stroke="transparent" points="-4,4 -4,-62 160,-62 160,4 -4,4"/>
<!-- Node1 -->
<g id="node1" class="node">
<title>Node1</title>
<g id="a_node1"><a xlink:title="Detect cycle slip by geometry free phase jump.">
<polygon fill="#bfbfbf" stroke="black" points="0,-19.5 0,-38.5 56,-38.5 56,-19.5 0,-19.5"/>
<text text-anchor="middle" x="28" y="-26.5" font-family="Helvetica,sans-Serif" font-size="10.00">detslp_gf</text>
</a>
</g>
</g>
<!-- Node2 -->
<g id="node2" class="node">
<title>Node2</title>
<g id="a_node2"><a xlink:href="linearCombo_8cpp.html#afdd3451cef793c3574f718f2f79d9278" target="_top" xlink:title="Create combinations between specific observation values.">
<polygon fill="white" stroke="black" points="102.5,-38.5 102.5,-57.5 145.5,-57.5 145.5,-38.5 102.5,-38.5"/>
<text text-anchor="middle" x="124" y="-45.5" font-family="Helvetica,sans-Serif" font-size="10.00">getLC</text>
</a>
</g>
</g>
<!-- Node1&#45;&gt;Node2 -->
<g id="edge1" class="edge">
<title>Node1&#45;&gt;Node2</title>
<path fill="none" stroke="midnightblue" d="M56.19,-34.5C67.6,-36.8 80.91,-39.49 92.63,-41.86"/>
<polygon fill="midnightblue" stroke="midnightblue" points="91.95,-45.29 102.44,-43.85 93.34,-38.43 91.95,-45.29"/>
</g>
<!-- Node3 -->
<g id="node3" class="node">
<title>Node3</title>
<g id="a_node3"><a xlink:href="streamTrace_8cpp.html#ae00e6addd3bdf3a7fd41a254eb9aec89" target="_top" xlink:title=" ">
<polygon fill="white" stroke="black" points="92,-0.5 92,-19.5 156,-19.5 156,-0.5 92,-0.5"/>
<text text-anchor="middle" x="124" y="-7.5" font-family="Helvetica,sans-Serif" font-size="10.00">tracepdeex</text>
</a>
</g>
</g>
<!-- Node1&#45;&gt;Node3 -->
<g id="edge2" class="edge">
<title>Node1&#45;&gt;Node3</title>
<path fill="none" stroke="midnightblue" d="M56.19,-23.5C64.22,-21.88 73.19,-20.07 81.89,-18.31"/>
<polygon fill="midnightblue" stroke="midnightblue" points="82.79,-21.7 91.9,-16.29 81.41,-14.84 82.79,-21.7"/>
</g>
</g>
</svg>
