<?xml version="1.0" encoding="UTF-8" standalone="no"?>
<!DOCTYPE svg PUBLIC "-//W3C//DTD SVG 1.1//EN"
 "http://www.w3.org/Graphics/SVG/1.1/DTD/svg11.dtd">
<!-- Generated by graphviz version 2.50.0 (20220203.2022)
 -->
<!-- Title: detslp_gf Pages: 1 -->
<svg width="349pt" height="28pt"
 viewBox="0.00 0.00 349.00 28.00" xmlns="http://www.w3.org/2000/svg" xmlns:xlink="http://www.w3.org/1999/xlink">
<g id="graph0" class="graph" transform="scale(1 1) rotate(0) translate(4 24)">
<title>detslp_gf</title>
<polygon fill="white" stroke="transparent" points="-4,4 -4,-24 345,-24 345,4 -4,4"/>
<!-- Node1 -->
<g id="node1" class="node">
<title>Node1</title>
<g id="a_node1"><a xlink:title="Detect cycle slip by geometry free phase jump.">
<polygon fill="#bfbfbf" stroke="black" points="285,-0.5 285,-19.5 341,-19.5 341,-0.5 285,-0.5"/>
<text text-anchor="middle" x="313" y="-7.5" font-family="Helvetica,sans-Serif" font-size="10.00">detslp_gf</text>
</a>
</g>
</g>
<!-- Node2 -->
<g id="node2" class="node">
<title>Node2</title>
<g id="a_node2"><a xlink:href="acsQC_8cpp.html#ae13db6fb21721c9fcb1eb93ea40ba2ff" target="_top" xlink:title="Detect slips for multiple observations.">
<polygon fill="white" stroke="black" points="185,-0.5 185,-19.5 249,-19.5 249,-0.5 185,-0.5"/>
<text text-anchor="middle" x="217" y="-7.5" font-family="Helvetica,sans-Serif" font-size="10.00">detectslips</text>
</a>
</g>
</g>
<!-- Node1&#45;&gt;Node2 -->
<g id="edge1" class="edge">
<title>Node1&#45;&gt;Node2</title>
<path fill="none" stroke="midnightblue" d="M274.75,-10C266.25,-10 257.31,-10 249.1,-10"/>
<polygon fill="midnightblue" stroke="midnightblue" points="274.81,-13.5 284.81,-10 274.81,-6.5 274.81,-13.5"/>
</g>
<!-- Node3 -->
<g id="node3" class="node">
<title>Node3</title>
<g id="a_node3"><a xlink:href="main_8cpp.html#a7e63aa887c069bdb77cd28a88ad18562" target="_top" xlink:title="Perform operations for each station This function occurs in parallel with other stations &#45; ensure tha...">
<polygon fill="white" stroke="red" points="0,-0.5 0,-19.5 149,-19.5 149,-0.5 0,-0.5"/>
<text text-anchor="middle" x="74.5" y="-7.5" font-family="Helvetica,sans-Serif" font-size="10.00">mainOncePerEpochPerStation</text>
</a>
</g>
</g>
<!-- Node2&#45;&gt;Node3 -->
<g id="edge2" class="edge">
<title>Node2&#45;&gt;Node3</title>
<path fill="none" stroke="midnightblue" d="M174.62,-10C166.56,-10 157.88,-10 149.13,-10"/>
<polygon fill="midnightblue" stroke="midnightblue" points="174.82,-13.5 184.82,-10 174.82,-6.5 174.82,-13.5"/>
</g>
</g>
</svg>
