<?xml version="1.0" encoding="UTF-8" standalone="no"?>
<!DOCTYPE svg PUBLIC "-//W3C//DTD SVG 1.1//EN"
 "http://www.w3.org/Graphics/SVG/1.1/DTD/svg11.dtd">
<!-- Generated by graphviz version 2.50.0 (20220203.2022)
 -->
<!-- Title: detectslip Pages: 1 -->
<svg width="385pt" height="438pt"
 viewBox="0.00 0.00 385.00 437.68" xmlns="http://www.w3.org/2000/svg" xmlns:xlink="http://www.w3.org/1999/xlink">
<g id="graph0" class="graph" transform="scale(1 1) rotate(0) translate(4 433.68)">
<title>detectslip</title>
<polygon fill="white" stroke="transparent" points="-4,4 -4,-433.68 381,-433.68 381,4 -4,4"/>
<!-- Node1 -->
<g id="node1" class="node">
<title>Node1</title>
<g id="a_node1"><a xlink:title="Cycle slip detection and repair.">
<polygon fill="#bfbfbf" stroke="black" points="0,-209.5 0,-228.5 59,-228.5 59,-209.5 0,-209.5"/>
<text text-anchor="middle" x="29.5" y="-216.5" font-family="Helvetica,sans-Serif" font-size="10.00">detectslip</text>
</a>
</g>
</g>
<!-- Node2 -->
<g id="node2" class="node">
<title>Node2</title>
<g id="a_node2"><a xlink:href="acsQC_8cpp.html#ae52b478bb7d30e6aaf8f0e6b4e526681" target="_top" xlink:title="Cycle slip detection and repair for dual&#45;frequency.">
<polygon fill="white" stroke="black" points="103.5,-266.5 103.5,-285.5 162.5,-285.5 162.5,-266.5 103.5,-266.5"/>
<text text-anchor="middle" x="133" y="-273.5" font-family="Helvetica,sans-Serif" font-size="10.00">cycleslip2</text>
</a>
</g>
</g>
<!-- Node1&#45;&gt;Node2 -->
<g id="edge1" class="edge">
<title>Node1&#45;&gt;Node2</title>
<path fill="none" stroke="midnightblue" d="M47.72,-228.67C63.78,-237.69 87.96,-251.27 106.3,-261.57"/>
<polygon fill="midnightblue" stroke="midnightblue" points="104.6,-264.63 115.04,-266.47 108.03,-258.53 104.6,-264.63"/>
</g>
<!-- Node4 -->
<g id="node4" class="node">
<title>Node4</title>
<g id="a_node4"><a xlink:href="linearCombo_8cpp.html#afdd3451cef793c3574f718f2f79d9278" target="_top" xlink:title="Create combinations between specific observation values.">
<polygon fill="white" stroke="black" points="215.5,-342.5 215.5,-361.5 258.5,-361.5 258.5,-342.5 215.5,-342.5"/>
<text text-anchor="middle" x="237" y="-349.5" font-family="Helvetica,sans-Serif" font-size="10.00">getLC</text>
</a>
</g>
</g>
<!-- Node1&#45;&gt;Node4 -->
<g id="edge23" class="edge">
<title>Node1&#45;&gt;Node4</title>
<path fill="none" stroke="midnightblue" d="M36.48,-228.71C46.68,-244.57 68.91,-276.15 95,-295 129.08,-319.62 175.31,-335.66 205.4,-344.28"/>
<polygon fill="midnightblue" stroke="midnightblue" points="204.75,-347.73 215.32,-347.01 206.61,-340.98 204.75,-347.73"/>
</g>
<!-- Node6 -->
<g id="node6" class="node">
<title>Node6</title>
<g id="a_node6"><a xlink:href="structSatSys.html#adbdf98ba1ef1f22b6aaed93916529513" target="_top" xlink:title="Sets a 4 character c_string of this satellite&#39;s id.">
<polygon fill="white" stroke="red" points="303,-361.5 303,-380.5 377,-380.5 377,-361.5 303,-361.5"/>
<text text-anchor="middle" x="340" y="-368.5" font-family="Helvetica,sans-Serif" font-size="10.00">SatSys::getId</text>
</a>
</g>
</g>
<!-- Node1&#45;&gt;Node6 -->
<g id="edge22" class="edge">
<title>Node1&#45;&gt;Node6</title>
<path fill="none" stroke="midnightblue" d="M34.68,-228.81C50.58,-264.55 111.25,-387.58 207,-423 232.01,-432.25 241.63,-431.2 267,-423 288.38,-416.09 308.76,-400.19 322.34,-387.78"/>
<polygon fill="midnightblue" stroke="midnightblue" points="325.04,-390.04 329.87,-380.61 320.21,-384.97 325.04,-390.04"/>
</g>
<!-- Node36 -->
<g id="node9" class="node">
<title>Node36</title>
<g id="a_node9"><a xlink:href="streamTrace_8cpp.html#a26d8a8c49d22d1ec101a45f8ee2e1fcc" target="_top" xlink:title=" ">
<polygon fill="white" stroke="black" points="313,-152.5 313,-171.5 367,-171.5 367,-152.5 313,-152.5"/>
<text text-anchor="middle" x="340" y="-159.5" font-family="Helvetica,sans-Serif" font-size="10.00">tracepde</text>
</a>
</g>
</g>
<!-- Node1&#45;&gt;Node36 -->
<g id="edge27" class="edge">
<title>Node1&#45;&gt;Node36</title>
<path fill="none" stroke="midnightblue" d="M35.1,-209.32C44.25,-190.88 66.37,-150.29 95,-125 137.01,-87.88 152.54,-80.27 207,-67 232.91,-60.69 243.12,-55.13 267,-67 298.82,-82.81 320.35,-120.15 331.07,-143.02"/>
<polygon fill="midnightblue" stroke="midnightblue" points="327.98,-144.67 335.24,-152.39 334.37,-141.83 327.98,-144.67"/>
</g>
<!-- Node37 -->
<g id="node11" class="node">
<title>Node37</title>
<g id="a_node11"><a xlink:href="gTime_8cpp.html#abf196aa655d8ca10168c2301a68a8101" target="_top" xlink:title=" ">
<polygon fill="white" stroke="red" points="207.5,-76.5 207.5,-95.5 266.5,-95.5 266.5,-76.5 207.5,-76.5"/>
<text text-anchor="middle" x="237" y="-83.5" font-family="Helvetica,sans-Serif" font-size="10.00">time2gpst</text>
</a>
</g>
</g>
<!-- Node1&#45;&gt;Node37 -->
<g id="edge26" class="edge">
<title>Node1&#45;&gt;Node37</title>
<path fill="none" stroke="midnightblue" d="M45.28,-209.43C80.52,-186.63 169.72,-128.9 212.46,-101.23"/>
<polygon fill="midnightblue" stroke="midnightblue" points="214.59,-104.03 221.08,-95.66 210.78,-98.15 214.59,-104.03"/>
</g>
<!-- Node39 -->
<g id="node12" class="node">
<title>Node39</title>
<g id="a_node12"><a xlink:href="acsQC_8cpp.html#a50b9ebf4a56ec6edec979531b0515887" target="_top" xlink:title="Cycle slip detection and repair for triple&#45;frequency.">
<polygon fill="white" stroke="black" points="103.5,-209.5 103.5,-228.5 162.5,-228.5 162.5,-209.5 103.5,-209.5"/>
<text text-anchor="middle" x="133" y="-216.5" font-family="Helvetica,sans-Serif" font-size="10.00">cycleslip3</text>
</a>
</g>
</g>
<!-- Node1&#45;&gt;Node39 -->
<g id="edge13" class="edge">
<title>Node1&#45;&gt;Node39</title>
<path fill="none" stroke="midnightblue" d="M59.04,-219C69.64,-219 81.84,-219 93.2,-219"/>
<polygon fill="midnightblue" stroke="midnightblue" points="93.32,-222.5 103.32,-219 93.32,-215.5 93.32,-222.5"/>
</g>
<!-- Node40 -->
<g id="node13" class="node">
<title>Node40</title>
<g id="a_node13"><a xlink:href="rtkcmn_8cpp.html#a340ba63f81ed21d7574d279d6da9ca0c" target="_top" xlink:title="Low pass filter values.">
<polygon fill="white" stroke="black" points="95,-0.5 95,-19.5 171,-19.5 171,-0.5 95,-0.5"/>
<text text-anchor="middle" x="133" y="-7.5" font-family="Helvetica,sans-Serif" font-size="10.00">lowPassFilter</text>
</a>
</g>
</g>
<!-- Node1&#45;&gt;Node40 -->
<g id="edge24" class="edge">
<title>Node1&#45;&gt;Node40</title>
<path fill="none" stroke="midnightblue" d="M31.67,-209.09C35.61,-179.53 50.69,-90.46 95,-34 97.48,-30.84 100.5,-27.96 103.73,-25.39"/>
<polygon fill="midnightblue" stroke="midnightblue" points="105.81,-28.21 112.03,-19.63 101.82,-22.46 105.81,-28.21"/>
</g>
<!-- Node3 -->
<g id="node3" class="node">
<title>Node3</title>
<g id="a_node3"><a xlink:href="trop_8cpp.html#aee11659ecea14ca59feae2dbe9f160d5" target="_top" xlink:title="coefficients multiplication">
<polygon fill="white" stroke="black" points="219.5,-190.5 219.5,-209.5 254.5,-209.5 254.5,-190.5 219.5,-190.5"/>
<text text-anchor="middle" x="237" y="-197.5" font-family="Helvetica,sans-Serif" font-size="10.00">coef</text>
</a>
</g>
</g>
<!-- Node2&#45;&gt;Node3 -->
<g id="edge2" class="edge">
<title>Node2&#45;&gt;Node3</title>
<path fill="none" stroke="midnightblue" d="M145.66,-266.41C159.88,-254.83 184.78,-234.92 207,-219 208.65,-217.82 210.37,-216.62 212.11,-215.42"/>
<polygon fill="midnightblue" stroke="midnightblue" points="214.42,-218.09 220.79,-209.63 210.53,-212.27 214.42,-218.09"/>
</g>
<!-- Node2&#45;&gt;Node4 -->
<g id="edge3" class="edge">
<title>Node2&#45;&gt;Node4</title>
<path fill="none" stroke="midnightblue" d="M145.66,-285.59C159.88,-297.17 184.78,-317.08 207,-333 208.65,-334.18 210.37,-335.38 212.11,-336.58"/>
<polygon fill="midnightblue" stroke="midnightblue" points="210.53,-339.73 220.79,-342.37 214.42,-333.91 210.53,-339.73"/>
</g>
<!-- Node5 -->
<g id="node5" class="node">
<title>Node5</title>
<g id="a_node5"><a xlink:href="structSatSys.html#aec6d07b90d1e8172b8b6a6966abef4fd" target="_top" xlink:title="Returns a std::string of this satellite&#39;s id.">
<polygon fill="white" stroke="black" points="207,-266.5 207,-285.5 267,-285.5 267,-266.5 207,-266.5"/>
<text text-anchor="middle" x="237" y="-273.5" font-family="Helvetica,sans-Serif" font-size="10.00">SatSys::id</text>
</a>
</g>
</g>
<!-- Node2&#45;&gt;Node5 -->
<g id="edge4" class="edge">
<title>Node2&#45;&gt;Node5</title>
<path fill="none" stroke="midnightblue" d="M162.68,-276C173.24,-276 185.39,-276 196.72,-276"/>
<polygon fill="midnightblue" stroke="midnightblue" points="196.82,-279.5 206.82,-276 196.82,-272.5 196.82,-279.5"/>
</g>
<!-- Node8 -->
<g id="node7" class="node">
<title>Node8</title>
<g id="a_node7"><a xlink:href="acsQC_8cpp.html#ae3b62ae16be377006095445f8e3043ad" target="_top" xlink:title="Melbourne&#45;Wenbunna (MW) measurement noise (m)">
<polygon fill="white" stroke="black" points="209,-304.5 209,-323.5 265,-323.5 265,-304.5 209,-304.5"/>
<text text-anchor="middle" x="237" y="-311.5" font-family="Helvetica,sans-Serif" font-size="10.00">mwnoise</text>
</a>
</g>
</g>
<!-- Node2&#45;&gt;Node8 -->
<g id="edge6" class="edge">
<title>Node2&#45;&gt;Node8</title>
<path fill="none" stroke="midnightblue" d="M159.74,-285.59C172.18,-290.22 187.31,-295.86 200.8,-300.89"/>
<polygon fill="midnightblue" stroke="midnightblue" points="199.68,-304.2 210.27,-304.41 202.12,-297.64 199.68,-304.2"/>
</g>
<!-- Node9 -->
<g id="node8" class="node">
<title>Node9</title>
<g id="a_node8"><a xlink:href="acsQC_8cpp.html#abb64bdd7fce88139b8029b100b8ab662" target="_top" xlink:title="Single channel detection–identification–adaptation (DIA) for integer cycle slips.">
<polygon fill="white" stroke="red" points="217,-228.5 217,-247.5 257,-247.5 257,-228.5 217,-228.5"/>
<text text-anchor="middle" x="237" y="-235.5" font-family="Helvetica,sans-Serif" font-size="10.00">scdia</text>
</a>
</g>
</g>
<!-- Node2&#45;&gt;Node9 -->
<g id="edge7" class="edge">
<title>Node2&#45;&gt;Node9</title>
<path fill="none" stroke="midnightblue" d="M159.74,-266.41C174.12,-261.05 192.1,-254.36 206.98,-248.81"/>
<polygon fill="midnightblue" stroke="midnightblue" points="208.56,-251.96 216.71,-245.19 206.12,-245.4 208.56,-251.96"/>
</g>
<!-- Node2&#45;&gt;Node36 -->
<g id="edge11" class="edge">
<title>Node2&#45;&gt;Node36</title>
<path fill="none" stroke="midnightblue" d="M137.85,-285.62C146.59,-305.92 170.06,-352.8 207,-371 230.92,-382.79 246.08,-387.54 267,-371 321.45,-327.94 276.1,-283 303,-219 308.88,-205.01 318.04,-190.56 325.65,-179.72"/>
<polygon fill="midnightblue" stroke="midnightblue" points="328.54,-181.69 331.57,-171.54 322.87,-177.59 328.54,-181.69"/>
</g>
<!-- Node33 -->
<g id="node10" class="node">
<title>Node33</title>
<g id="a_node10"><a xlink:href="streamTrace_8cpp.html#ae00e6addd3bdf3a7fd41a254eb9aec89" target="_top" xlink:title=" ">
<polygon fill="white" stroke="black" points="308,-228.5 308,-247.5 372,-247.5 372,-228.5 308,-228.5"/>
<text text-anchor="middle" x="340" y="-235.5" font-family="Helvetica,sans-Serif" font-size="10.00">tracepdeex</text>
</a>
</g>
</g>
<!-- Node2&#45;&gt;Node33 -->
<g id="edge12" class="edge">
<title>Node2&#45;&gt;Node33</title>
<path fill="none" stroke="midnightblue" d="M136.05,-285.71C141.93,-310.78 161.43,-377.53 207,-404 230.06,-417.39 244.71,-418.63 267,-404 292.98,-386.95 321.81,-297.09 333.57,-257.16"/>
<polygon fill="midnightblue" stroke="midnightblue" points="336.94,-258.11 336.35,-247.53 330.21,-256.16 336.94,-258.11"/>
</g>
<!-- Node2&#45;&gt;Node37 -->
<g id="edge10" class="edge">
<title>Node2&#45;&gt;Node37</title>
<path fill="none" stroke="midnightblue" d="M145.5,-266.27C153.45,-259.08 163.85,-248.73 171,-238 200.21,-194.19 220.94,-135.1 230.34,-105.14"/>
<polygon fill="midnightblue" stroke="midnightblue" points="233.71,-106.09 233.28,-95.5 227.01,-104.04 233.71,-106.09"/>
</g>
<!-- Node5&#45;&gt;Node6 -->
<g id="edge5" class="edge">
<title>Node5&#45;&gt;Node6</title>
<path fill="none" stroke="midnightblue" d="M254.13,-285.62C258.45,-288.45 263.03,-291.68 267,-295 288.65,-313.1 310.52,-337.19 324.38,-353.36"/>
<polygon fill="midnightblue" stroke="midnightblue" points="322.08,-356.06 331.21,-361.44 327.43,-351.54 322.08,-356.06"/>
</g>
<!-- Node9&#45;&gt;Node36 -->
<g id="edge8" class="edge">
<title>Node9&#45;&gt;Node36</title>
<path fill="none" stroke="midnightblue" d="M253.23,-228.39C257.72,-225.46 262.61,-222.17 267,-219 285.2,-205.87 305.16,-189.94 319.44,-178.27"/>
<polygon fill="midnightblue" stroke="midnightblue" points="322.03,-180.67 327.53,-171.61 317.58,-175.26 322.03,-180.67"/>
</g>
<!-- Node9&#45;&gt;Node33 -->
<g id="edge9" class="edge">
<title>Node9&#45;&gt;Node33</title>
<path fill="none" stroke="midnightblue" d="M257.47,-238C268.8,-238 283.53,-238 297.35,-238"/>
<polygon fill="midnightblue" stroke="midnightblue" points="297.67,-241.5 307.67,-238 297.67,-234.5 297.67,-241.5"/>
</g>
<!-- Node39&#45;&gt;Node3 -->
<g id="edge14" class="edge">
<title>Node39&#45;&gt;Node3</title>
<path fill="none" stroke="midnightblue" d="M162.68,-213.66C177.24,-210.95 194.82,-207.67 209.11,-205.01"/>
<polygon fill="midnightblue" stroke="midnightblue" points="210.11,-208.38 219.3,-203.11 208.83,-201.5 210.11,-208.38"/>
</g>
<!-- Node39&#45;&gt;Node4 -->
<g id="edge15" class="edge">
<title>Node39&#45;&gt;Node4</title>
<path fill="none" stroke="midnightblue" d="M145.04,-228.51C152.97,-235.74 163.54,-246.26 171,-257 192.33,-287.69 182.45,-304.82 207,-333 207.87,-334 208.8,-334.96 209.78,-335.89"/>
<polygon fill="midnightblue" stroke="midnightblue" points="207.9,-338.87 217.91,-342.35 212.26,-333.39 207.9,-338.87"/>
</g>
<!-- Node39&#45;&gt;Node5 -->
<g id="edge16" class="edge">
<title>Node39&#45;&gt;Node5</title>
<path fill="none" stroke="midnightblue" d="M151.3,-228.67C167.45,-237.69 191.74,-251.27 210.18,-261.57"/>
<polygon fill="midnightblue" stroke="midnightblue" points="208.52,-264.65 218.95,-266.47 211.93,-258.54 208.52,-264.65"/>
</g>
<!-- Node39&#45;&gt;Node8 -->
<g id="edge17" class="edge">
<title>Node39&#45;&gt;Node8</title>
<path fill="none" stroke="midnightblue" d="M143.47,-228.65C150.96,-236.31 161.69,-247.3 171,-257 187.12,-273.78 189.15,-280.08 207,-295 208.37,-296.14 209.8,-297.27 211.28,-298.38"/>
<polygon fill="midnightblue" stroke="midnightblue" points="209.67,-301.53 219.87,-304.38 213.68,-295.79 209.67,-301.53"/>
</g>
<!-- Node39&#45;&gt;Node9 -->
<g id="edge18" class="edge">
<title>Node39&#45;&gt;Node9</title>
<path fill="none" stroke="midnightblue" d="M162.68,-224.34C176.49,-226.91 193.01,-229.99 206.87,-232.57"/>
<polygon fill="midnightblue" stroke="midnightblue" points="206.39,-236.05 216.87,-234.44 207.68,-229.16 206.39,-236.05"/>
</g>
<!-- Node39&#45;&gt;Node36 -->
<g id="edge20" class="edge">
<title>Node39&#45;&gt;Node36</title>
<path fill="none" stroke="midnightblue" d="M144.91,-209.18C158.39,-197.7 182.56,-179.23 207,-171 238.13,-160.51 275.68,-158.94 302.75,-159.58"/>
<polygon fill="midnightblue" stroke="midnightblue" points="302.82,-163.09 312.94,-159.95 303.07,-156.09 302.82,-163.09"/>
</g>
<!-- Node39&#45;&gt;Node33 -->
<g id="edge21" class="edge">
<title>Node39&#45;&gt;Node33</title>
<path fill="none" stroke="midnightblue" d="M147.47,-209.44C161.54,-200.09 184.66,-186.47 207,-181 232.9,-174.66 241.81,-172.24 267,-181 289.66,-188.88 310.55,-207.19 323.93,-220.95"/>
<polygon fill="midnightblue" stroke="midnightblue" points="321.51,-223.48 330.9,-228.41 326.63,-218.71 321.51,-223.48"/>
</g>
<!-- Node39&#45;&gt;Node37 -->
<g id="edge19" class="edge">
<title>Node39&#45;&gt;Node37</title>
<path fill="none" stroke="midnightblue" d="M139.22,-209.3C150.18,-189.42 177.07,-143.12 207,-110 209.44,-107.3 212.19,-104.64 215,-102.13"/>
<polygon fill="midnightblue" stroke="midnightblue" points="217.45,-104.64 222.87,-95.54 212.96,-99.27 217.45,-104.64"/>
</g>
<!-- Node41 -->
<g id="node14" class="node">
<title>Node41</title>
<g id="a_node14"><a xlink:href="ppp_8hpp.html#af834f8e02e5b7507767354aa04f3bc7f" target="_top" xlink:title=" ">
<polygon fill="white" stroke="black" points="209,-0.5 209,-19.5 265,-19.5 265,-0.5 209,-0.5"/>
<text text-anchor="middle" x="237" y="-7.5" font-family="Helvetica,sans-Serif" font-size="10.00">measVar</text>
</a>
</g>
</g>
<!-- Node40&#45;&gt;Node41 -->
<g id="edge25" class="edge">
<title>Node40&#45;&gt;Node41</title>
<path fill="none" stroke="midnightblue" d="M171.11,-10C180.12,-10 189.75,-10 198.77,-10"/>
<polygon fill="midnightblue" stroke="midnightblue" points="198.99,-13.5 208.99,-10 198.99,-6.5 198.99,-13.5"/>
</g>
</g>
</svg>
