<?xml version="1.0" encoding="UTF-8" standalone="no"?>
<!DOCTYPE svg PUBLIC "-//W3C//DTD SVG 1.1//EN"
 "http://www.w3.org/Graphics/SVG/1.1/DTD/svg11.dtd">
<!-- Generated by graphviz version 2.50.0 (20220203.2022)
 -->
<!-- Title: lsqqc Pages: 1 -->
<svg width="384pt" height="370pt"
 viewBox="0.00 0.00 384.00 370.00" xmlns="http://www.w3.org/2000/svg" xmlns:xlink="http://www.w3.org/1999/xlink">
<g id="graph0" class="graph" transform="scale(1 1) rotate(0) translate(4 366)">
<title>lsqqc</title>
<polygon fill="white" stroke="transparent" points="-4,4 -4,-366 380,-366 380,4 -4,4"/>
<!-- Node1 -->
<g id="node1" class="node">
<title>Node1</title>
<g id="a_node1"><a xlink:title=" ">
<polygon fill="#bfbfbf" stroke="black" points="0,-114.5 0,-133.5 40,-133.5 40,-114.5 0,-114.5"/>
<text text-anchor="middle" x="20" y="-121.5" font-family="Helvetica,sans-Serif" font-size="10.00">lsqqc</text>
</a>
</g>
</g>
<!-- Node2 -->
<g id="node2" class="node">
<title>Node2</title>
<g id="a_node2"><a xlink:href="algebra__old_8cpp.html#aeeb14c76251388cfcbcbcf3177990976" target="_top" xlink:title=" ">
<polygon fill="white" stroke="black" points="79,-76.5 79,-95.5 119,-95.5 119,-76.5 79,-76.5"/>
<text text-anchor="middle" x="99" y="-83.5" font-family="Helvetica,sans-Serif" font-size="10.00">chiqc</text>
</a>
</g>
</g>
<!-- Node1&#45;&gt;Node2 -->
<g id="edge1" class="edge">
<title>Node1&#45;&gt;Node2</title>
<path fill="none" stroke="midnightblue" d="M40.03,-114.61C49.01,-110.18 59.9,-104.8 69.81,-99.91"/>
<polygon fill="midnightblue" stroke="midnightblue" points="71.5,-102.98 78.92,-95.42 68.4,-96.7 71.5,-102.98"/>
</g>
<!-- Node3 -->
<g id="node3" class="node">
<title>Node3</title>
<g id="a_node3"><a xlink:href="algebra__old_8cpp.html#a1d2c1ecab5b17dcc773fcd83c0b87b7e" target="_top" xlink:title=" ">
<polygon fill="white" stroke="black" points="259,-266.5 259,-285.5 292,-285.5 292,-266.5 259,-266.5"/>
<text text-anchor="middle" x="275.5" y="-273.5" font-family="Helvetica,sans-Serif" font-size="10.00">mat</text>
</a>
</g>
</g>
<!-- Node1&#45;&gt;Node3 -->
<g id="edge7" class="edge">
<title>Node1&#45;&gt;Node3</title>
<path fill="none" stroke="midnightblue" d="M24.88,-133.56C37.98,-164.39 83.98,-261.11 158,-295 187.48,-308.5 225.01,-298.06 249.39,-288.11"/>
<polygon fill="midnightblue" stroke="midnightblue" points="250.88,-291.28 258.66,-284.09 248.09,-284.86 250.88,-291.28"/>
</g>
<!-- Node5 -->
<g id="node5" class="node">
<title>Node5</title>
<g id="a_node5"><a xlink:href="algebra__old_8cpp.html#a50d2d9511da542d472f3390449fedf38" target="_top" xlink:title=" ">
<polygon fill="white" stroke="black" points="166,-114.5 166,-133.5 214,-133.5 214,-114.5 166,-114.5"/>
<text text-anchor="middle" x="190" y="-121.5" font-family="Helvetica,sans-Serif" font-size="10.00">matcpy</text>
</a>
</g>
</g>
<!-- Node1&#45;&gt;Node5 -->
<g id="edge8" class="edge">
<title>Node1&#45;&gt;Node5</title>
<path fill="none" stroke="midnightblue" d="M40.27,-124C68.47,-124 121.36,-124 155.87,-124"/>
<polygon fill="midnightblue" stroke="midnightblue" points="155.94,-127.5 165.94,-124 155.94,-120.5 155.94,-127.5"/>
</g>
<!-- Node6 -->
<g id="node6" class="node">
<title>Node6</title>
<g id="a_node6"><a xlink:href="algebra__old_8cpp.html#adc33998911a24938042604ba1f8e6196" target="_top" xlink:title=" ">
<polygon fill="white" stroke="black" points="165.5,-38.5 165.5,-57.5 214.5,-57.5 214.5,-38.5 165.5,-38.5"/>
<text text-anchor="middle" x="190" y="-45.5" font-family="Helvetica,sans-Serif" font-size="10.00">matmul</text>
</a>
</g>
</g>
<!-- Node1&#45;&gt;Node6 -->
<g id="edge17" class="edge">
<title>Node1&#45;&gt;Node6</title>
<path fill="none" stroke="midnightblue" d="M27.48,-114.08C36.62,-100.99 54.59,-78.28 76,-67 100.42,-54.13 131.56,-49.63 154.97,-48.21"/>
<polygon fill="midnightblue" stroke="midnightblue" points="155.29,-51.7 165.13,-47.75 154.98,-44.71 155.29,-51.7"/>
</g>
<!-- Node7 -->
<g id="node7" class="node">
<title>Node7</title>
<g id="a_node7"><a xlink:href="streamTrace_8cpp.html#ae00e6addd3bdf3a7fd41a254eb9aec89" target="_top" xlink:title=" ">
<polygon fill="white" stroke="black" points="158,-0.5 158,-19.5 222,-19.5 222,-0.5 158,-0.5"/>
<text text-anchor="middle" x="190" y="-7.5" font-family="Helvetica,sans-Serif" font-size="10.00">tracepdeex</text>
</a>
</g>
</g>
<!-- Node1&#45;&gt;Node7 -->
<g id="edge18" class="edge">
<title>Node1&#45;&gt;Node7</title>
<path fill="none" stroke="midnightblue" d="M25.49,-114.35C33.43,-98.28 51.47,-66.05 76,-48 97.2,-32.4 125.23,-22.92 148.06,-17.33"/>
<polygon fill="midnightblue" stroke="midnightblue" points="148.85,-20.74 157.82,-15.1 147.29,-13.92 148.85,-20.74"/>
</g>
<!-- Node8 -->
<g id="node8" class="node">
<title>Node8</title>
<g id="a_node8"><a xlink:href="algebra__old_8cpp.html#a4035d20f11b4bd8085e6b0f84f8c0764" target="_top" xlink:title=" ">
<polygon fill="white" stroke="black" points="76,-171.5 76,-190.5 122,-190.5 122,-171.5 76,-171.5"/>
<text text-anchor="middle" x="99" y="-178.5" font-family="Helvetica,sans-Serif" font-size="10.00">matinv</text>
</a>
</g>
</g>
<!-- Node1&#45;&gt;Node8 -->
<g id="edge9" class="edge">
<title>Node1&#45;&gt;Node8</title>
<path fill="none" stroke="midnightblue" d="M34.06,-133.67C45.75,-142.32 63.09,-155.16 76.77,-165.28"/>
<polygon fill="midnightblue" stroke="midnightblue" points="75.01,-168.34 85.13,-171.47 79.18,-162.71 75.01,-168.34"/>
</g>
<!-- Node12 -->
<g id="node12" class="node">
<title>Node12</title>
<g id="a_node12"><a xlink:href="algebra__old_8cpp.html#a446a2803e5eaeb996733dd8d73966f00" target="_top" xlink:title=" ">
<polygon fill="white" stroke="black" points="170,-342.5 170,-361.5 210,-361.5 210,-342.5 170,-342.5"/>
<text text-anchor="middle" x="190" y="-349.5" font-family="Helvetica,sans-Serif" font-size="10.00">zeros</text>
</a>
</g>
</g>
<!-- Node1&#45;&gt;Node12 -->
<g id="edge19" class="edge">
<title>Node1&#45;&gt;Node12</title>
<path fill="none" stroke="midnightblue" d="M22.25,-133.57C27.23,-170.13 46.77,-300.31 76,-328 98.29,-349.12 134.35,-353.56 159.72,-353.72"/>
<polygon fill="midnightblue" stroke="midnightblue" points="159.93,-357.22 169.87,-353.56 159.82,-350.22 159.93,-357.22"/>
</g>
<!-- Node2&#45;&gt;Node3 -->
<g id="edge2" class="edge">
<title>Node2&#45;&gt;Node3</title>
<path fill="none" stroke="midnightblue" d="M119.04,-83.26C145.44,-80.59 193.16,-80.02 222,-105 224.96,-107.57 255.9,-212.44 268.85,-256.65"/>
<polygon fill="midnightblue" stroke="midnightblue" points="265.56,-257.88 271.73,-266.49 272.28,-255.91 265.56,-257.88"/>
</g>
<!-- Node2&#45;&gt;Node5 -->
<g id="edge4" class="edge">
<title>Node2&#45;&gt;Node5</title>
<path fill="none" stroke="midnightblue" d="M119.31,-94.25C130.39,-98.98 144.58,-105.03 157.26,-110.45"/>
<polygon fill="midnightblue" stroke="midnightblue" points="156.01,-113.72 166.58,-114.43 158.76,-107.28 156.01,-113.72"/>
</g>
<!-- Node2&#45;&gt;Node6 -->
<g id="edge5" class="edge">
<title>Node2&#45;&gt;Node6</title>
<path fill="none" stroke="midnightblue" d="M119.31,-77.75C130.39,-73.02 144.58,-66.97 157.26,-61.55"/>
<polygon fill="midnightblue" stroke="midnightblue" points="158.76,-64.72 166.58,-57.57 156.01,-58.28 158.76,-64.72"/>
</g>
<!-- Node2&#45;&gt;Node7 -->
<g id="edge6" class="edge">
<title>Node2&#45;&gt;Node7</title>
<path fill="none" stroke="midnightblue" d="M108.46,-76.45C119.26,-64.54 138.87,-43.95 158,-29 159.6,-27.75 161.3,-26.51 163.03,-25.3"/>
<polygon fill="midnightblue" stroke="midnightblue" points="165.33,-27.98 171.8,-19.59 161.51,-22.11 165.33,-27.98"/>
</g>
<!-- Node4 -->
<g id="node4" class="node">
<title>Node4</title>
<g id="a_node4"><a xlink:href="streamTrace_8cpp.html#a21317feb447406c5be7ca4a27dc3e862" target="_top" xlink:title=" ">
<polygon fill="white" stroke="black" points="329,-266.5 329,-285.5 376,-285.5 376,-266.5 329,-266.5"/>
<text text-anchor="middle" x="352.5" y="-273.5" font-family="Helvetica,sans-Serif" font-size="10.00">fatalerr</text>
</a>
</g>
</g>
<!-- Node3&#45;&gt;Node4 -->
<g id="edge3" class="edge">
<title>Node3&#45;&gt;Node4</title>
<path fill="none" stroke="midnightblue" d="M292.04,-276C299.77,-276 309.43,-276 318.69,-276"/>
<polygon fill="midnightblue" stroke="midnightblue" points="318.86,-279.5 328.86,-276 318.86,-272.5 318.86,-279.5"/>
</g>
<!-- Node8&#45;&gt;Node3 -->
<g id="edge15" class="edge">
<title>Node8&#45;&gt;Node3</title>
<path fill="none" stroke="midnightblue" d="M113.53,-190.56C125.09,-198.56 142.31,-210.07 158,-219 188.65,-236.45 225.4,-253.88 249.32,-264.79"/>
<polygon fill="midnightblue" stroke="midnightblue" points="248.17,-268.11 258.73,-269.04 251.06,-261.73 248.17,-268.11"/>
</g>
<!-- Node8&#45;&gt;Node5 -->
<g id="edge16" class="edge">
<title>Node8&#45;&gt;Node5</title>
<path fill="none" stroke="midnightblue" d="M115.1,-171.33C128.86,-162.52 149.42,-149.35 165.36,-139.14"/>
<polygon fill="midnightblue" stroke="midnightblue" points="167.59,-141.87 174.13,-133.53 163.82,-135.97 167.59,-141.87"/>
</g>
<!-- Node9 -->
<g id="node9" class="node">
<title>Node9</title>
<g id="a_node9"><a xlink:href="algebra__old_8cpp.html#a794beae67990a536bcf5a0d3928b5a87" target="_top" xlink:title=" ">
<polygon fill="white" stroke="black" points="258,-190.5 258,-209.5 293,-209.5 293,-190.5 258,-190.5"/>
<text text-anchor="middle" x="275.5" y="-197.5" font-family="Helvetica,sans-Serif" font-size="10.00">imat</text>
</a>
</g>
</g>
<!-- Node8&#45;&gt;Node9 -->
<g id="edge10" class="edge">
<title>Node8&#45;&gt;Node9</title>
<path fill="none" stroke="midnightblue" d="M122.24,-178.71C146.85,-176.71 187.58,-174.96 222,-181 230.82,-182.55 240.12,-185.45 248.4,-188.54"/>
<polygon fill="midnightblue" stroke="midnightblue" points="247.3,-191.87 257.89,-192.3 249.88,-185.36 247.3,-191.87"/>
</g>
<!-- Node10 -->
<g id="node10" class="node">
<title>Node10</title>
<g id="a_node10"><a xlink:href="algebra__old_8cpp.html#a88edaf81ff75ad385771737fdbd611f9" target="_top" xlink:title=" ">
<polygon fill="white" stroke="black" points="167.5,-190.5 167.5,-209.5 212.5,-209.5 212.5,-190.5 167.5,-190.5"/>
<text text-anchor="middle" x="190" y="-197.5" font-family="Helvetica,sans-Serif" font-size="10.00">lubksb</text>
</a>
</g>
</g>
<!-- Node8&#45;&gt;Node10 -->
<g id="edge12" class="edge">
<title>Node8&#45;&gt;Node10</title>
<path fill="none" stroke="midnightblue" d="M122,-185.7C132.67,-187.97 145.68,-190.75 157.39,-193.25"/>
<polygon fill="midnightblue" stroke="midnightblue" points="156.74,-196.69 167.25,-195.36 158.2,-189.85 156.74,-196.69"/>
</g>
<!-- Node11 -->
<g id="node11" class="node">
<title>Node11</title>
<g id="a_node11"><a xlink:href="algebra__old_8cpp.html#a7098620b4cf8e43e18b502711fa84a85" target="_top" xlink:title=" ">
<polygon fill="white" stroke="black" points="166,-266.5 166,-285.5 214,-285.5 214,-266.5 166,-266.5"/>
<text text-anchor="middle" x="190" y="-273.5" font-family="Helvetica,sans-Serif" font-size="10.00">ludcmp</text>
</a>
</g>
</g>
<!-- Node8&#45;&gt;Node11 -->
<g id="edge13" class="edge">
<title>Node8&#45;&gt;Node11</title>
<path fill="none" stroke="midnightblue" d="M106.87,-190.77C117.14,-205.03 137.48,-232.01 158,-252 160.8,-254.73 163.9,-257.43 167.03,-260"/>
<polygon fill="midnightblue" stroke="midnightblue" points="165.14,-262.96 175.18,-266.35 169.44,-257.44 165.14,-262.96"/>
</g>
<!-- Node9&#45;&gt;Node4 -->
<g id="edge11" class="edge">
<title>Node9&#45;&gt;Node4</title>
<path fill="none" stroke="midnightblue" d="M286,-209.63C298.22,-222.01 319.65,-243.72 334.66,-258.94"/>
<polygon fill="midnightblue" stroke="midnightblue" points="332.33,-261.55 341.84,-266.21 337.31,-256.64 332.33,-261.55"/>
</g>
<!-- Node11&#45;&gt;Node3 -->
<g id="edge14" class="edge">
<title>Node11&#45;&gt;Node3</title>
<path fill="none" stroke="midnightblue" d="M214.26,-276C224.9,-276 237.55,-276 248.5,-276"/>
<polygon fill="midnightblue" stroke="midnightblue" points="248.75,-279.5 258.75,-276 248.75,-272.5 248.75,-279.5"/>
</g>
<!-- Node12&#45;&gt;Node3 -->
<g id="edge21" class="edge">
<title>Node12&#45;&gt;Node3</title>
<path fill="none" stroke="midnightblue" d="M204.25,-342.3C209.85,-338.06 216.37,-332.94 222,-328 234.76,-316.81 248.35,-303.3 258.51,-292.86"/>
<polygon fill="midnightblue" stroke="midnightblue" points="261.12,-295.19 265.53,-285.56 256.08,-290.34 261.12,-295.19"/>
</g>
<!-- Node12&#45;&gt;Node4 -->
<g id="edge20" class="edge">
<title>Node12&#45;&gt;Node4</title>
<path fill="none" stroke="midnightblue" d="M210.04,-342.98C237.78,-329.85 289.53,-305.34 322.16,-289.89"/>
<polygon fill="midnightblue" stroke="midnightblue" points="323.68,-293.04 331.22,-285.6 320.69,-286.72 323.68,-293.04"/>
</g>
</g>
</svg>
