<?xml version="1.0" encoding="UTF-8" standalone="no"?>
<!DOCTYPE svg PUBLIC "-//W3C//DTD SVG 1.1//EN"
 "http://www.w3.org/Graphics/SVG/1.1/DTD/svg11.dtd">
<!-- Generated by graphviz version 2.50.0 (20220203.2022)
 -->
<!-- Title: solve Pages: 1 -->
<svg width="773pt" height="484pt"
 viewBox="0.00 0.00 773.00 484.00" xmlns="http://www.w3.org/2000/svg" xmlns:xlink="http://www.w3.org/1999/xlink">
<g id="graph0" class="graph" transform="scale(1 1) rotate(0) translate(4 480)">
<title>solve</title>
<polygon fill="white" stroke="transparent" points="-4,4 -4,-480 769,-480 769,4 -4,4"/>
<!-- Node1 -->
<g id="node1" class="node">
<title>Node1</title>
<g id="a_node1"><a xlink:title=" ">
<polygon fill="#bfbfbf" stroke="black" points="725,-114.5 725,-133.5 765,-133.5 765,-114.5 725,-114.5"/>
<text text-anchor="middle" x="745" y="-121.5" font-family="Helvetica,sans-Serif" font-size="10.00">solve</text>
</a>
</g>
</g>
<!-- Node2 -->
<g id="node2" class="node">
<title>Node2</title>
<g id="a_node2"><a xlink:href="lambda_8cpp.html#a364f9f201016e3baff0a9366158a823b" target="_top" xlink:title=" ">
<polygon fill="white" stroke="black" points="630,-228.5 630,-247.5 678,-247.5 678,-228.5 630,-228.5"/>
<text text-anchor="middle" x="654" y="-235.5" font-family="Helvetica,sans-Serif" font-size="10.00">lambda</text>
</a>
</g>
</g>
<!-- Node1&#45;&gt;Node2 -->
<g id="edge1" class="edge">
<title>Node1&#45;&gt;Node2</title>
<path fill="none" stroke="midnightblue" d="M730.12,-141.78C711.08,-166.17 677.53,-209.14 662.57,-228.31"/>
<polygon fill="midnightblue" stroke="midnightblue" points="733.02,-143.76 736.41,-133.72 727.5,-139.45 733.02,-143.76"/>
</g>
<!-- Node36 -->
<g id="node15" class="node">
<title>Node36</title>
<g id="a_node15"><a xlink:href="ppppp__ambres_8cpp.html#affb36a89f53fcbb0643c98e20b15b8a7" target="_top" xlink:title=" ">
<polygon fill="white" stroke="black" points="619,-95.5 619,-114.5 689,-114.5 689,-95.5 619,-95.5"/>
<text text-anchor="middle" x="654" y="-102.5" font-family="Helvetica,sans-Serif" font-size="10.00">newLambda</text>
</a>
</g>
</g>
<!-- Node1&#45;&gt;Node36 -->
<g id="edge23" class="edge">
<title>Node1&#45;&gt;Node36</title>
<path fill="none" stroke="midnightblue" d="M714.88,-117.78C706.72,-116.04 697.78,-114.13 689.35,-112.33"/>
<polygon fill="midnightblue" stroke="midnightblue" points="714.18,-121.21 724.69,-119.88 715.64,-114.37 714.18,-121.21"/>
</g>
<!-- Node3 -->
<g id="node3" class="node">
<title>Node3</title>
<g id="a_node3"><a xlink:href="namespacem__betainfo.html#a7c2c7a1fff113613caae0cd8f91ca37d" target="_top" xlink:title=" ">
<polygon fill="white" stroke="black" points="155,-304.5 155,-323.5 259,-323.5 259,-304.5 155,-304.5"/>
<text text-anchor="middle" x="207" y="-311.5" font-family="Helvetica,sans-Serif" font-size="10.00">m_betainfo::betainfo</text>
</a>
</g>
</g>
<!-- Node2&#45;&gt;Node3 -->
<g id="edge2" class="edge">
<title>Node2&#45;&gt;Node3</title>
<path fill="none" stroke="midnightblue" d="M636.89,-255.06C623.74,-267.75 603.95,-284.16 583,-292 473.35,-333 333.1,-327.32 259.07,-320.26"/>
<polygon fill="midnightblue" stroke="midnightblue" points="639.6,-257.31 644.18,-247.75 634.64,-252.36 639.6,-257.31"/>
</g>
<!-- Node4 -->
<g id="node4" class="node">
<title>Node4</title>
<g id="a_node4"><a xlink:href="force__srp_8f90.html#ac60c56aaaf5a6f7118c763fe46ce8373" target="_top" xlink:title=" ">
<polygon fill="white" stroke="red" points="326.5,-190.5 326.5,-209.5 383.5,-209.5 383.5,-190.5 326.5,-190.5"/>
<text text-anchor="middle" x="355" y="-197.5" font-family="Helvetica,sans-Serif" font-size="10.00">force_srp</text>
</a>
</g>
</g>
<!-- Node2&#45;&gt;Node4 -->
<g id="edge3" class="edge">
<title>Node2&#45;&gt;Node4</title>
<path fill="none" stroke="midnightblue" d="M620.16,-227.77C608.53,-224.49 595.28,-221.16 583,-219 511.92,-206.49 426.82,-202.16 383.81,-200.7"/>
<polygon fill="midnightblue" stroke="midnightblue" points="619.33,-231.17 629.91,-230.6 621.28,-224.45 619.33,-231.17"/>
</g>
<!-- Node5 -->
<g id="node5" class="node">
<title>Node5</title>
<g id="a_node5"><a xlink:href="force__sum_8f95.html#a757e2ccbe362bf3b01a51e2c0431a490" target="_top" xlink:title=" ">
<polygon fill="white" stroke="red" points="176,-228.5 176,-247.5 238,-247.5 238,-228.5 176,-228.5"/>
<text text-anchor="middle" x="207" y="-235.5" font-family="Helvetica,sans-Serif" font-size="10.00">force_sum</text>
</a>
</g>
</g>
<!-- Node2&#45;&gt;Node5 -->
<g id="edge6" class="edge">
<title>Node2&#45;&gt;Node5</title>
<path fill="none" stroke="midnightblue" d="M629.92,-252.95C616.75,-260.59 599.6,-269.08 583,-273 457.32,-302.67 302.36,-265.73 238.11,-247.3"/>
<polygon fill="midnightblue" stroke="midnightblue" points="632,-255.79 638.74,-247.62 628.38,-249.8 632,-255.79"/>
</g>
<!-- Node14 -->
<g id="node6" class="node">
<title>Node14</title>
<g id="a_node6"><a xlink:href="namespacem__pd__force.html#a942ea044856d62ee03ee7623436bc97e" target="_top" xlink:title=" ">
<polygon fill="white" stroke="red" points="152,-171.5 152,-190.5 262,-190.5 262,-171.5 152,-171.5"/>
<text text-anchor="middle" x="207" y="-178.5" font-family="Helvetica,sans-Serif" font-size="10.00">m_pd_force::pd_force</text>
</a>
</g>
</g>
<!-- Node2&#45;&gt;Node14 -->
<g id="edge18" class="edge">
<title>Node2&#45;&gt;Node14</title>
<path fill="none" stroke="midnightblue" d="M631.35,-222.92C618.02,-214.43 600.24,-204.46 583,-199 473.32,-164.28 336.63,-168.88 262.3,-175.08"/>
<polygon fill="midnightblue" stroke="midnightblue" points="629.53,-225.91 639.8,-228.49 633.38,-220.07 629.53,-225.91"/>
</g>
<!-- Node18 -->
<g id="node7" class="node">
<title>Node18</title>
<g id="a_node7"><a xlink:href="namespacem__get__lambda.html#a4f37f4e3c711690fa001af1c03c09da1" target="_top" xlink:title=" ">
<polygon fill="white" stroke="black" points="448,-228.5 448,-247.5 583,-247.5 583,-228.5 448,-228.5"/>
<text text-anchor="middle" x="515.5" y="-235.5" font-family="Helvetica,sans-Serif" font-size="10.00">m_get_lambda::get_lambda</text>
</a>
</g>
</g>
<!-- Node2&#45;&gt;Node18 -->
<g id="edge7" class="edge">
<title>Node2&#45;&gt;Node18</title>
<path fill="none" stroke="midnightblue" d="M619.76,-238C608.63,-238 595.8,-238 583.05,-238"/>
<polygon fill="midnightblue" stroke="midnightblue" points="619.84,-241.5 629.84,-238 619.84,-234.5 619.84,-241.5"/>
</g>
<!-- Node19 -->
<g id="node8" class="node">
<title>Node19</title>
<g id="a_node8"><a xlink:href="namespacem__shadow.html#a57161869236b6fe30e33523417670ca1" target="_top" xlink:title=" ">
<polygon fill="white" stroke="black" points="304,-228.5 304,-247.5 406,-247.5 406,-228.5 304,-228.5"/>
<text text-anchor="middle" x="355" y="-235.5" font-family="Helvetica,sans-Serif" font-size="10.00">m_shadow::shadow</text>
</a>
</g>
</g>
<!-- Node2&#45;&gt;Node19 -->
<g id="edge20" class="edge">
<title>Node2&#45;&gt;Node19</title>
<path fill="none" stroke="midnightblue" d="M620.25,-248.81C608.63,-252.14 595.36,-255.35 583,-257 523.53,-264.93 507.69,-263.1 448,-257 429.83,-255.14 409.95,-251.27 393.33,-247.51"/>
<polygon fill="midnightblue" stroke="midnightblue" points="621.41,-252.12 629.98,-245.9 619.4,-245.42 621.41,-252.12"/>
</g>
<!-- Node20 -->
<g id="node9" class="node">
<title>Node20</title>
<g id="a_node9"><a xlink:href="namespacem__orbinfo.html#a7e90574cb9078c6ff14c6104446ee24a" target="_top" xlink:title=" ">
<polygon fill="white" stroke="black" points="160.5,-76.5 160.5,-95.5 253.5,-95.5 253.5,-76.5 160.5,-76.5"/>
<text text-anchor="middle" x="207" y="-83.5" font-family="Helvetica,sans-Serif" font-size="10.00">m_orbinfo::orbinfo</text>
</a>
</g>
</g>
<!-- Node2&#45;&gt;Node20 -->
<g id="edge15" class="edge">
<title>Node2&#45;&gt;Node20</title>
<path fill="none" stroke="midnightblue" d="M648.28,-218.31C640.25,-189.62 620.99,-137.14 583,-113 480.26,-47.71 328.19,-63.22 253.19,-76.45"/>
<polygon fill="midnightblue" stroke="midnightblue" points="644.99,-219.56 650.9,-228.35 651.76,-217.79 644.99,-219.56"/>
</g>
<!-- Node21 -->
<g id="node10" class="node">
<title>Node21</title>
<g id="a_node10"><a xlink:href="namespacem__statorbit2.html#a6ba60e4ad1e25a33b4f2f9607374ea58" target="_top" xlink:title=" ">
<polygon fill="white" stroke="red" points="0,-57.5 0,-76.5 116,-76.5 116,-57.5 0,-57.5"/>
<text text-anchor="middle" x="58" y="-64.5" font-family="Helvetica,sans-Serif" font-size="10.00">m_statorbit2::statorbit2</text>
</a>
</g>
</g>
<!-- Node2&#45;&gt;Node21 -->
<g id="edge22" class="edge">
<title>Node2&#45;&gt;Node21</title>
<path fill="none" stroke="midnightblue" d="M647.97,-218.36C636.93,-176.99 609.48,-83.19 583,-65 508.77,-14 235.9,-43.09 116.07,-58.89"/>
<polygon fill="midnightblue" stroke="midnightblue" points="644.6,-219.31 650.52,-228.1 651.37,-217.54 644.6,-219.31"/>
</g>
<!-- Node23 -->
<g id="node11" class="node">
<title>Node23</title>
<g id="a_node11"><a xlink:href="linearCombo_8cpp.html#a41701e6aeffecf451235e8fb75aad602" target="_top" xlink:title="Prepare a base object for linear combinations using observation data.">
<polygon fill="white" stroke="red" points="475.5,-456.5 475.5,-475.5 555.5,-475.5 555.5,-456.5 475.5,-456.5"/>
<text text-anchor="middle" x="515.5" y="-463.5" font-family="Helvetica,sans-Serif" font-size="10.00">lcPrepareBase</text>
</a>
</g>
</g>
<!-- Node2&#45;&gt;Node23 -->
<g id="edge14" class="edge">
<title>Node2&#45;&gt;Node23</title>
<path fill="none" stroke="midnightblue" d="M652.26,-257.61C649.62,-298.8 637.61,-394.79 583,-447 575.54,-454.14 565.58,-458.62 555.65,-461.43"/>
<polygon fill="midnightblue" stroke="midnightblue" points="655.76,-257.7 652.78,-247.53 648.77,-257.33 655.76,-257.7"/>
</g>
<!-- Node28 -->
<g id="node12" class="node">
<title>Node28</title>
<g id="a_node12"><a xlink:href="namespacem__pd__ecom.html#a6566481abfae9e375586538e1de35f42" target="_top" xlink:title=" ">
<polygon fill="white" stroke="black" points="298,-114.5 298,-133.5 412,-133.5 412,-114.5 298,-114.5"/>
<text text-anchor="middle" x="355" y="-121.5" font-family="Helvetica,sans-Serif" font-size="10.00">m_pd_ecom::pd_ecom</text>
</a>
</g>
</g>
<!-- Node2&#45;&gt;Node28 -->
<g id="edge16" class="edge">
<title>Node2&#45;&gt;Node28</title>
<path fill="none" stroke="midnightblue" d="M644.24,-219.27C633.21,-198.01 612.12,-164.2 583,-148 530.53,-118.82 460.66,-115.77 412.37,-118.15"/>
<polygon fill="midnightblue" stroke="midnightblue" points="641.14,-220.89 648.72,-228.3 647.41,-217.79 641.14,-220.89"/>
</g>
<!-- Node29 -->
<g id="node13" class="node">
<title>Node29</title>
<g id="a_node13"><a xlink:href="acsQC_8cpp.html#abb64bdd7fce88139b8029b100b8ab662" target="_top" xlink:title="Single channel detection–identification–adaptation (DIA) for integer cycle slips.">
<polygon fill="white" stroke="red" points="495.5,-418.5 495.5,-437.5 535.5,-437.5 535.5,-418.5 495.5,-418.5"/>
<text text-anchor="middle" x="515.5" y="-425.5" font-family="Helvetica,sans-Serif" font-size="10.00">scdia</text>
</a>
</g>
</g>
<!-- Node2&#45;&gt;Node29 -->
<g id="edge19" class="edge">
<title>Node2&#45;&gt;Node29</title>
<path fill="none" stroke="midnightblue" d="M650.53,-257.91C645.04,-293.53 628.5,-368.26 583,-409 569.94,-420.69 550.15,-425.23 535.55,-426.97"/>
<polygon fill="midnightblue" stroke="midnightblue" points="654.02,-258.2 651.95,-247.81 647.09,-257.23 654.02,-258.2"/>
</g>
<!-- Node34 -->
<g id="node14" class="node">
<title>Node34</title>
<g id="a_node14"><a xlink:href="ppppp__obs_8cpp.html#a3db2ffced7ab37c4874c3a53fcb7953e" target="_top" xlink:title=" ">
<polygon fill="white" stroke="red" points="482.5,-380.5 482.5,-399.5 548.5,-399.5 548.5,-380.5 482.5,-380.5"/>
<text text-anchor="middle" x="515.5" y="-387.5" font-family="Helvetica,sans-Serif" font-size="10.00">stationPPP</text>
</a>
</g>
</g>
<!-- Node2&#45;&gt;Node34 -->
<g id="edge21" class="edge">
<title>Node2&#45;&gt;Node34</title>
<path fill="none" stroke="midnightblue" d="M647.32,-257.26C638.19,-285.05 617.64,-336.32 583,-366 573.31,-374.3 560.51,-379.82 548.74,-383.45"/>
<polygon fill="midnightblue" stroke="midnightblue" points="650.72,-258.13 650.37,-247.54 644.04,-256.04 650.72,-258.13"/>
</g>
<!-- Node4&#45;&gt;Node5 -->
<g id="edge4" class="edge">
<title>Node4&#45;&gt;Node5</title>
<path fill="none" stroke="midnightblue" d="M316.25,-209.82C291.98,-216.14 260.86,-224.24 238.22,-230.14"/>
<polygon fill="midnightblue" stroke="midnightblue" points="317.4,-213.14 326.19,-207.24 315.64,-206.37 317.4,-213.14"/>
</g>
<!-- Node4&#45;&gt;Node14 -->
<g id="edge5" class="edge">
<title>Node4&#45;&gt;Node14</title>
<path fill="none" stroke="midnightblue" d="M315.88,-195.04C299.44,-192.9 279.91,-190.36 262.02,-188.03"/>
<polygon fill="midnightblue" stroke="midnightblue" points="315.83,-198.56 326.19,-196.38 316.73,-191.62 315.83,-198.56"/>
</g>
<!-- Node18&#45;&gt;Node19 -->
<g id="edge8" class="edge">
<title>Node18&#45;&gt;Node19</title>
<path fill="none" stroke="midnightblue" d="M437.59,-238C426.96,-238 416.28,-238 406.3,-238"/>
<polygon fill="midnightblue" stroke="midnightblue" points="437.74,-241.5 447.74,-238 437.74,-234.5 437.74,-241.5"/>
</g>
<!-- Node19&#45;&gt;Node3 -->
<g id="edge9" class="edge">
<title>Node19&#45;&gt;Node3</title>
<path fill="none" stroke="midnightblue" d="M326.61,-252.26C297.3,-267.52 251.6,-291.3 226.34,-304.45"/>
<polygon fill="midnightblue" stroke="midnightblue" points="328.25,-255.35 335.51,-247.63 325.02,-249.14 328.25,-255.35"/>
</g>
<!-- Node19&#45;&gt;Node5 -->
<g id="edge10" class="edge">
<title>Node19&#45;&gt;Node5</title>
<path fill="none" stroke="midnightblue" d="M293.63,-238C274.57,-238 254.32,-238 238.31,-238"/>
<polygon fill="midnightblue" stroke="midnightblue" points="293.76,-241.5 303.76,-238 293.76,-234.5 293.76,-241.5"/>
</g>
<!-- Node19&#45;&gt;Node14 -->
<g id="edge13" class="edge">
<title>Node19&#45;&gt;Node14</title>
<path fill="none" stroke="midnightblue" d="M315.01,-225.18C309.28,-223.18 303.47,-221.08 298,-219 274.38,-210.02 247.77,-198.62 229.65,-190.66"/>
<polygon fill="midnightblue" stroke="midnightblue" points="313.91,-228.5 324.5,-228.44 316.18,-221.88 313.91,-228.5"/>
</g>
<!-- Node19&#45;&gt;Node20 -->
<g id="edge11" class="edge">
<title>Node19&#45;&gt;Node20</title>
<path fill="none" stroke="midnightblue" d="M305.4,-223.96C302.8,-222.46 300.31,-220.82 298,-219 274.46,-200.46 278.68,-186.89 262,-162 245.78,-137.8 225.67,-110.06 215.16,-95.72"/>
<polygon fill="midnightblue" stroke="midnightblue" points="304.07,-227.2 314.59,-228.47 307.15,-220.92 304.07,-227.2"/>
</g>
<!-- Node20&#45;&gt;Node21 -->
<g id="edge12" class="edge">
<title>Node20&#45;&gt;Node21</title>
<path fill="none" stroke="midnightblue" d="M150.23,-78.79C139.06,-77.35 127.3,-75.83 116.09,-74.38"/>
<polygon fill="midnightblue" stroke="midnightblue" points="149.93,-82.28 160.29,-80.09 150.83,-75.34 149.93,-82.28"/>
</g>
<!-- Node28&#45;&gt;Node14 -->
<g id="edge17" class="edge">
<title>Node28&#45;&gt;Node14</title>
<path fill="none" stroke="midnightblue" d="M320.18,-137.2C293.37,-147.67 256.55,-162.05 232.52,-171.43"/>
<polygon fill="midnightblue" stroke="midnightblue" points="321.52,-140.44 329.56,-133.54 318.97,-133.92 321.52,-140.44"/>
</g>
<!-- Node37 -->
<g id="node16" class="node">
<title>Node37</title>
<g id="a_node16"><a xlink:href="ppppp__ambres_8cpp.html#a93b5d60f7907bf3f064ed2191cd6ff31" target="_top" xlink:title=" ">
<polygon fill="white" stroke="black" points="480,-0.5 480,-19.5 551,-19.5 551,-0.5 480,-0.5"/>
<text text-anchor="middle" x="515.5" y="-7.5" font-family="Helvetica,sans-Serif" font-size="10.00">lambdacalcs</text>
</a>
</g>
</g>
<!-- Node36&#45;&gt;Node37 -->
<g id="edge24" class="edge">
<title>Node36&#45;&gt;Node37</title>
<path fill="none" stroke="midnightblue" d="M639.52,-87.4C626.56,-71.52 605.63,-48.49 583,-34 573.28,-27.78 561.74,-22.89 551.01,-19.2"/>
<polygon fill="midnightblue" stroke="midnightblue" points="636.91,-89.73 645.87,-95.39 642.39,-85.38 636.91,-89.73"/>
</g>
</g>
</svg>
