<?xml version="1.0" encoding="UTF-8" standalone="no"?>
<!DOCTYPE svg PUBLIC "-//W3C//DTD SVG 1.1//EN"
 "http://www.w3.org/Graphics/SVG/1.1/DTD/svg11.dtd">
<!-- Generated by graphviz version 2.50.0 (20220203.2022)
 -->
<!-- Title: filter_ Pages: 1 -->
<svg width="219pt" height="66pt"
 viewBox="0.00 0.00 219.00 66.00" xmlns="http://www.w3.org/2000/svg" xmlns:xlink="http://www.w3.org/1999/xlink">
<g id="graph0" class="graph" transform="scale(1 1) rotate(0) translate(4 62)">
<title>filter_</title>
<polygon fill="white" stroke="transparent" points="-4,4 -4,-62 215,-62 215,4 -4,4"/>
<!-- Node1 -->
<g id="node1" class="node">
<title>Node1</title>
<g id="a_node1"><a xlink:title=" ">
<polygon fill="#bfbfbf" stroke="black" points="171,-19.5 171,-38.5 211,-38.5 211,-19.5 171,-19.5"/>
<text text-anchor="middle" x="191" y="-26.5" font-family="Helvetica,sans-Serif" font-size="10.00">filter_</text>
</a>
</g>
</g>
<!-- Node2 -->
<g id="node2" class="node">
<title>Node2</title>
<g id="a_node2"><a xlink:href="acsQC_8cpp.html#abb64bdd7fce88139b8029b100b8ab662" target="_top" xlink:title="Single channel detection–identification–adaptation (DIA) for integer cycle slips.">
<polygon fill="white" stroke="black" points="95,-19.5 95,-38.5 135,-38.5 135,-19.5 95,-19.5"/>
<text text-anchor="middle" x="115" y="-26.5" font-family="Helvetica,sans-Serif" font-size="10.00">scdia</text>
</a>
</g>
</g>
<!-- Node1&#45;&gt;Node2 -->
<g id="edge1" class="edge">
<title>Node1&#45;&gt;Node2</title>
<path fill="none" stroke="midnightblue" d="M160.87,-29C152.27,-29 143.07,-29 135.25,-29"/>
<polygon fill="midnightblue" stroke="midnightblue" points="160.94,-32.5 170.94,-29 160.94,-25.5 160.94,-32.5"/>
</g>
<!-- Node3 -->
<g id="node3" class="node">
<title>Node3</title>
<g id="a_node3"><a xlink:href="acsQC_8cpp.html#ae52b478bb7d30e6aaf8f0e6b4e526681" target="_top" xlink:title="Cycle slip detection and repair for dual&#45;frequency.">
<polygon fill="white" stroke="red" points="0,-38.5 0,-57.5 59,-57.5 59,-38.5 0,-38.5"/>
<text text-anchor="middle" x="29.5" y="-45.5" font-family="Helvetica,sans-Serif" font-size="10.00">cycleslip2</text>
</a>
</g>
</g>
<!-- Node2&#45;&gt;Node3 -->
<g id="edge2" class="edge">
<title>Node2&#45;&gt;Node3</title>
<path fill="none" stroke="midnightblue" d="M84.68,-35.67C76.43,-37.55 67.48,-39.59 59.27,-41.45"/>
<polygon fill="midnightblue" stroke="midnightblue" points="85.66,-39.04 94.63,-33.41 84.11,-32.21 85.66,-39.04"/>
</g>
<!-- Node8 -->
<g id="node4" class="node">
<title>Node8</title>
<g id="a_node4"><a xlink:href="acsQC_8cpp.html#a50b9ebf4a56ec6edec979531b0515887" target="_top" xlink:title="Cycle slip detection and repair for triple&#45;frequency.">
<polygon fill="white" stroke="red" points="0,-0.5 0,-19.5 59,-19.5 59,-0.5 0,-0.5"/>
<text text-anchor="middle" x="29.5" y="-7.5" font-family="Helvetica,sans-Serif" font-size="10.00">cycleslip3</text>
</a>
</g>
</g>
<!-- Node2&#45;&gt;Node8 -->
<g id="edge3" class="edge">
<title>Node2&#45;&gt;Node8</title>
<path fill="none" stroke="midnightblue" d="M84.68,-22.33C76.43,-20.45 67.48,-18.41 59.27,-16.55"/>
<polygon fill="midnightblue" stroke="midnightblue" points="84.11,-25.79 94.63,-24.59 85.66,-18.96 84.11,-25.79"/>
</g>
</g>
</svg>
