<?xml version="1.0" encoding="UTF-8" standalone="no"?>
<!DOCTYPE svg PUBLIC "-//W3C//DTD SVG 1.1//EN"
 "http://www.w3.org/Graphics/SVG/1.1/DTD/svg11.dtd">
<!-- Generated by graphviz version 2.50.0 (20220203.2022)
 -->
<!-- Title: eye Pages: 1 -->
<!--zoomable 451 -->
<svg id="main" version="1.1" xmlns="http://www.w3.org/2000/svg" xmlns:xlink="http://www.w3.org/1999/xlink" xml:space="preserve" onload="init(evt)">
<style type="text/css"><![CDATA[
.edge:hover path { stroke: red; }
.edge:hover polygon { stroke: red; fill: red; }
]]></style>
<script type="text/javascript"><![CDATA[
var edges = document.getElementsByTagName('g');
if (edges && edges.length) {
  for (var i=0;i<edges.length;i++) {
    if (edges[i].id.substr(0,4)=='edge') {
      edges[i].setAttribute('class','edge');
    }
  }
}
]]></script>
        <defs>
                <circle id="rim" cx="0" cy="0" r="7"/>
                <circle id="rim2" cx="0" cy="0" r="3.5"/>
                <g id="zoomPlus">
                        <use xlink:href="#rim" fill="#404040">
                                <set attributeName="fill" to="#808080" begin="zoomplus.mouseover" end="zoomplus.mouseout"/>
                        </use>
                        <path d="M-4,0h8M0,-4v8" fill="none" stroke="white" stroke-width="1.5" pointer-events="none"/>
                </g>
                <g id="zoomMin">
                        <use xlink:href="#rim" fill="#404040">
                                <set attributeName="fill" to="#808080" begin="zoomminus.mouseover" end="zoomminus.mouseout"/>
                        </use>
                        <path d="M-4,0h8" fill="none" stroke="white" stroke-width="1.5" pointer-events="none"/>
                </g>
                <g id="dirArrow">
                        <path fill="none" stroke="white" stroke-width="1.5" d="M0,-3.0v7 M-2.5,-0.5L0,-3.0L2.5,-0.5"/>
                </g>
               <g id="resetDef">
                       <use xlink:href="#rim2" fill="#404040">
                               <set attributeName="fill" to="#808080" begin="reset.mouseover" end="reset.mouseout"/>
                       </use>
               </g>
        </defs>

<script type="text/javascript">
var viewWidth = 743;
var viewHeight = 451;
var sectionId = 'dynsection-4';
</script>
<script xlink:href="svgpan.js"/>
<svg id="graph" class="graph">
<g id="viewport">
<title>eye</title>
<polygon fill="white" stroke="transparent" points="-4,4 -4,-447.47 739,-447.47 739,4 -4,4"/>
<!-- Node1 -->
<g id="node1" class="node">
<title>Node1</title>
<g id="a_node1"><a xlink:title=" ">
<polygon fill="#bfbfbf" stroke="black" points="703,-252.97 703,-271.97 735,-271.97 735,-252.97 703,-252.97"/>
<text text-anchor="middle" x="719" y="-259.97" font-family="Helvetica,sans-Serif" font-size="10.00">eye</text>
</a>
</g>
</g>
<!-- Node2 -->
<g id="node2" class="node">
<title>Node2</title>
<g id="a_node2"><a xlink:href="algebra__old_8cpp.html#a56b19c4e307111fe68e1e2c1f57868a1" target="_top" xlink:title=" ">
<polygon fill="white" stroke="black" points="623,-347.97 623,-366.97 663,-366.97 663,-347.97 623,-347.97"/>
<text text-anchor="middle" x="643" y="-354.97" font-family="Helvetica,sans-Serif" font-size="10.00">filter_</text>
</a>
</g>
</g>
<!-- Node1&#45;&gt;Node2 -->
<g id="edge1" class="edge">
<title>Node1&#45;&gt;Node2</title>
<path fill="none" stroke="midnightblue" d="M704.11,-280.3C688.52,-300.31 663.8,-332.04 651.49,-347.85"/>
<polygon fill="midnightblue" stroke="midnightblue" points="706.98,-282.32 710.36,-272.28 701.45,-278.01 706.98,-282.32"/>
</g>
<!-- Node10 -->
<g id="node4" class="node">
<title>Node10</title>
<g id="a_node4"><a xlink:href="lambda_8cpp.html#a364f9f201016e3baff0a9366158a823b" target="_top" xlink:title=" ">
<polygon fill="white" stroke="black" points="619,-233.97 619,-252.97 667,-252.97 667,-233.97 619,-233.97"/>
<text text-anchor="middle" x="643" y="-240.97" font-family="Helvetica,sans-Serif" font-size="10.00">lambda</text>
</a>
</g>
</g>
<!-- Node1&#45;&gt;Node10 -->
<g id="edge3" class="edge">
<title>Node1&#45;&gt;Node10</title>
<path fill="none" stroke="midnightblue" d="M692.78,-255.99C684.49,-253.86 675.32,-251.51 667.19,-249.42"/>
<polygon fill="midnightblue" stroke="midnightblue" points="692.11,-259.43 702.67,-258.53 693.85,-252.65 692.11,-259.43"/>
</g>
<!-- Node3 -->
<g id="node3" class="node">
<title>Node3</title>
<g id="a_node3"><a xlink:href="acsQC_8cpp.html#abb64bdd7fce88139b8029b100b8ab662" target="_top" xlink:title="Single channel detection–identification–adaptation (DIA) for integer cycle slips.">
<polygon fill="white" stroke="red" points="495.5,-423.97 495.5,-442.97 535.5,-442.97 535.5,-423.97 495.5,-423.97"/>
<text text-anchor="middle" x="515.5" y="-430.97" font-family="Helvetica,sans-Serif" font-size="10.00">scdia</text>
</a>
</g>
</g>
<!-- Node2&#45;&gt;Node3 -->
<g id="edge2" class="edge">
<title>Node2&#45;&gt;Node3</title>
<path fill="none" stroke="midnightblue" d="M625.99,-374.6C614.82,-385.76 599.07,-399.95 583,-409.47 568.11,-418.28 549.45,-424.67 535.69,-428.62"/>
<polygon fill="midnightblue" stroke="midnightblue" points="628.8,-376.74 633.26,-367.13 623.78,-371.86 628.8,-376.74"/>
</g>
<!-- Node10&#45;&gt;Node3 -->
<g id="edge21" class="edge">
<title>Node10&#45;&gt;Node3</title>
<path fill="none" stroke="midnightblue" d="M637.3,-262.99C627.52,-302.11 604.15,-388.21 583,-409.47 570.36,-422.17 550.51,-428.19 535.78,-431.02"/>
<polygon fill="midnightblue" stroke="midnightblue" points="640.74,-263.63 639.73,-253.08 633.94,-261.96 640.74,-263.63"/>
</g>
<!-- Node11 -->
<g id="node5" class="node">
<title>Node11</title>
<g id="a_node5"><a xlink:href="namespacem__betainfo.html#a7c2c7a1fff113613caae0cd8f91ca37d" target="_top" xlink:title=" ">
<polygon fill="white" stroke="black" points="155,-205.97 155,-224.97 259,-224.97 259,-205.97 155,-205.97"/>
<text text-anchor="middle" x="207" y="-212.97" font-family="Helvetica,sans-Serif" font-size="10.00">m_betainfo::betainfo</text>
</a>
</g>
</g>
<!-- Node10&#45;&gt;Node11 -->
<g id="edge4" class="edge">
<title>Node10&#45;&gt;Node11</title>
<path fill="none" stroke="midnightblue" d="M608.66,-241.32C533.26,-236.45 349.21,-224.58 259.23,-218.77"/>
<polygon fill="midnightblue" stroke="midnightblue" points="608.77,-244.83 618.97,-241.98 609.22,-237.84 608.77,-244.83"/>
</g>
<!-- Node12 -->
<g id="node6" class="node">
<title>Node12</title>
<g id="a_node6"><a xlink:href="force__srp_8f90.html#ac60c56aaaf5a6f7118c763fe46ce8373" target="_top" xlink:title=" ">
<polygon fill="white" stroke="red" points="326.5,-81.97 326.5,-100.97 383.5,-100.97 383.5,-81.97 326.5,-81.97"/>
<text text-anchor="middle" x="355" y="-88.97" font-family="Helvetica,sans-Serif" font-size="10.00">force_srp</text>
</a>
</g>
</g>
<!-- Node10&#45;&gt;Node12 -->
<g id="edge5" class="edge">
<title>Node10&#45;&gt;Node12</title>
<path fill="none" stroke="midnightblue" d="M639.04,-223.58C633.58,-194.56 618.99,-141.27 583,-115.47 522.94,-72.4 429.91,-79.34 383.83,-86.29"/>
<polygon fill="midnightblue" stroke="midnightblue" points="635.64,-224.46 640.76,-233.73 642.54,-223.29 635.64,-224.46"/>
</g>
<!-- Node13 -->
<g id="node7" class="node">
<title>Node13</title>
<g id="a_node7"><a xlink:href="force__sum_8f95.html#a757e2ccbe362bf3b01a51e2c0431a490" target="_top" xlink:title=" ">
<polygon fill="white" stroke="red" points="176,-119.97 176,-138.97 238,-138.97 238,-119.97 176,-119.97"/>
<text text-anchor="middle" x="207" y="-126.97" font-family="Helvetica,sans-Serif" font-size="10.00">force_sum</text>
</a>
</g>
</g>
<!-- Node10&#45;&gt;Node13 -->
<g id="edge8" class="edge">
<title>Node10&#45;&gt;Node13</title>
<path fill="none" stroke="midnightblue" d="M636.13,-224.21C628.13,-201.65 611.44,-165.24 583,-148.47 525.02,-114.28 316.58,-122.88 238.14,-127.49"/>
<polygon fill="midnightblue" stroke="midnightblue" points="632.83,-225.36 639.29,-233.75 639.47,-223.16 632.83,-225.36"/>
</g>
<!-- Node22 -->
<g id="node8" class="node">
<title>Node22</title>
<g id="a_node8"><a xlink:href="namespacem__pd__force.html#a942ea044856d62ee03ee7623436bc97e" target="_top" xlink:title=" ">
<polygon fill="white" stroke="red" points="152,-62.97 152,-81.97 262,-81.97 262,-62.97 152,-62.97"/>
<text text-anchor="middle" x="207" y="-69.97" font-family="Helvetica,sans-Serif" font-size="10.00">m_pd_force::pd_force</text>
</a>
</g>
</g>
<!-- Node10&#45;&gt;Node22 -->
<g id="edge20" class="edge">
<title>Node10&#45;&gt;Node22</title>
<path fill="none" stroke="midnightblue" d="M639.31,-223.86C632.47,-177.15 612.8,-61.45 583,-38.47 472.48,46.77 285.48,-33.81 226.44,-62.92"/>
<polygon fill="midnightblue" stroke="midnightblue" points="635.87,-224.51 640.74,-233.92 642.8,-223.53 635.87,-224.51"/>
</g>
<!-- Node26 -->
<g id="node9" class="node">
<title>Node26</title>
<g id="a_node9"><a xlink:href="namespacem__get__lambda.html#a4f37f4e3c711690fa001af1c03c09da1" target="_top" xlink:title=" ">
<polygon fill="white" stroke="black" points="448,-157.97 448,-176.97 583,-176.97 583,-157.97 448,-157.97"/>
<text text-anchor="middle" x="515.5" y="-164.97" font-family="Helvetica,sans-Serif" font-size="10.00">m_get_lambda::get_lambda</text>
</a>
</g>
</g>
<!-- Node10&#45;&gt;Node26 -->
<g id="edge9" class="edge">
<title>Node10&#45;&gt;Node26</title>
<path fill="none" stroke="midnightblue" d="M625.99,-226.33C614.82,-215.17 599.07,-200.98 583,-191.47 573.07,-185.59 561.47,-180.79 550.76,-177.08"/>
<polygon fill="midnightblue" stroke="midnightblue" points="623.78,-229.08 633.26,-233.81 628.8,-224.2 623.78,-229.08"/>
</g>
<!-- Node27 -->
<g id="node10" class="node">
<title>Node27</title>
<g id="a_node10"><a xlink:href="namespacem__shadow.html#a57161869236b6fe30e33523417670ca1" target="_top" xlink:title=" ">
<polygon fill="white" stroke="black" points="304,-176.97 304,-195.97 406,-195.97 406,-176.97 304,-176.97"/>
<text text-anchor="middle" x="355" y="-183.97" font-family="Helvetica,sans-Serif" font-size="10.00">m_shadow::shadow</text>
</a>
</g>
</g>
<!-- Node10&#45;&gt;Node27 -->
<g id="edge22" class="edge">
<title>Node10&#45;&gt;Node27</title>
<path fill="none" stroke="midnightblue" d="M608.91,-235.33C600.48,-233.34 591.42,-231.26 583,-229.47 522.39,-216.54 452.26,-203.56 406.17,-195.29"/>
<polygon fill="midnightblue" stroke="midnightblue" points="608.26,-238.78 618.8,-237.7 609.89,-231.97 608.26,-238.78"/>
</g>
<!-- Node28 -->
<g id="node11" class="node">
<title>Node28</title>
<g id="a_node11"><a xlink:href="namespacem__orbinfo.html#a7e90574cb9078c6ff14c6104446ee24a" target="_top" xlink:title=" ">
<polygon fill="white" stroke="black" points="160.5,-347.97 160.5,-366.97 253.5,-366.97 253.5,-347.97 160.5,-347.97"/>
<text text-anchor="middle" x="207" y="-354.97" font-family="Helvetica,sans-Serif" font-size="10.00">m_orbinfo::orbinfo</text>
</a>
</g>
</g>
<!-- Node10&#45;&gt;Node28 -->
<g id="edge17" class="edge">
<title>Node10&#45;&gt;Node28</title>
<path fill="none" stroke="midnightblue" d="M636.13,-262.72C628.13,-285.28 611.44,-321.69 583,-338.47 528.53,-370.59 341.26,-364.94 253.75,-360.32"/>
<polygon fill="midnightblue" stroke="midnightblue" points="639.47,-263.78 639.29,-253.18 632.83,-261.58 639.47,-263.78"/>
</g>
<!-- Node29 -->
<g id="node12" class="node">
<title>Node29</title>
<g id="a_node12"><a xlink:href="namespacem__statorbit2.html#a6ba60e4ad1e25a33b4f2f9607374ea58" target="_top" xlink:title=" ">
<polygon fill="white" stroke="red" points="0,-366.97 0,-385.97 116,-385.97 116,-366.97 0,-366.97"/>
<text text-anchor="middle" x="58" y="-373.97" font-family="Helvetica,sans-Serif" font-size="10.00">m_statorbit2::statorbit2</text>
</a>
</g>
</g>
<!-- Node10&#45;&gt;Node29 -->
<g id="edge24" class="edge">
<title>Node10&#45;&gt;Node29</title>
<path fill="none" stroke="midnightblue" d="M638.57,-263.05C632.6,-290.63 617.47,-340.14 583,-363.47 508.38,-413.95 235.73,-394.12 116.01,-382.54"/>
<polygon fill="midnightblue" stroke="midnightblue" points="642.04,-263.51 640.54,-253.02 635.18,-262.16 642.04,-263.51"/>
</g>
<!-- Node31 -->
<g id="node13" class="node">
<title>Node31</title>
<g id="a_node13"><a xlink:href="linearCombo_8cpp.html#a41701e6aeffecf451235e8fb75aad602" target="_top" xlink:title="Prepare a base object for linear combinations using observation data.">
<polygon fill="white" stroke="red" points="475.5,-309.97 475.5,-328.97 555.5,-328.97 555.5,-309.97 475.5,-309.97"/>
<text text-anchor="middle" x="515.5" y="-316.97" font-family="Helvetica,sans-Serif" font-size="10.00">lcPrepareBase</text>
</a>
</g>
</g>
<!-- Node10&#45;&gt;Node31 -->
<g id="edge16" class="edge">
<title>Node10&#45;&gt;Node31</title>
<path fill="none" stroke="midnightblue" d="M627.97,-261.03C616.98,-273.7 600.64,-290.29 583,-300.47 574.68,-305.27 565.07,-308.92 555.78,-311.68"/>
<polygon fill="midnightblue" stroke="midnightblue" points="630.95,-262.93 634.68,-253.02 625.58,-258.44 630.95,-262.93"/>
</g>
<!-- Node34 -->
<g id="node14" class="node">
<title>Node34</title>
<g id="a_node14"><a xlink:href="namespacem__pd__ecom.html#a6566481abfae9e375586538e1de35f42" target="_top" xlink:title=" ">
<polygon fill="white" stroke="black" points="298,-43.97 298,-62.97 412,-62.97 412,-43.97 298,-43.97"/>
<text text-anchor="middle" x="355" y="-50.97" font-family="Helvetica,sans-Serif" font-size="10.00">m_pd_ecom::pd_ecom</text>
</a>
</g>
</g>
<!-- Node10&#45;&gt;Node34 -->
<g id="edge18" class="edge">
<title>Node10&#45;&gt;Node34</title>
<path fill="none" stroke="midnightblue" d="M641.37,-223.45C639.08,-187.76 628.74,-113.51 583,-77.47 534.91,-39.57 462.18,-38.68 412.08,-43.92"/>
<polygon fill="midnightblue" stroke="midnightblue" points="637.89,-223.77 641.87,-233.58 644.88,-223.43 637.89,-223.77"/>
</g>
<!-- Node35 -->
<g id="node15" class="node">
<title>Node35</title>
<g id="a_node15"><a xlink:href="ppppp__obs_8cpp.html#a3db2ffced7ab37c4874c3a53fcb7953e" target="_top" xlink:title=" ">
<polygon fill="white" stroke="red" points="482.5,-271.97 482.5,-290.97 548.5,-290.97 548.5,-271.97 482.5,-271.97"/>
<text text-anchor="middle" x="515.5" y="-278.97" font-family="Helvetica,sans-Serif" font-size="10.00">stationPPP</text>
</a>
</g>
</g>
<!-- Node10&#45;&gt;Node35 -->
<g id="edge23" class="edge">
<title>Node10&#45;&gt;Node35</title>
<path fill="none" stroke="midnightblue" d="M609.28,-253.37C590.33,-259.11 566.6,-266.3 547.88,-271.97"/>
<polygon fill="midnightblue" stroke="midnightblue" points="610.42,-256.68 618.98,-250.44 608.4,-249.98 610.42,-256.68"/>
</g>
<!-- Node12&#45;&gt;Node13 -->
<g id="edge6" class="edge">
<title>Node12&#45;&gt;Node13</title>
<path fill="none" stroke="midnightblue" d="M316.25,-101.29C291.98,-107.61 260.86,-115.71 238.22,-121.6"/>
<polygon fill="midnightblue" stroke="midnightblue" points="317.4,-104.61 326.19,-98.7 315.64,-97.84 317.4,-104.61"/>
</g>
<!-- Node12&#45;&gt;Node22 -->
<g id="edge7" class="edge">
<title>Node12&#45;&gt;Node22</title>
<path fill="none" stroke="midnightblue" d="M315.88,-86.51C299.44,-84.37 279.91,-81.83 262.02,-79.5"/>
<polygon fill="midnightblue" stroke="midnightblue" points="315.83,-90.03 326.19,-87.85 316.73,-83.09 315.83,-90.03"/>
</g>
<!-- Node26&#45;&gt;Node27 -->
<g id="edge10" class="edge">
<title>Node26&#45;&gt;Node27</title>
<path fill="none" stroke="midnightblue" d="M437.59,-176.69C426.96,-177.96 416.28,-179.24 406.3,-180.44"/>
<polygon fill="midnightblue" stroke="midnightblue" points="438.23,-180.13 447.74,-175.47 437.4,-173.18 438.23,-180.13"/>
</g>
<!-- Node27&#45;&gt;Node11 -->
<g id="edge11" class="edge">
<title>Node27&#45;&gt;Node11</title>
<path fill="none" stroke="midnightblue" d="M295.88,-198.01C282.71,-200.63 268.86,-203.38 256.16,-205.9"/>
<polygon fill="midnightblue" stroke="midnightblue" points="296.66,-201.42 305.79,-196.04 295.3,-194.56 296.66,-201.42"/>
</g>
<!-- Node27&#45;&gt;Node13 -->
<g id="edge12" class="edge">
<title>Node27&#45;&gt;Node13</title>
<path fill="none" stroke="midnightblue" d="M320.18,-173.26C293.37,-162.8 256.55,-148.42 232.52,-139.04"/>
<polygon fill="midnightblue" stroke="midnightblue" points="318.97,-176.55 329.56,-176.93 321.52,-170.03 318.97,-176.55"/>
</g>
<!-- Node27&#45;&gt;Node22 -->
<g id="edge15" class="edge">
<title>Node27&#45;&gt;Node22</title>
<path fill="none" stroke="midnightblue" d="M335.26,-170.26C316.9,-154.57 287.99,-130.3 262,-110.47 248.88,-100.45 233.43,-89.68 222.43,-82.17"/>
<polygon fill="midnightblue" stroke="midnightblue" points="333.03,-172.96 342.9,-176.82 337.59,-167.65 333.03,-172.96"/>
</g>
<!-- Node27&#45;&gt;Node28 -->
<g id="edge13" class="edge">
<title>Node27&#45;&gt;Node28</title>
<path fill="none" stroke="midnightblue" d="M339.18,-203.82C308.7,-239.52 239.85,-320.16 216.18,-347.89"/>
<polygon fill="midnightblue" stroke="midnightblue" points="341.9,-206.03 345.73,-196.15 336.58,-201.48 341.9,-206.03"/>
</g>
<!-- Node28&#45;&gt;Node29 -->
<g id="edge14" class="edge">
<title>Node28&#45;&gt;Node29</title>
<path fill="none" stroke="midnightblue" d="M150.23,-364.68C139.06,-366.12 127.3,-367.64 116.09,-369.09"/>
<polygon fill="midnightblue" stroke="midnightblue" points="150.83,-368.13 160.29,-363.37 149.93,-361.19 150.83,-368.13"/>
</g>
<!-- Node34&#45;&gt;Node22 -->
<g id="edge19" class="edge">
<title>Node34&#45;&gt;Node22</title>
<path fill="none" stroke="midnightblue" d="M287.95,-62.06C279.33,-63.18 270.59,-64.32 262.2,-65.41"/>
<polygon fill="midnightblue" stroke="midnightblue" points="288.51,-65.52 297.97,-60.76 287.6,-58.58 288.51,-65.52"/>
</g>
</g>
</svg>
        <g id="navigator" transform="translate(0 0)" fill="#404254">
                <rect fill="#f2f5e9" fill-opacity="0.5" stroke="#606060" stroke-width=".5" x="0" y="0" width="60" height="60"/>
                <use id="zoomplus" xlink:href="#zoomPlus" x="17" y="9" onmousedown="handleZoom(evt,'in')"/>
                <use id="zoomminus" xlink:href="#zoomMin" x="42" y="9" onmousedown="handleZoom(evt,'out')"/>
                <use id="reset" xlink:href="#resetDef" x="30" y="36" onmousedown="handleReset()"/>
                <g id="arrowUp" xlink:href="#dirArrow" transform="translate(30 24)" onmousedown="handlePan(0,-1)">
                  <use xlink:href="#rim" fill="#404040">
                        <set attributeName="fill" to="#808080" begin="arrowUp.mouseover" end="arrowUp.mouseout"/>
                  </use>
                  <path fill="none" stroke="white" stroke-width="1.5" d="M0,-3.0v7 M-2.5,-0.5L0,-3.0L2.5,-0.5"/>
                </g>
                <g id="arrowRight" xlink:href="#dirArrow" transform="rotate(90) translate(36 -43)" onmousedown="handlePan(1,0)">
                  <use xlink:href="#rim" fill="#404040">
                        <set attributeName="fill" to="#808080" begin="arrowRight.mouseover" end="arrowRight.mouseout"/>
                  </use>
                  <path fill="none" stroke="white" stroke-width="1.5" d="M0,-3.0v7 M-2.5,-0.5L0,-3.0L2.5,-0.5"/>
                </g>
                <g id="arrowDown" xlink:href="#dirArrow" transform="rotate(180) translate(-30 -48)" onmousedown="handlePan(0,1)">
                  <use xlink:href="#rim" fill="#404040">
                        <set attributeName="fill" to="#808080" begin="arrowDown.mouseover" end="arrowDown.mouseout"/>
                  </use>
                  <path fill="none" stroke="white" stroke-width="1.5" d="M0,-3.0v7 M-2.5,-0.5L0,-3.0L2.5,-0.5"/>
                </g>
                <g id="arrowLeft" xlink:href="#dirArrow" transform="rotate(270) translate(-36 17)" onmousedown="handlePan(-1,0)">
                  <use xlink:href="#rim" fill="#404040">
                        <set attributeName="fill" to="#808080" begin="arrowLeft.mouseover" end="arrowLeft.mouseout"/>
                  </use>
                  <path fill="none" stroke="white" stroke-width="1.5" d="M0,-3.0v7 M-2.5,-0.5L0,-3.0L2.5,-0.5"/>
                </g>
        </g>
        <svg viewBox="0 0 15 15" width="100%" height="30px" preserveAspectRatio="xMaxYMin meet">
         <g id="arrow_out" transform="scale(0.3 0.3)">
          <a xlink:href="algebra__old_8cpp_adfe9cb36e0f4af6b1ca11bdfbe66e55c_icgraph_org.svg" target="_base">
           <rect id="button" ry="5" rx="5" y="6" x="6" height="38" width="38"
                fill="#f2f5e9" fill-opacity="0.5" stroke="#606060" stroke-width="1.0"/>
           <path id="arrow"
             d="M 11.500037,31.436501 C 11.940474,20.09759 22.043105,11.32322 32.158766,21.979434 L 37.068811,17.246167 C 37.068811,17.246167 37.088388,32 37.088388,32 L 22.160133,31.978069 C 22.160133,31.978069 26.997745,27.140456 26.997745,27.140456 C 18.528582,18.264221 13.291696,25.230495 11.500037,31.436501 z"
             style="fill:#404040;"/>
          </a>
         </g>
        </svg>
</svg>
