<?xml version="1.0" encoding="UTF-8" standalone="no"?>
<!DOCTYPE svg PUBLIC "-//W3C//DTD SVG 1.1//EN"
 "http://www.w3.org/Graphics/SVG/1.1/DTD/svg11.dtd">
<!-- Generated by graphviz version 2.50.0 (20220203.2022)
 -->
<!-- Title: mat Pages: 1 -->
<svg width="1258pt" height="826pt"
 viewBox="0.00 0.00 1258.00 826.00" xmlns="http://www.w3.org/2000/svg" xmlns:xlink="http://www.w3.org/1999/xlink">
<g id="graph0" class="graph" transform="scale(1 1) rotate(0) translate(4 822)">
<title>mat</title>
<polygon fill="white" stroke="transparent" points="-4,4 -4,-822 1254,-822 1254,4 -4,4"/>
<!-- Node1 -->
<g id="node1" class="node">
<title>Node1</title>
<g id="a_node1"><a xlink:title=" ">
<polygon fill="#bfbfbf" stroke="black" points="1217,-532.5 1217,-551.5 1250,-551.5 1250,-532.5 1217,-532.5"/>
<text text-anchor="middle" x="1233.5" y="-539.5" font-family="Helvetica,sans-Serif" font-size="10.00">mat</text>
</a>
</g>
</g>
<!-- Node2 -->
<g id="node2" class="node">
<title>Node2</title>
<g id="a_node2"><a xlink:href="structTestStack.html#a27d1058ac99283fcda868575b24c509c" target="_top" xlink:title="Check matrix entries for invalid values.">
<polygon fill="white" stroke="black" points="1069.5,-798.5 1069.5,-817.5 1178.5,-817.5 1178.5,-798.5 1069.5,-798.5"/>
<text text-anchor="middle" x="1124" y="-805.5" font-family="Helvetica,sans-Serif" font-size="10.00">TestStack::checkMat</text>
</a>
</g>
</g>
<!-- Node1&#45;&gt;Node2 -->
<g id="edge1" class="edge">
<title>Node1&#45;&gt;Node2</title>
<path fill="none" stroke="midnightblue" d="M1230.62,-561.88C1225.38,-613.43 1209.14,-749.75 1181,-784 1175.83,-790.29 1168.7,-794.97 1161.27,-798.44"/>
<polygon fill="midnightblue" stroke="midnightblue" points="1234.12,-562.02 1231.62,-551.72 1227.16,-561.33 1234.12,-562.02"/>
</g>
<!-- Node4 -->
<g id="node4" class="node">
<title>Node4</title>
<g id="a_node4"><a xlink:href="algebra__old_8cpp.html#aeeb14c76251388cfcbcbcf3177990976" target="_top" xlink:title=" ">
<polygon fill="white" stroke="black" points="956.5,-532.5 956.5,-551.5 996.5,-551.5 996.5,-532.5 956.5,-532.5"/>
<text text-anchor="middle" x="976.5" y="-539.5" font-family="Helvetica,sans-Serif" font-size="10.00">chiqc</text>
</a>
</g>
</g>
<!-- Node1&#45;&gt;Node4 -->
<g id="edge3" class="edge">
<title>Node1&#45;&gt;Node4</title>
<path fill="none" stroke="midnightblue" d="M1206.71,-542C1155.44,-542 1041.8,-542 996.59,-542"/>
<polygon fill="midnightblue" stroke="midnightblue" points="1206.93,-545.5 1216.93,-542 1206.93,-538.5 1206.93,-545.5"/>
</g>
<!-- Node5 -->
<g id="node5" class="node">
<title>Node5</title>
<g id="a_node5"><a xlink:href="algebra__old_8cpp.html#acc2b857563b3c233a09fe2427965f7b2" target="_top" xlink:title=" ">
<polygon fill="white" stroke="black" points="808.5,-608.5 808.5,-627.5 848.5,-627.5 848.5,-608.5 808.5,-608.5"/>
<text text-anchor="middle" x="828.5" y="-615.5" font-family="Helvetica,sans-Serif" font-size="10.00">lsqqc</text>
</a>
</g>
</g>
<!-- Node1&#45;&gt;Node5 -->
<g id="edge34" class="edge">
<title>Node1&#45;&gt;Node5</title>
<path fill="none" stroke="midnightblue" d="M1207,-549.42C1198.74,-551.7 1189.52,-554.09 1181,-556 1115.99,-570.54 912.25,-604.39 848.66,-614.86"/>
<polygon fill="midnightblue" stroke="midnightblue" points="1208.14,-552.74 1216.81,-546.66 1206.24,-546 1208.14,-552.74"/>
</g>
<!-- Node13 -->
<g id="node7" class="node">
<title>Node13</title>
<g id="a_node7"><a xlink:href="algebra__old_8cpp.html#a56b19c4e307111fe68e1e2c1f57868a1" target="_top" xlink:title=" ">
<polygon fill="white" stroke="black" points="657,-722.5 657,-741.5 697,-741.5 697,-722.5 657,-722.5"/>
<text text-anchor="middle" x="677" y="-729.5" font-family="Helvetica,sans-Serif" font-size="10.00">filter_</text>
</a>
</g>
</g>
<!-- Node1&#45;&gt;Node13 -->
<g id="edge6" class="edge">
<title>Node1&#45;&gt;Node13</title>
<path fill="none" stroke="midnightblue" d="M1230.31,-561.46C1224.82,-606.28 1208.88,-714.55 1181,-736 1103.82,-795.37 779.42,-748.27 697.07,-735.14"/>
<polygon fill="midnightblue" stroke="midnightblue" points="1233.78,-561.87 1231.48,-551.53 1226.83,-561.05 1233.78,-561.87"/>
</g>
<!-- Node14 -->
<g id="node8" class="node">
<title>Node14</title>
<g id="a_node8"><a xlink:href="rtsSmoothing_8cpp.html#a409341f11cb16e20ae10acf6c0e03fcc" target="_top" xlink:title=" ">
<polygon fill="white" stroke="black" points="1067,-646.5 1067,-665.5 1181,-665.5 1181,-646.5 1067,-646.5"/>
<text text-anchor="middle" x="1124" y="-653.5" font-family="Helvetica,sans-Serif" font-size="10.00">isPositiveSemiDefinite</text>
</a>
</g>
</g>
<!-- Node1&#45;&gt;Node14 -->
<g id="edge8" class="edge">
<title>Node1&#45;&gt;Node14</title>
<path fill="none" stroke="midnightblue" d="M1225.68,-561.37C1217.75,-581.42 1202.87,-612.51 1181,-632 1174.13,-638.12 1165.46,-642.86 1157.01,-646.44"/>
<polygon fill="midnightblue" stroke="midnightblue" points="1229.06,-562.34 1229.29,-551.75 1222.5,-559.88 1229.06,-562.34"/>
</g>
<!-- Node15 -->
<g id="node9" class="node">
<title>Node15</title>
<g id="a_node9"><a xlink:href="lambda_8cpp.html#a364f9f201016e3baff0a9366158a823b" target="_top" xlink:title=" ">
<polygon fill="white" stroke="black" points="653,-532.5 653,-551.5 701,-551.5 701,-532.5 653,-532.5"/>
<text text-anchor="middle" x="677" y="-539.5" font-family="Helvetica,sans-Serif" font-size="10.00">lambda</text>
</a>
</g>
</g>
<!-- Node1&#45;&gt;Node15 -->
<g id="edge9" class="edge">
<title>Node1&#45;&gt;Node15</title>
<path fill="none" stroke="midnightblue" d="M1209.07,-527.29C1200.51,-522.45 1190.57,-517.43 1181,-514 1009.05,-452.31 946.82,-435.41 771,-485 738.19,-494.25 705.54,-518.67 689.05,-532.36"/>
<polygon fill="midnightblue" stroke="midnightblue" points="1207.35,-530.34 1217.75,-532.39 1210.9,-524.31 1207.35,-530.34"/>
</g>
<!-- Node42 -->
<g id="node22" class="node">
<title>Node42</title>
<g id="a_node22"><a xlink:href="lambda_8cpp.html#a95d9f9037b4b559cb1af6c1d66f26728" target="_top" xlink:title=" ">
<polygon fill="white" stroke="black" points="962,-418.5 962,-437.5 991,-437.5 991,-418.5 962,-418.5"/>
<text text-anchor="middle" x="976.5" y="-425.5" font-family="Helvetica,sans-Serif" font-size="10.00">LD</text>
</a>
</g>
</g>
<!-- Node1&#45;&gt;Node42 -->
<g id="edge32" class="edge">
<title>Node1&#45;&gt;Node42</title>
<path fill="none" stroke="midnightblue" d="M1227.13,-522.58C1220.19,-501.45 1205.94,-468.49 1181,-452 1120.02,-411.68 1025.81,-420.63 991.01,-425.73"/>
<polygon fill="midnightblue" stroke="midnightblue" points="1223.86,-523.85 1230.11,-532.4 1230.55,-521.82 1223.86,-523.85"/>
</g>
<!-- Node43 -->
<g id="node23" class="node">
<title>Node43</title>
<g id="a_node23"><a xlink:href="algebra__old_8cpp.html#a7098620b4cf8e43e18b502711fa84a85" target="_top" xlink:title=" ">
<polygon fill="white" stroke="black" points="1100,-684.5 1100,-703.5 1148,-703.5 1148,-684.5 1100,-684.5"/>
<text text-anchor="middle" x="1124" y="-691.5" font-family="Helvetica,sans-Serif" font-size="10.00">ludcmp</text>
</a>
</g>
</g>
<!-- Node1&#45;&gt;Node43 -->
<g id="edge35" class="edge">
<title>Node1&#45;&gt;Node43</title>
<path fill="none" stroke="midnightblue" d="M1230.16,-561.58C1225.7,-590.36 1213.35,-643.99 1181,-675 1172.11,-683.53 1159.25,-688.23 1148.09,-690.83"/>
<polygon fill="midnightblue" stroke="midnightblue" points="1233.64,-561.94 1231.55,-551.55 1226.71,-560.98 1233.64,-561.94"/>
</g>
<!-- Node44 -->
<g id="node24" class="node">
<title>Node44</title>
<g id="a_node24"><a xlink:href="algebra__old_8cpp.html#a4035d20f11b4bd8085e6b0f84f8c0764" target="_top" xlink:title=" ">
<polygon fill="white" stroke="black" points="953.5,-684.5 953.5,-703.5 999.5,-703.5 999.5,-684.5 953.5,-684.5"/>
<text text-anchor="middle" x="976.5" y="-691.5" font-family="Helvetica,sans-Serif" font-size="10.00">matinv</text>
</a>
</g>
</g>
<!-- Node1&#45;&gt;Node44 -->
<g id="edge42" class="edge">
<title>Node1&#45;&gt;Node44</title>
<path fill="none" stroke="midnightblue" d="M1233.41,-561.95C1233.87,-598.9 1228.83,-677.45 1181,-713 1125.32,-754.38 1036,-721.48 996.9,-703.62"/>
<polygon fill="midnightblue" stroke="midnightblue" points="1236.9,-561.42 1233.12,-551.52 1229.9,-561.61 1236.9,-561.42"/>
</g>
<!-- Node45 -->
<g id="node25" class="node">
<title>Node45</title>
<g id="a_node25"><a xlink:href="algebra__old_8cpp.html#a54fd9b64416949c38e879ac889964d2a" target="_top" xlink:title=" ">
<polygon fill="white" stroke="red" points="808.5,-646.5 808.5,-665.5 848.5,-665.5 848.5,-646.5 808.5,-646.5"/>
<text text-anchor="middle" x="828.5" y="-653.5" font-family="Helvetica,sans-Serif" font-size="10.00">solve</text>
</a>
</g>
</g>
<!-- Node1&#45;&gt;Node45 -->
<g id="edge47" class="edge">
<title>Node1&#45;&gt;Node45</title>
<path fill="none" stroke="midnightblue" d="M1215.21,-558.15C1205.76,-566.15 1193.46,-575.3 1181,-581 1062.42,-635.27 903.18,-650.92 848.7,-654.83"/>
<polygon fill="midnightblue" stroke="midnightblue" points="1217.54,-560.77 1222.72,-551.53 1212.91,-555.52 1217.54,-560.77"/>
</g>
<!-- Node48 -->
<g id="node26" class="node">
<title>Node48</title>
<g id="a_node26"><a xlink:href="lambda_8cpp.html#a7a45f828294c77c7e36d0a8cbfa229a3" target="_top" xlink:title=" ">
<polygon fill="white" stroke="black" points="805.5,-380.5 805.5,-399.5 851.5,-399.5 851.5,-380.5 805.5,-380.5"/>
<text text-anchor="middle" x="828.5" y="-387.5" font-family="Helvetica,sans-Serif" font-size="10.00">search</text>
</a>
</g>
</g>
<!-- Node1&#45;&gt;Node48 -->
<g id="edge43" class="edge">
<title>Node1&#45;&gt;Node48</title>
<path fill="none" stroke="midnightblue" d="M1229.89,-521.9C1223.81,-478.61 1207.2,-378.85 1181,-359 1077.72,-280.77 905.17,-352.96 848.31,-380.42"/>
<polygon fill="midnightblue" stroke="midnightblue" points="1226.45,-522.62 1231.27,-532.06 1233.39,-521.68 1226.45,-522.62"/>
</g>
<!-- Node60 -->
<g id="node28" class="node">
<title>Node60</title>
<g id="a_node28"><a xlink:href="namespaceboost_1_1serialization.html#aa3a45e5f6faa1219473551fa10548d20" target="_top" xlink:title=" ">
<polygon fill="white" stroke="black" points="1076,-369 1076,-399 1172,-399 1172,-369 1076,-369"/>
<text text-anchor="start" x="1084" y="-387" font-family="Helvetica,sans-Serif" font-size="10.00">boost::serialization</text>
<text text-anchor="middle" x="1124" y="-376" font-family="Helvetica,sans-Serif" font-size="10.00">::serialize</text>
</a>
</g>
</g>
<!-- Node1&#45;&gt;Node60 -->
<g id="edge46" class="edge">
<title>Node1&#45;&gt;Node60</title>
<path fill="none" stroke="midnightblue" d="M1229.04,-522.63C1223.3,-495.46 1209.52,-445.83 1181,-414 1175.7,-408.09 1168.95,-403.13 1161.99,-399.05"/>
<polygon fill="midnightblue" stroke="midnightblue" points="1225.61,-523.33 1230.96,-532.47 1232.48,-521.98 1225.61,-523.33"/>
</g>
<!-- Node61 -->
<g id="node29" class="node">
<title>Node61</title>
<g id="a_node29"><a xlink:href="structTestStack.html#aff20cea87ae5eee6108b33d022913707" target="_top" xlink:title="Compare matrix against test dataset.">
<polygon fill="white" stroke="black" points="779,-171.5 779,-190.5 878,-190.5 878,-171.5 779,-171.5"/>
<text text-anchor="middle" x="828.5" y="-178.5" font-family="Helvetica,sans-Serif" font-size="10.00">TestStack::testMat</text>
</a>
</g>
</g>
<!-- Node1&#45;&gt;Node61 -->
<g id="edge48" class="edge">
<title>Node1&#45;&gt;Node61</title>
<path fill="none" stroke="midnightblue" d="M1231.18,-522.32C1227.17,-468.1 1213.33,-318.25 1181,-283 1101.86,-196.73 954.56,-181.8 878.21,-180.21"/>
<polygon fill="midnightblue" stroke="midnightblue" points="1227.7,-522.63 1231.9,-532.36 1234.68,-522.14 1227.7,-522.63"/>
</g>
<!-- Node72 -->
<g id="node38" class="node">
<title>Node72</title>
<g id="a_node38"><a xlink:href="streamTrace_8cpp.html#a76b1da110b3fe9ef71f509dd07a2e665" target="_top" xlink:title=" ">
<polygon fill="white" stroke="black" points="1088.5,-292.5 1088.5,-311.5 1159.5,-311.5 1159.5,-292.5 1088.5,-292.5"/>
<text text-anchor="middle" x="1124" y="-299.5" font-family="Helvetica,sans-Serif" font-size="10.00">tracematpde</text>
</a>
</g>
</g>
<!-- Node1&#45;&gt;Node72 -->
<g id="edge61" class="edge">
<title>Node1&#45;&gt;Node72</title>
<path fill="none" stroke="midnightblue" d="M1233.35,-522.4C1234.07,-481.11 1230.03,-384.22 1181,-326 1175.41,-319.37 1167.66,-314.52 1159.7,-311"/>
<polygon fill="midnightblue" stroke="midnightblue" points="1229.84,-522.39 1233.05,-532.49 1236.84,-522.6 1229.84,-522.39"/>
</g>
<!-- Node73 -->
<g id="node39" class="node">
<title>Node73</title>
<g id="a_node39"><a xlink:href="algebra__old_8cpp.html#a446a2803e5eaeb996733dd8d73966f00" target="_top" xlink:title=" ">
<polygon fill="white" stroke="black" points="956.5,-494.5 956.5,-513.5 996.5,-513.5 996.5,-494.5 956.5,-494.5"/>
<text text-anchor="middle" x="976.5" y="-501.5" font-family="Helvetica,sans-Serif" font-size="10.00">zeros</text>
</a>
</g>
</g>
<!-- Node1&#45;&gt;Node73 -->
<g id="edge62" class="edge">
<title>Node1&#45;&gt;Node73</title>
<path fill="none" stroke="midnightblue" d="M1207.03,-538.2C1155.92,-530.59 1041.89,-513.6 996.59,-506.84"/>
<polygon fill="midnightblue" stroke="midnightblue" points="1206.53,-541.67 1216.93,-539.68 1207.56,-534.74 1206.53,-541.67"/>
</g>
<!-- Node3 -->
<g id="node3" class="node">
<title>Node3</title>
<g id="a_node3"><a xlink:href="structTestStack.html#a0533dc322a505880c5ed2f4f1b604826" target="_top" xlink:title="Compare matrix against test dataset.">
<polygon fill="white" stroke="black" points="922,-798.5 922,-817.5 1031,-817.5 1031,-798.5 922,-798.5"/>
<text text-anchor="middle" x="976.5" y="-805.5" font-family="Helvetica,sans-Serif" font-size="10.00">TestStack::checkMat</text>
</a>
</g>
</g>
<!-- Node2&#45;&gt;Node3 -->
<g id="edge2" class="edge">
<title>Node2&#45;&gt;Node3</title>
<path fill="none" stroke="midnightblue" d="M1059.16,-808C1049.78,-808 1040.19,-808 1031.04,-808"/>
<polygon fill="midnightblue" stroke="midnightblue" points="1059.23,-811.5 1069.23,-808 1059.23,-804.5 1059.23,-811.5"/>
</g>
<!-- Node4&#45;&gt;Node5 -->
<g id="edge4" class="edge">
<title>Node4&#45;&gt;Node5</title>
<path fill="none" stroke="midnightblue" d="M947,-552.77C938.65,-556.45 929.7,-560.93 922,-566 903.87,-577.93 904.69,-587.97 886,-599 874.41,-605.84 860.03,-610.63 848.67,-613.69"/>
<polygon fill="midnightblue" stroke="midnightblue" points="948.54,-555.92 956.41,-548.83 945.84,-549.46 948.54,-555.92"/>
</g>
<!-- Node6 -->
<g id="node6" class="node">
<title>Node6</title>
<g id="a_node6"><a xlink:href="acsQC_8cpp.html#abb64bdd7fce88139b8029b100b8ab662" target="_top" xlink:title="Single channel detection–identification–adaptation (DIA) for integer cycle slips.">
<polygon fill="white" stroke="red" points="495.5,-722.5 495.5,-741.5 535.5,-741.5 535.5,-722.5 495.5,-722.5"/>
<text text-anchor="middle" x="515.5" y="-729.5" font-family="Helvetica,sans-Serif" font-size="10.00">scdia</text>
</a>
</g>
</g>
<!-- Node5&#45;&gt;Node6 -->
<g id="edge5" class="edge">
<title>Node5&#45;&gt;Node6</title>
<path fill="none" stroke="midnightblue" d="M798.52,-623.07C757.03,-631.1 679.09,-649.1 619,-680 600.97,-689.27 600.75,-698.22 583,-708 567.84,-716.35 549.21,-722.79 535.53,-726.88"/>
<polygon fill="midnightblue" stroke="midnightblue" points="799.31,-626.49 808.49,-621.2 798.02,-619.61 799.31,-626.49"/>
</g>
<!-- Node13&#45;&gt;Node6 -->
<g id="edge7" class="edge">
<title>Node13&#45;&gt;Node6</title>
<path fill="none" stroke="midnightblue" d="M646.58,-732C614.3,-732 563.39,-732 535.81,-732"/>
<polygon fill="midnightblue" stroke="midnightblue" points="646.76,-735.5 656.76,-732 646.76,-728.5 646.76,-735.5"/>
</g>
<!-- Node15&#45;&gt;Node6 -->
<g id="edge28" class="edge">
<title>Node15&#45;&gt;Node6</title>
<path fill="none" stroke="midnightblue" d="M662.08,-559.44C649.77,-575.38 631.82,-599.91 619,-623 599.08,-658.87 612.79,-679.79 583,-708 569.99,-720.32 550.19,-726.4 535.58,-729.34"/>
<polygon fill="midnightblue" stroke="midnightblue" points="664.86,-561.56 668.27,-551.53 659.35,-557.25 664.86,-561.56"/>
</g>
<!-- Node16 -->
<g id="node10" class="node">
<title>Node16</title>
<g id="a_node10"><a xlink:href="namespacem__betainfo.html#a7c2c7a1fff113613caae0cd8f91ca37d" target="_top" xlink:title=" ">
<polygon fill="white" stroke="black" points="155,-579.5 155,-598.5 259,-598.5 259,-579.5 155,-579.5"/>
<text text-anchor="middle" x="207" y="-586.5" font-family="Helvetica,sans-Serif" font-size="10.00">m_betainfo::betainfo</text>
</a>
</g>
</g>
<!-- Node15&#45;&gt;Node16 -->
<g id="edge10" class="edge">
<title>Node15&#45;&gt;Node16</title>
<path fill="none" stroke="midnightblue" d="M647.64,-555.89C629.6,-563.98 605.48,-573.46 583,-578 469.2,-600.99 332.07,-597.3 259.27,-592.93"/>
<polygon fill="midnightblue" stroke="midnightblue" points="649.37,-558.94 656.99,-551.57 646.44,-552.58 649.37,-558.94"/>
</g>
<!-- Node17 -->
<g id="node11" class="node">
<title>Node17</title>
<g id="a_node11"><a xlink:href="force__srp_8f90.html#ac60c56aaaf5a6f7118c763fe46ce8373" target="_top" xlink:title=" ">
<polygon fill="white" stroke="red" points="326.5,-418.5 326.5,-437.5 383.5,-437.5 383.5,-418.5 326.5,-418.5"/>
<text text-anchor="middle" x="355" y="-425.5" font-family="Helvetica,sans-Serif" font-size="10.00">force_srp</text>
</a>
</g>
</g>
<!-- Node15&#45;&gt;Node17 -->
<g id="edge11" class="edge">
<title>Node15&#45;&gt;Node17</title>
<path fill="none" stroke="midnightblue" d="M663.46,-524.06C647.48,-502.81 617.73,-468.23 583,-452 516.76,-421.04 428.09,-422.24 383.73,-425.33"/>
<polygon fill="midnightblue" stroke="midnightblue" points="660.72,-526.25 669.44,-532.26 666.37,-522.12 660.72,-526.25"/>
</g>
<!-- Node18 -->
<g id="node12" class="node">
<title>Node18</title>
<g id="a_node12"><a xlink:href="force__sum_8f95.html#a757e2ccbe362bf3b01a51e2c0431a490" target="_top" xlink:title=" ">
<polygon fill="white" stroke="red" points="176,-418.5 176,-437.5 238,-437.5 238,-418.5 176,-418.5"/>
<text text-anchor="middle" x="207" y="-425.5" font-family="Helvetica,sans-Serif" font-size="10.00">force_sum</text>
</a>
</g>
</g>
<!-- Node15&#45;&gt;Node18 -->
<g id="edge14" class="edge">
<title>Node15&#45;&gt;Node18</title>
<path fill="none" stroke="midnightblue" d="M667.76,-523.09C654.47,-495.17 625.41,-443.77 583,-421 467.98,-359.24 303.1,-398.51 237.02,-418.45"/>
<polygon fill="midnightblue" stroke="midnightblue" points="664.6,-524.58 671.94,-532.22 670.96,-521.67 664.6,-524.58"/>
</g>
<!-- Node27 -->
<g id="node13" class="node">
<title>Node27</title>
<g id="a_node13"><a xlink:href="namespacem__pd__force.html#a942ea044856d62ee03ee7623436bc97e" target="_top" xlink:title=" ">
<polygon fill="white" stroke="red" points="152,-475.5 152,-494.5 262,-494.5 262,-475.5 152,-475.5"/>
<text text-anchor="middle" x="207" y="-482.5" font-family="Helvetica,sans-Serif" font-size="10.00">m_pd_force::pd_force</text>
</a>
</g>
</g>
<!-- Node15&#45;&gt;Node27 -->
<g id="edge27" class="edge">
<title>Node15&#45;&gt;Node27</title>
<path fill="none" stroke="midnightblue" d="M646.43,-528.39C628.45,-520.67 604.82,-511.47 583,-506 471.53,-478.04 335.8,-478.62 262.05,-481.7"/>
<polygon fill="midnightblue" stroke="midnightblue" points="645.23,-531.68 655.79,-532.5 648.04,-525.27 645.23,-531.68"/>
</g>
<!-- Node31 -->
<g id="node14" class="node">
<title>Node31</title>
<g id="a_node14"><a xlink:href="namespacem__get__lambda.html#a4f37f4e3c711690fa001af1c03c09da1" target="_top" xlink:title=" ">
<polygon fill="white" stroke="black" points="448,-532.5 448,-551.5 583,-551.5 583,-532.5 448,-532.5"/>
<text text-anchor="middle" x="515.5" y="-539.5" font-family="Helvetica,sans-Serif" font-size="10.00">m_get_lambda::get_lambda</text>
</a>
</g>
</g>
<!-- Node15&#45;&gt;Node31 -->
<g id="edge15" class="edge">
<title>Node15&#45;&gt;Node31</title>
<path fill="none" stroke="midnightblue" d="M642.69,-542C625.43,-542 603.71,-542 583.19,-542"/>
<polygon fill="midnightblue" stroke="midnightblue" points="642.81,-545.5 652.81,-542 642.81,-538.5 642.81,-545.5"/>
</g>
<!-- Node32 -->
<g id="node15" class="node">
<title>Node32</title>
<g id="a_node15"><a xlink:href="namespacem__shadow.html#a57161869236b6fe30e33523417670ca1" target="_top" xlink:title=" ">
<polygon fill="white" stroke="black" points="304,-551.5 304,-570.5 406,-570.5 406,-551.5 304,-551.5"/>
<text text-anchor="middle" x="355" y="-558.5" font-family="Helvetica,sans-Serif" font-size="10.00">m_shadow::shadow</text>
</a>
</g>
</g>
<!-- Node15&#45;&gt;Node32 -->
<g id="edge29" class="edge">
<title>Node15&#45;&gt;Node32</title>
<path fill="none" stroke="midnightblue" d="M643.06,-550.42C625.38,-554.5 603.15,-558.96 583,-561 522.42,-567.12 452.28,-565.86 406.19,-563.89"/>
<polygon fill="midnightblue" stroke="midnightblue" points="643.97,-553.8 652.89,-548.07 642.35,-546.99 643.97,-553.8"/>
</g>
<!-- Node33 -->
<g id="node16" class="node">
<title>Node33</title>
<g id="a_node16"><a xlink:href="namespacem__orbinfo.html#a7e90574cb9078c6ff14c6104446ee24a" target="_top" xlink:title=" ">
<polygon fill="white" stroke="black" points="160.5,-646.5 160.5,-665.5 253.5,-665.5 253.5,-646.5 160.5,-646.5"/>
<text text-anchor="middle" x="207" y="-653.5" font-family="Helvetica,sans-Serif" font-size="10.00">m_orbinfo::orbinfo</text>
</a>
</g>
</g>
<!-- Node15&#45;&gt;Node33 -->
<g id="edge24" class="edge">
<title>Node15&#45;&gt;Node33</title>
<path fill="none" stroke="midnightblue" d="M655.85,-557.66C637.79,-570.85 610.06,-589.11 583,-599 469.35,-640.53 325.65,-651.81 253.59,-654.87"/>
<polygon fill="midnightblue" stroke="midnightblue" points="657.98,-560.44 663.89,-551.65 653.79,-554.83 657.98,-560.44"/>
</g>
<!-- Node34 -->
<g id="node17" class="node">
<title>Node34</title>
<g id="a_node17"><a xlink:href="namespacem__statorbit2.html#a6ba60e4ad1e25a33b4f2f9607374ea58" target="_top" xlink:title=" ">
<polygon fill="white" stroke="red" points="0,-665.5 0,-684.5 116,-684.5 116,-665.5 0,-665.5"/>
<text text-anchor="middle" x="58" y="-672.5" font-family="Helvetica,sans-Serif" font-size="10.00">m_statorbit2::statorbit2</text>
</a>
</g>
</g>
<!-- Node15&#45;&gt;Node34 -->
<g id="edge31" class="edge">
<title>Node15&#45;&gt;Node34</title>
<path fill="none" stroke="midnightblue" d="M662.71,-559.74C646.34,-580.19 616.56,-613.13 583,-630 428.81,-707.5 216.68,-695.09 116.2,-683.29"/>
<polygon fill="midnightblue" stroke="midnightblue" points="665.68,-561.62 669.06,-551.58 660.15,-557.32 665.68,-561.62"/>
</g>
<!-- Node36 -->
<g id="node18" class="node">
<title>Node36</title>
<g id="a_node18"><a xlink:href="linearCombo_8cpp.html#a41701e6aeffecf451235e8fb75aad602" target="_top" xlink:title="Prepare a base object for linear combinations using observation data.">
<polygon fill="white" stroke="black" points="475.5,-342.5 475.5,-361.5 555.5,-361.5 555.5,-342.5 475.5,-342.5"/>
<text text-anchor="middle" x="515.5" y="-349.5" font-family="Helvetica,sans-Serif" font-size="10.00">lcPrepareBase</text>
</a>
</g>
</g>
<!-- Node15&#45;&gt;Node36 -->
<g id="edge22" class="edge">
<title>Node15&#45;&gt;Node36</title>
<path fill="none" stroke="midnightblue" d="M670.1,-522.41C658.76,-487.99 630.75,-416.48 583,-376 575.14,-369.33 565.27,-364.46 555.57,-360.91"/>
<polygon fill="midnightblue" stroke="midnightblue" points="666.84,-523.71 673.2,-532.19 673.51,-521.6 666.84,-523.71"/>
</g>
<!-- Node39 -->
<g id="node20" class="node">
<title>Node39</title>
<g id="a_node20"><a xlink:href="namespacem__pd__ecom.html#a6566481abfae9e375586538e1de35f42" target="_top" xlink:title=" ">
<polygon fill="white" stroke="black" points="298,-494.5 298,-513.5 412,-513.5 412,-494.5 298,-494.5"/>
<text text-anchor="middle" x="355" y="-501.5" font-family="Helvetica,sans-Serif" font-size="10.00">m_pd_ecom::pd_ecom</text>
</a>
</g>
</g>
<!-- Node15&#45;&gt;Node39 -->
<g id="edge25" class="edge">
<title>Node15&#45;&gt;Node39</title>
<path fill="none" stroke="midnightblue" d="M642.97,-534.26C625.27,-530.37 603.04,-525.88 583,-523 525.06,-514.69 458.25,-509.64 412.18,-506.85"/>
<polygon fill="midnightblue" stroke="midnightblue" points="642.3,-537.7 652.82,-536.47 643.83,-530.87 642.3,-537.7"/>
</g>
<!-- Node40 -->
<g id="node21" class="node">
<title>Node40</title>
<g id="a_node21"><a xlink:href="ppppp__obs_8cpp.html#a3db2ffced7ab37c4874c3a53fcb7953e" target="_top" xlink:title=" ">
<polygon fill="white" stroke="red" points="482.5,-304.5 482.5,-323.5 548.5,-323.5 548.5,-304.5 482.5,-304.5"/>
<text text-anchor="middle" x="515.5" y="-311.5" font-family="Helvetica,sans-Serif" font-size="10.00">stationPPP</text>
</a>
</g>
</g>
<!-- Node15&#45;&gt;Node40 -->
<g id="edge30" class="edge">
<title>Node15&#45;&gt;Node40</title>
<path fill="none" stroke="midnightblue" d="M667.88,-523.19C645.95,-472.45 586.9,-336.39 583,-333 573.48,-324.73 560.58,-320.05 548.68,-317.4"/>
<polygon fill="midnightblue" stroke="midnightblue" points="664.67,-524.59 671.85,-532.39 671.1,-521.82 664.67,-524.59"/>
</g>
<!-- Node17&#45;&gt;Node18 -->
<g id="edge12" class="edge">
<title>Node17&#45;&gt;Node18</title>
<path fill="none" stroke="midnightblue" d="M315.93,-428C291.7,-428 260.76,-428 238.22,-428"/>
<polygon fill="midnightblue" stroke="midnightblue" points="316.19,-431.5 326.19,-428 316.19,-424.5 316.19,-431.5"/>
</g>
<!-- Node17&#45;&gt;Node27 -->
<g id="edge13" class="edge">
<title>Node17&#45;&gt;Node27</title>
<path fill="none" stroke="midnightblue" d="M320.18,-441.2C293.37,-451.67 256.55,-466.05 232.52,-475.43"/>
<polygon fill="midnightblue" stroke="midnightblue" points="321.52,-444.44 329.56,-437.54 318.97,-437.92 321.52,-444.44"/>
</g>
<!-- Node31&#45;&gt;Node32 -->
<g id="edge16" class="edge">
<title>Node31&#45;&gt;Node32</title>
<path fill="none" stroke="midnightblue" d="M437.59,-551.22C426.96,-552.49 416.28,-553.77 406.3,-554.97"/>
<polygon fill="midnightblue" stroke="midnightblue" points="438.23,-554.67 447.74,-550 437.4,-547.72 438.23,-554.67"/>
</g>
<!-- Node32&#45;&gt;Node16 -->
<g id="edge17" class="edge">
<title>Node32&#45;&gt;Node16</title>
<path fill="none" stroke="midnightblue" d="M294.12,-572.48C281.98,-574.81 269.35,-577.23 257.61,-579.49"/>
<polygon fill="midnightblue" stroke="midnightblue" points="295,-575.88 304.16,-570.56 293.68,-569 295,-575.88"/>
</g>
<!-- Node32&#45;&gt;Node18 -->
<g id="edge18" class="edge">
<title>Node32&#45;&gt;Node18</title>
<path fill="none" stroke="midnightblue" d="M327.46,-546.17C317.52,-539.83 306.57,-531.86 298,-523 277.16,-501.47 282.65,-487.71 262,-466 251.25,-454.7 236.69,-444.69 225.39,-437.78"/>
<polygon fill="midnightblue" stroke="midnightblue" points="325.84,-549.28 336.2,-551.5 329.49,-543.31 325.84,-549.28"/>
</g>
<!-- Node32&#45;&gt;Node27 -->
<g id="edge21" class="edge">
<title>Node32&#45;&gt;Node27</title>
<path fill="none" stroke="midnightblue" d="M326.61,-546.74C297.3,-531.48 251.6,-507.7 226.34,-494.55"/>
<polygon fill="midnightblue" stroke="midnightblue" points="325.02,-549.86 335.51,-551.37 328.25,-543.65 325.02,-549.86"/>
</g>
<!-- Node32&#45;&gt;Node33 -->
<g id="edge19" class="edge">
<title>Node32&#45;&gt;Node33</title>
<path fill="none" stroke="midnightblue" d="M330.53,-576.27C300.18,-596.02 248.23,-629.82 222.84,-646.34"/>
<polygon fill="midnightblue" stroke="midnightblue" points="332.72,-579.02 339.2,-570.63 328.91,-573.15 332.72,-579.02"/>
</g>
<!-- Node33&#45;&gt;Node34 -->
<g id="edge20" class="edge">
<title>Node33&#45;&gt;Node34</title>
<path fill="none" stroke="midnightblue" d="M150.23,-663.21C139.06,-664.65 127.3,-666.17 116.09,-667.62"/>
<polygon fill="midnightblue" stroke="midnightblue" points="150.83,-666.66 160.29,-661.91 149.93,-659.72 150.83,-666.66"/>
</g>
<!-- Node37 -->
<g id="node19" class="node">
<title>Node37</title>
<g id="a_node19"><a xlink:href="linearCombo_8cpp.html#aa1b18e5a14543945bb9c7929e8aa4fce" target="_top" xlink:title="Function to prepare some predefined linear combinations from an observation.">
<polygon fill="white" stroke="red" points="332.5,-304.5 332.5,-323.5 377.5,-323.5 377.5,-304.5 332.5,-304.5"/>
<text text-anchor="middle" x="355" y="-311.5" font-family="Helvetica,sans-Serif" font-size="10.00">obs2lc</text>
</a>
</g>
</g>
<!-- Node36&#45;&gt;Node37 -->
<g id="edge23" class="edge">
<title>Node36&#45;&gt;Node37</title>
<path fill="none" stroke="midnightblue" d="M465.24,-340.19C435.89,-333.15 400.11,-324.58 377.69,-319.2"/>
<polygon fill="midnightblue" stroke="midnightblue" points="464.78,-343.68 475.32,-342.61 466.41,-336.87 464.78,-343.68"/>
</g>
<!-- Node39&#45;&gt;Node27 -->
<g id="edge26" class="edge">
<title>Node39&#45;&gt;Node27</title>
<path fill="none" stroke="midnightblue" d="M287.95,-495.4C279.33,-494.28 270.59,-493.14 262.2,-492.05"/>
<polygon fill="midnightblue" stroke="midnightblue" points="287.6,-498.89 297.97,-496.71 288.51,-491.95 287.6,-498.89"/>
</g>
<!-- Node42&#45;&gt;Node15 -->
<g id="edge33" class="edge">
<title>Node42&#45;&gt;Node15</title>
<path fill="none" stroke="midnightblue" d="M951.77,-426.03C912.21,-423.75 831.23,-423.43 771,-452 731.41,-470.78 698.17,-513.17 684.58,-532.3"/>
<polygon fill="midnightblue" stroke="midnightblue" points="951.56,-429.52 961.77,-426.7 952.03,-422.54 951.56,-429.52"/>
</g>
<!-- Node43&#45;&gt;Node44 -->
<g id="edge36" class="edge">
<title>Node43&#45;&gt;Node44</title>
<path fill="none" stroke="midnightblue" d="M1089.63,-694C1062.14,-694 1023.93,-694 999.97,-694"/>
<polygon fill="midnightblue" stroke="midnightblue" points="1089.95,-697.5 1099.95,-694 1089.95,-690.5 1089.95,-697.5"/>
</g>
<!-- Node44&#45;&gt;Node5 -->
<g id="edge38" class="edge">
<title>Node44&#45;&gt;Node5</title>
<path fill="none" stroke="midnightblue" d="M954.35,-678.44C936.73,-666.01 910.63,-648.77 886,-637 873.95,-631.24 859.7,-626.46 848.53,-623.14"/>
<polygon fill="midnightblue" stroke="midnightblue" points="952.57,-681.48 962.74,-684.46 956.65,-675.79 952.57,-681.48"/>
</g>
<!-- Node44&#45;&gt;Node6 -->
<g id="edge39" class="edge">
<title>Node44&#45;&gt;Node6</title>
<path fill="none" stroke="midnightblue" d="M943.25,-694.32C880.56,-695.24 737.98,-698.86 619,-713 589.71,-716.48 556.16,-723.23 535.66,-727.68"/>
<polygon fill="midnightblue" stroke="midnightblue" points="943.35,-697.82 953.3,-694.18 943.26,-690.82 943.35,-697.82"/>
</g>
<!-- Node44&#45;&gt;Node13 -->
<g id="edge37" class="edge">
<title>Node44&#45;&gt;Node13</title>
<path fill="none" stroke="midnightblue" d="M943.47,-699.33C926.43,-702.09 905.1,-705.41 886,-708 816.66,-717.42 733.99,-726.24 697.25,-730.04"/>
<polygon fill="midnightblue" stroke="midnightblue" points="944.16,-702.76 953.47,-697.7 943.03,-695.86 944.16,-702.76"/>
</g>
<!-- Node44&#45;&gt;Node45 -->
<g id="edge40" class="edge">
<title>Node44&#45;&gt;Node45</title>
<path fill="none" stroke="midnightblue" d="M943.27,-685.61C914.28,-678.07 872.65,-667.23 848.62,-660.98"/>
<polygon fill="midnightblue" stroke="midnightblue" points="942.77,-689.1 953.33,-688.23 944.53,-682.32 942.77,-689.1"/>
</g>
<!-- Node45&#45;&gt;Node15 -->
<g id="edge41" class="edge">
<title>Node45&#45;&gt;Node15</title>
<path fill="none" stroke="midnightblue" d="M798.8,-649.22C789.51,-646.29 779.43,-642.29 771,-637 732.87,-613.08 698.87,-570.48 684.83,-551.54"/>
<polygon fill="midnightblue" stroke="midnightblue" points="797.88,-652.59 808.46,-651.99 799.81,-645.87 797.88,-652.59"/>
</g>
<!-- Node48&#45;&gt;Node15 -->
<g id="edge44" class="edge">
<title>Node48&#45;&gt;Node15</title>
<path fill="none" stroke="midnightblue" d="M795.9,-399.91C787.29,-403.51 778.33,-408.17 771,-414 727.37,-448.72 694.45,-508.86 682.7,-532.28"/>
<polygon fill="midnightblue" stroke="midnightblue" points="797.27,-403.13 805.35,-396.29 794.76,-396.59 797.27,-403.13"/>
</g>
<!-- Node49 -->
<g id="node27" class="node">
<title>Node49</title>
<g id="a_node27"><a xlink:href="GNSSambres_8cpp.html#aab3dd27d035c545c6c854a6906616e79" target="_top" xlink:title="Lambda algorithm and its variations (ILQ, Common set, BIE)">
<polygon fill="white" stroke="red" points="635.5,-380.5 635.5,-399.5 718.5,-399.5 718.5,-380.5 635.5,-380.5"/>
<text text-anchor="middle" x="677" y="-387.5" font-family="Helvetica,sans-Serif" font-size="10.00">lambda_search</text>
</a>
</g>
</g>
<!-- Node48&#45;&gt;Node49 -->
<g id="edge45" class="edge">
<title>Node48&#45;&gt;Node49</title>
<path fill="none" stroke="midnightblue" d="M795.42,-390C773.01,-390 742.9,-390 718.78,-390"/>
<polygon fill="midnightblue" stroke="midnightblue" points="795.44,-393.5 805.44,-390 795.44,-386.5 795.44,-393.5"/>
</g>
<!-- Node61&#45;&gt;Node37 -->
<g id="edge49" class="edge">
<title>Node61&#45;&gt;Node37</title>
<path fill="none" stroke="midnightblue" d="M812.33,-198.16C795.4,-216.08 766.25,-243.43 735,-257 616.98,-308.25 574.86,-273.53 448,-295 423.88,-299.08 396.44,-304.9 377.85,-309.02"/>
<polygon fill="midnightblue" stroke="midnightblue" points="815.02,-200.41 819.21,-190.68 809.87,-195.67 815.02,-200.41"/>
</g>
<!-- Node62 -->
<g id="node30" class="node">
<title>Node62</title>
<g id="a_node30"><a xlink:href="ppp__user_8cpp.html#a6840432dd58d1e58178b15080b92bdd8" target="_top" xlink:title=" ">
<polygon fill="white" stroke="red" points="487.5,-57.5 487.5,-76.5 543.5,-76.5 543.5,-57.5 487.5,-57.5"/>
<text text-anchor="middle" x="515.5" y="-64.5" font-family="Helvetica,sans-Serif" font-size="10.00">ppp_filter</text>
</a>
</g>
</g>
<!-- Node61&#45;&gt;Node62 -->
<g id="edge50" class="edge">
<title>Node61&#45;&gt;Node62</title>
<path fill="none" stroke="midnightblue" d="M802.77,-166.17C784.5,-155.65 758.78,-141.72 735,-132 668.14,-104.66 585.57,-83.27 543.66,-73.24"/>
<polygon fill="midnightblue" stroke="midnightblue" points="801.19,-169.3 811.59,-171.32 804.72,-163.26 801.19,-169.3"/>
</g>
<!-- Node64 -->
<g id="node31" class="node">
<title>Node64</title>
<g id="a_node31"><a xlink:href="ppp_8cpp.html#ae6ff673a04fff8b0f78b4d1b111a2a42" target="_top" xlink:title=" ">
<polygon fill="white" stroke="black" points="636,-38.5 636,-57.5 718,-57.5 718,-38.5 636,-38.5"/>
<text text-anchor="middle" x="677" y="-45.5" font-family="Helvetica,sans-Serif" font-size="10.00">pppCorrections</text>
</a>
</g>
</g>
<!-- Node61&#45;&gt;Node64 -->
<g id="edge51" class="edge">
<title>Node61&#45;&gt;Node64</title>
<path fill="none" stroke="midnightblue" d="M816.04,-162.8C800.32,-139.09 769.98,-97.66 735,-72 726.95,-66.09 717.22,-61.31 708.1,-57.62"/>
<polygon fill="midnightblue" stroke="midnightblue" points="813.13,-164.74 821.51,-171.23 819,-160.93 813.13,-164.74"/>
</g>
<!-- Node65 -->
<g id="node32" class="node">
<title>Node65</title>
<g id="a_node32"><a xlink:href="ppp__network_8cpp.html#a8841c4de50d731334b0aa349d64a2985" target="_top" xlink:title=" ">
<polygon fill="white" stroke="red" points="652.5,-0.5 652.5,-19.5 701.5,-19.5 701.5,-0.5 652.5,-0.5"/>
<text text-anchor="middle" x="677" y="-7.5" font-family="Helvetica,sans-Serif" font-size="10.00">resomc</text>
</a>
</g>
</g>
<!-- Node61&#45;&gt;Node65 -->
<g id="edge53" class="edge">
<title>Node61&#45;&gt;Node65</title>
<path fill="none" stroke="midnightblue" d="M820.78,-161.61C808.67,-129.43 780.14,-64.98 735,-29 725.46,-21.39 712.73,-16.77 701.72,-13.99"/>
<polygon fill="midnightblue" stroke="midnightblue" points="817.56,-162.99 824.26,-171.2 824.14,-160.6 817.56,-162.99"/>
</g>
<!-- Node67 -->
<g id="node33" class="node">
<title>Node67</title>
<g id="a_node33"><a xlink:href="ephemeris_8cpp.html#a24cd8a842f9d8dbf3b035cfcd61862a0" target="_top" xlink:title="satellite positions and clocks.">
<polygon fill="white" stroke="red" points="651.5,-304.5 651.5,-323.5 702.5,-323.5 702.5,-304.5 651.5,-304.5"/>
<text text-anchor="middle" x="677" y="-311.5" font-family="Helvetica,sans-Serif" font-size="10.00">satposs</text>
</a>
</g>
</g>
<!-- Node61&#45;&gt;Node67 -->
<g id="edge54" class="edge">
<title>Node61&#45;&gt;Node67</title>
<path fill="none" stroke="midnightblue" d="M816.04,-199.2C800.32,-222.91 769.98,-264.34 735,-290 725.3,-297.11 713.18,-302.59 702.61,-306.51"/>
<polygon fill="midnightblue" stroke="midnightblue" points="819,-201.07 821.51,-190.77 813.13,-197.26 819,-201.07"/>
</g>
<!-- Node68 -->
<g id="node34" class="node">
<title>Node68</title>
<g id="a_node34"><a xlink:href="spp_8cpp.html#a80e3d976b8371ffec2003e91fbd86282" target="_top" xlink:title="Compute receiver position, velocity, clock bias by single&#45;point positioning with pseudorange observab...">
<polygon fill="white" stroke="red" points="494,-171.5 494,-190.5 537,-190.5 537,-171.5 494,-171.5"/>
<text text-anchor="middle" x="515.5" y="-178.5" font-family="Helvetica,sans-Serif" font-size="10.00">sppos</text>
</a>
</g>
</g>
<!-- Node61&#45;&gt;Node68 -->
<g id="edge57" class="edge">
<title>Node61&#45;&gt;Node68</title>
<path fill="none" stroke="midnightblue" d="M800.79,-166.76C782.77,-157.99 758.14,-147.57 735,-143 684.42,-133.02 669.75,-133.9 619,-143 588.92,-148.4 556.14,-162.03 535.94,-171.41"/>
<polygon fill="midnightblue" stroke="midnightblue" points="799.56,-170.06 810.07,-171.42 802.7,-163.81 799.56,-170.06"/>
</g>
<!-- Node69 -->
<g id="node35" class="node">
<title>Node69</title>
<g id="a_node35"><a xlink:href="structTestStack.html#a7205c118b2d8cc6191b710f34c087637" target="_top" xlink:title=" ">
<polygon fill="white" stroke="black" points="630,-228.5 630,-247.5 724,-247.5 724,-228.5 630,-228.5"/>
<text text-anchor="middle" x="677" y="-235.5" font-family="Helvetica,sans-Serif" font-size="10.00">TestStack::testInt</text>
</a>
</g>
</g>
<!-- Node61&#45;&gt;Node69 -->
<g id="edge58" class="edge">
<title>Node61&#45;&gt;Node69</title>
<path fill="none" stroke="midnightblue" d="M795.91,-194.6C778.13,-202.1 755.46,-211.4 735,-219 726.3,-222.23 716.76,-225.52 708.01,-228.42"/>
<polygon fill="midnightblue" stroke="midnightblue" points="797.4,-197.77 805.24,-190.64 794.67,-191.33 797.4,-197.77"/>
</g>
<!-- Node70 -->
<g id="node36" class="node">
<title>Node70</title>
<g id="a_node36"><a xlink:href="structTestStack.html#a906f042ce1a756aed472af023c2d4f81" target="_top" xlink:title="Compare matrix against test dataset.">
<polygon fill="white" stroke="black" points="627.5,-190.5 627.5,-209.5 726.5,-209.5 726.5,-190.5 627.5,-190.5"/>
<text text-anchor="middle" x="677" y="-197.5" font-family="Helvetica,sans-Serif" font-size="10.00">TestStack::testMat</text>
</a>
</g>
</g>
<!-- Node61&#45;&gt;Node70 -->
<g id="edge59" class="edge">
<title>Node61&#45;&gt;Node70</title>
<path fill="none" stroke="midnightblue" d="M768.92,-188.45C754.89,-190.23 740.07,-192.11 726.55,-193.83"/>
<polygon fill="midnightblue" stroke="midnightblue" points="769.48,-191.9 778.96,-187.17 768.6,-184.96 769.48,-191.9"/>
</g>
<!-- Node71 -->
<g id="node37" class="node">
<title>Node71</title>
<g id="a_node37"><a xlink:href="ionoModel_8cpp.html#ab85ac3f246b5ef9cc88aa9f195c441a3" target="_top" xlink:title=" ">
<polygon fill="white" stroke="red" points="619,-152.5 619,-171.5 735,-171.5 735,-152.5 619,-152.5"/>
<text text-anchor="middle" x="677" y="-159.5" font-family="Helvetica,sans-Serif" font-size="10.00">update_ionosph_model</text>
</a>
</g>
</g>
<!-- Node61&#45;&gt;Node71 -->
<g id="edge60" class="edge">
<title>Node61&#45;&gt;Node71</title>
<path fill="none" stroke="midnightblue" d="M768.93,-173.56C757.82,-172.14 746.21,-170.67 735.14,-169.26"/>
<polygon fill="midnightblue" stroke="midnightblue" points="768.6,-177.04 778.96,-174.83 769.48,-170.1 768.6,-177.04"/>
</g>
<!-- Node64&#45;&gt;Node62 -->
<g id="edge52" class="edge">
<title>Node64&#45;&gt;Node62</title>
<path fill="none" stroke="midnightblue" d="M625.64,-54C598.52,-57.23 566.11,-61.09 543.69,-63.76"/>
<polygon fill="midnightblue" stroke="midnightblue" points="626.24,-57.45 635.75,-52.79 625.41,-50.5 626.24,-57.45"/>
</g>
<!-- Node67&#45;&gt;Node40 -->
<g id="edge56" class="edge">
<title>Node67&#45;&gt;Node40</title>
<path fill="none" stroke="midnightblue" d="M641.42,-314C613.82,-314 575.45,-314 548.54,-314"/>
<polygon fill="midnightblue" stroke="midnightblue" points="641.43,-317.5 651.43,-314 641.43,-310.5 641.43,-317.5"/>
</g>
<!-- Node67&#45;&gt;Node68 -->
<g id="edge55" class="edge">
<title>Node67&#45;&gt;Node68</title>
<path fill="none" stroke="midnightblue" d="M656.83,-298.02C623.45,-270.18 555.62,-213.62 528.3,-190.84"/>
<polygon fill="midnightblue" stroke="midnightblue" points="654.61,-300.72 664.53,-304.43 659.09,-295.34 654.61,-300.72"/>
</g>
<!-- Node73&#45;&gt;Node5 -->
<g id="edge67" class="edge">
<title>Node73&#45;&gt;Node5</title>
<path fill="none" stroke="midnightblue" d="M946.44,-509.78C937.81,-512.63 928.83,-516.83 922,-523 894.27,-548.06 913.94,-574.18 886,-599 875.63,-608.21 860.64,-612.98 848.7,-615.44"/>
<polygon fill="midnightblue" stroke="midnightblue" points="947.6,-513.1 956.29,-507.03 945.71,-506.36 947.6,-513.1"/>
</g>
<!-- Node73&#45;&gt;Node15 -->
<g id="edge66" class="edge">
<title>Node73&#45;&gt;Node15</title>
<path fill="none" stroke="midnightblue" d="M946.31,-511.11C928.89,-515.12 906.29,-519.93 886,-523 819.31,-533.09 739.73,-538.55 701.19,-540.78"/>
<polygon fill="midnightblue" stroke="midnightblue" points="947.48,-514.43 956.42,-508.74 945.88,-507.61 947.48,-514.43"/>
</g>
<!-- Node73&#45;&gt;Node48 -->
<g id="edge68" class="edge">
<title>Node73&#45;&gt;Node48</title>
<path fill="none" stroke="midnightblue" d="M955.03,-488.02C924.3,-464.02 867.16,-419.4 841.97,-399.74"/>
<polygon fill="midnightblue" stroke="midnightblue" points="953.27,-491.08 963.3,-494.48 957.58,-485.56 953.27,-491.08"/>
</g>
<!-- Node74 -->
<g id="node40" class="node">
<title>Node74</title>
<g id="a_node40"><a xlink:href="algebra__old_8cpp.html#adfe9cb36e0f4af6b1ca11bdfbe66e55c" target="_top" xlink:title=" ">
<polygon fill="white" stroke="black" points="812.5,-570.5 812.5,-589.5 844.5,-589.5 844.5,-570.5 812.5,-570.5"/>
<text text-anchor="middle" x="828.5" y="-577.5" font-family="Helvetica,sans-Serif" font-size="10.00">eye</text>
</a>
</g>
</g>
<!-- Node73&#45;&gt;Node74 -->
<g id="edge63" class="edge">
<title>Node73&#45;&gt;Node74</title>
<path fill="none" stroke="midnightblue" d="M946.66,-511.88C938.39,-514.76 929.57,-518.45 922,-523 903.4,-534.19 904.25,-544.25 886,-556 872.92,-564.42 856.38,-571.04 844.58,-575.18"/>
<polygon fill="midnightblue" stroke="midnightblue" points="947.9,-515.16 956.36,-508.77 945.76,-508.49 947.9,-515.16"/>
</g>
<!-- Node75 -->
<g id="node41" class="node">
<title>Node75</title>
<g id="a_node41"><a xlink:href="sinex_8cpp.html#a1a490e4f0aad264f47485c1c4ddd4819" target="_top" xlink:title=" ">
<polygon fill="white" stroke="red" points="771,-494.5 771,-513.5 886,-513.5 886,-494.5 771,-494.5"/>
<text text-anchor="middle" x="828.5" y="-501.5" font-family="Helvetica,sans-Serif" font-size="10.00">setRestrictiveEndTime</text>
</a>
</g>
</g>
<!-- Node73&#45;&gt;Node75 -->
<g id="edge69" class="edge">
<title>Node73&#45;&gt;Node75</title>
<path fill="none" stroke="midnightblue" d="M946.41,-504C929.16,-504 906.7,-504 886.09,-504"/>
<polygon fill="midnightblue" stroke="midnightblue" points="946.41,-507.5 956.41,-504 946.41,-500.5 946.41,-507.5"/>
</g>
<!-- Node74&#45;&gt;Node13 -->
<g id="edge64" class="edge">
<title>Node74&#45;&gt;Node13</title>
<path fill="none" stroke="midnightblue" d="M802.51,-584.76C792.04,-587.63 780.2,-592.12 771,-599 724.76,-633.61 692.94,-698.08 682.1,-722.39"/>
<polygon fill="midnightblue" stroke="midnightblue" points="803.46,-588.13 812.36,-582.39 801.82,-581.32 803.46,-588.13"/>
</g>
<!-- Node74&#45;&gt;Node15 -->
<g id="edge65" class="edge">
<title>Node74&#45;&gt;Node15</title>
<path fill="none" stroke="midnightblue" d="M802.44,-573.63C774.21,-566.46 728.7,-554.89 701.24,-547.91"/>
<polygon fill="midnightblue" stroke="midnightblue" points="801.79,-577.08 812.34,-576.15 803.51,-570.29 801.79,-577.08"/>
</g>
</g>
</svg>
