<?xml version="1.0" encoding="UTF-8" standalone="no"?>
<!DOCTYPE svg PUBLIC "-//W3C//DTD SVG 1.1//EN"
 "http://www.w3.org/Graphics/SVG/1.1/DTD/svg11.dtd">
<!-- Generated by graphviz version 2.50.0 (20220203.2022)
 -->
<!-- Title: mergeFilters Pages: 1 -->
<svg width="400pt" height="66pt"
 viewBox="0.00 0.00 400.00 66.00" xmlns="http://www.w3.org/2000/svg" xmlns:xlink="http://www.w3.org/1999/xlink">
<g id="graph0" class="graph" transform="scale(1 1) rotate(0) translate(4 62)">
<title>mergeFilters</title>
<polygon fill="white" stroke="transparent" points="-4,4 -4,-62 396,-62 396,4 -4,4"/>
<!-- Node1 -->
<g id="node1" class="node">
<title>Node1</title>
<g id="a_node1"><a xlink:title=" ">
<polygon fill="#bfbfbf" stroke="black" points="321,-19.5 321,-38.5 392,-38.5 392,-19.5 321,-19.5"/>
<text text-anchor="middle" x="356.5" y="-26.5" font-family="Helvetica,sans-Serif" font-size="10.00">mergeFilters</text>
</a>
</g>
</g>
<!-- Node2 -->
<g id="node2" class="node">
<title>Node2</title>
<g id="a_node2"><a xlink:href="tropSinex_8cpp.html#a8e80887facc71dc237f9d45741a16122" target="_top" xlink:title="Set site coordinates from filter.">
<polygon fill="white" stroke="black" points="143,-38.5 143,-57.5 285,-57.5 285,-38.5 143,-38.5"/>
<text text-anchor="middle" x="214" y="-45.5" font-family="Helvetica,sans-Serif" font-size="10.00">setTropSiteCoordsFromFilter</text>
</a>
</g>
</g>
<!-- Node1&#45;&gt;Node2 -->
<g id="edge1" class="edge">
<title>Node1&#45;&gt;Node2</title>
<path fill="none" stroke="midnightblue" d="M310.7,-35.06C302.5,-36.17 293.76,-37.35 285.02,-38.53"/>
<polygon fill="midnightblue" stroke="midnightblue" points="311.33,-38.51 320.77,-33.7 310.39,-31.57 311.33,-38.51"/>
</g>
<!-- Node11 -->
<g id="node4" class="node">
<title>Node11</title>
<g id="a_node4"><a xlink:href="pea__snx_8cpp.html#aa7e3332fc8c5c18f3e9cd8aece87c36c" target="_top" xlink:title=" ">
<polygon fill="white" stroke="black" points="160,-0.5 160,-19.5 268,-19.5 268,-0.5 160,-0.5"/>
<text text-anchor="middle" x="214" y="-7.5" font-family="Helvetica,sans-Serif" font-size="10.00">sinexPostProcessing</text>
</a>
</g>
</g>
<!-- Node1&#45;&gt;Node11 -->
<g id="edge3" class="edge">
<title>Node1&#45;&gt;Node11</title>
<path fill="none" stroke="midnightblue" d="M310.75,-22.95C297.22,-21.12 282.23,-19.09 268.21,-17.2"/>
<polygon fill="midnightblue" stroke="midnightblue" points="310.39,-26.43 320.77,-24.3 311.33,-19.49 310.39,-26.43"/>
</g>
<!-- Node3 -->
<g id="node3" class="node">
<title>Node3</title>
<g id="a_node3"><a xlink:href="tropSinex_8cpp.html#a69a4f80dc077e096360a1451c0d28e39" target="_top" xlink:title="Export troposphere Sinex data.">
<polygon fill="white" stroke="red" points="10,-38.5 10,-57.5 97,-57.5 97,-38.5 10,-38.5"/>
<text text-anchor="middle" x="53.5" y="-45.5" font-family="Helvetica,sans-Serif" font-size="10.00">outputTropSinex</text>
</a>
</g>
</g>
<!-- Node2&#45;&gt;Node3 -->
<g id="edge2" class="edge">
<title>Node2&#45;&gt;Node3</title>
<path fill="none" stroke="midnightblue" d="M132.42,-48C120.35,-48 108.31,-48 97.43,-48"/>
<polygon fill="midnightblue" stroke="midnightblue" points="132.56,-51.5 142.56,-48 132.56,-44.5 132.56,-51.5"/>
</g>
<!-- Node10 -->
<g id="node5" class="node">
<title>Node10</title>
<g id="a_node5"><a xlink:href="main_8cpp.html#a93c49123b4afe8e199430439fd682acd" target="_top" xlink:title=" ">
<polygon fill="white" stroke="black" points="0,-0.5 0,-19.5 107,-19.5 107,-0.5 0,-0.5"/>
<text text-anchor="middle" x="53.5" y="-7.5" font-family="Helvetica,sans-Serif" font-size="10.00">mainPostProcessing</text>
</a>
</g>
</g>
<!-- Node11&#45;&gt;Node10 -->
<g id="edge4" class="edge">
<title>Node11&#45;&gt;Node10</title>
<path fill="none" stroke="midnightblue" d="M149.64,-10C135.51,-10 120.68,-10 107.04,-10"/>
<polygon fill="midnightblue" stroke="midnightblue" points="149.78,-13.5 159.78,-10 149.78,-6.5 149.78,-13.5"/>
</g>
</g>
</svg>
