<?xml version="1.0" encoding="UTF-8" standalone="no"?>
<!DOCTYPE svg PUBLIC "-//W3C//DTD SVG 1.1//EN"
 "http://www.w3.org/Graphics/SVG/1.1/DTD/svg11.dtd">
<!-- Generated by graphviz version 2.50.0 (20220203.2022)
 -->
<!-- Title: satantoff Pages: 1 -->
<svg width="386pt" height="155pt"
 viewBox="0.00 0.00 386.00 154.93" xmlns="http://www.w3.org/2000/svg" xmlns:xlink="http://www.w3.org/1999/xlink">
<g id="graph0" class="graph" transform="scale(1 1) rotate(0) translate(4 150.93)">
<title>satantoff</title>
<polygon fill="white" stroke="transparent" points="-4,4 -4,-150.93 382,-150.93 382,4 -4,4"/>
<!-- Node1 -->
<g id="node1" class="node">
<title>Node1</title>
<g id="a_node1"><a xlink:title=" ">
<polygon fill="#bfbfbf" stroke="black" points="324,-13.43 324,-32.43 378,-32.43 378,-13.43 324,-13.43"/>
<text text-anchor="middle" x="351" y="-20.43" font-family="Helvetica,sans-Serif" font-size="10.00">satantoff</text>
</a>
</g>
</g>
<!-- Node2 -->
<g id="node2" class="node">
<title>Node2</title>
<g id="a_node2"><a xlink:href="ephemeris_8cpp.html#a8d3c308314354139cf1e890cdf6bead2" target="_top" xlink:title=" ">
<polygon fill="white" stroke="black" points="242,-51.43 242,-70.43 288,-70.43 288,-51.43 242,-51.43"/>
<text text-anchor="middle" x="265" y="-58.43" font-family="Helvetica,sans-Serif" font-size="10.00">satpos</text>
</a>
</g>
</g>
<!-- Node1&#45;&gt;Node2 -->
<g id="edge1" class="edge">
<title>Node1&#45;&gt;Node2</title>
<path fill="none" stroke="midnightblue" d="M319.38,-36.79C308.69,-41.62 296.94,-46.94 287.19,-51.35"/>
<polygon fill="midnightblue" stroke="midnightblue" points="321.13,-39.83 328.8,-32.52 318.25,-33.45 321.13,-39.83"/>
</g>
<!-- Node17 -->
<g id="node6" class="node">
<title>Node17</title>
<g id="a_node6"><a xlink:href="ppppp__obs_8cpp.html#a3db2ffced7ab37c4874c3a53fcb7953e" target="_top" xlink:title=" ">
<polygon fill="white" stroke="red" points="0,-13.43 0,-32.43 66,-32.43 66,-13.43 0,-13.43"/>
<text text-anchor="middle" x="33" y="-20.43" font-family="Helvetica,sans-Serif" font-size="10.00">stationPPP</text>
</a>
</g>
</g>
<!-- Node1&#45;&gt;Node17 -->
<g id="edge7" class="edge">
<title>Node1&#45;&gt;Node17</title>
<path fill="none" stroke="midnightblue" d="M313.84,-15.37C265.42,-6.34 176.93,6.34 102,-3.93 88.4,-5.8 73.68,-9.67 61.43,-13.43"/>
<polygon fill="midnightblue" stroke="midnightblue" points="313.35,-18.84 323.83,-17.29 314.67,-11.96 313.35,-18.84"/>
</g>
<!-- Node3 -->
<g id="node3" class="node">
<title>Node3</title>
<g id="a_node3"><a xlink:href="rinexClkWrite_8cpp.html#a3f6744a347b111bb423bd32d27947654" target="_top" xlink:title=" ">
<polygon fill="white" stroke="red" points="102,-127.43 102,-146.43 206,-146.43 206,-127.43 102,-127.43"/>
<text text-anchor="middle" x="154" y="-134.43" font-family="Helvetica,sans-Serif" font-size="10.00">getSatClksFromEph</text>
</a>
</g>
</g>
<!-- Node2&#45;&gt;Node3 -->
<g id="edge2" class="edge">
<title>Node2&#45;&gt;Node3</title>
<path fill="none" stroke="midnightblue" d="M249.66,-78.54C238.77,-90.95 222.84,-107.22 206,-117.93 200.18,-121.63 193.53,-124.77 187,-127.36"/>
<polygon fill="midnightblue" stroke="midnightblue" points="252.53,-80.56 256.34,-70.67 247.2,-76.03 252.53,-80.56"/>
</g>
<!-- Node12 -->
<g id="node4" class="node">
<title>Node12</title>
<g id="a_node4"><a xlink:href="mongoWrite_8cpp.html#ac5399222f483050332a2571ebcbc5ba1" target="_top" xlink:title=" ">
<polygon fill="white" stroke="red" points="108,-89.43 108,-108.43 200,-108.43 200,-89.43 108,-89.43"/>
<text text-anchor="middle" x="154" y="-96.43" font-family="Helvetica,sans-Serif" font-size="10.00">prepareSsrStates</text>
</a>
</g>
</g>
<!-- Node2&#45;&gt;Node12 -->
<g id="edge3" class="edge">
<title>Node2&#45;&gt;Node12</title>
<path fill="none" stroke="midnightblue" d="M232.1,-72.05C216.35,-77.54 197.54,-84.1 182.44,-89.36"/>
<polygon fill="midnightblue" stroke="midnightblue" points="233.65,-75.22 241.94,-68.62 231.35,-68.61 233.65,-75.22"/>
</g>
<!-- Node13 -->
<g id="node5" class="node">
<title>Node13</title>
<g id="a_node5"><a xlink:href="ephemeris_8cpp.html#a24cd8a842f9d8dbf3b035cfcd61862a0" target="_top" xlink:title="satellite positions and clocks.">
<polygon fill="white" stroke="red" points="128.5,-51.43 128.5,-70.43 179.5,-70.43 179.5,-51.43 128.5,-51.43"/>
<text text-anchor="middle" x="154" y="-58.43" font-family="Helvetica,sans-Serif" font-size="10.00">satposs</text>
</a>
</g>
</g>
<!-- Node2&#45;&gt;Node13 -->
<g id="edge4" class="edge">
<title>Node2&#45;&gt;Node13</title>
<path fill="none" stroke="midnightblue" d="M231.58,-60.93C214.96,-60.93 195.04,-60.93 179.69,-60.93"/>
<polygon fill="midnightblue" stroke="midnightblue" points="231.94,-64.43 241.94,-60.93 231.94,-57.43 231.94,-64.43"/>
</g>
<!-- Node19 -->
<g id="node7" class="node">
<title>Node19</title>
<g id="a_node7"><a xlink:href="sp3Write_8cpp.html#a53c4eda35c9ccdfe9aa683fb0272c8c0" target="_top" xlink:title=" ">
<polygon fill="white" stroke="red" points="111,-13.43 111,-32.43 197,-32.43 197,-13.43 111,-13.43"/>
<text text-anchor="middle" x="154" y="-20.43" font-family="Helvetica,sans-Serif" font-size="10.00">writeSysSetSp3</text>
</a>
</g>
</g>
<!-- Node2&#45;&gt;Node19 -->
<g id="edge6" class="edge">
<title>Node2&#45;&gt;Node19</title>
<path fill="none" stroke="midnightblue" d="M232.1,-49.81C216.35,-44.32 197.54,-37.76 182.44,-32.5"/>
<polygon fill="midnightblue" stroke="midnightblue" points="231.35,-53.25 241.94,-53.24 233.65,-46.64 231.35,-53.25"/>
</g>
<!-- Node13&#45;&gt;Node17 -->
<g id="edge5" class="edge">
<title>Node13&#45;&gt;Node17</title>
<path fill="none" stroke="midnightblue" d="M118.65,-49.96C101.41,-44.46 80.72,-37.85 64.11,-32.55"/>
<polygon fill="midnightblue" stroke="midnightblue" points="117.75,-53.35 128.34,-53.06 119.88,-46.68 117.75,-53.35"/>
</g>
</g>
</svg>
