<?xml version="1.0" encoding="UTF-8" standalone="no"?>
<!DOCTYPE svg PUBLIC "-//W3C//DTD SVG 1.1//EN"
 "http://www.w3.org/Graphics/SVG/1.1/DTD/svg11.dtd">
<!-- Generated by graphviz version 2.50.0 (20220203.2022)
 -->
<!-- Title: arctan Pages: 1 -->
<svg width="316pt" height="721pt"
 viewBox="0.00 0.00 316.00 721.00" xmlns="http://www.w3.org/2000/svg" xmlns:xlink="http://www.w3.org/1999/xlink">
<g id="graph0" class="graph" transform="scale(1 1) rotate(0) translate(4 717)">
<title>arctan</title>
<polygon fill="white" stroke="transparent" points="-4,4 -4,-717 312,-717 312,4 -4,4"/>
<!-- Node1 -->
<g id="node1" class="node">
<title>Node1</title>
<g id="a_node1"><a xlink:title=" ">
<polygon fill="#bfbfbf" stroke="black" points="264,-369.5 264,-388.5 308,-388.5 308,-369.5 264,-369.5"/>
<text text-anchor="middle" x="286" y="-376.5" font-family="Helvetica,sans-Serif" font-size="10.00">arctan</text>
</a>
</g>
</g>
<!-- Node2 -->
<g id="node2" class="node">
<title>Node2</title>
<g id="a_node2"><a xlink:href="coord__r2sph_8f90.html#a434fdfd324d259f287bff1473e7d95b1" target="_top" xlink:title=" ">
<polygon fill="white" stroke="black" points="158,-548.5 158,-567.5 228,-567.5 228,-548.5 158,-548.5"/>
<text text-anchor="middle" x="193" y="-555.5" font-family="Helvetica,sans-Serif" font-size="10.00">coord_r2sph</text>
</a>
</g>
</g>
<!-- Node1&#45;&gt;Node2 -->
<g id="edge1" class="edge">
<title>Node1&#45;&gt;Node2</title>
<path fill="none" stroke="midnightblue" d="M275.57,-397.54C256.4,-435.25 213.45,-519.74 198.92,-548.33"/>
<polygon fill="midnightblue" stroke="midnightblue" points="278.7,-399.12 280.11,-388.62 272.46,-395.95 278.7,-399.12"/>
</g>
<!-- Node34 -->
<g id="node10" class="node">
<title>Node34</title>
<g id="a_node10"><a xlink:href="kepler__z2k_8f90.html#aaece6d2b7d204b571232ad144687f646" target="_top" xlink:title=" ">
<polygon fill="white" stroke="black" points="161.5,-233.5 161.5,-252.5 224.5,-252.5 224.5,-233.5 161.5,-233.5"/>
<text text-anchor="middle" x="193" y="-240.5" font-family="Helvetica,sans-Serif" font-size="10.00">kepler_z2k</text>
</a>
</g>
</g>
<!-- Node1&#45;&gt;Node34 -->
<g id="edge9" class="edge">
<title>Node1&#45;&gt;Node34</title>
<path fill="none" stroke="midnightblue" d="M272.8,-360.76C253.25,-331.55 215.58,-275.25 200.49,-252.69"/>
<polygon fill="midnightblue" stroke="midnightblue" points="269.99,-362.85 278.46,-369.22 275.8,-358.96 269.99,-362.85"/>
</g>
<!-- Node3 -->
<g id="node3" class="node">
<title>Node3</title>
<g id="a_node3"><a xlink:href="ENU_8f90.html#a7002bfac4c009044281b6b5ea21b6e9a" target="_top" xlink:title=" ">
<polygon fill="white" stroke="red" points="45,-693.5 45,-712.5 77,-712.5 77,-693.5 45,-693.5"/>
<text text-anchor="middle" x="61" y="-700.5" font-family="Helvetica,sans-Serif" font-size="10.00">enu</text>
</a>
</g>
</g>
<!-- Node2&#45;&gt;Node3 -->
<g id="edge2" class="edge">
<title>Node2&#45;&gt;Node3</title>
<path fill="none" stroke="midnightblue" d="M186.26,-577.55C177.14,-605.23 156.72,-655.62 122,-684 109.06,-694.58 90.15,-699.3 77.04,-701.39"/>
<polygon fill="midnightblue" stroke="midnightblue" points="189.65,-578.42 189.3,-567.83 182.97,-576.33 189.65,-578.42"/>
</g>
<!-- Node15 -->
<g id="node4" class="node">
<title>Node15</title>
<g id="a_node4"><a xlink:href="namespacem__force__gfm.html#a7263ff18587f370ef5a8833d0b672984" target="_top" xlink:title=" ">
<polygon fill="white" stroke="red" points="0,-655.5 0,-674.5 122,-674.5 122,-655.5 0,-655.5"/>
<text text-anchor="middle" x="61" y="-662.5" font-family="Helvetica,sans-Serif" font-size="10.00">m_force_gfm::force_gfm</text>
</a>
</g>
</g>
<!-- Node2&#45;&gt;Node15 -->
<g id="edge3" class="edge">
<title>Node2&#45;&gt;Node15</title>
<path fill="none" stroke="midnightblue" d="M181.81,-576.53C169.94,-596.46 148.53,-627.74 122,-646 116.42,-649.84 110.02,-652.94 103.53,-655.42"/>
<polygon fill="midnightblue" stroke="midnightblue" points="184.9,-578.18 186.85,-567.77 178.83,-574.69 184.9,-578.18"/>
</g>
<!-- Node26 -->
<g id="node5" class="node">
<title>Node26</title>
<g id="a_node5"><a xlink:href="force__gm_8f90.html#a3408d58bb93ee86baa1fcb19b5be18a2" target="_top" xlink:title=" ">
<polygon fill="white" stroke="red" points="32.5,-617.5 32.5,-636.5 89.5,-636.5 89.5,-617.5 32.5,-617.5"/>
<text text-anchor="middle" x="61" y="-624.5" font-family="Helvetica,sans-Serif" font-size="10.00">force_gm</text>
</a>
</g>
</g>
<!-- Node2&#45;&gt;Node26 -->
<g id="edge4" class="edge">
<title>Node2&#45;&gt;Node26</title>
<path fill="none" stroke="midnightblue" d="M172.79,-574.25C159.29,-585.01 140.41,-598.8 122,-608 111.84,-613.08 100.03,-617.17 89.59,-620.23"/>
<polygon fill="midnightblue" stroke="midnightblue" points="175.29,-576.72 180.83,-567.69 170.87,-571.3 175.29,-576.72"/>
</g>
<!-- Node30 -->
<g id="node6" class="node">
<title>Node30</title>
<g id="a_node6"><a xlink:href="namespacem__force__tides.html#a9aef525fcc6bc1e959ee88315b478c82" target="_top" xlink:title=" ">
<polygon fill="white" stroke="red" points="9,-568 9,-598 113,-598 113,-568 9,-568"/>
<text text-anchor="start" x="17" y="-586" font-family="Helvetica,sans-Serif" font-size="10.00">m_force_tides::force</text>
<text text-anchor="middle" x="61" y="-575" font-family="Helvetica,sans-Serif" font-size="10.00">_tides</text>
</a>
</g>
</g>
<!-- Node2&#45;&gt;Node30 -->
<g id="edge5" class="edge">
<title>Node2&#45;&gt;Node30</title>
<path fill="none" stroke="midnightblue" d="M147.87,-566.49C136.68,-568.64 124.56,-570.97 113.06,-573.18"/>
<polygon fill="midnightblue" stroke="midnightblue" points="148.68,-569.89 157.84,-564.57 147.36,-563.02 148.68,-569.89"/>
</g>
<!-- Node31 -->
<g id="node7" class="node">
<title>Node31</title>
<g id="a_node7"><a xlink:href="namespacem__pd__geopotential.html#a348c4f09b044b8253b29d7738b6635f8" target="_top" xlink:title=" ">
<polygon fill="white" stroke="red" points="9.5,-519 9.5,-549 112.5,-549 112.5,-519 9.5,-519"/>
<text text-anchor="start" x="17.5" y="-537" font-family="Helvetica,sans-Serif" font-size="10.00">m_pd_geopotential::</text>
<text text-anchor="middle" x="61" y="-526" font-family="Helvetica,sans-Serif" font-size="10.00">pd_geopotential</text>
</a>
</g>
</g>
<!-- Node2&#45;&gt;Node31 -->
<g id="edge6" class="edge">
<title>Node2&#45;&gt;Node31</title>
<path fill="none" stroke="midnightblue" d="M147.76,-549.83C136.44,-547.74 124.18,-545.48 112.56,-543.33"/>
<polygon fill="midnightblue" stroke="midnightblue" points="147.37,-553.32 157.84,-551.69 148.65,-546.44 147.37,-553.32"/>
</g>
<!-- Node32 -->
<g id="node8" class="node">
<title>Node32</title>
<g id="a_node8"><a xlink:href="pd__gm_8f95.html#a56f372e579bbff35db9e0d4c4a452d2f" target="_top" xlink:title=" ">
<polygon fill="white" stroke="red" points="38,-480.5 38,-499.5 84,-499.5 84,-480.5 38,-480.5"/>
<text text-anchor="middle" x="61" y="-487.5" font-family="Helvetica,sans-Serif" font-size="10.00">pd_gm</text>
</a>
</g>
</g>
<!-- Node2&#45;&gt;Node32 -->
<g id="edge7" class="edge">
<title>Node2&#45;&gt;Node32</title>
<path fill="none" stroke="midnightblue" d="M172.16,-542.17C158.63,-531.94 139.97,-518.93 122,-510 110.01,-504.04 95.82,-499.21 84.25,-495.8"/>
<polygon fill="midnightblue" stroke="midnightblue" points="170.19,-545.07 180.25,-548.41 174.47,-539.53 170.19,-545.07"/>
</g>
<!-- Node33 -->
<g id="node9" class="node">
<title>Node33</title>
<g id="a_node9"><a xlink:href="tides__solid1_8f90.html#a8c7ad9569346e149f76fbc2e136b770c" target="_top" xlink:title=" ">
<polygon fill="white" stroke="red" points="27,-442.5 27,-461.5 95,-461.5 95,-442.5 27,-442.5"/>
<text text-anchor="middle" x="61" y="-449.5" font-family="Helvetica,sans-Serif" font-size="10.00">tides_solid1</text>
</a>
</g>
</g>
<!-- Node2&#45;&gt;Node33 -->
<g id="edge8" class="edge">
<title>Node2&#45;&gt;Node33</title>
<path fill="none" stroke="midnightblue" d="M181.76,-539.68C169.85,-519.98 148.4,-489.06 122,-471 113.97,-465.51 104.28,-461.54 95.04,-458.7"/>
<polygon fill="midnightblue" stroke="midnightblue" points="178.76,-541.48 186.82,-548.35 184.8,-537.95 178.76,-541.48"/>
</g>
<!-- Node35 -->
<g id="node11" class="node">
<title>Node35</title>
<g id="a_node11"><a xlink:href="beta__pred_8f90.html#a9230794c3d919d2bcd20c96901c31e3c" target="_top" xlink:title=" ">
<polygon fill="white" stroke="red" points="31.5,-404.5 31.5,-423.5 90.5,-423.5 90.5,-404.5 31.5,-404.5"/>
<text text-anchor="middle" x="61" y="-411.5" font-family="Helvetica,sans-Serif" font-size="10.00">beta_pred</text>
</a>
</g>
</g>
<!-- Node34&#45;&gt;Node35 -->
<g id="edge10" class="edge">
<title>Node34&#45;&gt;Node35</title>
<path fill="none" stroke="midnightblue" d="M188.26,-262.83C181.12,-295.17 162.53,-359.24 122,-395 113.32,-402.66 101.54,-407.24 90.71,-409.97"/>
<polygon fill="midnightblue" stroke="midnightblue" points="191.73,-263.31 190.32,-252.81 184.87,-261.9 191.73,-263.31"/>
</g>
<!-- Node44 -->
<g id="node12" class="node">
<title>Node44</title>
<g id="a_node12"><a xlink:href="namespacem__betainfo.html#a7c2c7a1fff113613caae0cd8f91ca37d" target="_top" xlink:title=" ">
<polygon fill="white" stroke="black" points="9,-366.5 9,-385.5 113,-385.5 113,-366.5 9,-366.5"/>
<text text-anchor="middle" x="61" y="-373.5" font-family="Helvetica,sans-Serif" font-size="10.00">m_betainfo::betainfo</text>
</a>
</g>
</g>
<!-- Node34&#45;&gt;Node44 -->
<g id="edge11" class="edge">
<title>Node34&#45;&gt;Node44</title>
<path fill="none" stroke="midnightblue" d="M185.18,-262.12C175.19,-287.45 154.18,-331.85 122,-357 117.01,-360.9 111.2,-364.01 105.2,-366.49"/>
<polygon fill="midnightblue" stroke="midnightblue" points="188.54,-263.14 188.79,-252.54 181.99,-260.67 188.54,-263.14"/>
</g>
<!-- Node45 -->
<g id="node13" class="node">
<title>Node45</title>
<g id="a_node13"><a xlink:href="force__srp_8f90.html#ac60c56aaaf5a6f7118c763fe46ce8373" target="_top" xlink:title=" ">
<polygon fill="white" stroke="red" points="32.5,-328.5 32.5,-347.5 89.5,-347.5 89.5,-328.5 32.5,-328.5"/>
<text text-anchor="middle" x="61" y="-335.5" font-family="Helvetica,sans-Serif" font-size="10.00">force_srp</text>
</a>
</g>
</g>
<!-- Node34&#45;&gt;Node45 -->
<g id="edge12" class="edge">
<title>Node34&#45;&gt;Node45</title>
<path fill="none" stroke="midnightblue" d="M179.54,-261.27C166.92,-278.47 145.88,-303.81 122,-319 112.23,-325.22 100.26,-329.54 89.59,-332.48"/>
<polygon fill="midnightblue" stroke="midnightblue" points="182.72,-262.84 185.65,-252.66 177.01,-258.79 182.72,-262.84"/>
</g>
<!-- Node46 -->
<g id="node14" class="node">
<title>Node46</title>
<g id="a_node14"><a xlink:href="namespacem__keplerorb.html#a02c25cf4c2ea19e9295785bf281b39f4" target="_top" xlink:title=" ">
<polygon fill="white" stroke="red" points="4,-290.5 4,-309.5 118,-309.5 118,-290.5 4,-290.5"/>
<text text-anchor="middle" x="61" y="-297.5" font-family="Helvetica,sans-Serif" font-size="10.00">m_keplerorb::keplerorb</text>
</a>
</g>
</g>
<!-- Node34&#45;&gt;Node46 -->
<g id="edge13" class="edge">
<title>Node34&#45;&gt;Node46</title>
<path fill="none" stroke="midnightblue" d="M167.4,-257.85C154.24,-265.41 137.56,-274.38 122,-281 113.75,-284.51 104.64,-287.71 96.05,-290.46"/>
<polygon fill="midnightblue" stroke="midnightblue" points="169.44,-260.72 176.31,-252.65 165.91,-254.67 169.44,-260.72"/>
</g>
<!-- Node50 -->
<g id="node15" class="node">
<title>Node50</title>
<g id="a_node15"><a xlink:href="namespacem__orbinfo.html#a7e90574cb9078c6ff14c6104446ee24a" target="_top" xlink:title=" ">
<polygon fill="white" stroke="red" points="14.5,-252.5 14.5,-271.5 107.5,-271.5 107.5,-252.5 14.5,-252.5"/>
<text text-anchor="middle" x="61" y="-259.5" font-family="Helvetica,sans-Serif" font-size="10.00">m_orbinfo::orbinfo</text>
</a>
</g>
</g>
<!-- Node34&#45;&gt;Node50 -->
<g id="edge14" class="edge">
<title>Node34&#45;&gt;Node50</title>
<path fill="none" stroke="midnightblue" d="M151.07,-248.98C137.34,-250.99 121.94,-253.24 107.86,-255.3"/>
<polygon fill="midnightblue" stroke="midnightblue" points="151.8,-252.41 161.19,-247.5 150.79,-245.49 151.8,-252.41"/>
</g>
<!-- Node52 -->
<g id="node16" class="node">
<title>Node52</title>
<g id="a_node16"><a xlink:href="orbk__frame_8f90.html#a2fe5a2a3b48be74550ed5a1aaa2f222d" target="_top" xlink:title=" ">
<polygon fill="white" stroke="black" points="28.5,-214.5 28.5,-233.5 93.5,-233.5 93.5,-214.5 28.5,-214.5"/>
<text text-anchor="middle" x="61" y="-221.5" font-family="Helvetica,sans-Serif" font-size="10.00">orbk_frame</text>
</a>
</g>
</g>
<!-- Node34&#45;&gt;Node52 -->
<g id="edge15" class="edge">
<title>Node34&#45;&gt;Node52</title>
<path fill="none" stroke="midnightblue" d="M151.28,-237.05C132.79,-234.35 111.24,-231.2 93.94,-228.67"/>
<polygon fill="midnightblue" stroke="midnightblue" points="150.79,-240.51 161.19,-238.5 151.8,-233.59 150.79,-240.51"/>
</g>
<!-- Node53 -->
<g id="node17" class="node">
<title>Node53</title>
<g id="a_node17"><a xlink:href="namespacem__pd__ecom.html#a6566481abfae9e375586538e1de35f42" target="_top" xlink:title=" ">
<polygon fill="white" stroke="red" points="4,-176.5 4,-195.5 118,-195.5 118,-176.5 4,-176.5"/>
<text text-anchor="middle" x="61" y="-183.5" font-family="Helvetica,sans-Serif" font-size="10.00">m_pd_ecom::pd_ecom</text>
</a>
</g>
</g>
<!-- Node34&#45;&gt;Node53 -->
<g id="edge16" class="edge">
<title>Node34&#45;&gt;Node53</title>
<path fill="none" stroke="midnightblue" d="M167.4,-228.15C154.24,-220.59 137.56,-211.62 122,-205 113.75,-201.49 104.64,-198.29 96.05,-195.54"/>
<polygon fill="midnightblue" stroke="midnightblue" points="165.91,-231.33 176.31,-233.35 169.44,-225.28 165.91,-231.33"/>
</g>
<!-- Node54 -->
<g id="node18" class="node">
<title>Node54</title>
<g id="a_node18"><a xlink:href="namespacem__pd__empirical.html#a7b23cff80d996d8e519c6c7a71a955ff" target="_top" xlink:title=" ">
<polygon fill="white" stroke="red" points="11,-127 11,-157 111,-157 111,-127 11,-127"/>
<text text-anchor="start" x="19" y="-145" font-family="Helvetica,sans-Serif" font-size="10.00">m_pd_empirical::pd</text>
<text text-anchor="middle" x="61" y="-134" font-family="Helvetica,sans-Serif" font-size="10.00">_empirical</text>
</a>
</g>
</g>
<!-- Node34&#45;&gt;Node54 -->
<g id="edge17" class="edge">
<title>Node34&#45;&gt;Node54</title>
<path fill="none" stroke="midnightblue" d="M179.03,-224.92C166.16,-208.05 145.06,-183.14 122,-167 116.73,-163.31 110.83,-160.03 104.85,-157.15"/>
<polygon fill="midnightblue" stroke="midnightblue" points="176.52,-227.41 185.29,-233.35 182.14,-223.24 176.52,-227.41"/>
</g>
<!-- Node55 -->
<g id="node19" class="node">
<title>Node55</title>
<g id="a_node19"><a xlink:href="namespacem__statorbit.html#a56a49355e7e28cab9185c86483b3e452" target="_top" xlink:title=" ">
<polygon fill="white" stroke="red" points="8.5,-88.5 8.5,-107.5 113.5,-107.5 113.5,-88.5 8.5,-88.5"/>
<text text-anchor="middle" x="61" y="-95.5" font-family="Helvetica,sans-Serif" font-size="10.00">m_statorbit::statorbit</text>
</a>
</g>
</g>
<!-- Node34&#45;&gt;Node55 -->
<g id="edge18" class="edge">
<title>Node34&#45;&gt;Node55</title>
<path fill="none" stroke="midnightblue" d="M186.16,-223.67C176.91,-196.3 156.35,-146.41 122,-118 116.75,-113.66 110.53,-110.25 104.11,-107.57"/>
<polygon fill="midnightblue" stroke="midnightblue" points="182.85,-224.83 189.24,-233.28 189.52,-222.69 182.85,-224.83"/>
</g>
<!-- Node56 -->
<g id="node20" class="node">
<title>Node56</title>
<g id="a_node20"><a xlink:href="namespacem__writeorbit__multi.html#a417e83d6d78aea1b32e8b66b2a8efde0" target="_top" xlink:title=" ">
<polygon fill="white" stroke="black" points="13,-39 13,-69 109,-69 109,-39 13,-39"/>
<text text-anchor="start" x="21" y="-57" font-family="Helvetica,sans-Serif" font-size="10.00">m_writeorbit_multi</text>
<text text-anchor="middle" x="61" y="-46" font-family="Helvetica,sans-Serif" font-size="10.00">::writeorbit_multi</text>
</a>
</g>
</g>
<!-- Node34&#45;&gt;Node56 -->
<g id="edge19" class="edge">
<title>Node34&#45;&gt;Node56</title>
<path fill="none" stroke="midnightblue" d="M188.63,-223.47C181.84,-189.71 163.48,-120.12 122,-79 118.15,-75.19 113.64,-71.92 108.84,-69.14"/>
<polygon fill="midnightblue" stroke="midnightblue" points="185.22,-224.27 190.5,-233.45 192.1,-222.98 185.22,-224.27"/>
</g>
<!-- Node57 -->
<g id="node21" class="node">
<title>Node57</title>
<g id="a_node21"><a xlink:href="yaw__pred_8f95.html#a7a64b9ed25e02702f50c28ba82422963" target="_top" xlink:title=" ">
<polygon fill="white" stroke="red" points="32,-0.5 32,-19.5 90,-19.5 90,-0.5 32,-0.5"/>
<text text-anchor="middle" x="61" y="-7.5" font-family="Helvetica,sans-Serif" font-size="10.00">yaw_pred</text>
</a>
</g>
</g>
<!-- Node34&#45;&gt;Node57 -->
<g id="edge20" class="edge">
<title>Node34&#45;&gt;Node57</title>
<path fill="none" stroke="midnightblue" d="M191.31,-223.32C188.77,-181.56 176.95,-83.43 122,-29 113.54,-20.62 101.41,-15.93 90.26,-13.31"/>
<polygon fill="midnightblue" stroke="midnightblue" points="187.81,-223.49 191.8,-233.31 194.81,-223.15 187.81,-223.49"/>
</g>
</g>
</svg>
