<?xml version="1.0" encoding="UTF-8" standalone="no"?>
<!DOCTYPE svg PUBLIC "-//W3C//DTD SVG 1.1//EN"
 "http://www.w3.org/Graphics/SVG/1.1/DTD/svg11.dtd">
<!-- Generated by graphviz version 2.50.0 (20220203.2022)
 -->
<!-- Title: asc2eph Pages: 1 -->
<svg width="140pt" height="66pt"
 viewBox="0.00 0.00 140.00 66.00" xmlns="http://www.w3.org/2000/svg" xmlns:xlink="http://www.w3.org/1999/xlink">
<g id="graph0" class="graph" transform="scale(1 1) rotate(0) translate(4 62)">
<title>asc2eph</title>
<polygon fill="white" stroke="transparent" points="-4,4 -4,-62 136,-62 136,4 -4,4"/>
<!-- Node1 -->
<g id="node1" class="node">
<title>Node1</title>
<g id="a_node1"><a xlink:title=" ">
<polygon fill="#bfbfbf" stroke="black" points="0,-19.5 0,-38.5 53,-38.5 53,-19.5 0,-19.5"/>
<text text-anchor="middle" x="26.5" y="-26.5" font-family="Helvetica,sans-Serif" font-size="10.00">asc2eph</text>
</a>
</g>
</g>
<!-- Node2 -->
<g id="node2" class="node">
<title>Node2</title>
<g id="a_node2"><a xlink:href="asc2eph_8f90.html#ac6553cac923db742031249343352711f" target="_top" xlink:title=" ">
<polygon fill="white" stroke="black" points="91,-38.5 91,-57.5 130,-57.5 130,-38.5 91,-38.5"/>
<text text-anchor="middle" x="110.5" y="-45.5" font-family="Helvetica,sans-Serif" font-size="10.00">errprt</text>
</a>
</g>
</g>
<!-- Node1&#45;&gt;Node2 -->
<g id="edge1" class="edge">
<title>Node1&#45;&gt;Node2</title>
<path fill="none" stroke="midnightblue" d="M53.45,-35.01C62.21,-37.04 72.05,-39.32 81,-41.4"/>
<polygon fill="midnightblue" stroke="midnightblue" points="80.46,-44.86 91,-43.71 82.04,-38.05 80.46,-44.86"/>
</g>
<!-- Node3 -->
<g id="node3" class="node">
<title>Node3</title>
<g id="a_node3"><a xlink:href="asc2eph_8f90.html#a70c1dde6ef4224fa114f0023749b0f00" target="_top" xlink:title=" ">
<polygon fill="white" stroke="black" points="89,-0.5 89,-19.5 132,-19.5 132,-0.5 89,-0.5"/>
<text text-anchor="middle" x="110.5" y="-7.5" font-family="Helvetica,sans-Serif" font-size="10.00">nxtgrp</text>
</a>
</g>
</g>
<!-- Node1&#45;&gt;Node3 -->
<g id="edge2" class="edge">
<title>Node1&#45;&gt;Node3</title>
<path fill="none" stroke="midnightblue" d="M53.45,-22.99C61.58,-21.1 70.64,-19 79.06,-17.05"/>
<polygon fill="midnightblue" stroke="midnightblue" points="79.96,-20.44 88.91,-14.77 78.38,-13.62 79.96,-20.44"/>
</g>
</g>
</svg>
