<?xml version="1.0" encoding="UTF-8" standalone="no"?>
<!DOCTYPE svg PUBLIC "-//W3C//DTD SVG 1.1//EN"
 "http://www.w3.org/Graphics/SVG/1.1/DTD/svg11.dtd">
<!-- Generated by graphviz version 2.50.0 (20220203.2022)
 -->
<!-- Title: attitude Pages: 1 -->
<svg width="376pt" height="230pt"
 viewBox="0.00 0.00 376.00 230.00" xmlns="http://www.w3.org/2000/svg" xmlns:xlink="http://www.w3.org/1999/xlink">
<g id="graph0" class="graph" transform="scale(1 1) rotate(0) translate(4 226)">
<title>attitude</title>
<polygon fill="white" stroke="transparent" points="-4,4 -4,-226 372,-226 372,4 -4,4"/>
<!-- Node1 -->
<g id="node1" class="node">
<title>Node1</title>
<g id="a_node1"><a xlink:title=" ">
<polygon fill="#bfbfbf" stroke="black" points="319,-76.5 319,-95.5 368,-95.5 368,-76.5 319,-76.5"/>
<text text-anchor="middle" x="343.5" y="-83.5" font-family="Helvetica,sans-Serif" font-size="10.00">attitude</text>
</a>
</g>
</g>
<!-- Node2 -->
<g id="node2" class="node">
<title>Node2</title>
<g id="a_node2"><a xlink:href="att__matrix_8f95.html#ac1f312f7022d981046ebb52cb86c69b2" target="_top" xlink:title=" ">
<polygon fill="white" stroke="black" points="198.5,-158.5 198.5,-177.5 257.5,-177.5 257.5,-158.5 198.5,-158.5"/>
<text text-anchor="middle" x="228" y="-165.5" font-family="Helvetica,sans-Serif" font-size="10.00">att_matrix</text>
</a>
</g>
</g>
<!-- Node1&#45;&gt;Node2 -->
<g id="edge1" class="edge">
<title>Node1&#45;&gt;Node2</title>
<path fill="none" stroke="midnightblue" d="M320.86,-101.63C297.74,-118.34 261.81,-144.3 242.45,-158.28"/>
<polygon fill="midnightblue" stroke="midnightblue" points="322.98,-104.42 329.03,-95.73 318.88,-98.75 322.98,-104.42"/>
</g>
<!-- Node5 -->
<g id="node5" class="node">
<title>Node5</title>
<g id="a_node5"><a xlink:href="force__sum_8f95.html#a757e2ccbe362bf3b01a51e2c0431a490" target="_top" xlink:title=" ">
<polygon fill="white" stroke="black" points="197,-76.5 197,-95.5 259,-95.5 259,-76.5 197,-76.5"/>
<text text-anchor="middle" x="228" y="-83.5" font-family="Helvetica,sans-Serif" font-size="10.00">force_sum</text>
</a>
</g>
</g>
<!-- Node1&#45;&gt;Node5 -->
<g id="edge4" class="edge">
<title>Node1&#45;&gt;Node5</title>
<path fill="none" stroke="midnightblue" d="M308.67,-86C293.03,-86 274.59,-86 259.39,-86"/>
<polygon fill="midnightblue" stroke="midnightblue" points="308.98,-89.5 318.98,-86 308.98,-82.5 308.98,-89.5"/>
</g>
<!-- Node14 -->
<g id="node9" class="node">
<title>Node14</title>
<g id="a_node9"><a xlink:href="namespacem__pd__force.html#a942ea044856d62ee03ee7623436bc97e" target="_top" xlink:title=" ">
<polygon fill="white" stroke="black" points="173,-19.5 173,-38.5 283,-38.5 283,-19.5 173,-19.5"/>
<text text-anchor="middle" x="228" y="-26.5" font-family="Helvetica,sans-Serif" font-size="10.00">m_pd_force::pd_force</text>
</a>
</g>
</g>
<!-- Node1&#45;&gt;Node14 -->
<g id="edge8" class="edge">
<title>Node1&#45;&gt;Node14</title>
<path fill="none" stroke="midnightblue" d="M314.55,-71.96C293.87,-61.58 266.25,-47.71 248.06,-38.57"/>
<polygon fill="midnightblue" stroke="midnightblue" points="313,-75.1 323.5,-76.46 316.14,-68.84 313,-75.1"/>
</g>
<!-- Node3 -->
<g id="node3" class="node">
<title>Node3</title>
<g id="a_node3"><a xlink:href="namespacem__attitude__orb.html#a6774b828c8d074a0663c16789c93e771" target="_top" xlink:title=" ">
<polygon fill="white" stroke="black" points="0,-202.5 0,-221.5 137,-221.5 137,-202.5 0,-202.5"/>
<text text-anchor="middle" x="68.5" y="-209.5" font-family="Helvetica,sans-Serif" font-size="10.00">m_attitude_orb::attitude_orb</text>
</a>
</g>
</g>
<!-- Node2&#45;&gt;Node3 -->
<g id="edge2" class="edge">
<title>Node2&#45;&gt;Node3</title>
<path fill="none" stroke="midnightblue" d="M188.59,-178.73C162.61,-185.99 128.59,-195.49 103.57,-202.48"/>
<polygon fill="midnightblue" stroke="midnightblue" points="189.79,-182.03 198.48,-175.97 187.9,-175.29 189.79,-182.03"/>
</g>
<!-- Node4 -->
<g id="node4" class="node">
<title>Node4</title>
<g id="a_node4"><a xlink:href="namespacem__write__orbex.html#a5a00de55ee2834d59d6d5f90dcb5cb08" target="_top" xlink:title=" ">
<polygon fill="white" stroke="black" points="16,-153 16,-183 121,-183 121,-153 16,-153"/>
<text text-anchor="start" x="24" y="-171" font-family="Helvetica,sans-Serif" font-size="10.00">m_write_orbex::write</text>
<text text-anchor="middle" x="68.5" y="-160" font-family="Helvetica,sans-Serif" font-size="10.00">_orbex</text>
</a>
</g>
</g>
<!-- Node2&#45;&gt;Node4 -->
<g id="edge3" class="edge">
<title>Node2&#45;&gt;Node4</title>
<path fill="none" stroke="midnightblue" d="M188.36,-168C168.08,-168 142.97,-168 121.06,-168"/>
<polygon fill="midnightblue" stroke="midnightblue" points="188.48,-171.5 198.48,-168 188.48,-164.5 188.48,-171.5"/>
</g>
<!-- Node6 -->
<g id="node6" class="node">
<title>Node6</title>
<g id="a_node6"><a xlink:href="integr__rk4_8f95.html#a9dda6722652d81539eb1d5c9cfe8e9e9" target="_top" xlink:title=" ">
<polygon fill="white" stroke="red" points="39,-114.5 39,-133.5 98,-133.5 98,-114.5 39,-114.5"/>
<text text-anchor="middle" x="68.5" y="-121.5" font-family="Helvetica,sans-Serif" font-size="10.00">integr_rk4</text>
</a>
</g>
</g>
<!-- Node5&#45;&gt;Node6 -->
<g id="edge5" class="edge">
<title>Node5&#45;&gt;Node6</title>
<path fill="none" stroke="midnightblue" d="M186.85,-95.69C159.16,-102.37 123,-111.09 98.18,-117.08"/>
<polygon fill="midnightblue" stroke="midnightblue" points="187.73,-99.07 196.63,-93.33 186.09,-92.27 187.73,-99.07"/>
</g>
<!-- Node12 -->
<g id="node7" class="node">
<title>Node12</title>
<g id="a_node7"><a xlink:href="integr__rk87_8f95.html#a2a9a86b5021347d1c51f6b40066fbb40" target="_top" xlink:title=" ">
<polygon fill="white" stroke="red" points="36,-76.5 36,-95.5 101,-95.5 101,-76.5 36,-76.5"/>
<text text-anchor="middle" x="68.5" y="-83.5" font-family="Helvetica,sans-Serif" font-size="10.00">integr_rk87</text>
</a>
</g>
</g>
<!-- Node5&#45;&gt;Node12 -->
<g id="edge6" class="edge">
<title>Node5&#45;&gt;Node12</title>
<path fill="none" stroke="midnightblue" d="M186.5,-86C159.93,-86 125.69,-86 101.12,-86"/>
<polygon fill="midnightblue" stroke="midnightblue" points="186.63,-89.5 196.63,-86 186.63,-82.5 186.63,-89.5"/>
</g>
<!-- Node13 -->
<g id="node8" class="node">
<title>Node13</title>
<g id="a_node8"><a xlink:href="integr__rkn768_8f95.html#ace93d66297205f5b3bf470f6fb55a277" target="_top" xlink:title=" ">
<polygon fill="white" stroke="red" points="31,-38.5 31,-57.5 106,-57.5 106,-38.5 31,-38.5"/>
<text text-anchor="middle" x="68.5" y="-45.5" font-family="Helvetica,sans-Serif" font-size="10.00">integr_rkn768</text>
</a>
</g>
</g>
<!-- Node5&#45;&gt;Node13 -->
<g id="edge7" class="edge">
<title>Node5&#45;&gt;Node13</title>
<path fill="none" stroke="midnightblue" d="M186.79,-76.3C161.94,-70.3 130.3,-62.67 106.14,-56.84"/>
<polygon fill="midnightblue" stroke="midnightblue" points="186.09,-79.73 196.63,-78.67 187.73,-72.93 186.09,-79.73"/>
</g>
<!-- Node15 -->
<g id="node10" class="node">
<title>Node15</title>
<g id="a_node10"><a xlink:href="namespacem__veq__rkn768.html#acade84f4eab8c2bb71f72dda5be85361" target="_top" xlink:title=" ">
<polygon fill="white" stroke="red" points="1,-0.5 1,-19.5 136,-19.5 136,-0.5 1,-0.5"/>
<text text-anchor="middle" x="68.5" y="-7.5" font-family="Helvetica,sans-Serif" font-size="10.00">m_veq_rkn768::veq_rkn768</text>
</a>
</g>
</g>
<!-- Node14&#45;&gt;Node15 -->
<g id="edge9" class="edge">
<title>Node14&#45;&gt;Node15</title>
<path fill="none" stroke="midnightblue" d="M162.64,-21.24C153.88,-20.18 144.86,-19.09 136.05,-18.03"/>
<polygon fill="midnightblue" stroke="midnightblue" points="162.45,-24.74 172.8,-22.46 163.29,-17.79 162.45,-24.74"/>
</g>
</g>
</svg>
