<?xml version="1.0" encoding="UTF-8" standalone="no"?>
<!DOCTYPE svg PUBLIC "-//W3C//DTD SVG 1.1//EN"
 "http://www.w3.org/Graphics/SVG/1.1/DTD/svg11.dtd">
<!-- Generated by graphviz version 2.50.0 (20220203.2022)
 -->
<!-- Title: attitude Pages: 1 -->
<svg width="577pt" height="1157pt"
 viewBox="0.00 0.00 577.00 1156.94" xmlns="http://www.w3.org/2000/svg" xmlns:xlink="http://www.w3.org/1999/xlink">
<g id="graph0" class="graph" transform="scale(1 1) rotate(0) translate(4 1152.94)">
<title>attitude</title>
<polygon fill="white" stroke="transparent" points="-4,4 -4,-1152.94 573,-1152.94 573,4 -4,4"/>
<!-- Node1 -->
<g id="node1" class="node">
<title>Node1</title>
<g id="a_node1"><a xlink:title=" ">
<polygon fill="#bfbfbf" stroke="black" points="0,-304.5 0,-323.5 49,-323.5 49,-304.5 0,-304.5"/>
<text text-anchor="middle" x="24.5" y="-311.5" font-family="Helvetica,sans-Serif" font-size="10.00">attitude</text>
</a>
</g>
</g>
<!-- Node2 -->
<g id="node2" class="node">
<title>Node2</title>
<g id="a_node2"><a xlink:href="beta__angle_8f90.html#aa3986ad6e3bbfff7cbb65b502e569723" target="_top" xlink:title=" ">
<polygon fill="white" stroke="black" points="396,-760.5 396,-779.5 460,-779.5 460,-760.5 396,-760.5"/>
<text text-anchor="middle" x="428" y="-767.5" font-family="Helvetica,sans-Serif" font-size="10.00">beta_angle</text>
</a>
</g>
</g>
<!-- Node1&#45;&gt;Node2 -->
<g id="edge1" class="edge">
<title>Node1&#45;&gt;Node2</title>
<path fill="none" stroke="midnightblue" d="M26.44,-323.83C33.32,-393.4 78.23,-810.63 173,-884 189.03,-896.41 333.41,-896.47 360,-881 377.93,-870.57 404.76,-817.64 418.39,-788.8"/>
<polygon fill="midnightblue" stroke="midnightblue" points="421.57,-790.26 422.62,-779.71 415.23,-787.3 421.57,-790.26"/>
</g>
<!-- Node6 -->
<g id="node5" class="node">
<title>Node6</title>
<g id="a_node5"><a xlink:href="time__GPS_8f90.html#abc2a33c3ed6bda1d04db6c1e5ae6d0f2" target="_top" xlink:title=" ">
<polygon fill="white" stroke="black" points="400,-114.5 400,-133.5 456,-133.5 456,-114.5 400,-114.5"/>
<text text-anchor="middle" x="428" y="-121.5" font-family="Helvetica,sans-Serif" font-size="10.00">time_gps</text>
</a>
</g>
</g>
<!-- Node1&#45;&gt;Node6 -->
<g id="edge4" class="edge">
<title>Node1&#45;&gt;Node6</title>
<path fill="none" stroke="midnightblue" d="M36.11,-304.11C69.16,-273.94 174.39,-182.76 280,-143 315.65,-129.58 359.23,-125.32 389.64,-124.13"/>
<polygon fill="midnightblue" stroke="midnightblue" points="389.93,-127.62 399.82,-123.82 389.72,-120.62 389.93,-127.62"/>
</g>
<!-- Node10 -->
<g id="node8" class="node">
<title>Node10</title>
<g id="a_node8"><a xlink:href="time__TAI_8f90.html#a100297f335efa93736f0ef563a5d0de0" target="_top" xlink:title=" ">
<polygon fill="white" stroke="black" points="402.5,-76.5 402.5,-95.5 453.5,-95.5 453.5,-76.5 402.5,-76.5"/>
<text text-anchor="middle" x="428" y="-83.5" font-family="Helvetica,sans-Serif" font-size="10.00">time_tai</text>
</a>
</g>
</g>
<!-- Node1&#45;&gt;Node10 -->
<g id="edge7" class="edge">
<title>Node1&#45;&gt;Node10</title>
<path fill="none" stroke="midnightblue" d="M30,-304.26C38.74,-286.05 59.41,-246.22 85,-219 117.95,-183.95 129.9,-177.36 173,-156 246.65,-119.49 342.07,-99.74 392.4,-91.22"/>
<polygon fill="midnightblue" stroke="midnightblue" points="393.13,-94.64 402.43,-89.57 392,-87.74 393.13,-94.64"/>
</g>
<!-- Node11 -->
<g id="node9" class="node">
<title>Node11</title>
<g id="a_node9"><a xlink:href="time__TT_8f90.html#aac4be73ca07f0d71843391b034a7d20e" target="_top" xlink:title=" ">
<polygon fill="white" stroke="black" points="404.5,-38.5 404.5,-57.5 451.5,-57.5 451.5,-38.5 404.5,-38.5"/>
<text text-anchor="middle" x="428" y="-45.5" font-family="Helvetica,sans-Serif" font-size="10.00">time_tt</text>
</a>
</g>
</g>
<!-- Node1&#45;&gt;Node11 -->
<g id="edge10" class="edge">
<title>Node1&#45;&gt;Node11</title>
<path fill="none" stroke="midnightblue" d="M27.16,-304.46C31.93,-279.61 47.76,-212.01 85,-171 168.55,-78.99 325.98,-55.75 394.15,-49.93"/>
<polygon fill="midnightblue" stroke="midnightblue" points="394.61,-53.4 404.3,-49.13 394.06,-46.42 394.61,-53.4"/>
</g>
<!-- Node12 -->
<g id="node10" class="node">
<title>Node12</title>
<g id="a_node10"><a xlink:href="time__UTC_8f90.html#a5c5b31c8678ff9da6694a16d7bb9387f" target="_top" xlink:title=" ">
<polygon fill="white" stroke="black" points="401,-0.5 401,-19.5 455,-19.5 455,-0.5 401,-0.5"/>
<text text-anchor="middle" x="428" y="-7.5" font-family="Helvetica,sans-Serif" font-size="10.00">time_utc</text>
</a>
</g>
</g>
<!-- Node1&#45;&gt;Node12 -->
<g id="edge13" class="edge">
<title>Node1&#45;&gt;Node12</title>
<path fill="none" stroke="midnightblue" d="M26.12,-304.25C28.5,-274.32 39.35,-182.42 85,-126 161.71,-31.19 319.3,-13.49 390.57,-10.45"/>
<polygon fill="midnightblue" stroke="midnightblue" points="390.97,-13.94 400.84,-10.09 390.72,-6.95 390.97,-13.94"/>
</g>
<!-- Node13 -->
<g id="node11" class="node">
<title>Node13</title>
<g id="a_node11"><a xlink:href="yaw__attitude_8f90.html#a2a7b2be081a9bc47101a253d8a94b7e3" target="_top" xlink:title=" ">
<polygon fill="white" stroke="black" points="173,-304.5 173,-323.5 244,-323.5 244,-304.5 173,-304.5"/>
<text text-anchor="middle" x="208.5" y="-311.5" font-family="Helvetica,sans-Serif" font-size="10.00">yaw_attitude</text>
</a>
</g>
</g>
<!-- Node1&#45;&gt;Node13 -->
<g id="edge16" class="edge">
<title>Node1&#45;&gt;Node13</title>
<path fill="none" stroke="midnightblue" d="M49.29,-314C77.97,-314 126.77,-314 162.6,-314"/>
<polygon fill="midnightblue" stroke="midnightblue" points="162.8,-317.5 172.8,-314 162.8,-310.5 162.8,-317.5"/>
</g>
<!-- Node22 -->
<g id="node19" class="node">
<title>Node22</title>
<g id="a_node19"><a xlink:href="yaw__bds_8f90.html#abded1f336a6a92c228398584646c923c" target="_top" xlink:title=" ">
<polygon fill="white" stroke="black" points="181,-684.5 181,-703.5 236,-703.5 236,-684.5 181,-684.5"/>
<text text-anchor="middle" x="208.5" y="-691.5" font-family="Helvetica,sans-Serif" font-size="10.00">yaw_bds</text>
</a>
</g>
</g>
<!-- Node1&#45;&gt;Node22 -->
<g id="edge29" class="edge">
<title>Node1&#45;&gt;Node22</title>
<path fill="none" stroke="midnightblue" d="M29.74,-323.5C39.39,-345.03 63.75,-399.14 85,-444 126.1,-530.76 177.17,-633.38 197.99,-675.03"/>
<polygon fill="midnightblue" stroke="midnightblue" points="194.9,-676.67 202.5,-684.04 201.16,-673.53 194.9,-676.67"/>
</g>
<!-- Node33 -->
<g id="node22" class="node">
<title>Node33</title>
<g id="a_node22"><a xlink:href="yaw__gal_8f90.html#a07482ba571d3bfae915c9b18107c9000" target="_top" xlink:title=" ">
<polygon fill="white" stroke="black" points="85,-950.5 85,-969.5 137,-969.5 137,-950.5 85,-950.5"/>
<text text-anchor="middle" x="111" y="-957.5" font-family="Helvetica,sans-Serif" font-size="10.00">yaw_gal</text>
</a>
</g>
</g>
<!-- Node1&#45;&gt;Node33 -->
<g id="edge38" class="edge">
<title>Node1&#45;&gt;Node33</title>
<path fill="none" stroke="midnightblue" d="M25.51,-323.55C25.75,-393.04 29.49,-821.26 85,-936 86.17,-938.42 87.69,-940.72 89.41,-942.88"/>
<polygon fill="midnightblue" stroke="midnightblue" points="87.19,-945.62 96.65,-950.39 92.23,-940.76 87.19,-945.62"/>
</g>
<!-- Node40 -->
<g id="node25" class="node">
<title>Node40</title>
<g id="a_node25"><a xlink:href="yawdyn_8f90.html#a29e7454a1aac79bd28da87e53dcb935f" target="_top" xlink:title=" ">
<polygon fill="white" stroke="black" points="184,-551.5 184,-570.5 233,-570.5 233,-551.5 184,-551.5"/>
<text text-anchor="middle" x="208.5" y="-558.5" font-family="Helvetica,sans-Serif" font-size="10.00">yawdyn</text>
</a>
</g>
</g>
<!-- Node1&#45;&gt;Node40 -->
<g id="edge54" class="edge">
<title>Node1&#45;&gt;Node40</title>
<path fill="none" stroke="midnightblue" d="M32.63,-323.68C59.99,-360.8 158.41,-494.38 194.29,-543.07"/>
<polygon fill="midnightblue" stroke="midnightblue" points="191.66,-545.41 200.41,-551.38 197.3,-541.26 191.66,-545.41"/>
</g>
<!-- Node3 -->
<g id="node3" class="node">
<title>Node3</title>
<g id="a_node3"><a xlink:href="productcross_8f90.html#a2e59e22456af10602cf068c75f925c76" target="_top" xlink:title=" ">
<polygon fill="white" stroke="red" points="496,-741.5 496,-760.5 569,-760.5 569,-741.5 496,-741.5"/>
<text text-anchor="middle" x="532.5" y="-748.5" font-family="Helvetica,sans-Serif" font-size="10.00">productcross</text>
</a>
</g>
</g>
<!-- Node2&#45;&gt;Node3 -->
<g id="edge2" class="edge">
<title>Node2&#45;&gt;Node3</title>
<path fill="none" stroke="midnightblue" d="M460.03,-764.25C468.16,-762.74 477.1,-761.08 485.82,-759.47"/>
<polygon fill="midnightblue" stroke="midnightblue" points="486.71,-762.86 495.9,-757.6 485.43,-755.98 486.71,-762.86"/>
</g>
<!-- Node5 -->
<g id="node4" class="node">
<title>Node5</title>
<g id="a_node4"><a xlink:href="productdot_8f90.html#a14430d9cb0b48474effeb33068eaf0ed" target="_top" xlink:title=" ">
<polygon fill="white" stroke="red" points="501.5,-665.5 501.5,-684.5 563.5,-684.5 563.5,-665.5 501.5,-665.5"/>
<text text-anchor="middle" x="532.5" y="-672.5" font-family="Helvetica,sans-Serif" font-size="10.00">productdot</text>
</a>
</g>
</g>
<!-- Node2&#45;&gt;Node5 -->
<g id="edge3" class="edge">
<title>Node2&#45;&gt;Node5</title>
<path fill="none" stroke="midnightblue" d="M439.58,-760.19C457.09,-743.97 492.27,-711.36 513.67,-691.53"/>
<polygon fill="midnightblue" stroke="midnightblue" points="516.17,-693.98 521.13,-684.61 511.41,-688.84 516.17,-693.98"/>
</g>
<!-- Node7 -->
<g id="node6" class="node">
<title>Node7</title>
<g id="a_node6"><a xlink:href="jd2cal_8for.html#a9bed91282551283d85294092fe0cc509" target="_top" xlink:title=" ">
<polygon fill="white" stroke="black" points="502.5,-38.5 502.5,-57.5 562.5,-57.5 562.5,-38.5 502.5,-38.5"/>
<text text-anchor="middle" x="532.5" y="-45.5" font-family="Helvetica,sans-Serif" font-size="10.00">iau_jd2cal</text>
</a>
</g>
</g>
<!-- Node6&#45;&gt;Node7 -->
<g id="edge5" class="edge">
<title>Node6&#45;&gt;Node7</title>
<path fill="none" stroke="midnightblue" d="M446.6,-114.32C451.13,-111.53 455.88,-108.34 460,-105 478.07,-90.35 477.51,-81.11 496,-67 497.85,-65.59 499.82,-64.22 501.85,-62.91"/>
<polygon fill="midnightblue" stroke="midnightblue" points="504.06,-65.67 510.91,-57.58 500.51,-59.64 504.06,-65.67"/>
</g>
<!-- Node8 -->
<g id="node7" class="node">
<title>Node8</title>
<g id="a_node7"><a xlink:href="taiutc_8for.html#a86edd73f696a0968f1600df656bad920" target="_top" xlink:title=" ">
<polygon fill="white" stroke="red" points="512,-76.5 512,-95.5 553,-95.5 553,-76.5 512,-76.5"/>
<text text-anchor="middle" x="532.5" y="-83.5" font-family="Helvetica,sans-Serif" font-size="10.00">taiutc</text>
</a>
</g>
</g>
<!-- Node6&#45;&gt;Node8 -->
<g id="edge6" class="edge">
<title>Node6&#45;&gt;Node8</title>
<path fill="none" stroke="midnightblue" d="M454.87,-114.41C469.22,-109.09 487.14,-102.45 502.04,-96.92"/>
<polygon fill="midnightblue" stroke="midnightblue" points="503.63,-100.07 511.79,-93.31 501.2,-93.5 503.63,-100.07"/>
</g>
<!-- Node10&#45;&gt;Node7 -->
<g id="edge8" class="edge">
<title>Node10&#45;&gt;Node7</title>
<path fill="none" stroke="midnightblue" d="M453.55,-76.9C466.35,-72.15 482.23,-66.26 496.32,-61.04"/>
<polygon fill="midnightblue" stroke="midnightblue" points="497.56,-64.32 505.72,-57.56 495.13,-57.75 497.56,-64.32"/>
</g>
<!-- Node10&#45;&gt;Node8 -->
<g id="edge9" class="edge">
<title>Node10&#45;&gt;Node8</title>
<path fill="none" stroke="midnightblue" d="M453.55,-86C468.08,-86 486.59,-86 501.92,-86"/>
<polygon fill="midnightblue" stroke="midnightblue" points="501.94,-89.5 511.94,-86 501.94,-82.5 501.94,-89.5"/>
</g>
<!-- Node11&#45;&gt;Node7 -->
<g id="edge11" class="edge">
<title>Node11&#45;&gt;Node7</title>
<path fill="none" stroke="midnightblue" d="M451.75,-48C463.59,-48 478.41,-48 492.05,-48"/>
<polygon fill="midnightblue" stroke="midnightblue" points="492.19,-51.5 502.19,-48 492.19,-44.5 492.19,-51.5"/>
</g>
<!-- Node11&#45;&gt;Node8 -->
<g id="edge12" class="edge">
<title>Node11&#45;&gt;Node8</title>
<path fill="none" stroke="midnightblue" d="M451.75,-56.43C466.69,-61.97 486.38,-69.27 502.46,-75.23"/>
<polygon fill="midnightblue" stroke="midnightblue" points="501.33,-78.55 511.92,-78.74 503.76,-71.98 501.33,-78.55"/>
</g>
<!-- Node12&#45;&gt;Node7 -->
<g id="edge14" class="edge">
<title>Node12&#45;&gt;Node7</title>
<path fill="none" stroke="midnightblue" d="M454.87,-19.59C467.37,-24.22 482.57,-29.86 496.12,-34.89"/>
<polygon fill="midnightblue" stroke="midnightblue" points="495.05,-38.22 505.64,-38.41 497.48,-31.66 495.05,-38.22"/>
</g>
<!-- Node12&#45;&gt;Node8 -->
<g id="edge15" class="edge">
<title>Node12&#45;&gt;Node8</title>
<path fill="none" stroke="midnightblue" d="M446.6,-19.68C451.13,-22.47 455.88,-25.66 460,-29 478.07,-43.65 477.51,-52.89 496,-67 498.09,-68.6 500.33,-70.13 502.64,-71.59"/>
<polygon fill="midnightblue" stroke="midnightblue" points="501.24,-74.83 511.65,-76.82 504.75,-68.77 501.24,-74.83"/>
</g>
<!-- Node13&#45;&gt;Node2 -->
<g id="edge17" class="edge">
<title>Node13&#45;&gt;Node2</title>
<path fill="none" stroke="midnightblue" d="M215.89,-323.86C237.98,-358.23 312.4,-476.38 360,-581 387.32,-641.05 410.9,-715.75 421.31,-750.52"/>
<polygon fill="midnightblue" stroke="midnightblue" points="418.03,-751.74 424.22,-760.33 424.74,-749.75 418.03,-751.74"/>
</g>
<!-- Node13&#45;&gt;Node3 -->
<g id="edge24" class="edge">
<title>Node13&#45;&gt;Node3</title>
<path fill="none" stroke="midnightblue" d="M221.32,-323.88C235.21,-335.4 259.01,-354.92 280,-371 314.87,-397.7 330.55,-396.42 360,-429 419.3,-494.59 421.7,-521.3 460,-601 479.2,-640.95 476.2,-654.35 496,-694 502.76,-707.53 511.78,-721.98 519.03,-732.94"/>
<polygon fill="midnightblue" stroke="midnightblue" points="516.14,-734.9 524.63,-741.24 521.94,-730.99 516.14,-734.9"/>
</g>
<!-- Node13&#45;&gt;Node5 -->
<g id="edge25" class="edge">
<title>Node13&#45;&gt;Node5</title>
<path fill="none" stroke="midnightblue" d="M213.12,-304.4C221.37,-284.11 243.67,-237.28 280,-219 311.76,-203.02 327.61,-204.33 360,-219 421.39,-246.81 429.89,-272.7 460,-333 516.3,-445.75 528.31,-600.74 530.84,-655.15"/>
<polygon fill="midnightblue" stroke="midnightblue" points="527.35,-655.6 531.25,-665.45 534.35,-655.32 527.35,-655.6"/>
</g>
<!-- Node14 -->
<g id="node12" class="node">
<title>Node14</title>
<g id="a_node12"><a xlink:href="eclips_8f.html#ad28e824e74dfc3ff46e8b95a16e1859d" target="_top" xlink:title=" ">
<polygon fill="white" stroke="red" points="299,-342.5 299,-361.5 341,-361.5 341,-342.5 299,-342.5"/>
<text text-anchor="middle" x="320" y="-349.5" font-family="Helvetica,sans-Serif" font-size="10.00">eclips</text>
</a>
</g>
</g>
<!-- Node13&#45;&gt;Node14 -->
<g id="edge18" class="edge">
<title>Node13&#45;&gt;Node14</title>
<path fill="none" stroke="midnightblue" d="M237.13,-323.59C253.08,-329.12 273.14,-336.08 289.41,-341.73"/>
<polygon fill="midnightblue" stroke="midnightblue" points="288.38,-345.08 298.98,-345.05 290.68,-338.47 288.38,-345.08"/>
</g>
<!-- Node17 -->
<g id="node14" class="node">
<title>Node17</title>
<g id="a_node14"><a xlink:href="eclips2017_8f.html#aeef50b1c85cfcccd2af9f1ff36ac1e53" target="_top" xlink:title=" ">
<polygon fill="white" stroke="red" points="288.5,-266.5 288.5,-285.5 351.5,-285.5 351.5,-266.5 288.5,-266.5"/>
<text text-anchor="middle" x="320" y="-273.5" font-family="Helvetica,sans-Serif" font-size="10.00">eclips2017</text>
</a>
</g>
</g>
<!-- Node13&#45;&gt;Node17 -->
<g id="edge20" class="edge">
<title>Node13&#45;&gt;Node17</title>
<path fill="none" stroke="midnightblue" d="M237.13,-304.41C250.62,-299.73 267.04,-294.03 281.63,-288.97"/>
<polygon fill="midnightblue" stroke="midnightblue" points="283.08,-292.17 291.38,-285.59 280.78,-285.56 283.08,-292.17"/>
</g>
<!-- Node18 -->
<g id="node15" class="node">
<title>Node18</title>
<g id="a_node15"><a xlink:href="eclips201707_8f.html#a66d62d72ea7bea6c94d758d5d46ef05f" target="_top" xlink:title=" ">
<polygon fill="white" stroke="red" points="283,-228.5 283,-247.5 357,-247.5 357,-228.5 283,-228.5"/>
<text text-anchor="middle" x="320" y="-235.5" font-family="Helvetica,sans-Serif" font-size="10.00">eclips201707</text>
</a>
</g>
</g>
<!-- Node13&#45;&gt;Node18 -->
<g id="edge22" class="edge">
<title>Node13&#45;&gt;Node18</title>
<path fill="none" stroke="midnightblue" d="M219.91,-304.31C233.19,-292.27 257.16,-271.53 280,-257 282.59,-255.36 285.33,-253.75 288.13,-252.22"/>
<polygon fill="midnightblue" stroke="midnightblue" points="289.79,-255.3 297.07,-247.61 286.58,-249.08 289.79,-255.3"/>
</g>
<!-- Node19 -->
<g id="node16" class="node">
<title>Node19</title>
<g id="a_node16"><a xlink:href="time__GPSweek_8f90.html#aa06fb5efbfd63360cbbfd2b3914f0885" target="_top" xlink:title=" ">
<polygon fill="white" stroke="red" points="280,-152.5 280,-171.5 360,-171.5 360,-152.5 280,-152.5"/>
<text text-anchor="middle" x="320" y="-159.5" font-family="Helvetica,sans-Serif" font-size="10.00">time_gpsweek</text>
</a>
</g>
</g>
<!-- Node13&#45;&gt;Node19 -->
<g id="edge26" class="edge">
<title>Node13&#45;&gt;Node19</title>
<path fill="none" stroke="midnightblue" d="M212.87,-304.27C221.19,-281.35 244.65,-223.1 280,-186 283.02,-182.83 286.55,-179.91 290.23,-177.28"/>
<polygon fill="midnightblue" stroke="midnightblue" points="292.4,-180.05 298.91,-171.7 288.61,-174.16 292.4,-180.05"/>
</g>
<!-- Node20 -->
<g id="node17" class="node">
<title>Node20</title>
<g id="a_node17"><a xlink:href="yaw__nom_8f90.html#add5fadccf74e8d81cc3552133d1ae49e" target="_top" xlink:title=" ">
<polygon fill="white" stroke="black" points="291,-684.5 291,-703.5 349,-703.5 349,-684.5 291,-684.5"/>
<text text-anchor="middle" x="320" y="-691.5" font-family="Helvetica,sans-Serif" font-size="10.00">yaw_nom</text>
</a>
</g>
</g>
<!-- Node13&#45;&gt;Node20 -->
<g id="edge27" class="edge">
<title>Node13&#45;&gt;Node20</title>
<path fill="none" stroke="midnightblue" d="M210.84,-323.51C218.55,-377.69 257.63,-645.88 280,-675 280.92,-676.19 281.93,-677.32 283.02,-678.38"/>
<polygon fill="midnightblue" stroke="midnightblue" points="280.95,-681.2 291.05,-684.42 285.16,-675.61 280.95,-681.2"/>
</g>
<!-- Node21 -->
<g id="node18" class="node">
<title>Node21</title>
<g id="a_node18"><a xlink:href="ppp_8cpp.html#aeec4be9da926fd56edd154d0e81a5d63" target="_top" xlink:title="Calculate nominal yaw&#45;angle.">
<polygon fill="white" stroke="black" points="283.5,-304.5 283.5,-323.5 356.5,-323.5 356.5,-304.5 283.5,-304.5"/>
<text text-anchor="middle" x="320" y="-311.5" font-family="Helvetica,sans-Serif" font-size="10.00">yaw_nominal</text>
</a>
</g>
</g>
<!-- Node13&#45;&gt;Node21 -->
<g id="edge28" class="edge">
<title>Node13&#45;&gt;Node21</title>
<path fill="none" stroke="midnightblue" d="M244.15,-314C253.45,-314 263.65,-314 273.44,-314"/>
<polygon fill="midnightblue" stroke="midnightblue" points="273.45,-317.5 283.45,-314 273.45,-310.5 273.45,-317.5"/>
</g>
<!-- Node15 -->
<g id="node13" class="node">
<title>Node15</title>
<g id="a_node13"><a xlink:href="trop_8cpp.html#a09f11d2057b22449a395bd4f02513a61" target="_top" xlink:title=" ">
<polygon fill="white" stroke="black" points="410.5,-342.5 410.5,-361.5 445.5,-361.5 445.5,-342.5 410.5,-342.5"/>
<text text-anchor="middle" x="428" y="-349.5" font-family="Helvetica,sans-Serif" font-size="10.00">sign</text>
</a>
</g>
</g>
<!-- Node14&#45;&gt;Node15 -->
<g id="edge19" class="edge">
<title>Node14&#45;&gt;Node15</title>
<path fill="none" stroke="midnightblue" d="M341.44,-352C358.23,-352 382.16,-352 400.44,-352"/>
<polygon fill="midnightblue" stroke="midnightblue" points="400.45,-355.5 410.45,-352 400.45,-348.5 400.45,-355.5"/>
</g>
<!-- Node17&#45;&gt;Node15 -->
<g id="edge21" class="edge">
<title>Node17&#45;&gt;Node15</title>
<path fill="none" stroke="midnightblue" d="M342.99,-285.52C348.69,-288.3 354.71,-291.54 360,-295 378.21,-306.91 396.89,-323.21 409.89,-335.33"/>
<polygon fill="midnightblue" stroke="midnightblue" points="407.53,-337.91 417.19,-342.26 412.35,-332.84 407.53,-337.91"/>
</g>
<!-- Node18&#45;&gt;Node15 -->
<g id="edge23" class="edge">
<title>Node18&#45;&gt;Node15</title>
<path fill="none" stroke="midnightblue" d="M345.67,-247.68C350.71,-250.28 355.76,-253.39 360,-257 385.63,-278.8 406.29,-312.5 417.59,-333.35"/>
<polygon fill="midnightblue" stroke="midnightblue" points="414.62,-335.22 422.36,-342.45 420.81,-331.97 414.62,-335.22"/>
</g>
<!-- Node22&#45;&gt;Node2 -->
<g id="edge30" class="edge">
<title>Node22&#45;&gt;Node2</title>
<path fill="none" stroke="midnightblue" d="M219.5,-703.84C232.35,-715.86 255.89,-735.85 280,-746 313.89,-760.28 355.5,-766.1 385.79,-768.45"/>
<polygon fill="midnightblue" stroke="midnightblue" points="385.78,-771.96 396,-769.15 386.26,-764.98 385.78,-771.96"/>
</g>
<!-- Node22&#45;&gt;Node3 -->
<g id="edge35" class="edge">
<title>Node22&#45;&gt;Node3</title>
<path fill="none" stroke="midnightblue" d="M236.11,-701.94C249.24,-705.66 265.36,-709.93 280,-713 351.37,-727.96 435.3,-739.43 485.9,-745.69"/>
<polygon fill="midnightblue" stroke="midnightblue" points="485.52,-749.17 495.87,-746.91 486.37,-742.22 485.52,-749.17"/>
</g>
<!-- Node22&#45;&gt;Node5 -->
<g id="edge36" class="edge">
<title>Node22&#45;&gt;Node5</title>
<path fill="none" stroke="midnightblue" d="M217.39,-684.41C229.29,-670.79 253.29,-646.45 280,-637 356.76,-609.85 453.42,-641.52 501.49,-661.37"/>
<polygon fill="midnightblue" stroke="midnightblue" points="500.41,-664.71 510.98,-665.4 503.15,-658.27 500.41,-664.71"/>
</g>
<!-- Node22&#45;&gt;Node20 -->
<g id="edge37" class="edge">
<title>Node22&#45;&gt;Node20</title>
<path fill="none" stroke="midnightblue" d="M236.01,-694C249.35,-694 265.78,-694 280.49,-694"/>
<polygon fill="midnightblue" stroke="midnightblue" points="280.82,-697.5 290.82,-694 280.82,-690.5 280.82,-697.5"/>
</g>
<!-- Node23 -->
<g id="node20" class="node">
<title>Node23</title>
<g id="a_node20"><a xlink:href="beta__pred_8f90.html#a9230794c3d919d2bcd20c96901c31e3c" target="_top" xlink:title=" ">
<polygon fill="white" stroke="red" points="290.5,-646.5 290.5,-665.5 349.5,-665.5 349.5,-646.5 290.5,-646.5"/>
<text text-anchor="middle" x="320" y="-653.5" font-family="Helvetica,sans-Serif" font-size="10.00">beta_pred</text>
</a>
</g>
</g>
<!-- Node22&#45;&gt;Node23 -->
<g id="edge31" class="edge">
<title>Node22&#45;&gt;Node23</title>
<path fill="none" stroke="midnightblue" d="M236.01,-684.8C249.82,-680.01 266.93,-674.07 282.02,-668.83"/>
<polygon fill="midnightblue" stroke="midnightblue" points="283.29,-672.1 291.59,-665.51 281,-665.48 283.29,-672.1"/>
</g>
<!-- Node32 -->
<g id="node21" class="node">
<title>Node32</title>
<g id="a_node21"><a xlink:href="algebra__old_8cpp.html#adc33998911a24938042604ba1f8e6196" target="_top" xlink:title=" ">
<polygon fill="white" stroke="black" points="295.5,-798.5 295.5,-817.5 344.5,-817.5 344.5,-798.5 295.5,-798.5"/>
<text text-anchor="middle" x="320" y="-805.5" font-family="Helvetica,sans-Serif" font-size="10.00">matmul</text>
</a>
</g>
</g>
<!-- Node22&#45;&gt;Node32 -->
<g id="edge34" class="edge">
<title>Node22&#45;&gt;Node32</title>
<path fill="none" stroke="midnightblue" d="M215.36,-703.58C226.4,-721.08 251.72,-758.75 280,-784 283.66,-787.27 287.83,-790.36 292.04,-793.16"/>
<polygon fill="midnightblue" stroke="midnightblue" points="290.26,-796.18 300.6,-798.49 293.96,-790.24 290.26,-796.18"/>
</g>
<!-- Node23&#45;&gt;Node2 -->
<g id="edge32" class="edge">
<title>Node23&#45;&gt;Node2</title>
<path fill="none" stroke="midnightblue" d="M345.67,-665.68C350.71,-668.28 355.76,-671.39 360,-675 385.63,-696.8 406.29,-730.5 417.59,-751.35"/>
<polygon fill="midnightblue" stroke="midnightblue" points="414.62,-753.22 422.36,-760.45 420.81,-749.97 414.62,-753.22"/>
</g>
<!-- Node23&#45;&gt;Node6 -->
<g id="edge33" class="edge">
<title>Node23&#45;&gt;Node6</title>
<path fill="none" stroke="midnightblue" d="M322.93,-646.31C335.48,-583.31 405.56,-231.6 423.05,-143.84"/>
<polygon fill="midnightblue" stroke="midnightblue" points="426.51,-144.36 425.03,-133.87 419.65,-142.99 426.51,-144.36"/>
</g>
<!-- Node33&#45;&gt;Node2 -->
<g id="edge39" class="edge">
<title>Node33&#45;&gt;Node2</title>
<path fill="none" stroke="midnightblue" d="M136.85,-969.63C185.73,-986.78 295.24,-1016.11 360,-963 413.67,-918.99 424.44,-829.49 426.53,-789.76"/>
<polygon fill="midnightblue" stroke="midnightblue" points="430.04,-789.67 426.93,-779.54 423.04,-789.4 430.04,-789.67"/>
</g>
<!-- Node34 -->
<g id="node23" class="node">
<title>Node34</title>
<g id="a_node23"><a xlink:href="yaw__gal__foc_8f95.html#ad93e13e825c3fadd4d81387a7f221846" target="_top" xlink:title=" ">
<polygon fill="white" stroke="red" points="173,-950.5 173,-969.5 244,-969.5 244,-950.5 173,-950.5"/>
<text text-anchor="middle" x="208.5" y="-957.5" font-family="Helvetica,sans-Serif" font-size="10.00">yaw_gal_foc</text>
</a>
</g>
</g>
<!-- Node33&#45;&gt;Node34 -->
<g id="edge40" class="edge">
<title>Node33&#45;&gt;Node34</title>
<path fill="none" stroke="midnightblue" d="M137.09,-960C144.96,-960 153.89,-960 162.69,-960"/>
<polygon fill="midnightblue" stroke="midnightblue" points="162.88,-963.5 172.88,-960 162.88,-956.5 162.88,-963.5"/>
</g>
<!-- Node39 -->
<g id="node24" class="node">
<title>Node39</title>
<g id="a_node24"><a xlink:href="yaw__gal__iov_8f95.html#ad0d821626226c57a73daff356928cd52" target="_top" xlink:title=" ">
<polygon fill="white" stroke="black" points="173.5,-855.5 173.5,-874.5 243.5,-874.5 243.5,-855.5 173.5,-855.5"/>
<text text-anchor="middle" x="208.5" y="-862.5" font-family="Helvetica,sans-Serif" font-size="10.00">yaw_gal_iov</text>
</a>
</g>
</g>
<!-- Node33&#45;&gt;Node39 -->
<g id="edge46" class="edge">
<title>Node33&#45;&gt;Node39</title>
<path fill="none" stroke="midnightblue" d="M121.86,-950.19C138.1,-934.04 170.66,-901.65 190.62,-881.79"/>
<polygon fill="midnightblue" stroke="midnightblue" points="193.21,-884.15 197.84,-874.61 188.28,-879.19 193.21,-884.15"/>
</g>
<!-- Node34&#45;&gt;Node2 -->
<g id="edge41" class="edge">
<title>Node34&#45;&gt;Node2</title>
<path fill="none" stroke="midnightblue" d="M244.09,-963.58C277.32,-965.1 327.2,-962.13 360,-936 406.28,-899.13 420.78,-825.28 425.17,-789.85"/>
<polygon fill="midnightblue" stroke="midnightblue" points="428.67,-790.12 426.27,-779.8 421.71,-789.36 428.67,-790.12"/>
</g>
<!-- Node34&#45;&gt;Node3 -->
<g id="edge43" class="edge">
<title>Node34&#45;&gt;Node3</title>
<path fill="none" stroke="midnightblue" d="M210.13,-969.78C212.62,-999.57 224.64,-1089.37 280,-1126 348.86,-1171.57 408.28,-1144.37 460,-1080 499.12,-1031.31 522.75,-834.65 529.49,-770.99"/>
<polygon fill="midnightblue" stroke="midnightblue" points="533.01,-771.03 530.55,-760.72 526.04,-770.31 533.01,-771.03"/>
</g>
<!-- Node34&#45;&gt;Node5 -->
<g id="edge44" class="edge">
<title>Node34&#45;&gt;Node5</title>
<path fill="none" stroke="midnightblue" d="M244.08,-953.16C298.54,-940.52 403.89,-908.22 460,-839 491.59,-800.02 474.59,-777.38 496,-732 502.45,-718.33 511.48,-703.88 518.81,-692.95"/>
<polygon fill="midnightblue" stroke="midnightblue" points="521.71,-694.92 524.48,-684.69 515.94,-690.95 521.71,-694.92"/>
</g>
<!-- Node34&#45;&gt;Node20 -->
<g id="edge45" class="edge">
<title>Node34&#45;&gt;Node20</title>
<path fill="none" stroke="midnightblue" d="M214.17,-950.25C221,-935.87 233.98,-908.08 244,-884 261.34,-842.31 263.42,-831 280,-789 290.44,-762.55 303,-732.19 311,-713.06"/>
<polygon fill="midnightblue" stroke="midnightblue" points="314.29,-714.25 314.93,-703.67 307.84,-711.55 314.29,-714.25"/>
</g>
<!-- Node34&#45;&gt;Node32 -->
<g id="edge42" class="edge">
<title>Node34&#45;&gt;Node32</title>
<path fill="none" stroke="midnightblue" d="M216.35,-950.49C234.25,-925.65 282.64,-858.47 306.02,-826.02"/>
<polygon fill="midnightblue" stroke="midnightblue" points="309.15,-827.66 312.15,-817.5 303.47,-823.57 309.15,-827.66"/>
</g>
<!-- Node39&#45;&gt;Node2 -->
<g id="edge47" class="edge">
<title>Node39&#45;&gt;Node2</title>
<path fill="none" stroke="midnightblue" d="M243.6,-871.92C275.57,-876.61 323.75,-878.97 360,-860 389.2,-844.72 409.07,-810.32 419.19,-788.75"/>
<polygon fill="midnightblue" stroke="midnightblue" points="422.39,-790.16 423.26,-779.6 416,-787.31 422.39,-790.16"/>
</g>
<!-- Node39&#45;&gt;Node3 -->
<g id="edge50" class="edge">
<title>Node39&#45;&gt;Node3</title>
<path fill="none" stroke="midnightblue" d="M214.31,-874.69C221.31,-889 234.51,-916.71 244,-941 262.57,-988.52 238.65,-1020.11 280,-1050 344.83,-1096.87 397.2,-1099.56 460,-1050 504.58,-1014.82 524.45,-831.55 529.89,-770.68"/>
<polygon fill="midnightblue" stroke="midnightblue" points="533.39,-770.77 530.76,-760.5 526.42,-770.17 533.39,-770.77"/>
</g>
<!-- Node39&#45;&gt;Node5 -->
<g id="edge51" class="edge">
<title>Node39&#45;&gt;Node5</title>
<path fill="none" stroke="midnightblue" d="M234.41,-874.52C265.05,-884.7 318.14,-897.33 360,-881 416.26,-859.06 421.39,-835.44 460,-789 461.77,-786.87 500.06,-725.49 519.86,-693.7"/>
<polygon fill="midnightblue" stroke="midnightblue" points="523.04,-695.22 525.35,-684.88 517.1,-691.52 523.04,-695.22"/>
</g>
<!-- Node39&#45;&gt;Node15 -->
<g id="edge52" class="edge">
<title>Node39&#45;&gt;Node15</title>
<path fill="none" stroke="midnightblue" d="M243.51,-860.83C282.99,-855.27 344.65,-844.09 360,-827 421.53,-758.5 426.75,-453.94 427.03,-372.23"/>
<polygon fill="midnightblue" stroke="midnightblue" points="430.53,-371.85 427.05,-361.85 423.53,-371.84 430.53,-371.85"/>
</g>
<!-- Node39&#45;&gt;Node20 -->
<g id="edge53" class="edge">
<title>Node39&#45;&gt;Node20</title>
<path fill="none" stroke="midnightblue" d="M215.7,-855.32C233.39,-827.69 284.32,-748.16 307.39,-712.13"/>
<polygon fill="midnightblue" stroke="midnightblue" points="310.42,-713.89 312.87,-703.58 304.53,-710.11 310.42,-713.89"/>
</g>
<!-- Node39&#45;&gt;Node23 -->
<g id="edge48" class="edge">
<title>Node39&#45;&gt;Node23</title>
<path fill="none" stroke="midnightblue" d="M210.54,-855.42C214.29,-825.19 229.67,-730.52 280,-675 281.18,-673.7 282.47,-672.47 283.85,-671.32"/>
<polygon fill="midnightblue" stroke="midnightblue" points="286.05,-674.06 292.36,-665.55 282.12,-668.27 286.05,-674.06"/>
</g>
<!-- Node39&#45;&gt;Node32 -->
<g id="edge49" class="edge">
<title>Node39&#45;&gt;Node32</title>
<path fill="none" stroke="midnightblue" d="M228.08,-855.33C245.56,-846.23 271.96,-832.48 291.82,-822.15"/>
<polygon fill="midnightblue" stroke="midnightblue" points="293.45,-825.25 300.7,-817.53 290.21,-819.04 293.45,-825.25"/>
</g>
<!-- Node40&#45;&gt;Node2 -->
<g id="edge55" class="edge">
<title>Node40&#45;&gt;Node2</title>
<path fill="none" stroke="midnightblue" d="M233.19,-567.77C265.45,-578.05 323.38,-600.35 360,-637 392.91,-669.94 412.67,-722.36 421.5,-750.54"/>
<polygon fill="midnightblue" stroke="midnightblue" points="418.23,-751.81 424.44,-760.39 424.93,-749.8 418.23,-751.81"/>
</g>
<!-- Node40&#45;&gt;Node3 -->
<g id="edge58" class="edge">
<title>Node40&#45;&gt;Node3</title>
<path fill="none" stroke="midnightblue" d="M233.26,-559.62C264.1,-558.81 318.83,-560.78 360,-581 433.23,-616.97 494.23,-696.49 519.28,-732.57"/>
<polygon fill="midnightblue" stroke="midnightblue" points="516.59,-734.84 525.11,-741.13 522.38,-730.9 516.59,-734.84"/>
</g>
<!-- Node40&#45;&gt;Node5 -->
<g id="edge59" class="edge">
<title>Node40&#45;&gt;Node5</title>
<path fill="none" stroke="midnightblue" d="M224.75,-551.45C238.58,-543.4 259.82,-532.49 280,-528 314.71,-520.28 326.65,-515.66 360,-528 430.6,-554.12 491.75,-623.71 517.92,-656.9"/>
<polygon fill="midnightblue" stroke="midnightblue" points="515.48,-659.46 524.36,-665.23 521.02,-655.18 515.48,-659.46"/>
</g>
<!-- Node40&#45;&gt;Node15 -->
<g id="edge60" class="edge">
<title>Node40&#45;&gt;Node15</title>
<path fill="none" stroke="midnightblue" d="M218.97,-551.25C232.41,-537.46 257.83,-511.56 280,-490 325.91,-445.36 381.27,-394.05 409.13,-368.4"/>
<polygon fill="midnightblue" stroke="midnightblue" points="411.55,-370.93 416.55,-361.58 406.82,-365.77 411.55,-370.93"/>
</g>
<!-- Node40&#45;&gt;Node20 -->
<g id="edge61" class="edge">
<title>Node40&#45;&gt;Node20</title>
<path fill="none" stroke="midnightblue" d="M213.32,-570.82C222.1,-592.28 245.65,-643.94 280,-675 281.51,-676.36 283.13,-677.65 284.83,-678.86"/>
<polygon fill="midnightblue" stroke="midnightblue" points="283.39,-682.09 293.75,-684.3 287.03,-676.11 283.39,-682.09"/>
</g>
<!-- Node40&#45;&gt;Node23 -->
<g id="edge56" class="edge">
<title>Node40&#45;&gt;Node23</title>
<path fill="none" stroke="midnightblue" d="M220.81,-570.81C239.59,-587.11 277.42,-619.93 300.25,-639.73"/>
<polygon fill="midnightblue" stroke="midnightblue" points="298.07,-642.48 307.92,-646.39 302.66,-637.19 298.07,-642.48"/>
</g>
<!-- Node40&#45;&gt;Node32 -->
<g id="edge57" class="edge">
<title>Node40&#45;&gt;Node32</title>
<path fill="none" stroke="midnightblue" d="M213.79,-570.68C230.15,-607.57 288.73,-739.71 310.65,-789.15"/>
<polygon fill="midnightblue" stroke="midnightblue" points="307.48,-790.66 314.74,-798.38 313.88,-787.82 307.48,-790.66"/>
</g>
</g>
</svg>
