<?xml version="1.0" encoding="UTF-8" standalone="no"?>
<!DOCTYPE svg PUBLIC "-//W3C//DTD SVG 1.1//EN"
 "http://www.w3.org/Graphics/SVG/1.1/DTD/svg11.dtd">
<!-- Generated by graphviz version 2.50.0 (20220203.2022)
 -->
<!-- Title: pushBiasSinex Pages: 1 -->
<svg width="592pt" height="294pt"
 viewBox="0.00 0.00 592.00 294.00" xmlns="http://www.w3.org/2000/svg" xmlns:xlink="http://www.w3.org/1999/xlink">
<g id="graph0" class="graph" transform="scale(1 1) rotate(0) translate(4 290)">
<title>pushBiasSinex</title>
<polygon fill="white" stroke="transparent" points="-4,4 -4,-290 588,-290 588,4 -4,4"/>
<!-- Node1 -->
<g id="node1" class="node">
<title>Node1</title>
<g id="a_node1"><a xlink:title="Push forward and reverse bias entry into the SINEXBiases map.">
<polygon fill="#bfbfbf" stroke="black" points="503,-133.5 503,-152.5 584,-152.5 584,-133.5 503,-133.5"/>
<text text-anchor="middle" x="543.5" y="-140.5" font-family="Helvetica,sans-Serif" font-size="10.00">pushBiasSinex</text>
</a>
</g>
</g>
<!-- Node2 -->
<g id="node2" class="node">
<title>Node2</title>
<g id="a_node2"><a xlink:href="biasSINEXread_8cpp.html#a100d336742ac00f1a748f2d363401b32" target="_top" xlink:title="Add default 0 values to DSBs between default signals, e.g.">
<polygon fill="white" stroke="black" points="189.5,-228.5 189.5,-247.5 296.5,-247.5 296.5,-228.5 189.5,-228.5"/>
<text text-anchor="middle" x="243" y="-235.5" font-family="Helvetica,sans-Serif" font-size="10.00">addDefaultBiasSinex</text>
</a>
</g>
</g>
<!-- Node1&#45;&gt;Node2 -->
<g id="edge1" class="edge">
<title>Node1&#45;&gt;Node2</title>
<path fill="none" stroke="midnightblue" d="M530.43,-161.13C517.22,-179.27 494.27,-206.27 467,-219 412.96,-244.23 343.55,-246.04 296.63,-243.44"/>
<polygon fill="midnightblue" stroke="midnightblue" points="533.55,-162.77 536.42,-152.57 527.82,-158.76 533.55,-162.77"/>
</g>
<!-- Node4 -->
<g id="node4" class="node">
<title>Node4</title>
<g id="a_node4"><a xlink:href="structRtcmDecoder.html#a187d2bf36da0d4de61f4c603b203b09f" target="_top" xlink:title=" ">
<polygon fill="white" stroke="black" points="177,-114.5 177,-133.5 309,-133.5 309,-114.5 177,-114.5"/>
<text text-anchor="middle" x="243" y="-121.5" font-family="Helvetica,sans-Serif" font-size="10.00">RtcmDecoder::decodeSSR</text>
</a>
</g>
</g>
<!-- Node1&#45;&gt;Node4 -->
<g id="edge3" class="edge">
<title>Node1&#45;&gt;Node4</title>
<path fill="none" stroke="midnightblue" d="M492.88,-139.84C442.6,-136.64 364.55,-131.67 309.27,-128.15"/>
<polygon fill="midnightblue" stroke="midnightblue" points="492.66,-143.33 502.86,-140.48 493.1,-136.35 492.66,-143.33"/>
</g>
<!-- Node10 -->
<g id="node6" class="node">
<title>Node10</title>
<g id="a_node6"><a xlink:href="biasSINEXread_8cpp.html#a063ba8fe35a80404ea27345b60592828" target="_top" xlink:title="Convert GAL BGDs into OSBs &amp; DSB.">
<polygon fill="white" stroke="black" points="359,-190.5 359,-209.5 466,-209.5 466,-190.5 359,-190.5"/>
<text text-anchor="middle" x="412.5" y="-197.5" font-family="Helvetica,sans-Serif" font-size="10.00">decomposeBGDBias</text>
</a>
</g>
</g>
<!-- Node1&#45;&gt;Node10 -->
<g id="edge5" class="edge">
<title>Node1&#45;&gt;Node10</title>
<path fill="none" stroke="midnightblue" d="M515.87,-157.43C501.58,-164.91 483.56,-173.93 467,-181 459.11,-184.37 450.41,-187.64 442.35,-190.5"/>
<polygon fill="midnightblue" stroke="midnightblue" points="517.9,-160.31 525.1,-152.54 514.62,-154.13 517.9,-160.31"/>
</g>
<!-- Node23 -->
<g id="node9" class="node">
<title>Node23</title>
<g id="a_node9"><a xlink:href="biasSINEXread_8cpp.html#a4189b53abc056c39f46bd56d0032b546" target="_top" xlink:title="Convert GPS/QZS TGD into OSBs &amp; DSB.">
<polygon fill="white" stroke="black" points="359,-152.5 359,-171.5 466,-171.5 466,-152.5 359,-152.5"/>
<text text-anchor="middle" x="412.5" y="-159.5" font-family="Helvetica,sans-Serif" font-size="10.00">decomposeTGDBias</text>
</a>
</g>
</g>
<!-- Node1&#45;&gt;Node23 -->
<g id="edge9" class="edge">
<title>Node1&#45;&gt;Node23</title>
<path fill="none" stroke="midnightblue" d="M492.74,-150.33C484.04,-151.61 474.96,-152.95 466.19,-154.24"/>
<polygon fill="midnightblue" stroke="midnightblue" points="493.36,-153.78 502.74,-148.86 492.34,-146.85 493.36,-153.78"/>
</g>
<!-- Node24 -->
<g id="node10" class="node">
<title>Node24</title>
<g id="a_node10"><a xlink:href="biasSINEXread_8cpp.html#a8f9b3ddb1206caaccd29bf540cf64846" target="_top" xlink:title="Initialise satellite DSBs between default signals, e.g.">
<polygon fill="white" stroke="black" points="365,-76.5 365,-95.5 460,-95.5 460,-76.5 365,-76.5"/>
<text text-anchor="middle" x="412.5" y="-83.5" font-family="Helvetica,sans-Serif" font-size="10.00">initialiseBiasSinex</text>
</a>
</g>
</g>
<!-- Node1&#45;&gt;Node24 -->
<g id="edge12" class="edge">
<title>Node1&#45;&gt;Node24</title>
<path fill="none" stroke="midnightblue" d="M511.68,-129.38C488.08,-118.95 456.12,-104.83 435.16,-95.57"/>
<polygon fill="midnightblue" stroke="midnightblue" points="510.35,-132.62 520.91,-133.46 513.18,-126.22 510.35,-132.62"/>
</g>
<!-- Node25 -->
<g id="node11" class="node">
<title>Node25</title>
<g id="a_node11"><a xlink:href="biasSINEXread_8cpp.html#afe3e2e7c8dbfe8bd5991dbbdac91ede2" target="_top" xlink:title="Read data line in bias SINEX file.">
<polygon fill="white" stroke="black" points="358,-38.5 358,-57.5 467,-57.5 467,-38.5 358,-38.5"/>
<text text-anchor="middle" x="412.5" y="-45.5" font-family="Helvetica,sans-Serif" font-size="10.00">read_biasSINEX_line</text>
</a>
</g>
</g>
<!-- Node1&#45;&gt;Node25 -->
<g id="edge13" class="edge">
<title>Node1&#45;&gt;Node25</title>
<path fill="none" stroke="midnightblue" d="M529.02,-125.43C515.12,-108.39 492.01,-82.86 467,-67 461.09,-63.25 454.34,-60.12 447.68,-57.56"/>
<polygon fill="midnightblue" stroke="midnightblue" points="526.44,-127.82 535.4,-133.47 531.92,-123.46 526.44,-127.82"/>
</g>
<!-- Node28 -->
<g id="node13" class="node">
<title>Node28</title>
<g id="a_node13"><a xlink:href="preceph_8cpp.html#afce393d951c02d5f6afc0dddf010bc92" target="_top" xlink:title=" ">
<polygon fill="white" stroke="black" points="387,-266.5 387,-285.5 438,-285.5 438,-266.5 387,-266.5"/>
<text text-anchor="middle" x="412.5" y="-273.5" font-family="Helvetica,sans-Serif" font-size="10.00">readdcb</text>
</a>
</g>
</g>
<!-- Node1&#45;&gt;Node28 -->
<g id="edge15" class="edge">
<title>Node1&#45;&gt;Node28</title>
<path fill="none" stroke="midnightblue" d="M533.55,-161.81C521.41,-185.6 497.67,-226.51 467,-252 458.62,-258.96 447.9,-264.3 438.26,-268.15"/>
<polygon fill="midnightblue" stroke="midnightblue" points="536.73,-163.28 538.03,-152.76 530.46,-160.17 536.73,-163.28"/>
</g>
<!-- Node29 -->
<g id="node15" class="node">
<title>Node29</title>
<g id="a_node15"><a xlink:href="ionex_8cpp.html#a8ebc2ddf815b9888aebc10af77fe7b18" target="_top" xlink:title=" ">
<polygon fill="white" stroke="black" points="375.5,-0.5 375.5,-19.5 449.5,-19.5 449.5,-0.5 375.5,-0.5"/>
<text text-anchor="middle" x="412.5" y="-7.5" font-family="Helvetica,sans-Serif" font-size="10.00">readionexdcb</text>
</a>
</g>
</g>
<!-- Node1&#45;&gt;Node29 -->
<g id="edge18" class="edge">
<title>Node1&#45;&gt;Node29</title>
<path fill="none" stroke="midnightblue" d="M534.59,-124C523.2,-98.86 499.87,-54.7 467,-29 461.88,-24.99 455.84,-21.79 449.7,-19.24"/>
<polygon fill="midnightblue" stroke="midnightblue" points="531.4,-125.45 538.61,-133.22 537.82,-122.65 531.4,-125.45"/>
</g>
<!-- Node3 -->
<g id="node3" class="node">
<title>Node3</title>
<g id="a_node3"><a xlink:href="main_8cpp.html#a30c68344d30ddfe1e926f8472b86f094" target="_top" xlink:title=" ">
<polygon fill="white" stroke="black" points="12.5,-247.5 12.5,-266.5 115.5,-266.5 115.5,-247.5 12.5,-247.5"/>
<text text-anchor="middle" x="64" y="-254.5" font-family="Helvetica,sans-Serif" font-size="10.00">mainOncePerEpoch</text>
</a>
</g>
</g>
<!-- Node2&#45;&gt;Node3 -->
<g id="edge2" class="edge">
<title>Node2&#45;&gt;Node3</title>
<path fill="none" stroke="midnightblue" d="M179.31,-244.73C158.43,-246.97 135.45,-249.44 115.6,-251.57"/>
<polygon fill="midnightblue" stroke="midnightblue" points="179.8,-248.2 189.37,-243.65 179.06,-241.24 179.8,-248.2"/>
</g>
<!-- Node5 -->
<g id="node5" class="node">
<title>Node5</title>
<g id="a_node5"><a xlink:href="structRtcmStream.html#a34a7a941dab214b7ff6b17e8a53eb55a" target="_top" xlink:title=" ">
<polygon fill="white" stroke="red" points="0,-171.5 0,-190.5 128,-190.5 128,-171.5 0,-171.5"/>
<text text-anchor="middle" x="64" y="-178.5" font-family="Helvetica,sans-Serif" font-size="10.00">RtcmStream::parseRTCM</text>
</a>
</g>
</g>
<!-- Node4&#45;&gt;Node5 -->
<g id="edge4" class="edge">
<title>Node4&#45;&gt;Node5</title>
<path fill="none" stroke="midnightblue" d="M188.47,-136.08C180.23,-138.22 171.85,-140.55 164,-143 137.29,-151.34 107.4,-163.17 87.52,-171.41"/>
<polygon fill="midnightblue" stroke="midnightblue" points="189.57,-139.41 198.41,-133.58 187.86,-132.63 189.57,-139.41"/>
</g>
<!-- Node11 -->
<g id="node7" class="node">
<title>Node11</title>
<g id="a_node7"><a xlink:href="rinex_8cpp.html#afb57cdb7cbbb718d96f87e59bb9baa1d" target="_top" xlink:title=" ">
<polygon fill="white" stroke="red" points="208.5,-152.5 208.5,-171.5 277.5,-171.5 277.5,-152.5 208.5,-152.5"/>
<text text-anchor="middle" x="243" y="-159.5" font-family="Helvetica,sans-Serif" font-size="10.00">decode_eph</text>
</a>
</g>
</g>
<!-- Node10&#45;&gt;Node11 -->
<g id="edge6" class="edge">
<title>Node10&#45;&gt;Node11</title>
<path fill="none" stroke="midnightblue" d="M359.28,-188.15C332.61,-182.1 300.94,-174.92 277.55,-169.61"/>
<polygon fill="midnightblue" stroke="midnightblue" points="358.71,-191.61 369.23,-190.41 360.25,-184.79 358.71,-191.61"/>
</g>
<!-- Node22 -->
<g id="node8" class="node">
<title>Node22</title>
<g id="a_node8"><a xlink:href="structRtcmDecoder.html#a6673aa5a16d7e997de9ce5e43fac7860" target="_top" xlink:title=" ">
<polygon fill="white" stroke="black" points="164,-190.5 164,-209.5 322,-209.5 322,-190.5 164,-190.5"/>
<text text-anchor="middle" x="243" y="-197.5" font-family="Helvetica,sans-Serif" font-size="10.00">RtcmDecoder::decodeEphemeris</text>
</a>
</g>
</g>
<!-- Node10&#45;&gt;Node22 -->
<g id="edge7" class="edge">
<title>Node10&#45;&gt;Node22</title>
<path fill="none" stroke="midnightblue" d="M348.89,-200C340.15,-200 331.09,-200 322.12,-200"/>
<polygon fill="midnightblue" stroke="midnightblue" points="348.96,-203.5 358.96,-200 348.96,-196.5 348.96,-203.5"/>
</g>
<!-- Node22&#45;&gt;Node5 -->
<g id="edge8" class="edge">
<title>Node22&#45;&gt;Node5</title>
<path fill="none" stroke="midnightblue" d="M153.73,-190.52C145.09,-189.6 136.45,-188.67 128.13,-187.78"/>
<polygon fill="midnightblue" stroke="midnightblue" points="153.53,-194.02 163.85,-191.61 154.28,-187.06 153.53,-194.02"/>
</g>
<!-- Node23&#45;&gt;Node11 -->
<g id="edge10" class="edge">
<title>Node23&#45;&gt;Node11</title>
<path fill="none" stroke="midnightblue" d="M348.79,-162C324.65,-162 298.01,-162 277.63,-162"/>
<polygon fill="midnightblue" stroke="midnightblue" points="348.96,-165.5 358.96,-162 348.96,-158.5 348.96,-165.5"/>
</g>
<!-- Node23&#45;&gt;Node22 -->
<g id="edge11" class="edge">
<title>Node23&#45;&gt;Node22</title>
<path fill="none" stroke="midnightblue" d="M359.38,-173.82C335.77,-179.18 308.22,-185.43 285.96,-190.48"/>
<polygon fill="midnightblue" stroke="midnightblue" points="360.25,-177.21 369.23,-171.59 358.71,-170.39 360.25,-177.21"/>
</g>
<!-- Node26 -->
<g id="node12" class="node">
<title>Node26</title>
<g id="a_node12"><a xlink:href="biasSINEXread_8cpp.html#a9e282accccd8c78b498a291eff1720a5" target="_top" xlink:title="Read single bias SINEX file.">
<polygon fill="white" stroke="red" points="203,-38.5 203,-57.5 283,-57.5 283,-38.5 203,-38.5"/>
<text text-anchor="middle" x="243" y="-45.5" font-family="Helvetica,sans-Serif" font-size="10.00">read_biasnx_fil</text>
</a>
</g>
</g>
<!-- Node25&#45;&gt;Node26 -->
<g id="edge14" class="edge">
<title>Node25&#45;&gt;Node26</title>
<path fill="none" stroke="midnightblue" d="M347.47,-48C325.83,-48 302.34,-48 283.21,-48"/>
<polygon fill="midnightblue" stroke="midnightblue" points="347.58,-51.5 357.58,-48 347.58,-44.5 347.58,-51.5"/>
</g>
<!-- Node18 -->
<g id="node14" class="node">
<title>Node18</title>
<g id="a_node14"><a xlink:href="main_8cpp.html#a414f34e8bd65aa4d83398bab54236157" target="_top" xlink:title=" ">
<polygon fill="white" stroke="black" points="200,-266.5 200,-285.5 286,-285.5 286,-266.5 200,-266.5"/>
<text text-anchor="middle" x="243" y="-273.5" font-family="Helvetica,sans-Serif" font-size="10.00">reloadInputFiles</text>
</a>
</g>
</g>
<!-- Node28&#45;&gt;Node18 -->
<g id="edge16" class="edge">
<title>Node28&#45;&gt;Node18</title>
<path fill="none" stroke="midnightblue" d="M376.51,-276C350.17,-276 313.95,-276 286.04,-276"/>
<polygon fill="midnightblue" stroke="midnightblue" points="376.78,-279.5 386.78,-276 376.78,-272.5 376.78,-279.5"/>
</g>
<!-- Node18&#45;&gt;Node3 -->
<g id="edge17" class="edge">
<title>Node18&#45;&gt;Node3</title>
<path fill="none" stroke="midnightblue" d="M189.52,-270.37C166.13,-267.86 138.7,-264.91 115.55,-262.43"/>
<polygon fill="midnightblue" stroke="midnightblue" points="189.29,-273.86 199.6,-271.45 190.03,-266.9 189.29,-273.86"/>
</g>
<!-- Node30 -->
<g id="node16" class="node">
<title>Node30</title>
<g id="a_node16"><a xlink:href="ionex_8cpp.html#afdcbf04d795ae58834df5e2c38c68907" target="_top" xlink:title=" ">
<polygon fill="white" stroke="red" points="211.5,-0.5 211.5,-19.5 274.5,-19.5 274.5,-0.5 211.5,-0.5"/>
<text text-anchor="middle" x="243" y="-7.5" font-family="Helvetica,sans-Serif" font-size="10.00">readionexh</text>
</a>
</g>
</g>
<!-- Node29&#45;&gt;Node30 -->
<g id="edge19" class="edge">
<title>Node29&#45;&gt;Node30</title>
<path fill="none" stroke="midnightblue" d="M364.9,-10C336.08,-10 299.9,-10 274.66,-10"/>
<polygon fill="midnightblue" stroke="midnightblue" points="365.16,-13.5 375.15,-10 365.15,-6.5 365.16,-13.5"/>
</g>
</g>
</svg>
