<?xml version="1.0" encoding="UTF-8" standalone="no"?>
<!DOCTYPE svg PUBLIC "-//W3C//DTD SVG 1.1//EN"
 "http://www.w3.org/Graphics/SVG/1.1/DTD/svg11.dtd">
<!-- Generated by graphviz version 2.50.0 (20220203.2022)
 -->
<!-- Title: initialiseBiasSinex Pages: 1 -->
<svg width="220pt" height="66pt"
 viewBox="0.00 0.00 220.00 66.00" xmlns="http://www.w3.org/2000/svg" xmlns:xlink="http://www.w3.org/1999/xlink">
<g id="graph0" class="graph" transform="scale(1 1) rotate(0) translate(4 62)">
<title>initialiseBiasSinex</title>
<polygon fill="white" stroke="transparent" points="-4,4 -4,-62 216,-62 216,4 -4,4"/>
<!-- Node1 -->
<g id="node1" class="node">
<title>Node1</title>
<g id="a_node1"><a xlink:title="Initialise satellite DSBs between default signals, e.g.">
<polygon fill="#bfbfbf" stroke="black" points="0,-19.5 0,-38.5 95,-38.5 95,-19.5 0,-19.5"/>
<text text-anchor="middle" x="47.5" y="-26.5" font-family="Helvetica,sans-Serif" font-size="10.00">initialiseBiasSinex</text>
</a>
</g>
</g>
<!-- Node2 -->
<g id="node2" class="node">
<title>Node2</title>
<g id="a_node2"><a xlink:href="satSys_8cpp.html#aae80f3401dd26548c7b0b83c1e25e499" target="_top" xlink:title="Get all satellites of target system.">
<polygon fill="white" stroke="black" points="138,-38.5 138,-57.5 205,-57.5 205,-38.5 138,-38.5"/>
<text text-anchor="middle" x="171.5" y="-45.5" font-family="Helvetica,sans-Serif" font-size="10.00">getSysSats</text>
</a>
</g>
</g>
<!-- Node1&#45;&gt;Node2 -->
<g id="edge1" class="edge">
<title>Node1&#45;&gt;Node2</title>
<path fill="none" stroke="midnightblue" d="M95.32,-36.29C106,-37.96 117.3,-39.72 127.8,-41.35"/>
<polygon fill="midnightblue" stroke="midnightblue" points="127.57,-44.86 137.99,-42.94 128.64,-37.94 127.57,-44.86"/>
</g>
<!-- Node3 -->
<g id="node3" class="node">
<title>Node3</title>
<g id="a_node3"><a xlink:href="biasSINEXread_8cpp.html#a6a51f9914e96ab2fec060c9463b86ae4" target="_top" xlink:title="Push forward and reverse bias entry into the SINEXBiases map.">
<polygon fill="white" stroke="black" points="131,-0.5 131,-19.5 212,-19.5 212,-0.5 131,-0.5"/>
<text text-anchor="middle" x="171.5" y="-7.5" font-family="Helvetica,sans-Serif" font-size="10.00">pushBiasSinex</text>
</a>
</g>
</g>
<!-- Node1&#45;&gt;Node3 -->
<g id="edge2" class="edge">
<title>Node1&#45;&gt;Node3</title>
<path fill="none" stroke="midnightblue" d="M95.32,-21.71C103.63,-20.41 112.32,-19.06 120.71,-17.75"/>
<polygon fill="midnightblue" stroke="midnightblue" points="121.41,-21.19 130.75,-16.19 120.33,-14.27 121.41,-21.19"/>
</g>
</g>
</svg>
