<?xml version="1.0" encoding="UTF-8" standalone="no"?>
<!DOCTYPE svg PUBLIC "-//W3C//DTD SVG 1.1//EN"
 "http://www.w3.org/Graphics/SVG/1.1/DTD/svg11.dtd">
<!-- Generated by graphviz version 2.50.0 (20220203.2022)
 -->
<!-- Title: getBiasSinex Pages: 1 -->
<svg width="416pt" height="160pt"
 viewBox="0.00 0.00 416.00 160.00" xmlns="http://www.w3.org/2000/svg" xmlns:xlink="http://www.w3.org/1999/xlink">
<g id="graph0" class="graph" transform="scale(1 1) rotate(0) translate(4 156)">
<title>getBiasSinex</title>
<polygon fill="white" stroke="transparent" points="-4,4 -4,-156 412,-156 412,4 -4,4"/>
<!-- Node1 -->
<g id="node1" class="node">
<title>Node1</title>
<g id="a_node1"><a xlink:title="Search for hardware biases in phase and code.">
<polygon fill="#bfbfbf" stroke="black" points="0,-57.5 0,-76.5 74,-76.5 74,-57.5 0,-57.5"/>
<text text-anchor="middle" x="37" y="-64.5" font-family="Helvetica,sans-Serif" font-size="10.00">getBiasSinex</text>
</a>
</g>
</g>
<!-- Node2 -->
<g id="node2" class="node">
<title>Node2</title>
<g id="a_node2"><a xlink:href="biasSINEXread_8cpp.html#a4ccebd721f67990485d488f06eb69ab5" target="_top" xlink:title="Search for hardware bias for given measurmenet type.">
<polygon fill="white" stroke="black" points="117,-114.5 117,-133.5 167,-133.5 167,-114.5 117,-114.5"/>
<text text-anchor="middle" x="142" y="-121.5" font-family="Helvetica,sans-Serif" font-size="10.00">getBias</text>
</a>
</g>
</g>
<!-- Node1&#45;&gt;Node2 -->
<g id="edge1" class="edge">
<title>Node1&#45;&gt;Node2</title>
<path fill="none" stroke="midnightblue" d="M55.47,-76.67C71.77,-85.69 96.31,-99.27 114.92,-109.57"/>
<polygon fill="midnightblue" stroke="midnightblue" points="113.34,-112.69 123.79,-114.47 116.73,-106.57 113.34,-112.69"/>
</g>
<!-- Node6 -->
<g id="node4" class="node">
<title>Node6</title>
<g id="a_node4"><a xlink:href="structSatSys.html#aec6d07b90d1e8172b8b6a6966abef4fd" target="_top" xlink:title="Returns a std::string of this satellite&#39;s id.">
<polygon fill="white" stroke="black" points="112,-76.5 112,-95.5 172,-95.5 172,-76.5 112,-76.5"/>
<text text-anchor="middle" x="142" y="-83.5" font-family="Helvetica,sans-Serif" font-size="10.00">SatSys::id</text>
</a>
</g>
</g>
<!-- Node1&#45;&gt;Node6 -->
<g id="edge4" class="edge">
<title>Node1&#45;&gt;Node6</title>
<path fill="none" stroke="midnightblue" d="M74.02,-73.65C83.04,-75.31 92.76,-77.1 101.92,-78.79"/>
<polygon fill="midnightblue" stroke="midnightblue" points="101.49,-82.27 111.96,-80.64 102.76,-75.39 101.49,-82.27"/>
</g>
<!-- Node8 -->
<g id="node6" class="node">
<title>Node8</title>
<g id="a_node6"><a xlink:href="structSatSys.html#abfd7e43b0d57c2718d05ca595ee360dd" target="_top" xlink:title="Returns the character used as a prefix for this system.">
<polygon fill="white" stroke="black" points="320,-57.5 320,-76.5 408,-76.5 408,-57.5 320,-57.5"/>
<text text-anchor="middle" x="364" y="-64.5" font-family="Helvetica,sans-Serif" font-size="10.00">SatSys::sysChar</text>
</a>
</g>
</g>
<!-- Node1&#45;&gt;Node8 -->
<g id="edge7" class="edge">
<title>Node1&#45;&gt;Node8</title>
<path fill="none" stroke="midnightblue" d="M74.02,-67C131.2,-67 243.07,-67 309.59,-67"/>
<polygon fill="midnightblue" stroke="midnightblue" points="309.87,-70.5 319.87,-67 309.87,-63.5 309.87,-70.5"/>
</g>
<!-- Node9 -->
<g id="node7" class="node">
<title>Node9</title>
<g id="a_node7"><a xlink:href="streamTrace_8cpp.html#ae00e6addd3bdf3a7fd41a254eb9aec89" target="_top" xlink:title=" ">
<polygon fill="white" stroke="black" points="110,-0.5 110,-19.5 174,-19.5 174,-0.5 110,-0.5"/>
<text text-anchor="middle" x="142" y="-7.5" font-family="Helvetica,sans-Serif" font-size="10.00">tracepdeex</text>
</a>
</g>
</g>
<!-- Node1&#45;&gt;Node9 -->
<g id="edge8" class="edge">
<title>Node1&#45;&gt;Node9</title>
<path fill="none" stroke="midnightblue" d="M55.47,-57.33C71.77,-48.31 96.31,-34.73 114.92,-24.43"/>
<polygon fill="midnightblue" stroke="midnightblue" points="116.73,-27.43 123.79,-19.53 113.34,-21.31 116.73,-27.43"/>
</g>
<!-- Node3 -->
<g id="node3" class="node">
<title>Node3</title>
<g id="a_node3"><a xlink:href="biasSINEXread_8cpp.html#a13d2a6b0ea3e17f103315f1f8a30b7c8" target="_top" xlink:title="Recurser of bias chaining, i.e.">
<polygon fill="white" stroke="red" points="210,-114.5 210,-133.5 284,-133.5 284,-114.5 210,-114.5"/>
<text text-anchor="middle" x="247" y="-121.5" font-family="Helvetica,sans-Serif" font-size="10.00">biasRecurser</text>
</a>
</g>
</g>
<!-- Node2&#45;&gt;Node3 -->
<g id="edge2" class="edge">
<title>Node2&#45;&gt;Node3</title>
<path fill="none" stroke="midnightblue" d="M167.15,-124C176.89,-124 188.47,-124 199.72,-124"/>
<polygon fill="midnightblue" stroke="midnightblue" points="199.89,-127.5 209.89,-124 199.89,-120.5 199.89,-127.5"/>
</g>
<!-- Node3&#45;&gt;Node3 -->
<g id="edge3" class="edge">
<title>Node3&#45;&gt;Node3</title>
<path fill="none" stroke="midnightblue" d="M230.97,-133.76C223.17,-142.57 228.52,-152 247,-152 258.55,-152 264.97,-148.31 266.26,-143.4"/>
<polygon fill="midnightblue" stroke="midnightblue" points="269.52,-142.13 263.03,-133.76 262.89,-144.35 269.52,-142.13"/>
</g>
<!-- Node7 -->
<g id="node5" class="node">
<title>Node7</title>
<g id="a_node5"><a xlink:href="structSatSys.html#adbdf98ba1ef1f22b6aaed93916529513" target="_top" xlink:title="Sets a 4 character c_string of this satellite&#39;s id.">
<polygon fill="white" stroke="black" points="210,-76.5 210,-95.5 284,-95.5 284,-76.5 210,-76.5"/>
<text text-anchor="middle" x="247" y="-83.5" font-family="Helvetica,sans-Serif" font-size="10.00">SatSys::getId</text>
</a>
</g>
</g>
<!-- Node6&#45;&gt;Node7 -->
<g id="edge5" class="edge">
<title>Node6&#45;&gt;Node7</title>
<path fill="none" stroke="midnightblue" d="M172.24,-86C180.71,-86 190.17,-86 199.42,-86"/>
<polygon fill="midnightblue" stroke="midnightblue" points="199.71,-89.5 209.71,-86 199.71,-82.5 199.71,-89.5"/>
</g>
<!-- Node7&#45;&gt;Node8 -->
<g id="edge6" class="edge">
<title>Node7&#45;&gt;Node8</title>
<path fill="none" stroke="midnightblue" d="M284.07,-80.04C292.21,-78.7 301.03,-77.24 309.71,-75.8"/>
<polygon fill="midnightblue" stroke="midnightblue" points="310.5,-79.22 319.8,-74.14 309.36,-72.31 310.5,-79.22"/>
</g>
</g>
</svg>
