<?xml version="1.0" encoding="UTF-8" standalone="no"?>
<!DOCTYPE svg PUBLIC "-//W3C//DTD SVG 1.1//EN"
 "http://www.w3.org/Graphics/SVG/1.1/DTD/svg11.dtd">
<!-- Generated by graphviz version 2.50.0 (20220203.2022)
 -->
<!-- Title: write_bSINEX_line Pages: 1 -->
<svg width="483pt" height="312pt"
 viewBox="0.00 0.00 483.00 312.00" xmlns="http://www.w3.org/2000/svg" xmlns:xlink="http://www.w3.org/1999/xlink">
<g id="graph0" class="graph" transform="scale(1 1) rotate(0) translate(4 308)">
<title>write_bSINEX_line</title>
<polygon fill="white" stroke="transparent" points="-4,4 -4,-308 479,-308 479,4 -4,4"/>
<!-- Node1 -->
<g id="node1" class="node">
<title>Node1</title>
<g id="a_node1"><a xlink:title="print bias SINEX data line">
<polygon fill="#bfbfbf" stroke="black" points="0,-151.5 0,-170.5 98,-170.5 98,-151.5 0,-151.5"/>
<text text-anchor="middle" x="49" y="-158.5" font-family="Helvetica,sans-Serif" font-size="10.00">write_bSINEX_line</text>
</a>
</g>
</g>
<!-- Node2 -->
<g id="node2" class="node">
<title>Node2</title>
<g id="a_node2"><a xlink:href="biasSINEXwrite_8cpp.html#a961567e1b6659842a971db2d3cc759fc" target="_top" xlink:title="Determine if the bias is an OSB or DSB given observation codes.">
<polygon fill="white" stroke="black" points="156.5,-284.5 156.5,-303.5 212.5,-303.5 212.5,-284.5 156.5,-284.5"/>
<text text-anchor="middle" x="184.5" y="-291.5" font-family="Helvetica,sans-Serif" font-size="10.00">biasType</text>
</a>
</g>
</g>
<!-- Node1&#45;&gt;Node2 -->
<g id="edge1" class="edge">
<title>Node1&#45;&gt;Node2</title>
<path fill="none" stroke="midnightblue" d="M54.69,-170.7C65.62,-192.38 94.89,-245.2 134,-275 137.91,-277.98 142.35,-280.55 146.92,-282.74"/>
<polygon fill="midnightblue" stroke="midnightblue" points="145.79,-286.06 156.36,-286.73 148.51,-279.61 145.79,-286.06"/>
</g>
<!-- Node3 -->
<g id="node3" class="node">
<title>Node3</title>
<g id="a_node3"><a xlink:href="biasSINEXread_8cpp.html#a32bf3bf3416755b184c8759cc994f529" target="_top" xlink:title="Convert enum observation code to code string.">
<polygon fill="white" stroke="black" points="157.5,-246.5 157.5,-265.5 211.5,-265.5 211.5,-246.5 157.5,-246.5"/>
<text text-anchor="middle" x="184.5" y="-253.5" font-family="Helvetica,sans-Serif" font-size="10.00">code2str</text>
</a>
</g>
</g>
<!-- Node1&#45;&gt;Node3 -->
<g id="edge2" class="edge">
<title>Node1&#45;&gt;Node3</title>
<path fill="none" stroke="midnightblue" d="M58.42,-170.64C72.61,-186.41 102.83,-217.85 134,-237 138.4,-239.7 143.24,-242.13 148.13,-244.28"/>
<polygon fill="midnightblue" stroke="midnightblue" points="146.88,-247.55 157.47,-248.06 149.51,-241.06 146.88,-247.55"/>
</g>
<!-- Node4 -->
<g id="node4" class="node">
<title>Node4</title>
<g id="a_node4"><a xlink:href="structSatSys.html#aec6d07b90d1e8172b8b6a6966abef4fd" target="_top" xlink:title="Returns a std::string of this satellite&#39;s id.">
<polygon fill="white" stroke="black" points="154.5,-208.5 154.5,-227.5 214.5,-227.5 214.5,-208.5 154.5,-208.5"/>
<text text-anchor="middle" x="184.5" y="-215.5" font-family="Helvetica,sans-Serif" font-size="10.00">SatSys::id</text>
</a>
</g>
</g>
<!-- Node1&#45;&gt;Node4 -->
<g id="edge3" class="edge">
<title>Node1&#45;&gt;Node4</title>
<path fill="none" stroke="midnightblue" d="M72.34,-170.54C94.1,-179.83 127.37,-194.04 151.85,-204.49"/>
<polygon fill="midnightblue" stroke="midnightblue" points="150.51,-207.72 161.08,-208.43 153.26,-201.28 150.51,-207.72"/>
</g>
<!-- Node6 -->
<g id="node6" class="node">
<title>Node6</title>
<g id="a_node6"><a xlink:href="structSatSys.html#abfd7e43b0d57c2718d05ca595ee360dd" target="_top" xlink:title="Returns the character used as a prefix for this system.">
<polygon fill="white" stroke="black" points="387,-189.5 387,-208.5 475,-208.5 475,-189.5 387,-189.5"/>
<text text-anchor="middle" x="431" y="-196.5" font-family="Helvetica,sans-Serif" font-size="10.00">SatSys::sysChar</text>
</a>
</g>
</g>
<!-- Node1&#45;&gt;Node6 -->
<g id="edge10" class="edge">
<title>Node1&#45;&gt;Node6</title>
<path fill="none" stroke="midnightblue" d="M98.13,-165.81C169.46,-172.95 302.79,-186.28 376.9,-193.69"/>
<polygon fill="midnightblue" stroke="midnightblue" points="376.65,-197.18 386.95,-194.69 377.34,-190.22 376.65,-197.18"/>
</g>
<!-- Node7 -->
<g id="node7" class="node">
<title>Node7</title>
<g id="a_node7"><a xlink:href="biasSINEXwrite_8cpp.html#a39dff45cfb618319d83537ea39018e82" target="_top" xlink:title="convert time to yds (doy in bias SINEX starts at 1)">
<polygon fill="white" stroke="black" points="153,-132.5 153,-151.5 216,-151.5 216,-132.5 153,-132.5"/>
<text text-anchor="middle" x="184.5" y="-139.5" font-family="Helvetica,sans-Serif" font-size="10.00">sinex_time</text>
</a>
</g>
</g>
<!-- Node1&#45;&gt;Node7 -->
<g id="edge6" class="edge">
<title>Node1&#45;&gt;Node7</title>
<path fill="none" stroke="midnightblue" d="M98.2,-154.14C112.72,-152.07 128.51,-149.83 142.52,-147.83"/>
<polygon fill="midnightblue" stroke="midnightblue" points="143.42,-151.24 152.83,-146.36 142.44,-144.31 143.42,-151.24"/>
</g>
<!-- Node10 -->
<g id="node10" class="node">
<title>Node10</title>
<g id="a_node10"><a xlink:href="structSatSys.html#a1da3994cf03ff0ec115928954c9307bb" target="_top" xlink:title=" ">
<polygon fill="white" stroke="black" points="150.5,-94.5 150.5,-113.5 218.5,-113.5 218.5,-94.5 150.5,-94.5"/>
<text text-anchor="middle" x="184.5" y="-101.5" font-family="Helvetica,sans-Serif" font-size="10.00">SatSys::svn</text>
</a>
</g>
</g>
<!-- Node1&#45;&gt;Node10 -->
<g id="edge9" class="edge">
<title>Node1&#45;&gt;Node10</title>
<path fill="none" stroke="midnightblue" d="M70.22,-151.45C87.15,-143.56 111.99,-132.19 134,-123 138.54,-121.1 143.34,-119.17 148.1,-117.3"/>
<polygon fill="midnightblue" stroke="midnightblue" points="149.64,-120.46 157.7,-113.58 147.11,-113.93 149.64,-120.46"/>
</g>
<!-- Node11 -->
<g id="node11" class="node">
<title>Node11</title>
<g id="a_node11"><a xlink:href="streamTrace_8cpp.html#a755e8144b75554c3f9f4407284f37437" target="_top" xlink:title=" ">
<polygon fill="white" stroke="black" points="134,-38.5 134,-57.5 235,-57.5 235,-38.5 134,-38.5"/>
<text text-anchor="middle" x="184.5" y="-45.5" font-family="Helvetica,sans-Serif" font-size="10.00">traceFormatedFloat</text>
</a>
</g>
</g>
<!-- Node1&#45;&gt;Node11 -->
<g id="edge11" class="edge">
<title>Node1&#45;&gt;Node11</title>
<path fill="none" stroke="midnightblue" d="M60.07,-151.32C75.57,-136.56 106.36,-107.75 134,-85 142.82,-77.74 152.87,-70.12 161.6,-63.69"/>
<polygon fill="midnightblue" stroke="midnightblue" points="163.77,-66.44 169.79,-57.72 159.65,-60.78 163.77,-66.44"/>
</g>
<!-- Node13 -->
<g id="node13" class="node">
<title>Node13</title>
<g id="a_node13"><a xlink:href="streamTrace_8cpp.html#ae00e6addd3bdf3a7fd41a254eb9aec89" target="_top" xlink:title=" ">
<polygon fill="white" stroke="black" points="279,-0.5 279,-19.5 343,-19.5 343,-0.5 279,-0.5"/>
<text text-anchor="middle" x="311" y="-7.5" font-family="Helvetica,sans-Serif" font-size="10.00">tracepdeex</text>
</a>
</g>
</g>
<!-- Node1&#45;&gt;Node13 -->
<g id="edge15" class="edge">
<title>Node1&#45;&gt;Node13</title>
<path fill="none" stroke="midnightblue" d="M52.92,-151.24C61.04,-126.01 86.47,-58.52 134,-29 174.57,-3.8 230.73,-2.19 268.61,-4.82"/>
<polygon fill="midnightblue" stroke="midnightblue" points="268.53,-8.33 278.78,-5.66 269.11,-1.35 268.53,-8.33"/>
</g>
<!-- Node5 -->
<g id="node5" class="node">
<title>Node5</title>
<g id="a_node5"><a xlink:href="structSatSys.html#adbdf98ba1ef1f22b6aaed93916529513" target="_top" xlink:title="Sets a 4 character c_string of this satellite&#39;s id.">
<polygon fill="white" stroke="black" points="274,-208.5 274,-227.5 348,-227.5 348,-208.5 274,-208.5"/>
<text text-anchor="middle" x="311" y="-215.5" font-family="Helvetica,sans-Serif" font-size="10.00">SatSys::getId</text>
</a>
</g>
</g>
<!-- Node4&#45;&gt;Node5 -->
<g id="edge4" class="edge">
<title>Node4&#45;&gt;Node5</title>
<path fill="none" stroke="midnightblue" d="M214.69,-218C229.19,-218 247.07,-218 263.41,-218"/>
<polygon fill="midnightblue" stroke="midnightblue" points="263.87,-221.5 273.87,-218 263.87,-214.5 263.87,-221.5"/>
</g>
<!-- Node5&#45;&gt;Node6 -->
<g id="edge5" class="edge">
<title>Node5&#45;&gt;Node6</title>
<path fill="none" stroke="midnightblue" d="M348.05,-212.2C357.1,-210.74 367.01,-209.14 376.71,-207.58"/>
<polygon fill="midnightblue" stroke="midnightblue" points="377.38,-211.02 386.7,-205.97 376.27,-204.11 377.38,-211.02"/>
</g>
<!-- Node8 -->
<g id="node8" class="node">
<title>Node8</title>
<g id="a_node8"><a xlink:href="gTime_8cpp.html#aa46173b9085096882d09e53d96e9dc41" target="_top" xlink:title=" ">
<polygon fill="white" stroke="black" points="277.5,-132.5 277.5,-151.5 344.5,-151.5 344.5,-132.5 277.5,-132.5"/>
<text text-anchor="middle" x="311" y="-139.5" font-family="Helvetica,sans-Serif" font-size="10.00">epoch2time</text>
</a>
</g>
</g>
<!-- Node7&#45;&gt;Node8 -->
<g id="edge7" class="edge">
<title>Node7&#45;&gt;Node8</title>
<path fill="none" stroke="midnightblue" d="M216.28,-142C231.66,-142 250.53,-142 267.29,-142"/>
<polygon fill="midnightblue" stroke="midnightblue" points="267.4,-145.5 277.4,-142 267.4,-138.5 267.4,-145.5"/>
</g>
<!-- Node9 -->
<g id="node9" class="node">
<title>Node9</title>
<g id="a_node9"><a xlink:href="gTime_8cpp.html#a7a747c44ca37f2ebe379fc4309d3cfba" target="_top" xlink:title=" ">
<polygon fill="white" stroke="black" points="277.5,-94.5 277.5,-113.5 344.5,-113.5 344.5,-94.5 277.5,-94.5"/>
<text text-anchor="middle" x="311" y="-101.5" font-family="Helvetica,sans-Serif" font-size="10.00">time2epoch</text>
</a>
</g>
</g>
<!-- Node7&#45;&gt;Node9 -->
<g id="edge8" class="edge">
<title>Node7&#45;&gt;Node9</title>
<path fill="none" stroke="midnightblue" d="M216.28,-132.61C232.17,-127.76 251.77,-121.77 268.94,-116.53"/>
<polygon fill="midnightblue" stroke="midnightblue" points="270.17,-119.82 278.71,-113.55 268.13,-113.12 270.17,-119.82"/>
</g>
<!-- Node12 -->
<g id="node12" class="node">
<title>Node12</title>
<g id="a_node12"><a xlink:href="namespacepod__yaml.html#a59ea539cabb34ef7985e7e57c4b9dd93" target="_top" xlink:title=" ">
<polygon fill="white" stroke="black" points="271,-38.5 271,-57.5 351,-57.5 351,-38.5 271,-38.5"/>
<text text-anchor="middle" x="311" y="-45.5" font-family="Helvetica,sans-Serif" font-size="10.00">pod_yaml::pow</text>
</a>
</g>
</g>
<!-- Node11&#45;&gt;Node12 -->
<g id="edge12" class="edge">
<title>Node11&#45;&gt;Node12</title>
<path fill="none" stroke="midnightblue" d="M235.06,-48C243.55,-48 252.36,-48 260.84,-48"/>
<polygon fill="midnightblue" stroke="midnightblue" points="260.96,-51.5 270.96,-48 260.96,-44.5 260.96,-51.5"/>
</g>
<!-- Node11&#45;&gt;Node13 -->
<g id="edge14" class="edge">
<title>Node11&#45;&gt;Node13</title>
<path fill="none" stroke="midnightblue" d="M216.92,-38.41C232.69,-33.6 252.01,-27.7 268.94,-22.53"/>
<polygon fill="midnightblue" stroke="midnightblue" points="270.05,-25.85 278.59,-19.59 268.01,-19.16 270.05,-25.85"/>
</g>
<!-- Node12&#45;&gt;Node12 -->
<g id="edge13" class="edge">
<title>Node12&#45;&gt;Node12</title>
<path fill="none" stroke="midnightblue" d="M292.5,-57.76C283.51,-66.57 289.67,-76 311,-76 324.66,-76 332.1,-72.13 333.32,-67.03"/>
<polygon fill="midnightblue" stroke="midnightblue" points="336.55,-65.67 329.5,-57.76 330.07,-68.34 336.55,-65.67"/>
</g>
</g>
</svg>
