<?xml version="1.0" encoding="UTF-8" standalone="no"?>
<!DOCTYPE svg PUBLIC "-//W3C//DTD SVG 1.1//EN"
 "http://www.w3.org/Graphics/SVG/1.1/DTD/svg11.dtd">
<!-- Generated by graphviz version 2.50.0 (20220203.2022)
 -->
<!-- Title: decomposeTGDBias Pages: 1 -->
<svg width="473pt" height="66pt"
 viewBox="0.00 0.00 473.00 66.00" xmlns="http://www.w3.org/2000/svg" xmlns:xlink="http://www.w3.org/1999/xlink">
<g id="graph0" class="graph" transform="scale(1 1) rotate(0) translate(4 62)">
<title>decomposeTGDBias</title>
<polygon fill="white" stroke="transparent" points="-4,4 -4,-62 469,-62 469,4 -4,4"/>
<!-- Node1 -->
<g id="node1" class="node">
<title>Node1</title>
<g id="a_node1"><a xlink:title="Convert GPS/QZS TGD into OSBs &amp; DSB.">
<polygon fill="#bfbfbf" stroke="black" points="358,-19.5 358,-38.5 465,-38.5 465,-19.5 358,-19.5"/>
<text text-anchor="middle" x="411.5" y="-26.5" font-family="Helvetica,sans-Serif" font-size="10.00">decomposeTGDBias</text>
</a>
</g>
</g>
<!-- Node2 -->
<g id="node2" class="node">
<title>Node2</title>
<g id="a_node2"><a xlink:href="rinex_8cpp.html#afb57cdb7cbbb718d96f87e59bb9baa1d" target="_top" xlink:title=" ">
<polygon fill="white" stroke="black" points="208.5,-38.5 208.5,-57.5 277.5,-57.5 277.5,-38.5 208.5,-38.5"/>
<text text-anchor="middle" x="243" y="-45.5" font-family="Helvetica,sans-Serif" font-size="10.00">decode_eph</text>
</a>
</g>
</g>
<!-- Node1&#45;&gt;Node2 -->
<g id="edge1" class="edge">
<title>Node1&#45;&gt;Node2</title>
<path fill="none" stroke="midnightblue" d="M347.8,-36.16C324.02,-38.87 297.85,-41.85 277.74,-44.15"/>
<polygon fill="midnightblue" stroke="midnightblue" points="348.28,-39.62 357.82,-35.01 347.49,-32.67 348.28,-39.62"/>
</g>
<!-- Node14 -->
<g id="node4" class="node">
<title>Node14</title>
<g id="a_node4"><a xlink:href="structRtcmDecoder.html#a6673aa5a16d7e997de9ce5e43fac7860" target="_top" xlink:title=" ">
<polygon fill="white" stroke="black" points="164,-0.5 164,-19.5 322,-19.5 322,-0.5 164,-0.5"/>
<text text-anchor="middle" x="243" y="-7.5" font-family="Helvetica,sans-Serif" font-size="10.00">RtcmDecoder::decodeEphemeris</text>
</a>
</g>
</g>
<!-- Node1&#45;&gt;Node14 -->
<g id="edge3" class="edge">
<title>Node1&#45;&gt;Node14</title>
<path fill="none" stroke="midnightblue" d="M347.79,-21.84C339.43,-20.89 330.78,-19.9 322.19,-18.92"/>
<polygon fill="midnightblue" stroke="midnightblue" points="347.49,-25.33 357.82,-22.99 348.28,-18.38 347.49,-25.33"/>
</g>
<!-- Node3 -->
<g id="node3" class="node">
<title>Node3</title>
<g id="a_node3"><a xlink:href="rinex_8cpp.html#a60ceb46efd053b71d9bff42f456e0c73" target="_top" xlink:title=" ">
<polygon fill="white" stroke="red" points="29.5,-38.5 29.5,-57.5 98.5,-57.5 98.5,-38.5 29.5,-38.5"/>
<text text-anchor="middle" x="64" y="-45.5" font-family="Helvetica,sans-Serif" font-size="10.00">readrnxnavb</text>
</a>
</g>
</g>
<!-- Node2&#45;&gt;Node3 -->
<g id="edge2" class="edge">
<title>Node2&#45;&gt;Node3</title>
<path fill="none" stroke="midnightblue" d="M198.25,-48C167.46,-48 126.84,-48 98.58,-48"/>
<polygon fill="midnightblue" stroke="midnightblue" points="198.29,-51.5 208.29,-48 198.29,-44.5 198.29,-51.5"/>
</g>
<!-- Node15 -->
<g id="node5" class="node">
<title>Node15</title>
<g id="a_node5"><a xlink:href="structRtcmStream.html#a34a7a941dab214b7ff6b17e8a53eb55a" target="_top" xlink:title=" ">
<polygon fill="white" stroke="red" points="0,-0.5 0,-19.5 128,-19.5 128,-0.5 0,-0.5"/>
<text text-anchor="middle" x="64" y="-7.5" font-family="Helvetica,sans-Serif" font-size="10.00">RtcmStream::parseRTCM</text>
</a>
</g>
</g>
<!-- Node14&#45;&gt;Node15 -->
<g id="edge4" class="edge">
<title>Node14&#45;&gt;Node15</title>
<path fill="none" stroke="midnightblue" d="M153.73,-10C145.09,-10 136.45,-10 128.13,-10"/>
<polygon fill="midnightblue" stroke="midnightblue" points="153.85,-13.5 163.85,-10 153.85,-6.5 153.85,-13.5"/>
</g>
</g>
</svg>
