<?xml version="1.0" encoding="UTF-8" standalone="no"?>
<!DOCTYPE svg PUBLIC "-//W3C//DTD SVG 1.1//EN"
 "http://www.w3.org/Graphics/SVG/1.1/DTD/svg11.dtd">
<!-- Generated by graphviz version 2.50.0 (20220203.2022)
 -->
<!-- Title: setRestrictiveEndTime Pages: 1 -->
<svg width="319pt" height="46pt"
 viewBox="0.00 0.00 319.00 46.00" xmlns="http://www.w3.org/2000/svg" xmlns:xlink="http://www.w3.org/1999/xlink">
<g id="graph0" class="graph" transform="scale(1 1) rotate(0) translate(4 42)">
<title>setRestrictiveEndTime</title>
<polygon fill="white" stroke="transparent" points="-4,4 -4,-42 315,-42 315,4 -4,4"/>
<!-- Node1 -->
<g id="node1" class="node">
<title>Node1</title>
<g id="a_node1"><a xlink:title=" ">
<polygon fill="#bfbfbf" stroke="black" points="196,-0.5 196,-19.5 311,-19.5 311,-0.5 196,-0.5"/>
<text text-anchor="middle" x="253.5" y="-7.5" font-family="Helvetica,sans-Serif" font-size="10.00">setRestrictiveEndTime</text>
</a>
</g>
</g>
<!-- Node2 -->
<g id="node2" class="node">
<title>Node2</title>
<g id="a_node2"><a xlink:href="biasSINEXread_8cpp.html#a13d2a6b0ea3e17f103315f1f8a30b7c8" target="_top" xlink:title="Recurser of bias chaining, i.e.">
<polygon fill="white" stroke="black" points="86,-0.5 86,-19.5 160,-19.5 160,-0.5 86,-0.5"/>
<text text-anchor="middle" x="123" y="-7.5" font-family="Helvetica,sans-Serif" font-size="10.00">biasRecurser</text>
</a>
</g>
</g>
<!-- Node1&#45;&gt;Node2 -->
<g id="edge1" class="edge">
<title>Node1&#45;&gt;Node2</title>
<path fill="none" stroke="midnightblue" d="M185.51,-10C176.76,-10 168.08,-10 160.13,-10"/>
<polygon fill="midnightblue" stroke="midnightblue" points="185.76,-13.5 195.76,-10 185.76,-6.5 185.76,-13.5"/>
</g>
<!-- Node2&#45;&gt;Node2 -->
<g id="edge2" class="edge">
<title>Node2&#45;&gt;Node2</title>
<path fill="none" stroke="midnightblue" d="M141.15,-29.4C139.94,-34.31 133.89,-38 123,-38 105.58,-38 100.55,-28.57 107.9,-19.76"/>
<polygon fill="midnightblue" stroke="midnightblue" points="144.45,-28.24 138.1,-19.76 137.78,-30.35 144.45,-28.24"/>
</g>
<!-- Node3 -->
<g id="node3" class="node">
<title>Node3</title>
<g id="a_node3"><a xlink:href="biasSINEXread_8cpp.html#a4ccebd721f67990485d488f06eb69ab5" target="_top" xlink:title="Search for hardware bias for given measurmenet type.">
<polygon fill="white" stroke="red" points="0,-0.5 0,-19.5 50,-19.5 50,-0.5 0,-0.5"/>
<text text-anchor="middle" x="25" y="-7.5" font-family="Helvetica,sans-Serif" font-size="10.00">getBias</text>
</a>
</g>
</g>
<!-- Node2&#45;&gt;Node3 -->
<g id="edge3" class="edge">
<title>Node2&#45;&gt;Node3</title>
<path fill="none" stroke="midnightblue" d="M75.75,-10C66.94,-10 58.05,-10 50.27,-10"/>
<polygon fill="midnightblue" stroke="midnightblue" points="75.98,-13.5 85.98,-10 75.98,-6.5 75.98,-13.5"/>
</g>
</g>
</svg>
