<?xml version="1.0" encoding="UTF-8" standalone="no"?>
<!DOCTYPE svg PUBLIC "-//W3C//DTD SVG 1.1//EN"
 "http://www.w3.org/Graphics/SVG/1.1/DTD/svg11.dtd">
<!-- Generated by graphviz version 2.50.0 (20220203.2022)
 -->
<!-- Title: str2code Pages: 1 -->
<svg width="323pt" height="66pt"
 viewBox="0.00 0.00 323.00 66.00" xmlns="http://www.w3.org/2000/svg" xmlns:xlink="http://www.w3.org/1999/xlink">
<g id="graph0" class="graph" transform="scale(1 1) rotate(0) translate(4 62)">
<title>str2code</title>
<polygon fill="white" stroke="transparent" points="-4,4 -4,-62 319,-62 319,4 -4,4"/>
<!-- Node1 -->
<g id="node1" class="node">
<title>Node1</title>
<g id="a_node1"><a xlink:title="Convert observation code string to enum code.">
<polygon fill="#bfbfbf" stroke="black" points="261,-19.5 261,-38.5 315,-38.5 315,-19.5 261,-19.5"/>
<text text-anchor="middle" x="288" y="-26.5" font-family="Helvetica,sans-Serif" font-size="10.00">str2code</text>
</a>
</g>
</g>
<!-- Node2 -->
<g id="node2" class="node">
<title>Node2</title>
<g id="a_node2"><a xlink:href="biasSINEXread_8cpp.html#afe3e2e7c8dbfe8bd5991dbbdac91ede2" target="_top" xlink:title="Read data line in bias SINEX file.">
<polygon fill="white" stroke="black" points="116,-38.5 116,-57.5 225,-57.5 225,-38.5 116,-38.5"/>
<text text-anchor="middle" x="170.5" y="-45.5" font-family="Helvetica,sans-Serif" font-size="10.00">read_biasSINEX_line</text>
</a>
</g>
</g>
<!-- Node1&#45;&gt;Node2 -->
<g id="edge1" class="edge">
<title>Node1&#45;&gt;Node2</title>
<path fill="none" stroke="midnightblue" d="M250.68,-34.97C242.66,-36.29 234,-37.72 225.45,-39.13"/>
<polygon fill="midnightblue" stroke="midnightblue" points="251.49,-38.39 260.79,-33.31 250.36,-31.48 251.49,-38.39"/>
</g>
<!-- Node7 -->
<g id="node4" class="node">
<title>Node7</title>
<g id="a_node4"><a xlink:href="ionex_8cpp.html#a8ebc2ddf815b9888aebc10af77fe7b18" target="_top" xlink:title=" ">
<polygon fill="white" stroke="black" points="133.5,-0.5 133.5,-19.5 207.5,-19.5 207.5,-0.5 133.5,-0.5"/>
<text text-anchor="middle" x="170.5" y="-7.5" font-family="Helvetica,sans-Serif" font-size="10.00">readionexdcb</text>
</a>
</g>
</g>
<!-- Node1&#45;&gt;Node7 -->
<g id="edge3" class="edge">
<title>Node1&#45;&gt;Node7</title>
<path fill="none" stroke="midnightblue" d="M250.73,-23.03C237,-20.78 221.39,-18.21 207.67,-15.95"/>
<polygon fill="midnightblue" stroke="midnightblue" points="250.36,-26.52 260.79,-24.69 251.49,-19.61 250.36,-26.52"/>
</g>
<!-- Node3 -->
<g id="node3" class="node">
<title>Node3</title>
<g id="a_node3"><a xlink:href="biasSINEXread_8cpp.html#a9e282accccd8c78b498a291eff1720a5" target="_top" xlink:title="Read single bias SINEX file.">
<polygon fill="white" stroke="red" points="0,-38.5 0,-57.5 80,-57.5 80,-38.5 0,-38.5"/>
<text text-anchor="middle" x="40" y="-45.5" font-family="Helvetica,sans-Serif" font-size="10.00">read_biasnx_fil</text>
</a>
</g>
</g>
<!-- Node2&#45;&gt;Node3 -->
<g id="edge2" class="edge">
<title>Node2&#45;&gt;Node3</title>
<path fill="none" stroke="midnightblue" d="M105.57,-48C96.87,-48 88.15,-48 80.07,-48"/>
<polygon fill="midnightblue" stroke="midnightblue" points="105.75,-51.5 115.75,-48 105.75,-44.5 105.75,-51.5"/>
</g>
<!-- Node8 -->
<g id="node5" class="node">
<title>Node8</title>
<g id="a_node5"><a xlink:href="ionex_8cpp.html#afdcbf04d795ae58834df5e2c38c68907" target="_top" xlink:title=" ">
<polygon fill="white" stroke="red" points="8.5,-0.5 8.5,-19.5 71.5,-19.5 71.5,-0.5 8.5,-0.5"/>
<text text-anchor="middle" x="40" y="-7.5" font-family="Helvetica,sans-Serif" font-size="10.00">readionexh</text>
</a>
</g>
</g>
<!-- Node7&#45;&gt;Node8 -->
<g id="edge4" class="edge">
<title>Node7&#45;&gt;Node8</title>
<path fill="none" stroke="midnightblue" d="M123,-10C105.91,-10 87,-10 71.65,-10"/>
<polygon fill="midnightblue" stroke="midnightblue" points="123.36,-13.5 133.36,-10 123.36,-6.5 123.36,-13.5"/>
</g>
</g>
</svg>
