<?xml version="1.0" encoding="UTF-8" standalone="no"?>
<!DOCTYPE svg PUBLIC "-//W3C//DTD SVG 1.1//EN"
 "http://www.w3.org/Graphics/SVG/1.1/DTD/svg11.dtd">
<!-- Generated by graphviz version 2.50.0 (20220203.2022)
 -->
<!-- Title: getBias Pages: 1 -->
<svg width="296pt" height="180pt"
 viewBox="0.00 0.00 296.00 180.00" xmlns="http://www.w3.org/2000/svg" xmlns:xlink="http://www.w3.org/1999/xlink">
<g id="graph0" class="graph" transform="scale(1 1) rotate(0) translate(4 176)">
<title>getBias</title>
<polygon fill="white" stroke="transparent" points="-4,4 -4,-176 292,-176 292,4 -4,4"/>
<!-- Node1 -->
<g id="node1" class="node">
<title>Node1</title>
<g id="a_node1"><a xlink:title="Search for hardware bias for given measurmenet type.">
<polygon fill="#bfbfbf" stroke="black" points="238,-76.5 238,-95.5 288,-95.5 288,-76.5 238,-76.5"/>
<text text-anchor="middle" x="263" y="-83.5" font-family="Helvetica,sans-Serif" font-size="10.00">getBias</text>
</a>
</g>
</g>
<!-- Node2 -->
<g id="node2" class="node">
<title>Node2</title>
<g id="a_node2"><a xlink:href="biasSINEXread_8cpp.html#ad8d3890eaff651716f2ad2d8240438c8" target="_top" xlink:title="Search for hardware biases in phase and code.">
<polygon fill="white" stroke="black" points="128,-76.5 128,-95.5 202,-95.5 202,-76.5 128,-76.5"/>
<text text-anchor="middle" x="165" y="-83.5" font-family="Helvetica,sans-Serif" font-size="10.00">getBiasSinex</text>
</a>
</g>
</g>
<!-- Node1&#45;&gt;Node2 -->
<g id="edge1" class="edge">
<title>Node1&#45;&gt;Node2</title>
<path fill="none" stroke="midnightblue" d="M227.7,-86C219.42,-86 210.56,-86 202.2,-86"/>
<polygon fill="midnightblue" stroke="midnightblue" points="227.78,-89.5 237.78,-86 227.78,-82.5 227.78,-89.5"/>
</g>
<!-- Node3 -->
<g id="node3" class="node">
<title>Node3</title>
<g id="a_node3"><a xlink:href="ppp_8cpp.html#aaf5e8ef15242164157594caa1b63f7e9" target="_top" xlink:title="Antenna corrected measurement.">
<polygon fill="white" stroke="red" points="15,-152.5 15,-171.5 77,-171.5 77,-152.5 15,-152.5"/>
<text text-anchor="middle" x="46" y="-159.5" font-family="Helvetica,sans-Serif" font-size="10.00">corr_meas</text>
</a>
</g>
</g>
<!-- Node2&#45;&gt;Node3 -->
<g id="edge2" class="edge">
<title>Node2&#45;&gt;Node3</title>
<path fill="none" stroke="midnightblue" d="M145.6,-102.87C131.63,-115.09 111.54,-131.43 92,-143 86.16,-146.46 79.58,-149.61 73.29,-152.31"/>
<polygon fill="midnightblue" stroke="midnightblue" points="148.32,-105.14 153.45,-95.87 143.66,-99.91 148.32,-105.14"/>
</g>
<!-- Node11 -->
<g id="node4" class="node">
<title>Node11</title>
<g id="a_node4"><a xlink:href="biasSINEXread_8cpp.html#a23958b8fb1d3b1a42d4465331e776dea" target="_top" xlink:title="Search for absolute hardware biases in phase and code.">
<polygon fill="white" stroke="black" points="9,-114.5 9,-133.5 83,-133.5 83,-114.5 9,-114.5"/>
<text text-anchor="middle" x="46" y="-121.5" font-family="Helvetica,sans-Serif" font-size="10.00">getBiasSinex</text>
</a>
</g>
</g>
<!-- Node2&#45;&gt;Node11 -->
<g id="edge3" class="edge">
<title>Node2&#45;&gt;Node11</title>
<path fill="none" stroke="midnightblue" d="M124.96,-98.68C109.15,-103.81 91.2,-109.64 76.51,-114.41"/>
<polygon fill="midnightblue" stroke="midnightblue" points="126.05,-102.01 134.48,-95.59 123.88,-95.35 126.05,-102.01"/>
</g>
<!-- Node12 -->
<g id="node5" class="node">
<title>Node12</title>
<g id="a_node5"><a xlink:href="spp_8cpp.html#a94f6b70d37281b0c7712a6c05aab586c" target="_top" xlink:title="Calculate pseudorange with code bias correction.">
<polygon fill="white" stroke="red" points="23,-76.5 23,-95.5 69,-95.5 69,-76.5 23,-76.5"/>
<text text-anchor="middle" x="46" y="-83.5" font-family="Helvetica,sans-Serif" font-size="10.00">prange</text>
</a>
</g>
</g>
<!-- Node2&#45;&gt;Node12 -->
<g id="edge4" class="edge">
<title>Node2&#45;&gt;Node12</title>
<path fill="none" stroke="midnightblue" d="M117.75,-86C101.02,-86 82.89,-86 69.16,-86"/>
<polygon fill="midnightblue" stroke="midnightblue" points="117.94,-89.5 127.94,-86 117.94,-82.5 117.94,-89.5"/>
</g>
<!-- Node16 -->
<g id="node6" class="node">
<title>Node16</title>
<g id="a_node6"><a xlink:href="mongoWrite_8cpp.html#ac5399222f483050332a2571ebcbc5ba1" target="_top" xlink:title=" ">
<polygon fill="white" stroke="red" points="0,-38.5 0,-57.5 92,-57.5 92,-38.5 0,-38.5"/>
<text text-anchor="middle" x="46" y="-45.5" font-family="Helvetica,sans-Serif" font-size="10.00">prepareSsrStates</text>
</a>
</g>
</g>
<!-- Node2&#45;&gt;Node16 -->
<g id="edge5" class="edge">
<title>Node2&#45;&gt;Node16</title>
<path fill="none" stroke="midnightblue" d="M124.96,-73.32C109.15,-68.19 91.2,-62.36 76.51,-57.59"/>
<polygon fill="midnightblue" stroke="midnightblue" points="123.88,-76.65 134.48,-76.41 126.05,-69.99 123.88,-76.65"/>
</g>
<!-- Node18 -->
<g id="node7" class="node">
<title>Node18</title>
<g id="a_node7"><a xlink:href="ppppp__obs_8cpp.html#a3db2ffced7ab37c4874c3a53fcb7953e" target="_top" xlink:title=" ">
<polygon fill="white" stroke="red" points="13,-0.5 13,-19.5 79,-19.5 79,-0.5 13,-0.5"/>
<text text-anchor="middle" x="46" y="-7.5" font-family="Helvetica,sans-Serif" font-size="10.00">stationPPP</text>
</a>
</g>
</g>
<!-- Node2&#45;&gt;Node18 -->
<g id="edge6" class="edge">
<title>Node2&#45;&gt;Node18</title>
<path fill="none" stroke="midnightblue" d="M145.6,-69.13C131.63,-56.91 111.54,-40.57 92,-29 86.16,-25.54 79.58,-22.39 73.29,-19.69"/>
<polygon fill="midnightblue" stroke="midnightblue" points="143.66,-72.09 153.45,-76.13 148.32,-66.86 143.66,-72.09"/>
</g>
</g>
</svg>
