<?xml version="1.0" encoding="UTF-8" standalone="no"?>
<!DOCTYPE svg PUBLIC "-//W3C//DTD SVG 1.1//EN"
 "http://www.w3.org/Graphics/SVG/1.1/DTD/svg11.dtd">
<!-- Generated by graphviz version 2.50.0 (20220203.2022)
 -->
<!-- Title: read_biasnx_fil Pages: 1 -->
<svg width="363pt" height="180pt"
 viewBox="0.00 0.00 363.00 180.00" xmlns="http://www.w3.org/2000/svg" xmlns:xlink="http://www.w3.org/1999/xlink">
<g id="graph0" class="graph" transform="scale(1 1) rotate(0) translate(4 176)">
<title>read_biasnx_fil</title>
<polygon fill="white" stroke="transparent" points="-4,4 -4,-176 359,-176 359,4 -4,4"/>
<!-- Node1 -->
<g id="node1" class="node">
<title>Node1</title>
<g id="a_node1"><a xlink:title="Read single bias SINEX file.">
<polygon fill="#bfbfbf" stroke="black" points="0,-95.5 0,-114.5 80,-114.5 80,-95.5 0,-95.5"/>
<text text-anchor="middle" x="40" y="-102.5" font-family="Helvetica,sans-Serif" font-size="10.00">read_biasnx_fil</text>
</a>
</g>
</g>
<!-- Node2 -->
<g id="node2" class="node">
<title>Node2</title>
<g id="a_node2"><a xlink:href="biasSINEXread_8cpp.html#a7bedabb30d7e162ea04c4027051041f6" target="_top" xlink:title="Read header line in bias SINEX file.">
<polygon fill="white" stroke="black" points="116,-114.5 116,-133.5 231,-133.5 231,-114.5 116,-114.5"/>
<text text-anchor="middle" x="173.5" y="-121.5" font-family="Helvetica,sans-Serif" font-size="10.00">read_biasSINEX_head</text>
</a>
</g>
</g>
<!-- Node1&#45;&gt;Node2 -->
<g id="edge1" class="edge">
<title>Node1&#45;&gt;Node2</title>
<path fill="none" stroke="midnightblue" d="M80.1,-110.65C88.24,-111.83 97.04,-113.1 105.86,-114.37"/>
<polygon fill="midnightblue" stroke="midnightblue" points="105.39,-117.84 115.79,-115.81 106.39,-110.91 105.39,-117.84"/>
</g>
<!-- Node3 -->
<g id="node3" class="node">
<title>Node3</title>
<g id="a_node3"><a xlink:href="biasSINEXread_8cpp.html#afe3e2e7c8dbfe8bd5991dbbdac91ede2" target="_top" xlink:title="Read data line in bias SINEX file.">
<polygon fill="white" stroke="black" points="119,-76.5 119,-95.5 228,-95.5 228,-76.5 119,-76.5"/>
<text text-anchor="middle" x="173.5" y="-83.5" font-family="Helvetica,sans-Serif" font-size="10.00">read_biasSINEX_line</text>
</a>
</g>
</g>
<!-- Node1&#45;&gt;Node3 -->
<g id="edge2" class="edge">
<title>Node1&#45;&gt;Node3</title>
<path fill="none" stroke="midnightblue" d="M80.1,-99.35C89.09,-98.05 98.88,-96.64 108.62,-95.23"/>
<polygon fill="midnightblue" stroke="midnightblue" points="109.31,-98.67 118.71,-93.77 108.31,-91.74 109.31,-98.67"/>
</g>
<!-- Node4 -->
<g id="node4" class="node">
<title>Node4</title>
<g id="a_node4"><a xlink:href="structSatSys.html#aec6d07b90d1e8172b8b6a6966abef4fd" target="_top" xlink:title="Returns a std::string of this satellite&#39;s id.">
<polygon fill="white" stroke="red" points="281,-152.5 281,-171.5 341,-171.5 341,-152.5 281,-152.5"/>
<text text-anchor="middle" x="311" y="-159.5" font-family="Helvetica,sans-Serif" font-size="10.00">SatSys::id</text>
</a>
</g>
</g>
<!-- Node3&#45;&gt;Node4 -->
<g id="edge3" class="edge">
<title>Node3&#45;&gt;Node4</title>
<path fill="none" stroke="midnightblue" d="M211.56,-95.56C218.3,-98.1 225.07,-101.21 231,-105 250.61,-117.52 247.99,-129.59 267,-143 269.38,-144.68 271.92,-146.25 274.55,-147.73"/>
<polygon fill="midnightblue" stroke="midnightblue" points="273.14,-150.93 283.64,-152.33 276.3,-144.69 273.14,-150.93"/>
</g>
<!-- Node7 -->
<g id="node5" class="node">
<title>Node7</title>
<g id="a_node5"><a xlink:href="biasSINEXread_8cpp.html#a6a51f9914e96ab2fec060c9463b86ae4" target="_top" xlink:title="Push forward and reverse bias entry into the SINEXBiases map.">
<polygon fill="white" stroke="black" points="270.5,-114.5 270.5,-133.5 351.5,-133.5 351.5,-114.5 270.5,-114.5"/>
<text text-anchor="middle" x="311" y="-121.5" font-family="Helvetica,sans-Serif" font-size="10.00">pushBiasSinex</text>
</a>
</g>
</g>
<!-- Node3&#45;&gt;Node7 -->
<g id="edge4" class="edge">
<title>Node3&#45;&gt;Node7</title>
<path fill="none" stroke="midnightblue" d="M208.69,-95.59C226.1,-100.47 247.47,-106.46 266.09,-111.68"/>
<polygon fill="midnightblue" stroke="midnightblue" points="265.24,-115.08 275.82,-114.41 267.14,-108.34 265.24,-115.08"/>
</g>
<!-- Node8 -->
<g id="node6" class="node">
<title>Node8</title>
<g id="a_node6"><a xlink:href="biasSINEXread_8cpp.html#a60d652eca6b75444a65b96a6dbdb4f3e" target="_top" xlink:title="Convert time string in bias SINEX to gtime struct.">
<polygon fill="white" stroke="red" points="269,-76.5 269,-95.5 353,-95.5 353,-76.5 269,-76.5"/>
<text text-anchor="middle" x="311" y="-83.5" font-family="Helvetica,sans-Serif" font-size="10.00">sinex_time_text</text>
</a>
</g>
</g>
<!-- Node3&#45;&gt;Node8 -->
<g id="edge5" class="edge">
<title>Node3&#45;&gt;Node8</title>
<path fill="none" stroke="midnightblue" d="M228.05,-86C238.16,-86 248.7,-86 258.73,-86"/>
<polygon fill="midnightblue" stroke="midnightblue" points="258.95,-89.5 268.95,-86 258.95,-82.5 258.95,-89.5"/>
</g>
<!-- Node10 -->
<g id="node7" class="node">
<title>Node10</title>
<g id="a_node7"><a xlink:href="biasSINEXread_8cpp.html#a67c1c7b63f5be7f1efbc0e06a3f581fc" target="_top" xlink:title="Convert observation code string to enum code.">
<polygon fill="white" stroke="black" points="284,-38.5 284,-57.5 338,-57.5 338,-38.5 284,-38.5"/>
<text text-anchor="middle" x="311" y="-45.5" font-family="Helvetica,sans-Serif" font-size="10.00">str2code</text>
</a>
</g>
</g>
<!-- Node3&#45;&gt;Node10 -->
<g id="edge6" class="edge">
<title>Node3&#45;&gt;Node10</title>
<path fill="none" stroke="midnightblue" d="M208.69,-76.41C228.68,-70.81 253.88,-63.74 274.14,-58.06"/>
<polygon fill="midnightblue" stroke="midnightblue" points="275.26,-61.38 283.94,-55.31 273.37,-54.64 275.26,-61.38"/>
</g>
<!-- Node6 -->
<g id="node8" class="node">
<title>Node6</title>
<g id="a_node8"><a xlink:href="structSatSys.html#abfd7e43b0d57c2718d05ca595ee360dd" target="_top" xlink:title="Returns the character used as a prefix for this system.">
<polygon fill="white" stroke="black" points="267,-0.5 267,-19.5 355,-19.5 355,-0.5 267,-0.5"/>
<text text-anchor="middle" x="311" y="-7.5" font-family="Helvetica,sans-Serif" font-size="10.00">SatSys::sysChar</text>
</a>
</g>
</g>
<!-- Node3&#45;&gt;Node6 -->
<g id="edge7" class="edge">
<title>Node3&#45;&gt;Node6</title>
<path fill="none" stroke="midnightblue" d="M188.57,-76.49C206.4,-64.64 238.28,-44.1 267,-29 270.3,-27.26 273.79,-25.54 277.3,-23.89"/>
<polygon fill="midnightblue" stroke="midnightblue" points="278.87,-27.02 286.52,-19.69 275.97,-20.65 278.87,-27.02"/>
</g>
</g>
</svg>
