<?xml version="1.0" encoding="UTF-8" standalone="no"?>
<!DOCTYPE svg PUBLIC "-//W3C//DTD SVG 1.1//EN"
 "http://www.w3.org/Graphics/SVG/1.1/DTD/svg11.dtd">
<!-- Generated by graphviz version 2.50.0 (20220203.2022)
 -->
<!-- Title: code2str Pages: 1 -->
<svg width="322pt" height="66pt"
 viewBox="0.00 0.00 322.00 66.00" xmlns="http://www.w3.org/2000/svg" xmlns:xlink="http://www.w3.org/1999/xlink">
<g id="graph0" class="graph" transform="scale(1 1) rotate(0) translate(4 62)">
<title>code2str</title>
<polygon fill="white" stroke="transparent" points="-4,4 -4,-62 318,-62 318,4 -4,4"/>
<!-- Node1 -->
<g id="node1" class="node">
<title>Node1</title>
<g id="a_node1"><a xlink:title="Convert enum observation code to code string.">
<polygon fill="#bfbfbf" stroke="black" points="260,-19.5 260,-38.5 314,-38.5 314,-19.5 260,-19.5"/>
<text text-anchor="middle" x="287" y="-26.5" font-family="Helvetica,sans-Serif" font-size="10.00">code2str</text>
</a>
</g>
</g>
<!-- Node2 -->
<g id="node2" class="node">
<title>Node2</title>
<g id="a_node2"><a xlink:href="biasSINEXread_8cpp.html#a0d267ad42d64d437a1ba9e022e341f7d" target="_top" xlink:title="Decompose DSB or DCB into OSBs.">
<polygon fill="white" stroke="black" points="117,-38.5 117,-57.5 224,-57.5 224,-38.5 117,-38.5"/>
<text text-anchor="middle" x="170.5" y="-45.5" font-family="Helvetica,sans-Serif" font-size="10.00">decomposeDSBBias</text>
</a>
</g>
</g>
<!-- Node1&#45;&gt;Node2 -->
<g id="edge1" class="edge">
<title>Node1&#45;&gt;Node2</title>
<path fill="none" stroke="midnightblue" d="M249.85,-35C241.72,-36.35 232.94,-37.81 224.29,-39.24"/>
<polygon fill="midnightblue" stroke="midnightblue" points="250.44,-38.45 259.73,-33.36 249.29,-31.54 250.44,-38.45"/>
</g>
<!-- Node3 -->
<g id="node3" class="node">
<title>Node3</title>
<g id="a_node3"><a xlink:href="biasSINEXwrite_8cpp.html#a4e4fe834c1dbcb6b4a41560de1d7432e" target="_top" xlink:title="print bias SINEX data line">
<polygon fill="white" stroke="black" points="121.5,-0.5 121.5,-19.5 219.5,-19.5 219.5,-0.5 121.5,-0.5"/>
<text text-anchor="middle" x="170.5" y="-7.5" font-family="Helvetica,sans-Serif" font-size="10.00">write_bSINEX_line</text>
</a>
</g>
</g>
<!-- Node1&#45;&gt;Node3 -->
<g id="edge2" class="edge">
<title>Node1&#45;&gt;Node3</title>
<path fill="none" stroke="midnightblue" d="M249.78,-22.99C240.23,-21.4 229.77,-19.67 219.69,-18"/>
<polygon fill="midnightblue" stroke="midnightblue" points="249.29,-26.46 259.73,-24.64 250.44,-19.55 249.29,-26.46"/>
</g>
<!-- Node4 -->
<g id="node4" class="node">
<title>Node4</title>
<g id="a_node4"><a xlink:href="biasSINEXwrite_8cpp.html#aee560ba7f0a3ee3cb198627a9673c27e" target="_top" xlink:title="Write stored bias output to SINEX file Return number of written biases (&#45;1 if file not found)">
<polygon fill="white" stroke="red" points="0,-0.5 0,-19.5 81,-19.5 81,-0.5 0,-0.5"/>
<text text-anchor="middle" x="40.5" y="-7.5" font-family="Helvetica,sans-Serif" font-size="10.00">writeBiasSinex</text>
</a>
</g>
</g>
<!-- Node3&#45;&gt;Node4 -->
<g id="edge3" class="edge">
<title>Node3&#45;&gt;Node4</title>
<path fill="none" stroke="midnightblue" d="M111.33,-10C101.07,-10 90.61,-10 81.02,-10"/>
<polygon fill="midnightblue" stroke="midnightblue" points="111.47,-13.5 121.47,-10 111.47,-6.5 111.47,-13.5"/>
</g>
</g>
</svg>
