<?xml version="1.0" encoding="UTF-8" standalone="no"?>
<!DOCTYPE svg PUBLIC "-//W3C//DTD SVG 1.1//EN"
 "http://www.w3.org/Graphics/SVG/1.1/DTD/svg11.dtd">
<!-- Generated by graphviz version 2.50.0 (20220203.2022)
 -->
<!-- Title: sinex_time_text Pages: 1 -->
<svg width="353pt" height="28pt"
 viewBox="0.00 0.00 353.00 28.00" xmlns="http://www.w3.org/2000/svg" xmlns:xlink="http://www.w3.org/1999/xlink">
<g id="graph0" class="graph" transform="scale(1 1) rotate(0) translate(4 24)">
<title>sinex_time_text</title>
<polygon fill="white" stroke="transparent" points="-4,4 -4,-24 349,-24 349,4 -4,4"/>
<!-- Node1 -->
<g id="node1" class="node">
<title>Node1</title>
<g id="a_node1"><a xlink:title="Convert time string in bias SINEX to gtime struct.">
<polygon fill="#bfbfbf" stroke="black" points="261,-0.5 261,-19.5 345,-19.5 345,-0.5 261,-0.5"/>
<text text-anchor="middle" x="303" y="-7.5" font-family="Helvetica,sans-Serif" font-size="10.00">sinex_time_text</text>
</a>
</g>
</g>
<!-- Node2 -->
<g id="node2" class="node">
<title>Node2</title>
<g id="a_node2"><a xlink:href="biasSINEXread_8cpp.html#afe3e2e7c8dbfe8bd5991dbbdac91ede2" target="_top" xlink:title="Read data line in bias SINEX file.">
<polygon fill="white" stroke="black" points="116,-0.5 116,-19.5 225,-19.5 225,-0.5 116,-0.5"/>
<text text-anchor="middle" x="170.5" y="-7.5" font-family="Helvetica,sans-Serif" font-size="10.00">read_biasSINEX_line</text>
</a>
</g>
</g>
<!-- Node1&#45;&gt;Node2 -->
<g id="edge1" class="edge">
<title>Node1&#45;&gt;Node2</title>
<path fill="none" stroke="midnightblue" d="M250.49,-10C242.25,-10 233.71,-10 225.43,-10"/>
<polygon fill="midnightblue" stroke="midnightblue" points="250.71,-13.5 260.71,-10 250.71,-6.5 250.71,-13.5"/>
</g>
<!-- Node3 -->
<g id="node3" class="node">
<title>Node3</title>
<g id="a_node3"><a xlink:href="biasSINEXread_8cpp.html#a9e282accccd8c78b498a291eff1720a5" target="_top" xlink:title="Read single bias SINEX file.">
<polygon fill="white" stroke="red" points="0,-0.5 0,-19.5 80,-19.5 80,-0.5 0,-0.5"/>
<text text-anchor="middle" x="40" y="-7.5" font-family="Helvetica,sans-Serif" font-size="10.00">read_biasnx_fil</text>
</a>
</g>
</g>
<!-- Node2&#45;&gt;Node3 -->
<g id="edge2" class="edge">
<title>Node2&#45;&gt;Node3</title>
<path fill="none" stroke="midnightblue" d="M105.57,-10C96.87,-10 88.15,-10 80.07,-10"/>
<polygon fill="midnightblue" stroke="midnightblue" points="105.75,-13.5 115.75,-10 105.75,-6.5 105.75,-13.5"/>
</g>
</g>
</svg>
