<?xml version="1.0" encoding="UTF-8" standalone="no"?>
<!DOCTYPE svg PUBLIC "-//W3C//DTD SVG 1.1//EN"
 "http://www.w3.org/Graphics/SVG/1.1/DTD/svg11.dtd">
<!-- Generated by graphviz version 2.50.0 (20220203.2022)
 -->
<!-- Title: decomposeBGDBias Pages: 1 -->
<svg width="466pt" height="104pt"
 viewBox="0.00 0.00 466.00 104.00" xmlns="http://www.w3.org/2000/svg" xmlns:xlink="http://www.w3.org/1999/xlink">
<g id="graph0" class="graph" transform="scale(1 1) rotate(0) translate(4 100)">
<title>decomposeBGDBias</title>
<polygon fill="white" stroke="transparent" points="-4,4 -4,-100 462,-100 462,4 -4,4"/>
<!-- Node1 -->
<g id="node1" class="node">
<title>Node1</title>
<g id="a_node1"><a xlink:title="Convert GAL BGDs into OSBs &amp; DSB.">
<polygon fill="#bfbfbf" stroke="black" points="0,-38.5 0,-57.5 107,-57.5 107,-38.5 0,-38.5"/>
<text text-anchor="middle" x="53.5" y="-45.5" font-family="Helvetica,sans-Serif" font-size="10.00">decomposeBGDBias</text>
</a>
</g>
</g>
<!-- Node2 -->
<g id="node2" class="node">
<title>Node2</title>
<g id="a_node2"><a xlink:href="structSatSys.html#aec6d07b90d1e8172b8b6a6966abef4fd" target="_top" xlink:title="Returns a std::string of this satellite&#39;s id.">
<polygon fill="white" stroke="black" points="153.5,-76.5 153.5,-95.5 213.5,-95.5 213.5,-76.5 153.5,-76.5"/>
<text text-anchor="middle" x="183.5" y="-83.5" font-family="Helvetica,sans-Serif" font-size="10.00">SatSys::id</text>
</a>
</g>
</g>
<!-- Node1&#45;&gt;Node2 -->
<g id="edge1" class="edge">
<title>Node1&#45;&gt;Node2</title>
<path fill="none" stroke="midnightblue" d="M86.8,-57.59C104.05,-62.71 125.4,-69.05 143.56,-74.44"/>
<polygon fill="midnightblue" stroke="midnightblue" points="142.69,-77.83 153.27,-77.32 144.68,-71.12 142.69,-77.83"/>
</g>
<!-- Node4 -->
<g id="node4" class="node">
<title>Node4</title>
<g id="a_node4"><a xlink:href="structSatSys.html#abfd7e43b0d57c2718d05ca595ee360dd" target="_top" xlink:title="Returns the character used as a prefix for this system.">
<polygon fill="white" stroke="black" points="370,-57.5 370,-76.5 458,-76.5 458,-57.5 370,-57.5"/>
<text text-anchor="middle" x="414" y="-64.5" font-family="Helvetica,sans-Serif" font-size="10.00">SatSys::sysChar</text>
</a>
</g>
</g>
<!-- Node1&#45;&gt;Node4 -->
<g id="edge5" class="edge">
<title>Node1&#45;&gt;Node4</title>
<path fill="none" stroke="midnightblue" d="M107.01,-50.78C174.72,-54.37 291.82,-60.58 359.84,-64.18"/>
<polygon fill="midnightblue" stroke="midnightblue" points="359.74,-67.68 369.91,-64.72 360.11,-60.69 359.74,-67.68"/>
</g>
<!-- Node5 -->
<g id="node5" class="node">
<title>Node5</title>
<g id="a_node5"><a xlink:href="biasSINEXread_8cpp.html#a6a51f9914e96ab2fec060c9463b86ae4" target="_top" xlink:title="Push forward and reverse bias entry into the SINEXBiases map.">
<polygon fill="white" stroke="black" points="143,-0.5 143,-19.5 224,-19.5 224,-0.5 143,-0.5"/>
<text text-anchor="middle" x="183.5" y="-7.5" font-family="Helvetica,sans-Serif" font-size="10.00">pushBiasSinex</text>
</a>
</g>
</g>
<!-- Node1&#45;&gt;Node5 -->
<g id="edge4" class="edge">
<title>Node1&#45;&gt;Node5</title>
<path fill="none" stroke="midnightblue" d="M86.8,-38.41C103.02,-33.6 122.88,-27.7 140.29,-22.53"/>
<polygon fill="midnightblue" stroke="midnightblue" points="141.62,-25.79 150.21,-19.59 139.63,-19.08 141.62,-25.79"/>
</g>
<!-- Node3 -->
<g id="node3" class="node">
<title>Node3</title>
<g id="a_node3"><a xlink:href="structSatSys.html#adbdf98ba1ef1f22b6aaed93916529513" target="_top" xlink:title="Sets a 4 character c_string of this satellite&#39;s id.">
<polygon fill="white" stroke="black" points="260,-76.5 260,-95.5 334,-95.5 334,-76.5 260,-76.5"/>
<text text-anchor="middle" x="297" y="-83.5" font-family="Helvetica,sans-Serif" font-size="10.00">SatSys::getId</text>
</a>
</g>
</g>
<!-- Node2&#45;&gt;Node3 -->
<g id="edge2" class="edge">
<title>Node2&#45;&gt;Node3</title>
<path fill="none" stroke="midnightblue" d="M213.5,-86C224.59,-86 237.54,-86 249.83,-86"/>
<polygon fill="midnightblue" stroke="midnightblue" points="249.96,-89.5 259.96,-86 249.96,-82.5 249.96,-89.5"/>
</g>
<!-- Node3&#45;&gt;Node4 -->
<g id="edge3" class="edge">
<title>Node3&#45;&gt;Node4</title>
<path fill="none" stroke="midnightblue" d="M334.07,-80.04C342.21,-78.7 351.03,-77.24 359.71,-75.8"/>
<polygon fill="midnightblue" stroke="midnightblue" points="360.5,-79.22 369.8,-74.14 359.36,-72.31 360.5,-79.22"/>
</g>
</g>
</svg>
