<?xml version="1.0" encoding="UTF-8" standalone="no"?>
<!DOCTYPE svg PUBLIC "-//W3C//DTD SVG 1.1//EN"
 "http://www.w3.org/Graphics/SVG/1.1/DTD/svg11.dtd">
<!-- Generated by graphviz version 2.50.0 (20220203.2022)
 -->
<!-- Title: read_biasSINEX_line Pages: 1 -->
<svg width="471pt" height="180pt"
 viewBox="0.00 0.00 471.00 180.00" xmlns="http://www.w3.org/2000/svg" xmlns:xlink="http://www.w3.org/1999/xlink">
<g id="graph0" class="graph" transform="scale(1 1) rotate(0) translate(4 176)">
<title>read_biasSINEX_line</title>
<polygon fill="white" stroke="transparent" points="-4,4 -4,-176 467,-176 467,4 -4,4"/>
<!-- Node1 -->
<g id="node1" class="node">
<title>Node1</title>
<g id="a_node1"><a xlink:title="Read data line in bias SINEX file.">
<polygon fill="#bfbfbf" stroke="black" points="0,-76.5 0,-95.5 109,-95.5 109,-76.5 0,-76.5"/>
<text text-anchor="middle" x="54.5" y="-83.5" font-family="Helvetica,sans-Serif" font-size="10.00">read_biasSINEX_line</text>
</a>
</g>
</g>
<!-- Node2 -->
<g id="node2" class="node">
<title>Node2</title>
<g id="a_node2"><a xlink:href="structSatSys.html#aec6d07b90d1e8172b8b6a6966abef4fd" target="_top" xlink:title="Returns a std::string of this satellite&#39;s id.">
<polygon fill="white" stroke="black" points="157,-152.5 157,-171.5 217,-171.5 217,-152.5 157,-152.5"/>
<text text-anchor="middle" x="187" y="-159.5" font-family="Helvetica,sans-Serif" font-size="10.00">SatSys::id</text>
</a>
</g>
</g>
<!-- Node1&#45;&gt;Node2 -->
<g id="edge1" class="edge">
<title>Node1&#45;&gt;Node2</title>
<path fill="none" stroke="midnightblue" d="M72.03,-95.63C94.38,-108.65 134.47,-131.99 160.65,-147.24"/>
<polygon fill="midnightblue" stroke="midnightblue" points="159.2,-150.44 169.61,-152.45 162.73,-144.4 159.2,-150.44"/>
</g>
<!-- Node4 -->
<g id="node4" class="node">
<title>Node4</title>
<g id="a_node4"><a xlink:href="structSatSys.html#abfd7e43b0d57c2718d05ca595ee360dd" target="_top" xlink:title="Returns the character used as a prefix for this system.">
<polygon fill="white" stroke="black" points="375,-133.5 375,-152.5 463,-152.5 463,-133.5 375,-133.5"/>
<text text-anchor="middle" x="419" y="-140.5" font-family="Helvetica,sans-Serif" font-size="10.00">SatSys::sysChar</text>
</a>
</g>
</g>
<!-- Node1&#45;&gt;Node4 -->
<g id="edge8" class="edge">
<title>Node1&#45;&gt;Node4</title>
<path fill="none" stroke="midnightblue" d="M97.27,-95.51C112.28,-98.75 129.35,-102.25 145,-105 220.94,-118.33 309.42,-129.93 364.59,-136.7"/>
<polygon fill="midnightblue" stroke="midnightblue" points="364.47,-140.21 374.82,-137.95 365.32,-133.27 364.47,-140.21"/>
</g>
<!-- Node5 -->
<g id="node5" class="node">
<title>Node5</title>
<g id="a_node5"><a xlink:href="biasSINEXread_8cpp.html#a6a51f9914e96ab2fec060c9463b86ae4" target="_top" xlink:title="Push forward and reverse bias entry into the SINEXBiases map.">
<polygon fill="white" stroke="black" points="146.5,-76.5 146.5,-95.5 227.5,-95.5 227.5,-76.5 146.5,-76.5"/>
<text text-anchor="middle" x="187" y="-83.5" font-family="Helvetica,sans-Serif" font-size="10.00">pushBiasSinex</text>
</a>
</g>
</g>
<!-- Node1&#45;&gt;Node5 -->
<g id="edge4" class="edge">
<title>Node1&#45;&gt;Node5</title>
<path fill="none" stroke="midnightblue" d="M109.33,-86C118.21,-86 127.39,-86 136.17,-86"/>
<polygon fill="midnightblue" stroke="midnightblue" points="136.25,-89.5 146.25,-86 136.25,-82.5 136.25,-89.5"/>
</g>
<!-- Node6 -->
<g id="node6" class="node">
<title>Node6</title>
<g id="a_node6"><a xlink:href="biasSINEXread_8cpp.html#a60d652eca6b75444a65b96a6dbdb4f3e" target="_top" xlink:title="Convert time string in bias SINEX to gtime struct.">
<polygon fill="white" stroke="black" points="145,-38.5 145,-57.5 229,-57.5 229,-38.5 145,-38.5"/>
<text text-anchor="middle" x="187" y="-45.5" font-family="Helvetica,sans-Serif" font-size="10.00">sinex_time_text</text>
</a>
</g>
</g>
<!-- Node1&#45;&gt;Node6 -->
<g id="edge5" class="edge">
<title>Node1&#45;&gt;Node6</title>
<path fill="none" stroke="midnightblue" d="M88.43,-76.41C105.12,-71.55 125.59,-65.59 143.46,-60.39"/>
<polygon fill="midnightblue" stroke="midnightblue" points="144.46,-63.74 153.08,-57.59 142.5,-57.02 144.46,-63.74"/>
</g>
<!-- Node8 -->
<g id="node8" class="node">
<title>Node8</title>
<g id="a_node8"><a xlink:href="biasSINEXread_8cpp.html#a67c1c7b63f5be7f1efbc0e06a3f581fc" target="_top" xlink:title="Convert observation code string to enum code.">
<polygon fill="white" stroke="black" points="160,-0.5 160,-19.5 214,-19.5 214,-0.5 160,-0.5"/>
<text text-anchor="middle" x="187" y="-7.5" font-family="Helvetica,sans-Serif" font-size="10.00">str2code</text>
</a>
</g>
</g>
<!-- Node1&#45;&gt;Node8 -->
<g id="edge7" class="edge">
<title>Node1&#45;&gt;Node8</title>
<path fill="none" stroke="midnightblue" d="M69.41,-76.32C86.71,-64.47 117.36,-44.12 145,-29 148.12,-27.29 151.43,-25.59 154.75,-23.95"/>
<polygon fill="midnightblue" stroke="midnightblue" points="156.51,-26.99 164.03,-19.53 153.5,-20.67 156.51,-26.99"/>
</g>
<!-- Node3 -->
<g id="node3" class="node">
<title>Node3</title>
<g id="a_node3"><a xlink:href="structSatSys.html#adbdf98ba1ef1f22b6aaed93916529513" target="_top" xlink:title="Sets a 4 character c_string of this satellite&#39;s id.">
<polygon fill="white" stroke="black" points="265,-152.5 265,-171.5 339,-171.5 339,-152.5 265,-152.5"/>
<text text-anchor="middle" x="302" y="-159.5" font-family="Helvetica,sans-Serif" font-size="10.00">SatSys::getId</text>
</a>
</g>
</g>
<!-- Node2&#45;&gt;Node3 -->
<g id="edge2" class="edge">
<title>Node2&#45;&gt;Node3</title>
<path fill="none" stroke="midnightblue" d="M217.1,-162C228.44,-162 241.73,-162 254.34,-162"/>
<polygon fill="midnightblue" stroke="midnightblue" points="254.71,-165.5 264.71,-162 254.71,-158.5 254.71,-165.5"/>
</g>
<!-- Node3&#45;&gt;Node4 -->
<g id="edge3" class="edge">
<title>Node3&#45;&gt;Node4</title>
<path fill="none" stroke="midnightblue" d="M339.07,-156.04C347.21,-154.7 356.03,-153.24 364.71,-151.8"/>
<polygon fill="midnightblue" stroke="midnightblue" points="365.5,-155.22 374.8,-150.14 364.36,-148.31 365.5,-155.22"/>
</g>
<!-- Node7 -->
<g id="node7" class="node">
<title>Node7</title>
<g id="a_node7"><a xlink:href="gTime_8cpp.html#aa46173b9085096882d09e53d96e9dc41" target="_top" xlink:title=" ">
<polygon fill="white" stroke="black" points="268.5,-38.5 268.5,-57.5 335.5,-57.5 335.5,-38.5 268.5,-38.5"/>
<text text-anchor="middle" x="302" y="-45.5" font-family="Helvetica,sans-Serif" font-size="10.00">epoch2time</text>
</a>
</g>
</g>
<!-- Node6&#45;&gt;Node7 -->
<g id="edge6" class="edge">
<title>Node6&#45;&gt;Node7</title>
<path fill="none" stroke="midnightblue" d="M229.12,-48C238.57,-48 248.64,-48 258.17,-48"/>
<polygon fill="midnightblue" stroke="midnightblue" points="258.23,-51.5 268.23,-48 258.23,-44.5 258.23,-51.5"/>
</g>
</g>
</svg>
