<?xml version="1.0" encoding="UTF-8" standalone="no"?>
<!DOCTYPE svg PUBLIC "-//W3C//DTD SVG 1.1//EN"
 "http://www.w3.org/Graphics/SVG/1.1/DTD/svg11.dtd">
<!-- Generated by graphviz version 2.50.0 (20220203.2022)
 -->
<!-- Title: /github/workspace/src/cpp/loading/boost_ma_type.h Pages: 1 -->
<!--zoomable 262 -->
<svg id="main" version="1.1" xmlns="http://www.w3.org/2000/svg" xmlns:xlink="http://www.w3.org/1999/xlink" xml:space="preserve" onload="init(evt)">
<style type="text/css"><![CDATA[
.edge:hover path { stroke: red; }
.edge:hover polygon { stroke: red; fill: red; }
]]></style>
<script type="text/javascript"><![CDATA[
var edges = document.getElementsByTagName('g');
if (edges && edges.length) {
  for (var i=0;i<edges.length;i++) {
    if (edges[i].id.substr(0,4)=='edge') {
      edges[i].setAttribute('class','edge');
    }
  }
}
]]></script>
        <defs>
                <circle id="rim" cx="0" cy="0" r="7"/>
                <circle id="rim2" cx="0" cy="0" r="3.5"/>
                <g id="zoomPlus">
                        <use xlink:href="#rim" fill="#404040">
                                <set attributeName="fill" to="#808080" begin="zoomplus.mouseover" end="zoomplus.mouseout"/>
                        </use>
                        <path d="M-4,0h8M0,-4v8" fill="none" stroke="white" stroke-width="1.5" pointer-events="none"/>
                </g>
                <g id="zoomMin">
                        <use xlink:href="#rim" fill="#404040">
                                <set attributeName="fill" to="#808080" begin="zoomminus.mouseover" end="zoomminus.mouseout"/>
                        </use>
                        <path d="M-4,0h8" fill="none" stroke="white" stroke-width="1.5" pointer-events="none"/>
                </g>
                <g id="dirArrow">
                        <path fill="none" stroke="white" stroke-width="1.5" d="M0,-3.0v7 M-2.5,-0.5L0,-3.0L2.5,-0.5"/>
                </g>
               <g id="resetDef">
                       <use xlink:href="#rim2" fill="#404040">
                               <set attributeName="fill" to="#808080" begin="reset.mouseover" end="reset.mouseout"/>
                       </use>
               </g>
        </defs>

<script type="text/javascript">
var viewWidth = 746;
var viewHeight = 262;
var sectionId = 'dynsection-0';
</script>
<script xlink:href="svgpan.js"/>
<svg id="graph" class="graph">
<g id="viewport">
<title>/github/workspace/src/cpp/loading/boost_ma_type.h</title>
<polygon fill="white" stroke="transparent" points="-4,4 -4,-258 741.5,-258 741.5,4 -4,4"/>
<!-- Node1 -->
<g id="node1" class="node">
<title>Node1</title>
<g id="a_node1"><a xlink:title=" ">
<polygon fill="#bfbfbf" stroke="black" points="251,-212.5 251,-253.5 366,-253.5 366,-212.5 251,-212.5"/>
<text text-anchor="start" x="259" y="-241.5" font-family="Helvetica,sans-Serif" font-size="10.00">/github/workspace/src</text>
<text text-anchor="start" x="259" y="-230.5" font-family="Helvetica,sans-Serif" font-size="10.00">/cpp/loading/boost_ma</text>
<text text-anchor="middle" x="308.5" y="-219.5" font-family="Helvetica,sans-Serif" font-size="10.00">_type.h</text>
</a>
</g>
</g>
<!-- Node2 -->
<g id="node2" class="node">
<title>Node2</title>
<g id="a_node2"><a xlink:href="input__otl_8h.html" target="_top" xlink:title=" ">
<polygon fill="white" stroke="black" points="181.5,-145.5 181.5,-175.5 297.5,-175.5 297.5,-145.5 181.5,-145.5"/>
<text text-anchor="start" x="189.5" y="-163.5" font-family="Helvetica,sans-Serif" font-size="10.00">/github/workspace/src</text>
<text text-anchor="middle" x="239.5" y="-152.5" font-family="Helvetica,sans-Serif" font-size="10.00">/cpp/loading/input_otl.h</text>
</a>
</g>
</g>
<!-- Node1&#45;&gt;Node2 -->
<g id="edge1" class="edge">
<title>Node1&#45;&gt;Node2</title>
<path fill="none" stroke="midnightblue" d="M282.09,-205.02C272.39,-195.11 261.79,-184.27 253.59,-175.89"/>
<polygon fill="midnightblue" stroke="midnightblue" points="279.78,-207.66 289.28,-212.36 284.79,-202.77 279.78,-207.66"/>
</g>
<!-- Node4 -->
<g id="node4" class="node">
<title>Node4</title>
<g id="a_node4"><a xlink:href="load__functions_8cpp.html" target="_top" xlink:title=" ">
<polygon fill="white" stroke="black" points="0,-6 0,-36 153,-36 153,-6 0,-6"/>
<text text-anchor="start" x="8" y="-24" font-family="Helvetica,sans-Serif" font-size="10.00">/github/workspace/src</text>
<text text-anchor="middle" x="76.5" y="-13" font-family="Helvetica,sans-Serif" font-size="10.00">/cpp/loading/load_functions.cpp</text>
</a>
</g>
</g>
<!-- Node1&#45;&gt;Node4 -->
<g id="edge9" class="edge">
<title>Node1&#45;&gt;Node4</title>
<path fill="none" stroke="midnightblue" d="M241.39,-211.61C218.31,-202.78 193.11,-190.97 172.5,-176 121.77,-139.15 91.9,-66.53 81.11,-36.02"/>
<polygon fill="midnightblue" stroke="midnightblue" points="240.2,-214.9 250.79,-215.1 242.63,-208.34 240.2,-214.9"/>
</g>
<!-- Node7 -->
<g id="node7" class="node">
<title>Node7</title>
<g id="a_node7"><a xlink:href="loadgrid_8h.html" target="_top" xlink:title=" ">
<polygon fill="white" stroke="black" points="529,-145.5 529,-175.5 642,-175.5 642,-145.5 529,-145.5"/>
<text text-anchor="start" x="537" y="-163.5" font-family="Helvetica,sans-Serif" font-size="10.00">/github/workspace/src</text>
<text text-anchor="middle" x="585.5" y="-152.5" font-family="Helvetica,sans-Serif" font-size="10.00">/cpp/loading/loadgrid.h</text>
</a>
</g>
</g>
<!-- Node1&#45;&gt;Node7 -->
<g id="edge10" class="edge">
<title>Node1&#45;&gt;Node7</title>
<path fill="none" stroke="midnightblue" d="M376.09,-214.8C423.41,-202.75 485.85,-186.86 530.2,-175.57"/>
<polygon fill="midnightblue" stroke="midnightblue" points="375.06,-211.45 366.23,-217.31 376.79,-218.23 375.06,-211.45"/>
</g>
<!-- Node9 -->
<g id="node9" class="node">
<title>Node9</title>
<g id="a_node9"><a xlink:href="tide_8h.html" target="_top" xlink:title=" ">
<polygon fill="white" stroke="black" points="319,-145.5 319,-175.5 432,-175.5 432,-145.5 319,-145.5"/>
<text text-anchor="start" x="327" y="-163.5" font-family="Helvetica,sans-Serif" font-size="10.00">/github/workspace/src</text>
<text text-anchor="middle" x="375.5" y="-152.5" font-family="Helvetica,sans-Serif" font-size="10.00">/cpp/loading/tide.h</text>
</a>
</g>
</g>
<!-- Node1&#45;&gt;Node9 -->
<g id="edge13" class="edge">
<title>Node1&#45;&gt;Node9</title>
<path fill="none" stroke="midnightblue" d="M334.14,-205.02C343.56,-195.11 353.86,-184.27 361.82,-175.89"/>
<polygon fill="midnightblue" stroke="midnightblue" points="331.52,-202.7 327.16,-212.36 336.59,-207.52 331.52,-202.7"/>
</g>
<!-- Node3 -->
<g id="node3" class="node">
<title>Node3</title>
<g id="a_node3"><a xlink:href="interpolate__loading_8cpp.html" target="_top" xlink:title=" ">
<polygon fill="white" stroke="black" points="401,-0.5 401,-41.5 518,-41.5 518,-0.5 401,-0.5"/>
<text text-anchor="start" x="409" y="-29.5" font-family="Helvetica,sans-Serif" font-size="10.00">/github/workspace/src</text>
<text text-anchor="start" x="409" y="-18.5" font-family="Helvetica,sans-Serif" font-size="10.00">/cpp/loading/interpolate</text>
<text text-anchor="middle" x="459.5" y="-7.5" font-family="Helvetica,sans-Serif" font-size="10.00">_loading.cpp</text>
</a>
</g>
</g>
<!-- Node2&#45;&gt;Node3 -->
<g id="edge2" class="edge">
<title>Node2&#45;&gt;Node3</title>
<path fill="none" stroke="midnightblue" d="M270.88,-139.89C312.71,-113.75 386.29,-67.76 428.11,-41.62"/>
<polygon fill="midnightblue" stroke="midnightblue" points="268.84,-137.03 262.22,-145.3 272.55,-142.97 268.84,-137.03"/>
</g>
<!-- Node2&#45;&gt;Node4 -->
<g id="edge3" class="edge">
<title>Node2&#45;&gt;Node4</title>
<path fill="none" stroke="midnightblue" d="M199.41,-140.6C183.38,-132.09 165.26,-121.21 150.5,-109 123.91,-87.01 99.28,-54.72 86.23,-36.29"/>
<polygon fill="midnightblue" stroke="midnightblue" points="198.07,-143.85 208.56,-145.33 201.28,-137.63 198.07,-143.85"/>
</g>
<!-- Node5 -->
<g id="node5" class="node">
<title>Node5</title>
<g id="a_node5"><a xlink:href="load__functions_8h.html" target="_top" xlink:title=" ">
<polygon fill="white" stroke="black" points="168,-78.5 168,-108.5 311,-108.5 311,-78.5 168,-78.5"/>
<text text-anchor="start" x="176" y="-96.5" font-family="Helvetica,sans-Serif" font-size="10.00">/github/workspace/src</text>
<text text-anchor="middle" x="239.5" y="-85.5" font-family="Helvetica,sans-Serif" font-size="10.00">/cpp/loading/load_functions.h</text>
</a>
</g>
</g>
<!-- Node2&#45;&gt;Node5 -->
<g id="edge4" class="edge">
<title>Node2&#45;&gt;Node5</title>
<path fill="none" stroke="midnightblue" d="M239.5,-135.11C239.5,-126.15 239.5,-116.32 239.5,-108.58"/>
<polygon fill="midnightblue" stroke="midnightblue" points="236,-135.4 239.5,-145.4 243,-135.4 236,-135.4"/>
</g>
<!-- Node6 -->
<g id="node6" class="node">
<title>Node6</title>
<g id="a_node6"><a xlink:href="make__otl__blq_8cpp.html" target="_top" xlink:title="Program to compute the ocean tide loading from a tide grid.">
<polygon fill="white" stroke="black" points="183,-0.5 183,-41.5 296,-41.5 296,-0.5 183,-0.5"/>
<text text-anchor="start" x="191" y="-29.5" font-family="Helvetica,sans-Serif" font-size="10.00">/github/workspace/src</text>
<text text-anchor="start" x="191" y="-18.5" font-family="Helvetica,sans-Serif" font-size="10.00">/cpp/loading/make_otl</text>
<text text-anchor="middle" x="239.5" y="-7.5" font-family="Helvetica,sans-Serif" font-size="10.00">_blq.cpp</text>
</a>
</g>
</g>
<!-- Node2&#45;&gt;Node6 -->
<g id="edge8" class="edge">
<title>Node2&#45;&gt;Node6</title>
<path fill="none" stroke="midnightblue" d="M191.74,-140.45C178.61,-132.74 165.95,-122.42 158.5,-109 151.81,-96.95 152.1,-90.2 158.5,-78 166.6,-62.56 181.1,-50.53 195.62,-41.65"/>
<polygon fill="midnightblue" stroke="midnightblue" points="190.38,-143.69 200.84,-145.37 193.71,-137.54 190.38,-143.69"/>
</g>
<!-- Node5&#45;&gt;Node3 -->
<g id="edge5" class="edge">
<title>Node5&#45;&gt;Node3</title>
<path fill="none" stroke="midnightblue" d="M293.04,-75.34C325.65,-64.89 367.35,-51.53 400.85,-40.79"/>
<polygon fill="midnightblue" stroke="midnightblue" points="291.68,-72.1 283.23,-78.49 293.82,-78.77 291.68,-72.1"/>
</g>
<!-- Node5&#45;&gt;Node4 -->
<g id="edge6" class="edge">
<title>Node5&#45;&gt;Node4</title>
<path fill="none" stroke="midnightblue" d="M197.52,-74.34C169.96,-62.42 134.45,-47.07 109.04,-36.07"/>
<polygon fill="midnightblue" stroke="midnightblue" points="196.34,-77.65 206.91,-78.4 199.12,-71.22 196.34,-77.65"/>
</g>
<!-- Node5&#45;&gt;Node6 -->
<g id="edge7" class="edge">
<title>Node5&#45;&gt;Node6</title>
<path fill="none" stroke="midnightblue" d="M239.5,-67.98C239.5,-59.35 239.5,-49.76 239.5,-41.59"/>
<polygon fill="midnightblue" stroke="midnightblue" points="236,-68.23 239.5,-78.23 243,-68.23 236,-68.23"/>
</g>
<!-- Node7&#45;&gt;Node3 -->
<g id="edge11" class="edge">
<title>Node7&#45;&gt;Node3</title>
<path fill="none" stroke="midnightblue" d="M577.38,-135.75C570.58,-118.35 559.55,-94.91 544.5,-78 531.58,-63.48 514.07,-51.1 498.3,-41.7"/>
<polygon fill="midnightblue" stroke="midnightblue" points="574.13,-137.05 580.9,-145.2 580.69,-134.61 574.13,-137.05"/>
</g>
<!-- Node8 -->
<g id="node8" class="node">
<title>Node8</title>
<g id="a_node8"><a xlink:href="loadgrid_8cpp.html" target="_top" xlink:title=" ">
<polygon fill="white" stroke="black" points="613.5,-78.5 613.5,-108.5 737.5,-108.5 737.5,-78.5 613.5,-78.5"/>
<text text-anchor="start" x="621.5" y="-96.5" font-family="Helvetica,sans-Serif" font-size="10.00">/github/workspace/src</text>
<text text-anchor="middle" x="675.5" y="-85.5" font-family="Helvetica,sans-Serif" font-size="10.00">/cpp/loading/loadgrid.cpp</text>
</a>
</g>
</g>
<!-- Node7&#45;&gt;Node8 -->
<g id="edge12" class="edge">
<title>Node7&#45;&gt;Node8</title>
<path fill="none" stroke="midnightblue" d="M613.26,-139.45C627.11,-129.45 643.52,-117.6 656.01,-108.58"/>
<polygon fill="midnightblue" stroke="midnightblue" points="611.09,-136.7 605.03,-145.4 615.18,-142.38 611.09,-136.7"/>
</g>
<!-- Node9&#45;&gt;Node3 -->
<g id="edge14" class="edge">
<title>Node9&#45;&gt;Node3</title>
<path fill="none" stroke="midnightblue" d="M442.08,-154.8C473.35,-148.85 507.97,-136.06 527.5,-109 544.55,-85.37 517.38,-59.13 492.49,-41.71"/>
<polygon fill="midnightblue" stroke="midnightblue" points="441.34,-151.37 432.06,-156.5 442.51,-158.28 441.34,-151.37"/>
</g>
<!-- Node9&#45;&gt;Node4 -->
<g id="edge15" class="edge">
<title>Node9&#45;&gt;Node4</title>
<path fill="none" stroke="midnightblue" d="M308.95,-144.99C247.65,-131.47 165.18,-112.84 158.5,-109 150.04,-104.14 109.78,-59.5 88.99,-36.12"/>
<polygon fill="midnightblue" stroke="midnightblue" points="308.46,-148.47 318.98,-147.2 309.96,-141.63 308.46,-148.47"/>
</g>
<!-- Node9&#45;&gt;Node5 -->
<g id="edge16" class="edge">
<title>Node9&#45;&gt;Node5</title>
<path fill="none" stroke="midnightblue" d="M336.78,-140.99C315.22,-130.69 288.81,-118.07 268.95,-108.58"/>
<polygon fill="midnightblue" stroke="midnightblue" points="335.46,-144.24 345.99,-145.4 338.48,-137.93 335.46,-144.24"/>
</g>
<!-- Node9&#45;&gt;Node6 -->
<g id="edge17" class="edge">
<title>Node9&#45;&gt;Node6</title>
<path fill="none" stroke="midnightblue" d="M362.78,-136.53C352.51,-119.24 336.94,-95.59 319.5,-78 305.77,-64.15 288.24,-51.45 273.08,-41.65"/>
<polygon fill="midnightblue" stroke="midnightblue" points="359.87,-138.51 367.91,-145.41 365.93,-135 359.87,-138.51"/>
</g>
<!-- Node10 -->
<g id="node10" class="node">
<title>Node10</title>
<g id="a_node10"><a xlink:href="tide_8cpp.html" target="_top" xlink:title=" ">
<polygon fill="white" stroke="black" points="406,-78.5 406,-108.5 519,-108.5 519,-78.5 406,-78.5"/>
<text text-anchor="start" x="414" y="-96.5" font-family="Helvetica,sans-Serif" font-size="10.00">/github/workspace/src</text>
<text text-anchor="middle" x="462.5" y="-85.5" font-family="Helvetica,sans-Serif" font-size="10.00">/cpp/loading/tide.cpp</text>
</a>
</g>
</g>
<!-- Node9&#45;&gt;Node10 -->
<g id="edge18" class="edge">
<title>Node9&#45;&gt;Node10</title>
<path fill="none" stroke="midnightblue" d="M402.71,-139.17C416.02,-129.23 431.7,-117.51 443.66,-108.58"/>
<polygon fill="midnightblue" stroke="midnightblue" points="400.29,-136.61 394.38,-145.4 404.48,-142.21 400.29,-136.61"/>
</g>
</g>
</svg>
        <g id="navigator" transform="translate(0 0)" fill="#404254">
                <rect fill="#f2f5e9" fill-opacity="0.5" stroke="#606060" stroke-width=".5" x="0" y="0" width="60" height="60"/>
                <use id="zoomplus" xlink:href="#zoomPlus" x="17" y="9" onmousedown="handleZoom(evt,'in')"/>
                <use id="zoomminus" xlink:href="#zoomMin" x="42" y="9" onmousedown="handleZoom(evt,'out')"/>
                <use id="reset" xlink:href="#resetDef" x="30" y="36" onmousedown="handleReset()"/>
                <g id="arrowUp" xlink:href="#dirArrow" transform="translate(30 24)" onmousedown="handlePan(0,-1)">
                  <use xlink:href="#rim" fill="#404040">
                        <set attributeName="fill" to="#808080" begin="arrowUp.mouseover" end="arrowUp.mouseout"/>
                  </use>
                  <path fill="none" stroke="white" stroke-width="1.5" d="M0,-3.0v7 M-2.5,-0.5L0,-3.0L2.5,-0.5"/>
                </g>
                <g id="arrowRight" xlink:href="#dirArrow" transform="rotate(90) translate(36 -43)" onmousedown="handlePan(1,0)">
                  <use xlink:href="#rim" fill="#404040">
                        <set attributeName="fill" to="#808080" begin="arrowRight.mouseover" end="arrowRight.mouseout"/>
                  </use>
                  <path fill="none" stroke="white" stroke-width="1.5" d="M0,-3.0v7 M-2.5,-0.5L0,-3.0L2.5,-0.5"/>
                </g>
                <g id="arrowDown" xlink:href="#dirArrow" transform="rotate(180) translate(-30 -48)" onmousedown="handlePan(0,1)">
                  <use xlink:href="#rim" fill="#404040">
                        <set attributeName="fill" to="#808080" begin="arrowDown.mouseover" end="arrowDown.mouseout"/>
                  </use>
                  <path fill="none" stroke="white" stroke-width="1.5" d="M0,-3.0v7 M-2.5,-0.5L0,-3.0L2.5,-0.5"/>
                </g>
                <g id="arrowLeft" xlink:href="#dirArrow" transform="rotate(270) translate(-36 17)" onmousedown="handlePan(-1,0)">
                  <use xlink:href="#rim" fill="#404040">
                        <set attributeName="fill" to="#808080" begin="arrowLeft.mouseover" end="arrowLeft.mouseout"/>
                  </use>
                  <path fill="none" stroke="white" stroke-width="1.5" d="M0,-3.0v7 M-2.5,-0.5L0,-3.0L2.5,-0.5"/>
                </g>
        </g>
        <svg viewBox="0 0 15 15" width="100%" height="30px" preserveAspectRatio="xMaxYMin meet">
         <g id="arrow_out" transform="scale(0.3 0.3)">
          <a xlink:href="boost__ma__type_8h__dep__incl_org.svg" target="_base">
           <rect id="button" ry="5" rx="5" y="6" x="6" height="38" width="38"
                fill="#f2f5e9" fill-opacity="0.5" stroke="#606060" stroke-width="1.0"/>
           <path id="arrow"
             d="M 11.500037,31.436501 C 11.940474,20.09759 22.043105,11.32322 32.158766,21.979434 L 37.068811,17.246167 C 37.068811,17.246167 37.088388,32 37.088388,32 L 22.160133,31.978069 C 22.160133,31.978069 26.997745,27.140456 26.997745,27.140456 C 18.528582,18.264221 13.291696,25.230495 11.500037,31.436501 z"
             style="fill:#404040;"/>
          </a>
         </g>
        </svg>
</svg>
