<?xml version="1.0" encoding="UTF-8" standalone="no"?>
<!DOCTYPE svg PUBLIC "-//W3C//DTD SVG 1.1//EN"
 "http://www.w3.org/Graphics/SVG/1.1/DTD/svg11.dtd">
<!-- Generated by graphviz version 2.50.0 (20220203.2022)
 -->
<!-- Title: iau_bp00 Pages: 1 -->
<svg width="313pt" height="294pt"
 viewBox="0.00 0.00 313.00 294.00" xmlns="http://www.w3.org/2000/svg" xmlns:xlink="http://www.w3.org/1999/xlink">
<g id="graph0" class="graph" transform="scale(1 1) rotate(0) translate(4 290)">
<title>iau_bp00</title>
<polygon fill="white" stroke="transparent" points="-4,4 -4,-290 309,-290 309,4 -4,4"/>
<!-- Node1 -->
<g id="node1" class="node">
<title>Node1</title>
<g id="a_node1"><a xlink:title=" ">
<polygon fill="#bfbfbf" stroke="black" points="0,-133.5 0,-152.5 56,-152.5 56,-133.5 0,-133.5"/>
<text text-anchor="middle" x="28" y="-140.5" font-family="Helvetica,sans-Serif" font-size="10.00">iau_bp00</text>
</a>
</g>
</g>
<!-- Node2 -->
<g id="node2" class="node">
<title>Node2</title>
<g id="a_node2"><a xlink:href="bi00_8for.html#a252e80e7b5fbe739872394a413e80b68" target="_top" xlink:title=" ">
<polygon fill="white" stroke="black" points="92,-266.5 92,-285.5 145,-285.5 145,-266.5 92,-266.5"/>
<text text-anchor="middle" x="118.5" y="-273.5" font-family="Helvetica,sans-Serif" font-size="10.00">iau_bi00</text>
</a>
</g>
</g>
<!-- Node1&#45;&gt;Node2 -->
<g id="edge1" class="edge">
<title>Node1&#45;&gt;Node2</title>
<path fill="none" stroke="midnightblue" d="M33.38,-152.62C42.6,-172.36 65.4,-218.42 92,-252 93.91,-254.41 96.06,-256.81 98.29,-259.1"/>
<polygon fill="midnightblue" stroke="midnightblue" points="96.23,-261.98 105.87,-266.37 101.07,-256.93 96.23,-261.98"/>
</g>
<!-- Node3 -->
<g id="node3" class="node">
<title>Node3</title>
<g id="a_node3"><a xlink:href="cr_8for.html#a5ac91403d61c9ee837585d625d49f63e" target="_top" xlink:title=" ">
<polygon fill="white" stroke="black" points="181,-152.5 181,-171.5 224,-171.5 224,-152.5 181,-152.5"/>
<text text-anchor="middle" x="202.5" y="-159.5" font-family="Helvetica,sans-Serif" font-size="10.00">iau_cr</text>
</a>
</g>
</g>
<!-- Node1&#45;&gt;Node3 -->
<g id="edge2" class="edge">
<title>Node1&#45;&gt;Node3</title>
<path fill="none" stroke="midnightblue" d="M33.39,-152.52C41.89,-169.62 62.37,-205.08 92,-219 113.32,-229.02 123.26,-228.06 145,-219 163.81,-211.16 179.57,-193.67 189.62,-180.12"/>
<polygon fill="midnightblue" stroke="midnightblue" points="192.77,-181.74 195.64,-171.54 187.03,-177.72 192.77,-181.74"/>
</g>
<!-- Node5 -->
<g id="node5" class="node">
<title>Node5</title>
<g id="a_node5"><a xlink:href="ir_8for.html#aa0f81aa3063717ff26c8c77f2b2e9bb0" target="_top" xlink:title=" ">
<polygon fill="white" stroke="black" points="98.5,-190.5 98.5,-209.5 138.5,-209.5 138.5,-190.5 98.5,-190.5"/>
<text text-anchor="middle" x="118.5" y="-197.5" font-family="Helvetica,sans-Serif" font-size="10.00">iau_ir</text>
</a>
</g>
</g>
<!-- Node1&#45;&gt;Node5 -->
<g id="edge4" class="edge">
<title>Node1&#45;&gt;Node5</title>
<path fill="none" stroke="midnightblue" d="M44.01,-152.67C57.7,-161.48 78.14,-174.65 93.99,-184.86"/>
<polygon fill="midnightblue" stroke="midnightblue" points="92.41,-188 102.71,-190.47 96.2,-182.12 92.41,-188"/>
</g>
<!-- Node6 -->
<g id="node6" class="node">
<title>Node6</title>
<g id="a_node6"><a xlink:href="pr00_8for.html#aaaa69a98c375d37172546f7770a5120e" target="_top" xlink:title=" ">
<polygon fill="white" stroke="black" points="92,-152.5 92,-171.5 145,-171.5 145,-152.5 92,-152.5"/>
<text text-anchor="middle" x="118.5" y="-159.5" font-family="Helvetica,sans-Serif" font-size="10.00">iau_pr00</text>
</a>
</g>
</g>
<!-- Node1&#45;&gt;Node6 -->
<g id="edge5" class="edge">
<title>Node1&#45;&gt;Node6</title>
<path fill="none" stroke="midnightblue" d="M56.03,-148.8C64.22,-150.56 73.33,-152.52 81.98,-154.38"/>
<polygon fill="midnightblue" stroke="midnightblue" points="81.33,-157.81 91.84,-156.49 82.8,-150.97 81.33,-157.81"/>
</g>
<!-- Node7 -->
<g id="node7" class="node">
<title>Node7</title>
<g id="a_node7"><a xlink:href="rx_8for.html#ae8a43cef3a918ddb1603f05f73d0cada" target="_top" xlink:title=" ">
<polygon fill="white" stroke="black" points="97.5,-114.5 97.5,-133.5 139.5,-133.5 139.5,-114.5 97.5,-114.5"/>
<text text-anchor="middle" x="118.5" y="-121.5" font-family="Helvetica,sans-Serif" font-size="10.00">iau_rx</text>
</a>
</g>
</g>
<!-- Node1&#45;&gt;Node7 -->
<g id="edge6" class="edge">
<title>Node1&#45;&gt;Node7</title>
<path fill="none" stroke="midnightblue" d="M56.03,-137.2C65.92,-135.07 77.16,-132.66 87.3,-130.48"/>
<polygon fill="midnightblue" stroke="midnightblue" points="88.33,-133.84 97.37,-128.32 86.86,-127 88.33,-133.84"/>
</g>
<!-- Node8 -->
<g id="node8" class="node">
<title>Node8</title>
<g id="a_node8"><a xlink:href="rxr_8for.html#a8172488cdcd29f9780d47f2a0c045f40" target="_top" xlink:title=" ">
<polygon fill="white" stroke="black" points="96,-76.5 96,-95.5 141,-95.5 141,-76.5 96,-76.5"/>
<text text-anchor="middle" x="118.5" y="-83.5" font-family="Helvetica,sans-Serif" font-size="10.00">iau_rxr</text>
</a>
</g>
</g>
<!-- Node1&#45;&gt;Node8 -->
<g id="edge7" class="edge">
<title>Node1&#45;&gt;Node8</title>
<path fill="none" stroke="midnightblue" d="M44.01,-133.33C57.7,-124.52 78.14,-111.35 93.99,-101.14"/>
<polygon fill="midnightblue" stroke="midnightblue" points="96.2,-103.88 102.71,-95.53 92.41,-98 96.2,-103.88"/>
</g>
<!-- Node9 -->
<g id="node9" class="node">
<title>Node9</title>
<g id="a_node9"><a xlink:href="ry_8for.html#a6af3b1b00aa34a3971c479df59c6da35" target="_top" xlink:title=" ">
<polygon fill="white" stroke="black" points="97.5,-38.5 97.5,-57.5 139.5,-57.5 139.5,-38.5 97.5,-38.5"/>
<text text-anchor="middle" x="118.5" y="-45.5" font-family="Helvetica,sans-Serif" font-size="10.00">iau_ry</text>
</a>
</g>
</g>
<!-- Node1&#45;&gt;Node9 -->
<g id="edge9" class="edge">
<title>Node1&#45;&gt;Node9</title>
<path fill="none" stroke="midnightblue" d="M35.72,-133.5C46.59,-118.48 69.13,-88.71 92,-67 93.08,-65.98 94.21,-64.96 95.37,-63.96"/>
<polygon fill="midnightblue" stroke="midnightblue" points="97.61,-66.65 103.25,-57.68 93.25,-61.17 97.61,-66.65"/>
</g>
<!-- Node10 -->
<g id="node10" class="node">
<title>Node10</title>
<g id="a_node10"><a xlink:href="rz_8for.html#a5584a629711c72f8403462414b6269d4" target="_top" xlink:title=" ">
<polygon fill="white" stroke="black" points="97.5,-0.5 97.5,-19.5 139.5,-19.5 139.5,-0.5 97.5,-0.5"/>
<text text-anchor="middle" x="118.5" y="-7.5" font-family="Helvetica,sans-Serif" font-size="10.00">iau_rz</text>
</a>
</g>
</g>
<!-- Node1&#45;&gt;Node10 -->
<g id="edge10" class="edge">
<title>Node1&#45;&gt;Node10</title>
<path fill="none" stroke="midnightblue" d="M32.7,-133.29C40.97,-112.48 62.56,-62.73 92,-29 92.84,-28.04 93.73,-27.1 94.66,-26.18"/>
<polygon fill="midnightblue" stroke="midnightblue" points="96.96,-28.82 102.3,-19.67 92.42,-23.5 96.96,-28.82"/>
</g>
<!-- Node4 -->
<g id="node4" class="node">
<title>Node4</title>
<g id="a_node4"><a xlink:href="cp_8for.html#a78ec0de27a46863bcb2fc3589c519326" target="_top" xlink:title=" ">
<polygon fill="white" stroke="black" points="260,-152.5 260,-171.5 305,-171.5 305,-152.5 260,-152.5"/>
<text text-anchor="middle" x="282.5" y="-159.5" font-family="Helvetica,sans-Serif" font-size="10.00">iau_cp</text>
</a>
</g>
</g>
<!-- Node3&#45;&gt;Node4 -->
<g id="edge3" class="edge">
<title>Node3&#45;&gt;Node4</title>
<path fill="none" stroke="midnightblue" d="M224.4,-162C232.23,-162 241.31,-162 249.89,-162"/>
<polygon fill="midnightblue" stroke="midnightblue" points="250,-165.5 260,-162 250,-158.5 250,-165.5"/>
</g>
<!-- Node8&#45;&gt;Node3 -->
<g id="edge8" class="edge">
<title>Node8&#45;&gt;Node3</title>
<path fill="none" stroke="midnightblue" d="M133.29,-95.69C137.17,-98.57 141.33,-101.81 145,-105 159.53,-117.62 174.83,-133.21 185.84,-144.9"/>
<polygon fill="midnightblue" stroke="midnightblue" points="183.33,-147.35 192.71,-152.28 188.46,-142.58 183.33,-147.35"/>
</g>
</g>
</svg>
