<?xml version="1.0" encoding="UTF-8" standalone="no"?>
<!DOCTYPE svg PUBLIC "-//W3C//DTD SVG 1.1//EN"
 "http://www.w3.org/Graphics/SVG/1.1/DTD/svg11.dtd">
<!-- Generated by graphviz version 2.50.0 (20220203.2022)
 -->
<!-- Title: brdc_cmdline Pages: 1 -->
<svg width="431pt" height="137pt"
 viewBox="0.00 0.00 431.00 136.58" xmlns="http://www.w3.org/2000/svg" xmlns:xlink="http://www.w3.org/1999/xlink">
<g id="graph0" class="graph" transform="scale(1 1) rotate(0) translate(4 132.58)">
<title>brdc_cmdline</title>
<polygon fill="white" stroke="transparent" points="-4,4 -4,-132.58 427,-132.58 427,4 -4,4"/>
<!-- Node1 -->
<g id="node1" class="node">
<title>Node1</title>
<g id="a_node1"><a xlink:title=" ">
<polygon fill="#bfbfbf" stroke="black" points="0,-7.08 0,-26.08 74,-26.08 74,-7.08 0,-7.08"/>
<text text-anchor="middle" x="37" y="-14.08" font-family="Helvetica,sans-Serif" font-size="10.00">brdc_cmdline</text>
</a>
</g>
</g>
<!-- Node2 -->
<g id="node2" class="node">
<title>Node2</title>
<g id="a_node2"><a xlink:href="namespacef90getopt.html#a2c03e2bbb786bfc0f6a825be6a5f3857" target="_top" xlink:title=" ">
<polygon fill="white" stroke="black" points="110,-29.08 110,-48.08 199,-48.08 199,-29.08 110,-29.08"/>
<text text-anchor="middle" x="154.5" y="-36.08" font-family="Helvetica,sans-Serif" font-size="10.00">f90getopt::getopt</text>
</a>
</g>
</g>
<!-- Node1&#45;&gt;Node2 -->
<g id="edge1" class="edge">
<title>Node1&#45;&gt;Node2</title>
<path fill="none" stroke="midnightblue" d="M74.23,-23.48C82.31,-25.02 91.05,-26.68 99.67,-28.33"/>
<polygon fill="midnightblue" stroke="midnightblue" points="99.22,-31.8 109.7,-30.24 100.53,-24.93 99.22,-31.8"/>
</g>
<!-- Node4 -->
<g id="node4" class="node">
<title>Node4</title>
<g id="a_node4"><a xlink:href="sinex_8cpp.html#a06fabc81a2cc41dfee260450a527ad2d" target="_top" xlink:title=" ">
<polygon fill="white" stroke="black" points="390,-29.08 390,-48.08 423,-48.08 423,-29.08 390,-29.08"/>
<text text-anchor="middle" x="406.5" y="-36.08" font-family="Helvetica,sans-Serif" font-size="10.00">trim</text>
</a>
</g>
</g>
<!-- Node1&#45;&gt;Node4 -->
<g id="edge9" class="edge">
<title>Node1&#45;&gt;Node4</title>
<path fill="none" stroke="midnightblue" d="M74.13,-10.83C133.45,-2.6 254.82,9.22 354,-13.58 363.43,-15.75 373.14,-19.88 381.54,-24.17"/>
<polygon fill="midnightblue" stroke="midnightblue" points="379.95,-27.29 390.4,-28.99 383.29,-21.14 379.95,-27.29"/>
</g>
<!-- Node2&#45;&gt;Node2 -->
<g id="edge2" class="edge">
<title>Node2&#45;&gt;Node2</title>
<path fill="none" stroke="midnightblue" d="M136.62,-48.34C127.92,-57.14 133.88,-66.58 154.5,-66.58 167.39,-66.58 174.55,-62.89 175.98,-57.98"/>
<polygon fill="midnightblue" stroke="midnightblue" points="179.16,-56.48 172.38,-48.34 172.6,-58.93 179.16,-56.48"/>
</g>
<!-- Node3 -->
<g id="node3" class="node">
<title>Node3</title>
<g id="a_node3"><a xlink:href="namespacef90getopt.html#af04c6f0f67a55213e472b327e3592c24" target="_top" xlink:title=" ">
<polygon fill="white" stroke="black" points="235,-91.08 235,-110.08 354,-110.08 354,-91.08 235,-91.08"/>
<text text-anchor="middle" x="294.5" y="-98.08" font-family="Helvetica,sans-Serif" font-size="10.00">f90getopt::process_long</text>
</a>
</g>
</g>
<!-- Node2&#45;&gt;Node3 -->
<g id="edge3" class="edge">
<title>Node2&#45;&gt;Node3</title>
<path fill="none" stroke="midnightblue" d="M171.21,-48.19C186.95,-57.54 212.07,-71.75 235,-81.58 240.09,-83.76 245.52,-85.84 250.94,-87.77"/>
<polygon fill="midnightblue" stroke="midnightblue" points="250.03,-91.15 260.62,-91.06 252.28,-84.52 250.03,-91.15"/>
</g>
<!-- Node5 -->
<g id="node5" class="node">
<title>Node5</title>
<g id="a_node5"><a xlink:href="namespacef90getopt.html#a934ac578da100fc190fa88c9199e9517" target="_top" xlink:title=" ">
<polygon fill="white" stroke="red" points="246.5,-23.58 246.5,-53.58 342.5,-53.58 342.5,-23.58 246.5,-23.58"/>
<text text-anchor="start" x="254.5" y="-41.58" font-family="Helvetica,sans-Serif" font-size="10.00">f90getopt::process</text>
<text text-anchor="middle" x="294.5" y="-30.58" font-family="Helvetica,sans-Serif" font-size="10.00">_short</text>
</a>
</g>
</g>
<!-- Node2&#45;&gt;Node5 -->
<g id="edge6" class="edge">
<title>Node2&#45;&gt;Node5</title>
<path fill="none" stroke="midnightblue" d="M199.16,-38.58C210.89,-38.58 223.74,-38.58 236.08,-38.58"/>
<polygon fill="midnightblue" stroke="midnightblue" points="236.3,-42.08 246.3,-38.58 236.3,-35.08 236.3,-42.08"/>
</g>
<!-- Node3&#45;&gt;Node3 -->
<g id="edge4" class="edge">
<title>Node3&#45;&gt;Node3</title>
<path fill="none" stroke="midnightblue" d="M277.24,-110.34C268.84,-119.14 274.59,-128.58 294.5,-128.58 306.94,-128.58 313.85,-124.89 315.24,-119.98"/>
<polygon fill="midnightblue" stroke="midnightblue" points="318.45,-118.56 311.76,-110.34 311.86,-120.93 318.45,-118.56"/>
</g>
<!-- Node3&#45;&gt;Node4 -->
<g id="edge5" class="edge">
<title>Node3&#45;&gt;Node4</title>
<path fill="none" stroke="midnightblue" d="M332.29,-91.01C339.7,-88.43 347.27,-85.3 354,-81.58 366.74,-74.54 379.32,-64.12 388.86,-55.3"/>
<polygon fill="midnightblue" stroke="midnightblue" points="391.28,-57.83 396.09,-48.38 386.44,-52.77 391.28,-57.83"/>
</g>
<!-- Node5&#45;&gt;Node4 -->
<g id="edge8" class="edge">
<title>Node5&#45;&gt;Node4</title>
<path fill="none" stroke="midnightblue" d="M342.79,-38.58C355.45,-38.58 368.67,-38.58 379.69,-38.58"/>
<polygon fill="midnightblue" stroke="midnightblue" points="379.88,-42.08 389.88,-38.58 379.88,-35.08 379.88,-42.08"/>
</g>
<!-- Node5&#45;&gt;Node5 -->
<g id="edge7" class="edge">
<title>Node5&#45;&gt;Node5</title>
<path fill="none" stroke="midnightblue" d="M274.98,-53.74C270.28,-63.14 276.78,-72.08 294.5,-72.08 305.3,-72.08 311.93,-68.76 314.4,-64.04"/>
<polygon fill="midnightblue" stroke="midnightblue" points="317.89,-63.6 314.02,-53.74 310.89,-63.86 317.89,-63.6"/>
</g>
</g>
</svg>
