<?xml version="1.0" encoding="UTF-8" standalone="no"?>
<!DOCTYPE svg PUBLIC "-//W3C//DTD SVG 1.1//EN"
 "http://www.w3.org/Graphics/SVG/1.1/DTD/svg11.dtd">
<!-- Generated by graphviz version 2.50.0 (20220203.2022)
 -->
<!-- Title: iau_c2tcio Pages: 1 -->
<svg width="310pt" height="85pt"
 viewBox="0.00 0.00 310.00 85.00" xmlns="http://www.w3.org/2000/svg" xmlns:xlink="http://www.w3.org/1999/xlink">
<g id="graph0" class="graph" transform="scale(1 1) rotate(0) translate(4 81)">
<title>iau_c2tcio</title>
<polygon fill="white" stroke="transparent" points="-4,4 -4,-81 306,-81 306,4 -4,4"/>
<!-- Node1 -->
<g id="node1" class="node">
<title>Node1</title>
<g id="a_node1"><a xlink:title=" ">
<polygon fill="#bfbfbf" stroke="black" points="0,-38.5 0,-57.5 61,-57.5 61,-38.5 0,-38.5"/>
<text text-anchor="middle" x="30.5" y="-45.5" font-family="Helvetica,sans-Serif" font-size="10.00">iau_c2tcio</text>
</a>
</g>
</g>
<!-- Node2 -->
<g id="node2" class="node">
<title>Node2</title>
<g id="a_node2"><a xlink:href="cr_8for.html#a5ac91403d61c9ee837585d625d49f63e" target="_top" xlink:title=" ">
<polygon fill="white" stroke="black" points="178,-57.5 178,-76.5 221,-76.5 221,-57.5 178,-57.5"/>
<text text-anchor="middle" x="199.5" y="-64.5" font-family="Helvetica,sans-Serif" font-size="10.00">iau_cr</text>
</a>
</g>
</g>
<!-- Node1&#45;&gt;Node2 -->
<g id="edge1" class="edge">
<title>Node1&#45;&gt;Node2</title>
<path fill="none" stroke="midnightblue" d="M57.9,-57.5C69.69,-61.26 83.87,-65.13 97,-67 120.51,-70.34 147.4,-70.16 167.59,-69.25"/>
<polygon fill="midnightblue" stroke="midnightblue" points="167.98,-72.73 177.77,-68.7 167.6,-65.74 167.98,-72.73"/>
</g>
<!-- Node4 -->
<g id="node4" class="node">
<title>Node4</title>
<g id="a_node4"><a xlink:href="rxr_8for.html#a8172488cdcd29f9780d47f2a0c045f40" target="_top" xlink:title=" ">
<polygon fill="white" stroke="black" points="97,-38.5 97,-57.5 142,-57.5 142,-38.5 97,-38.5"/>
<text text-anchor="middle" x="119.5" y="-45.5" font-family="Helvetica,sans-Serif" font-size="10.00">iau_rxr</text>
</a>
</g>
</g>
<!-- Node1&#45;&gt;Node4 -->
<g id="edge3" class="edge">
<title>Node1&#45;&gt;Node4</title>
<path fill="none" stroke="midnightblue" d="M61.44,-48C69.6,-48 78.46,-48 86.71,-48"/>
<polygon fill="midnightblue" stroke="midnightblue" points="86.75,-51.5 96.75,-48 86.75,-44.5 86.75,-51.5"/>
</g>
<!-- Node5 -->
<g id="node5" class="node">
<title>Node5</title>
<g id="a_node5"><a xlink:href="rz_8for.html#a5584a629711c72f8403462414b6269d4" target="_top" xlink:title=" ">
<polygon fill="white" stroke="black" points="98.5,-0.5 98.5,-19.5 140.5,-19.5 140.5,-0.5 98.5,-0.5"/>
<text text-anchor="middle" x="119.5" y="-7.5" font-family="Helvetica,sans-Serif" font-size="10.00">iau_rz</text>
</a>
</g>
</g>
<!-- Node1&#45;&gt;Node5 -->
<g id="edge5" class="edge">
<title>Node1&#45;&gt;Node5</title>
<path fill="none" stroke="midnightblue" d="M53.45,-38.41C64.23,-33.7 77.36,-27.97 89,-22.88"/>
<polygon fill="midnightblue" stroke="midnightblue" points="90.58,-26.01 98.34,-18.8 87.78,-19.6 90.58,-26.01"/>
</g>
<!-- Node3 -->
<g id="node3" class="node">
<title>Node3</title>
<g id="a_node3"><a xlink:href="cp_8for.html#a78ec0de27a46863bcb2fc3589c519326" target="_top" xlink:title=" ">
<polygon fill="white" stroke="black" points="257,-57.5 257,-76.5 302,-76.5 302,-57.5 257,-57.5"/>
<text text-anchor="middle" x="279.5" y="-64.5" font-family="Helvetica,sans-Serif" font-size="10.00">iau_cp</text>
</a>
</g>
</g>
<!-- Node2&#45;&gt;Node3 -->
<g id="edge2" class="edge">
<title>Node2&#45;&gt;Node3</title>
<path fill="none" stroke="midnightblue" d="M221.4,-67C229.23,-67 238.31,-67 246.89,-67"/>
<polygon fill="midnightblue" stroke="midnightblue" points="247,-70.5 257,-67 247,-63.5 247,-70.5"/>
</g>
<!-- Node4&#45;&gt;Node2 -->
<g id="edge4" class="edge">
<title>Node4&#45;&gt;Node2</title>
<path fill="none" stroke="midnightblue" d="M142.23,-53.29C150.26,-55.25 159.52,-57.51 168.18,-59.61"/>
<polygon fill="midnightblue" stroke="midnightblue" points="167.42,-63.03 177.96,-62 169.07,-56.23 167.42,-63.03"/>
</g>
</g>
</svg>
