<?xml version="1.0" encoding="UTF-8" standalone="no"?>
<!DOCTYPE svg PUBLIC "-//W3C//DTD SVG 1.1//EN"
 "http://www.w3.org/Graphics/SVG/1.1/DTD/svg11.dtd">
<!-- Generated by graphviz version 2.50.0 (20220203.2022)
 -->
<!-- Title: replaceTimes Pages: 1 -->
<!--zoomable 370 -->
<svg id="main" version="1.1" xmlns="http://www.w3.org/2000/svg" xmlns:xlink="http://www.w3.org/1999/xlink" xml:space="preserve" onload="init(evt)">
<style type="text/css"><![CDATA[
.edge:hover path { stroke: red; }
.edge:hover polygon { stroke: red; fill: red; }
]]></style>
<script type="text/javascript"><![CDATA[
var edges = document.getElementsByTagName('g');
if (edges && edges.length) {
  for (var i=0;i<edges.length;i++) {
    if (edges[i].id.substr(0,4)=='edge') {
      edges[i].setAttribute('class','edge');
    }
  }
}
]]></script>
        <defs>
                <circle id="rim" cx="0" cy="0" r="7"/>
                <circle id="rim2" cx="0" cy="0" r="3.5"/>
                <g id="zoomPlus">
                        <use xlink:href="#rim" fill="#404040">
                                <set attributeName="fill" to="#808080" begin="zoomplus.mouseover" end="zoomplus.mouseout"/>
                        </use>
                        <path d="M-4,0h8M0,-4v8" fill="none" stroke="white" stroke-width="1.5" pointer-events="none"/>
                </g>
                <g id="zoomMin">
                        <use xlink:href="#rim" fill="#404040">
                                <set attributeName="fill" to="#808080" begin="zoomminus.mouseover" end="zoomminus.mouseout"/>
                        </use>
                        <path d="M-4,0h8" fill="none" stroke="white" stroke-width="1.5" pointer-events="none"/>
                </g>
                <g id="dirArrow">
                        <path fill="none" stroke="white" stroke-width="1.5" d="M0,-3.0v7 M-2.5,-0.5L0,-3.0L2.5,-0.5"/>
                </g>
               <g id="resetDef">
                       <use xlink:href="#rim2" fill="#404040">
                               <set attributeName="fill" to="#808080" begin="reset.mouseover" end="reset.mouseout"/>
                       </use>
               </g>
        </defs>

<script type="text/javascript">
var viewWidth = 707;
var viewHeight = 370;
var sectionId = 'dynsection-30';
</script>
<script xlink:href="svgpan.js"/>
<svg id="graph" class="graph">
<g id="viewport">
<title>replaceTimes</title>
<polygon fill="white" stroke="transparent" points="-4,4 -4,-366 703,-366 703,4 -4,4"/>
<!-- Node1 -->
<g id="node1" class="node">
<title>Node1</title>
<g id="a_node1"><a xlink:title="Time to use for replacements.">
<polygon fill="#bfbfbf" stroke="black" points="624,-95.5 624,-114.5 699,-114.5 699,-95.5 624,-95.5"/>
<text text-anchor="middle" x="661.5" y="-102.5" font-family="Helvetica,sans-Serif" font-size="10.00">replaceTimes</text>
</a>
</g>
</g>
<!-- Node2 -->
<g id="node2" class="node">
<title>Node2</title>
<g id="a_node2"><a xlink:href="main_8cpp.html#a5b7b646da56360210bda9517c7d2aac5" target="_top" xlink:title=" ">
<polygon fill="white" stroke="black" points="475.5,-304.5 475.5,-323.5 579.5,-323.5 579.5,-304.5 475.5,-304.5"/>
<text text-anchor="middle" x="527.5" y="-311.5" font-family="Helvetica,sans-Serif" font-size="10.00">createNewTraceFile</text>
</a>
</g>
</g>
<!-- Node1&#45;&gt;Node2 -->
<g id="edge1" class="edge">
<title>Node1&#45;&gt;Node2</title>
<path fill="none" stroke="midnightblue" d="M653.91,-124.22C643.05,-154.3 619.43,-213.53 588,-257 574.42,-275.78 554.2,-293.62 541.18,-304.18"/>
<polygon fill="midnightblue" stroke="midnightblue" points="657.29,-125.14 657.32,-114.54 650.69,-122.81 657.29,-125.14"/>
</g>
<!-- Node5 -->
<g id="node5" class="node">
<title>Node5</title>
<g id="a_node5"><a xlink:href="rinexClkWrite_8cpp.html#ae105b449da2c0d5e0ce91380d3b6907b" target="_top" xlink:title=" ">
<polygon fill="white" stroke="black" points="467,-228.5 467,-247.5 588,-247.5 588,-228.5 467,-228.5"/>
<text text-anchor="middle" x="527.5" y="-235.5" font-family="Helvetica,sans-Serif" font-size="10.00">getSysOutputFilenames</text>
</a>
</g>
</g>
<!-- Node1&#45;&gt;Node5 -->
<g id="edge4" class="edge">
<title>Node1&#45;&gt;Node5</title>
<path fill="none" stroke="midnightblue" d="M643.93,-121.7C616.07,-149.77 560.68,-205.57 538.26,-228.16"/>
<polygon fill="midnightblue" stroke="midnightblue" points="646.45,-124.13 651.01,-114.57 641.48,-119.2 646.45,-124.13"/>
</g>
<!-- Node15 -->
<g id="node11" class="node">
<title>Node15</title>
<g id="a_node11"><a xlink:href="tropSinex_8cpp.html#a69a4f80dc077e096360a1451c0d28e39" target="_top" xlink:title="Export troposphere Sinex data.">
<polygon fill="white" stroke="black" points="484,-114.5 484,-133.5 571,-133.5 571,-114.5 484,-114.5"/>
<text text-anchor="middle" x="527.5" y="-121.5" font-family="Helvetica,sans-Serif" font-size="10.00">outputTropSinex</text>
</a>
</g>
</g>
<!-- Node1&#45;&gt;Node15 -->
<g id="edge14" class="edge">
<title>Node1&#45;&gt;Node15</title>
<path fill="none" stroke="midnightblue" d="M613.46,-111.77C599.66,-113.76 584.65,-115.92 571.14,-117.86"/>
<polygon fill="midnightblue" stroke="midnightblue" points="614.33,-115.18 623.73,-110.29 613.33,-108.25 614.33,-115.18"/>
</g>
<!-- Node16 -->
<g id="node12" class="node">
<title>Node16</title>
<g id="a_node12"><a xlink:href="structACSConfig.html#a7956bea37dde8338349a7a2971c530e6" target="_top" xlink:title="Parse options to set acsConfig values.">
<polygon fill="white" stroke="black" points="481.5,-76.5 481.5,-95.5 573.5,-95.5 573.5,-76.5 481.5,-76.5"/>
<text text-anchor="middle" x="527.5" y="-83.5" font-family="Helvetica,sans-Serif" font-size="10.00">ACSConfig::parse</text>
</a>
</g>
</g>
<!-- Node1&#45;&gt;Node16 -->
<g id="edge17" class="edge">
<title>Node1&#45;&gt;Node16</title>
<path fill="none" stroke="midnightblue" d="M613.56,-98.24C600.54,-96.37 586.44,-94.34 573.53,-92.48"/>
<polygon fill="midnightblue" stroke="midnightblue" points="613.33,-101.75 623.73,-99.71 614.33,-94.82 613.33,-101.75"/>
</g>
<!-- Node18 -->
<g id="node14" class="node">
<title>Node18</title>
<g id="a_node14"><a xlink:href="acsConfig_8cpp.html#ac51b4717ad47f45c4b1e373882b6f131" target="_top" xlink:title=" ">
<polygon fill="white" stroke="black" points="490,-38.5 490,-57.5 565,-57.5 565,-38.5 490,-38.5"/>
<text text-anchor="middle" x="527.5" y="-45.5" font-family="Helvetica,sans-Serif" font-size="10.00">replaceTimes</text>
</a>
</g>
</g>
<!-- Node1&#45;&gt;Node18 -->
<g id="edge20" class="edge">
<title>Node1&#45;&gt;Node18</title>
<path fill="none" stroke="midnightblue" d="M635.35,-90.44C621.64,-82.85 604.19,-73.77 588,-67 579.7,-63.53 570.52,-60.31 561.92,-57.55"/>
<polygon fill="midnightblue" stroke="midnightblue" points="633.76,-93.56 644.19,-95.41 637.19,-87.46 633.76,-93.56"/>
</g>
<!-- Node19 -->
<g id="node15" class="node">
<title>Node19</title>
<g id="a_node15"><a xlink:href="pea__snx_8cpp.html#aa7e3332fc8c5c18f3e9cd8aece87c36c" target="_top" xlink:title=" ">
<polygon fill="white" stroke="black" points="473.5,-0.5 473.5,-19.5 581.5,-19.5 581.5,-0.5 473.5,-0.5"/>
<text text-anchor="middle" x="527.5" y="-7.5" font-family="Helvetica,sans-Serif" font-size="10.00">sinexPostProcessing</text>
</a>
</g>
</g>
<!-- Node1&#45;&gt;Node19 -->
<g id="edge21" class="edge">
<title>Node1&#45;&gt;Node19</title>
<path fill="none" stroke="midnightblue" d="M647.81,-87.24C634.66,-70.05 612.62,-44.4 588,-29 581.93,-25.2 575.04,-22.1 568.15,-19.59"/>
<polygon fill="midnightblue" stroke="midnightblue" points="645.07,-89.41 653.84,-95.35 650.69,-85.24 645.07,-89.41"/>
</g>
<!-- Node3 -->
<g id="node3" class="node">
<title>Node3</title>
<g id="a_node3"><a xlink:href="main_8cpp.html#a29d52cfc981619584262b20b497865db" target="_top" xlink:title="Create new empty trace files only when required when the filename is changed.">
<polygon fill="white" stroke="black" points="334.5,-342.5 334.5,-361.5 420.5,-361.5 420.5,-342.5 334.5,-342.5"/>
<text text-anchor="middle" x="377.5" y="-349.5" font-family="Helvetica,sans-Serif" font-size="10.00">createTracefiles</text>
</a>
</g>
</g>
<!-- Node2&#45;&gt;Node3 -->
<g id="edge2" class="edge">
<title>Node2&#45;&gt;Node3</title>
<path fill="none" stroke="midnightblue" d="M479.33,-326.11C458.71,-331.4 434.89,-337.52 415.58,-342.48"/>
<polygon fill="midnightblue" stroke="midnightblue" points="480.34,-329.47 489.15,-323.59 478.6,-322.69 480.34,-329.47"/>
</g>
<!-- Node4 -->
<g id="node4" class="node">
<title>Node4</title>
<g id="a_node4"><a xlink:href="main_8cpp.html#a30c68344d30ddfe1e926f8472b86f094" target="_top" xlink:title=" ">
<polygon fill="white" stroke="black" points="0,-221.5 0,-240.5 103,-240.5 103,-221.5 0,-221.5"/>
<text text-anchor="middle" x="51.5" y="-228.5" font-family="Helvetica,sans-Serif" font-size="10.00">mainOncePerEpoch</text>
</a>
</g>
</g>
<!-- Node3&#45;&gt;Node4 -->
<g id="edge3" class="edge">
<title>Node3&#45;&gt;Node4</title>
<path fill="none" stroke="midnightblue" d="M323.83,-349.97C273.97,-346.26 198.15,-335.87 139,-307 105.23,-290.52 74.41,-257.26 60.42,-240.75"/>
<polygon fill="midnightblue" stroke="midnightblue" points="323.85,-353.48 334.06,-350.67 324.32,-346.5 323.85,-353.48"/>
</g>
<!-- Node5&#45;&gt;Node3 -->
<g id="edge5" class="edge">
<title>Node5&#45;&gt;Node3</title>
<path fill="none" stroke="midnightblue" d="M509.1,-254.67C482.76,-279.88 435.35,-325.08 431,-328 422.6,-333.65 412.66,-338.58 403.7,-342.47"/>
<polygon fill="midnightblue" stroke="midnightblue" points="511.73,-257 516.53,-247.56 506.89,-251.95 511.73,-257"/>
</g>
<!-- Node6 -->
<g id="node6" class="node">
<title>Node6</title>
<g id="a_node6"><a xlink:href="main_8cpp.html#a052aae1f895ebdbdaf816f70d9287e78" target="_top" xlink:title=" ">
<polygon fill="white" stroke="black" points="139,-194 139,-224 288,-224 288,-194 139,-194"/>
<text text-anchor="start" x="147" y="-212" font-family="Helvetica,sans-Serif" font-size="10.00">mainPerEpochPostProcessing</text>
<text text-anchor="middle" x="213.5" y="-201" font-family="Helvetica,sans-Serif" font-size="10.00">AndOutputs</text>
</a>
</g>
</g>
<!-- Node5&#45;&gt;Node6 -->
<g id="edge6" class="edge">
<title>Node5&#45;&gt;Node6</title>
<path fill="none" stroke="midnightblue" d="M456.61,-231.5C406.48,-226.84 339.07,-220.58 288.11,-215.84"/>
<polygon fill="midnightblue" stroke="midnightblue" points="456.43,-235 466.71,-232.44 457.08,-228.03 456.43,-235"/>
</g>
<!-- Node7 -->
<g id="node7" class="node">
<title>Node7</title>
<g id="a_node7"><a xlink:href="sp3Write_8cpp.html#a014c620b54545593c4cc4e8bd0b87b25" target="_top" xlink:title=" ">
<polygon fill="white" stroke="black" points="347,-190.5 347,-209.5 408,-209.5 408,-190.5 347,-190.5"/>
<text text-anchor="middle" x="377.5" y="-197.5" font-family="Helvetica,sans-Serif" font-size="10.00">outputSp3</text>
</a>
</g>
</g>
<!-- Node5&#45;&gt;Node7 -->
<g id="edge8" class="edge">
<title>Node5&#45;&gt;Node7</title>
<path fill="none" stroke="midnightblue" d="M479.46,-225.92C456.17,-219.94 428.76,-212.91 408.38,-207.67"/>
<polygon fill="midnightblue" stroke="midnightblue" points="478.6,-229.31 489.15,-228.41 480.34,-222.53 478.6,-229.31"/>
</g>
<!-- Node8 -->
<g id="node8" class="node">
<title>Node8</title>
<g id="a_node8"><a xlink:href="rtsSmoothing_8cpp.html#a5578ecd05e227e9ffc9828e5c7ad287e" target="_top" xlink:title=" ">
<polygon fill="white" stroke="red" points="333.5,-152.5 333.5,-171.5 421.5,-171.5 421.5,-152.5 333.5,-152.5"/>
<text text-anchor="middle" x="377.5" y="-159.5" font-family="Helvetica,sans-Serif" font-size="10.00">postRTSActions</text>
</a>
</g>
</g>
<!-- Node5&#45;&gt;Node8 -->
<g id="edge10" class="edge">
<title>Node5&#45;&gt;Node8</title>
<path fill="none" stroke="midnightblue" d="M503.89,-222.83C484.96,-210.54 456.94,-193.3 431,-181 423.73,-177.55 415.66,-174.34 408.06,-171.58"/>
<polygon fill="midnightblue" stroke="midnightblue" points="502.13,-225.86 512.41,-228.42 505.98,-220.01 502.13,-225.86"/>
</g>
<!-- Node13 -->
<g id="node9" class="node">
<title>Node13</title>
<g id="a_node9"><a xlink:href="rinexNavWrite_8cpp.html#acfa075e8efad5e2ebce159dfb921a4bc" target="_top" xlink:title=" ">
<polygon fill="white" stroke="black" points="173.5,-278.5 173.5,-297.5 253.5,-297.5 253.5,-278.5 173.5,-278.5"/>
<text text-anchor="middle" x="213.5" y="-285.5" font-family="Helvetica,sans-Serif" font-size="10.00">writeRinexNav</text>
</a>
</g>
</g>
<!-- Node5&#45;&gt;Node13 -->
<g id="edge11" class="edge">
<title>Node5&#45;&gt;Node13</title>
<path fill="none" stroke="midnightblue" d="M507,-253.99C488.66,-267.9 459.79,-287.06 431,-295 370.82,-311.59 297.65,-303.72 253.65,-296.14"/>
<polygon fill="midnightblue" stroke="midnightblue" points="509.38,-256.56 515.11,-247.65 505.07,-251.05 509.38,-256.56"/>
</g>
<!-- Node14 -->
<g id="node10" class="node">
<title>Node14</title>
<g id="a_node10"><a xlink:href="rinexObsWrite_8cpp.html#ab37a1bf1c4cd6f1099216ee508910dd9" target="_top" xlink:title=" ">
<polygon fill="white" stroke="red" points="337.5,-266.5 337.5,-285.5 417.5,-285.5 417.5,-266.5 337.5,-266.5"/>
<text text-anchor="middle" x="377.5" y="-273.5" font-family="Helvetica,sans-Serif" font-size="10.00">writeRinexObs</text>
</a>
</g>
</g>
<!-- Node5&#45;&gt;Node14 -->
<g id="edge13" class="edge">
<title>Node5&#45;&gt;Node14</title>
<path fill="none" stroke="midnightblue" d="M479.33,-250.11C458.71,-255.4 434.89,-261.52 415.58,-266.48"/>
<polygon fill="midnightblue" stroke="midnightblue" points="480.34,-253.47 489.15,-247.59 478.6,-246.69 480.34,-253.47"/>
</g>
<!-- Node6&#45;&gt;Node4 -->
<g id="edge7" class="edge">
<title>Node6&#45;&gt;Node4</title>
<path fill="none" stroke="midnightblue" d="M128.48,-220.55C119.88,-221.74 111.33,-222.91 103.25,-224.02"/>
<polygon fill="midnightblue" stroke="midnightblue" points="129.16,-223.99 138.59,-219.16 128.2,-217.06 129.16,-223.99"/>
</g>
<!-- Node7&#45;&gt;Node6 -->
<g id="edge9" class="edge">
<title>Node7&#45;&gt;Node6</title>
<path fill="none" stroke="midnightblue" d="M336.59,-202.22C321.93,-203.03 304.83,-203.98 288.15,-204.91"/>
<polygon fill="midnightblue" stroke="midnightblue" points="337,-205.7 346.79,-201.65 336.61,-198.71 337,-205.7"/>
</g>
<!-- Node13&#45;&gt;Node4 -->
<g id="edge12" class="edge">
<title>Node13&#45;&gt;Node4</title>
<path fill="none" stroke="midnightblue" d="M176.21,-275.07C146.77,-264.58 105.93,-250.04 79.37,-240.57"/>
<polygon fill="midnightblue" stroke="midnightblue" points="175.12,-278.4 185.72,-278.46 177.47,-271.81 175.12,-278.4"/>
</g>
<!-- Node15&#45;&gt;Node6 -->
<g id="edge15" class="edge">
<title>Node15&#45;&gt;Node6</title>
<path fill="none" stroke="midnightblue" d="M473.69,-122.58C432.04,-122.96 373.01,-126.87 324,-143 289.42,-154.38 254.21,-178.27 233.36,-193.96"/>
<polygon fill="midnightblue" stroke="midnightblue" points="473.9,-126.08 483.89,-122.55 473.88,-119.08 473.9,-126.08"/>
</g>
<!-- Node15&#45;&gt;Node8 -->
<g id="edge16" class="edge">
<title>Node15&#45;&gt;Node8</title>
<path fill="none" stroke="midnightblue" d="M479.33,-136.11C458.71,-141.4 434.89,-147.52 415.58,-152.48"/>
<polygon fill="midnightblue" stroke="midnightblue" points="480.34,-139.47 489.15,-133.59 478.6,-132.69 480.34,-139.47"/>
</g>
<!-- Node16&#45;&gt;Node4 -->
<g id="edge19" class="edge">
<title>Node16&#45;&gt;Node4</title>
<path fill="none" stroke="midnightblue" d="M471.35,-93.07C430.34,-98.92 373.21,-108.32 324,-121 239.75,-142.7 218.76,-150.25 139,-185 113.74,-196.01 85.81,-211.5 68.71,-221.4"/>
<polygon fill="midnightblue" stroke="midnightblue" points="472,-96.51 481.42,-91.66 471.03,-89.58 472,-96.51"/>
</g>
<!-- Node17 -->
<g id="node13" class="node">
<title>Node17</title>
<g id="a_node13"><a xlink:href="test__egm_8cpp.html#ae66f6b31b5ad750f1fe042a706a4e3d4" target="_top" xlink:title=" ">
<polygon fill="white" stroke="black" points="358.5,-38.5 358.5,-57.5 396.5,-57.5 396.5,-38.5 358.5,-38.5"/>
<text text-anchor="middle" x="377.5" y="-45.5" font-family="Helvetica,sans-Serif" font-size="10.00">main</text>
</a>
</g>
</g>
<!-- Node16&#45;&gt;Node17 -->
<g id="edge18" class="edge">
<title>Node16&#45;&gt;Node17</title>
<path fill="none" stroke="midnightblue" d="M479.46,-73.92C451.25,-66.68 416.99,-57.88 396.51,-52.62"/>
<polygon fill="midnightblue" stroke="midnightblue" points="478.6,-77.31 489.15,-76.41 480.34,-70.53 478.6,-77.31"/>
</g>
<!-- Node12 -->
<g id="node16" class="node">
<title>Node12</title>
<g id="a_node16"><a xlink:href="main_8cpp.html#a93c49123b4afe8e199430439fd682acd" target="_top" xlink:title=" ">
<polygon fill="white" stroke="black" points="324,-0.5 324,-19.5 431,-19.5 431,-0.5 324,-0.5"/>
<text text-anchor="middle" x="377.5" y="-7.5" font-family="Helvetica,sans-Serif" font-size="10.00">mainPostProcessing</text>
</a>
</g>
</g>
<!-- Node19&#45;&gt;Node12 -->
<g id="edge22" class="edge">
<title>Node19&#45;&gt;Node12</title>
<path fill="none" stroke="midnightblue" d="M463.33,-10C452.6,-10 441.56,-10 431.14,-10"/>
<polygon fill="midnightblue" stroke="midnightblue" points="463.49,-13.5 473.49,-10 463.49,-6.5 463.49,-13.5"/>
</g>
</g>
</svg>
        <g id="navigator" transform="translate(0 0)" fill="#404254">
                <rect fill="#f2f5e9" fill-opacity="0.5" stroke="#606060" stroke-width=".5" x="0" y="0" width="60" height="60"/>
                <use id="zoomplus" xlink:href="#zoomPlus" x="17" y="9" onmousedown="handleZoom(evt,'in')"/>
                <use id="zoomminus" xlink:href="#zoomMin" x="42" y="9" onmousedown="handleZoom(evt,'out')"/>
                <use id="reset" xlink:href="#resetDef" x="30" y="36" onmousedown="handleReset()"/>
                <g id="arrowUp" xlink:href="#dirArrow" transform="translate(30 24)" onmousedown="handlePan(0,-1)">
                  <use xlink:href="#rim" fill="#404040">
                        <set attributeName="fill" to="#808080" begin="arrowUp.mouseover" end="arrowUp.mouseout"/>
                  </use>
                  <path fill="none" stroke="white" stroke-width="1.5" d="M0,-3.0v7 M-2.5,-0.5L0,-3.0L2.5,-0.5"/>
                </g>
                <g id="arrowRight" xlink:href="#dirArrow" transform="rotate(90) translate(36 -43)" onmousedown="handlePan(1,0)">
                  <use xlink:href="#rim" fill="#404040">
                        <set attributeName="fill" to="#808080" begin="arrowRight.mouseover" end="arrowRight.mouseout"/>
                  </use>
                  <path fill="none" stroke="white" stroke-width="1.5" d="M0,-3.0v7 M-2.5,-0.5L0,-3.0L2.5,-0.5"/>
                </g>
                <g id="arrowDown" xlink:href="#dirArrow" transform="rotate(180) translate(-30 -48)" onmousedown="handlePan(0,1)">
                  <use xlink:href="#rim" fill="#404040">
                        <set attributeName="fill" to="#808080" begin="arrowDown.mouseover" end="arrowDown.mouseout"/>
                  </use>
                  <path fill="none" stroke="white" stroke-width="1.5" d="M0,-3.0v7 M-2.5,-0.5L0,-3.0L2.5,-0.5"/>
                </g>
                <g id="arrowLeft" xlink:href="#dirArrow" transform="rotate(270) translate(-36 17)" onmousedown="handlePan(-1,0)">
                  <use xlink:href="#rim" fill="#404040">
                        <set attributeName="fill" to="#808080" begin="arrowLeft.mouseover" end="arrowLeft.mouseout"/>
                  </use>
                  <path fill="none" stroke="white" stroke-width="1.5" d="M0,-3.0v7 M-2.5,-0.5L0,-3.0L2.5,-0.5"/>
                </g>
        </g>
        <svg viewBox="0 0 15 15" width="100%" height="30px" preserveAspectRatio="xMaxYMin meet">
         <g id="arrow_out" transform="scale(0.3 0.3)">
          <a xlink:href="common_8hpp_a75a34dc41e76a8680e3aa6d62ff4c800_icgraph_org.svg" target="_base">
           <rect id="button" ry="5" rx="5" y="6" x="6" height="38" width="38"
                fill="#f2f5e9" fill-opacity="0.5" stroke="#606060" stroke-width="1.0"/>
           <path id="arrow"
             d="M 11.500037,31.436501 C 11.940474,20.09759 22.043105,11.32322 32.158766,21.979434 L 37.068811,17.246167 C 37.068811,17.246167 37.088388,32 37.088388,32 L 22.160133,31.978069 C 22.160133,31.978069 26.997745,27.140456 26.997745,27.140456 C 18.528582,18.264221 13.291696,25.230495 11.500037,31.436501 z"
             style="fill:#404040;"/>
          </a>
         </g>
        </svg>
</svg>
