<?xml version="1.0" encoding="UTF-8" standalone="no"?>
<!DOCTYPE svg PUBLIC "-//W3C//DTD SVG 1.1//EN"
 "http://www.w3.org/Graphics/SVG/1.1/DTD/svg11.dtd">
<!-- Generated by graphviz version 2.50.0 (20220203.2022)
 -->
<!-- Title: setbitsInc Pages: 1 -->
<svg width="449pt" height="104pt"
 viewBox="0.00 0.00 449.00 104.00" xmlns="http://www.w3.org/2000/svg" xmlns:xlink="http://www.w3.org/1999/xlink">
<g id="graph0" class="graph" transform="scale(1 1) rotate(0) translate(4 100)">
<title>setbitsInc</title>
<polygon fill="white" stroke="transparent" points="-4,4 -4,-100 445,-100 445,4 -4,4"/>
<!-- Node1 -->
<g id="node1" class="node">
<title>Node1</title>
<g id="a_node1"><a xlink:title=" ">
<polygon fill="#bfbfbf" stroke="black" points="382,-38.5 382,-57.5 441,-57.5 441,-38.5 382,-38.5"/>
<text text-anchor="middle" x="411.5" y="-45.5" font-family="Helvetica,sans-Serif" font-size="10.00">setbitsInc</text>
</a>
</g>
</g>
<!-- Node2 -->
<g id="node2" class="node">
<title>Node2</title>
<g id="a_node2"><a xlink:href="structRtcmEncoder.html#a4730e3ba96b43e644eaf0b3547287f4e" target="_top" xlink:title=" ">
<polygon fill="white" stroke="black" points="194.5,-76.5 194.5,-95.5 343.5,-95.5 343.5,-76.5 194.5,-76.5"/>
<text text-anchor="middle" x="269" y="-83.5" font-family="Helvetica,sans-Serif" font-size="10.00">RtcmEncoder::encodeSsrCode</text>
</a>
</g>
</g>
<!-- Node1&#45;&gt;Node2 -->
<g id="edge1" class="edge">
<title>Node1&#45;&gt;Node2</title>
<path fill="none" stroke="midnightblue" d="M372.19,-59.57C363.59,-62.09 354.5,-64.69 346,-67 334.19,-70.21 321.29,-73.52 309.53,-76.45"/>
<polygon fill="midnightblue" stroke="midnightblue" points="373.4,-62.86 382,-56.67 371.41,-56.15 373.4,-62.86"/>
</g>
<!-- Node6 -->
<g id="node4" class="node">
<title>Node6</title>
<g id="a_node4"><a xlink:href="structRtcmEncoder.html#af1c137bc7d09727b2a6f6ec350586fbc" target="_top" xlink:title=" ">
<polygon fill="white" stroke="black" points="193,-38.5 193,-57.5 345,-57.5 345,-38.5 193,-38.5"/>
<text text-anchor="middle" x="269" y="-45.5" font-family="Helvetica,sans-Serif" font-size="10.00">RtcmEncoder::encodeSsrComb</text>
</a>
</g>
</g>
<!-- Node1&#45;&gt;Node6 -->
<g id="edge4" class="edge">
<title>Node1&#45;&gt;Node6</title>
<path fill="none" stroke="midnightblue" d="M371.66,-48C363.36,-48 354.33,-48 345.18,-48"/>
<polygon fill="midnightblue" stroke="midnightblue" points="371.73,-51.5 381.73,-48 371.73,-44.5 371.73,-51.5"/>
</g>
<!-- Node7 -->
<g id="node5" class="node">
<title>Node7</title>
<g id="a_node5"><a xlink:href="structRtcmEncoder.html#ac2fbfa6dd6b80b00caa82f7e04366ffd" target="_top" xlink:title=" ">
<polygon fill="white" stroke="black" points="192,-0.5 192,-19.5 346,-19.5 346,-0.5 192,-0.5"/>
<text text-anchor="middle" x="269" y="-7.5" font-family="Helvetica,sans-Serif" font-size="10.00">RtcmEncoder::encodeSsrPhase</text>
</a>
</g>
</g>
<!-- Node1&#45;&gt;Node7 -->
<g id="edge6" class="edge">
<title>Node1&#45;&gt;Node7</title>
<path fill="none" stroke="midnightblue" d="M372.19,-36.43C363.59,-33.91 354.5,-31.31 346,-29 334.19,-25.79 321.29,-22.48 309.53,-19.55"/>
<polygon fill="midnightblue" stroke="midnightblue" points="371.41,-39.85 382,-39.33 373.4,-33.14 371.41,-39.85"/>
</g>
<!-- Node3 -->
<g id="node3" class="node">
<title>Node3</title>
<g id="a_node3"><a xlink:href="structNtripUploader.html#a0763f31214a177f3d9be2301138fd0e7" target="_top" xlink:title=" ">
<polygon fill="white" stroke="red" points="0,-33 0,-63 156,-63 156,-33 0,-33"/>
<text text-anchor="start" x="8" y="-51" font-family="Helvetica,sans-Serif" font-size="10.00">NtripUploader::messageTimeout</text>
<text text-anchor="middle" x="78" y="-40" font-family="Helvetica,sans-Serif" font-size="10.00">_hanlder</text>
</a>
</g>
</g>
<!-- Node2&#45;&gt;Node3 -->
<g id="edge2" class="edge">
<title>Node2&#45;&gt;Node3</title>
<path fill="none" stroke="midnightblue" d="M210.12,-74.36C192.38,-70.8 172.61,-66.82 153.9,-63.06"/>
<polygon fill="midnightblue" stroke="midnightblue" points="209.81,-77.87 220.31,-76.41 211.19,-71.01 209.81,-77.87"/>
</g>
<!-- Node3&#45;&gt;Node3 -->
<g id="edge3" class="edge">
<title>Node3&#45;&gt;Node3</title>
<path fill="none" stroke="midnightblue" d="M111.76,-73.46C107.57,-78.18 96.32,-81.5 78,-81.5 47.94,-81.5 36.9,-72.56 44.89,-63.16"/>
<polygon fill="midnightblue" stroke="midnightblue" points="115.23,-72.92 111.11,-63.16 108.25,-73.36 115.23,-72.92"/>
</g>
<!-- Node6&#45;&gt;Node3 -->
<g id="edge5" class="edge">
<title>Node6&#45;&gt;Node3</title>
<path fill="none" stroke="midnightblue" d="M182.51,-48C173.73,-48 164.84,-48 156.15,-48"/>
<polygon fill="midnightblue" stroke="midnightblue" points="182.76,-51.5 192.76,-48 182.76,-44.5 182.76,-51.5"/>
</g>
<!-- Node7&#45;&gt;Node3 -->
<g id="edge7" class="edge">
<title>Node7&#45;&gt;Node3</title>
<path fill="none" stroke="midnightblue" d="M210.12,-21.64C192.38,-25.2 172.61,-29.18 153.9,-32.94"/>
<polygon fill="midnightblue" stroke="midnightblue" points="211.19,-24.99 220.31,-19.59 209.81,-18.13 211.19,-24.99"/>
</g>
</g>
</svg>
