<?xml version="1.0" encoding="UTF-8" standalone="no"?>
<!DOCTYPE svg PUBLIC "-//W3C//DTD SVG 1.1//EN"
 "http://www.w3.org/Graphics/SVG/1.1/DTD/svg11.dtd">
<!-- Generated by graphviz version 2.50.0 (20220203.2022)
 -->
<!-- Title: getbitu Pages: 1 -->
<!--zoomable 328 -->
<svg id="main" version="1.1" xmlns="http://www.w3.org/2000/svg" xmlns:xlink="http://www.w3.org/1999/xlink" xml:space="preserve" onload="init(evt)">
<style type="text/css"><![CDATA[
.edge:hover path { stroke: red; }
.edge:hover polygon { stroke: red; fill: red; }
]]></style>
<script type="text/javascript"><![CDATA[
var edges = document.getElementsByTagName('g');
if (edges && edges.length) {
  for (var i=0;i<edges.length;i++) {
    if (edges[i].id.substr(0,4)=='edge') {
      edges[i].setAttribute('class','edge');
    }
  }
}
]]></script>
        <defs>
                <circle id="rim" cx="0" cy="0" r="7"/>
                <circle id="rim2" cx="0" cy="0" r="3.5"/>
                <g id="zoomPlus">
                        <use xlink:href="#rim" fill="#404040">
                                <set attributeName="fill" to="#808080" begin="zoomplus.mouseover" end="zoomplus.mouseout"/>
                        </use>
                        <path d="M-4,0h8M0,-4v8" fill="none" stroke="white" stroke-width="1.5" pointer-events="none"/>
                </g>
                <g id="zoomMin">
                        <use xlink:href="#rim" fill="#404040">
                                <set attributeName="fill" to="#808080" begin="zoomminus.mouseover" end="zoomminus.mouseout"/>
                        </use>
                        <path d="M-4,0h8" fill="none" stroke="white" stroke-width="1.5" pointer-events="none"/>
                </g>
                <g id="dirArrow">
                        <path fill="none" stroke="white" stroke-width="1.5" d="M0,-3.0v7 M-2.5,-0.5L0,-3.0L2.5,-0.5"/>
                </g>
               <g id="resetDef">
                       <use xlink:href="#rim2" fill="#404040">
                               <set attributeName="fill" to="#808080" begin="reset.mouseover" end="reset.mouseout"/>
                       </use>
               </g>
        </defs>

<script type="text/javascript">
var viewWidth = 747;
var viewHeight = 328;
var sectionId = 'dynsection-5';
</script>
<script xlink:href="svgpan.js"/>
<svg id="graph" class="graph">
<g id="viewport">
<title>getbitu</title>
<polygon fill="white" stroke="transparent" points="-4,4 -4,-323.8 743,-323.8 743,4 -4,4"/>
<!-- Node1 -->
<g id="node1" class="node">
<title>Node1</title>
<g id="a_node1"><a xlink:title=" ">
<polygon fill="#bfbfbf" stroke="black" points="693,-112.03 693,-131.03 739,-131.03 739,-112.03 693,-112.03"/>
<text text-anchor="middle" x="716" y="-119.03" font-family="Helvetica,sans-Serif" font-size="10.00">getbitu</text>
</a>
</g>
</g>
<!-- Node2 -->
<g id="node2" class="node">
<title>Node2</title>
<g id="a_node2"><a xlink:href="common_8cpp.html#afb03d815c5c9706c5e9b04a8edee7900" target="_top" xlink:title=" ">
<polygon fill="white" stroke="black" points="562.5,-112.03 562.5,-131.03 608.5,-131.03 608.5,-112.03 562.5,-112.03"/>
<text text-anchor="middle" x="585.5" y="-119.03" font-family="Helvetica,sans-Serif" font-size="10.00">getbits</text>
</a>
</g>
</g>
<!-- Node1&#45;&gt;Node2 -->
<g id="edge1" class="edge">
<title>Node1&#45;&gt;Node2</title>
<path fill="none" stroke="midnightblue" d="M682.88,-121.53C659.77,-121.53 629.19,-121.53 608.73,-121.53"/>
<polygon fill="midnightblue" stroke="midnightblue" points="682.91,-125.03 692.91,-121.53 682.91,-118.03 682.91,-125.03"/>
</g>
<!-- Node5 -->
<g id="node5" class="node">
<title>Node5</title>
<g id="a_node5"><a xlink:href="structRtcmStream.html#a34a7a941dab214b7ff6b17e8a53eb55a" target="_top" xlink:title=" ">
<polygon fill="white" stroke="red" points="0,-147.03 0,-166.03 128,-166.03 128,-147.03 0,-147.03"/>
<text text-anchor="middle" x="64" y="-154.03" font-family="Helvetica,sans-Serif" font-size="10.00">RtcmStream::parseRTCM</text>
</a>
</g>
</g>
<!-- Node1&#45;&gt;Node5 -->
<g id="edge24" class="edge">
<title>Node1&#45;&gt;Node5</title>
<path fill="none" stroke="midnightblue" d="M695.08,-137.27C684.21,-145.43 670.29,-155.19 657,-162.53 515.87,-240.42 480.09,-270.03 322,-301.53 253.13,-315.25 226.1,-334.32 164,-301.53 107.67,-271.78 77.33,-193.96 68.09,-166.39"/>
<polygon fill="midnightblue" stroke="midnightblue" points="697.26,-140.01 703.07,-131.15 693.01,-134.45 697.26,-140.01"/>
</g>
<!-- Node12 -->
<g id="node8" class="node">
<title>Node12</title>
<g id="a_node8"><a xlink:href="common_8cpp.html#aaa6463f592ed6478626814466d3d02a5" target="_top" xlink:title=" ">
<polygon fill="white" stroke="black" points="388.5,-150.03 388.5,-169.03 447.5,-169.03 447.5,-150.03 388.5,-150.03"/>
<text text-anchor="middle" x="418" y="-157.03" font-family="Helvetica,sans-Serif" font-size="10.00">getbituInc</text>
</a>
</g>
</g>
<!-- Node1&#45;&gt;Node12 -->
<g id="edge9" class="edge">
<title>Node1&#45;&gt;Node12</title>
<path fill="none" stroke="midnightblue" d="M683.26,-133.42C674.83,-136.17 665.66,-138.79 657,-140.53 582.43,-155.5 492.48,-158.77 447.51,-159.42"/>
<polygon fill="midnightblue" stroke="midnightblue" points="684.41,-136.73 692.75,-130.19 682.15,-130.1 684.41,-136.73"/>
</g>
<!-- Node15 -->
<g id="node11" class="node">
<title>Node15</title>
<g id="a_node11"><a xlink:href="structRtcmDecoder.html#a16b9cbd625b354b77b46b093a638bdf3" target="_top" xlink:title=" ">
<polygon fill="white" stroke="black" points="358,-62.53 358,-92.53 478,-92.53 478,-62.53 358,-62.53"/>
<text text-anchor="start" x="366" y="-80.53" font-family="Helvetica,sans-Serif" font-size="10.00">RtcmDecoder::message</text>
<text text-anchor="middle" x="418" y="-69.53" font-family="Helvetica,sans-Serif" font-size="10.00">_length</text>
</a>
</g>
</g>
<!-- Node1&#45;&gt;Node15 -->
<g id="edge18" class="edge">
<title>Node1&#45;&gt;Node15</title>
<path fill="none" stroke="midnightblue" d="M683.45,-109.85C674.96,-107.08 665.71,-104.39 657,-102.53 596.87,-89.67 526.72,-83.33 478.23,-80.26"/>
<polygon fill="midnightblue" stroke="midnightblue" points="682.4,-113.19 692.99,-113.1 684.65,-106.56 682.4,-113.19"/>
</g>
<!-- Node16 -->
<g id="node12" class="node">
<title>Node16</title>
<g id="a_node12"><a xlink:href="structRtcmDecoder.html#a26525622756ebcbb60d90c2bf27ac899" target="_top" xlink:title=" ">
<polygon fill="white" stroke="black" points="514,-14.03 514,-33.03 657,-33.03 657,-14.03 514,-14.03"/>
<text text-anchor="middle" x="585.5" y="-21.03" font-family="Helvetica,sans-Serif" font-size="10.00">RtcmDecoder::message_type</text>
</a>
</g>
</g>
<!-- Node1&#45;&gt;Node16 -->
<g id="edge22" class="edge">
<title>Node1&#45;&gt;Node16</title>
<path fill="none" stroke="midnightblue" d="M699.11,-104.69C687.9,-93.27 672.22,-78.18 657,-66.53 640.15,-53.63 619.22,-41.27 604.56,-33.14"/>
<polygon fill="midnightblue" stroke="midnightblue" points="696.64,-107.17 706.1,-111.93 701.68,-102.31 696.64,-107.17"/>
</g>
<!-- Node3 -->
<g id="node3" class="node">
<title>Node3</title>
<g id="a_node3"><a xlink:href="common_8cpp.html#a015a8a5120016e627bc810a59aa72948" target="_top" xlink:title=" ">
<polygon fill="white" stroke="black" points="388.5,-112.03 388.5,-131.03 447.5,-131.03 447.5,-112.03 388.5,-112.03"/>
<text text-anchor="middle" x="418" y="-119.03" font-family="Helvetica,sans-Serif" font-size="10.00">getbitsInc</text>
</a>
</g>
</g>
<!-- Node2&#45;&gt;Node3 -->
<g id="edge2" class="edge">
<title>Node2&#45;&gt;Node3</title>
<path fill="none" stroke="midnightblue" d="M552.09,-121.53C521.7,-121.53 476.71,-121.53 447.62,-121.53"/>
<polygon fill="midnightblue" stroke="midnightblue" points="552.18,-125.03 562.18,-121.53 552.18,-118.03 552.18,-125.03"/>
</g>
<!-- Node4 -->
<g id="node4" class="node">
<title>Node4</title>
<g id="a_node4"><a xlink:href="structRtcmDecoder.html#a6673aa5a16d7e997de9ce5e43fac7860" target="_top" xlink:title=" ">
<polygon fill="white" stroke="black" points="164,-109.03 164,-128.03 322,-128.03 322,-109.03 164,-109.03"/>
<text text-anchor="middle" x="243" y="-116.03" font-family="Helvetica,sans-Serif" font-size="10.00">RtcmDecoder::decodeEphemeris</text>
</a>
</g>
</g>
<!-- Node3&#45;&gt;Node4 -->
<g id="edge3" class="edge">
<title>Node3&#45;&gt;Node4</title>
<path fill="none" stroke="midnightblue" d="M378.09,-120.85C361.54,-120.57 341.62,-120.22 322.26,-119.88"/>
<polygon fill="midnightblue" stroke="midnightblue" points="378.37,-124.36 388.43,-121.03 378.49,-117.36 378.37,-124.36"/>
</g>
<!-- Node10 -->
<g id="node6" class="node">
<title>Node10</title>
<g id="a_node6"><a xlink:href="structRtcmDecoder.html#a255b1924964121ecb5ac55d1efc0cd64" target="_top" xlink:title=" ">
<polygon fill="white" stroke="black" points="173,-147.03 173,-166.03 313,-166.03 313,-147.03 173,-147.03"/>
<text text-anchor="middle" x="243" y="-154.03" font-family="Helvetica,sans-Serif" font-size="10.00">RtcmDecoder::decodeMSM7</text>
</a>
</g>
</g>
<!-- Node3&#45;&gt;Node10 -->
<g id="edge5" class="edge">
<title>Node3&#45;&gt;Node10</title>
<path fill="none" stroke="midnightblue" d="M378.3,-129.36C352.55,-134.57 318.57,-141.44 291.23,-146.97"/>
<polygon fill="midnightblue" stroke="midnightblue" points="379.33,-132.72 388.43,-127.31 377.94,-125.86 379.33,-132.72"/>
</g>
<!-- Node11 -->
<g id="node7" class="node">
<title>Node11</title>
<g id="a_node7"><a xlink:href="structRtcmDecoder.html#a187d2bf36da0d4de61f4c603b203b09f" target="_top" xlink:title=" ">
<polygon fill="white" stroke="black" points="177,-71.03 177,-90.03 309,-90.03 309,-71.03 177,-71.03"/>
<text text-anchor="middle" x="243" y="-78.03" font-family="Helvetica,sans-Serif" font-size="10.00">RtcmDecoder::decodeSSR</text>
</a>
</g>
</g>
<!-- Node3&#45;&gt;Node11 -->
<g id="edge7" class="edge">
<title>Node3&#45;&gt;Node11</title>
<path fill="none" stroke="midnightblue" d="M378.59,-112.43C350.58,-105.79 312.7,-96.81 284.26,-90.07"/>
<polygon fill="midnightblue" stroke="midnightblue" points="377.89,-115.86 388.43,-114.76 379.51,-109.05 377.89,-115.86"/>
</g>
<!-- Node4&#45;&gt;Node5 -->
<g id="edge4" class="edge">
<title>Node4&#45;&gt;Node5</title>
<path fill="none" stroke="midnightblue" d="M187.26,-130.28C162.23,-135.65 132.97,-141.94 109.34,-147.01"/>
<polygon fill="midnightblue" stroke="midnightblue" points="188.29,-133.64 197.34,-128.12 186.82,-126.79 188.29,-133.64"/>
</g>
<!-- Node10&#45;&gt;Node5 -->
<g id="edge6" class="edge">
<title>Node10&#45;&gt;Node5</title>
<path fill="none" stroke="midnightblue" d="M162.69,-156.53C151.1,-156.53 139.3,-156.53 128.09,-156.53"/>
<polygon fill="midnightblue" stroke="midnightblue" points="162.81,-160.03 172.81,-156.53 162.81,-153.03 162.81,-160.03"/>
</g>
<!-- Node11&#45;&gt;Node5 -->
<g id="edge8" class="edge">
<title>Node11&#45;&gt;Node5</title>
<path fill="none" stroke="midnightblue" d="M183.66,-92.81C176.94,-94.79 170.26,-97.02 164,-99.53 131.78,-112.42 97.35,-134.32 78.78,-146.89"/>
<polygon fill="midnightblue" stroke="midnightblue" points="184.77,-96.13 193.48,-90.09 182.91,-89.38 184.77,-96.13"/>
</g>
<!-- Node12&#45;&gt;Node4 -->
<g id="edge14" class="edge">
<title>Node12&#45;&gt;Node4</title>
<path fill="none" stroke="midnightblue" d="M378.59,-150.43C350.58,-143.79 312.7,-134.81 284.26,-128.07"/>
<polygon fill="midnightblue" stroke="midnightblue" points="377.89,-153.86 388.43,-152.76 379.51,-147.05 377.89,-153.86"/>
</g>
<!-- Node12&#45;&gt;Node5 -->
<g id="edge17" class="edge">
<title>Node12&#45;&gt;Node5</title>
<path fill="none" stroke="midnightblue" d="M378.27,-167.56C361.11,-170.72 340.63,-173.97 322,-175.53 252.02,-181.38 233.91,-182.18 164,-175.53 144.49,-173.67 123.1,-169.8 105.21,-166.04"/>
<polygon fill="midnightblue" stroke="midnightblue" points="379.3,-170.92 388.47,-165.61 377.99,-164.04 379.3,-170.92"/>
</g>
<!-- Node12&#45;&gt;Node10 -->
<g id="edge15" class="edge">
<title>Node12&#45;&gt;Node10</title>
<path fill="none" stroke="midnightblue" d="M378.3,-158.86C359.16,-158.52 335.46,-158.11 313.33,-157.73"/>
<polygon fill="midnightblue" stroke="midnightblue" points="378.37,-162.36 388.43,-159.03 378.49,-155.36 378.37,-162.36"/>
</g>
<!-- Node12&#45;&gt;Node11 -->
<g id="edge16" class="edge">
<title>Node12&#45;&gt;Node11</title>
<path fill="none" stroke="midnightblue" d="M378.62,-150.5C371.45,-147.9 364.25,-144.63 358,-140.53 337.73,-127.22 342.74,-112.09 322,-99.53 315.56,-95.63 308.37,-92.53 301.03,-90.07"/>
<polygon fill="midnightblue" stroke="midnightblue" points="377.71,-153.88 388.3,-153.63 379.86,-147.22 377.71,-153.88"/>
</g>
<!-- Node13 -->
<g id="node9" class="node">
<title>Node13</title>
<g id="a_node9"><a xlink:href="structRtcmDecoder.html#aa4f10b765f29810a57a883a57625b1cc" target="_top" xlink:title=" ">
<polygon fill="white" stroke="black" points="166,-273.03 166,-292.03 320,-292.03 320,-273.03 166,-273.03"/>
<text text-anchor="middle" x="243" y="-280.03" font-family="Helvetica,sans-Serif" font-size="10.00">RtcmDecoder::decodeCustomId</text>
</a>
</g>
</g>
<!-- Node12&#45;&gt;Node13 -->
<g id="edge10" class="edge">
<title>Node12&#45;&gt;Node13</title>
<path fill="none" stroke="midnightblue" d="M405.49,-177.71C389.62,-201.22 358.78,-241.74 322,-263.53 315.4,-267.43 308.04,-270.54 300.55,-273.01"/>
<polygon fill="midnightblue" stroke="midnightblue" points="408.43,-179.6 411,-169.32 402.58,-175.76 408.43,-179.6"/>
</g>
<!-- Node14 -->
<g id="node10" class="node">
<title>Node14</title>
<g id="a_node10"><a xlink:href="structRtcmDecoder.html#acd55ac9ab7db974b462c8671d899a120" target="_top" xlink:title=" ">
<polygon fill="white" stroke="black" points="170,-223.53 170,-253.53 316,-253.53 316,-223.53 170,-223.53"/>
<text text-anchor="start" x="178" y="-241.53" font-family="Helvetica,sans-Serif" font-size="10.00">RtcmDecoder::decodeCustom</text>
<text text-anchor="middle" x="243" y="-230.53" font-family="Helvetica,sans-Serif" font-size="10.00">Timestamp</text>
</a>
</g>
</g>
<!-- Node12&#45;&gt;Node14 -->
<g id="edge12" class="edge">
<title>Node12&#45;&gt;Node14</title>
<path fill="none" stroke="midnightblue" d="M390.88,-173.98C372.01,-184.18 345.76,-197.87 322,-208.53 310.35,-213.75 297.49,-218.93 285.64,-223.48"/>
<polygon fill="midnightblue" stroke="midnightblue" points="392.66,-176.99 399.77,-169.14 389.31,-170.85 392.66,-176.99"/>
</g>
<!-- Node13&#45;&gt;Node5 -->
<g id="edge11" class="edge">
<title>Node13&#45;&gt;Node5</title>
<path fill="none" stroke="midnightblue" d="M175.76,-269.36C171.67,-267.65 167.72,-265.71 164,-263.53 120.59,-238 84.85,-187.5 71.08,-166.28"/>
<polygon fill="midnightblue" stroke="midnightblue" points="174.88,-272.77 185.47,-272.97 177.32,-266.21 174.88,-272.77"/>
</g>
<!-- Node14&#45;&gt;Node5 -->
<g id="edge13" class="edge">
<title>Node14&#45;&gt;Node5</title>
<path fill="none" stroke="midnightblue" d="M190.41,-219.66C181.53,-216.14 172.44,-212.35 164,-208.53 134.47,-195.15 101.34,-177.1 81.87,-166.16"/>
<polygon fill="midnightblue" stroke="midnightblue" points="189.35,-223 199.93,-223.38 191.89,-216.48 189.35,-223"/>
</g>
<!-- Node15&#45;&gt;Node4 -->
<g id="edge19" class="edge">
<title>Node15&#45;&gt;Node4</title>
<path fill="none" stroke="midnightblue" d="M348.13,-93.85C326.47,-98.98 303.27,-104.48 284.28,-108.98"/>
<polygon fill="midnightblue" stroke="midnightblue" points="349.02,-97.23 357.95,-91.52 347.41,-90.42 349.02,-97.23"/>
</g>
<!-- Node15&#45;&gt;Node5 -->
<g id="edge21" class="edge">
<title>Node15&#45;&gt;Node5</title>
<path fill="none" stroke="midnightblue" d="M359.02,-60.02C306.22,-47.24 227.1,-36.15 164,-61.53 120.24,-79.13 84.95,-126.33 71.2,-146.82"/>
<polygon fill="midnightblue" stroke="midnightblue" points="358.33,-63.46 368.88,-62.5 360.04,-56.67 358.33,-63.46"/>
</g>
<!-- Node15&#45;&gt;Node11 -->
<g id="edge20" class="edge">
<title>Node15&#45;&gt;Node11</title>
<path fill="none" stroke="midnightblue" d="M347.82,-78.73C335.01,-78.95 321.68,-79.18 309.01,-79.4"/>
<polygon fill="midnightblue" stroke="midnightblue" points="348.01,-82.22 357.95,-78.55 347.89,-75.23 348.01,-82.22"/>
</g>
<!-- Node16&#45;&gt;Node5 -->
<g id="edge23" class="edge">
<title>Node16&#45;&gt;Node5</title>
<path fill="none" stroke="midnightblue" d="M526.54,-12.4C442.09,0.88 282.38,14.72 164,-42.53 116.1,-65.69 81.91,-123.8 69.81,-146.87"/>
<polygon fill="midnightblue" stroke="midnightblue" points="526.03,-15.86 536.46,-14.01 527.15,-8.95 526.03,-15.86"/>
</g>
</g>
</svg>
        <g id="navigator" transform="translate(0 0)" fill="#404254">
                <rect fill="#f2f5e9" fill-opacity="0.5" stroke="#606060" stroke-width=".5" x="0" y="0" width="60" height="60"/>
                <use id="zoomplus" xlink:href="#zoomPlus" x="17" y="9" onmousedown="handleZoom(evt,'in')"/>
                <use id="zoomminus" xlink:href="#zoomMin" x="42" y="9" onmousedown="handleZoom(evt,'out')"/>
                <use id="reset" xlink:href="#resetDef" x="30" y="36" onmousedown="handleReset()"/>
                <g id="arrowUp" xlink:href="#dirArrow" transform="translate(30 24)" onmousedown="handlePan(0,-1)">
                  <use xlink:href="#rim" fill="#404040">
                        <set attributeName="fill" to="#808080" begin="arrowUp.mouseover" end="arrowUp.mouseout"/>
                  </use>
                  <path fill="none" stroke="white" stroke-width="1.5" d="M0,-3.0v7 M-2.5,-0.5L0,-3.0L2.5,-0.5"/>
                </g>
                <g id="arrowRight" xlink:href="#dirArrow" transform="rotate(90) translate(36 -43)" onmousedown="handlePan(1,0)">
                  <use xlink:href="#rim" fill="#404040">
                        <set attributeName="fill" to="#808080" begin="arrowRight.mouseover" end="arrowRight.mouseout"/>
                  </use>
                  <path fill="none" stroke="white" stroke-width="1.5" d="M0,-3.0v7 M-2.5,-0.5L0,-3.0L2.5,-0.5"/>
                </g>
                <g id="arrowDown" xlink:href="#dirArrow" transform="rotate(180) translate(-30 -48)" onmousedown="handlePan(0,1)">
                  <use xlink:href="#rim" fill="#404040">
                        <set attributeName="fill" to="#808080" begin="arrowDown.mouseover" end="arrowDown.mouseout"/>
                  </use>
                  <path fill="none" stroke="white" stroke-width="1.5" d="M0,-3.0v7 M-2.5,-0.5L0,-3.0L2.5,-0.5"/>
                </g>
                <g id="arrowLeft" xlink:href="#dirArrow" transform="rotate(270) translate(-36 17)" onmousedown="handlePan(-1,0)">
                  <use xlink:href="#rim" fill="#404040">
                        <set attributeName="fill" to="#808080" begin="arrowLeft.mouseover" end="arrowLeft.mouseout"/>
                  </use>
                  <path fill="none" stroke="white" stroke-width="1.5" d="M0,-3.0v7 M-2.5,-0.5L0,-3.0L2.5,-0.5"/>
                </g>
        </g>
        <svg viewBox="0 0 15 15" width="100%" height="30px" preserveAspectRatio="xMaxYMin meet">
         <g id="arrow_out" transform="scale(0.3 0.3)">
          <a xlink:href="common_8cpp_a85a03123ae20efc3b06434f616140943_icgraph_org.svg" target="_base">
           <rect id="button" ry="5" rx="5" y="6" x="6" height="38" width="38"
                fill="#f2f5e9" fill-opacity="0.5" stroke="#606060" stroke-width="1.0"/>
           <path id="arrow"
             d="M 11.500037,31.436501 C 11.940474,20.09759 22.043105,11.32322 32.158766,21.979434 L 37.068811,17.246167 C 37.068811,17.246167 37.088388,32 37.088388,32 L 22.160133,31.978069 C 22.160133,31.978069 26.997745,27.140456 26.997745,27.140456 C 18.528582,18.264221 13.291696,25.230495 11.500037,31.436501 z"
             style="fill:#404040;"/>
          </a>
         </g>
        </svg>
</svg>
