<?xml version="1.0" encoding="UTF-8" standalone="no"?>
<!DOCTYPE svg PUBLIC "-//W3C//DTD SVG 1.1//EN"
 "http://www.w3.org/Graphics/SVG/1.1/DTD/svg11.dtd">
<!-- Generated by graphviz version 2.50.0 (20220203.2022)
 -->
<!-- Title: enu2ecef Pages: 1 -->
<svg width="406pt" height="163pt"
 viewBox="0.00 0.00 406.00 163.26" xmlns="http://www.w3.org/2000/svg" xmlns:xlink="http://www.w3.org/1999/xlink">
<g id="graph0" class="graph" transform="scale(1 1) rotate(0) translate(4 159.26)">
<title>enu2ecef</title>
<polygon fill="white" stroke="transparent" points="-4,4 -4,-159.26 402,-159.26 402,4 -4,4"/>
<!-- Node1 -->
<g id="node1" class="node">
<title>Node1</title>
<g id="a_node1"><a xlink:title=" ">
<polygon fill="#bfbfbf" stroke="black" points="342,-76.5 342,-95.5 398,-95.5 398,-76.5 342,-76.5"/>
<text text-anchor="middle" x="370" y="-83.5" font-family="Helvetica,sans-Serif" font-size="10.00">enu2ecef</text>
</a>
</g>
</g>
<!-- Node2 -->
<g id="node2" class="node">
<title>Node2</title>
<g id="a_node2"><a xlink:href="ppp__user_8cpp.html#a6840432dd58d1e58178b15080b92bdd8" target="_top" xlink:title=" ">
<polygon fill="white" stroke="black" points="105,-133.5 105,-152.5 161,-152.5 161,-133.5 105,-133.5"/>
<text text-anchor="middle" x="133" y="-140.5" font-family="Helvetica,sans-Serif" font-size="10.00">ppp_filter</text>
</a>
</g>
</g>
<!-- Node1&#45;&gt;Node2 -->
<g id="edge1" class="edge">
<title>Node1&#45;&gt;Node2</title>
<path fill="none" stroke="midnightblue" d="M355.94,-103.39C344.5,-117.07 326.52,-135.1 306,-143 257.65,-161.62 195.84,-155 161.01,-148.8"/>
<polygon fill="midnightblue" stroke="midnightblue" points="358.69,-105.56 362.19,-95.56 353.22,-101.2 358.69,-105.56"/>
</g>
<!-- Node6 -->
<g id="node4" class="node">
<title>Node6</title>
<g id="a_node4"><a xlink:href="ppp_8cpp.html#ae6ff673a04fff8b0f78b4d1b111a2a42" target="_top" xlink:title=" ">
<polygon fill="white" stroke="black" points="223.5,-114.5 223.5,-133.5 305.5,-133.5 305.5,-114.5 223.5,-114.5"/>
<text text-anchor="middle" x="264.5" y="-121.5" font-family="Helvetica,sans-Serif" font-size="10.00">pppCorrections</text>
</a>
</g>
</g>
<!-- Node1&#45;&gt;Node6 -->
<g id="edge3" class="edge">
<title>Node1&#45;&gt;Node6</title>
<path fill="none" stroke="midnightblue" d="M333.27,-99.12C319.58,-104.14 304.23,-109.78 291.61,-114.41"/>
<polygon fill="midnightblue" stroke="midnightblue" points="334.7,-102.32 342.88,-95.59 332.29,-95.75 334.7,-102.32"/>
</g>
<!-- Node7 -->
<g id="node5" class="node">
<title>Node7</title>
<g id="a_node5"><a xlink:href="ppp__network_8cpp.html#a8841c4de50d731334b0aa349d64a2985" target="_top" xlink:title=" ">
<polygon fill="white" stroke="black" points="240,-76.5 240,-95.5 289,-95.5 289,-76.5 240,-76.5"/>
<text text-anchor="middle" x="264.5" y="-83.5" font-family="Helvetica,sans-Serif" font-size="10.00">resomc</text>
</a>
</g>
</g>
<!-- Node1&#45;&gt;Node7 -->
<g id="edge5" class="edge">
<title>Node1&#45;&gt;Node7</title>
<path fill="none" stroke="midnightblue" d="M331.43,-86C317.38,-86 301.82,-86 289.34,-86"/>
<polygon fill="midnightblue" stroke="midnightblue" points="331.81,-89.5 341.81,-86 331.81,-82.5 331.81,-89.5"/>
</g>
<!-- Node9 -->
<g id="node7" class="node">
<title>Node9</title>
<g id="a_node7"><a xlink:href="ppppp__obs_8cpp.html#a3db2ffced7ab37c4874c3a53fcb7953e" target="_top" xlink:title=" ">
<polygon fill="white" stroke="black" points="231.5,-38.5 231.5,-57.5 297.5,-57.5 297.5,-38.5 231.5,-38.5"/>
<text text-anchor="middle" x="264.5" y="-45.5" font-family="Helvetica,sans-Serif" font-size="10.00">stationPPP</text>
</a>
</g>
</g>
<!-- Node1&#45;&gt;Node9 -->
<g id="edge7" class="edge">
<title>Node1&#45;&gt;Node9</title>
<path fill="none" stroke="midnightblue" d="M333.27,-72.88C319.58,-67.86 304.23,-62.22 291.61,-57.59"/>
<polygon fill="midnightblue" stroke="midnightblue" points="332.29,-76.25 342.88,-76.41 334.7,-69.68 332.29,-76.25"/>
</g>
<!-- Node11 -->
<g id="node9" class="node">
<title>Node11</title>
<g id="a_node9"><a xlink:href="tropSinex_8cpp.html#a2fb8fe8aceac5caf6ff006e3bd6635d4" target="_top" xlink:title="Write SITE/ID block.">
<polygon fill="white" stroke="black" points="223,-0.5 223,-19.5 306,-19.5 306,-0.5 223,-0.5"/>
<text text-anchor="middle" x="264.5" y="-7.5" font-family="Helvetica,sans-Serif" font-size="10.00">writeTropSiteId</text>
</a>
</g>
</g>
<!-- Node1&#45;&gt;Node11 -->
<g id="edge9" class="edge">
<title>Node1&#45;&gt;Node11</title>
<path fill="none" stroke="midnightblue" d="M352.79,-68.83C340.69,-56.66 323.33,-40.53 306,-29 300.7,-25.47 294.64,-22.26 288.85,-19.51"/>
<polygon fill="midnightblue" stroke="midnightblue" points="350.44,-71.43 359.92,-76.16 355.46,-66.55 350.44,-71.43"/>
</g>
<!-- Node3 -->
<g id="node3" class="node">
<title>Node3</title>
<g id="a_node3"><a xlink:href="ppp__user_8cpp.html#aad22d0ff0d06af12ea66aefd09d89af3" target="_top" xlink:title=" ">
<polygon fill="white" stroke="red" points="0,-133.5 0,-152.5 43,-152.5 43,-133.5 0,-133.5"/>
<text text-anchor="middle" x="21.5" y="-140.5" font-family="Helvetica,sans-Serif" font-size="10.00">pppos</text>
</a>
</g>
</g>
<!-- Node2&#45;&gt;Node3 -->
<g id="edge2" class="edge">
<title>Node2&#45;&gt;Node3</title>
<path fill="none" stroke="midnightblue" d="M94.6,-143C77.36,-143 57.56,-143 43.07,-143"/>
<polygon fill="midnightblue" stroke="midnightblue" points="94.93,-146.5 104.93,-143 94.93,-139.5 94.93,-146.5"/>
</g>
<!-- Node6&#45;&gt;Node2 -->
<g id="edge4" class="edge">
<title>Node6&#45;&gt;Node2</title>
<path fill="none" stroke="midnightblue" d="M213.04,-131.4C195.35,-134 176.17,-136.81 161.13,-139.02"/>
<polygon fill="midnightblue" stroke="midnightblue" points="213.85,-134.82 223.24,-129.91 212.83,-127.9 213.85,-134.82"/>
</g>
<!-- Node8 -->
<g id="node6" class="node">
<title>Node8</title>
<g id="a_node6"><a xlink:href="ppp__network_8cpp.html#a58f075aaa941ce20e727a84401270780" target="_top" xlink:title=" ">
<polygon fill="white" stroke="red" points="107.5,-76.5 107.5,-95.5 158.5,-95.5 158.5,-76.5 107.5,-76.5"/>
<text text-anchor="middle" x="133" y="-83.5" font-family="Helvetica,sans-Serif" font-size="10.00">pppomc</text>
</a>
</g>
</g>
<!-- Node7&#45;&gt;Node8 -->
<g id="edge6" class="edge">
<title>Node7&#45;&gt;Node8</title>
<path fill="none" stroke="midnightblue" d="M229.45,-86C207.32,-86 178.96,-86 158.93,-86"/>
<polygon fill="midnightblue" stroke="midnightblue" points="229.75,-89.5 239.75,-86 229.75,-82.5 229.75,-89.5"/>
</g>
<!-- Node10 -->
<g id="node8" class="node">
<title>Node10</title>
<g id="a_node8"><a xlink:href="ppppp_8cpp.html#a936f239adc72073920104f4acc2aea67" target="_top" xlink:title=" ">
<polygon fill="white" stroke="red" points="114.5,-38.5 114.5,-57.5 151.5,-57.5 151.5,-38.5 114.5,-38.5"/>
<text text-anchor="middle" x="133" y="-45.5" font-family="Helvetica,sans-Serif" font-size="10.00">PPP</text>
</a>
</g>
</g>
<!-- Node9&#45;&gt;Node10 -->
<g id="edge8" class="edge">
<title>Node9&#45;&gt;Node10</title>
<path fill="none" stroke="midnightblue" d="M221.36,-48C197.75,-48 169.56,-48 151.72,-48"/>
<polygon fill="midnightblue" stroke="midnightblue" points="221.49,-51.5 231.49,-48 221.49,-44.5 221.49,-51.5"/>
</g>
<!-- Node12 -->
<g id="node10" class="node">
<title>Node12</title>
<g id="a_node10"><a xlink:href="tropSinex_8cpp.html#ab59eaf15f25fdbc2cdf51adbadfc9ad3" target="_top" xlink:title="Write troposphere Sinex data to file.">
<polygon fill="white" stroke="red" points="79,-0.5 79,-19.5 187,-19.5 187,-0.5 79,-0.5"/>
<text text-anchor="middle" x="133" y="-7.5" font-family="Helvetica,sans-Serif" font-size="10.00">writeTropSinexToFile</text>
</a>
</g>
</g>
<!-- Node11&#45;&gt;Node12 -->
<g id="edge10" class="edge">
<title>Node11&#45;&gt;Node12</title>
<path fill="none" stroke="midnightblue" d="M212.86,-10C204.47,-10 195.76,-10 187.31,-10"/>
<polygon fill="midnightblue" stroke="midnightblue" points="212.88,-13.5 222.88,-10 212.88,-6.5 212.88,-13.5"/>
</g>
</g>
</svg>
