<?xml version="1.0" encoding="UTF-8" standalone="no"?>
<!DOCTYPE svg PUBLIC "-//W3C//DTD SVG 1.1//EN"
 "http://www.w3.org/Graphics/SVG/1.1/DTD/svg11.dtd">
<!-- Generated by graphviz version 2.50.0 (20220203.2022)
 -->
<!-- Title: getbits Pages: 1 -->
<svg width="343pt" height="104pt"
 viewBox="0.00 0.00 343.00 104.00" xmlns="http://www.w3.org/2000/svg" xmlns:xlink="http://www.w3.org/1999/xlink">
<g id="graph0" class="graph" transform="scale(1 1) rotate(0) translate(4 100)">
<title>getbits</title>
<polygon fill="white" stroke="transparent" points="-4,4 -4,-100 339,-100 339,4 -4,4"/>
<!-- Node1 -->
<g id="node1" class="node">
<title>Node1</title>
<g id="a_node1"><a xlink:title=" ">
<polygon fill="#bfbfbf" stroke="black" points="289,-38.5 289,-57.5 335,-57.5 335,-38.5 289,-38.5"/>
<text text-anchor="middle" x="312" y="-45.5" font-family="Helvetica,sans-Serif" font-size="10.00">getbits</text>
</a>
</g>
</g>
<!-- Node2 -->
<g id="node2" class="node">
<title>Node2</title>
<g id="a_node2"><a xlink:href="common_8cpp.html#a015a8a5120016e627bc810a59aa72948" target="_top" xlink:title=" ">
<polygon fill="white" stroke="black" points="194,-38.5 194,-57.5 253,-57.5 253,-38.5 194,-38.5"/>
<text text-anchor="middle" x="223.5" y="-45.5" font-family="Helvetica,sans-Serif" font-size="10.00">getbitsInc</text>
</a>
</g>
</g>
<!-- Node1&#45;&gt;Node2 -->
<g id="edge1" class="edge">
<title>Node1&#45;&gt;Node2</title>
<path fill="none" stroke="midnightblue" d="M278.59,-48C270.26,-48 261.36,-48 253.24,-48"/>
<polygon fill="midnightblue" stroke="midnightblue" points="278.72,-51.5 288.72,-48 278.72,-44.5 278.72,-51.5"/>
</g>
<!-- Node3 -->
<g id="node3" class="node">
<title>Node3</title>
<g id="a_node3"><a xlink:href="structRtcmDecoder.html#a6673aa5a16d7e997de9ce5e43fac7860" target="_top" xlink:title=" ">
<polygon fill="white" stroke="red" points="0,-76.5 0,-95.5 158,-95.5 158,-76.5 0,-76.5"/>
<text text-anchor="middle" x="79" y="-83.5" font-family="Helvetica,sans-Serif" font-size="10.00">RtcmDecoder::decodeEphemeris</text>
</a>
</g>
</g>
<!-- Node2&#45;&gt;Node3 -->
<g id="edge2" class="edge">
<title>Node2&#45;&gt;Node3</title>
<path fill="none" stroke="midnightblue" d="M183.96,-59.68C175.43,-62.17 166.43,-64.73 158,-67 146.02,-70.22 132.94,-73.5 120.98,-76.41"/>
<polygon fill="midnightblue" stroke="midnightblue" points="185.09,-62.99 193.69,-56.81 183.1,-56.28 185.09,-62.99"/>
</g>
<!-- Node9 -->
<g id="node4" class="node">
<title>Node9</title>
<g id="a_node4"><a xlink:href="structRtcmDecoder.html#a255b1924964121ecb5ac55d1efc0cd64" target="_top" xlink:title=" ">
<polygon fill="white" stroke="red" points="9,-38.5 9,-57.5 149,-57.5 149,-38.5 9,-38.5"/>
<text text-anchor="middle" x="79" y="-45.5" font-family="Helvetica,sans-Serif" font-size="10.00">RtcmDecoder::decodeMSM7</text>
</a>
</g>
</g>
<!-- Node2&#45;&gt;Node9 -->
<g id="edge3" class="edge">
<title>Node2&#45;&gt;Node9</title>
<path fill="none" stroke="midnightblue" d="M183.46,-48C172.81,-48 160.94,-48 149.15,-48"/>
<polygon fill="midnightblue" stroke="midnightblue" points="183.66,-51.5 193.66,-48 183.66,-44.5 183.66,-51.5"/>
</g>
<!-- Node10 -->
<g id="node5" class="node">
<title>Node10</title>
<g id="a_node5"><a xlink:href="structRtcmDecoder.html#a187d2bf36da0d4de61f4c603b203b09f" target="_top" xlink:title=" ">
<polygon fill="white" stroke="red" points="13,-0.5 13,-19.5 145,-19.5 145,-0.5 13,-0.5"/>
<text text-anchor="middle" x="79" y="-7.5" font-family="Helvetica,sans-Serif" font-size="10.00">RtcmDecoder::decodeSSR</text>
</a>
</g>
</g>
<!-- Node2&#45;&gt;Node10 -->
<g id="edge4" class="edge">
<title>Node2&#45;&gt;Node10</title>
<path fill="none" stroke="midnightblue" d="M183.96,-36.32C175.43,-33.83 166.43,-31.27 158,-29 146.02,-25.78 132.94,-22.5 120.98,-19.59"/>
<polygon fill="midnightblue" stroke="midnightblue" points="183.1,-39.72 193.69,-39.19 185.09,-33.01 183.1,-39.72"/>
</g>
</g>
</svg>
