<?xml version="1.0" encoding="UTF-8" standalone="no"?>
<!DOCTYPE svg PUBLIC "-//W3C//DTD SVG 1.1//EN"
 "http://www.w3.org/Graphics/SVG/1.1/DTD/svg11.dtd">
<!-- Generated by graphviz version 2.50.0 (20220203.2022)
 -->
<!-- Title: getbitsInc Pages: 1 -->
<svg width="425pt" height="104pt"
 viewBox="0.00 0.00 425.00 104.00" xmlns="http://www.w3.org/2000/svg" xmlns:xlink="http://www.w3.org/1999/xlink">
<g id="graph0" class="graph" transform="scale(1 1) rotate(0) translate(4 100)">
<title>getbitsInc</title>
<polygon fill="white" stroke="transparent" points="-4,4 -4,-100 421,-100 421,4 -4,4"/>
<!-- Node1 -->
<g id="node1" class="node">
<title>Node1</title>
<g id="a_node1"><a xlink:title=" ">
<polygon fill="#bfbfbf" stroke="black" points="358,-38.5 358,-57.5 417,-57.5 417,-38.5 358,-38.5"/>
<text text-anchor="middle" x="387.5" y="-45.5" font-family="Helvetica,sans-Serif" font-size="10.00">getbitsInc</text>
</a>
</g>
</g>
<!-- Node2 -->
<g id="node2" class="node">
<title>Node2</title>
<g id="a_node2"><a xlink:href="structRtcmDecoder.html#a6673aa5a16d7e997de9ce5e43fac7860" target="_top" xlink:title=" ">
<polygon fill="white" stroke="black" points="164,-76.5 164,-95.5 322,-95.5 322,-76.5 164,-76.5"/>
<text text-anchor="middle" x="243" y="-83.5" font-family="Helvetica,sans-Serif" font-size="10.00">RtcmDecoder::decodeEphemeris</text>
</a>
</g>
</g>
<!-- Node1&#45;&gt;Node2 -->
<g id="edge1" class="edge">
<title>Node1&#45;&gt;Node2</title>
<path fill="none" stroke="midnightblue" d="M347.96,-59.68C339.43,-62.17 330.43,-64.73 322,-67 310.02,-70.22 296.94,-73.5 284.98,-76.41"/>
<polygon fill="midnightblue" stroke="midnightblue" points="349.09,-62.99 357.69,-56.81 347.1,-56.28 349.09,-62.99"/>
</g>
<!-- Node8 -->
<g id="node4" class="node">
<title>Node8</title>
<g id="a_node4"><a xlink:href="structRtcmDecoder.html#a255b1924964121ecb5ac55d1efc0cd64" target="_top" xlink:title=" ">
<polygon fill="white" stroke="black" points="173,-38.5 173,-57.5 313,-57.5 313,-38.5 173,-38.5"/>
<text text-anchor="middle" x="243" y="-45.5" font-family="Helvetica,sans-Serif" font-size="10.00">RtcmDecoder::decodeMSM7</text>
</a>
</g>
</g>
<!-- Node1&#45;&gt;Node8 -->
<g id="edge3" class="edge">
<title>Node1&#45;&gt;Node8</title>
<path fill="none" stroke="midnightblue" d="M347.46,-48C336.81,-48 324.94,-48 313.15,-48"/>
<polygon fill="midnightblue" stroke="midnightblue" points="347.66,-51.5 357.66,-48 347.66,-44.5 347.66,-51.5"/>
</g>
<!-- Node9 -->
<g id="node5" class="node">
<title>Node9</title>
<g id="a_node5"><a xlink:href="structRtcmDecoder.html#a187d2bf36da0d4de61f4c603b203b09f" target="_top" xlink:title=" ">
<polygon fill="white" stroke="black" points="177,-0.5 177,-19.5 309,-19.5 309,-0.5 177,-0.5"/>
<text text-anchor="middle" x="243" y="-7.5" font-family="Helvetica,sans-Serif" font-size="10.00">RtcmDecoder::decodeSSR</text>
</a>
</g>
</g>
<!-- Node1&#45;&gt;Node9 -->
<g id="edge5" class="edge">
<title>Node1&#45;&gt;Node9</title>
<path fill="none" stroke="midnightblue" d="M347.96,-36.32C339.43,-33.83 330.43,-31.27 322,-29 310.02,-25.78 296.94,-22.5 284.98,-19.59"/>
<polygon fill="midnightblue" stroke="midnightblue" points="347.1,-39.72 357.69,-39.19 349.09,-33.01 347.1,-39.72"/>
</g>
<!-- Node3 -->
<g id="node3" class="node">
<title>Node3</title>
<g id="a_node3"><a xlink:href="structRtcmStream.html#a34a7a941dab214b7ff6b17e8a53eb55a" target="_top" xlink:title=" ">
<polygon fill="white" stroke="red" points="0,-38.5 0,-57.5 128,-57.5 128,-38.5 0,-38.5"/>
<text text-anchor="middle" x="64" y="-45.5" font-family="Helvetica,sans-Serif" font-size="10.00">RtcmStream::parseRTCM</text>
</a>
</g>
</g>
<!-- Node2&#45;&gt;Node3 -->
<g id="edge2" class="edge">
<title>Node2&#45;&gt;Node3</title>
<path fill="none" stroke="midnightblue" d="M187.26,-74.25C162.23,-68.87 132.97,-62.59 109.34,-57.52"/>
<polygon fill="midnightblue" stroke="midnightblue" points="186.82,-77.73 197.34,-76.41 188.29,-70.89 186.82,-77.73"/>
</g>
<!-- Node8&#45;&gt;Node3 -->
<g id="edge4" class="edge">
<title>Node8&#45;&gt;Node3</title>
<path fill="none" stroke="midnightblue" d="M162.69,-48C151.1,-48 139.3,-48 128.09,-48"/>
<polygon fill="midnightblue" stroke="midnightblue" points="162.81,-51.5 172.81,-48 162.81,-44.5 162.81,-51.5"/>
</g>
<!-- Node9&#45;&gt;Node3 -->
<g id="edge6" class="edge">
<title>Node9&#45;&gt;Node3</title>
<path fill="none" stroke="midnightblue" d="M187.26,-21.75C162.23,-27.13 132.97,-33.41 109.34,-38.48"/>
<polygon fill="midnightblue" stroke="midnightblue" points="188.29,-25.11 197.34,-19.59 186.82,-18.27 188.29,-25.11"/>
</g>
</g>
</svg>
