<?xml version="1.0" encoding="UTF-8" standalone="no"?>
<!DOCTYPE svg PUBLIC "-//W3C//DTD SVG 1.1//EN"
 "http://www.w3.org/Graphics/SVG/1.1/DTD/svg11.dtd">
<!-- Generated by graphviz version 2.50.0 (20220203.2022)
 -->
<!-- Title: /github/workspace/src/cpp/common/corrections.hpp Pages: 1 -->
<svg width="1654pt" height="117pt"
 viewBox="0.00 0.00 1654.00 117.00" xmlns="http://www.w3.org/2000/svg" xmlns:xlink="http://www.w3.org/1999/xlink">
<g id="graph0" class="graph" transform="scale(1 1) rotate(0) translate(4 113)">
<title>/github/workspace/src/cpp/common/corrections.hpp</title>
<polygon fill="white" stroke="transparent" points="-4,4 -4,-113 1650,-113 1650,4 -4,4"/>
<!-- Node1 -->
<g id="node1" class="node">
<title>Node1</title>
<g id="a_node1"><a xlink:title=" ">
<polygon fill="#bfbfbf" stroke="black" points="771,-78.5 771,-108.5 916,-108.5 916,-78.5 771,-78.5"/>
<text text-anchor="start" x="779" y="-96.5" font-family="Helvetica,sans-Serif" font-size="10.00">/github/workspace/src</text>
<text text-anchor="middle" x="843.5" y="-85.5" font-family="Helvetica,sans-Serif" font-size="10.00">/cpp/common/corrections.hpp</text>
</a>
</g>
</g>
<!-- Node2 -->
<g id="node2" class="node">
<title>Node2</title>
<g id="a_node2"><a xlink:href="brdc2sp3__main__bck_8cpp.html" target="_top" xlink:title=" ">
<polygon fill="white" stroke="black" points="0,-0.5 0,-41.5 121,-41.5 121,-0.5 0,-0.5"/>
<text text-anchor="start" x="8" y="-29.5" font-family="Helvetica,sans-Serif" font-size="10.00">/github/workspace/src</text>
<text text-anchor="start" x="8" y="-18.5" font-family="Helvetica,sans-Serif" font-size="10.00">/cpp/brdc2sp3/brdc2sp3</text>
<text text-anchor="middle" x="60.5" y="-7.5" font-family="Helvetica,sans-Serif" font-size="10.00">_main_bck.cpp</text>
</a>
</g>
</g>
<!-- Node1&#45;&gt;Node2 -->
<g id="edge1" class="edge">
<title>Node1&#45;&gt;Node2</title>
<path fill="none" stroke="midnightblue" d="M760.62,-92.19C626.99,-90.44 356.06,-81.77 130.5,-42 127.39,-41.45 124.22,-40.82 121.03,-40.12"/>
<polygon fill="midnightblue" stroke="midnightblue" points="760.74,-95.69 770.78,-92.31 760.83,-88.69 760.74,-95.69"/>
</g>
<!-- Node3 -->
<g id="node3" class="node">
<title>Node3</title>
<g id="a_node3"><a xlink:href="ephemeris_8cpp.html" target="_top" xlink:title=" ">
<polygon fill="white" stroke="black" points="139.5,-6 139.5,-36 281.5,-36 281.5,-6 139.5,-6"/>
<text text-anchor="start" x="147.5" y="-24" font-family="Helvetica,sans-Serif" font-size="10.00">/github/workspace/src</text>
<text text-anchor="middle" x="210.5" y="-13" font-family="Helvetica,sans-Serif" font-size="10.00">/cpp/common/ephemeris.cpp</text>
</a>
</g>
</g>
<!-- Node1&#45;&gt;Node3 -->
<g id="edge2" class="edge">
<title>Node1&#45;&gt;Node3</title>
<path fill="none" stroke="midnightblue" d="M760.33,-88.9C651.68,-83.28 455.78,-70.04 290.5,-42 281.18,-40.42 271.35,-38.33 261.9,-36.09"/>
<polygon fill="midnightblue" stroke="midnightblue" points="760.41,-92.41 770.57,-89.42 760.76,-85.42 760.41,-92.41"/>
</g>
<!-- Node4 -->
<g id="node4" class="node">
<title>Node4</title>
<g id="a_node4"><a xlink:href="preceph_8cpp.html" target="_top" xlink:title=" ">
<polygon fill="white" stroke="black" points="300,-6 300,-36 431,-36 431,-6 300,-6"/>
<text text-anchor="start" x="308" y="-24" font-family="Helvetica,sans-Serif" font-size="10.00">/github/workspace/src</text>
<text text-anchor="middle" x="365.5" y="-13" font-family="Helvetica,sans-Serif" font-size="10.00">/cpp/common/preceph.cpp</text>
</a>
</g>
</g>
<!-- Node1&#45;&gt;Node4 -->
<g id="edge3" class="edge">
<title>Node1&#45;&gt;Node4</title>
<path fill="none" stroke="midnightblue" d="M760.75,-85.56C678.71,-77.89 549.69,-63.67 439.5,-42 431.14,-40.36 422.34,-38.29 413.83,-36.1"/>
<polygon fill="midnightblue" stroke="midnightblue" points="760.49,-89.06 770.77,-86.49 761.13,-82.09 760.49,-89.06"/>
</g>
<!-- Node5 -->
<g id="node5" class="node">
<title>Node5</title>
<g id="a_node5"><a xlink:href="ionoMeas_8cpp.html" target="_top" xlink:title=" ">
<polygon fill="white" stroke="black" points="449,-6 449,-36 568,-36 568,-6 449,-6"/>
<text text-anchor="start" x="457" y="-24" font-family="Helvetica,sans-Serif" font-size="10.00">/github/workspace/src</text>
<text text-anchor="middle" x="508.5" y="-13" font-family="Helvetica,sans-Serif" font-size="10.00">/cpp/iono/ionoMeas.cpp</text>
</a>
</g>
</g>
<!-- Node1&#45;&gt;Node5 -->
<g id="edge4" class="edge">
<title>Node1&#45;&gt;Node5</title>
<path fill="none" stroke="midnightblue" d="M760.82,-79.04C707.85,-69.88 637.79,-56.77 576.5,-42 569.2,-40.24 561.52,-38.19 554.05,-36.07"/>
<polygon fill="midnightblue" stroke="midnightblue" points="760.4,-82.52 770.84,-80.76 761.58,-75.62 760.4,-82.52"/>
</g>
<!-- Node6 -->
<g id="node6" class="node">
<title>Node6</title>
<g id="a_node6"><a xlink:href="main_8cpp.html" target="_top" xlink:title=" ">
<polygon fill="white" stroke="black" points="586,-6 586,-36 699,-36 699,-6 586,-6"/>
<text text-anchor="start" x="594" y="-24" font-family="Helvetica,sans-Serif" font-size="10.00">/github/workspace/src</text>
<text text-anchor="middle" x="642.5" y="-13" font-family="Helvetica,sans-Serif" font-size="10.00">/cpp/pea/main.cpp</text>
</a>
</g>
</g>
<!-- Node1&#45;&gt;Node6 -->
<g id="edge5" class="edge">
<title>Node1&#45;&gt;Node6</title>
<path fill="none" stroke="midnightblue" d="M793.51,-74.96C759.29,-62.96 714.51,-47.26 682.62,-36.07"/>
<polygon fill="midnightblue" stroke="midnightblue" points="792.71,-78.4 803.31,-78.4 795.03,-71.79 792.71,-78.4"/>
</g>
<!-- Node7 -->
<g id="node7" class="node">
<title>Node7</title>
<g id="a_node7"><a xlink:href="ppp_8cpp.html" target="_top" xlink:title="ppp.c : precise point positioning">
<polygon fill="white" stroke="black" points="717,-6 717,-36 830,-36 830,-6 717,-6"/>
<text text-anchor="start" x="725" y="-24" font-family="Helvetica,sans-Serif" font-size="10.00">/github/workspace/src</text>
<text text-anchor="middle" x="773.5" y="-13" font-family="Helvetica,sans-Serif" font-size="10.00">/cpp/pea/ppp.cpp</text>
</a>
</g>
</g>
<!-- Node1&#45;&gt;Node7 -->
<g id="edge6" class="edge">
<title>Node1&#45;&gt;Node7</title>
<path fill="none" stroke="midnightblue" d="M822.02,-70.86C810.85,-59.61 797.51,-46.18 787.64,-36.25"/>
<polygon fill="midnightblue" stroke="midnightblue" points="819.8,-73.6 829.33,-78.23 824.77,-68.67 819.8,-73.6"/>
</g>
<!-- Node8 -->
<g id="node8" class="node">
<title>Node8</title>
<g id="a_node8"><a xlink:href="ppp__network_8cpp.html" target="_top" xlink:title=" ">
<polygon fill="white" stroke="black" points="848,-6 848,-36 979,-36 979,-6 848,-6"/>
<text text-anchor="start" x="856" y="-24" font-family="Helvetica,sans-Serif" font-size="10.00">/github/workspace/src</text>
<text text-anchor="middle" x="913.5" y="-13" font-family="Helvetica,sans-Serif" font-size="10.00">/cpp/pea/ppp_network.cpp</text>
</a>
</g>
</g>
<!-- Node1&#45;&gt;Node8 -->
<g id="edge7" class="edge">
<title>Node1&#45;&gt;Node8</title>
<path fill="none" stroke="midnightblue" d="M864.98,-70.86C876.15,-59.61 889.49,-46.18 899.36,-36.25"/>
<polygon fill="midnightblue" stroke="midnightblue" points="862.23,-68.67 857.67,-78.23 867.2,-73.6 862.23,-68.67"/>
</g>
<!-- Node9 -->
<g id="node9" class="node">
<title>Node9</title>
<g id="a_node9"><a xlink:href="ppp__user_8cpp.html" target="_top" xlink:title=" ">
<polygon fill="white" stroke="black" points="997,-6 997,-36 1112,-36 1112,-6 997,-6"/>
<text text-anchor="start" x="1005" y="-24" font-family="Helvetica,sans-Serif" font-size="10.00">/github/workspace/src</text>
<text text-anchor="middle" x="1054.5" y="-13" font-family="Helvetica,sans-Serif" font-size="10.00">/cpp/pea/ppp_user.cpp</text>
</a>
</g>
</g>
<!-- Node1&#45;&gt;Node9 -->
<g id="edge8" class="edge">
<title>Node1&#45;&gt;Node9</title>
<path fill="none" stroke="midnightblue" d="M895.26,-75.2C931.24,-63.18 978.59,-47.36 1012.28,-36.11"/>
<polygon fill="midnightblue" stroke="midnightblue" points="893.81,-72 885.44,-78.49 896.03,-78.64 893.81,-72"/>
</g>
<!-- Node10 -->
<g id="node10" class="node">
<title>Node10</title>
<g id="a_node10"><a xlink:href="ppppp_8cpp.html" target="_top" xlink:title=" ">
<polygon fill="white" stroke="black" points="1130,-6 1130,-36 1243,-36 1243,-6 1130,-6"/>
<text text-anchor="start" x="1138" y="-24" font-family="Helvetica,sans-Serif" font-size="10.00">/github/workspace/src</text>
<text text-anchor="middle" x="1186.5" y="-13" font-family="Helvetica,sans-Serif" font-size="10.00">/cpp/pea/ppppp.cpp</text>
</a>
</g>
</g>
<!-- Node1&#45;&gt;Node10 -->
<g id="edge9" class="edge">
<title>Node1&#45;&gt;Node10</title>
<path fill="none" stroke="midnightblue" d="M926.43,-80.08C981.98,-71.12 1056.56,-57.83 1121.5,-42 1128.61,-40.27 1136.09,-38.2 1143.34,-36.06"/>
<polygon fill="midnightblue" stroke="midnightblue" points="925.61,-76.67 916.29,-81.71 926.72,-83.58 925.61,-76.67"/>
</g>
<!-- Node11 -->
<g id="node11" class="node">
<title>Node11</title>
<g id="a_node11"><a xlink:href="ppppp__obs_8cpp.html" target="_top" xlink:title=" ">
<polygon fill="white" stroke="black" points="1261.5,-6 1261.5,-36 1383.5,-36 1383.5,-6 1261.5,-6"/>
<text text-anchor="start" x="1269.5" y="-24" font-family="Helvetica,sans-Serif" font-size="10.00">/github/workspace/src</text>
<text text-anchor="middle" x="1322.5" y="-13" font-family="Helvetica,sans-Serif" font-size="10.00">/cpp/pea/ppppp_obs.cpp</text>
</a>
</g>
</g>
<!-- Node1&#45;&gt;Node11 -->
<g id="edge10" class="edge">
<title>Node1&#45;&gt;Node11</title>
<path fill="none" stroke="midnightblue" d="M926.22,-86.09C1009.27,-78.76 1140.61,-64.75 1252.5,-42 1260.55,-40.36 1269.03,-38.27 1277.19,-36.05"/>
<polygon fill="midnightblue" stroke="midnightblue" points="925.74,-82.62 916.08,-86.97 926.35,-89.59 925.74,-82.62"/>
</g>
<!-- Node12 -->
<g id="node12" class="node">
<title>Node12</title>
<g id="a_node12"><a xlink:href="spp_8cpp.html" target="_top" xlink:title=" ">
<polygon fill="white" stroke="black" points="1402,-6 1402,-36 1515,-36 1515,-6 1402,-6"/>
<text text-anchor="start" x="1410" y="-24" font-family="Helvetica,sans-Serif" font-size="10.00">/github/workspace/src</text>
<text text-anchor="middle" x="1458.5" y="-13" font-family="Helvetica,sans-Serif" font-size="10.00">/cpp/pea/spp.cpp</text>
</a>
</g>
</g>
<!-- Node1&#45;&gt;Node12 -->
<g id="edge11" class="edge">
<title>Node1&#45;&gt;Node12</title>
<path fill="none" stroke="midnightblue" d="M926.29,-90.1C1034.41,-85.78 1229.15,-73.92 1392.5,-42 1400.37,-40.46 1408.65,-38.36 1416.57,-36.09"/>
<polygon fill="midnightblue" stroke="midnightblue" points="925.96,-86.61 916.1,-90.49 926.23,-93.6 925.96,-86.61"/>
</g>
<!-- Node13 -->
<g id="node13" class="node">
<title>Node13</title>
<g id="a_node13"><a xlink:href="ionex_8cpp.html" target="_top" xlink:title=" ">
<polygon fill="white" stroke="black" points="1533,-6 1533,-36 1646,-36 1646,-6 1533,-6"/>
<text text-anchor="start" x="1541" y="-24" font-family="Helvetica,sans-Serif" font-size="10.00">/github/workspace/src</text>
<text text-anchor="middle" x="1589.5" y="-13" font-family="Helvetica,sans-Serif" font-size="10.00">/cpp/rtklib/ionex.cpp</text>
</a>
</g>
</g>
<!-- Node1&#45;&gt;Node13 -->
<g id="edge12" class="edge">
<title>Node1&#45;&gt;Node13</title>
<path fill="none" stroke="midnightblue" d="M926.2,-92.32C1055.14,-90.71 1311.39,-82.16 1524.5,-42 1532.51,-40.49 1540.92,-38.34 1548.94,-36.01"/>
<polygon fill="midnightblue" stroke="midnightblue" points="925.97,-88.82 916.01,-92.44 926.05,-95.82 925.97,-88.82"/>
</g>
</g>
</svg>
