<?xml version="1.0" encoding="UTF-8" standalone="no"?>
<!DOCTYPE svg PUBLIC "-//W3C//DTD SVG 1.1//EN"
 "http://www.w3.org/Graphics/SVG/1.1/DTD/svg11.dtd">
<!-- Generated by graphviz version 2.50.0 (20220203.2022)
 -->
<!-- Title: tropmapf Pages: 1 -->
<svg width="295pt" height="123pt"
 viewBox="0.00 0.00 295.00 123.00" xmlns="http://www.w3.org/2000/svg" xmlns:xlink="http://www.w3.org/1999/xlink">
<g id="graph0" class="graph" transform="scale(1 1) rotate(0) translate(4 119)">
<title>tropmapf</title>
<polygon fill="white" stroke="transparent" points="-4,4 -4,-119 291,-119 291,4 -4,4"/>
<!-- Node1 -->
<g id="node1" class="node">
<title>Node1</title>
<g id="a_node1"><a xlink:title=" ">
<polygon fill="#bfbfbf" stroke="black" points="0,-57.5 0,-76.5 55,-76.5 55,-57.5 0,-57.5"/>
<text text-anchor="middle" x="27.5" y="-64.5" font-family="Helvetica,sans-Serif" font-size="10.00">tropmapf</text>
</a>
</g>
</g>
<!-- Node2 -->
<g id="node2" class="node">
<title>Node2</title>
<g id="a_node2"><a xlink:href="corrections_8cpp.html#a2ea2641272a527a2a8f0ba726b99ccb1" target="_top" xlink:title=" ">
<polygon fill="white" stroke="black" points="91,-57.5 91,-76.5 124,-76.5 124,-57.5 91,-57.5"/>
<text text-anchor="middle" x="107.5" y="-64.5" font-family="Helvetica,sans-Serif" font-size="10.00">nmf</text>
</a>
</g>
</g>
<!-- Node1&#45;&gt;Node2 -->
<g id="edge1" class="edge">
<title>Node1&#45;&gt;Node2</title>
<path fill="none" stroke="midnightblue" d="M55.34,-67C63.55,-67 72.57,-67 80.71,-67"/>
<polygon fill="midnightblue" stroke="midnightblue" points="80.77,-70.5 90.77,-67 80.77,-63.5 80.77,-70.5"/>
</g>
<!-- Node3 -->
<g id="node3" class="node">
<title>Node3</title>
<g id="a_node3"><a xlink:href="trop_8cpp.html#aee11659ecea14ca59feae2dbe9f160d5" target="_top" xlink:title="coefficients multiplication">
<polygon fill="white" stroke="black" points="252,-95.5 252,-114.5 287,-114.5 287,-95.5 252,-95.5"/>
<text text-anchor="middle" x="269.5" y="-102.5" font-family="Helvetica,sans-Serif" font-size="10.00">coef</text>
</a>
</g>
</g>
<!-- Node2&#45;&gt;Node3 -->
<g id="edge2" class="edge">
<title>Node2&#45;&gt;Node3</title>
<path fill="none" stroke="midnightblue" d="M117.67,-76.68C127.22,-85.99 143.11,-99.44 160,-105 186.76,-113.8 219.27,-112.32 241.69,-109.57"/>
<polygon fill="midnightblue" stroke="midnightblue" points="242.4,-113 251.82,-108.15 241.43,-106.07 242.4,-113"/>
</g>
<!-- Node4 -->
<g id="node4" class="node">
<title>Node4</title>
<g id="a_node4"><a xlink:href="corrections_8cpp.html#abae235364162e6df2195cc74a3d4277a" target="_top" xlink:title=" ">
<polygon fill="white" stroke="black" points="165,-76.5 165,-95.5 211,-95.5 211,-76.5 165,-76.5"/>
<text text-anchor="middle" x="188" y="-83.5" font-family="Helvetica,sans-Serif" font-size="10.00">interpc</text>
</a>
</g>
</g>
<!-- Node2&#45;&gt;Node4 -->
<g id="edge3" class="edge">
<title>Node2&#45;&gt;Node4</title>
<path fill="none" stroke="midnightblue" d="M124.01,-70.75C132.88,-72.9 144.34,-75.68 155.06,-78.27"/>
<polygon fill="midnightblue" stroke="midnightblue" points="154.44,-81.72 164.98,-80.67 156.09,-74.92 154.44,-81.72"/>
</g>
<!-- Node5 -->
<g id="node5" class="node">
<title>Node5</title>
<g id="a_node5"><a xlink:href="corrections_8cpp.html#aeca34291cf162e0e9cc3f0251b514169" target="_top" xlink:title=" ">
<polygon fill="white" stroke="black" points="169,-38.5 169,-57.5 207,-57.5 207,-38.5 169,-38.5"/>
<text text-anchor="middle" x="188" y="-45.5" font-family="Helvetica,sans-Serif" font-size="10.00">mapf</text>
</a>
</g>
</g>
<!-- Node2&#45;&gt;Node5 -->
<g id="edge5" class="edge">
<title>Node2&#45;&gt;Node5</title>
<path fill="none" stroke="midnightblue" d="M124.01,-63.25C133.96,-60.84 147.18,-57.64 158.93,-54.79"/>
<polygon fill="midnightblue" stroke="midnightblue" points="159.87,-58.17 168.77,-52.41 158.23,-51.36 159.87,-58.17"/>
</g>
<!-- Node6 -->
<g id="node6" class="node">
<title>Node6</title>
<g id="a_node6"><a xlink:href="gTime_8cpp.html#aba1d9f999a27c10207609ef4ef76bd03" target="_top" xlink:title=" ">
<polygon fill="white" stroke="red" points="160,-0.5 160,-19.5 216,-19.5 216,-0.5 160,-0.5"/>
<text text-anchor="middle" x="188" y="-7.5" font-family="Helvetica,sans-Serif" font-size="10.00">time2doy</text>
</a>
</g>
</g>
<!-- Node2&#45;&gt;Node6 -->
<g id="edge6" class="edge">
<title>Node2&#45;&gt;Node6</title>
<path fill="none" stroke="midnightblue" d="M121.56,-57.23C131.94,-49.51 146.84,-38.48 160,-29 161.6,-27.84 163.27,-26.65 164.94,-25.46"/>
<polygon fill="midnightblue" stroke="midnightblue" points="167.08,-28.24 173.22,-19.61 163.04,-22.52 167.08,-28.24"/>
</g>
<!-- Node4&#45;&gt;Node3 -->
<g id="edge4" class="edge">
<title>Node4&#45;&gt;Node3</title>
<path fill="none" stroke="midnightblue" d="M211.15,-91.29C220.69,-93.57 231.94,-96.26 241.93,-98.65"/>
<polygon fill="midnightblue" stroke="midnightblue" points="241.23,-102.08 251.77,-101 242.86,-95.27 241.23,-102.08"/>
</g>
</g>
</svg>
