<?xml version="1.0" encoding="UTF-8" standalone="no"?>
<!DOCTYPE svg PUBLIC "-//W3C//DTD SVG 1.1//EN"
 "http://www.w3.org/Graphics/SVG/1.1/DTD/svg11.dtd">
<!-- Generated by graphviz version 2.50.0 (20220203.2022)
 -->
<!-- Title: ionmodel Pages: 1 -->
<svg width="283pt" height="122pt"
 viewBox="0.00 0.00 283.00 122.00" xmlns="http://www.w3.org/2000/svg" xmlns:xlink="http://www.w3.org/1999/xlink">
<g id="graph0" class="graph" transform="scale(1 1) rotate(0) translate(4 118)">
<title>ionmodel</title>
<polygon fill="white" stroke="transparent" points="-4,4 -4,-118 279,-118 279,4 -4,4"/>
<!-- Node1 -->
<g id="node1" class="node">
<title>Node1</title>
<g id="a_node1"><a xlink:title=" ">
<polygon fill="#bfbfbf" stroke="black" points="0,-38.5 0,-57.5 56,-57.5 56,-38.5 0,-38.5"/>
<text text-anchor="middle" x="28" y="-45.5" font-family="Helvetica,sans-Serif" font-size="10.00">ionmodel</text>
</a>
</g>
</g>
<!-- Node2 -->
<g id="node2" class="node">
<title>Node2</title>
<g id="a_node2"><a xlink:href="algebra__old_8cpp.html#abaa5d4a31df361116a9b2be552624cf9" target="_top" xlink:title=" ">
<polygon fill="white" stroke="black" points="113,-94.5 113,-113.5 151,-113.5 151,-94.5 113,-94.5"/>
<text text-anchor="middle" x="132" y="-101.5" font-family="Helvetica,sans-Serif" font-size="10.00">norm</text>
</a>
</g>
</g>
<!-- Node1&#45;&gt;Node2 -->
<g id="edge1" class="edge">
<title>Node1&#45;&gt;Node2</title>
<path fill="none" stroke="midnightblue" d="M44.6,-57.62C57.23,-65.3 75.57,-76.19 92,-85 95.81,-87.04 99.87,-89.12 103.88,-91.12"/>
<polygon fill="midnightblue" stroke="midnightblue" points="102.47,-94.33 112.99,-95.59 105.55,-88.04 102.47,-94.33"/>
</g>
<!-- Node4 -->
<g id="node4" class="node">
<title>Node4</title>
<g id="a_node4"><a xlink:href="namespacepod__yaml.html#a59ea539cabb34ef7985e7e57c4b9dd93" target="_top" xlink:title=" ">
<polygon fill="white" stroke="black" points="92,-38.5 92,-57.5 172,-57.5 172,-38.5 92,-38.5"/>
<text text-anchor="middle" x="132" y="-45.5" font-family="Helvetica,sans-Serif" font-size="10.00">pod_yaml::pow</text>
</a>
</g>
</g>
<!-- Node1&#45;&gt;Node4 -->
<g id="edge3" class="edge">
<title>Node1&#45;&gt;Node4</title>
<path fill="none" stroke="midnightblue" d="M56.07,-48C63.96,-48 72.84,-48 81.65,-48"/>
<polygon fill="midnightblue" stroke="midnightblue" points="81.9,-51.5 91.9,-48 81.9,-44.5 81.9,-51.5"/>
</g>
<!-- Node5 -->
<g id="node5" class="node">
<title>Node5</title>
<g id="a_node5"><a xlink:href="gTime_8cpp.html#abf196aa655d8ca10168c2301a68a8101" target="_top" xlink:title=" ">
<polygon fill="white" stroke="black" points="102.5,-0.5 102.5,-19.5 161.5,-19.5 161.5,-0.5 102.5,-0.5"/>
<text text-anchor="middle" x="132" y="-7.5" font-family="Helvetica,sans-Serif" font-size="10.00">time2gpst</text>
</a>
</g>
</g>
<!-- Node1&#45;&gt;Node5 -->
<g id="edge5" class="edge">
<title>Node1&#45;&gt;Node5</title>
<path fill="none" stroke="midnightblue" d="M54.74,-38.41C67.18,-33.78 82.31,-28.14 95.8,-23.11"/>
<polygon fill="midnightblue" stroke="midnightblue" points="97.12,-26.36 105.27,-19.59 94.68,-19.8 97.12,-26.36"/>
</g>
<!-- Node3 -->
<g id="node3" class="node">
<title>Node3</title>
<g id="a_node3"><a xlink:href="algebra__old_8cpp.html#addee52380c690a50fa0048924c67bc92" target="_top" xlink:title=" ">
<polygon fill="white" stroke="black" points="226.5,-94.5 226.5,-113.5 256.5,-113.5 256.5,-94.5 226.5,-94.5"/>
<text text-anchor="middle" x="241.5" y="-101.5" font-family="Helvetica,sans-Serif" font-size="10.00">dot</text>
</a>
</g>
</g>
<!-- Node2&#45;&gt;Node3 -->
<g id="edge2" class="edge">
<title>Node2&#45;&gt;Node3</title>
<path fill="none" stroke="midnightblue" d="M151.24,-104C169.13,-104 196.52,-104 216.24,-104"/>
<polygon fill="midnightblue" stroke="midnightblue" points="216.3,-107.5 226.3,-104 216.3,-100.5 216.3,-107.5"/>
</g>
<!-- Node4&#45;&gt;Node4 -->
<g id="edge4" class="edge">
<title>Node4&#45;&gt;Node4</title>
<path fill="none" stroke="midnightblue" d="M115.97,-57.76C108.17,-66.57 113.52,-76 132,-76 143.55,-76 149.97,-72.31 151.26,-67.4"/>
<polygon fill="midnightblue" stroke="midnightblue" points="154.52,-66.13 148.03,-57.76 147.89,-68.35 154.52,-66.13"/>
</g>
<!-- Node6 -->
<g id="node6" class="node">
<title>Node6</title>
<g id="a_node6"><a xlink:href="gTime_8cpp.html#aa46173b9085096882d09e53d96e9dc41" target="_top" xlink:title=" ">
<polygon fill="white" stroke="black" points="208,-0.5 208,-19.5 275,-19.5 275,-0.5 208,-0.5"/>
<text text-anchor="middle" x="241.5" y="-7.5" font-family="Helvetica,sans-Serif" font-size="10.00">epoch2time</text>
</a>
</g>
</g>
<!-- Node5&#45;&gt;Node6 -->
<g id="edge6" class="edge">
<title>Node5&#45;&gt;Node6</title>
<path fill="none" stroke="midnightblue" d="M161.53,-10C172.49,-10 185.28,-10 197.32,-10"/>
<polygon fill="midnightblue" stroke="midnightblue" points="197.65,-13.5 207.65,-10 197.65,-6.5 197.65,-13.5"/>
</g>
</g>
</svg>
