<?xml version="1.0" encoding="UTF-8" standalone="no"?>
<!DOCTYPE svg PUBLIC "-//W3C//DTD SVG 1.1//EN"
 "http://www.w3.org/Graphics/SVG/1.1/DTD/svg11.dtd">
<!-- Generated by graphviz version 2.50.0 (20220203.2022)
 -->
<!-- Title: relativity1 Pages: 1 -->
<svg width="351pt" height="142pt"
 viewBox="0.00 0.00 351.00 142.00" xmlns="http://www.w3.org/2000/svg" xmlns:xlink="http://www.w3.org/1999/xlink">
<g id="graph0" class="graph" transform="scale(1 1) rotate(0) translate(4 138)">
<title>relativity1</title>
<polygon fill="white" stroke="transparent" points="-4,4 -4,-138 347,-138 347,4 -4,4"/>
<!-- Node1 -->
<g id="node1" class="node">
<title>Node1</title>
<g id="a_node1"><a xlink:title=" ">
<polygon fill="#bfbfbf" stroke="black" points="285,-57.5 285,-76.5 343,-76.5 343,-57.5 285,-57.5"/>
<text text-anchor="middle" x="314" y="-64.5" font-family="Helvetica,sans-Serif" font-size="10.00">relativity1</text>
</a>
</g>
</g>
<!-- Node2 -->
<g id="node2" class="node">
<title>Node2</title>
<g id="a_node2"><a xlink:href="preceph_8cpp.html#a456852b89b6a5953b7a551854482c2dd" target="_top" xlink:title=" ">
<polygon fill="white" stroke="black" points="186.5,-114.5 186.5,-133.5 245.5,-133.5 245.5,-114.5 186.5,-114.5"/>
<text text-anchor="middle" x="216" y="-121.5" font-family="Helvetica,sans-Serif" font-size="10.00">peph2pos</text>
</a>
</g>
</g>
<!-- Node1&#45;&gt;Node2 -->
<g id="edge1" class="edge">
<title>Node1&#45;&gt;Node2</title>
<path fill="none" stroke="midnightblue" d="M287.7,-82.02C270.39,-92.3 247.95,-105.62 233.04,-114.47"/>
<polygon fill="midnightblue" stroke="midnightblue" points="289.9,-84.78 296.71,-76.67 286.33,-78.77 289.9,-84.78"/>
</g>
<!-- Node23 -->
<g id="node5" class="node">
<title>Node23</title>
<g id="a_node5"><a xlink:href="ppp__network_8cpp.html#a8841c4de50d731334b0aa349d64a2985" target="_top" xlink:title=" ">
<polygon fill="white" stroke="black" points="191.5,-76.5 191.5,-95.5 240.5,-95.5 240.5,-76.5 191.5,-76.5"/>
<text text-anchor="middle" x="216" y="-83.5" font-family="Helvetica,sans-Serif" font-size="10.00">resomc</text>
</a>
</g>
</g>
<!-- Node1&#45;&gt;Node23 -->
<g id="edge4" class="edge">
<title>Node1&#45;&gt;Node23</title>
<path fill="none" stroke="midnightblue" d="M275.06,-74.51C263.46,-76.8 251.04,-79.26 240.68,-81.31"/>
<polygon fill="midnightblue" stroke="midnightblue" points="275.84,-77.92 284.97,-72.55 274.49,-71.05 275.84,-77.92"/>
</g>
<!-- Node24 -->
<g id="node7" class="node">
<title>Node24</title>
<g id="a_node7"><a xlink:href="ephemeris_8cpp.html#ac837b0f37e00dcd5e15c87d5bffe4ab8" target="_top" xlink:title=" ">
<polygon fill="white" stroke="black" points="183.5,-38.5 183.5,-57.5 248.5,-57.5 248.5,-38.5 183.5,-38.5"/>
<text text-anchor="middle" x="216" y="-45.5" font-family="Helvetica,sans-Serif" font-size="10.00">satpos_ssr</text>
</a>
</g>
</g>
<!-- Node1&#45;&gt;Node24 -->
<g id="edge6" class="edge">
<title>Node1&#45;&gt;Node24</title>
<path fill="none" stroke="midnightblue" d="M275,-59.48C266.25,-57.75 257.04,-55.92 248.6,-54.25"/>
<polygon fill="midnightblue" stroke="midnightblue" points="274.49,-62.95 284.97,-61.45 275.84,-56.08 274.49,-62.95"/>
</g>
<!-- Node19 -->
<g id="node9" class="node">
<title>Node19</title>
<g id="a_node9"><a xlink:href="ppppp__obs_8cpp.html#a3db2ffced7ab37c4874c3a53fcb7953e" target="_top" xlink:title=" ">
<polygon fill="white" stroke="red" points="183,-0.5 183,-19.5 249,-19.5 249,-0.5 183,-0.5"/>
<text text-anchor="middle" x="216" y="-7.5" font-family="Helvetica,sans-Serif" font-size="10.00">stationPPP</text>
</a>
</g>
</g>
<!-- Node1&#45;&gt;Node19 -->
<g id="edge9" class="edge">
<title>Node1&#45;&gt;Node19</title>
<path fill="none" stroke="midnightblue" d="M287.7,-51.98C270.39,-41.7 247.95,-28.38 233.04,-19.53"/>
<polygon fill="midnightblue" stroke="midnightblue" points="286.33,-55.23 296.71,-57.33 289.9,-49.22 286.33,-55.23"/>
</g>
<!-- Node3 -->
<g id="node3" class="node">
<title>Node3</title>
<g id="a_node3"><a xlink:href="preceph_8cpp.html#a5de24b59b2c115a07bdf76fca0efdda8" target="_top" xlink:title=" ">
<polygon fill="white" stroke="black" points="85,-114.5 85,-133.5 144,-133.5 144,-114.5 85,-114.5"/>
<text text-anchor="middle" x="114.5" y="-121.5" font-family="Helvetica,sans-Serif" font-size="10.00">peph2pos</text>
</a>
</g>
</g>
<!-- Node2&#45;&gt;Node3 -->
<g id="edge2" class="edge">
<title>Node2&#45;&gt;Node3</title>
<path fill="none" stroke="midnightblue" d="M176.44,-124C165.65,-124 154.11,-124 144.02,-124"/>
<polygon fill="midnightblue" stroke="midnightblue" points="176.49,-127.5 186.49,-124 176.49,-120.5 176.49,-127.5"/>
</g>
<!-- Node4 -->
<g id="node4" class="node">
<title>Node4</title>
<g id="a_node4"><a xlink:href="ephemeris_8cpp.html#a8d3c308314354139cf1e890cdf6bead2" target="_top" xlink:title=" ">
<polygon fill="white" stroke="red" points="0,-76.5 0,-95.5 46,-95.5 46,-76.5 0,-76.5"/>
<text text-anchor="middle" x="23" y="-83.5" font-family="Helvetica,sans-Serif" font-size="10.00">satpos</text>
</a>
</g>
</g>
<!-- Node3&#45;&gt;Node4 -->
<g id="edge3" class="edge">
<title>Node3&#45;&gt;Node4</title>
<path fill="none" stroke="midnightblue" d="M81.49,-110.41C69.83,-105.46 56.9,-99.97 46.27,-95.45"/>
<polygon fill="midnightblue" stroke="midnightblue" points="80.34,-113.72 90.92,-114.41 83.08,-107.28 80.34,-113.72"/>
</g>
<!-- Node16 -->
<g id="node6" class="node">
<title>Node16</title>
<g id="a_node6"><a xlink:href="ppp__network_8cpp.html#a58f075aaa941ce20e727a84401270780" target="_top" xlink:title=" ">
<polygon fill="white" stroke="red" points="89,-76.5 89,-95.5 140,-95.5 140,-76.5 89,-76.5"/>
<text text-anchor="middle" x="114.5" y="-83.5" font-family="Helvetica,sans-Serif" font-size="10.00">pppomc</text>
</a>
</g>
</g>
<!-- Node23&#45;&gt;Node16 -->
<g id="edge5" class="edge">
<title>Node23&#45;&gt;Node16</title>
<path fill="none" stroke="midnightblue" d="M181.13,-86C167.75,-86 152.64,-86 140.3,-86"/>
<polygon fill="midnightblue" stroke="midnightblue" points="181.42,-89.5 191.42,-86 181.42,-82.5 181.42,-89.5"/>
</g>
<!-- Node24&#45;&gt;Node4 -->
<g id="edge7" class="edge">
<title>Node24&#45;&gt;Node4</title>
<path fill="none" stroke="midnightblue" d="M173.24,-52.07C146.86,-55.11 112.18,-59.96 82,-67 69.93,-69.82 56.77,-74.03 46.05,-77.77"/>
<polygon fill="midnightblue" stroke="midnightblue" points="173.72,-55.54 183.27,-50.96 172.95,-48.58 173.72,-55.54"/>
</g>
<!-- Node25 -->
<g id="node8" class="node">
<title>Node25</title>
<g id="a_node8"><a xlink:href="ephemeris_8cpp.html#a6d921349bf33e4b6707c05275b83d1e2" target="_top" xlink:title=" ">
<polygon fill="white" stroke="black" points="82,-0.5 82,-19.5 147,-19.5 147,-0.5 82,-0.5"/>
<text text-anchor="middle" x="114.5" y="-7.5" font-family="Helvetica,sans-Serif" font-size="10.00">satpos_ssr</text>
</a>
</g>
</g>
<!-- Node24&#45;&gt;Node25 -->
<g id="edge8" class="edge">
<title>Node24&#45;&gt;Node25</title>
<path fill="none" stroke="midnightblue" d="M180.27,-34.74C167.21,-29.75 152.62,-24.18 140.6,-19.59"/>
<polygon fill="midnightblue" stroke="midnightblue" points="179.3,-38.11 189.89,-38.41 181.8,-31.57 179.3,-38.11"/>
</g>
</g>
</svg>
