<?xml version="1.0" encoding="UTF-8" standalone="no"?>
<!DOCTYPE svg PUBLIC "-//W3C//DTD SVG 1.1//EN"
 "http://www.w3.org/Graphics/SVG/1.1/DTD/svg11.dtd">
<!-- Generated by graphviz version 2.50.0 (20220203.2022)
 -->
<!-- Title: iau_cr Pages: 1 -->
<svg width="322pt" height="180pt"
 viewBox="0.00 0.00 322.00 180.00" xmlns="http://www.w3.org/2000/svg" xmlns:xlink="http://www.w3.org/1999/xlink">
<g id="graph0" class="graph" transform="scale(1 1) rotate(0) translate(4 176)">
<title>iau_cr</title>
<polygon fill="white" stroke="transparent" points="-4,4 -4,-176 318,-176 318,4 -4,4"/>
<!-- Node1 -->
<g id="node1" class="node">
<title>Node1</title>
<g id="a_node1"><a xlink:title=" ">
<polygon fill="#bfbfbf" stroke="black" points="271,-95.5 271,-114.5 314,-114.5 314,-95.5 271,-95.5"/>
<text text-anchor="middle" x="292.5" y="-102.5" font-family="Helvetica,sans-Serif" font-size="10.00">iau_cr</text>
</a>
</g>
</g>
<!-- Node2 -->
<g id="node2" class="node">
<title>Node2</title>
<g id="a_node2"><a xlink:href="bp00_8for.html#a3fc3bdf84399c71da9637c97a5dbd8af" target="_top" xlink:title=" ">
<polygon fill="white" stroke="black" points="95,-114.5 95,-133.5 151,-133.5 151,-114.5 95,-114.5"/>
<text text-anchor="middle" x="123" y="-121.5" font-family="Helvetica,sans-Serif" font-size="10.00">iau_bp00</text>
</a>
</g>
</g>
<!-- Node1&#45;&gt;Node2 -->
<g id="edge1" class="edge">
<title>Node1&#45;&gt;Node2</title>
<path fill="none" stroke="midnightblue" d="M261.02,-108.46C229.63,-112.02 181.17,-117.51 151.09,-120.93"/>
<polygon fill="midnightblue" stroke="midnightblue" points="261.42,-111.93 270.96,-107.33 260.63,-104.98 261.42,-111.93"/>
</g>
<!-- Node42 -->
<g id="node4" class="node">
<title>Node42</title>
<g id="a_node4"><a xlink:href="c2tcio_8for.html#a5815d9f1720c251f0ca339f1edf7add2" target="_top" xlink:title=" ">
<polygon fill="white" stroke="black" points="92.5,-152.5 92.5,-171.5 153.5,-171.5 153.5,-152.5 92.5,-152.5"/>
<text text-anchor="middle" x="123" y="-159.5" font-family="Helvetica,sans-Serif" font-size="10.00">iau_c2tcio</text>
</a>
</g>
</g>
<!-- Node1&#45;&gt;Node42 -->
<g id="edge3" class="edge">
<title>Node1&#45;&gt;Node42</title>
<path fill="none" stroke="midnightblue" d="M261.27,-117.89C252.83,-121.33 243.61,-124.94 235,-128 207.85,-137.66 176.39,-147.14 153.92,-153.62"/>
<polygon fill="midnightblue" stroke="midnightblue" points="262.84,-121.03 270.74,-113.97 260.16,-114.56 262.84,-121.03"/>
</g>
<!-- Node43 -->
<g id="node5" class="node">
<title>Node43</title>
<g id="a_node5"><a xlink:href="rxr_8for.html#a8172488cdcd29f9780d47f2a0c045f40" target="_top" xlink:title=" ">
<polygon fill="white" stroke="black" points="190,-76.5 190,-95.5 235,-95.5 235,-76.5 190,-76.5"/>
<text text-anchor="middle" x="212.5" y="-83.5" font-family="Helvetica,sans-Serif" font-size="10.00">iau_rxr</text>
</a>
</g>
</g>
<!-- Node1&#45;&gt;Node43 -->
<g id="edge4" class="edge">
<title>Node1&#45;&gt;Node43</title>
<path fill="none" stroke="midnightblue" d="M260.83,-97.53C252.19,-95.42 242.98,-93.18 235,-91.24"/>
<polygon fill="midnightblue" stroke="midnightblue" points="260.05,-100.94 270.6,-99.91 261.71,-94.14 260.05,-100.94"/>
</g>
<!-- Node45 -->
<g id="node8" class="node">
<title>Node45</title>
<g id="a_node8"><a xlink:href="tr_8for.html#ad8b870c9acbe88adfefd7fce32c6cb97" target="_top" xlink:title=" ">
<polygon fill="white" stroke="black" points="192,-38.5 192,-57.5 233,-57.5 233,-38.5 192,-38.5"/>
<text text-anchor="middle" x="212.5" y="-45.5" font-family="Helvetica,sans-Serif" font-size="10.00">iau_tr</text>
</a>
</g>
</g>
<!-- Node1&#45;&gt;Node45 -->
<g id="edge10" class="edge">
<title>Node1&#45;&gt;Node45</title>
<path fill="none" stroke="midnightblue" d="M270.16,-89.41C256.2,-79.21 238.42,-66.21 226.54,-57.53"/>
<polygon fill="midnightblue" stroke="midnightblue" points="268.13,-92.26 278.27,-95.33 272.26,-86.6 268.13,-92.26"/>
</g>
<!-- Node3 -->
<g id="node3" class="node">
<title>Node3</title>
<g id="a_node3"><a xlink:href="pn00_8for.html#a31b905e027b17107c0e56061a6850c13" target="_top" xlink:title=" ">
<polygon fill="white" stroke="red" points="0,-95.5 0,-114.5 56,-114.5 56,-95.5 0,-95.5"/>
<text text-anchor="middle" x="28" y="-102.5" font-family="Helvetica,sans-Serif" font-size="10.00">iau_pn00</text>
</a>
</g>
</g>
<!-- Node2&#45;&gt;Node3 -->
<g id="edge2" class="edge">
<title>Node2&#45;&gt;Node3</title>
<path fill="none" stroke="midnightblue" d="M84.59,-116.36C75.1,-114.42 65.08,-112.37 56.2,-110.56"/>
<polygon fill="midnightblue" stroke="midnightblue" points="84.1,-119.83 94.6,-118.4 85.5,-112.97 84.1,-119.83"/>
</g>
<!-- Node43&#45;&gt;Node2 -->
<g id="edge7" class="edge">
<title>Node43&#45;&gt;Node2</title>
<path fill="none" stroke="midnightblue" d="M180.64,-99.4C169.21,-104.37 156.48,-109.9 145.99,-114.45"/>
<polygon fill="midnightblue" stroke="midnightblue" points="182.09,-102.59 189.87,-95.39 179.3,-96.17 182.09,-102.59"/>
</g>
<!-- Node43&#45;&gt;Node3 -->
<g id="edge9" class="edge">
<title>Node43&#45;&gt;Node3</title>
<path fill="none" stroke="midnightblue" d="M179.72,-89.31C144.79,-92.95 89.27,-98.72 56.26,-102.16"/>
<polygon fill="midnightblue" stroke="midnightblue" points="180.26,-92.77 189.85,-88.25 179.54,-85.81 180.26,-92.77"/>
</g>
<!-- Node43&#45;&gt;Node42 -->
<g id="edge8" class="edge">
<title>Node43&#45;&gt;Node42</title>
<path fill="none" stroke="midnightblue" d="M196.2,-103.01C185.09,-114.9 169.36,-130.76 154,-143 149.85,-146.3 145.11,-149.53 140.63,-152.36"/>
<polygon fill="midnightblue" stroke="midnightblue" points="198.9,-105.25 203.1,-95.52 193.75,-100.51 198.9,-105.25"/>
</g>
<!-- Node7 -->
<g id="node6" class="node">
<title>Node7</title>
<g id="a_node6"><a xlink:href="crs__trs_8f90.html#ad60041f94ed21d7dccece31ca956443c" target="_top" xlink:title=" ">
<polygon fill="white" stroke="red" points="99.5,-0.5 99.5,-19.5 146.5,-19.5 146.5,-0.5 99.5,-0.5"/>
<text text-anchor="middle" x="123" y="-7.5" font-family="Helvetica,sans-Serif" font-size="10.00">crs_trs</text>
</a>
</g>
</g>
<!-- Node43&#45;&gt;Node7 -->
<g id="edge5" class="edge">
<title>Node43&#45;&gt;Node7</title>
<path fill="none" stroke="midnightblue" d="M192.42,-69.31C191.6,-68.53 190.79,-67.76 190,-67 173.27,-50.84 171.96,-43.78 154,-29 149.91,-25.63 145.18,-22.38 140.7,-19.55"/>
<polygon fill="midnightblue" stroke="midnightblue" points="190.19,-72 199.95,-76.13 194.89,-66.82 190.19,-72"/>
</g>
<!-- Node44 -->
<g id="node7" class="node">
<title>Node44</title>
<g id="a_node7"><a xlink:href="era__matrix_8f90.html#a90c9a2cf4c3058069f634af9536ba0cf" target="_top" xlink:title=" ">
<polygon fill="white" stroke="black" points="92,-38.5 92,-57.5 154,-57.5 154,-38.5 92,-38.5"/>
<text text-anchor="middle" x="123" y="-45.5" font-family="Helvetica,sans-Serif" font-size="10.00">era_matrix</text>
</a>
</g>
</g>
<!-- Node43&#45;&gt;Node44 -->
<g id="edge6" class="edge">
<title>Node43&#45;&gt;Node44</title>
<path fill="none" stroke="midnightblue" d="M180.64,-72.6C169.21,-67.63 156.48,-62.1 145.99,-57.55"/>
<polygon fill="midnightblue" stroke="midnightblue" points="179.3,-75.83 189.87,-76.61 182.09,-69.41 179.3,-75.83"/>
</g>
<!-- Node45&#45;&gt;Node7 -->
<g id="edge11" class="edge">
<title>Node45&#45;&gt;Node7</title>
<path fill="none" stroke="midnightblue" d="M182.16,-35.26C170.32,-30.12 156.89,-24.29 145.93,-19.52"/>
<polygon fill="midnightblue" stroke="midnightblue" points="181.08,-38.6 191.64,-39.38 183.87,-32.18 181.08,-38.6"/>
</g>
<!-- Node45&#45;&gt;Node44 -->
<g id="edge12" class="edge">
<title>Node45&#45;&gt;Node44</title>
<path fill="none" stroke="midnightblue" d="M181.4,-48C172.57,-48 162.91,-48 154.09,-48"/>
<polygon fill="midnightblue" stroke="midnightblue" points="181.64,-51.5 191.64,-48 181.64,-44.5 181.64,-51.5"/>
</g>
</g>
</svg>
