<?xml version="1.0" encoding="UTF-8" standalone="no"?>
<!DOCTYPE svg PUBLIC "-//W3C//DTD SVG 1.1//EN"
 "http://www.w3.org/Graphics/SVG/1.1/DTD/svg11.dtd">
<!-- Generated by graphviz version 2.50.0 (20220203.2022)
 -->
<!-- Title: testOutlierDetection Pages: 1 -->
<svg width="616pt" height="598pt"
 viewBox="0.00 0.00 616.00 598.00" xmlns="http://www.w3.org/2000/svg" xmlns:xlink="http://www.w3.org/1999/xlink">
<g id="graph0" class="graph" transform="scale(1 1) rotate(0) translate(4 594)">
<title>testOutlierDetection</title>
<polygon fill="white" stroke="transparent" points="-4,4 -4,-594 612,-594 612,4 -4,4"/>
<!-- Node1 -->
<g id="node1" class="node">
<title>Node1</title>
<g id="a_node1"><a xlink:title=" ">
<polygon fill="#bfbfbf" stroke="black" points="0,-247.5 0,-266.5 103,-266.5 103,-247.5 0,-247.5"/>
<text text-anchor="middle" x="51.5" y="-254.5" font-family="Helvetica,sans-Serif" font-size="10.00">testOutlierDetection</text>
</a>
</g>
</g>
<!-- Node2 -->
<g id="node2" class="node">
<title>Node2</title>
<g id="a_node2"><a xlink:href="structKFMeasEntry.html#a5af30258b0bcd703468c0d0ec2ed6d54" target="_top" xlink:title="Adds a design matrix entry for this measurement.">
<polygon fill="white" stroke="black" points="142.5,-551.5 142.5,-570.5 282.5,-570.5 282.5,-551.5 142.5,-551.5"/>
<text text-anchor="middle" x="212.5" y="-558.5" font-family="Helvetica,sans-Serif" font-size="10.00">KFMeasEntry::addDsgnEntry</text>
</a>
</g>
</g>
<!-- Node1&#45;&gt;Node2 -->
<g id="edge1" class="edge">
<title>Node1&#45;&gt;Node2</title>
<path fill="none" stroke="midnightblue" d="M52.3,-266.53C51.98,-306.53 56.29,-462.4 139,-542 140.64,-543.58 142.39,-545.03 144.23,-546.36"/>
<polygon fill="midnightblue" stroke="midnightblue" points="142.44,-549.37 152.82,-551.49 146.03,-543.35 142.44,-549.37"/>
</g>
<!-- Node3 -->
<g id="node3" class="node">
<title>Node3</title>
<g id="a_node3"><a xlink:href="structKFState.html#abae5c2435fa3ca6bb4396cd8a5363f85" target="_top" xlink:title="Combine a list of KFMeasEntrys into a single KFMeas object for used in the filter.">
<polygon fill="white" stroke="black" points="139,-513.5 139,-532.5 286,-532.5 286,-513.5 139,-513.5"/>
<text text-anchor="middle" x="212.5" y="-520.5" font-family="Helvetica,sans-Serif" font-size="10.00">KFState::combineKFMeasList</text>
</a>
</g>
</g>
<!-- Node1&#45;&gt;Node3 -->
<g id="edge2" class="edge">
<title>Node1&#45;&gt;Node3</title>
<path fill="none" stroke="midnightblue" d="M52.8,-266.51C54.5,-303.13 65.7,-436.38 139,-504 140.71,-505.58 142.53,-507.03 144.45,-508.36"/>
<polygon fill="midnightblue" stroke="midnightblue" points="142.93,-511.52 153.35,-513.48 146.42,-505.46 142.93,-511.52"/>
</g>
<!-- Node5 -->
<g id="node5" class="node">
<title>Node5</title>
<g id="a_node5"><a xlink:href="structKFState.html#a21a4858020ad706771efeea814d6c43f" target="_top" xlink:title="Kalman filter operation.">
<polygon fill="white" stroke="black" points="158.5,-323.5 158.5,-342.5 266.5,-342.5 266.5,-323.5 158.5,-323.5"/>
<text text-anchor="middle" x="212.5" y="-330.5" font-family="Helvetica,sans-Serif" font-size="10.00">KFState::filterKalman</text>
</a>
</g>
</g>
<!-- Node1&#45;&gt;Node5 -->
<g id="edge4" class="edge">
<title>Node1&#45;&gt;Node5</title>
<path fill="none" stroke="midnightblue" d="M66.36,-266.65C83.01,-277.94 112.09,-296.64 139,-309 148.03,-313.15 157.99,-316.92 167.56,-320.19"/>
<polygon fill="midnightblue" stroke="midnightblue" points="166.74,-323.61 177.33,-323.41 168.93,-316.96 166.74,-323.61"/>
</g>
<!-- Node29 -->
<g id="node20" class="node">
<title>Node29</title>
<g id="a_node20"><a xlink:href="debug_8cpp.html#a69300b601279a07a0358d691e8cae24e" target="_top" xlink:title=" ">
<polygon fill="white" stroke="black" points="369,-76.5 369,-95.5 437,-95.5 437,-76.5 369,-76.5"/>
<text text-anchor="middle" x="403" y="-83.5" font-family="Helvetica,sans-Serif" font-size="10.00">outputMeas</text>
</a>
</g>
</g>
<!-- Node1&#45;&gt;Node29 -->
<g id="edge20" class="edge">
<title>Node1&#45;&gt;Node29</title>
<path fill="none" stroke="midnightblue" d="M73.39,-266.6C117.96,-285.5 223.41,-321.47 286,-271 344.77,-223.61 269.14,-158.9 322,-105 331.64,-95.17 345.36,-90.05 358.73,-87.49"/>
<polygon fill="midnightblue" stroke="midnightblue" points="359.43,-90.92 368.81,-85.99 358.41,-84 359.43,-90.92"/>
</g>
<!-- Node30 -->
<g id="node21" class="node">
<title>Node30</title>
<g id="a_node21"><a xlink:href="structKFState.html#a6b83754311ce0a082153ebe40ee63e15" target="_top" xlink:title="Output keys and states in human readable format.">
<polygon fill="white" stroke="black" points="346.5,-38.5 346.5,-57.5 459.5,-57.5 459.5,-38.5 346.5,-38.5"/>
<text text-anchor="middle" x="403" y="-45.5" font-family="Helvetica,sans-Serif" font-size="10.00">KFState::outputStates</text>
</a>
</g>
</g>
<!-- Node1&#45;&gt;Node30 -->
<g id="edge23" class="edge">
<title>Node1&#45;&gt;Node30</title>
<path fill="none" stroke="midnightblue" d="M103.21,-259.68C163.65,-261.75 259.79,-261.09 286,-238 344.27,-186.66 267.79,-122.62 322,-67 326.28,-62.61 331.37,-59.16 336.88,-56.46"/>
<polygon fill="midnightblue" stroke="midnightblue" points="338.53,-59.57 346.49,-52.58 335.9,-53.08 338.53,-59.57"/>
</g>
<!-- Node31 -->
<g id="node22" class="node">
<title>Node31</title>
<g id="a_node22"><a xlink:href="debug_8cpp.html#aaeebc4c36345abc34efe489caa6b4aa5" target="_top" xlink:title=" ">
<polygon fill="white" stroke="black" points="192,-209.5 192,-228.5 233,-228.5 233,-209.5 192,-209.5"/>
<text text-anchor="middle" x="212.5" y="-216.5" font-family="Helvetica,sans-Serif" font-size="10.00">rando</text>
</a>
</g>
</g>
<!-- Node1&#45;&gt;Node31 -->
<g id="edge26" class="edge">
<title>Node1&#45;&gt;Node31</title>
<path fill="none" stroke="midnightblue" d="M92.62,-247.41C120.31,-240.79 156.53,-232.14 181.68,-226.13"/>
<polygon fill="midnightblue" stroke="midnightblue" points="182.81,-229.46 191.72,-223.73 181.18,-222.65 182.81,-229.46"/>
</g>
<!-- Node32 -->
<g id="node23" class="node">
<title>Node32</title>
<g id="a_node23"><a xlink:href="structKFState.html#a3808815eb5103a8d8f5514af130a0700" target="_top" xlink:title="Adds dynamics to a filter state by inserting off&#45;diagonal, time dependent elements to transition matr...">
<polygon fill="white" stroke="black" points="148.5,-171.5 148.5,-190.5 276.5,-190.5 276.5,-171.5 148.5,-171.5"/>
<text text-anchor="middle" x="212.5" y="-178.5" font-family="Helvetica,sans-Serif" font-size="10.00">KFState::setKFTransRate</text>
</a>
</g>
</g>
<!-- Node1&#45;&gt;Node32 -->
<g id="edge27" class="edge">
<title>Node1&#45;&gt;Node32</title>
<path fill="none" stroke="midnightblue" d="M64.37,-247.34C80.39,-234.75 110.26,-212.82 139,-200 144.41,-197.59 150.18,-195.44 156.02,-193.52"/>
<polygon fill="midnightblue" stroke="midnightblue" points="157.31,-196.79 165.86,-190.53 155.27,-190.09 157.31,-196.79"/>
</g>
<!-- Node34 -->
<g id="node25" class="node">
<title>Node34</title>
<g id="a_node25"><a xlink:href="structKFState.html#afa27fbd7603d376e9e67cb9c09ba7454" target="_top" xlink:title="Sets the value of a state within the kalman filter object.">
<polygon fill="white" stroke="black" points="158.5,-133.5 158.5,-152.5 266.5,-152.5 266.5,-133.5 158.5,-133.5"/>
<text text-anchor="middle" x="212.5" y="-140.5" font-family="Helvetica,sans-Serif" font-size="10.00">KFState::setKFValue</text>
</a>
</g>
</g>
<!-- Node1&#45;&gt;Node34 -->
<g id="edge29" class="edge">
<title>Node1&#45;&gt;Node34</title>
<path fill="none" stroke="midnightblue" d="M58.55,-247.22C71.08,-227.85 101.79,-184.52 139,-162 142.63,-159.8 146.52,-157.86 150.53,-156.13"/>
<polygon fill="midnightblue" stroke="midnightblue" points="151.96,-159.33 160.07,-152.5 149.47,-152.79 151.96,-159.33"/>
</g>
<!-- Node35 -->
<g id="node26" class="node">
<title>Node35</title>
<g id="a_node26"><a xlink:href="structKFMeasEntry.html#a1054abe38550bcd614c1a3c1afe752ee" target="_top" xlink:title="Adds the measurement noise entry for this measurement.">
<polygon fill="white" stroke="black" points="153,-95.5 153,-114.5 272,-114.5 272,-95.5 153,-95.5"/>
<text text-anchor="middle" x="212.5" y="-102.5" font-family="Helvetica,sans-Serif" font-size="10.00">KFMeasEntry::setNoise</text>
</a>
</g>
</g>
<!-- Node1&#45;&gt;Node35 -->
<g id="edge30" class="edge">
<title>Node1&#45;&gt;Node35</title>
<path fill="none" stroke="midnightblue" d="M55.98,-247.2C65.29,-222.45 93.22,-157.05 139,-124 141.69,-122.06 144.56,-120.31 147.56,-118.75"/>
<polygon fill="midnightblue" stroke="midnightblue" points="149.16,-121.87 156.84,-114.57 146.28,-115.48 149.16,-121.87"/>
</g>
<!-- Node36 -->
<g id="node27" class="node">
<title>Node36</title>
<g id="a_node27"><a xlink:href="structKFMeasEntry.html#a56ed46a7048dcd7e87e75eebc342dc7d" target="_top" xlink:title="Adds the actual measurement value for this measurement.">
<polygon fill="white" stroke="black" points="153.5,-57.5 153.5,-76.5 271.5,-76.5 271.5,-57.5 153.5,-57.5"/>
<text text-anchor="middle" x="212.5" y="-64.5" font-family="Helvetica,sans-Serif" font-size="10.00">KFMeasEntry::setValue</text>
</a>
</g>
</g>
<!-- Node1&#45;&gt;Node36 -->
<g id="edge31" class="edge">
<title>Node1&#45;&gt;Node36</title>
<path fill="none" stroke="midnightblue" d="M54.52,-247.09C61.04,-217.67 84.39,-130.11 139,-86 141.08,-84.32 143.3,-82.79 145.61,-81.39"/>
<polygon fill="midnightblue" stroke="midnightblue" points="147.62,-84.29 154.95,-76.63 144.45,-78.05 147.62,-84.29"/>
</g>
<!-- Node37 -->
<g id="node28" class="node">
<title>Node37</title>
<g id="a_node28"><a xlink:href="structKFState.html#a170d9c3a01bee9ec1f7264615b087c58" target="_top" xlink:title="Add process noise and dynamics to filter object according to time gap.">
<polygon fill="white" stroke="black" points="151.5,-475.5 151.5,-494.5 273.5,-494.5 273.5,-475.5 151.5,-475.5"/>
<text text-anchor="middle" x="212.5" y="-482.5" font-family="Helvetica,sans-Serif" font-size="10.00">KFState::stateTransition</text>
</a>
</g>
</g>
<!-- Node1&#45;&gt;Node37 -->
<g id="edge32" class="edge">
<title>Node1&#45;&gt;Node37</title>
<path fill="none" stroke="midnightblue" d="M59.13,-266.51C83.32,-301.2 167.11,-421.34 199.02,-467.11"/>
<polygon fill="midnightblue" stroke="midnightblue" points="196.25,-469.25 204.84,-475.45 201.99,-465.25 196.25,-469.25"/>
</g>
<!-- Node4 -->
<g id="node4" class="node">
<title>Node4</title>
<g id="a_node4"><a xlink:href="structKFState.html#a5aeeee0f20df8cc8c4747c1b5b18212f" target="_top" xlink:title="Finds the position in the KF state vector of particular states.">
<polygon fill="white" stroke="black" points="349.5,-570.5 349.5,-589.5 456.5,-589.5 456.5,-570.5 349.5,-570.5"/>
<text text-anchor="middle" x="403" y="-577.5" font-family="Helvetica,sans-Serif" font-size="10.00">KFState::getKFIndex</text>
</a>
</g>
</g>
<!-- Node3&#45;&gt;Node4 -->
<g id="edge3" class="edge">
<title>Node3&#45;&gt;Node4</title>
<path fill="none" stroke="midnightblue" d="M256.57,-532.55C266.38,-535.2 276.66,-538.37 286,-542 302.86,-548.56 305.06,-554.64 322,-561 328.8,-563.55 336.05,-565.84 343.32,-567.87"/>
<polygon fill="midnightblue" stroke="midnightblue" points="342.62,-571.31 353.18,-570.48 344.41,-564.54 342.62,-571.31"/>
</g>
<!-- Node6 -->
<g id="node6" class="node">
<title>Node6</title>
<g id="a_node6"><a xlink:href="structKFState.html#ae6e89a4dca53b4c6f8a5eadb1f61dd5c" target="_top" xlink:title=" ">
<polygon fill="white" stroke="black" points="322,-304.5 322,-323.5 484,-323.5 484,-304.5 322,-304.5"/>
<text text-anchor="middle" x="403" y="-311.5" font-family="Helvetica,sans-Serif" font-size="10.00">KFState::doMeasRejectCallbacks</text>
</a>
</g>
</g>
<!-- Node5&#45;&gt;Node6 -->
<g id="edge5" class="edge">
<title>Node5&#45;&gt;Node6</title>
<path fill="none" stroke="midnightblue" d="M266.51,-327.66C280.62,-326.23 296.27,-324.66 311.78,-323.09"/>
<polygon fill="midnightblue" stroke="midnightblue" points="312.33,-326.56 321.93,-322.07 311.63,-319.59 312.33,-326.56"/>
</g>
<!-- Node7 -->
<g id="node7" class="node">
<title>Node7</title>
<g id="a_node7"><a xlink:href="structKFState.html#adc93fe4d98f33b24037d09e712e8400a" target="_top" xlink:title=" ">
<polygon fill="white" stroke="black" points="322.5,-266.5 322.5,-285.5 483.5,-285.5 483.5,-266.5 322.5,-266.5"/>
<text text-anchor="middle" x="403" y="-273.5" font-family="Helvetica,sans-Serif" font-size="10.00">KFState::doStateRejectCallbacks</text>
</a>
</g>
</g>
<!-- Node5&#45;&gt;Node7 -->
<g id="edge6" class="edge">
<title>Node5&#45;&gt;Node7</title>
<path fill="none" stroke="midnightblue" d="M243.6,-323.42C256.68,-319.15 272.15,-313.98 286,-309 302.15,-303.19 305.61,-300.11 322,-295 330.03,-292.5 338.61,-290.14 347.05,-287.99"/>
<polygon fill="midnightblue" stroke="midnightblue" points="347.98,-291.37 356.85,-285.57 346.31,-284.57 347.98,-291.37"/>
</g>
<!-- Node8 -->
<g id="node8" class="node">
<title>Node8</title>
<g id="a_node8"><a xlink:href="structKFState.html#a34fe78e0ab7a8f1d122ceabddc29b207" target="_top" xlink:title="Clears and initialises the state transition matrix to identity at the beginning of an epoch.">
<polygon fill="white" stroke="black" points="343.5,-494.5 343.5,-513.5 462.5,-513.5 462.5,-494.5 343.5,-494.5"/>
<text text-anchor="middle" x="403" y="-501.5" font-family="Helvetica,sans-Serif" font-size="10.00">KFState::initFilterEpoch</text>
</a>
</g>
</g>
<!-- Node5&#45;&gt;Node8 -->
<g id="edge7" class="edge">
<title>Node5&#45;&gt;Node8</title>
<path fill="none" stroke="midnightblue" d="M217.44,-342.67C229.04,-369.8 265.77,-447.19 322,-485 325.6,-487.42 329.47,-489.53 333.5,-491.38"/>
<polygon fill="midnightblue" stroke="midnightblue" points="332.54,-494.76 343.13,-495.21 335.13,-488.26 332.54,-494.76"/>
</g>
<!-- Node9 -->
<g id="node9" class="node">
<title>Node9</title>
<g id="a_node9"><a xlink:href="structKFState.html#a2280e82ccd3ebdefc388756580e5fad7" target="_top" xlink:title="Compute Chi&#45;square increment based on pre&#45;fit residuals (innovations)">
<polygon fill="white" stroke="black" points="340.5,-228.5 340.5,-247.5 465.5,-247.5 465.5,-228.5 340.5,-228.5"/>
<text text-anchor="middle" x="403" y="-235.5" font-family="Helvetica,sans-Serif" font-size="10.00">KFState::innovChiSquare</text>
</a>
</g>
</g>
<!-- Node5&#45;&gt;Node9 -->
<g id="edge8" class="edge">
<title>Node5&#45;&gt;Node9</title>
<path fill="none" stroke="midnightblue" d="M257.52,-323.45C267.5,-319.96 277.61,-315.28 286,-309 308.5,-292.16 298.79,-272.85 322,-257 324.92,-255.01 328.02,-253.22 331.24,-251.62"/>
<polygon fill="midnightblue" stroke="midnightblue" points="332.79,-254.77 340.59,-247.59 330.02,-248.34 332.79,-254.77"/>
</g>
<!-- Node10 -->
<g id="node10" class="node">
<title>Node10</title>
<g id="a_node10"><a xlink:href="structKFState.html#a5b591c7386c7fb734067424a097ca118" target="_top" xlink:title="Kalman filter.">
<polygon fill="white" stroke="black" points="361,-190.5 361,-209.5 445,-209.5 445,-190.5 361,-190.5"/>
<text text-anchor="middle" x="403" y="-197.5" font-family="Helvetica,sans-Serif" font-size="10.00">KFState::kFilter</text>
</a>
</g>
</g>
<!-- Node5&#45;&gt;Node10 -->
<g id="edge9" class="edge">
<title>Node5&#45;&gt;Node10</title>
<path fill="none" stroke="midnightblue" d="M262,-323.47C270.76,-320.04 279.24,-315.36 286,-309 317.38,-279.48 289.38,-247.14 322,-219 330.11,-212 340.34,-207.48 350.74,-204.57"/>
<polygon fill="midnightblue" stroke="midnightblue" points="351.76,-207.93 360.71,-202.26 350.18,-201.11 351.76,-207.93"/>
</g>
<!-- Node12 -->
<g id="node12" class="node">
<title>Node12</title>
<g id="a_node12"><a xlink:href="structKFState.html#a67bbec17e7e74bf5de0d83098281bfc0" target="_top" xlink:title="Compute Chi&#45;square increment based on post&#45;fit residuals.">
<polygon fill="white" stroke="black" points="340,-152.5 340,-171.5 466,-171.5 466,-152.5 340,-152.5"/>
<text text-anchor="middle" x="403" y="-159.5" font-family="Helvetica,sans-Serif" font-size="10.00">KFState::measChiSquare</text>
</a>
</g>
</g>
<!-- Node5&#45;&gt;Node12 -->
<g id="edge11" class="edge">
<title>Node5&#45;&gt;Node12</title>
<path fill="none" stroke="midnightblue" d="M264.04,-323.42C272.21,-319.99 279.95,-315.33 286,-309 326.83,-266.27 279.37,-221.92 322,-181 324.74,-178.37 327.76,-176.09 331,-174.1"/>
<polygon fill="midnightblue" stroke="midnightblue" points="332.66,-177.18 339.97,-169.51 329.47,-170.95 332.66,-177.18"/>
</g>
<!-- Node13 -->
<g id="node13" class="node">
<title>Node13</title>
<g id="a_node13"><a xlink:href="mongoWrite_8cpp.html#a2b60515d35b3ad7ac783de1d8539495f" target="_top" xlink:title=" ">
<polygon fill="white" stroke="black" points="361.5,-418.5 361.5,-437.5 444.5,-437.5 444.5,-418.5 361.5,-418.5"/>
<text text-anchor="middle" x="403" y="-425.5" font-family="Helvetica,sans-Serif" font-size="10.00">mongoTestStat</text>
</a>
</g>
</g>
<!-- Node5&#45;&gt;Node13 -->
<g id="edge12" class="edge">
<title>Node5&#45;&gt;Node13</title>
<path fill="none" stroke="midnightblue" d="M224.35,-342.75C242.96,-358.95 282.77,-391.38 322,-409 331.18,-413.12 341.37,-416.42 351.32,-419.02"/>
<polygon fill="midnightblue" stroke="midnightblue" points="350.6,-422.45 361.14,-421.41 352.25,-415.65 350.6,-422.45"/>
</g>
<!-- Node14 -->
<g id="node14" class="node">
<title>Node14</title>
<g id="a_node14"><a xlink:href="structGTime.html#aaa8a379d11cd6c040a6bbe680c0e913e" target="_top" xlink:title="Uninitialised time for comparisons.">
<polygon fill="white" stroke="black" points="361.5,-456.5 361.5,-475.5 444.5,-475.5 444.5,-456.5 361.5,-456.5"/>
<text text-anchor="middle" x="403" y="-463.5" font-family="Helvetica,sans-Serif" font-size="10.00">GTime::noTime</text>
</a>
</g>
</g>
<!-- Node5&#45;&gt;Node14 -->
<g id="edge13" class="edge">
<title>Node5&#45;&gt;Node14</title>
<path fill="none" stroke="midnightblue" d="M219.78,-342.74C234.65,-364.96 274.39,-419.63 322,-447 330.91,-452.12 341.14,-455.87 351.24,-458.6"/>
<polygon fill="midnightblue" stroke="midnightblue" points="350.69,-462.07 361.24,-461.01 352.34,-455.27 350.69,-462.07"/>
</g>
<!-- Node15 -->
<g id="node15" class="node">
<title>Node15</title>
<g id="a_node15"><a xlink:href="structKFState.html#aab4e5ed0ddc781d8b4db8de02af119cc" target="_top" xlink:title="Compare variances of measurements and filtered states to detect unreasonable values.">
<polygon fill="white" stroke="red" points="329,-114.5 329,-133.5 477,-133.5 477,-114.5 329,-114.5"/>
<text text-anchor="middle" x="403" y="-121.5" font-family="Helvetica,sans-Serif" font-size="10.00">KFState::postFitSigmaChecks</text>
</a>
</g>
</g>
<!-- Node5&#45;&gt;Node15 -->
<g id="edge14" class="edge">
<title>Node5&#45;&gt;Node15</title>
<path fill="none" stroke="midnightblue" d="M265.1,-323.4C272.96,-319.96 280.33,-315.31 286,-309 336.48,-252.86 269.14,-196.9 322,-143 323.27,-141.7 324.61,-140.49 326.02,-139.35"/>
<polygon fill="midnightblue" stroke="midnightblue" points="328.24,-142.08 334.65,-133.64 324.38,-136.24 328.24,-142.08"/>
</g>
<!-- Node24 -->
<g id="node17" class="node">
<title>Node24</title>
<g id="a_node17"><a xlink:href="structKFState.html#a1d84b2acc0006963bdea090daa78685a" target="_top" xlink:title="Compare variances of measurements and pre&#45;filtered states to detect unreasonable values Ref: Wang et ...">
<polygon fill="white" stroke="black" points="334.5,-380.5 334.5,-399.5 471.5,-399.5 471.5,-380.5 334.5,-380.5"/>
<text text-anchor="middle" x="403" y="-387.5" font-family="Helvetica,sans-Serif" font-size="10.00">KFState::preFitSigmaCheck</text>
</a>
</g>
</g>
<!-- Node5&#45;&gt;Node24 -->
<g id="edge17" class="edge">
<title>Node5&#45;&gt;Node24</title>
<path fill="none" stroke="midnightblue" d="M238.69,-342.66C260.53,-350.83 293.08,-362.53 322,-371 330.46,-373.48 339.49,-375.87 348.33,-378.07"/>
<polygon fill="midnightblue" stroke="midnightblue" points="347.64,-381.5 358.19,-380.46 349.3,-374.7 347.64,-381.5"/>
</g>
<!-- Node25 -->
<g id="node18" class="node">
<title>Node25</title>
<g id="a_node18"><a xlink:href="algebraTrace_8hpp.html#a912bbc3ba390c6b3a01f7cae26a53588" target="_top" xlink:title="Output filter state to a file for later reading.">
<polygon fill="white" stroke="red" points="362.5,-532.5 362.5,-551.5 443.5,-551.5 443.5,-532.5 362.5,-532.5"/>
<text text-anchor="middle" x="403" y="-539.5" font-family="Helvetica,sans-Serif" font-size="10.00">spitFilterToFile</text>
</a>
</g>
</g>
<!-- Node5&#45;&gt;Node25 -->
<g id="edge18" class="edge">
<title>Node5&#45;&gt;Node25</title>
<path fill="none" stroke="midnightblue" d="M218.7,-342.59C239.18,-380.3 313.62,-516.73 322,-523 330.84,-529.61 341.64,-533.97 352.4,-536.82"/>
<polygon fill="midnightblue" stroke="midnightblue" points="351.7,-540.25 362.23,-539.04 353.24,-533.42 351.7,-540.25"/>
</g>
<!-- Node28 -->
<g id="node19" class="node">
<title>Node28</title>
<g id="a_node19"><a xlink:href="structKFState.html#aa963c92f094f4c0f9d43eea2661723dd" target="_top" xlink:title="Compute Chi&#45;square increment based on the change of fitting solution.">
<polygon fill="white" stroke="black" points="341,-342.5 341,-361.5 465,-361.5 465,-342.5 341,-342.5"/>
<text text-anchor="middle" x="403" y="-349.5" font-family="Helvetica,sans-Serif" font-size="10.00">KFState::stateChiSquare</text>
</a>
</g>
</g>
<!-- Node5&#45;&gt;Node28 -->
<g id="edge19" class="edge">
<title>Node5&#45;&gt;Node28</title>
<path fill="none" stroke="midnightblue" d="M266.51,-338.34C286.44,-340.35 309.43,-342.67 330.75,-344.82"/>
<polygon fill="midnightblue" stroke="midnightblue" points="330.44,-348.3 340.74,-345.83 331.14,-341.34 330.44,-348.3"/>
</g>
<!-- Node11 -->
<g id="node11" class="node">
<title>Node11</title>
<g id="a_node11"><a xlink:href="streamTrace_8cpp.html#ae00e6addd3bdf3a7fd41a254eb9aec89" target="_top" xlink:title=" ">
<polygon fill="white" stroke="black" points="532,-114.5 532,-133.5 596,-133.5 596,-114.5 532,-114.5"/>
<text text-anchor="middle" x="564" y="-121.5" font-family="Helvetica,sans-Serif" font-size="10.00">tracepdeex</text>
</a>
</g>
</g>
<!-- Node10&#45;&gt;Node11 -->
<g id="edge10" class="edge">
<title>Node10&#45;&gt;Node11</title>
<path fill="none" stroke="midnightblue" d="M445.31,-193.42C458.07,-190.54 471.93,-186.52 484,-181 506.84,-170.55 529.76,-153.04 544.99,-140.18"/>
<polygon fill="midnightblue" stroke="midnightblue" points="547.34,-142.78 552.61,-133.59 542.76,-137.49 547.34,-142.78"/>
</g>
<!-- Node15&#45;&gt;Node11 -->
<g id="edge16" class="edge">
<title>Node15&#45;&gt;Node11</title>
<path fill="none" stroke="midnightblue" d="M477.45,-124C492.6,-124 508.05,-124 521.57,-124"/>
<polygon fill="midnightblue" stroke="midnightblue" points="521.96,-127.5 531.96,-124 521.96,-120.5 521.96,-127.5"/>
</g>
<!-- Node20 -->
<g id="node16" class="node">
<title>Node20</title>
<g id="a_node16"><a xlink:href="structGTime.html#a64394968bbfdecbbeec4ba5134fdb682" target="_top" xlink:title=" ">
<polygon fill="white" stroke="red" points="520,-76.5 520,-95.5 608,-95.5 608,-76.5 520,-76.5"/>
<text text-anchor="middle" x="564" y="-83.5" font-family="Helvetica,sans-Serif" font-size="10.00">GTime::to_string</text>
</a>
</g>
</g>
<!-- Node15&#45;&gt;Node20 -->
<g id="edge15" class="edge">
<title>Node15&#45;&gt;Node20</title>
<path fill="none" stroke="midnightblue" d="M444.29,-114.45C457,-111.44 471.09,-108.09 484,-105 493.47,-102.74 503.58,-100.31 513.29,-97.98"/>
<polygon fill="midnightblue" stroke="midnightblue" points="514.32,-101.33 523.22,-95.59 512.68,-94.53 514.32,-101.33"/>
</g>
<!-- Node29&#45;&gt;Node11 -->
<g id="edge22" class="edge">
<title>Node29&#45;&gt;Node11</title>
<path fill="none" stroke="midnightblue" d="M437.09,-93.84C451.5,-97.26 468.59,-101.32 484,-105 496.33,-107.95 509.73,-111.16 521.94,-114.1"/>
<polygon fill="midnightblue" stroke="midnightblue" points="521.32,-117.55 531.86,-116.49 522.96,-110.75 521.32,-117.55"/>
</g>
<!-- Node29&#45;&gt;Node20 -->
<g id="edge21" class="edge">
<title>Node29&#45;&gt;Node20</title>
<path fill="none" stroke="midnightblue" d="M437.33,-86C458.29,-86 485.79,-86 509.73,-86"/>
<polygon fill="midnightblue" stroke="midnightblue" points="509.74,-89.5 519.74,-86 509.74,-82.5 509.74,-89.5"/>
</g>
<!-- Node30&#45;&gt;Node11 -->
<g id="edge25" class="edge">
<title>Node30&#45;&gt;Node11</title>
<path fill="none" stroke="midnightblue" d="M459.83,-56.84C468.24,-59.41 476.58,-62.72 484,-67 504.16,-78.62 500.99,-91.59 520,-105 522.38,-106.68 524.92,-108.25 527.55,-109.73"/>
<polygon fill="midnightblue" stroke="midnightblue" points="526.14,-112.93 536.64,-114.33 529.3,-106.69 526.14,-112.93"/>
</g>
<!-- Node30&#45;&gt;Node20 -->
<g id="edge24" class="edge">
<title>Node30&#45;&gt;Node20</title>
<path fill="none" stroke="midnightblue" d="M444.29,-57.55C457,-60.56 471.09,-63.91 484,-67 493.47,-69.26 503.58,-71.69 513.29,-74.02"/>
<polygon fill="midnightblue" stroke="midnightblue" points="512.68,-77.47 523.22,-76.41 514.32,-70.67 512.68,-77.47"/>
</g>
<!-- Node33 -->
<g id="node24" class="node">
<title>Node33</title>
<g id="a_node24"><a xlink:href="structKFState.html#a86b5a2dd8946dc0bd53606e7b2ff8c11" target="_top" xlink:title="Tries to add a state to the filter object.">
<polygon fill="white" stroke="black" points="348.5,-0.5 348.5,-19.5 457.5,-19.5 457.5,-0.5 348.5,-0.5"/>
<text text-anchor="middle" x="403" y="-7.5" font-family="Helvetica,sans-Serif" font-size="10.00">KFState::addKFState</text>
</a>
</g>
</g>
<!-- Node32&#45;&gt;Node33 -->
<g id="edge28" class="edge">
<title>Node32&#45;&gt;Node33</title>
<path fill="none" stroke="midnightblue" d="M272.65,-171.43C277.56,-168.95 282.12,-165.85 286,-162 329.48,-118.87 278.03,-71.62 322,-29 326.89,-24.26 332.73,-20.63 339.01,-17.85"/>
<polygon fill="midnightblue" stroke="midnightblue" points="340.28,-21.12 348.45,-14.37 337.86,-14.55 340.28,-21.12"/>
</g>
<!-- Node37&#45;&gt;Node4 -->
<g id="edge33" class="edge">
<title>Node37&#45;&gt;Node4</title>
<path fill="none" stroke="midnightblue" d="M268.59,-494.64C274.79,-497.09 280.75,-500.16 286,-504 310.18,-521.7 297.62,-543.58 322,-561 327.26,-564.76 333.16,-567.78 339.31,-570.21"/>
<polygon fill="midnightblue" stroke="midnightblue" points="338.54,-573.64 349.13,-573.56 340.8,-567.02 338.54,-573.64"/>
</g>
<!-- Node37&#45;&gt;Node8 -->
<g id="edge34" class="edge">
<title>Node37&#45;&gt;Node8</title>
<path fill="none" stroke="midnightblue" d="M273.66,-491.06C292.65,-492.98 313.78,-495.11 333.32,-497.08"/>
<polygon fill="midnightblue" stroke="midnightblue" points="333.07,-500.57 343.38,-498.09 333.78,-493.61 333.07,-500.57"/>
</g>
<!-- Node37&#45;&gt;Node14 -->
<g id="edge35" class="edge">
<title>Node37&#45;&gt;Node14</title>
<path fill="none" stroke="midnightblue" d="M273.66,-478.94C298.63,-476.42 327.28,-473.53 351.17,-471.12"/>
<polygon fill="midnightblue" stroke="midnightblue" points="351.84,-474.57 361.44,-470.09 351.14,-467.61 351.84,-474.57"/>
</g>
<!-- Node37&#45;&gt;Node25 -->
<g id="edge36" class="edge">
<title>Node37&#45;&gt;Node25</title>
<path fill="none" stroke="midnightblue" d="M256.57,-494.55C266.38,-497.2 276.66,-500.37 286,-504 302.86,-510.56 305.06,-516.64 322,-523 331.62,-526.61 342.16,-529.7 352.34,-532.27"/>
<polygon fill="midnightblue" stroke="midnightblue" points="351.81,-535.74 362.35,-534.66 353.43,-528.93 351.81,-535.74"/>
</g>
</g>
</svg>
