<?xml version="1.0" encoding="UTF-8" standalone="no"?>
<!DOCTYPE svg PUBLIC "-//W3C//DTD SVG 1.1//EN"
 "http://www.w3.org/Graphics/SVG/1.1/DTD/svg11.dtd">
<!-- Generated by graphviz version 2.50.0 (20220203.2022)
 -->
<!-- Title: /github/workspace/src/cpp/common/debug.hpp Pages: 1 -->
<svg width="429pt" height="117pt"
 viewBox="0.00 0.00 429.00 117.00" xmlns="http://www.w3.org/2000/svg" xmlns:xlink="http://www.w3.org/1999/xlink">
<g id="graph0" class="graph" transform="scale(1 1) rotate(0) translate(4 113)">
<title>/github/workspace/src/cpp/common/debug.hpp</title>
<polygon fill="white" stroke="transparent" points="-4,4 -4,-113 425,-113 425,4 -4,4"/>
<!-- Node1 -->
<g id="node1" class="node">
<title>Node1</title>
<g id="a_node1"><a xlink:title=" ">
<polygon fill="#bfbfbf" stroke="black" points="153,-78.5 153,-108.5 276,-108.5 276,-78.5 153,-78.5"/>
<text text-anchor="start" x="161" y="-96.5" font-family="Helvetica,sans-Serif" font-size="10.00">/github/workspace/src</text>
<text text-anchor="middle" x="214.5" y="-85.5" font-family="Helvetica,sans-Serif" font-size="10.00">/cpp/common/debug.hpp</text>
</a>
</g>
</g>
<!-- Node2 -->
<g id="node2" class="node">
<title>Node2</title>
<g id="a_node2"><a xlink:href="brdc2sp3__main__bck_8cpp.html" target="_top" xlink:title=" ">
<polygon fill="white" stroke="black" points="0,-0.5 0,-41.5 121,-41.5 121,-0.5 0,-0.5"/>
<text text-anchor="start" x="8" y="-29.5" font-family="Helvetica,sans-Serif" font-size="10.00">/github/workspace/src</text>
<text text-anchor="start" x="8" y="-18.5" font-family="Helvetica,sans-Serif" font-size="10.00">/cpp/brdc2sp3/brdc2sp3</text>
<text text-anchor="middle" x="60.5" y="-7.5" font-family="Helvetica,sans-Serif" font-size="10.00">_main_bck.cpp</text>
</a>
</g>
</g>
<!-- Node1&#45;&gt;Node2 -->
<g id="edge1" class="edge">
<title>Node1&#45;&gt;Node2</title>
<path fill="none" stroke="midnightblue" d="M174.37,-74.13C152.51,-64.12 125.45,-51.73 103.2,-41.55"/>
<polygon fill="midnightblue" stroke="midnightblue" points="173.16,-77.42 183.71,-78.4 176.07,-71.06 173.16,-77.42"/>
</g>
<!-- Node3 -->
<g id="node3" class="node">
<title>Node3</title>
<g id="a_node3"><a xlink:href="linearCombo_8cpp.html" target="_top" xlink:title=" ">
<polygon fill="white" stroke="black" points="139,-6 139,-36 290,-36 290,-6 139,-6"/>
<text text-anchor="start" x="147" y="-24" font-family="Helvetica,sans-Serif" font-size="10.00">/github/workspace/src</text>
<text text-anchor="middle" x="214.5" y="-13" font-family="Helvetica,sans-Serif" font-size="10.00">/cpp/common/linearCombo.cpp</text>
</a>
</g>
</g>
<!-- Node1&#45;&gt;Node3 -->
<g id="edge2" class="edge">
<title>Node1&#45;&gt;Node3</title>
<path fill="none" stroke="midnightblue" d="M214.5,-68.23C214.5,-57.57 214.5,-45.41 214.5,-36.25"/>
<polygon fill="midnightblue" stroke="midnightblue" points="211,-68.23 214.5,-78.23 218,-68.23 211,-68.23"/>
</g>
<!-- Node4 -->
<g id="node4" class="node">
<title>Node4</title>
<g id="a_node4"><a xlink:href="main_8cpp.html" target="_top" xlink:title=" ">
<polygon fill="white" stroke="black" points="308,-6 308,-36 421,-36 421,-6 308,-6"/>
<text text-anchor="start" x="316" y="-24" font-family="Helvetica,sans-Serif" font-size="10.00">/github/workspace/src</text>
<text text-anchor="middle" x="364.5" y="-13" font-family="Helvetica,sans-Serif" font-size="10.00">/cpp/pea/main.cpp</text>
</a>
</g>
</g>
<!-- Node1&#45;&gt;Node4 -->
<g id="edge3" class="edge">
<title>Node1&#45;&gt;Node4</title>
<path fill="none" stroke="midnightblue" d="M253.8,-74.03C279.06,-62.16 311.37,-46.97 334.56,-36.07"/>
<polygon fill="midnightblue" stroke="midnightblue" points="252.06,-70.98 244.49,-78.4 255.03,-77.32 252.06,-70.98"/>
</g>
</g>
</svg>
