<?xml version="1.0" encoding="UTF-8" standalone="no"?>
<!DOCTYPE svg PUBLIC "-//W3C//DTD SVG 1.1//EN"
 "http://www.w3.org/Graphics/SVG/1.1/DTD/svg11.dtd">
<!-- Generated by graphviz version 2.50.0 (20220203.2022)
 -->
<!-- Title: /github/workspace/src/cpp/pea Pages: 1 -->
<svg width="454pt" height="167pt"
 viewBox="0.00 0.00 454.00 167.00" xmlns="http://www.w3.org/2000/svg" xmlns:xlink="http://www.w3.org/1999/xlink">
<g id="graph0" class="graph" transform="scale(1 1) rotate(0) translate(4 163)">
<title>/github/workspace/src/cpp/pea</title>
<polygon fill="white" stroke="transparent" points="-4,4 -4,-163 450,-163 450,4 -4,4"/>
<g id="clust1" class="cluster">
<title>clusterdir_df511e5bd85cec96854b39d5e1c27aa8</title>
<g id="a_clust1"><a xlink:href="dir_df511e5bd85cec96854b39d5e1c27aa8.html" target="_top" xlink:title="cpp">
<polygon fill="#edf0f7" stroke="#404040" stroke-dasharray="5,2" points="8,-8 8,-151 438,-151 438,-8 8,-8"/>
<text text-anchor="middle" x="223" y="-139" font-family="Helvetica,sans-Serif" font-size="10.00">cpp</text>
</a>
</g>
</g>
<!-- dir_003ff7836255774859821e99f928564d -->
<g id="node1" class="node">
<title>dir_003ff7836255774859821e99f928564d</title>
<g id="a_node1"><a xlink:href="dir_003ff7836255774859821e99f928564d.html" target="_top" xlink:title="iono">
<polygon fill="#a2b4d6" stroke="#404040" points="70,-52 16,-52 16,-16 70,-16 70,-52"/>
<text text-anchor="middle" x="43" y="-31.5" font-family="Helvetica,sans-Serif" font-size="10.00">iono</text>
</a>
</g>
</g>
<!-- dir_2d340a610648b7d5907a75febc608311 -->
<g id="node2" class="node">
<title>dir_2d340a610648b7d5907a75febc608311</title>
<g id="a_node2"><a xlink:href="dir_2d340a610648b7d5907a75febc608311.html" target="_top" xlink:title="rtklib">
<polygon fill="#a2b4d6" stroke="#404040" points="142,-52 88,-52 88,-16 142,-16 142,-52"/>
<text text-anchor="middle" x="115" y="-31.5" font-family="Helvetica,sans-Serif" font-size="10.00">rtklib</text>
</a>
</g>
</g>
<!-- dir_4cda57e447261de492b61321c7411b8c -->
<g id="node3" class="node">
<title>dir_4cda57e447261de492b61321c7411b8c</title>
<g id="a_node3"><a xlink:href="dir_4cda57e447261de492b61321c7411b8c.html" target="_top" xlink:title="ambres">
<polygon fill="#a2b4d6" stroke="#404040" points="214,-52 160,-52 160,-16 214,-16 214,-52"/>
<text text-anchor="middle" x="187" y="-31.5" font-family="Helvetica,sans-Serif" font-size="10.00">ambres</text>
</a>
</g>
</g>
<!-- dir_60f9daa69945525fe08b51b2abeb176c -->
<g id="node4" class="node">
<title>dir_60f9daa69945525fe08b51b2abeb176c</title>
<g id="a_node4"><a xlink:href="dir_60f9daa69945525fe08b51b2abeb176c.html" target="_top" xlink:title="3rdparty">
<polygon fill="#a2b4d6" stroke="red" points="286,-52 232,-52 232,-16 286,-16 286,-52"/>
<text text-anchor="middle" x="259" y="-31.5" font-family="Helvetica,sans-Serif" font-size="10.00">3rdparty</text>
</a>
</g>
</g>
<!-- dir_8a65d247160fca2a969d6d8ca16055a2 -->
<g id="node5" class="node">
<title>dir_8a65d247160fca2a969d6d8ca16055a2</title>
<g id="a_node5"><a xlink:href="dir_8a65d247160fca2a969d6d8ca16055a2.html" target="_top" xlink:title="common">
<polygon fill="#a2b4d6" stroke="#404040" points="358,-52 304,-52 304,-16 358,-16 358,-52"/>
<text text-anchor="middle" x="331" y="-31.5" font-family="Helvetica,sans-Serif" font-size="10.00">common</text>
</a>
</g>
</g>
<!-- dir_cd1d47827149af4cd00fedba09411bef -->
<g id="node6" class="node">
<title>dir_cd1d47827149af4cd00fedba09411bef</title>
<g id="a_node6"><a xlink:href="dir_cd1d47827149af4cd00fedba09411bef.html" target="_top" xlink:title="orbprop">
<polygon fill="#a2b4d6" stroke="#404040" points="430,-52 376,-52 376,-16 430,-16 430,-52"/>
<text text-anchor="middle" x="403" y="-31.5" font-family="Helvetica,sans-Serif" font-size="10.00">orbprop</text>
</a>
</g>
</g>
<!-- dir_b4c1e609a8ee327a21c29f37797a1842 -->
<g id="node7" class="node">
<title>dir_b4c1e609a8ee327a21c29f37797a1842</title>
<g id="a_node7"><a xlink:href="dir_b4c1e609a8ee327a21c29f37797a1842.html" target="_top" xlink:title="pea">
<polygon fill="#edf0f7" stroke="#404040" stroke-width="2" points="250,-124 196,-124 196,-88 250,-88 250,-124"/>
<text text-anchor="middle" x="223" y="-103.5" font-family="Helvetica,sans-Serif" font-size="10.00">pea</text>
</a>
</g>
</g>
<!-- dir_b4c1e609a8ee327a21c29f37797a1842&#45;&gt;dir_003ff7836255774859821e99f928564d -->
<g id="edge1" class="edge">
<title>dir_b4c1e609a8ee327a21c29f37797a1842&#45;&gt;dir_003ff7836255774859821e99f928564d</title>
<path fill="none" stroke="black" d="M195.92,-95.84C168.65,-86.43 125.23,-70.99 79.49,-52.04"/>
<polygon fill="black" stroke="black" points="80.59,-48.7 70.01,-48.07 77.89,-55.16 80.59,-48.7"/>
<g id="a_edge1&#45;headlabel"><a xlink:href="dir_000011_000007.html" target="_top" xlink:title="1">
<text text-anchor="middle" x="85" y="-44.97" font-family="Helvetica,sans-Serif" font-size="10.00">1</text>
</a>
</g>
</g>
<!-- dir_b4c1e609a8ee327a21c29f37797a1842&#45;&gt;dir_2d340a610648b7d5907a75febc608311 -->
<g id="edge2" class="edge">
<title>dir_b4c1e609a8ee327a21c29f37797a1842&#45;&gt;dir_2d340a610648b7d5907a75febc608311</title>
<path fill="none" stroke="black" d="M196.58,-87.88C182.59,-78.81 165.22,-67.55 150.11,-57.76"/>
<polygon fill="black" stroke="black" points="151.82,-54.69 141.52,-52.19 148.01,-60.57 151.82,-54.69"/>
<g id="a_edge2&#45;headlabel"><a xlink:href="dir_000011_000013.html" target="_top" xlink:title="17">
<text text-anchor="middle" x="156.38" y="-51.76" font-family="Helvetica,sans-Serif" font-size="10.00">17</text>
</a>
</g>
</g>
<!-- dir_b4c1e609a8ee327a21c29f37797a1842&#45;&gt;dir_4cda57e447261de492b61321c7411b8c -->
<g id="edge3" class="edge">
<title>dir_b4c1e609a8ee327a21c29f37797a1842&#45;&gt;dir_4cda57e447261de492b61321c7411b8c</title>
<path fill="none" stroke="black" d="M214.1,-87.7C210,-79.73 205.05,-70.1 200.51,-61.26"/>
<polygon fill="black" stroke="black" points="203.48,-59.4 195.8,-52.1 197.26,-62.6 203.48,-59.4"/>
<g id="a_edge3&#45;headlabel"><a xlink:href="dir_000011_000001.html" target="_top" xlink:title="1">
<text text-anchor="middle" x="207.65" y="-58.79" font-family="Helvetica,sans-Serif" font-size="10.00">1</text>
</a>
</g>
</g>
<!-- dir_b4c1e609a8ee327a21c29f37797a1842&#45;&gt;dir_60f9daa69945525fe08b51b2abeb176c -->
<g id="edge4" class="edge">
<title>dir_b4c1e609a8ee327a21c29f37797a1842&#45;&gt;dir_60f9daa69945525fe08b51b2abeb176c</title>
<path fill="none" stroke="black" d="M231.9,-87.7C236,-79.73 240.95,-70.1 245.49,-61.26"/>
<polygon fill="black" stroke="black" points="248.74,-62.6 250.2,-52.1 242.52,-59.4 248.74,-62.6"/>
<g id="a_edge4&#45;headlabel"><a xlink:href="dir_000011_000000.html" target="_top" xlink:title="1">
<text text-anchor="middle" x="249.62" y="-64.59" font-family="Helvetica,sans-Serif" font-size="10.00">1</text>
</a>
</g>
</g>
<!-- dir_b4c1e609a8ee327a21c29f37797a1842&#45;&gt;dir_8a65d247160fca2a969d6d8ca16055a2 -->
<g id="edge5" class="edge">
<title>dir_b4c1e609a8ee327a21c29f37797a1842&#45;&gt;dir_8a65d247160fca2a969d6d8ca16055a2</title>
<path fill="none" stroke="black" d="M249.42,-87.88C263.41,-78.81 280.78,-67.55 295.89,-57.76"/>
<polygon fill="black" stroke="black" points="297.99,-60.57 304.48,-52.19 294.18,-54.69 297.99,-60.57"/>
<g id="a_edge5&#45;headlabel"><a xlink:href="dir_000011_000003.html" target="_top" xlink:title="161">
<text text-anchor="middle" x="296.52" y="-62.4" font-family="Helvetica,sans-Serif" font-size="10.00">161</text>
</a>
</g>
</g>
<!-- dir_b4c1e609a8ee327a21c29f37797a1842&#45;&gt;dir_cd1d47827149af4cd00fedba09411bef -->
<g id="edge6" class="edge">
<title>dir_b4c1e609a8ee327a21c29f37797a1842&#45;&gt;dir_cd1d47827149af4cd00fedba09411bef</title>
<path fill="none" stroke="black" d="M250.08,-95.84C277.35,-86.43 320.77,-70.99 366.51,-52.04"/>
<polygon fill="black" stroke="black" points="368.11,-55.16 375.99,-48.07 365.41,-48.7 368.11,-55.16"/>
<g id="a_edge6&#45;headlabel"><a xlink:href="dir_000011_000010.html" target="_top" xlink:title="3">
<text text-anchor="middle" x="365.89" y="-56.66" font-family="Helvetica,sans-Serif" font-size="10.00">3</text>
</a>
</g>
</g>
</g>
</svg>
