<?xml version="1.0" encoding="UTF-8" standalone="no"?>
<!DOCTYPE svg PUBLIC "-//W3C//DTD SVG 1.1//EN"
 "http://www.w3.org/Graphics/SVG/1.1/DTD/svg11.dtd">
<!-- Generated by graphviz version 2.50.0 (20220203.2022)
 -->
<!-- Title: /github/workspace/src/cpp/common Pages: 1 -->
<svg width="382pt" height="167pt"
 viewBox="0.00 0.00 382.00 167.00" xmlns="http://www.w3.org/2000/svg" xmlns:xlink="http://www.w3.org/1999/xlink">
<g id="graph0" class="graph" transform="scale(1 1) rotate(0) translate(4 163)">
<title>/github/workspace/src/cpp/common</title>
<polygon fill="white" stroke="transparent" points="-4,4 -4,-163 378,-163 378,4 -4,4"/>
<g id="clust1" class="cluster">
<title>clusterdir_df511e5bd85cec96854b39d5e1c27aa8</title>
<g id="a_clust1"><a xlink:href="dir_df511e5bd85cec96854b39d5e1c27aa8.html" target="_top" xlink:title="cpp">
<polygon fill="#edf0f7" stroke="#404040" stroke-dasharray="5,2" points="8,-8 8,-151 366,-151 366,-8 8,-8"/>
<text text-anchor="middle" x="187" y="-139" font-family="Helvetica,sans-Serif" font-size="10.00">cpp</text>
</a>
</g>
</g>
<!-- dir_2d340a610648b7d5907a75febc608311 -->
<g id="node1" class="node">
<title>dir_2d340a610648b7d5907a75febc608311</title>
<g id="a_node1"><a xlink:href="dir_2d340a610648b7d5907a75febc608311.html" target="_top" xlink:title="rtklib">
<polygon fill="#a2b4d6" stroke="#404040" points="70,-52 16,-52 16,-16 70,-16 70,-52"/>
<text text-anchor="middle" x="43" y="-31.5" font-family="Helvetica,sans-Serif" font-size="10.00">rtklib</text>
</a>
</g>
</g>
<!-- dir_4cda57e447261de492b61321c7411b8c -->
<g id="node2" class="node">
<title>dir_4cda57e447261de492b61321c7411b8c</title>
<g id="a_node2"><a xlink:href="dir_4cda57e447261de492b61321c7411b8c.html" target="_top" xlink:title="ambres">
<polygon fill="#a2b4d6" stroke="#404040" points="142,-52 88,-52 88,-16 142,-16 142,-52"/>
<text text-anchor="middle" x="115" y="-31.5" font-family="Helvetica,sans-Serif" font-size="10.00">ambres</text>
</a>
</g>
</g>
<!-- dir_60f9daa69945525fe08b51b2abeb176c -->
<g id="node3" class="node">
<title>dir_60f9daa69945525fe08b51b2abeb176c</title>
<g id="a_node3"><a xlink:href="dir_60f9daa69945525fe08b51b2abeb176c.html" target="_top" xlink:title="3rdparty">
<polygon fill="#a2b4d6" stroke="red" points="214,-52 160,-52 160,-16 214,-16 214,-52"/>
<text text-anchor="middle" x="187" y="-31.5" font-family="Helvetica,sans-Serif" font-size="10.00">3rdparty</text>
</a>
</g>
</g>
<!-- dir_b4c1e609a8ee327a21c29f37797a1842 -->
<g id="node4" class="node">
<title>dir_b4c1e609a8ee327a21c29f37797a1842</title>
<g id="a_node4"><a xlink:href="dir_b4c1e609a8ee327a21c29f37797a1842.html" target="_top" xlink:title="pea">
<polygon fill="#a2b4d6" stroke="#404040" points="286,-52 232,-52 232,-16 286,-16 286,-52"/>
<text text-anchor="middle" x="259" y="-31.5" font-family="Helvetica,sans-Serif" font-size="10.00">pea</text>
</a>
</g>
</g>
<!-- dir_cd1d47827149af4cd00fedba09411bef -->
<g id="node5" class="node">
<title>dir_cd1d47827149af4cd00fedba09411bef</title>
<g id="a_node5"><a xlink:href="dir_cd1d47827149af4cd00fedba09411bef.html" target="_top" xlink:title="orbprop">
<polygon fill="#a2b4d6" stroke="#404040" points="358,-52 304,-52 304,-16 358,-16 358,-52"/>
<text text-anchor="middle" x="331" y="-31.5" font-family="Helvetica,sans-Serif" font-size="10.00">orbprop</text>
</a>
</g>
</g>
<!-- dir_8a65d247160fca2a969d6d8ca16055a2 -->
<g id="node6" class="node">
<title>dir_8a65d247160fca2a969d6d8ca16055a2</title>
<g id="a_node6"><a xlink:href="dir_8a65d247160fca2a969d6d8ca16055a2.html" target="_top" xlink:title="common">
<polygon fill="#edf0f7" stroke="#404040" stroke-width="2" points="214,-124 160,-124 160,-88 214,-88 214,-124"/>
<text text-anchor="middle" x="187" y="-103.5" font-family="Helvetica,sans-Serif" font-size="10.00">common</text>
</a>
</g>
</g>
<!-- dir_8a65d247160fca2a969d6d8ca16055a2&#45;&gt;dir_2d340a610648b7d5907a75febc608311 -->
<g id="edge1" class="edge">
<title>dir_8a65d247160fca2a969d6d8ca16055a2&#45;&gt;dir_2d340a610648b7d5907a75febc608311</title>
<path fill="none" stroke="black" d="M159.91,-91.83C137.23,-80.81 104.64,-64.97 79.63,-52.81"/>
<polygon fill="black" stroke="black" points="80.98,-49.57 70.45,-48.35 77.92,-55.87 80.98,-49.57"/>
<g id="a_edge1&#45;headlabel"><a xlink:href="dir_000003_000013.html" target="_top" xlink:title="8">
<text text-anchor="middle" x="85.45" y="-46.09" font-family="Helvetica,sans-Serif" font-size="10.00">8</text>
</a>
</g>
</g>
<!-- dir_8a65d247160fca2a969d6d8ca16055a2&#45;&gt;dir_4cda57e447261de492b61321c7411b8c -->
<g id="edge2" class="edge">
<title>dir_8a65d247160fca2a969d6d8ca16055a2&#45;&gt;dir_4cda57e447261de492b61321c7411b8c</title>
<path fill="none" stroke="black" d="M169.2,-87.7C160.4,-79.14 149.62,-68.66 140,-59.3"/>
<polygon fill="black" stroke="black" points="142.2,-56.57 132.59,-52.1 137.32,-61.58 142.2,-56.57"/>
<g id="a_edge2&#45;headlabel"><a xlink:href="dir_000003_000001.html" target="_top" xlink:title="3">
<text text-anchor="middle" x="146.76" y="-54.54" font-family="Helvetica,sans-Serif" font-size="10.00">3</text>
</a>
</g>
</g>
<!-- dir_8a65d247160fca2a969d6d8ca16055a2&#45;&gt;dir_60f9daa69945525fe08b51b2abeb176c -->
<g id="edge3" class="edge">
<title>dir_8a65d247160fca2a969d6d8ca16055a2&#45;&gt;dir_60f9daa69945525fe08b51b2abeb176c</title>
<path fill="none" stroke="black" d="M187,-87.7C187,-79.98 187,-70.71 187,-62.11"/>
<polygon fill="black" stroke="black" points="190.5,-62.1 187,-52.1 183.5,-62.1 190.5,-62.1"/>
<g id="a_edge3&#45;headlabel"><a xlink:href="dir_000003_000000.html" target="_top" xlink:title="3">
<text text-anchor="middle" x="193.34" y="-63.2" font-family="Helvetica,sans-Serif" font-size="10.00">3</text>
</a>
</g>
</g>
<!-- dir_8a65d247160fca2a969d6d8ca16055a2&#45;&gt;dir_b4c1e609a8ee327a21c29f37797a1842 -->
<g id="edge4" class="edge">
<title>dir_8a65d247160fca2a969d6d8ca16055a2&#45;&gt;dir_b4c1e609a8ee327a21c29f37797a1842</title>
<path fill="none" stroke="black" d="M204.8,-87.7C213.6,-79.14 224.38,-68.66 234,-59.3"/>
<polygon fill="black" stroke="black" points="236.68,-61.58 241.41,-52.1 231.8,-56.57 236.68,-61.58"/>
<g id="a_edge4&#45;headlabel"><a xlink:href="dir_000003_000011.html" target="_top" xlink:title="3">
<text text-anchor="middle" x="236.08" y="-63.63" font-family="Helvetica,sans-Serif" font-size="10.00">3</text>
</a>
</g>
</g>
<!-- dir_8a65d247160fca2a969d6d8ca16055a2&#45;&gt;dir_cd1d47827149af4cd00fedba09411bef -->
<g id="edge5" class="edge">
<title>dir_8a65d247160fca2a969d6d8ca16055a2&#45;&gt;dir_cd1d47827149af4cd00fedba09411bef</title>
<path fill="none" stroke="black" d="M214.09,-91.83C236.77,-80.81 269.36,-64.97 294.37,-52.81"/>
<polygon fill="black" stroke="black" points="296.08,-55.87 303.55,-48.35 293.02,-49.57 296.08,-55.87"/>
<g id="a_edge5&#45;headlabel"><a xlink:href="dir_000003_000010.html" target="_top" xlink:title="1">
<text text-anchor="middle" x="294.09" y="-57.49" font-family="Helvetica,sans-Serif" font-size="10.00">1</text>
</a>
</g>
</g>
</g>
</svg>
