<?xml version="1.0" encoding="UTF-8" standalone="no"?>
<!DOCTYPE svg PUBLIC "-//W3C//DTD SVG 1.1//EN"
 "http://www.w3.org/Graphics/SVG/1.1/DTD/svg11.dtd">
<!-- Generated by graphviz version 2.50.0 (20220203.2022)
 -->
<!-- Title: eclipse_integstep Pages: 1 -->
<svg width="453pt" height="265pt"
 viewBox="0.00 0.00 453.00 265.00" xmlns="http://www.w3.org/2000/svg" xmlns:xlink="http://www.w3.org/1999/xlink">
<g id="graph0" class="graph" transform="scale(1 1) rotate(0) translate(4 261)">
<title>eclipse_integstep</title>
<polygon fill="white" stroke="transparent" points="-4,4 -4,-261 449,-261 449,4 -4,4"/>
<!-- Node1 -->
<g id="node1" class="node">
<title>Node1</title>
<g id="a_node1"><a xlink:title=" ">
<polygon fill="#bfbfbf" stroke="black" points="0,-114.5 0,-133.5 92,-133.5 92,-114.5 0,-114.5"/>
<text text-anchor="middle" x="46" y="-121.5" font-family="Helvetica,sans-Serif" font-size="10.00">eclipse_integstep</text>
</a>
</g>
</g>
<!-- Node2 -->
<g id="node2" class="node">
<title>Node2</title>
<g id="a_node2"><a xlink:href="beta__angle_8f90.html#aa3986ad6e3bbfff7cbb65b502e569723" target="_top" xlink:title=" ">
<polygon fill="white" stroke="black" points="165.5,-208.5 165.5,-227.5 229.5,-227.5 229.5,-208.5 165.5,-208.5"/>
<text text-anchor="middle" x="197.5" y="-215.5" font-family="Helvetica,sans-Serif" font-size="10.00">beta_angle</text>
</a>
</g>
</g>
<!-- Node1&#45;&gt;Node2 -->
<g id="edge1" class="edge">
<title>Node1&#45;&gt;Node2</title>
<path fill="none" stroke="midnightblue" d="M54.66,-133.6C67.91,-149.57 96.7,-181.54 128,-199 136.39,-203.68 146.01,-207.27 155.34,-210"/>
<polygon fill="midnightblue" stroke="midnightblue" points="154.71,-213.46 165.27,-212.64 156.51,-206.69 154.71,-213.46"/>
</g>
<!-- Node6 -->
<g id="node5" class="node">
<title>Node6</title>
<g id="a_node5"><a xlink:href="namespacepod__yaml.html#a7eec6e3f0fd68e255161a8184dfe05ab" target="_top" xlink:title=" ">
<polygon fill="white" stroke="black" points="128,-152.5 128,-171.5 267,-171.5 267,-152.5 128,-152.5"/>
<text text-anchor="middle" x="197.5" y="-159.5" font-family="Helvetica,sans-Serif" font-size="10.00">pod_yaml::new_prn_override</text>
</a>
</g>
</g>
<!-- Node1&#45;&gt;Node6 -->
<g id="edge4" class="edge">
<title>Node1&#45;&gt;Node6</title>
<path fill="none" stroke="midnightblue" d="M84.73,-133.59C104.28,-138.56 128.35,-144.68 149.14,-149.96"/>
<polygon fill="midnightblue" stroke="midnightblue" points="148.49,-153.41 159.05,-152.48 150.22,-146.62 148.49,-153.41"/>
</g>
<!-- Node7 -->
<g id="node6" class="node">
<title>Node7</title>
<g id="a_node6"><a xlink:href="sinex_8cpp.html#a06fabc81a2cc41dfee260450a527ad2d" target="_top" xlink:title=" ">
<polygon fill="white" stroke="black" points="412,-76.5 412,-95.5 445,-95.5 445,-76.5 412,-76.5"/>
<text text-anchor="middle" x="428.5" y="-83.5" font-family="Helvetica,sans-Serif" font-size="10.00">trim</text>
</a>
</g>
</g>
<!-- Node1&#45;&gt;Node7 -->
<g id="edge9" class="edge">
<title>Node1&#45;&gt;Node7</title>
<path fill="none" stroke="midnightblue" d="M92.25,-125.57C156.19,-126.85 276.3,-125.79 376,-105 384.76,-103.17 394.01,-100.13 402.23,-97.01"/>
<polygon fill="midnightblue" stroke="midnightblue" points="403.64,-100.22 411.62,-93.25 401.04,-93.72 403.64,-100.22"/>
</g>
<!-- Node8 -->
<g id="node7" class="node">
<title>Node8</title>
<g id="a_node7"><a xlink:href="PLEPH_8f.html#aedc7e0a9526045bd01307271228e14a3" target="_top" xlink:title=" ">
<polygon fill="white" stroke="black" points="177.5,-76.5 177.5,-95.5 217.5,-95.5 217.5,-76.5 177.5,-76.5"/>
<text text-anchor="middle" x="197.5" y="-83.5" font-family="Helvetica,sans-Serif" font-size="10.00">pleph</text>
</a>
</g>
</g>
<!-- Node1&#45;&gt;Node8 -->
<g id="edge7" class="edge">
<title>Node1&#45;&gt;Node8</title>
<path fill="none" stroke="midnightblue" d="M84.73,-114.41C110.49,-107.86 144.12,-99.31 167.73,-93.31"/>
<polygon fill="midnightblue" stroke="midnightblue" points="168.67,-96.69 177.5,-90.83 166.95,-89.9 168.67,-96.69"/>
</g>
<!-- Node10 -->
<g id="node9" class="node">
<title>Node10</title>
<g id="a_node9"><a xlink:href="write__prmfile_8f95.html#a9c61b731b95c8ddbf9d3d250eed75230" target="_top" xlink:title=" ">
<polygon fill="white" stroke="black" points="162,-38.5 162,-57.5 233,-57.5 233,-38.5 162,-38.5"/>
<text text-anchor="middle" x="197.5" y="-45.5" font-family="Helvetica,sans-Serif" font-size="10.00">write_prmfile</text>
</a>
</g>
</g>
<!-- Node1&#45;&gt;Node10 -->
<g id="edge10" class="edge">
<title>Node1&#45;&gt;Node10</title>
<path fill="none" stroke="midnightblue" d="M58.03,-114.36C72.94,-101.78 100.8,-79.87 128,-67 135.53,-63.44 143.86,-60.43 152.04,-57.93"/>
<polygon fill="midnightblue" stroke="midnightblue" points="153.21,-61.24 161.87,-55.14 151.3,-54.51 153.21,-61.24"/>
</g>
<!-- Node3 -->
<g id="node3" class="node">
<title>Node3</title>
<g id="a_node3"><a xlink:href="productcross_8f90.html#a2e59e22456af10602cf068c75f925c76" target="_top" xlink:title=" ">
<polygon fill="white" stroke="red" points="303,-237.5 303,-256.5 376,-256.5 376,-237.5 303,-237.5"/>
<text text-anchor="middle" x="339.5" y="-244.5" font-family="Helvetica,sans-Serif" font-size="10.00">productcross</text>
</a>
</g>
</g>
<!-- Node2&#45;&gt;Node3 -->
<g id="edge2" class="edge">
<title>Node2&#45;&gt;Node3</title>
<path fill="none" stroke="midnightblue" d="M229.57,-224.44C248.19,-228.29 272.21,-233.27 292.94,-237.56"/>
<polygon fill="midnightblue" stroke="midnightblue" points="292.32,-241.01 302.82,-239.61 293.74,-234.15 292.32,-241.01"/>
</g>
<!-- Node5 -->
<g id="node4" class="node">
<title>Node5</title>
<g id="a_node4"><a xlink:href="productdot_8f90.html#a14430d9cb0b48474effeb33068eaf0ed" target="_top" xlink:title=" ">
<polygon fill="white" stroke="red" points="308.5,-199.5 308.5,-218.5 370.5,-218.5 370.5,-199.5 308.5,-199.5"/>
<text text-anchor="middle" x="339.5" y="-206.5" font-family="Helvetica,sans-Serif" font-size="10.00">productdot</text>
</a>
</g>
</g>
<!-- Node2&#45;&gt;Node5 -->
<g id="edge3" class="edge">
<title>Node2&#45;&gt;Node5</title>
<path fill="none" stroke="midnightblue" d="M229.57,-216C249.88,-214.7 276.59,-212.98 298.48,-211.57"/>
<polygon fill="midnightblue" stroke="midnightblue" points="298.72,-215.06 308.48,-210.93 298.27,-208.08 298.72,-215.06"/>
</g>
<!-- Node6&#45;&gt;Node6 -->
<g id="edge5" class="edge">
<title>Node6&#45;&gt;Node6</title>
<path fill="none" stroke="midnightblue" d="M175.61,-171.76C164.97,-180.57 172.26,-190 197.5,-190 214.06,-190 222.9,-185.94 224.01,-180.65"/>
<polygon fill="midnightblue" stroke="midnightblue" points="227.1,-179.02 219.39,-171.76 220.89,-182.24 227.1,-179.02"/>
</g>
<!-- Node6&#45;&gt;Node7 -->
<g id="edge6" class="edge">
<title>Node6&#45;&gt;Node7</title>
<path fill="none" stroke="midnightblue" d="M267.28,-162.97C301.51,-160.96 342.6,-154.64 376,-138 391.77,-130.14 405.56,-115.54 414.9,-103.81"/>
<polygon fill="midnightblue" stroke="midnightblue" points="417.9,-105.64 421.12,-95.55 412.31,-101.43 417.9,-105.64"/>
</g>
<!-- Node9 -->
<g id="node8" class="node">
<title>Node9</title>
<g id="a_node8"><a xlink:href="jpl__eph_8cpp.html#a755e63250f4ea83300f467826c98c0b2" target="_top" xlink:title=" ">
<polygon fill="white" stroke="black" points="309,-76.5 309,-95.5 370,-95.5 370,-76.5 309,-76.5"/>
<text text-anchor="middle" x="339.5" y="-83.5" font-family="Helvetica,sans-Serif" font-size="10.00">dimension</text>
</a>
</g>
</g>
<!-- Node8&#45;&gt;Node9 -->
<g id="edge8" class="edge">
<title>Node8&#45;&gt;Node9</title>
<path fill="none" stroke="midnightblue" d="M217.67,-86C238.43,-86 272.13,-86 298.67,-86"/>
<polygon fill="midnightblue" stroke="midnightblue" points="298.82,-89.5 308.82,-86 298.82,-82.5 298.82,-89.5"/>
</g>
<!-- Node10&#45;&gt;Node7 -->
<g id="edge11" class="edge">
<title>Node10&#45;&gt;Node7</title>
<path fill="none" stroke="midnightblue" d="M233.28,-49.19C269.38,-51.01 327.27,-55.59 376,-67 384.71,-69.04 393.95,-72.14 402.17,-75.24"/>
<polygon fill="midnightblue" stroke="midnightblue" points="400.99,-78.54 411.58,-78.96 403.57,-72.03 400.99,-78.54"/>
</g>
<!-- Node11 -->
<g id="node10" class="node">
<title>Node11</title>
<g id="a_node10"><a xlink:href="writeparam_8f95.html#abb9f5fe056f4fd169ce91505e5a4fc24" target="_top" xlink:title=" ">
<polygon fill="white" stroke="black" points="307,-0.5 307,-19.5 372,-19.5 372,-0.5 307,-0.5"/>
<text text-anchor="middle" x="339.5" y="-7.5" font-family="Helvetica,sans-Serif" font-size="10.00">writeparam</text>
</a>
</g>
</g>
<!-- Node10&#45;&gt;Node11 -->
<g id="edge12" class="edge">
<title>Node10&#45;&gt;Node11</title>
<path fill="none" stroke="midnightblue" d="M233.11,-38.61C252.36,-33.38 276.47,-26.84 296.77,-21.33"/>
<polygon fill="midnightblue" stroke="midnightblue" points="297.95,-24.63 306.69,-18.64 296.12,-17.88 297.95,-24.63"/>
</g>
<!-- Node11&#45;&gt;Node7 -->
<g id="edge13" class="edge">
<title>Node11&#45;&gt;Node7</title>
<path fill="none" stroke="midnightblue" d="M356.18,-19.65C362.53,-23.8 369.82,-28.87 376,-34 388.94,-44.73 402.26,-58.25 412.11,-68.82"/>
<polygon fill="midnightblue" stroke="midnightblue" points="409.56,-71.23 418.9,-76.23 414.72,-66.49 409.56,-71.23"/>
</g>
</g>
</svg>
