<?xml version="1.0" encoding="UTF-8" standalone="no"?>
<!DOCTYPE svg PUBLIC "-//W3C//DTD SVG 1.1//EN"
 "http://www.w3.org/Graphics/SVG/1.1/DTD/svg11.dtd">
<!-- Generated by graphviz version 2.50.0 (20220203.2022)
 -->
<!-- Title: undulation Pages: 1 -->
<svg width="349pt" height="39pt"
 viewBox="0.00 0.00 349.00 39.00" xmlns="http://www.w3.org/2000/svg" xmlns:xlink="http://www.w3.org/1999/xlink">
<g id="graph0" class="graph" transform="scale(1 1) rotate(0) translate(4 35)">
<title>undulation</title>
<polygon fill="white" stroke="transparent" points="-4,4 -4,-35 345,-35 345,4 -4,4"/>
<!-- Node1 -->
<g id="node1" class="node">
<title>Node1</title>
<g id="a_node1"><a xlink:title="Compute the geoid undulation from the EGM96 potential coefficient model, for a given latitude and lon...">
<polygon fill="#bfbfbf" stroke="black" points="280,-6 280,-25 341,-25 341,-6 280,-6"/>
<text text-anchor="middle" x="310.5" y="-13" font-family="Helvetica,sans-Serif" font-size="10.00">undulation</text>
</a>
</g>
</g>
<!-- Node2 -->
<g id="node2" class="node">
<title>Node2</title>
<g id="a_node2"><a xlink:href="EGM96_8c.html#ae1845d16c824b28d48be05f26efb9b25" target="_top" xlink:title="Compute the geoid undulation from the EGM96 potential coefficient model, for a given latitude and lon...">
<polygon fill="white" stroke="black" points="119,-0.5 119,-30.5 244,-30.5 244,-0.5 119,-0.5"/>
<text text-anchor="start" x="127" y="-18.5" font-family="Helvetica,sans-Serif" font-size="10.00">egm96_compute_altitude</text>
<text text-anchor="middle" x="181.5" y="-7.5" font-family="Helvetica,sans-Serif" font-size="10.00">_offset</text>
</a>
</g>
</g>
<!-- Node1&#45;&gt;Node2 -->
<g id="edge1" class="edge">
<title>Node1&#45;&gt;Node2</title>
<path fill="none" stroke="midnightblue" d="M269.49,-15.5C261.41,-15.5 252.73,-15.5 244.11,-15.5"/>
<polygon fill="midnightblue" stroke="midnightblue" points="269.72,-19 279.72,-15.5 269.72,-12 269.72,-19"/>
</g>
<!-- Node3 -->
<g id="node3" class="node">
<title>Node3</title>
<g id="a_node3"><a xlink:href="tropSinex_8cpp.html#a2fb8fe8aceac5caf6ff006e3bd6635d4" target="_top" xlink:title="Write SITE/ID block.">
<polygon fill="white" stroke="red" points="0,-6 0,-25 83,-25 83,-6 0,-6"/>
<text text-anchor="middle" x="41.5" y="-13" font-family="Helvetica,sans-Serif" font-size="10.00">writeTropSiteId</text>
</a>
</g>
</g>
<!-- Node2&#45;&gt;Node3 -->
<g id="edge2" class="edge">
<title>Node2&#45;&gt;Node3</title>
<path fill="none" stroke="midnightblue" d="M108.56,-15.5C99.85,-15.5 91.21,-15.5 83.19,-15.5"/>
<polygon fill="midnightblue" stroke="midnightblue" points="108.77,-19 118.77,-15.5 108.77,-12 108.77,-19"/>
</g>
</g>
</svg>
