<?xml version="1.0" encoding="UTF-8" standalone="no"?>
<!DOCTYPE svg PUBLIC "-//W3C//DTD SVG 1.1//EN"
 "http://www.w3.org/Graphics/SVG/1.1/DTD/svg11.dtd">
<!-- Generated by graphviz version 2.50.0 (20220203.2022)
 -->
<!-- Title: egm96_compute_altitude_offset Pages: 1 -->
<svg width="310pt" height="142pt"
 viewBox="0.00 0.00 310.00 142.00" xmlns="http://www.w3.org/2000/svg" xmlns:xlink="http://www.w3.org/1999/xlink">
<g id="graph0" class="graph" transform="scale(1 1) rotate(0) translate(4 138)">
<title>egm96_compute_altitude_offset</title>
<polygon fill="white" stroke="transparent" points="-4,4 -4,-138 306,-138 306,4 -4,4"/>
<!-- Node1 -->
<g id="node1" class="node">
<title>Node1</title>
<g id="a_node1"><a xlink:title="Compute the geoid undulation from the EGM96 potential coefficient model, for a given latitude and lon...">
<polygon fill="#bfbfbf" stroke="black" points="0,-52 0,-82 125,-82 125,-52 0,-52"/>
<text text-anchor="start" x="8" y="-70" font-family="Helvetica,sans-Serif" font-size="10.00">egm96_compute_altitude</text>
<text text-anchor="middle" x="62.5" y="-59" font-family="Helvetica,sans-Serif" font-size="10.00">_offset</text>
</a>
</g>
</g>
<!-- Node2 -->
<g id="node2" class="node">
<title>Node2</title>
<g id="a_node2"><a xlink:href="EGM96_8c.html#abd569be3694acc812c754ffc05026d14" target="_top" xlink:title="Compute the geoid undulation from the EGM96 potential coefficient model, for a given latitude and lon...">
<polygon fill="white" stroke="black" points="161,-57.5 161,-76.5 222,-76.5 222,-57.5 161,-57.5"/>
<text text-anchor="middle" x="191.5" y="-64.5" font-family="Helvetica,sans-Serif" font-size="10.00">undulation</text>
</a>
</g>
</g>
<!-- Node1&#45;&gt;Node2 -->
<g id="edge1" class="edge">
<title>Node1&#45;&gt;Node2</title>
<path fill="none" stroke="midnightblue" d="M125.14,-67C133.75,-67 142.41,-67 150.48,-67"/>
<polygon fill="midnightblue" stroke="midnightblue" points="150.7,-70.5 160.7,-67 150.7,-63.5 150.7,-70.5"/>
</g>
<!-- Node3 -->
<g id="node3" class="node">
<title>Node3</title>
<g id="a_node3"><a xlink:href="EGM96_8c.html#a7b10c6becf3e8ad3f2d0312bbad9de56" target="_top" xlink:title=" ">
<polygon fill="white" stroke="black" points="258.5,-114.5 258.5,-133.5 301.5,-133.5 301.5,-114.5 258.5,-114.5"/>
<text text-anchor="middle" x="280" y="-121.5" font-family="Helvetica,sans-Serif" font-size="10.00">dscml</text>
</a>
</g>
</g>
<!-- Node2&#45;&gt;Node3 -->
<g id="edge2" class="edge">
<title>Node2&#45;&gt;Node3</title>
<path fill="none" stroke="midnightblue" d="M207.17,-76.67C220.55,-85.48 240.53,-98.65 256.02,-108.86"/>
<polygon fill="midnightblue" stroke="midnightblue" points="254.27,-111.89 264.54,-114.47 258.12,-106.05 254.27,-111.89"/>
</g>
<!-- Node4 -->
<g id="node4" class="node">
<title>Node4</title>
<g id="a_node4"><a xlink:href="EGM96_8c.html#aa316fb1f9f56faa7306373b790f28629" target="_top" xlink:title=" ">
<polygon fill="white" stroke="black" points="258.5,-76.5 258.5,-95.5 301.5,-95.5 301.5,-76.5 258.5,-76.5"/>
<text text-anchor="middle" x="280" y="-83.5" font-family="Helvetica,sans-Serif" font-size="10.00">hundu</text>
</a>
</g>
</g>
<!-- Node2&#45;&gt;Node4 -->
<g id="edge3" class="edge">
<title>Node2&#45;&gt;Node4</title>
<path fill="none" stroke="midnightblue" d="M222.27,-73.54C230.75,-75.4 239.99,-77.43 248.51,-79.3"/>
<polygon fill="midnightblue" stroke="midnightblue" points="247.92,-82.76 258.44,-81.48 249.43,-75.92 247.92,-82.76"/>
</g>
<!-- Node5 -->
<g id="node5" class="node">
<title>Node5</title>
<g id="a_node5"><a xlink:href="EGM96_8c.html#a8c85a3115be85a9f5e7b178634b5d837" target="_top" xlink:title=" ">
<polygon fill="white" stroke="black" points="258.5,-38.5 258.5,-57.5 301.5,-57.5 301.5,-38.5 258.5,-38.5"/>
<text text-anchor="middle" x="280" y="-45.5" font-family="Helvetica,sans-Serif" font-size="10.00">legfdn</text>
</a>
</g>
</g>
<!-- Node2&#45;&gt;Node5 -->
<g id="edge4" class="edge">
<title>Node2&#45;&gt;Node5</title>
<path fill="none" stroke="midnightblue" d="M222.27,-60.46C230.75,-58.6 239.99,-56.57 248.51,-54.7"/>
<polygon fill="midnightblue" stroke="midnightblue" points="249.43,-58.08 258.44,-52.52 247.92,-51.24 249.43,-58.08"/>
</g>
<!-- Node6 -->
<g id="node6" class="node">
<title>Node6</title>
<g id="a_node6"><a xlink:href="EGM96_8c.html#a9e3a8a3178041fc1a5f8a774ffa975a9" target="_top" xlink:title=" ">
<polygon fill="white" stroke="black" points="258,-0.5 258,-19.5 302,-19.5 302,-0.5 258,-0.5"/>
<text text-anchor="middle" x="280" y="-7.5" font-family="Helvetica,sans-Serif" font-size="10.00">radgra</text>
</a>
</g>
</g>
<!-- Node2&#45;&gt;Node6 -->
<g id="edge5" class="edge">
<title>Node2&#45;&gt;Node6</title>
<path fill="none" stroke="midnightblue" d="M207.17,-57.33C220.55,-48.52 240.53,-35.35 256.02,-25.14"/>
<polygon fill="midnightblue" stroke="midnightblue" points="258.12,-27.95 264.54,-19.53 254.27,-22.11 258.12,-27.95"/>
</g>
</g>
</svg>
