<?xml version="1.0" encoding="UTF-8" standalone="no"?>
<!DOCTYPE svg PUBLIC "-//W3C//DTD SVG 1.1//EN"
 "http://www.w3.org/Graphics/SVG/1.1/DTD/svg11.dtd">
<!-- Generated by graphviz version 2.50.0 (20220203.2022)
 -->
<!-- Title: eop_finals2000a Pages: 1 -->
<svg width="303pt" height="104pt"
 viewBox="0.00 0.00 303.00 104.00" xmlns="http://www.w3.org/2000/svg" xmlns:xlink="http://www.w3.org/1999/xlink">
<g id="graph0" class="graph" transform="scale(1 1) rotate(0) translate(4 100)">
<title>eop_finals2000a</title>
<polygon fill="white" stroke="transparent" points="-4,4 -4,-100 299,-100 299,4 -4,4"/>
<!-- Node1 -->
<g id="node1" class="node">
<title>Node1</title>
<g id="a_node1"><a xlink:title=" ">
<polygon fill="#bfbfbf" stroke="black" points="0,-19.5 0,-38.5 86,-38.5 86,-19.5 0,-19.5"/>
<text text-anchor="middle" x="43" y="-26.5" font-family="Helvetica,sans-Serif" font-size="10.00">eop_finals2000a</text>
</a>
</g>
</g>
<!-- Node2 -->
<g id="node2" class="node">
<title>Node2</title>
<g id="a_node2"><a xlink:href="EOP_8f90.html#ae7a3de1bf2c72753f2eeb8e05d63f962" target="_top" xlink:title=" ">
<polygon fill="white" stroke="black" points="122.5,-38.5 122.5,-57.5 154.5,-57.5 154.5,-38.5 122.5,-38.5"/>
<text text-anchor="middle" x="138.5" y="-45.5" font-family="Helvetica,sans-Serif" font-size="10.00">eop</text>
</a>
</g>
</g>
<!-- Node1&#45;&gt;Node2 -->
<g id="edge1" class="edge">
<title>Node1&#45;&gt;Node2</title>
<path fill="none" stroke="midnightblue" d="M86.1,-37.56C95.13,-39.39 104.4,-41.27 112.53,-42.93"/>
<polygon fill="midnightblue" stroke="midnightblue" points="111.96,-46.38 122.46,-44.94 113.35,-39.52 111.96,-46.38"/>
</g>
<!-- Node36 -->
<g id="node6" class="node">
<title>Node36</title>
<g id="a_node6"><a xlink:href="sinex_8cpp.html#a06fabc81a2cc41dfee260450a527ad2d" target="_top" xlink:title=" ">
<polygon fill="white" stroke="black" points="122,-0.5 122,-19.5 155,-19.5 155,-0.5 122,-0.5"/>
<text text-anchor="middle" x="138.5" y="-7.5" font-family="Helvetica,sans-Serif" font-size="10.00">trim</text>
</a>
</g>
</g>
<!-- Node1&#45;&gt;Node36 -->
<g id="edge5" class="edge">
<title>Node1&#45;&gt;Node36</title>
<path fill="none" stroke="midnightblue" d="M86.1,-20.44C94.76,-18.68 103.64,-16.88 111.53,-15.28"/>
<polygon fill="midnightblue" stroke="midnightblue" points="112.46,-18.66 121.56,-13.24 111.06,-11.8 112.46,-18.66"/>
</g>
<!-- Node3 -->
<g id="node3" class="node">
<title>Node3</title>
<g id="a_node3"><a xlink:href="crs__trs_8f90.html#ad60041f94ed21d7dccece31ca956443c" target="_top" xlink:title=" ">
<polygon fill="white" stroke="red" points="219.5,-76.5 219.5,-95.5 266.5,-95.5 266.5,-76.5 219.5,-76.5"/>
<text text-anchor="middle" x="243" y="-83.5" font-family="Helvetica,sans-Serif" font-size="10.00">crs_trs</text>
</a>
</g>
</g>
<!-- Node2&#45;&gt;Node3 -->
<g id="edge2" class="edge">
<title>Node2&#45;&gt;Node3</title>
<path fill="none" stroke="midnightblue" d="M154.62,-53.61C169.07,-58.96 191.3,-67.2 209.73,-74.04"/>
<polygon fill="midnightblue" stroke="midnightblue" points="208.63,-77.36 219.22,-77.56 211.06,-70.8 208.63,-77.36"/>
</g>
<!-- Node29 -->
<g id="node4" class="node">
<title>Node29</title>
<g id="a_node4"><a xlink:href="namespacem__eop__cor.html#af1a58e51cefaf1a8f938020cd41f03ec" target="_top" xlink:title=" ">
<polygon fill="white" stroke="red" points="191,-38.5 191,-57.5 295,-57.5 295,-38.5 191,-38.5"/>
<text text-anchor="middle" x="243" y="-45.5" font-family="Helvetica,sans-Serif" font-size="10.00">m_eop_cor::eop_cor</text>
</a>
</g>
</g>
<!-- Node2&#45;&gt;Node29 -->
<g id="edge3" class="edge">
<title>Node2&#45;&gt;Node29</title>
<path fill="none" stroke="midnightblue" d="M154.62,-48C161.82,-48 170.94,-48 180.56,-48"/>
<polygon fill="midnightblue" stroke="midnightblue" points="180.71,-51.5 190.71,-48 180.71,-44.5 180.71,-51.5"/>
</g>
<!-- Node34 -->
<g id="node5" class="node">
<title>Node34</title>
<g id="a_node5"><a xlink:href="namespacem__eop__igu.html#a87fff80e2ab805d1c8b484f4d8760c06" target="_top" xlink:title=" ">
<polygon fill="white" stroke="red" points="192,-0.5 192,-19.5 294,-19.5 294,-0.5 192,-0.5"/>
<text text-anchor="middle" x="243" y="-7.5" font-family="Helvetica,sans-Serif" font-size="10.00">m_eop_igu::eop_igu</text>
</a>
</g>
</g>
<!-- Node2&#45;&gt;Node34 -->
<g id="edge4" class="edge">
<title>Node2&#45;&gt;Node34</title>
<path fill="none" stroke="midnightblue" d="M154.62,-42.39C168.25,-37.34 188.81,-29.72 206.56,-23.14"/>
<polygon fill="midnightblue" stroke="midnightblue" points="207.91,-26.37 216.07,-19.61 205.48,-19.81 207.91,-26.37"/>
</g>
</g>
</svg>
