<?xml version="1.0" encoding="UTF-8" standalone="no"?>
<!DOCTYPE svg PUBLIC "-//W3C//DTD SVG 1.1//EN"
 "http://www.w3.org/Graphics/SVG/1.1/DTD/svg11.dtd">
<!-- Generated by graphviz version 2.50.0 (20220203.2022)
 -->
<!-- Title: eop_rd Pages: 1 -->
<svg width="385pt" height="104pt"
 viewBox="0.00 0.00 385.00 104.00" xmlns="http://www.w3.org/2000/svg" xmlns:xlink="http://www.w3.org/1999/xlink">
<g id="graph0" class="graph" transform="scale(1 1) rotate(0) translate(4 100)">
<title>eop_rd</title>
<polygon fill="white" stroke="transparent" points="-4,4 -4,-100 381,-100 381,4 -4,4"/>
<!-- Node1 -->
<g id="node1" class="node">
<title>Node1</title>
<g id="a_node1"><a xlink:title=" ">
<polygon fill="#bfbfbf" stroke="black" points="0,-38.5 0,-57.5 46,-57.5 46,-38.5 0,-38.5"/>
<text text-anchor="middle" x="23" y="-45.5" font-family="Helvetica,sans-Serif" font-size="10.00">eop_rd</text>
</a>
</g>
</g>
<!-- Node2 -->
<g id="node2" class="node">
<title>Node2</title>
<g id="a_node2"><a xlink:href="EOP_8f90.html#ae7a3de1bf2c72753f2eeb8e05d63f962" target="_top" xlink:title=" ">
<polygon fill="white" stroke="black" points="204.5,-38.5 204.5,-57.5 236.5,-57.5 236.5,-38.5 204.5,-38.5"/>
<text text-anchor="middle" x="220.5" y="-45.5" font-family="Helvetica,sans-Serif" font-size="10.00">eop</text>
</a>
</g>
</g>
<!-- Node1&#45;&gt;Node2 -->
<g id="edge1" class="edge">
<title>Node1&#45;&gt;Node2</title>
<path fill="none" stroke="midnightblue" d="M46.18,-57.09C56.82,-60.98 69.86,-65.06 82,-67 119.74,-73.02 130.37,-73.72 168,-67 176.94,-65.4 186.35,-62.36 194.66,-59.18"/>
<polygon fill="midnightblue" stroke="midnightblue" points="196.2,-62.33 204.12,-55.3 193.54,-55.85 196.2,-62.33"/>
</g>
<!-- Node38 -->
<g id="node6" class="node">
<title>Node38</title>
<g id="a_node6"><a xlink:href="eop__c04_8f90.html#a34bd76d884570241edddcff0887b7918" target="_top" xlink:title=" ">
<polygon fill="white" stroke="black" points="98.5,-0.5 98.5,-19.5 151.5,-19.5 151.5,-0.5 98.5,-0.5"/>
<text text-anchor="middle" x="125" y="-7.5" font-family="Helvetica,sans-Serif" font-size="10.00">eop_c04</text>
</a>
</g>
</g>
<!-- Node1&#45;&gt;Node38 -->
<g id="edge5" class="edge">
<title>Node1&#45;&gt;Node38</title>
<path fill="none" stroke="midnightblue" d="M46.19,-39.57C58.82,-34.77 74.91,-28.66 89.17,-23.23"/>
<polygon fill="midnightblue" stroke="midnightblue" points="90.59,-26.44 98.7,-19.62 88.11,-19.9 90.59,-26.44"/>
</g>
<!-- Node39 -->
<g id="node8" class="node">
<title>Node39</title>
<g id="a_node8"><a xlink:href="eop__finals2000A_8f90.html#a091868f9644b2756bb9453a98b5045b2" target="_top" xlink:title=" ">
<polygon fill="white" stroke="black" points="82,-38.5 82,-57.5 168,-57.5 168,-38.5 82,-38.5"/>
<text text-anchor="middle" x="125" y="-45.5" font-family="Helvetica,sans-Serif" font-size="10.00">eop_finals2000a</text>
</a>
</g>
</g>
<!-- Node1&#45;&gt;Node39 -->
<g id="edge8" class="edge">
<title>Node1&#45;&gt;Node39</title>
<path fill="none" stroke="midnightblue" d="M46.19,-48C53.8,-48 62.67,-48 71.64,-48"/>
<polygon fill="midnightblue" stroke="midnightblue" points="71.75,-51.5 81.75,-48 71.75,-44.5 71.75,-51.5"/>
</g>
<!-- Node3 -->
<g id="node3" class="node">
<title>Node3</title>
<g id="a_node3"><a xlink:href="crs__trs_8f90.html#ad60041f94ed21d7dccece31ca956443c" target="_top" xlink:title=" ">
<polygon fill="white" stroke="red" points="301.5,-76.5 301.5,-95.5 348.5,-95.5 348.5,-76.5 301.5,-76.5"/>
<text text-anchor="middle" x="325" y="-83.5" font-family="Helvetica,sans-Serif" font-size="10.00">crs_trs</text>
</a>
</g>
</g>
<!-- Node2&#45;&gt;Node3 -->
<g id="edge2" class="edge">
<title>Node2&#45;&gt;Node3</title>
<path fill="none" stroke="midnightblue" d="M236.62,-53.61C251.07,-58.96 273.3,-67.2 291.73,-74.04"/>
<polygon fill="midnightblue" stroke="midnightblue" points="290.63,-77.36 301.22,-77.56 293.06,-70.8 290.63,-77.36"/>
</g>
<!-- Node29 -->
<g id="node4" class="node">
<title>Node29</title>
<g id="a_node4"><a xlink:href="namespacem__eop__cor.html#af1a58e51cefaf1a8f938020cd41f03ec" target="_top" xlink:title=" ">
<polygon fill="white" stroke="red" points="273,-38.5 273,-57.5 377,-57.5 377,-38.5 273,-38.5"/>
<text text-anchor="middle" x="325" y="-45.5" font-family="Helvetica,sans-Serif" font-size="10.00">m_eop_cor::eop_cor</text>
</a>
</g>
</g>
<!-- Node2&#45;&gt;Node29 -->
<g id="edge3" class="edge">
<title>Node2&#45;&gt;Node29</title>
<path fill="none" stroke="midnightblue" d="M236.62,-48C243.82,-48 252.94,-48 262.56,-48"/>
<polygon fill="midnightblue" stroke="midnightblue" points="262.71,-51.5 272.71,-48 262.71,-44.5 262.71,-51.5"/>
</g>
<!-- Node34 -->
<g id="node5" class="node">
<title>Node34</title>
<g id="a_node5"><a xlink:href="namespacem__eop__igu.html#a87fff80e2ab805d1c8b484f4d8760c06" target="_top" xlink:title=" ">
<polygon fill="white" stroke="red" points="274,-0.5 274,-19.5 376,-19.5 376,-0.5 274,-0.5"/>
<text text-anchor="middle" x="325" y="-7.5" font-family="Helvetica,sans-Serif" font-size="10.00">m_eop_igu::eop_igu</text>
</a>
</g>
</g>
<!-- Node2&#45;&gt;Node34 -->
<g id="edge4" class="edge">
<title>Node2&#45;&gt;Node34</title>
<path fill="none" stroke="midnightblue" d="M236.62,-42.39C250.25,-37.34 270.81,-29.72 288.56,-23.14"/>
<polygon fill="midnightblue" stroke="midnightblue" points="289.91,-26.37 298.07,-19.61 287.48,-19.81 289.91,-26.37"/>
</g>
<!-- Node38&#45;&gt;Node2 -->
<g id="edge6" class="edge">
<title>Node38&#45;&gt;Node2</title>
<path fill="none" stroke="midnightblue" d="M149.59,-19.59C163.44,-25.22 180.9,-32.31 194.92,-38.01"/>
<polygon fill="midnightblue" stroke="midnightblue" points="193.82,-41.34 204.41,-41.87 196.46,-34.86 193.82,-41.34"/>
</g>
<!-- Node36 -->
<g id="node7" class="node">
<title>Node36</title>
<g id="a_node7"><a xlink:href="sinex_8cpp.html#a06fabc81a2cc41dfee260450a527ad2d" target="_top" xlink:title=" ">
<polygon fill="white" stroke="black" points="204,-0.5 204,-19.5 237,-19.5 237,-0.5 204,-0.5"/>
<text text-anchor="middle" x="220.5" y="-7.5" font-family="Helvetica,sans-Serif" font-size="10.00">trim</text>
</a>
</g>
</g>
<!-- Node38&#45;&gt;Node36 -->
<g id="edge7" class="edge">
<title>Node38&#45;&gt;Node36</title>
<path fill="none" stroke="midnightblue" d="M151.55,-10C164.64,-10 180.55,-10 193.69,-10"/>
<polygon fill="midnightblue" stroke="midnightblue" points="193.94,-13.5 203.94,-10 193.94,-6.5 193.94,-13.5"/>
</g>
<!-- Node39&#45;&gt;Node2 -->
<g id="edge9" class="edge">
<title>Node39&#45;&gt;Node2</title>
<path fill="none" stroke="midnightblue" d="M168.1,-48C177.03,-48 186.19,-48 194.26,-48"/>
<polygon fill="midnightblue" stroke="midnightblue" points="194.46,-51.5 204.46,-48 194.46,-44.5 194.46,-51.5"/>
</g>
<!-- Node39&#45;&gt;Node36 -->
<g id="edge10" class="edge">
<title>Node39&#45;&gt;Node36</title>
<path fill="none" stroke="midnightblue" d="M149.59,-38.41C163.26,-32.86 180.47,-25.86 194.39,-20.21"/>
<polygon fill="midnightblue" stroke="midnightblue" points="195.9,-23.37 203.84,-16.36 193.26,-16.89 195.9,-23.37"/>
</g>
</g>
</svg>
