<?xml version="1.0" encoding="UTF-8" standalone="no"?>
<!DOCTYPE svg PUBLIC "-//W3C//DTD SVG 1.1//EN"
 "http://www.w3.org/Graphics/SVG/1.1/DTD/svg11.dtd">
<!-- Generated by graphviz version 2.50.0 (20220203.2022)
 -->
<!-- Title: eop_c04 Pages: 1 -->
<svg width="293pt" height="104pt"
 viewBox="0.00 0.00 293.00 104.00" xmlns="http://www.w3.org/2000/svg" xmlns:xlink="http://www.w3.org/1999/xlink">
<g id="graph0" class="graph" transform="scale(1 1) rotate(0) translate(4 100)">
<title>eop_c04</title>
<polygon fill="white" stroke="transparent" points="-4,4 -4,-100 289,-100 289,4 -4,4"/>
<!-- Node1 -->
<g id="node1" class="node">
<title>Node1</title>
<g id="a_node1"><a xlink:title=" ">
<polygon fill="#bfbfbf" stroke="black" points="232,-38.5 232,-57.5 285,-57.5 285,-38.5 232,-38.5"/>
<text text-anchor="middle" x="258.5" y="-45.5" font-family="Helvetica,sans-Serif" font-size="10.00">eop_c04</text>
</a>
</g>
</g>
<!-- Node2 -->
<g id="node2" class="node">
<title>Node2</title>
<g id="a_node2"><a xlink:href="eop__rd_8f90.html#a1baa1d841357dc20b9a5fd6f9de799b6" target="_top" xlink:title=" ">
<polygon fill="white" stroke="black" points="150,-38.5 150,-57.5 196,-57.5 196,-38.5 150,-38.5"/>
<text text-anchor="middle" x="173" y="-45.5" font-family="Helvetica,sans-Serif" font-size="10.00">eop_rd</text>
</a>
</g>
</g>
<!-- Node1&#45;&gt;Node2 -->
<g id="edge1" class="edge">
<title>Node1&#45;&gt;Node2</title>
<path fill="none" stroke="midnightblue" d="M221.72,-48C213.07,-48 204.06,-48 196.24,-48"/>
<polygon fill="midnightblue" stroke="midnightblue" points="221.99,-51.5 231.99,-48 221.99,-44.5 221.99,-51.5"/>
</g>
<!-- Node3 -->
<g id="node3" class="node">
<title>Node3</title>
<g id="a_node3"><a xlink:href="namespacem__eop__data.html#a3f9f046171f91909e4504b8cec7586bd" target="_top" xlink:title=" ">
<polygon fill="white" stroke="red" points="0,-76.5 0,-95.5 114,-95.5 114,-76.5 0,-76.5"/>
<text text-anchor="middle" x="57" y="-83.5" font-family="Helvetica,sans-Serif" font-size="10.00">m_eop_data::eop_data</text>
</a>
</g>
</g>
<!-- Node2&#45;&gt;Node3 -->
<g id="edge2" class="edge">
<title>Node2&#45;&gt;Node3</title>
<path fill="none" stroke="midnightblue" d="M139.87,-58.71C123.15,-64.28 102.87,-71.04 86.69,-76.44"/>
<polygon fill="midnightblue" stroke="midnightblue" points="141.37,-61.9 149.75,-55.42 139.16,-55.26 141.37,-61.9"/>
</g>
<!-- Node10 -->
<g id="node4" class="node">
<title>Node10</title>
<g id="a_node4"><a xlink:href="eop__interp_8f90.html#a99405e09ce42c947285a64fe98058086" target="_top" xlink:title=" ">
<polygon fill="white" stroke="black" points="26,-38.5 26,-57.5 88,-57.5 88,-38.5 26,-38.5"/>
<text text-anchor="middle" x="57" y="-45.5" font-family="Helvetica,sans-Serif" font-size="10.00">eop_interp</text>
</a>
</g>
</g>
<!-- Node2&#45;&gt;Node10 -->
<g id="edge3" class="edge">
<title>Node2&#45;&gt;Node10</title>
<path fill="none" stroke="midnightblue" d="M139.71,-48C123.6,-48 104.23,-48 88.39,-48"/>
<polygon fill="midnightblue" stroke="midnightblue" points="139.75,-51.5 149.75,-48 139.75,-44.5 139.75,-51.5"/>
</g>
<!-- Node11 -->
<g id="node5" class="node">
<title>Node11</title>
<g id="a_node5"><a xlink:href="main__brdcorbit_8f90.html#a34cbfb6f2004478de868a894a67a8b30" target="_top" xlink:title=" ">
<polygon fill="white" stroke="black" points="17,-0.5 17,-19.5 97,-19.5 97,-0.5 17,-0.5"/>
<text text-anchor="middle" x="57" y="-7.5" font-family="Helvetica,sans-Serif" font-size="10.00">main_brdcorbit</text>
</a>
</g>
</g>
<!-- Node2&#45;&gt;Node11 -->
<g id="edge4" class="edge">
<title>Node2&#45;&gt;Node11</title>
<path fill="none" stroke="midnightblue" d="M139.87,-37.29C123.15,-31.72 102.87,-24.96 86.69,-19.56"/>
<polygon fill="midnightblue" stroke="midnightblue" points="139.16,-40.74 149.75,-40.58 141.37,-34.1 139.16,-40.74"/>
</g>
</g>
</svg>
