<?xml version="1.0" encoding="UTF-8" standalone="no"?>
<!DOCTYPE svg PUBLIC "-//W3C//DTD SVG 1.1//EN"
 "http://www.w3.org/Graphics/SVG/1.1/DTD/svg11.dtd">
<!-- Generated by graphviz version 2.50.0 (20220203.2022)
 -->
<!-- Title: eop_cor2 Pages: 1 -->
<svg width="255pt" height="199pt"
 viewBox="0.00 0.00 255.00 199.00" xmlns="http://www.w3.org/2000/svg" xmlns:xlink="http://www.w3.org/1999/xlink">
<g id="graph0" class="graph" transform="scale(1 1) rotate(0) translate(4 195)">
<title>eop_cor2</title>
<polygon fill="white" stroke="transparent" points="-4,4 -4,-195 251,-195 251,4 -4,4"/>
<!-- Node1 -->
<g id="node1" class="node">
<title>Node1</title>
<g id="a_node1"><a xlink:title=" ">
<polygon fill="#bfbfbf" stroke="black" points="0,-95.5 0,-114.5 56,-114.5 56,-95.5 0,-95.5"/>
<text text-anchor="middle" x="28" y="-102.5" font-family="Helvetica,sans-Serif" font-size="10.00">eop_cor2</text>
</a>
</g>
</g>
<!-- Node2 -->
<g id="node2" class="node">
<title>Node2</title>
<g id="a_node2"><a xlink:href="ORTHO__EOP_8F.html#a7f5c44fe38d82af14db305c6d3824ab2" target="_top" xlink:title=" ">
<polygon fill="white" stroke="black" points="92,-171.5 92,-190.5 151,-190.5 151,-171.5 92,-171.5"/>
<text text-anchor="middle" x="121.5" y="-178.5" font-family="Helvetica,sans-Serif" font-size="10.00">ortho_eop</text>
</a>
</g>
</g>
<!-- Node1&#45;&gt;Node2 -->
<g id="edge1" class="edge">
<title>Node1&#45;&gt;Node2</title>
<path fill="none" stroke="midnightblue" d="M38.85,-114.76C50.93,-126.51 72.22,-146.59 92,-162 93.55,-163.21 95.17,-164.42 96.82,-165.61"/>
<polygon fill="midnightblue" stroke="midnightblue" points="94.91,-168.54 105.12,-171.35 98.89,-162.78 94.91,-168.54"/>
</g>
<!-- Node4 -->
<g id="node4" class="node">
<title>Node4</title>
<g id="a_node4"><a xlink:href="PMSDNUT2_8F.html#a47b978e4f192ae6c811f2ab17646d25b" target="_top" xlink:title=" ">
<polygon fill="white" stroke="black" points="92,-133.5 92,-152.5 151,-152.5 151,-133.5 92,-133.5"/>
<text text-anchor="middle" x="121.5" y="-140.5" font-family="Helvetica,sans-Serif" font-size="10.00">pmsdnut2</text>
</a>
</g>
</g>
<!-- Node1&#45;&gt;Node4 -->
<g id="edge3" class="edge">
<title>Node1&#45;&gt;Node4</title>
<path fill="none" stroke="midnightblue" d="M52.09,-114.59C62.93,-119.09 76.03,-124.53 87.86,-129.44"/>
<polygon fill="midnightblue" stroke="midnightblue" points="86.84,-132.81 97.42,-133.41 89.53,-126.35 86.84,-132.81"/>
</g>
<!-- Node6 -->
<g id="node6" class="node">
<title>Node6</title>
<g id="a_node6"><a xlink:href="RG__ZONT2_8F.html#ace7a7940fda3e8f1394c42c962f6c915" target="_top" xlink:title=" ">
<polygon fill="white" stroke="black" points="95,-95.5 95,-114.5 148,-114.5 148,-95.5 95,-95.5"/>
<text text-anchor="middle" x="121.5" y="-102.5" font-family="Helvetica,sans-Serif" font-size="10.00">rg_zont2</text>
</a>
</g>
</g>
<!-- Node1&#45;&gt;Node6 -->
<g id="edge5" class="edge">
<title>Node1&#45;&gt;Node6</title>
<path fill="none" stroke="midnightblue" d="M56.45,-105C65.33,-105 75.3,-105 84.69,-105"/>
<polygon fill="midnightblue" stroke="midnightblue" points="84.94,-108.5 94.94,-105 84.94,-101.5 84.94,-108.5"/>
</g>
<!-- Node7 -->
<g id="node7" class="node">
<title>Node7</title>
<g id="a_node7"><a xlink:href="time__TT_8f90.html#aac4be73ca07f0d71843391b034a7d20e" target="_top" xlink:title=" ">
<polygon fill="white" stroke="black" points="98,-19.5 98,-38.5 145,-38.5 145,-19.5 98,-19.5"/>
<text text-anchor="middle" x="121.5" y="-26.5" font-family="Helvetica,sans-Serif" font-size="10.00">time_tt</text>
</a>
</g>
</g>
<!-- Node1&#45;&gt;Node7 -->
<g id="edge7" class="edge">
<title>Node1&#45;&gt;Node7</title>
<path fill="none" stroke="midnightblue" d="M38.85,-95.24C50.93,-83.49 72.22,-63.41 92,-48 93.55,-46.79 95.17,-45.58 96.82,-44.39"/>
<polygon fill="midnightblue" stroke="midnightblue" points="98.89,-47.22 105.12,-38.65 94.91,-41.46 98.89,-47.22"/>
</g>
<!-- Node11 -->
<g id="node10" class="node">
<title>Node11</title>
<g id="a_node10"><a xlink:href="interp__iers_8f.html#a6ec42e8f422b67a92d2f25a46cccc395" target="_top" xlink:title=" ">
<polygon fill="white" stroke="black" points="102.5,-57.5 102.5,-76.5 140.5,-76.5 140.5,-57.5 102.5,-57.5"/>
<text text-anchor="middle" x="121.5" y="-64.5" font-family="Helvetica,sans-Serif" font-size="10.00">utlibr</text>
</a>
</g>
</g>
<!-- Node1&#45;&gt;Node11 -->
<g id="edge10" class="edge">
<title>Node1&#45;&gt;Node11</title>
<path fill="none" stroke="midnightblue" d="M52.09,-95.41C64.49,-90.26 79.87,-83.87 92.9,-78.46"/>
<polygon fill="midnightblue" stroke="midnightblue" points="94.43,-81.62 102.32,-74.55 91.74,-75.15 94.43,-81.62"/>
</g>
<!-- Node3 -->
<g id="node3" class="node">
<title>Node3</title>
<g id="a_node3"><a xlink:href="CNMTX_8F.html#a365dc7f593da1dc8441f3a1ed72a761f" target="_top" xlink:title=" ">
<polygon fill="white" stroke="black" points="195.5,-171.5 195.5,-190.5 238.5,-190.5 238.5,-171.5 195.5,-171.5"/>
<text text-anchor="middle" x="217" y="-178.5" font-family="Helvetica,sans-Serif" font-size="10.00">cnmtx</text>
</a>
</g>
</g>
<!-- Node2&#45;&gt;Node3 -->
<g id="edge2" class="edge">
<title>Node2&#45;&gt;Node3</title>
<path fill="none" stroke="midnightblue" d="M151.06,-181C161.89,-181 174.25,-181 185.27,-181"/>
<polygon fill="midnightblue" stroke="midnightblue" points="185.33,-184.5 195.33,-181 185.33,-177.5 185.33,-184.5"/>
</g>
<!-- Node5 -->
<g id="node5" class="node">
<title>Node5</title>
<g id="a_node5"><a xlink:href="FUNDARG_8F.html#a23432f9f5c8f22a8fbe43543822c0762" target="_top" xlink:title=" ">
<polygon fill="white" stroke="black" points="192.5,-95.5 192.5,-114.5 241.5,-114.5 241.5,-95.5 192.5,-95.5"/>
<text text-anchor="middle" x="217" y="-102.5" font-family="Helvetica,sans-Serif" font-size="10.00">fundarg</text>
</a>
</g>
</g>
<!-- Node4&#45;&gt;Node5 -->
<g id="edge4" class="edge">
<title>Node4&#45;&gt;Node5</title>
<path fill="none" stroke="midnightblue" d="M146.09,-133.41C157.28,-128.87 170.83,-123.36 183.01,-118.41"/>
<polygon fill="midnightblue" stroke="midnightblue" points="184.47,-121.59 192.41,-114.59 181.83,-115.11 184.47,-121.59"/>
</g>
<!-- Node6&#45;&gt;Node5 -->
<g id="edge6" class="edge">
<title>Node6&#45;&gt;Node5</title>
<path fill="none" stroke="midnightblue" d="M148.05,-105C158.54,-105 170.83,-105 182.06,-105"/>
<polygon fill="midnightblue" stroke="midnightblue" points="182.41,-108.5 192.41,-105 182.41,-101.5 182.41,-108.5"/>
</g>
<!-- Node8 -->
<g id="node8" class="node">
<title>Node8</title>
<g id="a_node8"><a xlink:href="jd2cal_8for.html#a9bed91282551283d85294092fe0cc509" target="_top" xlink:title=" ">
<polygon fill="white" stroke="black" points="187,-38.5 187,-57.5 247,-57.5 247,-38.5 187,-38.5"/>
<text text-anchor="middle" x="217" y="-45.5" font-family="Helvetica,sans-Serif" font-size="10.00">iau_jd2cal</text>
</a>
</g>
</g>
<!-- Node7&#45;&gt;Node8 -->
<g id="edge8" class="edge">
<title>Node7&#45;&gt;Node8</title>
<path fill="none" stroke="midnightblue" d="M145.13,-33.6C154.64,-35.53 165.97,-37.83 176.75,-40.02"/>
<polygon fill="midnightblue" stroke="midnightblue" points="176.35,-43.51 186.85,-42.08 177.75,-36.65 176.35,-43.51"/>
</g>
<!-- Node9 -->
<g id="node9" class="node">
<title>Node9</title>
<g id="a_node9"><a xlink:href="taiutc_8for.html#a86edd73f696a0968f1600df656bad920" target="_top" xlink:title=" ">
<polygon fill="white" stroke="red" points="196.5,-0.5 196.5,-19.5 237.5,-19.5 237.5,-0.5 196.5,-0.5"/>
<text text-anchor="middle" x="217" y="-7.5" font-family="Helvetica,sans-Serif" font-size="10.00">taiutc</text>
</a>
</g>
</g>
<!-- Node7&#45;&gt;Node9 -->
<g id="edge9" class="edge">
<title>Node7&#45;&gt;Node9</title>
<path fill="none" stroke="midnightblue" d="M145.13,-24.4C157.5,-21.89 172.97,-18.74 186.3,-16.04"/>
<polygon fill="midnightblue" stroke="midnightblue" points="187.32,-19.4 196.42,-13.98 185.93,-12.54 187.32,-19.4"/>
</g>
<!-- Node11&#45;&gt;Node5 -->
<g id="edge11" class="edge">
<title>Node11&#45;&gt;Node5</title>
<path fill="none" stroke="midnightblue" d="M140.53,-74.33C152.51,-79.2 168.61,-85.74 182.86,-91.53"/>
<polygon fill="midnightblue" stroke="midnightblue" points="181.78,-94.87 192.36,-95.39 184.41,-88.38 181.78,-94.87"/>
</g>
</g>
</svg>
