<?xml version="1.0" encoding="UTF-8" standalone="no"?>
<!DOCTYPE svg PUBLIC "-//W3C//DTD SVG 1.1//EN"
 "http://www.w3.org/Graphics/SVG/1.1/DTD/svg11.dtd">
<!-- Generated by graphviz version 2.50.0 (20220203.2022)
 -->
<!-- Title: seleph&lt; Geph &gt; Pages: 1 -->
<svg width="491pt" height="180pt"
 viewBox="0.00 0.00 491.00 180.00" xmlns="http://www.w3.org/2000/svg" xmlns:xlink="http://www.w3.org/1999/xlink">
<g id="graph0" class="graph" transform="scale(1 1) rotate(0) translate(4 176)">
<title>seleph&lt; Geph &gt;</title>
<polygon fill="white" stroke="transparent" points="-4,4 -4,-176 487,-176 487,4 -4,4"/>
<!-- Node1 -->
<g id="node1" class="node">
<title>Node1</title>
<g id="a_node1"><a xlink:title=" ">
<polygon fill="#bfbfbf" stroke="black" points="398,-38.5 398,-57.5 483,-57.5 483,-38.5 398,-38.5"/>
<text text-anchor="middle" x="440.5" y="-45.5" font-family="Helvetica,sans-Serif" font-size="10.00">seleph&lt; Geph &gt;</text>
</a>
</g>
</g>
<!-- Node2 -->
<g id="node2" class="node">
<title>Node2</title>
<g id="a_node2"><a xlink:href="main_8cpp.html#a5cb00ded83c966f68284b841c381d1f0" target="_top" xlink:title=" ">
<polygon fill="white" stroke="black" points="267.5,-0.5 267.5,-19.5 349.5,-19.5 349.5,-0.5 267.5,-0.5"/>
<text text-anchor="middle" x="308.5" y="-7.5" font-family="Helvetica,sans-Serif" font-size="10.00">avoidCollisions</text>
</a>
</g>
</g>
<!-- Node1&#45;&gt;Node2 -->
<g id="edge1" class="edge">
<title>Node1&#45;&gt;Node2</title>
<path fill="none" stroke="midnightblue" d="M396.62,-35.46C378.93,-30.3 358.77,-24.4 342.29,-19.59"/>
<polygon fill="midnightblue" stroke="midnightblue" points="396.12,-38.96 406.7,-38.41 398.08,-32.25 396.12,-38.96"/>
</g>
<!-- Node4 -->
<g id="node4" class="node">
<title>Node4</title>
<g id="a_node4"><a xlink:href="ephemeris_8cpp.html#ab387654b0425d2c50b5b539400e122d1" target="_top" xlink:title=" ">
<polygon fill="white" stroke="black" points="284.5,-95.5 284.5,-114.5 332.5,-114.5 332.5,-95.5 284.5,-95.5"/>
<text text-anchor="middle" x="308.5" y="-102.5" font-family="Helvetica,sans-Serif" font-size="10.00">ephpos</text>
</a>
</g>
</g>
<!-- Node1&#45;&gt;Node4 -->
<g id="edge3" class="edge">
<title>Node1&#45;&gt;Node4</title>
<path fill="none" stroke="midnightblue" d="M408.44,-61.62C384.66,-72.05 352.45,-86.17 331.33,-95.43"/>
<polygon fill="midnightblue" stroke="midnightblue" points="409.99,-64.76 417.74,-57.54 407.18,-58.35 409.99,-64.76"/>
</g>
<!-- Node26 -->
<g id="node8" class="node">
<title>Node26</title>
<g id="a_node8"><a xlink:href="rinexNavWrite_8cpp.html#adcdc6b6fa739eb37d934e1cc51f45d5a" target="_top" xlink:title=" ">
<polygon fill="white" stroke="black" points="255,-38.5 255,-57.5 362,-57.5 362,-38.5 255,-38.5"/>
<text text-anchor="middle" x="308.5" y="-45.5" font-family="Helvetica,sans-Serif" font-size="10.00">outputNavRinexBody</text>
</a>
</g>
</g>
<!-- Node1&#45;&gt;Node26 -->
<g id="edge8" class="edge">
<title>Node1&#45;&gt;Node26</title>
<path fill="none" stroke="midnightblue" d="M387.64,-48C379.27,-48 370.61,-48 362.22,-48"/>
<polygon fill="midnightblue" stroke="midnightblue" points="387.65,-51.5 397.65,-48 387.65,-44.5 387.65,-51.5"/>
</g>
<!-- Node3 -->
<g id="node3" class="node">
<title>Node3</title>
<g id="a_node3"><a xlink:href="main_8cpp.html#a30c68344d30ddfe1e926f8472b86f094" target="_top" xlink:title=" ">
<polygon fill="white" stroke="black" points="0,-19.5 0,-38.5 103,-38.5 103,-19.5 0,-19.5"/>
<text text-anchor="middle" x="51.5" y="-26.5" font-family="Helvetica,sans-Serif" font-size="10.00">mainOncePerEpoch</text>
</a>
</g>
</g>
<!-- Node2&#45;&gt;Node3 -->
<g id="edge2" class="edge">
<title>Node2&#45;&gt;Node3</title>
<path fill="none" stroke="midnightblue" d="M257.36,-13.74C212.85,-17.05 148.11,-21.88 103.37,-25.21"/>
<polygon fill="midnightblue" stroke="midnightblue" points="257.66,-17.22 267.38,-12.99 257.14,-10.24 257.66,-17.22"/>
</g>
<!-- Node5 -->
<g id="node5" class="node">
<title>Node5</title>
<g id="a_node5"><a xlink:href="ephemeris_8cpp.html#a945909f33cdbe6d9a59fb4679da098df" target="_top" xlink:title=" ">
<polygon fill="white" stroke="black" points="155,-76.5 155,-95.5 203,-95.5 203,-76.5 155,-76.5"/>
<text text-anchor="middle" x="179" y="-83.5" font-family="Helvetica,sans-Serif" font-size="10.00">ephpos</text>
</a>
</g>
</g>
<!-- Node4&#45;&gt;Node5 -->
<g id="edge4" class="edge">
<title>Node4&#45;&gt;Node5</title>
<path fill="none" stroke="midnightblue" d="M274.38,-100.06C252.09,-96.74 223.25,-92.45 203.35,-89.48"/>
<polygon fill="midnightblue" stroke="midnightblue" points="274,-103.55 284.41,-101.56 275.04,-96.62 274,-103.55"/>
</g>
<!-- Node6 -->
<g id="node6" class="node">
<title>Node6</title>
<g id="a_node6"><a xlink:href="ephemeris_8cpp.html#a8d3c308314354139cf1e890cdf6bead2" target="_top" xlink:title=" ">
<polygon fill="white" stroke="red" points="28.5,-133.5 28.5,-152.5 74.5,-152.5 74.5,-133.5 28.5,-133.5"/>
<text text-anchor="middle" x="51.5" y="-140.5" font-family="Helvetica,sans-Serif" font-size="10.00">satpos</text>
</a>
</g>
</g>
<!-- Node4&#45;&gt;Node6 -->
<g id="edge5" class="edge">
<title>Node4&#45;&gt;Node6</title>
<path fill="none" stroke="midnightblue" d="M274.22,-109.96C221.32,-117.84 119.46,-133.02 74.62,-139.7"/>
<polygon fill="midnightblue" stroke="midnightblue" points="275.05,-113.38 284.42,-108.44 274.01,-106.45 275.05,-113.38"/>
</g>
<!-- Node24 -->
<g id="node7" class="node">
<title>Node24</title>
<g id="a_node7"><a xlink:href="ephemeris_8cpp.html#ac837b0f37e00dcd5e15c87d5bffe4ab8" target="_top" xlink:title=" ">
<polygon fill="white" stroke="red" points="146.5,-152.5 146.5,-171.5 211.5,-171.5 211.5,-152.5 146.5,-152.5"/>
<text text-anchor="middle" x="179" y="-159.5" font-family="Helvetica,sans-Serif" font-size="10.00">satpos_ssr</text>
</a>
</g>
</g>
<!-- Node4&#45;&gt;Node24 -->
<g id="edge6" class="edge">
<title>Node4&#45;&gt;Node24</title>
<path fill="none" stroke="midnightblue" d="M276.73,-118.76C253.43,-129.17 222.03,-143.21 201.41,-152.43"/>
<polygon fill="midnightblue" stroke="midnightblue" points="278.46,-121.82 286.16,-114.54 275.6,-115.43 278.46,-121.82"/>
</g>
<!-- Node24&#45;&gt;Node6 -->
<g id="edge7" class="edge">
<title>Node24&#45;&gt;Node6</title>
<path fill="none" stroke="midnightblue" d="M136.24,-155.68C115.66,-152.56 91.68,-148.93 74.67,-146.36"/>
<polygon fill="midnightblue" stroke="midnightblue" points="135.92,-159.17 146.33,-157.21 136.97,-152.25 135.92,-159.17"/>
</g>
<!-- Node27 -->
<g id="node9" class="node">
<title>Node27</title>
<g id="a_node9"><a xlink:href="rinexNavWrite_8cpp.html#acfa075e8efad5e2ebce159dfb921a4bc" target="_top" xlink:title=" ">
<polygon fill="white" stroke="black" points="139,-38.5 139,-57.5 219,-57.5 219,-38.5 139,-38.5"/>
<text text-anchor="middle" x="179" y="-45.5" font-family="Helvetica,sans-Serif" font-size="10.00">writeRinexNav</text>
</a>
</g>
</g>
<!-- Node26&#45;&gt;Node27 -->
<g id="edge9" class="edge">
<title>Node26&#45;&gt;Node27</title>
<path fill="none" stroke="midnightblue" d="M244.74,-48C236.05,-48 227.33,-48 219.23,-48"/>
<polygon fill="midnightblue" stroke="midnightblue" points="244.9,-51.5 254.9,-48 244.9,-44.5 244.9,-51.5"/>
</g>
<!-- Node27&#45;&gt;Node3 -->
<g id="edge10" class="edge">
<title>Node27&#45;&gt;Node3</title>
<path fill="none" stroke="midnightblue" d="M128.86,-40.56C120.38,-39.28 111.56,-37.94 103.05,-36.65"/>
<polygon fill="midnightblue" stroke="midnightblue" points="128.57,-44.06 138.98,-42.09 129.62,-37.13 128.57,-44.06"/>
</g>
</g>
</svg>
