<?xml version="1.0" encoding="UTF-8" standalone="no"?>
<!DOCTYPE svg PUBLIC "-//W3C//DTD SVG 1.1//EN"
 "http://www.w3.org/Graphics/SVG/1.1/DTD/svg11.dtd">
<!-- Generated by graphviz version 2.50.0 (20220203.2022)
 -->
<!-- Title: cullEphMap Pages: 1 -->
<svg width="206pt" height="66pt"
 viewBox="0.00 0.00 206.00 66.00" xmlns="http://www.w3.org/2000/svg" xmlns:xlink="http://www.w3.org/1999/xlink">
<g id="graph0" class="graph" transform="scale(1 1) rotate(0) translate(4 62)">
<title>cullEphMap</title>
<polygon fill="white" stroke="transparent" points="-4,4 -4,-62 202,-62 202,4 -4,4"/>
<!-- Node1 -->
<g id="node1" class="node">
<title>Node1</title>
<g id="a_node1"><a xlink:title=" ">
<polygon fill="#bfbfbf" stroke="black" points="0,-19.5 0,-38.5 67,-38.5 67,-19.5 0,-19.5"/>
<text text-anchor="middle" x="33.5" y="-26.5" font-family="Helvetica,sans-Serif" font-size="10.00">cullEphMap</text>
</a>
</g>
</g>
<!-- Node2 -->
<g id="node2" class="node">
<title>Node2</title>
<g id="a_node2"><a xlink:href="structSatSys.html#aa31d14f6b8c2100c085c732b9a3fef3f" target="_top" xlink:title="Constructs a SatSys object from it&#39;s hash uid.">
<polygon fill="white" stroke="black" points="103,-38.5 103,-57.5 198,-57.5 198,-38.5 103,-38.5"/>
<text text-anchor="middle" x="150.5" y="-45.5" font-family="Helvetica,sans-Serif" font-size="10.00">SatSys::fromHash</text>
</a>
</g>
</g>
<!-- Node1&#45;&gt;Node2 -->
<g id="edge1" class="edge">
<title>Node1&#45;&gt;Node2</title>
<path fill="none" stroke="midnightblue" d="M67.15,-34.39C75.07,-35.7 83.77,-37.14 92.46,-38.58"/>
<polygon fill="midnightblue" stroke="midnightblue" points="92.17,-42.08 102.61,-40.25 93.31,-35.17 92.17,-42.08"/>
</g>
<!-- Node3 -->
<g id="node3" class="node">
<title>Node3</title>
<g id="a_node3"><a xlink:href="satid_8f90.html#ac8234b1db329de7ef29d23ae4779bbbb" target="_top" xlink:title=" ">
<polygon fill="white" stroke="black" points="131.5,-0.5 131.5,-19.5 169.5,-19.5 169.5,-0.5 131.5,-0.5"/>
<text text-anchor="middle" x="150.5" y="-7.5" font-family="Helvetica,sans-Serif" font-size="10.00">satid</text>
</a>
</g>
</g>
<!-- Node1&#45;&gt;Node3 -->
<g id="edge2" class="edge">
<title>Node1&#45;&gt;Node3</title>
<path fill="none" stroke="midnightblue" d="M67.15,-23.61C84.25,-20.78 104.99,-17.35 121.37,-14.65"/>
<polygon fill="midnightblue" stroke="midnightblue" points="122.14,-18.07 131.43,-12.99 121,-11.16 122.14,-18.07"/>
</g>
</g>
</svg>
