<?xml version="1.0" encoding="UTF-8" standalone="no"?>
<!DOCTYPE svg PUBLIC "-//W3C//DTD SVG 1.1//EN"
 "http://www.w3.org/Graphics/SVG/1.1/DTD/svg11.dtd">
<!-- Generated by graphviz version 2.50.0 (20220203.2022)
 -->
<!-- Title: satpos_ssr Pages: 1 -->
<svg width="303pt" height="408pt"
 viewBox="0.00 0.00 303.00 408.00" xmlns="http://www.w3.org/2000/svg" xmlns:xlink="http://www.w3.org/1999/xlink">
<g id="graph0" class="graph" transform="scale(1 1) rotate(0) translate(4 404)">
<title>satpos_ssr</title>
<polygon fill="white" stroke="transparent" points="-4,4 -4,-404 299,-404 299,4 -4,4"/>
<!-- Node1 -->
<g id="node1" class="node">
<title>Node1</title>
<g id="a_node1"><a xlink:title=" ">
<polygon fill="#bfbfbf" stroke="black" points="0,-152.5 0,-171.5 65,-171.5 65,-152.5 0,-152.5"/>
<text text-anchor="middle" x="32.5" y="-159.5" font-family="Helvetica,sans-Serif" font-size="10.00">satpos_ssr</text>
</a>
</g>
</g>
<!-- Node2 -->
<g id="node2" class="node">
<title>Node2</title>
<g id="a_node2"><a xlink:href="ephemeris_8cpp.html#ab387654b0425d2c50b5b539400e122d1" target="_top" xlink:title=" ">
<polygon fill="white" stroke="black" points="112,-266.5 112,-285.5 160,-285.5 160,-266.5 112,-266.5"/>
<text text-anchor="middle" x="136" y="-273.5" font-family="Helvetica,sans-Serif" font-size="10.00">ephpos</text>
</a>
</g>
</g>
<!-- Node1&#45;&gt;Node2 -->
<g id="edge1" class="edge">
<title>Node1&#45;&gt;Node2</title>
<path fill="none" stroke="midnightblue" d="M38.47,-171.69C48.33,-190.17 71.94,-230.92 101,-257 102.47,-258.32 104.05,-259.59 105.69,-260.8"/>
<polygon fill="midnightblue" stroke="midnightblue" points="103.94,-263.83 114.24,-266.33 107.75,-257.95 103.94,-263.83"/>
</g>
<!-- Node10 -->
<g id="node5" class="node">
<title>Node10</title>
<g id="a_node5"><a xlink:href="ephemeris_8cpp.html#a9f0efb8ea92b3f1fa36a85ce12b366f1" target="_top" xlink:title=" ">
<polygon fill="white" stroke="red" points="212,-380.5 212,-399.5 290,-399.5 290,-380.5 212,-380.5"/>
<text text-anchor="middle" x="251" y="-387.5" font-family="Helvetica,sans-Serif" font-size="10.00">seleph&lt; Eph &gt;</text>
</a>
</g>
</g>
<!-- Node1&#45;&gt;Node10 -->
<g id="edge11" class="edge">
<title>Node1&#45;&gt;Node10</title>
<path fill="none" stroke="midnightblue" d="M36.58,-171.61C44.38,-194.85 66.77,-255.11 101,-295 133.37,-332.72 184.44,-360.74 217.58,-376.24"/>
<polygon fill="midnightblue" stroke="midnightblue" points="216.29,-379.49 226.84,-380.46 219.19,-373.12 216.29,-379.49"/>
</g>
<!-- Node23 -->
<g id="node9" class="node">
<title>Node23</title>
<g id="a_node9"><a xlink:href="ephemeris_8cpp.html#a8bdff335e8cf4b98bed4b31c8c943b55" target="_top" xlink:title=" ">
<polygon fill="white" stroke="black" points="109,-228.5 109,-247.5 163,-247.5 163,-228.5 109,-228.5"/>
<text text-anchor="middle" x="136" y="-235.5" font-family="Helvetica,sans-Serif" font-size="10.00">rac2ecef</text>
</a>
</g>
</g>
<!-- Node1&#45;&gt;Node23 -->
<g id="edge8" class="edge">
<title>Node1&#45;&gt;Node23</title>
<path fill="none" stroke="midnightblue" d="M43.53,-171.53C56.29,-183.42 79.31,-203.99 101,-219 103.09,-220.45 105.3,-221.88 107.55,-223.27"/>
<polygon fill="midnightblue" stroke="midnightblue" points="105.86,-226.34 116.26,-228.37 109.4,-220.3 105.86,-226.34"/>
</g>
<!-- Node25 -->
<g id="node11" class="node">
<title>Node25</title>
<g id="a_node11"><a xlink:href="ephemeris_8cpp.html#a825cb3c61ee628e2b78ed0b360e6a617" target="_top" xlink:title=" ">
<polygon fill="white" stroke="black" points="107,-190.5 107,-209.5 165,-209.5 165,-190.5 107,-190.5"/>
<text text-anchor="middle" x="136" y="-197.5" font-family="Helvetica,sans-Serif" font-size="10.00">relativity1</text>
</a>
</g>
</g>
<!-- Node1&#45;&gt;Node25 -->
<g id="edge10" class="edge">
<title>Node1&#45;&gt;Node25</title>
<path fill="none" stroke="midnightblue" d="M59.11,-171.59C71.49,-176.22 86.55,-181.86 99.97,-186.89"/>
<polygon fill="midnightblue" stroke="midnightblue" points="98.8,-190.19 109.4,-190.41 101.26,-183.63 98.8,-190.19"/>
</g>
<!-- Node26 -->
<g id="node12" class="node">
<title>Node26</title>
<g id="a_node12"><a xlink:href="ephemeris_8cpp.html#a3ac0bd514e432be4402a6511fb891d72" target="_top" xlink:title=" ">
<polygon fill="white" stroke="black" points="102.5,-152.5 102.5,-171.5 169.5,-171.5 169.5,-152.5 102.5,-152.5"/>
<text text-anchor="middle" x="136" y="-159.5" font-family="Helvetica,sans-Serif" font-size="10.00">ssrClkDelta</text>
</a>
</g>
</g>
<!-- Node1&#45;&gt;Node26 -->
<g id="edge12" class="edge">
<title>Node1&#45;&gt;Node26</title>
<path fill="none" stroke="midnightblue" d="M65.06,-162C73.68,-162 83.18,-162 92.31,-162"/>
<polygon fill="midnightblue" stroke="midnightblue" points="92.41,-165.5 102.41,-162 92.41,-158.5 92.41,-165.5"/>
</g>
<!-- Node27 -->
<g id="node13" class="node">
<title>Node27</title>
<g id="a_node13"><a xlink:href="ephemeris_8cpp.html#a90eaad2a0ea82ada36ae6e79b8011600" target="_top" xlink:title=" ">
<polygon fill="white" stroke="black" points="101,-76.5 101,-95.5 171,-95.5 171,-76.5 101,-76.5"/>
<text text-anchor="middle" x="136" y="-83.5" font-family="Helvetica,sans-Serif" font-size="10.00">ssrPosDelta</text>
</a>
</g>
</g>
<!-- Node1&#45;&gt;Node27 -->
<g id="edge13" class="edge">
<title>Node1&#45;&gt;Node27</title>
<path fill="none" stroke="midnightblue" d="M45.82,-152.26C59.27,-141.69 81.48,-124.4 101,-110 104.76,-107.22 108.8,-104.32 112.73,-101.52"/>
<polygon fill="midnightblue" stroke="midnightblue" points="114.86,-104.3 121.01,-95.68 110.82,-98.58 114.86,-104.3"/>
</g>
<!-- Node15 -->
<g id="node14" class="node">
<title>Node15</title>
<g id="a_node14"><a xlink:href="structGTime.html#a64394968bbfdecbbeec4ba5134fdb682" target="_top" xlink:title=" ">
<polygon fill="white" stroke="red" points="207,-114.5 207,-133.5 295,-133.5 295,-114.5 207,-114.5"/>
<text text-anchor="middle" x="251" y="-121.5" font-family="Helvetica,sans-Serif" font-size="10.00">GTime::to_string</text>
</a>
</g>
</g>
<!-- Node1&#45;&gt;Node15 -->
<g id="edge16" class="edge">
<title>Node1&#45;&gt;Node15</title>
<path fill="none" stroke="midnightblue" d="M63.84,-152.43C75.39,-149.06 88.71,-145.5 101,-143 132.41,-136.61 168,-131.98 196.52,-128.89"/>
<polygon fill="midnightblue" stroke="midnightblue" points="197.11,-132.35 206.69,-127.82 196.38,-125.38 197.11,-132.35"/>
</g>
<!-- Node28 -->
<g id="node16" class="node">
<title>Node28</title>
<g id="a_node16"><a xlink:href="streamTrace_8cpp.html#a26d8a8c49d22d1ec101a45f8ee2e1fcc" target="_top" xlink:title=" ">
<polygon fill="white" stroke="black" points="109,-38.5 109,-57.5 163,-57.5 163,-38.5 109,-38.5"/>
<text text-anchor="middle" x="136" y="-45.5" font-family="Helvetica,sans-Serif" font-size="10.00">tracepde</text>
</a>
</g>
</g>
<!-- Node1&#45;&gt;Node28 -->
<g id="edge17" class="edge">
<title>Node1&#45;&gt;Node28</title>
<path fill="none" stroke="midnightblue" d="M38.47,-152.31C48.33,-133.83 71.94,-93.08 101,-67 102.47,-65.68 104.05,-64.41 105.69,-63.2"/>
<polygon fill="midnightblue" stroke="midnightblue" points="107.75,-66.05 114.24,-57.67 103.94,-60.17 107.75,-66.05"/>
</g>
<!-- Node29 -->
<g id="node17" class="node">
<title>Node29</title>
<g id="a_node17"><a xlink:href="ephemeris_8cpp.html#a16f6ba062b344678a58d194d9c4a8410" target="_top" xlink:title="variance by ura ssr (ref [4])">
<polygon fill="white" stroke="black" points="105,-0.5 105,-19.5 167,-19.5 167,-0.5 105,-0.5"/>
<text text-anchor="middle" x="136" y="-7.5" font-family="Helvetica,sans-Serif" font-size="10.00">var_urassr</text>
</a>
</g>
</g>
<!-- Node1&#45;&gt;Node29 -->
<g id="edge18" class="edge">
<title>Node1&#45;&gt;Node29</title>
<path fill="none" stroke="midnightblue" d="M36.19,-152.48C43.27,-128.93 64.4,-67.09 101,-29 102.19,-27.76 103.48,-26.58 104.84,-25.46"/>
<polygon fill="midnightblue" stroke="midnightblue" points="106.93,-28.27 113.14,-19.68 102.93,-22.52 106.93,-28.27"/>
</g>
<!-- Node3 -->
<g id="node3" class="node">
<title>Node3</title>
<g id="a_node3"><a xlink:href="ephemeris_8cpp.html#a6d48c2d52f4b6e399c81a03f6a51e4eb" target="_top" xlink:title=" ">
<polygon fill="white" stroke="red" points="224.5,-342.5 224.5,-361.5 277.5,-361.5 277.5,-342.5 224.5,-342.5"/>
<text text-anchor="middle" x="251" y="-349.5" font-family="Helvetica,sans-Serif" font-size="10.00">eph2pos</text>
</a>
</g>
</g>
<!-- Node2&#45;&gt;Node3 -->
<g id="edge2" class="edge">
<title>Node2&#45;&gt;Node3</title>
<path fill="none" stroke="midnightblue" d="M147.24,-285.83C160.32,-298.03 184.02,-318.92 207,-333 209.94,-334.8 213.09,-336.53 216.28,-338.15"/>
<polygon fill="midnightblue" stroke="midnightblue" points="214.78,-341.32 225.32,-342.45 217.79,-334.99 214.78,-341.32"/>
</g>
<!-- Node5 -->
<g id="node4" class="node">
<title>Node5</title>
<g id="a_node4"><a xlink:href="ephemeris_8cpp.html#a28411224dea3279a5d6884e8af04cdaa" target="_top" xlink:title="glonass ephemeris to satellite position and clock bias.">
<polygon fill="white" stroke="red" points="221.5,-304.5 221.5,-323.5 280.5,-323.5 280.5,-304.5 221.5,-304.5"/>
<text text-anchor="middle" x="251" y="-311.5" font-family="Helvetica,sans-Serif" font-size="10.00">geph2pos</text>
</a>
</g>
</g>
<!-- Node2&#45;&gt;Node5 -->
<g id="edge3" class="edge">
<title>Node2&#45;&gt;Node5</title>
<path fill="none" stroke="midnightblue" d="M160.14,-283.78C175.04,-288.79 194.76,-295.42 211.92,-301.2"/>
<polygon fill="midnightblue" stroke="midnightblue" points="211.09,-304.61 221.68,-304.48 213.32,-297.97 211.09,-304.61"/>
</g>
<!-- Node2&#45;&gt;Node10 -->
<g id="edge4" class="edge">
<title>Node2&#45;&gt;Node10</title>
<path fill="none" stroke="midnightblue" d="M141.87,-285.64C151.78,-304.4 175.99,-346.14 207,-371 209.01,-372.61 211.17,-374.11 213.42,-375.5"/>
<polygon fill="midnightblue" stroke="midnightblue" points="211.94,-378.68 222.4,-380.36 215.27,-372.52 211.94,-378.68"/>
</g>
<!-- Node20 -->
<g id="node6" class="node">
<title>Node20</title>
<g id="a_node6"><a xlink:href="ephemeris_8cpp.html#a45e085c47e8a0dea0de6413085f7d885" target="_top" xlink:title=" ">
<polygon fill="white" stroke="red" points="208.5,-266.5 208.5,-285.5 293.5,-285.5 293.5,-266.5 208.5,-266.5"/>
<text text-anchor="middle" x="251" y="-273.5" font-family="Helvetica,sans-Serif" font-size="10.00">seleph&lt; Geph &gt;</text>
</a>
</g>
</g>
<!-- Node2&#45;&gt;Node20 -->
<g id="edge5" class="edge">
<title>Node2&#45;&gt;Node20</title>
<path fill="none" stroke="midnightblue" d="M160.14,-276C171.15,-276 184.8,-276 198.1,-276"/>
<polygon fill="midnightblue" stroke="midnightblue" points="198.16,-279.5 208.16,-276 198.15,-272.5 198.16,-279.5"/>
</g>
<!-- Node21 -->
<g id="node7" class="node">
<title>Node21</title>
<g id="a_node7"><a xlink:href="ephemeris_8cpp.html#aa832fe592f2a3a38785c7d8b7d1667e6" target="_top" xlink:title=" ">
<polygon fill="white" stroke="red" points="209,-228.5 209,-247.5 293,-247.5 293,-228.5 209,-228.5"/>
<text text-anchor="middle" x="251" y="-235.5" font-family="Helvetica,sans-Serif" font-size="10.00">seleph&lt; Seph &gt;</text>
</a>
</g>
</g>
<!-- Node2&#45;&gt;Node21 -->
<g id="edge6" class="edge">
<title>Node2&#45;&gt;Node21</title>
<path fill="none" stroke="midnightblue" d="M160.14,-268.22C175.04,-263.21 194.76,-256.58 211.92,-250.8"/>
<polygon fill="midnightblue" stroke="midnightblue" points="213.32,-254.03 221.68,-247.52 211.09,-247.39 213.32,-254.03"/>
</g>
<!-- Node22 -->
<g id="node8" class="node">
<title>Node22</title>
<g id="a_node8"><a xlink:href="ephemeris_8cpp.html#af8554ab873b3d3cd9c605c5aff342549" target="_top" xlink:title="sbas ephemeris to satellite position and clock bias &#45;&#45;&#45;&#45;&#45;&#45;&#45;&#45;&#45;&#45;&#45;&#45;&#45;&#45;&#45;&#45;&#45;&#45;&#45;&#45;&#45;&#45;— compute satellite positio...">
<polygon fill="white" stroke="red" points="221.5,-190.5 221.5,-209.5 280.5,-209.5 280.5,-190.5 221.5,-190.5"/>
<text text-anchor="middle" x="251" y="-197.5" font-family="Helvetica,sans-Serif" font-size="10.00">seph2pos</text>
</a>
</g>
</g>
<!-- Node2&#45;&gt;Node22 -->
<g id="edge7" class="edge">
<title>Node2&#45;&gt;Node22</title>
<path fill="none" stroke="midnightblue" d="M156.7,-266.32C161.56,-263.58 166.62,-260.4 171,-257 189.36,-242.72 187.99,-232.41 207,-219 209.38,-217.32 211.92,-215.75 214.55,-214.27"/>
<polygon fill="midnightblue" stroke="midnightblue" points="216.3,-217.31 223.64,-209.67 213.14,-211.07 216.3,-217.31"/>
</g>
<!-- Node24 -->
<g id="node10" class="node">
<title>Node24</title>
<g id="a_node10"><a xlink:href="ephemeris_8cpp.html#a6d65fc686fade9db8e953ae1ef13d929" target="_top" xlink:title=" ">
<polygon fill="white" stroke="black" points="224,-152.5 224,-171.5 278,-171.5 278,-152.5 224,-152.5"/>
<text text-anchor="middle" x="251" y="-159.5" font-family="Helvetica,sans-Serif" font-size="10.00">ecef2rac</text>
</a>
</g>
</g>
<!-- Node23&#45;&gt;Node24 -->
<g id="edge9" class="edge">
<title>Node23&#45;&gt;Node24</title>
<path fill="none" stroke="midnightblue" d="M156.7,-228.32C161.56,-225.58 166.62,-222.4 171,-219 189.36,-204.72 187.99,-194.41 207,-181 209.38,-179.32 211.92,-177.75 214.55,-176.27"/>
<polygon fill="midnightblue" stroke="midnightblue" points="216.3,-179.31 223.64,-171.67 213.14,-173.07 216.3,-179.31"/>
</g>
<!-- Node27&#45;&gt;Node15 -->
<g id="edge14" class="edge">
<title>Node27&#45;&gt;Node15</title>
<path fill="none" stroke="midnightblue" d="M165.51,-95.59C179.57,-100.31 196.71,-106.08 211.87,-111.18"/>
<polygon fill="midnightblue" stroke="midnightblue" points="210.9,-114.54 221.49,-114.41 213.13,-107.91 210.9,-114.54"/>
</g>
<!-- Node19 -->
<g id="node15" class="node">
<title>Node19</title>
<g id="a_node15"><a xlink:href="streamTrace_8cpp.html#ae00e6addd3bdf3a7fd41a254eb9aec89" target="_top" xlink:title=" ">
<polygon fill="white" stroke="black" points="219,-76.5 219,-95.5 283,-95.5 283,-76.5 219,-76.5"/>
<text text-anchor="middle" x="251" y="-83.5" font-family="Helvetica,sans-Serif" font-size="10.00">tracepdeex</text>
</a>
</g>
</g>
<!-- Node27&#45;&gt;Node19 -->
<g id="edge15" class="edge">
<title>Node27&#45;&gt;Node19</title>
<path fill="none" stroke="midnightblue" d="M171.21,-86C183.09,-86 196.53,-86 208.9,-86"/>
<polygon fill="midnightblue" stroke="midnightblue" points="208.98,-89.5 218.98,-86 208.98,-82.5 208.98,-89.5"/>
</g>
<!-- Node17 -->
<g id="node18" class="node">
<title>Node17</title>
<g id="a_node18"><a xlink:href="namespacepod__yaml.html#a59ea539cabb34ef7985e7e57c4b9dd93" target="_top" xlink:title=" ">
<polygon fill="white" stroke="black" points="211,-0.5 211,-19.5 291,-19.5 291,-0.5 211,-0.5"/>
<text text-anchor="middle" x="251" y="-7.5" font-family="Helvetica,sans-Serif" font-size="10.00">pod_yaml::pow</text>
</a>
</g>
</g>
<!-- Node29&#45;&gt;Node17 -->
<g id="edge19" class="edge">
<title>Node29&#45;&gt;Node17</title>
<path fill="none" stroke="midnightblue" d="M167.28,-10C177.49,-10 189.17,-10 200.47,-10"/>
<polygon fill="midnightblue" stroke="midnightblue" points="200.69,-13.5 210.69,-10 200.69,-6.5 200.69,-13.5"/>
</g>
<!-- Node17&#45;&gt;Node17 -->
<g id="edge20" class="edge">
<title>Node17&#45;&gt;Node17</title>
<path fill="none" stroke="midnightblue" d="M233.43,-19.76C224.88,-28.57 230.74,-38 251,-38 263.66,-38 270.7,-34.31 272.11,-29.4"/>
<polygon fill="midnightblue" stroke="midnightblue" points="275.3,-27.94 268.57,-19.76 268.73,-30.35 275.3,-27.94"/>
</g>
</g>
</svg>
