<?xml version="1.0" encoding="UTF-8" standalone="no"?>
<!DOCTYPE svg PUBLIC "-//W3C//DTD SVG 1.1//EN"
 "http://www.w3.org/Graphics/SVG/1.1/DTD/svg11.dtd">
<!-- Generated by graphviz version 2.50.0 (20220203.2022)
 -->
<!-- Title: deq Pages: 1 -->
<svg width="106pt" height="66pt"
 viewBox="0.00 0.00 106.00 66.00" xmlns="http://www.w3.org/2000/svg" xmlns:xlink="http://www.w3.org/1999/xlink">
<g id="graph0" class="graph" transform="scale(1 1) rotate(0) translate(4 62)">
<title>deq</title>
<polygon fill="white" stroke="transparent" points="-4,4 -4,-62 102,-62 102,4 -4,4"/>
<!-- Node1 -->
<g id="node1" class="node">
<title>Node1</title>
<g id="a_node1"><a xlink:title=" ">
<polygon fill="#bfbfbf" stroke="black" points="0,-19.5 0,-38.5 32,-38.5 32,-19.5 0,-19.5"/>
<text text-anchor="middle" x="16" y="-26.5" font-family="Helvetica,sans-Serif" font-size="10.00">deq</text>
</a>
</g>
</g>
<!-- Node2 -->
<g id="node2" class="node">
<title>Node2</title>
<g id="a_node2"><a xlink:href="algebra__old_8cpp.html#addee52380c690a50fa0048924c67bc92" target="_top" xlink:title=" ">
<polygon fill="white" stroke="black" points="68,-38.5 68,-57.5 98,-57.5 98,-38.5 68,-38.5"/>
<text text-anchor="middle" x="83" y="-45.5" font-family="Helvetica,sans-Serif" font-size="10.00">dot</text>
</a>
</g>
</g>
<!-- Node1&#45;&gt;Node2 -->
<g id="edge1" class="edge">
<title>Node1&#45;&gt;Node2</title>
<path fill="none" stroke="midnightblue" d="M32.08,-33.41C39.84,-35.68 49.49,-38.5 58.22,-41.05"/>
<polygon fill="midnightblue" stroke="midnightblue" points="57.32,-44.43 67.9,-43.88 59.28,-37.71 57.32,-44.43"/>
</g>
<!-- Node3 -->
<g id="node3" class="node">
<title>Node3</title>
<g id="a_node3"><a xlink:href="R3_8for.html#a8736a6c65234edc13681ad51dff7ed1d" target="_top" xlink:title=" ">
<polygon fill="white" stroke="black" points="68.5,-0.5 68.5,-19.5 97.5,-19.5 97.5,-0.5 68.5,-0.5"/>
<text text-anchor="middle" x="83" y="-7.5" font-family="Helvetica,sans-Serif" font-size="10.00">r3</text>
</a>
</g>
</g>
<!-- Node1&#45;&gt;Node3 -->
<g id="edge2" class="edge">
<title>Node1&#45;&gt;Node3</title>
<path fill="none" stroke="midnightblue" d="M32.08,-24.59C39.95,-22.29 49.75,-19.43 58.59,-16.84"/>
<polygon fill="midnightblue" stroke="midnightblue" points="59.72,-20.16 68.33,-13.99 57.75,-13.44 59.72,-20.16"/>
</g>
</g>
</svg>
