<?xml version="1.0" encoding="UTF-8" standalone="no"?>
<!DOCTYPE svg PUBLIC "-//W3C//DTD SVG 1.1//EN"
 "http://www.w3.org/Graphics/SVG/1.1/DTD/svg11.dtd">
<!-- Generated by graphviz version 2.50.0 (20220203.2022)
 -->
<!-- Title: satpos_ssr Pages: 1 -->
<svg width="314pt" height="142pt"
 viewBox="0.00 0.00 314.00 142.00" xmlns="http://www.w3.org/2000/svg" xmlns:xlink="http://www.w3.org/1999/xlink">
<g id="graph0" class="graph" transform="scale(1 1) rotate(0) translate(4 138)">
<title>satpos_ssr</title>
<polygon fill="white" stroke="transparent" points="-4,4 -4,-138 310,-138 310,4 -4,4"/>
<!-- Node1 -->
<g id="node1" class="node">
<title>Node1</title>
<g id="a_node1"><a xlink:title=" ">
<polygon fill="#bfbfbf" stroke="black" points="241,-38.5 241,-57.5 306,-57.5 306,-38.5 241,-38.5"/>
<text text-anchor="middle" x="273.5" y="-45.5" font-family="Helvetica,sans-Serif" font-size="10.00">satpos_ssr</text>
</a>
</g>
</g>
<!-- Node2 -->
<g id="node2" class="node">
<title>Node2</title>
<g id="a_node2"><a xlink:href="ephemeris_8cpp.html#a8d3c308314354139cf1e890cdf6bead2" target="_top" xlink:title=" ">
<polygon fill="white" stroke="black" points="149.5,-57.5 149.5,-76.5 195.5,-76.5 195.5,-57.5 149.5,-57.5"/>
<text text-anchor="middle" x="172.5" y="-64.5" font-family="Helvetica,sans-Serif" font-size="10.00">satpos</text>
</a>
</g>
</g>
<!-- Node1&#45;&gt;Node2 -->
<g id="edge1" class="edge">
<title>Node1&#45;&gt;Node2</title>
<path fill="none" stroke="midnightblue" d="M230.96,-55.97C218.87,-58.29 206.13,-60.74 195.72,-62.74"/>
<polygon fill="midnightblue" stroke="midnightblue" points="231.74,-59.39 240.9,-54.06 230.42,-52.51 231.74,-59.39"/>
</g>
<!-- Node21 -->
<g id="node7" class="node">
<title>Node21</title>
<g id="a_node7"><a xlink:href="ephemeris_8cpp.html#a6d921349bf33e4b6707c05275b83d1e2" target="_top" xlink:title=" ">
<polygon fill="white" stroke="black" points="140,-19.5 140,-38.5 205,-38.5 205,-19.5 140,-19.5"/>
<text text-anchor="middle" x="172.5" y="-26.5" font-family="Helvetica,sans-Serif" font-size="10.00">satpos_ssr</text>
</a>
</g>
</g>
<!-- Node1&#45;&gt;Node21 -->
<g id="edge6" class="edge">
<title>Node1&#45;&gt;Node21</title>
<path fill="none" stroke="midnightblue" d="M230.97,-40.03C222.33,-38.37 213.35,-36.65 205.14,-35.07"/>
<polygon fill="midnightblue" stroke="midnightblue" points="230.42,-43.49 240.9,-41.94 231.74,-36.61 230.42,-43.49"/>
</g>
<!-- Node3 -->
<g id="node3" class="node">
<title>Node3</title>
<g id="a_node3"><a xlink:href="rinexClkWrite_8cpp.html#a3f6744a347b111bb423bd32d27947654" target="_top" xlink:title=" ">
<polygon fill="white" stroke="red" points="0,-114.5 0,-133.5 104,-133.5 104,-114.5 0,-114.5"/>
<text text-anchor="middle" x="52" y="-121.5" font-family="Helvetica,sans-Serif" font-size="10.00">getSatClksFromEph</text>
</a>
</g>
</g>
<!-- Node2&#45;&gt;Node3 -->
<g id="edge2" class="edge">
<title>Node2&#45;&gt;Node3</title>
<path fill="none" stroke="midnightblue" d="M147.46,-81.75C134.78,-89.21 118.82,-98.12 104,-105 96.72,-108.38 88.65,-111.61 81.12,-114.42"/>
<polygon fill="midnightblue" stroke="midnightblue" points="149.25,-84.75 156.04,-76.62 145.66,-78.74 149.25,-84.75"/>
</g>
<!-- Node12 -->
<g id="node4" class="node">
<title>Node12</title>
<g id="a_node4"><a xlink:href="mongoWrite_8cpp.html#ac5399222f483050332a2571ebcbc5ba1" target="_top" xlink:title=" ">
<polygon fill="white" stroke="red" points="6,-76.5 6,-95.5 98,-95.5 98,-76.5 6,-76.5"/>
<text text-anchor="middle" x="52" y="-83.5" font-family="Helvetica,sans-Serif" font-size="10.00">prepareSsrStates</text>
</a>
</g>
</g>
<!-- Node2&#45;&gt;Node12 -->
<g id="edge3" class="edge">
<title>Node2&#45;&gt;Node12</title>
<path fill="none" stroke="midnightblue" d="M139.46,-72.14C126.84,-74.16 112.13,-76.52 98.45,-78.71"/>
<polygon fill="midnightblue" stroke="midnightblue" points="140.17,-75.57 149.49,-70.53 139.06,-68.66 140.17,-75.57"/>
</g>
<!-- Node13 -->
<g id="node5" class="node">
<title>Node13</title>
<g id="a_node5"><a xlink:href="ephemeris_8cpp.html#a24cd8a842f9d8dbf3b035cfcd61862a0" target="_top" xlink:title="satellite positions and clocks.">
<polygon fill="white" stroke="red" points="26.5,-38.5 26.5,-57.5 77.5,-57.5 77.5,-38.5 26.5,-38.5"/>
<text text-anchor="middle" x="52" y="-45.5" font-family="Helvetica,sans-Serif" font-size="10.00">satposs</text>
</a>
</g>
</g>
<!-- Node2&#45;&gt;Node13 -->
<g id="edge4" class="edge">
<title>Node2&#45;&gt;Node13</title>
<path fill="none" stroke="midnightblue" d="M139.57,-61.88C120.15,-58.77 95.71,-54.85 77.76,-51.97"/>
<polygon fill="midnightblue" stroke="midnightblue" points="139.06,-65.34 149.49,-63.47 140.17,-58.43 139.06,-65.34"/>
</g>
<!-- Node19 -->
<g id="node6" class="node">
<title>Node19</title>
<g id="a_node6"><a xlink:href="sp3Write_8cpp.html#a53c4eda35c9ccdfe9aa683fb0272c8c0" target="_top" xlink:title=" ">
<polygon fill="white" stroke="red" points="9,-0.5 9,-19.5 95,-19.5 95,-0.5 9,-0.5"/>
<text text-anchor="middle" x="52" y="-7.5" font-family="Helvetica,sans-Serif" font-size="10.00">writeSysSetSp3</text>
</a>
</g>
</g>
<!-- Node2&#45;&gt;Node19 -->
<g id="edge5" class="edge">
<title>Node2&#45;&gt;Node19</title>
<path fill="none" stroke="midnightblue" d="M146.47,-52.37C130.9,-43.37 112.31,-32.86 104,-29 96.72,-25.62 88.65,-22.39 81.12,-19.58"/>
<polygon fill="midnightblue" stroke="midnightblue" points="144.78,-55.44 155.18,-57.43 148.29,-49.38 144.78,-55.44"/>
</g>
</g>
</svg>
