<?xml version="1.0" encoding="UTF-8" standalone="no"?>
<!DOCTYPE svg PUBLIC "-//W3C//DTD SVG 1.1//EN"
 "http://www.w3.org/Graphics/SVG/1.1/DTD/svg11.dtd">
<!-- Generated by graphviz version 2.50.0 (20220203.2022)
 -->
<!-- Title: var_urassr Pages: 1 -->
<svg width="272pt" height="66pt"
 viewBox="0.00 0.00 272.00 66.00" xmlns="http://www.w3.org/2000/svg" xmlns:xlink="http://www.w3.org/1999/xlink">
<g id="graph0" class="graph" transform="scale(1 1) rotate(0) translate(4 62)">
<title>var_urassr</title>
<polygon fill="white" stroke="transparent" points="-4,4 -4,-62 268,-62 268,4 -4,4"/>
<!-- Node1 -->
<g id="node1" class="node">
<title>Node1</title>
<g id="a_node1"><a xlink:title="variance by ura ssr (ref [4])">
<polygon fill="#bfbfbf" stroke="black" points="202,-19.5 202,-38.5 264,-38.5 264,-19.5 202,-19.5"/>
<text text-anchor="middle" x="233" y="-26.5" font-family="Helvetica,sans-Serif" font-size="10.00">var_urassr</text>
</a>
</g>
</g>
<!-- Node2 -->
<g id="node2" class="node">
<title>Node2</title>
<g id="a_node2"><a xlink:href="ephemeris_8cpp.html#ac837b0f37e00dcd5e15c87d5bffe4ab8" target="_top" xlink:title=" ">
<polygon fill="white" stroke="black" points="101,-19.5 101,-38.5 166,-38.5 166,-19.5 101,-19.5"/>
<text text-anchor="middle" x="133.5" y="-26.5" font-family="Helvetica,sans-Serif" font-size="10.00">satpos_ssr</text>
</a>
</g>
</g>
<!-- Node1&#45;&gt;Node2 -->
<g id="edge1" class="edge">
<title>Node1&#45;&gt;Node2</title>
<path fill="none" stroke="midnightblue" d="M191.83,-29C183.32,-29 174.45,-29 166.31,-29"/>
<polygon fill="midnightblue" stroke="midnightblue" points="191.95,-32.5 201.95,-29 191.95,-25.5 191.95,-32.5"/>
</g>
<!-- Node3 -->
<g id="node3" class="node">
<title>Node3</title>
<g id="a_node3"><a xlink:href="ephemeris_8cpp.html#a8d3c308314354139cf1e890cdf6bead2" target="_top" xlink:title=" ">
<polygon fill="white" stroke="red" points="9.5,-38.5 9.5,-57.5 55.5,-57.5 55.5,-38.5 9.5,-38.5"/>
<text text-anchor="middle" x="32.5" y="-45.5" font-family="Helvetica,sans-Serif" font-size="10.00">satpos</text>
</a>
</g>
</g>
<!-- Node2&#45;&gt;Node3 -->
<g id="edge2" class="edge">
<title>Node2&#45;&gt;Node3</title>
<path fill="none" stroke="midnightblue" d="M90.96,-36.97C78.87,-39.29 66.13,-41.74 55.72,-43.74"/>
<polygon fill="midnightblue" stroke="midnightblue" points="91.74,-40.39 100.9,-35.06 90.42,-33.51 91.74,-40.39"/>
</g>
<!-- Node22 -->
<g id="node4" class="node">
<title>Node22</title>
<g id="a_node4"><a xlink:href="ephemeris_8cpp.html#a6d921349bf33e4b6707c05275b83d1e2" target="_top" xlink:title=" ">
<polygon fill="white" stroke="black" points="0,-0.5 0,-19.5 65,-19.5 65,-0.5 0,-0.5"/>
<text text-anchor="middle" x="32.5" y="-7.5" font-family="Helvetica,sans-Serif" font-size="10.00">satpos_ssr</text>
</a>
</g>
</g>
<!-- Node2&#45;&gt;Node22 -->
<g id="edge3" class="edge">
<title>Node2&#45;&gt;Node22</title>
<path fill="none" stroke="midnightblue" d="M90.97,-21.03C82.33,-19.37 73.35,-17.65 65.14,-16.07"/>
<polygon fill="midnightblue" stroke="midnightblue" points="90.42,-24.49 100.9,-22.94 91.74,-17.61 90.42,-24.49"/>
</g>
</g>
</svg>
