<?xml version="1.0" encoding="UTF-8" standalone="no"?>
<!DOCTYPE svg PUBLIC "-//W3C//DTD SVG 1.1//EN"
 "http://www.w3.org/Graphics/SVG/1.1/DTD/svg11.dtd">
<!-- Generated by graphviz version 2.50.0 (20220203.2022)
 -->
<!-- Title: satposs Pages: 1 -->
<svg width="459pt" height="598pt"
 viewBox="0.00 0.00 459.00 598.00" xmlns="http://www.w3.org/2000/svg" xmlns:xlink="http://www.w3.org/1999/xlink">
<g id="graph0" class="graph" transform="scale(1 1) rotate(0) translate(4 594)">
<title>satposs</title>
<polygon fill="white" stroke="transparent" points="-4,4 -4,-594 455,-594 455,4 -4,4"/>
<!-- Node1 -->
<g id="node1" class="node">
<title>Node1</title>
<g id="a_node1"><a xlink:title="satellite positions and clocks.">
<polygon fill="#bfbfbf" stroke="black" points="0,-418.5 0,-437.5 51,-437.5 51,-418.5 0,-418.5"/>
<text text-anchor="middle" x="25.5" y="-425.5" font-family="Helvetica,sans-Serif" font-size="10.00">satposs</text>
</a>
</g>
</g>
<!-- Node2 -->
<g id="node2" class="node">
<title>Node2</title>
<g id="a_node2"><a xlink:href="ephemeris_8cpp.html#a5e9656cbaa8bb74ade4b33d285159524" target="_top" xlink:title=" ">
<polygon fill="white" stroke="black" points="114,-532.5 114,-551.5 159,-551.5 159,-532.5 114,-532.5"/>
<text text-anchor="middle" x="136.5" y="-539.5" font-family="Helvetica,sans-Serif" font-size="10.00">ephclk</text>
</a>
</g>
</g>
<!-- Node1&#45;&gt;Node2 -->
<g id="edge1" class="edge">
<title>Node1&#45;&gt;Node2</title>
<path fill="none" stroke="midnightblue" d="M30.27,-437.78C38.07,-456.77 57.71,-498.9 87,-523 92.04,-527.15 98.1,-530.47 104.19,-533.1"/>
<polygon fill="midnightblue" stroke="midnightblue" points="103.07,-536.41 113.66,-536.68 105.55,-529.87 103.07,-536.41"/>
</g>
<!-- Node6 -->
<g id="node6" class="node">
<title>Node6</title>
<g id="a_node6"><a xlink:href="antenna_8cpp.html#a034836f3266a59abe9199c55e50dbe8b" target="_top" xlink:title=" ">
<polygon fill="white" stroke="black" points="102.5,-494.5 102.5,-513.5 170.5,-513.5 170.5,-494.5 102.5,-494.5"/>
<text text-anchor="middle" x="136.5" y="-501.5" font-family="Helvetica,sans-Serif" font-size="10.00">findAntenna</text>
</a>
</g>
</g>
<!-- Node1&#45;&gt;Node6 -->
<g id="edge5" class="edge">
<title>Node1&#45;&gt;Node6</title>
<path fill="none" stroke="midnightblue" d="M36.15,-437.66C47.61,-448.78 67.6,-467.16 87,-480 92.35,-483.54 98.29,-486.9 104.13,-489.92"/>
<polygon fill="midnightblue" stroke="midnightblue" points="102.61,-493.07 113.13,-494.37 105.71,-486.8 102.61,-493.07"/>
</g>
<!-- Node7 -->
<g id="node7" class="node">
<title>Node7</title>
<g id="a_node7"><a xlink:href="preceph_8cpp.html#abac8a5d81331f066de7b18812434bd41" target="_top" xlink:title=" ">
<polygon fill="white" stroke="black" points="111.5,-418.5 111.5,-437.5 161.5,-437.5 161.5,-418.5 111.5,-418.5"/>
<text text-anchor="middle" x="136.5" y="-425.5" font-family="Helvetica,sans-Serif" font-size="10.00">pephclk</text>
</a>
</g>
</g>
<!-- Node1&#45;&gt;Node7 -->
<g id="edge6" class="edge">
<title>Node1&#45;&gt;Node7</title>
<path fill="none" stroke="midnightblue" d="M51.23,-428C65.97,-428 84.89,-428 101.07,-428"/>
<polygon fill="midnightblue" stroke="midnightblue" points="101.24,-431.5 111.24,-428 101.24,-424.5 101.24,-431.5"/>
</g>
<!-- Node8 -->
<g id="node8" class="node">
<title>Node8</title>
<g id="a_node8"><a xlink:href="structGTime.html#a64394968bbfdecbbeec4ba5134fdb682" target="_top" xlink:title=" ">
<polygon fill="white" stroke="red" points="363,-380.5 363,-399.5 451,-399.5 451,-380.5 363,-380.5"/>
<text text-anchor="middle" x="407" y="-387.5" font-family="Helvetica,sans-Serif" font-size="10.00">GTime::to_string</text>
</a>
</g>
</g>
<!-- Node1&#45;&gt;Node8 -->
<g id="edge25" class="edge">
<title>Node1&#45;&gt;Node8</title>
<path fill="none" stroke="midnightblue" d="M51.12,-437.6C61.94,-441.33 74.92,-445.15 87,-447 192.92,-463.24 224.14,-454.03 327,-424 344.52,-418.89 363.32,-410.9 378.18,-403.96"/>
<polygon fill="midnightblue" stroke="midnightblue" points="379.81,-407.06 387.33,-399.59 376.79,-400.74 379.81,-407.06"/>
</g>
<!-- Node12 -->
<g id="node9" class="node">
<title>Node12</title>
<g id="a_node9"><a xlink:href="ephemeris_8cpp.html#a8d3c308314354139cf1e890cdf6bead2" target="_top" xlink:title=" ">
<polygon fill="white" stroke="black" points="113.5,-266.5 113.5,-285.5 159.5,-285.5 159.5,-266.5 113.5,-266.5"/>
<text text-anchor="middle" x="136.5" y="-273.5" font-family="Helvetica,sans-Serif" font-size="10.00">satpos</text>
</a>
</g>
</g>
<!-- Node1&#45;&gt;Node12 -->
<g id="edge8" class="edge">
<title>Node1&#45;&gt;Node12</title>
<path fill="none" stroke="midnightblue" d="M33.32,-418.49C51.13,-393.65 99.31,-326.47 122.57,-294.02"/>
<polygon fill="midnightblue" stroke="midnightblue" points="125.7,-295.67 128.68,-285.5 120.01,-291.59 125.7,-295.67"/>
</g>
<!-- Node38 -->
<g id="node15" class="node">
<title>Node38</title>
<g id="a_node15"><a xlink:href="streamTrace_8cpp.html#a26d8a8c49d22d1ec101a45f8ee2e1fcc" target="_top" xlink:title=" ">
<polygon fill="white" stroke="black" points="380,-295.5 380,-314.5 434,-314.5 434,-295.5 380,-295.5"/>
<text text-anchor="middle" x="407" y="-302.5" font-family="Helvetica,sans-Serif" font-size="10.00">tracepde</text>
</a>
</g>
</g>
<!-- Node1&#45;&gt;Node38 -->
<g id="edge26" class="edge">
<title>Node1&#45;&gt;Node38</title>
<path fill="none" stroke="midnightblue" d="M28.36,-418.23C37.97,-370.96 86.87,-165.71 222,-105 264.57,-85.87 290.76,-75.6 327,-105 387.31,-153.94 319.63,-211.57 363,-276 366.63,-281.39 371.63,-286.05 376.94,-289.96"/>
<polygon fill="midnightblue" stroke="midnightblue" points="375.11,-292.94 385.39,-295.48 378.94,-287.08 375.11,-292.94"/>
</g>
<!-- Node56 -->
<g id="node17" class="node">
<title>Node56</title>
<g id="a_node17"><a xlink:href="structTestStack.html#aff20cea87ae5eee6108b33d022913707" target="_top" xlink:title="Compare matrix against test dataset.">
<polygon fill="white" stroke="black" points="87,-38.5 87,-57.5 186,-57.5 186,-38.5 87,-38.5"/>
<text text-anchor="middle" x="136.5" y="-45.5" font-family="Helvetica,sans-Serif" font-size="10.00">TestStack::testMat</text>
</a>
</g>
</g>
<!-- Node1&#45;&gt;Node56 -->
<g id="edge22" class="edge">
<title>Node1&#45;&gt;Node56</title>
<path fill="none" stroke="midnightblue" d="M26.98,-418.21C29.68,-366.93 44.33,-129.33 87,-72 89.59,-68.52 92.82,-65.52 96.37,-62.93"/>
<polygon fill="midnightblue" stroke="midnightblue" points="98.38,-65.81 105.11,-57.63 94.75,-59.82 98.38,-65.81"/>
</g>
<!-- Node3 -->
<g id="node3" class="node">
<title>Node3</title>
<g id="a_node3"><a xlink:href="ephemeris_8cpp.html#a7e4b61d7dfc9c94a976fa308b94e3125" target="_top" xlink:title="broadcast ephemeris to satellite clock bias compute satellite clock bias with broadcast ephemeris (gp...">
<polygon fill="white" stroke="black" points="249.5,-494.5 249.5,-513.5 299.5,-513.5 299.5,-494.5 249.5,-494.5"/>
<text text-anchor="middle" x="274.5" y="-501.5" font-family="Helvetica,sans-Serif" font-size="10.00">eph2clk</text>
</a>
</g>
</g>
<!-- Node2&#45;&gt;Node3 -->
<g id="edge2" class="edge">
<title>Node2&#45;&gt;Node3</title>
<path fill="none" stroke="midnightblue" d="M159.05,-535.98C180.64,-529.95 214.2,-520.57 239.41,-513.53"/>
<polygon fill="midnightblue" stroke="midnightblue" points="240.61,-516.82 249.3,-510.76 238.73,-510.08 240.61,-516.82"/>
</g>
<!-- Node4 -->
<g id="node4" class="node">
<title>Node4</title>
<g id="a_node4"><a xlink:href="ephemeris_8cpp.html#a54093d364e091d7941925c9a1089e276" target="_top" xlink:title=" ">
<polygon fill="white" stroke="black" points="246.5,-570.5 246.5,-589.5 302.5,-589.5 302.5,-570.5 246.5,-570.5"/>
<text text-anchor="middle" x="274.5" y="-577.5" font-family="Helvetica,sans-Serif" font-size="10.00">geph2clk</text>
</a>
</g>
</g>
<!-- Node2&#45;&gt;Node4 -->
<g id="edge3" class="edge">
<title>Node2&#45;&gt;Node4</title>
<path fill="none" stroke="midnightblue" d="M159.05,-548.02C179.85,-553.83 211.76,-562.75 236.61,-569.69"/>
<polygon fill="midnightblue" stroke="midnightblue" points="235.86,-573.12 246.43,-572.44 237.74,-566.37 235.86,-573.12"/>
</g>
<!-- Node5 -->
<g id="node5" class="node">
<title>Node5</title>
<g id="a_node5"><a xlink:href="ephemeris_8cpp.html#a4067cb995409fce1b919bed224bf5644" target="_top" xlink:title=" ">
<polygon fill="white" stroke="black" points="246.5,-532.5 246.5,-551.5 302.5,-551.5 302.5,-532.5 246.5,-532.5"/>
<text text-anchor="middle" x="274.5" y="-539.5" font-family="Helvetica,sans-Serif" font-size="10.00">seph2clk</text>
</a>
</g>
</g>
<!-- Node2&#45;&gt;Node5 -->
<g id="edge4" class="edge">
<title>Node2&#45;&gt;Node5</title>
<path fill="none" stroke="midnightblue" d="M159.05,-542C179.76,-542 211.48,-542 236.28,-542"/>
<polygon fill="midnightblue" stroke="midnightblue" points="236.43,-545.5 246.43,-542 236.43,-538.5 236.43,-545.5"/>
</g>
<!-- Node7&#45;&gt;Node8 -->
<g id="edge7" class="edge">
<title>Node7&#45;&gt;Node8</title>
<path fill="none" stroke="midnightblue" d="M161.78,-425.31C197.89,-421.23 267.82,-412.99 327,-404 335.31,-402.74 344.1,-401.29 352.67,-399.82"/>
<polygon fill="midnightblue" stroke="midnightblue" points="353.35,-403.25 362.6,-398.09 352.15,-396.36 353.35,-403.25"/>
</g>
<!-- Node12&#45;&gt;Node8 -->
<g id="edge20" class="edge">
<title>Node12&#45;&gt;Node8</title>
<path fill="none" stroke="midnightblue" d="M142.73,-285.65C154.12,-305.61 183.3,-351.18 222,-371 262.37,-391.68 314.19,-395.32 352.55,-394.44"/>
<polygon fill="midnightblue" stroke="midnightblue" points="353.11,-397.92 362.99,-394.08 352.87,-390.92 353.11,-397.92"/>
</g>
<!-- Node13 -->
<g id="node10" class="node">
<title>Node13</title>
<g id="a_node10"><a xlink:href="ephemeris_8cpp.html#ab387654b0425d2c50b5b539400e122d1" target="_top" xlink:title=" ">
<polygon fill="white" stroke="red" points="383,-247.5 383,-266.5 431,-266.5 431,-247.5 383,-247.5"/>
<text text-anchor="middle" x="407" y="-254.5" font-family="Helvetica,sans-Serif" font-size="10.00">ephpos</text>
</a>
</g>
</g>
<!-- Node12&#45;&gt;Node13 -->
<g id="edge9" class="edge">
<title>Node12&#45;&gt;Node13</title>
<path fill="none" stroke="midnightblue" d="M159.63,-271.48C176.61,-268.22 200.68,-264.05 222,-262 274.55,-256.96 335.9,-256.34 372.81,-256.54"/>
<polygon fill="midnightblue" stroke="midnightblue" points="372.96,-260.04 382.99,-256.62 373.02,-253.04 372.96,-260.04"/>
</g>
<!-- Node23 -->
<g id="node11" class="node">
<title>Node23</title>
<g id="a_node11"><a xlink:href="structSatSys.html#aec6d07b90d1e8172b8b6a6966abef4fd" target="_top" xlink:title="Returns a std::string of this satellite&#39;s id.">
<polygon fill="white" stroke="red" points="244.5,-190.5 244.5,-209.5 304.5,-209.5 304.5,-190.5 244.5,-190.5"/>
<text text-anchor="middle" x="274.5" y="-197.5" font-family="Helvetica,sans-Serif" font-size="10.00">SatSys::id</text>
</a>
</g>
</g>
<!-- Node12&#45;&gt;Node23 -->
<g id="edge10" class="edge">
<title>Node12&#45;&gt;Node23</title>
<path fill="none" stroke="midnightblue" d="M151.85,-266.46C168.43,-255.61 196.67,-237.64 222,-224 228.36,-220.58 235.3,-217.15 241.96,-214"/>
<polygon fill="midnightblue" stroke="midnightblue" points="243.82,-216.99 251.42,-209.61 240.88,-210.64 243.82,-216.99"/>
</g>
<!-- Node30 -->
<g id="node12" class="node">
<title>Node30</title>
<g id="a_node12"><a xlink:href="ephemeris_8cpp.html#a9b8aa496bacec0c8a8a76cac9adeb727" target="_top" xlink:title=" ">
<polygon fill="white" stroke="red" points="242,-152.5 242,-171.5 307,-171.5 307,-152.5 242,-152.5"/>
<text text-anchor="middle" x="274.5" y="-159.5" font-family="Helvetica,sans-Serif" font-size="10.00">kalmanPos</text>
</a>
</g>
</g>
<!-- Node12&#45;&gt;Node30 -->
<g id="edge11" class="edge">
<title>Node12&#45;&gt;Node30</title>
<path fill="none" stroke="midnightblue" d="M143.74,-266.23C156.34,-247.25 186.62,-205.13 222,-181 225.27,-178.77 228.84,-176.76 232.52,-174.96"/>
<polygon fill="midnightblue" stroke="midnightblue" points="234.03,-178.12 241.8,-170.92 231.23,-171.71 234.03,-178.12"/>
</g>
<!-- Node32 -->
<g id="node13" class="node">
<title>Node32</title>
<g id="a_node13"><a xlink:href="preceph_8cpp.html#a5de24b59b2c115a07bdf76fca0efdda8" target="_top" xlink:title=" ">
<polygon fill="white" stroke="red" points="245,-114.5 245,-133.5 304,-133.5 304,-114.5 245,-114.5"/>
<text text-anchor="middle" x="274.5" y="-121.5" font-family="Helvetica,sans-Serif" font-size="10.00">peph2pos</text>
</a>
</g>
</g>
<!-- Node12&#45;&gt;Node32 -->
<g id="edge12" class="edge">
<title>Node12&#45;&gt;Node32</title>
<path fill="none" stroke="midnightblue" d="M141.03,-266.46C150.43,-242.32 178.36,-178.22 222,-143 226.02,-139.75 230.65,-137.03 235.45,-134.75"/>
<polygon fill="midnightblue" stroke="midnightblue" points="236.86,-137.96 244.77,-130.91 234.19,-131.49 236.86,-137.96"/>
</g>
<!-- Node39 -->
<g id="node14" class="node">
<title>Node39</title>
<g id="a_node14"><a xlink:href="preceph_8cpp.html#a1e3783257a7c3cce97cf6c8064bdb335" target="_top" xlink:title=" ">
<polygon fill="white" stroke="red" points="247.5,-342.5 247.5,-361.5 301.5,-361.5 301.5,-342.5 247.5,-342.5"/>
<text text-anchor="middle" x="274.5" y="-349.5" font-family="Helvetica,sans-Serif" font-size="10.00">satantoff</text>
</a>
</g>
</g>
<!-- Node12&#45;&gt;Node39 -->
<g id="edge13" class="edge">
<title>Node12&#45;&gt;Node39</title>
<path fill="none" stroke="midnightblue" d="M149.8,-285.69C165.74,-297.92 194.75,-319.04 222,-333 226.98,-335.55 232.39,-337.93 237.77,-340.09"/>
<polygon fill="midnightblue" stroke="midnightblue" points="236.72,-343.44 247.31,-343.71 239.2,-336.89 236.72,-343.44"/>
</g>
<!-- Node12&#45;&gt;Node38 -->
<g id="edge21" class="edge">
<title>Node12&#45;&gt;Node38</title>
<path fill="none" stroke="midnightblue" d="M159.69,-278.04C195.1,-281.33 266.55,-288.14 327,-295 340.87,-296.57 356.1,-298.46 369.45,-300.17"/>
<polygon fill="midnightblue" stroke="midnightblue" points="369.32,-303.68 379.69,-301.5 370.22,-296.74 369.32,-303.68"/>
</g>
<!-- Node50 -->
<g id="node16" class="node">
<title>Node50</title>
<g id="a_node16"><a xlink:href="ephemeris_8cpp.html#ac837b0f37e00dcd5e15c87d5bffe4ab8" target="_top" xlink:title=" ">
<polygon fill="white" stroke="red" points="242,-304.5 242,-323.5 307,-323.5 307,-304.5 242,-304.5"/>
<text text-anchor="middle" x="274.5" y="-311.5" font-family="Helvetica,sans-Serif" font-size="10.00">satpos_ssr</text>
</a>
</g>
</g>
<!-- Node12&#45;&gt;Node50 -->
<g id="edge16" class="edge">
<title>Node12&#45;&gt;Node50</title>
<path fill="none" stroke="midnightblue" d="M159.65,-282.19C179.21,-287.66 208.25,-295.77 232.1,-302.43"/>
<polygon fill="midnightblue" stroke="midnightblue" points="231.39,-305.87 241.96,-305.19 233.27,-299.13 231.39,-305.87"/>
</g>
<!-- Node39&#45;&gt;Node8 -->
<g id="edge14" class="edge">
<title>Node39&#45;&gt;Node8</title>
<path fill="none" stroke="midnightblue" d="M301.59,-359.6C319.24,-364.74 342.94,-371.64 363.3,-377.57"/>
<polygon fill="midnightblue" stroke="midnightblue" points="362.41,-380.95 372.99,-380.39 364.36,-374.23 362.41,-380.95"/>
</g>
<!-- Node39&#45;&gt;Node38 -->
<g id="edge15" class="edge">
<title>Node39&#45;&gt;Node38</title>
<path fill="none" stroke="midnightblue" d="M301.59,-342.6C321.33,-335.49 348.66,-325.65 370.4,-317.82"/>
<polygon fill="midnightblue" stroke="midnightblue" points="371.73,-321.06 379.95,-314.38 369.36,-314.48 371.73,-321.06"/>
</g>
<!-- Node50&#45;&gt;Node8 -->
<g id="edge18" class="edge">
<title>Node50&#45;&gt;Node8</title>
<path fill="none" stroke="midnightblue" d="M305.51,-323.51C312.72,-326.22 320.27,-329.42 327,-333 348.92,-344.67 371.68,-361.7 387.11,-374.11"/>
<polygon fill="midnightblue" stroke="midnightblue" points="384.92,-376.84 394.87,-380.46 389.35,-371.42 384.92,-376.84"/>
</g>
<!-- Node50&#45;&gt;Node13 -->
<g id="edge17" class="edge">
<title>Node50&#45;&gt;Node13</title>
<path fill="none" stroke="midnightblue" d="M297.34,-304.46C318.52,-295.21 350.85,-281.09 374.74,-270.65"/>
<polygon fill="midnightblue" stroke="midnightblue" points="376.32,-273.78 384.09,-266.57 373.52,-267.37 376.32,-273.78"/>
</g>
<!-- Node50&#45;&gt;Node38 -->
<g id="edge19" class="edge">
<title>Node50&#45;&gt;Node38</title>
<path fill="none" stroke="midnightblue" d="M307.09,-311.82C326.02,-310.52 350.15,-308.85 369.83,-307.49"/>
<polygon fill="midnightblue" stroke="midnightblue" points="370.23,-310.98 379.96,-306.8 369.75,-303.99 370.23,-310.98"/>
</g>
<!-- Node57 -->
<g id="node18" class="node">
<title>Node57</title>
<g id="a_node18"><a xlink:href="structTestStack.html#afbc78d5bcc032f03034721e763558313" target="_top" xlink:title="Get the test stack as a string.">
<polygon fill="white" stroke="black" points="222,-38.5 222,-57.5 327,-57.5 327,-38.5 222,-38.5"/>
<text text-anchor="middle" x="274.5" y="-45.5" font-family="Helvetica,sans-Serif" font-size="10.00">TestStack::getStack</text>
</a>
</g>
</g>
<!-- Node56&#45;&gt;Node57 -->
<g id="edge23" class="edge">
<title>Node56&#45;&gt;Node57</title>
<path fill="none" stroke="midnightblue" d="M186.21,-48C194.54,-48 203.29,-48 211.9,-48"/>
<polygon fill="midnightblue" stroke="midnightblue" points="211.91,-51.5 221.91,-48 211.91,-44.5 211.91,-51.5"/>
</g>
<!-- Node58 -->
<g id="node19" class="node">
<title>Node58</title>
<g id="a_node19"><a xlink:href="algebra__old_8cpp.html#a1d2c1ecab5b17dcc773fcd83c0b87b7e" target="_top" xlink:title=" ">
<polygon fill="white" stroke="red" points="258,-0.5 258,-19.5 291,-19.5 291,-0.5 258,-0.5"/>
<text text-anchor="middle" x="274.5" y="-7.5" font-family="Helvetica,sans-Serif" font-size="10.00">mat</text>
</a>
</g>
</g>
<!-- Node56&#45;&gt;Node58 -->
<g id="edge24" class="edge">
<title>Node56&#45;&gt;Node58</title>
<path fill="none" stroke="midnightblue" d="M171.82,-38.41C195.49,-31.8 226.44,-23.15 247.95,-17.14"/>
<polygon fill="midnightblue" stroke="midnightblue" points="248.99,-20.48 257.67,-14.42 247.1,-13.74 248.99,-20.48"/>
</g>
</g>
</svg>
