<?xml version="1.0" encoding="UTF-8" standalone="no"?>
<!DOCTYPE svg PUBLIC "-//W3C//DTD SVG 1.1//EN"
 "http://www.w3.org/Graphics/SVG/1.1/DTD/svg11.dtd">
<!-- Generated by graphviz version 2.50.0 (20220203.2022)
 -->
<!-- Title: writeERPFromNetwork Pages: 1 -->
<svg width="368pt" height="142pt"
 viewBox="0.00 0.00 368.00 142.00" xmlns="http://www.w3.org/2000/svg" xmlns:xlink="http://www.w3.org/1999/xlink">
<g id="graph0" class="graph" transform="scale(1 1) rotate(0) translate(4 138)">
<title>writeERPFromNetwork</title>
<polygon fill="white" stroke="transparent" points="-4,4 -4,-138 364,-138 364,4 -4,4"/>
<!-- Node1 -->
<g id="node1" class="node">
<title>Node1</title>
<g id="a_node1"><a xlink:title=" ">
<polygon fill="#bfbfbf" stroke="black" points="0,-57.5 0,-76.5 116,-76.5 116,-57.5 0,-57.5"/>
<text text-anchor="middle" x="58" y="-64.5" font-family="Helvetica,sans-Serif" font-size="10.00">writeERPFromNetwork</text>
</a>
</g>
</g>
<!-- Node2 -->
<g id="node2" class="node">
<title>Node2</title>
<g id="a_node2"><a xlink:href="structKFState.html#a84691f6bbbe3cdccaa14722995a61e1b" target="_top" xlink:title="Returns the value and variance of a state within the kalman filter object.">
<polygon fill="white" stroke="black" points="152,-114.5 152,-133.5 260,-133.5 260,-114.5 152,-114.5"/>
<text text-anchor="middle" x="206" y="-121.5" font-family="Helvetica,sans-Serif" font-size="10.00">KFState::getKFValue</text>
</a>
</g>
</g>
<!-- Node1&#45;&gt;Node2 -->
<g id="edge1" class="edge">
<title>Node1&#45;&gt;Node2</title>
<path fill="none" stroke="midnightblue" d="M81.82,-76.65C100.58,-84.5 127.9,-95.76 152,-105 157.19,-106.99 162.69,-109.03 168.11,-111.01"/>
<polygon fill="midnightblue" stroke="midnightblue" points="167.09,-114.36 177.68,-114.46 169.46,-107.78 167.09,-114.36"/>
</g>
<!-- Node3 -->
<g id="node3" class="node">
<title>Node3</title>
<g id="a_node3"><a xlink:href="gTime_8cpp.html#a7a747c44ca37f2ebe379fc4309d3cfba" target="_top" xlink:title=" ">
<polygon fill="white" stroke="black" points="172.5,-76.5 172.5,-95.5 239.5,-95.5 239.5,-76.5 172.5,-76.5"/>
<text text-anchor="middle" x="206" y="-83.5" font-family="Helvetica,sans-Serif" font-size="10.00">time2epoch</text>
</a>
</g>
</g>
<!-- Node1&#45;&gt;Node3 -->
<g id="edge2" class="edge">
<title>Node1&#45;&gt;Node3</title>
<path fill="none" stroke="midnightblue" d="M116.28,-74.45C131.58,-76.45 147.85,-78.56 162.22,-80.43"/>
<polygon fill="midnightblue" stroke="midnightblue" points="161.94,-83.93 172.31,-81.75 162.84,-76.98 161.94,-83.93"/>
</g>
<!-- Node4 -->
<g id="node4" class="node">
<title>Node4</title>
<g id="a_node4"><a xlink:href="erp_8cpp.html#a9d9da88672dc995fa6a12fb53a72ef46" target="_top" xlink:title=" ">
<polygon fill="white" stroke="black" points="177.5,-38.5 177.5,-57.5 234.5,-57.5 234.5,-38.5 177.5,-38.5"/>
<text text-anchor="middle" x="206" y="-45.5" font-family="Helvetica,sans-Serif" font-size="10.00">writeERP</text>
</a>
</g>
</g>
<!-- Node1&#45;&gt;Node4 -->
<g id="edge3" class="edge">
<title>Node1&#45;&gt;Node4</title>
<path fill="none" stroke="midnightblue" d="M116.28,-59.55C133.29,-57.33 151.49,-54.96 166.95,-52.95"/>
<polygon fill="midnightblue" stroke="midnightblue" points="167.71,-56.38 177.17,-51.62 166.8,-49.44 167.71,-56.38"/>
</g>
<!-- Node6 -->
<g id="node6" class="node">
<title>Node6</title>
<g id="a_node6"><a xlink:href="gTime_8cpp.html#a282534ac1ef65d4844290ce80bf76fed" target="_top" xlink:title="YMDHMS to Julian Day &#160;&#160;return : julian day.">
<polygon fill="white" stroke="black" points="173,-0.5 173,-19.5 239,-19.5 239,-0.5 173,-0.5"/>
<text text-anchor="middle" x="206" y="-7.5" font-family="Helvetica,sans-Serif" font-size="10.00">ymdhms2jd</text>
</a>
</g>
</g>
<!-- Node1&#45;&gt;Node6 -->
<g id="edge5" class="edge">
<title>Node1&#45;&gt;Node6</title>
<path fill="none" stroke="midnightblue" d="M81.82,-57.35C100.58,-49.5 127.9,-38.24 152,-29 157.19,-27.01 162.69,-24.97 168.11,-22.99"/>
<polygon fill="midnightblue" stroke="midnightblue" points="169.46,-26.22 177.68,-19.54 167.09,-19.64 169.46,-26.22"/>
</g>
<!-- Node5 -->
<g id="node5" class="node">
<title>Node5</title>
<g id="a_node5"><a xlink:href="streamTrace_8cpp.html#ae00e6addd3bdf3a7fd41a254eb9aec89" target="_top" xlink:title=" ">
<polygon fill="white" stroke="black" points="296,-38.5 296,-57.5 360,-57.5 360,-38.5 296,-38.5"/>
<text text-anchor="middle" x="328" y="-45.5" font-family="Helvetica,sans-Serif" font-size="10.00">tracepdeex</text>
</a>
</g>
</g>
<!-- Node4&#45;&gt;Node5 -->
<g id="edge4" class="edge">
<title>Node4&#45;&gt;Node5</title>
<path fill="none" stroke="midnightblue" d="M234.53,-48C249.66,-48 268.73,-48 285.61,-48"/>
<polygon fill="midnightblue" stroke="midnightblue" points="285.79,-51.5 295.79,-48 285.79,-44.5 285.79,-51.5"/>
</g>
</g>
</svg>
