<?xml version="1.0" encoding="UTF-8" standalone="no"?>
<!DOCTYPE svg PUBLIC "-//W3C//DTD SVG 1.1//EN"
 "http://www.w3.org/Graphics/SVG/1.1/DTD/svg11.dtd">
<!-- Generated by graphviz version 2.50.0 (20220203.2022)
 -->
<!-- Title: iau_fal03 Pages: 1 -->
<svg width="150pt" height="102pt"
 viewBox="0.00 0.00 150.00 102.00" xmlns="http://www.w3.org/2000/svg" xmlns:xlink="http://www.w3.org/1999/xlink">
<g id="graph0" class="graph" transform="scale(1 1) rotate(0) translate(4 98)">
<title>iau_fal03</title>
<polygon fill="white" stroke="transparent" points="-4,4 -4,-98 146,-98 146,4 -4,4"/>
<!-- Node1 -->
<g id="node1" class="node">
<title>Node1</title>
<g id="a_node1"><a xlink:title=" ">
<polygon fill="#bfbfbf" stroke="black" points="86,-28.5 86,-47.5 142,-47.5 142,-28.5 86,-28.5"/>
<text text-anchor="middle" x="114" y="-35.5" font-family="Helvetica,sans-Serif" font-size="10.00">iau_fal03</text>
</a>
</g>
</g>
<!-- Node1&#45;&gt;Node1 -->
<g id="edge1" class="edge">
<title>Node1&#45;&gt;Node1</title>
<path fill="none" stroke="midnightblue" d="M130.3,-57.4C129.21,-62.31 123.78,-66 114,-66 98.36,-66 93.84,-56.57 100.44,-47.76"/>
<polygon fill="midnightblue" stroke="midnightblue" points="133.66,-56.42 127.56,-47.76 126.92,-58.33 133.66,-56.42"/>
</g>
<!-- Node2 -->
<g id="node2" class="node">
<title>Node2</title>
<g id="a_node2"><a xlink:href="s00_8for.html#ab5eac02205570eb74ee214625b30746a" target="_top" xlink:title=" ">
<polygon fill="white" stroke="black" points="0,-56.5 0,-75.5 50,-75.5 50,-56.5 0,-56.5"/>
<text text-anchor="middle" x="25" y="-63.5" font-family="Helvetica,sans-Serif" font-size="10.00">iau_s00</text>
</a>
</g>
</g>
<!-- Node1&#45;&gt;Node2 -->
<g id="edge2" class="edge">
<title>Node1&#45;&gt;Node2</title>
<path fill="none" stroke="midnightblue" d="M76.22,-49.84C67.38,-52.68 58.17,-55.65 50.08,-58.25"/>
<polygon fill="midnightblue" stroke="midnightblue" points="77.5,-53.1 85.95,-46.71 75.36,-46.44 77.5,-53.1"/>
</g>
<!-- Node3 -->
<g id="node3" class="node">
<title>Node3</title>
<g id="a_node3"><a xlink:href="s06_8for.html#a42e346b8bc6d151e831c8e46cd0a54f0" target="_top" xlink:title=" ">
<polygon fill="white" stroke="black" points="0,-0.5 0,-19.5 50,-19.5 50,-0.5 0,-0.5"/>
<text text-anchor="middle" x="25" y="-7.5" font-family="Helvetica,sans-Serif" font-size="10.00">iau_s06</text>
</a>
</g>
</g>
<!-- Node1&#45;&gt;Node3 -->
<g id="edge4" class="edge">
<title>Node1&#45;&gt;Node3</title>
<path fill="none" stroke="midnightblue" d="M76.22,-26.16C67.38,-23.32 58.17,-20.35 50.08,-17.75"/>
<polygon fill="midnightblue" stroke="midnightblue" points="75.36,-29.56 85.95,-29.29 77.5,-22.9 75.36,-29.56"/>
</g>
<!-- Node2&#45;&gt;Node2 -->
<g id="edge3" class="edge">
<title>Node2&#45;&gt;Node2</title>
<path fill="none" stroke="midnightblue" d="M41.3,-85.4C40.21,-90.31 34.78,-94 25,-94 9.36,-94 4.84,-84.57 11.44,-75.76"/>
<polygon fill="midnightblue" stroke="midnightblue" points="44.66,-84.42 38.56,-75.76 37.92,-86.33 44.66,-84.42"/>
</g>
<!-- Node3&#45;&gt;Node3 -->
<g id="edge5" class="edge">
<title>Node3&#45;&gt;Node3</title>
<path fill="none" stroke="midnightblue" d="M41.3,-29.4C40.21,-34.31 34.78,-38 25,-38 9.36,-38 4.84,-28.57 11.44,-19.76"/>
<polygon fill="midnightblue" stroke="midnightblue" points="44.66,-28.42 38.56,-19.76 37.92,-30.33 44.66,-28.42"/>
</g>
</g>
</svg>
