<?xml version="1.0" encoding="UTF-8" standalone="no"?>
<!DOCTYPE svg PUBLIC "-//W3C//DTD SVG 1.1//EN"
 "http://www.w3.org/Graphics/SVG/1.1/DTD/svg11.dtd">
<!-- Generated by graphviz version 2.50.0 (20220203.2022)
 -->
<!-- Title: Illumination Pages: 1 -->
<svg width="214pt" height="28pt"
 viewBox="0.00 0.00 214.00 28.00" xmlns="http://www.w3.org/2000/svg" xmlns:xlink="http://www.w3.org/1999/xlink">
<g id="graph0" class="graph" transform="scale(1 1) rotate(0) translate(4 24)">
<title>Illumination</title>
<polygon fill="white" stroke="transparent" points="-4,4 -4,-24 210,-24 210,4 -4,4"/>
<!-- Node1 -->
<g id="node1" class="node">
<title>Node1</title>
<g id="a_node1"><a xlink:title=" ">
<polygon fill="#bfbfbf" stroke="black" points="0,-0.5 0,-19.5 66,-19.5 66,-0.5 0,-0.5"/>
<text text-anchor="middle" x="33" y="-7.5" font-family="Helvetica,sans-Serif" font-size="10.00">Illumination</text>
</a>
</g>
</g>
<!-- Node2 -->
<g id="node2" class="node">
<title>Node2</title>
<g id="a_node2"><a xlink:href="algebra__old_8cpp.html#abaa5d4a31df361116a9b2be552624cf9" target="_top" xlink:title=" ">
<polygon fill="white" stroke="black" points="102,-0.5 102,-19.5 140,-19.5 140,-0.5 102,-0.5"/>
<text text-anchor="middle" x="121" y="-7.5" font-family="Helvetica,sans-Serif" font-size="10.00">norm</text>
</a>
</g>
</g>
<!-- Node1&#45;&gt;Node2 -->
<g id="edge1" class="edge">
<title>Node1&#45;&gt;Node2</title>
<path fill="none" stroke="midnightblue" d="M66.02,-10C74.39,-10 83.35,-10 91.52,-10"/>
<polygon fill="midnightblue" stroke="midnightblue" points="91.69,-13.5 101.69,-10 91.69,-6.5 91.69,-13.5"/>
</g>
<!-- Node3 -->
<g id="node3" class="node">
<title>Node3</title>
<g id="a_node3"><a xlink:href="algebra__old_8cpp.html#addee52380c690a50fa0048924c67bc92" target="_top" xlink:title=" ">
<polygon fill="white" stroke="black" points="176,-0.5 176,-19.5 206,-19.5 206,-0.5 176,-0.5"/>
<text text-anchor="middle" x="191" y="-7.5" font-family="Helvetica,sans-Serif" font-size="10.00">dot</text>
</a>
</g>
</g>
<!-- Node2&#45;&gt;Node3 -->
<g id="edge2" class="edge">
<title>Node2&#45;&gt;Node3</title>
<path fill="none" stroke="midnightblue" d="M140.22,-10C148.08,-10 157.38,-10 165.8,-10"/>
<polygon fill="midnightblue" stroke="midnightblue" points="165.83,-13.5 175.83,-10 165.83,-6.5 165.83,-13.5"/>
</g>
</g>
</svg>
