<?xml version="1.0" encoding="UTF-8" standalone="no"?>
<!DOCTYPE svg PUBLIC "-//W3C//DTD SVG 1.1//EN"
 "http://www.w3.org/Graphics/SVG/1.1/DTD/svg11.dtd">
<!-- Generated by graphviz version 2.50.0 (20220203.2022)
 -->
<!-- Title: Illumination Pages: 1 -->
<svg width="401pt" height="39pt"
 viewBox="0.00 0.00 401.00 39.00" xmlns="http://www.w3.org/2000/svg" xmlns:xlink="http://www.w3.org/1999/xlink">
<g id="graph0" class="graph" transform="scale(1 1) rotate(0) translate(4 35)">
<title>Illumination</title>
<polygon fill="white" stroke="transparent" points="-4,4 -4,-35 397,-35 397,4 -4,4"/>
<!-- Node1 -->
<g id="node1" class="node">
<title>Node1</title>
<g id="a_node1"><a xlink:title=" ">
<polygon fill="#bfbfbf" stroke="black" points="327,-6 327,-25 393,-25 393,-6 327,-6"/>
<text text-anchor="middle" x="360" y="-13" font-family="Helvetica,sans-Serif" font-size="10.00">Illumination</text>
</a>
</g>
</g>
<!-- Node2 -->
<g id="node2" class="node">
<title>Node2</title>
<g id="a_node2"><a xlink:href="structSolarRadPressure.html#abaf459e6b40c61326b55af00e9452a95" target="_top" xlink:title="Satellite position vector, unit: m, m/s.">
<polygon fill="white" stroke="black" points="167,-0.5 167,-30.5 291,-30.5 291,-0.5 167,-0.5"/>
<text text-anchor="start" x="175" y="-18.5" font-family="Helvetica,sans-Serif" font-size="10.00">SolarRadPressure::direct</text>
<text text-anchor="middle" x="229" y="-7.5" font-family="Helvetica,sans-Serif" font-size="10.00">SolarRadiationAcc</text>
</a>
</g>
</g>
<!-- Node1&#45;&gt;Node2 -->
<g id="edge1" class="edge">
<title>Node1&#45;&gt;Node2</title>
<path fill="none" stroke="midnightblue" d="M316.76,-15.5C308.58,-15.5 299.86,-15.5 291.21,-15.5"/>
<polygon fill="midnightblue" stroke="midnightblue" points="316.78,-19 326.78,-15.5 316.78,-12 316.78,-19"/>
</g>
<!-- Node3 -->
<g id="node3" class="node">
<title>Node3</title>
<g id="a_node3"><a xlink:href="structOrbitPropagator.html#a1110817f2823b35262c48ce347a31a12" target="_top" xlink:title="Propagate orbits by ODE functor.">
<polygon fill="white" stroke="black" points="0,-6 0,-25 131,-25 131,-6 0,-6"/>
<text text-anchor="middle" x="65.5" y="-13" font-family="Helvetica,sans-Serif" font-size="10.00">OrbitPropagator::operator()</text>
</a>
</g>
</g>
<!-- Node2&#45;&gt;Node3 -->
<g id="edge2" class="edge">
<title>Node2&#45;&gt;Node3</title>
<path fill="none" stroke="midnightblue" d="M156.67,-15.5C148.18,-15.5 139.54,-15.5 131.14,-15.5"/>
<polygon fill="midnightblue" stroke="midnightblue" points="156.94,-19 166.94,-15.5 156.94,-12 156.94,-19"/>
</g>
</g>
</svg>
