<?xml version="1.0" encoding="UTF-8" standalone="no"?>
<!DOCTYPE svg PUBLIC "-//W3C//DTD SVG 1.1//EN"
 "http://www.w3.org/Graphics/SVG/1.1/DTD/svg11.dtd">
<!-- Generated by graphviz version 2.50.0 (20220203.2022)
 -->
<!-- Title: SunPos Pages: 1 -->
<svg width="131pt" height="66pt"
 viewBox="0.00 0.00 131.00 66.00" xmlns="http://www.w3.org/2000/svg" xmlns:xlink="http://www.w3.org/1999/xlink">
<g id="graph0" class="graph" transform="scale(1 1) rotate(0) translate(4 62)">
<title>SunPos</title>
<polygon fill="white" stroke="transparent" points="-4,4 -4,-62 127,-62 127,4 -4,4"/>
<!-- Node1 -->
<g id="node1" class="node">
<title>Node1</title>
<g id="a_node1"><a xlink:title=" ">
<polygon fill="#bfbfbf" stroke="black" points="0,-19.5 0,-38.5 51,-38.5 51,-19.5 0,-19.5"/>
<text text-anchor="middle" x="25.5" y="-26.5" font-family="Helvetica,sans-Serif" font-size="10.00">SunPos</text>
</a>
</g>
</g>
<!-- Node2 -->
<g id="node2" class="node">
<title>Node2</title>
<g id="a_node2"><a xlink:href="forceModels_8cpp.html#a92f2f0f91c99cd6bec1a0e9a3b6443fc" target="_top" xlink:title=" ">
<polygon fill="white" stroke="black" points="87,-38.5 87,-57.5 123,-57.5 123,-38.5 87,-38.5"/>
<text text-anchor="middle" x="105" y="-45.5" font-family="Helvetica,sans-Serif" font-size="10.00">Frac</text>
</a>
</g>
</g>
<!-- Node1&#45;&gt;Node2 -->
<g id="edge1" class="edge">
<title>Node1&#45;&gt;Node2</title>
<path fill="none" stroke="midnightblue" d="M51.02,-35.01C59.34,-37.05 68.68,-39.34 77.18,-41.42"/>
<polygon fill="midnightblue" stroke="midnightblue" points="76.45,-44.85 86.99,-43.83 78.11,-38.05 76.45,-44.85"/>
</g>
<!-- Node3 -->
<g id="node3" class="node">
<title>Node3</title>
<g id="a_node3"><a xlink:href="rtkcmn_8cpp.html#a5255e5c7106736e4ed29286b5527a45c" target="_top" xlink:title=" ">
<polygon fill="white" stroke="black" points="88.5,-0.5 88.5,-19.5 121.5,-19.5 121.5,-0.5 88.5,-0.5"/>
<text text-anchor="middle" x="105" y="-7.5" font-family="Helvetica,sans-Serif" font-size="10.00">R_x</text>
</a>
</g>
</g>
<!-- Node1&#45;&gt;Node3 -->
<g id="edge2" class="edge">
<title>Node1&#45;&gt;Node3</title>
<path fill="none" stroke="midnightblue" d="M51.02,-22.99C59.82,-20.83 69.75,-18.4 78.62,-16.22"/>
<polygon fill="midnightblue" stroke="midnightblue" points="79.53,-19.6 88.41,-13.82 77.86,-12.8 79.53,-19.6"/>
</g>
</g>
</svg>
