<?xml version="1.0" encoding="UTF-8" standalone="no"?>
<!DOCTYPE svg PUBLIC "-//W3C//DTD SVG 1.1//EN"
 "http://www.w3.org/Graphics/SVG/1.1/DTD/svg11.dtd">
<!-- Generated by graphviz version 2.50.0 (20220203.2022)
 -->
<!-- Title: /github/workspace/src/cpp/orbprop/forceModels.hpp Pages: 1 -->
<svg width="739pt" height="106pt"
 viewBox="0.00 0.00 738.50 106.00" xmlns="http://www.w3.org/2000/svg" xmlns:xlink="http://www.w3.org/1999/xlink">
<g id="graph0" class="graph" transform="scale(1 1) rotate(0) translate(4 102)">
<title>/github/workspace/src/cpp/orbprop/forceModels.hpp</title>
<polygon fill="white" stroke="transparent" points="-4,4 -4,-102 734.5,-102 734.5,4 -4,4"/>
<!-- Node1 -->
<g id="node1" class="node">
<title>Node1</title>
<g id="a_node1"><a xlink:title=" ">
<polygon fill="#bfbfbf" stroke="black" points="298,-67.5 298,-97.5 443,-97.5 443,-67.5 298,-67.5"/>
<text text-anchor="start" x="306" y="-85.5" font-family="Helvetica,sans-Serif" font-size="10.00">/github/workspace/src</text>
<text text-anchor="middle" x="370.5" y="-74.5" font-family="Helvetica,sans-Serif" font-size="10.00">/cpp/orbprop/forceModels.hpp</text>
</a>
</g>
</g>
<!-- Node2 -->
<g id="node2" class="node">
<title>Node2</title>
<g id="a_node2"><a xlink:href="forceModels_8cpp.html" target="_top" xlink:title=" ">
<polygon fill="white" stroke="black" points="0,-0.5 0,-30.5 145,-30.5 145,-0.5 0,-0.5"/>
<text text-anchor="start" x="8" y="-18.5" font-family="Helvetica,sans-Serif" font-size="10.00">/github/workspace/src</text>
<text text-anchor="middle" x="72.5" y="-7.5" font-family="Helvetica,sans-Serif" font-size="10.00">/cpp/orbprop/forceModels.cpp</text>
</a>
</g>
</g>
<!-- Node1&#45;&gt;Node2 -->
<g id="edge1" class="edge">
<title>Node1&#45;&gt;Node2</title>
<path fill="none" stroke="midnightblue" d="M296.3,-65.32C247.32,-54.63 183.79,-40.77 136.94,-30.55"/>
<polygon fill="midnightblue" stroke="midnightblue" points="295.69,-68.76 306.21,-67.48 297.18,-61.93 295.69,-68.76"/>
</g>
<!-- Node3 -->
<g id="node3" class="node">
<title>Node3</title>
<g id="a_node3"><a xlink:href="test__egm_8cpp.html" target="_top" xlink:title=" ">
<polygon fill="white" stroke="black" points="163.5,-0.5 163.5,-30.5 295.5,-30.5 295.5,-0.5 163.5,-0.5"/>
<text text-anchor="start" x="171.5" y="-18.5" font-family="Helvetica,sans-Serif" font-size="10.00">/github/workspace/src</text>
<text text-anchor="middle" x="229.5" y="-7.5" font-family="Helvetica,sans-Serif" font-size="10.00">/cpp/orbprop/test_egm.cpp</text>
</a>
</g>
</g>
<!-- Node1&#45;&gt;Node3 -->
<g id="edge2" class="edge">
<title>Node1&#45;&gt;Node3</title>
<path fill="none" stroke="midnightblue" d="M330.65,-63.13C308.25,-52.8 280.72,-40.11 260.04,-30.58"/>
<polygon fill="midnightblue" stroke="midnightblue" points="329.36,-66.39 339.91,-67.4 332.29,-60.03 329.36,-66.39"/>
</g>
<!-- Node4 -->
<g id="node4" class="node">
<title>Node4</title>
<g id="a_node4"><a xlink:href="main_8cpp.html" target="_top" xlink:title=" ">
<polygon fill="white" stroke="black" points="314,-0.5 314,-30.5 427,-30.5 427,-0.5 314,-0.5"/>
<text text-anchor="start" x="322" y="-18.5" font-family="Helvetica,sans-Serif" font-size="10.00">/github/workspace/src</text>
<text text-anchor="middle" x="370.5" y="-7.5" font-family="Helvetica,sans-Serif" font-size="10.00">/cpp/pea/main.cpp</text>
</a>
</g>
</g>
<!-- Node1&#45;&gt;Node4 -->
<g id="edge3" class="edge">
<title>Node1&#45;&gt;Node4</title>
<path fill="none" stroke="midnightblue" d="M370.5,-57.11C370.5,-48.15 370.5,-38.32 370.5,-30.58"/>
<polygon fill="midnightblue" stroke="midnightblue" points="367,-57.4 370.5,-67.4 374,-57.4 367,-57.4"/>
</g>
<!-- Node5 -->
<g id="node5" class="node">
<title>Node5</title>
<g id="a_node5"><a xlink:href="ppppp_8cpp.html" target="_top" xlink:title=" ">
<polygon fill="white" stroke="black" points="445,-0.5 445,-30.5 558,-30.5 558,-0.5 445,-0.5"/>
<text text-anchor="start" x="453" y="-18.5" font-family="Helvetica,sans-Serif" font-size="10.00">/github/workspace/src</text>
<text text-anchor="middle" x="501.5" y="-7.5" font-family="Helvetica,sans-Serif" font-size="10.00">/cpp/pea/ppppp.cpp</text>
</a>
</g>
</g>
<!-- Node1&#45;&gt;Node5 -->
<g id="edge4" class="edge">
<title>Node1&#45;&gt;Node5</title>
<path fill="none" stroke="midnightblue" d="M408.08,-62.85C428.79,-52.58 454.09,-40.03 473.13,-30.58"/>
<polygon fill="midnightblue" stroke="midnightblue" points="406.33,-59.82 398.93,-67.4 409.44,-66.09 406.33,-59.82"/>
</g>
<!-- Node6 -->
<g id="node6" class="node">
<title>Node6</title>
<g id="a_node6"><a xlink:href="ppppp__pseudoobs_8cpp.html" target="_top" xlink:title=" ">
<polygon fill="white" stroke="black" points="576.5,-0.5 576.5,-30.5 730.5,-30.5 730.5,-0.5 576.5,-0.5"/>
<text text-anchor="start" x="584.5" y="-18.5" font-family="Helvetica,sans-Serif" font-size="10.00">/github/workspace/src</text>
<text text-anchor="middle" x="653.5" y="-7.5" font-family="Helvetica,sans-Serif" font-size="10.00">/cpp/pea/ppppp_pseudoobs.cpp</text>
</a>
</g>
</g>
<!-- Node1&#45;&gt;Node6 -->
<g id="edge5" class="edge">
<title>Node1&#45;&gt;Node6</title>
<path fill="none" stroke="midnightblue" d="M441.53,-65.19C487.88,-54.54 547.77,-40.78 592.06,-30.61"/>
<polygon fill="midnightblue" stroke="midnightblue" points="440.52,-61.83 431.56,-67.48 442.09,-68.65 440.52,-61.83"/>
</g>
</g>
</svg>
