<?xml version="1.0" encoding="UTF-8" standalone="no"?>
<!DOCTYPE svg PUBLIC "-//W3C//DTD SVG 1.1//EN"
 "http://www.w3.org/Graphics/SVG/1.1/DTD/svg11.dtd">
<!-- Generated by graphviz version 2.50.0 (20220203.2022)
 -->
<!-- Title: fundarg Pages: 1 -->
<svg width="244pt" height="104pt"
 viewBox="0.00 0.00 244.00 104.00" xmlns="http://www.w3.org/2000/svg" xmlns:xlink="http://www.w3.org/1999/xlink">
<g id="graph0" class="graph" transform="scale(1 1) rotate(0) translate(4 100)">
<title>fundarg</title>
<polygon fill="white" stroke="transparent" points="-4,4 -4,-100 240,-100 240,4 -4,4"/>
<!-- Node1 -->
<g id="node1" class="node">
<title>Node1</title>
<g id="a_node1"><a xlink:title=" ">
<polygon fill="#bfbfbf" stroke="black" points="187,-38.5 187,-57.5 236,-57.5 236,-38.5 187,-38.5"/>
<text text-anchor="middle" x="211.5" y="-45.5" font-family="Helvetica,sans-Serif" font-size="10.00">fundarg</text>
</a>
</g>
</g>
<!-- Node2 -->
<g id="node2" class="node">
<title>Node2</title>
<g id="a_node2"><a xlink:href="PMSDNUT2_8F.html#a47b978e4f192ae6c811f2ab17646d25b" target="_top" xlink:title=" ">
<polygon fill="white" stroke="black" points="92,-76.5 92,-95.5 151,-95.5 151,-76.5 92,-76.5"/>
<text text-anchor="middle" x="121.5" y="-83.5" font-family="Helvetica,sans-Serif" font-size="10.00">pmsdnut2</text>
</a>
</g>
</g>
<!-- Node1&#45;&gt;Node2 -->
<g id="edge1" class="edge">
<title>Node1&#45;&gt;Node2</title>
<path fill="none" stroke="midnightblue" d="M179.1,-61.56C167.72,-66.47 155.12,-71.91 144.7,-76.41"/>
<polygon fill="midnightblue" stroke="midnightblue" points="180.5,-64.77 188.29,-57.59 177.73,-58.34 180.5,-64.77"/>
</g>
<!-- Node4 -->
<g id="node4" class="node">
<title>Node4</title>
<g id="a_node4"><a xlink:href="RG__ZONT2_8F.html#ace7a7940fda3e8f1394c42c962f6c915" target="_top" xlink:title=" ">
<polygon fill="white" stroke="black" points="95,-38.5 95,-57.5 148,-57.5 148,-38.5 95,-38.5"/>
<text text-anchor="middle" x="121.5" y="-45.5" font-family="Helvetica,sans-Serif" font-size="10.00">rg_zont2</text>
</a>
</g>
</g>
<!-- Node1&#45;&gt;Node4 -->
<g id="edge3" class="edge">
<title>Node1&#45;&gt;Node4</title>
<path fill="none" stroke="midnightblue" d="M176.88,-48C167.3,-48 157.02,-48 148,-48"/>
<polygon fill="midnightblue" stroke="midnightblue" points="176.92,-51.5 186.92,-48 176.92,-44.5 176.92,-51.5"/>
</g>
<!-- Node5 -->
<g id="node5" class="node">
<title>Node5</title>
<g id="a_node5"><a xlink:href="interp__iers_8f.html#a6ec42e8f422b67a92d2f25a46cccc395" target="_top" xlink:title=" ">
<polygon fill="white" stroke="black" points="102.5,-0.5 102.5,-19.5 140.5,-19.5 140.5,-0.5 102.5,-0.5"/>
<text text-anchor="middle" x="121.5" y="-7.5" font-family="Helvetica,sans-Serif" font-size="10.00">utlibr</text>
</a>
</g>
</g>
<!-- Node1&#45;&gt;Node5 -->
<g id="edge5" class="edge">
<title>Node1&#45;&gt;Node5</title>
<path fill="none" stroke="midnightblue" d="M178.84,-34.33C165.97,-28.77 151.57,-22.55 140.55,-17.8"/>
<polygon fill="midnightblue" stroke="midnightblue" points="177.73,-37.66 188.29,-38.41 180.5,-31.23 177.73,-37.66"/>
</g>
<!-- Node3 -->
<g id="node3" class="node">
<title>Node3</title>
<g id="a_node3"><a xlink:href="eop__cor2_8f90.html#ad4647132be15ad688dfe65c867b86210" target="_top" xlink:title=" ">
<polygon fill="white" stroke="black" points="0,-38.5 0,-57.5 56,-57.5 56,-38.5 0,-38.5"/>
<text text-anchor="middle" x="28" y="-45.5" font-family="Helvetica,sans-Serif" font-size="10.00">eop_cor2</text>
</a>
</g>
</g>
<!-- Node2&#45;&gt;Node3 -->
<g id="edge2" class="edge">
<title>Node2&#45;&gt;Node3</title>
<path fill="none" stroke="midnightblue" d="M87.85,-72.44C76.02,-67.53 62.92,-62.09 52.08,-57.59"/>
<polygon fill="midnightblue" stroke="midnightblue" points="86.83,-75.81 97.41,-76.41 89.52,-69.34 86.83,-75.81"/>
</g>
<!-- Node4&#45;&gt;Node3 -->
<g id="edge4" class="edge">
<title>Node4&#45;&gt;Node3</title>
<path fill="none" stroke="midnightblue" d="M84.32,-48C74.99,-48 65.11,-48 56.32,-48"/>
<polygon fill="midnightblue" stroke="midnightblue" points="84.52,-51.5 94.52,-48 84.52,-44.5 84.52,-51.5"/>
</g>
<!-- Node5&#45;&gt;Node3 -->
<g id="edge6" class="edge">
<title>Node5&#45;&gt;Node3</title>
<path fill="none" stroke="midnightblue" d="M92.96,-21.44C79.85,-26.88 64.37,-33.31 51.92,-38.48"/>
<polygon fill="midnightblue" stroke="midnightblue" points="94.53,-24.58 102.42,-17.51 91.84,-18.11 94.53,-24.58"/>
</g>
</g>
</svg>
