<?xml version="1.0" encoding="UTF-8" standalone="no"?>
<!DOCTYPE svg PUBLIC "-//W3C//DTD SVG 1.1//EN"
 "http://www.w3.org/Graphics/SVG/1.1/DTD/svg11.dtd">
<!-- Generated by graphviz version 2.50.0 (20220203.2022)
 -->
<!-- Title: Unlnk_amb Pages: 1 -->
<svg width="327pt" height="66pt"
 viewBox="0.00 0.00 327.00 66.00" xmlns="http://www.w3.org/2000/svg" xmlns:xlink="http://www.w3.org/1999/xlink">
<g id="graph0" class="graph" transform="scale(1 1) rotate(0) translate(4 62)">
<title>Unlnk_amb</title>
<polygon fill="white" stroke="transparent" points="-4,4 -4,-62 323,-62 323,4 -4,4"/>
<!-- Node1 -->
<g id="node1" class="node">
<title>Node1</title>
<g id="a_node1"><a xlink:title="Remove ambiguity from pivot tree.">
<polygon fill="#bfbfbf" stroke="black" points="253,-19.5 253,-38.5 319,-38.5 319,-19.5 253,-19.5"/>
<text text-anchor="middle" x="286" y="-26.5" font-family="Helvetica,sans-Serif" font-size="10.00">Unlnk_amb</text>
</a>
</g>
</g>
<!-- Node2 -->
<g id="node2" class="node">
<title>Node2</title>
<g id="a_node2"><a xlink:href="GinARpivot_8cpp.html#a7c7fea331a772c2c0cea6f36588f1ec4" target="_top" xlink:title="Update network pivot.">
<polygon fill="white" stroke="black" points="137,-38.5 137,-57.5 217,-57.5 217,-38.5 137,-38.5"/>
<text text-anchor="middle" x="177" y="-45.5" font-family="Helvetica,sans-Serif" font-size="10.00">updt_net_pivot</text>
</a>
</g>
</g>
<!-- Node1&#45;&gt;Node2 -->
<g id="edge1" class="edge">
<title>Node1&#45;&gt;Node2</title>
<path fill="none" stroke="midnightblue" d="M242.87,-36.48C234.43,-37.98 225.6,-39.55 217.27,-41.03"/>
<polygon fill="midnightblue" stroke="midnightblue" points="243.66,-39.9 252.9,-34.7 242.44,-33 243.66,-39.9"/>
</g>
<!-- Node11 -->
<g id="node5" class="node">
<title>Node11</title>
<g id="a_node5"><a xlink:href="GinARpivot_8cpp.html#a302f284053c9e228c4c2cd2712d2c0cb" target="_top" xlink:title="Update User Pivot.">
<polygon fill="white" stroke="black" points="137,-0.5 137,-19.5 217,-19.5 217,-0.5 137,-0.5"/>
<text text-anchor="middle" x="177" y="-7.5" font-family="Helvetica,sans-Serif" font-size="10.00">updt_usr_pivot</text>
</a>
</g>
</g>
<!-- Node1&#45;&gt;Node11 -->
<g id="edge4" class="edge">
<title>Node1&#45;&gt;Node11</title>
<path fill="none" stroke="midnightblue" d="M242.87,-21.52C234.43,-20.02 225.6,-18.45 217.27,-16.97"/>
<polygon fill="midnightblue" stroke="midnightblue" points="242.44,-25 252.9,-23.3 243.66,-18.1 242.44,-25"/>
</g>
<!-- Node3 -->
<g id="node3" class="node">
<title>Node3</title>
<g id="a_node3"><a xlink:href="GinAR__main_8cpp.html#a5d80c7f56e03c96dc400839ceca50698" target="_top" xlink:title="Ambiguity resolution for network solutions.">
<polygon fill="white" stroke="red" points="1.5,-38.5 1.5,-57.5 99.5,-57.5 99.5,-38.5 1.5,-38.5"/>
<text text-anchor="middle" x="50.5" y="-45.5" font-family="Helvetica,sans-Serif" font-size="10.00">networkAmbigResl</text>
</a>
</g>
</g>
<!-- Node2&#45;&gt;Node3 -->
<g id="edge2" class="edge">
<title>Node2&#45;&gt;Node3</title>
<path fill="none" stroke="midnightblue" d="M126.7,-48C117.78,-48 108.49,-48 99.61,-48"/>
<polygon fill="midnightblue" stroke="midnightblue" points="126.95,-51.5 136.95,-48 126.95,-44.5 126.95,-51.5"/>
</g>
<!-- Node6 -->
<g id="node4" class="node">
<title>Node6</title>
<g id="a_node4"><a xlink:href="GinAR__main_8cpp.html#a99547395860accf77f4d3dc4328cb139" target="_top" xlink:title="Ambiguity resolution on smoothed KF solutions.">
<polygon fill="white" stroke="red" points="0,-0.5 0,-19.5 101,-19.5 101,-0.5 0,-0.5"/>
<text text-anchor="middle" x="50.5" y="-7.5" font-family="Helvetica,sans-Serif" font-size="10.00">smoothdAmbigResl</text>
</a>
</g>
</g>
<!-- Node2&#45;&gt;Node6 -->
<g id="edge3" class="edge">
<title>Node2&#45;&gt;Node6</title>
<path fill="none" stroke="midnightblue" d="M134.93,-35.46C117.99,-30.3 98.68,-24.4 82.91,-19.59"/>
<polygon fill="midnightblue" stroke="midnightblue" points="134,-38.84 144.58,-38.41 136.04,-32.14 134,-38.84"/>
</g>
<!-- Node11&#45;&gt;Node6 -->
<g id="edge5" class="edge">
<title>Node11&#45;&gt;Node6</title>
<path fill="none" stroke="midnightblue" d="M126.93,-10C118.54,-10 109.81,-10 101.4,-10"/>
<polygon fill="midnightblue" stroke="midnightblue" points="126.95,-13.5 136.95,-10 126.95,-6.5 126.95,-13.5"/>
</g>
</g>
</svg>
