<?xml version="1.0" encoding="UTF-8" standalone="no"?>
<!DOCTYPE svg PUBLIC "-//W3C//DTD SVG 1.1//EN"
 "http://www.w3.org/Graphics/SVG/1.1/DTD/svg11.dtd">
<!-- Generated by graphviz version 2.50.0 (20220203.2022)
 -->
<!-- Title: Reset_rec Pages: 1 -->
<svg width="566pt" height="246pt"
 viewBox="0.00 0.00 566.00 246.00" xmlns="http://www.w3.org/2000/svg" xmlns:xlink="http://www.w3.org/1999/xlink">
<g id="graph0" class="graph" transform="scale(1 1) rotate(0) translate(4 242)">
<title>Reset_rec</title>
<polygon fill="white" stroke="transparent" points="-4,4 -4,-242 562,-242 562,4 -4,4"/>
<!-- Node1 -->
<g id="node1" class="node">
<title>Node1</title>
<g id="a_node1"><a xlink:title="Reset receiver on network pivot.">
<polygon fill="#bfbfbf" stroke="black" points="0,-76.5 0,-95.5 61,-95.5 61,-76.5 0,-76.5"/>
<text text-anchor="middle" x="30.5" y="-83.5" font-family="Helvetica,sans-Serif" font-size="10.00">Reset_rec</text>
</a>
</g>
</g>
<!-- Node2 -->
<g id="node2" class="node">
<title>Node2</title>
<g id="a_node2"><a xlink:href="structSatSys.html#aec6d07b90d1e8172b8b6a6966abef4fd" target="_top" xlink:title="Returns a std::string of this satellite&#39;s id.">
<polygon fill="white" stroke="black" points="376.5,-218.5 376.5,-237.5 436.5,-237.5 436.5,-218.5 376.5,-218.5"/>
<text text-anchor="middle" x="406.5" y="-225.5" font-family="Helvetica,sans-Serif" font-size="10.00">SatSys::id</text>
</a>
</g>
</g>
<!-- Node1&#45;&gt;Node2 -->
<g id="edge1" class="edge">
<title>Node1&#45;&gt;Node2</title>
<path fill="none" stroke="midnightblue" d="M40.27,-95.65C64.85,-121.87 137.73,-194.11 216,-219 265.92,-234.88 326.96,-234.5 366.03,-231.94"/>
<polygon fill="midnightblue" stroke="midnightblue" points="366.72,-235.39 376.44,-231.17 366.21,-228.41 366.72,-235.39"/>
</g>
<!-- Node5 -->
<g id="node4" class="node">
<title>Node5</title>
<g id="a_node4"><a xlink:href="GinARpivot_8cpp.html#aa6bd501576fa27cf1dc55b457809b0e4" target="_top" xlink:title="Add ambiguity to pivot tree.">
<polygon fill="white" stroke="black" points="109,-0.5 109,-19.5 168,-19.5 168,-0.5 109,-0.5"/>
<text text-anchor="middle" x="138.5" y="-7.5" font-family="Helvetica,sans-Serif" font-size="10.00">Link_amb</text>
</a>
</g>
</g>
<!-- Node1&#45;&gt;Node5 -->
<g id="edge3" class="edge">
<title>Node1&#45;&gt;Node5</title>
<path fill="none" stroke="midnightblue" d="M42.73,-76.31C55.5,-65.48 77.15,-47.67 97,-34 101.51,-30.89 106.44,-27.77 111.25,-24.85"/>
<polygon fill="midnightblue" stroke="midnightblue" points="113.4,-27.64 120.23,-19.54 109.84,-21.61 113.4,-27.64"/>
</g>
<!-- Node6 -->
<g id="node5" class="node">
<title>Node6</title>
<g id="a_node5"><a xlink:href="GinARWLamb_8cpp.html#a9b4b3f98983e846523263881d690dfaf" target="_top" xlink:title="Remove ambiguities and biases for receivers, network.">
<polygon fill="white" stroke="black" points="97,-114.5 97,-133.5 180,-133.5 180,-114.5 97,-114.5"/>
<text text-anchor="middle" x="138.5" y="-121.5" font-family="Helvetica,sans-Serif" font-size="10.00">remov_WLrecv</text>
</a>
</g>
</g>
<!-- Node1&#45;&gt;Node6 -->
<g id="edge4" class="edge">
<title>Node1&#45;&gt;Node6</title>
<path fill="none" stroke="midnightblue" d="M58.25,-95.59C71.3,-100.27 87.2,-105.97 101.32,-111.03"/>
<polygon fill="midnightblue" stroke="midnightblue" points="100.17,-114.33 110.76,-114.41 102.53,-107.74 100.17,-114.33"/>
</g>
<!-- Node9 -->
<g id="node8" class="node">
<title>Node9</title>
<g id="a_node8"><a xlink:href="streamTrace_8cpp.html#ae00e6addd3bdf3a7fd41a254eb9aec89" target="_top" xlink:title=" ">
<polygon fill="white" stroke="black" points="374.5,-76.5 374.5,-95.5 438.5,-95.5 438.5,-76.5 374.5,-76.5"/>
<text text-anchor="middle" x="406.5" y="-83.5" font-family="Helvetica,sans-Serif" font-size="10.00">tracepdeex</text>
</a>
</g>
</g>
<!-- Node1&#45;&gt;Node9 -->
<g id="edge12" class="edge">
<title>Node1&#45;&gt;Node9</title>
<path fill="none" stroke="midnightblue" d="M61.16,-86C127.49,-86 287.97,-86 364.1,-86"/>
<polygon fill="midnightblue" stroke="midnightblue" points="364.27,-89.5 374.27,-86 364.26,-82.5 364.27,-89.5"/>
</g>
<!-- Node3 -->
<g id="node3" class="node">
<title>Node3</title>
<g id="a_node3"><a xlink:href="structSatSys.html#adbdf98ba1ef1f22b6aaed93916529513" target="_top" xlink:title="Sets a 4 character c_string of this satellite&#39;s id.">
<polygon fill="white" stroke="red" points="484,-218.5 484,-237.5 558,-237.5 558,-218.5 484,-218.5"/>
<text text-anchor="middle" x="521" y="-225.5" font-family="Helvetica,sans-Serif" font-size="10.00">SatSys::getId</text>
</a>
</g>
</g>
<!-- Node2&#45;&gt;Node3 -->
<g id="edge2" class="edge">
<title>Node2&#45;&gt;Node3</title>
<path fill="none" stroke="midnightblue" d="M436.76,-228C447.95,-228 461.01,-228 473.42,-228"/>
<polygon fill="midnightblue" stroke="midnightblue" points="473.64,-231.5 483.64,-228 473.64,-224.5 473.64,-231.5"/>
</g>
<!-- Node7 -->
<g id="node6" class="node">
<title>Node7</title>
<g id="a_node6"><a xlink:href="structGTime.html#aaa8a379d11cd6c040a6bbe680c0e913e" target="_top" xlink:title="Uninitialised time for comparisons.">
<polygon fill="white" stroke="black" points="365,-171.5 365,-190.5 448,-190.5 448,-171.5 365,-171.5"/>
<text text-anchor="middle" x="406.5" y="-178.5" font-family="Helvetica,sans-Serif" font-size="10.00">GTime::noTime</text>
</a>
</g>
</g>
<!-- Node6&#45;&gt;Node7 -->
<g id="edge5" class="edge">
<title>Node6&#45;&gt;Node7</title>
<path fill="none" stroke="midnightblue" d="M176.38,-133.52C188.93,-136.66 203.05,-140.09 216,-143 262.89,-153.52 316.61,-164.16 354.86,-171.49"/>
<polygon fill="midnightblue" stroke="midnightblue" points="354.25,-174.94 364.72,-173.38 355.56,-168.07 354.25,-174.94"/>
</g>
<!-- Node8 -->
<g id="node7" class="node">
<title>Node8</title>
<g id="a_node7"><a xlink:href="structKFState.html#abdf1505bdab1895a280fd018979849f1" target="_top" xlink:title="Remove a state from a kalman filter object.">
<polygon fill="white" stroke="black" points="216,-114.5 216,-133.5 329,-133.5 329,-114.5 216,-114.5"/>
<text text-anchor="middle" x="272.5" y="-121.5" font-family="Helvetica,sans-Serif" font-size="10.00">KFState::removeState</text>
</a>
</g>
</g>
<!-- Node6&#45;&gt;Node8 -->
<g id="edge6" class="edge">
<title>Node6&#45;&gt;Node8</title>
<path fill="none" stroke="midnightblue" d="M180.18,-124C188.24,-124 196.89,-124 205.54,-124"/>
<polygon fill="midnightblue" stroke="midnightblue" points="205.66,-127.5 215.66,-124 205.66,-120.5 205.66,-127.5"/>
</g>
<!-- Node6&#45;&gt;Node9 -->
<g id="edge7" class="edge">
<title>Node6&#45;&gt;Node9</title>
<path fill="none" stroke="midnightblue" d="M173.55,-114.43C186.72,-111.02 201.98,-107.43 216,-105 266.62,-96.22 325.61,-91.1 364.16,-88.43"/>
<polygon fill="midnightblue" stroke="midnightblue" points="364.72,-91.9 374.46,-87.74 364.25,-84.92 364.72,-91.9"/>
</g>
<!-- Node10 -->
<g id="node9" class="node">
<title>Node10</title>
<g id="a_node9"><a xlink:href="GinARWLamb_8cpp.html#aff0cccb14678a58071b729bac061e776" target="_top" xlink:title="save Resolved WL ambiguities">
<polygon fill="white" stroke="red" points="235.5,-190.5 235.5,-209.5 309.5,-209.5 309.5,-190.5 235.5,-190.5"/>
<text text-anchor="middle" x="272.5" y="-197.5" font-family="Helvetica,sans-Serif" font-size="10.00">WL_newsect</text>
</a>
</g>
</g>
<!-- Node6&#45;&gt;Node10 -->
<g id="edge8" class="edge">
<title>Node6&#45;&gt;Node10</title>
<path fill="none" stroke="midnightblue" d="M152.02,-133.6C166.8,-144.67 192.36,-163 216,-176 222.7,-179.68 230.09,-183.22 237.22,-186.38"/>
<polygon fill="midnightblue" stroke="midnightblue" points="236.14,-189.73 246.71,-190.46 238.9,-183.3 236.14,-189.73"/>
</g>
<!-- Node10&#45;&gt;Node2 -->
<g id="edge9" class="edge">
<title>Node10&#45;&gt;Node2</title>
<path fill="none" stroke="midnightblue" d="M309.57,-207.65C327.14,-211.38 348.29,-215.86 366.26,-219.68"/>
<polygon fill="midnightblue" stroke="midnightblue" points="365.63,-223.12 376.14,-221.77 367.09,-216.27 365.63,-223.12"/>
</g>
<!-- Node10&#45;&gt;Node7 -->
<g id="edge10" class="edge">
<title>Node10&#45;&gt;Node7</title>
<path fill="none" stroke="midnightblue" d="M309.57,-194.81C323.46,-192.81 339.6,-190.49 354.63,-188.32"/>
<polygon fill="midnightblue" stroke="midnightblue" points="355.42,-191.74 364.82,-186.86 354.42,-184.82 355.42,-191.74"/>
</g>
<!-- Node10&#45;&gt;Node9 -->
<g id="edge11" class="edge">
<title>Node10&#45;&gt;Node9</title>
<path fill="none" stroke="midnightblue" d="M284.75,-190.28C307.35,-170.76 358.48,-126.61 386.41,-102.49"/>
<polygon fill="midnightblue" stroke="midnightblue" points="388.99,-104.88 394.27,-95.69 384.42,-99.58 388.99,-104.88"/>
</g>
</g>
</svg>
