<?xml version="1.0" encoding="UTF-8" standalone="no"?>
<!DOCTYPE svg PUBLIC "-//W3C//DTD SVG 1.1//EN"
 "http://www.w3.org/Graphics/SVG/1.1/DTD/svg11.dtd">
<!-- Generated by graphviz version 2.50.0 (20220203.2022)
 -->
<!-- Title: apply_ambigt Pages: 1 -->
<!--zoomable 598 -->
<svg id="main" version="1.1" xmlns="http://www.w3.org/2000/svg" xmlns:xlink="http://www.w3.org/1999/xlink" xml:space="preserve" onload="init(evt)">
<style type="text/css"><![CDATA[
.edge:hover path { stroke: red; }
.edge:hover polygon { stroke: red; fill: red; }
]]></style>
<script type="text/javascript"><![CDATA[
var edges = document.getElementsByTagName('g');
if (edges && edges.length) {
  for (var i=0;i<edges.length;i++) {
    if (edges[i].id.substr(0,4)=='edge') {
      edges[i].setAttribute('class','edge');
    }
  }
}
]]></script>
        <defs>
                <circle id="rim" cx="0" cy="0" r="7"/>
                <circle id="rim2" cx="0" cy="0" r="3.5"/>
                <g id="zoomPlus">
                        <use xlink:href="#rim" fill="#404040">
                                <set attributeName="fill" to="#808080" begin="zoomplus.mouseover" end="zoomplus.mouseout"/>
                        </use>
                        <path d="M-4,0h8M0,-4v8" fill="none" stroke="white" stroke-width="1.5" pointer-events="none"/>
                </g>
                <g id="zoomMin">
                        <use xlink:href="#rim" fill="#404040">
                                <set attributeName="fill" to="#808080" begin="zoomminus.mouseover" end="zoomminus.mouseout"/>
                        </use>
                        <path d="M-4,0h8" fill="none" stroke="white" stroke-width="1.5" pointer-events="none"/>
                </g>
                <g id="dirArrow">
                        <path fill="none" stroke="white" stroke-width="1.5" d="M0,-3.0v7 M-2.5,-0.5L0,-3.0L2.5,-0.5"/>
                </g>
               <g id="resetDef">
                       <use xlink:href="#rim2" fill="#404040">
                               <set attributeName="fill" to="#808080" begin="reset.mouseover" end="reset.mouseout"/>
                       </use>
               </g>
        </defs>

<script type="text/javascript">
var viewWidth = 563;
var viewHeight = 598;
var sectionId = 'dynsection-0';
</script>
<script xlink:href="svgpan.js"/>
<svg id="graph" class="graph">
<g id="viewport">
<title>apply_ambigt</title>
<polygon fill="white" stroke="transparent" points="-4,4 -4,-594 559,-594 559,4 -4,4"/>
<!-- Node1 -->
<g id="node1" class="node">
<title>Node1</title>
<g id="a_node1"><a xlink:title="Apply archived Z&#45;ambiguities to float solution.">
<polygon fill="#bfbfbf" stroke="black" points="0,-285.5 0,-304.5 74,-304.5 74,-285.5 0,-285.5"/>
<text text-anchor="middle" x="37" y="-292.5" font-family="Helvetica,sans-Serif" font-size="10.00">apply_ambigt</text>
</a>
</g>
</g>
<!-- Node2 -->
<g id="node2" class="node">
<title>Node2</title>
<g id="a_node2"><a xlink:href="structKFMeasEntry.html#a5af30258b0bcd703468c0d0ec2ed6d54" target="_top" xlink:title="Adds a design matrix entry for this measurement.">
<polygon fill="white" stroke="black" points="113.5,-399.5 113.5,-418.5 253.5,-418.5 253.5,-399.5 113.5,-399.5"/>
<text text-anchor="middle" x="183.5" y="-406.5" font-family="Helvetica,sans-Serif" font-size="10.00">KFMeasEntry::addDsgnEntry</text>
</a>
</g>
</g>
<!-- Node1&#45;&gt;Node2 -->
<g id="edge1" class="edge">
<title>Node1&#45;&gt;Node2</title>
<path fill="none" stroke="midnightblue" d="M42.6,-304.79C52.24,-324.19 76.45,-367.57 110,-390 113.1,-392.07 116.42,-393.92 119.87,-395.57"/>
<polygon fill="midnightblue" stroke="midnightblue" points="118.65,-398.85 129.23,-399.47 121.35,-392.39 118.65,-398.85"/>
</g>
<!-- Node3 -->
<g id="node3" class="node">
<title>Node3</title>
<g id="a_node3"><a xlink:href="trop_8cpp.html#aee11659ecea14ca59feae2dbe9f160d5" target="_top" xlink:title="coefficients multiplication">
<polygon fill="white" stroke="black" points="166,-361.5 166,-380.5 201,-380.5 201,-361.5 166,-361.5"/>
<text text-anchor="middle" x="183.5" y="-368.5" font-family="Helvetica,sans-Serif" font-size="10.00">coef</text>
</a>
</g>
</g>
<!-- Node1&#45;&gt;Node3 -->
<g id="edge2" class="edge">
<title>Node1&#45;&gt;Node3</title>
<path fill="none" stroke="midnightblue" d="M47.34,-304.55C60.28,-317.23 84.89,-339.47 110,-352 124.38,-359.18 141.76,-363.85 155.9,-366.77"/>
<polygon fill="midnightblue" stroke="midnightblue" points="155.5,-370.25 165.98,-368.67 156.8,-363.38 155.5,-370.25"/>
</g>
<!-- Node4 -->
<g id="node4" class="node">
<title>Node4</title>
<g id="a_node4"><a xlink:href="structKFState.html#abae5c2435fa3ca6bb4396cd8a5363f85" target="_top" xlink:title="Combine a list of KFMeasEntrys into a single KFMeas object for used in the filter.">
<polygon fill="white" stroke="black" points="110,-323.5 110,-342.5 257,-342.5 257,-323.5 110,-323.5"/>
<text text-anchor="middle" x="183.5" y="-330.5" font-family="Helvetica,sans-Serif" font-size="10.00">KFState::combineKFMeasList</text>
</a>
</g>
</g>
<!-- Node1&#45;&gt;Node4 -->
<g id="edge3" class="edge">
<title>Node1&#45;&gt;Node4</title>
<path fill="none" stroke="midnightblue" d="M74.26,-304.58C85.69,-307.6 98.37,-310.94 110,-314 118.5,-316.24 127.57,-318.62 136.31,-320.91"/>
<polygon fill="midnightblue" stroke="midnightblue" points="135.43,-324.29 145.99,-323.44 137.2,-317.52 135.43,-324.29"/>
</g>
<!-- Node6 -->
<g id="node6" class="node">
<title>Node6</title>
<g id="a_node6"><a xlink:href="structKFState.html#a21a4858020ad706771efeea814d6c43f" target="_top" xlink:title="Kalman filter operation.">
<polygon fill="white" stroke="black" points="129.5,-285.5 129.5,-304.5 237.5,-304.5 237.5,-285.5 129.5,-285.5"/>
<text text-anchor="middle" x="183.5" y="-292.5" font-family="Helvetica,sans-Serif" font-size="10.00">KFState::filterKalman</text>
</a>
</g>
</g>
<!-- Node1&#45;&gt;Node6 -->
<g id="edge5" class="edge">
<title>Node1&#45;&gt;Node6</title>
<path fill="none" stroke="midnightblue" d="M74.09,-295C87.81,-295 103.86,-295 119.35,-295"/>
<polygon fill="midnightblue" stroke="midnightblue" points="119.42,-298.5 129.42,-295 119.42,-291.5 119.42,-298.5"/>
</g>
<!-- Node12 -->
<g id="node12" class="node">
<title>Node12</title>
<g id="a_node12"><a xlink:href="streamTrace_8cpp.html#ae00e6addd3bdf3a7fd41a254eb9aec89" target="_top" xlink:title=" ">
<polygon fill="white" stroke="black" points="491,-228.5 491,-247.5 555,-247.5 555,-228.5 491,-228.5"/>
<text text-anchor="middle" x="523" y="-235.5" font-family="Helvetica,sans-Serif" font-size="10.00">tracepdeex</text>
</a>
</g>
</g>
<!-- Node1&#45;&gt;Node12 -->
<g id="edge22" class="edge">
<title>Node1&#45;&gt;Node12</title>
<path fill="none" stroke="midnightblue" d="M46.44,-285.28C76.09,-251.99 179.81,-142.53 293,-105 361.34,-82.34 393.7,-67.24 455,-105 495.58,-130 512.46,-187.97 518.73,-218.46"/>
<polygon fill="midnightblue" stroke="midnightblue" points="515.3,-219.15 520.58,-228.33 522.18,-217.86 515.3,-219.15"/>
</g>
<!-- Node30 -->
<g id="node20" class="node">
<title>Node30</title>
<g id="a_node20"><a xlink:href="structKFMeasEntry.html#a1054abe38550bcd614c1a3c1afe752ee" target="_top" xlink:title="Adds the measurement noise entry for this measurement.">
<polygon fill="white" stroke="black" points="124,-38.5 124,-57.5 243,-57.5 243,-38.5 124,-38.5"/>
<text text-anchor="middle" x="183.5" y="-45.5" font-family="Helvetica,sans-Serif" font-size="10.00">KFMeasEntry::setNoise</text>
</a>
</g>
</g>
<!-- Node1&#45;&gt;Node30 -->
<g id="edge20" class="edge">
<title>Node1&#45;&gt;Node30</title>
<path fill="none" stroke="midnightblue" d="M38.17,-285.41C39.32,-251.32 47.81,-134.65 110,-72 113.91,-68.06 118.48,-64.77 123.39,-62.01"/>
<polygon fill="midnightblue" stroke="midnightblue" points="125.04,-65.11 132.53,-57.62 122,-58.8 125.04,-65.11"/>
</g>
<!-- Node31 -->
<g id="node21" class="node">
<title>Node31</title>
<g id="a_node21"><a xlink:href="structKFMeasEntry.html#a56ed46a7048dcd7e87e75eebc342dc7d" target="_top" xlink:title="Adds the actual measurement value for this measurement.">
<polygon fill="white" stroke="black" points="124.5,-0.5 124.5,-19.5 242.5,-19.5 242.5,-0.5 124.5,-0.5"/>
<text text-anchor="middle" x="183.5" y="-7.5" font-family="Helvetica,sans-Serif" font-size="10.00">KFMeasEntry::setValue</text>
</a>
</g>
</g>
<!-- Node1&#45;&gt;Node31 -->
<g id="edge21" class="edge">
<title>Node1&#45;&gt;Node31</title>
<path fill="none" stroke="midnightblue" d="M37.45,-285.36C35.81,-246.95 35.11,-103.29 110,-29 111.69,-27.32 113.51,-25.79 115.42,-24.39"/>
<polygon fill="midnightblue" stroke="midnightblue" points="117.6,-27.17 124.4,-19.04 114.02,-21.15 117.6,-27.17"/>
</g>
<!-- Node5 -->
<g id="node5" class="node">
<title>Node5</title>
<g id="a_node5"><a xlink:href="structKFState.html#a5aeeee0f20df8cc8c4747c1b5b18212f" target="_top" xlink:title="Finds the position in the KF state vector of particular states.">
<polygon fill="white" stroke="black" points="320.5,-570.5 320.5,-589.5 427.5,-589.5 427.5,-570.5 320.5,-570.5"/>
<text text-anchor="middle" x="374" y="-577.5" font-family="Helvetica,sans-Serif" font-size="10.00">KFState::getKFIndex</text>
</a>
</g>
</g>
<!-- Node4&#45;&gt;Node5 -->
<g id="edge4" class="edge">
<title>Node4&#45;&gt;Node5</title>
<path fill="none" stroke="midnightblue" d="M244.73,-342.56C249.29,-345.07 253.48,-348.17 257,-352 320.73,-421.44 228.47,-492.3 293,-561 297.86,-566.17 303.85,-570.05 310.35,-572.95"/>
<polygon fill="midnightblue" stroke="midnightblue" points="309.56,-576.39 320.16,-576.52 311.96,-569.81 309.56,-576.39"/>
</g>
<!-- Node7 -->
<g id="node7" class="node">
<title>Node7</title>
<g id="a_node7"><a xlink:href="structKFState.html#ae6e89a4dca53b4c6f8a5eadb1f61dd5c" target="_top" xlink:title=" ">
<polygon fill="white" stroke="black" points="293,-532.5 293,-551.5 455,-551.5 455,-532.5 293,-532.5"/>
<text text-anchor="middle" x="374" y="-539.5" font-family="Helvetica,sans-Serif" font-size="10.00">KFState::doMeasRejectCallbacks</text>
</a>
</g>
</g>
<!-- Node6&#45;&gt;Node7 -->
<g id="edge6" class="edge">
<title>Node6&#45;&gt;Node7</title>
<path fill="none" stroke="midnightblue" d="M237.64,-301.24C244.93,-304.15 251.72,-308.25 257,-314 320.73,-383.44 228.47,-454.3 293,-523 294.21,-524.29 295.49,-525.5 296.83,-526.63"/>
<polygon fill="midnightblue" stroke="midnightblue" points="294.88,-529.53 305.1,-532.32 298.85,-523.77 294.88,-529.53"/>
</g>
<!-- Node8 -->
<g id="node8" class="node">
<title>Node8</title>
<g id="a_node8"><a xlink:href="structKFState.html#adc93fe4d98f33b24037d09e712e8400a" target="_top" xlink:title=" ">
<polygon fill="white" stroke="black" points="293.5,-494.5 293.5,-513.5 454.5,-513.5 454.5,-494.5 293.5,-494.5"/>
<text text-anchor="middle" x="374" y="-501.5" font-family="Helvetica,sans-Serif" font-size="10.00">KFState::doStateRejectCallbacks</text>
</a>
</g>
</g>
<!-- Node6&#45;&gt;Node8 -->
<g id="edge7" class="edge">
<title>Node6&#45;&gt;Node8</title>
<path fill="none" stroke="midnightblue" d="M237.82,-301.56C245,-304.43 251.71,-308.44 257,-314 310.56,-370.24 238.79,-429.38 293,-485 294.27,-486.3 295.61,-487.52 297.01,-488.66"/>
<polygon fill="midnightblue" stroke="midnightblue" points="295.36,-491.77 305.62,-494.38 299.23,-485.93 295.36,-491.77"/>
</g>
<!-- Node9 -->
<g id="node9" class="node">
<title>Node9</title>
<g id="a_node9"><a xlink:href="structKFState.html#a34fe78e0ab7a8f1d122ceabddc29b207" target="_top" xlink:title="Clears and initialises the state transition matrix to identity at the beginning of an epoch.">
<polygon fill="white" stroke="black" points="314.5,-456.5 314.5,-475.5 433.5,-475.5 433.5,-456.5 314.5,-456.5"/>
<text text-anchor="middle" x="374" y="-463.5" font-family="Helvetica,sans-Serif" font-size="10.00">KFState::initFilterEpoch</text>
</a>
</g>
</g>
<!-- Node6&#45;&gt;Node9 -->
<g id="edge8" class="edge">
<title>Node6&#45;&gt;Node9</title>
<path fill="none" stroke="midnightblue" d="M237.54,-301.83C244.76,-304.67 251.55,-308.59 257,-314 300.48,-357.13 249.03,-404.38 293,-447 296.53,-450.42 300.56,-453.27 304.89,-455.63"/>
<polygon fill="midnightblue" stroke="midnightblue" points="303.58,-458.88 314.13,-459.83 306.47,-452.5 303.58,-458.88"/>
</g>
<!-- Node10 -->
<g id="node10" class="node">
<title>Node10</title>
<g id="a_node10"><a xlink:href="structKFState.html#a2280e82ccd3ebdefc388756580e5fad7" target="_top" xlink:title="Compute Chi&#45;square increment based on pre&#45;fit residuals (innovations)">
<polygon fill="white" stroke="black" points="311.5,-418.5 311.5,-437.5 436.5,-437.5 436.5,-418.5 311.5,-418.5"/>
<text text-anchor="middle" x="374" y="-425.5" font-family="Helvetica,sans-Serif" font-size="10.00">KFState::innovChiSquare</text>
</a>
</g>
</g>
<!-- Node6&#45;&gt;Node10 -->
<g id="edge9" class="edge">
<title>Node6&#45;&gt;Node10</title>
<path fill="none" stroke="midnightblue" d="M237.82,-302.6C244.83,-305.35 251.49,-309.04 257,-314 290.57,-344.19 259.08,-379.2 293,-409 295.85,-411.5 298.97,-413.69 302.27,-415.6"/>
<polygon fill="midnightblue" stroke="midnightblue" points="300.86,-418.81 311.38,-420.04 303.92,-412.52 300.86,-418.81"/>
</g>
<!-- Node11 -->
<g id="node11" class="node">
<title>Node11</title>
<g id="a_node11"><a xlink:href="structKFState.html#a5b591c7386c7fb734067424a097ca118" target="_top" xlink:title="Kalman filter.">
<polygon fill="white" stroke="black" points="332,-380.5 332,-399.5 416,-399.5 416,-380.5 332,-380.5"/>
<text text-anchor="middle" x="374" y="-387.5" font-family="Helvetica,sans-Serif" font-size="10.00">KFState::kFilter</text>
</a>
</g>
</g>
<!-- Node6&#45;&gt;Node11 -->
<g id="edge10" class="edge">
<title>Node6&#45;&gt;Node11</title>
<path fill="none" stroke="midnightblue" d="M237.72,-303.93C244.59,-306.49 251.23,-309.77 257,-314 281.18,-331.7 268.62,-353.58 293,-371 301.54,-377.1 311.77,-381.26 322.02,-384.1"/>
<polygon fill="midnightblue" stroke="midnightblue" points="321.25,-387.52 331.79,-386.43 322.88,-380.71 321.25,-387.52"/>
</g>
<!-- Node13 -->
<g id="node13" class="node">
<title>Node13</title>
<g id="a_node13"><a xlink:href="structKFState.html#a67bbec17e7e74bf5de0d83098281bfc0" target="_top" xlink:title="Compute Chi&#45;square increment based on post&#45;fit residuals.">
<polygon fill="white" stroke="black" points="311,-342.5 311,-361.5 437,-361.5 437,-342.5 311,-342.5"/>
<text text-anchor="middle" x="374" y="-349.5" font-family="Helvetica,sans-Serif" font-size="10.00">KFState::measChiSquare</text>
</a>
</g>
</g>
<!-- Node6&#45;&gt;Node13 -->
<g id="edge12" class="edge">
<title>Node6&#45;&gt;Node13</title>
<path fill="none" stroke="midnightblue" d="M227.57,-304.55C237.38,-307.2 247.66,-310.37 257,-314 273.86,-320.56 276.06,-326.64 293,-333 299.8,-335.55 307.05,-337.84 314.32,-339.87"/>
<polygon fill="midnightblue" stroke="midnightblue" points="313.62,-343.31 324.18,-342.48 315.41,-336.54 313.62,-343.31"/>
</g>
<!-- Node14 -->
<g id="node14" class="node">
<title>Node14</title>
<g id="a_node14"><a xlink:href="mongoWrite_8cpp.html#a2b60515d35b3ad7ac783de1d8539495f" target="_top" xlink:title=" ">
<polygon fill="white" stroke="black" points="332.5,-304.5 332.5,-323.5 415.5,-323.5 415.5,-304.5 332.5,-304.5"/>
<text text-anchor="middle" x="374" y="-311.5" font-family="Helvetica,sans-Serif" font-size="10.00">mongoTestStat</text>
</a>
</g>
</g>
<!-- Node6&#45;&gt;Node14 -->
<g id="edge13" class="edge">
<title>Node6&#45;&gt;Node14</title>
<path fill="none" stroke="midnightblue" d="M237.51,-300.34C264.04,-303.02 296.01,-306.24 322.22,-308.88"/>
<polygon fill="midnightblue" stroke="midnightblue" points="322.03,-312.38 332.33,-309.9 322.74,-305.42 322.03,-312.38"/>
</g>
<!-- Node15 -->
<g id="node15" class="node">
<title>Node15</title>
<g id="a_node15"><a xlink:href="structGTime.html#aaa8a379d11cd6c040a6bbe680c0e913e" target="_top" xlink:title="Uninitialised time for comparisons.">
<polygon fill="white" stroke="black" points="332.5,-266.5 332.5,-285.5 415.5,-285.5 415.5,-266.5 332.5,-266.5"/>
<text text-anchor="middle" x="374" y="-273.5" font-family="Helvetica,sans-Serif" font-size="10.00">GTime::noTime</text>
</a>
</g>
</g>
<!-- Node6&#45;&gt;Node15 -->
<g id="edge14" class="edge">
<title>Node6&#45;&gt;Node15</title>
<path fill="none" stroke="midnightblue" d="M237.51,-289.66C264.04,-286.98 296.01,-283.76 322.22,-281.12"/>
<polygon fill="midnightblue" stroke="midnightblue" points="322.74,-284.58 332.33,-280.1 322.03,-277.62 322.74,-284.58"/>
</g>
<!-- Node16 -->
<g id="node16" class="node">
<title>Node16</title>
<g id="a_node16"><a xlink:href="structKFState.html#aab4e5ed0ddc781d8b4db8de02af119cc" target="_top" xlink:title="Compare variances of measurements and filtered states to detect unreasonable values.">
<polygon fill="white" stroke="red" points="300,-228.5 300,-247.5 448,-247.5 448,-228.5 300,-228.5"/>
<text text-anchor="middle" x="374" y="-235.5" font-family="Helvetica,sans-Serif" font-size="10.00">KFState::postFitSigmaChecks</text>
</a>
</g>
</g>
<!-- Node6&#45;&gt;Node16 -->
<g id="edge15" class="edge">
<title>Node6&#45;&gt;Node16</title>
<path fill="none" stroke="midnightblue" d="M209.69,-285.34C231.53,-277.17 264.08,-265.47 293,-257 301.46,-254.52 310.49,-252.13 319.33,-249.93"/>
<polygon fill="midnightblue" stroke="midnightblue" points="320.3,-253.3 329.19,-247.54 318.64,-246.5 320.3,-253.3"/>
</g>
<!-- Node25 -->
<g id="node17" class="node">
<title>Node25</title>
<g id="a_node17"><a xlink:href="structKFState.html#a1d84b2acc0006963bdea090daa78685a" target="_top" xlink:title="Compare variances of measurements and pre&#45;filtered states to detect unreasonable values Ref: Wang et ...">
<polygon fill="white" stroke="black" points="305.5,-190.5 305.5,-209.5 442.5,-209.5 442.5,-190.5 305.5,-190.5"/>
<text text-anchor="middle" x="374" y="-197.5" font-family="Helvetica,sans-Serif" font-size="10.00">KFState::preFitSigmaCheck</text>
</a>
</g>
</g>
<!-- Node6&#45;&gt;Node25 -->
<g id="edge17" class="edge">
<title>Node6&#45;&gt;Node25</title>
<path fill="none" stroke="midnightblue" d="M195.35,-285.25C213.96,-269.05 253.77,-236.62 293,-219 298.42,-216.56 304.2,-214.42 310.07,-212.53"/>
<polygon fill="midnightblue" stroke="midnightblue" points="311.39,-215.79 319.99,-209.6 309.41,-209.08 311.39,-215.79"/>
</g>
<!-- Node26 -->
<g id="node18" class="node">
<title>Node26</title>
<g id="a_node18"><a xlink:href="algebraTrace_8hpp.html#a912bbc3ba390c6b3a01f7cae26a53588" target="_top" xlink:title="Output filter state to a file for later reading.">
<polygon fill="white" stroke="red" points="333.5,-152.5 333.5,-171.5 414.5,-171.5 414.5,-152.5 333.5,-152.5"/>
<text text-anchor="middle" x="374" y="-159.5" font-family="Helvetica,sans-Serif" font-size="10.00">spitFilterToFile</text>
</a>
</g>
</g>
<!-- Node6&#45;&gt;Node26 -->
<g id="edge18" class="edge">
<title>Node6&#45;&gt;Node26</title>
<path fill="none" stroke="midnightblue" d="M190.78,-285.26C205.65,-263.04 245.39,-208.37 293,-181 302.29,-175.66 313,-171.82 323.51,-169.06"/>
<polygon fill="midnightblue" stroke="midnightblue" points="324.53,-172.42 333.46,-166.73 322.93,-165.6 324.53,-172.42"/>
</g>
<!-- Node29 -->
<g id="node19" class="node">
<title>Node29</title>
<g id="a_node19"><a xlink:href="structKFState.html#aa963c92f094f4c0f9d43eea2661723dd" target="_top" xlink:title="Compute Chi&#45;square increment based on the change of fitting solution.">
<polygon fill="white" stroke="black" points="312,-114.5 312,-133.5 436,-133.5 436,-114.5 312,-114.5"/>
<text text-anchor="middle" x="374" y="-121.5" font-family="Helvetica,sans-Serif" font-size="10.00">KFState::stateChiSquare</text>
</a>
</g>
</g>
<!-- Node6&#45;&gt;Node29 -->
<g id="edge19" class="edge">
<title>Node6&#45;&gt;Node29</title>
<path fill="none" stroke="midnightblue" d="M188.44,-285.33C200.04,-258.2 236.77,-180.81 293,-143 296.08,-140.93 299.37,-139.08 302.78,-137.43"/>
<polygon fill="midnightblue" stroke="midnightblue" points="304.2,-140.63 312.06,-133.52 301.48,-134.18 304.2,-140.63"/>
</g>
<!-- Node11&#45;&gt;Node12 -->
<g id="edge11" class="edge">
<title>Node11&#45;&gt;Node12</title>
<path fill="none" stroke="midnightblue" d="M416.26,-387.13C429.73,-384.49 444.02,-379.67 455,-371 491.88,-341.86 510.16,-287.05 517.67,-257.71"/>
<polygon fill="midnightblue" stroke="midnightblue" points="521.11,-258.36 520.03,-247.82 514.3,-256.73 521.11,-258.36"/>
</g>
<!-- Node16&#45;&gt;Node12 -->
<g id="edge16" class="edge">
<title>Node16&#45;&gt;Node12</title>
<path fill="none" stroke="midnightblue" d="M448.07,-238C459.3,-238 470.54,-238 480.75,-238"/>
<polygon fill="midnightblue" stroke="midnightblue" points="480.97,-241.5 490.97,-238 480.97,-234.5 480.97,-241.5"/>
</g>
</g>
</svg>
        <g id="navigator" transform="translate(0 0)" fill="#404254">
                <rect fill="#f2f5e9" fill-opacity="0.5" stroke="#606060" stroke-width=".5" x="0" y="0" width="60" height="60"/>
                <use id="zoomplus" xlink:href="#zoomPlus" x="17" y="9" onmousedown="handleZoom(evt,'in')"/>
                <use id="zoomminus" xlink:href="#zoomMin" x="42" y="9" onmousedown="handleZoom(evt,'out')"/>
                <use id="reset" xlink:href="#resetDef" x="30" y="36" onmousedown="handleReset()"/>
                <g id="arrowUp" xlink:href="#dirArrow" transform="translate(30 24)" onmousedown="handlePan(0,-1)">
                  <use xlink:href="#rim" fill="#404040">
                        <set attributeName="fill" to="#808080" begin="arrowUp.mouseover" end="arrowUp.mouseout"/>
                  </use>
                  <path fill="none" stroke="white" stroke-width="1.5" d="M0,-3.0v7 M-2.5,-0.5L0,-3.0L2.5,-0.5"/>
                </g>
                <g id="arrowRight" xlink:href="#dirArrow" transform="rotate(90) translate(36 -43)" onmousedown="handlePan(1,0)">
                  <use xlink:href="#rim" fill="#404040">
                        <set attributeName="fill" to="#808080" begin="arrowRight.mouseover" end="arrowRight.mouseout"/>
                  </use>
                  <path fill="none" stroke="white" stroke-width="1.5" d="M0,-3.0v7 M-2.5,-0.5L0,-3.0L2.5,-0.5"/>
                </g>
                <g id="arrowDown" xlink:href="#dirArrow" transform="rotate(180) translate(-30 -48)" onmousedown="handlePan(0,1)">
                  <use xlink:href="#rim" fill="#404040">
                        <set attributeName="fill" to="#808080" begin="arrowDown.mouseover" end="arrowDown.mouseout"/>
                  </use>
                  <path fill="none" stroke="white" stroke-width="1.5" d="M0,-3.0v7 M-2.5,-0.5L0,-3.0L2.5,-0.5"/>
                </g>
                <g id="arrowLeft" xlink:href="#dirArrow" transform="rotate(270) translate(-36 17)" onmousedown="handlePan(-1,0)">
                  <use xlink:href="#rim" fill="#404040">
                        <set attributeName="fill" to="#808080" begin="arrowLeft.mouseover" end="arrowLeft.mouseout"/>
                  </use>
                  <path fill="none" stroke="white" stroke-width="1.5" d="M0,-3.0v7 M-2.5,-0.5L0,-3.0L2.5,-0.5"/>
                </g>
        </g>
        <svg viewBox="0 0 15 15" width="100%" height="30px" preserveAspectRatio="xMaxYMin meet">
         <g id="arrow_out" transform="scale(0.3 0.3)">
          <a xlink:href="GinARNLamb_8cpp_ad93bb9c322526f57beacb5aeb5c4e66a_cgraph_org.svg" target="_base">
           <rect id="button" ry="5" rx="5" y="6" x="6" height="38" width="38"
                fill="#f2f5e9" fill-opacity="0.5" stroke="#606060" stroke-width="1.0"/>
           <path id="arrow"
             d="M 11.500037,31.436501 C 11.940474,20.09759 22.043105,11.32322 32.158766,21.979434 L 37.068811,17.246167 C 37.068811,17.246167 37.088388,32 37.088388,32 L 22.160133,31.978069 C 22.160133,31.978069 26.997745,27.140456 26.997745,27.140456 C 18.528582,18.264221 13.291696,25.230495 11.500037,31.436501 z"
             style="fill:#404040;"/>
          </a>
         </g>
        </svg>
</svg>
