<?xml version="1.0" encoding="UTF-8" standalone="no"?>
<!DOCTYPE svg PUBLIC "-//W3C//DTD SVG 1.1//EN"
 "http://www.w3.org/Graphics/SVG/1.1/DTD/svg11.dtd">
<!-- Generated by graphviz version 2.50.0 (20220203.2022)
 -->
<!-- Title: retrv_WLambg Pages: 1 -->
<svg width="336pt" height="104pt"
 viewBox="0.00 0.00 336.00 104.00" xmlns="http://www.w3.org/2000/svg" xmlns:xlink="http://www.w3.org/1999/xlink">
<g id="graph0" class="graph" transform="scale(1 1) rotate(0) translate(4 100)">
<title>retrv_WLambg</title>
<polygon fill="white" stroke="transparent" points="-4,4 -4,-100 332,-100 332,4 -4,4"/>
<!-- Node1 -->
<g id="node1" class="node">
<title>Node1</title>
<g id="a_node1"><a xlink:title="Retrieve WL ambiguities from archive.">
<polygon fill="#bfbfbf" stroke="black" points="248,-38.5 248,-57.5 328,-57.5 328,-38.5 248,-38.5"/>
<text text-anchor="middle" x="288" y="-45.5" font-family="Helvetica,sans-Serif" font-size="10.00">retrv_WLambg</text>
</a>
</g>
</g>
<!-- Node2 -->
<g id="node2" class="node">
<title>Node2</title>
<g id="a_node2"><a xlink:href="GinARoutpt_8cpp.html#ac899b04de8df209c6b867571e95b26eb" target="_top" xlink:title="Export AR Ionosphere measurments.">
<polygon fill="white" stroke="black" points="149,-76.5 149,-95.5 200,-95.5 200,-76.5 149,-76.5"/>
<text text-anchor="middle" x="174.5" y="-83.5" font-family="Helvetica,sans-Serif" font-size="10.00">arionout</text>
</a>
</g>
</g>
<!-- Node1&#45;&gt;Node2 -->
<g id="edge1" class="edge">
<title>Node1&#45;&gt;Node2</title>
<path fill="none" stroke="midnightblue" d="M249.15,-60.9C232.99,-66.41 214.58,-72.68 200.21,-77.58"/>
<polygon fill="midnightblue" stroke="midnightblue" points="250.53,-64.13 258.86,-57.59 248.27,-57.5 250.53,-64.13"/>
</g>
<!-- Node6 -->
<g id="node4" class="node">
<title>Node6</title>
<g id="a_node4"><a xlink:href="GinAR__main_8cpp.html#a48fa415df652066004129736fa989e44" target="_top" xlink:title="Loading float ambiguity data from KF.">
<polygon fill="white" stroke="black" points="138.5,-0.5 138.5,-19.5 210.5,-19.5 210.5,-0.5 138.5,-0.5"/>
<text text-anchor="middle" x="174.5" y="-7.5" font-family="Helvetica,sans-Serif" font-size="10.00">LoadFromFlt</text>
</a>
</g>
</g>
<!-- Node1&#45;&gt;Node6 -->
<g id="edge3" class="edge">
<title>Node1&#45;&gt;Node6</title>
<path fill="none" stroke="midnightblue" d="M249.37,-35.17C234.41,-30.08 217.49,-24.31 203.63,-19.59"/>
<polygon fill="midnightblue" stroke="midnightblue" points="248.27,-38.5 258.86,-38.41 250.53,-31.87 248.27,-38.5"/>
</g>
<!-- Node12 -->
<g id="node6" class="node">
<title>Node12</title>
<g id="a_node6"><a xlink:href="GinARNLamb_8cpp.html#a150b7e4a892320cadb8bfd4c813a1aca" target="_top" xlink:title="Update float ambiguity estimates.">
<polygon fill="white" stroke="black" points="137,-38.5 137,-57.5 212,-57.5 212,-38.5 137,-38.5"/>
<text text-anchor="middle" x="174.5" y="-45.5" font-family="Helvetica,sans-Serif" font-size="10.00">updat_ambigt</text>
</a>
</g>
</g>
<!-- Node1&#45;&gt;Node12 -->
<g id="edge6" class="edge">
<title>Node1&#45;&gt;Node12</title>
<path fill="none" stroke="midnightblue" d="M237.48,-48C228.99,-48 220.3,-48 212.22,-48"/>
<polygon fill="midnightblue" stroke="midnightblue" points="237.69,-51.5 247.69,-48 237.69,-44.5 237.69,-51.5"/>
</g>
<!-- Node3 -->
<g id="node3" class="node">
<title>Node3</title>
<g id="a_node3"><a xlink:href="GinAR__main_8cpp.html#a5d80c7f56e03c96dc400839ceca50698" target="_top" xlink:title="Ambiguity resolution for network solutions.">
<polygon fill="white" stroke="red" points="1.5,-38.5 1.5,-57.5 99.5,-57.5 99.5,-38.5 1.5,-38.5"/>
<text text-anchor="middle" x="50.5" y="-45.5" font-family="Helvetica,sans-Serif" font-size="10.00">networkAmbigResl</text>
</a>
</g>
</g>
<!-- Node2&#45;&gt;Node3 -->
<g id="edge2" class="edge">
<title>Node2&#45;&gt;Node3</title>
<path fill="none" stroke="midnightblue" d="M139.05,-75.27C121.18,-69.7 99.52,-62.96 82.22,-57.57"/>
<polygon fill="midnightblue" stroke="midnightblue" points="138.22,-78.68 148.81,-78.31 140.3,-71.99 138.22,-78.68"/>
</g>
<!-- Node6&#45;&gt;Node3 -->
<g id="edge4" class="edge">
<title>Node6&#45;&gt;Node3</title>
<path fill="none" stroke="midnightblue" d="M132.79,-22.68C116.3,-27.81 97.59,-33.64 82.28,-38.41"/>
<polygon fill="midnightblue" stroke="midnightblue" points="134.21,-25.9 142.71,-19.59 132.13,-19.22 134.21,-25.9"/>
</g>
<!-- Node7 -->
<g id="node5" class="node">
<title>Node7</title>
<g id="a_node5"><a xlink:href="GinAR__main_8cpp.html#a99547395860accf77f4d3dc4328cb139" target="_top" xlink:title="Ambiguity resolution on smoothed KF solutions.">
<polygon fill="white" stroke="red" points="0,-0.5 0,-19.5 101,-19.5 101,-0.5 0,-0.5"/>
<text text-anchor="middle" x="50.5" y="-7.5" font-family="Helvetica,sans-Serif" font-size="10.00">smoothdAmbigResl</text>
</a>
</g>
</g>
<!-- Node6&#45;&gt;Node7 -->
<g id="edge5" class="edge">
<title>Node6&#45;&gt;Node7</title>
<path fill="none" stroke="midnightblue" d="M128.17,-10C119.38,-10 110.14,-10 101.23,-10"/>
<polygon fill="midnightblue" stroke="midnightblue" points="128.21,-13.5 138.21,-10 128.21,-6.5 128.21,-13.5"/>
</g>
<!-- Node12&#45;&gt;Node3 -->
<g id="edge7" class="edge">
<title>Node12&#45;&gt;Node3</title>
<path fill="none" stroke="midnightblue" d="M126.78,-48C117.95,-48 108.7,-48 99.82,-48"/>
<polygon fill="midnightblue" stroke="midnightblue" points="126.9,-51.5 136.9,-48 126.9,-44.5 126.9,-51.5"/>
</g>
<!-- Node12&#45;&gt;Node7 -->
<g id="edge8" class="edge">
<title>Node12&#45;&gt;Node7</title>
<path fill="none" stroke="midnightblue" d="M132.79,-35.32C116.3,-30.19 97.59,-24.36 82.28,-19.59"/>
<polygon fill="midnightblue" stroke="midnightblue" points="132.13,-38.78 142.71,-38.41 134.21,-32.1 132.13,-38.78"/>
</g>
</g>
</svg>
