<?xml version="1.0" encoding="UTF-8" standalone="no"?>
<!DOCTYPE svg PUBLIC "-//W3C//DTD SVG 1.1//EN"
 "http://www.w3.org/Graphics/SVG/1.1/DTD/svg11.dtd">
<!-- Generated by graphviz version 2.50.0 (20220203.2022)
 -->
<!-- Title: incl_Zamb Pages: 1 -->
<svg width="248pt" height="85pt"
 viewBox="0.00 0.00 248.00 85.00" xmlns="http://www.w3.org/2000/svg" xmlns:xlink="http://www.w3.org/1999/xlink">
<g id="graph0" class="graph" transform="scale(1 1) rotate(0) translate(4 81)">
<title>incl_Zamb</title>
<polygon fill="white" stroke="transparent" points="-4,4 -4,-81 244,-81 244,4 -4,4"/>
<!-- Node1 -->
<g id="node1" class="node">
<title>Node1</title>
<g id="a_node1"><a xlink:title="Add Z&#45;transformed ambiguity to archive.">
<polygon fill="#bfbfbf" stroke="black" points="0,-38.5 0,-57.5 62,-57.5 62,-38.5 0,-38.5"/>
<text text-anchor="middle" x="31" y="-45.5" font-family="Helvetica,sans-Serif" font-size="10.00">incl_Zamb</text>
</a>
</g>
</g>
<!-- Node2 -->
<g id="node2" class="node">
<title>Node2</title>
<g id="a_node2"><a xlink:href="trop_8cpp.html#aee11659ecea14ca59feae2dbe9f160d5" target="_top" xlink:title="coefficients multiplication">
<polygon fill="white" stroke="black" points="205,-57.5 205,-76.5 240,-76.5 240,-57.5 205,-57.5"/>
<text text-anchor="middle" x="222.5" y="-64.5" font-family="Helvetica,sans-Serif" font-size="10.00">coef</text>
</a>
</g>
</g>
<!-- Node1&#45;&gt;Node2 -->
<g id="edge1" class="edge">
<title>Node1&#45;&gt;Node2</title>
<path fill="none" stroke="midnightblue" d="M58.6,-57.5C70.49,-61.26 84.78,-65.13 98,-67 130.92,-71.64 169.27,-70.66 194.39,-69.17"/>
<polygon fill="midnightblue" stroke="midnightblue" points="194.87,-72.64 204.62,-68.48 194.41,-65.66 194.87,-72.64"/>
</g>
<!-- Node3 -->
<g id="node3" class="node">
<title>Node3</title>
<g id="a_node3"><a xlink:href="GinARNLamb_8cpp.html#af71b69e23375694ef4e5f632002864d7" target="_top" xlink:title="Comapring two Z&#45;transformed ambiguities.">
<polygon fill="white" stroke="black" points="98,-38.5 98,-57.5 169,-57.5 169,-38.5 98,-38.5"/>
<text text-anchor="middle" x="133.5" y="-45.5" font-family="Helvetica,sans-Serif" font-size="10.00">comp_Zamb</text>
</a>
</g>
</g>
<!-- Node1&#45;&gt;Node3 -->
<g id="edge2" class="edge">
<title>Node1&#45;&gt;Node3</title>
<path fill="none" stroke="midnightblue" d="M62.15,-48C70.22,-48 79.1,-48 87.77,-48"/>
<polygon fill="midnightblue" stroke="midnightblue" points="87.78,-51.5 97.78,-48 87.78,-44.5 87.78,-51.5"/>
</g>
<!-- Node4 -->
<g id="node4" class="node">
<title>Node4</title>
<g id="a_node4"><a xlink:href="streamTrace_8cpp.html#ae00e6addd3bdf3a7fd41a254eb9aec89" target="_top" xlink:title=" ">
<polygon fill="white" stroke="black" points="101.5,-0.5 101.5,-19.5 165.5,-19.5 165.5,-0.5 101.5,-0.5"/>
<text text-anchor="middle" x="133.5" y="-7.5" font-family="Helvetica,sans-Serif" font-size="10.00">tracepdeex</text>
</a>
</g>
</g>
<!-- Node1&#45;&gt;Node4 -->
<g id="edge4" class="edge">
<title>Node1&#45;&gt;Node4</title>
<path fill="none" stroke="midnightblue" d="M57.36,-38.41C69.5,-33.82 84.23,-28.25 97.43,-23.26"/>
<polygon fill="midnightblue" stroke="midnightblue" points="99.03,-26.4 107.15,-19.59 96.56,-19.85 99.03,-26.4"/>
</g>
<!-- Node3&#45;&gt;Node2 -->
<g id="edge3" class="edge">
<title>Node3&#45;&gt;Node2</title>
<path fill="none" stroke="midnightblue" d="M169.13,-55.56C177.7,-57.43 186.75,-59.41 194.86,-61.18"/>
<polygon fill="midnightblue" stroke="midnightblue" points="194.37,-64.66 204.88,-63.37 195.86,-57.82 194.37,-64.66"/>
</g>
</g>
</svg>
