<?xml version="1.0" encoding="UTF-8" standalone="no"?>
<!DOCTYPE svg PUBLIC "-//W3C//DTD SVG 1.1//EN"
 "http://www.w3.org/Graphics/SVG/1.1/DTD/svg11.dtd">
<!-- Generated by graphviz version 2.50.0 (20220203.2022)
 -->
<!-- Title: incl_Zamb Pages: 1 -->
<svg width="318pt" height="66pt"
 viewBox="0.00 0.00 318.00 66.00" xmlns="http://www.w3.org/2000/svg" xmlns:xlink="http://www.w3.org/1999/xlink">
<g id="graph0" class="graph" transform="scale(1 1) rotate(0) translate(4 62)">
<title>incl_Zamb</title>
<polygon fill="white" stroke="transparent" points="-4,4 -4,-62 314,-62 314,4 -4,4"/>
<!-- Node1 -->
<g id="node1" class="node">
<title>Node1</title>
<g id="a_node1"><a xlink:title="Add Z&#45;transformed ambiguity to archive.">
<polygon fill="#bfbfbf" stroke="black" points="248,-19.5 248,-38.5 310,-38.5 310,-19.5 248,-19.5"/>
<text text-anchor="middle" x="279" y="-26.5" font-family="Helvetica,sans-Serif" font-size="10.00">incl_Zamb</text>
</a>
</g>
</g>
<!-- Node2 -->
<g id="node2" class="node">
<title>Node2</title>
<g id="a_node2"><a xlink:href="GinARNLamb_8cpp.html#a150b7e4a892320cadb8bfd4c813a1aca" target="_top" xlink:title="Update float ambiguity estimates.">
<polygon fill="white" stroke="black" points="137,-19.5 137,-38.5 212,-38.5 212,-19.5 137,-19.5"/>
<text text-anchor="middle" x="174.5" y="-26.5" font-family="Helvetica,sans-Serif" font-size="10.00">updat_ambigt</text>
</a>
</g>
</g>
<!-- Node1&#45;&gt;Node2 -->
<g id="edge1" class="edge">
<title>Node1&#45;&gt;Node2</title>
<path fill="none" stroke="midnightblue" d="M237.73,-29C229.25,-29 220.34,-29 212.01,-29"/>
<polygon fill="midnightblue" stroke="midnightblue" points="237.8,-32.5 247.8,-29 237.8,-25.5 237.8,-32.5"/>
</g>
<!-- Node3 -->
<g id="node3" class="node">
<title>Node3</title>
<g id="a_node3"><a xlink:href="GinAR__main_8cpp.html#a5d80c7f56e03c96dc400839ceca50698" target="_top" xlink:title="Ambiguity resolution for network solutions.">
<polygon fill="white" stroke="red" points="1.5,-38.5 1.5,-57.5 99.5,-57.5 99.5,-38.5 1.5,-38.5"/>
<text text-anchor="middle" x="50.5" y="-45.5" font-family="Helvetica,sans-Serif" font-size="10.00">networkAmbigResl</text>
</a>
</g>
</g>
<!-- Node2&#45;&gt;Node3 -->
<g id="edge2" class="edge">
<title>Node2&#45;&gt;Node3</title>
<path fill="none" stroke="midnightblue" d="M126.78,-36.28C117.95,-37.65 108.7,-39.09 99.82,-40.47"/>
<polygon fill="midnightblue" stroke="midnightblue" points="127.55,-39.7 136.9,-34.7 126.48,-32.78 127.55,-39.7"/>
</g>
<!-- Node6 -->
<g id="node4" class="node">
<title>Node6</title>
<g id="a_node4"><a xlink:href="GinAR__main_8cpp.html#a99547395860accf77f4d3dc4328cb139" target="_top" xlink:title="Ambiguity resolution on smoothed KF solutions.">
<polygon fill="white" stroke="red" points="0,-0.5 0,-19.5 101,-19.5 101,-0.5 0,-0.5"/>
<text text-anchor="middle" x="50.5" y="-7.5" font-family="Helvetica,sans-Serif" font-size="10.00">smoothdAmbigResl</text>
</a>
</g>
</g>
<!-- Node2&#45;&gt;Node6 -->
<g id="edge3" class="edge">
<title>Node2&#45;&gt;Node6</title>
<path fill="none" stroke="midnightblue" d="M126.87,-21.74C118.46,-20.43 109.66,-19.06 101.17,-17.73"/>
<polygon fill="midnightblue" stroke="midnightblue" points="126.48,-25.22 136.9,-23.3 127.55,-18.3 126.48,-25.22"/>
</g>
</g>
</svg>
