<?xml version="1.0" encoding="UTF-8" standalone="no"?>
<!DOCTYPE svg PUBLIC "-//W3C//DTD SVG 1.1//EN"
 "http://www.w3.org/Graphics/SVG/1.1/DTD/svg11.dtd">
<!-- Generated by graphviz version 2.50.0 (20220203.2022)
 -->
<!-- Title: Link_amb Pages: 1 -->
<svg width="409pt" height="196pt"
 viewBox="0.00 0.00 409.00 196.06" xmlns="http://www.w3.org/2000/svg" xmlns:xlink="http://www.w3.org/1999/xlink">
<g id="graph0" class="graph" transform="scale(1 1) rotate(0) translate(4 192.06)">
<title>Link_amb</title>
<polygon fill="white" stroke="transparent" points="-4,4 -4,-192.06 405,-192.06 405,4 -4,4"/>
<!-- Node1 -->
<g id="node1" class="node">
<title>Node1</title>
<g id="a_node1"><a xlink:title="Add ambiguity to pivot tree.">
<polygon fill="#bfbfbf" stroke="black" points="342,-95.5 342,-114.5 401,-114.5 401,-95.5 342,-95.5"/>
<text text-anchor="middle" x="371.5" y="-102.5" font-family="Helvetica,sans-Serif" font-size="10.00">Link_amb</text>
</a>
</g>
</g>
<!-- Node2 -->
<g id="node2" class="node">
<title>Node2</title>
<g id="a_node2"><a xlink:href="GinARpivot_8cpp.html#a97abf51e09ba6246a0eb3cd1127b5ef3" target="_top" xlink:title="Initialize Network pivot.">
<polygon fill="white" stroke="black" points="119,-38.5 119,-57.5 193,-57.5 193,-38.5 119,-38.5"/>
<text text-anchor="middle" x="156" y="-45.5" font-family="Helvetica,sans-Serif" font-size="10.00">init_net_pivot</text>
</a>
</g>
</g>
<!-- Node1&#45;&gt;Node2 -->
<g id="edge1" class="edge">
<title>Node1&#45;&gt;Node2</title>
<path fill="none" stroke="midnightblue" d="M349.45,-89.64C337.34,-81.58 321.48,-72.3 306,-67 268.87,-54.3 223.9,-49.96 193.14,-48.55"/>
<polygon fill="midnightblue" stroke="midnightblue" points="347.7,-92.68 357.92,-95.48 351.68,-86.92 347.7,-92.68"/>
</g>
<!-- Node3 -->
<g id="node3" class="node">
<title>Node3</title>
<g id="a_node3"><a xlink:href="GinARpivot_8cpp.html#a7c7fea331a772c2c0cea6f36588f1ec4" target="_top" xlink:title="Update network pivot.">
<polygon fill="white" stroke="red" points="0,-57.5 0,-76.5 80,-76.5 80,-57.5 0,-57.5"/>
<text text-anchor="middle" x="40" y="-64.5" font-family="Helvetica,sans-Serif" font-size="10.00">updt_net_pivot</text>
</a>
</g>
</g>
<!-- Node1&#45;&gt;Node3 -->
<g id="edge11" class="edge">
<title>Node1&#45;&gt;Node3</title>
<path fill="none" stroke="midnightblue" d="M361.07,-123.49C350.49,-141.95 331.43,-169.23 306,-181 276.15,-194.82 264.78,-183.67 232,-181 179.93,-176.76 161.01,-188.52 116,-162 80.51,-141.09 55.4,-96.51 45.58,-76.76"/>
<polygon fill="midnightblue" stroke="midnightblue" points="364.24,-124.98 365.94,-114.53 358.09,-121.64 364.24,-124.98"/>
</g>
<!-- Node12 -->
<g id="node4" class="node">
<title>Node12</title>
<g id="a_node4"><a xlink:href="GinARpivot_8cpp.html#a305e812bb1eb438ce681ed5483a2de05" target="_top" xlink:title="Initilize end&#45;user AR pivot.">
<polygon fill="white" stroke="black" points="232,-152.5 232,-171.5 306,-171.5 306,-152.5 232,-152.5"/>
<text text-anchor="middle" x="269" y="-159.5" font-family="Helvetica,sans-Serif" font-size="10.00">init_usr_pivot</text>
</a>
</g>
</g>
<!-- Node1&#45;&gt;Node12 -->
<g id="edge3" class="edge">
<title>Node1&#45;&gt;Node12</title>
<path fill="none" stroke="midnightblue" d="M344.52,-119.74C326.32,-130.05 302.54,-143.54 286.8,-152.47"/>
<polygon fill="midnightblue" stroke="midnightblue" points="346.48,-122.65 353.45,-114.67 343.03,-116.56 346.48,-122.65"/>
</g>
<!-- Node13 -->
<g id="node5" class="node">
<title>Node13</title>
<g id="a_node5"><a xlink:href="GinARpivot_8cpp.html#a302f284053c9e228c4c2cd2712d2c0cb" target="_top" xlink:title="Update User Pivot.">
<polygon fill="white" stroke="red" points="116,-133.5 116,-152.5 196,-152.5 196,-133.5 116,-133.5"/>
<text text-anchor="middle" x="156" y="-140.5" font-family="Helvetica,sans-Serif" font-size="10.00">updt_usr_pivot</text>
</a>
</g>
</g>
<!-- Node1&#45;&gt;Node13 -->
<g id="edge12" class="edge">
<title>Node1&#45;&gt;Node13</title>
<path fill="none" stroke="midnightblue" d="M331.43,-111.95C293,-118.79 234.66,-129.18 196.19,-136.03"/>
<polygon fill="midnightblue" stroke="midnightblue" points="332.47,-115.32 341.71,-110.12 331.25,-108.43 332.47,-115.32"/>
</g>
<!-- Node14 -->
<g id="node6" class="node">
<title>Node14</title>
<g id="a_node6"><a xlink:href="GinARpivot_8cpp.html#a50a6ec448f33d1f09d19f2fb10e02299" target="_top" xlink:title="Reset receiver on network pivot.">
<polygon fill="white" stroke="black" points="238.5,-76.5 238.5,-95.5 299.5,-95.5 299.5,-76.5 238.5,-76.5"/>
<text text-anchor="middle" x="269" y="-83.5" font-family="Helvetica,sans-Serif" font-size="10.00">Reset_rec</text>
</a>
</g>
</g>
<!-- Node1&#45;&gt;Node14 -->
<g id="edge5" class="edge">
<title>Node1&#45;&gt;Node14</title>
<path fill="none" stroke="midnightblue" d="M331.99,-97.72C321.26,-95.69 309.78,-93.52 299.65,-91.61"/>
<polygon fill="midnightblue" stroke="midnightblue" points="331.49,-101.19 341.97,-99.61 332.79,-94.31 331.49,-101.19"/>
</g>
<!-- Node15 -->
<g id="node7" class="node">
<title>Node15</title>
<g id="a_node7"><a xlink:href="GinARpivot_8cpp.html#a21c1788df5b3f78e43a230b1b1fc3a07" target="_top" xlink:title="Reset satellite on network pivot.">
<polygon fill="white" stroke="black" points="238.5,-0.5 238.5,-19.5 299.5,-19.5 299.5,-0.5 238.5,-0.5"/>
<text text-anchor="middle" x="269" y="-7.5" font-family="Helvetica,sans-Serif" font-size="10.00">Reset_sat</text>
</a>
</g>
</g>
<!-- Node1&#45;&gt;Node15 -->
<g id="edge8" class="edge">
<title>Node1&#45;&gt;Node15</title>
<path fill="none" stroke="midnightblue" d="M356.34,-87.08C343.94,-72.01 324.99,-50.35 306,-34 299.97,-28.81 292.76,-23.8 286.38,-19.71"/>
<polygon fill="midnightblue" stroke="midnightblue" points="353.82,-89.54 362.83,-95.11 359.26,-85.14 353.82,-89.54"/>
</g>
<!-- Node2&#45;&gt;Node3 -->
<g id="edge2" class="edge">
<title>Node2&#45;&gt;Node3</title>
<path fill="none" stroke="midnightblue" d="M108.89,-55.68C99.44,-57.26 89.58,-58.9 80.39,-60.43"/>
<polygon fill="midnightblue" stroke="midnightblue" points="109.64,-59.11 118.93,-54.01 108.49,-52.2 109.64,-59.11"/>
</g>
<!-- Node12&#45;&gt;Node13 -->
<g id="edge4" class="edge">
<title>Node12&#45;&gt;Node13</title>
<path fill="none" stroke="midnightblue" d="M222.1,-154.14C213.53,-152.68 204.65,-151.16 196.31,-149.73"/>
<polygon fill="midnightblue" stroke="midnightblue" points="221.51,-157.59 231.96,-155.83 222.7,-150.69 221.51,-157.59"/>
</g>
<!-- Node14&#45;&gt;Node2 -->
<g id="edge6" class="edge">
<title>Node14&#45;&gt;Node2</title>
<path fill="none" stroke="midnightblue" d="M230.11,-73.03C215.32,-67.97 198.67,-62.27 185,-57.59"/>
<polygon fill="midnightblue" stroke="midnightblue" points="229.4,-76.48 239.99,-76.41 231.66,-69.86 229.4,-76.48"/>
</g>
<!-- Node14&#45;&gt;Node3 -->
<g id="edge7" class="edge">
<title>Node14&#45;&gt;Node3</title>
<path fill="none" stroke="midnightblue" d="M228.27,-82.67C186.64,-79.19 121.64,-73.75 80.2,-70.28"/>
<polygon fill="midnightblue" stroke="midnightblue" points="228.07,-86.17 238.32,-83.52 228.65,-79.19 228.07,-86.17"/>
</g>
<!-- Node15&#45;&gt;Node2 -->
<g id="edge9" class="edge">
<title>Node15&#45;&gt;Node2</title>
<path fill="none" stroke="midnightblue" d="M230.11,-22.97C215.32,-28.03 198.67,-33.73 185,-38.41"/>
<polygon fill="midnightblue" stroke="midnightblue" points="231.66,-26.14 239.99,-19.59 229.4,-19.52 231.66,-26.14"/>
</g>
<!-- Node15&#45;&gt;Node3 -->
<g id="edge10" class="edge">
<title>Node15&#45;&gt;Node3</title>
<path fill="none" stroke="midnightblue" d="M228.2,-11.24C197.07,-13.09 153.02,-17.68 116,-29 94.08,-35.7 70.84,-48.47 56.14,-57.35"/>
<polygon fill="midnightblue" stroke="midnightblue" points="228.43,-14.73 238.23,-10.71 228.06,-7.74 228.43,-14.73"/>
</g>
</g>
</svg>
