<?xml version="1.0" encoding="UTF-8" standalone="no"?>
<!DOCTYPE svg PUBLIC "-//W3C//DTD SVG 1.1//EN"
 "http://www.w3.org/Graphics/SVG/1.1/DTD/svg11.dtd">
<!-- Generated by graphviz version 2.50.0 (20220203.2022)
 -->
<!-- Title: Check_rec Pages: 1 -->
<svg width="324pt" height="66pt"
 viewBox="0.00 0.00 324.00 66.00" xmlns="http://www.w3.org/2000/svg" xmlns:xlink="http://www.w3.org/1999/xlink">
<g id="graph0" class="graph" transform="scale(1 1) rotate(0) translate(4 62)">
<title>Check_rec</title>
<polygon fill="white" stroke="transparent" points="-4,4 -4,-62 320,-62 320,4 -4,4"/>
<!-- Node1 -->
<g id="node1" class="node">
<title>Node1</title>
<g id="a_node1"><a xlink:title="Check Network pivot tree and list diconnected satellite / receiver.">
<polygon fill="#bfbfbf" stroke="black" points="253,-19.5 253,-38.5 316,-38.5 316,-19.5 253,-19.5"/>
<text text-anchor="middle" x="284.5" y="-26.5" font-family="Helvetica,sans-Serif" font-size="10.00">Check_rec</text>
</a>
</g>
</g>
<!-- Node1&#45;&gt;Node1 -->
<g id="edge1" class="edge">
<title>Node1&#45;&gt;Node1</title>
<path fill="none" stroke="midnightblue" d="M304.13,-48.4C302.82,-53.31 296.27,-57 284.5,-57 265.66,-57 260.21,-47.57 268.16,-38.76"/>
<polygon fill="midnightblue" stroke="midnightblue" points="307.38,-47.09 300.84,-38.76 300.76,-49.35 307.38,-47.09"/>
</g>
<!-- Node2 -->
<g id="node2" class="node">
<title>Node2</title>
<g id="a_node2"><a xlink:href="GinARpivot_8cpp.html#a7c7fea331a772c2c0cea6f36588f1ec4" target="_top" xlink:title="Update network pivot.">
<polygon fill="white" stroke="black" points="137,-19.5 137,-38.5 217,-38.5 217,-19.5 137,-19.5"/>
<text text-anchor="middle" x="177" y="-26.5" font-family="Helvetica,sans-Serif" font-size="10.00">updt_net_pivot</text>
</a>
</g>
</g>
<!-- Node1&#45;&gt;Node2 -->
<g id="edge2" class="edge">
<title>Node1&#45;&gt;Node2</title>
<path fill="none" stroke="midnightblue" d="M242.93,-29C234.45,-29 225.53,-29 217.11,-29"/>
<polygon fill="midnightblue" stroke="midnightblue" points="242.99,-32.5 252.99,-29 242.98,-25.5 242.99,-32.5"/>
</g>
<!-- Node3 -->
<g id="node3" class="node">
<title>Node3</title>
<g id="a_node3"><a xlink:href="GinAR__main_8cpp.html#a5d80c7f56e03c96dc400839ceca50698" target="_top" xlink:title="Ambiguity resolution for network solutions.">
<polygon fill="white" stroke="red" points="1.5,-38.5 1.5,-57.5 99.5,-57.5 99.5,-38.5 1.5,-38.5"/>
<text text-anchor="middle" x="50.5" y="-45.5" font-family="Helvetica,sans-Serif" font-size="10.00">networkAmbigResl</text>
</a>
</g>
</g>
<!-- Node2&#45;&gt;Node3 -->
<g id="edge3" class="edge">
<title>Node2&#45;&gt;Node3</title>
<path fill="none" stroke="midnightblue" d="M126.99,-36.48C117.98,-37.85 108.59,-39.29 99.61,-40.66"/>
<polygon fill="midnightblue" stroke="midnightblue" points="127.59,-39.93 136.95,-34.96 126.54,-33.01 127.59,-39.93"/>
</g>
<!-- Node6 -->
<g id="node4" class="node">
<title>Node6</title>
<g id="a_node4"><a xlink:href="GinAR__main_8cpp.html#a99547395860accf77f4d3dc4328cb139" target="_top" xlink:title="Ambiguity resolution on smoothed KF solutions.">
<polygon fill="white" stroke="red" points="0,-0.5 0,-19.5 101,-19.5 101,-0.5 0,-0.5"/>
<text text-anchor="middle" x="50.5" y="-7.5" font-family="Helvetica,sans-Serif" font-size="10.00">smoothdAmbigResl</text>
</a>
</g>
</g>
<!-- Node2&#45;&gt;Node6 -->
<g id="edge4" class="edge">
<title>Node2&#45;&gt;Node6</title>
<path fill="none" stroke="midnightblue" d="M126.93,-21.51C118.54,-20.23 109.81,-18.9 101.4,-17.62"/>
<polygon fill="midnightblue" stroke="midnightblue" points="126.54,-24.99 136.95,-23.04 127.59,-18.07 126.54,-24.99"/>
</g>
</g>
</svg>
