<?xml version="1.0" encoding="UTF-8" standalone="no"?>
<!DOCTYPE svg PUBLIC "-//W3C//DTD SVG 1.1//EN"
 "http://www.w3.org/Graphics/SVG/1.1/DTD/svg11.dtd">
<!-- Generated by graphviz version 2.50.0 (20220203.2022)
 -->
<!-- Title: Check_rec Pages: 1 -->
<svg width="171pt" height="46pt"
 viewBox="0.00 0.00 171.00 46.00" xmlns="http://www.w3.org/2000/svg" xmlns:xlink="http://www.w3.org/1999/xlink">
<g id="graph0" class="graph" transform="scale(1 1) rotate(0) translate(4 42)">
<title>Check_rec</title>
<polygon fill="white" stroke="transparent" points="-4,4 -4,-42 167,-42 167,4 -4,4"/>
<!-- Node1 -->
<g id="node1" class="node">
<title>Node1</title>
<g id="a_node1"><a xlink:title="Check Network pivot tree and list diconnected satellite / receiver.">
<polygon fill="#bfbfbf" stroke="black" points="0,-0.5 0,-19.5 63,-19.5 63,-0.5 0,-0.5"/>
<text text-anchor="middle" x="31.5" y="-7.5" font-family="Helvetica,sans-Serif" font-size="10.00">Check_rec</text>
</a>
</g>
</g>
<!-- Node1&#45;&gt;Node1 -->
<g id="edge1" class="edge">
<title>Node1&#45;&gt;Node1</title>
<path fill="none" stroke="midnightblue" d="M16.4,-19.76C9.05,-28.57 14.08,-38 31.5,-38 42.39,-38 48.44,-34.31 49.65,-29.4"/>
<polygon fill="midnightblue" stroke="midnightblue" points="52.95,-28.24 46.6,-19.76 46.28,-30.35 52.95,-28.24"/>
</g>
<!-- Node2 -->
<g id="node2" class="node">
<title>Node2</title>
<g id="a_node2"><a xlink:href="streamTrace_8cpp.html#ae00e6addd3bdf3a7fd41a254eb9aec89" target="_top" xlink:title=" ">
<polygon fill="white" stroke="black" points="99,-0.5 99,-19.5 163,-19.5 163,-0.5 99,-0.5"/>
<text text-anchor="middle" x="131" y="-7.5" font-family="Helvetica,sans-Serif" font-size="10.00">tracepdeex</text>
</a>
</g>
</g>
<!-- Node1&#45;&gt;Node2 -->
<g id="edge2" class="edge">
<title>Node1&#45;&gt;Node2</title>
<path fill="none" stroke="midnightblue" d="M63.08,-10C71.18,-10 80.06,-10 88.63,-10"/>
<polygon fill="midnightblue" stroke="midnightblue" points="88.86,-13.5 98.86,-10 88.86,-6.5 88.86,-13.5"/>
</g>
</g>
</svg>
