<?xml version="1.0" encoding="UTF-8" standalone="no"?>
<!DOCTYPE svg PUBLIC "-//W3C//DTD SVG 1.1//EN"
 "http://www.w3.org/Graphics/SVG/1.1/DTD/svg11.dtd">
<!-- Generated by graphviz version 2.50.0 (20220203.2022)
 -->
<!-- Title: Reset_rec Pages: 1 -->
<svg width="295pt" height="47pt"
 viewBox="0.00 0.00 295.00 47.00" xmlns="http://www.w3.org/2000/svg" xmlns:xlink="http://www.w3.org/1999/xlink">
<g id="graph0" class="graph" transform="scale(1 1) rotate(0) translate(4 43)">
<title>Reset_rec</title>
<polygon fill="white" stroke="transparent" points="-4,4 -4,-43 291,-43 291,4 -4,4"/>
<!-- Node1 -->
<g id="node1" class="node">
<title>Node1</title>
<g id="a_node1"><a xlink:title="Reset receiver on network pivot.">
<polygon fill="#bfbfbf" stroke="black" points="226,-0.5 226,-19.5 287,-19.5 287,-0.5 226,-0.5"/>
<text text-anchor="middle" x="256.5" y="-7.5" font-family="Helvetica,sans-Serif" font-size="10.00">Reset_rec</text>
</a>
</g>
</g>
<!-- Node2 -->
<g id="node2" class="node">
<title>Node2</title>
<g id="a_node2"><a xlink:href="GinARpivot_8cpp.html#a97abf51e09ba6246a0eb3cd1127b5ef3" target="_top" xlink:title="Initialize Network pivot.">
<polygon fill="white" stroke="black" points="116,-19.5 116,-38.5 190,-38.5 190,-19.5 116,-19.5"/>
<text text-anchor="middle" x="153" y="-26.5" font-family="Helvetica,sans-Serif" font-size="10.00">init_net_pivot</text>
</a>
</g>
</g>
<!-- Node1&#45;&gt;Node2 -->
<g id="edge1" class="edge">
<title>Node1&#45;&gt;Node2</title>
<path fill="none" stroke="midnightblue" d="M215.88,-17.42C207.47,-18.99 198.62,-20.65 190.33,-22.2"/>
<polygon fill="midnightblue" stroke="midnightblue" points="216.68,-20.83 225.87,-15.55 215.4,-13.95 216.68,-20.83"/>
</g>
<!-- Node3 -->
<g id="node3" class="node">
<title>Node3</title>
<g id="a_node3"><a xlink:href="GinARpivot_8cpp.html#a7c7fea331a772c2c0cea6f36588f1ec4" target="_top" xlink:title="Update network pivot.">
<polygon fill="white" stroke="red" points="0,-0.5 0,-19.5 80,-19.5 80,-0.5 0,-0.5"/>
<text text-anchor="middle" x="40" y="-7.5" font-family="Helvetica,sans-Serif" font-size="10.00">updt_net_pivot</text>
</a>
</g>
</g>
<!-- Node1&#45;&gt;Node3 -->
<g id="edge3" class="edge">
<title>Node1&#45;&gt;Node3</title>
<path fill="none" stroke="midnightblue" d="M215.3,-10C176.56,-10 118.35,-10 80.02,-10"/>
<polygon fill="midnightblue" stroke="midnightblue" points="215.67,-13.5 225.67,-10 215.67,-6.5 215.67,-13.5"/>
</g>
<!-- Node2&#45;&gt;Node3 -->
<g id="edge2" class="edge">
<title>Node2&#45;&gt;Node3</title>
<path fill="none" stroke="midnightblue" d="M106.1,-21.14C97.53,-19.68 88.65,-18.16 80.31,-16.73"/>
<polygon fill="midnightblue" stroke="midnightblue" points="105.51,-24.59 115.96,-22.83 106.7,-17.69 105.51,-24.59"/>
</g>
</g>
</svg>
