<?xml version="1.0" encoding="UTF-8" standalone="no"?>
<!DOCTYPE svg PUBLIC "-//W3C//DTD SVG 1.1//EN"
 "http://www.w3.org/Graphics/SVG/1.1/DTD/svg11.dtd">
<!-- Generated by graphviz version 2.50.0 (20220203.2022)
 -->
<!-- Title: updat_WLfilt Pages: 1 -->
<svg width="584pt" height="902pt"
 viewBox="0.00 0.00 584.00 902.00" xmlns="http://www.w3.org/2000/svg" xmlns:xlink="http://www.w3.org/1999/xlink">
<g id="graph0" class="graph" transform="scale(1 1) rotate(0) translate(4 898)">
<title>updat_WLfilt</title>
<polygon fill="white" stroke="transparent" points="-4,4 -4,-898 580,-898 580,4 -4,4"/>
<!-- Node1 -->
<g id="node1" class="node">
<title>Node1</title>
<g id="a_node1"><a xlink:title="Update WL filter.">
<polygon fill="#bfbfbf" stroke="black" points="0,-285.5 0,-304.5 71,-304.5 71,-285.5 0,-285.5"/>
<text text-anchor="middle" x="35.5" y="-292.5" font-family="Helvetica,sans-Serif" font-size="10.00">updat_WLfilt</text>
</a>
</g>
</g>
<!-- Node2 -->
<g id="node2" class="node">
<title>Node2</title>
<g id="a_node2"><a xlink:href="structKFMeasEntry.html#a5af30258b0bcd703468c0d0ec2ed6d54" target="_top" xlink:title="Adds a design matrix entry for this measurement.">
<polygon fill="white" stroke="black" points="110.5,-874.5 110.5,-893.5 250.5,-893.5 250.5,-874.5 110.5,-874.5"/>
<text text-anchor="middle" x="180.5" y="-881.5" font-family="Helvetica,sans-Serif" font-size="10.00">KFMeasEntry::addDsgnEntry</text>
</a>
</g>
</g>
<!-- Node1&#45;&gt;Node2 -->
<g id="edge1" class="edge">
<title>Node1&#45;&gt;Node2</title>
<path fill="none" stroke="midnightblue" d="M36.35,-304.82C35.48,-372.58 33.59,-770.63 107,-860 110.1,-863.77 113.8,-866.95 117.88,-869.64"/>
<polygon fill="midnightblue" stroke="midnightblue" points="116.24,-872.73 126.69,-874.49 119.61,-866.6 116.24,-872.73"/>
</g>
<!-- Node3 -->
<g id="node3" class="node">
<title>Node3</title>
<g id="a_node3"><a xlink:href="structKFState.html#abae5c2435fa3ca6bb4396cd8a5363f85" target="_top" xlink:title="Combine a list of KFMeasEntrys into a single KFMeas object for used in the filter.">
<polygon fill="white" stroke="black" points="107,-748.5 107,-767.5 254,-767.5 254,-748.5 107,-748.5"/>
<text text-anchor="middle" x="180.5" y="-755.5" font-family="Helvetica,sans-Serif" font-size="10.00">KFState::combineKFMeasList</text>
</a>
</g>
</g>
<!-- Node1&#45;&gt;Node3 -->
<g id="edge2" class="edge">
<title>Node1&#45;&gt;Node3</title>
<path fill="none" stroke="midnightblue" d="M36.73,-304.8C38.31,-363.3 49.21,-666.11 107,-734 110.21,-737.78 114.04,-740.96 118.22,-743.65"/>
<polygon fill="midnightblue" stroke="midnightblue" points="116.78,-746.84 127.24,-748.49 120.09,-740.68 116.78,-746.84"/>
</g>
<!-- Node5 -->
<g id="node5" class="node">
<title>Node5</title>
<g id="a_node5"><a xlink:href="structKFState.html#a21a4858020ad706771efeea814d6c43f" target="_top" xlink:title="Kalman filter operation.">
<polygon fill="white" stroke="black" points="126.5,-494.5 126.5,-513.5 234.5,-513.5 234.5,-494.5 126.5,-494.5"/>
<text text-anchor="middle" x="180.5" y="-501.5" font-family="Helvetica,sans-Serif" font-size="10.00">KFState::filterKalman</text>
</a>
</g>
</g>
<!-- Node1&#45;&gt;Node5 -->
<g id="edge4" class="edge">
<title>Node1&#45;&gt;Node5</title>
<path fill="none" stroke="midnightblue" d="M43.02,-304.52C65.21,-336.96 138.09,-443.48 167.27,-486.12"/>
<polygon fill="midnightblue" stroke="midnightblue" points="164.41,-488.14 172.95,-494.42 170.19,-484.19 164.41,-488.14"/>
</g>
<!-- Node8 -->
<g id="node8" class="node">
<title>Node8</title>
<g id="a_node8"><a xlink:href="structKFState.html#a34fe78e0ab7a8f1d122ceabddc29b207" target="_top" xlink:title="Clears and initialises the state transition matrix to identity at the beginning of an epoch.">
<polygon fill="white" stroke="black" points="311.5,-722.5 311.5,-741.5 430.5,-741.5 430.5,-722.5 311.5,-722.5"/>
<text text-anchor="middle" x="371" y="-729.5" font-family="Helvetica,sans-Serif" font-size="10.00">KFState::initFilterEpoch</text>
</a>
</g>
</g>
<!-- Node1&#45;&gt;Node8 -->
<g id="edge22" class="edge">
<title>Node1&#45;&gt;Node8</title>
<path fill="none" stroke="midnightblue" d="M36.68,-304.6C37.92,-360.56 47.13,-644.31 107,-701 134.11,-726.67 232.68,-732.25 301.12,-732.89"/>
<polygon fill="midnightblue" stroke="midnightblue" points="301.39,-736.39 311.41,-732.95 301.43,-729.39 301.39,-736.39"/>
</g>
<!-- Node11 -->
<g id="node11" class="node">
<title>Node11</title>
<g id="a_node11"><a xlink:href="streamTrace_8cpp.html#ae00e6addd3bdf3a7fd41a254eb9aec89" target="_top" xlink:title=" ">
<polygon fill="white" stroke="black" points="500,-475.5 500,-494.5 564,-494.5 564,-475.5 500,-475.5"/>
<text text-anchor="middle" x="532" y="-482.5" font-family="Helvetica,sans-Serif" font-size="10.00">tracepdeex</text>
</a>
</g>
</g>
<!-- Node1&#45;&gt;Node11 -->
<g id="edge39" class="edge">
<title>Node1&#45;&gt;Node11</title>
<path fill="none" stroke="midnightblue" d="M37.04,-304.87C40.94,-374.56 65.92,-791 107,-827 164.66,-877.53 392,-874.72 452,-827 503.4,-786.12 524.25,-571.66 529.55,-504.87"/>
<polygon fill="midnightblue" stroke="midnightblue" points="533.05,-505.06 530.32,-494.83 526.07,-504.53 533.05,-505.06"/>
</g>
<!-- Node14 -->
<g id="node14" class="node">
<title>Node14</title>
<g id="a_node14"><a xlink:href="structGTime.html#aaa8a379d11cd6c040a6bbe680c0e913e" target="_top" xlink:title="Uninitialised time for comparisons.">
<polygon fill="white" stroke="black" points="329.5,-304.5 329.5,-323.5 412.5,-323.5 412.5,-304.5 329.5,-304.5"/>
<text text-anchor="middle" x="371" y="-311.5" font-family="Helvetica,sans-Serif" font-size="10.00">GTime::noTime</text>
</a>
</g>
</g>
<!-- Node1&#45;&gt;Node14 -->
<g id="edge26" class="edge">
<title>Node1&#45;&gt;Node14</title>
<path fill="none" stroke="midnightblue" d="M71.25,-296.98C130.36,-300.35 250.73,-307.2 319.26,-311.11"/>
<polygon fill="midnightblue" stroke="midnightblue" points="319.21,-314.61 329.39,-311.69 319.61,-307.62 319.21,-314.61"/>
</g>
<!-- Node20 -->
<g id="node16" class="node">
<title>Node20</title>
<g id="a_node16"><a xlink:href="structGTime.html#a64394968bbfdecbbeec4ba5134fdb682" target="_top" xlink:title=" ">
<polygon fill="white" stroke="red" points="488,-190.5 488,-209.5 576,-209.5 576,-190.5 488,-190.5"/>
<text text-anchor="middle" x="532" y="-197.5" font-family="Helvetica,sans-Serif" font-size="10.00">GTime::to_string</text>
</a>
</g>
</g>
<!-- Node1&#45;&gt;Node20 -->
<g id="edge38" class="edge">
<title>Node1&#45;&gt;Node20</title>
<path fill="none" stroke="midnightblue" d="M39.17,-285.39C46.09,-262.34 66.97,-203.81 107,-176 174.87,-128.85 207.68,-150.36 290,-143 361.71,-136.59 383.49,-120.86 452,-143 476.44,-150.9 499.69,-169.49 514.55,-183.3"/>
<polygon fill="midnightblue" stroke="midnightblue" points="512.28,-185.97 521.91,-190.39 517.13,-180.93 512.28,-185.97"/>
</g>
<!-- Node29 -->
<g id="node20" class="node">
<title>Node29</title>
<g id="a_node20"><a xlink:href="structKFState.html#a84691f6bbbe3cdccaa14722995a61e1b" target="_top" xlink:title="Returns the value and variance of a state within the kalman filter object.">
<polygon fill="white" stroke="black" points="126.5,-114.5 126.5,-133.5 234.5,-133.5 234.5,-114.5 126.5,-114.5"/>
<text text-anchor="middle" x="180.5" y="-121.5" font-family="Helvetica,sans-Serif" font-size="10.00">KFState::getKFValue</text>
</a>
</g>
</g>
<!-- Node1&#45;&gt;Node29 -->
<g id="edge20" class="edge">
<title>Node1&#45;&gt;Node29</title>
<path fill="none" stroke="midnightblue" d="M38.43,-285.16C44.07,-258.93 63.02,-186.71 107,-148 111.7,-143.86 117.14,-140.43 122.88,-137.59"/>
<polygon fill="midnightblue" stroke="midnightblue" points="124.3,-140.79 132.09,-133.6 121.52,-134.37 124.3,-140.79"/>
</g>
<!-- Node17 -->
<g id="node21" class="node">
<title>Node17</title>
<g id="a_node21"><a xlink:href="structSatSys.html#aec6d07b90d1e8172b8b6a6966abef4fd" target="_top" xlink:title="Returns a std::string of this satellite&#39;s id.">
<polygon fill="white" stroke="red" points="341,-190.5 341,-209.5 401,-209.5 401,-190.5 341,-190.5"/>
<text text-anchor="middle" x="371" y="-197.5" font-family="Helvetica,sans-Serif" font-size="10.00">SatSys::id</text>
</a>
</g>
</g>
<!-- Node1&#45;&gt;Node17 -->
<g id="edge21" class="edge">
<title>Node1&#45;&gt;Node17</title>
<path fill="none" stroke="midnightblue" d="M51.34,-285.47C65.24,-276.92 86.83,-264.59 107,-257 183.5,-228.21 278.27,-212.15 330.61,-204.86"/>
<polygon fill="midnightblue" stroke="midnightblue" points="331.36,-208.29 340.8,-203.48 330.42,-201.36 331.36,-208.29"/>
</g>
<!-- Node30 -->
<g id="node22" class="node">
<title>Node30</title>
<g id="a_node22"><a xlink:href="structKFState.html#ae1fc274c403b77dc814ed90763b4dea1" target="_top" xlink:title="Least squares estimator for new kalman filter states.">
<polygon fill="white" stroke="black" points="119.5,-787 119.5,-817 241.5,-817 241.5,-787 119.5,-787"/>
<text text-anchor="start" x="127.5" y="-805" font-family="Helvetica,sans-Serif" font-size="10.00">KFState::leastSquareInit</text>
<text text-anchor="middle" x="180.5" y="-794" font-family="Helvetica,sans-Serif" font-size="10.00">States</text>
</a>
</g>
</g>
<!-- Node1&#45;&gt;Node30 -->
<g id="edge23" class="edge">
<title>Node1&#45;&gt;Node30</title>
<path fill="none" stroke="midnightblue" d="M36.59,-304.53C37.33,-365.53 44.27,-701.3 107,-777 108.31,-778.58 109.72,-780.05 111.22,-781.44"/>
<polygon fill="midnightblue" stroke="midnightblue" points="109.27,-784.36 119.35,-787.61 113.5,-778.78 109.27,-784.36"/>
</g>
<!-- Node32 -->
<g id="node24" class="node">
<title>Node32</title>
<g id="a_node24"><a xlink:href="structKFState.html#a6b83754311ce0a082153ebe40ee63e15" target="_top" xlink:title="Output keys and states in human readable format.">
<polygon fill="white" stroke="black" points="314.5,-152.5 314.5,-171.5 427.5,-171.5 427.5,-152.5 314.5,-152.5"/>
<text text-anchor="middle" x="371" y="-159.5" font-family="Helvetica,sans-Serif" font-size="10.00">KFState::outputStates</text>
</a>
</g>
</g>
<!-- Node1&#45;&gt;Node32 -->
<g id="edge27" class="edge">
<title>Node1&#45;&gt;Node32</title>
<path fill="none" stroke="midnightblue" d="M42.07,-285.3C52.46,-268.14 76.54,-232.59 107,-215 139.9,-196 237.66,-179.7 304.26,-170.36"/>
<polygon fill="midnightblue" stroke="midnightblue" points="304.83,-173.82 314.26,-168.98 303.87,-166.89 304.83,-173.82"/>
</g>
<!-- Node33 -->
<g id="node25" class="node">
<title>Node33</title>
<g id="a_node25"><a xlink:href="structKFState.html#abdf1505bdab1895a280fd018979849f1" target="_top" xlink:title="Remove a state from a kalman filter object.">
<polygon fill="white" stroke="black" points="124,-76.5 124,-95.5 237,-95.5 237,-76.5 124,-76.5"/>
<text text-anchor="middle" x="180.5" y="-83.5" font-family="Helvetica,sans-Serif" font-size="10.00">KFState::removeState</text>
</a>
</g>
</g>
<!-- Node1&#45;&gt;Node33 -->
<g id="edge30" class="edge">
<title>Node1&#45;&gt;Node33</title>
<path fill="none" stroke="midnightblue" d="M37.06,-285.42C39.42,-254.35 51.19,-155.54 107,-105 109.46,-102.77 112.15,-100.8 115,-99.06"/>
<polygon fill="midnightblue" stroke="midnightblue" points="116.64,-102.14 123.95,-94.47 113.45,-95.91 116.64,-102.14"/>
</g>
<!-- Node34 -->
<g id="node26" class="node">
<title>Node34</title>
<g id="a_node26"><a xlink:href="structKFMeasEntry.html#a1054abe38550bcd614c1a3c1afe752ee" target="_top" xlink:title="Adds the measurement noise entry for this measurement.">
<polygon fill="white" stroke="black" points="121,-38.5 121,-57.5 240,-57.5 240,-38.5 121,-38.5"/>
<text text-anchor="middle" x="180.5" y="-45.5" font-family="Helvetica,sans-Serif" font-size="10.00">KFMeasEntry::setNoise</text>
</a>
</g>
</g>
<!-- Node1&#45;&gt;Node34 -->
<g id="edge31" class="edge">
<title>Node1&#45;&gt;Node34</title>
<path fill="none" stroke="midnightblue" d="M36.39,-285.07C36.56,-249.77 42.06,-129.17 107,-67 108.64,-65.43 110.4,-63.98 112.24,-62.65"/>
<polygon fill="midnightblue" stroke="midnightblue" points="114.04,-65.66 120.84,-57.54 110.46,-59.64 114.04,-65.66"/>
</g>
<!-- Node35 -->
<g id="node27" class="node">
<title>Node35</title>
<g id="a_node27"><a xlink:href="structKFMeasEntry.html#a56ed46a7048dcd7e87e75eebc342dc7d" target="_top" xlink:title="Adds the actual measurement value for this measurement.">
<polygon fill="white" stroke="black" points="121.5,-0.5 121.5,-19.5 239.5,-19.5 239.5,-0.5 121.5,-0.5"/>
<text text-anchor="middle" x="180.5" y="-7.5" font-family="Helvetica,sans-Serif" font-size="10.00">KFMeasEntry::setValue</text>
</a>
</g>
</g>
<!-- Node1&#45;&gt;Node35 -->
<g id="edge32" class="edge">
<title>Node1&#45;&gt;Node35</title>
<path fill="none" stroke="midnightblue" d="M37.75,-285.34C43.55,-242.1 69.11,-66.78 107,-29 108.68,-27.32 110.5,-25.78 112.41,-24.38"/>
<polygon fill="midnightblue" stroke="midnightblue" points="114.59,-27.15 121.38,-19.02 111,-21.14 114.59,-27.15"/>
</g>
<!-- Node36 -->
<g id="node28" class="node">
<title>Node36</title>
<g id="a_node28"><a xlink:href="structKFState.html#a170d9c3a01bee9ec1f7264615b087c58" target="_top" xlink:title="Add process noise and dynamics to filter object according to time gap.">
<polygon fill="white" stroke="black" points="119.5,-672.5 119.5,-691.5 241.5,-691.5 241.5,-672.5 119.5,-672.5"/>
<text text-anchor="middle" x="180.5" y="-679.5" font-family="Helvetica,sans-Serif" font-size="10.00">KFState::stateTransition</text>
</a>
</g>
</g>
<!-- Node1&#45;&gt;Node36 -->
<g id="edge33" class="edge">
<title>Node1&#45;&gt;Node36</title>
<path fill="none" stroke="midnightblue" d="M39.02,-304.71C47.38,-336.49 75.45,-440.14 107,-523 126.7,-574.74 155.15,-633.51 169.87,-662.99"/>
<polygon fill="midnightblue" stroke="midnightblue" points="166.85,-664.78 174.47,-672.14 173.11,-661.64 166.85,-664.78"/>
</g>
<!-- Node37 -->
<g id="node29" class="node">
<title>Node37</title>
<g id="a_node29"><a xlink:href="GinARWLamb_8cpp.html#aff0cccb14678a58071b729bac061e776" target="_top" xlink:title="save Resolved WL ambiguities">
<polygon fill="white" stroke="black" points="143.5,-266.5 143.5,-285.5 217.5,-285.5 217.5,-266.5 143.5,-266.5"/>
<text text-anchor="middle" x="180.5" y="-273.5" font-family="Helvetica,sans-Serif" font-size="10.00">WL_newsect</text>
</a>
</g>
</g>
<!-- Node1&#45;&gt;Node37 -->
<g id="edge40" class="edge">
<title>Node1&#45;&gt;Node37</title>
<path fill="none" stroke="midnightblue" d="M71.12,-290.4C89.78,-287.92 113.07,-284.83 133.27,-282.14"/>
<polygon fill="midnightblue" stroke="midnightblue" points="133.76,-285.61 143.21,-280.82 132.83,-278.67 133.76,-285.61"/>
</g>
<!-- Node4 -->
<g id="node4" class="node">
<title>Node4</title>
<g id="a_node4"><a xlink:href="structKFState.html#a5aeeee0f20df8cc8c4747c1b5b18212f" target="_top" xlink:title="Finds the position in the KF state vector of particular states.">
<polygon fill="white" stroke="black" points="317.5,-760.5 317.5,-779.5 424.5,-779.5 424.5,-760.5 317.5,-760.5"/>
<text text-anchor="middle" x="371" y="-767.5" font-family="Helvetica,sans-Serif" font-size="10.00">KFState::getKFIndex</text>
</a>
</g>
</g>
<!-- Node3&#45;&gt;Node4 -->
<g id="edge3" class="edge">
<title>Node3&#45;&gt;Node4</title>
<path fill="none" stroke="midnightblue" d="M254.11,-762.62C271.54,-763.73 290.02,-764.91 306.98,-765.99"/>
<polygon fill="midnightblue" stroke="midnightblue" points="307.12,-769.5 317.32,-766.65 307.56,-762.52 307.12,-769.5"/>
</g>
<!-- Node6 -->
<g id="node6" class="node">
<title>Node6</title>
<g id="a_node6"><a xlink:href="structKFState.html#ae6e89a4dca53b4c6f8a5eadb1f61dd5c" target="_top" xlink:title=" ">
<polygon fill="white" stroke="black" points="290,-380.5 290,-399.5 452,-399.5 452,-380.5 290,-380.5"/>
<text text-anchor="middle" x="371" y="-387.5" font-family="Helvetica,sans-Serif" font-size="10.00">KFState::doMeasRejectCallbacks</text>
</a>
</g>
</g>
<!-- Node5&#45;&gt;Node6 -->
<g id="edge5" class="edge">
<title>Node5&#45;&gt;Node6</title>
<path fill="none" stroke="midnightblue" d="M189.4,-494.5C205.96,-475.23 246.39,-431.49 290,-409 294.56,-406.65 299.42,-404.58 304.4,-402.77"/>
<polygon fill="midnightblue" stroke="midnightblue" points="305.68,-406.03 314.09,-399.58 303.49,-399.38 305.68,-406.03"/>
</g>
<!-- Node7 -->
<g id="node7" class="node">
<title>Node7</title>
<g id="a_node7"><a xlink:href="structKFState.html#adc93fe4d98f33b24037d09e712e8400a" target="_top" xlink:title=" ">
<polygon fill="white" stroke="black" points="290.5,-646.5 290.5,-665.5 451.5,-665.5 451.5,-646.5 290.5,-646.5"/>
<text text-anchor="middle" x="371" y="-653.5" font-family="Helvetica,sans-Serif" font-size="10.00">KFState::doStateRejectCallbacks</text>
</a>
</g>
</g>
<!-- Node5&#45;&gt;Node7 -->
<g id="edge6" class="edge">
<title>Node5&#45;&gt;Node7</title>
<path fill="none" stroke="midnightblue" d="M186.35,-513.51C199.43,-538.15 237.99,-604.4 290,-637 293.37,-639.11 296.96,-640.99 300.68,-642.66"/>
<polygon fill="midnightblue" stroke="midnightblue" points="299.54,-645.98 310.13,-646.4 302.11,-639.47 299.54,-645.98"/>
</g>
<!-- Node5&#45;&gt;Node8 -->
<g id="edge7" class="edge">
<title>Node5&#45;&gt;Node8</title>
<path fill="none" stroke="midnightblue" d="M185.91,-513.61C203.96,-552.78 272.15,-699.07 290,-713 293.64,-715.84 297.65,-718.27 301.86,-720.34"/>
<polygon fill="midnightblue" stroke="midnightblue" points="300.78,-723.69 311.35,-724.33 303.49,-717.23 300.78,-723.69"/>
</g>
<!-- Node9 -->
<g id="node9" class="node">
<title>Node9</title>
<g id="a_node9"><a xlink:href="structKFState.html#a2280e82ccd3ebdefc388756580e5fad7" target="_top" xlink:title="Compute Chi&#45;square increment based on pre&#45;fit residuals (innovations)">
<polygon fill="white" stroke="black" points="308.5,-570.5 308.5,-589.5 433.5,-589.5 433.5,-570.5 308.5,-570.5"/>
<text text-anchor="middle" x="371" y="-577.5" font-family="Helvetica,sans-Serif" font-size="10.00">KFState::innovChiSquare</text>
</a>
</g>
</g>
<!-- Node5&#45;&gt;Node9 -->
<g id="edge8" class="edge">
<title>Node5&#45;&gt;Node9</title>
<path fill="none" stroke="midnightblue" d="M196.74,-513.58C217.23,-526.1 255.13,-547.94 290,-561 296.8,-563.55 304.06,-565.83 311.32,-567.86"/>
<polygon fill="midnightblue" stroke="midnightblue" points="310.63,-571.3 321.19,-570.46 312.41,-564.53 310.63,-571.3"/>
</g>
<!-- Node10 -->
<g id="node10" class="node">
<title>Node10</title>
<g id="a_node10"><a xlink:href="structKFState.html#a5b591c7386c7fb734067424a097ca118" target="_top" xlink:title="Kalman filter.">
<polygon fill="white" stroke="black" points="329,-608.5 329,-627.5 413,-627.5 413,-608.5 329,-608.5"/>
<text text-anchor="middle" x="371" y="-615.5" font-family="Helvetica,sans-Serif" font-size="10.00">KFState::kFilter</text>
</a>
</g>
</g>
<!-- Node5&#45;&gt;Node10 -->
<g id="edge9" class="edge">
<title>Node5&#45;&gt;Node10</title>
<path fill="none" stroke="midnightblue" d="M189.4,-513.5C205.96,-532.77 246.39,-576.51 290,-599 298.94,-603.61 309.03,-607.13 318.95,-609.8"/>
<polygon fill="midnightblue" stroke="midnightblue" points="318.22,-613.22 328.76,-612.19 319.88,-606.42 318.22,-613.22"/>
</g>
<!-- Node12 -->
<g id="node12" class="node">
<title>Node12</title>
<g id="a_node12"><a xlink:href="structKFState.html#a67bbec17e7e74bf5de0d83098281bfc0" target="_top" xlink:title="Compute Chi&#45;square increment based on post&#45;fit residuals.">
<polygon fill="white" stroke="black" points="308,-532.5 308,-551.5 434,-551.5 434,-532.5 308,-532.5"/>
<text text-anchor="middle" x="371" y="-539.5" font-family="Helvetica,sans-Serif" font-size="10.00">KFState::measChiSquare</text>
</a>
</g>
</g>
<!-- Node5&#45;&gt;Node12 -->
<g id="edge11" class="edge">
<title>Node5&#45;&gt;Node12</title>
<path fill="none" stroke="midnightblue" d="M229.07,-513.59C254.5,-518.72 286,-525.07 312.77,-530.46"/>
<polygon fill="midnightblue" stroke="midnightblue" points="312.28,-533.93 322.78,-532.48 313.66,-527.07 312.28,-533.93"/>
</g>
<!-- Node13 -->
<g id="node13" class="node">
<title>Node13</title>
<g id="a_node13"><a xlink:href="mongoWrite_8cpp.html#a2b60515d35b3ad7ac783de1d8539495f" target="_top" xlink:title=" ">
<polygon fill="white" stroke="black" points="329.5,-494.5 329.5,-513.5 412.5,-513.5 412.5,-494.5 329.5,-494.5"/>
<text text-anchor="middle" x="371" y="-501.5" font-family="Helvetica,sans-Serif" font-size="10.00">mongoTestStat</text>
</a>
</g>
</g>
<!-- Node5&#45;&gt;Node13 -->
<g id="edge12" class="edge">
<title>Node5&#45;&gt;Node13</title>
<path fill="none" stroke="midnightblue" d="M234.51,-504C261.04,-504 293.01,-504 319.22,-504"/>
<polygon fill="midnightblue" stroke="midnightblue" points="319.33,-507.5 329.33,-504 319.33,-500.5 319.33,-507.5"/>
</g>
<!-- Node5&#45;&gt;Node14 -->
<g id="edge13" class="edge">
<title>Node5&#45;&gt;Node14</title>
<path fill="none" stroke="midnightblue" d="M184.63,-494.42C194.73,-465.14 229.3,-376.27 290,-333 298.63,-326.85 308.99,-322.66 319.34,-319.83"/>
<polygon fill="midnightblue" stroke="midnightblue" points="320.28,-323.2 329.21,-317.5 318.68,-316.39 320.28,-323.2"/>
</g>
<!-- Node15 -->
<g id="node15" class="node">
<title>Node15</title>
<g id="a_node15"><a xlink:href="structKFState.html#aab4e5ed0ddc781d8b4db8de02af119cc" target="_top" xlink:title="Compare variances of measurements and filtered states to detect unreasonable values.">
<polygon fill="white" stroke="red" points="297,-342.5 297,-361.5 445,-361.5 445,-342.5 297,-342.5"/>
<text text-anchor="middle" x="371" y="-349.5" font-family="Helvetica,sans-Serif" font-size="10.00">KFState::postFitSigmaChecks</text>
</a>
</g>
</g>
<!-- Node5&#45;&gt;Node15 -->
<g id="edge14" class="edge">
<title>Node5&#45;&gt;Node15</title>
<path fill="none" stroke="midnightblue" d="M186.35,-494.49C199.43,-469.85 237.99,-403.6 290,-371 293.37,-368.89 296.96,-367.01 300.68,-365.34"/>
<polygon fill="midnightblue" stroke="midnightblue" points="302.11,-368.53 310.13,-361.6 299.54,-362.02 302.11,-368.53"/>
</g>
<!-- Node24 -->
<g id="node17" class="node">
<title>Node24</title>
<g id="a_node17"><a xlink:href="structKFState.html#a1d84b2acc0006963bdea090daa78685a" target="_top" xlink:title="Compare variances of measurements and pre&#45;filtered states to detect unreasonable values Ref: Wang et ...">
<polygon fill="white" stroke="black" points="302.5,-456.5 302.5,-475.5 439.5,-475.5 439.5,-456.5 302.5,-456.5"/>
<text text-anchor="middle" x="371" y="-463.5" font-family="Helvetica,sans-Serif" font-size="10.00">KFState::preFitSigmaCheck</text>
</a>
</g>
</g>
<!-- Node5&#45;&gt;Node24 -->
<g id="edge17" class="edge">
<title>Node5&#45;&gt;Node24</title>
<path fill="none" stroke="midnightblue" d="M229.07,-494.41C254.5,-489.28 286,-482.93 312.77,-477.54"/>
<polygon fill="midnightblue" stroke="midnightblue" points="313.66,-480.93 322.78,-475.52 312.28,-474.07 313.66,-480.93"/>
</g>
<!-- Node25 -->
<g id="node18" class="node">
<title>Node25</title>
<g id="a_node18"><a xlink:href="algebraTrace_8hpp.html#a912bbc3ba390c6b3a01f7cae26a53588" target="_top" xlink:title="Output filter state to a file for later reading.">
<polygon fill="white" stroke="red" points="330.5,-684.5 330.5,-703.5 411.5,-703.5 411.5,-684.5 330.5,-684.5"/>
<text text-anchor="middle" x="371" y="-691.5" font-family="Helvetica,sans-Serif" font-size="10.00">spitFilterToFile</text>
</a>
</g>
</g>
<!-- Node5&#45;&gt;Node25 -->
<g id="edge18" class="edge">
<title>Node5&#45;&gt;Node25</title>
<path fill="none" stroke="midnightblue" d="M184.63,-513.58C194.73,-542.86 229.3,-631.73 290,-675 298.99,-681.41 309.85,-685.68 320.62,-688.52"/>
<polygon fill="midnightblue" stroke="midnightblue" points="319.92,-691.95 330.44,-690.74 321.46,-685.12 319.92,-691.95"/>
</g>
<!-- Node28 -->
<g id="node19" class="node">
<title>Node28</title>
<g id="a_node19"><a xlink:href="structKFState.html#aa963c92f094f4c0f9d43eea2661723dd" target="_top" xlink:title="Compute Chi&#45;square increment based on the change of fitting solution.">
<polygon fill="white" stroke="black" points="309,-418.5 309,-437.5 433,-437.5 433,-418.5 309,-418.5"/>
<text text-anchor="middle" x="371" y="-425.5" font-family="Helvetica,sans-Serif" font-size="10.00">KFState::stateChiSquare</text>
</a>
</g>
</g>
<!-- Node5&#45;&gt;Node28 -->
<g id="edge19" class="edge">
<title>Node5&#45;&gt;Node28</title>
<path fill="none" stroke="midnightblue" d="M196.74,-494.42C217.23,-481.9 255.13,-460.06 290,-447 296.8,-444.45 304.06,-442.17 311.32,-440.14"/>
<polygon fill="midnightblue" stroke="midnightblue" points="312.41,-443.47 321.19,-437.54 310.63,-436.7 312.41,-443.47"/>
</g>
<!-- Node10&#45;&gt;Node11 -->
<g id="edge10" class="edge">
<title>Node10&#45;&gt;Node11</title>
<path fill="none" stroke="midnightblue" d="M413.01,-614.15C426.31,-611.43 440.56,-606.81 452,-599 487.13,-575.02 511.4,-529.85 523.06,-504.15"/>
<polygon fill="midnightblue" stroke="midnightblue" points="526.38,-505.31 527.16,-494.75 519.96,-502.51 526.38,-505.31"/>
</g>
<!-- Node15&#45;&gt;Node11 -->
<g id="edge16" class="edge">
<title>Node15&#45;&gt;Node11</title>
<path fill="none" stroke="midnightblue" d="M433.41,-361.6C439.99,-364.05 446.34,-367.14 452,-371 487.13,-394.98 511.4,-440.15 523.06,-465.85"/>
<polygon fill="midnightblue" stroke="midnightblue" points="519.96,-467.49 527.16,-475.25 526.38,-464.69 519.96,-467.49"/>
</g>
<!-- Node15&#45;&gt;Node20 -->
<g id="edge15" class="edge">
<title>Node15&#45;&gt;Node20</title>
<path fill="none" stroke="midnightblue" d="M434.5,-342.47C440.74,-340 446.71,-336.89 452,-333 491.51,-303.95 514.84,-248.69 524.98,-219.38"/>
<polygon fill="midnightblue" stroke="midnightblue" points="528.32,-220.44 528.12,-209.85 521.67,-218.25 528.32,-220.44"/>
</g>
<!-- Node31 -->
<g id="node23" class="node">
<title>Node31</title>
<g id="a_node23"><a xlink:href="structKFState.html#a326b2c602fc4aaa81c0342cb0333932f" target="_top" xlink:title="Perform chi squared quality control.">
<polygon fill="white" stroke="black" points="329,-798.5 329,-817.5 413,-817.5 413,-798.5 329,-798.5"/>
<text text-anchor="middle" x="371" y="-805.5" font-family="Helvetica,sans-Serif" font-size="10.00">KFState::chiQC</text>
</a>
</g>
</g>
<!-- Node30&#45;&gt;Node31 -->
<g id="edge24" class="edge">
<title>Node30&#45;&gt;Node31</title>
<path fill="none" stroke="midnightblue" d="M241.66,-803.91C266.44,-804.7 294.85,-805.61 318.63,-806.36"/>
<polygon fill="midnightblue" stroke="midnightblue" points="318.75,-809.87 328.86,-806.69 318.97,-802.87 318.75,-809.87"/>
</g>
<!-- Node31&#45;&gt;Node11 -->
<g id="edge25" class="edge">
<title>Node31&#45;&gt;Node11</title>
<path fill="none" stroke="midnightblue" d="M413.14,-806.63C427.07,-804.17 441.7,-799.09 452,-789 493.36,-748.5 520.46,-566.07 528.5,-505"/>
<polygon fill="midnightblue" stroke="midnightblue" points="532.01,-505.13 529.81,-494.77 525.07,-504.24 532.01,-505.13"/>
</g>
<!-- Node32&#45;&gt;Node11 -->
<g id="edge29" class="edge">
<title>Node32&#45;&gt;Node11</title>
<path fill="none" stroke="midnightblue" d="M427.66,-166.97C436.69,-169.95 445.27,-174.41 452,-181 493.36,-221.5 520.46,-403.93 528.5,-465"/>
<polygon fill="midnightblue" stroke="midnightblue" points="525.07,-465.76 529.81,-475.23 532.01,-464.87 525.07,-465.76"/>
</g>
<!-- Node32&#45;&gt;Node20 -->
<g id="edge28" class="edge">
<title>Node32&#45;&gt;Node20</title>
<path fill="none" stroke="midnightblue" d="M412.29,-171.55C425,-174.56 439.09,-177.91 452,-181 461.47,-183.26 471.58,-185.69 481.29,-188.02"/>
<polygon fill="midnightblue" stroke="midnightblue" points="480.68,-191.47 491.22,-190.41 482.32,-184.67 480.68,-191.47"/>
</g>
<!-- Node36&#45;&gt;Node4 -->
<g id="edge34" class="edge">
<title>Node36&#45;&gt;Node4</title>
<path fill="none" stroke="midnightblue" d="M193.44,-691.51C212.67,-706.36 252.16,-735.01 290,-751 295.87,-753.48 302.12,-755.67 308.45,-757.6"/>
<polygon fill="midnightblue" stroke="midnightblue" points="307.83,-761.06 318.4,-760.42 309.73,-754.33 307.83,-761.06"/>
</g>
<!-- Node36&#45;&gt;Node8 -->
<g id="edge35" class="edge">
<title>Node36&#45;&gt;Node8</title>
<path fill="none" stroke="midnightblue" d="M213.68,-691.61C235.21,-697.93 264.22,-706.26 290,-713 299.23,-715.41 309.08,-717.86 318.61,-720.16"/>
<polygon fill="midnightblue" stroke="midnightblue" points="317.85,-723.57 328.39,-722.49 319.48,-716.77 317.85,-723.57"/>
</g>
<!-- Node36&#45;&gt;Node14 -->
<g id="edge36" class="edge">
<title>Node36&#45;&gt;Node14</title>
<path fill="none" stroke="midnightblue" d="M186.94,-672.29C200.35,-647.93 235.27,-581.99 254,-523 280.02,-441.09 230.64,-395.15 290,-333 297.78,-324.86 308.35,-319.93 319.27,-317.01"/>
<polygon fill="midnightblue" stroke="midnightblue" points="320.27,-320.37 329.31,-314.85 318.8,-313.53 320.27,-320.37"/>
</g>
<!-- Node36&#45;&gt;Node25 -->
<g id="edge37" class="edge">
<title>Node36&#45;&gt;Node25</title>
<path fill="none" stroke="midnightblue" d="M241.66,-685.83C267.02,-687.44 296.19,-689.3 320.3,-690.84"/>
<polygon fill="midnightblue" stroke="midnightblue" points="320.1,-694.33 330.3,-691.47 320.54,-687.34 320.1,-694.33"/>
</g>
<!-- Node37&#45;&gt;Node11 -->
<g id="edge44" class="edge">
<title>Node37&#45;&gt;Node11</title>
<path fill="none" stroke="midnightblue" d="M217.88,-267.48C273.88,-256.61 382.06,-244.7 452,-295 508.88,-335.9 524.97,-425.63 529.39,-465.38"/>
<polygon fill="midnightblue" stroke="midnightblue" points="525.91,-465.78 530.37,-475.39 532.88,-465.1 525.91,-465.78"/>
</g>
<!-- Node37&#45;&gt;Node14 -->
<g id="edge42" class="edge">
<title>Node37&#45;&gt;Node14</title>
<path fill="none" stroke="midnightblue" d="M217.84,-283.33C246.61,-289.13 287.13,-297.29 319.12,-303.74"/>
<polygon fill="midnightblue" stroke="midnightblue" points="318.69,-307.23 329.19,-305.77 320.07,-300.36 318.69,-307.23"/>
</g>
<!-- Node37&#45;&gt;Node20 -->
<g id="edge43" class="edge">
<title>Node37&#45;&gt;Node20</title>
<path fill="none" stroke="midnightblue" d="M217.89,-268.67C269.89,-258.13 368.43,-237.85 452,-219 461.8,-216.79 472.27,-214.34 482.27,-211.95"/>
<polygon fill="midnightblue" stroke="midnightblue" points="483.17,-215.33 492.07,-209.59 481.53,-208.53 483.17,-215.33"/>
</g>
<!-- Node37&#45;&gt;Node17 -->
<g id="edge41" class="edge">
<title>Node37&#45;&gt;Node17</title>
<path fill="none" stroke="midnightblue" d="M217.53,-266.74C229.5,-262.97 242.65,-258.06 254,-252 271.88,-242.45 271.99,-233.29 290,-224 302.73,-217.43 317.56,-212.36 330.96,-208.6"/>
<polygon fill="midnightblue" stroke="midnightblue" points="332.1,-211.92 340.87,-205.99 330.31,-205.16 332.1,-211.92"/>
</g>
</g>
</svg>
