<?xml version="1.0" encoding="UTF-8" standalone="no"?>
<!DOCTYPE svg PUBLIC "-//W3C//DTD SVG 1.1//EN"
 "http://www.w3.org/Graphics/SVG/1.1/DTD/svg11.dtd">
<!-- Generated by graphviz version 2.50.0 (20220203.2022)
 -->
<!-- Title: LoadFromFlt Pages: 1 -->
<svg width="402pt" height="78pt"
 viewBox="0.00 0.00 402.00 77.50" xmlns="http://www.w3.org/2000/svg" xmlns:xlink="http://www.w3.org/1999/xlink">
<g id="graph0" class="graph" transform="scale(1 1) rotate(0) translate(4 73.5)">
<title>LoadFromFlt</title>
<polygon fill="white" stroke="transparent" points="-4,4 -4,-73.5 398,-73.5 398,4 -4,4"/>
<!-- Node1 -->
<g id="node1" class="node">
<title>Node1</title>
<g id="a_node1"><a xlink:title="Loading float ambiguity data from KF.">
<polygon fill="#bfbfbf" stroke="black" points="322,-22.5 322,-41.5 394,-41.5 394,-22.5 322,-22.5"/>
<text text-anchor="middle" x="358" y="-29.5" font-family="Helvetica,sans-Serif" font-size="10.00">LoadFromFlt</text>
</a>
</g>
</g>
<!-- Node2 -->
<g id="node2" class="node">
<title>Node2</title>
<g id="a_node2"><a xlink:href="GinAR__main_8cpp.html#a5d80c7f56e03c96dc400839ceca50698" target="_top" xlink:title="Ambiguity resolution for network solutions.">
<polygon fill="white" stroke="black" points="186.5,-42.5 186.5,-61.5 284.5,-61.5 284.5,-42.5 186.5,-42.5"/>
<text text-anchor="middle" x="235.5" y="-49.5" font-family="Helvetica,sans-Serif" font-size="10.00">networkAmbigResl</text>
</a>
</g>
</g>
<!-- Node1&#45;&gt;Node2 -->
<g id="edge1" class="edge">
<title>Node1&#45;&gt;Node2</title>
<path fill="none" stroke="midnightblue" d="M311.79,-39.5C303.02,-40.96 293.8,-42.49 284.93,-43.96"/>
<polygon fill="midnightblue" stroke="midnightblue" points="312.53,-42.93 321.82,-37.84 311.38,-36.02 312.53,-42.93"/>
</g>
<!-- Node5 -->
<g id="node4" class="node">
<title>Node5</title>
<g id="a_node4"><a xlink:href="GinAR__main_8cpp.html#a99547395860accf77f4d3dc4328cb139" target="_top" xlink:title="Ambiguity resolution on smoothed KF solutions.">
<polygon fill="white" stroke="black" points="185,-3.5 185,-22.5 286,-22.5 286,-3.5 185,-3.5"/>
<text text-anchor="middle" x="235.5" y="-10.5" font-family="Helvetica,sans-Serif" font-size="10.00">smoothdAmbigResl</text>
</a>
</g>
</g>
<!-- Node1&#45;&gt;Node5 -->
<g id="edge3" class="edge">
<title>Node1&#45;&gt;Node5</title>
<path fill="none" stroke="midnightblue" d="M311.88,-24.89C303.53,-23.57 294.76,-22.19 286.27,-20.85"/>
<polygon fill="midnightblue" stroke="midnightblue" points="311.4,-28.35 321.82,-26.45 312.49,-21.44 311.4,-28.35"/>
</g>
<!-- Node3 -->
<g id="node3" class="node">
<title>Node3</title>
<g id="a_node3"><a xlink:href="main_8cpp.html#a052aae1f895ebdbdaf816f70d9287e78" target="_top" xlink:title=" ">
<polygon fill="white" stroke="red" points="0,-39 0,-69 149,-69 149,-39 0,-39"/>
<text text-anchor="start" x="8" y="-57" font-family="Helvetica,sans-Serif" font-size="10.00">mainPerEpochPostProcessing</text>
<text text-anchor="middle" x="74.5" y="-46" font-family="Helvetica,sans-Serif" font-size="10.00">AndOutputs</text>
</a>
</g>
</g>
<!-- Node2&#45;&gt;Node3 -->
<g id="edge2" class="edge">
<title>Node2&#45;&gt;Node3</title>
<path fill="none" stroke="midnightblue" d="M176.18,-52.73C167.34,-52.84 158.12,-52.96 149,-53.08"/>
<polygon fill="midnightblue" stroke="midnightblue" points="176.41,-56.23 186.36,-52.61 176.32,-49.23 176.41,-56.23"/>
</g>
<!-- Node6 -->
<g id="node5" class="node">
<title>Node6</title>
<g id="a_node5"><a xlink:href="rtsSmoothing_8cpp.html#a1f9da32a7b5e95391d55a3242aebfb10" target="_top" xlink:title="Output filter states from a reversed binary trace file.">
<polygon fill="white" stroke="red" points="39,-0.5 39,-19.5 110,-19.5 110,-0.5 39,-0.5"/>
<text text-anchor="middle" x="74.5" y="-7.5" font-family="Helvetica,sans-Serif" font-size="10.00">RTS_Output</text>
</a>
</g>
</g>
<!-- Node5&#45;&gt;Node6 -->
<g id="edge4" class="edge">
<title>Node5&#45;&gt;Node6</title>
<path fill="none" stroke="midnightblue" d="M174.48,-11.87C152.73,-11.46 128.91,-11.01 110.09,-10.65"/>
<polygon fill="midnightblue" stroke="midnightblue" points="174.56,-15.37 184.63,-12.06 174.7,-8.37 174.56,-15.37"/>
</g>
</g>
</svg>
