<?xml version="1.0" encoding="UTF-8" standalone="no"?>
<!DOCTYPE svg PUBLIC "-//W3C//DTD SVG 1.1//EN"
 "http://www.w3.org/Graphics/SVG/1.1/DTD/svg11.dtd">
<!-- Generated by graphviz version 2.50.0 (20220203.2022)
 -->
<!-- Title: updat_WLambg Pages: 1 -->
<svg width="549pt" height="756pt"
 viewBox="0.00 0.00 549.00 755.79" xmlns="http://www.w3.org/2000/svg" xmlns:xlink="http://www.w3.org/1999/xlink">
<g id="graph0" class="graph" transform="scale(1 1) rotate(0) translate(4 751.79)">
<title>updat_WLambg</title>
<polygon fill="white" stroke="transparent" points="-4,4 -4,-751.79 545,-751.79 545,4 -4,4"/>
<!-- Node1 -->
<g id="node1" class="node">
<title>Node1</title>
<g id="a_node1"><a xlink:title="Update WL ambiguities and save then to archive.">
<polygon fill="#bfbfbf" stroke="black" points="0,-297.57 0,-316.57 85,-316.57 85,-297.57 0,-297.57"/>
<text text-anchor="middle" x="42.5" y="-304.57" font-family="Helvetica,sans-Serif" font-size="10.00">updat_WLambg</text>
</a>
</g>
</g>
<!-- Node2 -->
<g id="node2" class="node">
<title>Node2</title>
<g id="a_node2"><a xlink:href="GinARWLamb_8cpp.html#a6cfe77e4642a57d54c9204244cd403a0" target="_top" xlink:title="Resolve wide&#45;lane ambiguities.">
<polygon fill="white" stroke="black" points="121,-506.57 121,-525.57 203,-525.57 203,-506.57 121,-506.57"/>
<text text-anchor="middle" x="162" y="-513.57" font-family="Helvetica,sans-Serif" font-size="10.00">reslv_WLambg</text>
</a>
</g>
</g>
<!-- Node1&#45;&gt;Node2 -->
<g id="edge1" class="edge">
<title>Node1&#45;&gt;Node2</title>
<path fill="none" stroke="midnightblue" d="M48.85,-316.59C67.01,-348.89 126.47,-454.66 150.64,-497.65"/>
<polygon fill="midnightblue" stroke="midnightblue" points="147.66,-499.49 155.61,-506.49 153.76,-496.06 147.66,-499.49"/>
</g>
<!-- Node46 -->
<g id="node16" class="node">
<title>Node46</title>
<g id="a_node16"><a xlink:href="GinARWLamb_8cpp.html#ab95d4f2ff0f6e0d2b92d4d4d14f7f787" target="_top" xlink:title="Update WL filter.">
<polygon fill="white" stroke="black" points="126.5,-297.57 126.5,-316.57 197.5,-316.57 197.5,-297.57 126.5,-297.57"/>
<text text-anchor="middle" x="162" y="-304.57" font-family="Helvetica,sans-Serif" font-size="10.00">updat_WLfilt</text>
</a>
</g>
</g>
<!-- Node1&#45;&gt;Node46 -->
<g id="edge20" class="edge">
<title>Node1&#45;&gt;Node46</title>
<path fill="none" stroke="midnightblue" d="M85.26,-307.07C95.24,-307.07 105.95,-307.07 116.07,-307.07"/>
<polygon fill="midnightblue" stroke="midnightblue" points="116.36,-310.57 126.36,-307.07 116.36,-303.57 116.36,-310.57"/>
</g>
<!-- Node50 -->
<g id="node20" class="node">
<title>Node50</title>
<g id="a_node20"><a xlink:href="GinARWLamb_8cpp.html#aff0cccb14678a58071b729bac061e776" target="_top" xlink:title="save Resolved WL ambiguities">
<polygon fill="white" stroke="black" points="275.5,-38.57 275.5,-57.57 349.5,-57.57 349.5,-38.57 275.5,-38.57"/>
<text text-anchor="middle" x="312.5" y="-45.57" font-family="Helvetica,sans-Serif" font-size="10.00">WL_newsect</text>
</a>
</g>
</g>
<!-- Node1&#45;&gt;Node50 -->
<g id="edge41" class="edge">
<title>Node1&#45;&gt;Node50</title>
<path fill="none" stroke="midnightblue" d="M49.76,-297.16C71.78,-262.94 149.28,-148.21 239,-81.07 249.38,-73.3 261.88,-66.8 273.56,-61.67"/>
<polygon fill="midnightblue" stroke="midnightblue" points="275.22,-64.77 283.11,-57.7 272.53,-58.31 275.22,-64.77"/>
</g>
<!-- Node3 -->
<g id="node3" class="node">
<title>Node3</title>
<g id="a_node3"><a xlink:href="structKFMeasEntry.html#a5af30258b0bcd703468c0d0ec2ed6d54" target="_top" xlink:title="Adds a design matrix entry for this measurement.">
<polygon fill="white" stroke="black" points="242.5,-430.57 242.5,-449.57 382.5,-449.57 382.5,-430.57 242.5,-430.57"/>
<text text-anchor="middle" x="312.5" y="-437.57" font-family="Helvetica,sans-Serif" font-size="10.00">KFMeasEntry::addDsgnEntry</text>
</a>
</g>
</g>
<!-- Node2&#45;&gt;Node3 -->
<g id="edge2" class="edge">
<title>Node2&#45;&gt;Node3</title>
<path fill="none" stroke="midnightblue" d="M172.97,-506.55C186.74,-493.9 212.86,-471.69 239,-459.07 243.91,-456.7 249.15,-454.6 254.48,-452.74"/>
<polygon fill="midnightblue" stroke="midnightblue" points="255.68,-456.03 264.14,-449.65 253.54,-449.36 255.68,-456.03"/>
</g>
<!-- Node4 -->
<g id="node4" class="node">
<title>Node4</title>
<g id="a_node4"><a xlink:href="structKFState.html#abae5c2435fa3ca6bb4396cd8a5363f85" target="_top" xlink:title="Combine a list of KFMeasEntrys into a single KFMeas object for used in the filter.">
<polygon fill="white" stroke="red" points="239,-354.57 239,-373.57 386,-373.57 386,-354.57 239,-354.57"/>
<text text-anchor="middle" x="312.5" y="-361.57" font-family="Helvetica,sans-Serif" font-size="10.00">KFState::combineKFMeasList</text>
</a>
</g>
</g>
<!-- Node2&#45;&gt;Node4 -->
<g id="edge3" class="edge">
<title>Node2&#45;&gt;Node4</title>
<path fill="none" stroke="midnightblue" d="M165.7,-506.29C173.02,-481.57 195.73,-416.24 239,-383.07 241.45,-381.19 244.07,-379.5 246.81,-377.97"/>
<polygon fill="midnightblue" stroke="midnightblue" points="248.36,-381.11 255.88,-373.64 245.34,-374.79 248.36,-381.11"/>
</g>
<!-- Node6 -->
<g id="node5" class="node">
<title>Node6</title>
<g id="a_node5"><a xlink:href="structKFState.html#a21a4858020ad706771efeea814d6c43f" target="_top" xlink:title="Kalman filter operation.">
<polygon fill="white" stroke="red" points="258.5,-658.57 258.5,-677.57 366.5,-677.57 366.5,-658.57 258.5,-658.57"/>
<text text-anchor="middle" x="312.5" y="-665.57" font-family="Helvetica,sans-Serif" font-size="10.00">KFState::filterKalman</text>
</a>
</g>
</g>
<!-- Node2&#45;&gt;Node6 -->
<g id="edge4" class="edge">
<title>Node2&#45;&gt;Node6</title>
<path fill="none" stroke="midnightblue" d="M165.7,-525.85C173.02,-550.57 195.73,-615.9 239,-649.07 242.16,-651.49 245.61,-653.61 249.22,-655.46"/>
<polygon fill="midnightblue" stroke="midnightblue" points="247.92,-658.71 258.48,-659.52 250.73,-652.3 247.92,-658.71"/>
</g>
<!-- Node9 -->
<g id="node6" class="node">
<title>Node9</title>
<g id="a_node6"><a xlink:href="structKFState.html#a34fe78e0ab7a8f1d122ceabddc29b207" target="_top" xlink:title="Clears and initialises the state transition matrix to identity at the beginning of an epoch.">
<polygon fill="white" stroke="black" points="422,-639.57 422,-658.57 541,-658.57 541,-639.57 422,-639.57"/>
<text text-anchor="middle" x="481.5" y="-646.57" font-family="Helvetica,sans-Serif" font-size="10.00">KFState::initFilterEpoch</text>
</a>
</g>
</g>
<!-- Node2&#45;&gt;Node9 -->
<g id="edge9" class="edge">
<title>Node2&#45;&gt;Node9</title>
<path fill="none" stroke="midnightblue" d="M162.98,-525.8C163.48,-560.25 170.38,-677 239,-725.07 292.51,-762.55 324.38,-746.78 386,-725.07 419.04,-713.43 449.05,-684.82 466.01,-666.21"/>
<polygon fill="midnightblue" stroke="midnightblue" points="468.65,-668.51 472.65,-658.7 463.41,-663.87 468.65,-668.51"/>
</g>
<!-- Node30 -->
<g id="node8" class="node">
<title>Node30</title>
<g id="a_node8"><a xlink:href="structKFState.html#a84691f6bbbe3cdccaa14722995a61e1b" target="_top" xlink:title="Returns the value and variance of a state within the kalman filter object.">
<polygon fill="white" stroke="black" points="258.5,-506.57 258.5,-525.57 366.5,-525.57 366.5,-506.57 258.5,-506.57"/>
<text text-anchor="middle" x="312.5" y="-513.57" font-family="Helvetica,sans-Serif" font-size="10.00">KFState::getKFValue</text>
</a>
</g>
</g>
<!-- Node2&#45;&gt;Node30 -->
<g id="edge7" class="edge">
<title>Node2&#45;&gt;Node30</title>
<path fill="none" stroke="midnightblue" d="M203.19,-516.07C217,-516.07 232.83,-516.07 248.04,-516.07"/>
<polygon fill="midnightblue" stroke="midnightblue" points="248.44,-519.57 258.44,-516.07 248.44,-512.57 248.44,-519.57"/>
</g>
<!-- Node31 -->
<g id="node9" class="node">
<title>Node31</title>
<g id="a_node9"><a xlink:href="GNSSambres_8cpp.html#a5828fccde37f3654b3bd28203461dc8b" target="_top" xlink:title="Ambiguity resolution function for Ginan.">
<polygon fill="white" stroke="red" points="280.5,-696.57 280.5,-715.57 344.5,-715.57 344.5,-696.57 280.5,-696.57"/>
<text text-anchor="middle" x="312.5" y="-703.57" font-family="Helvetica,sans-Serif" font-size="10.00">GNSS_AR</text>
</a>
</g>
</g>
<!-- Node2&#45;&gt;Node31 -->
<g id="edge8" class="edge">
<title>Node2&#45;&gt;Node31</title>
<path fill="none" stroke="midnightblue" d="M164.38,-525.95C169.01,-555.3 186.77,-642.68 239,-687.07 247.81,-694.55 259.23,-699.13 270.39,-701.92"/>
<polygon fill="midnightblue" stroke="midnightblue" points="269.98,-705.41 280.49,-704.01 271.4,-698.55 269.98,-705.41"/>
</g>
<!-- Node42 -->
<g id="node10" class="node">
<title>Node42</title>
<g id="a_node10"><a xlink:href="structKFState.html#a6b83754311ce0a082153ebe40ee63e15" target="_top" xlink:title="Output keys and states in human readable format.">
<polygon fill="white" stroke="black" points="256,-202.57 256,-221.57 369,-221.57 369,-202.57 256,-202.57"/>
<text text-anchor="middle" x="312.5" y="-209.57" font-family="Helvetica,sans-Serif" font-size="10.00">KFState::outputStates</text>
</a>
</g>
</g>
<!-- Node2&#45;&gt;Node42 -->
<g id="edge10" class="edge">
<title>Node2&#45;&gt;Node42</title>
<path fill="none" stroke="midnightblue" d="M167.01,-506.3C177.91,-479.96 209.23,-405.37 239,-345.07 259.56,-303.44 286.25,-255.97 300.83,-230.51"/>
<polygon fill="midnightblue" stroke="midnightblue" points="304,-232.02 305.95,-221.61 297.93,-228.53 304,-232.02"/>
</g>
<!-- Node21 -->
<g id="node11" class="node">
<title>Node21</title>
<g id="a_node11"><a xlink:href="structGTime.html#a64394968bbfdecbbeec4ba5134fdb682" target="_top" xlink:title=" ">
<polygon fill="white" stroke="red" points="437.5,-129.57 437.5,-148.57 525.5,-148.57 525.5,-129.57 437.5,-129.57"/>
<text text-anchor="middle" x="481.5" y="-136.57" font-family="Helvetica,sans-Serif" font-size="10.00">GTime::to_string</text>
</a>
</g>
</g>
<!-- Node2&#45;&gt;Node21 -->
<g id="edge18" class="edge">
<title>Node2&#45;&gt;Node21</title>
<path fill="none" stroke="midnightblue" d="M181.71,-525.69C224.04,-545.94 327.94,-587.02 386,-535.07 439.82,-486.91 394.32,-278.78 422,-212.07 431.05,-190.25 448.7,-169.66 462.26,-155.94"/>
<polygon fill="midnightblue" stroke="midnightblue" points="464.96,-158.2 469.67,-148.71 460.07,-153.19 464.96,-158.2"/>
</g>
<!-- Node12 -->
<g id="node12" class="node">
<title>Node12</title>
<g id="a_node12"><a xlink:href="streamTrace_8cpp.html#ae00e6addd3bdf3a7fd41a254eb9aec89" target="_top" xlink:title=" ">
<polygon fill="white" stroke="black" points="449.5,-221.57 449.5,-240.57 513.5,-240.57 513.5,-221.57 449.5,-221.57"/>
<text text-anchor="middle" x="481.5" y="-228.57" font-family="Helvetica,sans-Serif" font-size="10.00">tracepdeex</text>
</a>
</g>
</g>
<!-- Node2&#45;&gt;Node12 -->
<g id="edge19" class="edge">
<title>Node2&#45;&gt;Node12</title>
<path fill="none" stroke="midnightblue" d="M172.75,-525.69C186.28,-538.29 212.12,-559.75 239,-568.07 301.41,-587.38 334.3,-608.01 386,-568.07 436.16,-529.32 405.06,-491.15 422,-430.07 440.32,-364.03 463.73,-286.2 474.54,-250.61"/>
<polygon fill="midnightblue" stroke="midnightblue" points="477.91,-251.56 477.47,-240.98 471.21,-249.53 477.91,-251.56"/>
</g>
<!-- Node43 -->
<g id="node13" class="node">
<title>Node43</title>
<g id="a_node13"><a xlink:href="structKFMeasEntry.html#a1054abe38550bcd614c1a3c1afe752ee" target="_top" xlink:title="Adds the measurement noise entry for this measurement.">
<polygon fill="white" stroke="black" points="253,-392.57 253,-411.57 372,-411.57 372,-392.57 253,-392.57"/>
<text text-anchor="middle" x="312.5" y="-399.57" font-family="Helvetica,sans-Serif" font-size="10.00">KFMeasEntry::setNoise</text>
</a>
</g>
</g>
<!-- Node2&#45;&gt;Node43 -->
<g id="edge13" class="edge">
<title>Node2&#45;&gt;Node43</title>
<path fill="none" stroke="midnightblue" d="M168.01,-506.28C178.44,-486.88 204.46,-443.51 239,-421.07 242.19,-419 245.59,-417.15 249.12,-415.51"/>
<polygon fill="midnightblue" stroke="midnightblue" points="250.76,-418.62 258.7,-411.6 248.12,-412.14 250.76,-418.62"/>
</g>
<!-- Node44 -->
<g id="node14" class="node">
<title>Node44</title>
<g id="a_node14"><a xlink:href="structKFMeasEntry.html#a56ed46a7048dcd7e87e75eebc342dc7d" target="_top" xlink:title="Adds the actual measurement value for this measurement.">
<polygon fill="white" stroke="black" points="253.5,-468.57 253.5,-487.57 371.5,-487.57 371.5,-468.57 253.5,-468.57"/>
<text text-anchor="middle" x="312.5" y="-475.57" font-family="Helvetica,sans-Serif" font-size="10.00">KFMeasEntry::setValue</text>
</a>
</g>
</g>
<!-- Node2&#45;&gt;Node44 -->
<g id="edge14" class="edge">
<title>Node2&#45;&gt;Node44</title>
<path fill="none" stroke="midnightblue" d="M200.47,-506.48C219.89,-501.51 243.8,-495.39 264.45,-490.11"/>
<polygon fill="midnightblue" stroke="midnightblue" points="265.48,-493.46 274.3,-487.59 263.74,-486.68 265.48,-493.46"/>
</g>
<!-- Node45 -->
<g id="node15" class="node">
<title>Node45</title>
<g id="a_node15"><a xlink:href="structKFState.html#a170d9c3a01bee9ec1f7264615b087c58" target="_top" xlink:title="Add process noise and dynamics to filter object according to time gap.">
<polygon fill="white" stroke="red" points="251.5,-620.57 251.5,-639.57 373.5,-639.57 373.5,-620.57 251.5,-620.57"/>
<text text-anchor="middle" x="312.5" y="-627.57" font-family="Helvetica,sans-Serif" font-size="10.00">KFState::stateTransition</text>
</a>
</g>
</g>
<!-- Node2&#45;&gt;Node45 -->
<g id="edge15" class="edge">
<title>Node2&#45;&gt;Node45</title>
<path fill="none" stroke="midnightblue" d="M168.6,-525.72C179.71,-544.03 206.3,-583.96 239,-606.07 245.27,-610.31 252.34,-613.85 259.55,-616.79"/>
<polygon fill="midnightblue" stroke="midnightblue" points="258.82,-620.25 269.41,-620.45 261.25,-613.69 258.82,-620.25"/>
</g>
<!-- Node6&#45;&gt;Node9 -->
<g id="edge5" class="edge">
<title>Node6&#45;&gt;Node9</title>
<path fill="none" stroke="midnightblue" d="M366.8,-662.01C381.07,-660.38 396.7,-658.6 411.68,-656.9"/>
<polygon fill="midnightblue" stroke="midnightblue" points="412.38,-660.34 421.92,-655.73 411.59,-653.39 412.38,-660.34"/>
</g>
<!-- Node15 -->
<g id="node7" class="node">
<title>Node15</title>
<g id="a_node7"><a xlink:href="structGTime.html#aaa8a379d11cd6c040a6bbe680c0e913e" target="_top" xlink:title="Uninitialised time for comparisons.">
<polygon fill="white" stroke="black" points="440,-439.57 440,-458.57 523,-458.57 523,-439.57 440,-439.57"/>
<text text-anchor="middle" x="481.5" y="-446.57" font-family="Helvetica,sans-Serif" font-size="10.00">GTime::noTime</text>
</a>
</g>
</g>
<!-- Node6&#45;&gt;Node15 -->
<g id="edge6" class="edge">
<title>Node6&#45;&gt;Node15</title>
<path fill="none" stroke="midnightblue" d="M366.84,-659.92C373.77,-657.25 380.39,-653.72 386,-649.07 444.07,-600.86 468.67,-508.81 476.97,-468.63"/>
<polygon fill="midnightblue" stroke="midnightblue" points="480.42,-469.24 478.89,-458.76 473.55,-467.91 480.42,-469.24"/>
</g>
<!-- Node42&#45;&gt;Node21 -->
<g id="edge11" class="edge">
<title>Node42&#45;&gt;Node21</title>
<path fill="none" stroke="midnightblue" d="M357.43,-202.54C367,-199.92 376.97,-196.76 386,-193.07 411.86,-182.51 439.36,-166.14 457.99,-154.19"/>
<polygon fill="midnightblue" stroke="midnightblue" points="459.91,-157.12 466.37,-148.73 456.08,-151.26 459.91,-157.12"/>
</g>
<!-- Node42&#45;&gt;Node12 -->
<g id="edge12" class="edge">
<title>Node42&#45;&gt;Node12</title>
<path fill="none" stroke="midnightblue" d="M369.11,-218.4C392.1,-221.01 418.29,-223.99 439.49,-226.4"/>
<polygon fill="midnightblue" stroke="midnightblue" points="439.13,-229.89 449.46,-227.54 439.92,-222.93 439.13,-229.89"/>
</g>
<!-- Node45&#45;&gt;Node9 -->
<g id="edge16" class="edge">
<title>Node45&#45;&gt;Node9</title>
<path fill="none" stroke="midnightblue" d="M373.79,-636.93C386.18,-638.34 399.3,-639.83 411.95,-641.27"/>
<polygon fill="midnightblue" stroke="midnightblue" points="411.64,-644.76 421.97,-642.41 412.43,-637.8 411.64,-644.76"/>
</g>
<!-- Node45&#45;&gt;Node15 -->
<g id="edge17" class="edge">
<title>Node45&#45;&gt;Node15</title>
<path fill="none" stroke="midnightblue" d="M358.95,-620.49C368.54,-617.03 378.13,-612.36 386,-606.07 432.66,-568.77 461.71,-501.72 473.88,-468.63"/>
<polygon fill="midnightblue" stroke="midnightblue" points="477.33,-469.4 477.37,-458.8 470.73,-467.06 477.33,-469.4"/>
</g>
<!-- Node46&#45;&gt;Node3 -->
<g id="edge21" class="edge">
<title>Node46&#45;&gt;Node3</title>
<path fill="none" stroke="midnightblue" d="M166.63,-316.75C175.42,-338.86 200.08,-393.31 239,-421.07 241.7,-423 244.58,-424.73 247.58,-426.28"/>
<polygon fill="midnightblue" stroke="midnightblue" points="246.32,-429.55 256.88,-430.44 249.18,-423.16 246.32,-429.55"/>
</g>
<!-- Node46&#45;&gt;Node4 -->
<g id="edge22" class="edge">
<title>Node46&#45;&gt;Node4</title>
<path fill="none" stroke="midnightblue" d="M183.76,-316.69C198.92,-323.56 220.05,-332.84 239,-340.07 249.23,-343.98 260.41,-347.86 270.86,-351.33"/>
<polygon fill="midnightblue" stroke="midnightblue" points="270,-354.73 280.59,-354.52 272.18,-348.08 270,-354.73"/>
</g>
<!-- Node46&#45;&gt;Node6 -->
<g id="edge23" class="edge">
<title>Node46&#45;&gt;Node6</title>
<path fill="none" stroke="midnightblue" d="M165,-316.74C176.42,-371.73 232.93,-642.77 239,-649.07 242,-652.18 245.43,-654.8 249.15,-657.01"/>
<polygon fill="midnightblue" stroke="midnightblue" points="247.72,-660.21 258.24,-661.46 250.79,-653.92 247.72,-660.21"/>
</g>
<!-- Node46&#45;&gt;Node9 -->
<g id="edge26" class="edge">
<title>Node46&#45;&gt;Node9</title>
<path fill="none" stroke="midnightblue" d="M197.51,-310.93C256.59,-317.82 372.1,-332.7 386,-345.07 428.54,-382.95 405.24,-413.63 422,-468.07 440.16,-527.05 462.98,-596.37 473.98,-629.51"/>
<polygon fill="midnightblue" stroke="midnightblue" points="470.76,-630.91 477.23,-639.29 477.4,-628.7 470.76,-630.91"/>
</g>
<!-- Node46&#45;&gt;Node15 -->
<g id="edge28" class="edge">
<title>Node46&#45;&gt;Node15</title>
<path fill="none" stroke="midnightblue" d="M197.54,-298.67C243.58,-289.43 326.19,-279.8 386,-312.07 433.32,-337.59 461.77,-398.39 473.79,-429.7"/>
<polygon fill="midnightblue" stroke="midnightblue" points="470.63,-431.25 477.36,-439.44 477.2,-428.84 470.63,-431.25"/>
</g>
<!-- Node46&#45;&gt;Node30 -->
<g id="edge24" class="edge">
<title>Node46&#45;&gt;Node30</title>
<path fill="none" stroke="midnightblue" d="M163.86,-316.67C167.19,-347.79 182.01,-446.75 239,-497.07 242.04,-499.75 245.42,-502.07 249,-504.06"/>
<polygon fill="midnightblue" stroke="midnightblue" points="247.72,-507.32 258.26,-508.38 250.68,-500.98 247.72,-507.32"/>
</g>
<!-- Node46&#45;&gt;Node42 -->
<g id="edge29" class="edge">
<title>Node46&#45;&gt;Node42</title>
<path fill="none" stroke="midnightblue" d="M170.87,-297.4C183.67,-282.29 210.43,-253.02 239,-236.07 246.38,-231.69 254.65,-228 262.91,-224.91"/>
<polygon fill="midnightblue" stroke="midnightblue" points="264.23,-228.16 272.53,-221.58 261.93,-221.55 264.23,-228.16"/>
</g>
<!-- Node46&#45;&gt;Node21 -->
<g id="edge34" class="edge">
<title>Node46&#45;&gt;Node21</title>
<path fill="none" stroke="midnightblue" d="M165.92,-297.44C177.71,-258.83 221.98,-116.85 239,-105.07 305.61,-58.97 407.54,-100.76 454.8,-124.83"/>
<polygon fill="midnightblue" stroke="midnightblue" points="453.27,-127.98 463.76,-129.51 456.52,-121.78 453.27,-127.98"/>
</g>
<!-- Node46&#45;&gt;Node12 -->
<g id="edge35" class="edge">
<title>Node46&#45;&gt;Node12</title>
<path fill="none" stroke="midnightblue" d="M181.59,-297.54C196.7,-290.15 218.76,-280.18 239,-274.07 307.75,-253.33 390.71,-241.26 439.33,-235.43"/>
<polygon fill="midnightblue" stroke="midnightblue" points="439.94,-238.88 449.46,-234.25 439.12,-231.93 439.94,-238.88"/>
</g>
<!-- Node46&#45;&gt;Node43 -->
<g id="edge31" class="edge">
<title>Node46&#45;&gt;Node43</title>
<path fill="none" stroke="midnightblue" d="M169.8,-316.61C181.85,-332.81 208.57,-365.61 239,-383.07 242.91,-385.32 247.1,-387.3 251.41,-389.06"/>
<polygon fill="midnightblue" stroke="midnightblue" points="250.4,-392.41 260.99,-392.54 252.79,-385.83 250.4,-392.41"/>
</g>
<!-- Node46&#45;&gt;Node44 -->
<g id="edge32" class="edge">
<title>Node46&#45;&gt;Node44</title>
<path fill="none" stroke="midnightblue" d="M164.9,-316.63C170.76,-343.49 191.12,-420.21 239,-459.07 241.08,-460.76 243.29,-462.29 245.6,-463.7"/>
<polygon fill="midnightblue" stroke="midnightblue" points="244.43,-467.03 254.93,-468.46 247.62,-460.8 244.43,-467.03"/>
</g>
<!-- Node46&#45;&gt;Node45 -->
<g id="edge33" class="edge">
<title>Node46&#45;&gt;Node45</title>
<path fill="none" stroke="midnightblue" d="M164.99,-316.64C171.95,-348.86 197.03,-455.78 239,-535.07 254.74,-564.81 279.63,-594.99 295.76,-613.12"/>
<polygon fill="midnightblue" stroke="midnightblue" points="293.19,-615.49 302.49,-620.56 298.38,-610.8 293.19,-615.49"/>
</g>
<!-- Node18 -->
<g id="node17" class="node">
<title>Node18</title>
<g id="a_node17"><a xlink:href="structSatSys.html#aec6d07b90d1e8172b8b6a6966abef4fd" target="_top" xlink:title="Returns a std::string of this satellite&#39;s id.">
<polygon fill="white" stroke="red" points="451.5,-19.57 451.5,-38.57 511.5,-38.57 511.5,-19.57 451.5,-19.57"/>
<text text-anchor="middle" x="481.5" y="-26.57" font-family="Helvetica,sans-Serif" font-size="10.00">SatSys::id</text>
</a>
</g>
</g>
<!-- Node46&#45;&gt;Node18 -->
<g id="edge25" class="edge">
<title>Node46&#45;&gt;Node18</title>
<path fill="none" stroke="midnightblue" d="M164.11,-297.33C169.46,-252.09 194.26,-63.22 239,-29.07 298.52,16.36 392.53,-1.59 443.94,-16.61"/>
<polygon fill="midnightblue" stroke="midnightblue" points="443.04,-19.99 453.63,-19.55 445.08,-13.3 443.04,-19.99"/>
</g>
<!-- Node47 -->
<g id="node18" class="node">
<title>Node47</title>
<g id="a_node18"><a xlink:href="structKFState.html#ae1fc274c403b77dc814ed90763b4dea1" target="_top" xlink:title="Least squares estimator for new kalman filter states.">
<polygon fill="white" stroke="red" points="251.5,-153.07 251.5,-183.07 373.5,-183.07 373.5,-153.07 251.5,-153.07"/>
<text text-anchor="start" x="259.5" y="-171.07" font-family="Helvetica,sans-Serif" font-size="10.00">KFState::leastSquareInit</text>
<text text-anchor="middle" x="312.5" y="-160.07" font-family="Helvetica,sans-Serif" font-size="10.00">States</text>
</a>
</g>
</g>
<!-- Node46&#45;&gt;Node47 -->
<g id="edge27" class="edge">
<title>Node46&#45;&gt;Node47</title>
<path fill="none" stroke="midnightblue" d="M166.91,-297.26C176.14,-275.37 201.34,-222.14 239,-193.07 241.32,-191.28 243.78,-189.61 246.34,-188.05"/>
<polygon fill="midnightblue" stroke="midnightblue" points="248.19,-191.03 255.34,-183.21 244.87,-184.87 248.19,-191.03"/>
</g>
<!-- Node49 -->
<g id="node19" class="node">
<title>Node49</title>
<g id="a_node19"><a xlink:href="structKFState.html#abdf1505bdab1895a280fd018979849f1" target="_top" xlink:title="Remove a state from a kalman filter object.">
<polygon fill="white" stroke="black" points="256,-114.57 256,-133.57 369,-133.57 369,-114.57 256,-114.57"/>
<text text-anchor="middle" x="312.5" y="-121.57" font-family="Helvetica,sans-Serif" font-size="10.00">KFState::removeState</text>
</a>
</g>
</g>
<!-- Node46&#45;&gt;Node49 -->
<g id="edge30" class="edge">
<title>Node46&#45;&gt;Node49</title>
<path fill="none" stroke="midnightblue" d="M164.58,-297.18C169.69,-268.62 188.45,-185.35 239,-143.07 241.42,-141.05 244.03,-139.24 246.77,-137.62"/>
<polygon fill="midnightblue" stroke="midnightblue" points="248.52,-140.66 255.91,-133.07 245.4,-134.39 248.52,-140.66"/>
</g>
<!-- Node46&#45;&gt;Node50 -->
<g id="edge36" class="edge">
<title>Node46&#45;&gt;Node50</title>
<path fill="none" stroke="midnightblue" d="M166.12,-297.32C180.29,-253.06 237.94,-73.14 239,-72.07 246.29,-64.73 255.86,-59.64 265.66,-56.1"/>
<polygon fill="midnightblue" stroke="midnightblue" points="266.94,-59.37 275.45,-53.06 264.86,-52.68 266.94,-59.37"/>
</g>
<!-- Node50&#45;&gt;Node15 -->
<g id="edge38" class="edge">
<title>Node50&#45;&gt;Node15</title>
<path fill="none" stroke="midnightblue" d="M331.52,-57.58C348.18,-67.3 372.35,-83.96 386,-105.07 422.05,-160.83 404.63,-185.98 422,-250.07 439.93,-316.22 463.53,-393.99 474.46,-429.55"/>
<polygon fill="midnightblue" stroke="midnightblue" points="471.14,-430.65 477.43,-439.17 477.83,-428.59 471.14,-430.65"/>
</g>
<!-- Node50&#45;&gt;Node21 -->
<g id="edge39" class="edge">
<title>Node50&#45;&gt;Node21</title>
<path fill="none" stroke="midnightblue" d="M349.38,-57.63C361.33,-61.41 374.52,-66.27 386,-72.07 413.92,-86.19 442.8,-107.88 461.16,-122.74"/>
<polygon fill="midnightblue" stroke="midnightblue" points="459.34,-125.77 469.28,-129.42 463.78,-120.36 459.34,-125.77"/>
</g>
<!-- Node50&#45;&gt;Node12 -->
<g id="edge40" class="edge">
<title>Node50&#45;&gt;Node12</title>
<path fill="none" stroke="midnightblue" d="M328.2,-57.62C343.67,-68.09 368.2,-85.98 386,-105.07 405.42,-125.89 405.08,-135.16 422,-158.07 436.36,-177.51 453.79,-199.01 465.87,-213.61"/>
<polygon fill="midnightblue" stroke="midnightblue" points="463.21,-215.9 472.3,-221.35 468.6,-211.42 463.21,-215.9"/>
</g>
<!-- Node50&#45;&gt;Node18 -->
<g id="edge37" class="edge">
<title>Node50&#45;&gt;Node18</title>
<path fill="none" stroke="midnightblue" d="M349.74,-43.95C376.7,-40.88 413.47,-36.7 441.15,-33.55"/>
<polygon fill="midnightblue" stroke="midnightblue" points="441.74,-37 451.28,-32.39 440.95,-30.05 441.74,-37"/>
</g>
</g>
</svg>
