<?xml version="1.0" encoding="UTF-8" standalone="no"?>
<!DOCTYPE svg PUBLIC "-//W3C//DTD SVG 1.1//EN"
 "http://www.w3.org/Graphics/SVG/1.1/DTD/svg11.dtd">
<!-- Generated by graphviz version 2.50.0 (20220203.2022)
 -->
<!-- Title: glnacc Pages: 1 -->
<svg width="258pt" height="28pt"
 viewBox="0.00 0.00 258.00 28.00" xmlns="http://www.w3.org/2000/svg" xmlns:xlink="http://www.w3.org/1999/xlink">
<g id="graph0" class="graph" transform="scale(1 1) rotate(0) translate(4 24)">
<title>glnacc</title>
<polygon fill="white" stroke="transparent" points="-4,4 -4,-24 254,-24 254,4 -4,4"/>
<!-- Node1 -->
<g id="node1" class="node">
<title>Node1</title>
<g id="a_node1"><a xlink:title=" ">
<polygon fill="#bfbfbf" stroke="black" points="205,-0.5 205,-19.5 250,-19.5 250,-0.5 205,-0.5"/>
<text text-anchor="middle" x="227.5" y="-7.5" font-family="Helvetica,sans-Serif" font-size="10.00">glnacc</text>
</a>
</g>
</g>
<!-- Node2 -->
<g id="node2" class="node">
<title>Node2</title>
<g id="a_node2"><a xlink:href="glnorbint_8f90.html#a1c2831898abaabfff30778622a86a29f" target="_top" xlink:title=" ">
<polygon fill="white" stroke="black" points="116,-0.5 116,-19.5 169,-19.5 169,-0.5 116,-0.5"/>
<text text-anchor="middle" x="142.5" y="-7.5" font-family="Helvetica,sans-Serif" font-size="10.00">glnorbint</text>
</a>
</g>
</g>
<!-- Node1&#45;&gt;Node2 -->
<g id="edge1" class="edge">
<title>Node1&#45;&gt;Node2</title>
<path fill="none" stroke="midnightblue" d="M194.52,-10C186.17,-10 177.27,-10 169.29,-10"/>
<polygon fill="midnightblue" stroke="midnightblue" points="194.69,-13.5 204.69,-10 194.69,-6.5 194.69,-13.5"/>
</g>
<!-- Node3 -->
<g id="node3" class="node">
<title>Node3</title>
<g id="a_node3"><a xlink:href="main__brdcorbit_8f90.html#a34cbfb6f2004478de868a894a67a8b30" target="_top" xlink:title=" ">
<polygon fill="white" stroke="black" points="0,-0.5 0,-19.5 80,-19.5 80,-0.5 0,-0.5"/>
<text text-anchor="middle" x="40" y="-7.5" font-family="Helvetica,sans-Serif" font-size="10.00">main_brdcorbit</text>
</a>
</g>
</g>
<!-- Node2&#45;&gt;Node3 -->
<g id="edge2" class="edge">
<title>Node2&#45;&gt;Node3</title>
<path fill="none" stroke="midnightblue" d="M105.79,-10C97.52,-10 88.67,-10 80.26,-10"/>
<polygon fill="midnightblue" stroke="midnightblue" points="105.88,-13.5 115.88,-10 105.88,-6.5 105.88,-13.5"/>
</g>
</g>
</svg>
