<?xml version="1.0" encoding="UTF-8" standalone="no"?>
<!DOCTYPE svg PUBLIC "-//W3C//DTD SVG 1.1//EN"
 "http://www.w3.org/Graphics/SVG/1.1/DTD/svg11.dtd">
<!-- Generated by graphviz version 2.50.0 (20220203.2022)
 -->
<!-- Title: remov_WLrecv Pages: 1 -->
<svg width="414pt" height="85pt"
 viewBox="0.00 0.00 414.00 85.00" xmlns="http://www.w3.org/2000/svg" xmlns:xlink="http://www.w3.org/1999/xlink">
<g id="graph0" class="graph" transform="scale(1 1) rotate(0) translate(4 81)">
<title>remov_WLrecv</title>
<polygon fill="white" stroke="transparent" points="-4,4 -4,-81 410,-81 410,4 -4,4"/>
<!-- Node1 -->
<g id="node1" class="node">
<title>Node1</title>
<g id="a_node1"><a xlink:title="Remove ambiguities and biases for receivers, network.">
<polygon fill="#bfbfbf" stroke="black" points="323,-0.5 323,-19.5 406,-19.5 406,-0.5 323,-0.5"/>
<text text-anchor="middle" x="364.5" y="-7.5" font-family="Helvetica,sans-Serif" font-size="10.00">remov_WLrecv</text>
</a>
</g>
</g>
<!-- Node2 -->
<g id="node2" class="node">
<title>Node2</title>
<g id="a_node2"><a xlink:href="GinARpivot_8cpp.html#a50a6ec448f33d1f09d19f2fb10e02299" target="_top" xlink:title="Reset receiver on network pivot.">
<polygon fill="white" stroke="black" points="226,-19.5 226,-38.5 287,-38.5 287,-19.5 226,-19.5"/>
<text text-anchor="middle" x="256.5" y="-26.5" font-family="Helvetica,sans-Serif" font-size="10.00">Reset_rec</text>
</a>
</g>
</g>
<!-- Node1&#45;&gt;Node2 -->
<g id="edge1" class="edge">
<title>Node1&#45;&gt;Node2</title>
<path fill="none" stroke="midnightblue" d="M312.91,-19.07C304.04,-20.66 295.09,-22.26 287.04,-23.7"/>
<polygon fill="midnightblue" stroke="midnightblue" points="313.6,-22.5 322.82,-17.29 312.36,-15.61 313.6,-22.5"/>
</g>
<!-- Node4 -->
<g id="node4" class="node">
<title>Node4</title>
<g id="a_node4"><a xlink:href="GinARpivot_8cpp.html#a7c7fea331a772c2c0cea6f36588f1ec4" target="_top" xlink:title="Update network pivot.">
<polygon fill="white" stroke="red" points="0,-19.5 0,-38.5 80,-38.5 80,-19.5 0,-19.5"/>
<text text-anchor="middle" x="40" y="-26.5" font-family="Helvetica,sans-Serif" font-size="10.00">updt_net_pivot</text>
</a>
</g>
</g>
<!-- Node1&#45;&gt;Node4 -->
<g id="edge5" class="edge">
<title>Node1&#45;&gt;Node4</title>
<path fill="none" stroke="midnightblue" d="M312.86,-8.76C286.88,-8.44 254.73,-8.53 226,-10 175.54,-12.58 117.63,-19.11 80.25,-23.79"/>
<polygon fill="midnightblue" stroke="midnightblue" points="312.81,-12.26 322.86,-8.91 312.91,-5.26 312.81,-12.26"/>
</g>
<!-- Node3 -->
<g id="node3" class="node">
<title>Node3</title>
<g id="a_node3"><a xlink:href="GinARpivot_8cpp.html#a97abf51e09ba6246a0eb3cd1127b5ef3" target="_top" xlink:title="Initialize Network pivot.">
<polygon fill="white" stroke="black" points="116,-57.5 116,-76.5 190,-76.5 190,-57.5 116,-57.5"/>
<text text-anchor="middle" x="153" y="-64.5" font-family="Helvetica,sans-Serif" font-size="10.00">init_net_pivot</text>
</a>
</g>
</g>
<!-- Node2&#45;&gt;Node3 -->
<g id="edge2" class="edge">
<title>Node2&#45;&gt;Node3</title>
<path fill="none" stroke="midnightblue" d="M220.46,-42.12C207.04,-47.14 191.98,-52.78 179.6,-57.41"/>
<polygon fill="midnightblue" stroke="midnightblue" points="221.75,-45.37 229.89,-38.59 219.29,-38.82 221.75,-45.37"/>
</g>
<!-- Node2&#45;&gt;Node4 -->
<g id="edge4" class="edge">
<title>Node2&#45;&gt;Node4</title>
<path fill="none" stroke="midnightblue" d="M215.3,-29C176.56,-29 118.35,-29 80.02,-29"/>
<polygon fill="midnightblue" stroke="midnightblue" points="215.67,-32.5 225.67,-29 215.67,-25.5 215.67,-32.5"/>
</g>
<!-- Node3&#45;&gt;Node4 -->
<g id="edge3" class="edge">
<title>Node3&#45;&gt;Node4</title>
<path fill="none" stroke="midnightblue" d="M114.11,-54.03C99.32,-48.97 82.67,-43.27 69,-38.59"/>
<polygon fill="midnightblue" stroke="midnightblue" points="113.4,-57.48 123.99,-57.41 115.66,-50.86 113.4,-57.48"/>
</g>
</g>
</svg>
