<?xml version="1.0" encoding="UTF-8" standalone="no"?>
<!DOCTYPE svg PUBLIC "-//W3C//DTD SVG 1.1//EN"
 "http://www.w3.org/Graphics/SVG/1.1/DTD/svg11.dtd">
<!-- Generated by graphviz version 2.50.0 (20220203.2022)
 -->
<!-- Title: round_perr Pages: 1 -->
<svg width="280pt" height="66pt"
 viewBox="0.00 0.00 280.00 66.00" xmlns="http://www.w3.org/2000/svg" xmlns:xlink="http://www.w3.org/1999/xlink">
<g id="graph0" class="graph" transform="scale(1 1) rotate(0) translate(4 62)">
<title>round_perr</title>
<polygon fill="white" stroke="transparent" points="-4,4 -4,-62 276,-62 276,4 -4,4"/>
<!-- Node1 -->
<g id="node1" class="node">
<title>Node1</title>
<g id="a_node1"><a xlink:title="Probability of error (assuming normal distribution)">
<polygon fill="#bfbfbf" stroke="black" points="210,-19.5 210,-38.5 272,-38.5 272,-19.5 210,-19.5"/>
<text text-anchor="middle" x="241" y="-26.5" font-family="Helvetica,sans-Serif" font-size="10.00">round_perr</text>
</a>
</g>
</g>
<!-- Node2 -->
<g id="node2" class="node">
<title>Node2</title>
<g id="a_node2"><a xlink:href="GNSSambres_8cpp.html#aff65fc95b889a3af6c182c7093163bb8" target="_top" xlink:title="Iterative Rounding.">
<polygon fill="white" stroke="black" points="100.5,-38.5 100.5,-57.5 173.5,-57.5 173.5,-38.5 100.5,-38.5"/>
<text text-anchor="middle" x="137" y="-45.5" font-family="Helvetica,sans-Serif" font-size="10.00">interat_round</text>
</a>
</g>
</g>
<!-- Node1&#45;&gt;Node2 -->
<g id="edge1" class="edge">
<title>Node1&#45;&gt;Node2</title>
<path fill="none" stroke="midnightblue" d="M199.99,-36.45C191.28,-38.07 182.12,-39.78 173.59,-41.37"/>
<polygon fill="midnightblue" stroke="midnightblue" points="200.76,-39.87 209.95,-34.6 199.48,-32.99 200.76,-39.87"/>
</g>
<!-- Node15 -->
<g id="node4" class="node">
<title>Node15</title>
<g id="a_node4"><a xlink:href="GNSSambres_8cpp.html#a8292074e76cf91e136884467b24318a0" target="_top" xlink:title="Simple integer Rounding.">
<polygon fill="white" stroke="black" points="100,-0.5 100,-19.5 174,-19.5 174,-0.5 100,-0.5"/>
<text text-anchor="middle" x="137" y="-7.5" font-family="Helvetica,sans-Serif" font-size="10.00">simple_round</text>
</a>
</g>
</g>
<!-- Node1&#45;&gt;Node15 -->
<g id="edge3" class="edge">
<title>Node1&#45;&gt;Node15</title>
<path fill="none" stroke="midnightblue" d="M199.93,-21.54C191.48,-19.96 182.62,-18.31 174.33,-16.77"/>
<polygon fill="midnightblue" stroke="midnightblue" points="199.48,-25.01 209.95,-23.4 200.76,-18.13 199.48,-25.01"/>
</g>
<!-- Node3 -->
<g id="node3" class="node">
<title>Node3</title>
<g id="a_node3"><a xlink:href="GNSSambres_8cpp.html#a5828fccde37f3654b3bd28203461dc8b" target="_top" xlink:title="Ambiguity resolution function for Ginan.">
<polygon fill="white" stroke="red" points="0,-19.5 0,-38.5 64,-38.5 64,-19.5 0,-19.5"/>
<text text-anchor="middle" x="32" y="-26.5" font-family="Helvetica,sans-Serif" font-size="10.00">GNSS_AR</text>
</a>
</g>
</g>
<!-- Node2&#45;&gt;Node3 -->
<g id="edge2" class="edge">
<title>Node2&#45;&gt;Node3</title>
<path fill="none" stroke="midnightblue" d="M90.42,-39.59C81.57,-37.96 72.47,-36.28 64.21,-34.76"/>
<polygon fill="midnightblue" stroke="midnightblue" points="89.8,-43.04 100.26,-41.41 91.07,-36.15 89.8,-43.04"/>
</g>
<!-- Node15&#45;&gt;Node3 -->
<g id="edge4" class="edge">
<title>Node15&#45;&gt;Node3</title>
<path fill="none" stroke="midnightblue" d="M89.87,-18.51C81.13,-20.12 72.18,-21.77 64.04,-23.27"/>
<polygon fill="midnightblue" stroke="midnightblue" points="90.78,-21.9 99.98,-16.65 89.51,-15.02 90.78,-21.9"/>
</g>
</g>
</svg>
