<?xml version="1.0" encoding="UTF-8" standalone="no"?>
<!DOCTYPE svg PUBLIC "-//W3C//DTD SVG 1.1//EN"
 "http://www.w3.org/Graphics/SVG/1.1/DTD/svg11.dtd">
<!-- Generated by graphviz version 2.50.0 (20220203.2022)
 -->
<!-- Title: interat_round Pages: 1 -->
<svg width="197pt" height="122pt"
 viewBox="0.00 0.00 197.00 122.00" xmlns="http://www.w3.org/2000/svg" xmlns:xlink="http://www.w3.org/1999/xlink">
<g id="graph0" class="graph" transform="scale(1 1) rotate(0) translate(4 118)">
<title>interat_round</title>
<polygon fill="white" stroke="transparent" points="-4,4 -4,-118 193,-118 193,4 -4,4"/>
<!-- Node1 -->
<g id="node1" class="node">
<title>Node1</title>
<g id="a_node1"><a xlink:title="Iterative Rounding.">
<polygon fill="#bfbfbf" stroke="black" points="0,-38.5 0,-57.5 73,-57.5 73,-38.5 0,-38.5"/>
<text text-anchor="middle" x="36.5" y="-45.5" font-family="Helvetica,sans-Serif" font-size="10.00">interat_round</text>
</a>
</g>
</g>
<!-- Node2 -->
<g id="node2" class="node">
<title>Node2</title>
<g id="a_node2"><a xlink:href="namespacepod__yaml.html#a59ea539cabb34ef7985e7e57c4b9dd93" target="_top" xlink:title=" ">
<polygon fill="white" stroke="black" points="109,-76.5 109,-95.5 189,-95.5 189,-76.5 109,-76.5"/>
<text text-anchor="middle" x="149" y="-83.5" font-family="Helvetica,sans-Serif" font-size="10.00">pod_yaml::pow</text>
</a>
</g>
</g>
<!-- Node1&#45;&gt;Node2 -->
<g id="edge1" class="edge">
<title>Node1&#45;&gt;Node2</title>
<path fill="none" stroke="midnightblue" d="M65.38,-57.59C78.99,-62.27 95.57,-67.97 110.29,-73.03"/>
<polygon fill="midnightblue" stroke="midnightblue" points="109.53,-76.47 120.13,-76.41 111.81,-69.85 109.53,-76.47"/>
</g>
<!-- Node3 -->
<g id="node3" class="node">
<title>Node3</title>
<g id="a_node3"><a xlink:href="GNSSambres_8cpp.html#a5897898a8b668f0a88c9ef857d44713f" target="_top" xlink:title="Probability of error (assuming normal distribution)">
<polygon fill="white" stroke="black" points="118,-38.5 118,-57.5 180,-57.5 180,-38.5 118,-38.5"/>
<text text-anchor="middle" x="149" y="-45.5" font-family="Helvetica,sans-Serif" font-size="10.00">round_perr</text>
</a>
</g>
</g>
<!-- Node1&#45;&gt;Node3 -->
<g id="edge3" class="edge">
<title>Node1&#45;&gt;Node3</title>
<path fill="none" stroke="midnightblue" d="M73.07,-48C84.08,-48 96.3,-48 107.61,-48"/>
<polygon fill="midnightblue" stroke="midnightblue" points="107.69,-51.5 117.69,-48 107.69,-44.5 107.69,-51.5"/>
</g>
<!-- Node4 -->
<g id="node4" class="node">
<title>Node4</title>
<g id="a_node4"><a xlink:href="streamTrace_8cpp.html#ae00e6addd3bdf3a7fd41a254eb9aec89" target="_top" xlink:title=" ">
<polygon fill="white" stroke="black" points="117,-0.5 117,-19.5 181,-19.5 181,-0.5 117,-0.5"/>
<text text-anchor="middle" x="149" y="-7.5" font-family="Helvetica,sans-Serif" font-size="10.00">tracepdeex</text>
</a>
</g>
</g>
<!-- Node1&#45;&gt;Node4 -->
<g id="edge4" class="edge">
<title>Node1&#45;&gt;Node4</title>
<path fill="none" stroke="midnightblue" d="M65.38,-38.41C78.99,-33.73 95.57,-28.03 110.29,-22.97"/>
<polygon fill="midnightblue" stroke="midnightblue" points="111.81,-26.15 120.13,-19.59 109.53,-19.53 111.81,-26.15"/>
</g>
<!-- Node2&#45;&gt;Node2 -->
<g id="edge2" class="edge">
<title>Node2&#45;&gt;Node2</title>
<path fill="none" stroke="midnightblue" d="M131.74,-95.76C123.34,-104.57 129.09,-114 149,-114 161.44,-114 168.35,-110.31 169.74,-105.4"/>
<polygon fill="midnightblue" stroke="midnightblue" points="172.95,-103.98 166.26,-95.76 166.36,-106.35 172.95,-103.98"/>
</g>
</g>
</svg>
