<?xml version="1.0" encoding="UTF-8" standalone="no"?>
<!DOCTYPE svg PUBLIC "-//W3C//DTD SVG 1.1//EN"
 "http://www.w3.org/Graphics/SVG/1.1/DTD/svg11.dtd">
<!-- Generated by graphviz version 2.50.0 (20220203.2022)
 -->
<!-- Title: updat_ambigt Pages: 1 -->
<!--zoomable 498 -->
<svg id="main" version="1.1" xmlns="http://www.w3.org/2000/svg" xmlns:xlink="http://www.w3.org/1999/xlink" xml:space="preserve" onload="init(evt)">
<style type="text/css"><![CDATA[
.edge:hover path { stroke: red; }
.edge:hover polygon { stroke: red; fill: red; }
]]></style>
<script type="text/javascript"><![CDATA[
var edges = document.getElementsByTagName('g');
if (edges && edges.length) {
  for (var i=0;i<edges.length;i++) {
    if (edges[i].id.substr(0,4)=='edge') {
      edges[i].setAttribute('class','edge');
    }
  }
}
]]></script>
        <defs>
                <circle id="rim" cx="0" cy="0" r="7"/>
                <circle id="rim2" cx="0" cy="0" r="3.5"/>
                <g id="zoomPlus">
                        <use xlink:href="#rim" fill="#404040">
                                <set attributeName="fill" to="#808080" begin="zoomplus.mouseover" end="zoomplus.mouseout"/>
                        </use>
                        <path d="M-4,0h8M0,-4v8" fill="none" stroke="white" stroke-width="1.5" pointer-events="none"/>
                </g>
                <g id="zoomMin">
                        <use xlink:href="#rim" fill="#404040">
                                <set attributeName="fill" to="#808080" begin="zoomminus.mouseover" end="zoomminus.mouseout"/>
                        </use>
                        <path d="M-4,0h8" fill="none" stroke="white" stroke-width="1.5" pointer-events="none"/>
                </g>
                <g id="dirArrow">
                        <path fill="none" stroke="white" stroke-width="1.5" d="M0,-3.0v7 M-2.5,-0.5L0,-3.0L2.5,-0.5"/>
                </g>
               <g id="resetDef">
                       <use xlink:href="#rim2" fill="#404040">
                               <set attributeName="fill" to="#808080" begin="reset.mouseover" end="reset.mouseout"/>
                       </use>
               </g>
        </defs>

<script type="text/javascript">
var viewWidth = 433;
var viewHeight = 498;
var sectionId = 'dynsection-33';
</script>
<script xlink:href="svgpan.js"/>
<svg id="graph" class="graph">
<g id="viewport">
<title>updat_ambigt</title>
<polygon fill="white" stroke="transparent" points="-4,4 -4,-493.65 429,-493.65 429,4 -4,4"/>
<!-- Node1 -->
<g id="node1" class="node">
<title>Node1</title>
<g id="a_node1"><a xlink:title="Update float ambiguity estimates.">
<polygon fill="#bfbfbf" stroke="black" points="0,-228.5 0,-247.5 75,-247.5 75,-228.5 0,-228.5"/>
<text text-anchor="middle" x="37.5" y="-235.5" font-family="Helvetica,sans-Serif" font-size="10.00">updat_ambigt</text>
</a>
</g>
</g>
<!-- Node2 -->
<g id="node2" class="node">
<title>Node2</title>
<g id="a_node2"><a xlink:href="GinARNLamb_8cpp.html#ac4b99b950a4d40abefe99b35c1142570" target="_top" xlink:title="Check Z&#45;transformed ambiguities and remove old entries.">
<polygon fill="white" stroke="black" points="123,-295.5 123,-314.5 179,-314.5 179,-295.5 123,-295.5"/>
<text text-anchor="middle" x="151" y="-302.5" font-family="Helvetica,sans-Serif" font-size="10.00">chk_arch</text>
</a>
</g>
</g>
<!-- Node1&#45;&gt;Node2 -->
<g id="edge1" class="edge">
<title>Node1&#45;&gt;Node2</title>
<path fill="none" stroke="midnightblue" d="M54.48,-247.6C73.02,-258.74 103.82,-277.25 125.42,-290.23"/>
<polygon fill="midnightblue" stroke="midnightblue" points="123.68,-293.27 134.05,-295.42 127.29,-287.27 123.68,-293.27"/>
</g>
<!-- Node4 -->
<g id="node4" class="node">
<title>Node4</title>
<g id="a_node4"><a xlink:href="GinAR__main_8cpp.html#a970d7fea64de71970c5f7d85c109b244" target="_top" xlink:title="Default frequencies for each system.">
<polygon fill="white" stroke="black" points="247,-266.5 247,-285.5 295,-285.5 295,-266.5 247,-266.5"/>
<text text-anchor="middle" x="271" y="-273.5" font-family="Helvetica,sans-Serif" font-size="10.00">sys_frq</text>
</a>
</g>
</g>
<!-- Node1&#45;&gt;Node4 -->
<g id="edge24" class="edge">
<title>Node1&#45;&gt;Node4</title>
<path fill="none" stroke="midnightblue" d="M75.18,-244.02C119.7,-251.33 194.12,-263.54 236.94,-270.57"/>
<polygon fill="midnightblue" stroke="midnightblue" points="236.42,-274.03 246.85,-272.2 237.55,-267.13 236.42,-274.03"/>
</g>
<!-- Node5 -->
<g id="node5" class="node">
<title>Node5</title>
<g id="a_node5"><a xlink:href="streamTrace_8cpp.html#ae00e6addd3bdf3a7fd41a254eb9aec89" target="_top" xlink:title=" ">
<polygon fill="white" stroke="black" points="356,-228.5 356,-247.5 420,-247.5 420,-228.5 356,-228.5"/>
<text text-anchor="middle" x="388" y="-235.5" font-family="Helvetica,sans-Serif" font-size="10.00">tracepdeex</text>
</a>
</g>
</g>
<!-- Node1&#45;&gt;Node5 -->
<g id="edge26" class="edge">
<title>Node1&#45;&gt;Node5</title>
<path fill="none" stroke="midnightblue" d="M43.01,-247.59C52.48,-266.45 76.47,-307.95 111,-324 136.36,-335.79 303.76,-321.36 315,-316 342.18,-303.04 364,-274.85 376.22,-256.15"/>
<polygon fill="midnightblue" stroke="midnightblue" points="379.23,-257.93 381.58,-247.6 373.3,-254.22 379.23,-257.93"/>
</g>
<!-- Node6 -->
<g id="node6" class="node">
<title>Node6</title>
<g id="a_node6"><a xlink:href="GNSSambres_8cpp.html#a5828fccde37f3654b3bd28203461dc8b" target="_top" xlink:title="Ambiguity resolution function for Ginan.">
<polygon fill="white" stroke="black" points="119,-190.5 119,-209.5 183,-209.5 183,-190.5 119,-190.5"/>
<text text-anchor="middle" x="151" y="-197.5" font-family="Helvetica,sans-Serif" font-size="10.00">GNSS_AR</text>
</a>
</g>
</g>
<!-- Node1&#45;&gt;Node6 -->
<g id="edge5" class="edge">
<title>Node1&#45;&gt;Node6</title>
<path fill="none" stroke="midnightblue" d="M66.64,-228.41C80.5,-223.69 97.42,-217.92 112.38,-212.82"/>
<polygon fill="midnightblue" stroke="midnightblue" points="113.54,-216.12 121.87,-209.59 111.28,-209.5 113.54,-216.12"/>
</g>
<!-- Node18 -->
<g id="node11" class="node">
<title>Node18</title>
<g id="a_node11"><a xlink:href="structSatSys.html#aec6d07b90d1e8172b8b6a6966abef4fd" target="_top" xlink:title="Returns a std::string of this satellite&#39;s id.">
<polygon fill="white" stroke="black" points="241,-38.5 241,-57.5 301,-57.5 301,-38.5 241,-38.5"/>
<text text-anchor="middle" x="271" y="-45.5" font-family="Helvetica,sans-Serif" font-size="10.00">SatSys::id</text>
</a>
</g>
</g>
<!-- Node1&#45;&gt;Node18 -->
<g id="edge13" class="edge">
<title>Node1&#45;&gt;Node18</title>
<path fill="none" stroke="midnightblue" d="M39.35,-228.22C42.49,-198.39 56.35,-108.06 111,-67 145.14,-41.35 195.56,-39.64 230.43,-42.38"/>
<polygon fill="midnightblue" stroke="midnightblue" points="230.43,-45.89 240.71,-43.35 231.08,-38.92 230.43,-45.89"/>
</g>
<!-- Node21 -->
<g id="node13" class="node">
<title>Node21</title>
<g id="a_node13"><a xlink:href="GinARNLamb_8cpp.html#aec84319e21a1558de999b084be3e8cad" target="_top" xlink:title="Add Z&#45;transformed ambiguity to archive.">
<polygon fill="white" stroke="black" points="120,-437.5 120,-456.5 182,-456.5 182,-437.5 120,-437.5"/>
<text text-anchor="middle" x="151" y="-444.5" font-family="Helvetica,sans-Serif" font-size="10.00">incl_Zamb</text>
</a>
</g>
</g>
<!-- Node1&#45;&gt;Node21 -->
<g id="edge15" class="edge">
<title>Node1&#45;&gt;Node21</title>
<path fill="none" stroke="midnightblue" d="M43.58,-247.52C60.81,-279.82 117.24,-385.59 140.17,-428.58"/>
<polygon fill="midnightblue" stroke="midnightblue" points="137.09,-430.25 144.89,-437.42 143.27,-426.95 137.09,-430.25"/>
</g>
<!-- Node23 -->
<g id="node15" class="node">
<title>Node23</title>
<g id="a_node15"><a xlink:href="GinARWLamb_8cpp.html#ae3a66820cbbd6fd7a6343ce1ba640958" target="_top" xlink:title="Retrieve WL ambiguities from archive.">
<polygon fill="white" stroke="black" points="111,-76.5 111,-95.5 191,-95.5 191,-76.5 111,-76.5"/>
<text text-anchor="middle" x="151" y="-83.5" font-family="Helvetica,sans-Serif" font-size="10.00">retrv_WLambg</text>
</a>
</g>
</g>
<!-- Node1&#45;&gt;Node23 -->
<g id="edge20" class="edge">
<title>Node1&#45;&gt;Node23</title>
<path fill="none" stroke="midnightblue" d="M45.47,-228.49C63.78,-203.54 113.4,-135.89 137.08,-103.61"/>
<polygon fill="midnightblue" stroke="midnightblue" points="139.94,-105.64 143.03,-95.5 134.29,-101.5 139.94,-105.64"/>
</g>
<!-- Node24 -->
<g id="node16" class="node">
<title>Node24</title>
<g id="a_node16"><a xlink:href="structGTime.html#a64394968bbfdecbbeec4ba5134fdb682" target="_top" xlink:title=" ">
<polygon fill="white" stroke="red" points="227,-0.5 227,-19.5 315,-19.5 315,-0.5 227,-0.5"/>
<text text-anchor="middle" x="271" y="-7.5" font-family="Helvetica,sans-Serif" font-size="10.00">GTime::to_string</text>
</a>
</g>
</g>
<!-- Node1&#45;&gt;Node24 -->
<g id="edge25" class="edge">
<title>Node1&#45;&gt;Node24</title>
<path fill="none" stroke="midnightblue" d="M38.83,-228.25C40.51,-195.69 50.58,-89.98 111,-39 140.05,-14.48 182.89,-7.79 216.78,-6.93"/>
<polygon fill="midnightblue" stroke="midnightblue" points="217.02,-10.43 226.99,-6.83 216.96,-3.43 217.02,-10.43"/>
</g>
<!-- Node3 -->
<g id="node3" class="node">
<title>Node3</title>
<g id="a_node3"><a xlink:href="trop_8cpp.html#aee11659ecea14ca59feae2dbe9f160d5" target="_top" xlink:title="coefficients multiplication">
<polygon fill="white" stroke="black" points="370.5,-456.5 370.5,-475.5 405.5,-475.5 405.5,-456.5 370.5,-456.5"/>
<text text-anchor="middle" x="388" y="-463.5" font-family="Helvetica,sans-Serif" font-size="10.00">coef</text>
</a>
</g>
</g>
<!-- Node2&#45;&gt;Node3 -->
<g id="edge2" class="edge">
<title>Node2&#45;&gt;Node3</title>
<path fill="none" stroke="midnightblue" d="M166,-314.59C205.26,-341.49 316.71,-417.84 364.64,-450.68"/>
<polygon fill="midnightblue" stroke="midnightblue" points="362.85,-453.7 373.08,-456.46 366.81,-447.92 362.85,-453.7"/>
</g>
<!-- Node2&#45;&gt;Node4 -->
<g id="edge3" class="edge">
<title>Node2&#45;&gt;Node4</title>
<path fill="none" stroke="midnightblue" d="M179.07,-298.35C196.22,-294.13 218.51,-288.66 236.73,-284.18"/>
<polygon fill="midnightblue" stroke="midnightblue" points="237.77,-287.53 246.64,-281.74 236.09,-280.73 237.77,-287.53"/>
</g>
<!-- Node2&#45;&gt;Node5 -->
<g id="edge4" class="edge">
<title>Node2&#45;&gt;Node5</title>
<path fill="none" stroke="midnightblue" d="M179,-308.16C212.2,-310.97 269.72,-312.33 315,-295 337.16,-286.52 357.88,-268.64 371.35,-255.16"/>
<polygon fill="midnightblue" stroke="midnightblue" points="373.99,-257.46 378.4,-247.83 368.95,-252.61 373.99,-257.46"/>
</g>
<!-- Node7 -->
<g id="node7" class="node">
<title>Node7</title>
<g id="a_node7"><a xlink:href="GNSSambres_8cpp.html#a0c81d8384a1295cd8a6371a9c9968325" target="_top" xlink:title="Integer bootstrapping.">
<polygon fill="white" stroke="red" points="232,-190.5 232,-209.5 310,-209.5 310,-190.5 232,-190.5"/>
<text text-anchor="middle" x="271" y="-197.5" font-family="Helvetica,sans-Serif" font-size="10.00">integer_bootst</text>
</a>
</g>
</g>
<!-- Node6&#45;&gt;Node7 -->
<g id="edge6" class="edge">
<title>Node6&#45;&gt;Node7</title>
<path fill="none" stroke="midnightblue" d="M183,-200C194.75,-200 208.42,-200 221.4,-200"/>
<polygon fill="midnightblue" stroke="midnightblue" points="221.61,-203.5 231.61,-200 221.61,-196.5 221.61,-203.5"/>
</g>
<!-- Node9 -->
<g id="node8" class="node">
<title>Node9</title>
<g id="a_node8"><a xlink:href="GNSSambres_8cpp.html#aff65fc95b889a3af6c182c7093163bb8" target="_top" xlink:title="Iterative Rounding.">
<polygon fill="white" stroke="red" points="234.5,-152.5 234.5,-171.5 307.5,-171.5 307.5,-152.5 234.5,-152.5"/>
<text text-anchor="middle" x="271" y="-159.5" font-family="Helvetica,sans-Serif" font-size="10.00">interat_round</text>
</a>
</g>
</g>
<!-- Node6&#45;&gt;Node9 -->
<g id="edge7" class="edge">
<title>Node6&#45;&gt;Node9</title>
<path fill="none" stroke="midnightblue" d="M181.78,-190.41C196.59,-185.64 214.69,-179.81 230.63,-174.68"/>
<polygon fill="midnightblue" stroke="midnightblue" points="231.79,-177.98 240.23,-171.59 229.64,-171.32 231.79,-177.98"/>
</g>
<!-- Node12 -->
<g id="node9" class="node">
<title>Node12</title>
<g id="a_node9"><a xlink:href="GNSSambres_8cpp.html#aab3dd27d035c545c6c854a6906616e79" target="_top" xlink:title="Lambda algorithm and its variations (ILQ, Common set, BIE)">
<polygon fill="white" stroke="red" points="229.5,-114.5 229.5,-133.5 312.5,-133.5 312.5,-114.5 229.5,-114.5"/>
<text text-anchor="middle" x="271" y="-121.5" font-family="Helvetica,sans-Serif" font-size="10.00">lambda_search</text>
</a>
</g>
</g>
<!-- Node6&#45;&gt;Node12 -->
<g id="edge9" class="edge">
<title>Node6&#45;&gt;Node12</title>
<path fill="none" stroke="midnightblue" d="M163.1,-190.23C177.24,-178.11 202.77,-157.29 227,-143 229.97,-141.25 233.14,-139.55 236.35,-137.95"/>
<polygon fill="midnightblue" stroke="midnightblue" points="237.84,-141.11 245.4,-133.69 234.86,-134.78 237.84,-141.11"/>
</g>
<!-- Node17 -->
<g id="node10" class="node">
<title>Node17</title>
<g id="a_node10"><a xlink:href="GNSSambres_8cpp.html#a8292074e76cf91e136884467b24318a0" target="_top" xlink:title="Simple integer Rounding.">
<polygon fill="white" stroke="red" points="234,-228.5 234,-247.5 308,-247.5 308,-228.5 234,-228.5"/>
<text text-anchor="middle" x="271" y="-235.5" font-family="Helvetica,sans-Serif" font-size="10.00">simple_round</text>
</a>
</g>
</g>
<!-- Node6&#45;&gt;Node17 -->
<g id="edge11" class="edge">
<title>Node6&#45;&gt;Node17</title>
<path fill="none" stroke="midnightblue" d="M181.78,-209.59C196.59,-214.36 214.69,-220.19 230.63,-225.32"/>
<polygon fill="midnightblue" stroke="midnightblue" points="229.64,-228.68 240.23,-228.41 231.79,-222.02 229.64,-228.68"/>
</g>
<!-- Node9&#45;&gt;Node5 -->
<g id="edge8" class="edge">
<title>Node9&#45;&gt;Node5</title>
<path fill="none" stroke="midnightblue" d="M296.65,-171.61C302.8,-174.35 309.27,-177.54 315,-181 334.44,-192.73 354.54,-209.05 368.54,-221.23"/>
<polygon fill="midnightblue" stroke="midnightblue" points="366.61,-224.19 376.42,-228.19 371.25,-218.94 366.61,-224.19"/>
</g>
<!-- Node12&#45;&gt;Node5 -->
<g id="edge10" class="edge">
<title>Node12&#45;&gt;Node5</title>
<path fill="none" stroke="midnightblue" d="M299.57,-133.69C304.97,-136.26 310.39,-139.35 315,-143 342.18,-164.5 364.62,-198.53 376.88,-219.49"/>
<polygon fill="midnightblue" stroke="midnightblue" points="373.94,-221.4 381.92,-228.36 380.02,-217.94 373.94,-221.4"/>
</g>
<!-- Node17&#45;&gt;Node5 -->
<g id="edge12" class="edge">
<title>Node17&#45;&gt;Node5</title>
<path fill="none" stroke="midnightblue" d="M308.07,-238C320.01,-238 333.39,-238 345.69,-238"/>
<polygon fill="midnightblue" stroke="midnightblue" points="345.71,-241.5 355.71,-238 345.71,-234.5 345.71,-241.5"/>
</g>
<!-- Node19 -->
<g id="node12" class="node">
<title>Node19</title>
<g id="a_node12"><a xlink:href="structSatSys.html#adbdf98ba1ef1f22b6aaed93916529513" target="_top" xlink:title="Sets a 4 character c_string of this satellite&#39;s id.">
<polygon fill="white" stroke="red" points="351,-38.5 351,-57.5 425,-57.5 425,-38.5 351,-38.5"/>
<text text-anchor="middle" x="388" y="-45.5" font-family="Helvetica,sans-Serif" font-size="10.00">SatSys::getId</text>
</a>
</g>
</g>
<!-- Node18&#45;&gt;Node19 -->
<g id="edge14" class="edge">
<title>Node18&#45;&gt;Node19</title>
<path fill="none" stroke="midnightblue" d="M301.02,-48C313.11,-48 327.44,-48 340.91,-48"/>
<polygon fill="midnightblue" stroke="midnightblue" points="340.99,-51.5 350.99,-48 340.99,-44.5 340.99,-51.5"/>
</g>
<!-- Node21&#45;&gt;Node3 -->
<g id="edge16" class="edge">
<title>Node21&#45;&gt;Node3</title>
<path fill="none" stroke="midnightblue" d="M165.88,-456.56C180.37,-465.92 204.14,-479.54 227,-485 273.2,-496.04 328.51,-484.07 360.51,-474.76"/>
<polygon fill="midnightblue" stroke="midnightblue" points="361.88,-478.01 370.42,-471.75 359.84,-471.31 361.88,-478.01"/>
</g>
<!-- Node21&#45;&gt;Node5 -->
<g id="edge19" class="edge">
<title>Node21&#45;&gt;Node5</title>
<path fill="none" stroke="midnightblue" d="M182.27,-438.04C217.65,-426.3 276.28,-402.78 315,-366 348.13,-334.53 370.16,-284.39 380.39,-257.15"/>
<polygon fill="midnightblue" stroke="midnightblue" points="383.73,-258.2 383.84,-247.6 377.15,-255.82 383.73,-258.2"/>
</g>
<!-- Node22 -->
<g id="node14" class="node">
<title>Node22</title>
<g id="a_node14"><a xlink:href="GinARNLamb_8cpp.html#af71b69e23375694ef4e5f632002864d7" target="_top" xlink:title="Comapring two Z&#45;transformed ambiguities.">
<polygon fill="white" stroke="black" points="235.5,-456.5 235.5,-475.5 306.5,-475.5 306.5,-456.5 235.5,-456.5"/>
<text text-anchor="middle" x="271" y="-463.5" font-family="Helvetica,sans-Serif" font-size="10.00">comp_Zamb</text>
</a>
</g>
</g>
<!-- Node21&#45;&gt;Node22 -->
<g id="edge17" class="edge">
<title>Node21&#45;&gt;Node22</title>
<path fill="none" stroke="midnightblue" d="M182.08,-451.84C195.16,-453.95 210.75,-456.46 225.15,-458.78"/>
<polygon fill="midnightblue" stroke="midnightblue" points="224.95,-462.29 235.37,-460.42 226.06,-455.38 224.95,-462.29"/>
</g>
<!-- Node22&#45;&gt;Node3 -->
<g id="edge18" class="edge">
<title>Node22&#45;&gt;Node3</title>
<path fill="none" stroke="midnightblue" d="M306.5,-466C323.71,-466 344.19,-466 360.2,-466"/>
<polygon fill="midnightblue" stroke="midnightblue" points="360.46,-469.5 370.46,-466 360.46,-462.5 360.46,-469.5"/>
</g>
<!-- Node23&#45;&gt;Node5 -->
<g id="edge23" class="edge">
<title>Node23&#45;&gt;Node5</title>
<path fill="none" stroke="midnightblue" d="M191.02,-80.97C226.4,-78.49 278.44,-80.24 315,-105 354.89,-132.01 374.58,-188.62 382.54,-218.53"/>
<polygon fill="midnightblue" stroke="midnightblue" points="379.15,-219.37 384.96,-228.23 385.94,-217.68 379.15,-219.37"/>
</g>
<!-- Node23&#45;&gt;Node18 -->
<g id="edge21" class="edge">
<title>Node23&#45;&gt;Node18</title>
<path fill="none" stroke="midnightblue" d="M181.78,-76.41C196.7,-71.6 214.97,-65.72 231,-60.56"/>
<polygon fill="midnightblue" stroke="midnightblue" points="232.2,-63.85 240.64,-57.45 230.05,-57.19 232.2,-63.85"/>
</g>
<!-- Node23&#45;&gt;Node24 -->
<g id="edge22" class="edge">
<title>Node23&#45;&gt;Node24</title>
<path fill="none" stroke="midnightblue" d="M163.1,-76.23C177.24,-64.11 202.77,-43.29 227,-29 229.97,-27.25 233.14,-25.55 236.35,-23.95"/>
<polygon fill="midnightblue" stroke="midnightblue" points="237.84,-27.11 245.4,-19.69 234.86,-20.78 237.84,-27.11"/>
</g>
</g>
</svg>
        <g id="navigator" transform="translate(0 0)" fill="#404254">
                <rect fill="#f2f5e9" fill-opacity="0.5" stroke="#606060" stroke-width=".5" x="0" y="0" width="60" height="60"/>
                <use id="zoomplus" xlink:href="#zoomPlus" x="17" y="9" onmousedown="handleZoom(evt,'in')"/>
                <use id="zoomminus" xlink:href="#zoomMin" x="42" y="9" onmousedown="handleZoom(evt,'out')"/>
                <use id="reset" xlink:href="#resetDef" x="30" y="36" onmousedown="handleReset()"/>
                <g id="arrowUp" xlink:href="#dirArrow" transform="translate(30 24)" onmousedown="handlePan(0,-1)">
                  <use xlink:href="#rim" fill="#404040">
                        <set attributeName="fill" to="#808080" begin="arrowUp.mouseover" end="arrowUp.mouseout"/>
                  </use>
                  <path fill="none" stroke="white" stroke-width="1.5" d="M0,-3.0v7 M-2.5,-0.5L0,-3.0L2.5,-0.5"/>
                </g>
                <g id="arrowRight" xlink:href="#dirArrow" transform="rotate(90) translate(36 -43)" onmousedown="handlePan(1,0)">
                  <use xlink:href="#rim" fill="#404040">
                        <set attributeName="fill" to="#808080" begin="arrowRight.mouseover" end="arrowRight.mouseout"/>
                  </use>
                  <path fill="none" stroke="white" stroke-width="1.5" d="M0,-3.0v7 M-2.5,-0.5L0,-3.0L2.5,-0.5"/>
                </g>
                <g id="arrowDown" xlink:href="#dirArrow" transform="rotate(180) translate(-30 -48)" onmousedown="handlePan(0,1)">
                  <use xlink:href="#rim" fill="#404040">
                        <set attributeName="fill" to="#808080" begin="arrowDown.mouseover" end="arrowDown.mouseout"/>
                  </use>
                  <path fill="none" stroke="white" stroke-width="1.5" d="M0,-3.0v7 M-2.5,-0.5L0,-3.0L2.5,-0.5"/>
                </g>
                <g id="arrowLeft" xlink:href="#dirArrow" transform="rotate(270) translate(-36 17)" onmousedown="handlePan(-1,0)">
                  <use xlink:href="#rim" fill="#404040">
                        <set attributeName="fill" to="#808080" begin="arrowLeft.mouseover" end="arrowLeft.mouseout"/>
                  </use>
                  <path fill="none" stroke="white" stroke-width="1.5" d="M0,-3.0v7 M-2.5,-0.5L0,-3.0L2.5,-0.5"/>
                </g>
        </g>
        <svg viewBox="0 0 15 15" width="100%" height="30px" preserveAspectRatio="xMaxYMin meet">
         <g id="arrow_out" transform="scale(0.3 0.3)">
          <a xlink:href="GNSSambres_8hpp_a150b7e4a892320cadb8bfd4c813a1aca_cgraph_org.svg" target="_base">
           <rect id="button" ry="5" rx="5" y="6" x="6" height="38" width="38"
                fill="#f2f5e9" fill-opacity="0.5" stroke="#606060" stroke-width="1.0"/>
           <path id="arrow"
             d="M 11.500037,31.436501 C 11.940474,20.09759 22.043105,11.32322 32.158766,21.979434 L 37.068811,17.246167 C 37.068811,17.246167 37.088388,32 37.088388,32 L 22.160133,31.978069 C 22.160133,31.978069 26.997745,27.140456 26.997745,27.140456 C 18.528582,18.264221 13.291696,25.230495 11.500037,31.436501 z"
             style="fill:#404040;"/>
          </a>
         </g>
        </svg>
</svg>
