<?xml version="1.0" encoding="UTF-8" standalone="no"?>
<!DOCTYPE svg PUBLIC "-//W3C//DTD SVG 1.1//EN"
 "http://www.w3.org/Graphics/SVG/1.1/DTD/svg11.dtd">
<!-- Generated by graphviz version 2.50.0 (20220203.2022)
 -->
<!-- Title: GNSS_AR Pages: 1 -->
<svg width="461pt" height="104pt"
 viewBox="0.00 0.00 461.00 104.00" xmlns="http://www.w3.org/2000/svg" xmlns:xlink="http://www.w3.org/1999/xlink">
<g id="graph0" class="graph" transform="scale(1 1) rotate(0) translate(4 100)">
<title>GNSS_AR</title>
<polygon fill="white" stroke="transparent" points="-4,4 -4,-100 457,-100 457,4 -4,4"/>
<!-- Node1 -->
<g id="node1" class="node">
<title>Node1</title>
<g id="a_node1"><a xlink:title="Ambiguity resolution function for Ginan.">
<polygon fill="#bfbfbf" stroke="black" points="389,-57.5 389,-76.5 453,-76.5 453,-57.5 389,-57.5"/>
<text text-anchor="middle" x="421" y="-64.5" font-family="Helvetica,sans-Serif" font-size="10.00">GNSS_AR</text>
</a>
</g>
</g>
<!-- Node2 -->
<g id="node2" class="node">
<title>Node2</title>
<g id="a_node2"><a xlink:href="GinARWLamb_8cpp.html#a6cfe77e4642a57d54c9204244cd403a0" target="_top" xlink:title="Resolve wide&#45;lane ambiguities.">
<polygon fill="white" stroke="black" points="271,-76.5 271,-95.5 353,-95.5 353,-76.5 271,-76.5"/>
<text text-anchor="middle" x="312" y="-83.5" font-family="Helvetica,sans-Serif" font-size="10.00">reslv_WLambg</text>
</a>
</g>
</g>
<!-- Node1&#45;&gt;Node2 -->
<g id="edge1" class="edge">
<title>Node1&#45;&gt;Node2</title>
<path fill="none" stroke="midnightblue" d="M378.8,-74.32C370.42,-75.8 361.6,-77.37 353.25,-78.85"/>
<polygon fill="midnightblue" stroke="midnightblue" points="379.53,-77.74 388.76,-72.55 378.31,-70.85 379.53,-77.74"/>
</g>
<!-- Node7 -->
<g id="node5" class="node">
<title>Node7</title>
<g id="a_node5"><a xlink:href="GinARNLamb_8cpp.html#a150b7e4a892320cadb8bfd4c813a1aca" target="_top" xlink:title="Update float ambiguity estimates.">
<polygon fill="white" stroke="black" points="274.5,-38.5 274.5,-57.5 349.5,-57.5 349.5,-38.5 274.5,-38.5"/>
<text text-anchor="middle" x="312" y="-45.5" font-family="Helvetica,sans-Serif" font-size="10.00">updat_ambigt</text>
</a>
</g>
</g>
<!-- Node1&#45;&gt;Node7 -->
<g id="edge4" class="edge">
<title>Node1&#45;&gt;Node7</title>
<path fill="none" stroke="midnightblue" d="M378.69,-59.67C369.16,-57.97 359.08,-56.18 349.75,-54.53"/>
<polygon fill="midnightblue" stroke="midnightblue" points="378.31,-63.15 388.76,-61.45 379.53,-56.26 378.31,-63.15"/>
</g>
<!-- Node3 -->
<g id="node3" class="node">
<title>Node3</title>
<g id="a_node3"><a xlink:href="GinARWLamb_8cpp.html#a12713865301eea1dac84952dd9fd1149" target="_top" xlink:title="Update WL ambiguities and save then to archive.">
<polygon fill="white" stroke="black" points="142,-76.5 142,-95.5 227,-95.5 227,-76.5 142,-76.5"/>
<text text-anchor="middle" x="184.5" y="-83.5" font-family="Helvetica,sans-Serif" font-size="10.00">updat_WLambg</text>
</a>
</g>
</g>
<!-- Node2&#45;&gt;Node3 -->
<g id="edge2" class="edge">
<title>Node2&#45;&gt;Node3</title>
<path fill="none" stroke="midnightblue" d="M260.92,-86C249.79,-86 238.1,-86 227.33,-86"/>
<polygon fill="midnightblue" stroke="midnightblue" points="260.95,-89.5 270.95,-86 260.95,-82.5 260.95,-89.5"/>
</g>
<!-- Node4 -->
<g id="node4" class="node">
<title>Node4</title>
<g id="a_node4"><a xlink:href="GinAR__main_8cpp.html#a5d80c7f56e03c96dc400839ceca50698" target="_top" xlink:title="Ambiguity resolution for network solutions.">
<polygon fill="white" stroke="red" points="0,-57.5 0,-76.5 98,-76.5 98,-57.5 0,-57.5"/>
<text text-anchor="middle" x="49" y="-64.5" font-family="Helvetica,sans-Serif" font-size="10.00">networkAmbigResl</text>
</a>
</g>
</g>
<!-- Node3&#45;&gt;Node4 -->
<g id="edge3" class="edge">
<title>Node3&#45;&gt;Node4</title>
<path fill="none" stroke="midnightblue" d="M131.95,-78.66C120.79,-77.08 109.04,-75.4 98.02,-73.83"/>
<polygon fill="midnightblue" stroke="midnightblue" points="131.6,-82.15 141.99,-80.09 132.58,-75.22 131.6,-82.15"/>
</g>
<!-- Node7&#45;&gt;Node4 -->
<g id="edge5" class="edge">
<title>Node7&#45;&gt;Node4</title>
<path fill="none" stroke="midnightblue" d="M264.26,-51.4C217.42,-54.81 145.67,-60.04 98.29,-63.48"/>
<polygon fill="midnightblue" stroke="midnightblue" points="264.71,-54.88 274.43,-50.66 264.21,-47.9 264.71,-54.88"/>
</g>
<!-- Node8 -->
<g id="node6" class="node">
<title>Node8</title>
<g id="a_node6"><a xlink:href="GinAR__main_8cpp.html#a99547395860accf77f4d3dc4328cb139" target="_top" xlink:title="Ambiguity resolution on smoothed KF solutions.">
<polygon fill="white" stroke="red" points="134,-0.5 134,-19.5 235,-19.5 235,-0.5 134,-0.5"/>
<text text-anchor="middle" x="184.5" y="-7.5" font-family="Helvetica,sans-Serif" font-size="10.00">smoothdAmbigResl</text>
</a>
</g>
</g>
<!-- Node7&#45;&gt;Node8 -->
<g id="edge6" class="edge">
<title>Node7&#45;&gt;Node8</title>
<path fill="none" stroke="midnightblue" d="M269.6,-35.46C252.53,-30.3 233.06,-24.4 217.16,-19.59"/>
<polygon fill="midnightblue" stroke="midnightblue" points="268.75,-38.86 279.33,-38.41 270.77,-32.16 268.75,-38.86"/>
</g>
</g>
</svg>
