<?xml version="1.0" encoding="UTF-8" standalone="no"?>
<!DOCTYPE svg PUBLIC "-//W3C//DTD SVG 1.1//EN"
 "http://www.w3.org/Graphics/SVG/1.1/DTD/svg11.dtd">
<!-- Generated by graphviz version 2.50.0 (20220203.2022)
 -->
<!-- Title: utc2gpst Pages: 1 -->
<svg width="747pt" height="572pt"
 viewBox="0.00 0.00 747.00 572.00" xmlns="http://www.w3.org/2000/svg" xmlns:xlink="http://www.w3.org/1999/xlink">
<g id="graph0" class="graph" transform="scale(1 1) rotate(0) translate(4 568)">
<title>utc2gpst</title>
<polygon fill="white" stroke="transparent" points="-4,4 -4,-568 743,-568 743,4 -4,4"/>
<!-- Node1 -->
<g id="node1" class="node">
<title>Node1</title>
<g id="a_node1"><a xlink:title=" ">
<polygon fill="#bfbfbf" stroke="black" points="685,-266.5 685,-285.5 739,-285.5 739,-266.5 685,-266.5"/>
<text text-anchor="middle" x="712" y="-273.5" font-family="Helvetica,sans-Serif" font-size="10.00">utc2gpst</text>
</a>
</g>
</g>
<!-- Node2 -->
<g id="node2" class="node">
<title>Node2</title>
<g id="a_node2"><a xlink:href="gTime_8cpp.html#aacaf6ccad3d0a2026f8bb4273dfc225d" target="_top" xlink:title=" ">
<polygon fill="white" stroke="black" points="557.5,-544.5 557.5,-563.5 625.5,-563.5 625.5,-544.5 557.5,-544.5"/>
<text text-anchor="middle" x="591.5" y="-551.5" font-family="Helvetica,sans-Serif" font-size="10.00">adjgpsweek</text>
</a>
</g>
</g>
<!-- Node1&#45;&gt;Node2 -->
<g id="edge1" class="edge">
<title>Node1&#45;&gt;Node2</title>
<path fill="none" stroke="midnightblue" d="M708.76,-295.64C702.23,-349.77 681.55,-499.4 649,-535 642.85,-541.72 634.26,-546.07 625.62,-548.88"/>
<polygon fill="midnightblue" stroke="midnightblue" points="712.25,-295.96 709.94,-285.62 705.3,-295.14 712.25,-295.96"/>
</g>
<!-- Node3 -->
<g id="node3" class="node">
<title>Node3</title>
<g id="a_node3"><a xlink:href="rinex_8cpp.html#afe12f2ebb4ce697ac910d1bf83ecee9b" target="_top" xlink:title=" ">
<polygon fill="white" stroke="black" points="554.5,-506.5 554.5,-525.5 628.5,-525.5 628.5,-506.5 554.5,-506.5"/>
<text text-anchor="middle" x="591.5" y="-513.5" font-family="Helvetica,sans-Serif" font-size="10.00">decode_geph</text>
</a>
</g>
</g>
<!-- Node1&#45;&gt;Node3 -->
<g id="edge2" class="edge">
<title>Node1&#45;&gt;Node3</title>
<path fill="none" stroke="midnightblue" d="M710.76,-295.68C709.23,-337.13 700.04,-434.31 649,-492 643.42,-498.31 635.91,-503.01 628.18,-506.49"/>
<polygon fill="midnightblue" stroke="midnightblue" points="714.27,-295.64 711.02,-285.55 707.27,-295.46 714.27,-295.64"/>
</g>
<!-- Node15 -->
<g id="node5" class="node">
<title>Node15</title>
<g id="a_node5"><a xlink:href="structRtcmDecoder.html#a6673aa5a16d7e997de9ce5e43fac7860" target="_top" xlink:title=" ">
<polygon fill="white" stroke="black" points="340,-468.5 340,-487.5 498,-487.5 498,-468.5 340,-468.5"/>
<text text-anchor="middle" x="419" y="-475.5" font-family="Helvetica,sans-Serif" font-size="10.00">RtcmDecoder::decodeEphemeris</text>
</a>
</g>
</g>
<!-- Node1&#45;&gt;Node15 -->
<g id="edge4" class="edge">
<title>Node1&#45;&gt;Node15</title>
<path fill="none" stroke="midnightblue" d="M710.87,-295.99C709.43,-334.55 700.26,-418.94 649,-459 596.35,-500.15 514.56,-495.59 464.31,-487.51"/>
<polygon fill="midnightblue" stroke="midnightblue" points="714.38,-295.67 711.11,-285.59 707.38,-295.51 714.38,-295.67"/>
</g>
<!-- Node21 -->
<g id="node7" class="node">
<title>Node21</title>
<g id="a_node7"><a xlink:href="structRtcmDecoder.html#a255b1924964121ecb5ac55d1efc0cd64" target="_top" xlink:title=" ">
<polygon fill="white" stroke="black" points="164,-430.5 164,-449.5 304,-449.5 304,-430.5 164,-430.5"/>
<text text-anchor="middle" x="234" y="-437.5" font-family="Helvetica,sans-Serif" font-size="10.00">RtcmDecoder::decodeMSM7</text>
</a>
</g>
</g>
<!-- Node1&#45;&gt;Node21 -->
<g id="edge6" class="edge">
<title>Node1&#45;&gt;Node21</title>
<path fill="none" stroke="midnightblue" d="M686.33,-290.99C647.56,-313.94 569.41,-357.78 498,-383 459.56,-396.57 351.33,-418.13 286.31,-430.47"/>
<polygon fill="midnightblue" stroke="midnightblue" points="688.52,-293.76 695.31,-285.63 684.93,-287.75 688.52,-293.76"/>
</g>
<!-- Node22 -->
<g id="node8" class="node">
<title>Node22</title>
<g id="a_node8"><a xlink:href="rtkcmn_8cpp.html#a304b15df0b6ab1452fd1f31277dad490" target="_top" xlink:title="eci to ecef transformation matrix">
<polygon fill="white" stroke="black" points="565,-266.5 565,-285.5 618,-285.5 618,-266.5 565,-266.5"/>
<text text-anchor="middle" x="591.5" y="-273.5" font-family="Helvetica,sans-Serif" font-size="10.00">eci2ecef</text>
</a>
</g>
</g>
<!-- Node1&#45;&gt;Node22 -->
<g id="edge8" class="edge">
<title>Node1&#45;&gt;Node22</title>
<path fill="none" stroke="midnightblue" d="M674.93,-276C656.55,-276 634.65,-276 618.04,-276"/>
<polygon fill="midnightblue" stroke="midnightblue" points="674.99,-279.5 684.99,-276 674.99,-272.5 674.99,-279.5"/>
</g>
<!-- Node61 -->
<g id="node14" class="node">
<title>Node61</title>
<g id="a_node14"><a xlink:href="tides_8cpp.html#a3faed0b0aa3e0d79b8615c68c7e085a0" target="_top" xlink:title=" ">
<polygon fill="white" stroke="red" points="209,-228.5 209,-247.5 259,-247.5 259,-228.5 209,-228.5"/>
<text text-anchor="middle" x="234" y="-235.5" font-family="Helvetica,sans-Serif" font-size="10.00">tidedisp</text>
</a>
</g>
</g>
<!-- Node1&#45;&gt;Node61 -->
<g id="edge26" class="edge">
<title>Node1&#45;&gt;Node61</title>
<path fill="none" stroke="midnightblue" d="M686.88,-261.16C648.56,-238.55 570.65,-196.47 498,-181 429.32,-166.38 408.06,-163.72 340,-181 303.81,-190.19 266.6,-214.64 247.7,-228.34"/>
<polygon fill="midnightblue" stroke="midnightblue" points="685.37,-264.33 695.74,-266.46 688.96,-258.33 685.37,-264.33"/>
</g>
<!-- Node62 -->
<g id="node15" class="node">
<title>Node62</title>
<g id="a_node15"><a xlink:href="structRtcmDecoder.html#a5ab6d5d8cf33f0742a012d6cdd4e52ae" target="_top" xlink:title=" ">
<polygon fill="white" stroke="black" points="534,-430.5 534,-449.5 649,-449.5 649,-430.5 534,-430.5"/>
<text text-anchor="middle" x="591.5" y="-437.5" font-family="Helvetica,sans-Serif" font-size="10.00">RtcmDecoder::getGpst</text>
</a>
</g>
</g>
<!-- Node1&#45;&gt;Node62 -->
<g id="edge16" class="edge">
<title>Node1&#45;&gt;Node62</title>
<path fill="none" stroke="midnightblue" d="M707.17,-295.5C700.39,-325.2 683.59,-381.93 649,-416 642.7,-422.21 634.54,-426.91 626.4,-430.44"/>
<polygon fill="midnightblue" stroke="midnightblue" points="710.63,-296.05 709.29,-285.54 703.78,-294.59 710.63,-296.05"/>
</g>
<!-- Node65 -->
<g id="node17" class="node">
<title>Node65</title>
<g id="a_node17"><a xlink:href="rinex_8cpp.html#a7ac0513671bff5c91f961ebca3ae1673" target="_top" xlink:title=" ">
<polygon fill="white" stroke="black" points="559.5,-114.5 559.5,-133.5 623.5,-133.5 623.5,-114.5 559.5,-114.5"/>
<text text-anchor="middle" x="591.5" y="-121.5" font-family="Helvetica,sans-Serif" font-size="10.00">readrnxobs</text>
</a>
</g>
</g>
<!-- Node1&#45;&gt;Node65 -->
<g id="edge20" class="edge">
<title>Node1&#45;&gt;Node65</title>
<path fill="none" stroke="midnightblue" d="M706.16,-256.23C698.46,-228.58 680.91,-178.37 649,-148 641.9,-141.24 632.6,-136.24 623.61,-132.61"/>
<polygon fill="midnightblue" stroke="midnightblue" points="702.87,-257.47 708.8,-266.26 709.64,-255.7 702.87,-257.47"/>
</g>
<!-- Node66 -->
<g id="node19" class="node">
<title>Node66</title>
<g id="a_node19"><a xlink:href="sp3_8cpp.html#a312f81af37fc5915220869ee56af6c91" target="_top" xlink:title="read an epoch of data from an sp3 precise ephemeris file">
<polygon fill="white" stroke="black" points="566,-76.5 566,-95.5 617,-95.5 617,-76.5 566,-76.5"/>
<text text-anchor="middle" x="591.5" y="-83.5" font-family="Helvetica,sans-Serif" font-size="10.00">readsp3</text>
</a>
</g>
</g>
<!-- Node1&#45;&gt;Node66 -->
<g id="edge22" class="edge">
<title>Node1&#45;&gt;Node66</title>
<path fill="none" stroke="midnightblue" d="M709.35,-256.34C705.34,-221.12 692.01,-147.01 649,-105 640.41,-96.61 628.01,-91.92 617.01,-89.31"/>
<polygon fill="midnightblue" stroke="midnightblue" points="705.87,-256.72 710.34,-266.32 712.83,-256.02 705.87,-256.72"/>
</g>
<!-- Node70 -->
<g id="node21" class="node">
<title>Node70</title>
<g id="a_node21"><a xlink:href="rinexNavWrite_8cpp.html#a5874d81a129caffff69368a0fb421f88" target="_top" xlink:title=" ">
<polygon fill="white" stroke="black" points="548.5,-38.5 548.5,-57.5 634.5,-57.5 634.5,-38.5 548.5,-38.5"/>
<text text-anchor="middle" x="591.5" y="-45.5" font-family="Helvetica,sans-Serif" font-size="10.00">rinexNavHeader</text>
</a>
</g>
</g>
<!-- Node1&#45;&gt;Node70 -->
<g id="edge24" class="edge">
<title>Node1&#45;&gt;Node70</title>
<path fill="none" stroke="midnightblue" d="M710.88,-256.07C709.53,-215.04 700.64,-120.53 649,-67 644.98,-62.83 640.01,-59.57 634.7,-57.03"/>
<polygon fill="midnightblue" stroke="midnightblue" points="707.38,-256.22 711.09,-266.14 714.38,-256.07 707.38,-256.22"/>
</g>
<!-- Node72 -->
<g id="node23" class="node">
<title>Node72</title>
<g id="a_node23"><a xlink:href="rinexObsWrite_8cpp.html#a8fe4a6f8dc9cd7718c5e58b9cebd141d" target="_top" xlink:title=" ">
<polygon fill="white" stroke="black" points="536,-0.5 536,-19.5 647,-19.5 647,-0.5 536,-0.5"/>
<text text-anchor="middle" x="591.5" y="-7.5" font-family="Helvetica,sans-Serif" font-size="10.00">writeRinexObsHeader</text>
</a>
</g>
</g>
<!-- Node1&#45;&gt;Node72 -->
<g id="edge27" class="edge">
<title>Node1&#45;&gt;Node72</title>
<path fill="none" stroke="midnightblue" d="M708.5,-256.23C701.49,-203.75 680.11,-62.65 649,-29 645.42,-25.12 641.02,-22.04 636.27,-19.58"/>
<polygon fill="midnightblue" stroke="midnightblue" points="705.04,-256.81 709.81,-266.27 711.99,-255.9 705.04,-256.81"/>
</g>
<!-- Node4 -->
<g id="node4" class="node">
<title>Node4</title>
<g id="a_node4"><a xlink:href="rinex_8cpp.html#a60ceb46efd053b71d9bff42f456e0c73" target="_top" xlink:title=" ">
<polygon fill="white" stroke="red" points="384.5,-506.5 384.5,-525.5 453.5,-525.5 453.5,-506.5 384.5,-506.5"/>
<text text-anchor="middle" x="419" y="-513.5" font-family="Helvetica,sans-Serif" font-size="10.00">readrnxnavb</text>
</a>
</g>
</g>
<!-- Node3&#45;&gt;Node4 -->
<g id="edge3" class="edge">
<title>Node3&#45;&gt;Node4</title>
<path fill="none" stroke="midnightblue" d="M544.16,-516C515.5,-516 479.38,-516 453.5,-516"/>
<polygon fill="midnightblue" stroke="midnightblue" points="544.34,-519.5 554.34,-516 544.34,-512.5 544.34,-519.5"/>
</g>
<!-- Node16 -->
<g id="node6" class="node">
<title>Node16</title>
<g id="a_node6"><a xlink:href="structRtcmStream.html#a34a7a941dab214b7ff6b17e8a53eb55a" target="_top" xlink:title=" ">
<polygon fill="white" stroke="red" points="0,-449.5 0,-468.5 128,-468.5 128,-449.5 0,-449.5"/>
<text text-anchor="middle" x="64" y="-456.5" font-family="Helvetica,sans-Serif" font-size="10.00">RtcmStream::parseRTCM</text>
</a>
</g>
</g>
<!-- Node15&#45;&gt;Node16 -->
<g id="edge5" class="edge">
<title>Node15&#45;&gt;Node16</title>
<path fill="none" stroke="midnightblue" d="M329.38,-473.23C266.71,-469.86 184.19,-465.42 128.13,-462.4"/>
<polygon fill="midnightblue" stroke="midnightblue" points="329.48,-476.74 339.66,-473.78 329.86,-469.75 329.48,-476.74"/>
</g>
<!-- Node21&#45;&gt;Node16 -->
<g id="edge7" class="edge">
<title>Node21&#45;&gt;Node16</title>
<path fill="none" stroke="midnightblue" d="M153.71,-448.97C145.16,-449.93 136.54,-450.91 128.22,-451.85"/>
<polygon fill="midnightblue" stroke="midnightblue" points="154.15,-452.44 163.7,-447.84 153.37,-445.48 154.15,-452.44"/>
</g>
<!-- Node23 -->
<g id="node9" class="node">
<title>Node23</title>
<g id="a_node9"><a xlink:href="structGravityModel.html#a49e3421bc642ffd11e22738ed5d689dc" target="_top" xlink:title="bVarEq = 1 if for the variational equation">
<polygon fill="white" stroke="black" points="354.5,-343 354.5,-373 483.5,-373 483.5,-343 354.5,-343"/>
<text text-anchor="start" x="362.5" y="-361" font-family="Helvetica,sans-Serif" font-size="10.00">GravityModel::centralBody</text>
<text text-anchor="middle" x="419" y="-350" font-family="Helvetica,sans-Serif" font-size="10.00">GravityAcc</text>
</a>
</g>
</g>
<!-- Node22&#45;&gt;Node23 -->
<g id="edge9" class="edge">
<title>Node22&#45;&gt;Node23</title>
<path fill="none" stroke="midnightblue" d="M568.61,-291.6C550.38,-304.06 523.39,-321.32 498,-333 490.12,-336.63 481.57,-339.94 473.11,-342.89"/>
<polygon fill="midnightblue" stroke="midnightblue" points="571.07,-294.15 577.29,-285.58 567.08,-288.4 571.07,-294.15"/>
</g>
<!-- Node24 -->
<g id="node10" class="node">
<title>Node24</title>
<g id="a_node10"><a xlink:href="test__egm_8cpp.html#ae66f6b31b5ad750f1fe042a706a4e3d4" target="_top" xlink:title=" ">
<polygon fill="white" stroke="black" points="400,-304.5 400,-323.5 438,-323.5 438,-304.5 400,-304.5"/>
<text text-anchor="middle" x="419" y="-311.5" font-family="Helvetica,sans-Serif" font-size="10.00">main</text>
</a>
</g>
</g>
<!-- Node22&#45;&gt;Node24 -->
<g id="edge10" class="edge">
<title>Node22&#45;&gt;Node24</title>
<path fill="none" stroke="midnightblue" d="M555.01,-283.91C519.46,-291.83 466.15,-303.72 438.35,-309.91"/>
<polygon fill="midnightblue" stroke="midnightblue" points="555.98,-287.28 564.97,-281.69 554.45,-280.45 555.98,-287.28"/>
</g>
<!-- Node25 -->
<g id="node11" class="node">
<title>Node25</title>
<g id="a_node11"><a xlink:href="ppppp__obs_8cpp.html#a3db2ffced7ab37c4874c3a53fcb7953e" target="_top" xlink:title=" ">
<polygon fill="white" stroke="red" points="31,-247.5 31,-266.5 97,-266.5 97,-247.5 31,-247.5"/>
<text text-anchor="middle" x="64" y="-254.5" font-family="Helvetica,sans-Serif" font-size="10.00">stationPPP</text>
</a>
</g>
</g>
<!-- Node22&#45;&gt;Node25 -->
<g id="edge11" class="edge">
<title>Node22&#45;&gt;Node25</title>
<path fill="none" stroke="midnightblue" d="M554.6,-274.7C457.34,-271.19 189.88,-261.52 97.15,-258.16"/>
<polygon fill="midnightblue" stroke="midnightblue" points="554.68,-278.21 564.8,-275.07 554.93,-271.21 554.68,-278.21"/>
</g>
<!-- Node27 -->
<g id="node12" class="node">
<title>Node27</title>
<g id="a_node12"><a xlink:href="ppppp__pseudoobs_8cpp.html#ab255260e2ca2e89c21d280174f5a5a0b" target="_top" xlink:title=" ">
<polygon fill="white" stroke="red" points="379.5,-190.5 379.5,-209.5 458.5,-209.5 458.5,-190.5 379.5,-190.5"/>
<text text-anchor="middle" x="419" y="-197.5" font-family="Helvetica,sans-Serif" font-size="10.00">stationPseudo</text>
</a>
</g>
</g>
<!-- Node22&#45;&gt;Node27 -->
<g id="edge12" class="edge">
<title>Node22&#45;&gt;Node27</title>
<path fill="none" stroke="midnightblue" d="M569.13,-260.13C551.02,-247.37 523.94,-229.83 498,-219 485.65,-213.84 471.6,-209.88 458.85,-206.95"/>
<polygon fill="midnightblue" stroke="midnightblue" points="567.56,-263.32 577.73,-266.31 571.65,-257.63 567.56,-263.32"/>
</g>
<!-- Node28 -->
<g id="node13" class="node">
<title>Node28</title>
<g id="a_node13"><a xlink:href="rtkcmn_8cpp.html#ac9a81e78329f3b0dafee87842d6c1027" target="_top" xlink:title="get sun and moon position in ecef">
<polygon fill="white" stroke="red" points="383,-228.5 383,-247.5 455,-247.5 455,-228.5 383,-228.5"/>
<text text-anchor="middle" x="419" y="-235.5" font-family="Helvetica,sans-Serif" font-size="10.00">sunmoonpos</text>
</a>
</g>
</g>
<!-- Node22&#45;&gt;Node28 -->
<g id="edge13" class="edge">
<title>Node22&#45;&gt;Node28</title>
<path fill="none" stroke="midnightblue" d="M555.16,-268.12C525.87,-261.59 484.44,-252.36 455.19,-245.84"/>
<polygon fill="midnightblue" stroke="midnightblue" points="554.45,-271.55 564.97,-270.31 555.98,-264.72 554.45,-271.55"/>
</g>
<!-- Node28&#45;&gt;Node61 -->
<g id="edge14" class="edge">
<title>Node28&#45;&gt;Node61</title>
<path fill="none" stroke="midnightblue" d="M372.48,-238C336.55,-238 287.85,-238 259.09,-238"/>
<polygon fill="midnightblue" stroke="midnightblue" points="372.72,-241.5 382.72,-238 372.72,-234.5 372.72,-241.5"/>
</g>
<!-- Node61&#45;&gt;Node25 -->
<g id="edge15" class="edge">
<title>Node61&#45;&gt;Node25</title>
<path fill="none" stroke="midnightblue" d="M198.99,-241.85C169.21,-245.21 126.26,-250.07 97.08,-253.37"/>
<polygon fill="midnightblue" stroke="midnightblue" points="199.39,-245.32 208.93,-240.72 198.6,-238.37 199.39,-245.32"/>
</g>
<!-- Node62&#45;&gt;Node15 -->
<g id="edge17" class="edge">
<title>Node62&#45;&gt;Node15</title>
<path fill="none" stroke="midnightblue" d="M537.45,-451.82C513.41,-457.18 485.37,-463.43 462.71,-468.48"/>
<polygon fill="midnightblue" stroke="midnightblue" points="538.48,-455.18 547.48,-449.59 536.95,-448.35 538.48,-455.18"/>
</g>
<!-- Node63 -->
<g id="node16" class="node">
<title>Node63</title>
<g id="a_node16"><a xlink:href="structRtcmDecoder.html#a2d3cb177d3e79308289e9b23b5c46bbc" target="_top" xlink:title=" ">
<polygon fill="white" stroke="red" points="350.5,-430.5 350.5,-449.5 487.5,-449.5 487.5,-430.5 350.5,-430.5"/>
<text text-anchor="middle" x="419" y="-437.5" font-family="Helvetica,sans-Serif" font-size="10.00">RtcmDecoder::traceLatency</text>
</a>
</g>
</g>
<!-- Node62&#45;&gt;Node63 -->
<g id="edge18" class="edge">
<title>Node62&#45;&gt;Node63</title>
<path fill="none" stroke="midnightblue" d="M523.54,-440C511.79,-440 499.55,-440 487.77,-440"/>
<polygon fill="midnightblue" stroke="midnightblue" points="523.73,-443.5 533.73,-440 523.73,-436.5 523.73,-443.5"/>
</g>
<!-- Node63&#45;&gt;Node21 -->
<g id="edge19" class="edge">
<title>Node63&#45;&gt;Node21</title>
<path fill="none" stroke="midnightblue" d="M340.37,-440C328.35,-440 316,-440 304.18,-440"/>
<polygon fill="midnightblue" stroke="midnightblue" points="340.38,-443.5 350.38,-440 340.38,-436.5 340.38,-443.5"/>
</g>
<!-- Node6 -->
<g id="node18" class="node">
<title>Node6</title>
<g id="a_node18"><a xlink:href="rinex_8cpp.html#a1ac3bfad9a214cd63300759aecadcb21" target="_top" xlink:title=" ">
<polygon fill="white" stroke="red" points="395,-114.5 395,-133.5 443,-133.5 443,-114.5 395,-114.5"/>
<text text-anchor="middle" x="419" y="-121.5" font-family="Helvetica,sans-Serif" font-size="10.00">readrnx</text>
</a>
</g>
</g>
<!-- Node65&#45;&gt;Node6 -->
<g id="edge21" class="edge">
<title>Node65&#45;&gt;Node6</title>
<path fill="none" stroke="midnightblue" d="M548.89,-124C515.64,-124 470.24,-124 443.15,-124"/>
<polygon fill="midnightblue" stroke="midnightblue" points="549.23,-127.5 559.23,-124 549.23,-120.5 549.23,-127.5"/>
</g>
<!-- Node67 -->
<g id="node20" class="node">
<title>Node67</title>
<g id="a_node20"><a xlink:href="structSP3Stream.html#a9cb52c380fbf42789ccdc2f3bfa7770e" target="_top" xlink:title=" ">
<polygon fill="white" stroke="red" points="362,-76.5 362,-95.5 476,-95.5 476,-76.5 362,-76.5"/>
<text text-anchor="middle" x="419" y="-83.5" font-family="Helvetica,sans-Serif" font-size="10.00">SP3Stream::parseSP3</text>
</a>
</g>
</g>
<!-- Node66&#45;&gt;Node67 -->
<g id="edge23" class="edge">
<title>Node66&#45;&gt;Node67</title>
<path fill="none" stroke="midnightblue" d="M555.47,-86C532.64,-86 502.35,-86 476.2,-86"/>
<polygon fill="midnightblue" stroke="midnightblue" points="555.71,-89.5 565.71,-86 555.71,-82.5 555.71,-89.5"/>
</g>
<!-- Node71 -->
<g id="node22" class="node">
<title>Node71</title>
<g id="a_node22"><a xlink:href="rinexNavWrite_8cpp.html#acfa075e8efad5e2ebce159dfb921a4bc" target="_top" xlink:title=" ">
<polygon fill="white" stroke="red" points="379,-38.5 379,-57.5 459,-57.5 459,-38.5 379,-38.5"/>
<text text-anchor="middle" x="419" y="-45.5" font-family="Helvetica,sans-Serif" font-size="10.00">writeRinexNav</text>
</a>
</g>
</g>
<!-- Node70&#45;&gt;Node71 -->
<g id="edge25" class="edge">
<title>Node70&#45;&gt;Node71</title>
<path fill="none" stroke="midnightblue" d="M538.11,-48C512.61,-48 482.48,-48 459.03,-48"/>
<polygon fill="midnightblue" stroke="midnightblue" points="538.35,-51.5 548.35,-48 538.35,-44.5 538.35,-51.5"/>
</g>
<!-- Node73 -->
<g id="node24" class="node">
<title>Node73</title>
<g id="a_node24"><a xlink:href="rinexObsWrite_8cpp.html#a97a38d95c36aa54b9bed32a5a46eae71" target="_top" xlink:title=" ">
<polygon fill="white" stroke="red" points="371.5,-0.5 371.5,-19.5 466.5,-19.5 466.5,-0.5 371.5,-0.5"/>
<text text-anchor="middle" x="419" y="-7.5" font-family="Helvetica,sans-Serif" font-size="10.00">writeRinexObsFile</text>
</a>
</g>
</g>
<!-- Node72&#45;&gt;Node73 -->
<g id="edge28" class="edge">
<title>Node72&#45;&gt;Node73</title>
<path fill="none" stroke="midnightblue" d="M525.55,-10C505.98,-10 484.9,-10 466.77,-10"/>
<polygon fill="midnightblue" stroke="midnightblue" points="525.61,-13.5 535.61,-10 525.61,-6.5 525.61,-13.5"/>
</g>
</g>
</svg>
