<?xml version="1.0" encoding="UTF-8" standalone="no"?>
<!DOCTYPE svg PUBLIC "-//W3C//DTD SVG 1.1//EN"
 "http://www.w3.org/Graphics/SVG/1.1/DTD/svg11.dtd">
<!-- Generated by graphviz version 2.50.0 (20220203.2022)
 -->
<!-- Title: gpst2utc Pages: 1 -->
<svg width="494pt" height="446pt"
 viewBox="0.00 0.00 494.00 446.00" xmlns="http://www.w3.org/2000/svg" xmlns:xlink="http://www.w3.org/1999/xlink">
<g id="graph0" class="graph" transform="scale(1 1) rotate(0) translate(4 442)">
<title>gpst2utc</title>
<polygon fill="white" stroke="transparent" points="-4,4 -4,-442 490,-442 490,4 -4,4"/>
<!-- Node1 -->
<g id="node1" class="node">
<title>Node1</title>
<g id="a_node1"><a xlink:title=" ">
<polygon fill="#bfbfbf" stroke="black" points="432,-228.5 432,-247.5 486,-247.5 486,-228.5 432,-228.5"/>
<text text-anchor="middle" x="459" y="-235.5" font-family="Helvetica,sans-Serif" font-size="10.00">gpst2utc</text>
</a>
</g>
</g>
<!-- Node2 -->
<g id="node2" class="node">
<title>Node2</title>
<g id="a_node2"><a xlink:href="brdc2sp3__main_8cpp.html#a4d3471358091d3a4ea528b47af119710" target="_top" xlink:title=" ">
<polygon fill="white" stroke="black" points="305,-418.5 305,-437.5 378,-437.5 378,-418.5 305,-418.5"/>
<text text-anchor="middle" x="341.5" y="-425.5" font-family="Helvetica,sans-Serif" font-size="10.00">BS_satantoff</text>
</a>
</g>
</g>
<!-- Node1&#45;&gt;Node2 -->
<g id="edge1" class="edge">
<title>Node1&#45;&gt;Node2</title>
<path fill="none" stroke="midnightblue" d="M456.22,-258.04C452.04,-293.34 438.47,-366.81 396,-409 391.04,-413.93 384.71,-417.59 378.16,-420.3"/>
<polygon fill="midnightblue" stroke="midnightblue" points="459.75,-257.95 457.31,-247.64 452.79,-257.22 459.75,-257.95"/>
</g>
<!-- Node3 -->
<g id="node3" class="node">
<title>Node3</title>
<g id="a_node3"><a xlink:href="erp_8cpp.html#a3426e4aadb744b593070c3c185c8141e" target="_top" xlink:title="Get earth rotation parameter values.">
<polygon fill="white" stroke="black" points="319.5,-380.5 319.5,-399.5 363.5,-399.5 363.5,-380.5 319.5,-380.5"/>
<text text-anchor="middle" x="341.5" y="-387.5" font-family="Helvetica,sans-Serif" font-size="10.00">geterp</text>
</a>
</g>
</g>
<!-- Node1&#45;&gt;Node3 -->
<g id="edge2" class="edge">
<title>Node1&#45;&gt;Node3</title>
<path fill="none" stroke="midnightblue" d="M453.94,-257.58C446.98,-286.35 430.11,-339.98 396,-371 387.03,-379.16 374.33,-383.86 363.55,-386.55"/>
<polygon fill="midnightblue" stroke="midnightblue" points="457.41,-258.07 456.2,-247.55 450.58,-256.53 457.41,-258.07"/>
</g>
<!-- Node4 -->
<g id="node4" class="node">
<title>Node4</title>
<g id="a_node4"><a xlink:href="gTime_8cpp.html#a8170f12d60a7f1e8ed3463383f3b6f1a" target="_top" xlink:title=" ">
<polygon fill="white" stroke="black" points="313.5,-342.5 313.5,-361.5 369.5,-361.5 369.5,-342.5 313.5,-342.5"/>
<text text-anchor="middle" x="341.5" y="-349.5" font-family="Helvetica,sans-Serif" font-size="10.00">gpst2mjd</text>
</a>
</g>
</g>
<!-- Node1&#45;&gt;Node4 -->
<g id="edge3" class="edge">
<title>Node1&#45;&gt;Node4</title>
<path fill="none" stroke="midnightblue" d="M450.2,-256.86C440.48,-278.19 421.93,-312.58 396,-333 388.33,-339.04 378.59,-343.24 369.53,-346.14"/>
<polygon fill="midnightblue" stroke="midnightblue" points="453.47,-258.13 454.26,-247.56 447.05,-255.33 453.47,-258.13"/>
</g>
<!-- Node8 -->
<g id="node6" class="node">
<title>Node8</title>
<g id="a_node6"><a xlink:href="ionoSpherical_8cpp.html#a32460ecb229f47f08516ff7a35f45f47" target="_top" xlink:title=" ">
<polygon fill="white" stroke="black" points="293.5,-304.5 293.5,-323.5 389.5,-323.5 389.5,-304.5 293.5,-304.5"/>
<text text-anchor="middle" x="341.5" y="-311.5" font-family="Helvetica,sans-Serif" font-size="10.00">Ipp_check_sphhar</text>
</a>
</g>
</g>
<!-- Node1&#45;&gt;Node8 -->
<g id="edge5" class="edge">
<title>Node1&#45;&gt;Node8</title>
<path fill="none" stroke="midnightblue" d="M442.83,-255.27C431.09,-267.75 413.88,-284.23 396,-295 389.84,-298.71 382.84,-301.85 375.98,-304.45"/>
<polygon fill="midnightblue" stroke="midnightblue" points="445.54,-257.5 449.7,-247.76 440.37,-252.78 445.54,-257.5"/>
</g>
<!-- Node18 -->
<g id="node9" class="node">
<title>Node18</title>
<g id="a_node9"><a xlink:href="rinexNavWrite_8cpp.html#a7740f536df7f89a2483312817d815269" target="_top" xlink:title=" ">
<polygon fill="white" stroke="black" points="287,-266.5 287,-285.5 396,-285.5 396,-266.5 287,-266.5"/>
<text text-anchor="middle" x="341.5" y="-273.5" font-family="Helvetica,sans-Serif" font-size="10.00">outputNavRinexGeph</text>
</a>
</g>
</g>
<!-- Node1&#45;&gt;Node18 -->
<g id="edge8" class="edge">
<title>Node1&#45;&gt;Node18</title>
<path fill="none" stroke="midnightblue" d="M422.06,-249.82C405.78,-255.18 386.79,-261.43 371.44,-266.48"/>
<polygon fill="midnightblue" stroke="midnightblue" points="423.39,-253.07 431.79,-246.62 421.2,-246.42 423.39,-253.07"/>
</g>
<!-- Node21 -->
<g id="node11" class="node">
<title>Node21</title>
<g id="a_node11"><a xlink:href="ppp__network_8cpp.html#a58f075aaa941ce20e727a84401270780" target="_top" xlink:title=" ">
<polygon fill="white" stroke="black" points="316,-228.5 316,-247.5 367,-247.5 367,-228.5 316,-228.5"/>
<text text-anchor="middle" x="341.5" y="-235.5" font-family="Helvetica,sans-Serif" font-size="10.00">pppomc</text>
</a>
</g>
</g>
<!-- Node1&#45;&gt;Node21 -->
<g id="edge10" class="edge">
<title>Node1&#45;&gt;Node21</title>
<path fill="none" stroke="midnightblue" d="M421.73,-238C403.92,-238 382.93,-238 367.03,-238"/>
<polygon fill="midnightblue" stroke="midnightblue" points="421.79,-241.5 431.79,-238 421.79,-234.5 421.79,-241.5"/>
</g>
<!-- Node22 -->
<g id="node13" class="node">
<title>Node22</title>
<g id="a_node13"><a xlink:href="ppp__user_8cpp.html#aad22d0ff0d06af12ea66aefd09d89af3" target="_top" xlink:title=" ">
<polygon fill="white" stroke="black" points="320,-190.5 320,-209.5 363,-209.5 363,-190.5 320,-190.5"/>
<text text-anchor="middle" x="341.5" y="-197.5" font-family="Helvetica,sans-Serif" font-size="10.00">pppos</text>
</a>
</g>
</g>
<!-- Node1&#45;&gt;Node22 -->
<g id="edge12" class="edge">
<title>Node1&#45;&gt;Node22</title>
<path fill="none" stroke="midnightblue" d="M422.08,-226.18C402.74,-219.82 379.56,-212.19 363.22,-206.82"/>
<polygon fill="midnightblue" stroke="midnightblue" points="421.2,-229.58 431.79,-229.38 423.39,-222.93 421.2,-229.58"/>
</g>
<!-- Node23 -->
<g id="node14" class="node">
<title>Node23</title>
<g id="a_node14"><a xlink:href="ppp_8cpp.html#a6053b3464076332d20cdebf306bbcf86" target="_top" xlink:title="Satellite attitude model.">
<polygon fill="white" stroke="black" points="315,-114.5 315,-133.5 368,-133.5 368,-114.5 315,-114.5"/>
<text text-anchor="middle" x="341.5" y="-121.5" font-family="Helvetica,sans-Serif" font-size="10.00">sat_yaw</text>
</a>
</g>
</g>
<!-- Node1&#45;&gt;Node23 -->
<g id="edge14" class="edge">
<title>Node1&#45;&gt;Node23</title>
<path fill="none" stroke="midnightblue" d="M450.2,-219.14C440.48,-197.81 421.93,-163.42 396,-143 387.95,-136.66 377.61,-132.33 368.17,-129.43"/>
<polygon fill="midnightblue" stroke="midnightblue" points="447.05,-220.67 454.26,-228.44 453.47,-217.87 447.05,-220.67"/>
</g>
<!-- Node28 -->
<g id="node16" class="node">
<title>Node28</title>
<g id="a_node16"><a xlink:href="ppppp__obs_8cpp.html#a3db2ffced7ab37c4874c3a53fcb7953e" target="_top" xlink:title=" ">
<polygon fill="white" stroke="red" points="0,-76.5 0,-95.5 66,-95.5 66,-76.5 0,-76.5"/>
<text text-anchor="middle" x="33" y="-83.5" font-family="Helvetica,sans-Serif" font-size="10.00">stationPPP</text>
</a>
</g>
</g>
<!-- Node1&#45;&gt;Node28 -->
<g id="edge20" class="edge">
<title>Node1&#45;&gt;Node28</title>
<path fill="none" stroke="midnightblue" d="M455.23,-218.36C449.81,-188.18 434.76,-131.15 396,-105 342.79,-69.1 144.51,-78.35 66.15,-83.59"/>
<polygon fill="midnightblue" stroke="midnightblue" points="451.81,-219.17 456.86,-228.49 458.72,-218.06 451.81,-219.17"/>
</g>
<!-- Node29 -->
<g id="node17" class="node">
<title>Node29</title>
<g id="a_node17"><a xlink:href="preceph_8cpp.html#a1e3783257a7c3cce97cf6c8064bdb335" target="_top" xlink:title=" ">
<polygon fill="white" stroke="black" points="314.5,-38.5 314.5,-57.5 368.5,-57.5 368.5,-38.5 314.5,-38.5"/>
<text text-anchor="middle" x="341.5" y="-45.5" font-family="Helvetica,sans-Serif" font-size="10.00">satantoff</text>
</a>
</g>
</g>
<!-- Node1&#45;&gt;Node29 -->
<g id="edge17" class="edge">
<title>Node1&#45;&gt;Node29</title>
<path fill="none" stroke="midnightblue" d="M455.63,-218.38C450.56,-184.44 435.7,-114.34 396,-72 388.69,-64.2 378.37,-58.76 368.75,-55.06"/>
<polygon fill="midnightblue" stroke="midnightblue" points="452.18,-218.98 456.99,-228.41 459.11,-218.03 452.18,-218.98"/>
</g>
<!-- Node42 -->
<g id="node19" class="node">
<title>Node42</title>
<g id="a_node19"><a xlink:href="ppp_8cpp.html#ad3feecafa11a2ea6ce4db54fba1b5a24" target="_top" xlink:title="exclude meas of eclipsing satellite (block IIA)">
<polygon fill="white" stroke="black" points="309.5,-152.5 309.5,-171.5 373.5,-171.5 373.5,-152.5 309.5,-152.5"/>
<text text-anchor="middle" x="341.5" y="-159.5" font-family="Helvetica,sans-Serif" font-size="10.00">testeclipse</text>
</a>
</g>
</g>
<!-- Node1&#45;&gt;Node42 -->
<g id="edge21" class="edge">
<title>Node1&#45;&gt;Node42</title>
<path fill="none" stroke="midnightblue" d="M442.83,-220.73C431.09,-208.25 413.88,-191.77 396,-181 389.16,-176.88 381.29,-173.46 373.73,-170.72"/>
<polygon fill="midnightblue" stroke="midnightblue" points="440.37,-223.22 449.7,-228.24 445.54,-218.5 440.37,-223.22"/>
</g>
<!-- Node5 -->
<g id="node5" class="node">
<title>Node5</title>
<g id="a_node5"><a xlink:href="forceModels_8cpp.html#adc8a87f58bb4e50044b472ffb013e651" target="_top" xlink:title="ODE of variational equation to be solved, i.e.">
<polygon fill="white" stroke="red" points="140.5,-361.5 140.5,-380.5 212.5,-380.5 212.5,-361.5 140.5,-361.5"/>
<text text-anchor="middle" x="176.5" y="-368.5" font-family="Helvetica,sans-Serif" font-size="10.00">updateOrbits</text>
</a>
</g>
</g>
<!-- Node4&#45;&gt;Node5 -->
<g id="edge4" class="edge">
<title>Node4&#45;&gt;Node5</title>
<path fill="none" stroke="midnightblue" d="M303.28,-356.34C276.03,-359.52 239.29,-363.8 212.56,-366.91"/>
<polygon fill="midnightblue" stroke="midnightblue" points="303.69,-359.81 313.22,-355.18 302.88,-352.86 303.69,-359.81"/>
</g>
<!-- Node9 -->
<g id="node7" class="node">
<title>Node9</title>
<g id="a_node7"><a xlink:href="ionoSpherical_8cpp.html#a282feb5c6b09fd90879de5cddaa123bc" target="_top" xlink:title=" ">
<polygon fill="white" stroke="red" points="132.5,-323.5 132.5,-342.5 220.5,-342.5 220.5,-323.5 132.5,-323.5"/>
<text text-anchor="middle" x="176.5" y="-330.5" font-family="Helvetica,sans-Serif" font-size="10.00">ion_vtec_sphhar</text>
</a>
</g>
</g>
<!-- Node8&#45;&gt;Node9 -->
<g id="edge6" class="edge">
<title>Node8&#45;&gt;Node9</title>
<path fill="none" stroke="midnightblue" d="M283.16,-320.68C262.6,-323.08 239.79,-325.74 220.64,-327.97"/>
<polygon fill="midnightblue" stroke="midnightblue" points="283.83,-324.13 293.35,-319.5 283.02,-317.18 283.83,-324.13"/>
</g>
<!-- Node15 -->
<g id="node8" class="node">
<title>Node15</title>
<g id="a_node8"><a xlink:href="ionoMeas_8cpp.html#a6dc09994e73227556cf4b42233b9ff77" target="_top" xlink:title=" ">
<polygon fill="white" stroke="red" points="140.5,-285.5 140.5,-304.5 212.5,-304.5 212.5,-285.5 140.5,-285.5"/>
<text text-anchor="middle" x="176.5" y="-292.5" font-family="Helvetica,sans-Serif" font-size="10.00">Ipp_in_range</text>
</a>
</g>
</g>
<!-- Node8&#45;&gt;Node15 -->
<g id="edge7" class="edge">
<title>Node8&#45;&gt;Node15</title>
<path fill="none" stroke="midnightblue" d="M283.14,-307.31C259.63,-304.57 233.18,-301.49 212.63,-299.09"/>
<polygon fill="midnightblue" stroke="midnightblue" points="283.02,-310.82 293.35,-308.5 283.83,-303.87 283.02,-310.82"/>
</g>
<!-- Node19 -->
<g id="node10" class="node">
<title>Node19</title>
<g id="a_node10"><a xlink:href="rinexNavWrite_8cpp.html#adcdc6b6fa739eb37d934e1cc51f45d5a" target="_top" xlink:title=" ">
<polygon fill="white" stroke="red" points="123,-247.5 123,-266.5 230,-266.5 230,-247.5 123,-247.5"/>
<text text-anchor="middle" x="176.5" y="-254.5" font-family="Helvetica,sans-Serif" font-size="10.00">outputNavRinexBody</text>
</a>
</g>
</g>
<!-- Node18&#45;&gt;Node19 -->
<g id="edge9" class="edge">
<title>Node18&#45;&gt;Node19</title>
<path fill="none" stroke="midnightblue" d="M276.7,-268.56C261.29,-266.77 244.99,-264.87 230.16,-263.14"/>
<polygon fill="midnightblue" stroke="midnightblue" points="276.34,-272.04 286.68,-269.73 277.15,-265.09 276.34,-272.04"/>
</g>
<!-- Node17 -->
<g id="node12" class="node">
<title>Node17</title>
<g id="a_node12"><a xlink:href="main_8cpp.html#a7e63aa887c069bdb77cd28a88ad18562" target="_top" xlink:title="Perform operations for each station This function occurs in parallel with other stations &#45; ensure tha...">
<polygon fill="white" stroke="red" points="102,-190.5 102,-209.5 251,-209.5 251,-190.5 102,-190.5"/>
<text text-anchor="middle" x="176.5" y="-197.5" font-family="Helvetica,sans-Serif" font-size="10.00">mainOncePerEpochPerStation</text>
</a>
</g>
</g>
<!-- Node21&#45;&gt;Node17 -->
<g id="edge11" class="edge">
<title>Node21&#45;&gt;Node17</title>
<path fill="none" stroke="midnightblue" d="M305.74,-229.9C280.16,-223.93 245.29,-215.8 218.37,-209.53"/>
<polygon fill="midnightblue" stroke="midnightblue" points="305.21,-233.37 315.74,-232.23 306.8,-226.55 305.21,-233.37"/>
</g>
<!-- Node22&#45;&gt;Node17 -->
<g id="edge13" class="edge">
<title>Node22&#45;&gt;Node17</title>
<path fill="none" stroke="midnightblue" d="M309.65,-200C293.02,-200 271.71,-200 251.09,-200"/>
<polygon fill="midnightblue" stroke="midnightblue" points="309.86,-203.5 319.86,-200 309.86,-196.5 309.86,-203.5"/>
</g>
<!-- Node24 -->
<g id="node15" class="node">
<title>Node24</title>
<g id="a_node15"><a xlink:href="ppp_8cpp.html#a16577502bd03c2d743d118a6993420d5" target="_top" xlink:title="phase windup model">
<polygon fill="white" stroke="red" points="143.5,-114.5 143.5,-133.5 209.5,-133.5 209.5,-114.5 143.5,-114.5"/>
<text text-anchor="middle" x="176.5" y="-121.5" font-family="Helvetica,sans-Serif" font-size="10.00">model_phw</text>
</a>
</g>
</g>
<!-- Node23&#45;&gt;Node24 -->
<g id="edge15" class="edge">
<title>Node23&#45;&gt;Node24</title>
<path fill="none" stroke="midnightblue" d="M304.38,-124C276.03,-124 236.93,-124 209.65,-124"/>
<polygon fill="midnightblue" stroke="midnightblue" points="304.67,-127.5 314.67,-124 304.67,-120.5 304.67,-127.5"/>
</g>
<!-- Node24&#45;&gt;Node28 -->
<g id="edge16" class="edge">
<title>Node24&#45;&gt;Node28</title>
<path fill="none" stroke="midnightblue" d="M133.56,-112.74C112.11,-106.98 86.39,-100.07 66.47,-94.72"/>
<polygon fill="midnightblue" stroke="midnightblue" points="132.83,-116.16 143.39,-115.38 134.64,-109.4 132.83,-116.16"/>
</g>
<!-- Node29&#45;&gt;Node28 -->
<g id="edge19" class="edge">
<title>Node29&#45;&gt;Node28</title>
<path fill="none" stroke="midnightblue" d="M304.01,-50.5C257.09,-53.98 173.18,-61.12 102,-72 90.2,-73.8 77.36,-76.31 66.05,-78.7"/>
<polygon fill="midnightblue" stroke="midnightblue" points="304.55,-53.97 314.27,-49.75 304.05,-46.99 304.55,-53.97"/>
</g>
<!-- Node30 -->
<g id="node18" class="node">
<title>Node30</title>
<g id="a_node18"><a xlink:href="ephemeris_8cpp.html#a8d3c308314354139cf1e890cdf6bead2" target="_top" xlink:title=" ">
<polygon fill="white" stroke="red" points="153.5,-0.5 153.5,-19.5 199.5,-19.5 199.5,-0.5 153.5,-0.5"/>
<text text-anchor="middle" x="176.5" y="-7.5" font-family="Helvetica,sans-Serif" font-size="10.00">satpos</text>
</a>
</g>
</g>
<!-- Node29&#45;&gt;Node30 -->
<g id="edge18" class="edge">
<title>Node29&#45;&gt;Node30</title>
<path fill="none" stroke="midnightblue" d="M304.44,-39.59C272.41,-32.13 226.63,-21.45 199.7,-15.17"/>
<polygon fill="midnightblue" stroke="midnightblue" points="303.78,-43.03 314.31,-41.89 305.37,-36.22 303.78,-43.03"/>
</g>
<!-- Node42&#45;&gt;Node17 -->
<g id="edge22" class="edge">
<title>Node42&#45;&gt;Node17</title>
<path fill="none" stroke="midnightblue" d="M299.61,-171.53C274.75,-177.33 243.13,-184.7 218.3,-190.49"/>
<polygon fill="midnightblue" stroke="midnightblue" points="300.51,-174.92 309.46,-169.24 298.92,-168.1 300.51,-174.92"/>
</g>
</g>
</svg>
