<?xml version="1.0" encoding="UTF-8" standalone="no"?>
<!DOCTYPE svg PUBLIC "-//W3C//DTD SVG 1.1//EN"
 "http://www.w3.org/Graphics/SVG/1.1/DTD/svg11.dtd">
<!-- Generated by graphviz version 2.50.0 (20220203.2022)
 -->
<!-- Title: time2doy Pages: 1 -->
<svg width="267pt" height="104pt"
 viewBox="0.00 0.00 267.00 104.00" xmlns="http://www.w3.org/2000/svg" xmlns:xlink="http://www.w3.org/1999/xlink">
<g id="graph0" class="graph" transform="scale(1 1) rotate(0) translate(4 100)">
<title>time2doy</title>
<polygon fill="white" stroke="transparent" points="-4,4 -4,-100 263,-100 263,4 -4,4"/>
<!-- Node1 -->
<g id="node1" class="node">
<title>Node1</title>
<g id="a_node1"><a xlink:title=" ">
<polygon fill="#bfbfbf" stroke="black" points="203,-57.5 203,-76.5 259,-76.5 259,-57.5 203,-57.5"/>
<text text-anchor="middle" x="231" y="-64.5" font-family="Helvetica,sans-Serif" font-size="10.00">time2doy</text>
</a>
</g>
</g>
<!-- Node2 -->
<g id="node2" class="node">
<title>Node2</title>
<g id="a_node2"><a xlink:href="corrections_8cpp.html#a2ea2641272a527a2a8f0ba726b99ccb1" target="_top" xlink:title=" ">
<polygon fill="white" stroke="black" points="118,-76.5 118,-95.5 151,-95.5 151,-76.5 118,-76.5"/>
<text text-anchor="middle" x="134.5" y="-83.5" font-family="Helvetica,sans-Serif" font-size="10.00">nmf</text>
</a>
</g>
</g>
<!-- Node1&#45;&gt;Node2 -->
<g id="edge1" class="edge">
<title>Node1&#45;&gt;Node2</title>
<path fill="none" stroke="midnightblue" d="M193.1,-74.42C178.5,-77.36 162.5,-80.57 151.08,-82.87"/>
<polygon fill="midnightblue" stroke="midnightblue" points="193.81,-77.85 202.92,-72.44 192.43,-70.98 193.81,-77.85"/>
</g>
<!-- Node11 -->
<g id="node4" class="node">
<title>Node11</title>
<g id="a_node4"><a xlink:href="ppp_8cpp.html#ac69b900e214bc27892a8c55b60a872a0" target="_top" xlink:title=" ">
<polygon fill="white" stroke="black" points="102,-38.5 102,-57.5 167,-57.5 167,-38.5 102,-38.5"/>
<text text-anchor="middle" x="134.5" y="-45.5" font-family="Helvetica,sans-Serif" font-size="10.00">sbstropcorr</text>
</a>
</g>
</g>
<!-- Node1&#45;&gt;Node11 -->
<g id="edge3" class="edge">
<title>Node1&#45;&gt;Node11</title>
<path fill="none" stroke="midnightblue" d="M192.89,-59.54C184.42,-57.83 175.49,-56.04 167.26,-54.39"/>
<polygon fill="midnightblue" stroke="midnightblue" points="192.43,-63.02 202.92,-61.56 193.81,-56.15 192.43,-63.02"/>
</g>
<!-- Node3 -->
<g id="node3" class="node">
<title>Node3</title>
<g id="a_node3"><a xlink:href="corrections_8cpp.html#a096faf67cb27faed3c82bca26464a159" target="_top" xlink:title=" ">
<polygon fill="white" stroke="red" points="5.5,-76.5 5.5,-95.5 60.5,-95.5 60.5,-76.5 5.5,-76.5"/>
<text text-anchor="middle" x="33" y="-83.5" font-family="Helvetica,sans-Serif" font-size="10.00">tropmapf</text>
</a>
</g>
</g>
<!-- Node2&#45;&gt;Node3 -->
<g id="edge2" class="edge">
<title>Node2&#45;&gt;Node3</title>
<path fill="none" stroke="midnightblue" d="M107.71,-86C93.25,-86 75.26,-86 60.66,-86"/>
<polygon fill="midnightblue" stroke="midnightblue" points="107.95,-89.5 117.95,-86 107.95,-82.5 107.95,-89.5"/>
</g>
<!-- Node5 -->
<g id="node5" class="node">
<title>Node5</title>
<g id="a_node5"><a xlink:href="ppp__user_8cpp.html#a6840432dd58d1e58178b15080b92bdd8" target="_top" xlink:title=" ">
<polygon fill="white" stroke="red" points="5,-38.5 5,-57.5 61,-57.5 61,-38.5 5,-38.5"/>
<text text-anchor="middle" x="33" y="-45.5" font-family="Helvetica,sans-Serif" font-size="10.00">ppp_filter</text>
</a>
</g>
</g>
<!-- Node11&#45;&gt;Node5 -->
<g id="edge4" class="edge">
<title>Node11&#45;&gt;Node5</title>
<path fill="none" stroke="midnightblue" d="M91.64,-48C81.32,-48 70.53,-48 61.11,-48"/>
<polygon fill="midnightblue" stroke="midnightblue" points="91.74,-51.5 101.74,-48 91.74,-44.5 91.74,-51.5"/>
</g>
<!-- Node9 -->
<g id="node6" class="node">
<title>Node9</title>
<g id="a_node6"><a xlink:href="ppppp__obs_8cpp.html#a3db2ffced7ab37c4874c3a53fcb7953e" target="_top" xlink:title=" ">
<polygon fill="white" stroke="red" points="0,-0.5 0,-19.5 66,-19.5 66,-0.5 0,-0.5"/>
<text text-anchor="middle" x="33" y="-7.5" font-family="Helvetica,sans-Serif" font-size="10.00">stationPPP</text>
</a>
</g>
</g>
<!-- Node11&#45;&gt;Node9 -->
<g id="edge5" class="edge">
<title>Node11&#45;&gt;Node9</title>
<path fill="none" stroke="midnightblue" d="M98.77,-34.74C85.71,-29.75 71.12,-24.18 59.1,-19.59"/>
<polygon fill="midnightblue" stroke="midnightblue" points="97.8,-38.11 108.39,-38.41 100.3,-31.57 97.8,-38.11"/>
</g>
</g>
</svg>
