<?xml version="1.0" encoding="UTF-8" standalone="no"?>
<!DOCTYPE svg PUBLIC "-//W3C//DTD SVG 1.1//EN"
 "http://www.w3.org/Graphics/SVG/1.1/DTD/svg11.dtd">
<!-- Generated by graphviz version 2.50.0 (20220203.2022)
 -->
<!-- Title: iers_cmp_2015 Pages: 1 -->
<svg width="366pt" height="142pt"
 viewBox="0.00 0.00 366.00 142.00" xmlns="http://www.w3.org/2000/svg" xmlns:xlink="http://www.w3.org/1999/xlink">
<g id="graph0" class="graph" transform="scale(1 1) rotate(0) translate(4 138)">
<title>iers_cmp_2015</title>
<polygon fill="white" stroke="transparent" points="-4,4 -4,-138 362,-138 362,4 -4,4"/>
<!-- Node1 -->
<g id="node1" class="node">
<title>Node1</title>
<g id="a_node1"><a xlink:title=" ">
<polygon fill="#bfbfbf" stroke="black" points="275,-76.5 275,-95.5 358,-95.5 358,-76.5 275,-76.5"/>
<text text-anchor="middle" x="316.5" y="-83.5" font-family="Helvetica,sans-Serif" font-size="10.00">iers_cmp_2015</text>
</a>
</g>
</g>
<!-- Node2 -->
<g id="node2" class="node">
<title>Node2</title>
<g id="a_node2"><a xlink:href="namespacem__gfc3.html#a59f4ebb47172a72ea3e1785e765ad89c" target="_top" xlink:title=" ">
<polygon fill="white" stroke="black" points="146,-114.5 146,-133.5 239,-133.5 239,-114.5 146,-114.5"/>
<text text-anchor="middle" x="192.5" y="-121.5" font-family="Helvetica,sans-Serif" font-size="10.00">m_gfc3::gfc3_iers</text>
</a>
</g>
</g>
<!-- Node1&#45;&gt;Node2 -->
<g id="edge1" class="edge">
<title>Node1&#45;&gt;Node2</title>
<path fill="none" stroke="midnightblue" d="M274.79,-98.68C258.3,-103.81 239.59,-109.64 224.28,-114.41"/>
<polygon fill="midnightblue" stroke="midnightblue" points="276.21,-101.9 284.71,-95.59 274.13,-95.22 276.21,-101.9"/>
</g>
<!-- Node5 -->
<g id="node4" class="node">
<title>Node5</title>
<g id="a_node4"><a xlink:href="tide__pole__oc_8f90.html#ac65b276bb335236d9760f2e74a262793" target="_top" xlink:title=" ">
<polygon fill="white" stroke="black" points="157,-38.5 157,-57.5 228,-57.5 228,-38.5 157,-38.5"/>
<text text-anchor="middle" x="192.5" y="-45.5" font-family="Helvetica,sans-Serif" font-size="10.00">tide_pole_oc</text>
</a>
</g>
</g>
<!-- Node1&#45;&gt;Node5 -->
<g id="edge3" class="edge">
<title>Node1&#45;&gt;Node5</title>
<path fill="none" stroke="midnightblue" d="M274.79,-73.32C258.3,-68.19 239.59,-62.36 224.28,-57.59"/>
<polygon fill="midnightblue" stroke="midnightblue" points="274.13,-76.78 284.71,-76.41 276.21,-70.1 274.13,-76.78"/>
</g>
<!-- Node18 -->
<g id="node8" class="node">
<title>Node18</title>
<g id="a_node8"><a xlink:href="tide__pole__se_8f90.html#aa070dac97310c40a3875f8aca0ad336f" target="_top" xlink:title=" ">
<polygon fill="white" stroke="black" points="157,-76.5 157,-95.5 228,-95.5 228,-76.5 157,-76.5"/>
<text text-anchor="middle" x="192.5" y="-83.5" font-family="Helvetica,sans-Serif" font-size="10.00">tide_pole_se</text>
</a>
</g>
</g>
<!-- Node1&#45;&gt;Node18 -->
<g id="edge7" class="edge">
<title>Node1&#45;&gt;Node18</title>
<path fill="none" stroke="midnightblue" d="M264.73,-86C252.45,-86 239.59,-86 228.23,-86"/>
<polygon fill="midnightblue" stroke="midnightblue" points="264.88,-89.5 274.88,-86 264.88,-82.5 264.88,-89.5"/>
</g>
<!-- Node3 -->
<g id="node3" class="node">
<title>Node3</title>
<g id="a_node3"><a xlink:href="prm__gravity_8f95.html#a848806584d31d30a5b91d756d71d468e" target="_top" xlink:title=" ">
<polygon fill="white" stroke="red" points="21.5,-114.5 21.5,-133.5 88.5,-133.5 88.5,-114.5 21.5,-114.5"/>
<text text-anchor="middle" x="55" y="-121.5" font-family="Helvetica,sans-Serif" font-size="10.00">prm_gravity</text>
</a>
</g>
</g>
<!-- Node2&#45;&gt;Node3 -->
<g id="edge2" class="edge">
<title>Node2&#45;&gt;Node3</title>
<path fill="none" stroke="midnightblue" d="M135.32,-124C119.4,-124 102.59,-124 88.56,-124"/>
<polygon fill="midnightblue" stroke="midnightblue" points="135.63,-127.5 145.63,-124 135.63,-120.5 135.63,-127.5"/>
</g>
<!-- Node6 -->
<g id="node5" class="node">
<title>Node6</title>
<g id="a_node5"><a xlink:href="force__sum_8f95.html#a757e2ccbe362bf3b01a51e2c0431a490" target="_top" xlink:title=" ">
<polygon fill="white" stroke="red" points="24,-76.5 24,-95.5 86,-95.5 86,-76.5 24,-76.5"/>
<text text-anchor="middle" x="55" y="-83.5" font-family="Helvetica,sans-Serif" font-size="10.00">force_sum</text>
</a>
</g>
</g>
<!-- Node5&#45;&gt;Node6 -->
<g id="edge4" class="edge">
<title>Node5&#45;&gt;Node6</title>
<path fill="none" stroke="midnightblue" d="M147.44,-60.36C127.34,-65.99 104.07,-72.52 86.03,-77.58"/>
<polygon fill="midnightblue" stroke="midnightblue" points="148.62,-63.66 157.31,-57.59 146.73,-56.92 148.62,-63.66"/>
</g>
<!-- Node14 -->
<g id="node6" class="node">
<title>Node14</title>
<g id="a_node6"><a xlink:href="namespacem__pd__force.html#a942ea044856d62ee03ee7623436bc97e" target="_top" xlink:title=" ">
<polygon fill="white" stroke="red" points="0,-38.5 0,-57.5 110,-57.5 110,-38.5 0,-38.5"/>
<text text-anchor="middle" x="55" y="-45.5" font-family="Helvetica,sans-Serif" font-size="10.00">m_pd_force::pd_force</text>
</a>
</g>
</g>
<!-- Node5&#45;&gt;Node14 -->
<g id="edge5" class="edge">
<title>Node5&#45;&gt;Node14</title>
<path fill="none" stroke="midnightblue" d="M146.96,-48C135.22,-48 122.42,-48 110.23,-48"/>
<polygon fill="midnightblue" stroke="midnightblue" points="146.96,-51.5 156.96,-48 146.96,-44.5 146.96,-51.5"/>
</g>
<!-- Node17 -->
<g id="node7" class="node">
<title>Node17</title>
<g id="a_node7"><a xlink:href="pd__forceZ_8f95.html#abdd0ae4a7eb5f80ef45608c877df1a5e" target="_top" xlink:title=" ">
<polygon fill="white" stroke="black" points="25.5,-0.5 25.5,-19.5 84.5,-19.5 84.5,-0.5 25.5,-0.5"/>
<text text-anchor="middle" x="55" y="-7.5" font-family="Helvetica,sans-Serif" font-size="10.00">pd_forcez</text>
</a>
</g>
</g>
<!-- Node5&#45;&gt;Node17 -->
<g id="edge6" class="edge">
<title>Node5&#45;&gt;Node17</title>
<path fill="none" stroke="midnightblue" d="M147.5,-35.66C126.89,-29.88 102.92,-23.16 84.68,-18.04"/>
<polygon fill="midnightblue" stroke="midnightblue" points="146.73,-39.08 157.31,-38.41 148.62,-32.34 146.73,-39.08"/>
</g>
<!-- Node18&#45;&gt;Node6 -->
<g id="edge8" class="edge">
<title>Node18&#45;&gt;Node6</title>
<path fill="none" stroke="midnightblue" d="M146.89,-86C127.03,-86 104.16,-86 86.33,-86"/>
<polygon fill="midnightblue" stroke="midnightblue" points="146.96,-89.5 156.96,-86 146.96,-82.5 146.96,-89.5"/>
</g>
<!-- Node18&#45;&gt;Node14 -->
<g id="edge9" class="edge">
<title>Node18&#45;&gt;Node14</title>
<path fill="none" stroke="midnightblue" d="M147.58,-73.68C128.96,-68.46 107.59,-62.47 90.18,-57.59"/>
<polygon fill="midnightblue" stroke="midnightblue" points="146.73,-77.08 157.31,-76.41 148.62,-70.34 146.73,-77.08"/>
</g>
<!-- Node18&#45;&gt;Node17 -->
<g id="edge10" class="edge">
<title>Node18&#45;&gt;Node17</title>
<path fill="none" stroke="midnightblue" d="M154.03,-71.88C151.24,-70.37 148.53,-68.74 146,-67 126.85,-53.79 129.52,-41.66 110,-29 102.33,-24.02 93.2,-20.17 84.65,-17.28"/>
<polygon fill="midnightblue" stroke="midnightblue" points="152.59,-75.07 163.11,-76.3 155.65,-68.78 152.59,-75.07"/>
</g>
</g>
</svg>
