<?xml version="1.0" encoding="UTF-8" standalone="no"?>
<!DOCTYPE svg PUBLIC "-//W3C//DTD SVG 1.1//EN"
 "http://www.w3.org/Graphics/SVG/1.1/DTD/svg11.dtd">
<!-- Generated by graphviz version 2.50.0 (20220203.2022)
 -->
<!-- Title: Graphical Class Hierarchy Pages: 1 -->
<svg width="133pt" height="66pt"
 viewBox="0.00 0.00 133.00 66.00" xmlns="http://www.w3.org/2000/svg" xmlns:xlink="http://www.w3.org/1999/xlink">
<g id="graph0" class="graph" transform="scale(1 1) rotate(0) translate(4 62)">
<title>Graphical Class Hierarchy</title>
<polygon fill="white" stroke="transparent" points="-4,4 -4,-62 129,-62 129,4 -4,4"/>
<!-- Node0 -->
<g id="node1" class="node">
<title>Node0</title>
<g id="a_node1"><a xlink:href="structIonoObs.html" target="_top" xlink:title=" ">
<polygon fill="white" stroke="black" points="0.5,-38.5 0.5,-57.5 53.5,-57.5 53.5,-38.5 0.5,-38.5"/>
<text text-anchor="middle" x="27" y="-45.5" font-family="Helvetica,sans-Serif" font-size="10.00">IonoObs</text>
</a>
</g>
</g>
<!-- Node1 -->
<g id="node2" class="node">
<title>Node1</title>
<g id="a_node2"><a xlink:href="structObs.html" target="_top" xlink:title="Observation, and data derived from it.">
<polygon fill="white" stroke="black" points="90,-19.5 90,-38.5 125,-38.5 125,-19.5 90,-19.5"/>
<text text-anchor="middle" x="107.5" y="-26.5" font-family="Helvetica,sans-Serif" font-size="10.00">Obs</text>
</a>
</g>
</g>
<!-- Node0&#45;&gt;Node1 -->
<g id="edge1" class="edge">
<title>Node0&#45;&gt;Node1</title>
<path fill="none" stroke="midnightblue" d="M63.7,-39.36C72.74,-37.17 82.04,-34.92 89.65,-33.08"/>
<polygon fill="midnightblue" stroke="midnightblue" points="62.6,-36.02 53.7,-41.78 64.25,-42.83 62.6,-36.02"/>
</g>
<!-- Node2 -->
<g id="node3" class="node">
<title>Node2</title>
<g id="a_node3"><a xlink:href="structRawObs.html" target="_top" xlink:title="Raw observation data from a receiver.">
<polygon fill="white" stroke="black" points="0,-0.5 0,-19.5 54,-19.5 54,-0.5 0,-0.5"/>
<text text-anchor="middle" x="27" y="-7.5" font-family="Helvetica,sans-Serif" font-size="10.00">RawObs</text>
</a>
</g>
</g>
<!-- Node2&#45;&gt;Node1 -->
<g id="edge2" class="edge">
<title>Node2&#45;&gt;Node1</title>
<path fill="none" stroke="midnightblue" d="M64.1,-18.74C73.09,-20.91 82.3,-23.14 89.83,-24.97"/>
<polygon fill="midnightblue" stroke="midnightblue" points="64.68,-15.28 54.14,-16.33 63.04,-22.08 64.68,-15.28"/>
</g>
</g>
</svg>
