<?xml version="1.0" encoding="UTF-8" standalone="no"?>
<!DOCTYPE svg PUBLIC "-//W3C//DTD SVG 1.1//EN"
 "http://www.w3.org/Graphics/SVG/1.1/DTD/svg11.dtd">
<!-- Generated by graphviz version 2.50.0 (20220203.2022)
 -->
<!-- Title: Graphical Class Hierarchy Pages: 1 -->
<svg width="147pt" height="66pt"
 viewBox="0.00 0.00 147.00 66.00" xmlns="http://www.w3.org/2000/svg" xmlns:xlink="http://www.w3.org/1999/xlink">
<g id="graph0" class="graph" transform="scale(1 1) rotate(0) translate(4 62)">
<title>Graphical Class Hierarchy</title>
<polygon fill="white" stroke="transparent" points="-4,4 -4,-62 143,-62 143,4 -4,4"/>
<!-- Node0 -->
<g id="node1" class="node">
<title>Node0</title>
<g id="a_node1"><a xlink:href="structIonoStat.html" target="_top" xlink:title=" ">
<polygon fill="white" stroke="black" points="0,-38.5 0,-57.5 53,-57.5 53,-38.5 0,-38.5"/>
<text text-anchor="middle" x="26.5" y="-45.5" font-family="Helvetica,sans-Serif" font-size="10.00">IonoStat</text>
</a>
</g>
</g>
<!-- Node1 -->
<g id="node2" class="node">
<title>Node1</title>
<g id="a_node2"><a xlink:href="structSatStat.html" target="_top" xlink:title="Object containing persistant status parameters of individual satellites.">
<polygon fill="white" stroke="black" points="89,-19.5 89,-38.5 139,-38.5 139,-19.5 89,-19.5"/>
<text text-anchor="middle" x="114" y="-26.5" font-family="Helvetica,sans-Serif" font-size="10.00">SatStat</text>
</a>
</g>
</g>
<!-- Node0&#45;&gt;Node1 -->
<g id="edge1" class="edge">
<title>Node0&#45;&gt;Node1</title>
<path fill="none" stroke="midnightblue" d="M63.06,-40.1C71.74,-38.17 80.82,-36.15 88.83,-34.37"/>
<polygon fill="midnightblue" stroke="midnightblue" points="62.16,-36.71 53.15,-42.3 63.67,-43.55 62.16,-36.71"/>
</g>
<!-- Node2 -->
<g id="node3" class="node">
<title>Node2</title>
<g id="a_node3"><a xlink:href="structQC.html" target="_top" xlink:title=" ">
<polygon fill="white" stroke="black" points="11,-0.5 11,-19.5 42,-19.5 42,-0.5 11,-0.5"/>
<text text-anchor="middle" x="26.5" y="-7.5" font-family="Helvetica,sans-Serif" font-size="10.00">QC</text>
</a>
</g>
</g>
<!-- Node2&#45;&gt;Node1 -->
<g id="edge2" class="edge">
<title>Node2&#45;&gt;Node1</title>
<path fill="none" stroke="midnightblue" d="M51.86,-15.41C63.4,-17.98 77.16,-21.04 88.7,-23.6"/>
<polygon fill="midnightblue" stroke="midnightblue" points="52.53,-11.98 42,-13.22 51.01,-18.81 52.53,-11.98"/>
</g>
</g>
</svg>
