<?xml version="1.0" encoding="UTF-8" standalone="no"?>
<!DOCTYPE svg PUBLIC "-//W3C//DTD SVG 1.1//EN"
 "http://www.w3.org/Graphics/SVG/1.1/DTD/svg11.dtd">
<!-- Generated by graphviz version 2.50.0 (20220203.2022)
 -->
<!-- Title: Graphical Class Hierarchy Pages: 1 -->
<svg width="188pt" height="142pt"
 viewBox="0.00 0.00 188.00 142.00" xmlns="http://www.w3.org/2000/svg" xmlns:xlink="http://www.w3.org/1999/xlink">
<g id="graph0" class="graph" transform="scale(1 1) rotate(0) translate(4 138)">
<title>Graphical Class Hierarchy</title>
<polygon fill="white" stroke="transparent" points="-4,4 -4,-138 184,-138 184,4 -4,4"/>
<!-- Node0 -->
<g id="node1" class="node">
<title>Node0</title>
<g id="a_node1"><a xlink:href="structDebugOptions.html" target="_top" xlink:title="Options to be used only for debugging new features.">
<polygon fill="white" stroke="black" points="1,-114.5 1,-133.5 79,-133.5 79,-114.5 1,-114.5"/>
<text text-anchor="middle" x="40" y="-121.5" font-family="Helvetica,sans-Serif" font-size="10.00">DebugOptions</text>
</a>
</g>
</g>
<!-- Node1 -->
<g id="node2" class="node">
<title>Node1</title>
<g id="a_node2"><a xlink:href="structACSConfig.html" target="_top" xlink:title="General options object to be used throughout the software.">
<polygon fill="white" stroke="black" points="116,-57.5 116,-76.5 180,-76.5 180,-57.5 116,-57.5"/>
<text text-anchor="middle" x="148" y="-64.5" font-family="Helvetica,sans-Serif" font-size="10.00">ACSConfig</text>
</a>
</g>
</g>
<!-- Node0&#45;&gt;Node1 -->
<g id="edge1" class="edge">
<title>Node0&#45;&gt;Node1</title>
<path fill="none" stroke="midnightblue" d="M70.4,-109.92C73.65,-108.29 76.91,-106.63 80,-105 97.63,-95.72 117.44,-84.37 130.91,-76.5"/>
<polygon fill="midnightblue" stroke="midnightblue" points="68.78,-106.82 61.36,-114.38 71.88,-113.09 68.78,-106.82"/>
</g>
<!-- Node2 -->
<g id="node3" class="node">
<title>Node2</title>
<g id="a_node3"><a xlink:href="structGlobalOptions.html" target="_top" xlink:title="Options for the general operation of the software.">
<polygon fill="white" stroke="black" points="1,-76.5 1,-95.5 79,-95.5 79,-76.5 1,-76.5"/>
<text text-anchor="middle" x="40" y="-83.5" font-family="Helvetica,sans-Serif" font-size="10.00">GlobalOptions</text>
</a>
</g>
</g>
<!-- Node2&#45;&gt;Node1 -->
<g id="edge2" class="edge">
<title>Node2&#45;&gt;Node1</title>
<path fill="none" stroke="midnightblue" d="M89.28,-77.35C98.27,-75.73 107.44,-74.09 115.75,-72.6"/>
<polygon fill="midnightblue" stroke="midnightblue" points="88.49,-73.93 79.27,-79.14 89.73,-80.82 88.49,-73.93"/>
</g>
<!-- Node3 -->
<g id="node4" class="node">
<title>Node3</title>
<g id="a_node4"><a xlink:href="structInputOptions.html" target="_top" xlink:title="Input source filenames and directories.">
<polygon fill="white" stroke="black" points="4,-38.5 4,-57.5 76,-57.5 76,-38.5 4,-38.5"/>
<text text-anchor="middle" x="40" y="-45.5" font-family="Helvetica,sans-Serif" font-size="10.00">InputOptions</text>
</a>
</g>
</g>
<!-- Node3&#45;&gt;Node1 -->
<g id="edge3" class="edge">
<title>Node3&#45;&gt;Node1</title>
<path fill="none" stroke="midnightblue" d="M85.93,-56.05C96.04,-57.87 106.56,-59.75 115.96,-61.44"/>
<polygon fill="midnightblue" stroke="midnightblue" points="86.46,-52.59 76,-54.27 85.23,-59.48 86.46,-52.59"/>
</g>
<!-- Node4 -->
<g id="node5" class="node">
<title>Node4</title>
<g id="a_node5"><a xlink:href="structOutputOptions.html" target="_top" xlink:title="Enabling and setting destiations of program outputs.">
<polygon fill="white" stroke="black" points="0,-0.5 0,-19.5 80,-19.5 80,-0.5 0,-0.5"/>
<text text-anchor="middle" x="40" y="-7.5" font-family="Helvetica,sans-Serif" font-size="10.00">OutputOptions</text>
</a>
</g>
</g>
<!-- Node4&#45;&gt;Node1 -->
<g id="edge4" class="edge">
<title>Node4&#45;&gt;Node1</title>
<path fill="none" stroke="midnightblue" d="M70.4,-24.08C73.65,-25.71 76.91,-27.37 80,-29 97.63,-38.28 117.44,-49.63 130.91,-57.5"/>
<polygon fill="midnightblue" stroke="midnightblue" points="71.88,-20.91 61.36,-19.62 68.78,-27.18 71.88,-20.91"/>
</g>
</g>
</svg>
