<?xml version="1.0" encoding="UTF-8" standalone="no"?>
<!DOCTYPE svg PUBLIC "-//W3C//DTD SVG 1.1//EN"
 "http://www.w3.org/Graphics/SVG/1.1/DTD/svg11.dtd">
<!-- Generated by graphviz version 2.50.0 (20220203.2022)
 -->
<!-- Title: integr_rk4 Pages: 1 -->
<svg width="413pt" height="1026pt"
 viewBox="0.00 0.00 413.00 1026.00" xmlns="http://www.w3.org/2000/svg" xmlns:xlink="http://www.w3.org/1999/xlink">
<g id="graph0" class="graph" transform="scale(1 1) rotate(0) translate(4 1022)">
<title>integr_rk4</title>
<polygon fill="white" stroke="transparent" points="-4,4 -4,-1022 409,-1022 409,4 -4,4"/>
<!-- Node1 -->
<g id="node1" class="node">
<title>Node1</title>
<g id="a_node1"><a xlink:title=" ">
<polygon fill="#bfbfbf" stroke="black" points="0,-502.5 0,-521.5 59,-521.5 59,-502.5 0,-502.5"/>
<text text-anchor="middle" x="29.5" y="-509.5" font-family="Helvetica,sans-Serif" font-size="10.00">integr_rk4</text>
</a>
</g>
</g>
<!-- Node2 -->
<g id="node2" class="node">
<title>Node2</title>
<g id="a_node2"><a xlink:href="force__sum_8f95.html#a757e2ccbe362bf3b01a51e2c0431a490" target="_top" xlink:title=" ">
<polygon fill="white" stroke="black" points="95,-502.5 95,-521.5 157,-521.5 157,-502.5 95,-502.5"/>
<text text-anchor="middle" x="126" y="-509.5" font-family="Helvetica,sans-Serif" font-size="10.00">force_sum</text>
</a>
</g>
</g>
<!-- Node1&#45;&gt;Node2 -->
<g id="edge1" class="edge">
<title>Node1&#45;&gt;Node2</title>
<path fill="none" stroke="midnightblue" d="M59.11,-512C67.14,-512 76.03,-512 84.61,-512"/>
<polygon fill="midnightblue" stroke="midnightblue" points="84.85,-515.5 94.85,-512 84.85,-508.5 84.85,-515.5"/>
</g>
<!-- Node3 -->
<g id="node3" class="node">
<title>Node3</title>
<g id="a_node3"><a xlink:href="attitude_8f95.html#a8ee7764bdfc5e3bea9130e1ca999cb6d" target="_top" xlink:title=" ">
<polygon fill="white" stroke="red" points="229.5,-998.5 229.5,-1017.5 278.5,-1017.5 278.5,-998.5 229.5,-998.5"/>
<text text-anchor="middle" x="254" y="-1005.5" font-family="Helvetica,sans-Serif" font-size="10.00">attitude</text>
</a>
</g>
</g>
<!-- Node2&#45;&gt;Node3 -->
<g id="edge2" class="edge">
<title>Node2&#45;&gt;Node3</title>
<path fill="none" stroke="midnightblue" d="M126.98,-521.84C127.07,-583.35 130.47,-914.88 193,-989 199.71,-996.95 209.73,-1001.62 219.68,-1004.34"/>
<polygon fill="midnightblue" stroke="midnightblue" points="218.95,-1007.77 229.46,-1006.47 220.43,-1000.93 218.95,-1007.77"/>
</g>
<!-- Node43 -->
<g id="node4" class="node">
<title>Node43</title>
<g id="a_node4"><a xlink:href="EOP_8f90.html#ae7a3de1bf2c72753f2eeb8e05d63f962" target="_top" xlink:title=" ">
<polygon fill="white" stroke="red" points="238,-960.5 238,-979.5 270,-979.5 270,-960.5 238,-960.5"/>
<text text-anchor="middle" x="254" y="-967.5" font-family="Helvetica,sans-Serif" font-size="10.00">eop</text>
</a>
</g>
</g>
<!-- Node2&#45;&gt;Node43 -->
<g id="edge3" class="edge">
<title>Node2&#45;&gt;Node43</title>
<path fill="none" stroke="midnightblue" d="M127.11,-521.81C127.97,-580.33 135.2,-883.3 193,-951 201.56,-961.03 215.38,-965.82 227.6,-968.09"/>
<polygon fill="midnightblue" stroke="midnightblue" points="227.37,-971.59 237.75,-969.5 228.33,-964.66 227.37,-971.59"/>
</g>
<!-- Node75 -->
<g id="node5" class="node">
<title>Node75</title>
<g id="a_node5"><a xlink:href="force__ant_8f90.html#a55c0c08e2c55f071709638feba4110bd" target="_top" xlink:title=" ">
<polygon fill="white" stroke="black" points="225.5,-922.5 225.5,-941.5 282.5,-941.5 282.5,-922.5 225.5,-922.5"/>
<text text-anchor="middle" x="254" y="-929.5" font-family="Helvetica,sans-Serif" font-size="10.00">force_ant</text>
</a>
</g>
</g>
<!-- Node2&#45;&gt;Node75 -->
<g id="edge4" class="edge">
<title>Node2&#45;&gt;Node75</title>
<path fill="none" stroke="midnightblue" d="M127.26,-521.67C128.94,-576.86 139.89,-851.66 193,-913 198.81,-919.71 206.97,-924.07 215.41,-926.91"/>
<polygon fill="midnightblue" stroke="midnightblue" points="214.75,-930.35 225.32,-929.58 216.57,-923.59 214.75,-930.35"/>
</g>
<!-- Node76 -->
<g id="node6" class="node">
<title>Node76</title>
<g id="a_node6"><a xlink:href="force__erp_8f90.html#ae0f656c85c5a2d34eb25270604f2baa9" target="_top" xlink:title=" ">
<polygon fill="white" stroke="red" points="225.5,-884.5 225.5,-903.5 282.5,-903.5 282.5,-884.5 225.5,-884.5"/>
<text text-anchor="middle" x="254" y="-891.5" font-family="Helvetica,sans-Serif" font-size="10.00">force_erp</text>
</a>
</g>
</g>
<!-- Node2&#45;&gt;Node76 -->
<g id="edge5" class="edge">
<title>Node2&#45;&gt;Node76</title>
<path fill="none" stroke="midnightblue" d="M127.45,-521.77C130.03,-574 144.64,-820.08 193,-875 198.86,-881.66 207.05,-886.01 215.49,-888.84"/>
<polygon fill="midnightblue" stroke="midnightblue" points="214.82,-892.28 225.39,-891.51 216.65,-885.53 214.82,-892.28"/>
</g>
<!-- Node79 -->
<g id="node7" class="node">
<title>Node79</title>
<g id="a_node7"><a xlink:href="namespacem__force__gfm.html#a7263ff18587f370ef5a8833d0b672984" target="_top" xlink:title=" ">
<polygon fill="white" stroke="red" points="193,-846.5 193,-865.5 315,-865.5 315,-846.5 193,-846.5"/>
<text text-anchor="middle" x="254" y="-853.5" font-family="Helvetica,sans-Serif" font-size="10.00">m_force_gfm::force_gfm</text>
</a>
</g>
</g>
<!-- Node2&#45;&gt;Node79 -->
<g id="edge6" class="edge">
<title>Node2&#45;&gt;Node79</title>
<path fill="none" stroke="midnightblue" d="M127.67,-521.7C131.21,-570.45 149.31,-788.4 193,-837 194.21,-838.34 195.5,-839.59 196.88,-840.75"/>
<polygon fill="midnightblue" stroke="midnightblue" points="195.22,-843.85 205.48,-846.48 199.1,-838.02 195.22,-843.85"/>
</g>
<!-- Node83 -->
<g id="node8" class="node">
<title>Node83</title>
<g id="a_node8"><a xlink:href="force__gm_8f90.html#a3408d58bb93ee86baa1fcb19b5be18a2" target="_top" xlink:title=" ">
<polygon fill="white" stroke="red" points="225.5,-808.5 225.5,-827.5 282.5,-827.5 282.5,-808.5 225.5,-808.5"/>
<text text-anchor="middle" x="254" y="-815.5" font-family="Helvetica,sans-Serif" font-size="10.00">force_gm</text>
</a>
</g>
</g>
<!-- Node2&#45;&gt;Node83 -->
<g id="edge7" class="edge">
<title>Node2&#45;&gt;Node83</title>
<path fill="none" stroke="midnightblue" d="M127.95,-521.75C132.57,-567.06 154,-756.72 193,-799 198.96,-805.47 207.11,-809.74 215.48,-812.57"/>
<polygon fill="midnightblue" stroke="midnightblue" points="214.71,-815.99 225.28,-815.27 216.57,-809.24 214.71,-815.99"/>
</g>
<!-- Node84 -->
<g id="node9" class="node">
<title>Node84</title>
<g id="a_node9"><a xlink:href="force__gm3rd_8f90.html#ae9c9faaa26118a235bd19de9836c294e" target="_top" xlink:title=" ">
<polygon fill="white" stroke="black" points="218.5,-770.5 218.5,-789.5 289.5,-789.5 289.5,-770.5 218.5,-770.5"/>
<text text-anchor="middle" x="254" y="-777.5" font-family="Helvetica,sans-Serif" font-size="10.00">force_gm3rd</text>
</a>
</g>
</g>
<!-- Node2&#45;&gt;Node84 -->
<g id="edge8" class="edge">
<title>Node2&#45;&gt;Node84</title>
<path fill="none" stroke="midnightblue" d="M126.73,-521.81C126.26,-557.85 129.4,-684.54 193,-756 197.36,-760.89 202.85,-764.81 208.73,-767.93"/>
<polygon fill="midnightblue" stroke="midnightblue" points="207.63,-771.27 218.19,-772.21 210.52,-764.9 207.63,-771.27"/>
</g>
<!-- Node85 -->
<g id="node10" class="node">
<title>Node85</title>
<g id="a_node10"><a xlink:href="force__srp_8f90.html#ac60c56aaaf5a6f7118c763fe46ce8373" target="_top" xlink:title=" ">
<polygon fill="white" stroke="red" points="225.5,-656.5 225.5,-675.5 282.5,-675.5 282.5,-656.5 225.5,-656.5"/>
<text text-anchor="middle" x="254" y="-663.5" font-family="Helvetica,sans-Serif" font-size="10.00">force_srp</text>
</a>
</g>
</g>
<!-- Node2&#45;&gt;Node85 -->
<g id="edge9" class="edge">
<title>Node2&#45;&gt;Node85</title>
<path fill="none" stroke="midnightblue" d="M128.99,-521.78C134.54,-546.52 152.49,-612.08 193,-647 199.41,-652.53 207.44,-656.45 215.52,-659.23"/>
<polygon fill="midnightblue" stroke="midnightblue" points="214.71,-662.64 225.29,-662.09 216.68,-655.92 214.71,-662.64"/>
</g>
<!-- Node87 -->
<g id="node11" class="node">
<title>Node87</title>
<g id="a_node11"><a xlink:href="lambda_8cpp.html#a364f9f201016e3baff0a9366158a823b" target="_top" xlink:title=" ">
<polygon fill="white" stroke="red" points="354,-694.5 354,-713.5 402,-713.5 402,-694.5 354,-694.5"/>
<text text-anchor="middle" x="378" y="-701.5" font-family="Helvetica,sans-Serif" font-size="10.00">lambda</text>
</a>
</g>
</g>
<!-- Node2&#45;&gt;Node87 -->
<g id="edge14" class="edge">
<title>Node2&#45;&gt;Node87</title>
<path fill="none" stroke="midnightblue" d="M126.46,-521.76C125.13,-556.36 125.89,-673.67 193,-723 239.04,-756.84 309.96,-734.46 348.94,-717.67"/>
<polygon fill="midnightblue" stroke="midnightblue" points="350.43,-720.84 358.13,-713.55 347.57,-714.45 350.43,-720.84"/>
</g>
<!-- Node28 -->
<g id="node12" class="node">
<title>Node28</title>
<g id="a_node12"><a xlink:href="matrix__Rr_8f90.html#ac8734d74fb7ada7605575d3b9d26f2bb" target="_top" xlink:title=" ">
<polygon fill="white" stroke="red" points="351,-467.5 351,-486.5 405,-486.5 405,-467.5 351,-467.5"/>
<text text-anchor="middle" x="378" y="-474.5" font-family="Helvetica,sans-Serif" font-size="10.00">matrix_rr</text>
</a>
</g>
</g>
<!-- Node2&#45;&gt;Node28 -->
<g id="edge15" class="edge">
<title>Node2&#45;&gt;Node28</title>
<path fill="none" stroke="midnightblue" d="M126.55,-502.03C125.62,-467.8 127.73,-354.56 193,-307 236.82,-275.07 270.57,-275.91 315,-307 364.47,-341.62 374.61,-420.08 376.59,-457.04"/>
<polygon fill="midnightblue" stroke="midnightblue" points="373.1,-457.61 376.98,-467.47 380.1,-457.34 373.1,-457.61"/>
</g>
<!-- Node114 -->
<g id="node13" class="node">
<title>Node114</title>
<g id="a_node13"><a xlink:href="namespacem__force__tides.html#a9aef525fcc6bc1e959ee88315b478c82" target="_top" xlink:title=" ">
<polygon fill="white" stroke="red" points="202,-607 202,-637 306,-637 306,-607 202,-607"/>
<text text-anchor="start" x="210" y="-625" font-family="Helvetica,sans-Serif" font-size="10.00">m_force_tides::force</text>
<text text-anchor="middle" x="254" y="-614" font-family="Helvetica,sans-Serif" font-size="10.00">_tides</text>
</a>
</g>
</g>
<!-- Node2&#45;&gt;Node114 -->
<g id="edge12" class="edge">
<title>Node2&#45;&gt;Node114</title>
<path fill="none" stroke="midnightblue" d="M132.28,-521.74C142.1,-539.06 164.8,-575.44 193,-597 195.31,-598.77 197.77,-600.43 200.31,-602"/>
<polygon fill="midnightblue" stroke="midnightblue" points="198.79,-605.16 209.24,-606.94 202.18,-599.03 198.79,-605.16"/>
</g>
<!-- Node115 -->
<g id="node14" class="node">
<title>Node115</title>
<g id="a_node14"><a xlink:href="indirectJ2_8f90.html#a51b7788cb74168b4ccf4c4c9593c0d28" target="_top" xlink:title=" ">
<polygon fill="white" stroke="black" points="226,-568.5 226,-587.5 282,-587.5 282,-568.5 226,-568.5"/>
<text text-anchor="middle" x="254" y="-575.5" font-family="Helvetica,sans-Serif" font-size="10.00">indirectj2</text>
</a>
</g>
</g>
<!-- Node2&#45;&gt;Node115 -->
<g id="edge13" class="edge">
<title>Node2&#45;&gt;Node115</title>
<path fill="none" stroke="midnightblue" d="M138.45,-521.86C151.08,-532.31 172.36,-548.7 193,-559 200.22,-562.6 208.26,-565.71 216.06,-568.3"/>
<polygon fill="midnightblue" stroke="midnightblue" points="215.13,-571.68 225.72,-571.31 217.21,-564.99 215.13,-571.68"/>
</g>
<!-- Node116 -->
<g id="node15" class="node">
<title>Node116</title>
<g id="a_node15"><a xlink:href="namespacem__pd__empirical.html#a7b23cff80d996d8e519c6c7a71a955ff" target="_top" xlink:title=" ">
<polygon fill="white" stroke="red" points="204,-519 204,-549 304,-549 304,-519 204,-519"/>
<text text-anchor="start" x="212" y="-537" font-family="Helvetica,sans-Serif" font-size="10.00">m_pd_empirical::pd</text>
<text text-anchor="middle" x="254" y="-526" font-family="Helvetica,sans-Serif" font-size="10.00">_empirical</text>
</a>
</g>
</g>
<!-- Node2&#45;&gt;Node116 -->
<g id="edge16" class="edge">
<title>Node2&#45;&gt;Node116</title>
<path fill="none" stroke="midnightblue" d="M157.18,-517.27C168.21,-519.2 181.1,-521.45 193.79,-523.66"/>
<polygon fill="midnightblue" stroke="midnightblue" points="193.43,-527.15 203.88,-525.42 194.63,-520.26 193.43,-527.15"/>
</g>
<!-- Node32 -->
<g id="node16" class="node">
<title>Node32</title>
<g id="a_node16"><a xlink:href="PLEPH_8f.html#aedc7e0a9526045bd01307271228e14a3" target="_top" xlink:title=" ">
<polygon fill="white" stroke="red" points="234,-480.5 234,-499.5 274,-499.5 274,-480.5 234,-480.5"/>
<text text-anchor="middle" x="254" y="-487.5" font-family="Helvetica,sans-Serif" font-size="10.00">pleph</text>
</a>
</g>
</g>
<!-- Node2&#45;&gt;Node32 -->
<g id="edge17" class="edge">
<title>Node2&#45;&gt;Node32</title>
<path fill="none" stroke="midnightblue" d="M157.18,-506.73C177.3,-503.22 203.61,-498.62 223.57,-495.14"/>
<polygon fill="midnightblue" stroke="midnightblue" points="224.4,-498.55 233.65,-493.38 223.19,-491.65 224.4,-498.55"/>
</g>
<!-- Node117 -->
<g id="node17" class="node">
<title>Node117</title>
<g id="a_node17"><a xlink:href="namespacem__pulses__force.html#abfc02dc84f95c18d3f9b655fafe75661" target="_top" xlink:title=" ">
<polygon fill="white" stroke="red" points="194.5,-431 194.5,-461 313.5,-461 313.5,-431 194.5,-431"/>
<text text-anchor="start" x="202.5" y="-449" font-family="Helvetica,sans-Serif" font-size="10.00">m_pulses_force::pulses</text>
<text text-anchor="middle" x="254" y="-438" font-family="Helvetica,sans-Serif" font-size="10.00">_force</text>
</a>
</g>
</g>
<!-- Node2&#45;&gt;Node117 -->
<g id="edge18" class="edge">
<title>Node2&#45;&gt;Node117</title>
<path fill="none" stroke="midnightblue" d="M141.03,-502.36C154.14,-493.58 174.41,-480.57 193,-471 196.78,-469.05 200.75,-467.14 204.77,-465.29"/>
<polygon fill="midnightblue" stroke="midnightblue" points="206.46,-468.37 214.17,-461.1 203.61,-461.97 206.46,-468.37"/>
</g>
<!-- Node121 -->
<g id="node18" class="node">
<title>Node121</title>
<g id="a_node18"><a xlink:href="rel__deSitter_8f90.html#ab79d33d2a897fc82a03c1a96a40c23b8" target="_top" xlink:title=" ">
<polygon fill="white" stroke="red" points="221.5,-392.5 221.5,-411.5 286.5,-411.5 286.5,-392.5 221.5,-392.5"/>
<text text-anchor="middle" x="254" y="-399.5" font-family="Helvetica,sans-Serif" font-size="10.00">rel_desitter</text>
</a>
</g>
</g>
<!-- Node2&#45;&gt;Node121 -->
<g id="edge19" class="edge">
<title>Node2&#45;&gt;Node121</title>
<path fill="none" stroke="midnightblue" d="M131.53,-502.33C140.61,-484 162.78,-444.03 193,-422 198.6,-417.92 205.09,-414.63 211.69,-411.99"/>
<polygon fill="midnightblue" stroke="midnightblue" points="213.08,-415.22 221.35,-408.59 210.75,-408.62 213.08,-415.22"/>
</g>
<!-- Node122 -->
<g id="node19" class="node">
<title>Node122</title>
<g id="a_node19"><a xlink:href="rel__LenseThirring_8f90.html#a68696beff95aeb99a8ad23fc33bf9ef6" target="_top" xlink:title=" ">
<polygon fill="white" stroke="red" points="211.5,-354.5 211.5,-373.5 296.5,-373.5 296.5,-354.5 211.5,-354.5"/>
<text text-anchor="middle" x="254" y="-361.5" font-family="Helvetica,sans-Serif" font-size="10.00">rel_lensethirring</text>
</a>
</g>
</g>
<!-- Node2&#45;&gt;Node122 -->
<g id="edge20" class="edge">
<title>Node2&#45;&gt;Node122</title>
<path fill="none" stroke="midnightblue" d="M129.21,-502.3C135.17,-478.38 153.82,-416.15 193,-383 195.84,-380.6 198.98,-378.5 202.29,-376.67"/>
<polygon fill="midnightblue" stroke="midnightblue" points="203.81,-379.82 211.38,-372.41 200.84,-373.48 203.81,-379.82"/>
</g>
<!-- Node123 -->
<g id="node20" class="node">
<title>Node123</title>
<g id="a_node20"><a xlink:href="rel__schwarzschild_8f90.html#ac681e041df60effbcc45975e656adeca" target="_top" xlink:title=" ">
<polygon fill="white" stroke="red" points="207,-316.5 207,-335.5 301,-335.5 301,-316.5 207,-316.5"/>
<text text-anchor="middle" x="254" y="-323.5" font-family="Helvetica,sans-Serif" font-size="10.00">rel_schwarzschild</text>
</a>
</g>
</g>
<!-- Node2&#45;&gt;Node123 -->
<g id="edge21" class="edge">
<title>Node2&#45;&gt;Node123</title>
<path fill="none" stroke="midnightblue" d="M127.94,-502.49C131.25,-474.22 144.89,-389.86 193,-345 194.69,-343.43 196.51,-341.98 198.42,-340.66"/>
<polygon fill="midnightblue" stroke="midnightblue" points="200.38,-343.57 207.34,-335.58 196.91,-337.49 200.38,-343.57"/>
</g>
<!-- Node124 -->
<g id="node21" class="node">
<title>Node124</title>
<g id="a_node21"><a xlink:href="namespacem__shadow.html#a57161869236b6fe30e33523417670ca1" target="_top" xlink:title=" ">
<polygon fill="white" stroke="red" points="203,-694.5 203,-713.5 305,-713.5 305,-694.5 203,-694.5"/>
<text text-anchor="middle" x="254" y="-701.5" font-family="Helvetica,sans-Serif" font-size="10.00">m_shadow::shadow</text>
</a>
</g>
</g>
<!-- Node2&#45;&gt;Node124 -->
<g id="edge22" class="edge">
<title>Node2&#45;&gt;Node124</title>
<path fill="none" stroke="midnightblue" d="M127.83,-521.84C130.82,-551.11 143.67,-638.44 193,-685 194.68,-686.58 196.49,-688.04 198.4,-689.37"/>
<polygon fill="midnightblue" stroke="midnightblue" points="196.88,-692.53 207.29,-694.46 200.35,-686.46 196.88,-692.53"/>
</g>
<!-- Node126 -->
<g id="node22" class="node">
<title>Node126</title>
<g id="a_node22"><a xlink:href="tide__perm_8f90.html#adda319d54ab9b0b665614cb644eb95f2" target="_top" xlink:title=" ">
<polygon fill="white" stroke="black" points="224.5,-240.5 224.5,-259.5 283.5,-259.5 283.5,-240.5 224.5,-240.5"/>
<text text-anchor="middle" x="254" y="-247.5" font-family="Helvetica,sans-Serif" font-size="10.00">tide_perm</text>
</a>
</g>
</g>
<!-- Node2&#45;&gt;Node126 -->
<g id="edge24" class="edge">
<title>Node2&#45;&gt;Node126</title>
<path fill="none" stroke="midnightblue" d="M126.81,-502.43C126.63,-467.26 130.64,-343.63 193,-274 198.86,-267.45 206.76,-262.67 214.89,-259.17"/>
<polygon fill="midnightblue" stroke="midnightblue" points="216.27,-262.39 224.44,-255.64 213.85,-255.83 216.27,-262.39"/>
</g>
<!-- Node127 -->
<g id="node23" class="node">
<title>Node127</title>
<g id="a_node23"><a xlink:href="tide__pole__oc_8f90.html#ac65b276bb335236d9760f2e74a262793" target="_top" xlink:title=" ">
<polygon fill="white" stroke="red" points="218.5,-202.5 218.5,-221.5 289.5,-221.5 289.5,-202.5 218.5,-202.5"/>
<text text-anchor="middle" x="254" y="-209.5" font-family="Helvetica,sans-Serif" font-size="10.00">tide_pole_oc</text>
</a>
</g>
</g>
<!-- Node2&#45;&gt;Node127 -->
<g id="edge25" class="edge">
<title>Node2&#45;&gt;Node127</title>
<path fill="none" stroke="midnightblue" d="M127.98,-502.46C132.74,-458.08 154.68,-272.35 193,-231 197.39,-226.27 202.94,-222.71 208.9,-220.03"/>
<polygon fill="midnightblue" stroke="midnightblue" points="210.29,-223.25 218.46,-216.51 207.87,-216.68 210.29,-223.25"/>
</g>
<!-- Node129 -->
<g id="node24" class="node">
<title>Node129</title>
<g id="a_node24"><a xlink:href="tide__pole__se_8f90.html#aa070dac97310c40a3875f8aca0ad336f" target="_top" xlink:title=" ">
<polygon fill="white" stroke="red" points="218.5,-164.5 218.5,-183.5 289.5,-183.5 289.5,-164.5 218.5,-164.5"/>
<text text-anchor="middle" x="254" y="-171.5" font-family="Helvetica,sans-Serif" font-size="10.00">tide_pole_se</text>
</a>
</g>
</g>
<!-- Node2&#45;&gt;Node129 -->
<g id="edge26" class="edge">
<title>Node2&#45;&gt;Node129</title>
<path fill="none" stroke="midnightblue" d="M127.69,-502.48C131.36,-454.62 150,-240.66 193,-193 197.32,-188.21 202.85,-184.62 208.78,-181.93"/>
<polygon fill="midnightblue" stroke="midnightblue" points="210.17,-185.14 218.34,-178.4 207.75,-178.58 210.17,-185.14"/>
</g>
<!-- Node130 -->
<g id="node25" class="node">
<title>Node130</title>
<g id="a_node25"><a xlink:href="namespacem__tides__ocean.html#a7f60c39f09ba6a64169ddc2359a1253b" target="_top" xlink:title=" ">
<polygon fill="white" stroke="red" points="200,-115 200,-145 308,-145 308,-115 200,-115"/>
<text text-anchor="start" x="208" y="-133" font-family="Helvetica,sans-Serif" font-size="10.00">m_tides_ocean::tides</text>
<text text-anchor="middle" x="254" y="-122" font-family="Helvetica,sans-Serif" font-size="10.00">_ocean</text>
</a>
</g>
</g>
<!-- Node2&#45;&gt;Node130 -->
<g id="edge27" class="edge">
<title>Node2&#45;&gt;Node130</title>
<path fill="none" stroke="midnightblue" d="M127.55,-502.47C130.7,-451.46 147.75,-211.02 193,-155 193.97,-153.79 195.02,-152.64 196.12,-151.55"/>
<polygon fill="midnightblue" stroke="midnightblue" points="198.54,-154.09 204.13,-145.09 194.15,-148.64 198.54,-154.09"/>
</g>
<!-- Node133 -->
<g id="node26" class="node">
<title>Node133</title>
<g id="a_node26"><a xlink:href="tides__solid1_8f90.html#a8c7ad9569346e149f76fbc2e136b770c" target="_top" xlink:title=" ">
<polygon fill="white" stroke="red" points="220,-76.5 220,-95.5 288,-95.5 288,-76.5 220,-76.5"/>
<text text-anchor="middle" x="254" y="-83.5" font-family="Helvetica,sans-Serif" font-size="10.00">tides_solid1</text>
</a>
</g>
</g>
<!-- Node2&#45;&gt;Node133 -->
<g id="edge28" class="edge">
<title>Node2&#45;&gt;Node133</title>
<path fill="none" stroke="midnightblue" d="M127.24,-502.19C128.8,-446.18 139.19,-167.3 193,-105 197.56,-99.72 203.57,-95.9 210.04,-93.12"/>
<polygon fill="midnightblue" stroke="midnightblue" points="211.4,-96.35 219.71,-89.77 209.11,-89.74 211.4,-96.35"/>
</g>
<!-- Node134 -->
<g id="node27" class="node">
<title>Node134</title>
<g id="a_node27"><a xlink:href="tides__solid2_8f90.html#a2fc63da0354f63ae550adaabd8315f49" target="_top" xlink:title=" ">
<polygon fill="white" stroke="red" points="220,-38.5 220,-57.5 288,-57.5 288,-38.5 220,-38.5"/>
<text text-anchor="middle" x="254" y="-45.5" font-family="Helvetica,sans-Serif" font-size="10.00">tides_solid2</text>
</a>
</g>
</g>
<!-- Node2&#45;&gt;Node134 -->
<g id="edge29" class="edge">
<title>Node2&#45;&gt;Node134</title>
<path fill="none" stroke="midnightblue" d="M127.09,-502.44C127.81,-444.07 134.37,-135.81 193,-67 197.57,-61.64 203.65,-57.77 210.18,-54.98"/>
<polygon fill="midnightblue" stroke="midnightblue" points="211.63,-58.19 219.96,-51.63 209.36,-51.56 211.63,-58.19"/>
</g>
<!-- Node135 -->
<g id="node28" class="node">
<title>Node135</title>
<g id="a_node28"><a xlink:href="namespacem__writedata.html#a52d264b4e118ffa0ee1bfbcff79e75e0" target="_top" xlink:title=" ">
<polygon fill="white" stroke="red" points="194.5,-0.5 194.5,-19.5 313.5,-19.5 313.5,-0.5 194.5,-0.5"/>
<text text-anchor="middle" x="254" y="-7.5" font-family="Helvetica,sans-Serif" font-size="10.00">m_writedata::write_data</text>
</a>
</g>
</g>
<!-- Node2&#45;&gt;Node135 -->
<g id="edge30" class="edge">
<title>Node2&#45;&gt;Node135</title>
<path fill="none" stroke="midnightblue" d="M126.96,-502.44C126.92,-441.21 129.62,-104.25 193,-29 194.01,-27.8 195.1,-26.67 196.25,-25.62"/>
<polygon fill="midnightblue" stroke="midnightblue" points="198.55,-28.28 204.65,-19.62 194.48,-22.58 198.55,-28.28"/>
</g>
<!-- Node85&#45;&gt;Node87 -->
<g id="edge10" class="edge">
<title>Node85&#45;&gt;Node87</title>
<path fill="none" stroke="midnightblue" d="M282.68,-674.62C301,-680.33 325.11,-687.84 344.36,-693.83"/>
<polygon fill="midnightblue" stroke="midnightblue" points="343.34,-697.18 353.93,-696.81 345.42,-690.5 343.34,-697.18"/>
</g>
<!-- Node85&#45;&gt;Node28 -->
<g id="edge11" class="edge">
<title>Node85&#45;&gt;Node28</title>
<path fill="none" stroke="midnightblue" d="M282.51,-662.69C293.8,-660.08 306.24,-655.39 315,-647 358.19,-605.63 371.43,-531.76 375.38,-496.62"/>
<polygon fill="midnightblue" stroke="midnightblue" points="378.87,-496.96 376.36,-486.66 371.9,-496.27 378.87,-496.96"/>
</g>
<!-- Node124&#45;&gt;Node87 -->
<g id="edge23" class="edge">
<title>Node124&#45;&gt;Node87</title>
<path fill="none" stroke="midnightblue" d="M305.33,-704C318.19,-704 331.71,-704 343.5,-704"/>
<polygon fill="midnightblue" stroke="midnightblue" points="343.77,-707.5 353.77,-704 343.77,-700.5 343.77,-707.5"/>
</g>
</g>
</svg>
