<?xml version="1.0" encoding="UTF-8" standalone="no"?>
<!DOCTYPE svg PUBLIC "-//W3C//DTD SVG 1.1//EN"
 "http://www.w3.org/Graphics/SVG/1.1/DTD/svg11.dtd">
<!-- Generated by graphviz version 2.50.0 (20220203.2022)
 -->
<!-- Title: integr_rk87 Pages: 1 -->
<!--zoomable 1026 -->
<svg id="main" version="1.1" xmlns="http://www.w3.org/2000/svg" xmlns:xlink="http://www.w3.org/1999/xlink" xml:space="preserve" onload="init(evt)">
<style type="text/css"><![CDATA[
.edge:hover path { stroke: red; }
.edge:hover polygon { stroke: red; fill: red; }
]]></style>
<script type="text/javascript"><![CDATA[
var edges = document.getElementsByTagName('g');
if (edges && edges.length) {
  for (var i=0;i<edges.length;i++) {
    if (edges[i].id.substr(0,4)=='edge') {
      edges[i].setAttribute('class','edge');
    }
  }
}
]]></script>
        <defs>
                <circle id="rim" cx="0" cy="0" r="7"/>
                <circle id="rim2" cx="0" cy="0" r="3.5"/>
                <g id="zoomPlus">
                        <use xlink:href="#rim" fill="#404040">
                                <set attributeName="fill" to="#808080" begin="zoomplus.mouseover" end="zoomplus.mouseout"/>
                        </use>
                        <path d="M-4,0h8M0,-4v8" fill="none" stroke="white" stroke-width="1.5" pointer-events="none"/>
                </g>
                <g id="zoomMin">
                        <use xlink:href="#rim" fill="#404040">
                                <set attributeName="fill" to="#808080" begin="zoomminus.mouseover" end="zoomminus.mouseout"/>
                        </use>
                        <path d="M-4,0h8" fill="none" stroke="white" stroke-width="1.5" pointer-events="none"/>
                </g>
                <g id="dirArrow">
                        <path fill="none" stroke="white" stroke-width="1.5" d="M0,-3.0v7 M-2.5,-0.5L0,-3.0L2.5,-0.5"/>
                </g>
               <g id="resetDef">
                       <use xlink:href="#rim2" fill="#404040">
                               <set attributeName="fill" to="#808080" begin="reset.mouseover" end="reset.mouseout"/>
                       </use>
               </g>
        </defs>

<script type="text/javascript">
var viewWidth = 419;
var viewHeight = 1026;
var sectionId = 'dynsection-0';
</script>
<script xlink:href="svgpan.js"/>
<svg id="graph" class="graph">
<g id="viewport">
<title>integr_rk87</title>
<polygon fill="white" stroke="transparent" points="-4,4 -4,-1022 415,-1022 415,4 -4,4"/>
<!-- Node1 -->
<g id="node1" class="node">
<title>Node1</title>
<g id="a_node1"><a xlink:title=" ">
<polygon fill="#bfbfbf" stroke="black" points="0,-502.5 0,-521.5 65,-521.5 65,-502.5 0,-502.5"/>
<text text-anchor="middle" x="32.5" y="-509.5" font-family="Helvetica,sans-Serif" font-size="10.00">integr_rk87</text>
</a>
</g>
</g>
<!-- Node2 -->
<g id="node2" class="node">
<title>Node2</title>
<g id="a_node2"><a xlink:href="force__sum_8f95.html#a757e2ccbe362bf3b01a51e2c0431a490" target="_top" xlink:title=" ">
<polygon fill="white" stroke="black" points="101,-502.5 101,-521.5 163,-521.5 163,-502.5 101,-502.5"/>
<text text-anchor="middle" x="132" y="-509.5" font-family="Helvetica,sans-Serif" font-size="10.00">force_sum</text>
</a>
</g>
</g>
<!-- Node1&#45;&gt;Node2 -->
<g id="edge1" class="edge">
<title>Node1&#45;&gt;Node2</title>
<path fill="none" stroke="midnightblue" d="M65.16,-512C73.3,-512 82.17,-512 90.69,-512"/>
<polygon fill="midnightblue" stroke="midnightblue" points="90.83,-515.5 100.83,-512 90.83,-508.5 90.83,-515.5"/>
</g>
<!-- Node3 -->
<g id="node3" class="node">
<title>Node3</title>
<g id="a_node3"><a xlink:href="attitude_8f95.html#a8ee7764bdfc5e3bea9130e1ca999cb6d" target="_top" xlink:title=" ">
<polygon fill="white" stroke="red" points="235.5,-998.5 235.5,-1017.5 284.5,-1017.5 284.5,-998.5 235.5,-998.5"/>
<text text-anchor="middle" x="260" y="-1005.5" font-family="Helvetica,sans-Serif" font-size="10.00">attitude</text>
</a>
</g>
</g>
<!-- Node2&#45;&gt;Node3 -->
<g id="edge2" class="edge">
<title>Node2&#45;&gt;Node3</title>
<path fill="none" stroke="midnightblue" d="M132.98,-521.84C133.07,-583.35 136.47,-914.88 199,-989 205.71,-996.95 215.73,-1001.62 225.68,-1004.34"/>
<polygon fill="midnightblue" stroke="midnightblue" points="224.95,-1007.77 235.46,-1006.47 226.43,-1000.93 224.95,-1007.77"/>
</g>
<!-- Node43 -->
<g id="node4" class="node">
<title>Node43</title>
<g id="a_node4"><a xlink:href="EOP_8f90.html#ae7a3de1bf2c72753f2eeb8e05d63f962" target="_top" xlink:title=" ">
<polygon fill="white" stroke="red" points="244,-960.5 244,-979.5 276,-979.5 276,-960.5 244,-960.5"/>
<text text-anchor="middle" x="260" y="-967.5" font-family="Helvetica,sans-Serif" font-size="10.00">eop</text>
</a>
</g>
</g>
<!-- Node2&#45;&gt;Node43 -->
<g id="edge3" class="edge">
<title>Node2&#45;&gt;Node43</title>
<path fill="none" stroke="midnightblue" d="M133.11,-521.81C133.97,-580.33 141.2,-883.3 199,-951 207.56,-961.03 221.38,-965.82 233.6,-968.09"/>
<polygon fill="midnightblue" stroke="midnightblue" points="233.37,-971.59 243.75,-969.5 234.33,-964.66 233.37,-971.59"/>
</g>
<!-- Node75 -->
<g id="node5" class="node">
<title>Node75</title>
<g id="a_node5"><a xlink:href="force__ant_8f90.html#a55c0c08e2c55f071709638feba4110bd" target="_top" xlink:title=" ">
<polygon fill="white" stroke="black" points="231.5,-922.5 231.5,-941.5 288.5,-941.5 288.5,-922.5 231.5,-922.5"/>
<text text-anchor="middle" x="260" y="-929.5" font-family="Helvetica,sans-Serif" font-size="10.00">force_ant</text>
</a>
</g>
</g>
<!-- Node2&#45;&gt;Node75 -->
<g id="edge4" class="edge">
<title>Node2&#45;&gt;Node75</title>
<path fill="none" stroke="midnightblue" d="M133.26,-521.67C134.94,-576.86 145.89,-851.66 199,-913 204.81,-919.71 212.97,-924.07 221.41,-926.91"/>
<polygon fill="midnightblue" stroke="midnightblue" points="220.75,-930.35 231.32,-929.58 222.57,-923.59 220.75,-930.35"/>
</g>
<!-- Node76 -->
<g id="node6" class="node">
<title>Node76</title>
<g id="a_node6"><a xlink:href="force__erp_8f90.html#ae0f656c85c5a2d34eb25270604f2baa9" target="_top" xlink:title=" ">
<polygon fill="white" stroke="red" points="231.5,-884.5 231.5,-903.5 288.5,-903.5 288.5,-884.5 231.5,-884.5"/>
<text text-anchor="middle" x="260" y="-891.5" font-family="Helvetica,sans-Serif" font-size="10.00">force_erp</text>
</a>
</g>
</g>
<!-- Node2&#45;&gt;Node76 -->
<g id="edge5" class="edge">
<title>Node2&#45;&gt;Node76</title>
<path fill="none" stroke="midnightblue" d="M133.45,-521.77C136.03,-574 150.64,-820.08 199,-875 204.86,-881.66 213.05,-886.01 221.49,-888.84"/>
<polygon fill="midnightblue" stroke="midnightblue" points="220.82,-892.28 231.39,-891.51 222.65,-885.53 220.82,-892.28"/>
</g>
<!-- Node79 -->
<g id="node7" class="node">
<title>Node79</title>
<g id="a_node7"><a xlink:href="namespacem__force__gfm.html#a7263ff18587f370ef5a8833d0b672984" target="_top" xlink:title=" ">
<polygon fill="white" stroke="red" points="199,-846.5 199,-865.5 321,-865.5 321,-846.5 199,-846.5"/>
<text text-anchor="middle" x="260" y="-853.5" font-family="Helvetica,sans-Serif" font-size="10.00">m_force_gfm::force_gfm</text>
</a>
</g>
</g>
<!-- Node2&#45;&gt;Node79 -->
<g id="edge6" class="edge">
<title>Node2&#45;&gt;Node79</title>
<path fill="none" stroke="midnightblue" d="M133.67,-521.7C137.21,-570.45 155.31,-788.4 199,-837 200.21,-838.34 201.5,-839.59 202.88,-840.75"/>
<polygon fill="midnightblue" stroke="midnightblue" points="201.22,-843.85 211.48,-846.48 205.1,-838.02 201.22,-843.85"/>
</g>
<!-- Node83 -->
<g id="node8" class="node">
<title>Node83</title>
<g id="a_node8"><a xlink:href="force__gm_8f90.html#a3408d58bb93ee86baa1fcb19b5be18a2" target="_top" xlink:title=" ">
<polygon fill="white" stroke="red" points="231.5,-808.5 231.5,-827.5 288.5,-827.5 288.5,-808.5 231.5,-808.5"/>
<text text-anchor="middle" x="260" y="-815.5" font-family="Helvetica,sans-Serif" font-size="10.00">force_gm</text>
</a>
</g>
</g>
<!-- Node2&#45;&gt;Node83 -->
<g id="edge7" class="edge">
<title>Node2&#45;&gt;Node83</title>
<path fill="none" stroke="midnightblue" d="M133.95,-521.75C138.57,-567.06 160,-756.72 199,-799 204.96,-805.47 213.11,-809.74 221.48,-812.57"/>
<polygon fill="midnightblue" stroke="midnightblue" points="220.71,-815.99 231.28,-815.27 222.57,-809.24 220.71,-815.99"/>
</g>
<!-- Node84 -->
<g id="node9" class="node">
<title>Node84</title>
<g id="a_node9"><a xlink:href="force__gm3rd_8f90.html#ae9c9faaa26118a235bd19de9836c294e" target="_top" xlink:title=" ">
<polygon fill="white" stroke="black" points="224.5,-770.5 224.5,-789.5 295.5,-789.5 295.5,-770.5 224.5,-770.5"/>
<text text-anchor="middle" x="260" y="-777.5" font-family="Helvetica,sans-Serif" font-size="10.00">force_gm3rd</text>
</a>
</g>
</g>
<!-- Node2&#45;&gt;Node84 -->
<g id="edge8" class="edge">
<title>Node2&#45;&gt;Node84</title>
<path fill="none" stroke="midnightblue" d="M132.73,-521.81C132.26,-557.85 135.4,-684.54 199,-756 203.36,-760.89 208.85,-764.81 214.73,-767.93"/>
<polygon fill="midnightblue" stroke="midnightblue" points="213.63,-771.27 224.19,-772.21 216.52,-764.9 213.63,-771.27"/>
</g>
<!-- Node85 -->
<g id="node10" class="node">
<title>Node85</title>
<g id="a_node10"><a xlink:href="force__srp_8f90.html#ac60c56aaaf5a6f7118c763fe46ce8373" target="_top" xlink:title=" ">
<polygon fill="white" stroke="red" points="231.5,-656.5 231.5,-675.5 288.5,-675.5 288.5,-656.5 231.5,-656.5"/>
<text text-anchor="middle" x="260" y="-663.5" font-family="Helvetica,sans-Serif" font-size="10.00">force_srp</text>
</a>
</g>
</g>
<!-- Node2&#45;&gt;Node85 -->
<g id="edge9" class="edge">
<title>Node2&#45;&gt;Node85</title>
<path fill="none" stroke="midnightblue" d="M134.99,-521.78C140.54,-546.52 158.49,-612.08 199,-647 205.41,-652.53 213.44,-656.45 221.52,-659.23"/>
<polygon fill="midnightblue" stroke="midnightblue" points="220.71,-662.64 231.29,-662.09 222.68,-655.92 220.71,-662.64"/>
</g>
<!-- Node87 -->
<g id="node11" class="node">
<title>Node87</title>
<g id="a_node11"><a xlink:href="lambda_8cpp.html#a364f9f201016e3baff0a9366158a823b" target="_top" xlink:title=" ">
<polygon fill="white" stroke="red" points="360,-694.5 360,-713.5 408,-713.5 408,-694.5 360,-694.5"/>
<text text-anchor="middle" x="384" y="-701.5" font-family="Helvetica,sans-Serif" font-size="10.00">lambda</text>
</a>
</g>
</g>
<!-- Node2&#45;&gt;Node87 -->
<g id="edge14" class="edge">
<title>Node2&#45;&gt;Node87</title>
<path fill="none" stroke="midnightblue" d="M132.46,-521.76C131.13,-556.36 131.89,-673.67 199,-723 245.04,-756.84 315.96,-734.46 354.94,-717.67"/>
<polygon fill="midnightblue" stroke="midnightblue" points="356.43,-720.84 364.13,-713.55 353.57,-714.45 356.43,-720.84"/>
</g>
<!-- Node28 -->
<g id="node12" class="node">
<title>Node28</title>
<g id="a_node12"><a xlink:href="matrix__Rr_8f90.html#ac8734d74fb7ada7605575d3b9d26f2bb" target="_top" xlink:title=" ">
<polygon fill="white" stroke="red" points="357,-467.5 357,-486.5 411,-486.5 411,-467.5 357,-467.5"/>
<text text-anchor="middle" x="384" y="-474.5" font-family="Helvetica,sans-Serif" font-size="10.00">matrix_rr</text>
</a>
</g>
</g>
<!-- Node2&#45;&gt;Node28 -->
<g id="edge15" class="edge">
<title>Node2&#45;&gt;Node28</title>
<path fill="none" stroke="midnightblue" d="M132.55,-502.03C131.62,-467.8 133.73,-354.56 199,-307 242.82,-275.07 276.57,-275.91 321,-307 370.47,-341.62 380.61,-420.08 382.59,-457.04"/>
<polygon fill="midnightblue" stroke="midnightblue" points="379.1,-457.61 382.98,-467.47 386.1,-457.34 379.1,-457.61"/>
</g>
<!-- Node114 -->
<g id="node13" class="node">
<title>Node114</title>
<g id="a_node13"><a xlink:href="namespacem__force__tides.html#a9aef525fcc6bc1e959ee88315b478c82" target="_top" xlink:title=" ">
<polygon fill="white" stroke="red" points="208,-607 208,-637 312,-637 312,-607 208,-607"/>
<text text-anchor="start" x="216" y="-625" font-family="Helvetica,sans-Serif" font-size="10.00">m_force_tides::force</text>
<text text-anchor="middle" x="260" y="-614" font-family="Helvetica,sans-Serif" font-size="10.00">_tides</text>
</a>
</g>
</g>
<!-- Node2&#45;&gt;Node114 -->
<g id="edge12" class="edge">
<title>Node2&#45;&gt;Node114</title>
<path fill="none" stroke="midnightblue" d="M138.28,-521.74C148.1,-539.06 170.8,-575.44 199,-597 201.31,-598.77 203.77,-600.43 206.31,-602"/>
<polygon fill="midnightblue" stroke="midnightblue" points="204.79,-605.16 215.24,-606.94 208.18,-599.03 204.79,-605.16"/>
</g>
<!-- Node115 -->
<g id="node14" class="node">
<title>Node115</title>
<g id="a_node14"><a xlink:href="indirectJ2_8f90.html#a51b7788cb74168b4ccf4c4c9593c0d28" target="_top" xlink:title=" ">
<polygon fill="white" stroke="black" points="232,-568.5 232,-587.5 288,-587.5 288,-568.5 232,-568.5"/>
<text text-anchor="middle" x="260" y="-575.5" font-family="Helvetica,sans-Serif" font-size="10.00">indirectj2</text>
</a>
</g>
</g>
<!-- Node2&#45;&gt;Node115 -->
<g id="edge13" class="edge">
<title>Node2&#45;&gt;Node115</title>
<path fill="none" stroke="midnightblue" d="M144.45,-521.86C157.08,-532.31 178.36,-548.7 199,-559 206.22,-562.6 214.26,-565.71 222.06,-568.3"/>
<polygon fill="midnightblue" stroke="midnightblue" points="221.13,-571.68 231.72,-571.31 223.21,-564.99 221.13,-571.68"/>
</g>
<!-- Node116 -->
<g id="node15" class="node">
<title>Node116</title>
<g id="a_node15"><a xlink:href="namespacem__pd__empirical.html#a7b23cff80d996d8e519c6c7a71a955ff" target="_top" xlink:title=" ">
<polygon fill="white" stroke="red" points="210,-519 210,-549 310,-549 310,-519 210,-519"/>
<text text-anchor="start" x="218" y="-537" font-family="Helvetica,sans-Serif" font-size="10.00">m_pd_empirical::pd</text>
<text text-anchor="middle" x="260" y="-526" font-family="Helvetica,sans-Serif" font-size="10.00">_empirical</text>
</a>
</g>
</g>
<!-- Node2&#45;&gt;Node116 -->
<g id="edge16" class="edge">
<title>Node2&#45;&gt;Node116</title>
<path fill="none" stroke="midnightblue" d="M163.18,-517.27C174.21,-519.2 187.1,-521.45 199.79,-523.66"/>
<polygon fill="midnightblue" stroke="midnightblue" points="199.43,-527.15 209.88,-525.42 200.63,-520.26 199.43,-527.15"/>
</g>
<!-- Node32 -->
<g id="node16" class="node">
<title>Node32</title>
<g id="a_node16"><a xlink:href="PLEPH_8f.html#aedc7e0a9526045bd01307271228e14a3" target="_top" xlink:title=" ">
<polygon fill="white" stroke="red" points="240,-480.5 240,-499.5 280,-499.5 280,-480.5 240,-480.5"/>
<text text-anchor="middle" x="260" y="-487.5" font-family="Helvetica,sans-Serif" font-size="10.00">pleph</text>
</a>
</g>
</g>
<!-- Node2&#45;&gt;Node32 -->
<g id="edge17" class="edge">
<title>Node2&#45;&gt;Node32</title>
<path fill="none" stroke="midnightblue" d="M163.18,-506.73C183.3,-503.22 209.61,-498.62 229.57,-495.14"/>
<polygon fill="midnightblue" stroke="midnightblue" points="230.4,-498.55 239.65,-493.38 229.19,-491.65 230.4,-498.55"/>
</g>
<!-- Node117 -->
<g id="node17" class="node">
<title>Node117</title>
<g id="a_node17"><a xlink:href="namespacem__pulses__force.html#abfc02dc84f95c18d3f9b655fafe75661" target="_top" xlink:title=" ">
<polygon fill="white" stroke="red" points="200.5,-431 200.5,-461 319.5,-461 319.5,-431 200.5,-431"/>
<text text-anchor="start" x="208.5" y="-449" font-family="Helvetica,sans-Serif" font-size="10.00">m_pulses_force::pulses</text>
<text text-anchor="middle" x="260" y="-438" font-family="Helvetica,sans-Serif" font-size="10.00">_force</text>
</a>
</g>
</g>
<!-- Node2&#45;&gt;Node117 -->
<g id="edge18" class="edge">
<title>Node2&#45;&gt;Node117</title>
<path fill="none" stroke="midnightblue" d="M147.03,-502.36C160.14,-493.58 180.41,-480.57 199,-471 202.78,-469.05 206.75,-467.14 210.77,-465.29"/>
<polygon fill="midnightblue" stroke="midnightblue" points="212.46,-468.37 220.17,-461.1 209.61,-461.97 212.46,-468.37"/>
</g>
<!-- Node121 -->
<g id="node18" class="node">
<title>Node121</title>
<g id="a_node18"><a xlink:href="rel__deSitter_8f90.html#ab79d33d2a897fc82a03c1a96a40c23b8" target="_top" xlink:title=" ">
<polygon fill="white" stroke="red" points="227.5,-392.5 227.5,-411.5 292.5,-411.5 292.5,-392.5 227.5,-392.5"/>
<text text-anchor="middle" x="260" y="-399.5" font-family="Helvetica,sans-Serif" font-size="10.00">rel_desitter</text>
</a>
</g>
</g>
<!-- Node2&#45;&gt;Node121 -->
<g id="edge19" class="edge">
<title>Node2&#45;&gt;Node121</title>
<path fill="none" stroke="midnightblue" d="M137.53,-502.33C146.61,-484 168.78,-444.03 199,-422 204.6,-417.92 211.09,-414.63 217.69,-411.99"/>
<polygon fill="midnightblue" stroke="midnightblue" points="219.08,-415.22 227.35,-408.59 216.75,-408.62 219.08,-415.22"/>
</g>
<!-- Node122 -->
<g id="node19" class="node">
<title>Node122</title>
<g id="a_node19"><a xlink:href="rel__LenseThirring_8f90.html#a68696beff95aeb99a8ad23fc33bf9ef6" target="_top" xlink:title=" ">
<polygon fill="white" stroke="red" points="217.5,-354.5 217.5,-373.5 302.5,-373.5 302.5,-354.5 217.5,-354.5"/>
<text text-anchor="middle" x="260" y="-361.5" font-family="Helvetica,sans-Serif" font-size="10.00">rel_lensethirring</text>
</a>
</g>
</g>
<!-- Node2&#45;&gt;Node122 -->
<g id="edge20" class="edge">
<title>Node2&#45;&gt;Node122</title>
<path fill="none" stroke="midnightblue" d="M135.21,-502.3C141.17,-478.38 159.82,-416.15 199,-383 201.84,-380.6 204.98,-378.5 208.29,-376.67"/>
<polygon fill="midnightblue" stroke="midnightblue" points="209.81,-379.82 217.38,-372.41 206.84,-373.48 209.81,-379.82"/>
</g>
<!-- Node123 -->
<g id="node20" class="node">
<title>Node123</title>
<g id="a_node20"><a xlink:href="rel__schwarzschild_8f90.html#ac681e041df60effbcc45975e656adeca" target="_top" xlink:title=" ">
<polygon fill="white" stroke="red" points="213,-316.5 213,-335.5 307,-335.5 307,-316.5 213,-316.5"/>
<text text-anchor="middle" x="260" y="-323.5" font-family="Helvetica,sans-Serif" font-size="10.00">rel_schwarzschild</text>
</a>
</g>
</g>
<!-- Node2&#45;&gt;Node123 -->
<g id="edge21" class="edge">
<title>Node2&#45;&gt;Node123</title>
<path fill="none" stroke="midnightblue" d="M133.94,-502.49C137.25,-474.22 150.89,-389.86 199,-345 200.69,-343.43 202.51,-341.98 204.42,-340.66"/>
<polygon fill="midnightblue" stroke="midnightblue" points="206.38,-343.57 213.34,-335.58 202.91,-337.49 206.38,-343.57"/>
</g>
<!-- Node124 -->
<g id="node21" class="node">
<title>Node124</title>
<g id="a_node21"><a xlink:href="namespacem__shadow.html#a57161869236b6fe30e33523417670ca1" target="_top" xlink:title=" ">
<polygon fill="white" stroke="red" points="209,-694.5 209,-713.5 311,-713.5 311,-694.5 209,-694.5"/>
<text text-anchor="middle" x="260" y="-701.5" font-family="Helvetica,sans-Serif" font-size="10.00">m_shadow::shadow</text>
</a>
</g>
</g>
<!-- Node2&#45;&gt;Node124 -->
<g id="edge22" class="edge">
<title>Node2&#45;&gt;Node124</title>
<path fill="none" stroke="midnightblue" d="M133.83,-521.84C136.82,-551.11 149.67,-638.44 199,-685 200.68,-686.58 202.49,-688.04 204.4,-689.37"/>
<polygon fill="midnightblue" stroke="midnightblue" points="202.88,-692.53 213.29,-694.46 206.35,-686.46 202.88,-692.53"/>
</g>
<!-- Node126 -->
<g id="node22" class="node">
<title>Node126</title>
<g id="a_node22"><a xlink:href="tide__perm_8f90.html#adda319d54ab9b0b665614cb644eb95f2" target="_top" xlink:title=" ">
<polygon fill="white" stroke="black" points="230.5,-240.5 230.5,-259.5 289.5,-259.5 289.5,-240.5 230.5,-240.5"/>
<text text-anchor="middle" x="260" y="-247.5" font-family="Helvetica,sans-Serif" font-size="10.00">tide_perm</text>
</a>
</g>
</g>
<!-- Node2&#45;&gt;Node126 -->
<g id="edge24" class="edge">
<title>Node2&#45;&gt;Node126</title>
<path fill="none" stroke="midnightblue" d="M132.81,-502.43C132.63,-467.26 136.64,-343.63 199,-274 204.86,-267.45 212.76,-262.67 220.89,-259.17"/>
<polygon fill="midnightblue" stroke="midnightblue" points="222.27,-262.39 230.44,-255.64 219.85,-255.83 222.27,-262.39"/>
</g>
<!-- Node127 -->
<g id="node23" class="node">
<title>Node127</title>
<g id="a_node23"><a xlink:href="tide__pole__oc_8f90.html#ac65b276bb335236d9760f2e74a262793" target="_top" xlink:title=" ">
<polygon fill="white" stroke="red" points="224.5,-202.5 224.5,-221.5 295.5,-221.5 295.5,-202.5 224.5,-202.5"/>
<text text-anchor="middle" x="260" y="-209.5" font-family="Helvetica,sans-Serif" font-size="10.00">tide_pole_oc</text>
</a>
</g>
</g>
<!-- Node2&#45;&gt;Node127 -->
<g id="edge25" class="edge">
<title>Node2&#45;&gt;Node127</title>
<path fill="none" stroke="midnightblue" d="M133.98,-502.46C138.74,-458.08 160.68,-272.35 199,-231 203.39,-226.27 208.94,-222.71 214.9,-220.03"/>
<polygon fill="midnightblue" stroke="midnightblue" points="216.29,-223.25 224.46,-216.51 213.87,-216.68 216.29,-223.25"/>
</g>
<!-- Node129 -->
<g id="node24" class="node">
<title>Node129</title>
<g id="a_node24"><a xlink:href="tide__pole__se_8f90.html#aa070dac97310c40a3875f8aca0ad336f" target="_top" xlink:title=" ">
<polygon fill="white" stroke="red" points="224.5,-164.5 224.5,-183.5 295.5,-183.5 295.5,-164.5 224.5,-164.5"/>
<text text-anchor="middle" x="260" y="-171.5" font-family="Helvetica,sans-Serif" font-size="10.00">tide_pole_se</text>
</a>
</g>
</g>
<!-- Node2&#45;&gt;Node129 -->
<g id="edge26" class="edge">
<title>Node2&#45;&gt;Node129</title>
<path fill="none" stroke="midnightblue" d="M133.69,-502.48C137.36,-454.62 156,-240.66 199,-193 203.32,-188.21 208.85,-184.62 214.78,-181.93"/>
<polygon fill="midnightblue" stroke="midnightblue" points="216.17,-185.14 224.34,-178.4 213.75,-178.58 216.17,-185.14"/>
</g>
<!-- Node130 -->
<g id="node25" class="node">
<title>Node130</title>
<g id="a_node25"><a xlink:href="namespacem__tides__ocean.html#a7f60c39f09ba6a64169ddc2359a1253b" target="_top" xlink:title=" ">
<polygon fill="white" stroke="red" points="206,-115 206,-145 314,-145 314,-115 206,-115"/>
<text text-anchor="start" x="214" y="-133" font-family="Helvetica,sans-Serif" font-size="10.00">m_tides_ocean::tides</text>
<text text-anchor="middle" x="260" y="-122" font-family="Helvetica,sans-Serif" font-size="10.00">_ocean</text>
</a>
</g>
</g>
<!-- Node2&#45;&gt;Node130 -->
<g id="edge27" class="edge">
<title>Node2&#45;&gt;Node130</title>
<path fill="none" stroke="midnightblue" d="M133.55,-502.47C136.7,-451.46 153.75,-211.02 199,-155 199.97,-153.79 201.02,-152.64 202.12,-151.55"/>
<polygon fill="midnightblue" stroke="midnightblue" points="204.54,-154.09 210.13,-145.09 200.15,-148.64 204.54,-154.09"/>
</g>
<!-- Node133 -->
<g id="node26" class="node">
<title>Node133</title>
<g id="a_node26"><a xlink:href="tides__solid1_8f90.html#a8c7ad9569346e149f76fbc2e136b770c" target="_top" xlink:title=" ">
<polygon fill="white" stroke="red" points="226,-76.5 226,-95.5 294,-95.5 294,-76.5 226,-76.5"/>
<text text-anchor="middle" x="260" y="-83.5" font-family="Helvetica,sans-Serif" font-size="10.00">tides_solid1</text>
</a>
</g>
</g>
<!-- Node2&#45;&gt;Node133 -->
<g id="edge28" class="edge">
<title>Node2&#45;&gt;Node133</title>
<path fill="none" stroke="midnightblue" d="M133.24,-502.19C134.8,-446.18 145.19,-167.3 199,-105 203.56,-99.72 209.57,-95.9 216.04,-93.12"/>
<polygon fill="midnightblue" stroke="midnightblue" points="217.4,-96.35 225.71,-89.77 215.11,-89.74 217.4,-96.35"/>
</g>
<!-- Node134 -->
<g id="node27" class="node">
<title>Node134</title>
<g id="a_node27"><a xlink:href="tides__solid2_8f90.html#a2fc63da0354f63ae550adaabd8315f49" target="_top" xlink:title=" ">
<polygon fill="white" stroke="red" points="226,-38.5 226,-57.5 294,-57.5 294,-38.5 226,-38.5"/>
<text text-anchor="middle" x="260" y="-45.5" font-family="Helvetica,sans-Serif" font-size="10.00">tides_solid2</text>
</a>
</g>
</g>
<!-- Node2&#45;&gt;Node134 -->
<g id="edge29" class="edge">
<title>Node2&#45;&gt;Node134</title>
<path fill="none" stroke="midnightblue" d="M133.09,-502.44C133.81,-444.07 140.37,-135.81 199,-67 203.57,-61.64 209.65,-57.77 216.18,-54.98"/>
<polygon fill="midnightblue" stroke="midnightblue" points="217.63,-58.19 225.96,-51.63 215.36,-51.56 217.63,-58.19"/>
</g>
<!-- Node135 -->
<g id="node28" class="node">
<title>Node135</title>
<g id="a_node28"><a xlink:href="namespacem__writedata.html#a52d264b4e118ffa0ee1bfbcff79e75e0" target="_top" xlink:title=" ">
<polygon fill="white" stroke="red" points="200.5,-0.5 200.5,-19.5 319.5,-19.5 319.5,-0.5 200.5,-0.5"/>
<text text-anchor="middle" x="260" y="-7.5" font-family="Helvetica,sans-Serif" font-size="10.00">m_writedata::write_data</text>
</a>
</g>
</g>
<!-- Node2&#45;&gt;Node135 -->
<g id="edge30" class="edge">
<title>Node2&#45;&gt;Node135</title>
<path fill="none" stroke="midnightblue" d="M132.96,-502.44C132.92,-441.21 135.62,-104.25 199,-29 200.01,-27.8 201.1,-26.67 202.25,-25.62"/>
<polygon fill="midnightblue" stroke="midnightblue" points="204.55,-28.28 210.65,-19.62 200.48,-22.58 204.55,-28.28"/>
</g>
<!-- Node85&#45;&gt;Node87 -->
<g id="edge10" class="edge">
<title>Node85&#45;&gt;Node87</title>
<path fill="none" stroke="midnightblue" d="M288.68,-674.62C307,-680.33 331.11,-687.84 350.36,-693.83"/>
<polygon fill="midnightblue" stroke="midnightblue" points="349.34,-697.18 359.93,-696.81 351.42,-690.5 349.34,-697.18"/>
</g>
<!-- Node85&#45;&gt;Node28 -->
<g id="edge11" class="edge">
<title>Node85&#45;&gt;Node28</title>
<path fill="none" stroke="midnightblue" d="M288.51,-662.69C299.8,-660.08 312.24,-655.39 321,-647 364.19,-605.63 377.43,-531.76 381.38,-496.62"/>
<polygon fill="midnightblue" stroke="midnightblue" points="384.87,-496.96 382.36,-486.66 377.9,-496.27 384.87,-496.96"/>
</g>
<!-- Node124&#45;&gt;Node87 -->
<g id="edge23" class="edge">
<title>Node124&#45;&gt;Node87</title>
<path fill="none" stroke="midnightblue" d="M311.33,-704C324.19,-704 337.71,-704 349.5,-704"/>
<polygon fill="midnightblue" stroke="midnightblue" points="349.77,-707.5 359.77,-704 349.77,-700.5 349.77,-707.5"/>
</g>
</g>
</svg>
        <g id="navigator" transform="translate(0 0)" fill="#404254">
                <rect fill="#f2f5e9" fill-opacity="0.5" stroke="#606060" stroke-width=".5" x="0" y="0" width="60" height="60"/>
                <use id="zoomplus" xlink:href="#zoomPlus" x="17" y="9" onmousedown="handleZoom(evt,'in')"/>
                <use id="zoomminus" xlink:href="#zoomMin" x="42" y="9" onmousedown="handleZoom(evt,'out')"/>
                <use id="reset" xlink:href="#resetDef" x="30" y="36" onmousedown="handleReset()"/>
                <g id="arrowUp" xlink:href="#dirArrow" transform="translate(30 24)" onmousedown="handlePan(0,-1)">
                  <use xlink:href="#rim" fill="#404040">
                        <set attributeName="fill" to="#808080" begin="arrowUp.mouseover" end="arrowUp.mouseout"/>
                  </use>
                  <path fill="none" stroke="white" stroke-width="1.5" d="M0,-3.0v7 M-2.5,-0.5L0,-3.0L2.5,-0.5"/>
                </g>
                <g id="arrowRight" xlink:href="#dirArrow" transform="rotate(90) translate(36 -43)" onmousedown="handlePan(1,0)">
                  <use xlink:href="#rim" fill="#404040">
                        <set attributeName="fill" to="#808080" begin="arrowRight.mouseover" end="arrowRight.mouseout"/>
                  </use>
                  <path fill="none" stroke="white" stroke-width="1.5" d="M0,-3.0v7 M-2.5,-0.5L0,-3.0L2.5,-0.5"/>
                </g>
                <g id="arrowDown" xlink:href="#dirArrow" transform="rotate(180) translate(-30 -48)" onmousedown="handlePan(0,1)">
                  <use xlink:href="#rim" fill="#404040">
                        <set attributeName="fill" to="#808080" begin="arrowDown.mouseover" end="arrowDown.mouseout"/>
                  </use>
                  <path fill="none" stroke="white" stroke-width="1.5" d="M0,-3.0v7 M-2.5,-0.5L0,-3.0L2.5,-0.5"/>
                </g>
                <g id="arrowLeft" xlink:href="#dirArrow" transform="rotate(270) translate(-36 17)" onmousedown="handlePan(-1,0)">
                  <use xlink:href="#rim" fill="#404040">
                        <set attributeName="fill" to="#808080" begin="arrowLeft.mouseover" end="arrowLeft.mouseout"/>
                  </use>
                  <path fill="none" stroke="white" stroke-width="1.5" d="M0,-3.0v7 M-2.5,-0.5L0,-3.0L2.5,-0.5"/>
                </g>
        </g>
        <svg viewBox="0 0 15 15" width="100%" height="30px" preserveAspectRatio="xMaxYMin meet">
         <g id="arrow_out" transform="scale(0.3 0.3)">
          <a xlink:href="integr__rk87_8f95_a2a9a86b5021347d1c51f6b40066fbb40_cgraph_org.svg" target="_base">
           <rect id="button" ry="5" rx="5" y="6" x="6" height="38" width="38"
                fill="#f2f5e9" fill-opacity="0.5" stroke="#606060" stroke-width="1.0"/>
           <path id="arrow"
             d="M 11.500037,31.436501 C 11.940474,20.09759 22.043105,11.32322 32.158766,21.979434 L 37.068811,17.246167 C 37.068811,17.246167 37.088388,32 37.088388,32 L 22.160133,31.978069 C 22.160133,31.978069 26.997745,27.140456 26.997745,27.140456 C 18.528582,18.264221 13.291696,25.230495 11.500037,31.436501 z"
             style="fill:#404040;"/>
          </a>
         </g>
        </svg>
</svg>
