<?xml version="1.0" encoding="UTF-8" standalone="no"?>
<!DOCTYPE svg PUBLIC "-//W3C//DTD SVG 1.1//EN"
 "http://www.w3.org/Graphics/SVG/1.1/DTD/svg11.dtd">
<!-- Generated by graphviz version 2.50.0 (20220203.2022)
 -->
<!-- Title: ion_vtec Pages: 1 -->
<svg width="331pt" height="294pt"
 viewBox="0.00 0.00 331.00 294.00" xmlns="http://www.w3.org/2000/svg" xmlns:xlink="http://www.w3.org/1999/xlink">
<g id="graph0" class="graph" transform="scale(1 1) rotate(0) translate(4 290)">
<title>ion_vtec</title>
<polygon fill="white" stroke="transparent" points="-4,4 -4,-290 327,-290 327,4 -4,4"/>
<!-- Node1 -->
<g id="node1" class="node">
<title>Node1</title>
<g id="a_node1"><a xlink:title=" ">
<polygon fill="#bfbfbf" stroke="black" points="0,-114.5 0,-133.5 53,-133.5 53,-114.5 0,-114.5"/>
<text text-anchor="middle" x="26.5" y="-121.5" font-family="Helvetica,sans-Serif" font-size="10.00">ion_vtec</text>
</a>
</g>
</g>
<!-- Node2 -->
<g id="node2" class="node">
<title>Node2</title>
<g id="a_node2"><a xlink:href="ionoBSplines_8cpp.html#a7191290c90cc37c9496f5d31d307ca61" target="_top" xlink:title=" ">
<polygon fill="white" stroke="black" points="92,-114.5 92,-133.5 176,-133.5 176,-114.5 92,-114.5"/>
<text text-anchor="middle" x="134" y="-121.5" font-family="Helvetica,sans-Serif" font-size="10.00">ion_vtec_bsplin</text>
</a>
</g>
</g>
<!-- Node1&#45;&gt;Node2 -->
<g id="edge1" class="edge">
<title>Node1&#45;&gt;Node2</title>
<path fill="none" stroke="midnightblue" d="M53.04,-124C61.64,-124 71.57,-124 81.44,-124"/>
<polygon fill="midnightblue" stroke="midnightblue" points="81.65,-127.5 91.65,-124 81.65,-120.5 81.65,-127.5"/>
</g>
<!-- Node7 -->
<g id="node7" class="node">
<title>Node7</title>
<g id="a_node7"><a xlink:href="ionoSphericalCaps_8cpp.html#a62ebf6ded93b9ee44029b2887c944b72" target="_top" xlink:title=" ">
<polygon fill="white" stroke="black" points="89,-76.5 89,-95.5 179,-95.5 179,-76.5 89,-76.5"/>
<text text-anchor="middle" x="134" y="-83.5" font-family="Helvetica,sans-Serif" font-size="10.00">ion_vtec_sphcap</text>
</a>
</g>
</g>
<!-- Node1&#45;&gt;Node7 -->
<g id="edge6" class="edge">
<title>Node1&#45;&gt;Node7</title>
<path fill="none" stroke="midnightblue" d="M53.04,-114.8C66.22,-110.05 82.52,-104.18 96.96,-98.98"/>
<polygon fill="midnightblue" stroke="midnightblue" points="98.37,-102.19 106.59,-95.51 96,-95.61 98.37,-102.19"/>
</g>
<!-- Node15 -->
<g id="node10" class="node">
<title>Node15</title>
<g id="a_node10"><a xlink:href="ionoSpherical_8cpp.html#a282feb5c6b09fd90879de5cddaa123bc" target="_top" xlink:title=" ">
<polygon fill="white" stroke="black" points="90,-152.5 90,-171.5 178,-171.5 178,-152.5 90,-152.5"/>
<text text-anchor="middle" x="134" y="-159.5" font-family="Helvetica,sans-Serif" font-size="10.00">ion_vtec_sphhar</text>
</a>
</g>
</g>
<!-- Node1&#45;&gt;Node15 -->
<g id="edge11" class="edge">
<title>Node1&#45;&gt;Node15</title>
<path fill="none" stroke="midnightblue" d="M53.04,-133.2C66.22,-137.95 82.52,-143.82 96.96,-149.02"/>
<polygon fill="midnightblue" stroke="midnightblue" points="96,-152.39 106.59,-152.49 98.37,-145.81 96,-152.39"/>
</g>
<!-- Node3 -->
<g id="node3" class="node">
<title>Node3</title>
<g id="a_node3"><a xlink:href="trop_8cpp.html#aee11659ecea14ca59feae2dbe9f160d5" target="_top" xlink:title="coefficients multiplication">
<polygon fill="white" stroke="black" points="251.5,-114.5 251.5,-133.5 286.5,-133.5 286.5,-114.5 251.5,-114.5"/>
<text text-anchor="middle" x="269" y="-121.5" font-family="Helvetica,sans-Serif" font-size="10.00">coef</text>
</a>
</g>
</g>
<!-- Node2&#45;&gt;Node3 -->
<g id="edge2" class="edge">
<title>Node2&#45;&gt;Node3</title>
<path fill="none" stroke="midnightblue" d="M176.35,-124C197.52,-124 222.66,-124 241.26,-124"/>
<polygon fill="midnightblue" stroke="midnightblue" points="241.37,-127.5 251.37,-124 241.37,-120.5 241.37,-127.5"/>
</g>
<!-- Node4 -->
<g id="node4" class="node">
<title>Node4</title>
<g id="a_node4"><a xlink:href="structKFState.html#a84691f6bbbe3cdccaa14722995a61e1b" target="_top" xlink:title="Returns the value and variance of a state within the kalman filter object.">
<polygon fill="white" stroke="black" points="215,-76.5 215,-95.5 323,-95.5 323,-76.5 215,-76.5"/>
<text text-anchor="middle" x="269" y="-83.5" font-family="Helvetica,sans-Serif" font-size="10.00">KFState::getKFValue</text>
</a>
</g>
</g>
<!-- Node2&#45;&gt;Node4 -->
<g id="edge3" class="edge">
<title>Node2&#45;&gt;Node4</title>
<path fill="none" stroke="midnightblue" d="M168.56,-114.41C185.57,-109.55 206.43,-103.59 224.64,-98.39"/>
<polygon fill="midnightblue" stroke="midnightblue" points="225.8,-101.7 234.45,-95.59 223.87,-94.97 225.8,-101.7"/>
</g>
<!-- Node5 -->
<g id="node5" class="node">
<title>Node5</title>
<g id="a_node5"><a xlink:href="ionoBSplines_8cpp.html#a16a3214e2871c66be3bbc50645ab00f8" target="_top" xlink:title=" ">
<polygon fill="white" stroke="black" points="227,-190.5 227,-209.5 311,-209.5 311,-190.5 227,-190.5"/>
<text text-anchor="middle" x="269" y="-197.5" font-family="Helvetica,sans-Serif" font-size="10.00">ion_coef_bsplin</text>
</a>
</g>
</g>
<!-- Node2&#45;&gt;Node5 -->
<g id="edge4" class="edge">
<title>Node2&#45;&gt;Node5</title>
<path fill="none" stroke="midnightblue" d="M161.98,-133.6C167.83,-136.23 173.82,-139.38 179,-143 198.07,-156.33 195.52,-168.28 215,-181 217.95,-182.93 221.13,-184.69 224.4,-186.3"/>
<polygon fill="midnightblue" stroke="midnightblue" points="223.23,-189.6 233.79,-190.41 226.04,-183.19 223.23,-189.6"/>
</g>
<!-- Node6 -->
<g id="node6" class="node">
<title>Node6</title>
<g id="a_node6"><a xlink:href="ionoBSplines_8cpp.html#a9279d53ea1351ca8e31451171ee0bd71" target="_top" xlink:title=" ">
<polygon fill="white" stroke="black" points="223,-152.5 223,-171.5 315,-171.5 315,-152.5 223,-152.5"/>
<text text-anchor="middle" x="269" y="-159.5" font-family="Helvetica,sans-Serif" font-size="10.00">Ipp_check_bsplin</text>
</a>
</g>
</g>
<!-- Node2&#45;&gt;Node6 -->
<g id="edge5" class="edge">
<title>Node2&#45;&gt;Node6</title>
<path fill="none" stroke="midnightblue" d="M168.56,-133.59C185.57,-138.45 206.43,-144.41 224.64,-149.61"/>
<polygon fill="midnightblue" stroke="midnightblue" points="223.87,-153.03 234.45,-152.41 225.8,-146.3 223.87,-153.03"/>
</g>
<!-- Node7&#45;&gt;Node3 -->
<g id="edge7" class="edge">
<title>Node7&#45;&gt;Node3</title>
<path fill="none" stroke="midnightblue" d="M168.56,-95.59C191.21,-102.06 220.67,-110.48 241.63,-116.47"/>
<polygon fill="midnightblue" stroke="midnightblue" points="240.88,-119.89 251.46,-119.27 242.8,-113.16 240.88,-119.89"/>
</g>
<!-- Node7&#45;&gt;Node4 -->
<g id="edge8" class="edge">
<title>Node7&#45;&gt;Node4</title>
<path fill="none" stroke="midnightblue" d="M179.29,-86C187.43,-86 196.08,-86 204.66,-86"/>
<polygon fill="midnightblue" stroke="midnightblue" points="204.67,-89.5 214.67,-86 204.67,-82.5 204.67,-89.5"/>
</g>
<!-- Node8 -->
<g id="node8" class="node">
<title>Node8</title>
<g id="a_node8"><a xlink:href="ionoSphericalCaps_8cpp.html#a9392c4c89dcced960834408d5a3c4eae" target="_top" xlink:title=" ">
<polygon fill="white" stroke="red" points="224,-38.5 224,-57.5 314,-57.5 314,-38.5 224,-38.5"/>
<text text-anchor="middle" x="269" y="-45.5" font-family="Helvetica,sans-Serif" font-size="10.00">ion_coef_sphcap</text>
</a>
</g>
</g>
<!-- Node7&#45;&gt;Node8 -->
<g id="edge9" class="edge">
<title>Node7&#45;&gt;Node8</title>
<path fill="none" stroke="midnightblue" d="M168.56,-76.41C185.57,-71.55 206.43,-65.59 224.64,-60.39"/>
<polygon fill="midnightblue" stroke="midnightblue" points="225.8,-63.7 234.45,-57.59 223.87,-56.97 225.8,-63.7"/>
</g>
<!-- Node11 -->
<g id="node9" class="node">
<title>Node11</title>
<g id="a_node9"><a xlink:href="ionoSphericalCaps_8cpp.html#a906282f60e53b02995e06f9048079b78" target="_top" xlink:title=" ">
<polygon fill="white" stroke="red" points="220,-0.5 220,-19.5 318,-19.5 318,-0.5 220,-0.5"/>
<text text-anchor="middle" x="269" y="-7.5" font-family="Helvetica,sans-Serif" font-size="10.00">Ipp_check_sphcap</text>
</a>
</g>
</g>
<!-- Node7&#45;&gt;Node11 -->
<g id="edge10" class="edge">
<title>Node7&#45;&gt;Node11</title>
<path fill="none" stroke="midnightblue" d="M146.27,-76.43C161.2,-64.14 188.7,-42.75 215,-29 218.96,-26.93 223.19,-25 227.47,-23.21"/>
<polygon fill="midnightblue" stroke="midnightblue" points="228.8,-26.45 236.84,-19.56 226.25,-19.93 228.8,-26.45"/>
</g>
<!-- Node15&#45;&gt;Node3 -->
<g id="edge12" class="edge">
<title>Node15&#45;&gt;Node3</title>
<path fill="none" stroke="midnightblue" d="M168.56,-152.41C191.21,-145.94 220.67,-137.52 241.63,-131.53"/>
<polygon fill="midnightblue" stroke="midnightblue" points="242.8,-134.84 251.46,-128.73 240.88,-128.11 242.8,-134.84"/>
</g>
<!-- Node15&#45;&gt;Node4 -->
<g id="edge13" class="edge">
<title>Node15&#45;&gt;Node4</title>
<path fill="none" stroke="midnightblue" d="M161.98,-152.4C167.83,-149.77 173.82,-146.62 179,-143 198.07,-129.67 195.52,-117.72 215,-105 217.95,-103.07 221.13,-101.31 224.4,-99.7"/>
<polygon fill="midnightblue" stroke="midnightblue" points="226.04,-102.81 233.79,-95.59 223.23,-96.4 226.04,-102.81"/>
</g>
<!-- Node16 -->
<g id="node11" class="node">
<title>Node16</title>
<g id="a_node11"><a xlink:href="ionoSpherical_8cpp.html#a0d27755d579e100f284507dea013ccad" target="_top" xlink:title=" ">
<polygon fill="white" stroke="red" points="225,-266.5 225,-285.5 313,-285.5 313,-266.5 225,-266.5"/>
<text text-anchor="middle" x="269" y="-273.5" font-family="Helvetica,sans-Serif" font-size="10.00">ion_coef_sphhar</text>
</a>
</g>
</g>
<!-- Node15&#45;&gt;Node16 -->
<g id="edge14" class="edge">
<title>Node15&#45;&gt;Node16</title>
<path fill="none" stroke="midnightblue" d="M140.58,-171.52C152.13,-190.44 180.48,-233 215,-257 217.73,-258.9 220.67,-260.63 223.71,-262.2"/>
<polygon fill="midnightblue" stroke="midnightblue" points="222.51,-265.49 233.06,-266.45 225.41,-259.12 222.51,-265.49"/>
</g>
<!-- Node18 -->
<g id="node12" class="node">
<title>Node18</title>
<g id="a_node12"><a xlink:href="ionoSpherical_8cpp.html#a32460ecb229f47f08516ff7a35f45f47" target="_top" xlink:title=" ">
<polygon fill="white" stroke="red" points="221,-228.5 221,-247.5 317,-247.5 317,-228.5 221,-228.5"/>
<text text-anchor="middle" x="269" y="-235.5" font-family="Helvetica,sans-Serif" font-size="10.00">Ipp_check_sphhar</text>
</a>
</g>
</g>
<!-- Node15&#45;&gt;Node18 -->
<g id="edge15" class="edge">
<title>Node15&#45;&gt;Node18</title>
<path fill="none" stroke="midnightblue" d="M146.27,-171.57C161.2,-183.86 188.7,-205.25 215,-219 218.96,-221.07 223.19,-223 227.47,-224.79"/>
<polygon fill="midnightblue" stroke="midnightblue" points="226.25,-228.07 236.84,-228.44 228.8,-221.55 226.25,-228.07"/>
</g>
</g>
</svg>
