<?xml version="1.0" encoding="UTF-8" standalone="no"?>
<!DOCTYPE svg PUBLIC "-//W3C//DTD SVG 1.1//EN"
 "http://www.w3.org/Graphics/SVG/1.1/DTD/svg11.dtd">
<!-- Generated by graphviz version 2.50.0 (20220203.2022)
 -->
<!-- Title: write_ionex_epoch Pages: 1 -->
<svg width="378pt" height="274pt"
 viewBox="0.00 0.00 378.00 274.00" xmlns="http://www.w3.org/2000/svg" xmlns:xlink="http://www.w3.org/1999/xlink">
<g id="graph0" class="graph" transform="scale(1 1) rotate(0) translate(4 270)">
<title>write_ionex_epoch</title>
<polygon fill="white" stroke="transparent" points="-4,4 -4,-270 374,-270 374,4 -4,4"/>
<!-- Node1 -->
<g id="node1" class="node">
<title>Node1</title>
<g id="a_node1"><a xlink:title=" ">
<polygon fill="#bfbfbf" stroke="black" points="0,-114.5 0,-133.5 97,-133.5 97,-114.5 0,-114.5"/>
<text text-anchor="middle" x="48.5" y="-121.5" font-family="Helvetica,sans-Serif" font-size="10.00">write_ionex_epoch</text>
</a>
</g>
</g>
<!-- Node2 -->
<g id="node2" class="node">
<title>Node2</title>
<g id="a_node2"><a xlink:href="structKFState.html#a53a3ee5963d5561c2db0259d4f6cb663" target="_top" xlink:title="Returns the standard deviation of a state within the kalman filter object.">
<polygon fill="white" stroke="black" points="133,-246.5 133,-265.5 244,-265.5 244,-246.5 133,-246.5"/>
<text text-anchor="middle" x="188.5" y="-253.5" font-family="Helvetica,sans-Serif" font-size="10.00">KFState::getKFSigma</text>
</a>
</g>
</g>
<!-- Node1&#45;&gt;Node2 -->
<g id="edge1" class="edge">
<title>Node1&#45;&gt;Node2</title>
<path fill="none" stroke="midnightblue" d="M54.1,-133.7C64.85,-155.37 93.72,-208.06 133,-237 135.5,-238.84 138.2,-240.52 141,-242.04"/>
<polygon fill="midnightblue" stroke="midnightblue" points="139.69,-245.29 150.23,-246.39 142.67,-238.96 139.69,-245.29"/>
</g>
<!-- Node3 -->
<g id="node3" class="node">
<title>Node3</title>
<g id="a_node3"><a xlink:href="ionexWrite_8cpp.html#a9f946c742979e6f65a280d6f0c0a8cc6" target="_top" xlink:title=" ">
<polygon fill="white" stroke="black" points="162,-208.5 162,-227.5 215,-227.5 215,-208.5 162,-208.5"/>
<text text-anchor="middle" x="188.5" y="-215.5" font-family="Helvetica,sans-Serif" font-size="10.00">ion_vtec</text>
</a>
</g>
</g>
<!-- Node1&#45;&gt;Node3 -->
<g id="edge2" class="edge">
<title>Node1&#45;&gt;Node3</title>
<path fill="none" stroke="midnightblue" d="M57.82,-133.62C71.86,-149.33 101.8,-180.56 133,-199 138.97,-202.53 145.7,-205.54 152.33,-208.05"/>
<polygon fill="midnightblue" stroke="midnightblue" points="151.3,-211.39 161.89,-211.38 153.6,-204.78 151.3,-211.39"/>
</g>
<!-- Node12 -->
<g id="node7" class="node">
<title>Node12</title>
<g id="a_node7"><a xlink:href="namespacepod__yaml.html#a59ea539cabb34ef7985e7e57c4b9dd93" target="_top" xlink:title=" ">
<polygon fill="white" stroke="black" points="148.5,-152.5 148.5,-171.5 228.5,-171.5 228.5,-152.5 148.5,-152.5"/>
<text text-anchor="middle" x="188.5" y="-159.5" font-family="Helvetica,sans-Serif" font-size="10.00">pod_yaml::pow</text>
</a>
</g>
</g>
<!-- Node1&#45;&gt;Node12 -->
<g id="edge6" class="edge">
<title>Node1&#45;&gt;Node12</title>
<path fill="none" stroke="midnightblue" d="M84.32,-133.59C102.14,-138.49 124.02,-144.52 143.04,-149.76"/>
<polygon fill="midnightblue" stroke="midnightblue" points="142.12,-153.13 152.69,-152.41 143.98,-146.38 142.12,-153.13"/>
</g>
<!-- Node29 -->
<g id="node8" class="node">
<title>Node29</title>
<g id="a_node8"><a xlink:href="gTime_8cpp.html#a7a747c44ca37f2ebe379fc4309d3cfba" target="_top" xlink:title=" ">
<polygon fill="white" stroke="black" points="155,-114.5 155,-133.5 222,-133.5 222,-114.5 155,-114.5"/>
<text text-anchor="middle" x="188.5" y="-121.5" font-family="Helvetica,sans-Serif" font-size="10.00">time2epoch</text>
</a>
</g>
</g>
<!-- Node1&#45;&gt;Node29 -->
<g id="edge8" class="edge">
<title>Node1&#45;&gt;Node29</title>
<path fill="none" stroke="midnightblue" d="M97.38,-124C112.81,-124 129.8,-124 144.84,-124"/>
<polygon fill="midnightblue" stroke="midnightblue" points="144.89,-127.5 154.89,-124 144.89,-120.5 144.89,-127.5"/>
</g>
<!-- Node34 -->
<g id="node9" class="node">
<title>Node34</title>
<g id="a_node9"><a xlink:href="gTime_8cpp.html#abf196aa655d8ca10168c2301a68a8101" target="_top" xlink:title=" ">
<polygon fill="white" stroke="black" points="159,-76.5 159,-95.5 218,-95.5 218,-76.5 159,-76.5"/>
<text text-anchor="middle" x="188.5" y="-83.5" font-family="Helvetica,sans-Serif" font-size="10.00">time2gpst</text>
</a>
</g>
</g>
<!-- Node1&#45;&gt;Node34 -->
<g id="edge9" class="edge">
<title>Node1&#45;&gt;Node34</title>
<path fill="none" stroke="midnightblue" d="M84.32,-114.41C104,-108.99 128.63,-102.21 148.89,-96.63"/>
<polygon fill="midnightblue" stroke="midnightblue" points="150.03,-99.95 158.74,-93.92 148.17,-93.2 150.03,-99.95"/>
</g>
<!-- Node35 -->
<g id="node11" class="node">
<title>Node35</title>
<g id="a_node11"><a xlink:href="streamTrace_8cpp.html#a26d8a8c49d22d1ec101a45f8ee2e1fcc" target="_top" xlink:title=" ">
<polygon fill="white" stroke="black" points="161.5,-38.5 161.5,-57.5 215.5,-57.5 215.5,-38.5 161.5,-38.5"/>
<text text-anchor="middle" x="188.5" y="-45.5" font-family="Helvetica,sans-Serif" font-size="10.00">tracepde</text>
</a>
</g>
</g>
<!-- Node1&#45;&gt;Node35 -->
<g id="edge11" class="edge">
<title>Node1&#45;&gt;Node35</title>
<path fill="none" stroke="midnightblue" d="M61.32,-114.44C76.96,-102.14 105.73,-80.76 133,-67 138.87,-64.04 145.31,-61.35 151.65,-58.98"/>
<polygon fill="midnightblue" stroke="midnightblue" points="153.15,-62.16 161.42,-55.54 150.82,-55.56 153.15,-62.16"/>
</g>
<!-- Node36 -->
<g id="node12" class="node">
<title>Node36</title>
<g id="a_node12"><a xlink:href="streamTrace_8cpp.html#ae00e6addd3bdf3a7fd41a254eb9aec89" target="_top" xlink:title=" ">
<polygon fill="white" stroke="black" points="156.5,-0.5 156.5,-19.5 220.5,-19.5 220.5,-0.5 156.5,-0.5"/>
<text text-anchor="middle" x="188.5" y="-7.5" font-family="Helvetica,sans-Serif" font-size="10.00">tracepdeex</text>
</a>
</g>
</g>
<!-- Node1&#45;&gt;Node36 -->
<g id="edge12" class="edge">
<title>Node1&#45;&gt;Node36</title>
<path fill="none" stroke="midnightblue" d="M55.41,-114.46C67.63,-95.52 97.48,-52.91 133,-29 137.31,-26.1 142.1,-23.6 147.01,-21.45"/>
<polygon fill="midnightblue" stroke="midnightblue" points="148.45,-24.64 156.49,-17.74 145.9,-18.12 148.45,-24.64"/>
</g>
<!-- Node4 -->
<g id="node4" class="node">
<title>Node4</title>
<g id="a_node4"><a xlink:href="ionoBSplines_8cpp.html#a7191290c90cc37c9496f5d31d307ca61" target="_top" xlink:title=" ">
<polygon fill="white" stroke="red" points="283,-246.5 283,-265.5 367,-265.5 367,-246.5 283,-246.5"/>
<text text-anchor="middle" x="325" y="-253.5" font-family="Helvetica,sans-Serif" font-size="10.00">ion_vtec_bsplin</text>
</a>
</g>
</g>
<!-- Node3&#45;&gt;Node4 -->
<g id="edge3" class="edge">
<title>Node3&#45;&gt;Node4</title>
<path fill="none" stroke="midnightblue" d="M215.12,-225.24C233.62,-230.47 259.06,-237.65 280.7,-243.77"/>
<polygon fill="midnightblue" stroke="midnightblue" points="279.76,-247.14 290.34,-246.49 281.66,-240.4 279.76,-247.14"/>
</g>
<!-- Node9 -->
<g id="node5" class="node">
<title>Node9</title>
<g id="a_node5"><a xlink:href="ionoSphericalCaps_8cpp.html#a62ebf6ded93b9ee44029b2887c944b72" target="_top" xlink:title=" ">
<polygon fill="white" stroke="red" points="280,-208.5 280,-227.5 370,-227.5 370,-208.5 280,-208.5"/>
<text text-anchor="middle" x="325" y="-215.5" font-family="Helvetica,sans-Serif" font-size="10.00">ion_vtec_sphcap</text>
</a>
</g>
</g>
<!-- Node3&#45;&gt;Node9 -->
<g id="edge4" class="edge">
<title>Node3&#45;&gt;Node9</title>
<path fill="none" stroke="midnightblue" d="M215.12,-218C230.62,-218 250.99,-218 269.92,-218"/>
<polygon fill="midnightblue" stroke="midnightblue" points="269.95,-221.5 279.95,-218 269.95,-214.5 269.95,-221.5"/>
</g>
<!-- Node17 -->
<g id="node6" class="node">
<title>Node17</title>
<g id="a_node6"><a xlink:href="ionoSpherical_8cpp.html#a282feb5c6b09fd90879de5cddaa123bc" target="_top" xlink:title=" ">
<polygon fill="white" stroke="red" points="281,-170.5 281,-189.5 369,-189.5 369,-170.5 281,-170.5"/>
<text text-anchor="middle" x="325" y="-177.5" font-family="Helvetica,sans-Serif" font-size="10.00">ion_vtec_sphhar</text>
</a>
</g>
</g>
<!-- Node3&#45;&gt;Node17 -->
<g id="edge5" class="edge">
<title>Node3&#45;&gt;Node17</title>
<path fill="none" stroke="midnightblue" d="M215.12,-210.76C233.62,-205.53 259.06,-198.35 280.7,-192.23"/>
<polygon fill="midnightblue" stroke="midnightblue" points="281.66,-195.6 290.34,-189.51 279.76,-188.86 281.66,-195.6"/>
</g>
<!-- Node12&#45;&gt;Node12 -->
<g id="edge7" class="edge">
<title>Node12&#45;&gt;Node12</title>
<path fill="none" stroke="midnightblue" d="M167.54,-171.76C157.34,-180.57 164.33,-190 188.5,-190 203.99,-190 212.42,-186.13 213.8,-181.03"/>
<polygon fill="midnightblue" stroke="midnightblue" points="216.87,-179.33 209.46,-171.76 210.53,-182.3 216.87,-179.33"/>
</g>
<!-- Node22 -->
<g id="node10" class="node">
<title>Node22</title>
<g id="a_node10"><a xlink:href="gTime_8cpp.html#aa46173b9085096882d09e53d96e9dc41" target="_top" xlink:title=" ">
<polygon fill="white" stroke="black" points="291.5,-76.5 291.5,-95.5 358.5,-95.5 358.5,-76.5 291.5,-76.5"/>
<text text-anchor="middle" x="325" y="-83.5" font-family="Helvetica,sans-Serif" font-size="10.00">epoch2time</text>
</a>
</g>
</g>
<!-- Node34&#45;&gt;Node22 -->
<g id="edge10" class="edge">
<title>Node34&#45;&gt;Node22</title>
<path fill="none" stroke="midnightblue" d="M218.02,-86C236.36,-86 260.53,-86 281.15,-86"/>
<polygon fill="midnightblue" stroke="midnightblue" points="281.26,-89.5 291.26,-86 281.26,-82.5 281.26,-89.5"/>
</g>
</g>
</svg>
