<?xml version="1.0" encoding="UTF-8" standalone="no"?>
<!DOCTYPE svg PUBLIC "-//W3C//DTD SVG 1.1//EN"
 "http://www.w3.org/Graphics/SVG/1.1/DTD/svg11.dtd">
<!-- Generated by graphviz version 2.50.0 (20220203.2022)
 -->
<!-- Title: Ipp_check_bsplin Pages: 1 -->
<svg width="369pt" height="66pt"
 viewBox="0.00 0.00 369.00 66.00" xmlns="http://www.w3.org/2000/svg" xmlns:xlink="http://www.w3.org/1999/xlink">
<g id="graph0" class="graph" transform="scale(1 1) rotate(0) translate(4 62)">
<title>Ipp_check_bsplin</title>
<polygon fill="white" stroke="transparent" points="-4,4 -4,-62 365,-62 365,4 -4,4"/>
<!-- Node1 -->
<g id="node1" class="node">
<title>Node1</title>
<g id="a_node1"><a xlink:title=" ">
<polygon fill="#bfbfbf" stroke="black" points="269,-19.5 269,-38.5 361,-38.5 361,-19.5 269,-19.5"/>
<text text-anchor="middle" x="315" y="-26.5" font-family="Helvetica,sans-Serif" font-size="10.00">Ipp_check_bsplin</text>
</a>
</g>
</g>
<!-- Node2 -->
<g id="node2" class="node">
<title>Node2</title>
<g id="a_node2"><a xlink:href="ionoBSplines_8cpp.html#a7191290c90cc37c9496f5d31d307ca61" target="_top" xlink:title=" ">
<polygon fill="white" stroke="black" points="149,-38.5 149,-57.5 233,-57.5 233,-38.5 149,-38.5"/>
<text text-anchor="middle" x="191" y="-45.5" font-family="Helvetica,sans-Serif" font-size="10.00">ion_vtec_bsplin</text>
</a>
</g>
</g>
<!-- Node1&#45;&gt;Node2 -->
<g id="edge1" class="edge">
<title>Node1&#45;&gt;Node2</title>
<path fill="none" stroke="midnightblue" d="M258.91,-37.58C250.29,-38.92 241.51,-40.29 233.26,-41.57"/>
<polygon fill="midnightblue" stroke="midnightblue" points="259.58,-41.02 268.92,-36.02 258.5,-34.1 259.58,-41.02"/>
</g>
<!-- Node9 -->
<g id="node4" class="node">
<title>Node9</title>
<g id="a_node4"><a xlink:href="ionoMeas_8cpp.html#a6dc09994e73227556cf4b42233b9ff77" target="_top" xlink:title=" ">
<polygon fill="white" stroke="black" points="155,-0.5 155,-19.5 227,-19.5 227,-0.5 155,-0.5"/>
<text text-anchor="middle" x="191" y="-7.5" font-family="Helvetica,sans-Serif" font-size="10.00">Ipp_in_range</text>
</a>
</g>
</g>
<!-- Node1&#45;&gt;Node9 -->
<g id="edge3" class="edge">
<title>Node1&#45;&gt;Node9</title>
<path fill="none" stroke="midnightblue" d="M258.8,-20.4C248.12,-18.74 237.2,-17.04 227.37,-15.51"/>
<polygon fill="midnightblue" stroke="midnightblue" points="258.5,-23.9 268.92,-21.98 259.58,-16.98 258.5,-23.9"/>
</g>
<!-- Node3 -->
<g id="node3" class="node">
<title>Node3</title>
<g id="a_node3"><a xlink:href="ionexWrite_8cpp.html#a9f946c742979e6f65a280d6f0c0a8cc6" target="_top" xlink:title=" ">
<polygon fill="white" stroke="red" points="30,-38.5 30,-57.5 83,-57.5 83,-38.5 30,-38.5"/>
<text text-anchor="middle" x="56.5" y="-45.5" font-family="Helvetica,sans-Serif" font-size="10.00">ion_vtec</text>
</a>
</g>
</g>
<!-- Node2&#45;&gt;Node3 -->
<g id="edge2" class="edge">
<title>Node2&#45;&gt;Node3</title>
<path fill="none" stroke="midnightblue" d="M138.77,-48C119.76,-48 99.02,-48 83.25,-48"/>
<polygon fill="midnightblue" stroke="midnightblue" points="138.8,-51.5 148.8,-48 138.8,-44.5 138.8,-51.5"/>
</g>
<!-- Node10 -->
<g id="node5" class="node">
<title>Node10</title>
<g id="a_node5"><a xlink:href="ionoMeas_8cpp.html#a3dce4bc6a3c8a98b9f14fd6804d330c3" target="_top" xlink:title=" ">
<polygon fill="white" stroke="red" points="0,-0.5 0,-19.5 113,-19.5 113,-0.5 0,-0.5"/>
<text text-anchor="middle" x="56.5" y="-7.5" font-family="Helvetica,sans-Serif" font-size="10.00">update_receivr_measr</text>
</a>
</g>
</g>
<!-- Node9&#45;&gt;Node10 -->
<g id="edge4" class="edge">
<title>Node9&#45;&gt;Node10</title>
<path fill="none" stroke="midnightblue" d="M144.58,-10C134.45,-10 123.58,-10 113.09,-10"/>
<polygon fill="midnightblue" stroke="midnightblue" points="144.84,-13.5 154.84,-10 144.84,-6.5 144.84,-13.5"/>
</g>
</g>
</svg>
