<?xml version="1.0" encoding="UTF-8" standalone="no"?>
<!DOCTYPE svg PUBLIC "-//W3C//DTD SVG 1.1//EN"
 "http://www.w3.org/Graphics/SVG/1.1/DTD/svg11.dtd">
<!-- Generated by graphviz version 2.50.0 (20220203.2022)
 -->
<!-- Title: config_ionosph_model Pages: 1 -->
<svg width="488pt" height="137pt"
 viewBox="0.00 0.00 488.00 137.00" xmlns="http://www.w3.org/2000/svg" xmlns:xlink="http://www.w3.org/1999/xlink">
<g id="graph0" class="graph" transform="scale(1 1) rotate(0) translate(4 133)">
<title>config_ionosph_model</title>
<polygon fill="white" stroke="transparent" points="-4,4 -4,-133 484,-133 484,4 -4,4"/>
<!-- Node1 -->
<g id="node1" class="node">
<title>Node1</title>
<g id="a_node1"><a xlink:title=" ">
<polygon fill="#bfbfbf" stroke="black" points="0,-55 0,-74 113,-74 113,-55 0,-55"/>
<text text-anchor="middle" x="56.5" y="-62" font-family="Helvetica,sans-Serif" font-size="10.00">config_ionosph_model</text>
</a>
</g>
</g>
<!-- Node2 -->
<g id="node2" class="node">
<title>Node2</title>
<g id="a_node2"><a xlink:href="ionoBSplines_8cpp.html#a80721a08ecb039ccf36b7d0fdfab575f" target="_top" xlink:title=" ">
<polygon fill="white" stroke="black" points="149,-98.5 149,-128.5 259,-128.5 259,-98.5 149,-98.5"/>
<text text-anchor="start" x="157" y="-116.5" font-family="Helvetica,sans-Serif" font-size="10.00">configure_iono_model</text>
<text text-anchor="middle" x="204" y="-105.5" font-family="Helvetica,sans-Serif" font-size="10.00">_bsplin</text>
</a>
</g>
</g>
<!-- Node1&#45;&gt;Node2 -->
<g id="edge1" class="edge">
<title>Node1&#45;&gt;Node2</title>
<path fill="none" stroke="midnightblue" d="M85.9,-74.06C103.76,-80.08 127.38,-88.03 148.73,-95.22"/>
<polygon fill="midnightblue" stroke="midnightblue" points="147.76,-98.59 158.35,-98.46 149.99,-91.95 147.76,-98.59"/>
</g>
<!-- Node3 -->
<g id="node3" class="node">
<title>Node3</title>
<g id="a_node3"><a xlink:href="ionoSphericalCaps_8cpp.html#ab9253b7428bc4c4903bd59d5d68f243e" target="_top" xlink:title=" ">
<polygon fill="white" stroke="black" points="149,-49.5 149,-79.5 259,-79.5 259,-49.5 149,-49.5"/>
<text text-anchor="start" x="157" y="-67.5" font-family="Helvetica,sans-Serif" font-size="10.00">configure_iono_model</text>
<text text-anchor="middle" x="204" y="-56.5" font-family="Helvetica,sans-Serif" font-size="10.00">_sphcap</text>
</a>
</g>
</g>
<!-- Node1&#45;&gt;Node3 -->
<g id="edge2" class="edge">
<title>Node1&#45;&gt;Node3</title>
<path fill="none" stroke="midnightblue" d="M113.34,-64.5C121.66,-64.5 130.29,-64.5 138.76,-64.5"/>
<polygon fill="midnightblue" stroke="midnightblue" points="138.99,-68 148.99,-64.5 138.99,-61 138.99,-68"/>
</g>
<!-- Node8 -->
<g id="node7" class="node">
<title>Node8</title>
<g id="a_node7"><a xlink:href="ionoSpherical_8cpp.html#ae30743175397f6d6e45cd7551ff27f31" target="_top" xlink:title=" ">
<polygon fill="white" stroke="black" points="149,-0.5 149,-30.5 259,-30.5 259,-0.5 149,-0.5"/>
<text text-anchor="start" x="157" y="-18.5" font-family="Helvetica,sans-Serif" font-size="10.00">configure_iono_model</text>
<text text-anchor="middle" x="204" y="-7.5" font-family="Helvetica,sans-Serif" font-size="10.00">_sphhar</text>
</a>
</g>
</g>
<!-- Node1&#45;&gt;Node8 -->
<g id="edge8" class="edge">
<title>Node1&#45;&gt;Node8</title>
<path fill="none" stroke="midnightblue" d="M85.9,-54.94C103.76,-48.92 127.38,-40.97 148.73,-33.78"/>
<polygon fill="midnightblue" stroke="midnightblue" points="149.99,-37.05 158.35,-30.54 147.76,-30.41 149.99,-37.05"/>
</g>
<!-- Node4 -->
<g id="node4" class="node">
<title>Node4</title>
<g id="a_node4"><a xlink:href="ionoSphericalCaps_8cpp.html#aeae450fade955270a49bb037102ae974" target="_top" xlink:title=" ">
<polygon fill="white" stroke="black" points="295,-55 295,-74 351,-74 351,-55 295,-55"/>
<text text-anchor="middle" x="323" y="-62" font-family="Helvetica,sans-Serif" font-size="10.00">bisection</text>
</a>
</g>
</g>
<!-- Node3&#45;&gt;Node4 -->
<g id="edge3" class="edge">
<title>Node3&#45;&gt;Node4</title>
<path fill="none" stroke="midnightblue" d="M259.05,-64.5C267.8,-64.5 276.7,-64.5 284.93,-64.5"/>
<polygon fill="midnightblue" stroke="midnightblue" points="284.95,-68 294.95,-64.5 284.95,-61 284.95,-68"/>
</g>
<!-- Node5 -->
<g id="node5" class="node">
<title>Node5</title>
<g id="a_node5"><a xlink:href="ionoSphericalCaps_8cpp.html#a704ddd2715658506643c09ff2ec2918a" target="_top" xlink:title=" ">
<polygon fill="white" stroke="red" points="387,-74 387,-93 480,-93 480,-74 387,-74"/>
<text text-anchor="middle" x="433.5" y="-81" font-family="Helvetica,sans-Serif" font-size="10.00">legendre_derivatv</text>
</a>
</g>
</g>
<!-- Node3&#45;&gt;Node5 -->
<g id="edge6" class="edge">
<title>Node3&#45;&gt;Node5</title>
<path fill="none" stroke="midnightblue" d="M259.44,-77.89C271.11,-80.22 283.41,-82.29 295,-83.5 321.81,-86.3 351.73,-86.63 376.79,-86.12"/>
<polygon fill="midnightblue" stroke="midnightblue" points="376.95,-89.62 386.86,-85.87 376.77,-82.62 376.95,-89.62"/>
</g>
<!-- Node7 -->
<g id="node6" class="node">
<title>Node7</title>
<g id="a_node6"><a xlink:href="ionoSphericalCaps_8cpp.html#af477ddd9f2fb1146ce390c17b7f60ed8" target="_top" xlink:title=" ">
<polygon fill="white" stroke="red" points="387,-27 387,-46 480,-46 480,-27 387,-27"/>
<text text-anchor="middle" x="433.5" y="-34" font-family="Helvetica,sans-Serif" font-size="10.00">legendre_function</text>
</a>
</g>
</g>
<!-- Node3&#45;&gt;Node7 -->
<g id="edge7" class="edge">
<title>Node3&#45;&gt;Node7</title>
<path fill="none" stroke="midnightblue" d="M259.04,-51.79C270.83,-49.38 283.29,-47.11 295,-45.5 321.77,-41.82 351.68,-39.63 376.75,-38.34"/>
<polygon fill="midnightblue" stroke="midnightblue" points="377,-41.83 386.82,-37.86 376.66,-34.84 377,-41.83"/>
</g>
<!-- Node4&#45;&gt;Node5 -->
<g id="edge4" class="edge">
<title>Node4&#45;&gt;Node5</title>
<path fill="none" stroke="midnightblue" d="M351.1,-69.25C358.94,-70.62 367.81,-72.17 376.73,-73.73"/>
<polygon fill="midnightblue" stroke="midnightblue" points="376.31,-77.21 386.77,-75.49 377.52,-70.32 376.31,-77.21"/>
</g>
<!-- Node4&#45;&gt;Node7 -->
<g id="edge5" class="edge">
<title>Node4&#45;&gt;Node7</title>
<path fill="none" stroke="midnightblue" d="M351.1,-57.51C361.59,-54.8 373.91,-51.62 385.75,-48.57"/>
<polygon fill="midnightblue" stroke="midnightblue" points="386.72,-51.93 395.52,-46.04 384.97,-45.15 386.72,-51.93"/>
</g>
</g>
</svg>
