<?xml version="1.0" encoding="UTF-8" standalone="no"?>
<!DOCTYPE svg PUBLIC "-//W3C//DTD SVG 1.1//EN"
 "http://www.w3.org/Graphics/SVG/1.1/DTD/svg11.dtd">
<!-- Generated by graphviz version 2.50.0 (20220203.2022)
 -->
<!-- Title: Ipp_in_range Pages: 1 -->
<svg width="338pt" height="218pt"
 viewBox="0.00 0.00 338.00 218.00" xmlns="http://www.w3.org/2000/svg" xmlns:xlink="http://www.w3.org/1999/xlink">
<g id="graph0" class="graph" transform="scale(1 1) rotate(0) translate(4 214)">
<title>Ipp_in_range</title>
<polygon fill="white" stroke="transparent" points="-4,4 -4,-214 334,-214 334,4 -4,4"/>
<!-- Node1 -->
<g id="node1" class="node">
<title>Node1</title>
<g id="a_node1"><a xlink:title=" ">
<polygon fill="#bfbfbf" stroke="black" points="0,-152.5 0,-171.5 72,-171.5 72,-152.5 0,-152.5"/>
<text text-anchor="middle" x="36" y="-159.5" font-family="Helvetica,sans-Serif" font-size="10.00">Ipp_in_range</text>
</a>
</g>
</g>
<!-- Node2 -->
<g id="node2" class="node">
<title>Node2</title>
<g id="a_node2"><a xlink:href="ionoBSplines_8cpp.html#a9279d53ea1351ca8e31451171ee0bd71" target="_top" xlink:title=" ">
<polygon fill="white" stroke="black" points="111,-190.5 111,-209.5 203,-209.5 203,-190.5 111,-190.5"/>
<text text-anchor="middle" x="157" y="-197.5" font-family="Helvetica,sans-Serif" font-size="10.00">Ipp_check_bsplin</text>
</a>
</g>
</g>
<!-- Node1&#45;&gt;Node2 -->
<g id="edge1" class="edge">
<title>Node1&#45;&gt;Node2</title>
<path fill="none" stroke="midnightblue" d="M67.03,-171.59C81.97,-176.36 100.22,-182.19 116.3,-187.32"/>
<polygon fill="midnightblue" stroke="midnightblue" points="115.39,-190.71 125.98,-190.41 117.52,-184.04 115.39,-190.71"/>
</g>
<!-- Node3 -->
<g id="node3" class="node">
<title>Node3</title>
<g id="a_node3"><a xlink:href="ionoSphericalCaps_8cpp.html#a906282f60e53b02995e06f9048079b78" target="_top" xlink:title=" ">
<polygon fill="white" stroke="black" points="108,-152.5 108,-171.5 206,-171.5 206,-152.5 108,-152.5"/>
<text text-anchor="middle" x="157" y="-159.5" font-family="Helvetica,sans-Serif" font-size="10.00">Ipp_check_sphcap</text>
</a>
</g>
</g>
<!-- Node1&#45;&gt;Node3 -->
<g id="edge2" class="edge">
<title>Node1&#45;&gt;Node3</title>
<path fill="none" stroke="midnightblue" d="M72.06,-162C80.14,-162 88.95,-162 97.72,-162"/>
<polygon fill="midnightblue" stroke="midnightblue" points="97.96,-165.5 107.96,-162 97.96,-158.5 97.96,-165.5"/>
</g>
<!-- Node7 -->
<g id="node7" class="node">
<title>Node7</title>
<g id="a_node7"><a xlink:href="ionoSpherical_8cpp.html#a32460ecb229f47f08516ff7a35f45f47" target="_top" xlink:title=" ">
<polygon fill="white" stroke="black" points="109,-114.5 109,-133.5 205,-133.5 205,-114.5 109,-114.5"/>
<text text-anchor="middle" x="157" y="-121.5" font-family="Helvetica,sans-Serif" font-size="10.00">Ipp_check_sphhar</text>
</a>
</g>
</g>
<!-- Node1&#45;&gt;Node7 -->
<g id="edge6" class="edge">
<title>Node1&#45;&gt;Node7</title>
<path fill="none" stroke="midnightblue" d="M67.03,-152.41C81.97,-147.64 100.22,-141.81 116.3,-136.68"/>
<polygon fill="midnightblue" stroke="midnightblue" points="117.52,-139.96 125.98,-133.59 115.39,-133.29 117.52,-139.96"/>
</g>
<!-- Node4 -->
<g id="node4" class="node">
<title>Node4</title>
<g id="a_node4"><a xlink:href="rtkcmn_8cpp.html#ae91d83cf693cdc7e1efacbe4d8d9656e" target="_top" xlink:title=" ">
<polygon fill="white" stroke="black" points="258,-190.5 258,-209.5 314,-209.5 314,-190.5 258,-190.5"/>
<text text-anchor="middle" x="286" y="-197.5" font-family="Helvetica,sans-Serif" font-size="10.00">ecef2pos</text>
</a>
</g>
</g>
<!-- Node3&#45;&gt;Node4 -->
<g id="edge3" class="edge">
<title>Node3&#45;&gt;Node4</title>
<path fill="none" stroke="midnightblue" d="M190.05,-171.59C207.66,-176.86 229.58,-183.42 247.92,-188.91"/>
<polygon fill="midnightblue" stroke="midnightblue" points="247.11,-192.32 257.7,-191.83 249.12,-185.61 247.11,-192.32"/>
</g>
<!-- Node5 -->
<g id="node5" class="node">
<title>Node5</title>
<g id="a_node5"><a xlink:href="algebra__old_8cpp.html#adc33998911a24938042604ba1f8e6196" target="_top" xlink:title=" ">
<polygon fill="white" stroke="black" points="261.5,-152.5 261.5,-171.5 310.5,-171.5 310.5,-152.5 261.5,-152.5"/>
<text text-anchor="middle" x="286" y="-159.5" font-family="Helvetica,sans-Serif" font-size="10.00">matmul</text>
</a>
</g>
</g>
<!-- Node3&#45;&gt;Node5 -->
<g id="edge4" class="edge">
<title>Node3&#45;&gt;Node5</title>
<path fill="none" stroke="midnightblue" d="M206.01,-162C221.13,-162 237.49,-162 251.38,-162"/>
<polygon fill="midnightblue" stroke="midnightblue" points="251.45,-165.5 261.45,-162 251.45,-158.5 251.45,-165.5"/>
</g>
<!-- Node6 -->
<g id="node6" class="node">
<title>Node6</title>
<g id="a_node6"><a xlink:href="rtkcmn_8cpp.html#af69d89b6d7834290bd7c181f828e652a" target="_top" xlink:title="Transform geodetic postion to ecef.">
<polygon fill="white" stroke="black" points="258,-114.5 258,-133.5 314,-133.5 314,-114.5 258,-114.5"/>
<text text-anchor="middle" x="286" y="-121.5" font-family="Helvetica,sans-Serif" font-size="10.00">pos2ecef</text>
</a>
</g>
</g>
<!-- Node3&#45;&gt;Node6 -->
<g id="edge5" class="edge">
<title>Node3&#45;&gt;Node6</title>
<path fill="none" stroke="midnightblue" d="M190.05,-152.41C207.66,-147.14 229.58,-140.58 247.92,-135.09"/>
<polygon fill="midnightblue" stroke="midnightblue" points="249.12,-138.39 257.7,-132.17 247.11,-131.68 249.12,-138.39"/>
</g>
<!-- Node7&#45;&gt;Node4 -->
<g id="edge7" class="edge">
<title>Node7&#45;&gt;Node4</title>
<path fill="none" stroke="midnightblue" d="M187.96,-133.52C194.18,-136.13 200.51,-139.28 206,-143 225.27,-156.03 222.99,-167.59 242,-181 244.38,-182.68 246.92,-184.25 249.55,-185.73"/>
<polygon fill="midnightblue" stroke="midnightblue" points="248.14,-188.93 258.64,-190.33 251.3,-182.69 248.14,-188.93"/>
</g>
<!-- Node7&#45;&gt;Node5 -->
<g id="edge9" class="edge">
<title>Node7&#45;&gt;Node5</title>
<path fill="none" stroke="midnightblue" d="M190.05,-133.59C208.86,-139.22 232.6,-146.32 251.63,-152.02"/>
<polygon fill="midnightblue" stroke="midnightblue" points="250.8,-155.42 261.38,-154.93 252.81,-148.71 250.8,-155.42"/>
</g>
<!-- Node7&#45;&gt;Node6 -->
<g id="edge10" class="edge">
<title>Node7&#45;&gt;Node6</title>
<path fill="none" stroke="midnightblue" d="M205.29,-124C219.31,-124 234.47,-124 247.76,-124"/>
<polygon fill="midnightblue" stroke="midnightblue" points="247.96,-127.5 257.96,-124 247.96,-120.5 247.96,-127.5"/>
</g>
<!-- Node8 -->
<g id="node8" class="node">
<title>Node8</title>
<g id="a_node8"><a xlink:href="gTime_8cpp.html#a853f281ccd45b714eb3edb14259a982a" target="_top" xlink:title=" ">
<polygon fill="white" stroke="red" points="259,-76.5 259,-95.5 313,-95.5 313,-76.5 259,-76.5"/>
<text text-anchor="middle" x="286" y="-83.5" font-family="Helvetica,sans-Serif" font-size="10.00">gpst2utc</text>
</a>
</g>
</g>
<!-- Node7&#45;&gt;Node8 -->
<g id="edge8" class="edge">
<title>Node7&#45;&gt;Node8</title>
<path fill="none" stroke="midnightblue" d="M190.05,-114.41C208.11,-109.01 230.72,-102.24 249.34,-96.67"/>
<polygon fill="midnightblue" stroke="midnightblue" points="250.37,-100.02 258.95,-93.8 248.36,-93.31 250.37,-100.02"/>
</g>
<!-- Node10 -->
<g id="node9" class="node">
<title>Node10</title>
<g id="a_node9"><a xlink:href="rtkcmn_8cpp.html#ac9a81e78329f3b0dafee87842d6c1027" target="_top" xlink:title="get sun and moon position in ecef">
<polygon fill="white" stroke="red" points="250,-38.5 250,-57.5 322,-57.5 322,-38.5 250,-38.5"/>
<text text-anchor="middle" x="286" y="-45.5" font-family="Helvetica,sans-Serif" font-size="10.00">sunmoonpos</text>
</a>
</g>
</g>
<!-- Node7&#45;&gt;Node10 -->
<g id="edge11" class="edge">
<title>Node7&#45;&gt;Node10</title>
<path fill="none" stroke="midnightblue" d="M170.63,-114.36C186.68,-102.37 215.49,-81.7 242,-67 245.26,-65.19 248.73,-63.42 252.22,-61.74"/>
<polygon fill="midnightblue" stroke="midnightblue" points="253.8,-64.87 261.42,-57.51 250.87,-58.51 253.8,-64.87"/>
</g>
<!-- Node19 -->
<g id="node10" class="node">
<title>Node19</title>
<g id="a_node10"><a xlink:href="structGTime.html#a64394968bbfdecbbeec4ba5134fdb682" target="_top" xlink:title=" ">
<polygon fill="white" stroke="red" points="242,-0.5 242,-19.5 330,-19.5 330,-0.5 242,-0.5"/>
<text text-anchor="middle" x="286" y="-7.5" font-family="Helvetica,sans-Serif" font-size="10.00">GTime::to_string</text>
</a>
</g>
</g>
<!-- Node7&#45;&gt;Node19 -->
<g id="edge12" class="edge">
<title>Node7&#45;&gt;Node19</title>
<path fill="none" stroke="midnightblue" d="M164.33,-114.42C177.06,-95.77 207.52,-54.21 242,-29 244.35,-27.28 246.87,-25.68 249.48,-24.18"/>
<polygon fill="midnightblue" stroke="midnightblue" points="251.24,-27.22 258.55,-19.54 248.05,-20.99 251.24,-27.22"/>
</g>
</g>
</svg>
