<?xml version="1.0" encoding="UTF-8" standalone="no"?>
<!DOCTYPE svg PUBLIC "-//W3C//DTD SVG 1.1//EN"
 "http://www.w3.org/Graphics/SVG/1.1/DTD/svg11.dtd">
<!-- Generated by graphviz version 2.50.0 (20220203.2022)
 -->
<!-- Title: Ipp_check_sphhar Pages: 1 -->
<svg width="377pt" height="66pt"
 viewBox="0.00 0.00 377.00 66.00" xmlns="http://www.w3.org/2000/svg" xmlns:xlink="http://www.w3.org/1999/xlink">
<g id="graph0" class="graph" transform="scale(1 1) rotate(0) translate(4 62)">
<title>Ipp_check_sphhar</title>
<polygon fill="white" stroke="transparent" points="-4,4 -4,-62 373,-62 373,4 -4,4"/>
<!-- Node1 -->
<g id="node1" class="node">
<title>Node1</title>
<g id="a_node1"><a xlink:title=" ">
<polygon fill="#bfbfbf" stroke="black" points="273,-19.5 273,-38.5 369,-38.5 369,-19.5 273,-19.5"/>
<text text-anchor="middle" x="321" y="-26.5" font-family="Helvetica,sans-Serif" font-size="10.00">Ipp_check_sphhar</text>
</a>
</g>
</g>
<!-- Node2 -->
<g id="node2" class="node">
<title>Node2</title>
<g id="a_node2"><a xlink:href="ionoSpherical_8cpp.html#a282feb5c6b09fd90879de5cddaa123bc" target="_top" xlink:title=" ">
<polygon fill="white" stroke="black" points="149,-38.5 149,-57.5 237,-57.5 237,-38.5 149,-38.5"/>
<text text-anchor="middle" x="193" y="-45.5" font-family="Helvetica,sans-Serif" font-size="10.00">ion_vtec_sphhar</text>
</a>
</g>
</g>
<!-- Node1&#45;&gt;Node2 -->
<g id="edge1" class="edge">
<title>Node1&#45;&gt;Node2</title>
<path fill="none" stroke="midnightblue" d="M262.8,-37.63C254.26,-38.91 245.58,-40.22 237.38,-41.46"/>
<polygon fill="midnightblue" stroke="midnightblue" points="263.36,-41.08 272.72,-36.13 262.31,-34.16 263.36,-41.08"/>
</g>
<!-- Node9 -->
<g id="node4" class="node">
<title>Node9</title>
<g id="a_node4"><a xlink:href="ionoMeas_8cpp.html#a6dc09994e73227556cf4b42233b9ff77" target="_top" xlink:title=" ">
<polygon fill="white" stroke="black" points="157,-0.5 157,-19.5 229,-19.5 229,-0.5 157,-0.5"/>
<text text-anchor="middle" x="193" y="-7.5" font-family="Helvetica,sans-Serif" font-size="10.00">Ipp_in_range</text>
</a>
</g>
</g>
<!-- Node1&#45;&gt;Node9 -->
<g id="edge3" class="edge">
<title>Node1&#45;&gt;Node9</title>
<path fill="none" stroke="midnightblue" d="M262.8,-20.38C251.4,-18.66 239.74,-16.9 229.33,-15.33"/>
<polygon fill="midnightblue" stroke="midnightblue" points="262.31,-23.84 272.72,-21.87 263.36,-16.92 262.31,-23.84"/>
</g>
<!-- Node3 -->
<g id="node3" class="node">
<title>Node3</title>
<g id="a_node3"><a xlink:href="ionexWrite_8cpp.html#a9f946c742979e6f65a280d6f0c0a8cc6" target="_top" xlink:title=" ">
<polygon fill="white" stroke="red" points="30,-38.5 30,-57.5 83,-57.5 83,-38.5 30,-38.5"/>
<text text-anchor="middle" x="56.5" y="-45.5" font-family="Helvetica,sans-Serif" font-size="10.00">ion_vtec</text>
</a>
</g>
</g>
<!-- Node2&#45;&gt;Node3 -->
<g id="edge2" class="edge">
<title>Node2&#45;&gt;Node3</title>
<path fill="none" stroke="midnightblue" d="M138.58,-48C119.45,-48 98.76,-48 83.07,-48"/>
<polygon fill="midnightblue" stroke="midnightblue" points="138.7,-51.5 148.7,-48 138.7,-44.5 138.7,-51.5"/>
</g>
<!-- Node10 -->
<g id="node5" class="node">
<title>Node10</title>
<g id="a_node5"><a xlink:href="ionoMeas_8cpp.html#a3dce4bc6a3c8a98b9f14fd6804d330c3" target="_top" xlink:title=" ">
<polygon fill="white" stroke="red" points="0,-0.5 0,-19.5 113,-19.5 113,-0.5 0,-0.5"/>
<text text-anchor="middle" x="56.5" y="-7.5" font-family="Helvetica,sans-Serif" font-size="10.00">update_receivr_measr</text>
</a>
</g>
</g>
<!-- Node9&#45;&gt;Node10 -->
<g id="edge4" class="edge">
<title>Node9&#45;&gt;Node10</title>
<path fill="none" stroke="midnightblue" d="M146.65,-10C135.9,-10 124.31,-10 113.16,-10"/>
<polygon fill="midnightblue" stroke="midnightblue" points="146.66,-13.5 156.66,-10 146.66,-6.5 146.66,-13.5"/>
</g>
</g>
</svg>
