<?xml version="1.0" encoding="UTF-8" standalone="no"?>
<!DOCTYPE svg PUBLIC "-//W3C//DTD SVG 1.1//EN"
 "http://www.w3.org/Graphics/SVG/1.1/DTD/svg11.dtd">
<!-- Generated by graphviz version 2.50.0 (20220203.2022)
 -->
<!-- Title: configure_iono_model_sphcap Pages: 1 -->
<svg width="339pt" height="75pt"
 viewBox="0.00 0.00 339.00 75.00" xmlns="http://www.w3.org/2000/svg" xmlns:xlink="http://www.w3.org/1999/xlink">
<g id="graph0" class="graph" transform="scale(1 1) rotate(0) translate(4 71)">
<title>configure_iono_model_sphcap</title>
<polygon fill="white" stroke="transparent" points="-4,4 -4,-71 335,-71 335,4 -4,4"/>
<!-- Node1 -->
<g id="node1" class="node">
<title>Node1</title>
<g id="a_node1"><a xlink:title=" ">
<polygon fill="#bfbfbf" stroke="black" points="0,-23 0,-53 110,-53 110,-23 0,-23"/>
<text text-anchor="start" x="8" y="-41" font-family="Helvetica,sans-Serif" font-size="10.00">configure_iono_model</text>
<text text-anchor="middle" x="55" y="-30" font-family="Helvetica,sans-Serif" font-size="10.00">_sphcap</text>
</a>
</g>
</g>
<!-- Node2 -->
<g id="node2" class="node">
<title>Node2</title>
<g id="a_node2"><a xlink:href="ionoSphericalCaps_8cpp.html#aeae450fade955270a49bb037102ae974" target="_top" xlink:title=" ">
<polygon fill="white" stroke="black" points="146,-28.5 146,-47.5 202,-47.5 202,-28.5 146,-28.5"/>
<text text-anchor="middle" x="174" y="-35.5" font-family="Helvetica,sans-Serif" font-size="10.00">bisection</text>
</a>
</g>
</g>
<!-- Node1&#45;&gt;Node2 -->
<g id="edge1" class="edge">
<title>Node1&#45;&gt;Node2</title>
<path fill="none" stroke="midnightblue" d="M110.05,-38C118.8,-38 127.7,-38 135.93,-38"/>
<polygon fill="midnightblue" stroke="midnightblue" points="135.95,-41.5 145.95,-38 135.95,-34.5 135.95,-41.5"/>
</g>
<!-- Node3 -->
<g id="node3" class="node">
<title>Node3</title>
<g id="a_node3"><a xlink:href="ionoSphericalCaps_8cpp.html#a704ddd2715658506643c09ff2ec2918a" target="_top" xlink:title=" ">
<polygon fill="white" stroke="red" points="238,-47.5 238,-66.5 331,-66.5 331,-47.5 238,-47.5"/>
<text text-anchor="middle" x="284.5" y="-54.5" font-family="Helvetica,sans-Serif" font-size="10.00">legendre_derivatv</text>
</a>
</g>
</g>
<!-- Node1&#45;&gt;Node3 -->
<g id="edge4" class="edge">
<title>Node1&#45;&gt;Node3</title>
<path fill="none" stroke="midnightblue" d="M110.44,-51.39C122.11,-53.72 134.41,-55.79 146,-57 172.81,-59.8 202.73,-60.13 227.79,-59.62"/>
<polygon fill="midnightblue" stroke="midnightblue" points="227.95,-63.12 237.86,-59.37 227.77,-56.12 227.95,-63.12"/>
</g>
<!-- Node5 -->
<g id="node4" class="node">
<title>Node5</title>
<g id="a_node4"><a xlink:href="ionoSphericalCaps_8cpp.html#af477ddd9f2fb1146ce390c17b7f60ed8" target="_top" xlink:title=" ">
<polygon fill="white" stroke="red" points="238,-0.5 238,-19.5 331,-19.5 331,-0.5 238,-0.5"/>
<text text-anchor="middle" x="284.5" y="-7.5" font-family="Helvetica,sans-Serif" font-size="10.00">legendre_function</text>
</a>
</g>
</g>
<!-- Node1&#45;&gt;Node5 -->
<g id="edge5" class="edge">
<title>Node1&#45;&gt;Node5</title>
<path fill="none" stroke="midnightblue" d="M110.04,-25.29C121.83,-22.88 134.29,-20.61 146,-19 172.77,-15.32 202.68,-13.13 227.75,-11.84"/>
<polygon fill="midnightblue" stroke="midnightblue" points="228,-15.33 237.82,-11.36 227.66,-8.34 228,-15.33"/>
</g>
<!-- Node2&#45;&gt;Node3 -->
<g id="edge2" class="edge">
<title>Node2&#45;&gt;Node3</title>
<path fill="none" stroke="midnightblue" d="M202.1,-42.75C209.94,-44.12 218.81,-45.67 227.73,-47.23"/>
<polygon fill="midnightblue" stroke="midnightblue" points="227.31,-50.71 237.77,-48.99 228.52,-43.82 227.31,-50.71"/>
</g>
<!-- Node2&#45;&gt;Node5 -->
<g id="edge3" class="edge">
<title>Node2&#45;&gt;Node5</title>
<path fill="none" stroke="midnightblue" d="M202.1,-31.01C212.59,-28.3 224.91,-25.12 236.75,-22.07"/>
<polygon fill="midnightblue" stroke="midnightblue" points="237.72,-25.43 246.52,-19.54 235.97,-18.65 237.72,-25.43"/>
</g>
</g>
</svg>
