<?xml version="1.0" encoding="UTF-8" standalone="no"?>
<!DOCTYPE svg PUBLIC "-//W3C//DTD SVG 1.1//EN"
 "http://www.w3.org/Graphics/SVG/1.1/DTD/svg11.dtd">
<!-- Generated by graphviz version 2.50.0 (20220203.2022)
 -->
<!-- Title: legendre_derivatv Pages: 1 -->
<svg width="339pt" height="53pt"
 viewBox="0.00 0.00 339.00 52.50" xmlns="http://www.w3.org/2000/svg" xmlns:xlink="http://www.w3.org/1999/xlink">
<g id="graph0" class="graph" transform="scale(1 1) rotate(0) translate(4 48.5)">
<title>legendre_derivatv</title>
<polygon fill="white" stroke="transparent" points="-4,4 -4,-48.5 335,-48.5 335,4 -4,4"/>
<!-- Node1 -->
<g id="node1" class="node">
<title>Node1</title>
<g id="a_node1"><a xlink:title=" ">
<polygon fill="#bfbfbf" stroke="black" points="238,-6 238,-25 331,-25 331,-6 238,-6"/>
<text text-anchor="middle" x="284.5" y="-13" font-family="Helvetica,sans-Serif" font-size="10.00">legendre_derivatv</text>
</a>
</g>
</g>
<!-- Node2 -->
<g id="node2" class="node">
<title>Node2</title>
<g id="a_node2"><a xlink:href="ionoSphericalCaps_8cpp.html#aeae450fade955270a49bb037102ae974" target="_top" xlink:title=" ">
<polygon fill="white" stroke="black" points="146,-25 146,-44 202,-44 202,-25 146,-25"/>
<text text-anchor="middle" x="174" y="-32" font-family="Helvetica,sans-Serif" font-size="10.00">bisection</text>
</a>
</g>
</g>
<!-- Node1&#45;&gt;Node2 -->
<g id="edge1" class="edge">
<title>Node1&#45;&gt;Node2</title>
<path fill="none" stroke="midnightblue" d="M227.74,-25.26C218.81,-26.83 209.93,-28.38 202.08,-29.76"/>
<polygon fill="midnightblue" stroke="midnightblue" points="228.55,-28.68 237.8,-23.5 227.35,-21.78 228.55,-28.68"/>
</g>
<!-- Node3 -->
<g id="node3" class="node">
<title>Node3</title>
<g id="a_node3"><a xlink:href="ionoSphericalCaps_8cpp.html#ab9253b7428bc4c4903bd59d5d68f243e" target="_top" xlink:title=" ">
<polygon fill="white" stroke="red" points="0,-0.5 0,-30.5 110,-30.5 110,-0.5 0,-0.5"/>
<text text-anchor="start" x="8" y="-18.5" font-family="Helvetica,sans-Serif" font-size="10.00">configure_iono_model</text>
<text text-anchor="middle" x="55" y="-7.5" font-family="Helvetica,sans-Serif" font-size="10.00">_sphcap</text>
</a>
</g>
</g>
<!-- Node1&#45;&gt;Node3 -->
<g id="edge3" class="edge">
<title>Node1&#45;&gt;Node3</title>
<path fill="none" stroke="midnightblue" d="M227.46,-15.5C191.67,-15.5 145.5,-15.5 110.1,-15.5"/>
<polygon fill="midnightblue" stroke="midnightblue" points="227.74,-19 237.74,-15.5 227.74,-12 227.74,-19"/>
</g>
<!-- Node2&#45;&gt;Node3 -->
<g id="edge2" class="edge">
<title>Node2&#45;&gt;Node3</title>
<path fill="none" stroke="midnightblue" d="M135.9,-28.48C127.72,-27.15 118.88,-25.71 110.18,-24.3"/>
<polygon fill="midnightblue" stroke="midnightblue" points="135.43,-31.94 145.86,-30.09 136.55,-25.04 135.43,-31.94"/>
</g>
</g>
</svg>
