<?xml version="1.0" encoding="UTF-8" standalone="no"?>
<!DOCTYPE svg PUBLIC "-//W3C//DTD SVG 1.1//EN"
 "http://www.w3.org/Graphics/SVG/1.1/DTD/svg11.dtd">
<!-- Generated by graphviz version 2.50.0 (20220203.2022)
 -->
<!-- Title: iau_ir Pages: 1 -->
<svg width="240pt" height="142pt"
 viewBox="0.00 0.00 240.00 142.00" xmlns="http://www.w3.org/2000/svg" xmlns:xlink="http://www.w3.org/1999/xlink">
<g id="graph0" class="graph" transform="scale(1 1) rotate(0) translate(4 138)">
<title>iau_ir</title>
<polygon fill="white" stroke="transparent" points="-4,4 -4,-138 236,-138 236,4 -4,4"/>
<!-- Node1 -->
<g id="node1" class="node">
<title>Node1</title>
<g id="a_node1"><a xlink:title=" ">
<polygon fill="#bfbfbf" stroke="black" points="192,-57.5 192,-76.5 232,-76.5 232,-57.5 192,-57.5"/>
<text text-anchor="middle" x="212" y="-64.5" font-family="Helvetica,sans-Serif" font-size="10.00">iau_ir</text>
</a>
</g>
</g>
<!-- Node2 -->
<g id="node2" class="node">
<title>Node2</title>
<g id="a_node2"><a xlink:href="bp00_8for.html#a3fc3bdf84399c71da9637c97a5dbd8af" target="_top" xlink:title=" ">
<polygon fill="white" stroke="black" points="96,-114.5 96,-133.5 152,-133.5 152,-114.5 96,-114.5"/>
<text text-anchor="middle" x="124" y="-121.5" font-family="Helvetica,sans-Serif" font-size="10.00">iau_bp00</text>
</a>
</g>
</g>
<!-- Node1&#45;&gt;Node2 -->
<g id="edge1" class="edge">
<title>Node1&#45;&gt;Node2</title>
<path fill="none" stroke="midnightblue" d="M189.36,-82.35C179.31,-89.39 167.13,-97.75 156,-105 151.13,-108.17 145.76,-111.51 140.88,-114.5"/>
<polygon fill="midnightblue" stroke="midnightblue" points="191.41,-85.19 197.58,-76.58 187.38,-79.47 191.41,-85.19"/>
</g>
<!-- Node42 -->
<g id="node4" class="node">
<title>Node42</title>
<g id="a_node4"><a xlink:href="c2ixys_8for.html#a411d8203fea8a15a1df158d3b2a3e174" target="_top" xlink:title=" ">
<polygon fill="white" stroke="black" points="93,-38.5 93,-57.5 155,-57.5 155,-38.5 93,-38.5"/>
<text text-anchor="middle" x="124" y="-45.5" font-family="Helvetica,sans-Serif" font-size="10.00">iau_c2ixys</text>
</a>
</g>
</g>
<!-- Node1&#45;&gt;Node42 -->
<g id="edge3" class="edge">
<title>Node1&#45;&gt;Node42</title>
<path fill="none" stroke="midnightblue" d="M181.93,-60.58C173.31,-58.67 163.86,-56.59 155.18,-54.67"/>
<polygon fill="midnightblue" stroke="midnightblue" points="181.39,-64.04 191.91,-62.78 182.9,-57.21 181.39,-64.04"/>
</g>
<!-- Node43 -->
<g id="node6" class="node">
<title>Node43</title>
<g id="a_node6"><a xlink:href="numat_8for.html#a392b40077f51844d6cf0c4ae04b75893" target="_top" xlink:title=" ">
<polygon fill="white" stroke="black" points="93,-76.5 93,-95.5 155,-95.5 155,-76.5 93,-76.5"/>
<text text-anchor="middle" x="124" y="-83.5" font-family="Helvetica,sans-Serif" font-size="10.00">iau_numat</text>
</a>
</g>
</g>
<!-- Node1&#45;&gt;Node43 -->
<g id="edge5" class="edge">
<title>Node1&#45;&gt;Node43</title>
<path fill="none" stroke="midnightblue" d="M181.93,-73.42C173.31,-75.33 163.86,-77.41 155.18,-79.33"/>
<polygon fill="midnightblue" stroke="midnightblue" points="182.9,-76.79 191.91,-71.22 181.39,-69.96 182.9,-76.79"/>
</g>
<!-- Node44 -->
<g id="node7" class="node">
<title>Node44</title>
<g id="a_node7"><a xlink:href="pom00_8for.html#a73becc47749dc2c91dad6753b5a6a504" target="_top" xlink:title=" ">
<polygon fill="white" stroke="black" points="92,-0.5 92,-19.5 156,-19.5 156,-0.5 92,-0.5"/>
<text text-anchor="middle" x="124" y="-7.5" font-family="Helvetica,sans-Serif" font-size="10.00">iau_pom00</text>
</a>
</g>
</g>
<!-- Node1&#45;&gt;Node44 -->
<g id="edge7" class="edge">
<title>Node1&#45;&gt;Node44</title>
<path fill="none" stroke="midnightblue" d="M189.36,-51.65C179.31,-44.61 167.13,-36.25 156,-29 151.13,-25.83 145.76,-22.49 140.88,-19.5"/>
<polygon fill="midnightblue" stroke="midnightblue" points="187.38,-54.53 197.58,-57.42 191.41,-48.81 187.38,-54.53"/>
</g>
<!-- Node3 -->
<g id="node3" class="node">
<title>Node3</title>
<g id="a_node3"><a xlink:href="pn00_8for.html#a31b905e027b17107c0e56061a6850c13" target="_top" xlink:title=" ">
<polygon fill="white" stroke="red" points="0,-85.5 0,-104.5 56,-104.5 56,-85.5 0,-85.5"/>
<text text-anchor="middle" x="28" y="-92.5" font-family="Helvetica,sans-Serif" font-size="10.00">iau_pn00</text>
</a>
</g>
</g>
<!-- Node2&#45;&gt;Node3 -->
<g id="edge2" class="edge">
<title>Node2&#45;&gt;Node3</title>
<path fill="none" stroke="midnightblue" d="M86.1,-112.62C76.11,-109.53 65.48,-106.25 56.13,-103.37"/>
<polygon fill="midnightblue" stroke="midnightblue" points="85.22,-116.01 95.81,-115.61 87.29,-109.32 85.22,-116.01"/>
</g>
<!-- Node7 -->
<g id="node5" class="node">
<title>Node7</title>
<g id="a_node5"><a xlink:href="crs__trs_8f90.html#ad60041f94ed21d7dccece31ca956443c" target="_top" xlink:title=" ">
<polygon fill="white" stroke="red" points="4.5,-28.5 4.5,-47.5 51.5,-47.5 51.5,-28.5 4.5,-28.5"/>
<text text-anchor="middle" x="28" y="-35.5" font-family="Helvetica,sans-Serif" font-size="10.00">crs_trs</text>
</a>
</g>
</g>
<!-- Node42&#45;&gt;Node7 -->
<g id="edge4" class="edge">
<title>Node42&#45;&gt;Node7</title>
<path fill="none" stroke="midnightblue" d="M82.94,-43.74C72.21,-42.6 60.99,-41.4 51.57,-40.4"/>
<polygon fill="midnightblue" stroke="midnightblue" points="82.69,-47.23 93,-44.81 83.43,-40.27 82.69,-47.23"/>
</g>
<!-- Node43&#45;&gt;Node3 -->
<g id="edge6" class="edge">
<title>Node43&#45;&gt;Node3</title>
<path fill="none" stroke="midnightblue" d="M83,-89.83C73.95,-90.7 64.55,-91.6 56.17,-92.4"/>
<polygon fill="midnightblue" stroke="midnightblue" points="83.38,-93.31 93,-88.87 82.71,-86.34 83.38,-93.31"/>
</g>
<!-- Node44&#45;&gt;Node7 -->
<g id="edge8" class="edge">
<title>Node44&#45;&gt;Node7</title>
<path fill="none" stroke="midnightblue" d="M82.14,-22.17C71.69,-25.28 60.83,-28.52 51.67,-31.25"/>
<polygon fill="midnightblue" stroke="midnightblue" points="83.38,-25.46 91.96,-19.25 81.38,-18.75 83.38,-25.46"/>
</g>
</g>
</svg>
