<?xml version="1.0" encoding="UTF-8" standalone="no"?>
<!DOCTYPE svg PUBLIC "-//W3C//DTD SVG 1.1//EN"
 "http://www.w3.org/Graphics/SVG/1.1/DTD/svg11.dtd">
<!-- Generated by graphviz version 2.50.0 (20220203.2022)
 -->
<!-- Title: iau_jd2cal Pages: 1 -->
<svg width="704pt" height="1239pt"
 viewBox="0.00 0.00 704.00 1239.15" xmlns="http://www.w3.org/2000/svg" xmlns:xlink="http://www.w3.org/1999/xlink">
<g id="graph0" class="graph" transform="scale(1 1) rotate(0) translate(4 1235.15)">
<title>iau_jd2cal</title>
<polygon fill="white" stroke="transparent" points="-4,4 -4,-1235.15 700,-1235.15 700,4 -4,4"/>
<!-- Node1 -->
<g id="node1" class="node">
<title>Node1</title>
<g id="a_node1"><a xlink:title=" ">
<polygon fill="#bfbfbf" stroke="black" points="636,-829 636,-848 696,-848 696,-829 636,-829"/>
<text text-anchor="middle" x="666" y="-836" font-family="Helvetica,sans-Serif" font-size="10.00">iau_jd2cal</text>
</a>
</g>
</g>
<!-- Node2 -->
<g id="node2" class="node">
<title>Node2</title>
<g id="a_node2"><a xlink:href="namespacem__gfc3.html#a59f4ebb47172a72ea3e1785e765ad89c" target="_top" xlink:title=" ">
<polygon fill="white" stroke="black" points="482,-134 482,-153 575,-153 575,-134 482,-134"/>
<text text-anchor="middle" x="528.5" y="-141" font-family="Helvetica,sans-Serif" font-size="10.00">m_gfc3::gfc3_iers</text>
</a>
</g>
</g>
<!-- Node1&#45;&gt;Node2 -->
<g id="edge1" class="edge">
<title>Node1&#45;&gt;Node2</title>
<path fill="none" stroke="midnightblue" d="M664.11,-818.6C659.32,-714.81 635.52,-238.09 600,-183.5 590.64,-169.11 574.19,-159.35 559.53,-153.08"/>
<polygon fill="midnightblue" stroke="midnightblue" points="660.62,-818.83 664.57,-828.66 667.61,-818.51 660.62,-818.83"/>
</g>
<!-- Node4 -->
<g id="node4" class="node">
<title>Node4</title>
<g id="a_node4"><a xlink:href="namespacem__pod__gnss.html#acc5f9a213cb0b59b5e4d35e4d0ebdc72" target="_top" xlink:title=" ">
<polygon fill="white" stroke="black" points="0,-126 0,-145 119,-145 119,-126 0,-126"/>
<text text-anchor="middle" x="59.5" y="-133" font-family="Helvetica,sans-Serif" font-size="10.00">m_pod_gnss::pod_gnss</text>
</a>
</g>
</g>
<!-- Node1&#45;&gt;Node4 -->
<g id="edge6" class="edge">
<title>Node1&#45;&gt;Node4</title>
<path fill="none" stroke="midnightblue" d="M664.64,-818.64C662.44,-708.52 649.31,-176.11 600,-124.5 531.33,-52.62 250.78,-51.85 155,-78.5 121.77,-87.74 88.55,-112.17 71.76,-125.86"/>
<polygon fill="midnightblue" stroke="midnightblue" points="661.14,-819.02 664.84,-828.95 668.14,-818.88 661.14,-819.02"/>
</g>
<!-- Node5 -->
<g id="node5" class="node">
<title>Node5</title>
<g id="a_node5"><a xlink:href="jdcalf_8for.html#a0e80a55760bda3d47204b98752b98340" target="_top" xlink:title=" ">
<polygon fill="white" stroke="black" points="499.5,-1038 499.5,-1057 557.5,-1057 557.5,-1038 499.5,-1038"/>
<text text-anchor="middle" x="528.5" y="-1045" font-family="Helvetica,sans-Serif" font-size="10.00">iau_jdcalf</text>
</a>
</g>
</g>
<!-- Node1&#45;&gt;Node5 -->
<g id="edge4" class="edge">
<title>Node1&#45;&gt;Node5</title>
<path fill="none" stroke="midnightblue" d="M664.1,-858.44C661.24,-897.06 649.37,-982.3 600,-1028.5 588.62,-1039.15 571.9,-1043.96 557.6,-1046.07"/>
<polygon fill="midnightblue" stroke="midnightblue" points="667.61,-858.24 664.72,-848.05 660.63,-857.82 667.61,-858.24"/>
</g>
<!-- Node6 -->
<g id="node6" class="node">
<title>Node6</title>
<g id="a_node6"><a xlink:href="main__time_8f95.html#a79aac165f1718562f0dc60b59453ca28" target="_top" xlink:title=" ">
<polygon fill="white" stroke="black" points="497.5,-1000 497.5,-1019 559.5,-1019 559.5,-1000 497.5,-1000"/>
<text text-anchor="middle" x="528.5" y="-1007" font-family="Helvetica,sans-Serif" font-size="10.00">main_time</text>
</a>
</g>
</g>
<!-- Node1&#45;&gt;Node6 -->
<g id="edge5" class="edge">
<title>Node1&#45;&gt;Node6</title>
<path fill="none" stroke="midnightblue" d="M662.21,-858.03C656.52,-890.46 640.52,-955.32 600,-990.5 588.9,-1000.14 573.38,-1004.95 559.73,-1007.32"/>
<polygon fill="midnightblue" stroke="midnightblue" points="665.69,-858.44 663.81,-848.01 658.77,-857.33 665.69,-858.44"/>
</g>
<!-- Node7 -->
<g id="node7" class="node">
<title>Node7</title>
<g id="a_node7"><a xlink:href="namespacem__satmetadata.html#a00402093827c5202ee7e8ceb74e9a2f7" target="_top" xlink:title=" ">
<polygon fill="white" stroke="black" points="457,-962 457,-981 600,-981 600,-962 457,-962"/>
<text text-anchor="middle" x="528.5" y="-969" font-family="Helvetica,sans-Serif" font-size="10.00">m_satmetadata::satmetadata</text>
</a>
</g>
</g>
<!-- Node1&#45;&gt;Node7 -->
<g id="edge7" class="edge">
<title>Node1&#45;&gt;Node7</title>
<path fill="none" stroke="midnightblue" d="M658.33,-857.73C648.97,-882 629.68,-923.47 600,-947.5 592.26,-953.76 582.8,-958.43 573.35,-961.9"/>
<polygon fill="midnightblue" stroke="midnightblue" points="661.67,-858.8 661.84,-848.2 655.1,-856.38 661.67,-858.8"/>
</g>
<!-- Node8 -->
<g id="node8" class="node">
<title>Node8</title>
<g id="a_node8"><a xlink:href="namespacem__statorbit.html#a56a49355e7e28cab9185c86483b3e452" target="_top" xlink:title=" ">
<polygon fill="white" stroke="black" points="157.5,-1152 157.5,-1171 262.5,-1171 262.5,-1152 157.5,-1152"/>
<text text-anchor="middle" x="210" y="-1159" font-family="Helvetica,sans-Serif" font-size="10.00">m_statorbit::statorbit</text>
</a>
</g>
</g>
<!-- Node1&#45;&gt;Node8 -->
<g id="edge8" class="edge">
<title>Node1&#45;&gt;Node8</title>
<path fill="none" stroke="midnightblue" d="M664.84,-858.12C663.44,-901.18 654.28,-1005.05 600,-1066.5 514.28,-1163.54 347.39,-1169.67 262.81,-1165.8"/>
<polygon fill="midnightblue" stroke="midnightblue" points="668.34,-858.17 665.05,-848.1 661.34,-858.02 668.34,-858.17"/>
</g>
<!-- Node12 -->
<g id="node11" class="node">
<title>Node12</title>
<g id="a_node11"><a xlink:href="tide__pole__oc_8f90.html#ac65b276bb335236d9760f2e74a262793" target="_top" xlink:title=" ">
<polygon fill="white" stroke="black" points="325.5,-1114 325.5,-1133 396.5,-1133 396.5,-1114 325.5,-1114"/>
<text text-anchor="middle" x="361" y="-1121" font-family="Helvetica,sans-Serif" font-size="10.00">tide_pole_oc</text>
</a>
</g>
</g>
<!-- Node1&#45;&gt;Node12 -->
<g id="edge11" class="edge">
<title>Node1&#45;&gt;Node12</title>
<path fill="none" stroke="midnightblue" d="M653.72,-856.48C642.22,-873.37 622.84,-898.14 600,-912.5 544.13,-947.63 502.72,-904.91 457,-952.5 408.91,-1002.57 468.11,-1053.51 421,-1104.5 414.57,-1111.46 405.59,-1115.87 396.57,-1118.68"/>
<polygon fill="midnightblue" stroke="midnightblue" points="656.71,-858.3 659.28,-848.02 650.86,-854.46 656.71,-858.3"/>
</g>
<!-- Node24 -->
<g id="node15" class="node">
<title>Node24</title>
<g id="a_node15"><a xlink:href="tide__pole__se_8f90.html#aa070dac97310c40a3875f8aca0ad336f" target="_top" xlink:title=" ">
<polygon fill="white" stroke="black" points="325.5,-1076 325.5,-1095 396.5,-1095 396.5,-1076 325.5,-1076"/>
<text text-anchor="middle" x="361" y="-1083" font-family="Helvetica,sans-Serif" font-size="10.00">tide_pole_se</text>
</a>
</g>
</g>
<!-- Node1&#45;&gt;Node24 -->
<g id="edge15" class="edge">
<title>Node1&#45;&gt;Node24</title>
<path fill="none" stroke="midnightblue" d="M641.97,-853.77C629.85,-861.33 614.52,-870.18 600,-876.5 539.15,-902.99 502.69,-871.37 457,-919.5 410.69,-968.28 466.84,-1017.27 421,-1066.5 414.55,-1073.43 405.56,-1077.84 396.54,-1080.65"/>
<polygon fill="midnightblue" stroke="midnightblue" points="644.01,-856.62 650.55,-848.29 640.24,-850.72 644.01,-856.62"/>
</g>
<!-- Node25 -->
<g id="node16" class="node">
<title>Node25</title>
<g id="a_node16"><a xlink:href="time__GPS_8f90.html#abc2a33c3ed6bda1d04db6c1e5ae6d0f2" target="_top" xlink:title=" ">
<polygon fill="white" stroke="black" points="500.5,-848 500.5,-867 556.5,-867 556.5,-848 500.5,-848"/>
<text text-anchor="middle" x="528.5" y="-855" font-family="Helvetica,sans-Serif" font-size="10.00">time_gps</text>
</a>
</g>
</g>
<!-- Node1&#45;&gt;Node25 -->
<g id="edge19" class="edge">
<title>Node1&#45;&gt;Node25</title>
<path fill="none" stroke="midnightblue" d="M625.83,-843.99C603.66,-847.1 576.5,-850.91 556.67,-853.69"/>
<polygon fill="midnightblue" stroke="midnightblue" points="626.51,-847.43 635.93,-842.58 625.54,-840.5 626.51,-847.43"/>
</g>
<!-- Node42 -->
<g id="node26" class="node">
<title>Node42</title>
<g id="a_node26"><a xlink:href="namespacem__writeorbit__multi.html#a417e83d6d78aea1b32e8b66b2a8efde0" target="_top" xlink:title=" ">
<polygon fill="white" stroke="black" points="11.5,-1090.5 11.5,-1120.5 107.5,-1120.5 107.5,-1090.5 11.5,-1090.5"/>
<text text-anchor="start" x="19.5" y="-1108.5" font-family="Helvetica,sans-Serif" font-size="10.00">m_writeorbit_multi</text>
<text text-anchor="middle" x="59.5" y="-1097.5" font-family="Helvetica,sans-Serif" font-size="10.00">::writeorbit_multi</text>
</a>
</g>
</g>
<!-- Node1&#45;&gt;Node42 -->
<g id="edge76" class="edge">
<title>Node1&#45;&gt;Node42</title>
<path fill="none" stroke="midnightblue" d="M663.02,-858.03C656.84,-915.39 636.1,-1081.71 600,-1120.5 464.02,-1266.57 343.45,-1246.19 155,-1180.5 120.98,-1168.64 90.02,-1138.86 73.36,-1120.6"/>
<polygon fill="midnightblue" stroke="midnightblue" points="666.5,-858.39 664.07,-848.08 659.54,-857.66 666.5,-858.39"/>
</g>
<!-- Node45 -->
<g id="node28" class="node">
<title>Node45</title>
<g id="a_node28"><a xlink:href="time__TAI_8f90.html#a100297f335efa93736f0ef563a5d0de0" target="_top" xlink:title=" ">
<polygon fill="white" stroke="black" points="503,-810 503,-829 554,-829 554,-810 503,-810"/>
<text text-anchor="middle" x="528.5" y="-817" font-family="Helvetica,sans-Serif" font-size="10.00">time_tai</text>
</a>
</g>
</g>
<!-- Node1&#45;&gt;Node45 -->
<g id="edge37" class="edge">
<title>Node1&#45;&gt;Node45</title>
<path fill="none" stroke="midnightblue" d="M625.79,-833C602.78,-829.78 574.4,-825.8 554.43,-823"/>
<polygon fill="midnightblue" stroke="midnightblue" points="625.54,-836.5 635.93,-834.42 626.51,-829.57 625.54,-836.5"/>
</g>
<!-- Node46 -->
<g id="node29" class="node">
<title>Node46</title>
<g id="a_node29"><a xlink:href="time__TT_8f90.html#aac4be73ca07f0d71843391b034a7d20e" target="_top" xlink:title=" ">
<polygon fill="white" stroke="black" points="505,-525 505,-544 552,-544 552,-525 505,-525"/>
<text text-anchor="middle" x="528.5" y="-532" font-family="Helvetica,sans-Serif" font-size="10.00">time_tt</text>
</a>
</g>
</g>
<!-- Node1&#45;&gt;Node46 -->
<g id="edge43" class="edge">
<title>Node1&#45;&gt;Node46</title>
<path fill="none" stroke="midnightblue" d="M656.56,-819.57C630.66,-761.46 552.87,-586.94 533.77,-544.08"/>
<polygon fill="midnightblue" stroke="midnightblue" points="653.38,-821.02 660.65,-828.73 659.77,-818.17 653.38,-821.02"/>
</g>
<!-- Node62 -->
<g id="node37" class="node">
<title>Node62</title>
<g id="a_node37"><a xlink:href="time__TT__sec_8f90.html#a31aa62c537a593dd783353bda39fe608" target="_top" xlink:title=" ">
<polygon fill="white" stroke="black" points="327,-164 327,-183 395,-183 395,-164 327,-164"/>
<text text-anchor="middle" x="361" y="-171" font-family="Helvetica,sans-Serif" font-size="10.00">time_tt_sec</text>
</a>
</g>
</g>
<!-- Node1&#45;&gt;Node62 -->
<g id="edge61" class="edge">
<title>Node1&#45;&gt;Node62</title>
<path fill="none" stroke="midnightblue" d="M664.32,-818.68C661.21,-737.18 646.54,-428.29 600,-344.5 550.01,-254.51 509.46,-250.16 421,-197.5 411.5,-191.84 400.42,-186.94 390.44,-183.07"/>
<polygon fill="midnightblue" stroke="midnightblue" points="660.83,-819.13 664.69,-829 667.83,-818.88 660.83,-819.13"/>
</g>
<!-- Node63 -->
<g id="node38" class="node">
<title>Node63</title>
<g id="a_node38"><a xlink:href="time__UTC_8f90.html#a5c5b31c8678ff9da6694a16d7bb9387f" target="_top" xlink:title=" ">
<polygon fill="white" stroke="black" points="501.5,-772 501.5,-791 555.5,-791 555.5,-772 501.5,-772"/>
<text text-anchor="middle" x="528.5" y="-779" font-family="Helvetica,sans-Serif" font-size="10.00">time_utc</text>
</a>
</g>
</g>
<!-- Node1&#45;&gt;Node63 -->
<g id="edge66" class="edge">
<title>Node1&#45;&gt;Node63</title>
<path fill="none" stroke="midnightblue" d="M642.52,-823.36C630.35,-815.68 614.8,-806.69 600,-800.5 585.85,-794.58 569.33,-790.01 555.83,-786.84"/>
<polygon fill="midnightblue" stroke="midnightblue" points="640.81,-826.42 651.11,-828.91 644.61,-820.54 640.81,-826.42"/>
</g>
<!-- Node64 -->
<g id="node39" class="node">
<title>Node64</title>
<g id="a_node39"><a xlink:href="namespacem__write__orb2sp3.html#ac1a6f6379553bde154dadb6d4c09e807" target="_top" xlink:title=" ">
<polygon fill="white" stroke="black" points="470.5,-354.5 470.5,-384.5 586.5,-384.5 586.5,-354.5 470.5,-354.5"/>
<text text-anchor="start" x="478.5" y="-372.5" font-family="Helvetica,sans-Serif" font-size="10.00">m_write_orb2sp3::write</text>
<text text-anchor="middle" x="528.5" y="-361.5" font-family="Helvetica,sans-Serif" font-size="10.00">_orb2sp3</text>
</a>
</g>
</g>
<!-- Node1&#45;&gt;Node64 -->
<g id="edge73" class="edge">
<title>Node1&#45;&gt;Node64</title>
<path fill="none" stroke="midnightblue" d="M662.78,-818.73C656.65,-767.54 637.44,-626.9 600,-515.5 583.23,-465.61 553.34,-410.7 538.45,-384.73"/>
<polygon fill="midnightblue" stroke="midnightblue" points="659.31,-819.23 663.95,-828.76 666.27,-818.42 659.31,-819.23"/>
</g>
<!-- Node29 -->
<g id="node40" class="node">
<title>Node29</title>
<g id="a_node40"><a xlink:href="namespacem__write__orbex.html#a5a00de55ee2834d59d6d5f90dcb5cb08" target="_top" xlink:title=" ">
<polygon fill="white" stroke="black" points="476,-0.5 476,-30.5 581,-30.5 581,-0.5 476,-0.5"/>
<text text-anchor="start" x="484" y="-18.5" font-family="Helvetica,sans-Serif" font-size="10.00">m_write_orbex::write</text>
<text text-anchor="middle" x="528.5" y="-7.5" font-family="Helvetica,sans-Serif" font-size="10.00">_orbex</text>
</a>
</g>
</g>
<!-- Node1&#45;&gt;Node29 -->
<g id="edge75" class="edge">
<title>Node1&#45;&gt;Node29</title>
<path fill="none" stroke="midnightblue" d="M664.58,-818.51C661.99,-701.66 646.6,-110.07 600,-45.5 595.17,-38.81 588.55,-33.6 581.28,-29.55"/>
<polygon fill="midnightblue" stroke="midnightblue" points="661.09,-818.9 664.81,-828.83 668.09,-818.75 661.09,-818.9"/>
</g>
<!-- Node3 -->
<g id="node3" class="node">
<title>Node3</title>
<g id="a_node3"><a xlink:href="prm__gravity_8f95.html#a848806584d31d30a5b91d756d71d468e" target="_top" xlink:title=" ">
<polygon fill="white" stroke="black" points="176.5,-88 176.5,-107 243.5,-107 243.5,-88 176.5,-88"/>
<text text-anchor="middle" x="210" y="-95" font-family="Helvetica,sans-Serif" font-size="10.00">prm_gravity</text>
</a>
</g>
</g>
<!-- Node2&#45;&gt;Node3 -->
<g id="edge2" class="edge">
<title>Node2&#45;&gt;Node3</title>
<path fill="none" stroke="midnightblue" d="M471.57,-135.37C405.4,-125.75 297.46,-110.07 243.64,-102.24"/>
<polygon fill="midnightblue" stroke="midnightblue" points="471.42,-138.89 481.82,-136.86 472.42,-131.96 471.42,-138.89"/>
</g>
<!-- Node3&#45;&gt;Node4 -->
<g id="edge3" class="edge">
<title>Node3&#45;&gt;Node4</title>
<path fill="none" stroke="midnightblue" d="M166.47,-108.38C144.77,-113.94 118.62,-120.63 97.72,-125.98"/>
<polygon fill="midnightblue" stroke="midnightblue" points="167.59,-111.71 176.41,-105.84 165.86,-104.93 167.59,-111.71"/>
</g>
<!-- Node9 -->
<g id="node9" class="node">
<title>Node9</title>
<g id="a_node9"><a xlink:href="namespacem__orbext.html#a5d9ae5d81af99b9d31eee5b6ec19d51f" target="_top" xlink:title=" ">
<polygon fill="white" stroke="red" points="16,-506 16,-525 103,-525 103,-506 16,-506"/>
<text text-anchor="middle" x="59.5" y="-513" font-family="Helvetica,sans-Serif" font-size="10.00">m_orbext::orbext</text>
</a>
</g>
</g>
<!-- Node8&#45;&gt;Node9 -->
<g id="edge9" class="edge">
<title>Node8&#45;&gt;Node9</title>
<path fill="none" stroke="midnightblue" d="M158.16,-1145.9C157.03,-1144.84 155.97,-1143.71 155,-1142.5 114.65,-1092.46 128.45,-919.08 119,-855.5 99.49,-724.27 69.95,-565.6 62.34,-525.21"/>
<polygon fill="midnightblue" stroke="midnightblue" points="156.28,-1148.87 166.43,-1151.91 160.4,-1143.2 156.28,-1148.87"/>
</g>
<!-- Node11 -->
<g id="node10" class="node">
<title>Node11</title>
<g id="a_node10"><a xlink:href="namespacem__orbext2.html#a8edc32bdc671004ee3dcaa85b4f1f176" target="_top" xlink:title=" ">
<polygon fill="white" stroke="red" points="10.5,-865 10.5,-884 108.5,-884 108.5,-865 10.5,-865"/>
<text text-anchor="middle" x="59.5" y="-872" font-family="Helvetica,sans-Serif" font-size="10.00">m_orbext2::orbext2</text>
</a>
</g>
</g>
<!-- Node8&#45;&gt;Node11 -->
<g id="edge10" class="edge">
<title>Node8&#45;&gt;Node11</title>
<path fill="none" stroke="midnightblue" d="M159.67,-1146.52C158.02,-1145.29 156.45,-1143.95 155,-1142.5 115.92,-1103.44 72.88,-927.55 62.73,-884.18"/>
<polygon fill="midnightblue" stroke="midnightblue" points="158.19,-1149.72 168.56,-1151.9 161.81,-1143.73 158.19,-1149.72"/>
</g>
<!-- Node13 -->
<g id="node12" class="node">
<title>Node13</title>
<g id="a_node12"><a xlink:href="force__sum_8f95.html#a757e2ccbe362bf3b01a51e2c0431a490" target="_top" xlink:title=" ">
<polygon fill="white" stroke="red" points="179,-1038 179,-1057 241,-1057 241,-1038 179,-1038"/>
<text text-anchor="middle" x="210" y="-1045" font-family="Helvetica,sans-Serif" font-size="10.00">force_sum</text>
</a>
</g>
</g>
<!-- Node12&#45;&gt;Node13 -->
<g id="edge12" class="edge">
<title>Node12&#45;&gt;Node13</title>
<path fill="none" stroke="midnightblue" d="M315.91,-1112.04C310.7,-1109.9 305.61,-1107.4 301,-1104.5 281.31,-1092.1 284.52,-1079.16 265,-1066.5 257.75,-1061.8 249.19,-1058.09 241.04,-1055.26"/>
<polygon fill="midnightblue" stroke="midnightblue" points="314.73,-1115.34 325.32,-1115.51 317.15,-1108.77 314.73,-1115.34"/>
</g>
<!-- Node20 -->
<g id="node13" class="node">
<title>Node20</title>
<g id="a_node13"><a xlink:href="namespacem__pd__force.html#a942ea044856d62ee03ee7623436bc97e" target="_top" xlink:title=" ">
<polygon fill="white" stroke="red" points="155,-1076 155,-1095 265,-1095 265,-1076 155,-1076"/>
<text text-anchor="middle" x="210" y="-1083" font-family="Helvetica,sans-Serif" font-size="10.00">m_pd_force::pd_force</text>
</a>
</g>
</g>
<!-- Node12&#45;&gt;Node20 -->
<g id="edge13" class="edge">
<title>Node12&#45;&gt;Node20</title>
<path fill="none" stroke="midnightblue" d="M315.62,-1112.18C294.25,-1106.73 268.9,-1100.27 248.5,-1095.06"/>
<polygon fill="midnightblue" stroke="midnightblue" points="314.89,-1115.61 325.44,-1114.69 316.62,-1108.82 314.89,-1115.61"/>
</g>
<!-- Node23 -->
<g id="node14" class="node">
<title>Node23</title>
<g id="a_node14"><a xlink:href="pd__forceZ_8f95.html#abdd0ae4a7eb5f80ef45608c877df1a5e" target="_top" xlink:title=" ">
<polygon fill="white" stroke="black" points="180.5,-1114 180.5,-1133 239.5,-1133 239.5,-1114 180.5,-1114"/>
<text text-anchor="middle" x="210" y="-1121" font-family="Helvetica,sans-Serif" font-size="10.00">pd_forcez</text>
</a>
</g>
</g>
<!-- Node12&#45;&gt;Node23 -->
<g id="edge14" class="edge">
<title>Node12&#45;&gt;Node23</title>
<path fill="none" stroke="midnightblue" d="M315.31,-1123.5C290.86,-1123.5 261.27,-1123.5 239.86,-1123.5"/>
<polygon fill="midnightblue" stroke="midnightblue" points="315.44,-1127 325.44,-1123.5 315.44,-1120 315.44,-1127"/>
</g>
<!-- Node24&#45;&gt;Node13 -->
<g id="edge16" class="edge">
<title>Node24&#45;&gt;Node13</title>
<path fill="none" stroke="midnightblue" d="M315.52,-1074.16C291.58,-1068.05 262.67,-1060.68 241.33,-1055.24"/>
<polygon fill="midnightblue" stroke="midnightblue" points="314.89,-1077.61 325.44,-1076.69 316.62,-1070.82 314.89,-1077.61"/>
</g>
<!-- Node24&#45;&gt;Node20 -->
<g id="edge17" class="edge">
<title>Node24&#45;&gt;Node20</title>
<path fill="none" stroke="midnightblue" d="M315.42,-1085.5C299.64,-1085.5 281.71,-1085.5 265.21,-1085.5"/>
<polygon fill="midnightblue" stroke="midnightblue" points="315.44,-1089 325.44,-1085.5 315.44,-1082 315.44,-1089"/>
</g>
<!-- Node24&#45;&gt;Node23 -->
<g id="edge18" class="edge">
<title>Node24&#45;&gt;Node23</title>
<path fill="none" stroke="midnightblue" d="M315.64,-1096.81C291.12,-1103.07 261.37,-1110.66 239.86,-1116.14"/>
<polygon fill="midnightblue" stroke="midnightblue" points="316.62,-1100.18 325.44,-1094.31 314.89,-1093.39 316.62,-1100.18"/>
</g>
<!-- Node26 -->
<g id="node17" class="node">
<title>Node26</title>
<g id="a_node17"><a xlink:href="attitude_8f95.html#a8ee7764bdfc5e3bea9130e1ca999cb6d" target="_top" xlink:title=" ">
<polygon fill="white" stroke="red" points="336.5,-886 336.5,-905 385.5,-905 385.5,-886 336.5,-886"/>
<text text-anchor="middle" x="361" y="-893" font-family="Helvetica,sans-Serif" font-size="10.00">attitude</text>
</a>
</g>
</g>
<!-- Node25&#45;&gt;Node26 -->
<g id="edge20" class="edge">
<title>Node25&#45;&gt;Node26</title>
<path fill="none" stroke="midnightblue" d="M490.27,-866.05C458.21,-873.41 412.92,-883.81 385.61,-890.08"/>
<polygon fill="midnightblue" stroke="midnightblue" points="491.21,-869.42 500.17,-863.77 489.64,-862.6 491.21,-869.42"/>
</g>
<!-- Node30 -->
<g id="node18" class="node">
<title>Node30</title>
<g id="a_node18"><a xlink:href="beta__interp_8f90.html#ab99d07d927a91a2fed709ef3ab6da249" target="_top" xlink:title=" ">
<polygon fill="white" stroke="black" points="328.5,-1000 328.5,-1019 393.5,-1019 393.5,-1000 328.5,-1000"/>
<text text-anchor="middle" x="361" y="-1007" font-family="Helvetica,sans-Serif" font-size="10.00">beta_interp</text>
</a>
</g>
</g>
<!-- Node25&#45;&gt;Node30 -->
<g id="edge23" class="edge">
<title>Node25&#45;&gt;Node30</title>
<path fill="none" stroke="midnightblue" d="M490.44,-863.31C478.45,-866.82 465.96,-872.46 457,-881.5 421.09,-917.74 457.21,-954.56 421,-990.5 413.67,-997.78 403.54,-1002.27 393.74,-1005.04"/>
<polygon fill="midnightblue" stroke="midnightblue" points="491.45,-866.66 500.29,-860.83 489.74,-859.87 491.45,-866.66"/>
</g>
<!-- Node31 -->
<g id="node19" class="node">
<title>Node31</title>
<g id="a_node19"><a xlink:href="beta__pred_8f90.html#a9230794c3d919d2bcd20c96901c31e3c" target="_top" xlink:title=" ">
<polygon fill="white" stroke="red" points="331.5,-962 331.5,-981 390.5,-981 390.5,-962 331.5,-962"/>
<text text-anchor="middle" x="361" y="-969" font-family="Helvetica,sans-Serif" font-size="10.00">beta_pred</text>
</a>
</g>
</g>
<!-- Node25&#45;&gt;Node31 -->
<g id="edge24" class="edge">
<title>Node25&#45;&gt;Node31</title>
<path fill="none" stroke="midnightblue" d="M490.4,-864.55C478.76,-868.14 466.49,-873.51 457,-881.5 431.44,-903.02 445.92,-925.25 421,-947.5 412.42,-955.16 401.08,-960.56 390.63,-964.27"/>
<polygon fill="midnightblue" stroke="midnightblue" points="491.65,-867.83 500.38,-861.83 489.81,-861.08 491.65,-867.83"/>
</g>
<!-- Node36 -->
<g id="node20" class="node">
<title>Node36</title>
<g id="a_node20"><a xlink:href="namespacem__obsorbt2c.html#a23877ecd7325dd1180eb315c14d3a6a6" target="_top" xlink:title=" ">
<polygon fill="white" stroke="red" points="301,-734 301,-753 421,-753 421,-734 301,-734"/>
<text text-anchor="middle" x="361" y="-741" font-family="Helvetica,sans-Serif" font-size="10.00">m_obsorbt2c::obsorbt2c</text>
</a>
</g>
</g>
<!-- Node25&#45;&gt;Node36 -->
<g id="edge25" class="edge">
<title>Node25&#45;&gt;Node36</title>
<path fill="none" stroke="midnightblue" d="M490.22,-853.65C478.57,-850.91 466.33,-846.29 457,-838.5 428.31,-814.54 449.1,-787.14 421,-762.5 416.55,-758.6 411.29,-755.49 405.77,-753.03"/>
<polygon fill="midnightblue" stroke="midnightblue" points="489.74,-857.12 500.22,-855.59 491.07,-850.25 489.74,-857.12"/>
</g>
<!-- Node38 -->
<g id="node21" class="node">
<title>Node38</title>
<g id="a_node21"><a xlink:href="namespacem__orbc2t.html#a199ab2f2c024cd6d18cf08f6580013a0" target="_top" xlink:title=" ">
<polygon fill="white" stroke="red" points="316.5,-810 316.5,-829 405.5,-829 405.5,-810 316.5,-810"/>
<text text-anchor="middle" x="361" y="-817" font-family="Helvetica,sans-Serif" font-size="10.00">m_orbc2t::orbc2t</text>
</a>
</g>
</g>
<!-- Node25&#45;&gt;Node38 -->
<g id="edge26" class="edge">
<title>Node25&#45;&gt;Node38</title>
<path fill="none" stroke="midnightblue" d="M490.41,-848.98C464.66,-843.07 430.34,-835.19 403.65,-829.06"/>
<polygon fill="midnightblue" stroke="midnightblue" points="489.64,-852.4 500.17,-851.23 491.21,-845.58 489.64,-852.4"/>
</g>
<!-- Node40 -->
<g id="node23" class="node">
<title>Node40</title>
<g id="a_node23"><a xlink:href="namespacem__orbt2c.html#a876ee97d4b7569bf142ff8abf3512555" target="_top" xlink:title=" ">
<polygon fill="white" stroke="red" points="316.5,-772 316.5,-791 405.5,-791 405.5,-772 316.5,-772"/>
<text text-anchor="middle" x="361" y="-779" font-family="Helvetica,sans-Serif" font-size="10.00">m_orbt2c::orbt2c</text>
</a>
</g>
</g>
<!-- Node25&#45;&gt;Node40 -->
<g id="edge30" class="edge">
<title>Node25&#45;&gt;Node40</title>
<path fill="none" stroke="midnightblue" d="M490.34,-851.51C479.1,-848.67 467.09,-844.52 457,-838.5 437.02,-826.58 440.69,-812.9 421,-800.5 414.99,-796.72 408.16,-793.62 401.33,-791.11"/>
<polygon fill="midnightblue" stroke="midnightblue" points="489.83,-854.99 500.35,-853.78 491.37,-848.16 489.83,-854.99"/>
</g>
<!-- Node41 -->
<g id="node24" class="node">
<title>Node41</title>
<g id="a_node24"><a xlink:href="prm__main_8f95.html#a5278832d0474755edea23de7a540f359" target="_top" xlink:title=" ">
<polygon fill="white" stroke="red" points="180.5,-582 180.5,-601 239.5,-601 239.5,-582 180.5,-582"/>
<text text-anchor="middle" x="210" y="-589" font-family="Helvetica,sans-Serif" font-size="10.00">prm_main</text>
</a>
</g>
</g>
<!-- Node25&#45;&gt;Node41 -->
<g id="edge32" class="edge">
<title>Node25&#45;&gt;Node41</title>
<path fill="none" stroke="midnightblue" d="M490.19,-860.8C478.95,-862.98 466.97,-866.58 457,-872.5 435.86,-885.05 443.34,-904.23 421,-914.5 372.55,-936.79 342.83,-947.58 301,-914.5 246.55,-871.44 283.47,-829.42 265,-762.5 247.86,-700.38 223.13,-626.91 214.29,-601.07"/>
<polygon fill="midnightblue" stroke="midnightblue" points="490.91,-864.23 500.22,-859.16 489.79,-857.32 490.91,-864.23"/>
</g>
<!-- Node43 -->
<g id="node27" class="node">
<title>Node43</title>
<g id="a_node27"><a xlink:href="yaw__pred_8f95.html#a7a64b9ed25e02702f50c28ba82422963" target="_top" xlink:title=" ">
<polygon fill="white" stroke="red" points="332,-1038 332,-1057 390,-1057 390,-1038 332,-1038"/>
<text text-anchor="middle" x="361" y="-1045" font-family="Helvetica,sans-Serif" font-size="10.00">yaw_pred</text>
</a>
</g>
</g>
<!-- Node25&#45;&gt;Node43 -->
<g id="edge36" class="edge">
<title>Node25&#45;&gt;Node43</title>
<path fill="none" stroke="midnightblue" d="M490.31,-862.83C478.2,-866.31 465.66,-872.04 457,-881.5 411.57,-931.11 466.84,-979.27 421,-1028.5 413.01,-1037.08 401.12,-1041.8 390.11,-1044.39"/>
<polygon fill="midnightblue" stroke="midnightblue" points="491.39,-866.17 500.28,-860.42 489.74,-859.37 491.39,-866.17"/>
</g>
<!-- Node26&#45;&gt;Node13 -->
<g id="edge21" class="edge">
<title>Node26&#45;&gt;Node13</title>
<path fill="none" stroke="midnightblue" d="M342.38,-912.14C330.55,-923.4 314.68,-938.69 301,-952.5 270.63,-983.17 235.76,-1020.65 219.81,-1037.93"/>
<polygon fill="midnightblue" stroke="midnightblue" points="345,-914.47 349.85,-905.05 340.18,-909.39 345,-914.47"/>
</g>
<!-- Node26&#45;&gt;Node20 -->
<g id="edge22" class="edge">
<title>Node26&#45;&gt;Node20</title>
<path fill="none" stroke="midnightblue" d="M338.27,-911.89C325.81,-922.3 310.74,-936.76 301,-952.5 273.04,-997.68 301.96,-1028.32 265,-1066.5 261.27,-1070.36 256.71,-1073.43 251.83,-1075.88"/>
<polygon fill="midnightblue" stroke="midnightblue" points="340.79,-914.36 346.39,-905.36 336.41,-908.9 340.79,-914.36"/>
</g>
<!-- Node39 -->
<g id="node22" class="node">
<title>Node39</title>
<g id="a_node22"><a xlink:href="prm__orbext_8f95.html#a22ef50da05110c9316a9e9a935fe47a2" target="_top" xlink:title=" ">
<polygon fill="white" stroke="black" points="177.5,-772 177.5,-791 242.5,-791 242.5,-772 177.5,-772"/>
<text text-anchor="middle" x="210" y="-779" font-family="Helvetica,sans-Serif" font-size="10.00">prm_orbext</text>
</a>
</g>
</g>
<!-- Node38&#45;&gt;Node39 -->
<g id="edge27" class="edge">
<title>Node38&#45;&gt;Node39</title>
<path fill="none" stroke="midnightblue" d="M312.54,-807.4C289.67,-801.56 262.87,-794.73 242.54,-789.54"/>
<polygon fill="midnightblue" stroke="midnightblue" points="311.85,-810.83 322.4,-809.91 313.58,-804.05 311.85,-810.83"/>
</g>
<!-- Node39&#45;&gt;Node9 -->
<g id="edge28" class="edge">
<title>Node39&#45;&gt;Node9</title>
<path fill="none" stroke="midnightblue" d="M198.58,-762.84C169.4,-710.57 87.58,-564.01 65.85,-525.09"/>
<polygon fill="midnightblue" stroke="midnightblue" points="195.61,-764.69 203.54,-771.72 201.72,-761.28 195.61,-764.69"/>
</g>
<!-- Node39&#45;&gt;Node11 -->
<g id="edge29" class="edge">
<title>Node39&#45;&gt;Node11</title>
<path fill="none" stroke="midnightblue" d="M184.87,-796.61C154.12,-815.87 101.86,-848.6 75.97,-864.81"/>
<polygon fill="midnightblue" stroke="midnightblue" points="187.05,-799.38 193.67,-791.1 183.33,-793.44 187.05,-799.38"/>
</g>
<!-- Node40&#45;&gt;Node39 -->
<g id="edge31" class="edge">
<title>Node40&#45;&gt;Node39</title>
<path fill="none" stroke="midnightblue" d="M305.92,-781.5C284.72,-781.5 261.13,-781.5 242.77,-781.5"/>
<polygon fill="midnightblue" stroke="midnightblue" points="306.1,-785 316.1,-781.5 306.1,-778 306.1,-785"/>
</g>
<!-- Node41&#45;&gt;Node4 -->
<g id="edge34" class="edge">
<title>Node41&#45;&gt;Node4</title>
<path fill="none" stroke="midnightblue" d="M189.69,-575.17C177.56,-563.72 162.77,-547.31 155,-529.5 94.75,-391.44 184.84,-327.98 119,-192.5 109.14,-172.22 88.96,-155.14 75.09,-145.11"/>
<polygon fill="midnightblue" stroke="midnightblue" points="187.42,-577.84 197.18,-581.95 192.12,-572.65 187.42,-577.84"/>
</g>
<!-- Node16 -->
<g id="node25" class="node">
<title>Node16</title>
<g id="a_node25"><a xlink:href="namespacem__orbinteg.html#a5b2517e1f60f866948f18b9723198cff" target="_top" xlink:title=" ">
<polygon fill="white" stroke="red" points="7.5,-202 7.5,-221 111.5,-221 111.5,-202 7.5,-202"/>
<text text-anchor="middle" x="59.5" y="-209" font-family="Helvetica,sans-Serif" font-size="10.00">m_orbinteg::orbinteg</text>
</a>
</g>
</g>
<!-- Node41&#45;&gt;Node16 -->
<g id="edge33" class="edge">
<title>Node41&#45;&gt;Node16</title>
<path fill="none" stroke="midnightblue" d="M190.4,-574.33C178.77,-562.67 164.28,-546.37 155,-529.5 93.54,-417.71 67.69,-261.3 61.84,-221.18"/>
<polygon fill="midnightblue" stroke="midnightblue" points="188.29,-577.15 197.9,-581.6 193.16,-572.12 188.29,-577.15"/>
</g>
<!-- Node41&#45;&gt;Node42 -->
<g id="edge35" class="edge">
<title>Node41&#45;&gt;Node42</title>
<path fill="none" stroke="midnightblue" d="M202.63,-610.83C192.28,-642.44 171.32,-707.21 155,-762.5 137.91,-820.41 135.03,-835.29 119,-893.5 98.68,-967.31 74.3,-1055.54 64.69,-1090.33"/>
<polygon fill="midnightblue" stroke="midnightblue" points="206.03,-611.7 205.83,-601.1 199.38,-609.51 206.03,-611.7"/>
</g>
<!-- Node45&#45;&gt;Node26 -->
<g id="edge38" class="edge">
<title>Node45&#45;&gt;Node26</title>
<path fill="none" stroke="midnightblue" d="M492.88,-825.35C481.03,-828.24 468,-832.45 457,-838.5 437.98,-848.96 439.34,-859.89 421,-871.5 410.07,-878.42 396.8,-884.03 385.62,-888.08"/>
<polygon fill="midnightblue" stroke="midnightblue" points="493.9,-828.71 502.91,-823.14 492.39,-821.88 493.9,-828.71"/>
</g>
<!-- Node45&#45;&gt;Node36 -->
<g id="edge39" class="edge">
<title>Node45&#45;&gt;Node36</title>
<path fill="none" stroke="midnightblue" d="M492.64,-814.08C480.76,-811.23 467.78,-806.93 457,-800.5 437.02,-788.58 440.69,-774.9 421,-762.5 414.99,-758.72 408.16,-755.62 401.33,-753.11"/>
<polygon fill="midnightblue" stroke="midnightblue" points="492.19,-817.56 502.7,-816.23 493.65,-810.72 492.19,-817.56"/>
</g>
<!-- Node45&#45;&gt;Node38 -->
<g id="edge40" class="edge">
<title>Node45&#45;&gt;Node38</title>
<path fill="none" stroke="midnightblue" d="M492.47,-819.5C467.14,-819.5 432.74,-819.5 405.63,-819.5"/>
<polygon fill="midnightblue" stroke="midnightblue" points="492.72,-823 502.72,-819.5 492.72,-816 492.72,-823"/>
</g>
<!-- Node45&#45;&gt;Node40 -->
<g id="edge41" class="edge">
<title>Node45&#45;&gt;Node40</title>
<path fill="none" stroke="midnightblue" d="M492.93,-811.56C466.95,-805.6 431.24,-797.4 403.68,-791.07"/>
<polygon fill="midnightblue" stroke="midnightblue" points="492.19,-814.98 502.72,-813.81 493.76,-808.16 492.19,-814.98"/>
</g>
<!-- Node45&#45;&gt;Node41 -->
<g id="edge42" class="edge">
<title>Node45&#45;&gt;Node41</title>
<path fill="none" stroke="midnightblue" d="M493.06,-827.63C437.46,-839.89 331.13,-859.59 301,-838.5 280.01,-823.81 226.62,-644.93 213.8,-601.13"/>
<polygon fill="midnightblue" stroke="midnightblue" points="493.83,-831.04 502.82,-825.43 492.29,-824.21 493.83,-831.04"/>
</g>
<!-- Node46&#45;&gt;Node4 -->
<g id="edge58" class="edge">
<title>Node46&#45;&gt;Node4</title>
<path fill="none" stroke="midnightblue" d="M494.52,-535.3C448.51,-535.05 363.67,-529.6 301,-496.5 218.17,-452.76 199.82,-426.75 155,-344.5 121.78,-283.54 153.22,-252.9 119,-192.5 107.82,-172.76 87.76,-155.43 74.29,-145.21"/>
<polygon fill="midnightblue" stroke="midnightblue" points="494.81,-538.8 504.8,-535.27 494.79,-531.8 494.81,-538.8"/>
</g>
<!-- Node46&#45;&gt;Node9 -->
<g id="edge55" class="edge">
<title>Node46&#45;&gt;Node9</title>
<path fill="none" stroke="midnightblue" d="M517.54,-515.66C503.47,-488.81 477.25,-437.88 457,-393.5 439.63,-355.43 455.79,-329.75 421,-306.5 322.71,-240.8 254.33,-242.4 155,-306.5 82.39,-353.35 64.98,-470.95 61.36,-505.69"/>
<polygon fill="midnightblue" stroke="midnightblue" points="514.54,-517.48 522.3,-524.7 520.74,-514.22 514.54,-517.48"/>
</g>
<!-- Node46&#45;&gt;Node26 -->
<g id="edge44" class="edge">
<title>Node46&#45;&gt;Node26</title>
<path fill="none" stroke="midnightblue" d="M521.94,-554.06C504.95,-613.12 452.96,-788.62 421,-838.5 408.55,-857.93 388.23,-875.59 374.99,-885.95"/>
<polygon fill="midnightblue" stroke="midnightblue" points="525.39,-554.73 524.77,-544.16 518.66,-552.81 525.39,-554.73"/>
</g>
<!-- Node46&#45;&gt;Node36 -->
<g id="edge53" class="edge">
<title>Node46&#45;&gt;Node36</title>
<path fill="none" stroke="midnightblue" d="M513.61,-552.04C480.05,-594.43 395.39,-701.33 369.59,-733.92"/>
<polygon fill="midnightblue" stroke="midnightblue" points="516.49,-554.04 519.96,-544.02 511.01,-549.69 516.49,-554.04"/>
</g>
<!-- Node46&#45;&gt;Node38 -->
<g id="edge54" class="edge">
<title>Node46&#45;&gt;Node38</title>
<path fill="none" stroke="midnightblue" d="M525.3,-554.3C518.8,-603.29 495.25,-731.23 421,-800.5 416.59,-804.61 411.29,-807.83 405.7,-810.36"/>
<polygon fill="midnightblue" stroke="midnightblue" points="528.81,-554.46 526.55,-544.11 521.86,-553.61 528.81,-554.46"/>
</g>
<!-- Node46&#45;&gt;Node39 -->
<g id="edge60" class="edge">
<title>Node46&#45;&gt;Node39</title>
<path fill="none" stroke="midnightblue" d="M507.08,-550.44C446.9,-597.4 271.43,-734.34 223.32,-771.88"/>
<polygon fill="midnightblue" stroke="midnightblue" points="509.36,-553.09 515.09,-544.18 505.06,-547.58 509.36,-553.09"/>
</g>
<!-- Node46&#45;&gt;Node40 -->
<g id="edge57" class="edge">
<title>Node46&#45;&gt;Node40</title>
<path fill="none" stroke="midnightblue" d="M523.8,-554.41C514.57,-598.46 486.41,-704.82 421,-762.5 416.56,-766.41 411.31,-769.52 405.79,-771.99"/>
<polygon fill="midnightblue" stroke="midnightblue" points="527.27,-554.89 525.79,-544.4 520.41,-553.52 527.27,-554.89"/>
</g>
<!-- Node46&#45;&gt;Node41 -->
<g id="edge59" class="edge">
<title>Node46&#45;&gt;Node41</title>
<path fill="none" stroke="midnightblue" d="M496.61,-547.87C475.67,-556.34 447.15,-566.75 421,-572.5 357.18,-586.54 280.26,-590.24 239.54,-591.19"/>
<polygon fill="midnightblue" stroke="midnightblue" points="498.04,-551.06 505.95,-544.01 495.37,-544.59 498.04,-551.06"/>
</g>
<!-- Node46&#45;&gt;Node16 -->
<g id="edge56" class="edge">
<title>Node46&#45;&gt;Node16</title>
<path fill="none" stroke="midnightblue" d="M516.67,-516.01C501.57,-489.6 474.12,-439.18 457,-393.5 434.61,-333.74 469.06,-296.49 421,-254.5 376.02,-215.21 200.1,-210.53 111.73,-210.74"/>
<polygon fill="midnightblue" stroke="midnightblue" points="513.78,-518 521.81,-524.9 519.84,-514.5 513.78,-518"/>
</g>
<!-- Node47 -->
<g id="node30" class="node">
<title>Node47</title>
<g id="a_node30"><a xlink:href="crs__trs_8f90.html#ad60041f94ed21d7dccece31ca956443c" target="_top" xlink:title=" ">
<polygon fill="white" stroke="red" points="337.5,-316 337.5,-335 384.5,-335 384.5,-316 337.5,-316"/>
<text text-anchor="middle" x="361" y="-323" font-family="Helvetica,sans-Serif" font-size="10.00">crs_trs</text>
</a>
</g>
</g>
<!-- Node46&#45;&gt;Node47 -->
<g id="edge45" class="edge">
<title>Node46&#45;&gt;Node47</title>
<path fill="none" stroke="midnightblue" d="M517.97,-515.72C494.73,-470.19 435.93,-356.72 421,-344.5 410.67,-336.05 396.51,-331.33 384.65,-328.71"/>
<polygon fill="midnightblue" stroke="midnightblue" points="514.95,-517.49 522.6,-524.82 521.18,-514.32 514.95,-517.49"/>
</g>
<!-- Node56 -->
<g id="node32" class="node">
<title>Node56</title>
<g id="a_node32"><a xlink:href="namespacem__eop__cor.html#af1a58e51cefaf1a8f938020cd41f03ec" target="_top" xlink:title=" ">
<polygon fill="white" stroke="red" points="309,-468 309,-487 413,-487 413,-468 309,-468"/>
<text text-anchor="middle" x="361" y="-475" font-family="Helvetica,sans-Serif" font-size="10.00">m_eop_cor::eop_cor</text>
</a>
</g>
</g>
<!-- Node46&#45;&gt;Node56 -->
<g id="edge47" class="edge">
<title>Node46&#45;&gt;Node56</title>
<path fill="none" stroke="midnightblue" d="M495.03,-523.32C464.29,-512.73 418.65,-497.01 389.62,-487.01"/>
<polygon fill="midnightblue" stroke="midnightblue" points="494.24,-526.75 504.83,-526.69 496.52,-520.13 494.24,-526.75"/>
</g>
<!-- Node57 -->
<g id="node33" class="node">
<title>Node57</title>
<g id="a_node33"><a xlink:href="eop__cor2_8f90.html#ad4647132be15ad688dfe65c867b86210" target="_top" xlink:title=" ">
<polygon fill="white" stroke="black" points="333,-430 333,-449 389,-449 389,-430 333,-430"/>
<text text-anchor="middle" x="361" y="-437" font-family="Helvetica,sans-Serif" font-size="10.00">eop_cor2</text>
</a>
</g>
</g>
<!-- Node46&#45;&gt;Node57 -->
<g id="edge48" class="edge">
<title>Node46&#45;&gt;Node57</title>
<path fill="none" stroke="midnightblue" d="M508.55,-518.2C488.11,-501.31 454.03,-475.1 421,-458.5 411,-453.47 399.39,-449.4 389.12,-446.33"/>
<polygon fill="midnightblue" stroke="midnightblue" points="506.52,-521.07 516.43,-524.82 511.02,-515.71 506.52,-521.07"/>
</g>
<!-- Node51 -->
<g id="node34" class="node">
<title>Node51</title>
<g id="a_node34"><a xlink:href="namespacem__eop__data.html#a3f9f046171f91909e4504b8cec7586bd" target="_top" xlink:title=" ">
<polygon fill="white" stroke="black" points="304,-544 304,-563 418,-563 418,-544 304,-544"/>
<text text-anchor="middle" x="361" y="-551" font-family="Helvetica,sans-Serif" font-size="10.00">m_eop_data::eop_data</text>
</a>
</g>
</g>
<!-- Node46&#45;&gt;Node51 -->
<g id="edge49" class="edge">
<title>Node46&#45;&gt;Node51</title>
<path fill="none" stroke="midnightblue" d="M494.77,-538.26C472.94,-540.76 443.68,-544.12 418.19,-547.05"/>
<polygon fill="midnightblue" stroke="midnightblue" points="495.3,-541.72 504.83,-537.1 494.5,-534.77 495.3,-541.72"/>
</g>
<!-- Node58 -->
<g id="node35" class="node">
<title>Node58</title>
<g id="a_node35"><a xlink:href="era__matrix_8f90.html#a90c9a2cf4c3058069f634af9536ba0cf" target="_top" xlink:title=" ">
<polygon fill="white" stroke="black" points="330,-354 330,-373 392,-373 392,-354 330,-354"/>
<text text-anchor="middle" x="361" y="-361" font-family="Helvetica,sans-Serif" font-size="10.00">era_matrix</text>
</a>
</g>
</g>
<!-- Node46&#45;&gt;Node58 -->
<g id="edge51" class="edge">
<title>Node46&#45;&gt;Node58</title>
<path fill="none" stroke="midnightblue" d="M519.19,-515.48C504.22,-483.36 469.67,-418.4 421,-382.5 412.6,-376.3 402.1,-372.07 392.29,-369.21"/>
<polygon fill="midnightblue" stroke="midnightblue" points="516.04,-517.01 523.36,-524.67 522.42,-514.12 516.04,-517.01"/>
</g>
<!-- Node59 -->
<g id="node36" class="node">
<title>Node59</title>
<g id="a_node36"><a xlink:href="gmst__iers_8f95.html#a2fce4c912b61b57f653a9b3996171295" target="_top" xlink:title=" ">
<polygon fill="white" stroke="red" points="331.5,-392 331.5,-411 390.5,-411 390.5,-392 331.5,-392"/>
<text text-anchor="middle" x="361" y="-399" font-family="Helvetica,sans-Serif" font-size="10.00">gmst_iers</text>
</a>
</g>
</g>
<!-- Node46&#45;&gt;Node59 -->
<g id="edge52" class="edge">
<title>Node46&#45;&gt;Node59</title>
<path fill="none" stroke="midnightblue" d="M515.24,-516.45C497.34,-491.42 461.73,-446.35 421,-420.5 411.82,-414.68 400.7,-410.49 390.6,-407.56"/>
<polygon fill="midnightblue" stroke="midnightblue" points="512.41,-518.5 521.01,-524.69 518.14,-514.49 512.41,-518.5"/>
</g>
<!-- Node53 -->
<g id="node31" class="node">
<title>Node53</title>
<g id="a_node31"><a xlink:href="main__brdcorbit_8f90.html#a34cbfb6f2004478de868a894a67a8b30" target="_top" xlink:title=" ">
<polygon fill="white" stroke="black" points="170,-316 170,-335 250,-335 250,-316 170,-316"/>
<text text-anchor="middle" x="210" y="-323" font-family="Helvetica,sans-Serif" font-size="10.00">main_brdcorbit</text>
</a>
</g>
</g>
<!-- Node47&#45;&gt;Node53 -->
<g id="edge46" class="edge">
<title>Node47&#45;&gt;Node53</title>
<path fill="none" stroke="midnightblue" d="M327.2,-325.5C304.47,-325.5 274.1,-325.5 250.11,-325.5"/>
<polygon fill="midnightblue" stroke="midnightblue" points="327.37,-329 337.37,-325.5 327.37,-322 327.37,-329"/>
</g>
<!-- Node51&#45;&gt;Node41 -->
<g id="edge50" class="edge">
<title>Node51&#45;&gt;Node41</title>
<path fill="none" stroke="midnightblue" d="M312.43,-565.63C288.49,-571.74 260.24,-578.94 239.65,-584.19"/>
<polygon fill="midnightblue" stroke="midnightblue" points="313.58,-568.95 322.4,-563.09 311.85,-562.17 313.58,-568.95"/>
</g>
<!-- Node62&#45;&gt;Node4 -->
<g id="edge64" class="edge">
<title>Node62&#45;&gt;Node4</title>
<path fill="none" stroke="midnightblue" d="M316.57,-167.99C264.5,-161.38 177.03,-150.29 119.04,-142.93"/>
<polygon fill="midnightblue" stroke="midnightblue" points="316.44,-171.5 326.8,-169.29 317.32,-164.56 316.44,-171.5"/>
</g>
<!-- Node62&#45;&gt;Node9 -->
<g id="edge62" class="edge">
<title>Node62&#45;&gt;Node9</title>
<path fill="none" stroke="midnightblue" d="M325.25,-186.85C273.47,-207.32 179.52,-246.9 155,-273.5 88.37,-345.8 66.69,-470.45 61.72,-505.87"/>
<polygon fill="midnightblue" stroke="midnightblue" points="326.68,-190.05 334.71,-183.14 324.12,-183.53 326.68,-190.05"/>
</g>
<!-- Node62&#45;&gt;Node41 -->
<g id="edge65" class="edge">
<title>Node62&#45;&gt;Node41</title>
<path fill="none" stroke="midnightblue" d="M350.88,-192.26C338.66,-217.77 316.71,-264.97 301,-306.5 260.88,-412.54 223.68,-545.19 213.65,-581.77"/>
<polygon fill="midnightblue" stroke="midnightblue" points="354.14,-193.55 355.33,-183.03 347.84,-190.51 354.14,-193.55"/>
</g>
<!-- Node62&#45;&gt;Node16 -->
<g id="edge63" class="edge">
<title>Node62&#45;&gt;Node16</title>
<path fill="none" stroke="midnightblue" d="M316.9,-178.16C275.39,-182.74 210.83,-190.1 155,-197.5 141.02,-199.35 125.91,-201.52 111.96,-203.59"/>
<polygon fill="midnightblue" stroke="midnightblue" points="317.38,-181.63 326.94,-177.06 316.62,-174.67 317.38,-181.63"/>
</g>
<!-- Node63&#45;&gt;Node26 -->
<g id="edge67" class="edge">
<title>Node63&#45;&gt;Node26</title>
<path fill="none" stroke="midnightblue" d="M491.52,-787.19C479.95,-790.04 467.44,-794.27 457,-800.5 437.02,-812.42 437.37,-821.97 421,-838.5 404.16,-855.5 384.02,-874.74 372.15,-885.95"/>
<polygon fill="midnightblue" stroke="midnightblue" points="492.35,-790.59 501.37,-785.02 490.85,-783.76 492.35,-790.59"/>
</g>
<!-- Node63&#45;&gt;Node36 -->
<g id="edge69" class="edge">
<title>Node63&#45;&gt;Node36</title>
<path fill="none" stroke="midnightblue" d="M491.49,-773.23C465.61,-767.29 430.65,-759.26 403.58,-753.05"/>
<polygon fill="midnightblue" stroke="midnightblue" points="490.75,-776.65 501.28,-775.48 492.31,-769.83 490.75,-776.65"/>
</g>
<!-- Node63&#45;&gt;Node38 -->
<g id="edge70" class="edge">
<title>Node63&#45;&gt;Node38</title>
<path fill="none" stroke="midnightblue" d="M491.49,-789.77C465.61,-795.71 430.65,-803.74 403.58,-809.95"/>
<polygon fill="midnightblue" stroke="midnightblue" points="492.31,-793.17 501.28,-787.52 490.75,-786.35 492.31,-793.17"/>
</g>
<!-- Node63&#45;&gt;Node40 -->
<g id="edge71" class="edge">
<title>Node63&#45;&gt;Node40</title>
<path fill="none" stroke="midnightblue" d="M491.03,-781.5C465.81,-781.5 432.13,-781.5 405.51,-781.5"/>
<polygon fill="midnightblue" stroke="midnightblue" points="491.28,-785 501.28,-781.5 491.28,-778 491.28,-785"/>
</g>
<!-- Node63&#45;&gt;Node41 -->
<g id="edge72" class="edge">
<title>Node63&#45;&gt;Node41</title>
<path fill="none" stroke="midnightblue" d="M502.56,-766.8C481.3,-754.6 449.72,-737.25 421,-724.5 369.22,-701.52 348.86,-711.82 301,-681.5 264.97,-658.68 232.12,-619.11 218.12,-601.02"/>
<polygon fill="midnightblue" stroke="midnightblue" points="500.87,-769.86 511.27,-771.84 504.37,-763.8 500.87,-769.86"/>
</g>
<!-- Node63&#45;&gt;Node53 -->
<g id="edge68" class="edge">
<title>Node63&#45;&gt;Node53</title>
<path fill="none" stroke="midnightblue" d="M510.01,-764.91C488.97,-744.99 452.56,-710.64 421,-681.5 368.07,-632.62 341.17,-632.31 301,-572.5 245.78,-490.28 219.51,-369.97 212.79,-335.23"/>
<polygon fill="midnightblue" stroke="midnightblue" points="507.61,-767.45 517.27,-771.79 512.42,-762.37 507.61,-767.45"/>
</g>
<!-- Node64&#45;&gt;Node53 -->
<g id="edge74" class="edge">
<title>Node64&#45;&gt;Node53</title>
<path fill="none" stroke="midnightblue" d="M500.73,-348.13C480.23,-333.22 450.55,-314.59 421,-306.5 359.21,-289.59 283.76,-304.68 242.21,-315.92"/>
<polygon fill="midnightblue" stroke="midnightblue" points="498.81,-351.07 508.92,-354.26 503,-345.47 498.81,-351.07"/>
</g>
</g>
</svg>
