<?xml version="1.0" encoding="UTF-8" standalone="no"?>
<!DOCTYPE svg PUBLIC "-//W3C//DTD SVG 1.1//EN"
 "http://www.w3.org/Graphics/SVG/1.1/DTD/svg11.dtd">
<!-- Generated by graphviz version 2.50.0 (20220203.2022)
 -->
<!-- Title: jpl_state Pages: 1 -->
<svg width="257pt" height="104pt"
 viewBox="0.00 0.00 257.00 104.00" xmlns="http://www.w3.org/2000/svg" xmlns:xlink="http://www.w3.org/1999/xlink">
<g id="graph0" class="graph" transform="scale(1 1) rotate(0) translate(4 100)">
<title>jpl_state</title>
<polygon fill="white" stroke="transparent" points="-4,4 -4,-100 253,-100 253,4 -4,4"/>
<!-- Node1 -->
<g id="node1" class="node">
<title>Node1</title>
<g id="a_node1"><a xlink:title=" ">
<polygon fill="#bfbfbf" stroke="black" points="0,-38.5 0,-57.5 53,-57.5 53,-38.5 0,-38.5"/>
<text text-anchor="middle" x="26.5" y="-45.5" font-family="Helvetica,sans-Serif" font-size="10.00">jpl_state</text>
</a>
</g>
</g>
<!-- Node2 -->
<g id="node2" class="node">
<title>Node2</title>
<g id="a_node2"><a xlink:href="jpl__eph_8cpp.html#a755e63250f4ea83300f467826c98c0b2" target="_top" xlink:title=" ">
<polygon fill="white" stroke="black" points="103,-76.5 103,-95.5 164,-95.5 164,-76.5 103,-76.5"/>
<text text-anchor="middle" x="133.5" y="-83.5" font-family="Helvetica,sans-Serif" font-size="10.00">dimension</text>
</a>
</g>
</g>
<!-- Node1&#45;&gt;Node2 -->
<g id="edge1" class="edge">
<title>Node1&#45;&gt;Node2</title>
<path fill="none" stroke="midnightblue" d="M53.19,-57.3C66.21,-62.01 82.24,-67.81 96.47,-72.96"/>
<polygon fill="midnightblue" stroke="midnightblue" points="95.39,-76.29 105.98,-76.4 97.77,-69.71 95.39,-76.29"/>
</g>
<!-- Node3 -->
<g id="node3" class="node">
<title>Node3</title>
<g id="a_node3"><a xlink:href="jpl__eph_8cpp.html#a2c3f9479fbd059964429b4cf251357d3" target="_top" xlink:title=" ">
<polygon fill="white" stroke="black" points="113,-38.5 113,-57.5 154,-57.5 154,-38.5 113,-38.5"/>
<text text-anchor="middle" x="133.5" y="-45.5" font-family="Helvetica,sans-Serif" font-size="10.00">interp</text>
</a>
</g>
</g>
<!-- Node1&#45;&gt;Node3 -->
<g id="edge2" class="edge">
<title>Node1&#45;&gt;Node3</title>
<path fill="none" stroke="midnightblue" d="M53.19,-48C68.08,-48 86.92,-48 102.5,-48"/>
<polygon fill="midnightblue" stroke="midnightblue" points="102.67,-51.5 112.67,-48 102.67,-44.5 102.67,-51.5"/>
</g>
<!-- Node5 -->
<g id="node5" class="node">
<title>Node5</title>
<g id="a_node5"><a xlink:href="jpl__eph_8cpp.html#a9f1d45341be896f21885e5beae0692ff" target="_top" xlink:title=" ">
<polygon fill="white" stroke="black" points="89,-0.5 89,-19.5 178,-19.5 178,-0.5 89,-0.5"/>
<text text-anchor="middle" x="133.5" y="-7.5" font-family="Helvetica,sans-Serif" font-size="10.00">swap_64_bit_val</text>
</a>
</g>
</g>
<!-- Node1&#45;&gt;Node5 -->
<g id="edge4" class="edge">
<title>Node1&#45;&gt;Node5</title>
<path fill="none" stroke="midnightblue" d="M53.19,-38.7C66.21,-33.99 82.24,-28.19 96.47,-23.04"/>
<polygon fill="midnightblue" stroke="midnightblue" points="97.77,-26.29 105.98,-19.6 95.39,-19.71 97.77,-26.29"/>
</g>
<!-- Node4 -->
<g id="node4" class="node">
<title>Node4</title>
<g id="a_node4"><a xlink:href="trop_8cpp.html#aee11659ecea14ca59feae2dbe9f160d5" target="_top" xlink:title="coefficients multiplication">
<polygon fill="white" stroke="black" points="214,-38.5 214,-57.5 249,-57.5 249,-38.5 214,-38.5"/>
<text text-anchor="middle" x="231.5" y="-45.5" font-family="Helvetica,sans-Serif" font-size="10.00">coef</text>
</a>
</g>
</g>
<!-- Node3&#45;&gt;Node4 -->
<g id="edge3" class="edge">
<title>Node3&#45;&gt;Node4</title>
<path fill="none" stroke="midnightblue" d="M154.39,-48C168.67,-48 188.07,-48 203.71,-48"/>
<polygon fill="midnightblue" stroke="midnightblue" points="203.83,-51.5 213.83,-48 203.83,-44.5 203.83,-51.5"/>
</g>
</g>
</svg>
