<?xml version="1.0" encoding="UTF-8" standalone="no"?>
<!DOCTYPE svg PUBLIC "-//W3C//DTD SVG 1.1//EN"
 "http://www.w3.org/Graphics/SVG/1.1/DTD/svg11.dtd">
<!-- Generated by graphviz version 2.50.0 (20220203.2022)
 -->
<!-- Title: dimension Pages: 1 -->
<!--zoomable 572 -->
<svg id="main" version="1.1" xmlns="http://www.w3.org/2000/svg" xmlns:xlink="http://www.w3.org/1999/xlink" xml:space="preserve" onload="init(evt)">
<style type="text/css"><![CDATA[
.edge:hover path { stroke: red; }
.edge:hover polygon { stroke: red; fill: red; }
]]></style>
<script type="text/javascript"><![CDATA[
var edges = document.getElementsByTagName('g');
if (edges && edges.length) {
  for (var i=0;i<edges.length;i++) {
    if (edges[i].id.substr(0,4)=='edge') {
      edges[i].setAttribute('class','edge');
    }
  }
}
]]></script>
        <defs>
                <circle id="rim" cx="0" cy="0" r="7"/>
                <circle id="rim2" cx="0" cy="0" r="3.5"/>
                <g id="zoomPlus">
                        <use xlink:href="#rim" fill="#404040">
                                <set attributeName="fill" to="#808080" begin="zoomplus.mouseover" end="zoomplus.mouseout"/>
                        </use>
                        <path d="M-4,0h8M0,-4v8" fill="none" stroke="white" stroke-width="1.5" pointer-events="none"/>
                </g>
                <g id="zoomMin">
                        <use xlink:href="#rim" fill="#404040">
                                <set attributeName="fill" to="#808080" begin="zoomminus.mouseover" end="zoomminus.mouseout"/>
                        </use>
                        <path d="M-4,0h8" fill="none" stroke="white" stroke-width="1.5" pointer-events="none"/>
                </g>
                <g id="dirArrow">
                        <path fill="none" stroke="white" stroke-width="1.5" d="M0,-3.0v7 M-2.5,-0.5L0,-3.0L2.5,-0.5"/>
                </g>
               <g id="resetDef">
                       <use xlink:href="#rim2" fill="#404040">
                               <set attributeName="fill" to="#808080" begin="reset.mouseover" end="reset.mouseout"/>
                       </use>
               </g>
        </defs>

<script type="text/javascript">
var viewWidth = 377;
var viewHeight = 572;
var sectionId = 'dynsection-0';
</script>
<script xlink:href="svgpan.js"/>
<svg id="graph" class="graph">
<g id="viewport">
<title>dimension</title>
<polygon fill="white" stroke="transparent" points="-4,4 -4,-568 373,-568 373,4 -4,4"/>
<!-- Node1 -->
<g id="node1" class="node">
<title>Node1</title>
<g id="a_node1"><a xlink:title=" ">
<polygon fill="#bfbfbf" stroke="black" points="308,-316.5 308,-335.5 369,-335.5 369,-316.5 308,-316.5"/>
<text text-anchor="middle" x="338.5" y="-323.5" font-family="Helvetica,sans-Serif" font-size="10.00">dimension</text>
</a>
</g>
</g>
<!-- Node2 -->
<g id="node2" class="node">
<title>Node2</title>
<g id="a_node2"><a xlink:href="jpl__eph_8cpp.html#a05d41bbc99b847aae25193b2f00eaaf7" target="_top" xlink:title=" ">
<polygon fill="white" stroke="black" points="177,-515.5 177,-534.5 272,-534.5 272,-515.5 177,-515.5"/>
<text text-anchor="middle" x="224.5" y="-522.5" font-family="Helvetica,sans-Serif" font-size="10.00">jpl_init_ephemeris</text>
</a>
</g>
</g>
<!-- Node1&#45;&gt;Node2 -->
<g id="edge1" class="edge">
<title>Node1&#45;&gt;Node2</title>
<path fill="none" stroke="midnightblue" d="M329.37,-344.79C317.78,-371 295.31,-419.73 272,-459 259.55,-479.97 242.54,-502.93 232.92,-515.48"/>
<polygon fill="midnightblue" stroke="midnightblue" points="332.58,-346.18 333.39,-335.62 326.17,-343.37 332.58,-346.18"/>
</g>
<!-- Node5 -->
<g id="node4" class="node">
<title>Node5</title>
<g id="a_node4"><a xlink:href="jpl__eph_8cpp.html#a665d2b922b9b722e69a60d7519a95426" target="_top" xlink:title=" ">
<polygon fill="white" stroke="black" points="198,-430.5 198,-449.5 251,-449.5 251,-430.5 198,-430.5"/>
<text text-anchor="middle" x="224.5" y="-437.5" font-family="Helvetica,sans-Serif" font-size="10.00">jpl_state</text>
</a>
</g>
</g>
<!-- Node1&#45;&gt;Node5 -->
<g id="edge3" class="edge">
<title>Node1&#45;&gt;Node5</title>
<path fill="none" stroke="midnightblue" d="M320.65,-343.15C296.81,-367.42 254.02,-410.98 235.02,-430.31"/>
<polygon fill="midnightblue" stroke="midnightblue" points="323.44,-345.31 327.95,-335.72 318.45,-340.4 323.44,-345.31"/>
</g>
<!-- Node12 -->
<g id="node6" class="node">
<title>Node12</title>
<g id="a_node6"><a xlink:href="PLEPH_8f.html#aedc7e0a9526045bd01307271228e14a3" target="_top" xlink:title=" ">
<polygon fill="white" stroke="black" points="204.5,-297.5 204.5,-316.5 244.5,-316.5 244.5,-297.5 204.5,-297.5"/>
<text text-anchor="middle" x="224.5" y="-304.5" font-family="Helvetica,sans-Serif" font-size="10.00">pleph</text>
</a>
</g>
</g>
<!-- Node1&#45;&gt;Node12 -->
<g id="edge5" class="edge">
<title>Node1&#45;&gt;Node12</title>
<path fill="none" stroke="midnightblue" d="M297.8,-319.27C279.8,-316.21 259.32,-312.74 244.77,-310.27"/>
<polygon fill="midnightblue" stroke="midnightblue" points="297.34,-322.74 307.78,-320.96 298.51,-315.83 297.34,-322.74"/>
</g>
<!-- Node45 -->
<g id="node18" class="node">
<title>Node45</title>
<g id="a_node18"><a xlink:href="SPLIT_8f.html#aab78822781152ab32cf6414e6baf07ff" target="_top" xlink:title=" ">
<polygon fill="white" stroke="black" points="207,-44.5 207,-63.5 242,-63.5 242,-44.5 207,-44.5"/>
<text text-anchor="middle" x="224.5" y="-51.5" font-family="Helvetica,sans-Serif" font-size="10.00">split</text>
</a>
</g>
</g>
<!-- Node1&#45;&gt;Node45 -->
<g id="edge17" class="edge">
<title>Node1&#45;&gt;Node45</title>
<path fill="none" stroke="midnightblue" d="M329.66,-306.97C307.63,-253.46 245.68,-103.01 229.44,-63.56"/>
<polygon fill="midnightblue" stroke="midnightblue" points="326.47,-308.41 333.51,-316.32 332.94,-305.74 326.47,-308.41"/>
</g>
<!-- Node3 -->
<g id="node3" class="node">
<title>Node3</title>
<g id="a_node3"><a xlink:href="main_8cpp.html#a414f34e8bd65aa4d83398bab54236157" target="_top" xlink:title=" ">
<polygon fill="white" stroke="red" points="27.5,-544.5 27.5,-563.5 113.5,-563.5 113.5,-544.5 27.5,-544.5"/>
<text text-anchor="middle" x="70.5" y="-551.5" font-family="Helvetica,sans-Serif" font-size="10.00">reloadInputFiles</text>
</a>
</g>
</g>
<!-- Node2&#45;&gt;Node3 -->
<g id="edge2" class="edge">
<title>Node2&#45;&gt;Node3</title>
<path fill="none" stroke="midnightblue" d="M166.51,-535.87C148.94,-539.23 129.92,-542.85 113.55,-545.98"/>
<polygon fill="midnightblue" stroke="midnightblue" points="167.49,-539.25 176.65,-533.94 166.18,-532.37 167.49,-539.25"/>
</g>
<!-- Node6 -->
<g id="node5" class="node">
<title>Node6</title>
<g id="a_node5"><a xlink:href="jpl__eph_8cpp.html#a4553b296b553794049e44eaff19ce403" target="_top" xlink:title=" ">
<polygon fill="white" stroke="red" points="43,-506.5 43,-525.5 98,-525.5 98,-506.5 43,-506.5"/>
<text text-anchor="middle" x="70.5" y="-513.5" font-family="Helvetica,sans-Serif" font-size="10.00">jpl_pleph</text>
</a>
</g>
</g>
<!-- Node5&#45;&gt;Node6 -->
<g id="edge4" class="edge">
<title>Node5&#45;&gt;Node6</title>
<path fill="none" stroke="midnightblue" d="M204.2,-456.16C188.17,-468.85 164.3,-486.15 141,-497 127.51,-503.28 111.54,-507.83 98.31,-510.9"/>
<polygon fill="midnightblue" stroke="midnightblue" points="206.67,-458.66 212.24,-449.65 202.27,-453.22 206.67,-458.66"/>
</g>
<!-- Node13 -->
<g id="node7" class="node">
<title>Node13</title>
<g id="a_node7"><a xlink:href="namespacem__antoffset.html#ad0a56bc91575af3bfa903ddb712c7d41" target="_top" xlink:title=" ">
<polygon fill="white" stroke="red" points="15.5,-468.5 15.5,-487.5 125.5,-487.5 125.5,-468.5 15.5,-468.5"/>
<text text-anchor="middle" x="70.5" y="-475.5" font-family="Helvetica,sans-Serif" font-size="10.00">m_antoffset::antoffset</text>
</a>
</g>
</g>
<!-- Node12&#45;&gt;Node13 -->
<g id="edge6" class="edge">
<title>Node12&#45;&gt;Node13</title>
<path fill="none" stroke="midnightblue" d="M218.33,-326.6C208.73,-359.13 184.99,-424.13 141,-459 136.1,-462.88 130.46,-465.98 124.56,-468.44"/>
<polygon fill="midnightblue" stroke="midnightblue" points="221.82,-327.12 221.15,-316.55 215.08,-325.23 221.82,-327.12"/>
</g>
<!-- Node15 -->
<g id="node8" class="node">
<title>Node15</title>
<g id="a_node8"><a xlink:href="att__matrix_8f95.html#ac1f312f7022d981046ebb52cb86c69b2" target="_top" xlink:title=" ">
<polygon fill="white" stroke="red" points="41,-430.5 41,-449.5 100,-449.5 100,-430.5 41,-430.5"/>
<text text-anchor="middle" x="70.5" y="-437.5" font-family="Helvetica,sans-Serif" font-size="10.00">att_matrix</text>
</a>
</g>
</g>
<!-- Node12&#45;&gt;Node15 -->
<g id="edge7" class="edge">
<title>Node12&#45;&gt;Node15</title>
<path fill="none" stroke="midnightblue" d="M214.86,-325.98C202.28,-351.48 176.48,-396.43 141,-421 128.97,-429.33 113.42,-434.02 100.08,-436.65"/>
<polygon fill="midnightblue" stroke="midnightblue" points="218.17,-327.19 219.3,-316.65 211.85,-324.18 218.17,-327.19"/>
</g>
<!-- Node18 -->
<g id="node9" class="node">
<title>Node18</title>
<g id="a_node9"><a xlink:href="beta__interp_8f90.html#ab99d07d927a91a2fed709ef3ab6da249" target="_top" xlink:title=" ">
<polygon fill="white" stroke="black" points="38,-392.5 38,-411.5 103,-411.5 103,-392.5 38,-392.5"/>
<text text-anchor="middle" x="70.5" y="-399.5" font-family="Helvetica,sans-Serif" font-size="10.00">beta_interp</text>
</a>
</g>
</g>
<!-- Node12&#45;&gt;Node18 -->
<g id="edge8" class="edge">
<title>Node12&#45;&gt;Node18</title>
<path fill="none" stroke="midnightblue" d="M209.1,-324.45C193.89,-341.77 168.38,-367.84 141,-383 129.4,-389.42 115.49,-393.78 103.17,-396.69"/>
<polygon fill="midnightblue" stroke="midnightblue" points="211.85,-326.62 215.69,-316.74 206.53,-322.06 211.85,-326.62"/>
</g>
<!-- Node19 -->
<g id="node10" class="node">
<title>Node19</title>
<g id="a_node10"><a xlink:href="beta__pred_8f90.html#a9230794c3d919d2bcd20c96901c31e3c" target="_top" xlink:title=" ">
<polygon fill="white" stroke="red" points="41,-354.5 41,-373.5 100,-373.5 100,-354.5 41,-354.5"/>
<text text-anchor="middle" x="70.5" y="-361.5" font-family="Helvetica,sans-Serif" font-size="10.00">beta_pred</text>
</a>
</g>
</g>
<!-- Node12&#45;&gt;Node19 -->
<g id="edge9" class="edge">
<title>Node12&#45;&gt;Node19</title>
<path fill="none" stroke="midnightblue" d="M195.68,-321.21C179.91,-328.91 159.65,-338.21 141,-345 127.84,-349.79 112.89,-354.03 100.24,-357.28"/>
<polygon fill="midnightblue" stroke="midnightblue" points="197.46,-324.23 204.87,-316.66 194.35,-317.96 197.46,-324.23"/>
</g>
<!-- Node37 -->
<g id="node11" class="node">
<title>Node37</title>
<g id="a_node11"><a xlink:href="namespacem__betainfo.html#a7c2c7a1fff113613caae0cd8f91ca37d" target="_top" xlink:title=" ">
<polygon fill="white" stroke="black" points="18.5,-316.5 18.5,-335.5 122.5,-335.5 122.5,-316.5 18.5,-316.5"/>
<text text-anchor="middle" x="70.5" y="-323.5" font-family="Helvetica,sans-Serif" font-size="10.00">m_betainfo::betainfo</text>
</a>
</g>
</g>
<!-- Node12&#45;&gt;Node37 -->
<g id="edge10" class="edge">
<title>Node12&#45;&gt;Node37</title>
<path fill="none" stroke="midnightblue" d="M194.08,-310.68C173.81,-313.21 146.33,-316.65 122.54,-319.62"/>
<polygon fill="midnightblue" stroke="midnightblue" points="194.76,-314.12 204.25,-309.41 193.89,-307.17 194.76,-314.12"/>
</g>
<!-- Node38 -->
<g id="node12" class="node">
<title>Node38</title>
<g id="a_node12"><a xlink:href="eclipse__integstep_8f95.html#abd5877ad3d04e375bc5ee1319b6525c7" target="_top" xlink:title=" ">
<polygon fill="white" stroke="red" points="24.5,-278.5 24.5,-297.5 116.5,-297.5 116.5,-278.5 24.5,-278.5"/>
<text text-anchor="middle" x="70.5" y="-285.5" font-family="Helvetica,sans-Serif" font-size="10.00">eclipse_integstep</text>
</a>
</g>
</g>
<!-- Node12&#45;&gt;Node38 -->
<g id="edge11" class="edge">
<title>Node12&#45;&gt;Node38</title>
<path fill="none" stroke="midnightblue" d="M194.21,-303.34C172.25,-300.59 141.78,-296.78 116.7,-293.65"/>
<polygon fill="midnightblue" stroke="midnightblue" points="193.89,-306.83 204.25,-304.59 194.76,-299.88 193.89,-306.83"/>
</g>
<!-- Node22 -->
<g id="node13" class="node">
<title>Node22</title>
<g id="a_node13"><a xlink:href="force__sum_8f95.html#a757e2ccbe362bf3b01a51e2c0431a490" target="_top" xlink:title=" ">
<polygon fill="white" stroke="red" points="39.5,-240.5 39.5,-259.5 101.5,-259.5 101.5,-240.5 39.5,-240.5"/>
<text text-anchor="middle" x="70.5" y="-247.5" font-family="Helvetica,sans-Serif" font-size="10.00">force_sum</text>
</a>
</g>
</g>
<!-- Node12&#45;&gt;Node22 -->
<g id="edge12" class="edge">
<title>Node12&#45;&gt;Node22</title>
<path fill="none" stroke="midnightblue" d="M195.68,-292.79C179.91,-285.09 159.65,-275.79 141,-269 128.31,-264.38 113.95,-260.27 101.6,-257.07"/>
<polygon fill="midnightblue" stroke="midnightblue" points="194.35,-296.04 204.87,-297.34 197.46,-289.77 194.35,-296.04"/>
</g>
<!-- Node39 -->
<g id="node14" class="node">
<title>Node39</title>
<g id="a_node14"><a xlink:href="namespacem__orbinfo.html#a7e90574cb9078c6ff14c6104446ee24a" target="_top" xlink:title=" ">
<polygon fill="white" stroke="red" points="24,-202.5 24,-221.5 117,-221.5 117,-202.5 24,-202.5"/>
<text text-anchor="middle" x="70.5" y="-209.5" font-family="Helvetica,sans-Serif" font-size="10.00">m_orbinfo::orbinfo</text>
</a>
</g>
</g>
<!-- Node12&#45;&gt;Node39 -->
<g id="edge13" class="edge">
<title>Node12&#45;&gt;Node39</title>
<path fill="none" stroke="midnightblue" d="M209.1,-289.55C193.89,-272.23 168.38,-246.16 141,-231 133.67,-226.94 125.41,-223.7 117.22,-221.14"/>
<polygon fill="midnightblue" stroke="midnightblue" points="206.53,-291.94 215.69,-297.26 211.85,-287.38 206.53,-291.94"/>
</g>
<!-- Node31 -->
<g id="node15" class="node">
<title>Node31</title>
<g id="a_node15"><a xlink:href="namespacem__pd__force.html#a942ea044856d62ee03ee7623436bc97e" target="_top" xlink:title=" ">
<polygon fill="white" stroke="red" points="15.5,-164.5 15.5,-183.5 125.5,-183.5 125.5,-164.5 15.5,-164.5"/>
<text text-anchor="middle" x="70.5" y="-171.5" font-family="Helvetica,sans-Serif" font-size="10.00">m_pd_force::pd_force</text>
</a>
</g>
</g>
<!-- Node12&#45;&gt;Node31 -->
<g id="edge14" class="edge">
<title>Node12&#45;&gt;Node31</title>
<path fill="none" stroke="midnightblue" d="M214.86,-288.02C202.28,-262.52 176.48,-217.57 141,-193 135.34,-189.08 128.91,-185.97 122.29,-183.5"/>
<polygon fill="midnightblue" stroke="midnightblue" points="211.85,-289.82 219.3,-297.35 218.17,-286.81 211.85,-289.82"/>
</g>
<!-- Node42 -->
<g id="node16" class="node">
<title>Node42</title>
<g id="a_node16"><a xlink:href="pd__forceZ_8f95.html#abdd0ae4a7eb5f80ef45608c877df1a5e" target="_top" xlink:title=" ">
<polygon fill="white" stroke="black" points="41,-126.5 41,-145.5 100,-145.5 100,-126.5 41,-126.5"/>
<text text-anchor="middle" x="70.5" y="-133.5" font-family="Helvetica,sans-Serif" font-size="10.00">pd_forcez</text>
</a>
</g>
</g>
<!-- Node12&#45;&gt;Node42 -->
<g id="edge15" class="edge">
<title>Node12&#45;&gt;Node42</title>
<path fill="none" stroke="midnightblue" d="M218.33,-287.4C208.73,-254.87 184.99,-189.87 141,-155 129.43,-145.83 113.76,-141.08 100.23,-138.62"/>
<polygon fill="midnightblue" stroke="midnightblue" points="215.08,-288.77 221.15,-297.45 221.82,-286.88 215.08,-288.77"/>
</g>
<!-- Node43 -->
<g id="node17" class="node">
<title>Node43</title>
<g id="a_node17"><a xlink:href="yaw__pred_8f95.html#a7a64b9ed25e02702f50c28ba82422963" target="_top" xlink:title=" ">
<polygon fill="white" stroke="red" points="41.5,-88.5 41.5,-107.5 99.5,-107.5 99.5,-88.5 41.5,-88.5"/>
<text text-anchor="middle" x="70.5" y="-95.5" font-family="Helvetica,sans-Serif" font-size="10.00">yaw_pred</text>
</a>
</g>
</g>
<!-- Node12&#45;&gt;Node43 -->
<g id="edge16" class="edge">
<title>Node12&#45;&gt;Node43</title>
<path fill="none" stroke="midnightblue" d="M220.68,-287.47C214.08,-248.93 193.93,-162.87 141,-117 129.56,-107.09 113.41,-102.3 99.55,-100.01"/>
<polygon fill="midnightblue" stroke="midnightblue" points="217.24,-288.08 222.26,-297.41 224.15,-286.98 217.24,-288.08"/>
</g>
<!-- Node46 -->
<g id="node19" class="node">
<title>Node46</title>
<g id="a_node19"><a xlink:href="structNtripSourceTable.html#a255528a066ea7f0bd2254768a0b92314" target="_top" xlink:title=" ">
<polygon fill="white" stroke="red" points="0,-39 0,-69 141,-69 141,-39 0,-39"/>
<text text-anchor="start" x="8" y="-57" font-family="Helvetica,sans-Serif" font-size="10.00">NtripSourceTable::getSource</text>
<text text-anchor="middle" x="70.5" y="-46" font-family="Helvetica,sans-Serif" font-size="10.00">Table</text>
</a>
</g>
</g>
<!-- Node45&#45;&gt;Node46 -->
<g id="edge18" class="edge">
<title>Node45&#45;&gt;Node46</title>
<path fill="none" stroke="midnightblue" d="M196.57,-54C181.07,-54 160.81,-54 141.12,-54"/>
<polygon fill="midnightblue" stroke="midnightblue" points="196.94,-57.5 206.94,-54 196.94,-50.5 196.94,-57.5"/>
</g>
<!-- Node48 -->
<g id="node20" class="node">
<title>Node48</title>
<g id="a_node20"><a xlink:href="classloadGrid.html#ab846a5cf0b57be20c1c371252f126a2a" target="_top" xlink:title=" ">
<polygon fill="white" stroke="black" points="32.5,-0.5 32.5,-19.5 108.5,-19.5 108.5,-0.5 32.5,-0.5"/>
<text text-anchor="middle" x="70.5" y="-7.5" font-family="Helvetica,sans-Serif" font-size="10.00">loadGrid::read</text>
</a>
</g>
</g>
<!-- Node45&#45;&gt;Node48 -->
<g id="edge19" class="edge">
<title>Node45&#45;&gt;Node48</title>
<path fill="none" stroke="midnightblue" d="M196.96,-45.76C180.82,-40.79 159.76,-34.4 141,-29 130.06,-25.85 118.12,-22.54 107.27,-19.58"/>
<polygon fill="midnightblue" stroke="midnightblue" points="196.2,-49.19 206.79,-48.79 198.27,-42.5 196.2,-49.19"/>
</g>
</g>
</svg>
        <g id="navigator" transform="translate(0 0)" fill="#404254">
                <rect fill="#f2f5e9" fill-opacity="0.5" stroke="#606060" stroke-width=".5" x="0" y="0" width="60" height="60"/>
                <use id="zoomplus" xlink:href="#zoomPlus" x="17" y="9" onmousedown="handleZoom(evt,'in')"/>
                <use id="zoomminus" xlink:href="#zoomMin" x="42" y="9" onmousedown="handleZoom(evt,'out')"/>
                <use id="reset" xlink:href="#resetDef" x="30" y="36" onmousedown="handleReset()"/>
                <g id="arrowUp" xlink:href="#dirArrow" transform="translate(30 24)" onmousedown="handlePan(0,-1)">
                  <use xlink:href="#rim" fill="#404040">
                        <set attributeName="fill" to="#808080" begin="arrowUp.mouseover" end="arrowUp.mouseout"/>
                  </use>
                  <path fill="none" stroke="white" stroke-width="1.5" d="M0,-3.0v7 M-2.5,-0.5L0,-3.0L2.5,-0.5"/>
                </g>
                <g id="arrowRight" xlink:href="#dirArrow" transform="rotate(90) translate(36 -43)" onmousedown="handlePan(1,0)">
                  <use xlink:href="#rim" fill="#404040">
                        <set attributeName="fill" to="#808080" begin="arrowRight.mouseover" end="arrowRight.mouseout"/>
                  </use>
                  <path fill="none" stroke="white" stroke-width="1.5" d="M0,-3.0v7 M-2.5,-0.5L0,-3.0L2.5,-0.5"/>
                </g>
                <g id="arrowDown" xlink:href="#dirArrow" transform="rotate(180) translate(-30 -48)" onmousedown="handlePan(0,1)">
                  <use xlink:href="#rim" fill="#404040">
                        <set attributeName="fill" to="#808080" begin="arrowDown.mouseover" end="arrowDown.mouseout"/>
                  </use>
                  <path fill="none" stroke="white" stroke-width="1.5" d="M0,-3.0v7 M-2.5,-0.5L0,-3.0L2.5,-0.5"/>
                </g>
                <g id="arrowLeft" xlink:href="#dirArrow" transform="rotate(270) translate(-36 17)" onmousedown="handlePan(-1,0)">
                  <use xlink:href="#rim" fill="#404040">
                        <set attributeName="fill" to="#808080" begin="arrowLeft.mouseover" end="arrowLeft.mouseout"/>
                  </use>
                  <path fill="none" stroke="white" stroke-width="1.5" d="M0,-3.0v7 M-2.5,-0.5L0,-3.0L2.5,-0.5"/>
                </g>
        </g>
        <svg viewBox="0 0 15 15" width="100%" height="30px" preserveAspectRatio="xMaxYMin meet">
         <g id="arrow_out" transform="scale(0.3 0.3)">
          <a xlink:href="jpl__eph_8cpp_a755e63250f4ea83300f467826c98c0b2_icgraph_org.svg" target="_base">
           <rect id="button" ry="5" rx="5" y="6" x="6" height="38" width="38"
                fill="#f2f5e9" fill-opacity="0.5" stroke="#606060" stroke-width="1.0"/>
           <path id="arrow"
             d="M 11.500037,31.436501 C 11.940474,20.09759 22.043105,11.32322 32.158766,21.979434 L 37.068811,17.246167 C 37.068811,17.246167 37.088388,32 37.088388,32 L 22.160133,31.978069 C 22.160133,31.978069 26.997745,27.140456 26.997745,27.140456 C 18.528582,18.264221 13.291696,25.230495 11.500037,31.436501 z"
             style="fill:#404040;"/>
          </a>
         </g>
        </svg>
</svg>
