<?xml version="1.0" encoding="UTF-8" standalone="no"?>
<!DOCTYPE svg PUBLIC "-//W3C//DTD SVG 1.1//EN"
 "http://www.w3.org/Graphics/SVG/1.1/DTD/svg11.dtd">
<!-- Generated by graphviz version 2.50.0 (20220203.2022)
 -->
<!-- Title: jpl_pleph Pages: 1 -->
<svg width="478pt" height="127pt"
 viewBox="0.00 0.00 478.00 127.00" xmlns="http://www.w3.org/2000/svg" xmlns:xlink="http://www.w3.org/1999/xlink">
<g id="graph0" class="graph" transform="scale(1 1) rotate(0) translate(4 123)">
<title>jpl_pleph</title>
<polygon fill="white" stroke="transparent" points="-4,4 -4,-123 474,-123 474,4 -4,4"/>
<!-- Node1 -->
<g id="node1" class="node">
<title>Node1</title>
<g id="a_node1"><a xlink:title=" ">
<polygon fill="#bfbfbf" stroke="black" points="415,-50 415,-69 470,-69 470,-50 415,-50"/>
<text text-anchor="middle" x="442.5" y="-57" font-family="Helvetica,sans-Serif" font-size="10.00">jpl_pleph</text>
</a>
</g>
</g>
<!-- Node2 -->
<g id="node2" class="node">
<title>Node2</title>
<g id="a_node2"><a xlink:href="jplEph_8cpp.html#a6e71fd82928bd5cfe04945e4bd27384b" target="_top" xlink:title=" ">
<polygon fill="white" stroke="black" points="319,-50 319,-69 379,-69 379,-50 319,-50"/>
<text text-anchor="middle" x="349" y="-57" font-family="Helvetica,sans-Serif" font-size="10.00">jplEphPos</text>
</a>
</g>
</g>
<!-- Node1&#45;&gt;Node2 -->
<g id="edge1" class="edge">
<title>Node1&#45;&gt;Node2</title>
<path fill="none" stroke="midnightblue" d="M404.3,-59.5C395.98,-59.5 387.27,-59.5 379.32,-59.5"/>
<polygon fill="midnightblue" stroke="midnightblue" points="404.54,-63 414.54,-59.5 404.54,-56 404.54,-63"/>
</g>
<!-- Node3 -->
<g id="node3" class="node">
<title>Node3</title>
<g id="a_node3"><a xlink:href="structGravityModel.html#a0e1dabb37011988e3b1d54da0cd6517b" target="_top" xlink:title=" ">
<polygon fill="white" stroke="black" points="155,-88.5 155,-118.5 283,-118.5 283,-88.5 155,-88.5"/>
<text text-anchor="start" x="163" y="-106.5" font-family="Helvetica,sans-Serif" font-size="10.00">GravityModel::correctEgm</text>
<text text-anchor="middle" x="219" y="-95.5" font-family="Helvetica,sans-Serif" font-size="10.00">Coefficients</text>
</a>
</g>
</g>
<!-- Node2&#45;&gt;Node3 -->
<g id="edge2" class="edge">
<title>Node2&#45;&gt;Node3</title>
<path fill="none" stroke="midnightblue" d="M310.51,-72.39C295.88,-77.42 279.01,-83.22 263.83,-88.43"/>
<polygon fill="midnightblue" stroke="midnightblue" points="311.91,-75.61 320.23,-69.05 309.63,-68.99 311.91,-75.61"/>
</g>
<!-- Node4 -->
<g id="node4" class="node">
<title>Node4</title>
<g id="a_node4"><a xlink:href="structOrbitPropagator.html#ad6ae055f90d570dd668cf5965c4d06f9" target="_top" xlink:title="mjdUTC at the current moment">
<polygon fill="white" stroke="black" points="0,-72 0,-91 119,-91 119,-72 0,-72"/>
<text text-anchor="middle" x="59.5" y="-79" font-family="Helvetica,sans-Serif" font-size="10.00">OrbitPropagator::update</text>
</a>
</g>
</g>
<!-- Node2&#45;&gt;Node4 -->
<g id="edge5" class="edge">
<title>Node2&#45;&gt;Node4</title>
<path fill="none" stroke="midnightblue" d="M308.66,-62.51C259.68,-66.26 175.58,-72.69 119.03,-77.02"/>
<polygon fill="midnightblue" stroke="midnightblue" points="309.15,-65.98 318.85,-61.73 308.61,-59 309.15,-65.98"/>
</g>
<!-- Node5 -->
<g id="node5" class="node">
<title>Node5</title>
<g id="a_node5"><a xlink:href="structSolarRadPressure.html#abaf459e6b40c61326b55af00e9452a95" target="_top" xlink:title="Satellite position vector, unit: m, m/s.">
<polygon fill="white" stroke="red" points="157,-0.5 157,-30.5 281,-30.5 281,-0.5 157,-0.5"/>
<text text-anchor="start" x="165" y="-18.5" font-family="Helvetica,sans-Serif" font-size="10.00">SolarRadPressure::direct</text>
<text text-anchor="middle" x="219" y="-7.5" font-family="Helvetica,sans-Serif" font-size="10.00">SolarRadiationAcc</text>
</a>
</g>
</g>
<!-- Node2&#45;&gt;Node5 -->
<g id="edge4" class="edge">
<title>Node2&#45;&gt;Node5</title>
<path fill="none" stroke="midnightblue" d="M310.51,-46.61C295.88,-41.58 279.01,-35.78 263.83,-30.57"/>
<polygon fill="midnightblue" stroke="midnightblue" points="309.63,-50.01 320.23,-49.95 311.91,-43.39 309.63,-50.01"/>
</g>
<!-- Node3&#45;&gt;Node4 -->
<g id="edge3" class="edge">
<title>Node3&#45;&gt;Node4</title>
<path fill="none" stroke="midnightblue" d="M144.79,-93.27C136.17,-92.07 127.46,-90.85 119.07,-89.68"/>
<polygon fill="midnightblue" stroke="midnightblue" points="144.46,-96.76 154.85,-94.68 145.43,-89.83 144.46,-96.76"/>
</g>
</g>
</svg>
