<?xml version="1.0" encoding="UTF-8" standalone="no"?>
<!DOCTYPE svg PUBLIC "-//W3C//DTD SVG 1.1//EN"
 "http://www.w3.org/Graphics/SVG/1.1/DTD/svg11.dtd">
<!-- Generated by graphviz version 2.50.0 (20220203.2022)
 -->
<!-- Title: swap_32_bit_val Pages: 1 -->
<svg width="350pt" height="28pt"
 viewBox="0.00 0.00 350.00 28.00" xmlns="http://www.w3.org/2000/svg" xmlns:xlink="http://www.w3.org/1999/xlink">
<g id="graph0" class="graph" transform="scale(1 1) rotate(0) translate(4 24)">
<title>swap_32_bit_val</title>
<polygon fill="white" stroke="transparent" points="-4,4 -4,-24 346,-24 346,4 -4,4"/>
<!-- Node1 -->
<g id="node1" class="node">
<title>Node1</title>
<g id="a_node1"><a xlink:title=" ">
<polygon fill="#bfbfbf" stroke="black" points="253,-0.5 253,-19.5 342,-19.5 342,-0.5 253,-0.5"/>
<text text-anchor="middle" x="297.5" y="-7.5" font-family="Helvetica,sans-Serif" font-size="10.00">swap_32_bit_val</text>
</a>
</g>
</g>
<!-- Node2 -->
<g id="node2" class="node">
<title>Node2</title>
<g id="a_node2"><a xlink:href="jpl__eph_8cpp.html#a05d41bbc99b847aae25193b2f00eaaf7" target="_top" xlink:title=" ">
<polygon fill="white" stroke="black" points="122,-0.5 122,-19.5 217,-19.5 217,-0.5 122,-0.5"/>
<text text-anchor="middle" x="169.5" y="-7.5" font-family="Helvetica,sans-Serif" font-size="10.00">jpl_init_ephemeris</text>
</a>
</g>
</g>
<!-- Node1&#45;&gt;Node2 -->
<g id="edge1" class="edge">
<title>Node1&#45;&gt;Node2</title>
<path fill="none" stroke="midnightblue" d="M242.6,-10C234.13,-10 225.43,-10 217.14,-10"/>
<polygon fill="midnightblue" stroke="midnightblue" points="242.78,-13.5 252.78,-10 242.78,-6.5 242.78,-13.5"/>
</g>
<!-- Node3 -->
<g id="node3" class="node">
<title>Node3</title>
<g id="a_node3"><a xlink:href="main_8cpp.html#a414f34e8bd65aa4d83398bab54236157" target="_top" xlink:title=" ">
<polygon fill="white" stroke="red" points="0,-0.5 0,-19.5 86,-19.5 86,-0.5 0,-0.5"/>
<text text-anchor="middle" x="43" y="-7.5" font-family="Helvetica,sans-Serif" font-size="10.00">reloadInputFiles</text>
</a>
</g>
</g>
<!-- Node2&#45;&gt;Node3 -->
<g id="edge2" class="edge">
<title>Node2&#45;&gt;Node3</title>
<path fill="none" stroke="midnightblue" d="M111.74,-10C103.1,-10 94.31,-10 86.05,-10"/>
<polygon fill="midnightblue" stroke="midnightblue" points="111.79,-13.5 121.79,-10 111.79,-6.5 111.79,-13.5"/>
</g>
</g>
</svg>
