<?xml version="1.0" encoding="UTF-8" standalone="no"?>
<!DOCTYPE svg PUBLIC "-//W3C//DTD SVG 1.1//EN"
 "http://www.w3.org/Graphics/SVG/1.1/DTD/svg11.dtd">
<!-- Generated by graphviz version 2.50.0 (20220203.2022)
 -->
<!-- Title: jplEphPos Pages: 1 -->
<svg width="399pt" height="127pt"
 viewBox="0.00 0.00 399.00 127.00" xmlns="http://www.w3.org/2000/svg" xmlns:xlink="http://www.w3.org/1999/xlink">
<g id="graph0" class="graph" transform="scale(1 1) rotate(0) translate(4 123)">
<title>jplEphPos</title>
<polygon fill="white" stroke="transparent" points="-4,4 -4,-123 395,-123 395,4 -4,4"/>
<!-- Node1 -->
<g id="node1" class="node">
<title>Node1</title>
<g id="a_node1"><a xlink:title=" ">
<polygon fill="#bfbfbf" stroke="black" points="331,-50 331,-69 391,-69 391,-50 331,-50"/>
<text text-anchor="middle" x="361" y="-57" font-family="Helvetica,sans-Serif" font-size="10.00">jplEphPos</text>
</a>
</g>
</g>
<!-- Node2 -->
<g id="node2" class="node">
<title>Node2</title>
<g id="a_node2"><a xlink:href="structGravityModel.html#a0e1dabb37011988e3b1d54da0cd6517b" target="_top" xlink:title=" ">
<polygon fill="white" stroke="black" points="167,-88.5 167,-118.5 295,-118.5 295,-88.5 167,-88.5"/>
<text text-anchor="start" x="175" y="-106.5" font-family="Helvetica,sans-Serif" font-size="10.00">GravityModel::correctEgm</text>
<text text-anchor="middle" x="231" y="-95.5" font-family="Helvetica,sans-Serif" font-size="10.00">Coefficients</text>
</a>
</g>
</g>
<!-- Node1&#45;&gt;Node2 -->
<g id="edge1" class="edge">
<title>Node1&#45;&gt;Node2</title>
<path fill="none" stroke="midnightblue" d="M322.51,-72.39C307.88,-77.42 291.01,-83.22 275.83,-88.43"/>
<polygon fill="midnightblue" stroke="midnightblue" points="323.91,-75.61 332.23,-69.05 321.63,-68.99 323.91,-75.61"/>
</g>
<!-- Node3 -->
<g id="node3" class="node">
<title>Node3</title>
<g id="a_node3"><a xlink:href="structOrbitPropagator.html#ad6ae055f90d570dd668cf5965c4d06f9" target="_top" xlink:title="mjdUTC at the current moment">
<polygon fill="white" stroke="black" points="6,-72 6,-91 125,-91 125,-72 6,-72"/>
<text text-anchor="middle" x="65.5" y="-79" font-family="Helvetica,sans-Serif" font-size="10.00">OrbitPropagator::update</text>
</a>
</g>
</g>
<!-- Node1&#45;&gt;Node3 -->
<g id="edge5" class="edge">
<title>Node1&#45;&gt;Node3</title>
<path fill="none" stroke="midnightblue" d="M320.66,-62.45C270.44,-66.21 183.14,-72.76 125.09,-77.11"/>
<polygon fill="midnightblue" stroke="midnightblue" points="321.07,-65.93 330.79,-61.69 320.55,-58.95 321.07,-65.93"/>
</g>
<!-- Node4 -->
<g id="node4" class="node">
<title>Node4</title>
<g id="a_node4"><a xlink:href="structSolarRadPressure.html#abaf459e6b40c61326b55af00e9452a95" target="_top" xlink:title="Satellite position vector, unit: m, m/s.">
<polygon fill="white" stroke="black" points="169,-0.5 169,-30.5 293,-30.5 293,-0.5 169,-0.5"/>
<text text-anchor="start" x="177" y="-18.5" font-family="Helvetica,sans-Serif" font-size="10.00">SolarRadPressure::direct</text>
<text text-anchor="middle" x="231" y="-7.5" font-family="Helvetica,sans-Serif" font-size="10.00">SolarRadiationAcc</text>
</a>
</g>
</g>
<!-- Node1&#45;&gt;Node4 -->
<g id="edge3" class="edge">
<title>Node1&#45;&gt;Node4</title>
<path fill="none" stroke="midnightblue" d="M322.51,-46.61C307.88,-41.58 291.01,-35.78 275.83,-30.57"/>
<polygon fill="midnightblue" stroke="midnightblue" points="321.63,-50.01 332.23,-49.95 323.91,-43.39 321.63,-50.01"/>
</g>
<!-- Node2&#45;&gt;Node3 -->
<g id="edge2" class="edge">
<title>Node2&#45;&gt;Node3</title>
<path fill="none" stroke="midnightblue" d="M156.76,-93.64C146.21,-92.23 135.48,-90.78 125.26,-89.41"/>
<polygon fill="midnightblue" stroke="midnightblue" points="156.41,-97.13 166.79,-94.99 157.34,-90.19 156.41,-97.13"/>
</g>
<!-- Node5 -->
<g id="node5" class="node">
<title>Node5</title>
<g id="a_node5"><a xlink:href="structOrbitPropagator.html#a1110817f2823b35262c48ce347a31a12" target="_top" xlink:title="Propagate orbits by ODE functor.">
<polygon fill="white" stroke="black" points="0,-6 0,-25 131,-25 131,-6 0,-6"/>
<text text-anchor="middle" x="65.5" y="-13" font-family="Helvetica,sans-Serif" font-size="10.00">OrbitPropagator::operator()</text>
</a>
</g>
</g>
<!-- Node4&#45;&gt;Node5 -->
<g id="edge4" class="edge">
<title>Node4&#45;&gt;Node5</title>
<path fill="none" stroke="midnightblue" d="M158.5,-15.5C149.42,-15.5 140.16,-15.5 131.2,-15.5"/>
<polygon fill="midnightblue" stroke="midnightblue" points="158.65,-19 168.65,-15.5 158.65,-12 158.65,-19"/>
</g>
</g>
</svg>
