<?xml version="1.0" encoding="UTF-8" standalone="no"?>
<!DOCTYPE svg PUBLIC "-//W3C//DTD SVG 1.1//EN"
 "http://www.w3.org/Graphics/SVG/1.1/DTD/svg11.dtd">
<!-- Generated by graphviz version 2.50.0 (20220203.2022)
 -->
<!-- Title: lambda Pages: 1 -->
<svg width="325pt" height="427pt"
 viewBox="0.00 0.00 325.00 427.00" xmlns="http://www.w3.org/2000/svg" xmlns:xlink="http://www.w3.org/1999/xlink">
<g id="graph0" class="graph" transform="scale(1 1) rotate(0) translate(4 423)">
<title>lambda</title>
<polygon fill="white" stroke="transparent" points="-4,4 -4,-423 321,-423 321,4 -4,4"/>
<!-- Node1 -->
<g id="node1" class="node">
<title>Node1</title>
<g id="a_node1"><a xlink:title=" ">
<polygon fill="#bfbfbf" stroke="black" points="0,-209.5 0,-228.5 48,-228.5 48,-209.5 0,-209.5"/>
<text text-anchor="middle" x="24" y="-216.5" font-family="Helvetica,sans-Serif" font-size="10.00">lambda</text>
</a>
</g>
</g>
<!-- Node2 -->
<g id="node2" class="node">
<title>Node2</title>
<g id="a_node2"><a xlink:href="algebra__old_8cpp.html#adfe9cb36e0f4af6b1ca11bdfbe66e55c" target="_top" xlink:title=" ">
<polygon fill="white" stroke="black" points="100,-285.5 100,-304.5 132,-304.5 132,-285.5 100,-285.5"/>
<text text-anchor="middle" x="116" y="-292.5" font-family="Helvetica,sans-Serif" font-size="10.00">eye</text>
</a>
</g>
</g>
<!-- Node1&#45;&gt;Node2 -->
<g id="edge1" class="edge">
<title>Node1&#45;&gt;Node2</title>
<path fill="none" stroke="midnightblue" d="M33.63,-228.54C44.66,-240.43 64.63,-261 84,-276 86.29,-277.78 88.76,-279.53 91.27,-281.2"/>
<polygon fill="midnightblue" stroke="midnightblue" points="89.41,-284.17 99.74,-286.55 93.15,-278.25 89.41,-284.17"/>
</g>
<!-- Node3 -->
<g id="node3" class="node">
<title>Node3</title>
<g id="a_node3"><a xlink:href="algebra__old_8cpp.html#a446a2803e5eaeb996733dd8d73966f00" target="_top" xlink:title=" ">
<polygon fill="white" stroke="red" points="188.5,-323.5 188.5,-342.5 228.5,-342.5 228.5,-323.5 188.5,-323.5"/>
<text text-anchor="middle" x="208.5" y="-330.5" font-family="Helvetica,sans-Serif" font-size="10.00">zeros</text>
</a>
</g>
</g>
<!-- Node1&#45;&gt;Node3 -->
<g id="edge26" class="edge">
<title>Node1&#45;&gt;Node3</title>
<path fill="none" stroke="midnightblue" d="M27.97,-228.75C34.53,-248.48 52.25,-293.02 84,-314 112,-332.5 151.25,-335.58 177.94,-335.12"/>
<polygon fill="midnightblue" stroke="midnightblue" points="178.32,-338.61 188.19,-334.76 178.07,-331.61 178.32,-338.61"/>
</g>
<!-- Node5 -->
<g id="node4" class="node">
<title>Node5</title>
<g id="a_node4"><a xlink:href="algebra__old_8cpp.html#a1d2c1ecab5b17dcc773fcd83c0b87b7e" target="_top" xlink:title=" ">
<polygon fill="white" stroke="red" points="276.5,-152.5 276.5,-171.5 309.5,-171.5 309.5,-152.5 276.5,-152.5"/>
<text text-anchor="middle" x="293" y="-159.5" font-family="Helvetica,sans-Serif" font-size="10.00">mat</text>
</a>
</g>
</g>
<!-- Node1&#45;&gt;Node5 -->
<g id="edge8" class="edge">
<title>Node1&#45;&gt;Node5</title>
<path fill="none" stroke="midnightblue" d="M48.06,-210.8C58.87,-207.16 72,-203.02 84,-200 148.92,-183.69 226.89,-171.33 266.38,-165.58"/>
<polygon fill="midnightblue" stroke="midnightblue" points="267.06,-169.01 276.46,-164.13 266.06,-162.09 267.06,-169.01"/>
</g>
<!-- Node6 -->
<g id="node5" class="node">
<title>Node6</title>
<g id="a_node5"><a xlink:href="lambda_8cpp.html#a1555fac516bd89d1cc6559c9cc79dc28" target="_top" xlink:title=" ">
<polygon fill="white" stroke="black" points="95.5,-399.5 95.5,-418.5 136.5,-418.5 136.5,-399.5 95.5,-399.5"/>
<text text-anchor="middle" x="116" y="-406.5" font-family="Helvetica,sans-Serif" font-size="10.00">ffratio</text>
</a>
</g>
</g>
<!-- Node1&#45;&gt;Node6 -->
<g id="edge4" class="edge">
<title>Node1&#45;&gt;Node6</title>
<path fill="none" stroke="midnightblue" d="M26.03,-228.6C29.46,-256.45 42.71,-338.58 84,-390 84.96,-391.2 86.02,-392.34 87.16,-393.43"/>
<polygon fill="midnightblue" stroke="midnightblue" points="85.3,-396.42 95.35,-399.78 89.59,-390.89 85.3,-396.42"/>
</g>
<!-- Node8 -->
<g id="node7" class="node">
<title>Node8</title>
<g id="a_node7"><a xlink:href="lambda_8cpp.html#a95d9f9037b4b559cb1af6c1d66f26728" target="_top" xlink:title=" ">
<polygon fill="white" stroke="black" points="194,-133.5 194,-152.5 223,-152.5 223,-133.5 194,-133.5"/>
<text text-anchor="middle" x="208.5" y="-140.5" font-family="Helvetica,sans-Serif" font-size="10.00">LD</text>
</a>
</g>
</g>
<!-- Node1&#45;&gt;Node8 -->
<g id="edge6" class="edge">
<title>Node1&#45;&gt;Node8</title>
<path fill="none" stroke="midnightblue" d="M33.08,-209.23C43.54,-197.28 62.93,-177.37 84,-167 116.24,-151.14 158.04,-145.75 183.8,-143.93"/>
<polygon fill="midnightblue" stroke="midnightblue" points="184.01,-147.42 193.79,-143.34 183.6,-140.43 184.01,-147.42"/>
</g>
<!-- Node9 -->
<g id="node8" class="node">
<title>Node9</title>
<g id="a_node8"><a xlink:href="algebra__old_8cpp.html#adc33998911a24938042604ba1f8e6196" target="_top" xlink:title=" ">
<polygon fill="white" stroke="black" points="184,-95.5 184,-114.5 233,-114.5 233,-95.5 184,-95.5"/>
<text text-anchor="middle" x="208.5" y="-102.5" font-family="Helvetica,sans-Serif" font-size="10.00">matmul</text>
</a>
</g>
</g>
<!-- Node1&#45;&gt;Node9 -->
<g id="edge9" class="edge">
<title>Node1&#45;&gt;Node9</title>
<path fill="none" stroke="midnightblue" d="M29.99,-209.43C38.78,-193.52 58.52,-161.62 84,-144 111.1,-125.26 147.64,-115.19 173.94,-110.01"/>
<polygon fill="midnightblue" stroke="midnightblue" points="174.62,-113.45 183.82,-108.2 173.36,-106.56 174.62,-113.45"/>
</g>
<!-- Node10 -->
<g id="node9" class="node">
<title>Node10</title>
<g id="a_node9"><a xlink:href="lambda_8cpp.html#a62e489eccec78e79da165885d8ab994d" target="_top" xlink:title=" ">
<polygon fill="white" stroke="black" points="86,-247.5 86,-266.5 146,-266.5 146,-247.5 86,-247.5"/>
<text text-anchor="middle" x="116" y="-254.5" font-family="Helvetica,sans-Serif" font-size="10.00">normcdfar</text>
</a>
</g>
</g>
<!-- Node1&#45;&gt;Node10 -->
<g id="edge10" class="edge">
<title>Node1&#45;&gt;Node10</title>
<path fill="none" stroke="midnightblue" d="M47.71,-228.59C58.37,-233.09 71.26,-238.53 82.9,-243.44"/>
<polygon fill="midnightblue" stroke="midnightblue" points="81.72,-246.75 92.3,-247.41 84.45,-240.3 81.72,-246.75"/>
</g>
<!-- Node13 -->
<g id="node11" class="node">
<title>Node13</title>
<g id="a_node11"><a xlink:href="lambda_8cpp.html#a483a1d235f923852347ceb16f2944efe" target="_top" xlink:title=" ">
<polygon fill="white" stroke="black" points="88,-209.5 88,-228.5 144,-228.5 144,-209.5 88,-209.5"/>
<text text-anchor="middle" x="116" y="-216.5" font-family="Helvetica,sans-Serif" font-size="10.00">reduction</text>
</a>
</g>
</g>
<!-- Node1&#45;&gt;Node13 -->
<g id="edge12" class="edge">
<title>Node1&#45;&gt;Node13</title>
<path fill="none" stroke="midnightblue" d="M48.18,-219C57.15,-219 67.64,-219 77.62,-219"/>
<polygon fill="midnightblue" stroke="midnightblue" points="77.75,-222.5 87.75,-219 77.75,-215.5 77.75,-222.5"/>
</g>
<!-- Node16 -->
<g id="node14" class="node">
<title>Node16</title>
<g id="a_node14"><a xlink:href="lambda_8cpp.html#a7a45f828294c77c7e36d0a8cbfa229a3" target="_top" xlink:title=" ">
<polygon fill="white" stroke="black" points="93,-361.5 93,-380.5 139,-380.5 139,-361.5 93,-361.5"/>
<text text-anchor="middle" x="116" y="-368.5" font-family="Helvetica,sans-Serif" font-size="10.00">search</text>
</a>
</g>
</g>
<!-- Node1&#45;&gt;Node16 -->
<g id="edge15" class="edge">
<title>Node1&#45;&gt;Node16</title>
<path fill="none" stroke="midnightblue" d="M27.66,-228.52C34.28,-250.99 53.23,-308.32 84,-347 86.23,-349.8 88.85,-352.46 91.61,-354.93"/>
<polygon fill="midnightblue" stroke="midnightblue" points="89.55,-357.76 99.53,-361.29 93.93,-352.3 89.55,-357.76"/>
</g>
<!-- Node17 -->
<g id="node15" class="node">
<title>Node17</title>
<g id="a_node15"><a xlink:href="algebra__old_8cpp.html#a54fd9b64416949c38e879ac889964d2a" target="_top" xlink:title=" ">
<polygon fill="white" stroke="black" points="96,-57.5 96,-76.5 136,-76.5 136,-57.5 96,-57.5"/>
<text text-anchor="middle" x="116" y="-64.5" font-family="Helvetica,sans-Serif" font-size="10.00">solve</text>
</a>
</g>
</g>
<!-- Node1&#45;&gt;Node17 -->
<g id="edge18" class="edge">
<title>Node1&#45;&gt;Node17</title>
<path fill="none" stroke="midnightblue" d="M27.66,-209.48C34.28,-187.01 53.23,-129.68 84,-91 86.23,-88.2 88.85,-85.54 91.61,-83.07"/>
<polygon fill="midnightblue" stroke="midnightblue" points="93.93,-85.7 99.53,-76.71 89.55,-80.24 93.93,-85.7"/>
</g>
<!-- Node23 -->
<g id="node18" class="node">
<title>Node23</title>
<g id="a_node18"><a xlink:href="streamTrace_8cpp.html#ae00e6addd3bdf3a7fd41a254eb9aec89" target="_top" xlink:title=" ">
<polygon fill="white" stroke="black" points="84,-19.5 84,-38.5 148,-38.5 148,-19.5 84,-19.5"/>
<text text-anchor="middle" x="116" y="-26.5" font-family="Helvetica,sans-Serif" font-size="10.00">tracepdeex</text>
</a>
</g>
</g>
<!-- Node1&#45;&gt;Node23 -->
<g id="edge25" class="edge">
<title>Node1&#45;&gt;Node23</title>
<path fill="none" stroke="midnightblue" d="M26.03,-209.4C29.46,-181.55 42.71,-99.42 84,-48 84.82,-46.98 85.72,-45.99 86.66,-45.05"/>
<polygon fill="midnightblue" stroke="midnightblue" points="89.07,-47.6 94.71,-38.63 84.71,-42.13 89.07,-47.6"/>
</g>
<!-- Node2&#45;&gt;Node3 -->
<g id="edge2" class="edge">
<title>Node2&#45;&gt;Node3</title>
<path fill="none" stroke="midnightblue" d="M132.35,-301.45C145.01,-306.76 163.32,-314.45 178.7,-320.91"/>
<polygon fill="midnightblue" stroke="midnightblue" points="177.71,-324.29 188.29,-324.93 180.42,-317.83 177.71,-324.29"/>
</g>
<!-- Node3&#45;&gt;Node5 -->
<g id="edge3" class="edge">
<title>Node3&#45;&gt;Node5</title>
<path fill="none" stroke="midnightblue" d="M224.04,-323.21C227.3,-320.52 230.53,-317.39 233,-314 263.62,-272.05 280.66,-212.16 287.85,-181.59"/>
<polygon fill="midnightblue" stroke="midnightblue" points="291.29,-182.26 290.06,-171.74 284.46,-180.73 291.29,-182.26"/>
</g>
<!-- Node7 -->
<g id="node6" class="node">
<title>Node7</title>
<g id="a_node6"><a xlink:href="lambda_8cpp.html#a7113ef0221a1d5ec3bc47631c5fa0112" target="_top" xlink:title=" ">
<polygon fill="white" stroke="black" points="190.5,-399.5 190.5,-418.5 226.5,-418.5 226.5,-399.5 190.5,-399.5"/>
<text text-anchor="middle" x="208.5" y="-406.5" font-family="Helvetica,sans-Serif" font-size="10.00">rsort</text>
</a>
</g>
</g>
<!-- Node6&#45;&gt;Node7 -->
<g id="edge5" class="edge">
<title>Node6&#45;&gt;Node7</title>
<path fill="none" stroke="midnightblue" d="M136.64,-409C149.4,-409 166.21,-409 180.25,-409"/>
<polygon fill="midnightblue" stroke="midnightblue" points="180.34,-412.5 190.34,-409 180.34,-405.5 180.34,-412.5"/>
</g>
<!-- Node8&#45;&gt;Node5 -->
<g id="edge7" class="edge">
<title>Node8&#45;&gt;Node5</title>
<path fill="none" stroke="midnightblue" d="M223.12,-146.14C234.91,-148.85 252.26,-152.85 266.6,-156.15"/>
<polygon fill="midnightblue" stroke="midnightblue" points="265.85,-159.57 276.39,-158.4 267.43,-152.75 265.85,-159.57"/>
</g>
<!-- Node11 -->
<g id="node10" class="node">
<title>Node11</title>
<g id="a_node10"><a xlink:href="lambda_8cpp.html#aa6373e942a90853229d95abeafbaa28b" target="_top" xlink:title=" ">
<polygon fill="white" stroke="red" points="190.5,-285.5 190.5,-304.5 226.5,-304.5 226.5,-285.5 190.5,-285.5"/>
<text text-anchor="middle" x="208.5" y="-292.5" font-family="Helvetica,sans-Serif" font-size="10.00">erfar</text>
</a>
</g>
</g>
<!-- Node10&#45;&gt;Node11 -->
<g id="edge11" class="edge">
<title>Node10&#45;&gt;Node11</title>
<path fill="none" stroke="midnightblue" d="M139.84,-266.59C152.36,-271.85 167.93,-278.39 180.99,-283.87"/>
<polygon fill="midnightblue" stroke="midnightblue" points="179.81,-287.17 190.38,-287.81 182.52,-280.71 179.81,-287.17"/>
</g>
<!-- Node14 -->
<g id="node12" class="node">
<title>Node14</title>
<g id="a_node12"><a xlink:href="lambda_8cpp.html#a6685778b34e52f849b5d49980b7d9215" target="_top" xlink:title=" ">
<polygon fill="white" stroke="black" points="187,-209.5 187,-228.5 230,-228.5 230,-209.5 187,-209.5"/>
<text text-anchor="middle" x="208.5" y="-216.5" font-family="Helvetica,sans-Serif" font-size="10.00">gauss</text>
</a>
</g>
</g>
<!-- Node13&#45;&gt;Node14 -->
<g id="edge13" class="edge">
<title>Node13&#45;&gt;Node14</title>
<path fill="none" stroke="midnightblue" d="M144.15,-219C154.46,-219 166.27,-219 176.88,-219"/>
<polygon fill="midnightblue" stroke="midnightblue" points="176.99,-222.5 186.99,-219 176.99,-215.5 176.99,-222.5"/>
</g>
<!-- Node15 -->
<g id="node13" class="node">
<title>Node15</title>
<g id="a_node13"><a xlink:href="lambda_8cpp.html#a0f572bade5de0ac4f17e33702db53106" target="_top" xlink:title=" ">
<polygon fill="white" stroke="black" points="189.5,-247.5 189.5,-266.5 227.5,-266.5 227.5,-247.5 189.5,-247.5"/>
<text text-anchor="middle" x="208.5" y="-254.5" font-family="Helvetica,sans-Serif" font-size="10.00">perm</text>
</a>
</g>
</g>
<!-- Node13&#45;&gt;Node15 -->
<g id="edge14" class="edge">
<title>Node13&#45;&gt;Node15</title>
<path fill="none" stroke="midnightblue" d="M139.84,-228.59C152.02,-233.71 167.11,-240.04 179.94,-245.43"/>
<polygon fill="midnightblue" stroke="midnightblue" points="178.65,-248.68 189.23,-249.33 181.36,-242.23 178.65,-248.68"/>
</g>
<!-- Node16&#45;&gt;Node3 -->
<g id="edge17" class="edge">
<title>Node16&#45;&gt;Node3</title>
<path fill="none" stroke="midnightblue" d="M139.37,-361.61C151.38,-356.56 166.32,-350.29 179.14,-344.91"/>
<polygon fill="midnightblue" stroke="midnightblue" points="180.58,-348.1 188.45,-341 177.87,-341.65 180.58,-348.1"/>
</g>
<!-- Node16&#45;&gt;Node5 -->
<g id="edge16" class="edge">
<title>Node16&#45;&gt;Node5</title>
<path fill="none" stroke="midnightblue" d="M139.07,-373.75C164.76,-375.67 206.98,-374.64 233,-352 283.75,-307.84 291.43,-220.89 292.2,-181.83"/>
<polygon fill="midnightblue" stroke="midnightblue" points="295.7,-181.77 292.26,-171.75 288.7,-181.73 295.7,-181.77"/>
</g>
<!-- Node17&#45;&gt;Node5 -->
<g id="edge19" class="edge">
<title>Node17&#45;&gt;Node5</title>
<path fill="none" stroke="midnightblue" d="M136.11,-66.01C160.35,-65.62 202.66,-67.95 233,-86 255.89,-99.62 273.16,-125.76 282.93,-143.54"/>
<polygon fill="midnightblue" stroke="midnightblue" points="279.83,-145.18 287.57,-152.42 286.04,-141.94 279.83,-145.18"/>
</g>
<!-- Node17&#45;&gt;Node9 -->
<g id="edge24" class="edge">
<title>Node17&#45;&gt;Node9</title>
<path fill="none" stroke="midnightblue" d="M136.19,-75.06C147.52,-79.82 162.16,-85.96 175.22,-91.44"/>
<polygon fill="midnightblue" stroke="midnightblue" points="174.24,-94.83 184.82,-95.48 176.95,-88.38 174.24,-94.83"/>
</g>
<!-- Node18 -->
<g id="node16" class="node">
<title>Node18</title>
<g id="a_node16"><a xlink:href="algebra__old_8cpp.html#a50d2d9511da542d472f3390449fedf38" target="_top" xlink:title=" ">
<polygon fill="white" stroke="black" points="269,-0.5 269,-19.5 317,-19.5 317,-0.5 269,-0.5"/>
<text text-anchor="middle" x="293" y="-7.5" font-family="Helvetica,sans-Serif" font-size="10.00">matcpy</text>
</a>
</g>
</g>
<!-- Node17&#45;&gt;Node18 -->
<g id="edge20" class="edge">
<title>Node17&#45;&gt;Node18</title>
<path fill="none" stroke="midnightblue" d="M134.6,-57.32C139.13,-54.53 143.88,-51.34 148,-48 166.07,-33.35 162.63,-19.19 184,-10 207.49,0.11 236.61,-0.56 258.69,-3.38"/>
<polygon fill="midnightblue" stroke="midnightblue" points="258.2,-6.85 268.6,-4.85 259.22,0.08 258.2,-6.85"/>
</g>
<!-- Node19 -->
<g id="node17" class="node">
<title>Node19</title>
<g id="a_node17"><a xlink:href="algebra__old_8cpp.html#a4035d20f11b4bd8085e6b0f84f8c0764" target="_top" xlink:title=" ">
<polygon fill="white" stroke="red" points="185.5,-19.5 185.5,-38.5 231.5,-38.5 231.5,-19.5 185.5,-19.5"/>
<text text-anchor="middle" x="208.5" y="-26.5" font-family="Helvetica,sans-Serif" font-size="10.00">matinv</text>
</a>
</g>
</g>
<!-- Node17&#45;&gt;Node19 -->
<g id="edge21" class="edge">
<title>Node17&#45;&gt;Node19</title>
<path fill="none" stroke="midnightblue" d="M136.19,-58.94C147.8,-54.07 162.88,-47.74 176.18,-42.15"/>
<polygon fill="midnightblue" stroke="midnightblue" points="177.6,-45.35 185.47,-38.25 174.89,-38.89 177.6,-45.35"/>
</g>
<!-- Node19&#45;&gt;Node5 -->
<g id="edge22" class="edge">
<title>Node19&#45;&gt;Node5</title>
<path fill="none" stroke="midnightblue" d="M220.23,-38.71C224.5,-42.87 229.26,-47.93 233,-53 254.61,-82.3 273.43,-120.49 283.71,-143.01"/>
<polygon fill="midnightblue" stroke="midnightblue" points="280.64,-144.74 287.92,-152.44 287.03,-141.88 280.64,-144.74"/>
</g>
<!-- Node19&#45;&gt;Node18 -->
<g id="edge23" class="edge">
<title>Node19&#45;&gt;Node18</title>
<path fill="none" stroke="midnightblue" d="M231.61,-23.91C240,-21.98 249.75,-19.73 258.94,-17.61"/>
<polygon fill="midnightblue" stroke="midnightblue" points="260.01,-20.96 268.97,-15.3 258.44,-14.14 260.01,-20.96"/>
</g>
</g>
</svg>
