<?xml version="1.0" encoding="UTF-8" standalone="no"?>
<!DOCTYPE svg PUBLIC "-//W3C//DTD SVG 1.1//EN"
 "http://www.w3.org/Graphics/SVG/1.1/DTD/svg11.dtd">
<!-- Generated by graphviz version 2.50.0 (20220203.2022)
 -->
<!-- Title: obs2lc Pages: 1 -->
<svg width="453pt" height="239pt"
 viewBox="0.00 0.00 453.00 239.23" xmlns="http://www.w3.org/2000/svg" xmlns:xlink="http://www.w3.org/1999/xlink">
<g id="graph0" class="graph" transform="scale(1 1) rotate(0) translate(4 235.23)">
<title>obs2lc</title>
<polygon fill="white" stroke="transparent" points="-4,4 -4,-235.23 449,-235.23 449,4 -4,4"/>
<!-- Node1 -->
<g id="node1" class="node">
<title>Node1</title>
<g id="a_node1"><a xlink:title="Function to prepare some predefined linear combinations from an observation.">
<polygon fill="#bfbfbf" stroke="black" points="0,-114.5 0,-133.5 45,-133.5 45,-114.5 0,-114.5"/>
<text text-anchor="middle" x="22.5" y="-121.5" font-family="Helvetica,sans-Serif" font-size="10.00">obs2lc</text>
</a>
</g>
</g>
<!-- Node2 -->
<g id="node2" class="node">
<title>Node2</title>
<g id="a_node2"><a xlink:href="structSatSys.html#adbdf98ba1ef1f22b6aaed93916529513" target="_top" xlink:title="Sets a 4 character c_string of this satellite&#39;s id.">
<polygon fill="white" stroke="black" points="231.5,-171.5 231.5,-190.5 305.5,-190.5 305.5,-171.5 231.5,-171.5"/>
<text text-anchor="middle" x="268.5" y="-178.5" font-family="Helvetica,sans-Serif" font-size="10.00">SatSys::getId</text>
</a>
</g>
</g>
<!-- Node1&#45;&gt;Node2 -->
<g id="edge1" class="edge">
<title>Node1&#45;&gt;Node2</title>
<path fill="none" stroke="midnightblue" d="M25.9,-133.53C31.54,-153.68 47.75,-200.26 81,-219 133.59,-248.64 206.09,-216.63 243.31,-195.86"/>
<polygon fill="midnightblue" stroke="midnightblue" points="245.49,-198.64 252.4,-190.61 241.99,-192.58 245.49,-198.64"/>
</g>
<!-- Node4 -->
<g id="node4" class="node">
<title>Node4</title>
<g id="a_node4"><a xlink:href="linearCombo_8cpp.html#afdd3451cef793c3574f718f2f79d9278" target="_top" xlink:title="Create combinations between specific observation values.">
<polygon fill="white" stroke="black" points="109,-190.5 109,-209.5 152,-209.5 152,-190.5 109,-190.5"/>
<text text-anchor="middle" x="130.5" y="-197.5" font-family="Helvetica,sans-Serif" font-size="10.00">getLC</text>
</a>
</g>
</g>
<!-- Node1&#45;&gt;Node4 -->
<g id="edge3" class="edge">
<title>Node1&#45;&gt;Node4</title>
<path fill="none" stroke="midnightblue" d="M31.11,-133.69C41.31,-146.12 60.5,-167.65 81,-181 86.57,-184.63 92.94,-187.74 99.19,-190.33"/>
<polygon fill="midnightblue" stroke="midnightblue" points="98.19,-193.69 108.78,-193.97 100.68,-187.15 98.19,-193.69"/>
</g>
<!-- Node5 -->
<g id="node5" class="node">
<title>Node5</title>
<g id="a_node5"><a xlink:href="structSatSys.html#aec6d07b90d1e8172b8b6a6966abef4fd" target="_top" xlink:title="Returns a std::string of this satellite&#39;s id.">
<polygon fill="white" stroke="black" points="100.5,-152.5 100.5,-171.5 160.5,-171.5 160.5,-152.5 100.5,-152.5"/>
<text text-anchor="middle" x="130.5" y="-159.5" font-family="Helvetica,sans-Serif" font-size="10.00">SatSys::id</text>
</a>
</g>
</g>
<!-- Node1&#45;&gt;Node5 -->
<g id="edge4" class="edge">
<title>Node1&#45;&gt;Node5</title>
<path fill="none" stroke="midnightblue" d="M45.21,-131.78C59.05,-136.74 77.33,-143.3 93.33,-149.03"/>
<polygon fill="midnightblue" stroke="midnightblue" points="92.34,-152.4 102.94,-152.48 94.71,-145.81 92.34,-152.4"/>
</g>
<!-- Node6 -->
<g id="node6" class="node">
<title>Node6</title>
<g id="a_node6"><a xlink:href="linearCombo_8cpp.html#a41701e6aeffecf451235e8fb75aad602" target="_top" xlink:title="Prepare a base object for linear combinations using observation data.">
<polygon fill="white" stroke="black" points="90.5,-114.5 90.5,-133.5 170.5,-133.5 170.5,-114.5 90.5,-114.5"/>
<text text-anchor="middle" x="130.5" y="-121.5" font-family="Helvetica,sans-Serif" font-size="10.00">lcPrepareBase</text>
</a>
</g>
</g>
<!-- Node1&#45;&gt;Node6 -->
<g id="edge6" class="edge">
<title>Node1&#45;&gt;Node6</title>
<path fill="none" stroke="midnightblue" d="M45.21,-124C55.33,-124 67.83,-124 80.08,-124"/>
<polygon fill="midnightblue" stroke="midnightblue" points="80.25,-127.5 90.25,-124 80.25,-120.5 80.25,-127.5"/>
</g>
<!-- Node30 -->
<g id="node9" class="node">
<title>Node30</title>
<g id="a_node9"><a xlink:href="structTestStack.html#aff20cea87ae5eee6108b33d022913707" target="_top" xlink:title="Compare matrix against test dataset.">
<polygon fill="white" stroke="black" points="81,-76.5 81,-95.5 180,-95.5 180,-76.5 81,-76.5"/>
<text text-anchor="middle" x="130.5" y="-83.5" font-family="Helvetica,sans-Serif" font-size="10.00">TestStack::testMat</text>
</a>
</g>
</g>
<!-- Node1&#45;&gt;Node30 -->
<g id="edge9" class="edge">
<title>Node1&#45;&gt;Node30</title>
<path fill="none" stroke="midnightblue" d="M45.21,-116.22C59.05,-111.26 77.33,-104.7 93.33,-98.97"/>
<polygon fill="midnightblue" stroke="midnightblue" points="94.71,-102.19 102.94,-95.52 92.34,-95.6 94.71,-102.19"/>
</g>
<!-- Node32 -->
<g id="node11" class="node">
<title>Node32</title>
<g id="a_node11"><a xlink:href="gTime_8cpp.html#abf196aa655d8ca10168c2301a68a8101" target="_top" xlink:title=" ">
<polygon fill="white" stroke="black" points="101,-38.5 101,-57.5 160,-57.5 160,-38.5 101,-38.5"/>
<text text-anchor="middle" x="130.5" y="-45.5" font-family="Helvetica,sans-Serif" font-size="10.00">time2gpst</text>
</a>
</g>
</g>
<!-- Node1&#45;&gt;Node32 -->
<g id="edge12" class="edge">
<title>Node1&#45;&gt;Node32</title>
<path fill="none" stroke="midnightblue" d="M31.11,-114.31C41.31,-101.88 60.5,-80.35 81,-67 84.32,-64.84 87.91,-62.87 91.6,-61.07"/>
<polygon fill="midnightblue" stroke="midnightblue" points="93.11,-64.23 100.85,-57 90.28,-57.83 93.11,-64.23"/>
</g>
<!-- Node34 -->
<g id="node13" class="node">
<title>Node34</title>
<g id="a_node13"><a xlink:href="streamTrace_8cpp.html#a26d8a8c49d22d1ec101a45f8ee2e1fcc" target="_top" xlink:title=" ">
<polygon fill="white" stroke="black" points="103.5,-0.5 103.5,-19.5 157.5,-19.5 157.5,-0.5 103.5,-0.5"/>
<text text-anchor="middle" x="130.5" y="-7.5" font-family="Helvetica,sans-Serif" font-size="10.00">tracepde</text>
</a>
</g>
</g>
<!-- Node1&#45;&gt;Node34 -->
<g id="edge14" class="edge">
<title>Node1&#45;&gt;Node34</title>
<path fill="none" stroke="midnightblue" d="M26.95,-114.22C34.12,-95.23 52.39,-53.09 81,-29 84.82,-25.78 89.25,-23.07 93.84,-20.79"/>
<polygon fill="midnightblue" stroke="midnightblue" points="95.56,-23.87 103.38,-16.71 92.81,-17.43 95.56,-23.87"/>
</g>
<!-- Node3 -->
<g id="node3" class="node">
<title>Node3</title>
<g id="a_node3"><a xlink:href="structSatSys.html#abfd7e43b0d57c2718d05ca595ee360dd" target="_top" xlink:title="Returns the character used as a prefix for this system.">
<polygon fill="white" stroke="black" points="357,-171.5 357,-190.5 445,-190.5 445,-171.5 357,-171.5"/>
<text text-anchor="middle" x="401" y="-178.5" font-family="Helvetica,sans-Serif" font-size="10.00">SatSys::sysChar</text>
</a>
</g>
</g>
<!-- Node2&#45;&gt;Node3 -->
<g id="edge2" class="edge">
<title>Node2&#45;&gt;Node3</title>
<path fill="none" stroke="midnightblue" d="M305.51,-181C318.13,-181 332.6,-181 346.35,-181"/>
<polygon fill="midnightblue" stroke="midnightblue" points="346.69,-184.5 356.69,-181 346.69,-177.5 346.69,-184.5"/>
</g>
<!-- Node5&#45;&gt;Node2 -->
<g id="edge5" class="edge">
<title>Node5&#45;&gt;Node2</title>
<path fill="none" stroke="midnightblue" d="M160.68,-166.08C178.22,-168.53 200.95,-171.7 220.94,-174.49"/>
<polygon fill="midnightblue" stroke="midnightblue" points="220.71,-178 231.09,-175.91 221.67,-171.06 220.71,-178"/>
</g>
<!-- Node7 -->
<g id="node7" class="node">
<title>Node7</title>
<g id="a_node7"><a xlink:href="lambda_8cpp.html#a364f9f201016e3baff0a9366158a823b" target="_top" xlink:title=" ">
<polygon fill="white" stroke="red" points="244.5,-133.5 244.5,-152.5 292.5,-152.5 292.5,-133.5 244.5,-133.5"/>
<text text-anchor="middle" x="268.5" y="-140.5" font-family="Helvetica,sans-Serif" font-size="10.00">lambda</text>
</a>
</g>
</g>
<!-- Node6&#45;&gt;Node7 -->
<g id="edge7" class="edge">
<title>Node6&#45;&gt;Node7</title>
<path fill="none" stroke="midnightblue" d="M170.84,-129.5C190.96,-132.31 215.18,-135.69 234.34,-138.37"/>
<polygon fill="midnightblue" stroke="midnightblue" points="234.02,-141.86 244.41,-139.77 234.99,-134.92 234.02,-141.86"/>
</g>
<!-- Node11 -->
<g id="node8" class="node">
<title>Node11</title>
<g id="a_node8"><a xlink:href="algebra__old_8cpp.html#a1d2c1ecab5b17dcc773fcd83c0b87b7e" target="_top" xlink:title=" ">
<polygon fill="white" stroke="red" points="384.5,-114.5 384.5,-133.5 417.5,-133.5 417.5,-114.5 384.5,-114.5"/>
<text text-anchor="middle" x="401" y="-121.5" font-family="Helvetica,sans-Serif" font-size="10.00">mat</text>
</a>
</g>
</g>
<!-- Node7&#45;&gt;Node11 -->
<g id="edge8" class="edge">
<title>Node7&#45;&gt;Node11</title>
<path fill="none" stroke="midnightblue" d="M292.53,-139.65C315.37,-136.32 350.32,-131.23 374.11,-127.77"/>
<polygon fill="midnightblue" stroke="midnightblue" points="374.78,-131.21 384.17,-126.3 373.77,-124.28 374.78,-131.21"/>
</g>
<!-- Node30&#45;&gt;Node11 -->
<g id="edge11" class="edge">
<title>Node30&#45;&gt;Node11</title>
<path fill="none" stroke="midnightblue" d="M180.12,-92.88C237.22,-100.96 329.79,-114.06 374.38,-120.37"/>
<polygon fill="midnightblue" stroke="midnightblue" points="374,-123.85 384.39,-121.79 374.98,-116.92 374,-123.85"/>
</g>
<!-- Node31 -->
<g id="node10" class="node">
<title>Node31</title>
<g id="a_node10"><a xlink:href="structTestStack.html#afbc78d5bcc032f03034721e763558313" target="_top" xlink:title="Get the test stack as a string.">
<polygon fill="white" stroke="black" points="216,-57.5 216,-76.5 321,-76.5 321,-57.5 216,-57.5"/>
<text text-anchor="middle" x="268.5" y="-64.5" font-family="Helvetica,sans-Serif" font-size="10.00">TestStack::getStack</text>
</a>
</g>
</g>
<!-- Node30&#45;&gt;Node31 -->
<g id="edge10" class="edge">
<title>Node30&#45;&gt;Node31</title>
<path fill="none" stroke="midnightblue" d="M180.21,-79.19C188.54,-78.03 197.29,-76.81 205.9,-75.61"/>
<polygon fill="midnightblue" stroke="midnightblue" points="206.49,-79.06 215.91,-74.21 205.52,-72.13 206.49,-79.06"/>
</g>
<!-- Node33 -->
<g id="node12" class="node">
<title>Node33</title>
<g id="a_node12"><a xlink:href="gTime_8cpp.html#aa46173b9085096882d09e53d96e9dc41" target="_top" xlink:title=" ">
<polygon fill="white" stroke="black" points="235,-19.5 235,-38.5 302,-38.5 302,-19.5 235,-19.5"/>
<text text-anchor="middle" x="268.5" y="-26.5" font-family="Helvetica,sans-Serif" font-size="10.00">epoch2time</text>
</a>
</g>
</g>
<!-- Node32&#45;&gt;Node33 -->
<g id="edge13" class="edge">
<title>Node32&#45;&gt;Node33</title>
<path fill="none" stroke="midnightblue" d="M160.01,-44.02C178.75,-41.4 203.62,-37.92 224.71,-34.98"/>
<polygon fill="midnightblue" stroke="midnightblue" points="225.3,-38.43 234.72,-33.58 224.34,-31.5 225.3,-38.43"/>
</g>
</g>
</svg>
