<?xml version="1.0" encoding="UTF-8" standalone="no"?>
<!DOCTYPE svg PUBLIC "-//W3C//DTD SVG 1.1//EN"
 "http://www.w3.org/Graphics/SVG/1.1/DTD/svg11.dtd">
<!-- Generated by graphviz version 2.50.0 (20220203.2022)
 -->
<!-- Title: getLC Pages: 1 -->
<!--zoomable 377 -->
<svg id="main" version="1.1" xmlns="http://www.w3.org/2000/svg" xmlns:xlink="http://www.w3.org/1999/xlink" xml:space="preserve" onload="init(evt)">
<style type="text/css"><![CDATA[
.edge:hover path { stroke: red; }
.edge:hover polygon { stroke: red; fill: red; }
]]></style>
<script type="text/javascript"><![CDATA[
var edges = document.getElementsByTagName('g');
if (edges && edges.length) {
  for (var i=0;i<edges.length;i++) {
    if (edges[i].id.substr(0,4)=='edge') {
      edges[i].setAttribute('class','edge');
    }
  }
}
]]></script>
        <defs>
                <circle id="rim" cx="0" cy="0" r="7"/>
                <circle id="rim2" cx="0" cy="0" r="3.5"/>
                <g id="zoomPlus">
                        <use xlink:href="#rim" fill="#404040">
                                <set attributeName="fill" to="#808080" begin="zoomplus.mouseover" end="zoomplus.mouseout"/>
                        </use>
                        <path d="M-4,0h8M0,-4v8" fill="none" stroke="white" stroke-width="1.5" pointer-events="none"/>
                </g>
                <g id="zoomMin">
                        <use xlink:href="#rim" fill="#404040">
                                <set attributeName="fill" to="#808080" begin="zoomminus.mouseover" end="zoomminus.mouseout"/>
                        </use>
                        <path d="M-4,0h8" fill="none" stroke="white" stroke-width="1.5" pointer-events="none"/>
                </g>
                <g id="dirArrow">
                        <path fill="none" stroke="white" stroke-width="1.5" d="M0,-3.0v7 M-2.5,-0.5L0,-3.0L2.5,-0.5"/>
                </g>
               <g id="resetDef">
                       <use xlink:href="#rim2" fill="#404040">
                               <set attributeName="fill" to="#808080" begin="reset.mouseover" end="reset.mouseout"/>
                       </use>
               </g>
        </defs>

<script type="text/javascript">
var viewWidth = 603;
var viewHeight = 377;
var sectionId = 'dynsection-0';
</script>
<script xlink:href="svgpan.js"/>
<svg id="graph" class="graph">
<g id="viewport">
<title>getLC</title>
<polygon fill="white" stroke="transparent" points="-4,4 -4,-373.5 599,-373.5 599,4 -4,4"/>
<!-- Node1 -->
<g id="node1" class="node">
<title>Node1</title>
<g id="a_node1"><a xlink:title="Create combinations between specific observation values.">
<polygon fill="#bfbfbf" stroke="black" points="552,-179 552,-198 595,-198 595,-179 552,-179"/>
<text text-anchor="middle" x="573.5" y="-186" font-family="Helvetica,sans-Serif" font-size="10.00">getLC</text>
</a>
</g>
</g>
<!-- Node2 -->
<g id="node2" class="node">
<title>Node2</title>
<g id="a_node2"><a xlink:href="acsQC_8cpp.html#ae52b478bb7d30e6aaf8f0e6b4e526681" target="_top" xlink:title="Cycle slip detection and repair for dual&#45;frequency.">
<polygon fill="white" stroke="black" points="445.5,-350 445.5,-369 504.5,-369 504.5,-350 445.5,-350"/>
<text text-anchor="middle" x="475" y="-357" font-family="Helvetica,sans-Serif" font-size="10.00">cycleslip2</text>
</a>
</g>
</g>
<!-- Node1&#45;&gt;Node2 -->
<g id="edge1" class="edge">
<title>Node1&#45;&gt;Node2</title>
<path fill="none" stroke="midnightblue" d="M569.15,-208.36C563.17,-238.74 548.12,-297.25 516,-335.5 511.1,-341.32 504.41,-346.11 497.9,-349.83"/>
<polygon fill="midnightblue" stroke="midnightblue" points="572.66,-208.66 571.02,-198.19 565.77,-207.4 572.66,-208.66"/>
</g>
<!-- Node3 -->
<g id="node3" class="node">
<title>Node3</title>
<g id="a_node3"><a xlink:href="acsQC_8cpp.html#a099d227578f6d7896777651aca60fe1b" target="_top" xlink:title="Cycle slip detection and repair.">
<polygon fill="white" stroke="black" points="336.5,-293 336.5,-312 395.5,-312 395.5,-293 336.5,-293"/>
<text text-anchor="middle" x="366" y="-300" font-family="Helvetica,sans-Serif" font-size="10.00">detectslip</text>
</a>
</g>
</g>
<!-- Node1&#45;&gt;Node3 -->
<g id="edge7" class="edge">
<title>Node1&#45;&gt;Node3</title>
<path fill="none" stroke="midnightblue" d="M569.23,-208.19C563.61,-234.95 549.34,-281.81 516,-302.5 479.51,-325.13 427.69,-318.41 395.77,-310.89"/>
<polygon fill="midnightblue" stroke="midnightblue" points="572.72,-208.57 571.14,-198.09 565.84,-207.27 572.72,-208.57"/>
</g>
<!-- Node7 -->
<g id="node6" class="node">
<title>Node7</title>
<g id="a_node6"><a xlink:href="acsQC_8cpp.html#a50b9ebf4a56ec6edec979531b0515887" target="_top" xlink:title="Cycle slip detection and repair for triple&#45;frequency.">
<polygon fill="white" stroke="black" points="445.5,-274 445.5,-293 504.5,-293 504.5,-274 445.5,-274"/>
<text text-anchor="middle" x="475" y="-281" font-family="Helvetica,sans-Serif" font-size="10.00">cycleslip3</text>
</a>
</g>
</g>
<!-- Node1&#45;&gt;Node7 -->
<g id="edge5" class="edge">
<title>Node1&#45;&gt;Node7</title>
<path fill="none" stroke="midnightblue" d="M560.75,-206.7C550.27,-222.02 533.86,-243.85 516,-259.5 509.79,-264.94 502.18,-269.85 495.27,-273.8"/>
<polygon fill="midnightblue" stroke="midnightblue" points="563.84,-208.39 566.47,-198.13 558.01,-204.51 563.84,-208.39"/>
</g>
<!-- Node8 -->
<g id="node7" class="node">
<title>Node8</title>
<g id="a_node7"><a xlink:href="acsQC_8cpp.html#a0d2d4fd45a0cdf961784d89cc132442e" target="_top" xlink:title="Detect cycle slip by geometry free phase jump.">
<polygon fill="white" stroke="black" points="338,-236 338,-255 394,-255 394,-236 338,-236"/>
<text text-anchor="middle" x="366" y="-243" font-family="Helvetica,sans-Serif" font-size="10.00">detslp_gf</text>
</a>
</g>
</g>
<!-- Node1&#45;&gt;Node8 -->
<g id="edge8" class="edge">
<title>Node1&#45;&gt;Node8</title>
<path fill="none" stroke="midnightblue" d="M542.36,-201.14C533.91,-204.43 524.67,-207.8 516,-210.5 474.13,-223.49 424.33,-234.28 394.22,-240.3"/>
<polygon fill="midnightblue" stroke="midnightblue" points="543.83,-204.31 551.82,-197.35 541.23,-197.81 543.83,-204.31"/>
</g>
<!-- Node9 -->
<g id="node8" class="node">
<title>Node9</title>
<g id="a_node8"><a xlink:href="acsQC_8cpp.html#a36663ab87649ee3624e072af7fec6409" target="_top" xlink:title="Detect slip by Melbourne&#45;Wubbena linear combination jump.">
<polygon fill="white" stroke="black" points="334,-198 334,-217 398,-217 398,-198 334,-198"/>
<text text-anchor="middle" x="366" y="-205" font-family="Helvetica,sans-Serif" font-size="10.00">detslp_mw</text>
</a>
</g>
</g>
<!-- Node1&#45;&gt;Node9 -->
<g id="edge10" class="edge">
<title>Node1&#45;&gt;Node9</title>
<path fill="none" stroke="midnightblue" d="M541.52,-191.36C502.83,-194.94 437.02,-201.02 398.22,-204.61"/>
<polygon fill="midnightblue" stroke="midnightblue" points="542.03,-194.83 551.66,-190.42 541.38,-187.86 542.03,-194.83"/>
</g>
<!-- Node10 -->
<g id="node9" class="node">
<title>Node10</title>
<g id="a_node9"><a xlink:href="linearCombo_8cpp.html#a5a4550126e0afcc4a997b359e8e75874" target="_top" xlink:title="Get/calculate linear combination values for an observation.">
<polygon fill="white" stroke="black" points="453.5,-160 453.5,-179 496.5,-179 496.5,-160 453.5,-160"/>
<text text-anchor="middle" x="475" y="-167" font-family="Helvetica,sans-Serif" font-size="10.00">getLC</text>
</a>
</g>
</g>
<!-- Node1&#45;&gt;Node10 -->
<g id="edge12" class="edge">
<title>Node1&#45;&gt;Node10</title>
<path fill="none" stroke="midnightblue" d="M541.4,-182.37C526.72,-179.48 509.6,-176.11 496.57,-173.54"/>
<polygon fill="midnightblue" stroke="midnightblue" points="541.07,-185.87 551.56,-184.37 542.43,-179.01 541.07,-185.87"/>
</g>
<!-- Node11 -->
<g id="node10" class="node">
<title>Node11</title>
<g id="a_node10"><a xlink:href="linearCombo_8cpp.html#aa1b18e5a14543945bb9c7929e8aa4fce" target="_top" xlink:title="Function to prepare some predefined linear combinations from an observation.">
<polygon fill="white" stroke="black" points="452.5,-122 452.5,-141 497.5,-141 497.5,-122 452.5,-122"/>
<text text-anchor="middle" x="475" y="-129" font-family="Helvetica,sans-Serif" font-size="10.00">obs2lc</text>
</a>
</g>
</g>
<!-- Node1&#45;&gt;Node11 -->
<g id="edge13" class="edge">
<title>Node1&#45;&gt;Node11</title>
<path fill="none" stroke="midnightblue" d="M550.98,-172.92C540.64,-165.72 527.92,-157.28 516,-150.5 510.25,-147.22 503.86,-144 497.89,-141.17"/>
<polygon fill="midnightblue" stroke="midnightblue" points="549.2,-175.95 559.39,-178.86 553.24,-170.23 549.2,-175.95"/>
</g>
<!-- Node13 -->
<g id="node12" class="node">
<title>Node13</title>
<g id="a_node12"><a xlink:href="ppp_8cpp.html#ae6ff673a04fff8b0f78b4d1b111a2a42" target="_top" xlink:title=" ">
<polygon fill="white" stroke="black" points="434,-84 434,-103 516,-103 516,-84 434,-84"/>
<text text-anchor="middle" x="475" y="-91" font-family="Helvetica,sans-Serif" font-size="10.00">pppCorrections</text>
</a>
</g>
</g>
<!-- Node1&#45;&gt;Node13 -->
<g id="edge16" class="edge">
<title>Node1&#45;&gt;Node13</title>
<path fill="none" stroke="midnightblue" d="M562.35,-170.05C552.36,-153.27 535.76,-128.72 516,-112.5 511.6,-108.88 506.41,-105.77 501.24,-103.18"/>
<polygon fill="midnightblue" stroke="midnightblue" points="559.42,-171.98 567.44,-178.91 565.49,-168.49 559.42,-171.98"/>
</g>
<!-- Node16 -->
<g id="node14" class="node">
<title>Node16</title>
<g id="a_node14"><a xlink:href="ppp__network_8cpp.html#a8841c4de50d731334b0aa349d64a2985" target="_top" xlink:title=" ">
<polygon fill="white" stroke="black" points="450.5,-46 450.5,-65 499.5,-65 499.5,-46 450.5,-46"/>
<text text-anchor="middle" x="475" y="-53" font-family="Helvetica,sans-Serif" font-size="10.00">resomc</text>
</a>
</g>
</g>
<!-- Node1&#45;&gt;Node16 -->
<g id="edge18" class="edge">
<title>Node1&#45;&gt;Node16</title>
<path fill="none" stroke="midnightblue" d="M567.29,-169.29C559.7,-144.53 543.44,-101.48 516,-74.5 511.4,-69.97 505.51,-66.36 499.67,-63.57"/>
<polygon fill="midnightblue" stroke="midnightblue" points="563.95,-170.33 570.09,-178.96 570.67,-168.38 563.95,-170.33"/>
</g>
<!-- Node18 -->
<g id="node16" class="node">
<title>Node18</title>
<g id="a_node16"><a xlink:href="ionoMeas_8cpp.html#a3dce4bc6a3c8a98b9f14fd6804d330c3" target="_top" xlink:title=" ">
<polygon fill="white" stroke="black" points="185,-13 185,-32 298,-32 298,-13 185,-13"/>
<text text-anchor="middle" x="241.5" y="-20" font-family="Helvetica,sans-Serif" font-size="10.00">update_receivr_measr</text>
</a>
</g>
</g>
<!-- Node1&#45;&gt;Node18 -->
<g id="edge21" class="edge">
<title>Node1&#45;&gt;Node18</title>
<path fill="none" stroke="midnightblue" d="M571.68,-168.57C569.12,-135 558.64,-67.78 516,-36.5 445.47,15.26 335.04,-0.15 278.5,-12.91"/>
<polygon fill="midnightblue" stroke="midnightblue" points="568.21,-169.15 572.3,-178.92 575.2,-168.73 568.21,-169.15"/>
</g>
<!-- Node2&#45;&gt;Node3 -->
<g id="edge2" class="edge">
<title>Node2&#45;&gt;Node3</title>
<path fill="none" stroke="midnightblue" d="M446.87,-345.04C427.43,-334.69 401.8,-321.04 384.88,-312.02"/>
<polygon fill="midnightblue" stroke="midnightblue" points="445.38,-348.21 455.85,-349.83 448.67,-342.04 445.38,-348.21"/>
</g>
<!-- Node4 -->
<g id="node4" class="node">
<title>Node4</title>
<g id="a_node4"><a xlink:href="acsQC_8cpp.html#ae13db6fb21721c9fcb1eb93ea40ba2ff" target="_top" xlink:title="Detect slips for multiple observations.">
<polygon fill="white" stroke="black" points="209.5,-217 209.5,-236 273.5,-236 273.5,-217 209.5,-217"/>
<text text-anchor="middle" x="241.5" y="-224" font-family="Helvetica,sans-Serif" font-size="10.00">detectslips</text>
</a>
</g>
</g>
<!-- Node3&#45;&gt;Node4 -->
<g id="edge3" class="edge">
<title>Node3&#45;&gt;Node4</title>
<path fill="none" stroke="midnightblue" d="M340.73,-287.44C316.1,-272.16 278.72,-248.96 257.89,-236.04"/>
<polygon fill="midnightblue" stroke="midnightblue" points="339.14,-290.57 349.49,-292.87 342.83,-284.62 339.14,-290.57"/>
</g>
<!-- Node5 -->
<g id="node5" class="node">
<title>Node5</title>
<g id="a_node5"><a xlink:href="main_8cpp.html#a7e63aa887c069bdb77cd28a88ad18562" target="_top" xlink:title="Perform operations for each station This function occurs in parallel with other stations &#45; ensure tha...">
<polygon fill="white" stroke="red" points="0,-89 0,-108 149,-108 149,-89 0,-89"/>
<text text-anchor="middle" x="74.5" y="-96" font-family="Helvetica,sans-Serif" font-size="10.00">mainOncePerEpochPerStation</text>
</a>
</g>
</g>
<!-- Node4&#45;&gt;Node5 -->
<g id="edge4" class="edge">
<title>Node4&#45;&gt;Node5</title>
<path fill="none" stroke="midnightblue" d="M220.1,-210.67C185.51,-183.84 116.37,-130.2 88.05,-108.23"/>
<polygon fill="midnightblue" stroke="midnightblue" points="218.05,-213.51 228.1,-216.87 222.34,-207.98 218.05,-213.51"/>
</g>
<!-- Node7&#45;&gt;Node3 -->
<g id="edge6" class="edge">
<title>Node7&#45;&gt;Node3</title>
<path fill="none" stroke="midnightblue" d="M435.21,-290.38C422.17,-292.7 407.88,-295.24 395.75,-297.39"/>
<polygon fill="midnightblue" stroke="midnightblue" points="436.09,-293.78 445.33,-288.59 434.87,-286.89 436.09,-293.78"/>
</g>
<!-- Node8&#45;&gt;Node4 -->
<g id="edge9" class="edge">
<title>Node8&#45;&gt;Node4</title>
<path fill="none" stroke="midnightblue" d="M327.57,-239.69C310.41,-237.03 290.3,-233.91 273.94,-231.37"/>
<polygon fill="midnightblue" stroke="midnightblue" points="327.39,-243.2 337.81,-241.28 328.47,-236.29 327.39,-243.2"/>
</g>
<!-- Node9&#45;&gt;Node4 -->
<g id="edge11" class="edge">
<title>Node9&#45;&gt;Node4</title>
<path fill="none" stroke="midnightblue" d="M323.43,-213.94C307.14,-216.47 288.78,-219.32 273.67,-221.66"/>
<polygon fill="midnightblue" stroke="midnightblue" points="324.43,-217.33 333.77,-212.34 323.35,-210.41 324.43,-217.33"/>
</g>
<!-- Node12 -->
<g id="node11" class="node">
<title>Node12</title>
<g id="a_node11"><a xlink:href="linearCombo_8cpp.html#a600e3c4eaf808e42c88785d56dc70350" target="_top" xlink:title="Function to prepare some predefined linear combinations from a list of observations.">
<polygon fill="white" stroke="black" points="216.5,-113 216.5,-132 266.5,-132 266.5,-113 216.5,-113"/>
<text text-anchor="middle" x="241.5" y="-120" font-family="Helvetica,sans-Serif" font-size="10.00">obs2lcs</text>
</a>
</g>
</g>
<!-- Node11&#45;&gt;Node12 -->
<g id="edge14" class="edge">
<title>Node11&#45;&gt;Node12</title>
<path fill="none" stroke="midnightblue" d="M442.03,-130.25C395.17,-128.43 308.86,-125.08 266.81,-123.44"/>
<polygon fill="midnightblue" stroke="midnightblue" points="442.09,-133.76 452.22,-130.65 442.36,-126.76 442.09,-133.76"/>
</g>
<!-- Node12&#45;&gt;Node5 -->
<g id="edge15" class="edge">
<title>Node12&#45;&gt;Node5</title>
<path fill="none" stroke="midnightblue" d="M206.24,-117.51C187.37,-114.77 163.29,-111.26 140.96,-108.02"/>
<polygon fill="midnightblue" stroke="midnightblue" points="205.75,-120.98 216.15,-118.95 206.76,-114.05 205.75,-120.98"/>
</g>
<!-- Node14 -->
<g id="node13" class="node">
<title>Node14</title>
<g id="a_node13"><a xlink:href="ppp__user_8cpp.html#a6840432dd58d1e58178b15080b92bdd8" target="_top" xlink:title=" ">
<polygon fill="white" stroke="red" points="338,-84 338,-103 394,-103 394,-84 338,-84"/>
<text text-anchor="middle" x="366" y="-91" font-family="Helvetica,sans-Serif" font-size="10.00">ppp_filter</text>
</a>
</g>
</g>
<!-- Node13&#45;&gt;Node14 -->
<g id="edge17" class="edge">
<title>Node13&#45;&gt;Node14</title>
<path fill="none" stroke="midnightblue" d="M423.73,-93.5C413.49,-93.5 403.1,-93.5 394.05,-93.5"/>
<polygon fill="midnightblue" stroke="midnightblue" points="423.85,-97 433.85,-93.5 423.85,-90 423.85,-97"/>
</g>
<!-- Node17 -->
<g id="node15" class="node">
<title>Node17</title>
<g id="a_node15"><a xlink:href="ppp__network_8cpp.html#a58f075aaa941ce20e727a84401270780" target="_top" xlink:title=" ">
<polygon fill="white" stroke="black" points="216,-70 216,-89 267,-89 267,-70 216,-70"/>
<text text-anchor="middle" x="241.5" y="-77" font-family="Helvetica,sans-Serif" font-size="10.00">pppomc</text>
</a>
</g>
</g>
<!-- Node16&#45;&gt;Node17 -->
<g id="edge19" class="edge">
<title>Node16&#45;&gt;Node17</title>
<path fill="none" stroke="midnightblue" d="M440.09,-59.01C393.01,-63.89 308.98,-72.6 267.32,-76.92"/>
<polygon fill="midnightblue" stroke="midnightblue" points="440.51,-62.49 450.1,-57.97 439.79,-55.52 440.51,-62.49"/>
</g>
<!-- Node17&#45;&gt;Node5 -->
<g id="edge20" class="edge">
<title>Node17&#45;&gt;Node5</title>
<path fill="none" stroke="midnightblue" d="M205.61,-83.51C189.19,-85.4 168.94,-87.73 149.36,-89.99"/>
<polygon fill="midnightblue" stroke="midnightblue" points="206.26,-86.96 215.8,-82.34 205.46,-80.01 206.26,-86.96"/>
</g>
<!-- Node18&#45;&gt;Node5 -->
<g id="edge22" class="edge">
<title>Node18&#45;&gt;Node5</title>
<path fill="none" stroke="midnightblue" d="M210.4,-36.36C177.31,-51.6 125.02,-75.68 96.23,-88.95"/>
<polygon fill="midnightblue" stroke="midnightblue" points="211.98,-39.48 219.6,-32.12 209.06,-33.13 211.98,-39.48"/>
</g>
</g>
</svg>
        <g id="navigator" transform="translate(0 0)" fill="#404254">
                <rect fill="#f2f5e9" fill-opacity="0.5" stroke="#606060" stroke-width=".5" x="0" y="0" width="60" height="60"/>
                <use id="zoomplus" xlink:href="#zoomPlus" x="17" y="9" onmousedown="handleZoom(evt,'in')"/>
                <use id="zoomminus" xlink:href="#zoomMin" x="42" y="9" onmousedown="handleZoom(evt,'out')"/>
                <use id="reset" xlink:href="#resetDef" x="30" y="36" onmousedown="handleReset()"/>
                <g id="arrowUp" xlink:href="#dirArrow" transform="translate(30 24)" onmousedown="handlePan(0,-1)">
                  <use xlink:href="#rim" fill="#404040">
                        <set attributeName="fill" to="#808080" begin="arrowUp.mouseover" end="arrowUp.mouseout"/>
                  </use>
                  <path fill="none" stroke="white" stroke-width="1.5" d="M0,-3.0v7 M-2.5,-0.5L0,-3.0L2.5,-0.5"/>
                </g>
                <g id="arrowRight" xlink:href="#dirArrow" transform="rotate(90) translate(36 -43)" onmousedown="handlePan(1,0)">
                  <use xlink:href="#rim" fill="#404040">
                        <set attributeName="fill" to="#808080" begin="arrowRight.mouseover" end="arrowRight.mouseout"/>
                  </use>
                  <path fill="none" stroke="white" stroke-width="1.5" d="M0,-3.0v7 M-2.5,-0.5L0,-3.0L2.5,-0.5"/>
                </g>
                <g id="arrowDown" xlink:href="#dirArrow" transform="rotate(180) translate(-30 -48)" onmousedown="handlePan(0,1)">
                  <use xlink:href="#rim" fill="#404040">
                        <set attributeName="fill" to="#808080" begin="arrowDown.mouseover" end="arrowDown.mouseout"/>
                  </use>
                  <path fill="none" stroke="white" stroke-width="1.5" d="M0,-3.0v7 M-2.5,-0.5L0,-3.0L2.5,-0.5"/>
                </g>
                <g id="arrowLeft" xlink:href="#dirArrow" transform="rotate(270) translate(-36 17)" onmousedown="handlePan(-1,0)">
                  <use xlink:href="#rim" fill="#404040">
                        <set attributeName="fill" to="#808080" begin="arrowLeft.mouseover" end="arrowLeft.mouseout"/>
                  </use>
                  <path fill="none" stroke="white" stroke-width="1.5" d="M0,-3.0v7 M-2.5,-0.5L0,-3.0L2.5,-0.5"/>
                </g>
        </g>
        <svg viewBox="0 0 15 15" width="100%" height="30px" preserveAspectRatio="xMaxYMin meet">
         <g id="arrow_out" transform="scale(0.3 0.3)">
          <a xlink:href="linearCombo_8cpp_afdd3451cef793c3574f718f2f79d9278_icgraph_org.svg" target="_base">
           <rect id="button" ry="5" rx="5" y="6" x="6" height="38" width="38"
                fill="#f2f5e9" fill-opacity="0.5" stroke="#606060" stroke-width="1.0"/>
           <path id="arrow"
             d="M 11.500037,31.436501 C 11.940474,20.09759 22.043105,11.32322 32.158766,21.979434 L 37.068811,17.246167 C 37.068811,17.246167 37.088388,32 37.088388,32 L 22.160133,31.978069 C 22.160133,31.978069 26.997745,27.140456 26.997745,27.140456 C 18.528582,18.264221 13.291696,25.230495 11.500037,31.436501 z"
             style="fill:#404040;"/>
          </a>
         </g>
        </svg>
</svg>
