<?xml version="1.0" encoding="UTF-8" standalone="no"?>
<!DOCTYPE svg PUBLIC "-//W3C//DTD SVG 1.1//EN"
 "http://www.w3.org/Graphics/SVG/1.1/DTD/svg11.dtd">
<!-- Generated by graphviz version 2.50.0 (20220203.2022)
 -->
<!-- Title: main_brdcorbit Pages: 1 -->
<svg width="983pt" height="909pt"
 viewBox="0.00 0.00 983.00 908.89" xmlns="http://www.w3.org/2000/svg" xmlns:xlink="http://www.w3.org/1999/xlink">
<g id="graph0" class="graph" transform="scale(1 1) rotate(0) translate(4 904.89)">
<title>main_brdcorbit</title>
<polygon fill="white" stroke="transparent" points="-4,4 -4,-904.89 979,-904.89 979,4 -4,4"/>
<!-- Node1 -->
<g id="node1" class="node">
<title>Node1</title>
<g id="a_node1"><a xlink:title=" ">
<polygon fill="#bfbfbf" stroke="black" points="0,-419.39 0,-438.39 80,-438.39 80,-419.39 0,-419.39"/>
<text text-anchor="middle" x="40" y="-426.39" font-family="Helvetica,sans-Serif" font-size="10.00">main_brdcorbit</text>
</a>
</g>
</g>
<!-- Node2 -->
<g id="node2" class="node">
<title>Node2</title>
<g id="a_node2"><a xlink:href="namespacem__antoffset.html#ad0a56bc91575af3bfa903ddb712c7d41" target="_top" xlink:title=" ">
<polygon fill="white" stroke="black" points="116,-824.39 116,-843.39 226,-843.39 226,-824.39 116,-824.39"/>
<text text-anchor="middle" x="171" y="-831.39" font-family="Helvetica,sans-Serif" font-size="10.00">m_antoffset::antoffset</text>
</a>
</g>
</g>
<!-- Node1&#45;&gt;Node2 -->
<g id="edge1" class="edge">
<title>Node1&#45;&gt;Node2</title>
<path fill="none" stroke="midnightblue" d="M41.81,-438.48C45.48,-478.95 62.86,-639.19 116,-757.89 125.84,-779.87 142.49,-801.98 154.7,-816.64"/>
<polygon fill="midnightblue" stroke="midnightblue" points="152.14,-819.02 161.29,-824.35 157.46,-814.47 152.14,-819.02"/>
</g>
<!-- Node7 -->
<g id="node6" class="node">
<title>Node7</title>
<g id="a_node6"><a xlink:href="asc2eph_8f90.html#af3f808bed985764184bb778f4e7caac6" target="_top" xlink:title=" ">
<polygon fill="white" stroke="black" points="144.5,-653.39 144.5,-672.39 197.5,-672.39 197.5,-653.39 144.5,-653.39"/>
<text text-anchor="middle" x="171" y="-660.39" font-family="Helvetica,sans-Serif" font-size="10.00">asc2eph</text>
</a>
</g>
</g>
<!-- Node1&#45;&gt;Node7 -->
<g id="edge6" class="edge">
<title>Node1&#45;&gt;Node7</title>
<path fill="none" stroke="midnightblue" d="M41.8,-438.63C44.97,-471.22 59.4,-577.86 116,-638.89 121.18,-644.48 127.9,-648.84 134.83,-652.22"/>
<polygon fill="midnightblue" stroke="midnightblue" points="133.71,-655.55 144.28,-656.25 136.45,-649.11 133.71,-655.55"/>
</g>
<!-- Node10 -->
<g id="node9" class="node">
<title>Node10</title>
<g id="a_node9"><a xlink:href="brdc2ecef_8f90.html#a5244db57ff14976bfcee38b4c987003f" target="_top" xlink:title=" ">
<polygon fill="white" stroke="black" points="141.5,-691.39 141.5,-710.39 200.5,-710.39 200.5,-691.39 141.5,-691.39"/>
<text text-anchor="middle" x="171" y="-698.39" font-family="Helvetica,sans-Serif" font-size="10.00">brdc2ecef</text>
</a>
</g>
</g>
<!-- Node1&#45;&gt;Node10 -->
<g id="edge9" class="edge">
<title>Node1&#45;&gt;Node10</title>
<path fill="none" stroke="midnightblue" d="M40.91,-438.41C41.1,-475.11 46.7,-609.03 116,-681.89 120.4,-686.52 126,-690.03 131.92,-692.68"/>
<polygon fill="midnightblue" stroke="midnightblue" points="130.76,-695.98 141.35,-696.18 133.2,-689.42 130.76,-695.98"/>
</g>
<!-- Node11 -->
<g id="node10" class="node">
<title>Node11</title>
<g id="a_node10"><a xlink:href="brdc__cmdline_8f95.html#a55c2e7b5d95ebb997e20ba341ef2c625" target="_top" xlink:title=" ">
<polygon fill="white" stroke="black" points="134,-328.39 134,-347.39 208,-347.39 208,-328.39 134,-328.39"/>
<text text-anchor="middle" x="171" y="-335.39" font-family="Helvetica,sans-Serif" font-size="10.00">brdc_cmdline</text>
</a>
</g>
</g>
<!-- Node1&#45;&gt;Node11 -->
<g id="edge10" class="edge">
<title>Node1&#45;&gt;Node11</title>
<path fill="none" stroke="midnightblue" d="M53.61,-419.37C68.42,-408.27 93.77,-389.44 116,-373.89 125.94,-366.94 137.06,-359.47 146.62,-353.15"/>
<polygon fill="midnightblue" stroke="midnightblue" points="148.78,-355.92 155.21,-347.49 144.93,-350.07 148.78,-355.92"/>
</g>
<!-- Node14 -->
<g id="node12" class="node">
<title>Node14</title>
<g id="a_node12"><a xlink:href="sinex_8cpp.html#a06fabc81a2cc41dfee260450a527ad2d" target="_top" xlink:title=" ">
<polygon fill="white" stroke="black" points="440,-263.39 440,-282.39 473,-282.39 473,-263.39 440,-263.39"/>
<text text-anchor="middle" x="456.5" y="-270.39" font-family="Helvetica,sans-Serif" font-size="10.00">trim</text>
</a>
</g>
</g>
<!-- Node1&#45;&gt;Node14 -->
<g id="edge62" class="edge">
<title>Node1&#45;&gt;Node14</title>
<path fill="none" stroke="midnightblue" d="M42.7,-419.29C48.01,-392.36 66.97,-315.82 116,-280.89 213.17,-211.68 368.84,-246.88 429.82,-264.68"/>
<polygon fill="midnightblue" stroke="midnightblue" points="429.16,-268.14 439.75,-267.67 431.18,-261.43 429.16,-268.14"/>
</g>
<!-- Node17 -->
<g id="node13" class="node">
<title>Node17</title>
<g id="a_node13"><a xlink:href="crs__trs_8f90.html#ad60041f94ed21d7dccece31ca956443c" target="_top" xlink:title=" ">
<polygon fill="white" stroke="black" points="563.5,-577.39 563.5,-596.39 610.5,-596.39 610.5,-577.39 563.5,-577.39"/>
<text text-anchor="middle" x="587" y="-584.39" font-family="Helvetica,sans-Serif" font-size="10.00">crs_trs</text>
</a>
</g>
</g>
<!-- Node1&#45;&gt;Node17 -->
<g id="edge14" class="edge">
<title>Node1&#45;&gt;Node17</title>
<path fill="none" stroke="midnightblue" d="M43.04,-438.54C49.02,-464.13 69.12,-533.78 116,-562.89 188.93,-608.19 458.85,-595.29 553.19,-589.22"/>
<polygon fill="midnightblue" stroke="midnightblue" points="553.55,-592.7 563.29,-588.55 553.09,-585.72 553.55,-592.7"/>
</g>
<!-- Node42 -->
<g id="node24" class="node">
<title>Node42</title>
<g id="a_node24"><a xlink:href="cal2jd_8for.html#af9bdf5980bab8c8324930b1a0af0175a" target="_top" xlink:title=" ">
<polygon fill="white" stroke="black" points="915,-168.39 915,-187.39 975,-187.39 975,-168.39 915,-168.39"/>
<text text-anchor="middle" x="945" y="-175.39" font-family="Helvetica,sans-Serif" font-size="10.00">iau_cal2jd</text>
</a>
</g>
</g>
<!-- Node1&#45;&gt;Node42 -->
<g id="edge43" class="edge">
<title>Node1&#45;&gt;Node42</title>
<path fill="none" stroke="midnightblue" d="M41.83,-419.19C46.33,-368.36 69.49,-133.07 116,-79.89 179.12,-7.72 223.12,-6.89 319,-6.89 319,-6.89 319,-6.89 717.5,-6.89 789.77,-6.89 821.11,17.38 879,-25.89 921.98,-58.02 936.85,-124.29 941.74,-157.7"/>
<polygon fill="midnightblue" stroke="midnightblue" points="938.33,-158.57 943.09,-168.03 945.27,-157.67 938.33,-158.57"/>
</g>
<!-- Node43 -->
<g id="node25" class="node">
<title>Node43</title>
<g id="a_node25"><a xlink:href="EOP_8f90.html#ae7a3de1bf2c72753f2eeb8e05d63f962" target="_top" xlink:title=" ">
<polygon fill="white" stroke="black" points="440.5,-444.39 440.5,-463.39 472.5,-463.39 472.5,-444.39 440.5,-444.39"/>
<text text-anchor="middle" x="456.5" y="-451.39" font-family="Helvetica,sans-Serif" font-size="10.00">eop</text>
</a>
</g>
</g>
<!-- Node1&#45;&gt;Node43 -->
<g id="edge28" class="edge">
<title>Node1&#45;&gt;Node43</title>
<path fill="none" stroke="midnightblue" d="M68.13,-438.47C82.25,-443.13 99.88,-448.45 116,-451.89 230.15,-476.24 261.89,-481.75 378,-469.89 395.71,-468.08 415.34,-464.01 430.42,-460.42"/>
<polygon fill="midnightblue" stroke="midnightblue" points="431.62,-463.73 440.49,-457.94 429.95,-456.93 431.62,-463.73"/>
</g>
<!-- Node52 -->
<g id="node28" class="node">
<title>Node52</title>
<g id="a_node28"><a xlink:href="eop__rd_8f90.html#a1baa1d841357dc20b9a5fd6f9de799b6" target="_top" xlink:title=" ">
<polygon fill="white" stroke="black" points="148,-423.39 148,-442.39 194,-442.39 194,-423.39 148,-423.39"/>
<text text-anchor="middle" x="171" y="-430.39" font-family="Helvetica,sans-Serif" font-size="10.00">eop_rd</text>
</a>
</g>
</g>
<!-- Node1&#45;&gt;Node52 -->
<g id="edge33" class="edge">
<title>Node1&#45;&gt;Node52</title>
<path fill="none" stroke="midnightblue" d="M80.05,-430.1C98.48,-430.67 120.2,-431.35 137.68,-431.89"/>
<polygon fill="midnightblue" stroke="midnightblue" points="137.85,-435.4 147.95,-432.21 138.06,-428.4 137.85,-435.4"/>
</g>
<!-- Node55 -->
<g id="node31" class="node">
<title>Node55</title>
<g id="a_node31"><a xlink:href="glnorbint_8f90.html#a1c2831898abaabfff30778622a86a29f" target="_top" xlink:title=" ">
<polygon fill="white" stroke="black" points="144.5,-383.39 144.5,-402.39 197.5,-402.39 197.5,-383.39 144.5,-383.39"/>
<text text-anchor="middle" x="171" y="-390.39" font-family="Helvetica,sans-Serif" font-size="10.00">glnorbint</text>
</a>
</g>
</g>
<!-- Node1&#45;&gt;Node55 -->
<g id="edge41" class="edge">
<title>Node1&#45;&gt;Node55</title>
<path fill="none" stroke="midnightblue" d="M75.23,-419.34C93.5,-414.24 115.95,-407.98 134.41,-402.82"/>
<polygon fill="midnightblue" stroke="midnightblue" points="135.52,-406.15 144.21,-400.09 133.64,-399.41 135.52,-406.15"/>
</g>
<!-- Node57 -->
<g id="node33" class="node">
<title>Node57</title>
<g id="a_node33"><a xlink:href="matrix__Rr_8f90.html#ac8734d74fb7ada7605575d3b9d26f2bb" target="_top" xlink:title=" ">
<polygon fill="white" stroke="black" points="144,-729.39 144,-748.39 198,-748.39 198,-729.39 144,-729.39"/>
<text text-anchor="middle" x="171" y="-736.39" font-family="Helvetica,sans-Serif" font-size="10.00">matrix_rr</text>
</a>
</g>
</g>
<!-- Node1&#45;&gt;Node57 -->
<g id="edge44" class="edge">
<title>Node1&#45;&gt;Node57</title>
<path fill="none" stroke="midnightblue" d="M40.47,-438.41C38.8,-478.39 37.7,-634.55 116,-719.89 120.88,-725.21 127.33,-729.03 134.07,-731.79"/>
<polygon fill="midnightblue" stroke="midnightblue" points="133.41,-735.26 144,-735.11 135.63,-728.62 133.41,-735.26"/>
</g>
<!-- Node59 -->
<g id="node35" class="node">
<title>Node59</title>
<g id="a_node35"><a xlink:href="prn2str_8f95.html#a477b4985bbc2f3e45dea8816c9d921f3" target="_top" xlink:title=" ">
<polygon fill="white" stroke="black" points="147.5,-290.39 147.5,-309.39 194.5,-309.39 194.5,-290.39 147.5,-290.39"/>
<text text-anchor="middle" x="171" y="-297.39" font-family="Helvetica,sans-Serif" font-size="10.00">prn2str</text>
</a>
</g>
</g>
<!-- Node1&#45;&gt;Node59 -->
<g id="edge47" class="edge">
<title>Node1&#45;&gt;Node59</title>
<path fill="none" stroke="midnightblue" d="M45.08,-419.13C54.44,-397.84 79.53,-346.92 116,-318.89 122.36,-314.01 130.07,-310.31 137.65,-307.55"/>
<polygon fill="midnightblue" stroke="midnightblue" points="138.96,-310.8 147.41,-304.42 136.82,-304.14 138.96,-310.8"/>
</g>
<!-- Node60 -->
<g id="node36" class="node">
<title>Node60</title>
<g id="a_node36"><a xlink:href="namespacem__read__leapsec.html#a516d83382083e38302bde04ce710a4a1" target="_top" xlink:title=" ">
<polygon fill="white" stroke="black" points="264.5,-167.89 264.5,-197.89 375.5,-197.89 375.5,-167.89 264.5,-167.89"/>
<text text-anchor="start" x="272.5" y="-185.89" font-family="Helvetica,sans-Serif" font-size="10.00">m_read_leapsec::read</text>
<text text-anchor="middle" x="320" y="-174.89" font-family="Helvetica,sans-Serif" font-size="10.00">_leapsec</text>
</a>
</g>
</g>
<!-- Node1&#45;&gt;Node60 -->
<g id="edge48" class="edge">
<title>Node1&#45;&gt;Node60</title>
<path fill="none" stroke="midnightblue" d="M40.71,-418.94C40.26,-382.5 44.07,-255.54 116,-198.89 154.44,-168.62 210.65,-166.4 254.18,-170.75"/>
<polygon fill="midnightblue" stroke="midnightblue" points="254.06,-174.26 264.39,-171.92 254.85,-167.31 254.06,-174.26"/>
</g>
<!-- Node61 -->
<g id="node37" class="node">
<title>Node61</title>
<g id="a_node37"><a xlink:href="readbrdcheader_8f95.html#a43b057b72099ede02d40eaa921a50621" target="_top" xlink:title=" ">
<polygon fill="white" stroke="black" points="129.5,-208.39 129.5,-227.39 212.5,-227.39 212.5,-208.39 129.5,-208.39"/>
<text text-anchor="middle" x="171" y="-215.39" font-family="Helvetica,sans-Serif" font-size="10.00">readbrdcheader</text>
</a>
</g>
</g>
<!-- Node1&#45;&gt;Node61 -->
<g id="edge50" class="edge">
<title>Node1&#45;&gt;Node61</title>
<path fill="none" stroke="midnightblue" d="M42.26,-419.38C46.71,-389.37 64.29,-295.54 116,-241.89 119.64,-238.11 123.99,-234.88 128.61,-232.14"/>
<polygon fill="midnightblue" stroke="midnightblue" points="130.44,-235.13 137.73,-227.43 127.23,-228.91 130.44,-235.13"/>
</g>
<!-- Node62 -->
<g id="node38" class="node">
<title>Node62</title>
<g id="a_node38"><a xlink:href="readbrdcmessg_8f90.html#acfb7b2179252418c593c6a88d71467a2" target="_top" xlink:title=" ">
<polygon fill="white" stroke="black" points="675,-80.39 675,-99.39 758,-99.39 758,-80.39 675,-80.39"/>
<text text-anchor="middle" x="716.5" y="-87.39" font-family="Helvetica,sans-Serif" font-size="10.00">readbrdcmessg</text>
</a>
</g>
</g>
<!-- Node1&#45;&gt;Node62 -->
<g id="edge51" class="edge">
<title>Node1&#45;&gt;Node62</title>
<path fill="none" stroke="midnightblue" d="M41.95,-419.35C46.85,-372.33 70.72,-165.89 116,-123.89 183.07,-61.68 227.52,-89.89 319,-89.89 319,-89.89 319,-89.89 457.5,-89.89 529.37,-89.89 612.49,-89.89 664.54,-89.89"/>
<polygon fill="midnightblue" stroke="midnightblue" points="664.84,-93.39 674.84,-89.89 664.84,-86.39 664.84,-93.39"/>
</g>
<!-- Node66 -->
<g id="node42" class="node">
<title>Node66</title>
<g id="a_node42"><a xlink:href="time__GPSweek_8f90.html#aa06fb5efbfd63360cbbfd2b3914f0885" target="_top" xlink:title=" ">
<polygon fill="white" stroke="black" points="547,-672.39 547,-691.39 627,-691.39 627,-672.39 547,-672.39"/>
<text text-anchor="middle" x="587" y="-679.39" font-family="Helvetica,sans-Serif" font-size="10.00">time_gpsweek</text>
</a>
</g>
</g>
<!-- Node1&#45;&gt;Node66 -->
<g id="edge57" class="edge">
<title>Node1&#45;&gt;Node66</title>
<path fill="none" stroke="midnightblue" d="M42.46,-438.75C47.21,-467.21 65.01,-549.98 116,-589.89 124.35,-596.43 418,-650.99 536.83,-672.87"/>
<polygon fill="midnightblue" stroke="midnightblue" points="536.29,-676.33 546.76,-674.7 537.56,-669.45 536.29,-676.33"/>
</g>
<!-- Node67 -->
<g id="node43" class="node">
<title>Node67</title>
<g id="a_node43"><a xlink:href="time__UTC_8f90.html#a5c5b31c8678ff9da6694a16d7bb9387f" target="_top" xlink:title=" ">
<polygon fill="white" stroke="black" points="689.5,-368.39 689.5,-387.39 743.5,-387.39 743.5,-368.39 689.5,-368.39"/>
<text text-anchor="middle" x="716.5" y="-375.39" font-family="Helvetica,sans-Serif" font-size="10.00">time_utc</text>
</a>
</g>
</g>
<!-- Node1&#45;&gt;Node67 -->
<g id="edge59" class="edge">
<title>Node1&#45;&gt;Node67</title>
<path fill="none" stroke="midnightblue" d="M53.2,-438.51C90.6,-466.98 207.82,-548.89 319,-548.89 319,-548.89 319,-548.89 457.5,-548.89 544.95,-548.89 575.76,-533.3 639,-472.89 666.03,-447.08 648.52,-423.27 675,-396.89 676.65,-395.24 678.48,-393.72 680.41,-392.32"/>
<polygon fill="midnightblue" stroke="midnightblue" points="682.62,-395.07 689.37,-386.9 679,-389.08 682.62,-395.07"/>
</g>
<!-- Node68 -->
<g id="node44" class="node">
<title>Node68</title>
<g id="a_node44"><a xlink:href="namespacem__write__orb2sp3.html#ac1a6f6379553bde154dadb6d4c09e807" target="_top" xlink:title=" ">
<polygon fill="white" stroke="black" points="262,-118.89 262,-148.89 378,-148.89 378,-118.89 262,-118.89"/>
<text text-anchor="start" x="270" y="-136.89" font-family="Helvetica,sans-Serif" font-size="10.00">m_write_orb2sp3::write</text>
<text text-anchor="middle" x="320" y="-125.89" font-family="Helvetica,sans-Serif" font-size="10.00">_orb2sp3</text>
</a>
</g>
</g>
<!-- Node1&#45;&gt;Node68 -->
<g id="edge63" class="edge">
<title>Node1&#45;&gt;Node68</title>
<path fill="none" stroke="midnightblue" d="M42.35,-419.2C48.57,-375.84 75.98,-200.19 116,-164.89 152.51,-132.69 207.83,-126.02 251.5,-126.81"/>
<polygon fill="midnightblue" stroke="midnightblue" points="251.66,-130.31 261.77,-127.13 251.88,-123.32 251.66,-130.31"/>
</g>
<!-- Node3 -->
<g id="node3" class="node">
<title>Node3</title>
<g id="a_node3"><a xlink:href="PLEPH_8f.html#aedc7e0a9526045bd01307271228e14a3" target="_top" xlink:title=" ">
<polygon fill="white" stroke="red" points="300,-881.39 300,-900.39 340,-900.39 340,-881.39 300,-881.39"/>
<text text-anchor="middle" x="320" y="-888.39" font-family="Helvetica,sans-Serif" font-size="10.00">pleph</text>
</a>
</g>
</g>
<!-- Node2&#45;&gt;Node3 -->
<g id="edge2" class="edge">
<title>Node2&#45;&gt;Node3</title>
<path fill="none" stroke="midnightblue" d="M193.27,-843.42C211.39,-851.41 238.2,-862.91 262,-871.89 271.08,-875.31 281.08,-878.76 290.14,-881.76"/>
<polygon fill="midnightblue" stroke="midnightblue" points="289.28,-885.15 299.87,-884.93 291.45,-878.5 289.28,-885.15"/>
</g>
<!-- Node5 -->
<g id="node4" class="node">
<title>Node5</title>
<g id="a_node4"><a xlink:href="productcross_8f90.html#a2e59e22456af10602cf068c75f925c76" target="_top" xlink:title=" ">
<polygon fill="white" stroke="black" points="283.5,-843.39 283.5,-862.39 356.5,-862.39 356.5,-843.39 283.5,-843.39"/>
<text text-anchor="middle" x="320" y="-850.39" font-family="Helvetica,sans-Serif" font-size="10.00">productcross</text>
</a>
</g>
</g>
<!-- Node2&#45;&gt;Node5 -->
<g id="edge3" class="edge">
<title>Node2&#45;&gt;Node5</title>
<path fill="none" stroke="midnightblue" d="M226.32,-840.91C241.74,-842.91 258.36,-845.05 273.22,-846.97"/>
<polygon fill="midnightblue" stroke="midnightblue" points="272.82,-850.45 283.19,-848.26 273.72,-843.51 272.82,-850.45"/>
</g>
<!-- Node6 -->
<g id="node5" class="node">
<title>Node6</title>
<g id="a_node5"><a xlink:href="R1_8for.html#a790dd7e73934aaad6a8f20558f2a175f" target="_top" xlink:title=" ">
<polygon fill="white" stroke="black" points="442,-805.39 442,-824.39 471,-824.39 471,-805.39 442,-805.39"/>
<text text-anchor="middle" x="456.5" y="-812.39" font-family="Helvetica,sans-Serif" font-size="10.00">r1</text>
</a>
</g>
</g>
<!-- Node2&#45;&gt;Node6 -->
<g id="edge5" class="edge">
<title>Node2&#45;&gt;Node6</title>
<path fill="none" stroke="midnightblue" d="M226.33,-830.25C288.28,-826.1 386.79,-819.5 431.74,-816.48"/>
<polygon fill="midnightblue" stroke="midnightblue" points="432.21,-819.96 441.96,-815.8 431.75,-812.98 432.21,-819.96"/>
</g>
<!-- Node5&#45;&gt;Node6 -->
<g id="edge4" class="edge">
<title>Node5&#45;&gt;Node6</title>
<path fill="none" stroke="midnightblue" d="M354.94,-843.3C379.04,-836.49 410.77,-827.53 432.09,-821.5"/>
<polygon fill="midnightblue" stroke="midnightblue" points="433.25,-824.82 441.92,-818.73 431.34,-818.08 433.25,-824.82"/>
</g>
<!-- Node8 -->
<g id="node7" class="node">
<title>Node8</title>
<g id="a_node7"><a xlink:href="asc2eph_8f90.html#ac6553cac923db742031249343352711f" target="_top" xlink:title=" ">
<polygon fill="white" stroke="black" points="300.5,-691.39 300.5,-710.39 339.5,-710.39 339.5,-691.39 300.5,-691.39"/>
<text text-anchor="middle" x="320" y="-698.39" font-family="Helvetica,sans-Serif" font-size="10.00">errprt</text>
</a>
</g>
</g>
<!-- Node7&#45;&gt;Node8 -->
<g id="edge7" class="edge">
<title>Node7&#45;&gt;Node8</title>
<path fill="none" stroke="midnightblue" d="M197.61,-669.51C223.46,-676.19 263.31,-686.5 290.24,-693.46"/>
<polygon fill="midnightblue" stroke="midnightblue" points="289.66,-696.92 300.21,-696.04 291.41,-690.14 289.66,-696.92"/>
</g>
<!-- Node9 -->
<g id="node8" class="node">
<title>Node9</title>
<g id="a_node8"><a xlink:href="asc2eph_8f90.html#a70c1dde6ef4224fa114f0023749b0f00" target="_top" xlink:title=" ">
<polygon fill="white" stroke="black" points="298.5,-653.39 298.5,-672.39 341.5,-672.39 341.5,-653.39 298.5,-653.39"/>
<text text-anchor="middle" x="320" y="-660.39" font-family="Helvetica,sans-Serif" font-size="10.00">nxtgrp</text>
</a>
</g>
</g>
<!-- Node7&#45;&gt;Node9 -->
<g id="edge8" class="edge">
<title>Node7&#45;&gt;Node9</title>
<path fill="none" stroke="midnightblue" d="M197.61,-662.89C222.88,-662.89 261.53,-662.89 288.4,-662.89"/>
<polygon fill="midnightblue" stroke="midnightblue" points="288.42,-666.39 298.42,-662.89 288.42,-659.39 288.42,-666.39"/>
</g>
<!-- Node12 -->
<g id="node11" class="node">
<title>Node12</title>
<g id="a_node11"><a xlink:href="namespacef90getopt.html#a2c03e2bbb786bfc0f6a825be6a5f3857" target="_top" xlink:title=" ">
<polygon fill="white" stroke="red" points="275.5,-293.39 275.5,-312.39 364.5,-312.39 364.5,-293.39 275.5,-293.39"/>
<text text-anchor="middle" x="320" y="-300.39" font-family="Helvetica,sans-Serif" font-size="10.00">f90getopt::getopt</text>
</a>
</g>
</g>
<!-- Node11&#45;&gt;Node12 -->
<g id="edge11" class="edge">
<title>Node11&#45;&gt;Node12</title>
<path fill="none" stroke="midnightblue" d="M208.34,-329.24C226.67,-324.88 249.18,-319.52 269.1,-314.77"/>
<polygon fill="midnightblue" stroke="midnightblue" points="270.03,-318.15 278.95,-312.43 268.41,-311.34 270.03,-318.15"/>
</g>
<!-- Node11&#45;&gt;Node14 -->
<g id="edge13" class="edge">
<title>Node11&#45;&gt;Node14</title>
<path fill="none" stroke="midnightblue" d="M206.45,-328.29C213.18,-325.73 220,-322.61 226,-318.89 244.97,-307.14 241.57,-292.87 262,-283.89 317.65,-259.43 391.13,-264.02 429.55,-268.83"/>
<polygon fill="midnightblue" stroke="midnightblue" points="429.47,-272.36 439.85,-270.24 430.42,-265.42 429.47,-272.36"/>
</g>
<!-- Node12&#45;&gt;Node12 -->
<g id="edge12" class="edge">
<title>Node12&#45;&gt;Node12</title>
<path fill="none" stroke="midnightblue" d="M299.04,-312.65C288.84,-321.46 295.83,-330.89 320,-330.89 335.49,-330.89 343.92,-327.02 345.3,-321.92"/>
<polygon fill="midnightblue" stroke="midnightblue" points="348.37,-320.22 340.96,-312.65 342.03,-323.19 348.37,-320.22"/>
</g>
<!-- Node18 -->
<g id="node14" class="node">
<title>Node18</title>
<g id="a_node14"><a xlink:href="c2ixys_8for.html#a411d8203fea8a15a1df158d3b2a3e174" target="_top" xlink:title=" ">
<polygon fill="white" stroke="red" points="685.5,-596.39 685.5,-615.39 747.5,-615.39 747.5,-596.39 685.5,-596.39"/>
<text text-anchor="middle" x="716.5" y="-603.39" font-family="Helvetica,sans-Serif" font-size="10.00">iau_c2ixys</text>
</a>
</g>
</g>
<!-- Node17&#45;&gt;Node18 -->
<g id="edge15" class="edge">
<title>Node17&#45;&gt;Node18</title>
<path fill="none" stroke="midnightblue" d="M610.5,-590.24C628.32,-592.9 653.67,-596.68 674.99,-599.86"/>
<polygon fill="midnightblue" stroke="midnightblue" points="674.68,-603.35 685.09,-601.36 675.72,-596.42 674.68,-603.35"/>
</g>
<!-- Node21 -->
<g id="node15" class="node">
<title>Node21</title>
<g id="a_node15"><a xlink:href="rz_8for.html#a5584a629711c72f8403462414b6269d4" target="_top" xlink:title=" ">
<polygon fill="white" stroke="black" points="815.5,-634.39 815.5,-653.39 857.5,-653.39 857.5,-634.39 815.5,-634.39"/>
<text text-anchor="middle" x="836.5" y="-641.39" font-family="Helvetica,sans-Serif" font-size="10.00">iau_rz</text>
</a>
</g>
</g>
<!-- Node17&#45;&gt;Node21 -->
<g id="edge20" class="edge">
<title>Node17&#45;&gt;Node21</title>
<path fill="none" stroke="midnightblue" d="M595.04,-596.5C608.36,-613.75 639.14,-649.43 675,-662.89 718.45,-679.2 772.75,-666.5 805.74,-655.48"/>
<polygon fill="midnightblue" stroke="midnightblue" points="806.98,-658.75 815.26,-652.14 804.67,-652.14 806.98,-658.75"/>
</g>
<!-- Node22 -->
<g id="node16" class="node">
<title>Node22</title>
<g id="a_node16"><a xlink:href="pom00_8for.html#a73becc47749dc2c91dad6753b5a6a504" target="_top" xlink:title=" ">
<polygon fill="white" stroke="red" points="684.5,-634.39 684.5,-653.39 748.5,-653.39 748.5,-634.39 684.5,-634.39"/>
<text text-anchor="middle" x="716.5" y="-641.39" font-family="Helvetica,sans-Serif" font-size="10.00">iau_pom00</text>
</a>
</g>
</g>
<!-- Node17&#45;&gt;Node22 -->
<g id="edge17" class="edge">
<title>Node17&#45;&gt;Node22</title>
<path fill="none" stroke="midnightblue" d="M609.34,-596.43C630.03,-605.68 661.61,-619.8 684.96,-630.24"/>
<polygon fill="midnightblue" stroke="midnightblue" points="683.53,-633.43 694.09,-634.32 686.39,-627.04 683.53,-633.43"/>
</g>
<!-- Node24 -->
<g id="node17" class="node">
<title>Node24</title>
<g id="a_node17"><a xlink:href="rxr_8for.html#a8172488cdcd29f9780d47f2a0c045f40" target="_top" xlink:title=" ">
<polygon fill="white" stroke="red" points="694,-558.39 694,-577.39 739,-577.39 739,-558.39 694,-558.39"/>
<text text-anchor="middle" x="716.5" y="-565.39" font-family="Helvetica,sans-Serif" font-size="10.00">iau_rxr</text>
</a>
</g>
</g>
<!-- Node17&#45;&gt;Node24 -->
<g id="edge19" class="edge">
<title>Node17&#45;&gt;Node24</title>
<path fill="none" stroke="midnightblue" d="M610.5,-583.54C630.74,-580.52 660.71,-576.06 683.45,-572.67"/>
<polygon fill="midnightblue" stroke="midnightblue" points="684.28,-576.08 693.65,-571.15 683.24,-569.16 684.28,-576.08"/>
</g>
<!-- Node27 -->
<g id="node18" class="node">
<title>Node27</title>
<g id="a_node18"><a xlink:href="tr_8for.html#ad8b870c9acbe88adfefd7fce32c6cb97" target="_top" xlink:title=" ">
<polygon fill="white" stroke="red" points="696,-520.39 696,-539.39 737,-539.39 737,-520.39 696,-520.39"/>
<text text-anchor="middle" x="716.5" y="-527.39" font-family="Helvetica,sans-Serif" font-size="10.00">iau_tr</text>
</a>
</g>
</g>
<!-- Node17&#45;&gt;Node27 -->
<g id="edge21" class="edge">
<title>Node17&#45;&gt;Node27</title>
<path fill="none" stroke="midnightblue" d="M609.34,-577.35C630.52,-567.88 663.14,-553.3 686.63,-542.8"/>
<polygon fill="midnightblue" stroke="midnightblue" points="688.07,-545.99 695.77,-538.71 685.21,-539.6 688.07,-545.99"/>
</g>
<!-- Node28 -->
<g id="node19" class="node">
<title>Node28</title>
<g id="a_node19"><a xlink:href="xy06_8for.html#abf1faa9bb7c716799b462369345c7720" target="_top" xlink:title=" ">
<polygon fill="white" stroke="black" points="689.5,-482.39 689.5,-501.39 743.5,-501.39 743.5,-482.39 689.5,-482.39"/>
<text text-anchor="middle" x="716.5" y="-489.39" font-family="Helvetica,sans-Serif" font-size="10.00">iau_xy06</text>
</a>
</g>
</g>
<!-- Node17&#45;&gt;Node28 -->
<g id="edge22" class="edge">
<title>Node17&#45;&gt;Node28</title>
<path fill="none" stroke="midnightblue" d="M610.57,-579.27C620.02,-575.35 630.71,-569.91 639,-562.89 660.45,-544.73 653.54,-529.04 675,-510.89 676.78,-509.38 678.71,-507.97 680.71,-506.64"/>
<polygon fill="midnightblue" stroke="midnightblue" points="682.91,-509.42 689.85,-501.42 679.43,-503.34 682.91,-509.42"/>
</g>
<!-- Node29 -->
<g id="node20" class="node">
<title>Node29</title>
<g id="a_node20"><a xlink:href="xys00a_8for.html#aec6f2c2a7ddb7a508d1f6b5d138e3e4d" target="_top" xlink:title=" ">
<polygon fill="white" stroke="red" points="684,-444.39 684,-463.39 749,-463.39 749,-444.39 684,-444.39"/>
<text text-anchor="middle" x="716.5" y="-451.39" font-family="Helvetica,sans-Serif" font-size="10.00">iau_xys00a</text>
</a>
</g>
</g>
<!-- Node17&#45;&gt;Node29 -->
<g id="edge23" class="edge">
<title>Node17&#45;&gt;Node29</title>
<path fill="none" stroke="midnightblue" d="M610.61,-580.42C620.4,-576.66 631.35,-571.01 639,-562.89 668.55,-531.54 645.44,-504.23 675,-472.89 676.21,-471.61 677.52,-470.41 678.91,-469.28"/>
<polygon fill="midnightblue" stroke="midnightblue" points="681.09,-472.03 687.5,-463.59 677.23,-466.19 681.09,-472.03"/>
</g>
<!-- Node39 -->
<g id="node21" class="node">
<title>Node39</title>
<g id="a_node21"><a xlink:href="time__TT_8f90.html#aac4be73ca07f0d71843391b034a7d20e" target="_top" xlink:title=" ">
<polygon fill="white" stroke="black" points="693,-406.39 693,-425.39 740,-425.39 740,-406.39 693,-406.39"/>
<text text-anchor="middle" x="716.5" y="-413.39" font-family="Helvetica,sans-Serif" font-size="10.00">time_tt</text>
</a>
</g>
</g>
<!-- Node17&#45;&gt;Node39 -->
<g id="edge24" class="edge">
<title>Node17&#45;&gt;Node39</title>
<path fill="none" stroke="midnightblue" d="M610.75,-580.89C620.7,-577.2 631.73,-571.48 639,-562.89 677.19,-517.79 636.79,-479.97 675,-434.89 677.45,-432 680.45,-429.51 683.69,-427.39"/>
<polygon fill="midnightblue" stroke="midnightblue" points="685.47,-430.4 692.62,-422.58 682.16,-424.24 685.47,-430.4"/>
</g>
<!-- Node18&#45;&gt;Node21 -->
<g id="edge16" class="edge">
<title>Node18&#45;&gt;Node21</title>
<path fill="none" stroke="midnightblue" d="M747.28,-615.48C765.17,-621.24 787.85,-628.55 805.74,-634.31"/>
<polygon fill="midnightblue" stroke="midnightblue" points="804.79,-637.68 815.38,-637.41 806.94,-631.02 804.79,-637.68"/>
</g>
<!-- Node22&#45;&gt;Node21 -->
<g id="edge18" class="edge">
<title>Node22&#45;&gt;Node21</title>
<path fill="none" stroke="midnightblue" d="M748.5,-643.89C766.03,-643.89 787.86,-643.89 805.26,-643.89"/>
<polygon fill="midnightblue" stroke="midnightblue" points="805.45,-647.39 815.45,-643.89 805.45,-640.39 805.45,-647.39"/>
</g>
<!-- Node40 -->
<g id="node22" class="node">
<title>Node40</title>
<g id="a_node22"><a xlink:href="jd2cal_8for.html#a9bed91282551283d85294092fe0cc509" target="_top" xlink:title=" ">
<polygon fill="white" stroke="black" points="806.5,-349.39 806.5,-368.39 866.5,-368.39 866.5,-349.39 806.5,-349.39"/>
<text text-anchor="middle" x="836.5" y="-356.39" font-family="Helvetica,sans-Serif" font-size="10.00">iau_jd2cal</text>
</a>
</g>
</g>
<!-- Node39&#45;&gt;Node40 -->
<g id="edge25" class="edge">
<title>Node39&#45;&gt;Node40</title>
<path fill="none" stroke="midnightblue" d="M738.61,-406.22C744.88,-403.28 751.74,-400.01 758,-396.89 774.19,-388.83 777.77,-385.88 794,-377.89 797.4,-376.22 800.98,-374.51 804.55,-372.83"/>
<polygon fill="midnightblue" stroke="midnightblue" points="806.25,-375.9 813.85,-368.52 803.31,-369.55 806.25,-375.9"/>
</g>
<!-- Node41 -->
<g id="node23" class="node">
<title>Node41</title>
<g id="a_node23"><a xlink:href="taiutc_8for.html#a86edd73f696a0968f1600df656bad920" target="_top" xlink:title=" ">
<polygon fill="white" stroke="black" points="816,-387.39 816,-406.39 857,-406.39 857,-387.39 816,-387.39"/>
<text text-anchor="middle" x="836.5" y="-394.39" font-family="Helvetica,sans-Serif" font-size="10.00">taiutc</text>
</a>
</g>
</g>
<!-- Node39&#45;&gt;Node41 -->
<g id="edge26" class="edge">
<title>Node39&#45;&gt;Node41</title>
<path fill="none" stroke="midnightblue" d="M740.25,-412.23C758.96,-409.22 785.6,-404.93 805.95,-401.65"/>
<polygon fill="midnightblue" stroke="midnightblue" points="806.63,-405.08 815.95,-400.04 805.52,-398.17 806.63,-405.08"/>
</g>
<!-- Node41&#45;&gt;Node42 -->
<g id="edge27" class="edge">
<title>Node41&#45;&gt;Node42</title>
<path fill="none" stroke="midnightblue" d="M857.37,-391.59C865.03,-388.66 873.31,-384.28 879,-377.89 926.31,-324.8 939.26,-236.72 942.74,-197.63"/>
<polygon fill="midnightblue" stroke="midnightblue" points="946.24,-197.81 943.52,-187.56 939.26,-197.26 946.24,-197.81"/>
</g>
<!-- Node43&#45;&gt;Node17 -->
<g id="edge29" class="edge">
<title>Node43&#45;&gt;Node17</title>
<path fill="none" stroke="midnightblue" d="M466.74,-463.46C488.31,-485.78 542.2,-541.56 569.54,-569.85"/>
<polygon fill="midnightblue" stroke="midnightblue" points="567.03,-572.29 576.5,-577.05 572.06,-567.43 567.03,-572.29"/>
</g>
<!-- Node44 -->
<g id="node26" class="node">
<title>Node44</title>
<g id="a_node26"><a xlink:href="namespacem__eop__cor.html#af1a58e51cefaf1a8f938020cd41f03ec" target="_top" xlink:title=" ">
<polygon fill="white" stroke="red" points="535,-444.39 535,-463.39 639,-463.39 639,-444.39 535,-444.39"/>
<text text-anchor="middle" x="587" y="-451.39" font-family="Helvetica,sans-Serif" font-size="10.00">m_eop_cor::eop_cor</text>
</a>
</g>
</g>
<!-- Node43&#45;&gt;Node44 -->
<g id="edge30" class="edge">
<title>Node43&#45;&gt;Node44</title>
<path fill="none" stroke="midnightblue" d="M472.75,-453.89C485.82,-453.89 505.57,-453.89 524.93,-453.89"/>
<polygon fill="midnightblue" stroke="midnightblue" points="524.98,-457.39 534.98,-453.89 524.98,-450.39 524.98,-457.39"/>
</g>
<!-- Node49 -->
<g id="node27" class="node">
<title>Node49</title>
<g id="a_node27"><a xlink:href="namespacem__eop__igu.html#a87fff80e2ab805d1c8b484f4d8760c06" target="_top" xlink:title=" ">
<polygon fill="white" stroke="red" points="536,-406.39 536,-425.39 638,-425.39 638,-406.39 536,-406.39"/>
<text text-anchor="middle" x="587" y="-413.39" font-family="Helvetica,sans-Serif" font-size="10.00">m_eop_igu::eop_igu</text>
</a>
</g>
</g>
<!-- Node43&#45;&gt;Node49 -->
<g id="edge32" class="edge">
<title>Node43&#45;&gt;Node49</title>
<path fill="none" stroke="midnightblue" d="M472.75,-449.38C490.22,-444.22 519.59,-435.53 544.04,-428.3"/>
<polygon fill="midnightblue" stroke="midnightblue" points="545.23,-431.6 553.83,-425.41 543.24,-424.89 545.23,-431.6"/>
</g>
<!-- Node44&#45;&gt;Node39 -->
<g id="edge31" class="edge">
<title>Node44&#45;&gt;Node39</title>
<path fill="none" stroke="midnightblue" d="M620.17,-444.3C639.43,-438.56 663.84,-431.29 683.13,-425.54"/>
<polygon fill="midnightblue" stroke="midnightblue" points="684.4,-428.81 692.98,-422.6 682.4,-422.11 684.4,-428.81"/>
</g>
<!-- Node52&#45;&gt;Node43 -->
<g id="edge34" class="edge">
<title>Node52&#45;&gt;Node43</title>
<path fill="none" stroke="midnightblue" d="M194.31,-439.6C212.37,-444.67 238.57,-451.19 262,-453.89 321.88,-460.79 392.89,-458.02 430,-455.74"/>
<polygon fill="midnightblue" stroke="midnightblue" points="430.63,-459.21 440.38,-455.06 430.17,-452.22 430.63,-459.21"/>
</g>
<!-- Node53 -->
<g id="node29" class="node">
<title>Node53</title>
<g id="a_node29"><a xlink:href="eop__c04_8f90.html#a34bd76d884570241edddcff0887b7918" target="_top" xlink:title=" ">
<polygon fill="white" stroke="black" points="293.5,-425.39 293.5,-444.39 346.5,-444.39 346.5,-425.39 293.5,-425.39"/>
<text text-anchor="middle" x="320" y="-432.39" font-family="Helvetica,sans-Serif" font-size="10.00">eop_c04</text>
</a>
</g>
</g>
<!-- Node52&#45;&gt;Node53 -->
<g id="edge35" class="edge">
<title>Node52&#45;&gt;Node53</title>
<path fill="none" stroke="midnightblue" d="M194.01,-433.19C217.59,-433.51 255.37,-434.03 283.23,-434.4"/>
<polygon fill="midnightblue" stroke="midnightblue" points="283.33,-437.91 293.38,-434.54 283.42,-430.91 283.33,-437.91"/>
</g>
<!-- Node54 -->
<g id="node30" class="node">
<title>Node54</title>
<g id="a_node30"><a xlink:href="eop__finals2000A_8f90.html#a091868f9644b2756bb9453a98b5045b2" target="_top" xlink:title=" ">
<polygon fill="white" stroke="black" points="277,-387.39 277,-406.39 363,-406.39 363,-387.39 277,-387.39"/>
<text text-anchor="middle" x="320" y="-394.39" font-family="Helvetica,sans-Serif" font-size="10.00">eop_finals2000a</text>
</a>
</g>
</g>
<!-- Node52&#45;&gt;Node54 -->
<g id="edge38" class="edge">
<title>Node52&#45;&gt;Node54</title>
<path fill="none" stroke="midnightblue" d="M194.01,-427.5C214.02,-422.6 244.26,-415.19 269.99,-408.89"/>
<polygon fill="midnightblue" stroke="midnightblue" points="271.08,-412.23 279.96,-406.45 269.41,-405.43 271.08,-412.23"/>
</g>
<!-- Node53&#45;&gt;Node14 -->
<g id="edge37" class="edge">
<title>Node53&#45;&gt;Node14</title>
<path fill="none" stroke="midnightblue" d="M346.61,-430.67C357.23,-427.89 369.13,-423.33 378,-415.89 417.89,-382.44 440.52,-323 450.06,-292.36"/>
<polygon fill="midnightblue" stroke="midnightblue" points="453.5,-293.06 452.99,-282.47 446.79,-291.07 453.5,-293.06"/>
</g>
<!-- Node53&#45;&gt;Node43 -->
<g id="edge36" class="edge">
<title>Node53&#45;&gt;Node43</title>
<path fill="none" stroke="midnightblue" d="M346.62,-438.51C370.67,-441.91 406.45,-446.96 430.36,-450.34"/>
<polygon fill="midnightblue" stroke="midnightblue" points="430.03,-453.83 440.42,-451.76 431.01,-446.9 430.03,-453.83"/>
</g>
<!-- Node54&#45;&gt;Node14 -->
<g id="edge40" class="edge">
<title>Node54&#45;&gt;Node14</title>
<path fill="none" stroke="midnightblue" d="M360.28,-387.36C366.53,-384.87 372.68,-381.75 378,-377.89 409.76,-354.82 434.02,-314.88 446.4,-291.48"/>
<polygon fill="midnightblue" stroke="midnightblue" points="449.52,-293.05 450.96,-282.56 443.29,-289.87 449.52,-293.05"/>
</g>
<!-- Node54&#45;&gt;Node43 -->
<g id="edge39" class="edge">
<title>Node54&#45;&gt;Node43</title>
<path fill="none" stroke="midnightblue" d="M352.04,-406.4C360.54,-409.23 369.7,-412.49 378,-415.89 396.2,-423.35 416.11,-433.15 431.19,-440.93"/>
<polygon fill="midnightblue" stroke="midnightblue" points="429.85,-444.18 440.34,-445.7 433.09,-437.97 429.85,-444.18"/>
</g>
<!-- Node56 -->
<g id="node32" class="node">
<title>Node56</title>
<g id="a_node32"><a xlink:href="glnacc_8f90.html#a113aa1cfdb88199fb2c93a91e913779a" target="_top" xlink:title=" ">
<polygon fill="white" stroke="black" points="297.5,-349.39 297.5,-368.39 342.5,-368.39 342.5,-349.39 297.5,-349.39"/>
<text text-anchor="middle" x="320" y="-356.39" font-family="Helvetica,sans-Serif" font-size="10.00">glnacc</text>
</a>
</g>
</g>
<!-- Node55&#45;&gt;Node56 -->
<g id="edge42" class="edge">
<title>Node55&#45;&gt;Node56</title>
<path fill="none" stroke="midnightblue" d="M197.61,-386.97C222.44,-381.22 260.2,-372.49 287,-366.29"/>
<polygon fill="midnightblue" stroke="midnightblue" points="288.09,-369.63 297.04,-363.97 286.51,-362.81 288.09,-369.63"/>
</g>
<!-- Node57&#45;&gt;Node6 -->
<g id="edge45" class="edge">
<title>Node57&#45;&gt;Node6</title>
<path fill="none" stroke="midnightblue" d="M198.16,-745.91C253.05,-760.62 379.48,-794.51 431.98,-808.59"/>
<polygon fill="midnightblue" stroke="midnightblue" points="431.17,-811.99 441.73,-811.2 432.98,-805.23 431.17,-811.99"/>
</g>
<!-- Node58 -->
<g id="node34" class="node">
<title>Node58</title>
<g id="a_node34"><a xlink:href="R3_8for.html#a8736a6c65234edc13681ad51dff7ed1d" target="_top" xlink:title=" ">
<polygon fill="white" stroke="black" points="305.5,-729.39 305.5,-748.39 334.5,-748.39 334.5,-729.39 305.5,-729.39"/>
<text text-anchor="middle" x="320" y="-736.39" font-family="Helvetica,sans-Serif" font-size="10.00">r3</text>
</a>
</g>
</g>
<!-- Node57&#45;&gt;Node58 -->
<g id="edge46" class="edge">
<title>Node57&#45;&gt;Node58</title>
<path fill="none" stroke="midnightblue" d="M198.28,-738.89C225.74,-738.89 268.45,-738.89 295.02,-738.89"/>
<polygon fill="midnightblue" stroke="midnightblue" points="295.32,-742.39 305.32,-738.89 295.32,-735.39 295.32,-742.39"/>
</g>
<!-- Node60&#45;&gt;Node14 -->
<g id="edge49" class="edge">
<title>Node60&#45;&gt;Node14</title>
<path fill="none" stroke="midnightblue" d="M353.67,-197.93C361.91,-202.3 370.53,-207.39 378,-212.89 396.22,-226.31 396.05,-235.11 414,-248.89 419.29,-252.95 425.32,-256.82 431.13,-260.22"/>
<polygon fill="midnightblue" stroke="midnightblue" points="429.48,-263.3 439.91,-265.13 432.89,-257.19 429.48,-263.3"/>
</g>
<!-- Node62&#45;&gt;Node42 -->
<g id="edge52" class="edge">
<title>Node62&#45;&gt;Node42</title>
<path fill="none" stroke="midnightblue" d="M757.24,-99.47C790.51,-108.13 838.84,-122.21 879,-139.89 893.49,-146.27 908.82,-155.12 920.95,-162.67"/>
<polygon fill="midnightblue" stroke="midnightblue" points="919.22,-165.72 929.54,-168.14 922.98,-159.81 919.22,-165.72"/>
</g>
<!-- Node63 -->
<g id="node39" class="node">
<title>Node63</title>
<g id="a_node39"><a xlink:href="prn__shift__brdc_8f95.html#ab1eb7033c13c10208651f63e10e55494" target="_top" xlink:title=" ">
<polygon fill="white" stroke="black" points="797.5,-73.39 797.5,-92.39 875.5,-92.39 875.5,-73.39 797.5,-73.39"/>
<text text-anchor="middle" x="836.5" y="-80.39" font-family="Helvetica,sans-Serif" font-size="10.00">prn_shift_brdc</text>
</a>
</g>
</g>
<!-- Node62&#45;&gt;Node63 -->
<g id="edge53" class="edge">
<title>Node62&#45;&gt;Node63</title>
<path fill="none" stroke="midnightblue" d="M758.11,-87.48C767.41,-86.93 777.39,-86.34 786.99,-85.77"/>
<polygon fill="midnightblue" stroke="midnightblue" points="787.43,-89.25 797.2,-85.16 787.01,-82.26 787.43,-89.25"/>
</g>
<!-- Node64 -->
<g id="node40" class="node">
<title>Node64</title>
<g id="a_node40"><a xlink:href="reformbrdc_8f90.html#a7db70b99a710bbfc2ef44eae0cd0f40a" target="_top" xlink:title=" ">
<polygon fill="white" stroke="black" points="805,-35.39 805,-54.39 868,-54.39 868,-35.39 805,-35.39"/>
<text text-anchor="middle" x="836.5" y="-42.39" font-family="Helvetica,sans-Serif" font-size="10.00">reformbrdc</text>
</a>
</g>
</g>
<!-- Node62&#45;&gt;Node64 -->
<g id="edge54" class="edge">
<title>Node62&#45;&gt;Node64</title>
<path fill="none" stroke="midnightblue" d="M742.52,-80.35C759.58,-73.85 782.37,-65.15 801.13,-58"/>
<polygon fill="midnightblue" stroke="midnightblue" points="802.41,-61.25 810.51,-54.42 799.92,-54.71 802.41,-61.25"/>
</g>
<!-- Node65 -->
<g id="node41" class="node">
<title>Node65</title>
<g id="a_node41"><a xlink:href="time__GPSweek2_8f90.html#adeefb73caf196250b99185fc5ccec9fc" target="_top" xlink:title=" ">
<polygon fill="white" stroke="black" points="794,-149.39 794,-168.39 879,-168.39 879,-149.39 794,-149.39"/>
<text text-anchor="middle" x="836.5" y="-156.39" font-family="Helvetica,sans-Serif" font-size="10.00">time_gpsweek2</text>
</a>
</g>
</g>
<!-- Node62&#45;&gt;Node65 -->
<g id="edge55" class="edge">
<title>Node62&#45;&gt;Node65</title>
<path fill="none" stroke="midnightblue" d="M733.6,-99.41C749.06,-108.54 773.1,-122.7 794,-134.89 799.25,-137.95 804.88,-141.22 810.25,-144.33"/>
<polygon fill="midnightblue" stroke="midnightblue" points="808.52,-147.37 818.92,-149.34 812.02,-141.31 808.52,-147.37"/>
</g>
<!-- Node65&#45;&gt;Node42 -->
<g id="edge56" class="edge">
<title>Node65&#45;&gt;Node42</title>
<path fill="none" stroke="midnightblue" d="M879.29,-166.35C887.74,-167.85 896.59,-169.43 904.95,-170.92"/>
<polygon fill="midnightblue" stroke="midnightblue" points="904.37,-174.38 914.83,-172.69 905.6,-167.48 904.37,-174.38"/>
</g>
<!-- Node66&#45;&gt;Node42 -->
<g id="edge58" class="edge">
<title>Node66&#45;&gt;Node42</title>
<path fill="none" stroke="midnightblue" d="M619.22,-691.47C679.03,-707.68 809.95,-732.38 879,-662.89 945.48,-595.98 945.54,-280.24 944.38,-197.68"/>
<polygon fill="midnightblue" stroke="midnightblue" points="947.88,-197.57 944.22,-187.63 940.88,-197.69 947.88,-197.57"/>
</g>
<!-- Node67&#45;&gt;Node40 -->
<g id="edge60" class="edge">
<title>Node67&#45;&gt;Node40</title>
<path fill="none" stroke="midnightblue" d="M743.69,-373.67C759.09,-371.19 778.88,-368.01 796.13,-365.23"/>
<polygon fill="midnightblue" stroke="midnightblue" points="797.17,-368.61 806.49,-363.56 796.06,-361.7 797.17,-368.61"/>
</g>
<!-- Node67&#45;&gt;Node41 -->
<g id="edge61" class="edge">
<title>Node67&#45;&gt;Node41</title>
<path fill="none" stroke="midnightblue" d="M743.69,-382.11C762.14,-385.08 786.86,-389.06 806,-392.14"/>
<polygon fill="midnightblue" stroke="midnightblue" points="805.56,-395.62 815.99,-393.75 806.67,-388.7 805.56,-395.62"/>
</g>
<!-- Node68&#45;&gt;Node14 -->
<g id="edge67" class="edge">
<title>Node68&#45;&gt;Node14</title>
<path fill="none" stroke="midnightblue" d="M365.31,-149.03C369.96,-151.82 374.32,-155.09 378,-158.89 407.96,-189.85 385.8,-216.32 414,-248.89 418.58,-254.18 424.62,-258.58 430.67,-262.11"/>
<polygon fill="midnightblue" stroke="midnightblue" points="429.49,-265.44 439.98,-266.93 432.71,-259.22 429.49,-265.44"/>
</g>
<!-- Node68&#45;&gt;Node40 -->
<g id="edge64" class="edge">
<title>Node68&#45;&gt;Node40</title>
<path fill="none" stroke="midnightblue" d="M358.3,-149.01C364.97,-152.06 371.78,-155.41 378,-158.89 395,-168.4 396.91,-174.55 414,-183.89 548.9,-257.63 721.46,-320.13 797.08,-346.06"/>
<polygon fill="midnightblue" stroke="midnightblue" points="796.08,-349.41 806.67,-349.33 798.34,-342.79 796.08,-349.41"/>
</g>
<!-- Node69 -->
<g id="node45" class="node">
<title>Node69</title>
<g id="a_node45"><a xlink:href="time__GPSweek3_8f90.html#aeb3da60a108b7ce50c14435bf57bd743" target="_top" xlink:title=" ">
<polygon fill="white" stroke="black" points="414,-155.39 414,-174.39 499,-174.39 499,-155.39 414,-155.39"/>
<text text-anchor="middle" x="456.5" y="-162.39" font-family="Helvetica,sans-Serif" font-size="10.00">time_gpsweek3</text>
</a>
</g>
</g>
<!-- Node68&#45;&gt;Node69 -->
<g id="edge65" class="edge">
<title>Node68&#45;&gt;Node69</title>
<path fill="none" stroke="midnightblue" d="M378.04,-147.04C386.79,-149.05 395.77,-151.13 404.38,-153.11"/>
<polygon fill="midnightblue" stroke="midnightblue" points="403.75,-156.56 414.28,-155.39 405.32,-149.73 403.75,-156.56"/>
</g>
<!-- Node69&#45;&gt;Node42 -->
<g id="edge66" class="edge">
<title>Node69&#45;&gt;Node42</title>
<path fill="none" stroke="midnightblue" d="M499.19,-167.02C562.76,-170.15 687.76,-175.84 794,-177.89 831.61,-178.62 874.54,-178.52 904.81,-178.31"/>
<polygon fill="midnightblue" stroke="midnightblue" points="904.99,-181.8 914.96,-178.22 904.93,-174.8 904.99,-181.8"/>
</g>
</g>
</svg>
