<?xml version="1.0" encoding="UTF-8" standalone="no"?>
<!DOCTYPE svg PUBLIC "-//W3C//DTD SVG 1.1//EN"
 "http://www.w3.org/Graphics/SVG/1.1/DTD/svg11.dtd">
<!-- Generated by graphviz version 2.50.0 (20220203.2022)
 -->
<!-- Title: createTracefiles Pages: 1 -->
<svg width="493pt" height="236pt"
 viewBox="0.00 0.00 493.00 236.00" xmlns="http://www.w3.org/2000/svg" xmlns:xlink="http://www.w3.org/1999/xlink">
<g id="graph0" class="graph" transform="scale(1 1) rotate(0) translate(4 232)">
<title>createTracefiles</title>
<polygon fill="white" stroke="transparent" points="-4,4 -4,-232 489,-232 489,4 -4,4"/>
<!-- Node1 -->
<g id="node1" class="node">
<title>Node1</title>
<g id="a_node1"><a xlink:title="Create new empty trace files only when required when the filename is changed.">
<polygon fill="#bfbfbf" stroke="black" points="0,-87.5 0,-106.5 86,-106.5 86,-87.5 0,-87.5"/>
<text text-anchor="middle" x="43" y="-94.5" font-family="Helvetica,sans-Serif" font-size="10.00">createTracefiles</text>
</a>
</g>
</g>
<!-- Node2 -->
<g id="node2" class="node">
<title>Node2</title>
<g id="a_node2"><a xlink:href="main_8cpp.html#a5b7b646da56360210bda9517c7d2aac5" target="_top" xlink:title=" ">
<polygon fill="white" stroke="black" points="130.5,-139.5 130.5,-158.5 234.5,-158.5 234.5,-139.5 130.5,-139.5"/>
<text text-anchor="middle" x="182.5" y="-146.5" font-family="Helvetica,sans-Serif" font-size="10.00">createNewTraceFile</text>
</a>
</g>
</g>
<!-- Node1&#45;&gt;Node2 -->
<g id="edge1" class="edge">
<title>Node1&#45;&gt;Node2</title>
<path fill="none" stroke="midnightblue" d="M69.22,-106.54C90.89,-114.73 122.36,-126.63 146.47,-135.75"/>
<polygon fill="midnightblue" stroke="midnightblue" points="145.38,-139.08 155.97,-139.35 147.86,-132.54 145.38,-139.08"/>
</g>
<!-- Node6 -->
<g id="node6" class="node">
<title>Node6</title>
<g id="a_node6"><a xlink:href="rinexClkWrite_8cpp.html#ae105b449da2c0d5e0ce91380d3b6907b" target="_top" xlink:title=" ">
<polygon fill="white" stroke="black" points="122,-87.5 122,-106.5 243,-106.5 243,-87.5 122,-87.5"/>
<text text-anchor="middle" x="182.5" y="-94.5" font-family="Helvetica,sans-Serif" font-size="10.00">getSysOutputFilenames</text>
</a>
</g>
</g>
<!-- Node1&#45;&gt;Node6 -->
<g id="edge6" class="edge">
<title>Node1&#45;&gt;Node6</title>
<path fill="none" stroke="midnightblue" d="M86,-97C94.12,-97 102.83,-97 111.56,-97"/>
<polygon fill="midnightblue" stroke="midnightblue" points="111.79,-100.5 121.79,-97 111.79,-93.5 111.79,-100.5"/>
</g>
<!-- Node7 -->
<g id="node7" class="node">
<title>Node7</title>
<g id="a_node7"><a xlink:href="structGTime.html#a7ed28cc28b05a43069702e96295be269" target="_top" xlink:title=" ">
<polygon fill="white" stroke="black" points="279,-0.5 279,-19.5 375,-19.5 375,-0.5 279,-0.5"/>
<text text-anchor="middle" x="327" y="-7.5" font-family="Helvetica,sans-Serif" font-size="10.00">GTime::roundTime</text>
</a>
</g>
</g>
<!-- Node1&#45;&gt;Node7 -->
<g id="edge12" class="edge">
<title>Node1&#45;&gt;Node7</title>
<path fill="none" stroke="midnightblue" d="M74.99,-87.44C126.14,-71.66 228.25,-40.16 285.21,-22.58"/>
<polygon fill="midnightblue" stroke="midnightblue" points="286.44,-25.87 294.96,-19.58 284.38,-19.18 286.44,-25.87"/>
</g>
<!-- Node3 -->
<g id="node3" class="node">
<title>Node3</title>
<g id="a_node3"><a xlink:href="acsConfig_8cpp.html#a5566b10148341d277d15949c7669cfd5" target="_top" xlink:title=" ">
<polygon fill="white" stroke="black" points="293,-208.5 293,-227.5 361,-227.5 361,-208.5 293,-208.5"/>
<text text-anchor="middle" x="327" y="-215.5" font-family="Helvetica,sans-Serif" font-size="10.00">dumpConfig</text>
</a>
</g>
</g>
<!-- Node2&#45;&gt;Node3 -->
<g id="edge2" class="edge">
<title>Node2&#45;&gt;Node3</title>
<path fill="none" stroke="midnightblue" d="M203.31,-158.59C227.67,-170.39 269.19,-190.49 297.1,-204.01"/>
<polygon fill="midnightblue" stroke="midnightblue" points="295.83,-207.28 306.35,-208.49 298.88,-200.98 295.83,-207.28"/>
</g>
<!-- Node4 -->
<g id="node4" class="node">
<title>Node4</title>
<g id="a_node4"><a xlink:href="acsConfig_8cpp.html#a4384ae3d8da08f4e8562857e46291559" target="_top" xlink:title="search for and replace section of string">
<polygon fill="white" stroke="black" points="411,-132.5 411,-151.5 485,-151.5 485,-132.5 411,-132.5"/>
<text text-anchor="middle" x="448" y="-139.5" font-family="Helvetica,sans-Serif" font-size="10.00">replaceString</text>
</a>
</g>
</g>
<!-- Node2&#45;&gt;Node4 -->
<g id="edge3" class="edge">
<title>Node2&#45;&gt;Node4</title>
<path fill="none" stroke="midnightblue" d="M234.88,-157.53C273.54,-162.67 327.76,-167.13 375,-161 385.88,-159.59 397.46,-157.02 408.08,-154.23"/>
<polygon fill="midnightblue" stroke="midnightblue" points="409.21,-157.55 417.91,-151.5 407.34,-150.8 409.21,-157.55"/>
</g>
<!-- Node5 -->
<g id="node5" class="node">
<title>Node5</title>
<g id="a_node5"><a xlink:href="acsConfig_8cpp.html#a75a34dc41e76a8680e3aa6d62ff4c800" target="_top" xlink:title="Replace macros for times with numeric values.">
<polygon fill="white" stroke="black" points="289.5,-132.5 289.5,-151.5 364.5,-151.5 364.5,-132.5 289.5,-132.5"/>
<text text-anchor="middle" x="327" y="-139.5" font-family="Helvetica,sans-Serif" font-size="10.00">replaceTimes</text>
</a>
</g>
</g>
<!-- Node2&#45;&gt;Node5 -->
<g id="edge4" class="edge">
<title>Node2&#45;&gt;Node5</title>
<path fill="none" stroke="midnightblue" d="M234.54,-146.49C249.07,-145.78 264.81,-145.01 279.08,-144.3"/>
<polygon fill="midnightblue" stroke="midnightblue" points="279.35,-147.8 289.17,-143.81 279.01,-140.8 279.35,-147.8"/>
</g>
<!-- Node5&#45;&gt;Node4 -->
<g id="edge5" class="edge">
<title>Node5&#45;&gt;Node4</title>
<path fill="none" stroke="midnightblue" d="M364.67,-142C375.98,-142 388.58,-142 400.45,-142"/>
<polygon fill="midnightblue" stroke="midnightblue" points="400.65,-145.5 410.65,-142 400.65,-138.5 400.65,-145.5"/>
</g>
<!-- Node6&#45;&gt;Node4 -->
<g id="edge7" class="edge">
<title>Node6&#45;&gt;Node4</title>
<path fill="none" stroke="midnightblue" d="M243.33,-103.21C281.26,-107.61 331.23,-114.29 375,-123 384.6,-124.91 394.82,-127.35 404.45,-129.84"/>
<polygon fill="midnightblue" stroke="midnightblue" points="403.66,-133.26 414.22,-132.44 405.46,-126.49 403.66,-133.26"/>
</g>
<!-- Node6&#45;&gt;Node5 -->
<g id="edge8" class="edge">
<title>Node6&#45;&gt;Node5</title>
<path fill="none" stroke="midnightblue" d="M213.72,-106.54C234.79,-113.2 263.11,-122.14 286.04,-129.38"/>
<polygon fill="midnightblue" stroke="midnightblue" points="285.23,-132.8 295.82,-132.47 287.34,-126.12 285.23,-132.8"/>
</g>
<!-- Node6&#45;&gt;Node7 -->
<g id="edge9" class="edge">
<title>Node6&#45;&gt;Node7</title>
<path fill="none" stroke="midnightblue" d="M199.29,-87.36C224.01,-72.27 272.03,-42.95 301.33,-25.06"/>
<polygon fill="midnightblue" stroke="midnightblue" points="303.42,-27.88 310.13,-19.69 299.78,-21.91 303.42,-27.88"/>
</g>
<!-- Node8 -->
<g id="node8" class="node">
<title>Node8</title>
<g id="a_node8"><a xlink:href="structSatSys.html#abfd7e43b0d57c2718d05ca595ee360dd" target="_top" xlink:title="Returns the character used as a prefix for this system.">
<polygon fill="white" stroke="black" points="283,-56.5 283,-75.5 371,-75.5 371,-56.5 283,-56.5"/>
<text text-anchor="middle" x="327" y="-63.5" font-family="Helvetica,sans-Serif" font-size="10.00">SatSys::sysChar</text>
</a>
</g>
</g>
<!-- Node6&#45;&gt;Node8 -->
<g id="edge11" class="edge">
<title>Node6&#45;&gt;Node8</title>
<path fill="none" stroke="midnightblue" d="M227.42,-87.45C241.77,-84.32 257.87,-80.82 272.82,-77.57"/>
<polygon fill="midnightblue" stroke="midnightblue" points="273.93,-80.91 282.96,-75.36 272.45,-74.07 273.93,-80.91"/>
</g>
<!-- Node7&#45;&gt;Node7 -->
<g id="edge10" class="edge">
<title>Node7&#45;&gt;Node7</title>
<path fill="none" stroke="midnightblue" d="M308.5,-19.76C299.51,-28.57 305.67,-38 327,-38 340.66,-38 348.1,-34.13 349.32,-29.03"/>
<polygon fill="midnightblue" stroke="midnightblue" points="352.55,-27.67 345.5,-19.76 346.07,-30.34 352.55,-27.67"/>
</g>
</g>
</svg>
