<?xml version="1.0" encoding="UTF-8" standalone="no"?>
<!DOCTYPE svg PUBLIC "-//W3C//DTD SVG 1.1//EN"
 "http://www.w3.org/Graphics/SVG/1.1/DTD/svg11.dtd">
<!-- Generated by graphviz version 2.50.0 (20220203.2022)
 -->
<!-- Title: initialiseStation Pages: 1 -->
<svg width="380pt" height="180pt"
 viewBox="0.00 0.00 380.00 180.00" xmlns="http://www.w3.org/2000/svg" xmlns:xlink="http://www.w3.org/1999/xlink">
<g id="graph0" class="graph" transform="scale(1 1) rotate(0) translate(4 176)">
<title>initialiseStation</title>
<polygon fill="white" stroke="transparent" points="-4,4 -4,-176 376,-176 376,4 -4,4"/>
<!-- Node1 -->
<g id="node1" class="node">
<title>Node1</title>
<g id="a_node1"><a xlink:title=" ">
<polygon fill="#bfbfbf" stroke="black" points="0,-76.5 0,-95.5 83,-95.5 83,-76.5 0,-76.5"/>
<text text-anchor="middle" x="41.5" y="-83.5" font-family="Helvetica,sans-Serif" font-size="10.00">initialiseStation</text>
</a>
</g>
</g>
<!-- Node2 -->
<g id="node2" class="node">
<title>Node2</title>
<g id="a_node2"><a xlink:href="ppp_8cpp.html#a4fef2ebf508f36c5033c1a2506fd0f27" target="_top" xlink:title="Remove any states connected to a bad clock if it glitches.">
<polygon fill="white" stroke="black" points="119,-152.5 119,-171.5 223,-171.5 223,-152.5 119,-152.5"/>
<text text-anchor="middle" x="171" y="-159.5" font-family="Helvetica,sans-Serif" font-size="10.00">clockGlitchReaction</text>
</a>
</g>
</g>
<!-- Node1&#45;&gt;Node2 -->
<g id="edge1" class="edge">
<title>Node1&#45;&gt;Node2</title>
<path fill="none" stroke="midnightblue" d="M53.23,-95.56C67.44,-107.84 93.69,-129.22 119,-143 122.69,-145.01 126.63,-146.89 130.63,-148.63"/>
<polygon fill="midnightblue" stroke="midnightblue" points="129.39,-151.91 139.97,-152.43 132.03,-145.42 129.39,-151.91"/>
</g>
<!-- Node4 -->
<g id="node4" class="node">
<title>Node4</title>
<g id="a_node4"><a xlink:href="ppp_8cpp.html#a0caa845727695a6c596b31259522975c" target="_top" xlink:title=" ">
<polygon fill="white" stroke="black" points="124.5,-114.5 124.5,-133.5 217.5,-133.5 217.5,-114.5 124.5,-114.5"/>
<text text-anchor="middle" x="171" y="-121.5" font-family="Helvetica,sans-Serif" font-size="10.00">countSignalErrors</text>
</a>
</g>
</g>
<!-- Node1&#45;&gt;Node4 -->
<g id="edge3" class="edge">
<title>Node1&#45;&gt;Node4</title>
<path fill="none" stroke="midnightblue" d="M74.67,-95.59C90.83,-100.4 110.61,-106.3 127.95,-111.47"/>
<polygon fill="midnightblue" stroke="midnightblue" points="127.25,-114.91 137.84,-114.41 129.25,-108.2 127.25,-114.91"/>
</g>
<!-- Node5 -->
<g id="node5" class="node">
<title>Node5</title>
<g id="a_node5"><a xlink:href="ppp_8cpp.html#aa0797b6f2a2f17b2fb86e99db808dea3" target="_top" xlink:title="Deweight measurements attached to worst state.">
<polygon fill="white" stroke="black" points="126,-76.5 126,-95.5 216,-95.5 216,-76.5 126,-76.5"/>
<text text-anchor="middle" x="171" y="-83.5" font-family="Helvetica,sans-Serif" font-size="10.00">deweightByState</text>
</a>
</g>
</g>
<!-- Node1&#45;&gt;Node5 -->
<g id="edge4" class="edge">
<title>Node1&#45;&gt;Node5</title>
<path fill="none" stroke="midnightblue" d="M83.19,-86C93.46,-86 104.66,-86 115.49,-86"/>
<polygon fill="midnightblue" stroke="midnightblue" points="115.72,-89.5 125.72,-86 115.72,-82.5 115.72,-89.5"/>
</g>
<!-- Node7 -->
<g id="node7" class="node">
<title>Node7</title>
<g id="a_node7"><a xlink:href="ppp_8cpp.html#a968c51f5aa3843055150caa0aaf58dcb" target="_top" xlink:title="Deweight worst measurement.">
<polygon fill="white" stroke="black" points="131,-38.5 131,-57.5 211,-57.5 211,-38.5 131,-38.5"/>
<text text-anchor="middle" x="171" y="-45.5" font-family="Helvetica,sans-Serif" font-size="10.00">deweightMeas</text>
</a>
</g>
</g>
<!-- Node1&#45;&gt;Node7 -->
<g id="edge6" class="edge">
<title>Node1&#45;&gt;Node7</title>
<path fill="none" stroke="midnightblue" d="M74.67,-76.41C90.83,-71.6 110.61,-65.7 127.95,-60.53"/>
<polygon fill="midnightblue" stroke="midnightblue" points="129.25,-63.8 137.84,-57.59 127.25,-57.09 129.25,-63.8"/>
</g>
<!-- Node8 -->
<g id="node8" class="node">
<title>Node8</title>
<g id="a_node8"><a xlink:href="rtkcmn_8cpp.html#ae6cbf1c54d1af0ec9df347f87ae3d63c" target="_top" xlink:title=" ">
<polygon fill="white" stroke="black" points="147,-0.5 147,-19.5 195,-19.5 195,-0.5 147,-0.5"/>
<text text-anchor="middle" x="171" y="-7.5" font-family="Helvetica,sans-Serif" font-size="10.00">readblq</text>
</a>
</g>
</g>
<!-- Node1&#45;&gt;Node8 -->
<g id="edge7" class="edge">
<title>Node1&#45;&gt;Node8</title>
<path fill="none" stroke="midnightblue" d="M53.23,-76.44C67.44,-64.16 93.69,-42.78 119,-29 124.72,-25.89 131.05,-23.07 137.26,-20.62"/>
<polygon fill="midnightblue" stroke="midnightblue" points="138.64,-23.84 146.8,-17.08 136.2,-17.28 138.64,-23.84"/>
</g>
<!-- Node3 -->
<g id="node3" class="node">
<title>Node3</title>
<g id="a_node3"><a xlink:href="structKFState.html#abdf1505bdab1895a280fd018979849f1" target="_top" xlink:title="Remove a state from a kalman filter object.">
<polygon fill="white" stroke="black" points="259,-152.5 259,-171.5 372,-171.5 372,-152.5 259,-152.5"/>
<text text-anchor="middle" x="315.5" y="-159.5" font-family="Helvetica,sans-Serif" font-size="10.00">KFState::removeState</text>
</a>
</g>
</g>
<!-- Node2&#45;&gt;Node3 -->
<g id="edge2" class="edge">
<title>Node2&#45;&gt;Node3</title>
<path fill="none" stroke="midnightblue" d="M223.04,-162C231.42,-162 240.21,-162 248.89,-162"/>
<polygon fill="midnightblue" stroke="midnightblue" points="248.99,-165.5 258.99,-162 248.99,-158.5 248.99,-165.5"/>
</g>
<!-- Node6 -->
<g id="node6" class="node">
<title>Node6</title>
<g id="a_node6"><a xlink:href="structKFState.html#a5aeeee0f20df8cc8c4747c1b5b18212f" target="_top" xlink:title="Finds the position in the KF state vector of particular states.">
<polygon fill="white" stroke="black" points="262,-76.5 262,-95.5 369,-95.5 369,-76.5 262,-76.5"/>
<text text-anchor="middle" x="315.5" y="-83.5" font-family="Helvetica,sans-Serif" font-size="10.00">KFState::getKFIndex</text>
</a>
</g>
</g>
<!-- Node5&#45;&gt;Node6 -->
<g id="edge5" class="edge">
<title>Node5&#45;&gt;Node6</title>
<path fill="none" stroke="midnightblue" d="M216.31,-86C227.49,-86 239.72,-86 251.62,-86"/>
<polygon fill="midnightblue" stroke="midnightblue" points="251.97,-89.5 261.97,-86 251.97,-82.5 251.97,-89.5"/>
</g>
<!-- Node9 -->
<g id="node9" class="node">
<title>Node9</title>
<g id="a_node9"><a xlink:href="rtkcmn_8cpp.html#a2cc54b35c2fdcc1546c2296024c643ea" target="_top" xlink:title=" ">
<polygon fill="white" stroke="black" points="278,-0.5 278,-19.5 353,-19.5 353,-0.5 278,-0.5"/>
<text text-anchor="middle" x="315.5" y="-7.5" font-family="Helvetica,sans-Serif" font-size="10.00">readblqrecord</text>
</a>
</g>
</g>
<!-- Node8&#45;&gt;Node9 -->
<g id="edge8" class="edge">
<title>Node8&#45;&gt;Node9</title>
<path fill="none" stroke="midnightblue" d="M195.21,-10C214.81,-10 243.48,-10 267.81,-10"/>
<polygon fill="midnightblue" stroke="midnightblue" points="267.93,-13.5 277.93,-10 267.93,-6.5 267.93,-13.5"/>
</g>
</g>
</svg>
