<?xml version="1.0" encoding="UTF-8" standalone="no"?>
<!DOCTYPE svg PUBLIC "-//W3C//DTD SVG 1.1//EN"
 "http://www.w3.org/Graphics/SVG/1.1/DTD/svg11.dtd">
<!-- Generated by graphviz version 2.50.0 (20220203.2022)
 -->
<!-- Title: main_time Pages: 1 -->
<svg width="311pt" height="141pt"
 viewBox="0.00 0.00 311.00 141.00" xmlns="http://www.w3.org/2000/svg" xmlns:xlink="http://www.w3.org/1999/xlink">
<g id="graph0" class="graph" transform="scale(1 1) rotate(0) translate(4 137)">
<title>main_time</title>
<polygon fill="white" stroke="transparent" points="-4,4 -4,-137 307,-137 307,4 -4,4"/>
<!-- Node1 -->
<g id="node1" class="node">
<title>Node1</title>
<g id="a_node1"><a xlink:title=" ">
<polygon fill="#bfbfbf" stroke="black" points="0,-76.5 0,-95.5 62,-95.5 62,-76.5 0,-76.5"/>
<text text-anchor="middle" x="31" y="-83.5" font-family="Helvetica,sans-Serif" font-size="10.00">main_time</text>
</a>
</g>
</g>
<!-- Node2 -->
<g id="node2" class="node">
<title>Node2</title>
<g id="a_node2"><a xlink:href="cal2jd_8for.html#af9bdf5980bab8c8324930b1a0af0175a" target="_top" xlink:title=" ">
<polygon fill="white" stroke="black" points="228.5,-113.5 228.5,-132.5 288.5,-132.5 288.5,-113.5 228.5,-113.5"/>
<text text-anchor="middle" x="258.5" y="-120.5" font-family="Helvetica,sans-Serif" font-size="10.00">iau_cal2jd</text>
</a>
</g>
</g>
<!-- Node1&#45;&gt;Node2 -->
<g id="edge1" class="edge">
<title>Node1&#45;&gt;Node2</title>
<path fill="none" stroke="midnightblue" d="M44.26,-95.72C56.89,-105.06 77.56,-118.54 98,-124 137.95,-134.68 185.57,-132.56 218.31,-128.94"/>
<polygon fill="midnightblue" stroke="midnightblue" points="218.88,-132.39 228.39,-127.72 218.05,-125.44 218.88,-132.39"/>
</g>
<!-- Node3 -->
<g id="node3" class="node">
<title>Node3</title>
<g id="a_node3"><a xlink:href="jd2cal_8for.html#a9bed91282551283d85294092fe0cc509" target="_top" xlink:title=" ">
<polygon fill="white" stroke="black" points="108,-95.5 108,-114.5 168,-114.5 168,-95.5 108,-95.5"/>
<text text-anchor="middle" x="138" y="-102.5" font-family="Helvetica,sans-Serif" font-size="10.00">iau_jd2cal</text>
</a>
</g>
</g>
<!-- Node1&#45;&gt;Node3 -->
<g id="edge2" class="edge">
<title>Node1&#45;&gt;Node3</title>
<path fill="none" stroke="midnightblue" d="M62.09,-91.44C73.24,-93.46 86.06,-95.78 97.9,-97.93"/>
<polygon fill="midnightblue" stroke="midnightblue" points="97.53,-101.41 107.99,-99.75 98.78,-94.53 97.53,-101.41"/>
</g>
<!-- Node4 -->
<g id="node4" class="node">
<title>Node4</title>
<g id="a_node4"><a xlink:href="time__cmdline_8f95.html#a776eca576954d11ec26f51e75ad29301" target="_top" xlink:title=" ">
<polygon fill="white" stroke="black" points="101,-19.5 101,-38.5 175,-38.5 175,-19.5 101,-19.5"/>
<text text-anchor="middle" x="138" y="-26.5" font-family="Helvetica,sans-Serif" font-size="10.00">time_cmdline</text>
</a>
</g>
</g>
<!-- Node1&#45;&gt;Node4 -->
<g id="edge3" class="edge">
<title>Node1&#45;&gt;Node4</title>
<path fill="none" stroke="midnightblue" d="M47.83,-76.47C61.09,-68.59 80.6,-57.23 98,-48 101.09,-46.36 104.34,-44.69 107.59,-43.06"/>
<polygon fill="midnightblue" stroke="midnightblue" points="109.21,-46.16 116.62,-38.6 106.11,-39.89 109.21,-46.16"/>
</g>
<!-- Node10 -->
<g id="node7" class="node">
<title>Node10</title>
<g id="a_node7"><a xlink:href="time__GPSweek_8f90.html#aa06fb5efbfd63360cbbfd2b3914f0885" target="_top" xlink:title=" ">
<polygon fill="white" stroke="black" points="98,-57.5 98,-76.5 178,-76.5 178,-57.5 98,-57.5"/>
<text text-anchor="middle" x="138" y="-64.5" font-family="Helvetica,sans-Serif" font-size="10.00">time_gpsweek</text>
</a>
</g>
</g>
<!-- Node1&#45;&gt;Node10 -->
<g id="edge7" class="edge">
<title>Node1&#45;&gt;Node10</title>
<path fill="none" stroke="midnightblue" d="M62.09,-80.56C70.19,-79.09 79.17,-77.46 88.01,-75.86"/>
<polygon fill="midnightblue" stroke="midnightblue" points="88.67,-79.3 97.89,-74.08 87.42,-72.41 88.67,-79.3"/>
</g>
<!-- Node5 -->
<g id="node5" class="node">
<title>Node5</title>
<g id="a_node5"><a xlink:href="namespacef90getopt.html#a2c03e2bbb786bfc0f6a825be6a5f3857" target="_top" xlink:title=" ">
<polygon fill="white" stroke="red" points="214,-38.5 214,-57.5 303,-57.5 303,-38.5 214,-38.5"/>
<text text-anchor="middle" x="258.5" y="-45.5" font-family="Helvetica,sans-Serif" font-size="10.00">f90getopt::getopt</text>
</a>
</g>
</g>
<!-- Node4&#45;&gt;Node5 -->
<g id="edge4" class="edge">
<title>Node4&#45;&gt;Node5</title>
<path fill="none" stroke="midnightblue" d="M175.2,-34.8C184.19,-36.25 194.02,-37.82 203.66,-39.37"/>
<polygon fill="midnightblue" stroke="midnightblue" points="203.16,-42.83 213.59,-40.96 204.27,-35.92 203.16,-42.83"/>
</g>
<!-- Node7 -->
<g id="node6" class="node">
<title>Node7</title>
<g id="a_node6"><a xlink:href="sinex_8cpp.html#a06fabc81a2cc41dfee260450a527ad2d" target="_top" xlink:title=" ">
<polygon fill="white" stroke="black" points="242,-0.5 242,-19.5 275,-19.5 275,-0.5 242,-0.5"/>
<text text-anchor="middle" x="258.5" y="-7.5" font-family="Helvetica,sans-Serif" font-size="10.00">trim</text>
</a>
</g>
</g>
<!-- Node4&#45;&gt;Node7 -->
<g id="edge6" class="edge">
<title>Node4&#45;&gt;Node7</title>
<path fill="none" stroke="midnightblue" d="M175.2,-23.2C193.51,-20.26 215.31,-16.77 231.86,-14.11"/>
<polygon fill="midnightblue" stroke="midnightblue" points="232.58,-17.54 241.9,-12.5 231.47,-10.63 232.58,-17.54"/>
</g>
<!-- Node5&#45;&gt;Node5 -->
<g id="edge5" class="edge">
<title>Node5&#45;&gt;Node5</title>
<path fill="none" stroke="midnightblue" d="M240,-57.76C231.01,-66.57 237.17,-76 258.5,-76 272.16,-76 279.6,-72.13 280.82,-67.03"/>
<polygon fill="midnightblue" stroke="midnightblue" points="284.05,-65.67 277,-57.76 277.57,-68.34 284.05,-65.67"/>
</g>
<!-- Node10&#45;&gt;Node2 -->
<g id="edge8" class="edge">
<title>Node10&#45;&gt;Node2</title>
<path fill="none" stroke="midnightblue" d="M159.37,-76.63C178.31,-85.58 206.73,-99.01 228.12,-109.12"/>
<polygon fill="midnightblue" stroke="midnightblue" points="226.86,-112.39 237.39,-113.5 229.85,-106.06 226.86,-112.39"/>
</g>
</g>
</svg>
