<?xml version="1.0" encoding="UTF-8" standalone="no"?>
<!DOCTYPE svg PUBLIC "-//W3C//DTD SVG 1.1//EN"
 "http://www.w3.org/Graphics/SVG/1.1/DTD/svg11.dtd">
<!-- Generated by graphviz version 2.50.0 (20220203.2022)
 -->
<!-- Title: matrix_rr Pages: 1 -->
<!--zoomable 686 -->
<svg id="main" version="1.1" xmlns="http://www.w3.org/2000/svg" xmlns:xlink="http://www.w3.org/1999/xlink" xml:space="preserve" onload="init(evt)">
<style type="text/css"><![CDATA[
.edge:hover path { stroke: red; }
.edge:hover polygon { stroke: red; fill: red; }
]]></style>
<script type="text/javascript"><![CDATA[
var edges = document.getElementsByTagName('g');
if (edges && edges.length) {
  for (var i=0;i<edges.length;i++) {
    if (edges[i].id.substr(0,4)=='edge') {
      edges[i].setAttribute('class','edge');
    }
  }
}
]]></script>
        <defs>
                <circle id="rim" cx="0" cy="0" r="7"/>
                <circle id="rim2" cx="0" cy="0" r="3.5"/>
                <g id="zoomPlus">
                        <use xlink:href="#rim" fill="#404040">
                                <set attributeName="fill" to="#808080" begin="zoomplus.mouseover" end="zoomplus.mouseout"/>
                        </use>
                        <path d="M-4,0h8M0,-4v8" fill="none" stroke="white" stroke-width="1.5" pointer-events="none"/>
                </g>
                <g id="zoomMin">
                        <use xlink:href="#rim" fill="#404040">
                                <set attributeName="fill" to="#808080" begin="zoomminus.mouseover" end="zoomminus.mouseout"/>
                        </use>
                        <path d="M-4,0h8" fill="none" stroke="white" stroke-width="1.5" pointer-events="none"/>
                </g>
                <g id="dirArrow">
                        <path fill="none" stroke="white" stroke-width="1.5" d="M0,-3.0v7 M-2.5,-0.5L0,-3.0L2.5,-0.5"/>
                </g>
               <g id="resetDef">
                       <use xlink:href="#rim2" fill="#404040">
                               <set attributeName="fill" to="#808080" begin="reset.mouseover" end="reset.mouseout"/>
                       </use>
               </g>
        </defs>

<script type="text/javascript">
var viewWidth = 645;
var viewHeight = 686;
var sectionId = 'dynsection-1';
</script>
<script xlink:href="svgpan.js"/>
<svg id="graph" class="graph">
<g id="viewport">
<title>matrix_rr</title>
<polygon fill="white" stroke="transparent" points="-4,4 -4,-682 641,-682 641,4 -4,4"/>
<!-- Node1 -->
<g id="node1" class="node">
<title>Node1</title>
<g id="a_node1"><a xlink:title=" ">
<polygon fill="#bfbfbf" stroke="black" points="583,-323.5 583,-342.5 637,-342.5 637,-323.5 583,-323.5"/>
<text text-anchor="middle" x="610" y="-330.5" font-family="Helvetica,sans-Serif" font-size="10.00">matrix_rr</text>
</a>
</g>
</g>
<!-- Node2 -->
<g id="node2" class="node">
<title>Node2</title>
<g id="a_node2"><a xlink:href="beta__interp_8f90.html#ab99d07d927a91a2fed709ef3ab6da249" target="_top" xlink:title=" ">
<polygon fill="white" stroke="black" points="454.5,-658.5 454.5,-677.5 519.5,-677.5 519.5,-658.5 454.5,-658.5"/>
<text text-anchor="middle" x="487" y="-665.5" font-family="Helvetica,sans-Serif" font-size="10.00">beta_interp</text>
</a>
</g>
</g>
<!-- Node1&#45;&gt;Node2 -->
<g id="edge1" class="edge">
<title>Node1&#45;&gt;Node2</title>
<path fill="none" stroke="midnightblue" d="M607.7,-352.78C603.24,-414.88 586.59,-604.44 547,-649 539.99,-656.88 529.71,-661.52 519.68,-664.23"/>
<polygon fill="midnightblue" stroke="midnightblue" points="611.2,-352.95 608.4,-342.74 604.22,-352.47 611.2,-352.95"/>
</g>
<!-- Node3 -->
<g id="node3" class="node">
<title>Node3</title>
<g id="a_node3"><a xlink:href="namespacem__betainfo.html#a7c2c7a1fff113613caae0cd8f91ca37d" target="_top" xlink:title=" ">
<polygon fill="white" stroke="black" points="435,-620.5 435,-639.5 539,-639.5 539,-620.5 435,-620.5"/>
<text text-anchor="middle" x="487" y="-627.5" font-family="Helvetica,sans-Serif" font-size="10.00">m_betainfo::betainfo</text>
</a>
</g>
</g>
<!-- Node1&#45;&gt;Node3 -->
<g id="edge2" class="edge">
<title>Node1&#45;&gt;Node3</title>
<path fill="none" stroke="midnightblue" d="M607.11,-352.96C601.3,-410.1 581.99,-572.63 547,-611 543.45,-614.9 539.09,-618 534.37,-620.46"/>
<polygon fill="midnightblue" stroke="midnightblue" points="610.62,-353.02 608.11,-342.73 603.65,-352.34 610.62,-353.02"/>
</g>
<!-- Node4 -->
<g id="node4" class="node">
<title>Node4</title>
<g id="a_node4"><a xlink:href="ENU_8f90.html#a7002bfac4c009044281b6b5ea21b6e9a" target="_top" xlink:title=" ">
<polygon fill="white" stroke="black" points="471,-582.5 471,-601.5 503,-601.5 503,-582.5 471,-582.5"/>
<text text-anchor="middle" x="487" y="-589.5" font-family="Helvetica,sans-Serif" font-size="10.00">enu</text>
</a>
</g>
</g>
<!-- Node1&#45;&gt;Node4 -->
<g id="edge3" class="edge">
<title>Node1&#45;&gt;Node4</title>
<path fill="none" stroke="midnightblue" d="M609.4,-352.97C609.2,-397.25 602.62,-504.74 547,-568 535.68,-580.87 516.44,-586.96 503.02,-589.75"/>
<polygon fill="midnightblue" stroke="midnightblue" points="612.9,-352.89 609.33,-342.91 605.9,-352.93 612.9,-352.89"/>
</g>
<!-- Node16 -->
<g id="node8" class="node">
<title>Node16</title>
<g id="a_node8"><a xlink:href="force__srp_8f90.html#ac60c56aaaf5a6f7118c763fe46ce8373" target="_top" xlink:title=" ">
<polygon fill="white" stroke="black" points="458.5,-468.5 458.5,-487.5 515.5,-487.5 515.5,-468.5 458.5,-468.5"/>
<text text-anchor="middle" x="487" y="-475.5" font-family="Helvetica,sans-Serif" font-size="10.00">force_srp</text>
</a>
</g>
</g>
<!-- Node1&#45;&gt;Node16 -->
<g id="edge7" class="edge">
<title>Node1&#45;&gt;Node16</title>
<path fill="none" stroke="midnightblue" d="M604.44,-352.87C597.07,-380.56 579.92,-430.56 547,-459 538.21,-466.6 526.33,-471.17 515.54,-473.91"/>
<polygon fill="midnightblue" stroke="midnightblue" points="607.92,-353.35 606.94,-342.81 601.13,-351.66 607.92,-353.35"/>
</g>
<!-- Node17 -->
<g id="node9" class="node">
<title>Node17</title>
<g id="a_node9"><a xlink:href="force__sum_8f95.html#a757e2ccbe362bf3b01a51e2c0431a490" target="_top" xlink:title=" ">
<polygon fill="white" stroke="red" points="302,-506.5 302,-525.5 364,-525.5 364,-506.5 302,-506.5"/>
<text text-anchor="middle" x="333" y="-513.5" font-family="Helvetica,sans-Serif" font-size="10.00">force_sum</text>
</a>
</g>
</g>
<!-- Node1&#45;&gt;Node17 -->
<g id="edge11" class="edge">
<title>Node1&#45;&gt;Node17</title>
<path fill="none" stroke="midnightblue" d="M609.11,-352.74C608.14,-391.49 599.78,-477.03 547,-515 492.21,-554.41 407.29,-538.14 363.04,-525.55"/>
<polygon fill="midnightblue" stroke="midnightblue" points="612.61,-352.76 609.22,-342.72 605.61,-352.68 612.61,-352.76"/>
</g>
<!-- Node26 -->
<g id="node10" class="node">
<title>Node26</title>
<g id="a_node10"><a xlink:href="namespacem__pd__force.html#a942ea044856d62ee03ee7623436bc97e" target="_top" xlink:title=" ">
<polygon fill="white" stroke="red" points="278,-402.5 278,-421.5 388,-421.5 388,-402.5 278,-402.5"/>
<text text-anchor="middle" x="333" y="-409.5" font-family="Helvetica,sans-Serif" font-size="10.00">m_pd_force::pd_force</text>
</a>
</g>
</g>
<!-- Node1&#45;&gt;Node26 -->
<g id="edge36" class="edge">
<title>Node1&#45;&gt;Node26</title>
<path fill="none" stroke="midnightblue" d="M587.93,-348.55C576.38,-356.38 561.49,-365.38 547,-371 495.21,-391.09 432.39,-401.64 388.44,-406.97"/>
<polygon fill="midnightblue" stroke="midnightblue" points="590.23,-351.21 596.41,-342.6 586.22,-345.48 590.23,-351.21"/>
</g>
<!-- Node29 -->
<g id="node11" class="node">
<title>Node29</title>
<g id="a_node11"><a xlink:href="pd__forceZ_8f95.html#abdd0ae4a7eb5f80ef45608c877df1a5e" target="_top" xlink:title=" ">
<polygon fill="white" stroke="black" points="303.5,-468.5 303.5,-487.5 362.5,-487.5 362.5,-468.5 303.5,-468.5"/>
<text text-anchor="middle" x="333" y="-475.5" font-family="Helvetica,sans-Serif" font-size="10.00">pd_forcez</text>
</a>
</g>
</g>
<!-- Node1&#45;&gt;Node29 -->
<g id="edge37" class="edge">
<title>Node1&#45;&gt;Node29</title>
<path fill="none" stroke="midnightblue" d="M608.3,-352.79C605.84,-388.69 594.9,-463.9 547,-497 517.83,-517.16 413.62,-496.66 362.58,-484.95"/>
<polygon fill="midnightblue" stroke="midnightblue" points="611.81,-352.79 608.84,-342.62 604.82,-352.42 611.81,-352.79"/>
</g>
<!-- Node30 -->
<g id="node12" class="node">
<title>Node30</title>
<g id="a_node12"><a xlink:href="kepler__k2z_8f90.html#ab1518df85771df7a48fecf1d1b9f1b34" target="_top" xlink:title=" ">
<polygon fill="white" stroke="black" points="455.5,-266.5 455.5,-285.5 518.5,-285.5 518.5,-266.5 455.5,-266.5"/>
<text text-anchor="middle" x="487" y="-273.5" font-family="Helvetica,sans-Serif" font-size="10.00">kepler_k2z</text>
</a>
</g>
</g>
<!-- Node1&#45;&gt;Node30 -->
<g id="edge12" class="edge">
<title>Node1&#45;&gt;Node30</title>
<path fill="none" stroke="midnightblue" d="M586.74,-317.56C575.23,-310.06 560.76,-301.32 547,-295 538,-290.87 527.85,-287.25 518.54,-284.31"/>
<polygon fill="midnightblue" stroke="midnightblue" points="584.99,-320.61 595.25,-323.25 588.88,-314.79 584.99,-320.61"/>
</g>
<!-- Node44 -->
<g id="node18" class="node">
<title>Node44</title>
<g id="a_node18"><a xlink:href="prm__main_8f95.html#a5278832d0474755edea23de7a540f359" target="_top" xlink:title=" ">
<polygon fill="white" stroke="red" points="303.5,-228.5 303.5,-247.5 362.5,-247.5 362.5,-228.5 303.5,-228.5"/>
<text text-anchor="middle" x="333" y="-235.5" font-family="Helvetica,sans-Serif" font-size="10.00">prm_main</text>
</a>
</g>
</g>
<!-- Node1&#45;&gt;Node44 -->
<g id="edge41" class="edge">
<title>Node1&#45;&gt;Node44</title>
<path fill="none" stroke="midnightblue" d="M599.6,-314.45C589.34,-296.37 571.12,-269.79 547,-257 487.64,-225.51 405.74,-229.05 362.85,-233.83"/>
<polygon fill="midnightblue" stroke="midnightblue" points="596.64,-316.33 604.46,-323.47 602.8,-313.01 596.64,-316.33"/>
</g>
<!-- Node48 -->
<g id="node21" class="node">
<title>Node48</title>
<g id="a_node21"><a xlink:href="main__brdcorbit_8f90.html#a34cbfb6f2004478de868a894a67a8b30" target="_top" xlink:title=" ">
<polygon fill="white" stroke="black" points="447,-304.5 447,-323.5 527,-323.5 527,-304.5 447,-304.5"/>
<text text-anchor="middle" x="487" y="-311.5" font-family="Helvetica,sans-Serif" font-size="10.00">main_brdcorbit</text>
</a>
</g>
</g>
<!-- Node1&#45;&gt;Node48 -->
<g id="edge21" class="edge">
<title>Node1&#45;&gt;Node48</title>
<path fill="none" stroke="midnightblue" d="M572.71,-327.3C558.32,-325.04 541.74,-322.44 527.08,-320.14"/>
<polygon fill="midnightblue" stroke="midnightblue" points="572.32,-330.78 582.74,-328.88 573.41,-323.87 572.32,-330.78"/>
</g>
<!-- Node49 -->
<g id="node22" class="node">
<title>Node49</title>
<g id="a_node22"><a xlink:href="namespacem__obsorbt2c.html#a23877ecd7325dd1180eb315c14d3a6a6" target="_top" xlink:title=" ">
<polygon fill="white" stroke="black" points="427,-114.5 427,-133.5 547,-133.5 547,-114.5 427,-114.5"/>
<text text-anchor="middle" x="487" y="-121.5" font-family="Helvetica,sans-Serif" font-size="10.00">m_obsorbt2c::obsorbt2c</text>
</a>
</g>
</g>
<!-- Node1&#45;&gt;Node49 -->
<g id="edge22" class="edge">
<title>Node1&#45;&gt;Node49</title>
<path fill="none" stroke="midnightblue" d="M608.2,-312.75C605.59,-274.28 594.45,-190.27 547,-143 543.11,-139.13 538.43,-136.04 533.43,-133.59"/>
<polygon fill="midnightblue" stroke="midnightblue" points="604.73,-313.34 608.77,-323.13 611.72,-312.96 604.73,-313.34"/>
</g>
<!-- Node51 -->
<g id="node24" class="node">
<title>Node51</title>
<g id="a_node24"><a xlink:href="namespacem__orbc2t.html#a199ab2f2c024cd6d18cf08f6580013a0" target="_top" xlink:title=" ">
<polygon fill="white" stroke="black" points="288.5,-190.5 288.5,-209.5 377.5,-209.5 377.5,-190.5 288.5,-190.5"/>
<text text-anchor="middle" x="333" y="-197.5" font-family="Helvetica,sans-Serif" font-size="10.00">m_orbc2t::orbc2t</text>
</a>
</g>
</g>
<!-- Node1&#45;&gt;Node51 -->
<g id="edge25" class="edge">
<title>Node1&#45;&gt;Node51</title>
<path fill="none" stroke="midnightblue" d="M603.62,-313.53C595.66,-288.72 578.21,-246.61 547,-226 496.33,-192.54 423.83,-191.15 377.84,-194.55"/>
<polygon fill="midnightblue" stroke="midnightblue" points="600.32,-314.7 606.54,-323.28 607.02,-312.69 600.32,-314.7"/>
</g>
<!-- Node52 -->
<g id="node25" class="node">
<title>Node52</title>
<g id="a_node25"><a xlink:href="namespacem__orbinfo.html#a7e90574cb9078c6ff14c6104446ee24a" target="_top" xlink:title=" ">
<polygon fill="white" stroke="black" points="440.5,-0.5 440.5,-19.5 533.5,-19.5 533.5,-0.5 440.5,-0.5"/>
<text text-anchor="middle" x="487" y="-7.5" font-family="Helvetica,sans-Serif" font-size="10.00">m_orbinfo::orbinfo</text>
</a>
</g>
</g>
<!-- Node1&#45;&gt;Node52 -->
<g id="edge28" class="edge">
<title>Node1&#45;&gt;Node52</title>
<path fill="none" stroke="midnightblue" d="M607.31,-313.24C601.85,-253.64 582.94,-77.15 547,-34 541.76,-27.71 534.62,-23.05 527.12,-19.61"/>
<polygon fill="midnightblue" stroke="midnightblue" points="603.83,-313.58 608.2,-323.23 610.8,-312.96 603.83,-313.58"/>
</g>
<!-- Node53 -->
<g id="node26" class="node">
<title>Node53</title>
<g id="a_node26"><a xlink:href="namespacem__statorbit2.html#a6ba60e4ad1e25a33b4f2f9607374ea58" target="_top" xlink:title=" ">
<polygon fill="white" stroke="black" points="275,-38.5 275,-57.5 391,-57.5 391,-38.5 275,-38.5"/>
<text text-anchor="middle" x="333" y="-45.5" font-family="Helvetica,sans-Serif" font-size="10.00">m_statorbit2::statorbit2</text>
</a>
</g>
</g>
<!-- Node1&#45;&gt;Node53 -->
<g id="edge45" class="edge">
<title>Node1&#45;&gt;Node53</title>
<path fill="none" stroke="midnightblue" d="M607.19,-313.2C601.72,-257.99 583.45,-104.29 547,-72 503.68,-33.63 434.4,-33.02 386.68,-38.45"/>
<polygon fill="midnightblue" stroke="midnightblue" points="603.73,-313.78 608.17,-323.41 610.7,-313.12 603.73,-313.78"/>
</g>
<!-- Node54 -->
<g id="node27" class="node">
<title>Node54</title>
<g id="a_node27"><a xlink:href="namespacem__orbt2c.html#a876ee97d4b7569bf142ff8abf3512555" target="_top" xlink:title=" ">
<polygon fill="white" stroke="black" points="442.5,-152.5 442.5,-171.5 531.5,-171.5 531.5,-152.5 442.5,-152.5"/>
<text text-anchor="middle" x="487" y="-159.5" font-family="Helvetica,sans-Serif" font-size="10.00">m_orbt2c::orbt2c</text>
</a>
</g>
</g>
<!-- Node1&#45;&gt;Node54 -->
<g id="edge31" class="edge">
<title>Node1&#45;&gt;Node54</title>
<path fill="none" stroke="midnightblue" d="M605.69,-313.34C599.49,-282.32 583.34,-221.88 547,-186 540.7,-179.78 532.58,-175.11 524.39,-171.62"/>
<polygon fill="midnightblue" stroke="midnightblue" points="602.28,-314.14 607.54,-323.33 609.16,-312.86 602.28,-314.14"/>
</g>
<!-- Node55 -->
<g id="node28" class="node">
<title>Node55</title>
<g id="a_node28"><a xlink:href="namespacem__pd__ecom.html#a6566481abfae9e375586538e1de35f42" target="_top" xlink:title=" ">
<polygon fill="white" stroke="black" points="430,-342.5 430,-361.5 544,-361.5 544,-342.5 430,-342.5"/>
<text text-anchor="middle" x="487" y="-349.5" font-family="Helvetica,sans-Serif" font-size="10.00">m_pd_ecom::pd_ecom</text>
</a>
</g>
</g>
<!-- Node1&#45;&gt;Node55 -->
<g id="edge34" class="edge">
<title>Node1&#45;&gt;Node55</title>
<path fill="none" stroke="midnightblue" d="M572.61,-338.71C563.6,-340.13 553.73,-341.68 544.01,-343.2"/>
<polygon fill="midnightblue" stroke="midnightblue" points="573.41,-342.13 582.74,-337.12 572.32,-335.22 573.41,-342.13"/>
</g>
<!-- Node56 -->
<g id="node29" class="node">
<title>Node56</title>
<g id="a_node29"><a xlink:href="namespacem__pd__geopotential.html#a348c4f09b044b8253b29d7738b6635f8" target="_top" xlink:title=" ">
<polygon fill="white" stroke="black" points="435.5,-419 435.5,-449 538.5,-449 538.5,-419 435.5,-419"/>
<text text-anchor="start" x="443.5" y="-437" font-family="Helvetica,sans-Serif" font-size="10.00">m_pd_geopotential::</text>
<text text-anchor="middle" x="487" y="-426" font-family="Helvetica,sans-Serif" font-size="10.00">pd_geopotential</text>
</a>
</g>
</g>
<!-- Node1&#45;&gt;Node56 -->
<g id="edge38" class="edge">
<title>Node1&#45;&gt;Node56</title>
<path fill="none" stroke="midnightblue" d="M596.37,-351.02C584.84,-366.51 566.64,-388.7 547,-404 539.75,-409.65 531.27,-414.7 523.03,-418.97"/>
<polygon fill="midnightblue" stroke="midnightblue" points="599.3,-352.93 602.34,-342.78 593.64,-348.82 599.3,-352.93"/>
</g>
<!-- Node57 -->
<g id="node30" class="node">
<title>Node57</title>
<g id="a_node30"><a xlink:href="namespacem__statorbit.html#a56a49355e7e28cab9185c86483b3e452" target="_top" xlink:title=" ">
<polygon fill="white" stroke="black" points="134,-85.5 134,-104.5 239,-104.5 239,-85.5 134,-85.5"/>
<text text-anchor="middle" x="186.5" y="-92.5" font-family="Helvetica,sans-Serif" font-size="10.00">m_statorbit::statorbit</text>
</a>
</g>
</g>
<!-- Node1&#45;&gt;Node57 -->
<g id="edge42" class="edge">
<title>Node1&#45;&gt;Node57</title>
<path fill="none" stroke="midnightblue" d="M606.62,-313.26C600.11,-262.78 580.2,-131.12 547,-105 500.69,-68.57 327.24,-80.42 239.3,-89.17"/>
<polygon fill="midnightblue" stroke="midnightblue" points="603.19,-314 607.9,-323.49 610.14,-313.14 603.19,-314"/>
</g>
<!-- Node5 -->
<g id="node5" class="node">
<title>Node5</title>
<g id="a_node5"><a xlink:href="pwindup_8f90.html#ad1ced3b57675985929fee176d726a017" target="_top" xlink:title=" ">
<polygon fill="white" stroke="black" points="306.5,-620.5 306.5,-639.5 359.5,-639.5 359.5,-620.5 306.5,-620.5"/>
<text text-anchor="middle" x="333" y="-627.5" font-family="Helvetica,sans-Serif" font-size="10.00">pwindup</text>
</a>
</g>
</g>
<!-- Node4&#45;&gt;Node5 -->
<g id="edge4" class="edge">
<title>Node4&#45;&gt;Node5</title>
<path fill="none" stroke="midnightblue" d="M461.06,-598.24C433.07,-605.23 387.91,-616.52 359.64,-623.59"/>
<polygon fill="midnightblue" stroke="midnightblue" points="462.02,-601.6 470.87,-595.78 460.32,-594.81 462.02,-601.6"/>
</g>
<!-- Node6 -->
<g id="node6" class="node">
<title>Node6</title>
<g id="a_node6"><a xlink:href="antenna_8cpp.html#aff7a335ce5ded810bf8b9e9a186099a4" target="_top" xlink:title="Read antex file.">
<polygon fill="white" stroke="red" points="302,-582.5 302,-601.5 364,-601.5 364,-582.5 302,-582.5"/>
<text text-anchor="middle" x="333" y="-589.5" font-family="Helvetica,sans-Serif" font-size="10.00">readantexf</text>
</a>
</g>
</g>
<!-- Node4&#45;&gt;Node6 -->
<g id="edge5" class="edge">
<title>Node4&#45;&gt;Node6</title>
<path fill="none" stroke="midnightblue" d="M460.85,-592C434.31,-592 392.5,-592 364.19,-592"/>
<polygon fill="midnightblue" stroke="midnightblue" points="460.87,-595.5 470.87,-592 460.87,-588.5 460.87,-595.5"/>
</g>
<!-- Node9 -->
<g id="node7" class="node">
<title>Node9</title>
<g id="a_node7"><a xlink:href="rtkcmn_8cpp.html#a4ec5c9d8effd9f823bfe6f9e12e7583f" target="_top" xlink:title=" ">
<polygon fill="white" stroke="red" points="309.5,-544.5 309.5,-563.5 356.5,-563.5 356.5,-544.5 309.5,-544.5"/>
<text text-anchor="middle" x="333" y="-551.5" font-family="Helvetica,sans-Serif" font-size="10.00">satazel</text>
</a>
</g>
</g>
<!-- Node4&#45;&gt;Node9 -->
<g id="edge6" class="edge">
<title>Node4&#45;&gt;Node9</title>
<path fill="none" stroke="midnightblue" d="M461.1,-585.77C432.11,-578.53 384.66,-566.66 356.67,-559.67"/>
<polygon fill="midnightblue" stroke="midnightblue" points="460.32,-589.19 470.87,-588.22 462.02,-582.4 460.32,-589.19"/>
</g>
<!-- Node16&#45;&gt;Node17 -->
<g id="edge8" class="edge">
<title>Node16&#45;&gt;Node17</title>
<path fill="none" stroke="midnightblue" d="M448.6,-487.35C422.62,-493.85 388.44,-502.39 364.19,-508.45"/>
<polygon fill="midnightblue" stroke="midnightblue" points="449.62,-490.7 458.47,-484.88 447.92,-483.91 449.62,-490.7"/>
</g>
<!-- Node16&#45;&gt;Node26 -->
<g id="edge9" class="edge">
<title>Node16&#45;&gt;Node26</title>
<path fill="none" stroke="midnightblue" d="M448.68,-466.96C441.41,-464.54 433.91,-461.84 427,-459 399.72,-447.8 369.48,-431.81 351.1,-421.67"/>
<polygon fill="midnightblue" stroke="midnightblue" points="447.77,-470.34 458.36,-470.08 449.92,-463.68 447.77,-470.34"/>
</g>
<!-- Node16&#45;&gt;Node29 -->
<g id="edge10" class="edge">
<title>Node16&#45;&gt;Node29</title>
<path fill="none" stroke="midnightblue" d="M448.4,-478C421.87,-478 386.88,-478 362.61,-478"/>
<polygon fill="midnightblue" stroke="midnightblue" points="448.47,-481.5 458.47,-478 448.47,-474.5 448.47,-481.5"/>
</g>
<!-- Node31 -->
<g id="node13" class="node">
<title>Node31</title>
<g id="a_node13"><a xlink:href="beta__pred_8f90.html#a9230794c3d919d2bcd20c96901c31e3c" target="_top" xlink:title=" ">
<polygon fill="white" stroke="red" points="303.5,-342.5 303.5,-361.5 362.5,-361.5 362.5,-342.5 303.5,-342.5"/>
<text text-anchor="middle" x="333" y="-349.5" font-family="Helvetica,sans-Serif" font-size="10.00">beta_pred</text>
</a>
</g>
</g>
<!-- Node30&#45;&gt;Node31 -->
<g id="edge13" class="edge">
<title>Node30&#45;&gt;Node31</title>
<path fill="none" stroke="midnightblue" d="M445.79,-285.94C439.26,-288.39 432.75,-291.38 427,-295 407.31,-307.4 410.62,-320.5 391,-333 382.47,-338.44 372.22,-342.48 362.77,-345.41"/>
<polygon fill="midnightblue" stroke="midnightblue" points="446.95,-289.24 455.31,-282.72 444.71,-282.61 446.95,-289.24"/>
</g>
<!-- Node40 -->
<g id="node14" class="node">
<title>Node40</title>
<g id="a_node14"><a xlink:href="namespacem__keplerorb.html#a02c25cf4c2ea19e9295785bf281b39f4" target="_top" xlink:title=" ">
<polygon fill="white" stroke="black" points="276,-266.5 276,-285.5 390,-285.5 390,-266.5 276,-266.5"/>
<text text-anchor="middle" x="333" y="-273.5" font-family="Helvetica,sans-Serif" font-size="10.00">m_keplerorb::keplerorb</text>
</a>
</g>
</g>
<!-- Node30&#45;&gt;Node40 -->
<g id="edge14" class="edge">
<title>Node30&#45;&gt;Node40</title>
<path fill="none" stroke="midnightblue" d="M445.16,-276C428.28,-276 408.44,-276 390.23,-276"/>
<polygon fill="midnightblue" stroke="midnightblue" points="445.24,-279.5 455.24,-276 445.24,-272.5 445.24,-279.5"/>
</g>
<!-- Node30&#45;&gt;Node44 -->
<g id="edge18" class="edge">
<title>Node30&#45;&gt;Node44</title>
<path fill="none" stroke="midnightblue" d="M445.27,-265.82C419.19,-259.3 385.98,-250.99 362.66,-245.16"/>
<polygon fill="midnightblue" stroke="midnightblue" points="444.69,-269.28 455.24,-268.31 446.39,-262.49 444.69,-269.28"/>
</g>
<!-- Node46 -->
<g id="node20" class="node">
<title>Node46</title>
<g id="a_node20"><a xlink:href="yaw__pred_8f95.html#a7a64b9ed25e02702f50c28ba82422963" target="_top" xlink:title=" ">
<polygon fill="white" stroke="red" points="304,-304.5 304,-323.5 362,-323.5 362,-304.5 304,-304.5"/>
<text text-anchor="middle" x="333" y="-311.5" font-family="Helvetica,sans-Serif" font-size="10.00">yaw_pred</text>
</a>
</g>
</g>
<!-- Node30&#45;&gt;Node46 -->
<g id="edge20" class="edge">
<title>Node30&#45;&gt;Node46</title>
<path fill="none" stroke="midnightblue" d="M445.2,-286.2C418.94,-292.77 385.48,-301.13 362.15,-306.96"/>
<polygon fill="midnightblue" stroke="midnightblue" points="446.39,-289.51 455.24,-283.69 444.69,-282.72 446.39,-289.51"/>
</g>
<!-- Node41 -->
<g id="node15" class="node">
<title>Node41</title>
<g id="a_node15"><a xlink:href="prm__orbext_8f95.html#a22ef50da05110c9316a9e9a935fe47a2" target="_top" xlink:title=" ">
<polygon fill="white" stroke="black" points="154,-171.5 154,-190.5 219,-190.5 219,-171.5 154,-171.5"/>
<text text-anchor="middle" x="186.5" y="-178.5" font-family="Helvetica,sans-Serif" font-size="10.00">prm_orbext</text>
</a>
</g>
</g>
<!-- Node40&#45;&gt;Node41 -->
<g id="edge15" class="edge">
<title>Node40&#45;&gt;Node41</title>
<path fill="none" stroke="midnightblue" d="M286.63,-262.73C282.6,-261 278.67,-259.09 275,-257 242.32,-238.35 210.69,-206.4 196.02,-190.52"/>
<polygon fill="midnightblue" stroke="midnightblue" points="285.51,-266.05 296.1,-266.43 288.06,-259.53 285.51,-266.05"/>
</g>
<!-- Node42 -->
<g id="node16" class="node">
<title>Node42</title>
<g id="a_node16"><a xlink:href="namespacem__orbext.html#a5d9ae5d81af99b9d31eee5b6ec19d51f" target="_top" xlink:title=" ">
<polygon fill="white" stroke="red" points="5.5,-85.5 5.5,-104.5 92.5,-104.5 92.5,-85.5 5.5,-85.5"/>
<text text-anchor="middle" x="49" y="-92.5" font-family="Helvetica,sans-Serif" font-size="10.00">m_orbext::orbext</text>
</a>
</g>
</g>
<!-- Node41&#45;&gt;Node42 -->
<g id="edge16" class="edge">
<title>Node41&#45;&gt;Node42</title>
<path fill="none" stroke="midnightblue" d="M145.04,-167.5C141.23,-165.81 137.5,-163.97 134,-162 104.75,-145.51 75.1,-119.09 60.08,-104.85"/>
<polygon fill="midnightblue" stroke="midnightblue" points="143.97,-170.84 154.55,-171.41 146.63,-164.37 143.97,-170.84"/>
</g>
<!-- Node43 -->
<g id="node17" class="node">
<title>Node43</title>
<g id="a_node17"><a xlink:href="namespacem__orbext2.html#a8edc32bdc671004ee3dcaa85b4f1f176" target="_top" xlink:title=" ">
<polygon fill="white" stroke="red" points="0,-151.5 0,-170.5 98,-170.5 98,-151.5 0,-151.5"/>
<text text-anchor="middle" x="49" y="-158.5" font-family="Helvetica,sans-Serif" font-size="10.00">m_orbext2::orbext2</text>
</a>
</g>
</g>
<!-- Node41&#45;&gt;Node43 -->
<g id="edge17" class="edge">
<title>Node41&#45;&gt;Node43</title>
<path fill="none" stroke="midnightblue" d="M143.6,-174.82C129.17,-172.69 112.9,-170.28 98.03,-168.09"/>
<polygon fill="midnightblue" stroke="midnightblue" points="143.33,-178.31 153.73,-176.31 144.35,-171.39 143.33,-178.31"/>
</g>
<!-- Node21 -->
<g id="node19" class="node">
<title>Node21</title>
<g id="a_node19"><a xlink:href="namespacem__orbdet.html#a49487178b457ba359e3528454fee1a43" target="_top" xlink:title=" ">
<polygon fill="white" stroke="red" points="142,-133.5 142,-152.5 231,-152.5 231,-133.5 142,-133.5"/>
<text text-anchor="middle" x="186.5" y="-140.5" font-family="Helvetica,sans-Serif" font-size="10.00">m_orbdet::orbdet</text>
</a>
</g>
</g>
<!-- Node44&#45;&gt;Node21 -->
<g id="edge19" class="edge">
<title>Node44&#45;&gt;Node21</title>
<path fill="none" stroke="midnightblue" d="M293.72,-229.29C287.06,-226.68 280.52,-223.32 275,-219 251.41,-200.52 262.29,-180.85 239,-162 234.26,-158.16 228.67,-155.06 222.95,-152.56"/>
<polygon fill="midnightblue" stroke="midnightblue" points="292.85,-232.69 303.44,-232.6 295.1,-226.07 292.85,-232.69"/>
</g>
<!-- Node50 -->
<g id="node23" class="node">
<title>Node50</title>
<g id="a_node23"><a xlink:href="prm__pseudobs_8f95.html#a9102cbfe661c31c134e733af690febc2" target="_top" xlink:title=" ">
<polygon fill="white" stroke="red" points="293,-114.5 293,-133.5 373,-133.5 373,-114.5 293,-114.5"/>
<text text-anchor="middle" x="333" y="-121.5" font-family="Helvetica,sans-Serif" font-size="10.00">prm_pseudobs</text>
</a>
</g>
</g>
<!-- Node49&#45;&gt;Node50 -->
<g id="edge23" class="edge">
<title>Node49&#45;&gt;Node50</title>
<path fill="none" stroke="midnightblue" d="M416.56,-124C401.65,-124 386.4,-124 373.13,-124"/>
<polygon fill="midnightblue" stroke="midnightblue" points="416.8,-127.5 426.8,-124 416.8,-120.5 416.8,-127.5"/>
</g>
<!-- Node50&#45;&gt;Node21 -->
<g id="edge24" class="edge">
<title>Node50&#45;&gt;Node21</title>
<path fill="none" stroke="midnightblue" d="M282.76,-130.47C266.04,-132.67 247.48,-135.11 231.22,-137.25"/>
<polygon fill="midnightblue" stroke="midnightblue" points="283.44,-133.92 292.9,-129.14 282.53,-126.98 283.44,-133.92"/>
</g>
<!-- Node51&#45;&gt;Node41 -->
<g id="edge27" class="edge">
<title>Node51&#45;&gt;Node41</title>
<path fill="none" stroke="midnightblue" d="M278.09,-192.91C258.24,-190.3 236.42,-187.43 219.17,-185.16"/>
<polygon fill="midnightblue" stroke="midnightblue" points="277.88,-196.41 288.25,-194.25 278.79,-189.47 277.88,-196.41"/>
</g>
<!-- Node51&#45;&gt;Node21 -->
<g id="edge26" class="edge">
<title>Node51&#45;&gt;Node21</title>
<path fill="none" stroke="midnightblue" d="M299.78,-186.51C281.93,-179.12 259.3,-169.89 239,-162 230.92,-158.86 222.07,-155.55 214.03,-152.59"/>
<polygon fill="midnightblue" stroke="midnightblue" points="298.58,-189.81 309.16,-190.41 301.26,-183.34 298.58,-189.81"/>
</g>
<!-- Node52&#45;&gt;Node53 -->
<g id="edge29" class="edge">
<title>Node52&#45;&gt;Node53</title>
<path fill="none" stroke="midnightblue" d="M437.84,-22.04C416.6,-27.35 392,-33.5 372.08,-38.48"/>
<polygon fill="midnightblue" stroke="midnightblue" points="438.79,-25.41 447.64,-19.59 437.09,-18.62 438.79,-25.41"/>
</g>
<!-- Node53&#45;&gt;Node42 -->
<g id="edge30" class="edge">
<title>Node53&#45;&gt;Node42</title>
<path fill="none" stroke="midnightblue" d="M264.58,-56.14C226.19,-61.12 177.26,-68.06 134,-76 119.29,-78.7 103.26,-82.19 89.18,-85.44"/>
<polygon fill="midnightblue" stroke="midnightblue" points="265.14,-59.6 274.61,-54.85 264.25,-52.65 265.14,-59.6"/>
</g>
<!-- Node54&#45;&gt;Node41 -->
<g id="edge32" class="edge">
<title>Node54&#45;&gt;Node41</title>
<path fill="none" stroke="midnightblue" d="M432.29,-165.42C370.26,-169.37 270.27,-175.73 219.42,-178.97"/>
<polygon fill="midnightblue" stroke="midnightblue" points="432.52,-168.91 442.28,-164.78 432.07,-161.93 432.52,-168.91"/>
</g>
<!-- Node54&#45;&gt;Node50 -->
<g id="edge33" class="edge">
<title>Node54&#45;&gt;Node50</title>
<path fill="none" stroke="midnightblue" d="M437.84,-149.96C416.6,-144.65 392,-138.5 372.08,-133.52"/>
<polygon fill="midnightblue" stroke="midnightblue" points="437.09,-153.38 447.64,-152.41 438.79,-146.59 437.09,-153.38"/>
</g>
<!-- Node55&#45;&gt;Node26 -->
<g id="edge35" class="edge">
<title>Node55&#45;&gt;Node26</title>
<path fill="none" stroke="midnightblue" d="M452.36,-365.28C423.85,-376.53 383.66,-392.4 358.22,-402.44"/>
<polygon fill="midnightblue" stroke="midnightblue" points="453.9,-368.43 461.92,-361.51 451.33,-361.92 453.9,-368.43"/>
</g>
<!-- Node56&#45;&gt;Node26 -->
<g id="edge39" class="edge">
<title>Node56&#45;&gt;Node26</title>
<path fill="none" stroke="midnightblue" d="M425.22,-425.2C412.93,-423.42 400.09,-421.56 388.04,-419.82"/>
<polygon fill="midnightblue" stroke="midnightblue" points="424.99,-428.71 435.39,-426.67 425.99,-421.78 424.99,-428.71"/>
</g>
<!-- Node56&#45;&gt;Node29 -->
<g id="edge40" class="edge">
<title>Node56&#45;&gt;Node29</title>
<path fill="none" stroke="midnightblue" d="M425.57,-451.49C403.89,-457.77 380.43,-464.56 362.69,-469.69"/>
<polygon fill="midnightblue" stroke="midnightblue" points="426.75,-454.79 435.39,-448.65 424.81,-448.07 426.75,-454.79"/>
</g>
<!-- Node57&#45;&gt;Node42 -->
<g id="edge43" class="edge">
<title>Node57&#45;&gt;Node42</title>
<path fill="none" stroke="midnightblue" d="M123.87,-95C113.32,-95 102.57,-95 92.66,-95"/>
<polygon fill="midnightblue" stroke="midnightblue" points="123.89,-98.5 133.89,-95 123.89,-91.5 123.89,-98.5"/>
</g>
<!-- Node57&#45;&gt;Node43 -->
<g id="edge44" class="edge">
<title>Node57&#45;&gt;Node43</title>
<path fill="none" stroke="midnightblue" d="M156.74,-109.01C130.56,-121.76 92.62,-140.24 69.73,-151.39"/>
<polygon fill="midnightblue" stroke="midnightblue" points="158.34,-112.12 165.8,-104.6 155.27,-105.83 158.34,-112.12"/>
</g>
</g>
</svg>
        <g id="navigator" transform="translate(0 0)" fill="#404254">
                <rect fill="#f2f5e9" fill-opacity="0.5" stroke="#606060" stroke-width=".5" x="0" y="0" width="60" height="60"/>
                <use id="zoomplus" xlink:href="#zoomPlus" x="17" y="9" onmousedown="handleZoom(evt,'in')"/>
                <use id="zoomminus" xlink:href="#zoomMin" x="42" y="9" onmousedown="handleZoom(evt,'out')"/>
                <use id="reset" xlink:href="#resetDef" x="30" y="36" onmousedown="handleReset()"/>
                <g id="arrowUp" xlink:href="#dirArrow" transform="translate(30 24)" onmousedown="handlePan(0,-1)">
                  <use xlink:href="#rim" fill="#404040">
                        <set attributeName="fill" to="#808080" begin="arrowUp.mouseover" end="arrowUp.mouseout"/>
                  </use>
                  <path fill="none" stroke="white" stroke-width="1.5" d="M0,-3.0v7 M-2.5,-0.5L0,-3.0L2.5,-0.5"/>
                </g>
                <g id="arrowRight" xlink:href="#dirArrow" transform="rotate(90) translate(36 -43)" onmousedown="handlePan(1,0)">
                  <use xlink:href="#rim" fill="#404040">
                        <set attributeName="fill" to="#808080" begin="arrowRight.mouseover" end="arrowRight.mouseout"/>
                  </use>
                  <path fill="none" stroke="white" stroke-width="1.5" d="M0,-3.0v7 M-2.5,-0.5L0,-3.0L2.5,-0.5"/>
                </g>
                <g id="arrowDown" xlink:href="#dirArrow" transform="rotate(180) translate(-30 -48)" onmousedown="handlePan(0,1)">
                  <use xlink:href="#rim" fill="#404040">
                        <set attributeName="fill" to="#808080" begin="arrowDown.mouseover" end="arrowDown.mouseout"/>
                  </use>
                  <path fill="none" stroke="white" stroke-width="1.5" d="M0,-3.0v7 M-2.5,-0.5L0,-3.0L2.5,-0.5"/>
                </g>
                <g id="arrowLeft" xlink:href="#dirArrow" transform="rotate(270) translate(-36 17)" onmousedown="handlePan(-1,0)">
                  <use xlink:href="#rim" fill="#404040">
                        <set attributeName="fill" to="#808080" begin="arrowLeft.mouseover" end="arrowLeft.mouseout"/>
                  </use>
                  <path fill="none" stroke="white" stroke-width="1.5" d="M0,-3.0v7 M-2.5,-0.5L0,-3.0L2.5,-0.5"/>
                </g>
        </g>
        <svg viewBox="0 0 15 15" width="100%" height="30px" preserveAspectRatio="xMaxYMin meet">
         <g id="arrow_out" transform="scale(0.3 0.3)">
          <a xlink:href="matrix__Rr_8f90_ac8734d74fb7ada7605575d3b9d26f2bb_icgraph_org.svg" target="_base">
           <rect id="button" ry="5" rx="5" y="6" x="6" height="38" width="38"
                fill="#f2f5e9" fill-opacity="0.5" stroke="#606060" stroke-width="1.0"/>
           <path id="arrow"
             d="M 11.500037,31.436501 C 11.940474,20.09759 22.043105,11.32322 32.158766,21.979434 L 37.068811,17.246167 C 37.068811,17.246167 37.088388,32 37.088388,32 L 22.160133,31.978069 C 22.160133,31.978069 26.997745,27.140456 26.997745,27.140456 C 18.528582,18.264221 13.291696,25.230495 11.500037,31.436501 z"
             style="fill:#404040;"/>
          </a>
         </g>
        </svg>
</svg>
