<?xml version="1.0" encoding="UTF-8" standalone="no"?>
<!DOCTYPE svg PUBLIC "-//W3C//DTD SVG 1.1//EN"
 "http://www.w3.org/Graphics/SVG/1.1/DTD/svg11.dtd">
<!-- Generated by graphviz version 2.50.0 (20220203.2022)
 -->
<!-- Title: m_force_tides::force_tides Pages: 1 -->
<svg width="429pt" height="104pt"
 viewBox="0.00 0.00 429.00 104.00" xmlns="http://www.w3.org/2000/svg" xmlns:xlink="http://www.w3.org/1999/xlink">
<g id="graph0" class="graph" transform="scale(1 1) rotate(0) translate(4 100)">
<title>m_force_tides::force_tides</title>
<polygon fill="white" stroke="transparent" points="-4,4 -4,-100 425,-100 425,4 -4,4"/>
<!-- Node1 -->
<g id="node1" class="node">
<title>Node1</title>
<g id="a_node1"><a xlink:title=" ">
<polygon fill="#bfbfbf" stroke="black" points="0,-33 0,-63 104,-63 104,-33 0,-33"/>
<text text-anchor="start" x="8" y="-51" font-family="Helvetica,sans-Serif" font-size="10.00">m_force_tides::force</text>
<text text-anchor="middle" x="52" y="-40" font-family="Helvetica,sans-Serif" font-size="10.00">_tides</text>
</a>
</g>
</g>
<!-- Node2 -->
<g id="node2" class="node">
<title>Node2</title>
<g id="a_node2"><a xlink:href="coord__r2sph_8f90.html#a434fdfd324d259f287bff1473e7d95b1" target="_top" xlink:title=" ">
<polygon fill="white" stroke="black" points="173.5,-76.5 173.5,-95.5 243.5,-95.5 243.5,-76.5 173.5,-76.5"/>
<text text-anchor="middle" x="208.5" y="-83.5" font-family="Helvetica,sans-Serif" font-size="10.00">coord_r2sph</text>
</a>
</g>
</g>
<!-- Node1&#45;&gt;Node2 -->
<g id="edge1" class="edge">
<title>Node1&#45;&gt;Node2</title>
<path fill="none" stroke="midnightblue" d="M104.02,-60.55C123.15,-65.25 144.72,-70.56 163.2,-75.1"/>
<polygon fill="midnightblue" stroke="midnightblue" points="162.56,-78.55 173.11,-77.54 164.23,-71.75 162.56,-78.55"/>
</g>
<!-- Node4 -->
<g id="node4" class="node">
<title>Node4</title>
<g id="a_node4"><a xlink:href="namespacem__legendre.html#acbaf8dfd40c737b932c6bee8ba79b61a" target="_top" xlink:title=" ">
<polygon fill="white" stroke="black" points="313,-19.5 313,-38.5 421,-38.5 421,-19.5 313,-19.5"/>
<text text-anchor="middle" x="367" y="-26.5" font-family="Helvetica,sans-Serif" font-size="10.00">m_legendre::legendre</text>
</a>
</g>
</g>
<!-- Node1&#45;&gt;Node4 -->
<g id="edge3" class="edge">
<title>Node1&#45;&gt;Node4</title>
<path fill="none" stroke="midnightblue" d="M104.34,-44.88C158.57,-41.59 244.17,-36.4 302.59,-32.85"/>
<polygon fill="midnightblue" stroke="midnightblue" points="303.03,-36.33 312.8,-32.23 302.61,-29.34 303.03,-36.33"/>
</g>
<!-- Node5 -->
<g id="node5" class="node">
<title>Node5</title>
<g id="a_node5"><a xlink:href="namespacem__legendre1.html#a73dd0249119b581df23d53853881cdad" target="_top" xlink:title=" ">
<polygon fill="white" stroke="black" points="140,-0.5 140,-19.5 277,-19.5 277,-0.5 140,-0.5"/>
<text text-anchor="middle" x="208.5" y="-7.5" font-family="Helvetica,sans-Serif" font-size="10.00">m_legendre1::legendre_drv1</text>
</a>
</g>
</g>
<!-- Node1&#45;&gt;Node5 -->
<g id="edge4" class="edge">
<title>Node1&#45;&gt;Node5</title>
<path fill="none" stroke="midnightblue" d="M104.02,-35.45C121.65,-31.11 141.35,-26.27 158.8,-21.98"/>
<polygon fill="midnightblue" stroke="midnightblue" points="159.9,-25.31 168.77,-19.52 158.23,-18.51 159.9,-25.31"/>
</g>
<!-- Node3 -->
<g id="node3" class="node">
<title>Node3</title>
<g id="a_node3"><a xlink:href="arctan_8f90.html#a6542129800abaa371ae7617afbcb4402" target="_top" xlink:title=" ">
<polygon fill="white" stroke="black" points="345,-76.5 345,-95.5 389,-95.5 389,-76.5 345,-76.5"/>
<text text-anchor="middle" x="367" y="-83.5" font-family="Helvetica,sans-Serif" font-size="10.00">arctan</text>
</a>
</g>
</g>
<!-- Node2&#45;&gt;Node3 -->
<g id="edge2" class="edge">
<title>Node2&#45;&gt;Node3</title>
<path fill="none" stroke="midnightblue" d="M243.84,-86C270.89,-86 308.28,-86 334.55,-86"/>
<polygon fill="midnightblue" stroke="midnightblue" points="334.72,-89.5 344.72,-86 334.72,-82.5 334.72,-89.5"/>
</g>
<!-- Node5&#45;&gt;Node4 -->
<g id="edge5" class="edge">
<title>Node5&#45;&gt;Node4</title>
<path fill="none" stroke="midnightblue" d="M277.23,-18.22C285.69,-19.25 294.31,-20.3 302.7,-21.32"/>
<polygon fill="midnightblue" stroke="midnightblue" points="302.44,-24.81 312.78,-22.54 303.28,-17.86 302.44,-24.81"/>
</g>
</g>
</svg>
