<?xml version="1.0" encoding="UTF-8" standalone="no"?>
<!DOCTYPE svg PUBLIC "-//W3C//DTD SVG 1.1//EN"
 "http://www.w3.org/Graphics/SVG/1.1/DTD/svg11.dtd">
<!-- Generated by graphviz version 2.50.0 (20220203.2022)
 -->
<!-- Title: m_read_satsnx::read_satsnx Pages: 1 -->
<svg width="488pt" height="207pt"
 viewBox="0.00 0.00 488.00 207.02" xmlns="http://www.w3.org/2000/svg" xmlns:xlink="http://www.w3.org/1999/xlink">
<g id="graph0" class="graph" transform="scale(1 1) rotate(0) translate(4 203.02)">
<title>m_read_satsnx::read_satsnx</title>
<polygon fill="white" stroke="transparent" points="-4,4 -4,-203.02 484,-203.02 484,4 -4,4"/>
<!-- Node1 -->
<g id="node1" class="node">
<title>Node1</title>
<g id="a_node1"><a xlink:title=" ">
<polygon fill="#bfbfbf" stroke="black" points="0,-87.41 0,-117.41 106,-117.41 106,-87.41 0,-87.41"/>
<text text-anchor="start" x="8" y="-105.41" font-family="Helvetica,sans-Serif" font-size="10.00">m_read_satsnx::read</text>
<text text-anchor="middle" x="53" y="-94.41" font-family="Helvetica,sans-Serif" font-size="10.00">_satsnx</text>
</a>
</g>
</g>
<!-- Node2 -->
<g id="node2" class="node">
<title>Node2</title>
<g id="a_node2"><a xlink:href="namespacem__read__svsinex.html#ac27ebe3b628563a972696b772c79868c" target="_top" xlink:title=" ">
<polygon fill="white" stroke="black" points="142,-112.41 142,-142.41 262,-142.41 262,-112.41 142,-112.41"/>
<text text-anchor="start" x="150" y="-130.41" font-family="Helvetica,sans-Serif" font-size="10.00">m_read_svsinex::lookup</text>
<text text-anchor="middle" x="202" y="-119.41" font-family="Helvetica,sans-Serif" font-size="10.00">_sinex</text>
</a>
</g>
</g>
<!-- Node1&#45;&gt;Node2 -->
<g id="edge1" class="edge">
<title>Node1&#45;&gt;Node2</title>
<path fill="none" stroke="midnightblue" d="M106.24,-111.3C114.54,-112.71 123.24,-114.19 131.86,-115.65"/>
<polygon fill="midnightblue" stroke="midnightblue" points="131.47,-119.14 141.92,-117.36 132.65,-112.24 131.47,-119.14"/>
</g>
<!-- Node6 -->
<g id="node5" class="node">
<title>Node6</title>
<g id="a_node5"><a xlink:href="report_8f90.html#ad7b70277944dcb0bbfd72a8dbe9ad4df" target="_top" xlink:title=" ">
<polygon fill="white" stroke="red" points="334,-24.91 334,-43.91 375,-43.91 375,-24.91 334,-24.91"/>
<text text-anchor="middle" x="354.5" y="-31.91" font-family="Helvetica,sans-Serif" font-size="10.00">report</text>
</a>
</g>
</g>
<!-- Node1&#45;&gt;Node6 -->
<g id="edge12" class="edge">
<title>Node1&#45;&gt;Node6</title>
<path fill="none" stroke="midnightblue" d="M75.68,-87.33C92.84,-76.21 117.87,-61.79 142,-54.41 204.62,-35.26 282.11,-33.05 323.73,-33.5"/>
<polygon fill="midnightblue" stroke="midnightblue" points="323.69,-37 333.75,-33.67 323.81,-30 323.69,-37"/>
</g>
<!-- Node8 -->
<g id="node6" class="node">
<title>Node8</title>
<g id="a_node6"><a xlink:href="sinex_8cpp.html#a06fabc81a2cc41dfee260450a527ad2d" target="_top" xlink:title=" ">
<polygon fill="white" stroke="black" points="447,-92.91 447,-111.91 480,-111.91 480,-92.91 447,-92.91"/>
<text text-anchor="middle" x="463.5" y="-99.91" font-family="Helvetica,sans-Serif" font-size="10.00">trim</text>
</a>
</g>
</g>
<!-- Node1&#45;&gt;Node8 -->
<g id="edge13" class="edge">
<title>Node1&#45;&gt;Node8</title>
<path fill="none" stroke="midnightblue" d="M74.94,-117.48C92.1,-129.03 117.47,-144.31 142,-152.41 255.81,-189.99 303.86,-225.14 411,-171.41 431.69,-161.04 446.2,-137.96 454.43,-121.35"/>
<polygon fill="midnightblue" stroke="midnightblue" points="457.72,-122.56 458.74,-112.02 451.37,-119.63 457.72,-122.56"/>
</g>
<!-- Node12 -->
<g id="node7" class="node">
<title>Node12</title>
<g id="a_node7"><a xlink:href="namespacem__read__svsinex.html#ac2ff3910d5159e29b8bbb4c4713197bd" target="_top" xlink:title=" ">
<polygon fill="white" stroke="black" points="147,-63.41 147,-93.41 257,-93.41 257,-63.41 147,-63.41"/>
<text text-anchor="start" x="155" y="-81.41" font-family="Helvetica,sans-Serif" font-size="10.00">m_read_svsinex::read</text>
<text text-anchor="middle" x="202" y="-70.41" font-family="Helvetica,sans-Serif" font-size="10.00">_sinex_file</text>
</a>
</g>
</g>
<!-- Node1&#45;&gt;Node12 -->
<g id="edge7" class="edge">
<title>Node1&#45;&gt;Node12</title>
<path fill="none" stroke="midnightblue" d="M106.24,-93.88C116.14,-92.27 126.61,-90.56 136.83,-88.89"/>
<polygon fill="midnightblue" stroke="midnightblue" points="137.64,-92.3 146.94,-87.24 136.51,-85.4 137.64,-92.3"/>
</g>
<!-- Node3 -->
<g id="node3" class="node">
<title>Node3</title>
<g id="a_node3"><a xlink:href="namespacem__read__svsinex.html#adcd6b28441f455ed922aa48010a13724" target="_top" xlink:title=" ">
<polygon fill="white" stroke="red" points="298,-112.41 298,-142.41 411,-142.41 411,-112.41 298,-112.41"/>
<text text-anchor="start" x="306" y="-130.41" font-family="Helvetica,sans-Serif" font-size="10.00">m_read_svsinex::qsort</text>
<text text-anchor="middle" x="354.5" y="-119.41" font-family="Helvetica,sans-Serif" font-size="10.00">_sinex_prn</text>
</a>
</g>
</g>
<!-- Node2&#45;&gt;Node3 -->
<g id="edge2" class="edge">
<title>Node2&#45;&gt;Node3</title>
<path fill="none" stroke="midnightblue" d="M262.05,-127.41C270.36,-127.41 278.95,-127.41 287.39,-127.41"/>
<polygon fill="midnightblue" stroke="midnightblue" points="287.57,-130.91 297.57,-127.41 287.57,-123.91 287.57,-130.91"/>
</g>
<!-- Node5 -->
<g id="node4" class="node">
<title>Node5</title>
<g id="a_node4"><a xlink:href="namespacem__read__svsinex.html#a393cb751ee5e222485273a30e9c4eee2" target="_top" xlink:title=" ">
<polygon fill="white" stroke="black" points="298,-63.41 298,-93.41 411,-93.41 411,-63.41 298,-63.41"/>
<text text-anchor="start" x="306" y="-81.41" font-family="Helvetica,sans-Serif" font-size="10.00">m_read_svsinex::qsort</text>
<text text-anchor="middle" x="354.5" y="-70.41" font-family="Helvetica,sans-Serif" font-size="10.00">_sinex_svn</text>
</a>
</g>
</g>
<!-- Node2&#45;&gt;Node5 -->
<g id="edge3" class="edge">
<title>Node2&#45;&gt;Node5</title>
<path fill="none" stroke="midnightblue" d="M249.38,-112.31C264.62,-107.35 281.71,-101.78 297.58,-96.62"/>
<polygon fill="midnightblue" stroke="midnightblue" points="298.85,-99.89 307.27,-93.46 296.68,-93.23 298.85,-99.89"/>
</g>
<!-- Node2&#45;&gt;Node6 -->
<g id="edge4" class="edge">
<title>Node2&#45;&gt;Node6</title>
<path fill="none" stroke="midnightblue" d="M247.65,-112.4C252.73,-109.8 257.64,-106.81 262,-103.41 283.32,-86.81 276.35,-70.58 298,-54.41 305.69,-48.67 315.19,-44.45 324.14,-41.41"/>
<polygon fill="midnightblue" stroke="midnightblue" points="325.33,-44.7 333.89,-38.46 323.31,-38 325.33,-44.7"/>
</g>
<!-- Node2&#45;&gt;Node8 -->
<g id="edge6" class="edge">
<title>Node2&#45;&gt;Node8</title>
<path fill="none" stroke="midnightblue" d="M240.15,-142.52C282.92,-157.54 354.55,-175.31 411,-152.41 427.01,-145.92 440.79,-131.79 450.05,-120.2"/>
<polygon fill="midnightblue" stroke="midnightblue" points="453,-122.1 456.22,-112.01 447.41,-117.89 453,-122.1"/>
</g>
<!-- Node6&#45;&gt;Node8 -->
<g id="edge5" class="edge">
<title>Node6&#45;&gt;Node8</title>
<path fill="none" stroke="midnightblue" d="M375.12,-39.37C386.15,-42.66 399.9,-47.63 411,-54.41 424.66,-62.75 437.83,-75.13 447.43,-85.22"/>
<polygon fill="midnightblue" stroke="midnightblue" points="444.96,-87.71 454.3,-92.71 450.12,-82.97 444.96,-87.71"/>
</g>
<!-- Node12&#45;&gt;Node3 -->
<g id="edge8" class="edge">
<title>Node12&#45;&gt;Node3</title>
<path fill="none" stroke="midnightblue" d="M249.38,-93.51C264.62,-98.47 281.71,-104.04 297.58,-109.21"/>
<polygon fill="midnightblue" stroke="midnightblue" points="296.68,-112.59 307.27,-112.36 298.85,-105.94 296.68,-112.59"/>
</g>
<!-- Node12&#45;&gt;Node5 -->
<g id="edge9" class="edge">
<title>Node12&#45;&gt;Node5</title>
<path fill="none" stroke="midnightblue" d="M257.33,-78.41C267.25,-78.41 277.69,-78.41 287.89,-78.41"/>
<polygon fill="midnightblue" stroke="midnightblue" points="287.98,-81.91 297.98,-78.41 287.98,-74.91 287.98,-81.91"/>
</g>
<!-- Node12&#45;&gt;Node6 -->
<g id="edge10" class="edge">
<title>Node12&#45;&gt;Node6</title>
<path fill="none" stroke="midnightblue" d="M254.37,-63.39C277.58,-56.61 304.16,-48.84 323.95,-43.05"/>
<polygon fill="midnightblue" stroke="midnightblue" points="325.02,-46.39 333.63,-40.22 323.05,-39.67 325.02,-46.39"/>
</g>
<!-- Node12&#45;&gt;Node8 -->
<g id="edge11" class="edge">
<title>Node12&#45;&gt;Node8</title>
<path fill="none" stroke="midnightblue" d="M219.28,-63.2C237.05,-47.72 267.11,-24.72 298,-15.41 346.08,-0.92 367.37,9.46 411,-15.41 436.32,-29.85 450.46,-62.16 457.27,-83.09"/>
<polygon fill="midnightblue" stroke="midnightblue" points="453.97,-84.26 460.19,-92.83 460.68,-82.25 453.97,-84.26"/>
</g>
</g>
</svg>
