<?xml version="1.0" encoding="UTF-8" standalone="no"?>
<!DOCTYPE svg PUBLIC "-//W3C//DTD SVG 1.1//EN"
 "http://www.w3.org/Graphics/SVG/1.1/DTD/svg11.dtd">
<!-- Generated by graphviz version 2.50.0 (20220203.2022)
 -->
<!-- Title: m_orbresize::orbresize Pages: 1 -->
<svg width="371pt" height="180pt"
 viewBox="0.00 0.00 371.00 180.00" xmlns="http://www.w3.org/2000/svg" xmlns:xlink="http://www.w3.org/1999/xlink">
<g id="graph0" class="graph" transform="scale(1 1) rotate(0) translate(4 176)">
<title>m_orbresize::orbresize</title>
<polygon fill="white" stroke="transparent" points="-4,4 -4,-176 367,-176 367,4 -4,4"/>
<!-- Node1 -->
<g id="node1" class="node">
<title>Node1</title>
<g id="a_node1"><a xlink:title=" ">
<polygon fill="#bfbfbf" stroke="black" points="0,-76.5 0,-95.5 113,-95.5 113,-76.5 0,-76.5"/>
<text text-anchor="middle" x="56.5" y="-83.5" font-family="Helvetica,sans-Serif" font-size="10.00">m_orbresize::orbresize</text>
</a>
</g>
</g>
<!-- Node2 -->
<g id="node2" class="node">
<title>Node2</title>
<g id="a_node2"><a xlink:href="report_8f90.html#ad7b70277944dcb0bbfd72a8dbe9ad4df" target="_top" xlink:title=" ">
<polygon fill="white" stroke="black" points="149,-76.5 149,-95.5 190,-95.5 190,-76.5 149,-76.5"/>
<text text-anchor="middle" x="169.5" y="-83.5" font-family="Helvetica,sans-Serif" font-size="10.00">report</text>
</a>
</g>
</g>
<!-- Node1&#45;&gt;Node2 -->
<g id="edge1" class="edge">
<title>Node1&#45;&gt;Node2</title>
<path fill="none" stroke="midnightblue" d="M113.33,-86C122.08,-86 130.83,-86 138.7,-86"/>
<polygon fill="midnightblue" stroke="midnightblue" points="138.79,-89.5 148.79,-86 138.79,-82.5 138.79,-89.5"/>
</g>
<!-- Node3 -->
<g id="node3" class="node">
<title>Node3</title>
<g id="a_node3"><a xlink:href="report_8f90.html#a25928520f92370869a7e004be7f30f10" target="_top" xlink:title=" ">
<polygon fill="white" stroke="black" points="233.5,-152.5 233.5,-171.5 286.5,-171.5 286.5,-152.5 233.5,-152.5"/>
<text text-anchor="middle" x="260" y="-159.5" font-family="Helvetica,sans-Serif" font-size="10.00">casefold</text>
</a>
</g>
</g>
<!-- Node2&#45;&gt;Node3 -->
<g id="edge2" class="edge">
<title>Node2&#45;&gt;Node3</title>
<path fill="none" stroke="midnightblue" d="M179.99,-95.58C190.79,-106.32 209.11,-124.03 226,-138 229.38,-140.79 233.05,-143.64 236.68,-146.35"/>
<polygon fill="midnightblue" stroke="midnightblue" points="234.76,-149.28 244.9,-152.33 238.88,-143.62 234.76,-149.28"/>
</g>
<!-- Node4 -->
<g id="node4" class="node">
<title>Node4</title>
<g id="a_node4"><a xlink:href="sinex_8cpp.html#a06fabc81a2cc41dfee260450a527ad2d" target="_top" xlink:title=" ">
<polygon fill="white" stroke="black" points="330,-76.5 330,-95.5 363,-95.5 363,-76.5 330,-76.5"/>
<text text-anchor="middle" x="346.5" y="-83.5" font-family="Helvetica,sans-Serif" font-size="10.00">trim</text>
</a>
</g>
</g>
<!-- Node2&#45;&gt;Node4 -->
<g id="edge10" class="edge">
<title>Node2&#45;&gt;Node4</title>
<path fill="none" stroke="midnightblue" d="M190.13,-94.49C200.56,-98.55 213.74,-102.96 226,-105 255.81,-109.96 264.25,-110.31 294,-105 302.8,-103.43 312.07,-100.45 320.28,-97.32"/>
<polygon fill="midnightblue" stroke="midnightblue" points="321.73,-100.51 329.67,-93.5 319.09,-94.03 321.73,-100.51"/>
</g>
<!-- Node5 -->
<g id="node5" class="node">
<title>Node5</title>
<g id="a_node5"><a xlink:href="report_8f90.html#a467ea466dec943f417d29fc397607ed6" target="_top" xlink:title=" ">
<polygon fill="white" stroke="black" points="228,-76.5 228,-95.5 292,-95.5 292,-76.5 228,-76.5"/>
<text text-anchor="middle" x="260" y="-83.5" font-family="Helvetica,sans-Serif" font-size="10.00">caseunfold</text>
</a>
</g>
</g>
<!-- Node2&#45;&gt;Node5 -->
<g id="edge4" class="edge">
<title>Node2&#45;&gt;Node5</title>
<path fill="none" stroke="midnightblue" d="M190.14,-86C198.29,-86 208.08,-86 217.68,-86"/>
<polygon fill="midnightblue" stroke="midnightblue" points="217.94,-89.5 227.94,-86 217.94,-82.5 217.94,-89.5"/>
</g>
<!-- Node6 -->
<g id="node6" class="node">
<title>Node6</title>
<g id="a_node6"><a xlink:href="report_8f90.html#a75ac46c159583ff1b223dd8d0e9da6b9" target="_top" xlink:title=" ">
<polygon fill="white" stroke="black" points="226,-38.5 226,-57.5 294,-57.5 294,-38.5 226,-38.5"/>
<text text-anchor="middle" x="260" y="-45.5" font-family="Helvetica,sans-Serif" font-size="10.00">check_ascii</text>
</a>
</g>
</g>
<!-- Node2&#45;&gt;Node6 -->
<g id="edge6" class="edge">
<title>Node2&#45;&gt;Node6</title>
<path fill="none" stroke="midnightblue" d="M190.14,-77.57C200.99,-72.91 214.73,-67.01 227.08,-61.7"/>
<polygon fill="midnightblue" stroke="midnightblue" points="228.8,-64.78 236.61,-57.62 226.04,-58.34 228.8,-64.78"/>
</g>
<!-- Node7 -->
<g id="node7" class="node">
<title>Node7</title>
<g id="a_node7"><a xlink:href="report_8f90.html#a6aa8309ac4ed66175c4ef2dc7fdda50a" target="_top" xlink:title=" ">
<polygon fill="white" stroke="black" points="232,-0.5 232,-19.5 288,-19.5 288,-0.5 232,-0.5"/>
<text text-anchor="middle" x="260" y="-7.5" font-family="Helvetica,sans-Serif" font-size="10.00">rep_open</text>
</a>
</g>
</g>
<!-- Node2&#45;&gt;Node7 -->
<g id="edge8" class="edge">
<title>Node2&#45;&gt;Node7</title>
<path fill="none" stroke="midnightblue" d="M178.45,-76.32C188.64,-64.3 207.24,-43.58 226,-29 227.78,-27.62 229.67,-26.26 231.62,-24.96"/>
<polygon fill="midnightblue" stroke="midnightblue" points="233.61,-27.84 240.27,-19.59 229.92,-21.89 233.61,-27.84"/>
</g>
<!-- Node3&#45;&gt;Node4 -->
<g id="edge3" class="edge">
<title>Node3&#45;&gt;Node4</title>
<path fill="none" stroke="midnightblue" d="M275.19,-152.44C281.16,-148.22 288.09,-143.08 294,-138 306.75,-127.05 320.08,-113.53 329.98,-103.02"/>
<polygon fill="midnightblue" stroke="midnightblue" points="332.57,-105.37 336.81,-95.67 327.44,-100.61 332.57,-105.37"/>
</g>
<!-- Node5&#45;&gt;Node4 -->
<g id="edge5" class="edge">
<title>Node5&#45;&gt;Node4</title>
<path fill="none" stroke="midnightblue" d="M292.46,-86C301.44,-86 311.11,-86 319.7,-86"/>
<polygon fill="midnightblue" stroke="midnightblue" points="319.88,-89.5 329.88,-86 319.88,-82.5 319.88,-89.5"/>
</g>
<!-- Node6&#45;&gt;Node4 -->
<g id="edge7" class="edge">
<title>Node6&#45;&gt;Node4</title>
<path fill="none" stroke="midnightblue" d="M282.32,-57.59C293.97,-62.83 308.46,-69.35 320.63,-74.82"/>
<polygon fill="midnightblue" stroke="midnightblue" points="319.23,-78.02 329.79,-78.93 322.1,-71.64 319.23,-78.02"/>
</g>
<!-- Node7&#45;&gt;Node4 -->
<g id="edge9" class="edge">
<title>Node7&#45;&gt;Node4</title>
<path fill="none" stroke="midnightblue" d="M280.17,-19.68C284.88,-22.42 289.78,-25.59 294,-29 308.36,-40.6 322.25,-56.31 331.97,-68.31"/>
<polygon fill="midnightblue" stroke="midnightblue" points="329.32,-70.6 338.27,-76.27 334.81,-66.26 329.32,-70.6"/>
</g>
</g>
</svg>
