<?xml version="1.0" encoding="UTF-8" standalone="no"?>
<!DOCTYPE svg PUBLIC "-//W3C//DTD SVG 1.1//EN"
 "http://www.w3.org/Graphics/SVG/1.1/DTD/svg11.dtd">
<!-- Generated by graphviz version 2.50.0 (20220203.2022)
 -->
<!-- Title: m_orbinteg::orbinteg Pages: 1 -->
<svg width="684pt" height="812pt"
 viewBox="0.00 0.00 684.00 812.41" xmlns="http://www.w3.org/2000/svg" xmlns:xlink="http://www.w3.org/1999/xlink">
<g id="graph0" class="graph" transform="scale(1 1) rotate(0) translate(4 808.41)">
<title>m_orbinteg::orbinteg</title>
<polygon fill="white" stroke="transparent" points="-4,4 -4,-808.41 680,-808.41 680,4 -4,4"/>
<!-- Node1 -->
<g id="node1" class="node">
<title>Node1</title>
<g id="a_node1"><a xlink:title=" ">
<polygon fill="#bfbfbf" stroke="black" points="0,-546.91 0,-565.91 104,-565.91 104,-546.91 0,-546.91"/>
<text text-anchor="middle" x="52" y="-553.91" font-family="Helvetica,sans-Serif" font-size="10.00">m_orbinteg::orbinteg</text>
</a>
</g>
</g>
<!-- Node2 -->
<g id="node2" class="node">
<title>Node2</title>
<g id="a_node2"><a xlink:href="namespacem__integreqm.html#a793d84e5dc27bd4044d13a6a63243b47" target="_top" xlink:title=" ">
<polygon fill="white" stroke="black" points="140,-727.91 140,-746.91 265,-746.91 265,-727.91 140,-727.91"/>
<text text-anchor="middle" x="202.5" y="-734.91" font-family="Helvetica,sans-Serif" font-size="10.00">m_integreqm::integr_eqm</text>
</a>
</g>
</g>
<!-- Node1&#45;&gt;Node2 -->
<g id="edge1" class="edge">
<title>Node1&#45;&gt;Node2</title>
<path fill="none" stroke="midnightblue" d="M57.38,-566C68.56,-589.79 100.13,-652.59 140,-694.41 150.39,-705.3 163.93,-715.12 175.66,-722.62"/>
<polygon fill="midnightblue" stroke="midnightblue" points="173.84,-725.61 184.19,-727.88 177.51,-719.65 173.84,-725.61"/>
</g>
<!-- Node140 -->
<g id="node6" class="node">
<title>Node140</title>
<g id="a_node6"><a xlink:href="namespacem__integrveq.html#a26456b441514cdb95835b24d64563a0c" target="_top" xlink:title=" ">
<polygon fill="white" stroke="black" points="143,-575.91 143,-594.91 262,-594.91 262,-575.91 143,-575.91"/>
<text text-anchor="middle" x="202.5" y="-582.91" font-family="Helvetica,sans-Serif" font-size="10.00">m_integrveq::integr_veq</text>
</a>
</g>
</g>
<!-- Node1&#45;&gt;Node140 -->
<g id="edge5" class="edge">
<title>Node1&#45;&gt;Node140</title>
<path fill="none" stroke="midnightblue" d="M102.04,-565.98C115.03,-568.52 129.19,-571.29 142.65,-573.92"/>
<polygon fill="midnightblue" stroke="midnightblue" points="142.28,-577.41 152.77,-575.89 143.62,-570.54 142.28,-577.41"/>
</g>
<!-- Node75 -->
<g id="node8" class="node">
<title>Node75</title>
<g id="a_node8"><a xlink:href="sinex_8cpp.html#a06fabc81a2cc41dfee260450a527ad2d" target="_top" xlink:title=" ">
<polygon fill="white" stroke="black" points="632.5,-518.91 632.5,-537.91 665.5,-537.91 665.5,-518.91 632.5,-518.91"/>
<text text-anchor="middle" x="649" y="-525.91" font-family="Helvetica,sans-Serif" font-size="10.00">trim</text>
</a>
</g>
</g>
<!-- Node1&#45;&gt;Node75 -->
<g id="edge36" class="edge">
<title>Node1&#45;&gt;Node75</title>
<path fill="none" stroke="midnightblue" d="M68.63,-566.06C85.75,-576.38 114.19,-592.82 140,-604.41 209.24,-635.51 226.19,-648.56 301,-661.41 425.84,-682.86 479.17,-729.47 586,-661.41 625.44,-636.28 640.19,-578.81 645.39,-548.3"/>
<polygon fill="midnightblue" stroke="midnightblue" points="648.9,-548.46 646.94,-538.05 641.98,-547.41 648.9,-548.46"/>
</g>
<!-- Node149 -->
<g id="node12" class="node">
<title>Node149</title>
<g id="a_node12"><a xlink:href="prm__main_8f95.html#a5278832d0474755edea23de7a540f359" target="_top" xlink:title=" ">
<polygon fill="white" stroke="black" points="339,-347.91 339,-366.91 398,-366.91 398,-347.91 339,-347.91"/>
<text text-anchor="middle" x="368.5" y="-354.91" font-family="Helvetica,sans-Serif" font-size="10.00">prm_main</text>
</a>
</g>
</g>
<!-- Node1&#45;&gt;Node149 -->
<g id="edge12" class="edge">
<title>Node1&#45;&gt;Node149</title>
<path fill="none" stroke="midnightblue" d="M68.17,-546.81C118.82,-514.76 282.38,-411.27 343.85,-372.37"/>
<polygon fill="midnightblue" stroke="midnightblue" points="345.9,-375.22 352.48,-366.91 342.16,-369.3 345.9,-375.22"/>
</g>
<!-- Node15 -->
<g id="node14" class="node">
<title>Node15</title>
<g id="a_node14"><a xlink:href="time__TT_8f90.html#aac4be73ca07f0d71843391b034a7d20e" target="_top" xlink:title=" ">
<polygon fill="white" stroke="red" points="625.5,-176.91 625.5,-195.91 672.5,-195.91 672.5,-176.91 625.5,-176.91"/>
<text text-anchor="middle" x="649" y="-183.91" font-family="Helvetica,sans-Serif" font-size="10.00">time_tt</text>
</a>
</g>
</g>
<!-- Node1&#45;&gt;Node15 -->
<g id="edge34" class="edge">
<title>Node1&#45;&gt;Node15</title>
<path fill="none" stroke="midnightblue" d="M57.57,-546.72C85.56,-488.82 240.16,-187.65 472,-91.41 518.8,-71.98 541.63,-66.95 586,-91.41 612.24,-105.87 605.54,-123.37 622,-148.41 626.31,-154.96 631.13,-162.07 635.44,-168.35"/>
<polygon fill="midnightblue" stroke="midnightblue" points="632.71,-170.55 641.28,-176.79 638.47,-166.57 632.71,-170.55"/>
</g>
<!-- Node159 -->
<g id="node24" class="node">
<title>Node159</title>
<g id="a_node24"><a xlink:href="time__TT__sec_8f90.html#a31aa62c537a593dd783353bda39fe608" target="_top" xlink:title=" ">
<polygon fill="white" stroke="red" points="495,-24.91 495,-43.91 563,-43.91 563,-24.91 495,-24.91"/>
<text text-anchor="middle" x="529" y="-31.91" font-family="Helvetica,sans-Serif" font-size="10.00">time_tt_sec</text>
</a>
</g>
</g>
<!-- Node1&#45;&gt;Node159 -->
<g id="edge35" class="edge">
<title>Node1&#45;&gt;Node159</title>
<path fill="none" stroke="midnightblue" d="M53.14,-546.72C54.24,-483.19 63.79,-126.58 140,-58.41 237,28.36 408.03,-1.97 486.52,-22.23"/>
<polygon fill="midnightblue" stroke="midnightblue" points="485.95,-25.7 496.51,-24.88 487.75,-18.93 485.95,-25.7"/>
</g>
<!-- Node3 -->
<g id="node3" class="node">
<title>Node3</title>
<g id="a_node3"><a xlink:href="integr__rk4_8f95.html#a9dda6722652d81539eb1d5c9cfe8e9e9" target="_top" xlink:title=" ">
<polygon fill="white" stroke="red" points="339,-708.91 339,-727.91 398,-727.91 398,-708.91 339,-708.91"/>
<text text-anchor="middle" x="368.5" y="-715.91" font-family="Helvetica,sans-Serif" font-size="10.00">integr_rk4</text>
</a>
</g>
</g>
<!-- Node2&#45;&gt;Node3 -->
<g id="edge2" class="edge">
<title>Node2&#45;&gt;Node3</title>
<path fill="none" stroke="midnightblue" d="M265.03,-730.28C286.35,-727.81 309.64,-725.11 328.63,-722.91"/>
<polygon fill="midnightblue" stroke="midnightblue" points="329.16,-726.37 338.69,-721.75 328.35,-719.42 329.16,-726.37"/>
</g>
<!-- Node138 -->
<g id="node4" class="node">
<title>Node138</title>
<g id="a_node4"><a xlink:href="integr__rk87_8f95.html#a2a9a86b5021347d1c51f6b40066fbb40" target="_top" xlink:title=" ">
<polygon fill="white" stroke="red" points="336,-784.91 336,-803.91 401,-803.91 401,-784.91 336,-784.91"/>
<text text-anchor="middle" x="368.5" y="-791.91" font-family="Helvetica,sans-Serif" font-size="10.00">integr_rk87</text>
</a>
</g>
</g>
<!-- Node2&#45;&gt;Node138 -->
<g id="edge3" class="edge">
<title>Node2&#45;&gt;Node138</title>
<path fill="none" stroke="midnightblue" d="M226.13,-746.92C245.75,-755 275,-766.65 301,-775.41 309.1,-778.14 317.83,-780.82 326.22,-783.26"/>
<polygon fill="midnightblue" stroke="midnightblue" points="325.28,-786.63 335.85,-786.02 327.2,-779.9 325.28,-786.63"/>
</g>
<!-- Node139 -->
<g id="node5" class="node">
<title>Node139</title>
<g id="a_node5"><a xlink:href="integr__rkn768_8f95.html#ace93d66297205f5b3bf470f6fb55a277" target="_top" xlink:title=" ">
<polygon fill="white" stroke="red" points="331,-746.91 331,-765.91 406,-765.91 406,-746.91 331,-746.91"/>
<text text-anchor="middle" x="368.5" y="-753.91" font-family="Helvetica,sans-Serif" font-size="10.00">integr_rkn768</text>
</a>
</g>
</g>
<!-- Node2&#45;&gt;Node139 -->
<g id="edge4" class="edge">
<title>Node2&#45;&gt;Node139</title>
<path fill="none" stroke="midnightblue" d="M265.03,-744.54C283.4,-746.67 303.23,-748.96 320.5,-750.96"/>
<polygon fill="midnightblue" stroke="midnightblue" points="320.56,-754.49 330.9,-752.17 321.37,-747.54 320.56,-754.49"/>
</g>
<!-- Node110 -->
<g id="node7" class="node">
<title>Node110</title>
<g id="a_node7"><a xlink:href="report_8f90.html#ad7b70277944dcb0bbfd72a8dbe9ad4df" target="_top" xlink:title=" ">
<polygon fill="white" stroke="red" points="508.5,-632.91 508.5,-651.91 549.5,-651.91 549.5,-632.91 508.5,-632.91"/>
<text text-anchor="middle" x="529" y="-639.91" font-family="Helvetica,sans-Serif" font-size="10.00">report</text>
</a>
</g>
</g>
<!-- Node140&#45;&gt;Node110 -->
<g id="edge6" class="edge">
<title>Node140&#45;&gt;Node110</title>
<path fill="none" stroke="midnightblue" d="M262.38,-594.34C309.45,-601.64 377.08,-612.51 436,-623.41 456.91,-627.28 480.39,-632.13 498.4,-635.97"/>
<polygon fill="midnightblue" stroke="midnightblue" points="497.79,-639.42 508.31,-638.09 499.26,-632.57 497.79,-639.42"/>
</g>
<!-- Node141 -->
<g id="node9" class="node">
<title>Node141</title>
<g id="a_node9"><a xlink:href="namespacem__veq__rkn768.html#acade84f4eab8c2bb71f72dda5be85361" target="_top" xlink:title=" ">
<polygon fill="white" stroke="red" points="301,-632.91 301,-651.91 436,-651.91 436,-632.91 301,-632.91"/>
<text text-anchor="middle" x="368.5" y="-639.91" font-family="Helvetica,sans-Serif" font-size="10.00">m_veq_rkn768::veq_rkn768</text>
</a>
</g>
</g>
<!-- Node140&#45;&gt;Node141 -->
<g id="edge8" class="edge">
<title>Node140&#45;&gt;Node141</title>
<path fill="none" stroke="midnightblue" d="M230.95,-594.95C258.15,-604.4 300,-618.95 330.2,-629.45"/>
<polygon fill="midnightblue" stroke="midnightblue" points="329.37,-632.86 339.96,-632.84 331.66,-626.25 329.37,-632.86"/>
</g>
<!-- Node148 -->
<g id="node10" class="node">
<title>Node148</title>
<g id="a_node10"><a xlink:href="namespacem__veqc2t.html#abe89be782e32065019df63f2ee89ca03" target="_top" xlink:title=" ">
<polygon fill="white" stroke="red" points="322,-556.91 322,-575.91 415,-575.91 415,-556.91 322,-556.91"/>
<text text-anchor="middle" x="368.5" y="-563.91" font-family="Helvetica,sans-Serif" font-size="10.00">m_veqc2t::veqc2t</text>
</a>
</g>
</g>
<!-- Node140&#45;&gt;Node148 -->
<g id="edge10" class="edge">
<title>Node140&#45;&gt;Node148</title>
<path fill="none" stroke="midnightblue" d="M262.24,-578.6C278.3,-576.74 295.66,-574.73 311.56,-572.89"/>
<polygon fill="midnightblue" stroke="midnightblue" points="312.24,-576.33 321.77,-571.71 311.43,-569.38 312.24,-576.33"/>
</g>
<!-- Node110&#45;&gt;Node75 -->
<g id="edge7" class="edge">
<title>Node110&#45;&gt;Node75</title>
<path fill="none" stroke="midnightblue" d="M549.68,-639.08C561.18,-636.36 575.45,-631.59 586,-623.41 612.08,-603.18 630.58,-568.73 640.25,-547.34"/>
<polygon fill="midnightblue" stroke="midnightblue" points="643.53,-548.58 644.29,-538.01 637.1,-545.8 643.53,-548.58"/>
</g>
<!-- Node141&#45;&gt;Node110 -->
<g id="edge9" class="edge">
<title>Node141&#45;&gt;Node110</title>
<path fill="none" stroke="midnightblue" d="M436.26,-642.41C457.84,-642.41 480.68,-642.41 498.18,-642.41"/>
<polygon fill="midnightblue" stroke="midnightblue" points="498.32,-645.91 508.32,-642.41 498.32,-638.91 498.32,-645.91"/>
</g>
<!-- Node45 -->
<g id="node11" class="node">
<title>Node45</title>
<g id="a_node11"><a xlink:href="EOP_8f90.html#ae7a3de1bf2c72753f2eeb8e05d63f962" target="_top" xlink:title=" ">
<polygon fill="white" stroke="red" points="513,-594.91 513,-613.91 545,-613.91 545,-594.91 513,-594.91"/>
<text text-anchor="middle" x="529" y="-601.91" font-family="Helvetica,sans-Serif" font-size="10.00">eop</text>
</a>
</g>
</g>
<!-- Node148&#45;&gt;Node45 -->
<g id="edge11" class="edge">
<title>Node148&#45;&gt;Node45</title>
<path fill="none" stroke="midnightblue" d="M409.5,-576C438.87,-583.04 477.86,-592.39 502.94,-598.4"/>
<polygon fill="midnightblue" stroke="midnightblue" points="502.23,-601.83 512.78,-600.76 503.87,-595.02 502.23,-601.83"/>
</g>
<!-- Node149&#45;&gt;Node75 -->
<g id="edge33" class="edge">
<title>Node149&#45;&gt;Node75</title>
<path fill="none" stroke="midnightblue" d="M372.69,-367.03C382.46,-394.72 414.76,-474.9 472,-509.41 518.75,-537.59 585.36,-535.81 621.76,-532.08"/>
<polygon fill="midnightblue" stroke="midnightblue" points="622.5,-535.52 632.03,-530.89 621.69,-528.57 622.5,-535.52"/>
</g>
<!-- Node149&#45;&gt;Node45 -->
<g id="edge13" class="edge">
<title>Node149&#45;&gt;Node45</title>
<path fill="none" stroke="midnightblue" d="M371.06,-367.26C377.12,-402.29 402.31,-522.07 472,-585.41 480.43,-593.07 492.08,-597.66 502.57,-600.4"/>
<polygon fill="midnightblue" stroke="midnightblue" points="502,-603.86 512.51,-602.57 503.49,-597.02 502,-603.86"/>
</g>
<!-- Node150 -->
<g id="node13" class="node">
<title>Node150</title>
<g id="a_node13"><a xlink:href="namespacem__eop__data.html#a3f9f046171f91909e4504b8cec7586bd" target="_top" xlink:title=" ">
<polygon fill="white" stroke="red" points="472,-176.91 472,-195.91 586,-195.91 586,-176.91 472,-176.91"/>
<text text-anchor="middle" x="529" y="-183.91" font-family="Helvetica,sans-Serif" font-size="10.00">m_eop_data::eop_data</text>
</a>
</g>
</g>
<!-- Node149&#45;&gt;Node150 -->
<g id="edge14" class="edge">
<title>Node149&#45;&gt;Node150</title>
<path fill="none" stroke="midnightblue" d="M373.41,-347.62C384.6,-320.82 419.39,-245.59 472,-205.41 474.45,-203.54 477.1,-201.84 479.86,-200.31"/>
<polygon fill="midnightblue" stroke="midnightblue" points="481.47,-203.42 488.98,-195.95 478.45,-197.11 481.47,-203.42"/>
</g>
<!-- Node149&#45;&gt;Node15 -->
<g id="edge30" class="edge">
<title>Node149&#45;&gt;Node15</title>
<path fill="none" stroke="midnightblue" d="M398.28,-355.62C450.24,-351.88 557,-341.64 586,-319.41 622.93,-291.09 638.72,-235.47 644.74,-205.93"/>
<polygon fill="midnightblue" stroke="midnightblue" points="648.2,-206.47 646.59,-195.99 641.32,-205.18 648.2,-206.47"/>
</g>
<!-- Node13 -->
<g id="node15" class="node">
<title>Node13</title>
<g id="a_node15"><a xlink:href="cal2jd_8for.html#af9bdf5980bab8c8324930b1a0af0175a" target="_top" xlink:title=" ">
<polygon fill="white" stroke="black" points="499,-404.91 499,-423.91 559,-423.91 559,-404.91 499,-404.91"/>
<text text-anchor="middle" x="529" y="-411.91" font-family="Helvetica,sans-Serif" font-size="10.00">iau_cal2jd</text>
</a>
</g>
</g>
<!-- Node149&#45;&gt;Node13 -->
<g id="edge16" class="edge">
<title>Node149&#45;&gt;Node13</title>
<path fill="none" stroke="midnightblue" d="M394.7,-366.98C415.41,-374.78 445.53,-386.01 472,-395.41 477.7,-397.43 483.75,-399.53 489.67,-401.56"/>
<polygon fill="midnightblue" stroke="midnightblue" points="488.86,-404.99 499.46,-404.9 491.12,-398.36 488.86,-404.99"/>
</g>
<!-- Node29 -->
<g id="node16" class="node">
<title>Node29</title>
<g id="a_node16"><a xlink:href="kepler__k2z_8f90.html#ab1518df85771df7a48fecf1d1b9f1b34" target="_top" xlink:title=" ">
<polygon fill="white" stroke="black" points="497.5,-100.91 497.5,-119.91 560.5,-119.91 560.5,-100.91 497.5,-100.91"/>
<text text-anchor="middle" x="529" y="-107.91" font-family="Helvetica,sans-Serif" font-size="10.00">kepler_k2z</text>
</a>
</g>
</g>
<!-- Node149&#45;&gt;Node29 -->
<g id="edge17" class="edge">
<title>Node149&#45;&gt;Node29</title>
<path fill="none" stroke="midnightblue" d="M371.4,-347.48C378.43,-313.24 406.08,-198.64 472,-134.41 476.62,-129.9 482.23,-126.18 488.08,-123.13"/>
<polygon fill="midnightblue" stroke="midnightblue" points="489.74,-126.21 497.37,-118.86 486.82,-119.85 489.74,-126.21"/>
</g>
<!-- Node30 -->
<g id="node17" class="node">
<title>Node30</title>
<g id="a_node17"><a xlink:href="matrix__Rr_8f90.html#ac8734d74fb7ada7605575d3b9d26f2bb" target="_top" xlink:title=" ">
<polygon fill="white" stroke="red" points="622,-119.91 622,-138.91 676,-138.91 676,-119.91 622,-119.91"/>
<text text-anchor="middle" x="649" y="-126.91" font-family="Helvetica,sans-Serif" font-size="10.00">matrix_rr</text>
</a>
</g>
</g>
<!-- Node149&#45;&gt;Node30 -->
<g id="edge19" class="edge">
<title>Node149&#45;&gt;Node30</title>
<path fill="none" stroke="midnightblue" d="M371.69,-347.63C379.33,-315.99 407.88,-215.59 472,-167.41 512.89,-136.69 573.41,-129.71 611.76,-128.68"/>
<polygon fill="midnightblue" stroke="midnightblue" points="612,-132.18 621.95,-128.53 611.9,-125.18 612,-132.18"/>
</g>
<!-- Node154 -->
<g id="node18" class="node">
<title>Node154</title>
<g id="a_node18"><a xlink:href="prm__emp_8f95.html#a96a516186c2be525fd46bb7e57ebadb9" target="_top" xlink:title=" ">
<polygon fill="white" stroke="red" points="500.5,-480.91 500.5,-499.91 557.5,-499.91 557.5,-480.91 500.5,-480.91"/>
<text text-anchor="middle" x="529" y="-487.91" font-family="Helvetica,sans-Serif" font-size="10.00">prm_emp</text>
</a>
</g>
</g>
<!-- Node149&#45;&gt;Node154 -->
<g id="edge20" class="edge">
<title>Node149&#45;&gt;Node154</title>
<path fill="none" stroke="midnightblue" d="M375.69,-367.18C389.99,-389.01 427.56,-442.11 472,-471.41 477.7,-475.17 484.22,-478.25 490.75,-480.77"/>
<polygon fill="midnightblue" stroke="midnightblue" points="489.63,-484.08 500.22,-484.05 491.92,-477.47 489.63,-484.08"/>
</g>
<!-- Node156 -->
<g id="node19" class="node">
<title>Node156</title>
<g id="a_node19"><a xlink:href="prm__grav_8f95.html#aadd596be03ba8211d3a4d0406de23fba" target="_top" xlink:title=" ">
<polygon fill="white" stroke="red" points="500.5,-442.91 500.5,-461.91 557.5,-461.91 557.5,-442.91 500.5,-442.91"/>
<text text-anchor="middle" x="529" y="-449.91" font-family="Helvetica,sans-Serif" font-size="10.00">prm_grav</text>
</a>
</g>
</g>
<!-- Node149&#45;&gt;Node156 -->
<g id="edge22" class="edge">
<title>Node149&#45;&gt;Node156</title>
<path fill="none" stroke="midnightblue" d="M380.11,-367.06C397.93,-382.83 435.5,-414.29 472,-433.41 477.79,-436.44 484.16,-439.14 490.47,-441.48"/>
<polygon fill="midnightblue" stroke="midnightblue" points="489.64,-444.9 500.24,-444.87 491.94,-438.29 489.64,-444.9"/>
</g>
<!-- Node157 -->
<g id="node20" class="node">
<title>Node157</title>
<g id="a_node20"><a xlink:href="prm__nongrav_8f95.html#acca9741df727739366435ba38119ae9d" target="_top" xlink:title=" ">
<polygon fill="white" stroke="red" points="492.5,-366.91 492.5,-385.91 565.5,-385.91 565.5,-366.91 492.5,-366.91"/>
<text text-anchor="middle" x="529" y="-373.91" font-family="Helvetica,sans-Serif" font-size="10.00">prm_nongrav</text>
</a>
</g>
</g>
<!-- Node149&#45;&gt;Node157 -->
<g id="edge24" class="edge">
<title>Node149&#45;&gt;Node157</title>
<path fill="none" stroke="midnightblue" d="M398.2,-360.85C421.62,-363.66 455.14,-367.67 482.25,-370.92"/>
<polygon fill="midnightblue" stroke="midnightblue" points="481.94,-374.41 492.29,-372.13 482.78,-367.46 481.94,-374.41"/>
</g>
<!-- Node158 -->
<g id="node21" class="node">
<title>Node158</title>
<g id="a_node21"><a xlink:href="prm__srp_8f95.html#ac09bbfeddec350084d44448037c8aaaf" target="_top" xlink:title=" ">
<polygon fill="white" stroke="red" points="503,-556.91 503,-575.91 555,-575.91 555,-556.91 503,-556.91"/>
<text text-anchor="middle" x="529" y="-563.91" font-family="Helvetica,sans-Serif" font-size="10.00">prm_srp</text>
</a>
</g>
</g>
<!-- Node149&#45;&gt;Node158 -->
<g id="edge26" class="edge">
<title>Node149&#45;&gt;Node158</title>
<path fill="none" stroke="midnightblue" d="M372.42,-367.3C381.85,-397.6 414.25,-490.22 472,-542.41 478.12,-547.94 485.72,-552.33 493.32,-555.76"/>
<polygon fill="midnightblue" stroke="midnightblue" points="492.26,-559.11 502.84,-559.61 494.88,-552.62 492.26,-559.11"/>
</g>
<!-- Node10 -->
<g id="node22" class="node">
<title>Node10</title>
<g id="a_node22"><a xlink:href="time__GPS_8f90.html#abc2a33c3ed6bda1d04db6c1e5ae6d0f2" target="_top" xlink:title=" ">
<polygon fill="white" stroke="red" points="501,-290.91 501,-309.91 557,-309.91 557,-290.91 501,-290.91"/>
<text text-anchor="middle" x="529" y="-297.91" font-family="Helvetica,sans-Serif" font-size="10.00">time_gps</text>
</a>
</g>
</g>
<!-- Node149&#45;&gt;Node10 -->
<g id="edge28" class="edge">
<title>Node149&#45;&gt;Node10</title>
<path fill="none" stroke="midnightblue" d="M396.03,-347.87C422.32,-338.42 462.77,-323.87 491.95,-313.37"/>
<polygon fill="midnightblue" stroke="midnightblue" points="493.16,-316.66 501.38,-309.98 490.79,-310.07 493.16,-316.66"/>
</g>
<!-- Node14 -->
<g id="node23" class="node">
<title>Node14</title>
<g id="a_node23"><a xlink:href="time__TAI_8f90.html#a100297f335efa93736f0ef563a5d0de0" target="_top" xlink:title=" ">
<polygon fill="white" stroke="red" points="503.5,-252.91 503.5,-271.91 554.5,-271.91 554.5,-252.91 503.5,-252.91"/>
<text text-anchor="middle" x="529" y="-259.91" font-family="Helvetica,sans-Serif" font-size="10.00">time_tai</text>
</a>
</g>
</g>
<!-- Node149&#45;&gt;Node14 -->
<g id="edge29" class="edge">
<title>Node149&#45;&gt;Node14</title>
<path fill="none" stroke="midnightblue" d="M380.11,-347.76C397.93,-331.99 435.5,-300.53 472,-281.41 478.75,-277.87 486.3,-274.79 493.61,-272.19"/>
<polygon fill="midnightblue" stroke="midnightblue" points="494.95,-275.43 503.34,-268.96 492.75,-268.79 494.95,-275.43"/>
</g>
<!-- Node149&#45;&gt;Node159 -->
<g id="edge31" class="edge">
<title>Node149&#45;&gt;Node159</title>
<path fill="none" stroke="midnightblue" d="M371.74,-347.56C380.33,-311.23 413.58,-182.11 472,-91.41 481.89,-76.06 496.41,-61.42 508.19,-50.83"/>
<polygon fill="midnightblue" stroke="midnightblue" points="510.58,-53.39 515.82,-44.18 505.98,-48.11 510.58,-53.39"/>
</g>
<!-- Node16 -->
<g id="node25" class="node">
<title>Node16</title>
<g id="a_node25"><a xlink:href="time__UTC_8f90.html#a5c5b31c8678ff9da6694a16d7bb9387f" target="_top" xlink:title=" ">
<polygon fill="white" stroke="red" points="502,-214.91 502,-233.91 556,-233.91 556,-214.91 502,-214.91"/>
<text text-anchor="middle" x="529" y="-221.91" font-family="Helvetica,sans-Serif" font-size="10.00">time_utc</text>
</a>
</g>
</g>
<!-- Node149&#45;&gt;Node16 -->
<g id="edge32" class="edge">
<title>Node149&#45;&gt;Node16</title>
<path fill="none" stroke="midnightblue" d="M375.69,-347.64C389.99,-325.81 427.56,-272.7 472,-243.41 478.19,-239.33 485.34,-236.04 492.42,-233.42"/>
<polygon fill="midnightblue" stroke="midnightblue" points="493.55,-236.73 501.93,-230.25 491.33,-230.09 493.55,-236.73"/>
</g>
<!-- Node150&#45;&gt;Node15 -->
<g id="edge15" class="edge">
<title>Node150&#45;&gt;Node15</title>
<path fill="none" stroke="midnightblue" d="M586.24,-186.41C596.22,-186.41 606.31,-186.41 615.36,-186.41"/>
<polygon fill="midnightblue" stroke="midnightblue" points="615.43,-189.91 625.43,-186.41 615.43,-182.91 615.43,-189.91"/>
</g>
<!-- Node29&#45;&gt;Node30 -->
<g id="edge18" class="edge">
<title>Node29&#45;&gt;Node30</title>
<path fill="none" stroke="midnightblue" d="M560.7,-115.35C576.27,-117.86 595.29,-120.92 611.6,-123.55"/>
<polygon fill="midnightblue" stroke="midnightblue" points="611.43,-127.06 621.86,-125.2 612.54,-120.15 611.43,-127.06"/>
</g>
<!-- Node154&#45;&gt;Node75 -->
<g id="edge21" class="edge">
<title>Node154&#45;&gt;Node75</title>
<path fill="none" stroke="midnightblue" d="M557.67,-499.32C577.41,-505.68 603.76,-514.16 622.9,-520.33"/>
<polygon fill="midnightblue" stroke="midnightblue" points="621.85,-523.66 632.44,-523.4 624,-517 621.85,-523.66"/>
</g>
<!-- Node156&#45;&gt;Node75 -->
<g id="edge23" class="edge">
<title>Node156&#45;&gt;Node75</title>
<path fill="none" stroke="midnightblue" d="M557.77,-459.32C567.11,-462.29 577.35,-466.28 586,-471.41 603.95,-482.05 621.16,-498.55 632.87,-511.06"/>
<polygon fill="midnightblue" stroke="midnightblue" points="630.41,-513.56 639.73,-518.6 635.59,-508.85 630.41,-513.56"/>
</g>
<!-- Node157&#45;&gt;Node75 -->
<g id="edge25" class="edge">
<title>Node157&#45;&gt;Node75</title>
<path fill="none" stroke="midnightblue" d="M565.51,-383.65C572.89,-386.41 580.19,-390.2 586,-395.41 620.33,-426.18 637.11,-479.92 643.99,-508.77"/>
<polygon fill="midnightblue" stroke="midnightblue" points="640.64,-509.82 646.23,-518.83 647.48,-508.31 640.64,-509.82"/>
</g>
<!-- Node158&#45;&gt;Node75 -->
<g id="edge27" class="edge">
<title>Node158&#45;&gt;Node75</title>
<path fill="none" stroke="midnightblue" d="M555.02,-558.35C574.96,-551.93 602.74,-542.98 622.74,-536.54"/>
<polygon fill="midnightblue" stroke="midnightblue" points="623.95,-539.83 632.4,-533.43 621.81,-533.17 623.95,-539.83"/>
</g>
</g>
</svg>
