<?xml version="1.0" encoding="UTF-8" standalone="no"?>
<!DOCTYPE svg PUBLIC "-//W3C//DTD SVG 1.1//EN"
 "http://www.w3.org/Graphics/SVG/1.1/DTD/svg11.dtd">
<!-- Generated by graphviz version 2.50.0 (20220203.2022)
 -->
<!-- Title: m_eop_cor::eop_cor Pages: 1 -->
<svg width="326pt" height="180pt"
 viewBox="0.00 0.00 326.00 180.00" xmlns="http://www.w3.org/2000/svg" xmlns:xlink="http://www.w3.org/1999/xlink">
<g id="graph0" class="graph" transform="scale(1 1) rotate(0) translate(4 176)">
<title>m_eop_cor::eop_cor</title>
<polygon fill="white" stroke="transparent" points="-4,4 -4,-176 322,-176 322,4 -4,4"/>
<!-- Node1 -->
<g id="node1" class="node">
<title>Node1</title>
<g id="a_node1"><a xlink:title=" ">
<polygon fill="#bfbfbf" stroke="black" points="0,-57.5 0,-76.5 104,-76.5 104,-57.5 0,-57.5"/>
<text text-anchor="middle" x="52" y="-64.5" font-family="Helvetica,sans-Serif" font-size="10.00">m_eop_cor::eop_cor</text>
</a>
</g>
</g>
<!-- Node2 -->
<g id="node2" class="node">
<title>Node2</title>
<g id="a_node2"><a xlink:href="interp__iers_8f.html#a19d22fe261c691395977ca955dd2213d" target="_top" xlink:title=" ">
<polygon fill="white" stroke="black" points="140,-95.5 140,-114.5 202,-114.5 202,-95.5 140,-95.5"/>
<text text-anchor="middle" x="171" y="-102.5" font-family="Helvetica,sans-Serif" font-size="10.00">interp_iers</text>
</a>
</g>
</g>
<!-- Node1&#45;&gt;Node2 -->
<g id="edge1" class="edge">
<title>Node1&#45;&gt;Node2</title>
<path fill="none" stroke="midnightblue" d="M82.52,-76.59C97.21,-81.36 115.16,-87.19 130.97,-92.32"/>
<polygon fill="midnightblue" stroke="midnightblue" points="129.89,-95.65 140.49,-95.41 132.06,-89 129.89,-95.65"/>
</g>
<!-- Node6 -->
<g id="node6" class="node">
<title>Node6</title>
<g id="a_node6"><a xlink:href="time__TT_8f90.html#aac4be73ca07f0d71843391b034a7d20e" target="_top" xlink:title=" ">
<polygon fill="white" stroke="black" points="147.5,-38.5 147.5,-57.5 194.5,-57.5 194.5,-38.5 147.5,-38.5"/>
<text text-anchor="middle" x="171" y="-45.5" font-family="Helvetica,sans-Serif" font-size="10.00">time_tt</text>
</a>
</g>
</g>
<!-- Node1&#45;&gt;Node6 -->
<g id="edge5" class="edge">
<title>Node1&#45;&gt;Node6</title>
<path fill="none" stroke="midnightblue" d="M104.32,-58.67C115.53,-56.85 127.1,-54.97 137.34,-53.3"/>
<polygon fill="midnightblue" stroke="midnightblue" points="138.16,-56.72 147.47,-51.66 137.03,-49.81 138.16,-56.72"/>
</g>
<!-- Node3 -->
<g id="node3" class="node">
<title>Node3</title>
<g id="a_node3"><a xlink:href="interp__iers_8f.html#aa3d31118abbaed460d8a0ebba6c43fec" target="_top" xlink:title=" ">
<polygon fill="white" stroke="black" points="258,-152.5 258,-171.5 298,-171.5 298,-152.5 258,-152.5"/>
<text text-anchor="middle" x="278" y="-159.5" font-family="Helvetica,sans-Serif" font-size="10.00">lagint</text>
</a>
</g>
</g>
<!-- Node2&#45;&gt;Node3 -->
<g id="edge2" class="edge">
<title>Node2&#45;&gt;Node3</title>
<path fill="none" stroke="midnightblue" d="M187.83,-114.53C201.09,-122.41 220.6,-133.77 238,-143 241.39,-144.8 244.98,-146.64 248.55,-148.43"/>
<polygon fill="midnightblue" stroke="midnightblue" points="247.31,-151.71 257.82,-152.98 250.39,-145.43 247.31,-151.71"/>
</g>
<!-- Node4 -->
<g id="node4" class="node">
<title>Node4</title>
<g id="a_node4"><a xlink:href="interp__iers_8f.html#af4e1989997bd1691d855f50e85e43f63" target="_top" xlink:title=" ">
<polygon fill="white" stroke="black" points="250,-114.5 250,-133.5 306,-133.5 306,-114.5 250,-114.5"/>
<text text-anchor="middle" x="278" y="-121.5" font-family="Helvetica,sans-Serif" font-size="10.00">pm_gravi</text>
</a>
</g>
</g>
<!-- Node2&#45;&gt;Node4 -->
<g id="edge3" class="edge">
<title>Node2&#45;&gt;Node4</title>
<path fill="none" stroke="midnightblue" d="M202.09,-110.44C213.83,-112.57 227.41,-115.03 239.76,-117.26"/>
<polygon fill="midnightblue" stroke="midnightblue" points="239.31,-120.74 249.78,-119.07 240.56,-113.85 239.31,-120.74"/>
</g>
<!-- Node5 -->
<g id="node5" class="node">
<title>Node5</title>
<g id="a_node5"><a xlink:href="interp__iers_8f.html#afc2dd4e18d7931528c922c648010a72e" target="_top" xlink:title=" ">
<polygon fill="white" stroke="black" points="238,-76.5 238,-95.5 318,-95.5 318,-76.5 238,-76.5"/>
<text text-anchor="middle" x="278" y="-83.5" font-family="Helvetica,sans-Serif" font-size="10.00">pmut1_oceans</text>
</a>
</g>
</g>
<!-- Node2&#45;&gt;Node5 -->
<g id="edge4" class="edge">
<title>Node2&#45;&gt;Node5</title>
<path fill="none" stroke="midnightblue" d="M202.09,-99.56C210.19,-98.09 219.17,-96.46 228.01,-94.86"/>
<polygon fill="midnightblue" stroke="midnightblue" points="228.67,-98.3 237.89,-93.08 227.42,-91.41 228.67,-98.3"/>
</g>
<!-- Node7 -->
<g id="node7" class="node">
<title>Node7</title>
<g id="a_node7"><a xlink:href="jd2cal_8for.html#a9bed91282551283d85294092fe0cc509" target="_top" xlink:title=" ">
<polygon fill="white" stroke="black" points="248,-38.5 248,-57.5 308,-57.5 308,-38.5 248,-38.5"/>
<text text-anchor="middle" x="278" y="-45.5" font-family="Helvetica,sans-Serif" font-size="10.00">iau_jd2cal</text>
</a>
</g>
</g>
<!-- Node6&#45;&gt;Node7 -->
<g id="edge6" class="edge">
<title>Node6&#45;&gt;Node7</title>
<path fill="none" stroke="midnightblue" d="M194.53,-48C207.04,-48 222.96,-48 237.47,-48"/>
<polygon fill="midnightblue" stroke="midnightblue" points="237.72,-51.5 247.72,-48 237.72,-44.5 237.72,-51.5"/>
</g>
<!-- Node8 -->
<g id="node8" class="node">
<title>Node8</title>
<g id="a_node8"><a xlink:href="taiutc_8for.html#a86edd73f696a0968f1600df656bad920" target="_top" xlink:title=" ">
<polygon fill="white" stroke="red" points="257.5,-0.5 257.5,-19.5 298.5,-19.5 298.5,-0.5 257.5,-0.5"/>
<text text-anchor="middle" x="278" y="-7.5" font-family="Helvetica,sans-Serif" font-size="10.00">taiutc</text>
</a>
</g>
</g>
<!-- Node6&#45;&gt;Node8 -->
<g id="edge7" class="edge">
<title>Node6&#45;&gt;Node8</title>
<path fill="none" stroke="midnightblue" d="M194.53,-39.85C209.99,-34.25 230.69,-26.76 247.47,-20.69"/>
<polygon fill="midnightblue" stroke="midnightblue" points="249.13,-23.81 257.34,-17.12 246.75,-17.23 249.13,-23.81"/>
</g>
</g>
</svg>
