<?xml version="1.0" encoding="UTF-8" standalone="no"?>
<!DOCTYPE svg PUBLIC "-//W3C//DTD SVG 1.1//EN"
 "http://www.w3.org/Graphics/SVG/1.1/DTD/svg11.dtd">
<!-- Generated by graphviz version 2.50.0 (20220203.2022)
 -->
<!-- Title: m_write_brd2sp3::write_brd2sp3 Pages: 1 -->
<svg width="336pt" height="118pt"
 viewBox="0.00 0.00 336.00 117.69" xmlns="http://www.w3.org/2000/svg" xmlns:xlink="http://www.w3.org/1999/xlink">
<g id="graph0" class="graph" transform="scale(1 1) rotate(0) translate(4 113.69)">
<title>m_write_brd2sp3::write_brd2sp3</title>
<polygon fill="white" stroke="transparent" points="-4,4 -4,-113.69 332,-113.69 332,4 -4,4"/>
<!-- Node1 -->
<g id="node1" class="node">
<title>Node1</title>
<g id="a_node1"><a xlink:title=" ">
<polygon fill="#bfbfbf" stroke="black" points="0,-52 0,-82 116,-82 116,-52 0,-52"/>
<text text-anchor="start" x="8" y="-70" font-family="Helvetica,sans-Serif" font-size="10.00">m_write_brd2sp3::write</text>
<text text-anchor="middle" x="58" y="-59" font-family="Helvetica,sans-Serif" font-size="10.00">_brd2sp3</text>
</a>
</g>
</g>
<!-- Node2 -->
<g id="node2" class="node">
<title>Node2</title>
<g id="a_node2"><a xlink:href="cal2jd_8for.html#af9bdf5980bab8c8324930b1a0af0175a" target="_top" xlink:title=" ">
<polygon fill="white" stroke="black" points="268,-76.5 268,-95.5 328,-95.5 328,-76.5 268,-76.5"/>
<text text-anchor="middle" x="298" y="-83.5" font-family="Helvetica,sans-Serif" font-size="10.00">iau_cal2jd</text>
</a>
</g>
</g>
<!-- Node1&#45;&gt;Node2 -->
<g id="edge1" class="edge">
<title>Node1&#45;&gt;Node2</title>
<path fill="none" stroke="midnightblue" d="M87.83,-82.18C105.75,-90.75 129.58,-100.6 152,-105 186.89,-111.85 196.8,-110.04 232,-105 241.57,-103.63 251.7,-101.18 261.05,-98.48"/>
<polygon fill="midnightblue" stroke="midnightblue" points="262.27,-101.77 270.81,-95.5 260.22,-95.07 262.27,-101.77"/>
</g>
<!-- Node3 -->
<g id="node3" class="node">
<title>Node3</title>
<g id="a_node3"><a xlink:href="prn2str_8f95.html#a477b4985bbc2f3e45dea8816c9d921f3" target="_top" xlink:title=" ">
<polygon fill="white" stroke="black" points="168.5,-76.5 168.5,-95.5 215.5,-95.5 215.5,-76.5 168.5,-76.5"/>
<text text-anchor="middle" x="192" y="-83.5" font-family="Helvetica,sans-Serif" font-size="10.00">prn2str</text>
</a>
</g>
</g>
<!-- Node1&#45;&gt;Node3 -->
<g id="edge2" class="edge">
<title>Node1&#45;&gt;Node3</title>
<path fill="none" stroke="midnightblue" d="M116.13,-75.22C130.5,-77.29 145.44,-79.44 158.16,-81.27"/>
<polygon fill="midnightblue" stroke="midnightblue" points="157.87,-84.77 168.27,-82.73 158.87,-77.84 157.87,-84.77"/>
</g>
<!-- Node4 -->
<g id="node4" class="node">
<title>Node4</title>
<g id="a_node4"><a xlink:href="time__GPSweek_8f90.html#aa06fb5efbfd63360cbbfd2b3914f0885" target="_top" xlink:title=" ">
<polygon fill="white" stroke="black" points="152,-38.5 152,-57.5 232,-57.5 232,-38.5 152,-38.5"/>
<text text-anchor="middle" x="192" y="-45.5" font-family="Helvetica,sans-Serif" font-size="10.00">time_gpsweek</text>
</a>
</g>
</g>
<!-- Node1&#45;&gt;Node4 -->
<g id="edge3" class="edge">
<title>Node1&#45;&gt;Node4</title>
<path fill="none" stroke="midnightblue" d="M116.13,-58.78C124.65,-57.55 133.37,-56.3 141.71,-55.09"/>
<polygon fill="midnightblue" stroke="midnightblue" points="142.26,-58.55 151.66,-53.66 141.26,-51.62 142.26,-58.55"/>
</g>
<!-- Node5 -->
<g id="node5" class="node">
<title>Node5</title>
<g id="a_node5"><a xlink:href="sinex_8cpp.html#a06fabc81a2cc41dfee260450a527ad2d" target="_top" xlink:title=" ">
<polygon fill="white" stroke="black" points="175.5,-0.5 175.5,-19.5 208.5,-19.5 208.5,-0.5 175.5,-0.5"/>
<text text-anchor="middle" x="192" y="-7.5" font-family="Helvetica,sans-Serif" font-size="10.00">trim</text>
</a>
</g>
</g>
<!-- Node1&#45;&gt;Node5 -->
<g id="edge5" class="edge">
<title>Node1&#45;&gt;Node5</title>
<path fill="none" stroke="midnightblue" d="M94.03,-51.87C116.74,-42.07 145.78,-29.53 166.13,-20.74"/>
<polygon fill="midnightblue" stroke="midnightblue" points="167.57,-23.93 175.36,-16.75 164.79,-17.5 167.57,-23.93"/>
</g>
<!-- Node4&#45;&gt;Node2 -->
<g id="edge4" class="edge">
<title>Node4&#45;&gt;Node2</title>
<path fill="none" stroke="midnightblue" d="M219.24,-57.59C231.93,-62.22 247.35,-67.86 261.11,-72.89"/>
<polygon fill="midnightblue" stroke="midnightblue" points="260.17,-76.27 270.76,-76.41 262.57,-69.69 260.17,-76.27"/>
</g>
</g>
</svg>
