<?xml version="1.0" encoding="UTF-8" standalone="no"?>
<!DOCTYPE svg PUBLIC "-//W3C//DTD SVG 1.1//EN"
 "http://www.w3.org/Graphics/SVG/1.1/DTD/svg11.dtd">
<!-- Generated by graphviz version 2.50.0 (20220203.2022)
 -->
<!-- Title: f90getopt::getopt Pages: 1 -->
<svg width="377pt" height="114pt"
 viewBox="0.00 0.00 377.00 113.50" xmlns="http://www.w3.org/2000/svg" xmlns:xlink="http://www.w3.org/1999/xlink">
<g id="graph0" class="graph" transform="scale(1 1) rotate(0) translate(4 109.5)">
<title>f90getopt::getopt</title>
<polygon fill="white" stroke="transparent" points="-4,4 -4,-109.5 373,-109.5 373,4 -4,4"/>
<!-- Node1 -->
<g id="node1" class="node">
<title>Node1</title>
<g id="a_node1"><a xlink:title=" ">
<polygon fill="#bfbfbf" stroke="black" points="0,-37 0,-56 89,-56 89,-37 0,-37"/>
<text text-anchor="middle" x="44.5" y="-44" font-family="Helvetica,sans-Serif" font-size="10.00">f90getopt::getopt</text>
</a>
</g>
</g>
<!-- Node1&#45;&gt;Node1 -->
<g id="edge1" class="edge">
<title>Node1&#45;&gt;Node1</title>
<path fill="none" stroke="midnightblue" d="M22.92,-56.26C12.42,-65.07 19.62,-74.5 44.5,-74.5 60.44,-74.5 69.12,-70.63 70.54,-65.53"/>
<polygon fill="midnightblue" stroke="midnightblue" points="73.57,-63.75 66.08,-56.26 67.26,-66.79 73.57,-63.75"/>
</g>
<!-- Node2 -->
<g id="node2" class="node">
<title>Node2</title>
<g id="a_node2"><a xlink:href="namespacef90getopt.html#af04c6f0f67a55213e472b327e3592c24" target="_top" xlink:title=" ">
<polygon fill="white" stroke="black" points="125,-68 125,-87 244,-87 244,-68 125,-68"/>
<text text-anchor="middle" x="184.5" y="-75" font-family="Helvetica,sans-Serif" font-size="10.00">f90getopt::process_long</text>
</a>
</g>
</g>
<!-- Node1&#45;&gt;Node2 -->
<g id="edge2" class="edge">
<title>Node1&#45;&gt;Node2</title>
<path fill="none" stroke="midnightblue" d="M88.03,-56.05C101.54,-59.09 116.65,-62.48 130.78,-65.66"/>
<polygon fill="midnightblue" stroke="midnightblue" points="130.35,-69.15 140.87,-67.92 131.88,-62.32 130.35,-69.15"/>
</g>
<!-- Node4 -->
<g id="node4" class="node">
<title>Node4</title>
<g id="a_node4"><a xlink:href="namespacef90getopt.html#a934ac578da100fc190fa88c9199e9517" target="_top" xlink:title=" ">
<polygon fill="white" stroke="black" points="136.5,-0.5 136.5,-30.5 232.5,-30.5 232.5,-0.5 136.5,-0.5"/>
<text text-anchor="start" x="144.5" y="-18.5" font-family="Helvetica,sans-Serif" font-size="10.00">f90getopt::process</text>
<text text-anchor="middle" x="184.5" y="-7.5" font-family="Helvetica,sans-Serif" font-size="10.00">_short</text>
</a>
</g>
</g>
<!-- Node1&#45;&gt;Node4 -->
<g id="edge5" class="edge">
<title>Node1&#45;&gt;Node4</title>
<path fill="none" stroke="midnightblue" d="M88.03,-36.95C100.03,-34.25 113.29,-31.27 126,-28.42"/>
<polygon fill="midnightblue" stroke="midnightblue" points="127.07,-31.76 136.06,-26.16 125.53,-24.93 127.07,-31.76"/>
</g>
<!-- Node2&#45;&gt;Node2 -->
<g id="edge3" class="edge">
<title>Node2&#45;&gt;Node2</title>
<path fill="none" stroke="midnightblue" d="M162.92,-87.26C152.42,-96.07 159.62,-105.5 184.5,-105.5 200.44,-105.5 209.12,-101.63 210.54,-96.53"/>
<polygon fill="midnightblue" stroke="midnightblue" points="213.57,-94.75 206.08,-87.26 207.26,-97.79 213.57,-94.75"/>
</g>
<!-- Node3 -->
<g id="node3" class="node">
<title>Node3</title>
<g id="a_node3"><a xlink:href="sinex_8cpp.html#a06fabc81a2cc41dfee260450a527ad2d" target="_top" xlink:title=" ">
<polygon fill="white" stroke="black" points="308,-65 308,-84 341,-84 341,-65 308,-65"/>
<text text-anchor="middle" x="324.5" y="-72" font-family="Helvetica,sans-Serif" font-size="10.00">trim</text>
</a>
</g>
</g>
<!-- Node2&#45;&gt;Node3 -->
<g id="edge4" class="edge">
<title>Node2&#45;&gt;Node3</title>
<path fill="none" stroke="midnightblue" d="M244.02,-76.23C262.82,-75.82 282.68,-75.39 297.85,-75.06"/>
<polygon fill="midnightblue" stroke="midnightblue" points="298.06,-78.55 307.98,-74.84 297.9,-71.56 298.06,-78.55"/>
</g>
<!-- Node4&#45;&gt;Node3 -->
<g id="edge9" class="edge">
<title>Node4&#45;&gt;Node3</title>
<path fill="none" stroke="midnightblue" d="M220.68,-30.54C245.06,-40.96 276.91,-54.58 298.67,-63.88"/>
<polygon fill="midnightblue" stroke="midnightblue" points="297.32,-67.11 307.89,-67.83 300.07,-60.68 297.32,-67.11"/>
</g>
<!-- Node4&#45;&gt;Node4 -->
<g id="edge6" class="edge">
<title>Node4&#45;&gt;Node4</title>
<path fill="none" stroke="midnightblue" d="M160.1,-30.66C154.22,-40.06 162.35,-49 184.5,-49 198,-49 206.29,-45.68 209.38,-40.96"/>
<polygon fill="midnightblue" stroke="midnightblue" points="212.86,-40.49 208.9,-30.66 205.87,-40.81 212.86,-40.49"/>
</g>
<!-- Node5 -->
<g id="node5" class="node">
<title>Node5</title>
<g id="a_node5"><a xlink:href="namespacef90getopt.html#a70aa27c3f36f1c121ee916a80ec9b503" target="_top" xlink:title=" ">
<polygon fill="white" stroke="black" points="280,-6 280,-25 369,-25 369,-6 280,-6"/>
<text text-anchor="middle" x="324.5" y="-13" font-family="Helvetica,sans-Serif" font-size="10.00">f90getopt::substr</text>
</a>
</g>
</g>
<!-- Node4&#45;&gt;Node5 -->
<g id="edge7" class="edge">
<title>Node4&#45;&gt;Node5</title>
<path fill="none" stroke="midnightblue" d="M232.61,-15.5C244.56,-15.5 257.5,-15.5 269.75,-15.5"/>
<polygon fill="midnightblue" stroke="midnightblue" points="269.86,-19 279.86,-15.5 269.86,-12 269.86,-19"/>
</g>
<!-- Node5&#45;&gt;Node5 -->
<g id="edge8" class="edge">
<title>Node5&#45;&gt;Node5</title>
<path fill="none" stroke="midnightblue" d="M302.92,-25.26C292.42,-34.07 299.62,-43.5 324.5,-43.5 340.44,-43.5 349.12,-39.63 350.54,-34.53"/>
<polygon fill="midnightblue" stroke="midnightblue" points="353.57,-32.75 346.08,-25.26 347.26,-35.79 353.57,-32.75"/>
</g>
</g>
</svg>
