<?xml version="1.0" encoding="UTF-8" standalone="no"?>
<!DOCTYPE svg PUBLIC "-//W3C//DTD SVG 1.1//EN"
 "http://www.w3.org/Graphics/SVG/1.1/DTD/svg11.dtd">
<!-- Generated by graphviz version 2.50.0 (20220203.2022)
 -->
<!-- Title: m_satmetadata::satmetadata Pages: 1 -->
<svg width="595pt" height="155pt"
 viewBox="0.00 0.00 595.00 155.46" xmlns="http://www.w3.org/2000/svg" xmlns:xlink="http://www.w3.org/1999/xlink">
<g id="graph0" class="graph" transform="scale(1 1) rotate(0) translate(4 151.46)">
<title>m_satmetadata::satmetadata</title>
<polygon fill="white" stroke="transparent" points="-4,4 -4,-151.46 591,-151.46 591,4 -4,4"/>
<!-- Node1 -->
<g id="node1" class="node">
<title>Node1</title>
<g id="a_node1"><a xlink:title=" ">
<polygon fill="#bfbfbf" stroke="black" points="0,-89.96 0,-108.96 143,-108.96 143,-89.96 0,-89.96"/>
<text text-anchor="middle" x="71.5" y="-96.96" font-family="Helvetica,sans-Serif" font-size="10.00">m_satmetadata::satmetadata</text>
</a>
</g>
</g>
<!-- Node2 -->
<g id="node2" class="node">
<title>Node2</title>
<g id="a_node2"><a xlink:href="cal2jd_8for.html#af9bdf5980bab8c8324930b1a0af0175a" target="_top" xlink:title=" ">
<polygon fill="white" stroke="black" points="202,-127.96 202,-146.96 262,-146.96 262,-127.96 202,-127.96"/>
<text text-anchor="middle" x="232" y="-134.96" font-family="Helvetica,sans-Serif" font-size="10.00">iau_cal2jd</text>
</a>
</g>
</g>
<!-- Node1&#45;&gt;Node2 -->
<g id="edge1" class="edge">
<title>Node1&#45;&gt;Node2</title>
<path fill="none" stroke="midnightblue" d="M112.5,-109.05C136.73,-114.86 167.52,-122.24 191.63,-128.02"/>
<polygon fill="midnightblue" stroke="midnightblue" points="190.98,-131.46 201.52,-130.39 192.62,-124.66 190.98,-131.46"/>
</g>
<!-- Node3 -->
<g id="node3" class="node">
<title>Node3</title>
<g id="a_node3"><a xlink:href="jd2cal_8for.html#a9bed91282551283d85294092fe0cc509" target="_top" xlink:title=" ">
<polygon fill="white" stroke="black" points="202,-89.96 202,-108.96 262,-108.96 262,-89.96 202,-89.96"/>
<text text-anchor="middle" x="232" y="-96.96" font-family="Helvetica,sans-Serif" font-size="10.00">iau_jd2cal</text>
</a>
</g>
</g>
<!-- Node1&#45;&gt;Node3 -->
<g id="edge2" class="edge">
<title>Node1&#45;&gt;Node3</title>
<path fill="none" stroke="midnightblue" d="M143.41,-99.46C159.99,-99.46 177.06,-99.46 191.68,-99.46"/>
<polygon fill="midnightblue" stroke="midnightblue" points="191.85,-102.96 201.85,-99.46 191.85,-95.96 191.85,-102.96"/>
</g>
<!-- Node4 -->
<g id="node4" class="node">
<title>Node4</title>
<g id="a_node4"><a xlink:href="namespacem__read__satsnx.html#a0325a5acf4c4a7f382a936c90395e46a" target="_top" xlink:title=" ">
<polygon fill="white" stroke="black" points="179,-40.46 179,-70.46 285,-70.46 285,-40.46 179,-40.46"/>
<text text-anchor="start" x="187" y="-58.46" font-family="Helvetica,sans-Serif" font-size="10.00">m_read_satsnx::read</text>
<text text-anchor="middle" x="232" y="-47.46" font-family="Helvetica,sans-Serif" font-size="10.00">_satsnx</text>
</a>
</g>
</g>
<!-- Node1&#45;&gt;Node4 -->
<g id="edge3" class="edge">
<title>Node1&#45;&gt;Node4</title>
<path fill="none" stroke="midnightblue" d="M106.89,-89.91C125.05,-84.87 147.89,-78.53 169.01,-72.67"/>
<polygon fill="midnightblue" stroke="midnightblue" points="170.19,-75.97 178.89,-69.93 168.32,-69.23 170.19,-75.97"/>
</g>
<!-- Node5 -->
<g id="node5" class="node">
<title>Node5</title>
<g id="a_node5"><a xlink:href="namespacem__read__svsinex.html#ac27ebe3b628563a972696b772c79868c" target="_top" xlink:title=" ">
<polygon fill="white" stroke="red" points="321,-106.46 321,-136.46 441,-136.46 441,-106.46 321,-106.46"/>
<text text-anchor="start" x="329" y="-124.46" font-family="Helvetica,sans-Serif" font-size="10.00">m_read_svsinex::lookup</text>
<text text-anchor="middle" x="381" y="-113.46" font-family="Helvetica,sans-Serif" font-size="10.00">_sinex</text>
</a>
</g>
</g>
<!-- Node4&#45;&gt;Node5 -->
<g id="edge4" class="edge">
<title>Node4&#45;&gt;Node5</title>
<path fill="none" stroke="midnightblue" d="M266.72,-70.6C287.64,-79.99 314.71,-92.14 337.13,-102.21"/>
<polygon fill="midnightblue" stroke="midnightblue" points="335.88,-105.49 346.43,-106.39 338.74,-99.1 335.88,-105.49"/>
</g>
<!-- Node9 -->
<g id="node6" class="node">
<title>Node9</title>
<g id="a_node6"><a xlink:href="report_8f90.html#ad7b70277944dcb0bbfd72a8dbe9ad4df" target="_top" xlink:title=" ">
<polygon fill="white" stroke="red" points="477,-65.96 477,-84.96 518,-84.96 518,-65.96 477,-65.96"/>
<text text-anchor="middle" x="497.5" y="-72.96" font-family="Helvetica,sans-Serif" font-size="10.00">report</text>
</a>
</g>
</g>
<!-- Node4&#45;&gt;Node9 -->
<g id="edge11" class="edge">
<title>Node4&#45;&gt;Node9</title>
<path fill="none" stroke="midnightblue" d="M285.06,-59.41C339.37,-63.53 422.63,-69.85 466.72,-73.2"/>
<polygon fill="midnightblue" stroke="midnightblue" points="466.55,-76.7 476.79,-73.96 467.08,-69.72 466.55,-76.7"/>
</g>
<!-- Node11 -->
<g id="node7" class="node">
<title>Node11</title>
<g id="a_node7"><a xlink:href="sinex_8cpp.html#a06fabc81a2cc41dfee260450a527ad2d" target="_top" xlink:title=" ">
<polygon fill="white" stroke="black" points="554,-43.96 554,-62.96 587,-62.96 587,-43.96 554,-43.96"/>
<text text-anchor="middle" x="570.5" y="-50.96" font-family="Helvetica,sans-Serif" font-size="10.00">trim</text>
</a>
</g>
</g>
<!-- Node4&#45;&gt;Node11 -->
<g id="edge12" class="edge">
<title>Node4&#45;&gt;Node11</title>
<path fill="none" stroke="midnightblue" d="M254.19,-40.29C271.3,-29.02 296.47,-14.6 321,-8.46 372.74,4.49 388.42,0.48 441,-8.46 478.24,-14.79 519.05,-30.75 544.47,-41.85"/>
<polygon fill="midnightblue" stroke="midnightblue" points="543.18,-45.11 553.74,-45.98 546.03,-38.71 543.18,-45.11"/>
</g>
<!-- Node15 -->
<g id="node8" class="node">
<title>Node15</title>
<g id="a_node8"><a xlink:href="namespacem__read__svsinex.html#ac2ff3910d5159e29b8bbb4c4713197bd" target="_top" xlink:title=" ">
<polygon fill="white" stroke="red" points="326,-18.46 326,-48.46 436,-48.46 436,-18.46 326,-18.46"/>
<text text-anchor="start" x="334" y="-36.46" font-family="Helvetica,sans-Serif" font-size="10.00">m_read_svsinex::read</text>
<text text-anchor="middle" x="381" y="-25.46" font-family="Helvetica,sans-Serif" font-size="10.00">_sinex_file</text>
</a>
</g>
</g>
<!-- Node4&#45;&gt;Node15 -->
<g id="edge8" class="edge">
<title>Node4&#45;&gt;Node15</title>
<path fill="none" stroke="midnightblue" d="M285.24,-47.64C295.14,-46.16 305.61,-44.59 315.83,-43.06"/>
<polygon fill="midnightblue" stroke="midnightblue" points="316.57,-46.49 325.94,-41.55 315.53,-39.57 316.57,-46.49"/>
</g>
<!-- Node5&#45;&gt;Node9 -->
<g id="edge5" class="edge">
<title>Node5&#45;&gt;Node9</title>
<path fill="none" stroke="midnightblue" d="M419.49,-106.4C435.07,-100.14 452.88,-92.99 467.44,-87.14"/>
<polygon fill="midnightblue" stroke="midnightblue" points="468.96,-90.3 476.93,-83.32 466.35,-83.8 468.96,-90.3"/>
</g>
<!-- Node5&#45;&gt;Node11 -->
<g id="edge7" class="edge">
<title>Node5&#45;&gt;Node11</title>
<path fill="none" stroke="midnightblue" d="M441.15,-115.95C465.75,-112.09 494.09,-105.55 518,-94.46 530.83,-88.51 543.29,-78.73 552.74,-70.22"/>
<polygon fill="midnightblue" stroke="midnightblue" points="555.32,-72.59 560.2,-63.19 550.52,-67.5 555.32,-72.59"/>
</g>
<!-- Node9&#45;&gt;Node11 -->
<g id="edge6" class="edge">
<title>Node9&#45;&gt;Node11</title>
<path fill="none" stroke="midnightblue" d="M518.28,-69.33C526.21,-66.87 535.46,-64.01 543.9,-61.39"/>
<polygon fill="midnightblue" stroke="midnightblue" points="545.13,-64.68 553.64,-58.37 543.06,-57.99 545.13,-64.68"/>
</g>
<!-- Node15&#45;&gt;Node9 -->
<g id="edge9" class="edge">
<title>Node15&#45;&gt;Node9</title>
<path fill="none" stroke="midnightblue" d="M423.01,-48.5C437.64,-53.87 453.8,-59.8 467.24,-64.73"/>
<polygon fill="midnightblue" stroke="midnightblue" points="466.32,-68.12 476.91,-68.28 468.73,-61.55 466.32,-68.12"/>
</g>
<!-- Node15&#45;&gt;Node11 -->
<g id="edge10" class="edge">
<title>Node15&#45;&gt;Node11</title>
<path fill="none" stroke="midnightblue" d="M436.23,-39.24C471.56,-43.01 516.05,-47.76 543.64,-50.7"/>
<polygon fill="midnightblue" stroke="midnightblue" points="543.35,-54.19 553.67,-51.77 544.1,-47.23 543.35,-54.19"/>
</g>
</g>
</svg>
