<?xml version="1.0" encoding="UTF-8" standalone="no"?>
<!DOCTYPE svg PUBLIC "-//W3C//DTD SVG 1.1//EN"
 "http://www.w3.org/Graphics/SVG/1.1/DTD/svg11.dtd">
<!-- Generated by graphviz version 2.50.0 (20220203.2022)
 -->
<!-- Title: m_statist::statist Pages: 1 -->
<svg width="377pt" height="104pt"
 viewBox="0.00 0.00 377.00 104.00" xmlns="http://www.w3.org/2000/svg" xmlns:xlink="http://www.w3.org/1999/xlink">
<g id="graph0" class="graph" transform="scale(1 1) rotate(0) translate(4 100)">
<title>m_statist::statist</title>
<polygon fill="white" stroke="transparent" points="-4,4 -4,-100 373,-100 373,4 -4,4"/>
<!-- Node1 -->
<g id="node1" class="node">
<title>Node1</title>
<g id="a_node1"><a xlink:title=" ">
<polygon fill="#bfbfbf" stroke="black" points="280,-19.5 280,-38.5 369,-38.5 369,-19.5 280,-19.5"/>
<text text-anchor="middle" x="324.5" y="-26.5" font-family="Helvetica,sans-Serif" font-size="10.00">m_statist::statist</text>
</a>
</g>
</g>
<!-- Node2 -->
<g id="node2" class="node">
<title>Node2</title>
<g id="a_node2"><a xlink:href="namespacem__statdelta.html#a8233872ed966bef447929ab7eeb960d8" target="_top" xlink:title=" ">
<polygon fill="white" stroke="black" points="134,-38.5 134,-57.5 244,-57.5 244,-38.5 134,-38.5"/>
<text text-anchor="middle" x="189" y="-45.5" font-family="Helvetica,sans-Serif" font-size="10.00">m_statdelta::statdelta</text>
</a>
</g>
</g>
<!-- Node1&#45;&gt;Node2 -->
<g id="edge1" class="edge">
<title>Node1&#45;&gt;Node2</title>
<path fill="none" stroke="midnightblue" d="M269.68,-36.66C261.24,-37.86 252.52,-39.1 244.08,-40.3"/>
<polygon fill="midnightblue" stroke="midnightblue" points="270.38,-40.1 279.79,-35.22 269.39,-33.17 270.38,-40.1"/>
</g>
<!-- Node8 -->
<g id="node6" class="node">
<title>Node8</title>
<g id="a_node6"><a xlink:href="namespacem__statorbit.html#a56a49355e7e28cab9185c86483b3e452" target="_top" xlink:title=" ">
<polygon fill="white" stroke="black" points="136.5,-0.5 136.5,-19.5 241.5,-19.5 241.5,-0.5 136.5,-0.5"/>
<text text-anchor="middle" x="189" y="-7.5" font-family="Helvetica,sans-Serif" font-size="10.00">m_statorbit::statorbit</text>
</a>
</g>
</g>
<!-- Node1&#45;&gt;Node8 -->
<g id="edge5" class="edge">
<title>Node1&#45;&gt;Node8</title>
<path fill="none" stroke="midnightblue" d="M269.88,-21.37C260.59,-20.05 250.95,-18.67 241.71,-17.36"/>
<polygon fill="midnightblue" stroke="midnightblue" points="269.39,-24.83 279.79,-22.78 270.38,-17.9 269.39,-24.83"/>
</g>
<!-- Node3 -->
<g id="node3" class="node">
<title>Node3</title>
<g id="a_node3"><a xlink:href="namespacem__orbdet.html#a49487178b457ba359e3528454fee1a43" target="_top" xlink:title=" ">
<polygon fill="white" stroke="red" points="4.5,-76.5 4.5,-95.5 93.5,-95.5 93.5,-76.5 4.5,-76.5"/>
<text text-anchor="middle" x="49" y="-83.5" font-family="Helvetica,sans-Serif" font-size="10.00">m_orbdet::orbdet</text>
</a>
</g>
</g>
<!-- Node2&#45;&gt;Node3 -->
<g id="edge2" class="edge">
<title>Node2&#45;&gt;Node3</title>
<path fill="none" stroke="midnightblue" d="M143.53,-60.25C124.51,-65.48 102.62,-71.51 84.81,-76.41"/>
<polygon fill="midnightblue" stroke="midnightblue" points="144.46,-63.62 153.18,-57.59 142.61,-56.87 144.46,-63.62"/>
</g>
<!-- Node6 -->
<g id="node4" class="node">
<title>Node6</title>
<g id="a_node4"><a xlink:href="namespacem__orbext.html#a5d9ae5d81af99b9d31eee5b6ec19d51f" target="_top" xlink:title=" ">
<polygon fill="white" stroke="red" points="5.5,-0.5 5.5,-19.5 92.5,-19.5 92.5,-0.5 5.5,-0.5"/>
<text text-anchor="middle" x="49" y="-7.5" font-family="Helvetica,sans-Serif" font-size="10.00">m_orbext::orbext</text>
</a>
</g>
</g>
<!-- Node2&#45;&gt;Node6 -->
<g id="edge3" class="edge">
<title>Node2&#45;&gt;Node6</title>
<path fill="none" stroke="midnightblue" d="M143.53,-35.75C124.51,-30.52 102.62,-24.49 84.81,-19.59"/>
<polygon fill="midnightblue" stroke="midnightblue" points="142.61,-39.13 153.18,-38.41 144.46,-32.38 142.61,-39.13"/>
</g>
<!-- Node7 -->
<g id="node5" class="node">
<title>Node7</title>
<g id="a_node5"><a xlink:href="namespacem__orbext2.html#a8edc32bdc671004ee3dcaa85b4f1f176" target="_top" xlink:title=" ">
<polygon fill="white" stroke="red" points="0,-38.5 0,-57.5 98,-57.5 98,-38.5 0,-38.5"/>
<text text-anchor="middle" x="49" y="-45.5" font-family="Helvetica,sans-Serif" font-size="10.00">m_orbext2::orbext2</text>
</a>
</g>
</g>
<!-- Node2&#45;&gt;Node7 -->
<g id="edge4" class="edge">
<title>Node2&#45;&gt;Node7</title>
<path fill="none" stroke="midnightblue" d="M123.8,-48C115.18,-48 106.45,-48 98.16,-48"/>
<polygon fill="midnightblue" stroke="midnightblue" points="123.85,-51.5 133.85,-48 123.85,-44.5 123.85,-51.5"/>
</g>
<!-- Node8&#45;&gt;Node6 -->
<g id="edge6" class="edge">
<title>Node8&#45;&gt;Node6</title>
<path fill="none" stroke="midnightblue" d="M125.97,-10C114.69,-10 103.17,-10 92.61,-10"/>
<polygon fill="midnightblue" stroke="midnightblue" points="126.22,-13.5 136.22,-10 126.22,-6.5 126.22,-13.5"/>
</g>
<!-- Node8&#45;&gt;Node7 -->
<g id="edge7" class="edge">
<title>Node8&#45;&gt;Node7</title>
<path fill="none" stroke="midnightblue" d="M143.53,-22.25C124.51,-27.48 102.62,-33.51 84.81,-38.41"/>
<polygon fill="midnightblue" stroke="midnightblue" points="144.46,-25.62 153.18,-19.59 142.61,-18.87 144.46,-25.62"/>
</g>
</g>
</svg>
