<?xml version="1.0" encoding="UTF-8" standalone="no"?>
<!DOCTYPE svg PUBLIC "-//W3C//DTD SVG 1.1//EN"
 "http://www.w3.org/Graphics/SVG/1.1/DTD/svg11.dtd">
<!-- Generated by graphviz version 2.50.0 (20220203.2022)
 -->
<!-- Title: m_read_svsinex::qsort_sinex_prn Pages: 1 -->
<svg width="238pt" height="52pt"
 viewBox="0.00 0.00 238.00 51.50" xmlns="http://www.w3.org/2000/svg" xmlns:xlink="http://www.w3.org/1999/xlink">
<g id="graph0" class="graph" transform="scale(1 1) rotate(0) translate(4 47.5)">
<title>m_read_svsinex::qsort_sinex_prn</title>
<polygon fill="white" stroke="transparent" points="-4,4 -4,-47.5 234,-47.5 234,4 -4,4"/>
<!-- Node1 -->
<g id="node1" class="node">
<title>Node1</title>
<g id="a_node1"><a xlink:title=" ">
<polygon fill="#bfbfbf" stroke="black" points="0,-0.5 0,-30.5 113,-30.5 113,-0.5 0,-0.5"/>
<text text-anchor="start" x="8" y="-18.5" font-family="Helvetica,sans-Serif" font-size="10.00">m_read_svsinex::qsort</text>
<text text-anchor="middle" x="56.5" y="-7.5" font-family="Helvetica,sans-Serif" font-size="10.00">_sinex_prn</text>
</a>
</g>
</g>
<!-- Node2 -->
<g id="node2" class="node">
<title>Node2</title>
<g id="a_node2"><a xlink:href="m__read__svsinex_8f95.html#a1c7587cbe9ac4b3c041d77fd0a8166e3" target="_top" xlink:title=" ">
<polygon fill="white" stroke="black" points="149,-6 149,-25 230,-25 230,-6 149,-6"/>
<text text-anchor="middle" x="189.5" y="-13" font-family="Helvetica,sans-Serif" font-size="10.00">qsort_compare</text>
</a>
</g>
</g>
<!-- Node1&#45;&gt;Node2 -->
<g id="edge1" class="edge">
<title>Node1&#45;&gt;Node2</title>
<path fill="none" stroke="midnightblue" d="M113.06,-15.5C121.58,-15.5 130.34,-15.5 138.73,-15.5"/>
<polygon fill="midnightblue" stroke="midnightblue" points="138.75,-19 148.75,-15.5 138.75,-12 138.75,-19"/>
</g>
<!-- Node2&#45;&gt;Node2 -->
<g id="edge2" class="edge">
<title>Node2&#45;&gt;Node2</title>
<path fill="none" stroke="midnightblue" d="M169.15,-25.26C159.26,-34.07 166.04,-43.5 189.5,-43.5 204.53,-43.5 212.71,-39.63 214.05,-34.53"/>
<polygon fill="midnightblue" stroke="midnightblue" points="217.17,-32.92 209.85,-25.26 210.79,-35.81 217.17,-32.92"/>
</g>
</g>
</svg>
