<?xml version="1.0" encoding="UTF-8" standalone="no"?>
<!DOCTYPE svg PUBLIC "-//W3C//DTD SVG 1.1//EN"
 "http://www.w3.org/Graphics/SVG/1.1/DTD/svg11.dtd">
<!-- Generated by graphviz version 2.50.0 (20220203.2022)
 -->
<!-- Title: pod_yaml::get_yaml_pulses Pages: 1 -->
<svg width="383pt" height="124pt"
 viewBox="0.00 0.00 383.00 124.00" xmlns="http://www.w3.org/2000/svg" xmlns:xlink="http://www.w3.org/1999/xlink">
<g id="graph0" class="graph" transform="scale(1 1) rotate(0) translate(4 120)">
<title>pod_yaml::get_yaml_pulses</title>
<polygon fill="white" stroke="transparent" points="-4,4 -4,-120 379,-120 379,4 -4,4"/>
<!-- Node1 -->
<g id="node1" class="node">
<title>Node1</title>
<g id="a_node1"><a xlink:title=" ">
<polygon fill="#bfbfbf" stroke="black" points="0,-33.5 0,-63.5 101,-63.5 101,-33.5 0,-33.5"/>
<text text-anchor="start" x="8" y="-51.5" font-family="Helvetica,sans-Serif" font-size="10.00">pod_yaml::get_yaml</text>
<text text-anchor="middle" x="50.5" y="-40.5" font-family="Helvetica,sans-Serif" font-size="10.00">_pulses</text>
</a>
</g>
</g>
<!-- Node1&#45;&gt;Node1 -->
<g id="edge7" class="edge">
<title>Node1&#45;&gt;Node1</title>
<path fill="none" stroke="midnightblue" d="M25.06,-63.66C18.92,-73.06 27.4,-82 50.5,-82 64.58,-82 73.22,-78.68 76.44,-73.96"/>
<polygon fill="midnightblue" stroke="midnightblue" points="79.92,-73.48 75.94,-63.66 72.93,-73.82 79.92,-73.48"/>
</g>
<!-- Node2 -->
<g id="node2" class="node">
<title>Node2</title>
<g id="a_node2"><a xlink:href="namespacepod__yaml.html#a73a666fc6230b11489d5a3fc16b980d8" target="_top" xlink:title=" ">
<polygon fill="white" stroke="black" points="146,-67.5 146,-97.5 250,-97.5 250,-67.5 146,-67.5"/>
<text text-anchor="start" x="154" y="-85.5" font-family="Helvetica,sans-Serif" font-size="10.00">pod_yaml::get_pulse</text>
<text text-anchor="middle" x="198" y="-74.5" font-family="Helvetica,sans-Serif" font-size="10.00">_parms</text>
</a>
</g>
</g>
<!-- Node1&#45;&gt;Node2 -->
<g id="edge1" class="edge">
<title>Node1&#45;&gt;Node2</title>
<path fill="none" stroke="midnightblue" d="M101.17,-60.11C112.24,-62.69 124.12,-65.47 135.61,-68.15"/>
<polygon fill="midnightblue" stroke="midnightblue" points="135.04,-71.62 145.58,-70.48 136.63,-64.8 135.04,-71.62"/>
</g>
<!-- Node4 -->
<g id="node4" class="node">
<title>Node4</title>
<g id="a_node4"><a xlink:href="namespacepod__yaml.html#a89669454b72a5dadaea9de7ce5ee3cc5" target="_top" xlink:title=" ">
<polygon fill="white" stroke="black" points="137,-0.5 137,-30.5 259,-30.5 259,-0.5 137,-0.5"/>
<text text-anchor="start" x="145" y="-18.5" font-family="Helvetica,sans-Serif" font-size="10.00">pod_yaml::get_reference</text>
<text text-anchor="middle" x="198" y="-7.5" font-family="Helvetica,sans-Serif" font-size="10.00">_system</text>
</a>
</g>
</g>
<!-- Node1&#45;&gt;Node4 -->
<g id="edge5" class="edge">
<title>Node1&#45;&gt;Node4</title>
<path fill="none" stroke="midnightblue" d="M101.17,-37.24C109.54,-35.34 118.37,-33.33 127.14,-31.34"/>
<polygon fill="midnightblue" stroke="midnightblue" points="128.02,-34.73 137,-29.11 126.47,-27.91 128.02,-34.73"/>
</g>
<!-- Node2&#45;&gt;Node2 -->
<g id="edge2" class="edge">
<title>Node2&#45;&gt;Node2</title>
<path fill="none" stroke="midnightblue" d="M174.3,-97.66C168.58,-107.06 176.48,-116 198,-116 211.11,-116 219.17,-112.68 222.17,-107.96"/>
<polygon fill="midnightblue" stroke="midnightblue" points="225.65,-107.49 221.7,-97.66 218.66,-107.81 225.65,-107.49"/>
</g>
<!-- Node3 -->
<g id="node3" class="node">
<title>Node3</title>
<g id="a_node3"><a xlink:href="namespacepod__yaml.html#a59ea539cabb34ef7985e7e57c4b9dd93" target="_top" xlink:title=" ">
<polygon fill="white" stroke="black" points="295,-73 295,-92 375,-92 375,-73 295,-73"/>
<text text-anchor="middle" x="335" y="-80" font-family="Helvetica,sans-Serif" font-size="10.00">pod_yaml::pow</text>
</a>
</g>
</g>
<!-- Node2&#45;&gt;Node3 -->
<g id="edge3" class="edge">
<title>Node2&#45;&gt;Node3</title>
<path fill="none" stroke="midnightblue" d="M250.04,-82.5C261.36,-82.5 273.33,-82.5 284.59,-82.5"/>
<polygon fill="midnightblue" stroke="midnightblue" points="284.68,-86 294.68,-82.5 284.68,-79 284.68,-86"/>
</g>
<!-- Node3&#45;&gt;Node3 -->
<g id="edge4" class="edge">
<title>Node3&#45;&gt;Node3</title>
<path fill="none" stroke="midnightblue" d="M314.04,-92.26C303.84,-101.07 310.83,-110.5 335,-110.5 350.49,-110.5 358.92,-106.63 360.3,-101.53"/>
<polygon fill="midnightblue" stroke="midnightblue" points="363.37,-99.83 355.96,-92.26 357.03,-102.8 363.37,-99.83"/>
</g>
<!-- Node4&#45;&gt;Node4 -->
<g id="edge6" class="edge">
<title>Node4&#45;&gt;Node4</title>
<path fill="none" stroke="midnightblue" d="M174.3,-30.66C168.58,-40.06 176.48,-49 198,-49 211.11,-49 219.17,-45.68 222.17,-40.96"/>
<polygon fill="midnightblue" stroke="midnightblue" points="225.65,-40.49 221.7,-30.66 218.66,-40.81 225.65,-40.49"/>
</g>
</g>
</svg>
