<?xml version="1.0" encoding="UTF-8" standalone="no"?>
<!DOCTYPE svg PUBLIC "-//W3C//DTD SVG 1.1//EN"
 "http://www.w3.org/Graphics/SVG/1.1/DTD/svg11.dtd">
<!-- Generated by graphviz version 2.50.0 (20220203.2022)
 -->
<!-- Title: pod_yaml::get_yaml Pages: 1 -->
<!--zoomable 1411 -->
<svg id="main" version="1.1" xmlns="http://www.w3.org/2000/svg" xmlns:xlink="http://www.w3.org/1999/xlink" xml:space="preserve" onload="init(evt)">
<style type="text/css"><![CDATA[
.edge:hover path { stroke: red; }
.edge:hover polygon { stroke: red; fill: red; }
]]></style>
<script type="text/javascript"><![CDATA[
var edges = document.getElementsByTagName('g');
if (edges && edges.length) {
  for (var i=0;i<edges.length;i++) {
    if (edges[i].id.substr(0,4)=='edge') {
      edges[i].setAttribute('class','edge');
    }
  }
}
]]></script>
        <defs>
                <circle id="rim" cx="0" cy="0" r="7"/>
                <circle id="rim2" cx="0" cy="0" r="3.5"/>
                <g id="zoomPlus">
                        <use xlink:href="#rim" fill="#404040">
                                <set attributeName="fill" to="#808080" begin="zoomplus.mouseover" end="zoomplus.mouseout"/>
                        </use>
                        <path d="M-4,0h8M0,-4v8" fill="none" stroke="white" stroke-width="1.5" pointer-events="none"/>
                </g>
                <g id="zoomMin">
                        <use xlink:href="#rim" fill="#404040">
                                <set attributeName="fill" to="#808080" begin="zoomminus.mouseover" end="zoomminus.mouseout"/>
                        </use>
                        <path d="M-4,0h8" fill="none" stroke="white" stroke-width="1.5" pointer-events="none"/>
                </g>
                <g id="dirArrow">
                        <path fill="none" stroke="white" stroke-width="1.5" d="M0,-3.0v7 M-2.5,-0.5L0,-3.0L2.5,-0.5"/>
                </g>
               <g id="resetDef">
                       <use xlink:href="#rim2" fill="#404040">
                               <set attributeName="fill" to="#808080" begin="reset.mouseover" end="reset.mouseout"/>
                       </use>
               </g>
        </defs>

<script type="text/javascript">
var viewWidth = 568;
var viewHeight = 1411;
var sectionId = 'dynsection-45';
</script>
<script xlink:href="svgpan.js"/>
<svg id="graph" class="graph">
<g id="viewport">
<title>pod_yaml::get_yaml</title>
<polygon fill="white" stroke="transparent" points="-4,4 -4,-1407.43 564,-1407.43 564,4 -4,4"/>
<!-- Node1 -->
<g id="node1" class="node">
<title>Node1</title>
<g id="a_node1"><a xlink:title=" ">
<polygon fill="#bfbfbf" stroke="black" points="0,-679.93 0,-698.93 101,-698.93 101,-679.93 0,-679.93"/>
<text text-anchor="middle" x="50.5" y="-686.93" font-family="Helvetica,sans-Serif" font-size="10.00">pod_yaml::get_yaml</text>
</a>
</g>
</g>
<!-- Node2 -->
<g id="node2" class="node">
<title>Node2</title>
<g id="a_node2"><a xlink:href="namespacepod__yaml.html#a83bf15d72f8dc0e95e6c44bbdb408642" target="_top" xlink:title=" ">
<polygon fill="white" stroke="black" points="148.5,-1365.93 148.5,-1384.93 274.5,-1384.93 274.5,-1365.93 148.5,-1365.93"/>
<text text-anchor="middle" x="211.5" y="-1372.93" font-family="Helvetica,sans-Serif" font-size="10.00">pod_yaml::get_apriori_srp</text>
</a>
</g>
</g>
<!-- Node1&#45;&gt;Node2 -->
<g id="edge1" class="edge">
<title>Node1&#45;&gt;Node2</title>
<path fill="none" stroke="midnightblue" d="M51.32,-699.12C50.1,-773.43 45.89,-1253.1 137,-1356.43 138.17,-1357.76 139.42,-1358.99 140.73,-1360.15"/>
<polygon fill="midnightblue" stroke="midnightblue" points="138.74,-1363.03 148.93,-1365.93 142.77,-1357.31 138.74,-1363.03"/>
</g>
<!-- Node3 -->
<g id="node3" class="node">
<title>Node3</title>
<g id="a_node3"><a xlink:href="namespacepod__yaml.html#a7d0ab437335c9a35e79c3a93939b886f" target="_top" xlink:title=" ">
<polygon fill="white" stroke="black" points="141,-1327.93 141,-1346.93 282,-1346.93 282,-1327.93 141,-1327.93"/>
<text text-anchor="middle" x="211.5" y="-1334.93" font-family="Helvetica,sans-Serif" font-size="10.00">pod_yaml::get_constellations</text>
</a>
</g>
</g>
<!-- Node1&#45;&gt;Node3 -->
<g id="edge3" class="edge">
<title>Node1&#45;&gt;Node3</title>
<path fill="none" stroke="midnightblue" d="M51.4,-699.02C50.84,-770.6 50.8,-1221.43 137,-1318.43 138.17,-1319.75 139.43,-1320.99 140.75,-1322.14"/>
<polygon fill="midnightblue" stroke="midnightblue" points="138.76,-1325.02 148.96,-1327.9 142.78,-1319.29 138.76,-1325.02"/>
</g>
<!-- Node4 -->
<g id="node4" class="node">
<title>Node4</title>
<g id="a_node4"><a xlink:href="namespacepod__yaml.html#a7ce6f5b66f4c0f925a9587f8f0c54a2b" target="_top" xlink:title=" ">
<polygon fill="white" stroke="black" points="159.5,-1278.43 159.5,-1308.43 263.5,-1308.43 263.5,-1278.43 159.5,-1278.43"/>
<text text-anchor="start" x="167.5" y="-1296.43" font-family="Helvetica,sans-Serif" font-size="10.00">pod_yaml::get_earth</text>
<text text-anchor="middle" x="211.5" y="-1285.43" font-family="Helvetica,sans-Serif" font-size="10.00">_orientation_params</text>
</a>
</g>
</g>
<!-- Node1&#45;&gt;Node4 -->
<g id="edge4" class="edge">
<title>Node1&#45;&gt;Node4</title>
<path fill="none" stroke="midnightblue" d="M51.59,-699.06C52.45,-767.23 60.73,-1176.91 137,-1268.43 140.67,-1272.83 145.14,-1276.46 150.06,-1279.45"/>
<polygon fill="midnightblue" stroke="midnightblue" points="148.8,-1282.74 159.3,-1284.18 151.99,-1276.51 148.8,-1282.74"/>
</g>
<!-- Node5 -->
<g id="node5" class="node">
<title>Node5</title>
<g id="a_node5"><a xlink:href="namespacepod__yaml.html#a4a783b917ae711091821a76a51d4cd5f" target="_top" xlink:title=" ">
<polygon fill="white" stroke="black" points="144.5,-1221.93 144.5,-1240.93 278.5,-1240.93 278.5,-1221.93 144.5,-1221.93"/>
<text text-anchor="middle" x="211.5" y="-1228.93" font-family="Helvetica,sans-Serif" font-size="10.00">pod_yaml::get_ecom_mode</text>
</a>
</g>
</g>
<!-- Node1&#45;&gt;Node5 -->
<g id="edge5" class="edge">
<title>Node1&#45;&gt;Node5</title>
<path fill="none" stroke="midnightblue" d="M51.69,-699C53.14,-763.38 64.58,-1133.1 137,-1212.43 138.19,-1213.74 139.46,-1214.96 140.79,-1216.1"/>
<polygon fill="midnightblue" stroke="midnightblue" points="138.85,-1219.01 149.07,-1221.8 142.82,-1213.24 138.85,-1219.01"/>
</g>
<!-- Node6 -->
<g id="node6" class="node">
<title>Node6</title>
<g id="a_node6"><a xlink:href="namespacepod__yaml.html#aa1e2ebc78883db39aba55ed096d21216" target="_top" xlink:title=" ">
<polygon fill="white" stroke="black" points="152.5,-176.43 152.5,-206.43 270.5,-206.43 270.5,-176.43 152.5,-176.43"/>
<text text-anchor="start" x="160.5" y="-194.43" font-family="Helvetica,sans-Serif" font-size="10.00">pod_yaml::get_ext_orbit</text>
<text text-anchor="middle" x="211.5" y="-183.43" font-family="Helvetica,sans-Serif" font-size="10.00">_frame</text>
</a>
</g>
</g>
<!-- Node1&#45;&gt;Node6 -->
<g id="edge7" class="edge">
<title>Node1&#45;&gt;Node6</title>
<path fill="none" stroke="midnightblue" d="M52.21,-679.79C56.74,-620.87 82.94,-309.39 137,-233.43 143.33,-224.54 152.17,-217.27 161.54,-211.43"/>
<polygon fill="midnightblue" stroke="midnightblue" points="163.28,-214.47 170.23,-206.47 159.81,-208.39 163.28,-214.47"/>
</g>
<!-- Node8 -->
<g id="node8" class="node">
<title>Node8</title>
<g id="a_node8"><a xlink:href="namespacepod__yaml.html#a81d27deaaa81afe0249f29fc671d3b54" target="_top" xlink:title=" ">
<polygon fill="white" stroke="black" points="143,-1109.93 143,-1128.93 280,-1128.93 280,-1109.93 143,-1109.93"/>
<text text-anchor="middle" x="211.5" y="-1116.93" font-family="Helvetica,sans-Serif" font-size="10.00">pod_yaml::get_ext_orbit_opt</text>
</a>
</g>
</g>
<!-- Node1&#45;&gt;Node8 -->
<g id="edge11" class="edge">
<title>Node1&#45;&gt;Node8</title>
<path fill="none" stroke="midnightblue" d="M52.15,-699.04C56.14,-755.12 79.04,-1039.63 137,-1100.43 138.25,-1101.74 139.58,-1102.97 140.97,-1104.11"/>
<polygon fill="midnightblue" stroke="midnightblue" points="139.32,-1107.22 149.59,-1109.83 143.19,-1101.38 139.32,-1107.22"/>
</g>
<!-- Node9 -->
<g id="node9" class="node">
<title>Node9</title>
<g id="a_node9"><a xlink:href="namespacepod__yaml.html#a6d895765ba28711734563bf212a8a51d" target="_top" xlink:title=" ">
<polygon fill="white" stroke="black" points="140.5,-1071.93 140.5,-1090.93 282.5,-1090.93 282.5,-1071.93 140.5,-1071.93"/>
<text text-anchor="middle" x="211.5" y="-1078.93" font-family="Helvetica,sans-Serif" font-size="10.00">pod_yaml::get_extorbit_comp</text>
</a>
</g>
</g>
<!-- Node1&#45;&gt;Node9 -->
<g id="edge13" class="edge">
<title>Node1&#45;&gt;Node9</title>
<path fill="none" stroke="midnightblue" d="M52.38,-699.18C57.4,-752.46 83.96,-1007.9 137,-1062.43 138.26,-1063.73 139.6,-1064.94 141.01,-1066.08"/>
<polygon fill="midnightblue" stroke="midnightblue" points="139.39,-1069.2 149.67,-1071.75 143.22,-1063.34 139.39,-1069.2"/>
</g>
<!-- Node10 -->
<g id="node10" class="node">
<title>Node10</title>
<g id="a_node10"><a xlink:href="namespacepod__yaml.html#af24816f222ca3c680531263ffdc4fded" target="_top" xlink:title=" ">
<polygon fill="white" stroke="black" points="156.5,-1004.43 156.5,-1034.43 266.5,-1034.43 266.5,-1004.43 156.5,-1004.43"/>
<text text-anchor="start" x="164.5" y="-1022.43" font-family="Helvetica,sans-Serif" font-size="10.00">pod_yaml::get_gravity</text>
<text text-anchor="middle" x="211.5" y="-1011.43" font-family="Helvetica,sans-Serif" font-size="10.00">_model</text>
</a>
</g>
</g>
<!-- Node1&#45;&gt;Node10 -->
<g id="edge14" class="edge">
<title>Node1&#45;&gt;Node10</title>
<path fill="none" stroke="midnightblue" d="M51.19,-699.17C50.39,-740.78 52.87,-905.58 137,-994.43 140.11,-997.71 143.66,-1000.56 147.49,-1003.04"/>
<polygon fill="midnightblue" stroke="midnightblue" points="145.81,-1006.11 156.25,-1007.89 149.2,-999.98 145.81,-1006.11"/>
</g>
<!-- Node11 -->
<g id="node11" class="node">
<title>Node11</title>
<g id="a_node11"><a xlink:href="namespacepod__yaml.html#a25fef76a61bafd68263f309dd7b72179" target="_top" xlink:title=" ">
<polygon fill="white" stroke="black" points="149,-947.93 149,-966.93 274,-966.93 274,-947.93 149,-947.93"/>
<text text-anchor="middle" x="211.5" y="-954.93" font-family="Helvetica,sans-Serif" font-size="10.00">pod_yaml::get_iau_model</text>
</a>
</g>
</g>
<!-- Node1&#45;&gt;Node11 -->
<g id="edge16" class="edge">
<title>Node1&#45;&gt;Node11</title>
<path fill="none" stroke="midnightblue" d="M51.73,-699.02C53.14,-735.95 63.35,-870.3 137,-938.43 138.69,-939.99 140.49,-941.43 142.38,-942.76"/>
<polygon fill="midnightblue" stroke="midnightblue" points="140.76,-945.86 151.16,-947.85 144.27,-939.81 140.76,-945.86"/>
</g>
<!-- Node12 -->
<g id="node12" class="node">
<title>Node12</title>
<g id="a_node12"><a xlink:href="namespacepod__yaml.html#a9869072d839d829f0ae57d21d92a8e40" target="_top" xlink:title=" ">
<polygon fill="white" stroke="black" points="160.5,-880.43 160.5,-910.43 262.5,-910.43 262.5,-880.43 160.5,-880.43"/>
<text text-anchor="start" x="168.5" y="-898.43" font-family="Helvetica,sans-Serif" font-size="10.00">pod_yaml::get_input</text>
<text text-anchor="middle" x="211.5" y="-887.43" font-family="Helvetica,sans-Serif" font-size="10.00">_format</text>
</a>
</g>
</g>
<!-- Node1&#45;&gt;Node12 -->
<g id="edge18" class="edge">
<title>Node1&#45;&gt;Node12</title>
<path fill="none" stroke="midnightblue" d="M53.65,-699.29C60.53,-728.63 84.7,-816.41 137,-865.43 141.32,-869.48 146.25,-873.01 151.48,-876.09"/>
<polygon fill="midnightblue" stroke="midnightblue" points="150.01,-879.27 160.49,-880.85 153.28,-873.08 150.01,-879.27"/>
</g>
<!-- Node13 -->
<g id="node13" class="node">
<title>Node13</title>
<g id="a_node13"><a xlink:href="namespacepod__yaml.html#aaaf9bf2a16d4353760f2401861807b2c" target="_top" xlink:title=" ">
<polygon fill="white" stroke="black" points="160.5,-109.43 160.5,-139.43 262.5,-139.43 262.5,-109.43 160.5,-109.43"/>
<text text-anchor="start" x="168.5" y="-127.43" font-family="Helvetica,sans-Serif" font-size="10.00">pod_yaml::get_input</text>
<text text-anchor="middle" x="211.5" y="-116.43" font-family="Helvetica,sans-Serif" font-size="10.00">_refsys</text>
</a>
</g>
</g>
<!-- Node1&#45;&gt;Node13 -->
<g id="edge20" class="edge">
<title>Node1&#45;&gt;Node13</title>
<path fill="none" stroke="midnightblue" d="M51.97,-679.66C55.19,-615.5 75.87,-254.48 137,-166.43 143.1,-157.65 151.67,-150.46 160.81,-144.68"/>
<polygon fill="midnightblue" stroke="midnightblue" points="162.77,-147.59 169.68,-139.56 159.27,-141.53 162.77,-147.59"/>
</g>
<!-- Node14 -->
<g id="node14" class="node">
<title>Node14</title>
<g id="a_node14"><a xlink:href="namespacepod__yaml.html#aa23c39d526a3af84912e6af64feaa91a" target="_top" xlink:title=" ">
<polygon fill="white" stroke="black" points="150.5,-774.43 150.5,-804.43 272.5,-804.43 272.5,-774.43 150.5,-774.43"/>
<text text-anchor="start" x="158.5" y="-792.43" font-family="Helvetica,sans-Serif" font-size="10.00">pod_yaml::get_integrator</text>
<text text-anchor="middle" x="211.5" y="-781.43" font-family="Helvetica,sans-Serif" font-size="10.00">_method</text>
</a>
</g>
</g>
<!-- Node1&#45;&gt;Node14 -->
<g id="edge23" class="edge">
<title>Node1&#45;&gt;Node14</title>
<path fill="none" stroke="midnightblue" d="M60.05,-699.06C74.47,-714.79 105.2,-746.06 137,-764.43 140.68,-766.55 144.56,-768.53 148.55,-770.37"/>
<polygon fill="midnightblue" stroke="midnightblue" points="147.41,-773.69 157.98,-774.41 150.16,-767.26 147.41,-773.69"/>
</g>
<!-- Node15 -->
<g id="node15" class="node">
<title>Node15</title>
<g id="a_node15"><a xlink:href="namespacepod__yaml.html#adabd896be04e6276c55f6a970f9ec925" target="_top" xlink:title=" ">
<polygon fill="white" stroke="black" points="322.5,-374.43 322.5,-404.43 443.5,-404.43 443.5,-374.43 322.5,-374.43"/>
<text text-anchor="start" x="330.5" y="-392.43" font-family="Helvetica,sans-Serif" font-size="10.00">pod_yaml::get_non_grav</text>
<text text-anchor="middle" x="383" y="-381.43" font-family="Helvetica,sans-Serif" font-size="10.00">_effects</text>
</a>
</g>
</g>
<!-- Node1&#45;&gt;Node15 -->
<g id="edge25" class="edge">
<title>Node1&#45;&gt;Node15</title>
<path fill="none" stroke="midnightblue" d="M52.93,-679.87C59.88,-634.61 91.76,-442.52 137,-406.43 185.69,-367.59 258.59,-367.54 312.22,-374.66"/>
<polygon fill="midnightblue" stroke="midnightblue" points="311.94,-378.16 322.33,-376.12 312.94,-371.23 311.94,-378.16"/>
</g>
<!-- Node16 -->
<g id="node16" class="node">
<title>Node16</title>
<g id="a_node16"><a xlink:href="namespacepod__yaml.html#a59ea539cabb34ef7985e7e57c4b9dd93" target="_top" xlink:title=" ">
<polygon fill="white" stroke="black" points="480,-379.93 480,-398.93 560,-398.93 560,-379.93 480,-379.93"/>
<text text-anchor="middle" x="520" y="-386.93" font-family="Helvetica,sans-Serif" font-size="10.00">pod_yaml::pow</text>
</a>
</g>
</g>
<!-- Node1&#45;&gt;Node16 -->
<g id="edge62" class="edge">
<title>Node1&#45;&gt;Node16</title>
<path fill="none" stroke="midnightblue" d="M52.04,-679.52C56.37,-601.48 86.7,-87.52 137,-43.43 243.84,50.2 355.68,-21.16 444,-132.43 502.34,-205.93 515.31,-323.34 518.18,-369.69"/>
<polygon fill="midnightblue" stroke="midnightblue" points="514.7,-370.07 518.72,-379.87 521.69,-369.7 514.7,-370.07"/>
</g>
<!-- Node17 -->
<g id="node17" class="node">
<title>Node17</title>
<g id="a_node17"><a xlink:href="namespacepod__yaml.html#a23e8afb4b0fc386f9e0ae417ae95950c" target="_top" xlink:title=" ">
<polygon fill="white" stroke="black" points="152,-641.93 152,-660.93 271,-660.93 271,-641.93 152,-641.93"/>
<text text-anchor="middle" x="211.5" y="-648.93" font-family="Helvetica,sans-Serif" font-size="10.00">pod_yaml::get_orbitarcs</text>
</a>
</g>
</g>
<!-- Node1&#45;&gt;Node17 -->
<g id="edge29" class="edge">
<title>Node1&#45;&gt;Node17</title>
<path fill="none" stroke="midnightblue" d="M91.62,-679.84C112.6,-674.83 138.48,-668.64 160.73,-663.33"/>
<polygon fill="midnightblue" stroke="midnightblue" points="161.75,-666.68 170.67,-660.95 160.13,-659.87 161.75,-666.68"/>
</g>
<!-- Node18 -->
<g id="node18" class="node">
<title>Node18</title>
<g id="a_node18"><a xlink:href="namespacepod__yaml.html#a73696843aad7075341bcdac4488c3a21" target="_top" xlink:title=" ">
<polygon fill="white" stroke="black" points="151,-603.93 151,-622.93 272,-622.93 272,-603.93 151,-603.93"/>
<text text-anchor="middle" x="211.5" y="-610.93" font-family="Helvetica,sans-Serif" font-size="10.00">pod_yaml::get_pod_data</text>
</a>
</g>
</g>
<!-- Node1&#45;&gt;Node18 -->
<g id="edge30" class="edge">
<title>Node1&#45;&gt;Node18</title>
<path fill="none" stroke="midnightblue" d="M63.2,-679.75C79.01,-667.13 108.5,-645.17 137,-632.43 142.4,-630.02 148.16,-627.87 153.99,-625.96"/>
<polygon fill="midnightblue" stroke="midnightblue" points="155.26,-629.23 163.82,-622.98 153.23,-622.53 155.26,-629.23"/>
</g>
<!-- Node19 -->
<g id="node19" class="node">
<title>Node19</title>
<g id="a_node19"><a xlink:href="namespacepod__yaml.html#af90c2023aa6a373b29a7225338f8370e" target="_top" xlink:title=" ">
<polygon fill="white" stroke="black" points="148.5,-547.93 148.5,-566.93 274.5,-566.93 274.5,-547.93 148.5,-547.93"/>
<text text-anchor="middle" x="211.5" y="-554.93" font-family="Helvetica,sans-Serif" font-size="10.00">pod_yaml::get_pod_mode</text>
</a>
</g>
</g>
<!-- Node1&#45;&gt;Node19 -->
<g id="edge31" class="edge">
<title>Node1&#45;&gt;Node19</title>
<path fill="none" stroke="midnightblue" d="M58.3,-679.72C71.65,-661.22 102.96,-620.42 137,-594.43 149.06,-585.22 163.77,-577.28 176.85,-571.15"/>
<polygon fill="midnightblue" stroke="midnightblue" points="178.35,-574.31 186.02,-567.01 175.47,-567.93 178.35,-574.31"/>
</g>
<!-- Node20 -->
<g id="node20" class="node">
<title>Node20</title>
<g id="a_node20"><a xlink:href="namespacepod__yaml.html#a654b13ffb3dc8709a6e01e379f5f4d0e" target="_top" xlink:title=" ">
<polygon fill="white" stroke="black" points="161.5,-679.93 161.5,-698.93 261.5,-698.93 261.5,-679.93 161.5,-679.93"/>
<text text-anchor="middle" x="211.5" y="-686.93" font-family="Helvetica,sans-Serif" font-size="10.00">pod_yaml::get_prns</text>
</a>
</g>
</g>
<!-- Node1&#45;&gt;Node20 -->
<g id="edge33" class="edge">
<title>Node1&#45;&gt;Node20</title>
<path fill="none" stroke="midnightblue" d="M101.37,-689.43C117.21,-689.43 134.88,-689.43 151.31,-689.43"/>
<polygon fill="midnightblue" stroke="midnightblue" points="151.35,-692.93 161.35,-689.43 151.35,-685.93 151.35,-692.93"/>
</g>
<!-- Node21 -->
<g id="node21" class="node">
<title>Node21</title>
<g id="a_node21"><a xlink:href="sinex_8cpp.html#a06fabc81a2cc41dfee260450a527ad2d" target="_top" xlink:title=" ">
<polygon fill="white" stroke="black" points="366.5,-509.93 366.5,-528.93 399.5,-528.93 399.5,-509.93 366.5,-509.93"/>
<text text-anchor="middle" x="383" y="-516.93" font-family="Helvetica,sans-Serif" font-size="10.00">trim</text>
</a>
</g>
</g>
<!-- Node1&#45;&gt;Node21 -->
<g id="edge63" class="edge">
<title>Node1&#45;&gt;Node21</title>
<path fill="none" stroke="midnightblue" d="M53.62,-679.84C60.28,-652.24 83.62,-572.38 137,-538.43 205.96,-494.57 308.92,-505.71 356.36,-514.1"/>
<polygon fill="midnightblue" stroke="midnightblue" points="355.93,-517.58 366.4,-515.98 357.22,-510.7 355.93,-517.58"/>
</g>
<!-- Node22 -->
<g id="node22" class="node">
<title>Node22</title>
<g id="a_node22"><a xlink:href="namespacepod__yaml.html#a0c255e46646c4af71e55cbd562fd09f1" target="_top" xlink:title=" ">
<polygon fill="white" stroke="black" points="147.5,-415.93 147.5,-434.93 275.5,-434.93 275.5,-415.93 147.5,-415.93"/>
<text text-anchor="middle" x="211.5" y="-422.93" font-family="Helvetica,sans-Serif" font-size="10.00">pod_yaml::get_pseudoobs</text>
</a>
</g>
</g>
<!-- Node1&#45;&gt;Node22 -->
<g id="edge36" class="edge">
<title>Node1&#45;&gt;Node22</title>
<path fill="none" stroke="midnightblue" d="M51.79,-679.74C53.45,-643.04 64.41,-511.25 137,-444.43 138.69,-442.87 140.5,-441.44 142.39,-440.12"/>
<polygon fill="midnightblue" stroke="midnightblue" points="144.28,-443.07 151.18,-435.03 140.78,-437.01 144.28,-443.07"/>
</g>
<!-- Node24 -->
<g id="node24" class="node">
<title>Node24</title>
<g id="a_node24"><a xlink:href="namespacepod__yaml.html#a8aebc9429283c17ceabbd5c5f8e84938" target="_top" xlink:title=" ">
<polygon fill="white" stroke="black" points="137,-1165.93 137,-1184.93 286,-1184.93 286,-1165.93 137,-1165.93"/>
<text text-anchor="middle" x="211.5" y="-1172.93" font-family="Helvetica,sans-Serif" font-size="10.00">pod_yaml::get_srp_parameters</text>
</a>
</g>
</g>
<!-- Node1&#45;&gt;Node24 -->
<g id="edge39" class="edge">
<title>Node1&#45;&gt;Node24</title>
<path fill="none" stroke="midnightblue" d="M51.9,-699.13C54.57,-759.76 71.87,-1086.44 137,-1156.43 138.23,-1157.76 139.55,-1159 140.93,-1160.15"/>
<polygon fill="midnightblue" stroke="midnightblue" points="139.24,-1163.24 149.49,-1165.92 143.15,-1157.43 139.24,-1163.24"/>
</g>
<!-- Node26 -->
<g id="node26" class="node">
<title>Node26</title>
<g id="a_node26"><a xlink:href="namespacepod__yaml.html#ad7d57fdf9035a640a0b63e6de2936425" target="_top" xlink:title=" ">
<polygon fill="white" stroke="black" points="333.5,-692.43 333.5,-722.43 432.5,-722.43 432.5,-692.43 333.5,-692.43"/>
<text text-anchor="start" x="341.5" y="-710.43" font-family="Helvetica,sans-Serif" font-size="10.00">pod_yaml::get_tidal</text>
<text text-anchor="middle" x="383" y="-699.43" font-family="Helvetica,sans-Serif" font-size="10.00">_effects</text>
</a>
</g>
</g>
<!-- Node1&#45;&gt;Node26 -->
<g id="edge43" class="edge">
<title>Node1&#45;&gt;Node26</title>
<path fill="none" stroke="midnightblue" d="M53.77,-699.1C60.7,-726.17 84.42,-802.6 137,-832.43 194.6,-865.1 226.6,-861.71 286,-832.43 328.34,-811.56 357.21,-762.06 371.54,-731.99"/>
<polygon fill="midnightblue" stroke="midnightblue" points="374.85,-733.16 375.84,-722.61 368.49,-730.24 374.85,-733.16"/>
</g>
<!-- Node27 -->
<g id="node27" class="node">
<title>Node27</title>
<g id="a_node27"><a xlink:href="namespacepod__yaml.html#aec20113d8bc4f0d1f6447beedf500b19" target="_top" xlink:title=" ">
<polygon fill="white" stroke="black" points="161.5,-243.43 161.5,-273.43 261.5,-273.43 261.5,-243.43 161.5,-243.43"/>
<text text-anchor="start" x="169.5" y="-261.43" font-family="Helvetica,sans-Serif" font-size="10.00">pod_yaml::get_time</text>
<text text-anchor="middle" x="211.5" y="-250.43" font-family="Helvetica,sans-Serif" font-size="10.00">_scale</text>
</a>
</g>
</g>
<!-- Node1&#45;&gt;Node27 -->
<g id="edge46" class="edge">
<title>Node1&#45;&gt;Node27</title>
<path fill="none" stroke="midnightblue" d="M52.55,-679.84C58.55,-626.3 90,-364.36 137,-300.43 143.47,-291.64 152.37,-284.41 161.74,-278.58"/>
<polygon fill="midnightblue" stroke="midnightblue" points="163.49,-281.62 170.43,-273.62 160.01,-275.54 163.49,-281.62"/>
</g>
<!-- Node28 -->
<g id="node28" class="node">
<title>Node28</title>
<g id="a_node28"><a xlink:href="namespacepod__yaml.html#a9e9387a6e11a70e057d750deca1c031e" target="_top" xlink:title=" ">
<polygon fill="white" stroke="black" points="147.5,-52.93 147.5,-71.93 275.5,-71.93 275.5,-52.93 147.5,-52.93"/>
<text text-anchor="middle" x="211.5" y="-59.93" font-family="Helvetica,sans-Serif" font-size="10.00">pod_yaml::get_veq_refsys</text>
</a>
</g>
</g>
<!-- Node1&#45;&gt;Node28 -->
<g id="edge48" class="edge">
<title>Node1&#45;&gt;Node28</title>
<path fill="none" stroke="midnightblue" d="M51.71,-679.73C53.35,-611.03 66.08,-197.9 137,-99.43 144.31,-89.29 155.2,-81.76 166.39,-76.23"/>
<polygon fill="midnightblue" stroke="midnightblue" points="168.06,-79.32 175.77,-72.06 165.21,-72.93 168.06,-79.32"/>
</g>
<!-- Node29 -->
<g id="node29" class="node">
<title>Node29</title>
<g id="a_node29"><a xlink:href="namespacepod__yaml.html#a185366cacf00412629c3c9c147c9ce7a" target="_top" xlink:title=" ">
<polygon fill="white" stroke="black" points="161,-310.43 161,-340.43 262,-340.43 262,-310.43 161,-310.43"/>
<text text-anchor="start" x="169" y="-328.43" font-family="Helvetica,sans-Serif" font-size="10.00">pod_yaml::get_yaml</text>
<text text-anchor="middle" x="211.5" y="-317.43" font-family="Helvetica,sans-Serif" font-size="10.00">_pulses</text>
</a>
</g>
</g>
<!-- Node1&#45;&gt;Node29 -->
<g id="edge51" class="edge">
<title>Node1&#45;&gt;Node29</title>
<path fill="none" stroke="midnightblue" d="M51.69,-679.87C52.96,-638.91 62.68,-475.74 137,-373.43 145.07,-362.33 156.55,-353.1 168.05,-345.79"/>
<polygon fill="midnightblue" stroke="midnightblue" points="169.99,-348.71 176.79,-340.59 166.41,-342.7 169.99,-348.71"/>
</g>
<!-- Node31 -->
<g id="node31" class="node">
<title>Node31</title>
<g id="a_node31"><a xlink:href="namespacepod__yaml.html#a7eec6e3f0fd68e255161a8184dfe05ab" target="_top" xlink:title=" ">
<polygon fill="white" stroke="black" points="142,-453.93 142,-472.93 281,-472.93 281,-453.93 142,-453.93"/>
<text text-anchor="middle" x="211.5" y="-460.93" font-family="Helvetica,sans-Serif" font-size="10.00">pod_yaml::new_prn_override</text>
</a>
</g>
</g>
<!-- Node1&#45;&gt;Node31 -->
<g id="edge57" class="edge">
<title>Node1&#45;&gt;Node31</title>
<path fill="none" stroke="midnightblue" d="M53.73,-679.86C60.99,-650.51 86.46,-560.41 137,-505.43 147.83,-493.65 162.74,-484.29 176.3,-477.43"/>
<polygon fill="midnightblue" stroke="midnightblue" points="177.9,-480.55 185.41,-473.08 174.88,-474.23 177.9,-480.55"/>
</g>
<!-- Node32 -->
<g id="node32" class="node">
<title>Node32</title>
<g id="a_node32"><a xlink:href="namespaceyaml.html#a998b35112c34fa718de4262ca63d8481" target="_top" xlink:title=" ">
<polygon fill="white" stroke="black" points="179,-735.93 179,-754.93 244,-754.93 244,-735.93 179,-735.93"/>
<text text-anchor="middle" x="211.5" y="-742.93" font-family="Helvetica,sans-Serif" font-size="10.00">yaml::parse</text>
</a>
</g>
</g>
<!-- Node1&#45;&gt;Node32 -->
<g id="edge60" class="edge">
<title>Node1&#45;&gt;Node32</title>
<path fill="none" stroke="midnightblue" d="M71.19,-699C88.3,-707.05 113.9,-718.5 137,-726.43 147.2,-729.93 158.39,-733.14 168.9,-735.88"/>
<polygon fill="midnightblue" stroke="midnightblue" points="168.15,-739.3 178.71,-738.36 169.87,-732.51 168.15,-739.3"/>
</g>
<!-- Node2&#45;&gt;Node2 -->
<g id="edge2" class="edge">
<title>Node2&#45;&gt;Node2</title>
<path fill="none" stroke="midnightblue" d="M186.84,-1385.19C174.84,-1394 183.06,-1403.43 211.5,-1403.43 230.61,-1403.43 240.59,-1399.17 241.44,-1393.7"/>
<polygon fill="midnightblue" stroke="midnightblue" points="244.4,-1391.84 236.16,-1385.19 238.45,-1395.53 244.4,-1391.84"/>
</g>
<!-- Node5&#45;&gt;Node5 -->
<g id="edge6" class="edge">
<title>Node5&#45;&gt;Node5</title>
<path fill="none" stroke="midnightblue" d="M186.84,-1241.19C174.84,-1250 183.06,-1259.43 211.5,-1259.43 230.61,-1259.43 240.59,-1255.17 241.44,-1249.7"/>
<polygon fill="midnightblue" stroke="midnightblue" points="244.4,-1247.84 236.16,-1241.19 238.45,-1251.53 244.4,-1247.84"/>
</g>
<!-- Node6&#45;&gt;Node6 -->
<g id="edge8" class="edge">
<title>Node6&#45;&gt;Node6</title>
<path fill="none" stroke="midnightblue" d="M183.62,-206.59C176.89,-215.99 186.19,-224.93 211.5,-224.93 226.92,-224.93 236.4,-221.61 239.93,-216.89"/>
<polygon fill="midnightblue" stroke="midnightblue" points="243.41,-216.39 239.38,-206.59 236.42,-216.76 243.41,-216.39"/>
</g>
<!-- Node7 -->
<g id="node7" class="node">
<title>Node7</title>
<g id="a_node7"><a xlink:href="namespacepod__yaml.html#a89669454b72a5dadaea9de7ce5ee3cc5" target="_top" xlink:title=" ">
<polygon fill="white" stroke="black" points="322,-142.43 322,-172.43 444,-172.43 444,-142.43 322,-142.43"/>
<text text-anchor="start" x="330" y="-160.43" font-family="Helvetica,sans-Serif" font-size="10.00">pod_yaml::get_reference</text>
<text text-anchor="middle" x="383" y="-149.43" font-family="Helvetica,sans-Serif" font-size="10.00">_system</text>
</a>
</g>
</g>
<!-- Node6&#45;&gt;Node7 -->
<g id="edge9" class="edge">
<title>Node6&#45;&gt;Node7</title>
<path fill="none" stroke="midnightblue" d="M270.83,-179.73C284.09,-177.07 298.3,-174.22 311.98,-171.48"/>
<polygon fill="midnightblue" stroke="midnightblue" points="312.71,-174.9 321.83,-169.5 311.34,-168.03 312.71,-174.9"/>
</g>
<!-- Node7&#45;&gt;Node7 -->
<g id="edge10" class="edge">
<title>Node7&#45;&gt;Node7</title>
<path fill="none" stroke="midnightblue" d="M359.3,-172.59C353.58,-181.99 361.48,-190.93 383,-190.93 396.11,-190.93 404.17,-187.61 407.17,-182.89"/>
<polygon fill="midnightblue" stroke="midnightblue" points="410.65,-182.42 406.7,-172.59 403.66,-182.74 410.65,-182.42"/>
</g>
<!-- Node8&#45;&gt;Node8 -->
<g id="edge12" class="edge">
<title>Node8&#45;&gt;Node8</title>
<path fill="none" stroke="midnightblue" d="M186.84,-1129.19C174.84,-1138 183.06,-1147.43 211.5,-1147.43 230.61,-1147.43 240.59,-1143.17 241.44,-1137.7"/>
<polygon fill="midnightblue" stroke="midnightblue" points="244.4,-1135.84 236.16,-1129.19 238.45,-1139.53 244.4,-1135.84"/>
</g>
<!-- Node10&#45;&gt;Node10 -->
<g id="edge15" class="edge">
<title>Node10&#45;&gt;Node10</title>
<path fill="none" stroke="midnightblue" d="M183.62,-1034.59C176.89,-1043.99 186.19,-1052.93 211.5,-1052.93 226.92,-1052.93 236.4,-1049.61 239.93,-1044.89"/>
<polygon fill="midnightblue" stroke="midnightblue" points="243.41,-1044.39 239.38,-1034.59 236.42,-1044.76 243.41,-1044.39"/>
</g>
<!-- Node11&#45;&gt;Node11 -->
<g id="edge17" class="edge">
<title>Node11&#45;&gt;Node11</title>
<path fill="none" stroke="midnightblue" d="M186.84,-967.19C174.84,-976 183.06,-985.43 211.5,-985.43 230.61,-985.43 240.59,-981.17 241.44,-975.7"/>
<polygon fill="midnightblue" stroke="midnightblue" points="244.4,-973.84 236.16,-967.19 238.45,-977.53 244.4,-973.84"/>
</g>
<!-- Node12&#45;&gt;Node12 -->
<g id="edge19" class="edge">
<title>Node12&#45;&gt;Node12</title>
<path fill="none" stroke="midnightblue" d="M183.62,-910.59C176.89,-919.99 186.19,-928.93 211.5,-928.93 226.92,-928.93 236.4,-925.61 239.93,-920.89"/>
<polygon fill="midnightblue" stroke="midnightblue" points="243.41,-920.39 239.38,-910.59 236.42,-920.76 243.41,-920.39"/>
</g>
<!-- Node13&#45;&gt;Node7 -->
<g id="edge22" class="edge">
<title>Node13&#45;&gt;Node7</title>
<path fill="none" stroke="midnightblue" d="M262.9,-134.24C278.25,-137.23 295.42,-140.57 311.83,-143.77"/>
<polygon fill="midnightblue" stroke="midnightblue" points="311.44,-147.26 321.93,-145.74 312.78,-140.39 311.44,-147.26"/>
</g>
<!-- Node13&#45;&gt;Node13 -->
<g id="edge21" class="edge">
<title>Node13&#45;&gt;Node13</title>
<path fill="none" stroke="midnightblue" d="M183.62,-139.59C176.89,-148.99 186.19,-157.93 211.5,-157.93 226.92,-157.93 236.4,-154.61 239.93,-149.89"/>
<polygon fill="midnightblue" stroke="midnightblue" points="243.41,-149.39 239.38,-139.59 236.42,-149.76 243.41,-149.39"/>
</g>
<!-- Node14&#45;&gt;Node14 -->
<g id="edge24" class="edge">
<title>Node14&#45;&gt;Node14</title>
<path fill="none" stroke="midnightblue" d="M183.62,-804.59C176.89,-813.99 186.19,-822.93 211.5,-822.93 226.92,-822.93 236.4,-819.61 239.93,-814.89"/>
<polygon fill="midnightblue" stroke="midnightblue" points="243.41,-814.39 239.38,-804.59 236.42,-814.76 243.41,-814.39"/>
</g>
<!-- Node15&#45;&gt;Node15 -->
<g id="edge26" class="edge">
<title>Node15&#45;&gt;Node15</title>
<path fill="none" stroke="midnightblue" d="M359.3,-404.59C353.58,-413.99 361.48,-422.93 383,-422.93 396.11,-422.93 404.17,-419.61 407.17,-414.89"/>
<polygon fill="midnightblue" stroke="midnightblue" points="410.65,-414.42 406.7,-404.59 403.66,-414.74 410.65,-414.42"/>
</g>
<!-- Node15&#45;&gt;Node16 -->
<g id="edge27" class="edge">
<title>Node15&#45;&gt;Node16</title>
<path fill="none" stroke="midnightblue" d="M443.61,-389.43C452.34,-389.43 461.26,-389.43 469.76,-389.43"/>
<polygon fill="midnightblue" stroke="midnightblue" points="469.88,-392.93 479.88,-389.43 469.88,-385.93 469.88,-392.93"/>
</g>
<!-- Node16&#45;&gt;Node16 -->
<g id="edge28" class="edge">
<title>Node16&#45;&gt;Node16</title>
<path fill="none" stroke="midnightblue" d="M499.04,-399.19C488.84,-408 495.83,-417.43 520,-417.43 535.49,-417.43 543.92,-413.56 545.3,-408.46"/>
<polygon fill="midnightblue" stroke="midnightblue" points="548.37,-406.76 540.96,-399.19 542.03,-409.73 548.37,-406.76"/>
</g>
<!-- Node19&#45;&gt;Node19 -->
<g id="edge32" class="edge">
<title>Node19&#45;&gt;Node19</title>
<path fill="none" stroke="midnightblue" d="M186.84,-567.19C174.84,-576 183.06,-585.43 211.5,-585.43 230.61,-585.43 240.59,-581.17 241.44,-575.7"/>
<polygon fill="midnightblue" stroke="midnightblue" points="244.4,-573.84 236.16,-567.19 238.45,-577.53 244.4,-573.84"/>
</g>
<!-- Node20&#45;&gt;Node20 -->
<g id="edge34" class="edge">
<title>Node20&#45;&gt;Node20</title>
<path fill="none" stroke="midnightblue" d="M186.84,-699.19C174.84,-708 183.06,-717.43 211.5,-717.43 230.61,-717.43 240.59,-713.17 241.44,-707.7"/>
<polygon fill="midnightblue" stroke="midnightblue" points="244.4,-705.84 236.16,-699.19 238.45,-709.53 244.4,-705.84"/>
</g>
<!-- Node20&#45;&gt;Node21 -->
<g id="edge35" class="edge">
<title>Node20&#45;&gt;Node21</title>
<path fill="none" stroke="midnightblue" d="M261.85,-682.15C270.42,-679.4 278.86,-675.62 286,-670.43 333.18,-636.12 362.79,-570.91 375.23,-538.58"/>
<polygon fill="midnightblue" stroke="midnightblue" points="378.6,-539.56 378.79,-528.97 372.03,-537.13 378.6,-539.56"/>
</g>
<!-- Node22&#45;&gt;Node21 -->
<g id="edge38" class="edge">
<title>Node22&#45;&gt;Node21</title>
<path fill="none" stroke="midnightblue" d="M260.97,-434.94C269.53,-437.46 278.2,-440.58 286,-444.43 294.35,-448.55 336.64,-482.49 362.22,-503.27"/>
<polygon fill="midnightblue" stroke="midnightblue" points="360.22,-506.16 370.18,-509.76 364.64,-500.73 360.22,-506.16"/>
</g>
<!-- Node23 -->
<g id="node23" class="node">
<title>Node23</title>
<g id="a_node23"><a xlink:href="cal2jd_8for.html#af9bdf5980bab8c8324930b1a0af0175a" target="_top" xlink:title=" ">
<polygon fill="white" stroke="black" points="353,-441.93 353,-460.93 413,-460.93 413,-441.93 353,-441.93"/>
<text text-anchor="middle" x="383" y="-448.93" font-family="Helvetica,sans-Serif" font-size="10.00">iau_cal2jd</text>
</a>
</g>
</g>
<!-- Node22&#45;&gt;Node23 -->
<g id="edge37" class="edge">
<title>Node22&#45;&gt;Node23</title>
<path fill="none" stroke="midnightblue" d="M274.65,-434.96C297.34,-438.44 322.36,-442.28 342.54,-445.38"/>
<polygon fill="midnightblue" stroke="midnightblue" points="342.19,-448.86 352.61,-446.92 343.25,-441.95 342.19,-448.86"/>
</g>
<!-- Node24&#45;&gt;Node24 -->
<g id="edge42" class="edge">
<title>Node24&#45;&gt;Node24</title>
<path fill="none" stroke="midnightblue" d="M186.84,-1185.19C174.84,-1194 183.06,-1203.43 211.5,-1203.43 230.61,-1203.43 240.59,-1199.17 241.44,-1193.7"/>
<polygon fill="midnightblue" stroke="midnightblue" points="244.4,-1191.84 236.16,-1185.19 238.45,-1195.53 244.4,-1191.84"/>
</g>
<!-- Node25 -->
<g id="node25" class="node">
<title>Node25</title>
<g id="a_node25"><a xlink:href="namespacepod__yaml.html#aba54131121b8017bac7e78dce8338128" target="_top" xlink:title=" ">
<polygon fill="white" stroke="black" points="328.5,-959.43 328.5,-989.43 437.5,-989.43 437.5,-959.43 328.5,-959.43"/>
<text text-anchor="start" x="336.5" y="-977.43" font-family="Helvetica,sans-Serif" font-size="10.00">pod_yaml::get_logical</text>
<text text-anchor="middle" x="383" y="-966.43" font-family="Helvetica,sans-Serif" font-size="10.00">_parameter</text>
</a>
</g>
</g>
<!-- Node24&#45;&gt;Node25 -->
<g id="edge40" class="edge">
<title>Node24&#45;&gt;Node25</title>
<path fill="none" stroke="midnightblue" d="M269.76,-1165.8C275.59,-1163.35 281.14,-1160.27 286,-1156.43 337.72,-1115.53 364.76,-1038.99 375.83,-999.47"/>
<polygon fill="midnightblue" stroke="midnightblue" points="379.27,-1000.16 378.48,-989.59 372.51,-998.35 379.27,-1000.16"/>
</g>
<!-- Node25&#45;&gt;Node16 -->
<g id="edge41" class="edge">
<title>Node25&#45;&gt;Node16</title>
<path fill="none" stroke="midnightblue" d="M388.37,-959.3C398.71,-923.28 425.2,-829.55 444,-750.43 474.81,-620.77 505.11,-463.25 515.35,-408.93"/>
<polygon fill="midnightblue" stroke="midnightblue" points="518.82,-409.43 517.23,-398.96 511.94,-408.14 518.82,-409.43"/>
</g>
<!-- Node26&#45;&gt;Node16 -->
<g id="edge45" class="edge">
<title>Node26&#45;&gt;Node16</title>
<path fill="none" stroke="midnightblue" d="M390.51,-692.09C412.82,-639.53 486.18,-466.75 510.83,-408.67"/>
<polygon fill="midnightblue" stroke="midnightblue" points="514.16,-409.79 514.85,-399.21 507.72,-407.05 514.16,-409.79"/>
</g>
<!-- Node26&#45;&gt;Node26 -->
<g id="edge44" class="edge">
<title>Node26&#45;&gt;Node26</title>
<path fill="none" stroke="midnightblue" d="M359.3,-722.59C353.58,-731.99 361.48,-740.93 383,-740.93 396.11,-740.93 404.17,-737.61 407.17,-732.89"/>
<polygon fill="midnightblue" stroke="midnightblue" points="410.65,-732.42 406.7,-722.59 403.66,-732.74 410.65,-732.42"/>
</g>
<!-- Node27&#45;&gt;Node27 -->
<g id="edge47" class="edge">
<title>Node27&#45;&gt;Node27</title>
<path fill="none" stroke="midnightblue" d="M183.62,-273.59C176.89,-282.99 186.19,-291.93 211.5,-291.93 226.92,-291.93 236.4,-288.61 239.93,-283.89"/>
<polygon fill="midnightblue" stroke="midnightblue" points="243.41,-283.39 239.38,-273.59 236.42,-283.76 243.41,-283.39"/>
</g>
<!-- Node28&#45;&gt;Node7 -->
<g id="edge49" class="edge">
<title>Node28&#45;&gt;Node7</title>
<path fill="none" stroke="midnightblue" d="M232.68,-72.07C247.57,-79.31 268.25,-89.62 286,-99.43 307.53,-111.33 331.19,-125.61 349.63,-137.02"/>
<polygon fill="midnightblue" stroke="midnightblue" points="347.89,-140.06 358.23,-142.37 351.59,-134.12 347.89,-140.06"/>
</g>
<!-- Node28&#45;&gt;Node28 -->
<g id="edge50" class="edge">
<title>Node28&#45;&gt;Node28</title>
<path fill="none" stroke="midnightblue" d="M186.84,-72.19C174.84,-81 183.06,-90.43 211.5,-90.43 230.61,-90.43 240.59,-86.17 241.44,-80.7"/>
<polygon fill="midnightblue" stroke="midnightblue" points="244.4,-78.84 236.16,-72.19 238.45,-82.53 244.4,-78.84"/>
</g>
<!-- Node29&#45;&gt;Node7 -->
<g id="edge55" class="edge">
<title>Node29&#45;&gt;Node7</title>
<path fill="none" stroke="midnightblue" d="M262.19,-313.5C270.63,-310.12 278.94,-305.84 286,-300.43 327.34,-268.76 356.86,-214 371.51,-182.22"/>
<polygon fill="midnightblue" stroke="midnightblue" points="374.85,-183.33 375.74,-172.77 368.46,-180.47 374.85,-183.33"/>
</g>
<!-- Node29&#45;&gt;Node29 -->
<g id="edge56" class="edge">
<title>Node29&#45;&gt;Node29</title>
<path fill="none" stroke="midnightblue" d="M183.62,-340.59C176.89,-349.99 186.19,-358.93 211.5,-358.93 226.92,-358.93 236.4,-355.61 239.93,-350.89"/>
<polygon fill="midnightblue" stroke="midnightblue" points="243.41,-350.39 239.38,-340.59 236.42,-350.76 243.41,-350.39"/>
</g>
<!-- Node30 -->
<g id="node30" class="node">
<title>Node30</title>
<g id="a_node30"><a xlink:href="namespacepod__yaml.html#a73a666fc6230b11489d5a3fc16b980d8" target="_top" xlink:title=" ">
<polygon fill="white" stroke="black" points="331,-307.43 331,-337.43 435,-337.43 435,-307.43 331,-307.43"/>
<text text-anchor="start" x="339" y="-325.43" font-family="Helvetica,sans-Serif" font-size="10.00">pod_yaml::get_pulse</text>
<text text-anchor="middle" x="383" y="-314.43" font-family="Helvetica,sans-Serif" font-size="10.00">_parms</text>
</a>
</g>
</g>
<!-- Node29&#45;&gt;Node30 -->
<g id="edge52" class="edge">
<title>Node29&#45;&gt;Node30</title>
<path fill="none" stroke="midnightblue" d="M262.44,-324.55C280.73,-324.22 301.64,-323.85 320.81,-323.51"/>
<polygon fill="midnightblue" stroke="midnightblue" points="321.01,-327.01 330.95,-323.33 320.89,-320.01 321.01,-327.01"/>
</g>
<!-- Node30&#45;&gt;Node16 -->
<g id="edge54" class="edge">
<title>Node30&#45;&gt;Node16</title>
<path fill="none" stroke="midnightblue" d="M414.3,-337.47C437.15,-348.81 468.28,-364.26 490.65,-375.36"/>
<polygon fill="midnightblue" stroke="midnightblue" points="489.14,-378.52 499.65,-379.83 492.25,-372.25 489.14,-378.52"/>
</g>
<!-- Node30&#45;&gt;Node30 -->
<g id="edge53" class="edge">
<title>Node30&#45;&gt;Node30</title>
<path fill="none" stroke="midnightblue" d="M359.3,-337.59C353.58,-346.99 361.48,-355.93 383,-355.93 396.11,-355.93 404.17,-352.61 407.17,-347.89"/>
<polygon fill="midnightblue" stroke="midnightblue" points="410.65,-347.42 406.7,-337.59 403.66,-347.74 410.65,-347.42"/>
</g>
<!-- Node31&#45;&gt;Node21 -->
<g id="edge59" class="edge">
<title>Node31&#45;&gt;Node21</title>
<path fill="none" stroke="midnightblue" d="M241.64,-473.06C274.12,-483.79 326.13,-500.97 356.88,-511.13"/>
<polygon fill="midnightblue" stroke="midnightblue" points="355.85,-514.48 366.44,-514.29 358.04,-507.83 355.85,-514.48"/>
</g>
<!-- Node31&#45;&gt;Node31 -->
<g id="edge58" class="edge">
<title>Node31&#45;&gt;Node31</title>
<path fill="none" stroke="midnightblue" d="M186.84,-473.19C174.84,-482 183.06,-491.43 211.5,-491.43 230.61,-491.43 240.59,-487.17 241.44,-481.7"/>
<polygon fill="midnightblue" stroke="midnightblue" points="244.4,-479.84 236.16,-473.19 238.45,-483.53 244.4,-479.84"/>
</g>
<!-- Node32&#45;&gt;Node21 -->
<g id="edge61" class="edge">
<title>Node32&#45;&gt;Node21</title>
<path fill="none" stroke="midnightblue" d="M244.23,-743.32C258.34,-740.95 274.36,-736.13 286,-726.43 316.99,-700.61 359.42,-584.89 375.48,-538.63"/>
<polygon fill="midnightblue" stroke="midnightblue" points="378.8,-539.75 378.74,-529.16 372.18,-537.48 378.8,-539.75"/>
</g>
</g>
</svg>
        <g id="navigator" transform="translate(0 0)" fill="#404254">
                <rect fill="#f2f5e9" fill-opacity="0.5" stroke="#606060" stroke-width=".5" x="0" y="0" width="60" height="60"/>
                <use id="zoomplus" xlink:href="#zoomPlus" x="17" y="9" onmousedown="handleZoom(evt,'in')"/>
                <use id="zoomminus" xlink:href="#zoomMin" x="42" y="9" onmousedown="handleZoom(evt,'out')"/>
                <use id="reset" xlink:href="#resetDef" x="30" y="36" onmousedown="handleReset()"/>
                <g id="arrowUp" xlink:href="#dirArrow" transform="translate(30 24)" onmousedown="handlePan(0,-1)">
                  <use xlink:href="#rim" fill="#404040">
                        <set attributeName="fill" to="#808080" begin="arrowUp.mouseover" end="arrowUp.mouseout"/>
                  </use>
                  <path fill="none" stroke="white" stroke-width="1.5" d="M0,-3.0v7 M-2.5,-0.5L0,-3.0L2.5,-0.5"/>
                </g>
                <g id="arrowRight" xlink:href="#dirArrow" transform="rotate(90) translate(36 -43)" onmousedown="handlePan(1,0)">
                  <use xlink:href="#rim" fill="#404040">
                        <set attributeName="fill" to="#808080" begin="arrowRight.mouseover" end="arrowRight.mouseout"/>
                  </use>
                  <path fill="none" stroke="white" stroke-width="1.5" d="M0,-3.0v7 M-2.5,-0.5L0,-3.0L2.5,-0.5"/>
                </g>
                <g id="arrowDown" xlink:href="#dirArrow" transform="rotate(180) translate(-30 -48)" onmousedown="handlePan(0,1)">
                  <use xlink:href="#rim" fill="#404040">
                        <set attributeName="fill" to="#808080" begin="arrowDown.mouseover" end="arrowDown.mouseout"/>
                  </use>
                  <path fill="none" stroke="white" stroke-width="1.5" d="M0,-3.0v7 M-2.5,-0.5L0,-3.0L2.5,-0.5"/>
                </g>
                <g id="arrowLeft" xlink:href="#dirArrow" transform="rotate(270) translate(-36 17)" onmousedown="handlePan(-1,0)">
                  <use xlink:href="#rim" fill="#404040">
                        <set attributeName="fill" to="#808080" begin="arrowLeft.mouseover" end="arrowLeft.mouseout"/>
                  </use>
                  <path fill="none" stroke="white" stroke-width="1.5" d="M0,-3.0v7 M-2.5,-0.5L0,-3.0L2.5,-0.5"/>
                </g>
        </g>
        <svg viewBox="0 0 15 15" width="100%" height="30px" preserveAspectRatio="xMaxYMin meet">
         <g id="arrow_out" transform="scale(0.3 0.3)">
          <a xlink:href="namespacepod__yaml_aca21c2bb86797b2b46c5d509e3593198_cgraph_org.svg" target="_base">
           <rect id="button" ry="5" rx="5" y="6" x="6" height="38" width="38"
                fill="#f2f5e9" fill-opacity="0.5" stroke="#606060" stroke-width="1.0"/>
           <path id="arrow"
             d="M 11.500037,31.436501 C 11.940474,20.09759 22.043105,11.32322 32.158766,21.979434 L 37.068811,17.246167 C 37.068811,17.246167 37.088388,32 37.088388,32 L 22.160133,31.978069 C 22.160133,31.978069 26.997745,27.140456 26.997745,27.140456 C 18.528582,18.264221 13.291696,25.230495 11.500037,31.436501 z"
             style="fill:#404040;"/>
          </a>
         </g>
        </svg>
</svg>
