<?xml version="1.0" encoding="UTF-8" standalone="no"?>
<!DOCTYPE svg PUBLIC "-//W3C//DTD SVG 1.1//EN"
 "http://www.w3.org/Graphics/SVG/1.1/DTD/svg11.dtd">
<!-- Generated by graphviz version 2.50.0 (20220203.2022)
 -->
<!-- Title: yaml_settings::type_real_setting_create Pages: 1 -->
<svg width="756pt" height="617pt"
 viewBox="0.00 0.00 756.00 616.77" xmlns="http://www.w3.org/2000/svg" xmlns:xlink="http://www.w3.org/1999/xlink">
<g id="graph0" class="graph" transform="scale(1 1) rotate(0) translate(4 612.77)">
<title>yaml_settings::type_real_setting_create</title>
<polygon fill="white" stroke="transparent" points="-4,4 -4,-612.77 752,-612.77 752,4 -4,4"/>
<!-- Node1 -->
<g id="node1" class="node">
<title>Node1</title>
<g id="a_node1"><a xlink:title=" ">
<polygon fill="#bfbfbf" stroke="black" points="0,-30.77 0,-60.77 104,-60.77 104,-30.77 0,-30.77"/>
<text text-anchor="start" x="8" y="-48.77" font-family="Helvetica,sans-Serif" font-size="10.00">yaml_settings::type</text>
<text text-anchor="middle" x="52" y="-37.77" font-family="Helvetica,sans-Serif" font-size="10.00">_real_setting_create</text>
</a>
</g>
</g>
<!-- Node2 -->
<g id="node2" class="node">
<title>Node2</title>
<g id="a_node2"><a xlink:href="minimumConstraints_8cpp.html#a6644baa0ee22e2cb52a4975b7d8f218e" target="_top" xlink:title=" ">
<polygon fill="white" stroke="black" points="324,-342.27 324,-361.27 380,-361.27 380,-342.27 324,-342.27"/>
<text text-anchor="middle" x="352" y="-349.27" font-family="Helvetica,sans-Serif" font-size="10.00">minimum</text>
</a>
</g>
</g>
<!-- Node1&#45;&gt;Node2 -->
<g id="edge1" class="edge">
<title>Node1&#45;&gt;Node2</title>
<path fill="none" stroke="midnightblue" d="M67.78,-60.95C117.93,-112.45 281.48,-280.38 334.35,-334.67"/>
<polygon fill="midnightblue" stroke="midnightblue" points="332.1,-337.38 341.59,-342.11 337.12,-332.5 332.1,-337.38"/>
</g>
<!-- Node28 -->
<g id="node15" class="node">
<title>Node28</title>
<g id="a_node15"><a xlink:href="namespaceyaml__settings.html#adc1e77e299c991421bd7ed4a2a8726e0" target="_top" xlink:title=" ">
<polygon fill="white" stroke="black" points="466.5,-27.77 466.5,-57.77 572.5,-57.77 572.5,-27.77 466.5,-27.77"/>
<text text-anchor="start" x="474.5" y="-45.77" font-family="Helvetica,sans-Serif" font-size="10.00">yaml_settings::report</text>
<text text-anchor="middle" x="519.5" y="-34.77" font-family="Helvetica,sans-Serif" font-size="10.00">_error</text>
</a>
</g>
</g>
<!-- Node1&#45;&gt;Node28 -->
<g id="edge16" class="edge">
<title>Node1&#45;&gt;Node28</title>
<path fill="none" stroke="midnightblue" d="M104.15,-45.44C190.08,-44.89 363.14,-43.77 456.09,-43.17"/>
<polygon fill="midnightblue" stroke="midnightblue" points="456.22,-46.67 466.2,-43.11 456.18,-39.67 456.22,-46.67"/>
</g>
<!-- Node29 -->
<g id="node16" class="node">
<title>Node29</title>
<g id="a_node16"><a xlink:href="sinex_8cpp.html#a06fabc81a2cc41dfee260450a527ad2d" target="_top" xlink:title=" ">
<polygon fill="white" stroke="black" points="672,-55.27 672,-74.27 705,-74.27 705,-55.27 672,-55.27"/>
<text text-anchor="middle" x="688.5" y="-62.27" font-family="Helvetica,sans-Serif" font-size="10.00">trim</text>
</a>
</g>
</g>
<!-- Node1&#45;&gt;Node29 -->
<g id="edge18" class="edge">
<title>Node1&#45;&gt;Node29</title>
<path fill="none" stroke="midnightblue" d="M104.07,-34.04C200.88,-13.82 417.15,21.75 593,-18.77 619.01,-24.77 646.15,-38.93 664.64,-49.97"/>
<polygon fill="midnightblue" stroke="midnightblue" points="662.87,-52.99 673.22,-55.24 666.53,-47.03 662.87,-52.99"/>
</g>
<!-- Node30 -->
<g id="node17" class="node">
<title>Node30</title>
<g id="a_node17"><a xlink:href="namespaceyaml__settings.html#af06e8e4d30d8e2a7bda90429f30edc4e" target="_top" xlink:title=" ">
<polygon fill="white" stroke="black" points="140,-71.77 140,-101.77 258,-101.77 258,-71.77 140,-71.77"/>
<text text-anchor="start" x="148" y="-89.77" font-family="Helvetica,sans-Serif" font-size="10.00">yaml_settings::type</text>
<text text-anchor="middle" x="199" y="-78.77" font-family="Helvetica,sans-Serif" font-size="10.00">_integer_setting_create</text>
</a>
</g>
</g>
<!-- Node1&#45;&gt;Node30 -->
<g id="edge19" class="edge">
<title>Node1&#45;&gt;Node30</title>
<path fill="none" stroke="midnightblue" d="M104.12,-60.23C114.13,-63.06 124.74,-66.06 135.08,-68.98"/>
<polygon fill="midnightblue" stroke="midnightblue" points="134.31,-72.4 144.89,-71.75 136.22,-65.66 134.31,-72.4"/>
</g>
<!-- Node3 -->
<g id="node3" class="node">
<title>Node3</title>
<g id="a_node3"><a xlink:href="structKFMeasEntry.html#a5af30258b0bcd703468c0d0ec2ed6d54" target="_top" xlink:title="Adds a design matrix entry for this measurement.">
<polygon fill="white" stroke="black" points="449.5,-589.27 449.5,-608.27 589.5,-608.27 589.5,-589.27 449.5,-589.27"/>
<text text-anchor="middle" x="519.5" y="-596.27" font-family="Helvetica,sans-Serif" font-size="10.00">KFMeasEntry::addDsgnEntry</text>
</a>
</g>
</g>
<!-- Node2&#45;&gt;Node3 -->
<g id="edge2" class="edge">
<title>Node2&#45;&gt;Node3</title>
<path fill="none" stroke="midnightblue" d="M353.91,-361.29C357.76,-396.19 375.93,-518.33 446,-579.77 447.79,-581.34 449.69,-582.78 451.68,-584.11"/>
<polygon fill="midnightblue" stroke="midnightblue" points="450.46,-587.43 460.91,-589.19 453.84,-581.3 450.46,-587.43"/>
</g>
<!-- Node4 -->
<g id="node4" class="node">
<title>Node4</title>
<g id="a_node4"><a xlink:href="structKFState.html#abae5c2435fa3ca6bb4396cd8a5363f85" target="_top" xlink:title="Combine a list of KFMeasEntrys into a single KFMeas object for used in the filter.">
<polygon fill="white" stroke="red" points="446,-551.27 446,-570.27 593,-570.27 593,-551.27 446,-551.27"/>
<text text-anchor="middle" x="519.5" y="-558.27" font-family="Helvetica,sans-Serif" font-size="10.00">KFState::combineKFMeasList</text>
</a>
</g>
</g>
<!-- Node2&#45;&gt;Node4 -->
<g id="edge3" class="edge">
<title>Node2&#45;&gt;Node4</title>
<path fill="none" stroke="midnightblue" d="M354.78,-361.42C361.06,-392.67 385.18,-491.99 446,-541.77 448.07,-543.47 450.28,-545.01 452.58,-546.42"/>
<polygon fill="midnightblue" stroke="midnightblue" points="451.4,-549.75 461.9,-551.2 454.6,-543.52 451.4,-549.75"/>
</g>
<!-- Node6 -->
<g id="node5" class="node">
<title>Node6</title>
<g id="a_node5"><a xlink:href="structKFState.html#a84691f6bbbe3cdccaa14722995a61e1b" target="_top" xlink:title="Returns the value and variance of a state within the kalman filter object.">
<polygon fill="white" stroke="black" points="465.5,-513.27 465.5,-532.27 573.5,-532.27 573.5,-513.27 465.5,-513.27"/>
<text text-anchor="middle" x="519.5" y="-520.27" font-family="Helvetica,sans-Serif" font-size="10.00">KFState::getKFValue</text>
</a>
</g>
</g>
<!-- Node2&#45;&gt;Node6 -->
<g id="edge4" class="edge">
<title>Node2&#45;&gt;Node6</title>
<path fill="none" stroke="midnightblue" d="M356.01,-361.36C364.96,-388.3 394.1,-465.21 446,-503.77 449.05,-506.04 452.35,-508.04 455.8,-509.8"/>
<polygon fill="midnightblue" stroke="midnightblue" points="454.66,-513.12 465.23,-513.92 457.47,-506.7 454.66,-513.12"/>
</g>
<!-- Node7 -->
<g id="node6" class="node">
<title>Node7</title>
<g id="a_node6"><a xlink:href="structACSConfig.html#a92bff361b02a9eb9de0296f29e7e1091" target="_top" xlink:title="Set minimum constraint options for a specific receiver using a hierarchy of sources.">
<polygon fill="white" stroke="red" points="451.5,-475.27 451.5,-494.27 587.5,-494.27 587.5,-475.27 451.5,-475.27"/>
<text text-anchor="middle" x="519.5" y="-482.27" font-family="Helvetica,sans-Serif" font-size="10.00">ACSConfig::getMinConOpts</text>
</a>
</g>
</g>
<!-- Node2&#45;&gt;Node7 -->
<g id="edge5" class="edge">
<title>Node2&#45;&gt;Node7</title>
<path fill="none" stroke="midnightblue" d="M358.67,-361.47C371.51,-382.61 404.92,-433.15 446,-460.77 452.5,-465.14 459.86,-468.77 467.33,-471.77"/>
<polygon fill="midnightblue" stroke="midnightblue" points="466.22,-475.09 476.81,-475.25 468.62,-468.52 466.22,-475.09"/>
</g>
<!-- Node11 -->
<g id="node7" class="node">
<title>Node11</title>
<g id="a_node7"><a xlink:href="structKFState.html#a34fe78e0ab7a8f1d122ceabddc29b207" target="_top" xlink:title="Clears and initialises the state transition matrix to identity at the beginning of an epoch.">
<polygon fill="white" stroke="black" points="629,-370.27 629,-389.27 748,-389.27 748,-370.27 629,-370.27"/>
<text text-anchor="middle" x="688.5" y="-377.27" font-family="Helvetica,sans-Serif" font-size="10.00">KFState::initFilterEpoch</text>
</a>
</g>
</g>
<!-- Node2&#45;&gt;Node11 -->
<g id="edge6" class="edge">
<title>Node2&#45;&gt;Node11</title>
<path fill="none" stroke="midnightblue" d="M380.09,-354.04C431.56,-358.35 544.92,-367.84 618.67,-374.01"/>
<polygon fill="midnightblue" stroke="midnightblue" points="618.54,-377.51 628.8,-374.86 619.13,-370.54 618.54,-377.51"/>
</g>
<!-- Node12 -->
<g id="node8" class="node">
<title>Node12</title>
<g id="a_node8"><a xlink:href="structKFState.html#a5b591c7386c7fb734067424a097ca118" target="_top" xlink:title="Kalman filter.">
<polygon fill="white" stroke="red" points="477.5,-323.27 477.5,-342.27 561.5,-342.27 561.5,-323.27 477.5,-323.27"/>
<text text-anchor="middle" x="519.5" y="-330.27" font-family="Helvetica,sans-Serif" font-size="10.00">KFState::kFilter</text>
</a>
</g>
</g>
<!-- Node2&#45;&gt;Node12 -->
<g id="edge7" class="edge">
<title>Node2&#45;&gt;Node12</title>
<path fill="none" stroke="midnightblue" d="M380.33,-348.63C403.88,-345.93 438.51,-341.96 467.21,-338.66"/>
<polygon fill="midnightblue" stroke="midnightblue" points="467.95,-342.1 477.48,-337.48 467.15,-335.14 467.95,-342.1"/>
</g>
<!-- Node14 -->
<g id="node9" class="node">
<title>Node14</title>
<g id="a_node9"><a xlink:href="structKFState.html#ae1fc274c403b77dc814ed90763b4dea1" target="_top" xlink:title="Least squares estimator for new kalman filter states.">
<polygon fill="white" stroke="red" points="458.5,-273.77 458.5,-303.77 580.5,-303.77 580.5,-273.77 458.5,-273.77"/>
<text text-anchor="start" x="466.5" y="-291.77" font-family="Helvetica,sans-Serif" font-size="10.00">KFState::leastSquareInit</text>
<text text-anchor="middle" x="519.5" y="-280.77" font-family="Helvetica,sans-Serif" font-size="10.00">States</text>
</a>
</g>
</g>
<!-- Node2&#45;&gt;Node14 -->
<g id="edge8" class="edge">
<title>Node2&#45;&gt;Node14</title>
<path fill="none" stroke="midnightblue" d="M375.41,-342.2C394.16,-334.3 421.68,-322.93 446,-313.77 451.81,-311.59 457.9,-309.37 463.99,-307.2"/>
<polygon fill="midnightblue" stroke="midnightblue" points="465.23,-310.48 473.5,-303.85 462.9,-303.87 465.23,-310.48"/>
</g>
<!-- Node16 -->
<g id="node10" class="node">
<title>Node16</title>
<g id="a_node10"><a xlink:href="structKFState.html#a6b83754311ce0a082153ebe40ee63e15" target="_top" xlink:title="Output keys and states in human readable format.">
<polygon fill="white" stroke="red" points="463,-235.27 463,-254.27 576,-254.27 576,-235.27 463,-235.27"/>
<text text-anchor="middle" x="519.5" y="-242.27" font-family="Helvetica,sans-Serif" font-size="10.00">KFState::outputStates</text>
</a>
</g>
</g>
<!-- Node2&#45;&gt;Node16 -->
<g id="edge9" class="edge">
<title>Node2&#45;&gt;Node16</title>
<path fill="none" stroke="midnightblue" d="M360.59,-342.07C375.17,-324.08 408.96,-285.52 446,-264.77 450.77,-262.1 455.92,-259.77 461.2,-257.73"/>
<polygon fill="midnightblue" stroke="midnightblue" points="462.49,-260.99 470.78,-254.39 460.18,-254.38 462.49,-260.99"/>
</g>
<!-- Node21 -->
<g id="node11" class="node">
<title>Node21</title>
<g id="a_node11"><a xlink:href="structKFMeasEntry.html#a1054abe38550bcd614c1a3c1afe752ee" target="_top" xlink:title="Adds the measurement noise entry for this measurement.">
<polygon fill="white" stroke="black" points="460,-197.27 460,-216.27 579,-216.27 579,-197.27 460,-197.27"/>
<text text-anchor="middle" x="519.5" y="-204.27" font-family="Helvetica,sans-Serif" font-size="10.00">KFMeasEntry::setNoise</text>
</a>
</g>
</g>
<!-- Node2&#45;&gt;Node21 -->
<g id="edge10" class="edge">
<title>Node2&#45;&gt;Node21</title>
<path fill="none" stroke="midnightblue" d="M357.27,-342.14C368.29,-318.42 400.09,-256.89 446,-225.77 448.94,-223.78 452.08,-221.99 455.35,-220.39"/>
<polygon fill="midnightblue" stroke="midnightblue" points="456.97,-223.5 464.8,-216.37 454.23,-217.06 456.97,-223.5"/>
</g>
<!-- Node22 -->
<g id="node12" class="node">
<title>Node22</title>
<g id="a_node12"><a xlink:href="structKFMeasEntry.html#a56ed46a7048dcd7e87e75eebc342dc7d" target="_top" xlink:title="Adds the actual measurement value for this measurement.">
<polygon fill="white" stroke="black" points="460.5,-159.27 460.5,-178.27 578.5,-178.27 578.5,-159.27 460.5,-159.27"/>
<text text-anchor="middle" x="519.5" y="-166.27" font-family="Helvetica,sans-Serif" font-size="10.00">KFMeasEntry::setValue</text>
</a>
</g>
</g>
<!-- Node2&#45;&gt;Node22 -->
<g id="edge11" class="edge">
<title>Node2&#45;&gt;Node22</title>
<path fill="none" stroke="midnightblue" d="M355.54,-342.25C363.58,-313.99 391.26,-229.88 446,-187.77 448.45,-185.89 451.07,-184.19 453.8,-182.66"/>
<polygon fill="midnightblue" stroke="midnightblue" points="455.35,-185.8 462.86,-178.33 452.33,-179.48 455.35,-185.8"/>
</g>
<!-- Node23 -->
<g id="node13" class="node">
<title>Node23</title>
<g id="a_node13"><a xlink:href="algebraTrace_8hpp.html#a912bbc3ba390c6b3a01f7cae26a53588" target="_top" xlink:title="Output filter state to a file for later reading.">
<polygon fill="white" stroke="red" points="648,-427.27 648,-446.27 729,-446.27 729,-427.27 648,-427.27"/>
<text text-anchor="middle" x="688.5" y="-434.27" font-family="Helvetica,sans-Serif" font-size="10.00">spitFilterToFile</text>
</a>
</g>
</g>
<!-- Node2&#45;&gt;Node23 -->
<g id="edge12" class="edge">
<title>Node2&#45;&gt;Node23</title>
<path fill="none" stroke="midnightblue" d="M360.97,-361.53C375.66,-378.69 408.94,-413.77 446,-427.77 508.84,-451.51 587.54,-449.08 637.69,-443.92"/>
<polygon fill="midnightblue" stroke="midnightblue" points="638.38,-447.37 647.94,-442.79 637.61,-440.41 638.38,-447.37"/>
</g>
<!-- Node26 -->
<g id="node14" class="node">
<title>Node26</title>
<g id="a_node14"><a xlink:href="structKFState.html#a170d9c3a01bee9ec1f7264615b087c58" target="_top" xlink:title="Add process noise and dynamics to filter object according to time gap.">
<polygon fill="white" stroke="red" points="458.5,-399.27 458.5,-418.27 580.5,-418.27 580.5,-399.27 458.5,-399.27"/>
<text text-anchor="middle" x="519.5" y="-406.27" font-family="Helvetica,sans-Serif" font-size="10.00">KFState::stateTransition</text>
</a>
</g>
</g>
<!-- Node2&#45;&gt;Node26 -->
<g id="edge13" class="edge">
<title>Node2&#45;&gt;Node26</title>
<path fill="none" stroke="midnightblue" d="M379.4,-361.31C397.99,-367.98 423.47,-377.05 446,-384.77 456.85,-388.49 468.65,-392.44 479.51,-396.03"/>
<polygon fill="midnightblue" stroke="midnightblue" points="478.58,-399.41 489.17,-399.22 480.77,-392.77 478.58,-399.41"/>
</g>
<!-- Node26&#45;&gt;Node11 -->
<g id="edge14" class="edge">
<title>Node26&#45;&gt;Node11</title>
<path fill="none" stroke="midnightblue" d="M575.64,-399.2C590.69,-396.58 607.12,-393.73 622.65,-391.03"/>
<polygon fill="midnightblue" stroke="midnightblue" points="623.44,-394.45 632.7,-389.29 622.25,-387.55 623.44,-394.45"/>
</g>
<!-- Node26&#45;&gt;Node23 -->
<g id="edge15" class="edge">
<title>Node26&#45;&gt;Node23</title>
<path fill="none" stroke="midnightblue" d="M577.5,-418.33C597.13,-421.62 618.93,-425.28 637.91,-428.46"/>
<polygon fill="midnightblue" stroke="midnightblue" points="637.41,-431.92 647.85,-430.12 638.56,-425.02 637.41,-431.92"/>
</g>
<!-- Node28&#45;&gt;Node29 -->
<g id="edge17" class="edge">
<title>Node28&#45;&gt;Node29</title>
<path fill="none" stroke="midnightblue" d="M572.88,-49.67C602.58,-53.58 638.4,-58.3 662.01,-61.41"/>
<polygon fill="midnightblue" stroke="midnightblue" points="661.55,-64.88 671.92,-62.72 662.47,-57.94 661.55,-64.88"/>
</g>
<!-- Node30&#45;&gt;Node2 -->
<g id="edge20" class="edge">
<title>Node30&#45;&gt;Node2</title>
<path fill="none" stroke="midnightblue" d="M208.55,-101.78C234.46,-147.25 312.07,-283.44 340.45,-333.26"/>
<polygon fill="midnightblue" stroke="midnightblue" points="337.45,-335.06 345.44,-342.02 343.53,-331.6 337.45,-335.06"/>
</g>
<!-- Node30&#45;&gt;Node28 -->
<g id="edge21" class="edge">
<title>Node30&#45;&gt;Node28</title>
<path fill="none" stroke="midnightblue" d="M252.87,-71.68C266.2,-68.32 280.55,-65.07 294,-62.77 348.39,-53.47 410.98,-48.35 456.23,-45.62"/>
<polygon fill="midnightblue" stroke="midnightblue" points="456.7,-49.1 466.48,-45.03 456.29,-42.11 456.7,-49.1"/>
</g>
<!-- Node30&#45;&gt;Node29 -->
<g id="edge22" class="edge">
<title>Node30&#45;&gt;Node29</title>
<path fill="none" stroke="midnightblue" d="M246.86,-101.8C261.76,-105.88 278.43,-109.74 294,-111.77 426.12,-129.04 462.13,-114.82 593,-89.77 616.77,-85.22 643.38,-77.98 662.29,-72.46"/>
<polygon fill="midnightblue" stroke="midnightblue" points="663.34,-75.8 671.94,-69.6 661.35,-69.09 663.34,-75.8"/>
</g>
<!-- Node31 -->
<g id="node18" class="node">
<title>Node31</title>
<g id="a_node18"><a xlink:href="namespaceyaml__settings.html#a1e3195a52eb24530dff37733524ef171" target="_top" xlink:title=" ">
<polygon fill="white" stroke="red" points="294,-71.77 294,-101.77 410,-101.77 410,-71.77 294,-71.77"/>
<text text-anchor="start" x="302" y="-89.77" font-family="Helvetica,sans-Serif" font-size="10.00">yaml_settings::type</text>
<text text-anchor="middle" x="352" y="-78.77" font-family="Helvetica,sans-Serif" font-size="10.00">_logical_setting_create</text>
</a>
</g>
</g>
<!-- Node30&#45;&gt;Node31 -->
<g id="edge23" class="edge">
<title>Node30&#45;&gt;Node31</title>
<path fill="none" stroke="midnightblue" d="M258.38,-86.77C266.64,-86.77 275.19,-86.77 283.6,-86.77"/>
<polygon fill="midnightblue" stroke="midnightblue" points="283.77,-90.27 293.77,-86.77 283.77,-83.27 283.77,-90.27"/>
</g>
<!-- Node31&#45;&gt;Node28 -->
<g id="edge24" class="edge">
<title>Node31&#45;&gt;Node28</title>
<path fill="none" stroke="midnightblue" d="M409.49,-71.75C424.63,-67.73 441.06,-63.36 456.48,-59.26"/>
<polygon fill="midnightblue" stroke="midnightblue" points="457.67,-62.57 466.44,-56.61 455.87,-55.8 457.67,-62.57"/>
</g>
<!-- Node31&#45;&gt;Node29 -->
<g id="edge25" class="edge">
<title>Node31&#45;&gt;Node29</title>
<path fill="none" stroke="midnightblue" d="M410.12,-83.02C483.62,-78.18 608.18,-69.99 661.75,-66.47"/>
<polygon fill="midnightblue" stroke="midnightblue" points="662.02,-69.96 671.77,-65.81 661.56,-62.97 662.02,-69.96"/>
</g>
</g>
</svg>
