<?xml version="1.0" encoding="UTF-8" standalone="no"?>
<!DOCTYPE svg PUBLIC "-//W3C//DTD SVG 1.1//EN"
 "http://www.w3.org/Graphics/SVG/1.1/DTD/svg11.dtd">
<!-- Generated by graphviz version 2.50.0 (20220203.2022)
 -->
<!-- Title: m_veq_rkn768::veq_rkn768 Pages: 1 -->
<svg width="619pt" height="1112pt"
 viewBox="0.00 0.00 619.00 1112.17" xmlns="http://www.w3.org/2000/svg" xmlns:xlink="http://www.w3.org/1999/xlink">
<g id="graph0" class="graph" transform="scale(1 1) rotate(0) translate(4 1108.17)">
<title>m_veq_rkn768::veq_rkn768</title>
<polygon fill="white" stroke="transparent" points="-4,4 -4,-1108.17 615,-1108.17 615,4 -4,4"/>
<!-- Node1 -->
<g id="node1" class="node">
<title>Node1</title>
<g id="a_node1"><a xlink:title=" ">
<polygon fill="#bfbfbf" stroke="black" points="0,-43.6 0,-62.6 135,-62.6 135,-43.6 0,-43.6"/>
<text text-anchor="middle" x="67.5" y="-50.6" font-family="Helvetica,sans-Serif" font-size="10.00">m_veq_rkn768::veq_rkn768</text>
</a>
</g>
</g>
<!-- Node2 -->
<g id="node2" class="node">
<title>Node2</title>
<g id="a_node2"><a xlink:href="algebra__old_8cpp.html#adc33998911a24938042604ba1f8e6196" target="_top" xlink:title=" ">
<polygon fill="white" stroke="black" points="562,-793.6 562,-812.6 611,-812.6 611,-793.6 562,-793.6"/>
<text text-anchor="middle" x="586.5" y="-800.6" font-family="Helvetica,sans-Serif" font-size="10.00">matmul</text>
</a>
</g>
</g>
<!-- Node1&#45;&gt;Node2 -->
<g id="edge1" class="edge">
<title>Node1&#45;&gt;Node2</title>
<path fill="none" stroke="midnightblue" d="M91.72,-43.52C153.13,-19.84 322.88,34.83 436,-33.1 505.62,-74.9 501.53,-114.67 526,-192.1 562.11,-306.37 580.69,-691.36 584.68,-783.27"/>
<polygon fill="midnightblue" stroke="midnightblue" points="581.19,-783.57 585.11,-793.41 588.18,-783.27 581.19,-783.57"/>
</g>
<!-- Node3 -->
<g id="node3" class="node">
<title>Node3</title>
<g id="a_node3"><a xlink:href="namespacem__pd__force.html#a942ea044856d62ee03ee7623436bc97e" target="_top" xlink:title=" ">
<polygon fill="white" stroke="black" points="171,-584.6 171,-603.6 281,-603.6 281,-584.6 171,-584.6"/>
<text text-anchor="middle" x="226" y="-591.6" font-family="Helvetica,sans-Serif" font-size="10.00">m_pd_force::pd_force</text>
</a>
</g>
</g>
<!-- Node1&#45;&gt;Node3 -->
<g id="edge2" class="edge">
<title>Node1&#45;&gt;Node3</title>
<path fill="none" stroke="midnightblue" d="M71.35,-62.95C89.94,-127.22 194,-486.94 219.41,-574.76"/>
<polygon fill="midnightblue" stroke="midnightblue" points="216.08,-575.86 222.22,-584.49 222.8,-573.91 216.08,-575.86"/>
</g>
<!-- Node101 -->
<g id="node11" class="node">
<title>Node101</title>
<g id="a_node11"><a xlink:href="report_8f90.html#ad7b70277944dcb0bbfd72a8dbe9ad4df" target="_top" xlink:title=" ">
<polygon fill="white" stroke="red" points="478.5,-201.6 478.5,-220.6 519.5,-220.6 519.5,-201.6 478.5,-201.6"/>
<text text-anchor="middle" x="499" y="-208.6" font-family="Helvetica,sans-Serif" font-size="10.00">report</text>
</a>
</g>
</g>
<!-- Node1&#45;&gt;Node101 -->
<g id="edge37" class="edge">
<title>Node1&#45;&gt;Node101</title>
<path fill="none" stroke="midnightblue" d="M110.64,-43.57C183.9,-29.54 336.41,-11.81 436,-80.1 473.91,-106.09 489.28,-161.68 494.98,-191.4"/>
<polygon fill="midnightblue" stroke="midnightblue" points="491.56,-192.16 496.72,-201.41 498.46,-190.96 491.56,-192.16"/>
</g>
<!-- Node3&#45;&gt;Node2 -->
<g id="edge15" class="edge">
<title>Node3&#45;&gt;Node2</title>
<path fill="none" stroke="midnightblue" d="M227.18,-603.63C228.61,-666.16 240,-1017.03 317,-1081.1 357.65,-1114.93 390.6,-1108.23 436,-1081.1 533.73,-1022.69 571.3,-875.99 581.99,-822.77"/>
<polygon fill="midnightblue" stroke="midnightblue" points="585.48,-823.12 583.92,-812.64 578.61,-821.81 585.48,-823.12"/>
</g>
<!-- Node4 -->
<g id="node4" class="node">
<title>Node4</title>
<g id="a_node4"><a xlink:href="attitude_8f95.html#a8ee7764bdfc5e3bea9130e1ca999cb6d" target="_top" xlink:title=" ">
<polygon fill="white" stroke="red" points="352,-698.6 352,-717.6 401,-717.6 401,-698.6 352,-698.6"/>
<text text-anchor="middle" x="376.5" y="-705.6" font-family="Helvetica,sans-Serif" font-size="10.00">attitude</text>
</a>
</g>
</g>
<!-- Node3&#45;&gt;Node4 -->
<g id="edge3" class="edge">
<title>Node3&#45;&gt;Node4</title>
<path fill="none" stroke="midnightblue" d="M233.51,-603.68C246.93,-622.7 279.54,-665.44 317,-689.1 324.59,-693.89 333.51,-697.59 342.06,-700.39"/>
<polygon fill="midnightblue" stroke="midnightblue" points="341.25,-703.8 351.83,-703.28 343.23,-697.08 341.25,-703.8"/>
</g>
<!-- Node43 -->
<g id="node5" class="node">
<title>Node43</title>
<g id="a_node5"><a xlink:href="EOP_8f90.html#ae7a3de1bf2c72753f2eeb8e05d63f962" target="_top" xlink:title=" ">
<polygon fill="white" stroke="red" points="360.5,-660.6 360.5,-679.6 392.5,-679.6 392.5,-660.6 360.5,-660.6"/>
<text text-anchor="middle" x="376.5" y="-667.6" font-family="Helvetica,sans-Serif" font-size="10.00">eop</text>
</a>
</g>
</g>
<!-- Node3&#45;&gt;Node43 -->
<g id="edge4" class="edge">
<title>Node3&#45;&gt;Node43</title>
<path fill="none" stroke="midnightblue" d="M239.82,-603.68C256.76,-616 287.87,-637.41 317,-651.1 327.58,-656.07 339.82,-660.27 350.35,-663.44"/>
<polygon fill="midnightblue" stroke="midnightblue" points="349.62,-666.87 360.19,-666.26 351.55,-660.14 349.62,-666.87"/>
</g>
<!-- Node75 -->
<g id="node6" class="node">
<title>Node75</title>
<g id="a_node6"><a xlink:href="force__gm_8f90.html#a3408d58bb93ee86baa1fcb19b5be18a2" target="_top" xlink:title=" ">
<polygon fill="white" stroke="red" points="348,-622.6 348,-641.6 405,-641.6 405,-622.6 348,-622.6"/>
<text text-anchor="middle" x="376.5" y="-629.6" font-family="Helvetica,sans-Serif" font-size="10.00">force_gm</text>
</a>
</g>
</g>
<!-- Node3&#45;&gt;Node75 -->
<g id="edge5" class="edge">
<title>Node3&#45;&gt;Node75</title>
<path fill="none" stroke="midnightblue" d="M264.47,-603.69C286.97,-609.44 315.51,-616.75 338.01,-622.5"/>
<polygon fill="midnightblue" stroke="midnightblue" points="337.33,-625.94 347.88,-625.03 339.06,-619.16 337.33,-625.94"/>
</g>
<!-- Node77 -->
<g id="node7" class="node">
<title>Node77</title>
<g id="a_node7"><a xlink:href="force__gm3rd_8f90.html#ae9c9faaa26118a235bd19de9836c294e" target="_top" xlink:title=" ">
<polygon fill="white" stroke="black" points="341,-584.6 341,-603.6 412,-603.6 412,-584.6 341,-584.6"/>
<text text-anchor="middle" x="376.5" y="-591.6" font-family="Helvetica,sans-Serif" font-size="10.00">force_gm3rd</text>
</a>
</g>
</g>
<!-- Node3&#45;&gt;Node77 -->
<g id="edge6" class="edge">
<title>Node3&#45;&gt;Node77</title>
<path fill="none" stroke="midnightblue" d="M281.03,-594.1C297.2,-594.1 314.76,-594.1 330.3,-594.1"/>
<polygon fill="midnightblue" stroke="midnightblue" points="330.7,-597.6 340.7,-594.1 330.7,-590.6 330.7,-597.6"/>
</g>
<!-- Node78 -->
<g id="node8" class="node">
<title>Node78</title>
<g id="a_node8"><a xlink:href="force__srp_8f90.html#ac60c56aaaf5a6f7118c763fe46ce8373" target="_top" xlink:title=" ">
<polygon fill="white" stroke="red" points="348,-359.6 348,-378.6 405,-378.6 405,-359.6 348,-359.6"/>
<text text-anchor="middle" x="376.5" y="-366.6" font-family="Helvetica,sans-Serif" font-size="10.00">force_srp</text>
</a>
</g>
</g>
<!-- Node3&#45;&gt;Node78 -->
<g id="edge7" class="edge">
<title>Node3&#45;&gt;Node78</title>
<path fill="none" stroke="midnightblue" d="M228.45,-584.36C233.81,-551.81 255.47,-445.65 317,-389.1 322.95,-383.63 330.45,-379.65 338.08,-376.76"/>
<polygon fill="midnightblue" stroke="midnightblue" points="339.27,-380.05 347.71,-373.64 337.12,-373.39 339.27,-380.05"/>
</g>
<!-- Node80 -->
<g id="node9" class="node">
<title>Node80</title>
<g id="a_node9"><a xlink:href="lambda_8cpp.html#a364f9f201016e3baff0a9366158a823b" target="_top" xlink:title=" ">
<polygon fill="white" stroke="red" points="475,-793.6 475,-812.6 523,-812.6 523,-793.6 475,-793.6"/>
<text text-anchor="middle" x="499" y="-800.6" font-family="Helvetica,sans-Serif" font-size="10.00">lambda</text>
</a>
</g>
</g>
<!-- Node3&#45;&gt;Node80 -->
<g id="edge14" class="edge">
<title>Node3&#45;&gt;Node80</title>
<path fill="none" stroke="midnightblue" d="M227.76,-603.74C232.23,-657.53 256.94,-919.81 317,-967.1 358.55,-999.82 392.49,-997.16 436,-967.1 483.9,-933.99 494.84,-858.79 497.3,-822.89"/>
<polygon fill="midnightblue" stroke="midnightblue" points="500.81,-822.89 497.84,-812.72 493.82,-822.52 500.81,-822.89"/>
</g>
<!-- Node29 -->
<g id="node10" class="node">
<title>Node29</title>
<g id="a_node10"><a xlink:href="matrix__Rr_8f90.html#ac8734d74fb7ada7605575d3b9d26f2bb" target="_top" xlink:title=" ">
<polygon fill="white" stroke="red" points="472,-405.6 472,-424.6 526,-424.6 526,-405.6 472,-405.6"/>
<text text-anchor="middle" x="499" y="-412.6" font-family="Helvetica,sans-Serif" font-size="10.00">matrix_rr</text>
</a>
</g>
</g>
<!-- Node3&#45;&gt;Node29 -->
<g id="edge16" class="edge">
<title>Node3&#45;&gt;Node29</title>
<path fill="none" stroke="midnightblue" d="M227.2,-584.22C228.74,-520.98 240.59,-173.61 317,-110.1 357.67,-76.29 395.05,-76.63 436,-110.1 458.45,-128.44 486.83,-330.39 495.42,-395.2"/>
<polygon fill="midnightblue" stroke="midnightblue" points="491.98,-395.86 496.75,-405.32 498.92,-394.95 491.98,-395.86"/>
</g>
<!-- Node108 -->
<g id="node12" class="node">
<title>Node108</title>
<g id="a_node12"><a xlink:href="namespacem__force__tides.html#a9aef525fcc6bc1e959ee88315b478c82" target="_top" xlink:title=" ">
<polygon fill="white" stroke="red" points="324.5,-535.1 324.5,-565.1 428.5,-565.1 428.5,-535.1 324.5,-535.1"/>
<text text-anchor="start" x="332.5" y="-553.1" font-family="Helvetica,sans-Serif" font-size="10.00">m_force_tides::force</text>
<text text-anchor="middle" x="376.5" y="-542.1" font-family="Helvetica,sans-Serif" font-size="10.00">_tides</text>
</a>
</g>
</g>
<!-- Node3&#45;&gt;Node108 -->
<g id="edge12" class="edge">
<title>Node3&#45;&gt;Node108</title>
<path fill="none" stroke="midnightblue" d="M259.22,-584.55C275.49,-579.73 295.78,-573.72 314.83,-568.07"/>
<polygon fill="midnightblue" stroke="midnightblue" points="316.06,-571.36 324.65,-565.16 314.07,-564.65 316.06,-571.36"/>
</g>
<!-- Node111 -->
<g id="node13" class="node">
<title>Node111</title>
<g id="a_node13"><a xlink:href="indirectJ2_8f90.html#a51b7788cb74168b4ccf4c4c9593c0d28" target="_top" xlink:title=" ">
<polygon fill="white" stroke="black" points="348.5,-496.6 348.5,-515.6 404.5,-515.6 404.5,-496.6 348.5,-496.6"/>
<text text-anchor="middle" x="376.5" y="-503.6" font-family="Helvetica,sans-Serif" font-size="10.00">indirectj2</text>
</a>
</g>
</g>
<!-- Node3&#45;&gt;Node111 -->
<g id="edge13" class="edge">
<title>Node3&#45;&gt;Node111</title>
<path fill="none" stroke="midnightblue" d="M237.32,-584.53C253.31,-570.13 285.52,-542.82 317,-526.1 323.71,-522.53 331.19,-519.41 338.49,-516.76"/>
<polygon fill="midnightblue" stroke="midnightblue" points="339.91,-519.97 348.25,-513.43 337.66,-513.34 339.91,-519.97"/>
</g>
<!-- Node112 -->
<g id="node14" class="node">
<title>Node112</title>
<g id="a_node14"><a xlink:href="namespacem__pd__ecom.html#a6566481abfae9e375586538e1de35f42" target="_top" xlink:title=" ">
<polygon fill="white" stroke="red" points="319.5,-736.6 319.5,-755.6 433.5,-755.6 433.5,-736.6 319.5,-736.6"/>
<text text-anchor="middle" x="376.5" y="-743.6" font-family="Helvetica,sans-Serif" font-size="10.00">m_pd_ecom::pd_ecom</text>
</a>
</g>
</g>
<!-- Node3&#45;&gt;Node112 -->
<g id="edge17" class="edge">
<title>Node3&#45;&gt;Node112</title>
<path fill="none" stroke="midnightblue" d="M230.85,-603.74C241.09,-628.12 271.33,-692.74 317,-727.1 319.48,-728.96 322.15,-730.65 324.94,-732.17"/>
<polygon fill="midnightblue" stroke="midnightblue" points="323.6,-735.41 334.14,-736.51 326.59,-729.08 323.6,-735.41"/>
</g>
<!-- Node113 -->
<g id="node15" class="node">
<title>Node113</title>
<g id="a_node15"><a xlink:href="namespacem__pd__empirical.html#a7b23cff80d996d8e519c6c7a71a955ff" target="_top" xlink:title=" ">
<polygon fill="white" stroke="red" points="326.5,-398.1 326.5,-428.1 426.5,-428.1 426.5,-398.1 326.5,-398.1"/>
<text text-anchor="start" x="334.5" y="-416.1" font-family="Helvetica,sans-Serif" font-size="10.00">m_pd_empirical::pd</text>
<text text-anchor="middle" x="376.5" y="-405.1" font-family="Helvetica,sans-Serif" font-size="10.00">_empirical</text>
</a>
</g>
</g>
<!-- Node3&#45;&gt;Node113 -->
<g id="edge20" class="edge">
<title>Node3&#45;&gt;Node113</title>
<path fill="none" stroke="midnightblue" d="M230.17,-584.25C239.34,-557.27 268.35,-481.26 317,-438.1 318.75,-436.55 320.6,-435.09 322.54,-433.7"/>
<polygon fill="midnightblue" stroke="midnightblue" points="324.8,-436.42 331.44,-428.16 321.11,-430.47 324.8,-436.42"/>
</g>
<!-- Node114 -->
<g id="node16" class="node">
<title>Node114</title>
<g id="a_node16"><a xlink:href="namespacem__pd__geopotential.html#a348c4f09b044b8253b29d7738b6635f8" target="_top" xlink:title=" ">
<polygon fill="white" stroke="red" points="325,-447.1 325,-477.1 428,-477.1 428,-447.1 325,-447.1"/>
<text text-anchor="start" x="333" y="-465.1" font-family="Helvetica,sans-Serif" font-size="10.00">m_pd_geopotential::</text>
<text text-anchor="middle" x="376.5" y="-454.1" font-family="Helvetica,sans-Serif" font-size="10.00">pd_geopotential</text>
</a>
</g>
</g>
<!-- Node3&#45;&gt;Node114 -->
<g id="edge21" class="edge">
<title>Node3&#45;&gt;Node114</title>
<path fill="none" stroke="midnightblue" d="M232.82,-584.52C245.66,-564.07 278.38,-515.71 317,-487.1 319.45,-485.28 322.05,-483.57 324.75,-481.95"/>
<polygon fill="midnightblue" stroke="midnightblue" points="326.47,-485 333.58,-477.14 323.12,-478.85 326.47,-485"/>
</g>
<!-- Node117 -->
<g id="node17" class="node">
<title>Node117</title>
<g id="a_node17"><a xlink:href="pd__gm_8f95.html#a56f372e579bbff35db9e0d4c4a452d2f" target="_top" xlink:title=" ">
<polygon fill="white" stroke="red" points="353.5,-321.6 353.5,-340.6 399.5,-340.6 399.5,-321.6 353.5,-321.6"/>
<text text-anchor="middle" x="376.5" y="-328.6" font-family="Helvetica,sans-Serif" font-size="10.00">pd_gm</text>
</a>
</g>
</g>
<!-- Node3&#45;&gt;Node117 -->
<g id="edge23" class="edge">
<title>Node3&#45;&gt;Node117</title>
<path fill="none" stroke="midnightblue" d="M227.63,-584.57C230.53,-548.47 245.72,-418.63 317,-350.1 324.18,-343.2 333.89,-338.8 343.34,-336"/>
<polygon fill="midnightblue" stroke="midnightblue" points="344.47,-339.33 353.35,-333.55 342.81,-332.53 344.47,-339.33"/>
</g>
<!-- Node33 -->
<g id="node18" class="node">
<title>Node33</title>
<g id="a_node18"><a xlink:href="PLEPH_8f.html#aedc7e0a9526045bd01307271228e14a3" target="_top" xlink:title=" ">
<polygon fill="white" stroke="red" points="356.5,-283.6 356.5,-302.6 396.5,-302.6 396.5,-283.6 356.5,-283.6"/>
<text text-anchor="middle" x="376.5" y="-290.6" font-family="Helvetica,sans-Serif" font-size="10.00">pleph</text>
</a>
</g>
</g>
<!-- Node3&#45;&gt;Node33 -->
<g id="edge24" class="edge">
<title>Node3&#45;&gt;Node33</title>
<path fill="none" stroke="midnightblue" d="M227.09,-584.51C227.98,-544.96 236.71,-392.79 317,-312.1 324.8,-304.26 335.85,-299.66 346.25,-296.95"/>
<polygon fill="midnightblue" stroke="midnightblue" points="347.24,-300.32 356.3,-294.83 345.79,-293.47 347.24,-300.32"/>
</g>
<!-- Node118 -->
<g id="node19" class="node">
<title>Node118</title>
<g id="a_node19"><a xlink:href="namespacem__pulses__force.html#abfc02dc84f95c18d3f9b655fafe75661" target="_top" xlink:title=" ">
<polygon fill="white" stroke="red" points="317,-234.1 317,-264.1 436,-264.1 436,-234.1 317,-234.1"/>
<text text-anchor="start" x="325" y="-252.1" font-family="Helvetica,sans-Serif" font-size="10.00">m_pulses_force::pulses</text>
<text text-anchor="middle" x="376.5" y="-241.1" font-family="Helvetica,sans-Serif" font-size="10.00">_force</text>
</a>
</g>
</g>
<!-- Node3&#45;&gt;Node118 -->
<g id="edge25" class="edge">
<title>Node3&#45;&gt;Node118</title>
<path fill="none" stroke="midnightblue" d="M226.87,-584.34C226.82,-541.85 232.09,-370.8 317,-274.1 318.15,-272.79 319.39,-271.54 320.69,-270.36"/>
<polygon fill="midnightblue" stroke="midnightblue" points="322.89,-273.08 328.75,-264.26 318.67,-267.5 322.89,-273.08"/>
</g>
<!-- Node122 -->
<g id="node20" class="node">
<title>Node122</title>
<g id="a_node20"><a xlink:href="rel__deSitter_8f90.html#ab79d33d2a897fc82a03c1a96a40c23b8" target="_top" xlink:title=" ">
<polygon fill="white" stroke="red" points="344,-195.6 344,-214.6 409,-214.6 409,-195.6 344,-195.6"/>
<text text-anchor="middle" x="376.5" y="-202.6" font-family="Helvetica,sans-Serif" font-size="10.00">rel_desitter</text>
</a>
</g>
</g>
<!-- Node3&#45;&gt;Node122 -->
<g id="edge26" class="edge">
<title>Node3&#45;&gt;Node122</title>
<path fill="none" stroke="midnightblue" d="M228.09,-584.51C234.24,-532.12 266.07,-280.84 317,-225.1 321.72,-219.93 327.83,-216.1 334.31,-213.26"/>
<polygon fill="midnightblue" stroke="midnightblue" points="335.75,-216.46 343.96,-209.76 333.36,-209.88 335.75,-216.46"/>
</g>
<!-- Node123 -->
<g id="node21" class="node">
<title>Node123</title>
<g id="a_node21"><a xlink:href="rel__LenseThirring_8f90.html#a68696beff95aeb99a8ad23fc33bf9ef6" target="_top" xlink:title=" ">
<polygon fill="white" stroke="red" points="334,-157.6 334,-176.6 419,-176.6 419,-157.6 334,-157.6"/>
<text text-anchor="middle" x="376.5" y="-164.6" font-family="Helvetica,sans-Serif" font-size="10.00">rel_lensethirring</text>
</a>
</g>
</g>
<!-- Node3&#45;&gt;Node123 -->
<g id="edge27" class="edge">
<title>Node3&#45;&gt;Node123</title>
<path fill="none" stroke="midnightblue" d="M227.86,-584.24C232.97,-527.98 260.94,-247.87 317,-186.1 319.37,-183.49 322.1,-181.24 325.06,-179.29"/>
<polygon fill="midnightblue" stroke="midnightblue" points="326.71,-182.38 333.89,-174.59 323.42,-176.2 326.71,-182.38"/>
</g>
<!-- Node124 -->
<g id="node22" class="node">
<title>Node124</title>
<g id="a_node22"><a xlink:href="rel__schwarzschild_8f90.html#ac681e041df60effbcc45975e656adeca" target="_top" xlink:title=" ">
<polygon fill="white" stroke="red" points="329.5,-119.6 329.5,-138.6 423.5,-138.6 423.5,-119.6 329.5,-119.6"/>
<text text-anchor="middle" x="376.5" y="-126.6" font-family="Helvetica,sans-Serif" font-size="10.00">rel_schwarzschild</text>
</a>
</g>
</g>
<!-- Node3&#45;&gt;Node124 -->
<g id="edge28" class="edge">
<title>Node3&#45;&gt;Node124</title>
<path fill="none" stroke="midnightblue" d="M227.64,-584.5C231.76,-525.88 256.17,-216.36 317,-148.1 318.2,-146.75 319.49,-145.51 320.86,-144.35"/>
<polygon fill="midnightblue" stroke="midnightblue" points="323.07,-147.08 329.44,-138.61 319.18,-141.26 323.07,-147.08"/>
</g>
<!-- Node125 -->
<g id="node23" class="node">
<title>Node125</title>
<g id="a_node23"><a xlink:href="namespacem__shadow.html#a57161869236b6fe30e33523417670ca1" target="_top" xlink:title=" ">
<polygon fill="white" stroke="red" points="325.5,-850.6 325.5,-869.6 427.5,-869.6 427.5,-850.6 325.5,-850.6"/>
<text text-anchor="middle" x="376.5" y="-857.6" font-family="Helvetica,sans-Serif" font-size="10.00">m_shadow::shadow</text>
</a>
</g>
</g>
<!-- Node3&#45;&gt;Node125 -->
<g id="edge29" class="edge">
<title>Node3&#45;&gt;Node125</title>
<path fill="none" stroke="midnightblue" d="M227.59,-603.73C230.35,-640.27 245.08,-771.68 317,-841.1 318.62,-842.66 320.38,-844.1 322.23,-845.42"/>
<polygon fill="midnightblue" stroke="midnightblue" points="320.47,-848.45 330.87,-850.48 324.01,-842.41 320.47,-848.45"/>
</g>
<!-- Node127 -->
<g id="node24" class="node">
<title>Node127</title>
<g id="a_node24"><a xlink:href="tide__perm_8f90.html#adda319d54ab9b0b665614cb644eb95f2" target="_top" xlink:title=" ">
<polygon fill="white" stroke="black" points="347,-1052.6 347,-1071.6 406,-1071.6 406,-1052.6 347,-1052.6"/>
<text text-anchor="middle" x="376.5" y="-1059.6" font-family="Helvetica,sans-Serif" font-size="10.00">tide_perm</text>
</a>
</g>
</g>
<!-- Node3&#45;&gt;Node127 -->
<g id="edge31" class="edge">
<title>Node3&#45;&gt;Node127</title>
<path fill="none" stroke="midnightblue" d="M227.63,-603.76C231.69,-662.77 255.82,-974.36 317,-1043.1 322.34,-1049.1 329.6,-1053.21 337.18,-1056.03"/>
<polygon fill="midnightblue" stroke="midnightblue" points="336.25,-1059.41 346.84,-1058.95 338.28,-1052.71 336.25,-1059.41"/>
</g>
<!-- Node128 -->
<g id="node25" class="node">
<title>Node128</title>
<g id="a_node25"><a xlink:href="tide__pole__oc_8f90.html#ac65b276bb335236d9760f2e74a262793" target="_top" xlink:title=" ">
<polygon fill="white" stroke="red" points="341,-1014.6 341,-1033.6 412,-1033.6 412,-1014.6 341,-1014.6"/>
<text text-anchor="middle" x="376.5" y="-1021.6" font-family="Helvetica,sans-Serif" font-size="10.00">tide_pole_oc</text>
</a>
</g>
</g>
<!-- Node3&#45;&gt;Node128 -->
<g id="edge32" class="edge">
<title>Node3&#45;&gt;Node128</title>
<path fill="none" stroke="midnightblue" d="M227.94,-603.85C233.49,-659.48 263.52,-936.59 317,-1000.1 320.94,-1004.78 325.94,-1008.56 331.35,-1011.61"/>
<polygon fill="midnightblue" stroke="midnightblue" points="330.19,-1014.93 340.72,-1016.08 333.2,-1008.62 330.19,-1014.93"/>
</g>
<!-- Node130 -->
<g id="node26" class="node">
<title>Node130</title>
<g id="a_node26"><a xlink:href="tide__pole__se_8f90.html#aa070dac97310c40a3875f8aca0ad336f" target="_top" xlink:title=" ">
<polygon fill="white" stroke="red" points="341,-938.6 341,-957.6 412,-957.6 412,-938.6 341,-938.6"/>
<text text-anchor="middle" x="376.5" y="-945.6" font-family="Helvetica,sans-Serif" font-size="10.00">tide_pole_se</text>
</a>
</g>
</g>
<!-- Node3&#45;&gt;Node130 -->
<g id="edge33" class="edge">
<title>Node3&#45;&gt;Node130</title>
<path fill="none" stroke="midnightblue" d="M226.52,-603.61C224.87,-647.34 223.9,-831.06 317,-929.1 320.95,-933.26 325.82,-936.51 331.05,-939.05"/>
<polygon fill="midnightblue" stroke="midnightblue" points="330.15,-942.46 340.74,-942.9 332.74,-935.95 330.15,-942.46"/>
</g>
<!-- Node131 -->
<g id="node27" class="node">
<title>Node131</title>
<g id="a_node27"><a xlink:href="namespacem__tides__ocean.html#a7f60c39f09ba6a64169ddc2359a1253b" target="_top" xlink:title=" ">
<polygon fill="white" stroke="red" points="322.5,-889.1 322.5,-919.1 430.5,-919.1 430.5,-889.1 322.5,-889.1"/>
<text text-anchor="start" x="330.5" y="-907.1" font-family="Helvetica,sans-Serif" font-size="10.00">m_tides_ocean::tides</text>
<text text-anchor="middle" x="376.5" y="-896.1" font-family="Helvetica,sans-Serif" font-size="10.00">_ocean</text>
</a>
</g>
</g>
<!-- Node3&#45;&gt;Node131 -->
<g id="edge34" class="edge">
<title>Node3&#45;&gt;Node131</title>
<path fill="none" stroke="midnightblue" d="M227.27,-603.86C228.87,-643.47 239.98,-794.14 317,-879.1 318.2,-880.42 319.48,-881.67 320.83,-882.87"/>
<polygon fill="midnightblue" stroke="midnightblue" points="319.04,-885.89 329.16,-889.01 323.19,-880.26 319.04,-885.89"/>
</g>
<!-- Node134 -->
<g id="node28" class="node">
<title>Node134</title>
<g id="a_node28"><a xlink:href="tides__solid1_8f90.html#a8c7ad9569346e149f76fbc2e136b770c" target="_top" xlink:title=" ">
<polygon fill="white" stroke="red" points="342.5,-812.6 342.5,-831.6 410.5,-831.6 410.5,-812.6 342.5,-812.6"/>
<text text-anchor="middle" x="376.5" y="-819.6" font-family="Helvetica,sans-Serif" font-size="10.00">tides_solid1</text>
</a>
</g>
</g>
<!-- Node3&#45;&gt;Node134 -->
<g id="edge35" class="edge">
<title>Node3&#45;&gt;Node134</title>
<path fill="none" stroke="midnightblue" d="M228.29,-603.6C233.22,-636.34 253.93,-745.61 317,-803.1 321.5,-807.2 326.9,-810.42 332.57,-812.94"/>
<polygon fill="midnightblue" stroke="midnightblue" points="331.67,-816.34 342.26,-816.56 334.12,-809.78 331.67,-816.34"/>
</g>
<!-- Node135 -->
<g id="node29" class="node">
<title>Node135</title>
<g id="a_node29"><a xlink:href="tides__solid2_8f90.html#a2fc63da0354f63ae550adaabd8315f49" target="_top" xlink:title=" ">
<polygon fill="white" stroke="red" points="342.5,-774.6 342.5,-793.6 410.5,-793.6 410.5,-774.6 342.5,-774.6"/>
<text text-anchor="middle" x="376.5" y="-781.6" font-family="Helvetica,sans-Serif" font-size="10.00">tides_solid2</text>
</a>
</g>
</g>
<!-- Node3&#45;&gt;Node135 -->
<g id="edge36" class="edge">
<title>Node3&#45;&gt;Node135</title>
<path fill="none" stroke="midnightblue" d="M229.35,-603.86C236.83,-632.9 262.87,-719.49 317,-765.1 321.6,-768.98 327.02,-772.07 332.66,-774.53"/>
<polygon fill="midnightblue" stroke="midnightblue" points="331.68,-777.9 342.27,-778.11 334.12,-771.34 331.68,-777.9"/>
</g>
<!-- Node78&#45;&gt;Node80 -->
<g id="edge8" class="edge">
<title>Node78&#45;&gt;Node80</title>
<path fill="none" stroke="midnightblue" d="M405.2,-372.27C416.36,-374.97 428.37,-379.95 436,-389.1 486.92,-450.16 496.09,-709.26 497.68,-783.28"/>
<polygon fill="midnightblue" stroke="midnightblue" points="494.18,-783.58 497.87,-793.51 501.18,-783.44 494.18,-783.58"/>
</g>
<!-- Node78&#45;&gt;Node29 -->
<g id="edge10" class="edge">
<title>Node78&#45;&gt;Node29</title>
<path fill="none" stroke="midnightblue" d="M405.02,-378.08C414.85,-381.4 425.97,-385.28 436,-389.1 446.15,-392.95 457.1,-397.44 466.94,-401.59"/>
<polygon fill="midnightblue" stroke="midnightblue" points="465.77,-404.89 476.34,-405.59 468.51,-398.45 465.77,-404.89"/>
</g>
<!-- Node78&#45;&gt;Node101 -->
<g id="edge11" class="edge">
<title>Node78&#45;&gt;Node101</title>
<path fill="none" stroke="midnightblue" d="M405.25,-365.05C415.89,-362.31 427.51,-357.74 436,-350.1 471.88,-317.82 488.12,-260.83 494.49,-230.84"/>
<polygon fill="midnightblue" stroke="midnightblue" points="497.97,-231.25 496.46,-220.77 491.1,-229.91 497.97,-231.25"/>
</g>
<!-- Node80&#45;&gt;Node2 -->
<g id="edge9" class="edge">
<title>Node80&#45;&gt;Node2</title>
<path fill="none" stroke="midnightblue" d="M523.36,-803.1C532.15,-803.1 542.32,-803.1 551.86,-803.1"/>
<polygon fill="midnightblue" stroke="midnightblue" points="551.87,-806.6 561.87,-803.1 551.87,-799.6 551.87,-806.6"/>
</g>
<!-- Node112&#45;&gt;Node80 -->
<g id="edge18" class="edge">
<title>Node112&#45;&gt;Node80</title>
<path fill="none" stroke="midnightblue" d="M411.43,-755.62C419.62,-758.32 428.24,-761.52 436,-765.1 449.75,-771.44 464.23,-780.18 475.73,-787.68"/>
<polygon fill="midnightblue" stroke="midnightblue" points="473.98,-790.72 484.25,-793.36 477.87,-784.9 473.98,-790.72"/>
</g>
<!-- Node112&#45;&gt;Node29 -->
<g id="edge19" class="edge">
<title>Node112&#45;&gt;Node29</title>
<path fill="none" stroke="midnightblue" d="M423.57,-736.59C428.24,-734.12 432.52,-731.01 436,-727.1 475.03,-683.18 492.01,-496.71 496.63,-435.01"/>
<polygon fill="midnightblue" stroke="midnightblue" points="500.15,-434.93 497.37,-424.71 493.17,-434.43 500.15,-434.93"/>
</g>
<!-- Node114&#45;&gt;Node29 -->
<g id="edge22" class="edge">
<title>Node114&#45;&gt;Node29</title>
<path fill="none" stroke="midnightblue" d="M415.96,-447.1C431.44,-441.06 449.14,-434.16 464.13,-428.31"/>
<polygon fill="midnightblue" stroke="midnightblue" points="465.49,-431.54 473.53,-424.64 462.94,-425.01 465.49,-431.54"/>
</g>
<!-- Node125&#45;&gt;Node80 -->
<g id="edge30" class="edge">
<title>Node125&#45;&gt;Node80</title>
<path fill="none" stroke="midnightblue" d="M411.43,-850.58C419.62,-847.87 428.24,-844.67 436,-841.1 449.75,-834.76 464.23,-826.02 475.73,-818.52"/>
<polygon fill="midnightblue" stroke="midnightblue" points="477.87,-821.3 484.25,-812.84 473.98,-815.48 477.87,-821.3"/>
</g>
</g>
</svg>
