<?xml version="1.0" encoding="UTF-8" standalone="no"?>
<!DOCTYPE svg PUBLIC "-//W3C//DTD SVG 1.1//EN"
 "http://www.w3.org/Graphics/SVG/1.1/DTD/svg11.dtd">
<!-- Generated by graphviz version 2.50.0 (20220203.2022)
 -->
<!-- Title: m_get_lambda::get_lambda Pages: 1 -->
<svg width="481pt" height="379pt"
 viewBox="0.00 0.00 481.00 378.67" xmlns="http://www.w3.org/2000/svg" xmlns:xlink="http://www.w3.org/1999/xlink">
<g id="graph0" class="graph" transform="scale(1 1) rotate(0) translate(4 374.67)">
<title>m_get_lambda::get_lambda</title>
<polygon fill="white" stroke="transparent" points="-4,4 -4,-374.67 477,-374.67 477,4 -4,4"/>
<!-- Node1 -->
<g id="node1" class="node">
<title>Node1</title>
<g id="a_node1"><a xlink:title=" ">
<polygon fill="#bfbfbf" stroke="black" points="0,-171.5 0,-190.5 135,-190.5 135,-171.5 0,-171.5"/>
<text text-anchor="middle" x="67.5" y="-178.5" font-family="Helvetica,sans-Serif" font-size="10.00">m_get_lambda::get_lambda</text>
</a>
</g>
</g>
<!-- Node2 -->
<g id="node2" class="node">
<title>Node2</title>
<g id="a_node2"><a xlink:href="lambda_8cpp.html#a364f9f201016e3baff0a9366158a823b" target="_top" xlink:title=" ">
<polygon fill="white" stroke="black" points="171,-190.5 171,-209.5 219,-209.5 219,-190.5 171,-190.5"/>
<text text-anchor="middle" x="195" y="-197.5" font-family="Helvetica,sans-Serif" font-size="10.00">lambda</text>
</a>
</g>
</g>
<!-- Node1&#45;&gt;Node2 -->
<g id="edge1" class="edge">
<title>Node1&#45;&gt;Node2</title>
<path fill="none" stroke="midnightblue" d="M131.62,-190.56C141.71,-192.08 151.79,-193.61 160.81,-194.97"/>
<polygon fill="midnightblue" stroke="midnightblue" points="160.44,-198.46 170.85,-196.5 161.49,-191.54 160.44,-198.46"/>
</g>
<!-- Node25 -->
<g id="node14" class="node">
<title>Node25</title>
<g id="a_node14"><a xlink:href="R1_8for.html#a790dd7e73934aaad6a8f20558f2a175f" target="_top" xlink:title=" ">
<polygon fill="white" stroke="black" points="180.5,-152.5 180.5,-171.5 209.5,-171.5 209.5,-152.5 180.5,-152.5"/>
<text text-anchor="middle" x="195" y="-159.5" font-family="Helvetica,sans-Serif" font-size="10.00">r1</text>
</a>
</g>
</g>
<!-- Node1&#45;&gt;Node25 -->
<g id="edge20" class="edge">
<title>Node1&#45;&gt;Node25</title>
<path fill="none" stroke="midnightblue" d="M131.62,-171.44C145.35,-169.37 159.06,-167.29 170.12,-165.62"/>
<polygon fill="midnightblue" stroke="midnightblue" points="170.83,-169.05 180.19,-164.09 169.78,-162.13 170.83,-169.05"/>
</g>
<!-- Node3 -->
<g id="node3" class="node">
<title>Node3</title>
<g id="a_node3"><a xlink:href="algebra__old_8cpp.html#adfe9cb36e0f4af6b1ca11bdfbe66e55c" target="_top" xlink:title=" ">
<polygon fill="white" stroke="black" points="271,-304.5 271,-323.5 303,-323.5 303,-304.5 271,-304.5"/>
<text text-anchor="middle" x="287" y="-311.5" font-family="Helvetica,sans-Serif" font-size="10.00">eye</text>
</a>
</g>
</g>
<!-- Node2&#45;&gt;Node3 -->
<g id="edge2" class="edge">
<title>Node2&#45;&gt;Node3</title>
<path fill="none" stroke="midnightblue" d="M200.13,-209.63C208.39,-228 228.43,-268.58 255,-295 257.21,-297.2 259.72,-299.26 262.34,-301.15"/>
<polygon fill="midnightblue" stroke="midnightblue" points="260.49,-304.12 270.8,-306.57 264.27,-298.23 260.49,-304.12"/>
</g>
<!-- Node4 -->
<g id="node4" class="node">
<title>Node4</title>
<g id="a_node4"><a xlink:href="algebra__old_8cpp.html#a446a2803e5eaeb996733dd8d73966f00" target="_top" xlink:title=" ">
<polygon fill="white" stroke="red" points="359.5,-304.5 359.5,-323.5 399.5,-323.5 399.5,-304.5 359.5,-304.5"/>
<text text-anchor="middle" x="379.5" y="-311.5" font-family="Helvetica,sans-Serif" font-size="10.00">zeros</text>
</a>
</g>
</g>
<!-- Node2&#45;&gt;Node4 -->
<g id="edge19" class="edge">
<title>Node2&#45;&gt;Node4</title>
<path fill="none" stroke="midnightblue" d="M196.84,-209.62C199.64,-235.13 211.17,-304.49 255,-333 284.15,-351.96 325.22,-339.72 351.85,-327.93"/>
<polygon fill="midnightblue" stroke="midnightblue" points="353.39,-331.07 360.96,-323.66 350.42,-324.73 353.39,-331.07"/>
</g>
<!-- Node6 -->
<g id="node5" class="node">
<title>Node6</title>
<g id="a_node5"><a xlink:href="algebra__old_8cpp.html#a1d2c1ecab5b17dcc773fcd83c0b87b7e" target="_top" xlink:title=" ">
<polygon fill="white" stroke="red" points="440,-266.5 440,-285.5 473,-285.5 473,-266.5 440,-266.5"/>
<text text-anchor="middle" x="456.5" y="-273.5" font-family="Helvetica,sans-Serif" font-size="10.00">mat</text>
</a>
</g>
</g>
<!-- Node2&#45;&gt;Node6 -->
<g id="edge8" class="edge">
<title>Node2&#45;&gt;Node6</title>
<path fill="none" stroke="midnightblue" d="M196.3,-209.65C197.76,-237.41 206.19,-317.67 255,-351 310.08,-388.62 346.19,-366.28 404,-333 420.37,-323.58 434.39,-307.13 443.65,-294.32"/>
<polygon fill="midnightblue" stroke="midnightblue" points="446.73,-296.01 449.52,-285.79 440.97,-292.05 446.73,-296.01"/>
</g>
<!-- Node7 -->
<g id="node6" class="node">
<title>Node7</title>
<g id="a_node6"><a xlink:href="lambda_8cpp.html#a1555fac516bd89d1cc6559c9cc79dc28" target="_top" xlink:title=" ">
<polygon fill="white" stroke="red" points="266.5,-114.5 266.5,-133.5 307.5,-133.5 307.5,-114.5 266.5,-114.5"/>
<text text-anchor="middle" x="287" y="-121.5" font-family="Helvetica,sans-Serif" font-size="10.00">ffratio</text>
</a>
</g>
</g>
<!-- Node2&#45;&gt;Node7 -->
<g id="edge5" class="edge">
<title>Node2&#45;&gt;Node7</title>
<path fill="none" stroke="midnightblue" d="M207.8,-190.45C211.42,-187.46 215.41,-184.13 219,-181 235.37,-166.75 238.4,-161.99 255,-148 258.19,-145.31 261.62,-142.54 265.01,-139.87"/>
<polygon fill="midnightblue" stroke="midnightblue" points="267.38,-142.46 273.14,-133.57 263.09,-136.93 267.38,-142.46"/>
</g>
<!-- Node9 -->
<g id="node7" class="node">
<title>Node9</title>
<g id="a_node7"><a xlink:href="lambda_8cpp.html#a95d9f9037b4b559cb1af6c1d66f26728" target="_top" xlink:title=" ">
<polygon fill="white" stroke="black" points="365,-228.5 365,-247.5 394,-247.5 394,-228.5 365,-228.5"/>
<text text-anchor="middle" x="379.5" y="-235.5" font-family="Helvetica,sans-Serif" font-size="10.00">LD</text>
</a>
</g>
</g>
<!-- Node2&#45;&gt;Node9 -->
<g id="edge6" class="edge">
<title>Node2&#45;&gt;Node9</title>
<path fill="none" stroke="midnightblue" d="M219.02,-208.35C229.83,-212.03 242.96,-216.15 255,-219 289.21,-227.08 329.58,-232.55 354.62,-235.47"/>
<polygon fill="midnightblue" stroke="midnightblue" points="354.33,-238.96 364.66,-236.6 355.11,-232 354.33,-238.96"/>
</g>
<!-- Node10 -->
<g id="node8" class="node">
<title>Node10</title>
<g id="a_node8"><a xlink:href="algebra__old_8cpp.html#adc33998911a24938042604ba1f8e6196" target="_top" xlink:title=" ">
<polygon fill="white" stroke="black" points="355,-152.5 355,-171.5 404,-171.5 404,-152.5 355,-152.5"/>
<text text-anchor="middle" x="379.5" y="-159.5" font-family="Helvetica,sans-Serif" font-size="10.00">matmul</text>
</a>
</g>
</g>
<!-- Node2&#45;&gt;Node10 -->
<g id="edge9" class="edge">
<title>Node2&#45;&gt;Node10</title>
<path fill="none" stroke="midnightblue" d="M219.02,-191.65C229.83,-187.97 242.96,-183.85 255,-181 284.93,-173.93 319.58,-168.86 344.54,-165.75"/>
<polygon fill="midnightblue" stroke="midnightblue" points="345.1,-169.21 354.61,-164.53 344.26,-162.26 345.1,-169.21"/>
</g>
<!-- Node11 -->
<g id="node9" class="node">
<title>Node11</title>
<g id="a_node9"><a xlink:href="lambda_8cpp.html#a62e489eccec78e79da165885d8ab994d" target="_top" xlink:title=" ">
<polygon fill="white" stroke="red" points="257,-76.5 257,-95.5 317,-95.5 317,-76.5 257,-76.5"/>
<text text-anchor="middle" x="287" y="-83.5" font-family="Helvetica,sans-Serif" font-size="10.00">normcdfar</text>
</a>
</g>
</g>
<!-- Node2&#45;&gt;Node11 -->
<g id="edge10" class="edge">
<title>Node2&#45;&gt;Node11</title>
<path fill="none" stroke="midnightblue" d="M209.58,-190.44C212.93,-187.66 216.33,-184.43 219,-181 241.96,-151.5 230.03,-132.81 255,-105 256,-103.88 257.08,-102.81 258.22,-101.79"/>
<polygon fill="midnightblue" stroke="midnightblue" points="260.45,-104.49 266.33,-95.68 256.24,-98.9 260.45,-104.49"/>
</g>
<!-- Node14 -->
<g id="node10" class="node">
<title>Node14</title>
<g id="a_node10"><a xlink:href="lambda_8cpp.html#a483a1d235f923852347ceb16f2944efe" target="_top" xlink:title=" ">
<polygon fill="white" stroke="red" points="259,-38.5 259,-57.5 315,-57.5 315,-38.5 259,-38.5"/>
<text text-anchor="middle" x="287" y="-45.5" font-family="Helvetica,sans-Serif" font-size="10.00">reduction</text>
</a>
</g>
</g>
<!-- Node2&#45;&gt;Node14 -->
<g id="edge11" class="edge">
<title>Node2&#45;&gt;Node14</title>
<path fill="none" stroke="midnightblue" d="M210.38,-190.28C213.57,-187.58 216.68,-184.44 219,-181 248.7,-136.94 222.28,-108.86 255,-67 255.81,-65.96 256.69,-64.97 257.63,-64.02"/>
<polygon fill="midnightblue" stroke="midnightblue" points="260.04,-66.57 265.63,-57.57 255.65,-61.12 260.04,-66.57"/>
</g>
<!-- Node17 -->
<g id="node11" class="node">
<title>Node17</title>
<g id="a_node11"><a xlink:href="lambda_8cpp.html#a7a45f828294c77c7e36d0a8cbfa229a3" target="_top" xlink:title=" ">
<polygon fill="white" stroke="black" points="264,-266.5 264,-285.5 310,-285.5 310,-266.5 264,-266.5"/>
<text text-anchor="middle" x="287" y="-273.5" font-family="Helvetica,sans-Serif" font-size="10.00">search</text>
</a>
</g>
</g>
<!-- Node2&#45;&gt;Node17 -->
<g id="edge12" class="edge">
<title>Node2&#45;&gt;Node17</title>
<path fill="none" stroke="midnightblue" d="M206.7,-209.79C218.38,-220.41 237.74,-237.74 255,-252 258.21,-254.66 261.66,-257.41 265.05,-260.07"/>
<polygon fill="midnightblue" stroke="midnightblue" points="263.14,-263.02 273.19,-266.37 267.42,-257.48 263.14,-263.02"/>
</g>
<!-- Node18 -->
<g id="node12" class="node">
<title>Node18</title>
<g id="a_node12"><a xlink:href="algebra__old_8cpp.html#a54fd9b64416949c38e879ac889964d2a" target="_top" xlink:title=" ">
<polygon fill="white" stroke="red" points="267,-190.5 267,-209.5 307,-209.5 307,-190.5 267,-190.5"/>
<text text-anchor="middle" x="287" y="-197.5" font-family="Helvetica,sans-Serif" font-size="10.00">solve</text>
</a>
</g>
</g>
<!-- Node2&#45;&gt;Node18 -->
<g id="edge15" class="edge">
<title>Node2&#45;&gt;Node18</title>
<path fill="none" stroke="midnightblue" d="M219.18,-200C230.62,-200 244.54,-200 256.71,-200"/>
<polygon fill="midnightblue" stroke="midnightblue" points="256.85,-203.5 266.85,-200 256.85,-196.5 256.85,-203.5"/>
</g>
<!-- Node24 -->
<g id="node13" class="node">
<title>Node24</title>
<g id="a_node13"><a xlink:href="streamTrace_8cpp.html#ae00e6addd3bdf3a7fd41a254eb9aec89" target="_top" xlink:title=" ">
<polygon fill="white" stroke="black" points="255,-0.5 255,-19.5 319,-19.5 319,-0.5 255,-0.5"/>
<text text-anchor="middle" x="287" y="-7.5" font-family="Helvetica,sans-Serif" font-size="10.00">tracepdeex</text>
</a>
</g>
</g>
<!-- Node2&#45;&gt;Node24 -->
<g id="edge18" class="edge">
<title>Node2&#45;&gt;Node24</title>
<path fill="none" stroke="midnightblue" d="M210.56,-190.4C213.74,-187.69 216.81,-184.52 219,-181 255.67,-122.05 214.28,-85.23 255,-29 255.67,-28.08 256.39,-27.19 257.17,-26.35"/>
<polygon fill="midnightblue" stroke="midnightblue" points="259.73,-28.76 265.11,-19.63 255.21,-23.41 259.73,-28.76"/>
</g>
<!-- Node3&#45;&gt;Node4 -->
<g id="edge3" class="edge">
<title>Node3&#45;&gt;Node4</title>
<path fill="none" stroke="midnightblue" d="M303.35,-314C315.89,-314 333.97,-314 349.26,-314"/>
<polygon fill="midnightblue" stroke="midnightblue" points="349.29,-317.5 359.29,-314 349.29,-310.5 349.29,-317.5"/>
</g>
<!-- Node4&#45;&gt;Node6 -->
<g id="edge4" class="edge">
<title>Node4&#45;&gt;Node6</title>
<path fill="none" stroke="midnightblue" d="M399.43,-304.41C408.9,-299.61 420.48,-293.74 430.66,-288.59"/>
<polygon fill="midnightblue" stroke="midnightblue" points="432.53,-291.56 439.87,-283.92 429.37,-285.32 432.53,-291.56"/>
</g>
<!-- Node9&#45;&gt;Node6 -->
<g id="edge7" class="edge">
<title>Node9&#45;&gt;Node6</title>
<path fill="none" stroke="midnightblue" d="M394.26,-244.97C404.4,-250.11 418.48,-257.24 430.59,-263.38"/>
<polygon fill="midnightblue" stroke="midnightblue" points="429.25,-266.62 439.75,-268.02 432.42,-260.38 429.25,-266.62"/>
</g>
<!-- Node17&#45;&gt;Node4 -->
<g id="edge14" class="edge">
<title>Node17&#45;&gt;Node4</title>
<path fill="none" stroke="midnightblue" d="M310.37,-285.39C322.38,-290.44 337.32,-296.71 350.14,-302.09"/>
<polygon fill="midnightblue" stroke="midnightblue" points="348.87,-305.35 359.45,-306 351.58,-298.9 348.87,-305.35"/>
</g>
<!-- Node17&#45;&gt;Node6 -->
<g id="edge13" class="edge">
<title>Node17&#45;&gt;Node6</title>
<path fill="none" stroke="midnightblue" d="M310.24,-276C341.1,-276 396.8,-276 429.53,-276"/>
<polygon fill="midnightblue" stroke="midnightblue" points="429.68,-279.5 439.68,-276 429.68,-272.5 429.68,-279.5"/>
</g>
<!-- Node18&#45;&gt;Node6 -->
<g id="edge16" class="edge">
<title>Node18&#45;&gt;Node6</title>
<path fill="none" stroke="midnightblue" d="M307.32,-199.37C331.41,-199.4 373.18,-202.2 404,-219 420.58,-228.04 434.58,-244.52 443.78,-257.45"/>
<polygon fill="midnightblue" stroke="midnightblue" points="441.1,-259.74 449.59,-266.07 446.9,-255.82 441.1,-259.74"/>
</g>
<!-- Node18&#45;&gt;Node10 -->
<g id="edge17" class="edge">
<title>Node18&#45;&gt;Node10</title>
<path fill="none" stroke="midnightblue" d="M307.19,-191.94C318.52,-187.18 333.16,-181.04 346.22,-175.56"/>
<polygon fill="midnightblue" stroke="midnightblue" points="347.95,-178.62 355.82,-171.52 345.24,-172.17 347.95,-178.62"/>
</g>
</g>
</svg>
