<?xml version="1.0" encoding="UTF-8" standalone="no"?>
<!DOCTYPE svg PUBLIC "-//W3C//DTD SVG 1.1//EN"
 "http://www.w3.org/Graphics/SVG/1.1/DTD/svg11.dtd">
<!-- Generated by graphviz version 2.50.0 (20220203.2022)
 -->
<!-- Title: pod_yaml::get_srp_parameters Pages: 1 -->
<svg width="389pt" height="46pt"
 viewBox="0.00 0.00 389.00 46.00" xmlns="http://www.w3.org/2000/svg" xmlns:xlink="http://www.w3.org/1999/xlink">
<g id="graph0" class="graph" transform="scale(1 1) rotate(0) translate(4 42)">
<title>pod_yaml::get_srp_parameters</title>
<polygon fill="white" stroke="transparent" points="-4,4 -4,-42 385,-42 385,4 -4,4"/>
<!-- Node1 -->
<g id="node1" class="node">
<title>Node1</title>
<g id="a_node1"><a xlink:title=" ">
<polygon fill="#bfbfbf" stroke="black" points="232,-0.5 232,-19.5 381,-19.5 381,-0.5 232,-0.5"/>
<text text-anchor="middle" x="306.5" y="-7.5" font-family="Helvetica,sans-Serif" font-size="10.00">pod_yaml::get_srp_parameters</text>
</a>
</g>
</g>
<!-- Node1&#45;&gt;Node1 -->
<g id="edge1" class="edge">
<title>Node1&#45;&gt;Node1</title>
<path fill="none" stroke="midnightblue" d="M336.44,-28.27C335.59,-33.74 325.61,-38 306.5,-38 278.06,-38 269.84,-28.57 281.84,-19.76"/>
<polygon fill="midnightblue" stroke="midnightblue" points="339.4,-26.41 331.16,-19.76 333.45,-30.1 339.4,-26.41"/>
</g>
<!-- Node2 -->
<g id="node2" class="node">
<title>Node2</title>
<g id="a_node2"><a xlink:href="namespacepod__yaml.html#aca21c2bb86797b2b46c5d509e3593198" target="_top" xlink:title=" ">
<polygon fill="white" stroke="black" points="95,-0.5 95,-19.5 196,-19.5 196,-0.5 95,-0.5"/>
<text text-anchor="middle" x="145.5" y="-7.5" font-family="Helvetica,sans-Serif" font-size="10.00">pod_yaml::get_yaml</text>
</a>
</g>
</g>
<!-- Node1&#45;&gt;Node2 -->
<g id="edge2" class="edge">
<title>Node1&#45;&gt;Node2</title>
<path fill="none" stroke="midnightblue" d="M221.44,-10C212.81,-10 204.25,-10 196.17,-10"/>
<polygon fill="midnightblue" stroke="midnightblue" points="221.59,-13.5 231.59,-10 221.59,-6.5 221.59,-13.5"/>
</g>
<!-- Node3 -->
<g id="node3" class="node">
<title>Node3</title>
<g id="a_node3"><a xlink:href="test__yaml_8F90.html#a6888e150b7fd2e019bcfccff79c24da2" target="_top" xlink:title=" ">
<polygon fill="white" stroke="black" points="0,-0.5 0,-19.5 59,-19.5 59,-0.5 0,-0.5"/>
<text text-anchor="middle" x="29.5" y="-7.5" font-family="Helvetica,sans-Serif" font-size="10.00">test_yaml</text>
</a>
</g>
</g>
<!-- Node2&#45;&gt;Node3 -->
<g id="edge3" class="edge">
<title>Node2&#45;&gt;Node3</title>
<path fill="none" stroke="midnightblue" d="M84.73,-10C75.78,-10 66.92,-10 59.04,-10"/>
<polygon fill="midnightblue" stroke="midnightblue" points="84.83,-13.5 94.83,-10 84.83,-6.5 84.83,-13.5"/>
</g>
</g>
</svg>
