<?xml version="1.0" encoding="UTF-8" standalone="no"?>
<!DOCTYPE svg PUBLIC "-//W3C//DTD SVG 1.1//EN"
 "http://www.w3.org/Graphics/SVG/1.1/DTD/svg11.dtd">
<!-- Generated by graphviz version 2.50.0 (20220203.2022)
 -->
<!-- Title: yaml_settings::type_integer_setting_create Pages: 1 -->
<!--zoomable 640 -->
<svg id="main" version="1.1" xmlns="http://www.w3.org/2000/svg" xmlns:xlink="http://www.w3.org/1999/xlink" xml:space="preserve" onload="init(evt)">
<style type="text/css"><![CDATA[
.edge:hover path { stroke: red; }
.edge:hover polygon { stroke: red; fill: red; }
]]></style>
<script type="text/javascript"><![CDATA[
var edges = document.getElementsByTagName('g');
if (edges && edges.length) {
  for (var i=0;i<edges.length;i++) {
    if (edges[i].id.substr(0,4)=='edge') {
      edges[i].setAttribute('class','edge');
    }
  }
}
]]></script>
        <defs>
                <circle id="rim" cx="0" cy="0" r="7"/>
                <circle id="rim2" cx="0" cy="0" r="3.5"/>
                <g id="zoomPlus">
                        <use xlink:href="#rim" fill="#404040">
                                <set attributeName="fill" to="#808080" begin="zoomplus.mouseover" end="zoomplus.mouseout"/>
                        </use>
                        <path d="M-4,0h8M0,-4v8" fill="none" stroke="white" stroke-width="1.5" pointer-events="none"/>
                </g>
                <g id="zoomMin">
                        <use xlink:href="#rim" fill="#404040">
                                <set attributeName="fill" to="#808080" begin="zoomminus.mouseover" end="zoomminus.mouseout"/>
                        </use>
                        <path d="M-4,0h8" fill="none" stroke="white" stroke-width="1.5" pointer-events="none"/>
                </g>
                <g id="dirArrow">
                        <path fill="none" stroke="white" stroke-width="1.5" d="M0,-3.0v7 M-2.5,-0.5L0,-3.0L2.5,-0.5"/>
                </g>
               <g id="resetDef">
                       <use xlink:href="#rim2" fill="#404040">
                               <set attributeName="fill" to="#808080" begin="reset.mouseover" end="reset.mouseout"/>
                       </use>
               </g>
        </defs>

<script type="text/javascript">
var viewWidth = 685;
var viewHeight = 640;
var sectionId = 'dynsection-4';
</script>
<script xlink:href="svgpan.js"/>
<svg id="graph" class="graph">
<g id="viewport">
<title>yaml_settings::type_integer_setting_create</title>
<polygon fill="white" stroke="transparent" points="-4,4 -4,-635.82 681,-635.82 681,4 -4,4"/>
<!-- Node1 -->
<g id="node1" class="node">
<title>Node1</title>
<g id="a_node1"><a xlink:title=" ">
<polygon fill="#bfbfbf" stroke="black" points="0,-119.82 0,-149.82 118,-149.82 118,-119.82 0,-119.82"/>
<text text-anchor="start" x="8" y="-137.82" font-family="Helvetica,sans-Serif" font-size="10.00">yaml_settings::type</text>
<text text-anchor="middle" x="59" y="-126.82" font-family="Helvetica,sans-Serif" font-size="10.00">_integer_setting_create</text>
</a>
</g>
</g>
<!-- Node2 -->
<g id="node2" class="node">
<title>Node2</title>
<g id="a_node2"><a xlink:href="minimumConstraints_8cpp.html#a6644baa0ee22e2cb52a4975b7d8f218e" target="_top" xlink:title=" ">
<polygon fill="white" stroke="black" points="184,-384.32 184,-403.32 240,-403.32 240,-384.32 184,-384.32"/>
<text text-anchor="middle" x="212" y="-391.32" font-family="Helvetica,sans-Serif" font-size="10.00">minimum</text>
</a>
</g>
</g>
<!-- Node1&#45;&gt;Node2 -->
<g id="edge1" class="edge">
<title>Node1&#45;&gt;Node2</title>
<path fill="none" stroke="midnightblue" d="M68.77,-149.86C94.8,-194.51 171.56,-326.17 200.13,-375.17"/>
<polygon fill="midnightblue" stroke="midnightblue" points="197.25,-377.19 205.31,-384.06 203.3,-373.66 197.25,-377.19"/>
</g>
<!-- Node28 -->
<g id="node15" class="node">
<title>Node28</title>
<g id="a_node15"><a xlink:href="namespaceyaml__settings.html#adc1e77e299c991421bd7ed4a2a8726e0" target="_top" xlink:title=" ">
<polygon fill="white" stroke="black" points="495.5,-62.82 495.5,-92.82 601.5,-92.82 601.5,-62.82 495.5,-62.82"/>
<text text-anchor="start" x="503.5" y="-80.82" font-family="Helvetica,sans-Serif" font-size="10.00">yaml_settings::report</text>
<text text-anchor="middle" x="548.5" y="-69.82" font-family="Helvetica,sans-Serif" font-size="10.00">_error</text>
</a>
</g>
</g>
<!-- Node1&#45;&gt;Node28 -->
<g id="edge16" class="edge">
<title>Node1&#45;&gt;Node28</title>
<path fill="none" stroke="midnightblue" d="M118.32,-128C210.86,-117.18 390.54,-96.17 485.4,-85.08"/>
<polygon fill="midnightblue" stroke="midnightblue" points="485.89,-88.55 495.42,-83.91 485.08,-81.59 485.89,-88.55"/>
</g>
<!-- Node29 -->
<g id="node16" class="node">
<title>Node29</title>
<g id="a_node16"><a xlink:href="sinex_8cpp.html#a06fabc81a2cc41dfee260450a527ad2d" target="_top" xlink:title=" ">
<polygon fill="white" stroke="black" points="644,-46.32 644,-65.32 677,-65.32 677,-46.32 644,-46.32"/>
<text text-anchor="middle" x="660.5" y="-53.32" font-family="Helvetica,sans-Serif" font-size="10.00">trim</text>
</a>
</g>
</g>
<!-- Node1&#45;&gt;Node29 -->
<g id="edge18" class="edge">
<title>Node1&#45;&gt;Node29</title>
<path fill="none" stroke="midnightblue" d="M118.21,-144.08C221.72,-157.86 442.46,-175 608,-102.82 622.88,-96.33 636.31,-83.74 645.72,-73.22"/>
<polygon fill="midnightblue" stroke="midnightblue" points="648.56,-75.28 652.36,-65.38 643.22,-70.75 648.56,-75.28"/>
</g>
<!-- Node30 -->
<g id="node17" class="node">
<title>Node30</title>
<g id="a_node17"><a xlink:href="namespaceyaml__settings.html#a1e3195a52eb24530dff37733524ef171" target="_top" xlink:title=" ">
<polygon fill="white" stroke="black" points="154,-37.82 154,-67.82 270,-67.82 270,-37.82 154,-37.82"/>
<text text-anchor="start" x="162" y="-55.82" font-family="Helvetica,sans-Serif" font-size="10.00">yaml_settings::type</text>
<text text-anchor="middle" x="212" y="-44.82" font-family="Helvetica,sans-Serif" font-size="10.00">_logical_setting_create</text>
</a>
</g>
</g>
<!-- Node1&#45;&gt;Node30 -->
<g id="edge19" class="edge">
<title>Node1&#45;&gt;Node30</title>
<path fill="none" stroke="midnightblue" d="M87.7,-119.78C111.99,-106.59 147.51,-87.3 174.19,-72.81"/>
<polygon fill="midnightblue" stroke="midnightblue" points="176.11,-75.75 183.22,-67.9 172.77,-69.6 176.11,-75.75"/>
</g>
<!-- Node3 -->
<g id="node3" class="node">
<title>Node3</title>
<g id="a_node3"><a xlink:href="structKFMeasEntry.html#a5af30258b0bcd703468c0d0ec2ed6d54" target="_top" xlink:title="Adds a design matrix entry for this measurement.">
<polygon fill="white" stroke="black" points="309.5,-612.32 309.5,-631.32 449.5,-631.32 449.5,-612.32 309.5,-612.32"/>
<text text-anchor="middle" x="379.5" y="-619.32" font-family="Helvetica,sans-Serif" font-size="10.00">KFMeasEntry::addDsgnEntry</text>
</a>
</g>
</g>
<!-- Node2&#45;&gt;Node3 -->
<g id="edge2" class="edge">
<title>Node2&#45;&gt;Node3</title>
<path fill="none" stroke="midnightblue" d="M214.31,-403.46C219.36,-436.67 240.62,-547.28 306,-602.82 308,-604.51 310.13,-606.06 312.36,-607.47"/>
<polygon fill="midnightblue" stroke="midnightblue" points="310.92,-610.67 321.39,-612.26 314.2,-604.48 310.92,-610.67"/>
</g>
<!-- Node4 -->
<g id="node4" class="node">
<title>Node4</title>
<g id="a_node4"><a xlink:href="structKFState.html#abae5c2435fa3ca6bb4396cd8a5363f85" target="_top" xlink:title="Combine a list of KFMeasEntrys into a single KFMeas object for used in the filter.">
<polygon fill="white" stroke="red" points="306,-574.32 306,-593.32 453,-593.32 453,-574.32 306,-574.32"/>
<text text-anchor="middle" x="379.5" y="-581.32" font-family="Helvetica,sans-Serif" font-size="10.00">KFState::combineKFMeasList</text>
</a>
</g>
</g>
<!-- Node2&#45;&gt;Node4 -->
<g id="edge3" class="edge">
<title>Node2&#45;&gt;Node4</title>
<path fill="none" stroke="midnightblue" d="M215.3,-403.32C222.83,-432.36 249.6,-520.64 306,-564.82 308.3,-566.62 310.76,-568.26 313.33,-569.74"/>
<polygon fill="midnightblue" stroke="midnightblue" points="311.91,-572.94 322.43,-574.2 314.99,-566.65 311.91,-572.94"/>
</g>
<!-- Node6 -->
<g id="node5" class="node">
<title>Node6</title>
<g id="a_node5"><a xlink:href="structKFState.html#a84691f6bbbe3cdccaa14722995a61e1b" target="_top" xlink:title="Returns the value and variance of a state within the kalman filter object.">
<polygon fill="white" stroke="black" points="325.5,-536.32 325.5,-555.32 433.5,-555.32 433.5,-536.32 325.5,-536.32"/>
<text text-anchor="middle" x="379.5" y="-543.32" font-family="Helvetica,sans-Serif" font-size="10.00">KFState::getKFValue</text>
</a>
</g>
</g>
<!-- Node2&#45;&gt;Node6 -->
<g id="edge4" class="edge">
<title>Node2&#45;&gt;Node6</title>
<path fill="none" stroke="midnightblue" d="M216.96,-403.62C227.48,-428.38 258.61,-493.8 306,-526.82 309.12,-528.99 312.47,-530.92 315.96,-532.62"/>
<polygon fill="midnightblue" stroke="midnightblue" points="314.89,-535.97 325.46,-536.64 317.61,-529.52 314.89,-535.97"/>
</g>
<!-- Node7 -->
<g id="node6" class="node">
<title>Node7</title>
<g id="a_node6"><a xlink:href="structACSConfig.html#a92bff361b02a9eb9de0296f29e7e1091" target="_top" xlink:title="Set minimum constraint options for a specific receiver using a hierarchy of sources.">
<polygon fill="white" stroke="red" points="311.5,-498.32 311.5,-517.32 447.5,-517.32 447.5,-498.32 311.5,-498.32"/>
<text text-anchor="middle" x="379.5" y="-505.32" font-family="Helvetica,sans-Serif" font-size="10.00">ACSConfig::getMinConOpts</text>
</a>
</g>
</g>
<!-- Node2&#45;&gt;Node7 -->
<g id="edge5" class="edge">
<title>Node2&#45;&gt;Node7</title>
<path fill="none" stroke="midnightblue" d="M220.38,-403.41C234.88,-421.61 268.9,-461.36 306,-483.82 313.26,-488.21 321.41,-491.91 329.57,-494.98"/>
<polygon fill="midnightblue" stroke="midnightblue" points="328.49,-498.31 339.08,-498.31 330.8,-491.7 328.49,-498.31"/>
</g>
<!-- Node11 -->
<g id="node7" class="node">
<title>Node11</title>
<g id="a_node7"><a xlink:href="structKFState.html#a34fe78e0ab7a8f1d122ceabddc29b207" target="_top" xlink:title="Clears and initialises the state transition matrix to identity at the beginning of an epoch.">
<polygon fill="white" stroke="black" points="489,-450.32 489,-469.32 608,-469.32 608,-450.32 489,-450.32"/>
<text text-anchor="middle" x="548.5" y="-457.32" font-family="Helvetica,sans-Serif" font-size="10.00">KFState::initFilterEpoch</text>
</a>
</g>
</g>
<!-- Node2&#45;&gt;Node11 -->
<g id="edge6" class="edge">
<title>Node2&#45;&gt;Node11</title>
<path fill="none" stroke="midnightblue" d="M224.37,-403.53C241.01,-417.05 273.55,-441.01 306,-450.82 362.24,-467.82 429.22,-468.91 478.36,-466.42"/>
<polygon fill="midnightblue" stroke="midnightblue" points="478.78,-469.9 488.56,-465.83 478.38,-462.91 478.78,-469.9"/>
</g>
<!-- Node12 -->
<g id="node8" class="node">
<title>Node12</title>
<g id="a_node8"><a xlink:href="structKFState.html#a5b591c7386c7fb734067424a097ca118" target="_top" xlink:title="Kalman filter.">
<polygon fill="white" stroke="red" points="337.5,-346.32 337.5,-365.32 421.5,-365.32 421.5,-346.32 337.5,-346.32"/>
<text text-anchor="middle" x="379.5" y="-353.32" font-family="Helvetica,sans-Serif" font-size="10.00">KFState::kFilter</text>
</a>
</g>
</g>
<!-- Node2&#45;&gt;Node12 -->
<g id="edge7" class="edge">
<title>Node2&#45;&gt;Node12</title>
<path fill="none" stroke="midnightblue" d="M240.33,-387.54C263.98,-382.11 298.81,-374.12 327.59,-367.51"/>
<polygon fill="midnightblue" stroke="midnightblue" points="328.52,-370.89 337.48,-365.24 326.95,-364.06 328.52,-370.89"/>
</g>
<!-- Node14 -->
<g id="node9" class="node">
<title>Node14</title>
<g id="a_node9"><a xlink:href="structKFState.html#ae1fc274c403b77dc814ed90763b4dea1" target="_top" xlink:title="Least squares estimator for new kalman filter states.">
<polygon fill="white" stroke="red" points="318.5,-296.82 318.5,-326.82 440.5,-326.82 440.5,-296.82 318.5,-296.82"/>
<text text-anchor="start" x="326.5" y="-314.82" font-family="Helvetica,sans-Serif" font-size="10.00">KFState::leastSquareInit</text>
<text text-anchor="middle" x="379.5" y="-303.82" font-family="Helvetica,sans-Serif" font-size="10.00">States</text>
</a>
</g>
</g>
<!-- Node2&#45;&gt;Node14 -->
<g id="edge8" class="edge">
<title>Node2&#45;&gt;Node14</title>
<path fill="none" stroke="midnightblue" d="M226.65,-384.14C244.32,-371.92 276.37,-350.8 306,-336.82 310.62,-334.64 315.49,-332.55 320.42,-330.57"/>
<polygon fill="midnightblue" stroke="midnightblue" points="321.86,-333.77 329.95,-326.92 319.36,-327.23 321.86,-333.77"/>
</g>
<!-- Node16 -->
<g id="node10" class="node">
<title>Node16</title>
<g id="a_node10"><a xlink:href="structKFState.html#a6b83754311ce0a082153ebe40ee63e15" target="_top" xlink:title="Output keys and states in human readable format.">
<polygon fill="white" stroke="red" points="323,-258.32 323,-277.32 436,-277.32 436,-258.32 323,-258.32"/>
<text text-anchor="middle" x="379.5" y="-265.32" font-family="Helvetica,sans-Serif" font-size="10.00">KFState::outputStates</text>
</a>
</g>
</g>
<!-- Node2&#45;&gt;Node16 -->
<g id="edge9" class="edge">
<title>Node2&#45;&gt;Node16</title>
<path fill="none" stroke="midnightblue" d="M218.64,-384.24C231.42,-363.39 264.72,-313.69 306,-287.82 310.14,-285.23 314.62,-282.96 319.24,-280.99"/>
<polygon fill="midnightblue" stroke="midnightblue" points="320.78,-284.15 328.9,-277.33 318.3,-277.6 320.78,-284.15"/>
</g>
<!-- Node21 -->
<g id="node11" class="node">
<title>Node21</title>
<g id="a_node11"><a xlink:href="structKFMeasEntry.html#a1054abe38550bcd614c1a3c1afe752ee" target="_top" xlink:title="Adds the measurement noise entry for this measurement.">
<polygon fill="white" stroke="black" points="320,-220.32 320,-239.32 439,-239.32 439,-220.32 320,-220.32"/>
<text text-anchor="middle" x="379.5" y="-227.32" font-family="Helvetica,sans-Serif" font-size="10.00">KFMeasEntry::setNoise</text>
</a>
</g>
</g>
<!-- Node2&#45;&gt;Node21 -->
<g id="edge10" class="edge">
<title>Node2&#45;&gt;Node21</title>
<path fill="none" stroke="midnightblue" d="M216.28,-384.3C225.73,-358.26 255.68,-285.39 306,-248.82 308.68,-246.87 311.55,-245.12 314.54,-243.55"/>
<polygon fill="midnightblue" stroke="midnightblue" points="316.15,-246.66 323.81,-239.35 313.26,-240.29 316.15,-246.66"/>
</g>
<!-- Node22 -->
<g id="node12" class="node">
<title>Node22</title>
<g id="a_node12"><a xlink:href="structKFMeasEntry.html#a56ed46a7048dcd7e87e75eebc342dc7d" target="_top" xlink:title="Adds the actual measurement value for this measurement.">
<polygon fill="white" stroke="black" points="320.5,-182.32 320.5,-201.32 438.5,-201.32 438.5,-182.32 320.5,-182.32"/>
<text text-anchor="middle" x="379.5" y="-189.32" font-family="Helvetica,sans-Serif" font-size="10.00">KFMeasEntry::setValue</text>
</a>
</g>
</g>
<!-- Node2&#45;&gt;Node22 -->
<g id="edge11" class="edge">
<title>Node2&#45;&gt;Node22</title>
<path fill="none" stroke="midnightblue" d="M214.99,-384.1C221.76,-353.51 246.9,-258.46 306,-210.82 308.08,-209.14 310.3,-207.61 312.61,-206.21"/>
<polygon fill="midnightblue" stroke="midnightblue" points="314.63,-209.11 321.95,-201.46 311.45,-202.87 314.63,-209.11"/>
</g>
<!-- Node23 -->
<g id="node13" class="node">
<title>Node23</title>
<g id="a_node13"><a xlink:href="algebraTrace_8hpp.html#a912bbc3ba390c6b3a01f7cae26a53588" target="_top" xlink:title="Output filter state to a file for later reading.">
<polygon fill="white" stroke="red" points="508,-393.32 508,-412.32 589,-412.32 589,-393.32 508,-393.32"/>
<text text-anchor="middle" x="548.5" y="-400.32" font-family="Helvetica,sans-Serif" font-size="10.00">spitFilterToFile</text>
</a>
</g>
</g>
<!-- Node2&#45;&gt;Node23 -->
<g id="edge12" class="edge">
<title>Node2&#45;&gt;Node23</title>
<path fill="none" stroke="midnightblue" d="M240.09,-394.55C296.27,-396.06 426.2,-399.56 497.85,-401.48"/>
<polygon fill="midnightblue" stroke="midnightblue" points="497.89,-404.99 507.98,-401.76 498.08,-397.99 497.89,-404.99"/>
</g>
<!-- Node26 -->
<g id="node14" class="node">
<title>Node26</title>
<g id="a_node14"><a xlink:href="structKFState.html#a170d9c3a01bee9ec1f7264615b087c58" target="_top" xlink:title="Add process noise and dynamics to filter object according to time gap.">
<polygon fill="white" stroke="red" points="318.5,-422.32 318.5,-441.32 440.5,-441.32 440.5,-422.32 318.5,-422.32"/>
<text text-anchor="middle" x="379.5" y="-429.32" font-family="Helvetica,sans-Serif" font-size="10.00">KFState::stateTransition</text>
</a>
</g>
</g>
<!-- Node2&#45;&gt;Node26 -->
<g id="edge13" class="edge">
<title>Node2&#45;&gt;Node26</title>
<path fill="none" stroke="midnightblue" d="M240.33,-400.09C263.82,-405.49 298.33,-413.41 326.99,-419.99"/>
<polygon fill="midnightblue" stroke="midnightblue" points="326.32,-423.43 336.85,-422.26 327.89,-416.61 326.32,-423.43"/>
</g>
<!-- Node26&#45;&gt;Node11 -->
<g id="edge14" class="edge">
<title>Node26&#45;&gt;Node11</title>
<path fill="none" stroke="midnightblue" d="M437.5,-441.38C451.34,-443.7 466.26,-446.2 480.52,-448.59"/>
<polygon fill="midnightblue" stroke="midnightblue" points="480.31,-452.1 490.75,-450.3 481.47,-445.2 480.31,-452.1"/>
</g>
<!-- Node26&#45;&gt;Node23 -->
<g id="edge15" class="edge">
<title>Node26&#45;&gt;Node23</title>
<path fill="none" stroke="midnightblue" d="M435.64,-422.24C455.71,-418.76 478.25,-414.84 497.81,-411.45"/>
<polygon fill="midnightblue" stroke="midnightblue" points="498.49,-414.88 507.74,-409.72 497.29,-407.99 498.49,-414.88"/>
</g>
<!-- Node28&#45;&gt;Node29 -->
<g id="edge17" class="edge">
<title>Node28&#45;&gt;Node29</title>
<path fill="none" stroke="midnightblue" d="M601.6,-67.4C612.74,-65.17 624.03,-62.91 633.65,-60.99"/>
<polygon fill="midnightblue" stroke="midnightblue" points="634.59,-64.37 643.7,-58.98 633.21,-57.51 634.59,-64.37"/>
</g>
<!-- Node30&#45;&gt;Node28 -->
<g id="edge20" class="edge">
<title>Node30&#45;&gt;Node28</title>
<path fill="none" stroke="midnightblue" d="M270.12,-57.09C329.95,-61.56 423.64,-68.56 485.3,-73.17"/>
<polygon fill="midnightblue" stroke="midnightblue" points="485.06,-76.66 495.29,-73.92 485.58,-69.68 485.06,-76.66"/>
</g>
<!-- Node30&#45;&gt;Node29 -->
<g id="edge21" class="edge">
<title>Node30&#45;&gt;Node29</title>
<path fill="none" stroke="midnightblue" d="M237.18,-37.72C255.35,-27.31 281.25,-14.38 306,-8.82 427.38,18.44 576,-26.05 634.32,-46.45"/>
<polygon fill="midnightblue" stroke="midnightblue" points="633.23,-49.77 643.82,-49.84 635.58,-43.18 633.23,-49.77"/>
</g>
<!-- Node31 -->
<g id="node18" class="node">
<title>Node31</title>
<g id="a_node18"><a xlink:href="namespaceyaml__settings.html#a772d25d57643042c788e4f06b8527f81" target="_top" xlink:title=" ">
<polygon fill="white" stroke="red" points="323,-18.82 323,-48.82 436,-48.82 436,-18.82 323,-18.82"/>
<text text-anchor="start" x="331" y="-36.82" font-family="Helvetica,sans-Serif" font-size="10.00">yaml_settings::type</text>
<text text-anchor="middle" x="379.5" y="-25.82" font-family="Helvetica,sans-Serif" font-size="10.00">_string_setting_create</text>
</a>
</g>
</g>
<!-- Node30&#45;&gt;Node31 -->
<g id="edge22" class="edge">
<title>Node30&#45;&gt;Node31</title>
<path fill="none" stroke="midnightblue" d="M270.42,-46.23C284.09,-44.66 298.79,-42.97 312.8,-41.36"/>
<polygon fill="midnightblue" stroke="midnightblue" points="313.32,-44.83 322.86,-40.21 312.52,-37.87 313.32,-44.83"/>
</g>
<!-- Node31&#45;&gt;Node28 -->
<g id="edge23" class="edge">
<title>Node31&#45;&gt;Node28</title>
<path fill="none" stroke="midnightblue" d="M436.11,-48.47C451.9,-52.63 469.2,-57.19 485.35,-61.45"/>
<polygon fill="midnightblue" stroke="midnightblue" points="484.68,-64.89 495.24,-64.05 486.46,-58.12 484.68,-64.89"/>
</g>
<!-- Node31&#45;&gt;Node29 -->
<g id="edge24" class="edge">
<title>Node31&#45;&gt;Node29</title>
<path fill="none" stroke="midnightblue" d="M436.29,-38.22C496.38,-42.96 589.34,-50.29 633.93,-53.8"/>
<polygon fill="midnightblue" stroke="midnightblue" points="633.69,-57.29 643.93,-54.59 634.24,-50.32 633.69,-57.29"/>
</g>
</g>
</svg>
        <g id="navigator" transform="translate(0 0)" fill="#404254">
                <rect fill="#f2f5e9" fill-opacity="0.5" stroke="#606060" stroke-width=".5" x="0" y="0" width="60" height="60"/>
                <use id="zoomplus" xlink:href="#zoomPlus" x="17" y="9" onmousedown="handleZoom(evt,'in')"/>
                <use id="zoomminus" xlink:href="#zoomMin" x="42" y="9" onmousedown="handleZoom(evt,'out')"/>
                <use id="reset" xlink:href="#resetDef" x="30" y="36" onmousedown="handleReset()"/>
                <g id="arrowUp" xlink:href="#dirArrow" transform="translate(30 24)" onmousedown="handlePan(0,-1)">
                  <use xlink:href="#rim" fill="#404040">
                        <set attributeName="fill" to="#808080" begin="arrowUp.mouseover" end="arrowUp.mouseout"/>
                  </use>
                  <path fill="none" stroke="white" stroke-width="1.5" d="M0,-3.0v7 M-2.5,-0.5L0,-3.0L2.5,-0.5"/>
                </g>
                <g id="arrowRight" xlink:href="#dirArrow" transform="rotate(90) translate(36 -43)" onmousedown="handlePan(1,0)">
                  <use xlink:href="#rim" fill="#404040">
                        <set attributeName="fill" to="#808080" begin="arrowRight.mouseover" end="arrowRight.mouseout"/>
                  </use>
                  <path fill="none" stroke="white" stroke-width="1.5" d="M0,-3.0v7 M-2.5,-0.5L0,-3.0L2.5,-0.5"/>
                </g>
                <g id="arrowDown" xlink:href="#dirArrow" transform="rotate(180) translate(-30 -48)" onmousedown="handlePan(0,1)">
                  <use xlink:href="#rim" fill="#404040">
                        <set attributeName="fill" to="#808080" begin="arrowDown.mouseover" end="arrowDown.mouseout"/>
                  </use>
                  <path fill="none" stroke="white" stroke-width="1.5" d="M0,-3.0v7 M-2.5,-0.5L0,-3.0L2.5,-0.5"/>
                </g>
                <g id="arrowLeft" xlink:href="#dirArrow" transform="rotate(270) translate(-36 17)" onmousedown="handlePan(-1,0)">
                  <use xlink:href="#rim" fill="#404040">
                        <set attributeName="fill" to="#808080" begin="arrowLeft.mouseover" end="arrowLeft.mouseout"/>
                  </use>
                  <path fill="none" stroke="white" stroke-width="1.5" d="M0,-3.0v7 M-2.5,-0.5L0,-3.0L2.5,-0.5"/>
                </g>
        </g>
        <svg viewBox="0 0 15 15" width="100%" height="30px" preserveAspectRatio="xMaxYMin meet">
         <g id="arrow_out" transform="scale(0.3 0.3)">
          <a xlink:href="namespaceyaml__settings_af06e8e4d30d8e2a7bda90429f30edc4e_cgraph_org.svg" target="_base">
           <rect id="button" ry="5" rx="5" y="6" x="6" height="38" width="38"
                fill="#f2f5e9" fill-opacity="0.5" stroke="#606060" stroke-width="1.0"/>
           <path id="arrow"
             d="M 11.500037,31.436501 C 11.940474,20.09759 22.043105,11.32322 32.158766,21.979434 L 37.068811,17.246167 C 37.068811,17.246167 37.088388,32 37.088388,32 L 22.160133,31.978069 C 22.160133,31.978069 26.997745,27.140456 26.997745,27.140456 C 18.528582,18.264221 13.291696,25.230495 11.500037,31.436501 z"
             style="fill:#404040;"/>
          </a>
         </g>
        </svg>
</svg>
