<?xml version="1.0" encoding="UTF-8" standalone="no"?>
<!DOCTYPE svg PUBLIC "-//W3C//DTD SVG 1.1//EN"
 "http://www.w3.org/Graphics/SVG/1.1/DTD/svg11.dtd">
<!-- Generated by graphviz version 2.50.0 (20220203.2022)
 -->
<!-- Title: pod_yaml::get_reference_system Pages: 1 -->
<svg width="431pt" height="248pt"
 viewBox="0.00 0.00 431.00 248.00" xmlns="http://www.w3.org/2000/svg" xmlns:xlink="http://www.w3.org/1999/xlink">
<g id="graph0" class="graph" transform="scale(1 1) rotate(0) translate(4 244)">
<title>pod_yaml::get_reference_system</title>
<polygon fill="white" stroke="transparent" points="-4,4 -4,-244 427,-244 427,4 -4,4"/>
<!-- Node1 -->
<g id="node1" class="node">
<title>Node1</title>
<g id="a_node1"><a xlink:title=" ">
<polygon fill="#bfbfbf" stroke="black" points="301,-93.5 301,-123.5 423,-123.5 423,-93.5 301,-93.5"/>
<text text-anchor="start" x="309" y="-111.5" font-family="Helvetica,sans-Serif" font-size="10.00">pod_yaml::get_reference</text>
<text text-anchor="middle" x="362" y="-100.5" font-family="Helvetica,sans-Serif" font-size="10.00">_system</text>
</a>
</g>
</g>
<!-- Node1&#45;&gt;Node1 -->
<g id="edge7" class="edge">
<title>Node1&#45;&gt;Node1</title>
<path fill="none" stroke="midnightblue" d="M390.43,-133.96C386.9,-138.68 377.42,-142 362,-142 336.69,-142 327.39,-133.06 334.12,-123.66"/>
<polygon fill="midnightblue" stroke="midnightblue" points="393.91,-133.46 389.88,-123.66 386.92,-133.83 393.91,-133.46"/>
</g>
<!-- Node2 -->
<g id="node2" class="node">
<title>Node2</title>
<g id="a_node2"><a xlink:href="namespacepod__yaml.html#aa1e2ebc78883db39aba55ed096d21216" target="_top" xlink:title=" ">
<polygon fill="white" stroke="black" points="142,-191.5 142,-221.5 260,-221.5 260,-191.5 142,-191.5"/>
<text text-anchor="start" x="150" y="-209.5" font-family="Helvetica,sans-Serif" font-size="10.00">pod_yaml::get_ext_orbit</text>
<text text-anchor="middle" x="201" y="-198.5" font-family="Helvetica,sans-Serif" font-size="10.00">_frame</text>
</a>
</g>
</g>
<!-- Node1&#45;&gt;Node2 -->
<g id="edge1" class="edge">
<title>Node1&#45;&gt;Node2</title>
<path fill="none" stroke="midnightblue" d="M336.69,-130.48C318.08,-146.48 291.23,-167.82 265,-182.5 259.18,-185.76 252.83,-188.76 246.47,-191.45"/>
<polygon fill="midnightblue" stroke="midnightblue" points="339.15,-132.98 344.38,-123.77 334.55,-127.71 339.15,-132.98"/>
</g>
<!-- Node5 -->
<g id="node4" class="node">
<title>Node5</title>
<g id="a_node4"><a xlink:href="namespacepod__yaml.html#aaaf9bf2a16d4353760f2401861807b2c" target="_top" xlink:title=" ">
<polygon fill="white" stroke="black" points="150,-124.5 150,-154.5 252,-154.5 252,-124.5 150,-124.5"/>
<text text-anchor="start" x="158" y="-142.5" font-family="Helvetica,sans-Serif" font-size="10.00">pod_yaml::get_input</text>
<text text-anchor="middle" x="201" y="-131.5" font-family="Helvetica,sans-Serif" font-size="10.00">_refsys</text>
</a>
</g>
</g>
<!-- Node1&#45;&gt;Node5 -->
<g id="edge4" class="edge">
<title>Node1&#45;&gt;Node5</title>
<path fill="none" stroke="midnightblue" d="M290.97,-122.15C277.87,-124.71 264.43,-127.33 252.09,-129.73"/>
<polygon fill="midnightblue" stroke="midnightblue" points="291.74,-125.57 300.89,-120.22 290.4,-118.7 291.74,-125.57"/>
</g>
<!-- Node6 -->
<g id="node5" class="node">
<title>Node6</title>
<g id="a_node5"><a xlink:href="namespacepod__yaml.html#a9e9387a6e11a70e057d750deca1c031e" target="_top" xlink:title=" ">
<polygon fill="white" stroke="black" points="137,-68 137,-87 265,-87 265,-68 137,-68"/>
<text text-anchor="middle" x="201" y="-75" font-family="Helvetica,sans-Serif" font-size="10.00">pod_yaml::get_veq_refsys</text>
</a>
</g>
</g>
<!-- Node1&#45;&gt;Node6 -->
<g id="edge8" class="edge">
<title>Node1&#45;&gt;Node6</title>
<path fill="none" stroke="midnightblue" d="M290.69,-94.79C277.23,-92.17 263.42,-89.47 250.82,-87.02"/>
<polygon fill="midnightblue" stroke="midnightblue" points="290.4,-98.3 300.89,-96.78 291.74,-91.43 290.4,-98.3"/>
</g>
<!-- Node7 -->
<g id="node6" class="node">
<title>Node7</title>
<g id="a_node6"><a xlink:href="namespacepod__yaml.html#a185366cacf00412629c3c9c147c9ce7a" target="_top" xlink:title=" ">
<polygon fill="white" stroke="black" points="150.5,-0.5 150.5,-30.5 251.5,-30.5 251.5,-0.5 150.5,-0.5"/>
<text text-anchor="start" x="158.5" y="-18.5" font-family="Helvetica,sans-Serif" font-size="10.00">pod_yaml::get_yaml</text>
<text text-anchor="middle" x="201" y="-7.5" font-family="Helvetica,sans-Serif" font-size="10.00">_pulses</text>
</a>
</g>
</g>
<!-- Node1&#45;&gt;Node7 -->
<g id="edge11" class="edge">
<title>Node1&#45;&gt;Node7</title>
<path fill="none" stroke="midnightblue" d="M326.33,-88.22C296.68,-70.88 254.68,-46.31 227.89,-30.64"/>
<polygon fill="midnightblue" stroke="midnightblue" points="324.7,-91.32 335.1,-93.35 328.24,-85.28 324.7,-91.32"/>
</g>
<!-- Node2&#45;&gt;Node2 -->
<g id="edge2" class="edge">
<title>Node2&#45;&gt;Node2</title>
<path fill="none" stroke="midnightblue" d="M227.65,-231.96C224.35,-236.68 215.46,-240 201,-240 177.27,-240 168.56,-231.06 174.86,-221.66"/>
<polygon fill="midnightblue" stroke="midnightblue" points="231.13,-231.47 227.14,-221.66 224.14,-231.82 231.13,-231.47"/>
</g>
<!-- Node3 -->
<g id="node3" class="node">
<title>Node3</title>
<g id="a_node3"><a xlink:href="namespacepod__yaml.html#aca21c2bb86797b2b46c5d509e3593198" target="_top" xlink:title=" ">
<polygon fill="white" stroke="red" points="0,-99 0,-118 101,-118 101,-99 0,-99"/>
<text text-anchor="middle" x="50.5" y="-106" font-family="Helvetica,sans-Serif" font-size="10.00">pod_yaml::get_yaml</text>
</a>
</g>
</g>
<!-- Node2&#45;&gt;Node3 -->
<g id="edge3" class="edge">
<title>Node2&#45;&gt;Node3</title>
<path fill="none" stroke="midnightblue" d="M145.63,-187.22C142.66,-185.72 139.76,-184.15 137,-182.5 105.99,-163.97 75.39,-133.85 60.63,-118.37"/>
<polygon fill="midnightblue" stroke="midnightblue" points="144.15,-190.39 154.69,-191.46 147.12,-184.05 144.15,-190.39"/>
</g>
<!-- Node5&#45;&gt;Node3 -->
<g id="edge6" class="edge">
<title>Node5&#45;&gt;Node3</title>
<path fill="none" stroke="midnightblue" d="M139.58,-126.89C125.44,-123.94 110.61,-120.84 97.23,-118.05"/>
<polygon fill="midnightblue" stroke="midnightblue" points="139.22,-130.39 149.72,-129 140.65,-123.54 139.22,-130.39"/>
</g>
<!-- Node5&#45;&gt;Node5 -->
<g id="edge5" class="edge">
<title>Node5&#45;&gt;Node5</title>
<path fill="none" stroke="midnightblue" d="M227.65,-164.96C224.35,-169.68 215.46,-173 201,-173 177.27,-173 168.56,-164.06 174.86,-154.66"/>
<polygon fill="midnightblue" stroke="midnightblue" points="231.13,-164.47 227.14,-154.66 224.14,-164.82 231.13,-164.47"/>
</g>
<!-- Node6&#45;&gt;Node3 -->
<g id="edge10" class="edge">
<title>Node6&#45;&gt;Node3</title>
<path fill="none" stroke="midnightblue" d="M144.22,-89.14C128.68,-92.39 111.99,-95.87 97.12,-98.98"/>
<polygon fill="midnightblue" stroke="midnightblue" points="145.16,-92.52 154.23,-87.05 143.73,-85.67 145.16,-92.52"/>
</g>
<!-- Node6&#45;&gt;Node6 -->
<g id="edge9" class="edge">
<title>Node6&#45;&gt;Node6</title>
<path fill="none" stroke="midnightblue" d="M229,-96.15C227.83,-101.44 218.5,-105.5 201,-105.5 174.34,-105.5 166.63,-96.07 177.88,-87.26"/>
<polygon fill="midnightblue" stroke="midnightblue" points="232,-94.34 224.12,-87.26 225.86,-97.71 232,-94.34"/>
</g>
<!-- Node7&#45;&gt;Node3 -->
<g id="edge12" class="edge">
<title>Node7&#45;&gt;Node3</title>
<path fill="none" stroke="midnightblue" d="M167.04,-36.14C135.91,-55.64 90.59,-84.02 67.03,-98.78"/>
<polygon fill="midnightblue" stroke="midnightblue" points="169.19,-38.92 175.81,-30.65 165.48,-32.99 169.19,-38.92"/>
</g>
<!-- Node7&#45;&gt;Node7 -->
<g id="edge13" class="edge">
<title>Node7&#45;&gt;Node7</title>
<path fill="none" stroke="midnightblue" d="M227.65,-40.96C224.35,-45.68 215.46,-49 201,-49 177.27,-49 168.56,-40.06 174.86,-30.66"/>
<polygon fill="midnightblue" stroke="midnightblue" points="231.13,-40.47 227.14,-30.66 224.14,-40.82 231.13,-40.47"/>
</g>
</g>
</svg>
