<?xml version="1.0" encoding="UTF-8" standalone="no"?>
<!DOCTYPE svg PUBLIC "-//W3C//DTD SVG 1.1//EN"
 "http://www.w3.org/Graphics/SVG/1.1/DTD/svg11.dtd">
<!-- Generated by graphviz version 2.50.0 (20220203.2022)
 -->
<!-- Title: pod_yaml::new_prn_override Pages: 1 -->
<svg width="216pt" height="46pt"
 viewBox="0.00 0.00 216.00 46.00" xmlns="http://www.w3.org/2000/svg" xmlns:xlink="http://www.w3.org/1999/xlink">
<g id="graph0" class="graph" transform="scale(1 1) rotate(0) translate(4 42)">
<title>pod_yaml::new_prn_override</title>
<polygon fill="white" stroke="transparent" points="-4,4 -4,-42 212,-42 212,4 -4,4"/>
<!-- Node1 -->
<g id="node1" class="node">
<title>Node1</title>
<g id="a_node1"><a xlink:title=" ">
<polygon fill="#bfbfbf" stroke="black" points="0,-0.5 0,-19.5 139,-19.5 139,-0.5 0,-0.5"/>
<text text-anchor="middle" x="69.5" y="-7.5" font-family="Helvetica,sans-Serif" font-size="10.00">pod_yaml::new_prn_override</text>
</a>
</g>
</g>
<!-- Node1&#45;&gt;Node1 -->
<g id="edge1" class="edge">
<title>Node1&#45;&gt;Node1</title>
<path fill="none" stroke="midnightblue" d="M50.7,-19.76C41.55,-28.57 47.82,-38 69.5,-38 83.39,-38 90.96,-34.13 92.19,-29.03"/>
<polygon fill="midnightblue" stroke="midnightblue" points="95.4,-27.62 88.3,-19.76 88.94,-30.33 95.4,-27.62"/>
</g>
<!-- Node2 -->
<g id="node2" class="node">
<title>Node2</title>
<g id="a_node2"><a xlink:href="sinex_8cpp.html#a06fabc81a2cc41dfee260450a527ad2d" target="_top" xlink:title=" ">
<polygon fill="white" stroke="black" points="175,-0.5 175,-19.5 208,-19.5 208,-0.5 175,-0.5"/>
<text text-anchor="middle" x="191.5" y="-7.5" font-family="Helvetica,sans-Serif" font-size="10.00">trim</text>
</a>
</g>
</g>
<!-- Node1&#45;&gt;Node2 -->
<g id="edge2" class="edge">
<title>Node1&#45;&gt;Node2</title>
<path fill="none" stroke="midnightblue" d="M139.26,-10C148.37,-10 157.21,-10 164.91,-10"/>
<polygon fill="midnightblue" stroke="midnightblue" points="164.94,-13.5 174.94,-10 164.94,-6.5 164.94,-13.5"/>
</g>
</g>
</svg>
