<?xml version="1.0" encoding="UTF-8" standalone="no"?>
<!DOCTYPE svg PUBLIC "-//W3C//DTD SVG 1.1//EN"
 "http://www.w3.org/Graphics/SVG/1.1/DTD/svg11.dtd">
<!-- Generated by graphviz version 2.50.0 (20220203.2022)
 -->
<!-- Title: boost::serialization::serialize Pages: 1 -->
<svg width="530pt" height="218pt"
 viewBox="0.00 0.00 530.00 218.00" xmlns="http://www.w3.org/2000/svg" xmlns:xlink="http://www.w3.org/1999/xlink">
<g id="graph0" class="graph" transform="scale(1 1) rotate(0) translate(4 214)">
<title>boost::serialization::serialize</title>
<polygon fill="white" stroke="transparent" points="-4,4 -4,-214 526,-214 526,4 -4,4"/>
<!-- Node1 -->
<g id="node1" class="node">
<title>Node1</title>
<g id="a_node1"><a xlink:title=" ">
<polygon fill="#bfbfbf" stroke="black" points="426,-109 426,-139 522,-139 522,-109 426,-109"/>
<text text-anchor="start" x="434" y="-127" font-family="Helvetica,sans-Serif" font-size="10.00">boost::serialization</text>
<text text-anchor="middle" x="474" y="-116" font-family="Helvetica,sans-Serif" font-size="10.00">::serialize</text>
</a>
</g>
</g>
<!-- Node2 -->
<g id="node2" class="node">
<title>Node2</title>
<g id="a_node2"><a xlink:href="algebraTrace_8hpp.html#a11e5c6e06d30600e55dc2c71f015d0f3" target="_top" xlink:title=" ">
<polygon fill="white" stroke="black" points="271,-152.5 271,-171.5 390,-171.5 390,-152.5 271,-152.5"/>
<text text-anchor="middle" x="330.5" y="-159.5" font-family="Helvetica,sans-Serif" font-size="10.00">getFilterObjectFromFile</text>
</a>
</g>
</g>
<!-- Node1&#45;&gt;Node2 -->
<g id="edge1" class="edge">
<title>Node1&#45;&gt;Node2</title>
<path fill="none" stroke="midnightblue" d="M415.82,-139.36C399.39,-143.77 381.95,-148.45 367.22,-152.41"/>
<polygon fill="midnightblue" stroke="midnightblue" points="417.13,-142.63 425.88,-136.65 415.32,-135.87 417.13,-142.63"/>
</g>
<!-- Node9 -->
<g id="node5" class="node">
<title>Node9</title>
<g id="a_node5"><a xlink:href="algebraTrace_8hpp.html#a912bbc3ba390c6b3a01f7cae26a53588" target="_top" xlink:title="Output filter state to a file for later reading.">
<polygon fill="white" stroke="black" points="290,-76.5 290,-95.5 371,-95.5 371,-76.5 290,-76.5"/>
<text text-anchor="middle" x="330.5" y="-83.5" font-family="Helvetica,sans-Serif" font-size="10.00">spitFilterToFile</text>
</a>
</g>
</g>
<!-- Node1&#45;&gt;Node9 -->
<g id="edge5" class="edge">
<title>Node1&#45;&gt;Node9</title>
<path fill="none" stroke="midnightblue" d="M415.82,-108.64C399.39,-104.23 381.95,-99.55 367.22,-95.59"/>
<polygon fill="midnightblue" stroke="midnightblue" points="415.32,-112.13 425.88,-111.35 417.13,-105.37 415.32,-112.13"/>
</g>
<!-- Node3 -->
<g id="node3" class="node">
<title>Node3</title>
<g id="a_node3"><a xlink:href="rtsSmoothing_8cpp.html#a1f9da32a7b5e95391d55a3242aebfb10" target="_top" xlink:title="Output filter states from a reversed binary trace file.">
<polygon fill="white" stroke="black" points="138.5,-190.5 138.5,-209.5 209.5,-209.5 209.5,-190.5 138.5,-190.5"/>
<text text-anchor="middle" x="174" y="-197.5" font-family="Helvetica,sans-Serif" font-size="10.00">RTS_Output</text>
</a>
</g>
</g>
<!-- Node2&#45;&gt;Node3 -->
<g id="edge2" class="edge">
<title>Node2&#45;&gt;Node3</title>
<path fill="none" stroke="midnightblue" d="M280.58,-174.03C257.56,-179.69 230.65,-186.31 209.76,-191.45"/>
<polygon fill="midnightblue" stroke="midnightblue" points="281.64,-177.38 290.51,-171.59 279.97,-170.58 281.64,-177.38"/>
</g>
<!-- Node4 -->
<g id="node4" class="node">
<title>Node4</title>
<g id="a_node4"><a xlink:href="rtsSmoothing_8cpp.html#af4dbc710ae8e25cf67351637c708800d" target="_top" xlink:title=" ">
<polygon fill="white" stroke="red" points="0,-152.5 0,-171.5 77,-171.5 77,-152.5 0,-152.5"/>
<text text-anchor="middle" x="38.5" y="-159.5" font-family="Helvetica,sans-Serif" font-size="10.00">RTS_Process</text>
</a>
</g>
</g>
<!-- Node2&#45;&gt;Node4 -->
<g id="edge4" class="edge">
<title>Node2&#45;&gt;Node4</title>
<path fill="none" stroke="midnightblue" d="M260.73,-162C203.37,-162 123.77,-162 77.34,-162"/>
<polygon fill="midnightblue" stroke="midnightblue" points="260.81,-165.5 270.81,-162 260.81,-158.5 260.81,-165.5"/>
</g>
<!-- Node3&#45;&gt;Node4 -->
<g id="edge3" class="edge">
<title>Node3&#45;&gt;Node4</title>
<path fill="none" stroke="midnightblue" d="M129.47,-187.61C111.19,-182.41 90.25,-176.45 73.18,-171.59"/>
<polygon fill="midnightblue" stroke="midnightblue" points="128.74,-191.04 139.31,-190.41 130.65,-184.31 128.74,-191.04"/>
</g>
<!-- Node9&#45;&gt;Node4 -->
<g id="edge8" class="edge">
<title>Node9&#45;&gt;Node4</title>
<path fill="none" stroke="midnightblue" d="M283.14,-98.15C225.58,-113.23 128.58,-138.65 76.01,-152.43"/>
<polygon fill="midnightblue" stroke="midnightblue" points="284.28,-101.47 293.06,-95.55 282.5,-94.7 284.28,-101.47"/>
</g>
<!-- Node10 -->
<g id="node6" class="node">
<title>Node10</title>
<g id="a_node6"><a xlink:href="structKFState.html#a21a4858020ad706771efeea814d6c43f" target="_top" xlink:title="Kalman filter operation.">
<polygon fill="white" stroke="red" points="120,-76.5 120,-95.5 228,-95.5 228,-76.5 120,-76.5"/>
<text text-anchor="middle" x="174" y="-83.5" font-family="Helvetica,sans-Serif" font-size="10.00">KFState::filterKalman</text>
</a>
</g>
</g>
<!-- Node9&#45;&gt;Node10 -->
<g id="edge6" class="edge">
<title>Node9&#45;&gt;Node10</title>
<path fill="none" stroke="midnightblue" d="M279.25,-86C262.87,-86 244.63,-86 228.05,-86"/>
<polygon fill="midnightblue" stroke="midnightblue" points="279.71,-89.5 289.71,-86 279.71,-82.5 279.71,-89.5"/>
</g>
<!-- Node23 -->
<g id="node7" class="node">
<title>Node23</title>
<g id="a_node7"><a xlink:href="minimumConstraints_8cpp.html#a6644baa0ee22e2cb52a4975b7d8f218e" target="_top" xlink:title=" ">
<polygon fill="white" stroke="red" points="10.5,-19.5 10.5,-38.5 66.5,-38.5 66.5,-19.5 10.5,-19.5"/>
<text text-anchor="middle" x="38.5" y="-26.5" font-family="Helvetica,sans-Serif" font-size="10.00">minimum</text>
</a>
</g>
</g>
<!-- Node9&#45;&gt;Node23 -->
<g id="edge7" class="edge">
<title>Node9&#45;&gt;Node23</title>
<path fill="none" stroke="midnightblue" d="M280.16,-76.02C265.62,-73.09 249.67,-69.9 235,-67 174.96,-55.13 104.49,-41.51 66.71,-34.23"/>
<polygon fill="midnightblue" stroke="midnightblue" points="279.48,-79.45 289.97,-77.99 280.86,-72.59 279.48,-79.45"/>
</g>
<!-- Node27 -->
<g id="node8" class="node">
<title>Node27</title>
<g id="a_node8"><a xlink:href="structKFState.html#a170d9c3a01bee9ec1f7264615b087c58" target="_top" xlink:title="Add process noise and dynamics to filter object according to time gap.">
<polygon fill="white" stroke="red" points="113,-0.5 113,-19.5 235,-19.5 235,-0.5 113,-0.5"/>
<text text-anchor="middle" x="174" y="-7.5" font-family="Helvetica,sans-Serif" font-size="10.00">KFState::stateTransition</text>
</a>
</g>
</g>
<!-- Node9&#45;&gt;Node27 -->
<g id="edge9" class="edge">
<title>Node9&#45;&gt;Node27</title>
<path fill="none" stroke="midnightblue" d="M304.61,-71.21C285.81,-60.3 259.18,-45.44 235,-34 224.05,-28.82 211.66,-23.74 200.99,-19.6"/>
<polygon fill="midnightblue" stroke="midnightblue" points="303.03,-74.34 313.43,-76.36 306.56,-68.29 303.03,-74.34"/>
</g>
<!-- Node27&#45;&gt;Node23 -->
<g id="edge10" class="edge">
<title>Node27&#45;&gt;Node23</title>
<path fill="none" stroke="midnightblue" d="M102.99,-19.96C90.04,-21.81 77.25,-23.63 66.59,-25.14"/>
<polygon fill="midnightblue" stroke="midnightblue" points="103.48,-23.43 112.89,-18.56 102.5,-16.5 103.48,-23.43"/>
</g>
</g>
</svg>
