<?xml version="1.0" encoding="UTF-8" standalone="no"?>
<!DOCTYPE svg PUBLIC "-//W3C//DTD SVG 1.1//EN"
 "http://www.w3.org/Graphics/SVG/1.1/DTD/svg11.dtd">
<!-- Generated by graphviz version 2.50.0 (20220203.2022)
 -->
<!-- Title: m_legendre::legendre Pages: 1 -->
<!--zoomable 215 -->
<svg id="main" version="1.1" xmlns="http://www.w3.org/2000/svg" xmlns:xlink="http://www.w3.org/1999/xlink" xml:space="preserve" onload="init(evt)">
<style type="text/css"><![CDATA[
.edge:hover path { stroke: red; }
.edge:hover polygon { stroke: red; fill: red; }
]]></style>
<script type="text/javascript"><![CDATA[
var edges = document.getElementsByTagName('g');
if (edges && edges.length) {
  for (var i=0;i<edges.length;i++) {
    if (edges[i].id.substr(0,4)=='edge') {
      edges[i].setAttribute('class','edge');
    }
  }
}
]]></script>
        <defs>
                <circle id="rim" cx="0" cy="0" r="7"/>
                <circle id="rim2" cx="0" cy="0" r="3.5"/>
                <g id="zoomPlus">
                        <use xlink:href="#rim" fill="#404040">
                                <set attributeName="fill" to="#808080" begin="zoomplus.mouseover" end="zoomplus.mouseout"/>
                        </use>
                        <path d="M-4,0h8M0,-4v8" fill="none" stroke="white" stroke-width="1.5" pointer-events="none"/>
                </g>
                <g id="zoomMin">
                        <use xlink:href="#rim" fill="#404040">
                                <set attributeName="fill" to="#808080" begin="zoomminus.mouseover" end="zoomminus.mouseout"/>
                        </use>
                        <path d="M-4,0h8" fill="none" stroke="white" stroke-width="1.5" pointer-events="none"/>
                </g>
                <g id="dirArrow">
                        <path fill="none" stroke="white" stroke-width="1.5" d="M0,-3.0v7 M-2.5,-0.5L0,-3.0L2.5,-0.5"/>
                </g>
               <g id="resetDef">
                       <use xlink:href="#rim2" fill="#404040">
                               <set attributeName="fill" to="#808080" begin="reset.mouseover" end="reset.mouseout"/>
                       </use>
               </g>
        </defs>

<script type="text/javascript">
var viewWidth = 732;
var viewHeight = 215;
var sectionId = 'dynsection-0';
</script>
<script xlink:href="svgpan.js"/>
<svg id="graph" class="graph">
<g id="viewport">
<title>m_legendre::legendre</title>
<polygon fill="white" stroke="transparent" points="-4,4 -4,-210.64 728,-210.64 728,4 -4,4"/>
<!-- Node1 -->
<g id="node1" class="node">
<title>Node1</title>
<g id="a_node1"><a xlink:title=" ">
<polygon fill="#bfbfbf" stroke="black" points="616,-86.14 616,-105.14 724,-105.14 724,-86.14 616,-86.14"/>
<text text-anchor="middle" x="670" y="-93.14" font-family="Helvetica,sans-Serif" font-size="10.00">m_legendre::legendre</text>
</a>
</g>
</g>
<!-- Node2 -->
<g id="node2" class="node">
<title>Node2</title>
<g id="a_node2"><a xlink:href="namespacem__force__gfm.html#a7263ff18587f370ef5a8833d0b672984" target="_top" xlink:title=" ">
<polygon fill="white" stroke="black" points="285,-149.14 285,-168.14 407,-168.14 407,-149.14 285,-149.14"/>
<text text-anchor="middle" x="346" y="-156.14" font-family="Helvetica,sans-Serif" font-size="10.00">m_force_gfm::force_gfm</text>
</a>
</g>
</g>
<!-- Node1&#45;&gt;Node2 -->
<g id="edge1" class="edge">
<title>Node1&#45;&gt;Node2</title>
<path fill="none" stroke="midnightblue" d="M624.87,-107.82C610.61,-111.55 594.69,-115.49 580,-118.64 521.61,-131.18 454.33,-142.39 407.12,-149.73"/>
<polygon fill="midnightblue" stroke="midnightblue" points="626.15,-111.1 634.92,-105.16 624.36,-104.33 626.15,-111.1"/>
</g>
<!-- Node13 -->
<g id="node5" class="node">
<title>Node13</title>
<g id="a_node5"><a xlink:href="namespacem__force__tides.html#a9aef525fcc6bc1e959ee88315b478c82" target="_top" xlink:title=" ">
<polygon fill="white" stroke="black" points="294,-99.64 294,-129.64 398,-129.64 398,-99.64 294,-99.64"/>
<text text-anchor="start" x="302" y="-117.64" font-family="Helvetica,sans-Serif" font-size="10.00">m_force_tides::force</text>
<text text-anchor="middle" x="346" y="-106.64" font-family="Helvetica,sans-Serif" font-size="10.00">_tides</text>
</a>
</g>
</g>
<!-- Node1&#45;&gt;Node13 -->
<g id="edge4" class="edge">
<title>Node1&#45;&gt;Node13</title>
<path fill="none" stroke="midnightblue" d="M605.6,-99.38C544.87,-102.97 454.38,-108.31 398.12,-111.63"/>
<polygon fill="midnightblue" stroke="midnightblue" points="606.05,-102.86 615.83,-98.78 605.64,-95.88 606.05,-102.86"/>
</g>
<!-- Node17 -->
<g id="node7" class="node">
<title>Node17</title>
<g id="a_node7"><a xlink:href="namespacem__legendre2.html#a535753aa124aa3b66eabdd5d17690634" target="_top" xlink:title=" ">
<polygon fill="white" stroke="black" points="286.5,-23.14 286.5,-42.14 405.5,-42.14 405.5,-23.14 286.5,-23.14"/>
<text text-anchor="middle" x="346" y="-30.14" font-family="Helvetica,sans-Serif" font-size="10.00">m_legendre2::legendre2</text>
</a>
</g>
</g>
<!-- Node1&#45;&gt;Node17 -->
<g id="edge8" class="edge">
<title>Node1&#45;&gt;Node17</title>
<path fill="none" stroke="midnightblue" d="M641.39,-81.33C624.19,-73.06 601.34,-63.21 580,-57.64 521.94,-42.49 453.43,-36.5 405.79,-34.15"/>
<polygon fill="midnightblue" stroke="midnightblue" points="640.3,-84.69 650.82,-85.98 643.39,-78.42 640.3,-84.69"/>
</g>
<!-- Node18 -->
<g id="node8" class="node">
<title>Node18</title>
<g id="a_node8"><a xlink:href="namespacem__pd__geopotential.html#a348c4f09b044b8253b29d7738b6635f8" target="_top" xlink:title=" ">
<polygon fill="white" stroke="black" points="146,-17.64 146,-47.64 249,-47.64 249,-17.64 146,-17.64"/>
<text text-anchor="start" x="154" y="-35.64" font-family="Helvetica,sans-Serif" font-size="10.00">m_pd_geopotential::</text>
<text text-anchor="middle" x="197.5" y="-24.64" font-family="Helvetica,sans-Serif" font-size="10.00">pd_geopotential</text>
</a>
</g>
</g>
<!-- Node1&#45;&gt;Node18 -->
<g id="edge17" class="edge">
<title>Node1&#45;&gt;Node18</title>
<path fill="none" stroke="midnightblue" d="M651.64,-79.23C634.76,-64.33 607.68,-43.15 580,-32.64 457.16,13.97 415.62,0.53 285,-13.64 273.38,-14.9 261.04,-17.09 249.43,-19.54"/>
<polygon fill="midnightblue" stroke="midnightblue" points="649.31,-81.83 659.06,-85.96 654.01,-76.65 649.31,-81.83"/>
</g>
<!-- Node19 -->
<g id="node9" class="node">
<title>Node19</title>
<g id="a_node9"><a xlink:href="namespacem__legendre1.html#a73dd0249119b581df23d53853881cdad" target="_top" xlink:title=" ">
<polygon fill="white" stroke="black" points="443,-67.14 443,-86.14 580,-86.14 580,-67.14 443,-67.14"/>
<text text-anchor="middle" x="511.5" y="-74.14" font-family="Helvetica,sans-Serif" font-size="10.00">m_legendre1::legendre_drv1</text>
</a>
</g>
</g>
<!-- Node1&#45;&gt;Node19 -->
<g id="edge12" class="edge">
<title>Node1&#45;&gt;Node19</title>
<path fill="none" stroke="midnightblue" d="M605.5,-87.93C597.13,-86.92 588.51,-85.87 580.07,-84.85"/>
<polygon fill="midnightblue" stroke="midnightblue" points="605.23,-91.43 615.58,-89.16 606.07,-84.48 605.23,-91.43"/>
</g>
<!-- Node20 -->
<g id="node10" class="node">
<title>Node20</title>
<g id="a_node10"><a xlink:href="tides__solid1_8f90.html#a8c7ad9569346e149f76fbc2e136b770c" target="_top" xlink:title=" ">
<polygon fill="white" stroke="black" points="312,-187.14 312,-206.14 380,-206.14 380,-187.14 312,-187.14"/>
<text text-anchor="middle" x="346" y="-194.14" font-family="Helvetica,sans-Serif" font-size="10.00">tides_solid1</text>
</a>
</g>
</g>
<!-- Node1&#45;&gt;Node20 -->
<g id="edge18" class="edge">
<title>Node1&#45;&gt;Node20</title>
<path fill="none" stroke="midnightblue" d="M645.62,-110.93C628.16,-121.73 603.39,-135.8 580,-144.64 511.38,-170.58 426.26,-185.51 380.27,-192.26"/>
<polygon fill="midnightblue" stroke="midnightblue" points="647.92,-113.62 654.51,-105.32 644.18,-107.7 647.92,-113.62"/>
</g>
<!-- Node3 -->
<g id="node3" class="node">
<title>Node3</title>
<g id="a_node3"><a xlink:href="force__sum_8f95.html#a757e2ccbe362bf3b01a51e2c0431a490" target="_top" xlink:title=" ">
<polygon fill="white" stroke="red" points="166.5,-143.14 166.5,-162.14 228.5,-162.14 228.5,-143.14 166.5,-143.14"/>
<text text-anchor="middle" x="197.5" y="-150.14" font-family="Helvetica,sans-Serif" font-size="10.00">force_sum</text>
</a>
</g>
</g>
<!-- Node2&#45;&gt;Node3 -->
<g id="edge2" class="edge">
<title>Node2&#45;&gt;Node3</title>
<path fill="none" stroke="midnightblue" d="M274.88,-155.77C258.56,-155.1 242.03,-154.43 228.54,-153.87"/>
<polygon fill="midnightblue" stroke="midnightblue" points="274.86,-159.27 284.99,-156.19 275.14,-152.28 274.86,-159.27"/>
</g>
<!-- Node12 -->
<g id="node4" class="node">
<title>Node12</title>
<g id="a_node4"><a xlink:href="pd__forceZ_8f95.html#abdd0ae4a7eb5f80ef45608c877df1a5e" target="_top" xlink:title=" ">
<polygon fill="white" stroke="black" points="25.5,-162.14 25.5,-181.14 84.5,-181.14 84.5,-162.14 25.5,-162.14"/>
<text text-anchor="middle" x="55" y="-169.14" font-family="Helvetica,sans-Serif" font-size="10.00">pd_forcez</text>
</a>
</g>
</g>
<!-- Node2&#45;&gt;Node12 -->
<g id="edge3" class="edge">
<title>Node2&#45;&gt;Node12</title>
<path fill="none" stroke="midnightblue" d="M274.83,-169.25C266.15,-170.24 257.38,-171.08 249,-171.64 190.83,-175.56 122.57,-174.16 84.82,-172.85"/>
<polygon fill="midnightblue" stroke="midnightblue" points="275.44,-172.71 284.95,-168.04 274.61,-165.76 275.44,-172.71"/>
</g>
<!-- Node13&#45;&gt;Node3 -->
<g id="edge5" class="edge">
<title>Node13&#45;&gt;Node3</title>
<path fill="none" stroke="midnightblue" d="M283.9,-130.49C264.79,-135.45 244.55,-140.7 228.57,-144.84"/>
<polygon fill="midnightblue" stroke="midnightblue" points="284.96,-133.83 293.76,-127.93 283.2,-127.06 284.96,-133.83"/>
</g>
<!-- Node13&#45;&gt;Node12 -->
<g id="edge7" class="edge">
<title>Node13&#45;&gt;Node12</title>
<path fill="none" stroke="midnightblue" d="M283.89,-115.69C244.1,-117.53 191.35,-122.19 146,-133.64 120.02,-140.2 91.82,-153.14 74.05,-162.09"/>
<polygon fill="midnightblue" stroke="midnightblue" points="284.13,-119.18 293.98,-115.27 283.84,-112.19 284.13,-119.18"/>
</g>
<!-- Node14 -->
<g id="node6" class="node">
<title>Node14</title>
<g id="a_node6"><a xlink:href="namespacem__pd__force.html#a942ea044856d62ee03ee7623436bc97e" target="_top" xlink:title=" ">
<polygon fill="white" stroke="red" points="0,-67.14 0,-86.14 110,-86.14 110,-67.14 0,-67.14"/>
<text text-anchor="middle" x="55" y="-74.14" font-family="Helvetica,sans-Serif" font-size="10.00">m_pd_force::pd_force</text>
</a>
</g>
</g>
<!-- Node13&#45;&gt;Node14 -->
<g id="edge6" class="edge">
<title>Node13&#45;&gt;Node14</title>
<path fill="none" stroke="midnightblue" d="M283.72,-105.51C272.19,-103.85 260.23,-102.16 249,-100.64 202.15,-94.32 148.83,-87.73 110.11,-83.06"/>
<polygon fill="midnightblue" stroke="midnightblue" points="283.31,-108.99 293.71,-106.96 284.32,-102.06 283.31,-108.99"/>
</g>
<!-- Node17&#45;&gt;Node18 -->
<g id="edge9" class="edge">
<title>Node17&#45;&gt;Node18</title>
<path fill="none" stroke="midnightblue" d="M276.1,-32.64C267.05,-32.64 257.91,-32.64 249.23,-32.64"/>
<polygon fill="midnightblue" stroke="midnightblue" points="276.26,-36.14 286.26,-32.64 276.26,-29.14 276.26,-36.14"/>
</g>
<!-- Node18&#45;&gt;Node12 -->
<g id="edge11" class="edge">
<title>Node18&#45;&gt;Node12</title>
<path fill="none" stroke="midnightblue" d="M173.82,-55.08C142.68,-85.89 88.02,-139.96 65.81,-161.94"/>
<polygon fill="midnightblue" stroke="midnightblue" points="176.55,-57.3 181.2,-47.78 171.63,-52.33 176.55,-57.3"/>
</g>
<!-- Node18&#45;&gt;Node14 -->
<g id="edge10" class="edge">
<title>Node18&#45;&gt;Node14</title>
<path fill="none" stroke="midnightblue" d="M138.75,-50.73C120.87,-56.33 101.86,-62.28 86.59,-67.07"/>
<polygon fill="midnightblue" stroke="midnightblue" points="140.04,-53.99 148.54,-47.66 137.95,-47.31 140.04,-53.99"/>
</g>
<!-- Node19&#45;&gt;Node2 -->
<g id="edge13" class="edge">
<title>Node19&#45;&gt;Node2</title>
<path fill="none" stroke="midnightblue" d="M488.76,-92.01C468.39,-105.89 436.69,-126.14 407,-139.64 399.14,-143.22 390.42,-146.39 382.12,-149.08"/>
<polygon fill="midnightblue" stroke="midnightblue" points="490.78,-94.87 497.02,-86.31 486.8,-89.11 490.78,-94.87"/>
</g>
<!-- Node19&#45;&gt;Node13 -->
<g id="edge14" class="edge">
<title>Node19&#45;&gt;Node13</title>
<path fill="none" stroke="midnightblue" d="M459.33,-88.54C439.86,-93.06 417.68,-98.22 398.2,-102.74"/>
<polygon fill="midnightblue" stroke="midnightblue" points="460.29,-91.91 469.24,-86.23 458.71,-85.09 460.29,-91.91"/>
</g>
<!-- Node19&#45;&gt;Node17 -->
<g id="edge15" class="edge">
<title>Node19&#45;&gt;Node17</title>
<path fill="none" stroke="midnightblue" d="M465.33,-64.49C439.17,-57.45 406.71,-48.71 382.41,-42.17"/>
<polygon fill="midnightblue" stroke="midnightblue" points="464.46,-67.88 475.02,-67.1 466.28,-61.12 464.46,-67.88"/>
</g>
<!-- Node19&#45;&gt;Node18 -->
<g id="edge16" class="edge">
<title>Node19&#45;&gt;Node18</title>
<path fill="none" stroke="midnightblue" d="M432.69,-70.06C389.11,-65.87 333.86,-59.69 285,-51.64 273.32,-49.72 260.84,-47.23 249.1,-44.7"/>
<polygon fill="midnightblue" stroke="midnightblue" points="432.37,-73.55 442.65,-71.01 433.03,-66.58 432.37,-73.55"/>
</g>
<!-- Node20&#45;&gt;Node3 -->
<g id="edge19" class="edge">
<title>Node20&#45;&gt;Node3</title>
<path fill="none" stroke="midnightblue" d="M303.39,-184.15C279.6,-177 250.31,-168.2 228.72,-161.72"/>
<polygon fill="midnightblue" stroke="midnightblue" points="302.63,-187.57 313.21,-187.1 304.64,-180.87 302.63,-187.57"/>
</g>
<!-- Node20&#45;&gt;Node12 -->
<g id="edge21" class="edge">
<title>Node20&#45;&gt;Node12</title>
<path fill="none" stroke="midnightblue" d="M301.77,-195.9C261.39,-194.87 199.47,-192.42 146,-186.64 125.37,-184.41 102.29,-180.54 84.66,-177.28"/>
<polygon fill="midnightblue" stroke="midnightblue" points="301.73,-199.4 311.81,-196.14 301.9,-192.4 301.73,-199.4"/>
</g>
<!-- Node20&#45;&gt;Node14 -->
<g id="edge20" class="edge">
<title>Node20&#45;&gt;Node14</title>
<path fill="none" stroke="midnightblue" d="M301.5,-199.38C259.46,-200.2 195.11,-196.51 146,-171.64 106.07,-151.43 74.3,-106.07 61.78,-86.23"/>
<polygon fill="midnightblue" stroke="midnightblue" points="301.79,-202.88 311.68,-199.09 301.59,-195.88 301.79,-202.88"/>
</g>
</g>
</svg>
        <g id="navigator" transform="translate(0 0)" fill="#404254">
                <rect fill="#f2f5e9" fill-opacity="0.5" stroke="#606060" stroke-width=".5" x="0" y="0" width="60" height="60"/>
                <use id="zoomplus" xlink:href="#zoomPlus" x="17" y="9" onmousedown="handleZoom(evt,'in')"/>
                <use id="zoomminus" xlink:href="#zoomMin" x="42" y="9" onmousedown="handleZoom(evt,'out')"/>
                <use id="reset" xlink:href="#resetDef" x="30" y="36" onmousedown="handleReset()"/>
                <g id="arrowUp" xlink:href="#dirArrow" transform="translate(30 24)" onmousedown="handlePan(0,-1)">
                  <use xlink:href="#rim" fill="#404040">
                        <set attributeName="fill" to="#808080" begin="arrowUp.mouseover" end="arrowUp.mouseout"/>
                  </use>
                  <path fill="none" stroke="white" stroke-width="1.5" d="M0,-3.0v7 M-2.5,-0.5L0,-3.0L2.5,-0.5"/>
                </g>
                <g id="arrowRight" xlink:href="#dirArrow" transform="rotate(90) translate(36 -43)" onmousedown="handlePan(1,0)">
                  <use xlink:href="#rim" fill="#404040">
                        <set attributeName="fill" to="#808080" begin="arrowRight.mouseover" end="arrowRight.mouseout"/>
                  </use>
                  <path fill="none" stroke="white" stroke-width="1.5" d="M0,-3.0v7 M-2.5,-0.5L0,-3.0L2.5,-0.5"/>
                </g>
                <g id="arrowDown" xlink:href="#dirArrow" transform="rotate(180) translate(-30 -48)" onmousedown="handlePan(0,1)">
                  <use xlink:href="#rim" fill="#404040">
                        <set attributeName="fill" to="#808080" begin="arrowDown.mouseover" end="arrowDown.mouseout"/>
                  </use>
                  <path fill="none" stroke="white" stroke-width="1.5" d="M0,-3.0v7 M-2.5,-0.5L0,-3.0L2.5,-0.5"/>
                </g>
                <g id="arrowLeft" xlink:href="#dirArrow" transform="rotate(270) translate(-36 17)" onmousedown="handlePan(-1,0)">
                  <use xlink:href="#rim" fill="#404040">
                        <set attributeName="fill" to="#808080" begin="arrowLeft.mouseover" end="arrowLeft.mouseout"/>
                  </use>
                  <path fill="none" stroke="white" stroke-width="1.5" d="M0,-3.0v7 M-2.5,-0.5L0,-3.0L2.5,-0.5"/>
                </g>
        </g>
        <svg viewBox="0 0 15 15" width="100%" height="30px" preserveAspectRatio="xMaxYMin meet">
         <g id="arrow_out" transform="scale(0.3 0.3)">
          <a xlink:href="namespacem__legendre_acbaf8dfd40c737b932c6bee8ba79b61a_icgraph_org.svg" target="_base">
           <rect id="button" ry="5" rx="5" y="6" x="6" height="38" width="38"
                fill="#f2f5e9" fill-opacity="0.5" stroke="#606060" stroke-width="1.0"/>
           <path id="arrow"
             d="M 11.500037,31.436501 C 11.940474,20.09759 22.043105,11.32322 32.158766,21.979434 L 37.068811,17.246167 C 37.068811,17.246167 37.088388,32 37.088388,32 L 22.160133,31.978069 C 22.160133,31.978069 26.997745,27.140456 26.997745,27.140456 C 18.528582,18.264221 13.291696,25.230495 11.500037,31.436501 z"
             style="fill:#404040;"/>
          </a>
         </g>
        </svg>
</svg>
