<?xml version="1.0" encoding="UTF-8" standalone="no"?>
<!DOCTYPE svg PUBLIC "-//W3C//DTD SVG 1.1//EN"
 "http://www.w3.org/Graphics/SVG/1.1/DTD/svg11.dtd">
<!-- Generated by graphviz version 2.50.0 (20220203.2022)
 -->
<!-- Title: m_pd_ecom::pd_ecom Pages: 1 -->
<svg width="439pt" height="28pt"
 viewBox="0.00 0.00 439.00 28.00" xmlns="http://www.w3.org/2000/svg" xmlns:xlink="http://www.w3.org/1999/xlink">
<g id="graph0" class="graph" transform="scale(1 1) rotate(0) translate(4 24)">
<title>m_pd_ecom::pd_ecom</title>
<polygon fill="white" stroke="transparent" points="-4,4 -4,-24 435,-24 435,4 -4,4"/>
<!-- Node1 -->
<g id="node1" class="node">
<title>Node1</title>
<g id="a_node1"><a xlink:title=" ">
<polygon fill="#bfbfbf" stroke="black" points="317,-0.5 317,-19.5 431,-19.5 431,-0.5 317,-0.5"/>
<text text-anchor="middle" x="374" y="-7.5" font-family="Helvetica,sans-Serif" font-size="10.00">m_pd_ecom::pd_ecom</text>
</a>
</g>
</g>
<!-- Node2 -->
<g id="node2" class="node">
<title>Node2</title>
<g id="a_node2"><a xlink:href="namespacem__pd__force.html#a942ea044856d62ee03ee7623436bc97e" target="_top" xlink:title=" ">
<polygon fill="white" stroke="black" points="171,-0.5 171,-19.5 281,-19.5 281,-0.5 171,-0.5"/>
<text text-anchor="middle" x="226" y="-7.5" font-family="Helvetica,sans-Serif" font-size="10.00">m_pd_force::pd_force</text>
</a>
</g>
</g>
<!-- Node1&#45;&gt;Node2 -->
<g id="edge1" class="edge">
<title>Node1&#45;&gt;Node2</title>
<path fill="none" stroke="midnightblue" d="M306.95,-10C298.33,-10 289.59,-10 281.2,-10"/>
<polygon fill="midnightblue" stroke="midnightblue" points="306.97,-13.5 316.97,-10 306.97,-6.5 306.97,-13.5"/>
</g>
<!-- Node3 -->
<g id="node3" class="node">
<title>Node3</title>
<g id="a_node3"><a xlink:href="namespacem__veq__rkn768.html#acade84f4eab8c2bb71f72dda5be85361" target="_top" xlink:title=" ">
<polygon fill="white" stroke="red" points="0,-0.5 0,-19.5 135,-19.5 135,-0.5 0,-0.5"/>
<text text-anchor="middle" x="67.5" y="-7.5" font-family="Helvetica,sans-Serif" font-size="10.00">m_veq_rkn768::veq_rkn768</text>
</a>
</g>
</g>
<!-- Node2&#45;&gt;Node3 -->
<g id="edge2" class="edge">
<title>Node2&#45;&gt;Node3</title>
<path fill="none" stroke="midnightblue" d="M160.59,-10C152.18,-10 143.56,-10 135.12,-10"/>
<polygon fill="midnightblue" stroke="midnightblue" points="160.7,-13.5 170.7,-10 160.7,-6.5 160.7,-13.5"/>
</g>
</g>
</svg>
