<?xml version="1.0" encoding="UTF-8" standalone="no"?>
<!DOCTYPE svg PUBLIC "-//W3C//DTD SVG 1.1//EN"
 "http://www.w3.org/Graphics/SVG/1.1/DTD/svg11.dtd">
<!-- Generated by graphviz version 2.50.0 (20220203.2022)
 -->
<!-- Title: m_tides_ocean::tides_ocean Pages: 1 -->
<svg width="294pt" height="66pt"
 viewBox="0.00 0.00 294.00 66.00" xmlns="http://www.w3.org/2000/svg" xmlns:xlink="http://www.w3.org/1999/xlink">
<g id="graph0" class="graph" transform="scale(1 1) rotate(0) translate(4 62)">
<title>m_tides_ocean::tides_ocean</title>
<polygon fill="white" stroke="transparent" points="-4,4 -4,-62 290,-62 290,4 -4,4"/>
<!-- Node1 -->
<g id="node1" class="node">
<title>Node1</title>
<g id="a_node1"><a xlink:title=" ">
<polygon fill="#bfbfbf" stroke="black" points="0,-14 0,-44 108,-44 108,-14 0,-14"/>
<text text-anchor="start" x="8" y="-32" font-family="Helvetica,sans-Serif" font-size="10.00">m_tides_ocean::tides</text>
<text text-anchor="middle" x="54" y="-21" font-family="Helvetica,sans-Serif" font-size="10.00">_ocean</text>
</a>
</g>
</g>
<!-- Node2 -->
<g id="node2" class="node">
<title>Node2</title>
<g id="a_node2"><a xlink:href="delaunay_8f90.html#a62e08be1aa38b3ef29947ef86e06513a" target="_top" xlink:title=" ">
<polygon fill="white" stroke="black" points="146,-38.5 146,-57.5 201,-57.5 201,-38.5 146,-38.5"/>
<text text-anchor="middle" x="173.5" y="-45.5" font-family="Helvetica,sans-Serif" font-size="10.00">delaunay</text>
</a>
</g>
</g>
<!-- Node1&#45;&gt;Node2 -->
<g id="edge1" class="edge">
<title>Node1&#45;&gt;Node2</title>
<path fill="none" stroke="midnightblue" d="M108.25,-37.61C117.49,-39.1 126.91,-40.63 135.59,-42.03"/>
<polygon fill="midnightblue" stroke="midnightblue" points="135.32,-45.53 145.75,-43.67 136.43,-38.62 135.32,-45.53"/>
</g>
<!-- Node3 -->
<g id="node3" class="node">
<title>Node3</title>
<g id="a_node3"><a xlink:href="gmst__iers_8f95.html#a2fce4c912b61b57f653a9b3996171295" target="_top" xlink:title=" ">
<polygon fill="white" stroke="black" points="144,-0.5 144,-19.5 203,-19.5 203,-0.5 144,-0.5"/>
<text text-anchor="middle" x="173.5" y="-7.5" font-family="Helvetica,sans-Serif" font-size="10.00">gmst_iers</text>
</a>
</g>
</g>
<!-- Node1&#45;&gt;Node3 -->
<g id="edge2" class="edge">
<title>Node1&#45;&gt;Node3</title>
<path fill="none" stroke="midnightblue" d="M108.25,-20.39C116.87,-18.99 125.66,-17.57 133.85,-16.25"/>
<polygon fill="midnightblue" stroke="midnightblue" points="134.54,-19.68 143.85,-14.63 133.42,-12.77 134.54,-19.68"/>
</g>
<!-- Node4 -->
<g id="node4" class="node">
<title>Node4</title>
<g id="a_node4"><a xlink:href="time__TT_8f90.html#aac4be73ca07f0d71843391b034a7d20e" target="_top" xlink:title=" ">
<polygon fill="white" stroke="red" points="239,-0.5 239,-19.5 286,-19.5 286,-0.5 239,-0.5"/>
<text text-anchor="middle" x="262.5" y="-7.5" font-family="Helvetica,sans-Serif" font-size="10.00">time_tt</text>
</a>
</g>
</g>
<!-- Node3&#45;&gt;Node4 -->
<g id="edge3" class="edge">
<title>Node3&#45;&gt;Node4</title>
<path fill="none" stroke="midnightblue" d="M203.47,-10C211.6,-10 220.5,-10 228.83,-10"/>
<polygon fill="midnightblue" stroke="midnightblue" points="228.98,-13.5 238.98,-10 228.98,-6.5 228.98,-13.5"/>
</g>
</g>
</svg>
