<?xml version="1.0" encoding="UTF-8" standalone="no"?>
<!DOCTYPE svg PUBLIC "-//W3C//DTD SVG 1.1//EN"
 "http://www.w3.org/Graphics/SVG/1.1/DTD/svg11.dtd">
<!-- Generated by graphviz version 2.50.0 (20220203.2022)
 -->
<!-- Title: m_shadow::shadow Pages: 1 -->
<svg width="427pt" height="180pt"
 viewBox="0.00 0.00 427.00 180.00" xmlns="http://www.w3.org/2000/svg" xmlns:xlink="http://www.w3.org/1999/xlink">
<g id="graph0" class="graph" transform="scale(1 1) rotate(0) translate(4 176)">
<title>m_shadow::shadow</title>
<polygon fill="white" stroke="transparent" points="-4,4 -4,-176 423,-176 423,4 -4,4"/>
<!-- Node1 -->
<g id="node1" class="node">
<title>Node1</title>
<g id="a_node1"><a xlink:title=" ">
<polygon fill="#bfbfbf" stroke="black" points="317,-57.5 317,-76.5 419,-76.5 419,-57.5 317,-57.5"/>
<text text-anchor="middle" x="368" y="-64.5" font-family="Helvetica,sans-Serif" font-size="10.00">m_shadow::shadow</text>
</a>
</g>
</g>
<!-- Node2 -->
<g id="node2" class="node">
<title>Node2</title>
<g id="a_node2"><a xlink:href="namespacem__betainfo.html#a7c2c7a1fff113613caae0cd8f91ca37d" target="_top" xlink:title=" ">
<polygon fill="white" stroke="black" points="174,-114.5 174,-133.5 278,-133.5 278,-114.5 174,-114.5"/>
<text text-anchor="middle" x="226" y="-121.5" font-family="Helvetica,sans-Serif" font-size="10.00">m_betainfo::betainfo</text>
</a>
</g>
</g>
<!-- Node1&#45;&gt;Node2 -->
<g id="edge1" class="edge">
<title>Node1&#45;&gt;Node2</title>
<path fill="none" stroke="midnightblue" d="M337.54,-80.69C321.05,-88.19 300.03,-97.46 281,-105 272.78,-108.26 263.74,-111.55 255.46,-114.45"/>
<polygon fill="midnightblue" stroke="midnightblue" points="339.05,-83.86 346.69,-76.51 336.14,-77.49 339.05,-83.86"/>
</g>
<!-- Node3 -->
<g id="node3" class="node">
<title>Node3</title>
<g id="a_node3"><a xlink:href="force__sum_8f95.html#a757e2ccbe362bf3b01a51e2c0431a490" target="_top" xlink:title=" ">
<polygon fill="white" stroke="black" points="195,-76.5 195,-95.5 257,-95.5 257,-76.5 195,-76.5"/>
<text text-anchor="middle" x="226" y="-83.5" font-family="Helvetica,sans-Serif" font-size="10.00">force_sum</text>
</a>
</g>
</g>
<!-- Node1&#45;&gt;Node3 -->
<g id="edge2" class="edge">
<title>Node1&#45;&gt;Node3</title>
<path fill="none" stroke="midnightblue" d="M306.89,-75.16C289.75,-77.48 271.8,-79.92 257.27,-81.89"/>
<polygon fill="midnightblue" stroke="midnightblue" points="307.41,-78.62 316.85,-73.81 306.47,-71.68 307.41,-78.62"/>
</g>
<!-- Node12 -->
<g id="node7" class="node">
<title>Node12</title>
<g id="a_node7"><a xlink:href="namespacem__orbinfo.html#a7e90574cb9078c6ff14c6104446ee24a" target="_top" xlink:title=" ">
<polygon fill="white" stroke="black" points="179.5,-38.5 179.5,-57.5 272.5,-57.5 272.5,-38.5 179.5,-38.5"/>
<text text-anchor="middle" x="226" y="-45.5" font-family="Helvetica,sans-Serif" font-size="10.00">m_orbinfo::orbinfo</text>
</a>
</g>
</g>
<!-- Node1&#45;&gt;Node12 -->
<g id="edge6" class="edge">
<title>Node1&#45;&gt;Node12</title>
<path fill="none" stroke="midnightblue" d="M306.88,-58.84C295.4,-57.28 283.55,-55.67 272.61,-54.19"/>
<polygon fill="midnightblue" stroke="midnightblue" points="306.47,-62.32 316.85,-60.19 307.41,-55.38 306.47,-62.32"/>
</g>
<!-- Node15 -->
<g id="node9" class="node">
<title>Node15</title>
<g id="a_node9"><a xlink:href="namespacem__pd__force.html#a942ea044856d62ee03ee7623436bc97e" target="_top" xlink:title=" ">
<polygon fill="white" stroke="black" points="171,-0.5 171,-19.5 281,-19.5 281,-0.5 171,-0.5"/>
<text text-anchor="middle" x="226" y="-7.5" font-family="Helvetica,sans-Serif" font-size="10.00">m_pd_force::pd_force</text>
</a>
</g>
</g>
<!-- Node1&#45;&gt;Node15 -->
<g id="edge8" class="edge">
<title>Node1&#45;&gt;Node15</title>
<path fill="none" stroke="midnightblue" d="M337.54,-53.31C321.05,-45.81 300.03,-36.54 281,-29 272.78,-25.74 263.74,-22.45 255.46,-19.55"/>
<polygon fill="midnightblue" stroke="midnightblue" points="336.14,-56.51 346.69,-57.49 339.05,-50.14 336.14,-56.51"/>
</g>
<!-- Node4 -->
<g id="node4" class="node">
<title>Node4</title>
<g id="a_node4"><a xlink:href="integr__rk4_8f95.html#a9dda6722652d81539eb1d5c9cfe8e9e9" target="_top" xlink:title=" ">
<polygon fill="white" stroke="red" points="38,-152.5 38,-171.5 97,-171.5 97,-152.5 38,-152.5"/>
<text text-anchor="middle" x="67.5" y="-159.5" font-family="Helvetica,sans-Serif" font-size="10.00">integr_rk4</text>
</a>
</g>
</g>
<!-- Node3&#45;&gt;Node4 -->
<g id="edge3" class="edge">
<title>Node3&#45;&gt;Node4</title>
<path fill="none" stroke="midnightblue" d="M185.33,-97.49C180.33,-99.64 175.42,-102.13 171,-105 151.48,-117.66 154.89,-130.93 135,-143 123.5,-149.98 109.34,-154.48 97.04,-157.35"/>
<polygon fill="midnightblue" stroke="midnightblue" points="186.89,-100.63 194.96,-93.76 184.37,-94.1 186.89,-100.63"/>
</g>
<!-- Node10 -->
<g id="node5" class="node">
<title>Node10</title>
<g id="a_node5"><a xlink:href="integr__rk87_8f95.html#a2a9a86b5021347d1c51f6b40066fbb40" target="_top" xlink:title=" ">
<polygon fill="white" stroke="red" points="35,-114.5 35,-133.5 100,-133.5 100,-114.5 35,-114.5"/>
<text text-anchor="middle" x="67.5" y="-121.5" font-family="Helvetica,sans-Serif" font-size="10.00">integr_rk87</text>
</a>
</g>
</g>
<!-- Node3&#45;&gt;Node10 -->
<g id="edge4" class="edge">
<title>Node3&#45;&gt;Node10</title>
<path fill="none" stroke="midnightblue" d="M184.79,-95.76C158.48,-102.15 124.59,-110.38 100.19,-116.3"/>
<polygon fill="midnightblue" stroke="midnightblue" points="185.93,-99.09 194.83,-93.33 184.28,-92.29 185.93,-99.09"/>
</g>
<!-- Node11 -->
<g id="node6" class="node">
<title>Node11</title>
<g id="a_node6"><a xlink:href="integr__rkn768_8f95.html#ace93d66297205f5b3bf470f6fb55a277" target="_top" xlink:title=" ">
<polygon fill="white" stroke="red" points="30,-76.5 30,-95.5 105,-95.5 105,-76.5 30,-76.5"/>
<text text-anchor="middle" x="67.5" y="-83.5" font-family="Helvetica,sans-Serif" font-size="10.00">integr_rkn768</text>
</a>
</g>
</g>
<!-- Node3&#45;&gt;Node11 -->
<g id="edge5" class="edge">
<title>Node3&#45;&gt;Node11</title>
<path fill="none" stroke="midnightblue" d="M184.75,-86C160.2,-86 129.06,-86 105.19,-86"/>
<polygon fill="midnightblue" stroke="midnightblue" points="184.83,-89.5 194.83,-86 184.83,-82.5 184.83,-89.5"/>
</g>
<!-- Node13 -->
<g id="node8" class="node">
<title>Node13</title>
<g id="a_node8"><a xlink:href="namespacem__statorbit2.html#a6ba60e4ad1e25a33b4f2f9607374ea58" target="_top" xlink:title=" ">
<polygon fill="white" stroke="red" points="9.5,-38.5 9.5,-57.5 125.5,-57.5 125.5,-38.5 9.5,-38.5"/>
<text text-anchor="middle" x="67.5" y="-45.5" font-family="Helvetica,sans-Serif" font-size="10.00">m_statorbit2::statorbit2</text>
</a>
</g>
</g>
<!-- Node12&#45;&gt;Node13 -->
<g id="edge7" class="edge">
<title>Node12&#45;&gt;Node13</title>
<path fill="none" stroke="midnightblue" d="M169.23,-48C155.09,-48 139.87,-48 125.66,-48"/>
<polygon fill="midnightblue" stroke="midnightblue" points="169.31,-51.5 179.31,-48 169.31,-44.5 169.31,-51.5"/>
</g>
<!-- Node16 -->
<g id="node10" class="node">
<title>Node16</title>
<g id="a_node10"><a xlink:href="namespacem__veq__rkn768.html#acade84f4eab8c2bb71f72dda5be85361" target="_top" xlink:title=" ">
<polygon fill="white" stroke="red" points="0,-0.5 0,-19.5 135,-19.5 135,-0.5 0,-0.5"/>
<text text-anchor="middle" x="67.5" y="-7.5" font-family="Helvetica,sans-Serif" font-size="10.00">m_veq_rkn768::veq_rkn768</text>
</a>
</g>
</g>
<!-- Node15&#45;&gt;Node16 -->
<g id="edge9" class="edge">
<title>Node15&#45;&gt;Node16</title>
<path fill="none" stroke="midnightblue" d="M160.59,-10C152.18,-10 143.56,-10 135.12,-10"/>
<polygon fill="midnightblue" stroke="midnightblue" points="160.7,-13.5 170.7,-10 160.7,-6.5 160.7,-13.5"/>
</g>
</g>
</svg>
