<?xml version="1.0" encoding="UTF-8" standalone="no"?>
<!DOCTYPE svg PUBLIC "-//W3C//DTD SVG 1.1//EN"
 "http://www.w3.org/Graphics/SVG/1.1/DTD/svg11.dtd">
<!-- Generated by graphviz version 2.50.0 (20220203.2022)
 -->
<!-- Title: yaml_settings::type_string_setting_create Pages: 1 -->
<svg width="427pt" height="39pt"
 viewBox="0.00 0.00 427.00 39.00" xmlns="http://www.w3.org/2000/svg" xmlns:xlink="http://www.w3.org/1999/xlink">
<g id="graph0" class="graph" transform="scale(1 1) rotate(0) translate(4 35)">
<title>yaml_settings::type_string_setting_create</title>
<polygon fill="white" stroke="transparent" points="-4,4 -4,-35 423,-35 423,4 -4,4"/>
<!-- Node1 -->
<g id="node1" class="node">
<title>Node1</title>
<g id="a_node1"><a xlink:title=" ">
<polygon fill="#bfbfbf" stroke="black" points="306,-0.5 306,-30.5 419,-30.5 419,-0.5 306,-0.5"/>
<text text-anchor="start" x="314" y="-18.5" font-family="Helvetica,sans-Serif" font-size="10.00">yaml_settings::type</text>
<text text-anchor="middle" x="362.5" y="-7.5" font-family="Helvetica,sans-Serif" font-size="10.00">_string_setting_create</text>
</a>
</g>
</g>
<!-- Node2 -->
<g id="node2" class="node">
<title>Node2</title>
<g id="a_node2"><a xlink:href="namespaceyaml__settings.html#a1e3195a52eb24530dff37733524ef171" target="_top" xlink:title=" ">
<polygon fill="white" stroke="black" points="154,-0.5 154,-30.5 270,-30.5 270,-0.5 154,-0.5"/>
<text text-anchor="start" x="162" y="-18.5" font-family="Helvetica,sans-Serif" font-size="10.00">yaml_settings::type</text>
<text text-anchor="middle" x="212" y="-7.5" font-family="Helvetica,sans-Serif" font-size="10.00">_logical_setting_create</text>
</a>
</g>
</g>
<!-- Node1&#45;&gt;Node2 -->
<g id="edge1" class="edge">
<title>Node1&#45;&gt;Node2</title>
<path fill="none" stroke="midnightblue" d="M295.51,-15.5C287.01,-15.5 278.36,-15.5 270.02,-15.5"/>
<polygon fill="midnightblue" stroke="midnightblue" points="295.78,-19 305.78,-15.5 295.78,-12 295.78,-19"/>
</g>
<!-- Node3 -->
<g id="node3" class="node">
<title>Node3</title>
<g id="a_node3"><a xlink:href="namespaceyaml__settings.html#af06e8e4d30d8e2a7bda90429f30edc4e" target="_top" xlink:title=" ">
<polygon fill="white" stroke="red" points="0,-0.5 0,-30.5 118,-30.5 118,-0.5 0,-0.5"/>
<text text-anchor="start" x="8" y="-18.5" font-family="Helvetica,sans-Serif" font-size="10.00">yaml_settings::type</text>
<text text-anchor="middle" x="59" y="-7.5" font-family="Helvetica,sans-Serif" font-size="10.00">_integer_setting_create</text>
</a>
</g>
</g>
<!-- Node2&#45;&gt;Node3 -->
<g id="edge2" class="edge">
<title>Node2&#45;&gt;Node3</title>
<path fill="none" stroke="midnightblue" d="M143.65,-15.5C135.15,-15.5 126.51,-15.5 118.17,-15.5"/>
<polygon fill="midnightblue" stroke="midnightblue" points="143.91,-19 153.91,-15.5 143.91,-12 143.91,-19"/>
</g>
</g>
</svg>
