<?xml version="1.0" encoding="UTF-8" standalone="no"?>
<!DOCTYPE svg PUBLIC "-//W3C//DTD SVG 1.1//EN"
 "http://www.w3.org/Graphics/SVG/1.1/DTD/svg11.dtd">
<!-- Generated by graphviz version 2.50.0 (20220203.2022)
 -->
<!-- Title: m_pd_ecom::pd_ecom Pages: 1 -->
<svg width="485pt" height="712pt"
 viewBox="0.00 0.00 485.00 712.00" xmlns="http://www.w3.org/2000/svg" xmlns:xlink="http://www.w3.org/1999/xlink">
<g id="graph0" class="graph" transform="scale(1 1) rotate(0) translate(4 708)">
<title>m_pd_ecom::pd_ecom</title>
<polygon fill="white" stroke="transparent" points="-4,4 -4,-708 481,-708 481,4 -4,4"/>
<!-- Node1 -->
<g id="node1" class="node">
<title>Node1</title>
<g id="a_node1"><a xlink:title=" ">
<polygon fill="#bfbfbf" stroke="black" points="0,-513.5 0,-532.5 114,-532.5 114,-513.5 0,-513.5"/>
<text text-anchor="middle" x="57" y="-520.5" font-family="Helvetica,sans-Serif" font-size="10.00">m_pd_ecom::pd_ecom</text>
</a>
</g>
</g>
<!-- Node2 -->
<g id="node2" class="node">
<title>Node2</title>
<g id="a_node2"><a xlink:href="apr__srp_8f90.html#a175ef3a649d572c26edf6ad01ba7e7d8" target="_top" xlink:title=" ">
<polygon fill="white" stroke="black" points="162,-684.5 162,-703.5 211,-703.5 211,-684.5 162,-684.5"/>
<text text-anchor="middle" x="186.5" y="-691.5" font-family="Helvetica,sans-Serif" font-size="10.00">apr_srp</text>
</a>
</g>
</g>
<!-- Node1&#45;&gt;Node2 -->
<g id="edge1" class="edge">
<title>Node1&#45;&gt;Node2</title>
<path fill="none" stroke="midnightblue" d="M62.23,-532.53C73.6,-557.38 106.93,-625.38 150,-670 152.96,-673.07 156.38,-675.97 159.9,-678.62"/>
<polygon fill="midnightblue" stroke="midnightblue" points="157.92,-681.51 168.14,-684.32 161.91,-675.75 157.92,-681.51"/>
</g>
<!-- Node4 -->
<g id="node4" class="node">
<title>Node4</title>
<g id="a_node4"><a xlink:href="kepler__z2k_8f90.html#aaece6d2b7d204b571232ad144687f646" target="_top" xlink:title=" ">
<polygon fill="white" stroke="black" points="155,-570.5 155,-589.5 218,-589.5 218,-570.5 155,-570.5"/>
<text text-anchor="middle" x="186.5" y="-577.5" font-family="Helvetica,sans-Serif" font-size="10.00">kepler_z2k</text>
</a>
</g>
</g>
<!-- Node1&#45;&gt;Node4 -->
<g id="edge3" class="edge">
<title>Node1&#45;&gt;Node4</title>
<path fill="none" stroke="midnightblue" d="M79.34,-532.54C100.03,-541.79 131.61,-555.91 154.96,-566.35"/>
<polygon fill="midnightblue" stroke="midnightblue" points="153.53,-569.54 164.09,-570.43 156.39,-563.15 153.53,-569.54"/>
</g>
<!-- Node7 -->
<g id="node7" class="node">
<title>Node7</title>
<g id="a_node7"><a xlink:href="R1_8for.html#a790dd7e73934aaad6a8f20558f2a175f" target="_top" xlink:title=" ">
<polygon fill="white" stroke="black" points="369,-551.5 369,-570.5 398,-570.5 398,-551.5 369,-551.5"/>
<text text-anchor="middle" x="383.5" y="-558.5" font-family="Helvetica,sans-Serif" font-size="10.00">r1</text>
</a>
</g>
</g>
<!-- Node1&#45;&gt;Node7 -->
<g id="edge31" class="edge">
<title>Node1&#45;&gt;Node7</title>
<path fill="none" stroke="midnightblue" d="M67.34,-532.7C83.07,-548.54 116.43,-580.09 150,-599 194.7,-624.18 208.42,-628.44 259,-637 287.05,-641.75 297.43,-649.46 323,-637 347.15,-625.24 364.39,-598.4 373.9,-579.99"/>
<polygon fill="midnightblue" stroke="midnightblue" points="377.15,-581.29 378.38,-570.77 370.86,-578.23 377.15,-581.29"/>
</g>
<!-- Node8 -->
<g id="node8" class="node">
<title>Node8</title>
<g id="a_node8"><a xlink:href="lambda_8cpp.html#a364f9f201016e3baff0a9366158a823b" target="_top" xlink:title=" ">
<polygon fill="white" stroke="black" points="162.5,-247.5 162.5,-266.5 210.5,-266.5 210.5,-247.5 162.5,-247.5"/>
<text text-anchor="middle" x="186.5" y="-254.5" font-family="Helvetica,sans-Serif" font-size="10.00">lambda</text>
</a>
</g>
</g>
<!-- Node1&#45;&gt;Node8 -->
<g id="edge7" class="edge">
<title>Node1&#45;&gt;Node8</title>
<path fill="none" stroke="midnightblue" d="M62.69,-513.22C81.47,-474.03 151.48,-327.97 176.52,-275.73"/>
<polygon fill="midnightblue" stroke="midnightblue" points="179.74,-277.12 180.9,-266.59 173.42,-274.1 179.74,-277.12"/>
</g>
<!-- Node31 -->
<g id="node20" class="node">
<title>Node31</title>
<g id="a_node20"><a xlink:href="matrix__Rr_8f90.html#ac8734d74fb7ada7605575d3b9d26f2bb" target="_top" xlink:title=" ">
<polygon fill="white" stroke="black" points="159.5,-532.5 159.5,-551.5 213.5,-551.5 213.5,-532.5 159.5,-532.5"/>
<text text-anchor="middle" x="186.5" y="-539.5" font-family="Helvetica,sans-Serif" font-size="10.00">matrix_rr</text>
</a>
</g>
</g>
<!-- Node1&#45;&gt;Node31 -->
<g id="edge26" class="edge">
<title>Node1&#45;&gt;Node31</title>
<path fill="none" stroke="midnightblue" d="M114.29,-531.39C126.23,-533.17 138.51,-535 149.44,-536.63"/>
<polygon fill="midnightblue" stroke="midnightblue" points="149.05,-540.11 159.46,-538.12 150.08,-533.18 149.05,-540.11"/>
</g>
<!-- Node32 -->
<g id="node21" class="node">
<title>Node32</title>
<g id="a_node21"><a xlink:href="R3_8for.html#a8736a6c65234edc13681ad51dff7ed1d" target="_top" xlink:title=" ">
<polygon fill="white" stroke="black" points="276.5,-494.5 276.5,-513.5 305.5,-513.5 305.5,-494.5 276.5,-494.5"/>
<text text-anchor="middle" x="291" y="-501.5" font-family="Helvetica,sans-Serif" font-size="10.00">r3</text>
</a>
</g>
</g>
<!-- Node1&#45;&gt;Node32 -->
<g id="edge32" class="edge">
<title>Node1&#45;&gt;Node32</title>
<path fill="none" stroke="midnightblue" d="M114.16,-518.4C162.56,-514.44 230.11,-508.9 265.75,-505.99"/>
<polygon fill="midnightblue" stroke="midnightblue" points="266.46,-509.44 276.14,-505.14 265.89,-502.46 266.46,-509.44"/>
</g>
<!-- Node33 -->
<g id="node22" class="node">
<title>Node33</title>
<g id="a_node22"><a xlink:href="productcross_8f90.html#a2e59e22456af10602cf068c75f925c76" target="_top" xlink:title=" ">
<polygon fill="white" stroke="black" points="150,-456.5 150,-475.5 223,-475.5 223,-456.5 150,-456.5"/>
<text text-anchor="middle" x="186.5" y="-463.5" font-family="Helvetica,sans-Serif" font-size="10.00">productcross</text>
</a>
</g>
</g>
<!-- Node1&#45;&gt;Node33 -->
<g id="edge29" class="edge">
<title>Node1&#45;&gt;Node33</title>
<path fill="none" stroke="midnightblue" d="M79.34,-513.46C100.03,-504.21 131.61,-490.09 154.96,-479.65"/>
<polygon fill="midnightblue" stroke="midnightblue" points="156.39,-482.85 164.09,-475.57 153.53,-476.46 156.39,-482.85"/>
</g>
<!-- Node34 -->
<g id="node23" class="node">
<title>Node34</title>
<g id="a_node23"><a xlink:href="SRPFBOXW_8f90.html#a45ebb5961ded437337ecd4c1c598988d" target="_top" xlink:title=" ">
<polygon fill="white" stroke="black" points="158.5,-95.5 158.5,-114.5 214.5,-114.5 214.5,-95.5 158.5,-95.5"/>
<text text-anchor="middle" x="186.5" y="-102.5" font-family="Helvetica,sans-Serif" font-size="10.00">srpfboxw</text>
</a>
</g>
</g>
<!-- Node1&#45;&gt;Node34 -->
<g id="edge33" class="edge">
<title>Node1&#45;&gt;Node34</title>
<path fill="none" stroke="midnightblue" d="M60.9,-513.48C77.16,-460.2 156.96,-198.57 179.54,-124.55"/>
<polygon fill="midnightblue" stroke="midnightblue" points="182.98,-125.27 182.55,-114.68 176.28,-123.23 182.98,-125.27"/>
</g>
<!-- Node3 -->
<g id="node3" class="node">
<title>Node3</title>
<g id="a_node3"><a xlink:href="sinex_8cpp.html#a06fabc81a2cc41dfee260450a527ad2d" target="_top" xlink:title=" ">
<polygon fill="white" stroke="black" points="274.5,-684.5 274.5,-703.5 307.5,-703.5 307.5,-684.5 274.5,-684.5"/>
<text text-anchor="middle" x="291" y="-691.5" font-family="Helvetica,sans-Serif" font-size="10.00">trim</text>
</a>
</g>
</g>
<!-- Node2&#45;&gt;Node3 -->
<g id="edge2" class="edge">
<title>Node2&#45;&gt;Node3</title>
<path fill="none" stroke="midnightblue" d="M211.02,-694C226.77,-694 247.52,-694 263.8,-694"/>
<polygon fill="midnightblue" stroke="midnightblue" points="264.24,-697.5 274.24,-694 264.24,-690.5 264.24,-697.5"/>
</g>
<!-- Node5 -->
<g id="node5" class="node">
<title>Node5</title>
<g id="a_node5"><a xlink:href="arctan_8f90.html#a6542129800abaa371ae7617afbcb4402" target="_top" xlink:title=" ">
<polygon fill="white" stroke="black" points="269,-608.5 269,-627.5 313,-627.5 313,-608.5 269,-608.5"/>
<text text-anchor="middle" x="291" y="-615.5" font-family="Helvetica,sans-Serif" font-size="10.00">arctan</text>
</a>
</g>
</g>
<!-- Node4&#45;&gt;Node5 -->
<g id="edge4" class="edge">
<title>Node4&#45;&gt;Node5</title>
<path fill="none" stroke="midnightblue" d="M213.37,-589.59C227.34,-594.77 244.68,-601.2 259.33,-606.63"/>
<polygon fill="midnightblue" stroke="midnightblue" points="258.38,-610.01 268.97,-610.2 260.81,-603.45 258.38,-610.01"/>
</g>
<!-- Node6 -->
<g id="node6" class="node">
<title>Node6</title>
<g id="a_node6"><a xlink:href="productdot_8f90.html#a14430d9cb0b48474effeb33068eaf0ed" target="_top" xlink:title=" ">
<polygon fill="white" stroke="black" points="260,-570.5 260,-589.5 322,-589.5 322,-570.5 260,-570.5"/>
<text text-anchor="middle" x="291" y="-577.5" font-family="Helvetica,sans-Serif" font-size="10.00">productdot</text>
</a>
</g>
</g>
<!-- Node4&#45;&gt;Node6 -->
<g id="edge5" class="edge">
<title>Node4&#45;&gt;Node6</title>
<path fill="none" stroke="midnightblue" d="M218.25,-580C228.16,-580 239.29,-580 249.77,-580"/>
<polygon fill="midnightblue" stroke="midnightblue" points="249.97,-583.5 259.97,-580 249.97,-576.5 249.97,-583.5"/>
</g>
<!-- Node6&#45;&gt;Node7 -->
<g id="edge6" class="edge">
<title>Node6&#45;&gt;Node7</title>
<path fill="none" stroke="midnightblue" d="M322.14,-573.67C334.14,-571.15 347.74,-568.3 358.99,-565.94"/>
<polygon fill="midnightblue" stroke="midnightblue" points="359.86,-569.33 368.93,-563.85 358.42,-562.48 359.86,-569.33"/>
</g>
<!-- Node9 -->
<g id="node9" class="node">
<title>Node9</title>
<g id="a_node9"><a xlink:href="algebra__old_8cpp.html#adfe9cb36e0f4af6b1ca11bdfbe66e55c" target="_top" xlink:title=" ">
<polygon fill="white" stroke="black" points="275,-380.5 275,-399.5 307,-399.5 307,-380.5 275,-380.5"/>
<text text-anchor="middle" x="291" y="-387.5" font-family="Helvetica,sans-Serif" font-size="10.00">eye</text>
</a>
</g>
</g>
<!-- Node8&#45;&gt;Node9 -->
<g id="edge8" class="edge">
<title>Node8&#45;&gt;Node9</title>
<path fill="none" stroke="midnightblue" d="M192.48,-266.79C202.97,-286.84 228.89,-333.43 259,-366 261.6,-368.81 264.56,-371.55 267.59,-374.11"/>
<polygon fill="midnightblue" stroke="midnightblue" points="265.56,-376.97 275.59,-380.39 269.89,-371.46 265.56,-376.97"/>
</g>
<!-- Node10 -->
<g id="node10" class="node">
<title>Node10</title>
<g id="a_node10"><a xlink:href="algebra__old_8cpp.html#a446a2803e5eaeb996733dd8d73966f00" target="_top" xlink:title=" ">
<polygon fill="white" stroke="red" points="363.5,-342.5 363.5,-361.5 403.5,-361.5 403.5,-342.5 363.5,-342.5"/>
<text text-anchor="middle" x="383.5" y="-349.5" font-family="Helvetica,sans-Serif" font-size="10.00">zeros</text>
</a>
</g>
</g>
<!-- Node8&#45;&gt;Node10 -->
<g id="edge25" class="edge">
<title>Node8&#45;&gt;Node10</title>
<path fill="none" stroke="midnightblue" d="M193.4,-266.62C204.17,-283.23 228.7,-317.06 259,-333 288.53,-348.53 327.16,-352.26 353.29,-352.76"/>
<polygon fill="midnightblue" stroke="midnightblue" points="353.31,-356.26 363.32,-352.81 353.34,-349.26 353.31,-356.26"/>
</g>
<!-- Node12 -->
<g id="node11" class="node">
<title>Node12</title>
<g id="a_node11"><a xlink:href="algebra__old_8cpp.html#a1d2c1ecab5b17dcc773fcd83c0b87b7e" target="_top" xlink:title=" ">
<polygon fill="white" stroke="red" points="444,-304.5 444,-323.5 477,-323.5 477,-304.5 444,-304.5"/>
<text text-anchor="middle" x="460.5" y="-311.5" font-family="Helvetica,sans-Serif" font-size="10.00">mat</text>
</a>
</g>
</g>
<!-- Node8&#45;&gt;Node12 -->
<g id="edge14" class="edge">
<title>Node8&#45;&gt;Node12</title>
<path fill="none" stroke="midnightblue" d="M188.59,-266.78C192.31,-294.92 207.29,-376.18 259,-409 316.7,-445.62 352.71,-411.17 408,-371 423.11,-360.03 437.1,-344 446.67,-331.74"/>
<polygon fill="midnightblue" stroke="midnightblue" points="449.58,-333.69 452.81,-323.6 443.99,-329.47 449.58,-333.69"/>
</g>
<!-- Node13 -->
<g id="node12" class="node">
<title>Node13</title>
<g id="a_node12"><a xlink:href="lambda_8cpp.html#a1555fac516bd89d1cc6559c9cc79dc28" target="_top" xlink:title=" ">
<polygon fill="white" stroke="red" points="270.5,-266.5 270.5,-285.5 311.5,-285.5 311.5,-266.5 270.5,-266.5"/>
<text text-anchor="middle" x="291" y="-273.5" font-family="Helvetica,sans-Serif" font-size="10.00">ffratio</text>
</a>
</g>
</g>
<!-- Node8&#45;&gt;Node13 -->
<g id="edge11" class="edge">
<title>Node8&#45;&gt;Node13</title>
<path fill="none" stroke="midnightblue" d="M210.5,-261.26C225.22,-263.99 244.46,-267.56 260.33,-270.5"/>
<polygon fill="midnightblue" stroke="midnightblue" points="259.71,-273.95 270.18,-272.33 260.99,-267.06 259.71,-273.95"/>
</g>
<!-- Node15 -->
<g id="node13" class="node">
<title>Node15</title>
<g id="a_node13"><a xlink:href="lambda_8cpp.html#a95d9f9037b4b559cb1af6c1d66f26728" target="_top" xlink:title=" ">
<polygon fill="white" stroke="black" points="369,-38.5 369,-57.5 398,-57.5 398,-38.5 369,-38.5"/>
<text text-anchor="middle" x="383.5" y="-45.5" font-family="Helvetica,sans-Serif" font-size="10.00">LD</text>
</a>
</g>
</g>
<!-- Node8&#45;&gt;Node15 -->
<g id="edge12" class="edge">
<title>Node8&#45;&gt;Node15</title>
<path fill="none" stroke="midnightblue" d="M189.79,-247.28C198.3,-211.97 229.17,-91.21 259,-67 287.28,-44.05 331.57,-43.03 358.72,-45.05"/>
<polygon fill="midnightblue" stroke="midnightblue" points="358.6,-48.55 368.88,-46 359.25,-41.58 358.6,-48.55"/>
</g>
<!-- Node16 -->
<g id="node14" class="node">
<title>Node16</title>
<g id="a_node14"><a xlink:href="algebra__old_8cpp.html#adc33998911a24938042604ba1f8e6196" target="_top" xlink:title=" ">
<polygon fill="white" stroke="black" points="359,-114.5 359,-133.5 408,-133.5 408,-114.5 359,-114.5"/>
<text text-anchor="middle" x="383.5" y="-121.5" font-family="Helvetica,sans-Serif" font-size="10.00">matmul</text>
</a>
</g>
</g>
<!-- Node8&#45;&gt;Node16 -->
<g id="edge15" class="edge">
<title>Node8&#45;&gt;Node16</title>
<path fill="none" stroke="midnightblue" d="M190.44,-247.38C197.85,-224.92 219.57,-168.93 259,-143 285.45,-125.61 321.86,-121.87 348.29,-121.87"/>
<polygon fill="midnightblue" stroke="midnightblue" points="348.54,-125.38 358.6,-122.06 348.66,-118.38 348.54,-125.38"/>
</g>
<!-- Node17 -->
<g id="node15" class="node">
<title>Node17</title>
<g id="a_node15"><a xlink:href="lambda_8cpp.html#a62e489eccec78e79da165885d8ab994d" target="_top" xlink:title=" ">
<polygon fill="white" stroke="red" points="261,-228.5 261,-247.5 321,-247.5 321,-228.5 261,-228.5"/>
<text text-anchor="middle" x="291" y="-235.5" font-family="Helvetica,sans-Serif" font-size="10.00">normcdfar</text>
</a>
</g>
</g>
<!-- Node8&#45;&gt;Node17 -->
<g id="edge16" class="edge">
<title>Node8&#45;&gt;Node17</title>
<path fill="none" stroke="midnightblue" d="M210.5,-252.74C222.36,-250.54 237.14,-247.8 250.73,-245.28"/>
<polygon fill="midnightblue" stroke="midnightblue" points="251.63,-248.67 260.83,-243.41 250.36,-241.79 251.63,-248.67"/>
</g>
<!-- Node20 -->
<g id="node16" class="node">
<title>Node20</title>
<g id="a_node16"><a xlink:href="lambda_8cpp.html#a483a1d235f923852347ceb16f2944efe" target="_top" xlink:title=" ">
<polygon fill="white" stroke="red" points="263,-190.5 263,-209.5 319,-209.5 319,-190.5 263,-190.5"/>
<text text-anchor="middle" x="291" y="-197.5" font-family="Helvetica,sans-Serif" font-size="10.00">reduction</text>
</a>
</g>
</g>
<!-- Node8&#45;&gt;Node20 -->
<g id="edge17" class="edge">
<title>Node8&#45;&gt;Node20</title>
<path fill="none" stroke="midnightblue" d="M204.89,-247.33C221.11,-238.31 245.52,-224.73 264.05,-214.43"/>
<polygon fill="midnightblue" stroke="midnightblue" points="265.83,-217.45 272.87,-209.53 262.43,-211.33 265.83,-217.45"/>
</g>
<!-- Node23 -->
<g id="node17" class="node">
<title>Node23</title>
<g id="a_node17"><a xlink:href="lambda_8cpp.html#a7a45f828294c77c7e36d0a8cbfa229a3" target="_top" xlink:title=" ">
<polygon fill="white" stroke="black" points="268,-304.5 268,-323.5 314,-323.5 314,-304.5 268,-304.5"/>
<text text-anchor="middle" x="291" y="-311.5" font-family="Helvetica,sans-Serif" font-size="10.00">search</text>
</a>
</g>
</g>
<!-- Node8&#45;&gt;Node23 -->
<g id="edge18" class="edge">
<title>Node8&#45;&gt;Node23</title>
<path fill="none" stroke="midnightblue" d="M204.89,-266.67C221.11,-275.69 245.52,-289.27 264.05,-299.57"/>
<polygon fill="midnightblue" stroke="midnightblue" points="262.43,-302.67 272.87,-304.47 265.83,-296.55 262.43,-302.67"/>
</g>
<!-- Node24 -->
<g id="node18" class="node">
<title>Node24</title>
<g id="a_node18"><a xlink:href="algebra__old_8cpp.html#a54fd9b64416949c38e879ac889964d2a" target="_top" xlink:title=" ">
<polygon fill="white" stroke="red" points="271,-76.5 271,-95.5 311,-95.5 311,-76.5 271,-76.5"/>
<text text-anchor="middle" x="291" y="-83.5" font-family="Helvetica,sans-Serif" font-size="10.00">solve</text>
</a>
</g>
</g>
<!-- Node8&#45;&gt;Node24 -->
<g id="edge21" class="edge">
<title>Node8&#45;&gt;Node24</title>
<path fill="none" stroke="midnightblue" d="M190.51,-247.2C198.53,-222.25 222.31,-155.15 259,-110 261.3,-107.17 264,-104.47 266.83,-101.97"/>
<polygon fill="midnightblue" stroke="midnightblue" points="269.27,-104.5 274.91,-95.53 264.91,-99.02 269.27,-104.5"/>
</g>
<!-- Node30 -->
<g id="node19" class="node">
<title>Node30</title>
<g id="a_node19"><a xlink:href="streamTrace_8cpp.html#ae00e6addd3bdf3a7fd41a254eb9aec89" target="_top" xlink:title=" ">
<polygon fill="white" stroke="black" points="259,-152.5 259,-171.5 323,-171.5 323,-152.5 259,-152.5"/>
<text text-anchor="middle" x="291" y="-159.5" font-family="Helvetica,sans-Serif" font-size="10.00">tracepdeex</text>
</a>
</g>
</g>
<!-- Node8&#45;&gt;Node30 -->
<g id="edge24" class="edge">
<title>Node8&#45;&gt;Node30</title>
<path fill="none" stroke="midnightblue" d="M195.15,-247.34C207.52,-232.09 233.14,-202.03 259,-181 260.54,-179.75 262.17,-178.51 263.85,-177.31"/>
<polygon fill="midnightblue" stroke="midnightblue" points="265.98,-180.1 272.39,-171.67 262.12,-174.26 265.98,-180.1"/>
</g>
<!-- Node9&#45;&gt;Node10 -->
<g id="edge9" class="edge">
<title>Node9&#45;&gt;Node10</title>
<path fill="none" stroke="midnightblue" d="M307.35,-383.55C320.01,-378.24 338.32,-370.55 353.7,-364.09"/>
<polygon fill="midnightblue" stroke="midnightblue" points="355.42,-367.17 363.29,-360.07 352.71,-360.71 355.42,-367.17"/>
</g>
<!-- Node10&#45;&gt;Node12 -->
<g id="edge10" class="edge">
<title>Node10&#45;&gt;Node12</title>
<path fill="none" stroke="midnightblue" d="M403.43,-342.41C412.9,-337.61 424.48,-331.74 434.66,-326.59"/>
<polygon fill="midnightblue" stroke="midnightblue" points="436.53,-329.56 443.87,-321.92 433.37,-323.32 436.53,-329.56"/>
</g>
<!-- Node15&#45;&gt;Node12 -->
<g id="edge13" class="edge">
<title>Node15&#45;&gt;Node12</title>
<path fill="none" stroke="midnightblue" d="M396.48,-57.68C400.72,-61.69 405.13,-66.66 408,-72 448.25,-147.06 457.05,-251.02 458.97,-294.09"/>
<polygon fill="midnightblue" stroke="midnightblue" points="455.47,-294.25 459.33,-304.11 462.46,-293.99 455.47,-294.25"/>
</g>
<!-- Node23&#45;&gt;Node10 -->
<g id="edge20" class="edge">
<title>Node23&#45;&gt;Node10</title>
<path fill="none" stroke="midnightblue" d="M314.37,-323.39C326.38,-328.44 341.32,-334.71 354.14,-340.09"/>
<polygon fill="midnightblue" stroke="midnightblue" points="352.87,-343.35 363.45,-344 355.58,-336.9 352.87,-343.35"/>
</g>
<!-- Node23&#45;&gt;Node12 -->
<g id="edge19" class="edge">
<title>Node23&#45;&gt;Node12</title>
<path fill="none" stroke="midnightblue" d="M314.24,-314C345.1,-314 400.8,-314 433.53,-314"/>
<polygon fill="midnightblue" stroke="midnightblue" points="433.68,-317.5 443.68,-314 433.68,-310.5 433.68,-317.5"/>
</g>
<!-- Node24&#45;&gt;Node12 -->
<g id="edge22" class="edge">
<title>Node24&#45;&gt;Node12</title>
<path fill="none" stroke="midnightblue" d="M311.17,-83.27C336.68,-80.79 381.62,-80.63 408,-105 435.9,-130.77 451.96,-247.35 457.39,-294.31"/>
<polygon fill="midnightblue" stroke="midnightblue" points="453.93,-294.87 458.52,-304.42 460.89,-294.09 453.93,-294.87"/>
</g>
<!-- Node24&#45;&gt;Node16 -->
<g id="edge23" class="edge">
<title>Node24&#45;&gt;Node16</title>
<path fill="none" stroke="midnightblue" d="M311.19,-94.06C322.52,-98.82 337.16,-104.96 350.22,-110.44"/>
<polygon fill="midnightblue" stroke="midnightblue" points="349.24,-113.83 359.82,-114.48 351.95,-107.38 349.24,-113.83"/>
</g>
<!-- Node31&#45;&gt;Node7 -->
<g id="edge27" class="edge">
<title>Node31&#45;&gt;Node7</title>
<path fill="none" stroke="midnightblue" d="M213.8,-544.56C251.86,-548.27 321.75,-555.08 358.49,-558.66"/>
<polygon fill="midnightblue" stroke="midnightblue" points="358.46,-562.17 368.75,-559.66 359.14,-555.21 358.46,-562.17"/>
</g>
<!-- Node31&#45;&gt;Node32 -->
<g id="edge28" class="edge">
<title>Node31&#45;&gt;Node32</title>
<path fill="none" stroke="midnightblue" d="M213.37,-532.41C229.81,-526.31 250.92,-518.49 266.81,-512.6"/>
<polygon fill="midnightblue" stroke="midnightblue" points="268.25,-515.8 276.41,-509.04 265.82,-509.23 268.25,-515.8"/>
</g>
<!-- Node33&#45;&gt;Node7 -->
<g id="edge30" class="edge">
<title>Node33&#45;&gt;Node7</title>
<path fill="none" stroke="midnightblue" d="M223.24,-463.92C252.01,-463.83 292.54,-467.44 323,-485 346.15,-498.35 363.55,-524.56 373.38,-542.42"/>
<polygon fill="midnightblue" stroke="midnightblue" points="370.31,-544.12 378.04,-551.36 376.51,-540.87 370.31,-544.12"/>
</g>
<!-- Node35 -->
<g id="node24" class="node">
<title>Node35</title>
<g id="a_node24"><a xlink:href="SURFBOXW_8f90.html#a5e0cf337bcdc6fb974911d20d8e1caa4" target="_top" xlink:title=" ">
<polygon fill="white" stroke="black" points="263,-0.5 263,-19.5 319,-19.5 319,-0.5 263,-0.5"/>
<text text-anchor="middle" x="291" y="-7.5" font-family="Helvetica,sans-Serif" font-size="10.00">surfboxw</text>
</a>
</g>
</g>
<!-- Node34&#45;&gt;Node35 -->
<g id="edge34" class="edge">
<title>Node34&#45;&gt;Node35</title>
<path fill="none" stroke="midnightblue" d="M196.41,-95.43C209.6,-81.43 235.33,-54.77 259,-34 262.08,-31.3 265.42,-28.54 268.73,-25.91"/>
<polygon fill="midnightblue" stroke="midnightblue" points="270.98,-28.59 276.74,-19.7 266.7,-23.06 270.98,-28.59"/>
</g>
</g>
</svg>
