<?xml version="1.0" encoding="UTF-8" standalone="no"?>
<!DOCTYPE svg PUBLIC "-//W3C//DTD SVG 1.1//EN"
 "http://www.w3.org/Graphics/SVG/1.1/DTD/svg11.dtd">
<!-- Generated by graphviz version 2.50.0 (20220203.2022)
 -->
<!-- Title: m_gfc3::gfc3_iers Pages: 1 -->
<svg width="316pt" height="142pt"
 viewBox="0.00 0.00 316.00 142.00" xmlns="http://www.w3.org/2000/svg" xmlns:xlink="http://www.w3.org/1999/xlink">
<g id="graph0" class="graph" transform="scale(1 1) rotate(0) translate(4 138)">
<title>m_gfc3::gfc3_iers</title>
<polygon fill="white" stroke="transparent" points="-4,4 -4,-138 312,-138 312,4 -4,4"/>
<!-- Node1 -->
<g id="node1" class="node">
<title>Node1</title>
<g id="a_node1"><a xlink:title=" ">
<polygon fill="#bfbfbf" stroke="black" points="0,-57.5 0,-76.5 93,-76.5 93,-57.5 0,-57.5"/>
<text text-anchor="middle" x="46.5" y="-64.5" font-family="Helvetica,sans-Serif" font-size="10.00">m_gfc3::gfc3_iers</text>
</a>
</g>
</g>
<!-- Node2 -->
<g id="node2" class="node">
<title>Node2</title>
<g id="a_node2"><a xlink:href="namespacem__gfc.html#afc584f3636a4453bb8c5810c4b1a3ec3" target="_top" xlink:title=" ">
<polygon fill="white" stroke="black" points="137,-76.5 137,-95.5 204,-95.5 204,-76.5 137,-76.5"/>
<text text-anchor="middle" x="170.5" y="-83.5" font-family="Helvetica,sans-Serif" font-size="10.00">m_gfc::gfc2</text>
</a>
</g>
</g>
<!-- Node1&#45;&gt;Node2 -->
<g id="edge1" class="edge">
<title>Node1&#45;&gt;Node2</title>
<path fill="none" stroke="midnightblue" d="M93.28,-74.13C104.24,-75.84 115.91,-77.65 126.73,-79.34"/>
<polygon fill="midnightblue" stroke="midnightblue" points="126.38,-82.83 136.8,-80.91 127.46,-75.91 126.38,-82.83"/>
</g>
<!-- Node3 -->
<g id="node3" class="node">
<title>Node3</title>
<g id="a_node3"><a xlink:href="cal2jd_8for.html#af9bdf5980bab8c8324930b1a0af0175a" target="_top" xlink:title=" ">
<polygon fill="white" stroke="black" points="248,-114.5 248,-133.5 308,-133.5 308,-114.5 248,-114.5"/>
<text text-anchor="middle" x="278" y="-121.5" font-family="Helvetica,sans-Serif" font-size="10.00">iau_cal2jd</text>
</a>
</g>
</g>
<!-- Node1&#45;&gt;Node3 -->
<g id="edge4" class="edge">
<title>Node1&#45;&gt;Node3</title>
<path fill="none" stroke="midnightblue" d="M64.08,-76.59C80.14,-85.43 105.46,-98.18 129,-105 164.95,-115.41 207.45,-120.12 237.67,-122.25"/>
<polygon fill="midnightblue" stroke="midnightblue" points="237.61,-125.76 247.81,-122.9 238.06,-118.77 237.61,-125.76"/>
</g>
<!-- Node5 -->
<g id="node5" class="node">
<title>Node5</title>
<g id="a_node5"><a xlink:href="jd2cal_8for.html#a9bed91282551283d85294092fe0cc509" target="_top" xlink:title=" ">
<polygon fill="white" stroke="black" points="140.5,-38.5 140.5,-57.5 200.5,-57.5 200.5,-38.5 140.5,-38.5"/>
<text text-anchor="middle" x="170.5" y="-45.5" font-family="Helvetica,sans-Serif" font-size="10.00">iau_jd2cal</text>
</a>
</g>
</g>
<!-- Node1&#45;&gt;Node5 -->
<g id="edge5" class="edge">
<title>Node1&#45;&gt;Node5</title>
<path fill="none" stroke="midnightblue" d="M93.28,-59.87C105.51,-57.97 118.62,-55.92 130.46,-54.08"/>
<polygon fill="midnightblue" stroke="midnightblue" points="131.14,-57.52 140.48,-52.52 130.06,-50.6 131.14,-57.52"/>
</g>
<!-- Node6 -->
<g id="node6" class="node">
<title>Node6</title>
<g id="a_node6"><a xlink:href="IERS__CMP__2015_8F.html#ac4ece299e55962f539a6a94c65c89f6d" target="_top" xlink:title=" ">
<polygon fill="white" stroke="black" points="129,-0.5 129,-19.5 212,-19.5 212,-0.5 129,-0.5"/>
<text text-anchor="middle" x="170.5" y="-7.5" font-family="Helvetica,sans-Serif" font-size="10.00">iers_cmp_2015</text>
</a>
</g>
</g>
<!-- Node1&#45;&gt;Node6 -->
<g id="edge6" class="edge">
<title>Node1&#45;&gt;Node6</title>
<path fill="none" stroke="midnightblue" d="M67.92,-57.46C87.54,-48.29 117.4,-34.34 139.68,-23.93"/>
<polygon fill="midnightblue" stroke="midnightblue" points="141.43,-26.98 149.01,-19.57 138.47,-20.63 141.43,-26.98"/>
</g>
<!-- Node2&#45;&gt;Node3 -->
<g id="edge2" class="edge">
<title>Node2&#45;&gt;Node3</title>
<path fill="none" stroke="midnightblue" d="M198.12,-95.59C210.99,-100.22 226.64,-105.86 240.59,-110.89"/>
<polygon fill="midnightblue" stroke="midnightblue" points="239.79,-114.32 250.39,-114.41 242.16,-107.73 239.79,-114.32"/>
</g>
<!-- Node4 -->
<g id="node4" class="node">
<title>Node4</title>
<g id="a_node4"><a xlink:href="sinex_8cpp.html#a06fabc81a2cc41dfee260450a527ad2d" target="_top" xlink:title=" ">
<polygon fill="white" stroke="black" points="261.5,-76.5 261.5,-95.5 294.5,-95.5 294.5,-76.5 261.5,-76.5"/>
<text text-anchor="middle" x="278" y="-83.5" font-family="Helvetica,sans-Serif" font-size="10.00">trim</text>
</a>
</g>
</g>
<!-- Node2&#45;&gt;Node4 -->
<g id="edge3" class="edge">
<title>Node2&#45;&gt;Node4</title>
<path fill="none" stroke="midnightblue" d="M204.01,-86C219.16,-86 236.94,-86 251.15,-86"/>
<polygon fill="midnightblue" stroke="midnightblue" points="251.23,-89.5 261.23,-86 251.23,-82.5 251.23,-89.5"/>
</g>
</g>
</svg>
