<?xml version="1.0" encoding="UTF-8" standalone="no"?>
<!DOCTYPE svg PUBLIC "-//W3C//DTD SVG 1.1//EN"
 "http://www.w3.org/Graphics/SVG/1.1/DTD/svg11.dtd">
<!-- Generated by graphviz version 2.50.0 (20220203.2022)
 -->
<!-- Title: boost::serialization::serialize Pages: 1 -->
<svg width="752pt" height="216pt"
 viewBox="0.00 0.00 752.00 215.72" xmlns="http://www.w3.org/2000/svg" xmlns:xlink="http://www.w3.org/1999/xlink">
<g id="graph0" class="graph" transform="scale(1 1) rotate(0) translate(4 211.72)">
<title>boost::serialization::serialize</title>
<polygon fill="white" stroke="transparent" points="-4,4 -4,-211.72 748,-211.72 748,4 -4,4"/>
<!-- Node1 -->
<g id="node1" class="node">
<title>Node1</title>
<g id="a_node1"><a xlink:title=" ">
<polygon fill="#bfbfbf" stroke="black" points="648,-101.5 648,-131.5 744,-131.5 744,-101.5 648,-101.5"/>
<text text-anchor="start" x="656" y="-119.5" font-family="Helvetica,sans-Serif" font-size="10.00">boost::serialization</text>
<text text-anchor="middle" x="696" y="-108.5" font-family="Helvetica,sans-Serif" font-size="10.00">::serialize</text>
</a>
</g>
</g>
<!-- Node2 -->
<g id="node2" class="node">
<title>Node2</title>
<g id="a_node2"><a xlink:href="algebraTrace_8cpp.html#aa526df463f08398d3cb422d191c56cfb" target="_top" xlink:title="Returns the type of object that is located at the specified position in a file.">
<polygon fill="white" stroke="black" points="497.5,-88 497.5,-107 608.5,-107 608.5,-88 497.5,-88"/>
<text text-anchor="middle" x="553" y="-95" font-family="Helvetica,sans-Serif" font-size="10.00">getFilterTypeFromFile</text>
</a>
</g>
</g>
<!-- Node1&#45;&gt;Node2 -->
<g id="edge1" class="edge">
<title>Node1&#45;&gt;Node2</title>
<path fill="none" stroke="midnightblue" d="M637.51,-108.75C628.02,-107.47 618.2,-106.15 608.77,-104.88"/>
<polygon fill="midnightblue" stroke="midnightblue" points="637.28,-112.25 647.66,-110.12 638.21,-105.32 637.28,-112.25"/>
</g>
<!-- Node9 -->
<g id="node7" class="node">
<title>Node9</title>
<g id="a_node7"><a xlink:href="algebraTrace_8cpp.html#a7bc8fe7472c8d5a4db5561b722ab1087" target="_top" xlink:title=" ">
<polygon fill="white" stroke="black" points="499.5,-164 499.5,-183 606.5,-183 606.5,-164 499.5,-164"/>
<text text-anchor="middle" x="553" y="-171" font-family="Helvetica,sans-Serif" font-size="10.00">inputPersistanceNav</text>
</a>
</g>
</g>
<!-- Node1&#45;&gt;Node9 -->
<g id="edge7" class="edge">
<title>Node1&#45;&gt;Node9</title>
<path fill="none" stroke="midnightblue" d="M655.15,-135.85C641.6,-142.13 626.27,-148.92 612,-154.5 603.42,-157.86 593.97,-161.13 585.23,-163.98"/>
<polygon fill="midnightblue" stroke="midnightblue" points="656.65,-139.01 664.22,-131.6 653.68,-132.67 656.65,-139.01"/>
</g>
<!-- Node10 -->
<g id="node8" class="node">
<title>Node10</title>
<g id="a_node8"><a xlink:href="algebraTrace_8cpp.html#ab2b012374e099550a5822ce95e120eaa" target="_top" xlink:title=" ">
<polygon fill="white" stroke="black" points="494,-126 494,-145 612,-145 612,-126 494,-126"/>
<text text-anchor="middle" x="553" y="-133" font-family="Helvetica,sans-Serif" font-size="10.00">inputPersistanceStates</text>
</a>
</g>
</g>
<!-- Node1&#45;&gt;Node10 -->
<g id="edge8" class="edge">
<title>Node1&#45;&gt;Node10</title>
<path fill="none" stroke="midnightblue" d="M637.61,-124.23C629.25,-125.36 620.62,-126.52 612.24,-127.65"/>
<polygon fill="midnightblue" stroke="midnightblue" points="638.21,-127.68 647.66,-122.88 637.28,-120.75 638.21,-127.68"/>
</g>
<!-- Node11 -->
<g id="node9" class="node">
<title>Node11</title>
<g id="a_node9"><a xlink:href="algebraTrace_8cpp.html#a5343c95e70a2739bbbec00b846d255d6" target="_top" xlink:title=" ">
<polygon fill="white" stroke="black" points="345,-183 345,-202 458,-202 458,-183 345,-183"/>
<text text-anchor="middle" x="401.5" y="-190" font-family="Helvetica,sans-Serif" font-size="10.00">outputPersistanceNav</text>
</a>
</g>
</g>
<!-- Node1&#45;&gt;Node11 -->
<g id="edge9" class="edge">
<title>Node1&#45;&gt;Node11</title>
<path fill="none" stroke="midnightblue" d="M677.89,-139.65C662.85,-157.89 639.16,-181.94 612,-192.5 559.45,-212.92 493.74,-208.62 450.06,-202.04"/>
<polygon fill="midnightblue" stroke="midnightblue" points="680.69,-141.75 684.17,-131.75 675.21,-137.39 680.69,-141.75"/>
</g>
<!-- Node12 -->
<g id="node10" class="node">
<title>Node12</title>
<g id="a_node10"><a xlink:href="algebraTrace_8cpp.html#a60fa1cde6cf8b8c7da7ee8a01915cb27" target="_top" xlink:title=" ">
<polygon fill="white" stroke="black" points="185,-69 185,-88 309,-88 309,-69 185,-69"/>
<text text-anchor="middle" x="247" y="-76" font-family="Helvetica,sans-Serif" font-size="10.00">outputPersistanceStates</text>
</a>
</g>
</g>
<!-- Node1&#45;&gt;Node12 -->
<g id="edge11" class="edge">
<title>Node1&#45;&gt;Node12</title>
<path fill="none" stroke="midnightblue" d="M660.4,-96.63C645.93,-89.41 628.64,-82.13 612,-78.5 507.5,-55.72 382.07,-63.06 309.07,-70.65"/>
<polygon fill="midnightblue" stroke="midnightblue" points="658.98,-99.83 669.47,-101.33 662.2,-93.62 658.98,-99.83"/>
</g>
<!-- Node13 -->
<g id="node11" class="node">
<title>Node13</title>
<g id="a_node11"><a xlink:href="namespaceboost_1_1serialization.html#a2f4381a0755380791e24920dafe5a630" target="_top" xlink:title=" ">
<polygon fill="white" stroke="black" points="505,-0.5 505,-30.5 601,-30.5 601,-0.5 505,-0.5"/>
<text text-anchor="start" x="513" y="-18.5" font-family="Helvetica,sans-Serif" font-size="10.00">boost::serialization</text>
<text text-anchor="middle" x="553" y="-7.5" font-family="Helvetica,sans-Serif" font-size="10.00">::serialize</text>
</a>
</g>
</g>
<!-- Node1&#45;&gt;Node13 -->
<g id="edge13" class="edge">
<title>Node1&#45;&gt;Node13</title>
<path fill="none" stroke="midnightblue" d="M672.32,-94.58C656.25,-79.7 633.76,-60.15 612,-45.5 604.01,-40.12 594.93,-35 586.36,-30.57"/>
<polygon fill="midnightblue" stroke="midnightblue" points="669.97,-97.18 679.66,-101.47 674.76,-92.07 669.97,-97.18"/>
</g>
<!-- Node3 -->
<g id="node3" class="node">
<title>Node3</title>
<g id="a_node3"><a xlink:href="rtsSmoothing_8cpp.html#a1f9da32a7b5e95391d55a3242aebfb10" target="_top" xlink:title="Output filter states from a reversed binary trace file.">
<polygon fill="white" stroke="black" points="366,-88 366,-107 437,-107 437,-88 366,-88"/>
<text text-anchor="middle" x="401.5" y="-95" font-family="Helvetica,sans-Serif" font-size="10.00">RTS_Output</text>
</a>
</g>
</g>
<!-- Node2&#45;&gt;Node3 -->
<g id="edge2" class="edge">
<title>Node2&#45;&gt;Node3</title>
<path fill="none" stroke="midnightblue" d="M486.72,-97.5C469.73,-97.5 452.07,-97.5 437.34,-97.5"/>
<polygon fill="midnightblue" stroke="midnightblue" points="487.18,-101 497.18,-97.5 487.18,-94 487.18,-101"/>
</g>
<!-- Node4 -->
<g id="node4" class="node">
<title>Node4</title>
<g id="a_node4"><a xlink:href="rtsSmoothing_8cpp.html#af4dbc710ae8e25cf67351637c708800d" target="_top" xlink:title=" ">
<polygon fill="white" stroke="red" points="208.5,-116 208.5,-135 285.5,-135 285.5,-116 208.5,-116"/>
<text text-anchor="middle" x="247" y="-123" font-family="Helvetica,sans-Serif" font-size="10.00">RTS_Process</text>
</a>
</g>
</g>
<!-- Node2&#45;&gt;Node4 -->
<g id="edge6" class="edge">
<title>Node2&#45;&gt;Node4</title>
<path fill="none" stroke="midnightblue" d="M501.94,-109.13C487.81,-112 472.36,-114.75 458,-116.5 398.05,-123.8 327.84,-125.42 285.7,-125.66"/>
<polygon fill="midnightblue" stroke="midnightblue" points="502.9,-112.5 511.97,-107.03 501.47,-105.65 502.9,-112.5"/>
</g>
<!-- Node3&#45;&gt;Node4 -->
<g id="edge3" class="edge">
<title>Node3&#45;&gt;Node4</title>
<path fill="none" stroke="midnightblue" d="M355.99,-105.67C333.68,-109.77 306.95,-114.68 285.67,-118.58"/>
<polygon fill="midnightblue" stroke="midnightblue" points="356.69,-109.1 365.9,-103.85 355.43,-102.22 356.69,-109.1"/>
</g>
<!-- Node7 -->
<g id="node5" class="node">
<title>Node7</title>
<g id="a_node5"><a xlink:href="main_8cpp.html#a052aae1f895ebdbdaf816f70d9287e78" target="_top" xlink:title=" ">
<polygon fill="white" stroke="red" points="0,-131.5 0,-161.5 149,-161.5 149,-131.5 0,-131.5"/>
<text text-anchor="start" x="8" y="-149.5" font-family="Helvetica,sans-Serif" font-size="10.00">mainPerEpochPostProcessing</text>
<text text-anchor="middle" x="74.5" y="-138.5" font-family="Helvetica,sans-Serif" font-size="10.00">AndOutputs</text>
</a>
</g>
</g>
<!-- Node4&#45;&gt;Node7 -->
<g id="edge4" class="edge">
<title>Node4&#45;&gt;Node7</title>
<path fill="none" stroke="midnightblue" d="M198.02,-131.41C182.87,-133.28 165.77,-135.38 149.26,-137.42"/>
<polygon fill="midnightblue" stroke="midnightblue" points="198.66,-134.86 208.16,-130.16 197.81,-127.91 198.66,-134.86"/>
</g>
<!-- Node8 -->
<g id="node6" class="node">
<title>Node8</title>
<g id="a_node6"><a xlink:href="main_8cpp.html#a93c49123b4afe8e199430439fd682acd" target="_top" xlink:title=" ">
<polygon fill="white" stroke="black" points="21,-85 21,-104 128,-104 128,-85 21,-85"/>
<text text-anchor="middle" x="74.5" y="-92" font-family="Helvetica,sans-Serif" font-size="10.00">mainPostProcessing</text>
</a>
</g>
</g>
<!-- Node4&#45;&gt;Node8 -->
<g id="edge5" class="edge">
<title>Node4&#45;&gt;Node8</title>
<path fill="none" stroke="midnightblue" d="M198.09,-116.79C176.19,-112.81 150.19,-108.08 127.78,-104.01"/>
<polygon fill="midnightblue" stroke="midnightblue" points="197.7,-120.27 208.16,-118.62 198.95,-113.39 197.7,-120.27"/>
</g>
<!-- Node11&#45;&gt;Node7 -->
<g id="edge10" class="edge">
<title>Node11&#45;&gt;Node7</title>
<path fill="none" stroke="midnightblue" d="M334.89,-183.21C281.08,-175.6 204.94,-164.82 149.07,-156.91"/>
<polygon fill="midnightblue" stroke="midnightblue" points="334.61,-186.71 345,-184.64 335.59,-179.78 334.61,-186.71"/>
</g>
<!-- Node12&#45;&gt;Node8 -->
<g id="edge12" class="edge">
<title>Node12&#45;&gt;Node8</title>
<path fill="none" stroke="midnightblue" d="M174.8,-85.18C159.2,-86.65 142.97,-88.17 128.25,-89.55"/>
<polygon fill="midnightblue" stroke="midnightblue" points="175.3,-88.65 184.93,-84.23 174.64,-81.68 175.3,-88.65"/>
</g>
</g>
</svg>
