<?xml version="1.0" encoding="UTF-8" standalone="no"?>
<!DOCTYPE svg PUBLIC "-//W3C//DTD SVG 1.1//EN"
 "http://www.w3.org/Graphics/SVG/1.1/DTD/svg11.dtd">
<!-- Generated by graphviz version 2.50.0 (20220203.2022)
 -->
<!-- Title: f90getopt::process_long Pages: 1 -->
<svg width="362pt" height="104pt"
 viewBox="0.00 0.00 362.00 104.00" xmlns="http://www.w3.org/2000/svg" xmlns:xlink="http://www.w3.org/1999/xlink">
<g id="graph0" class="graph" transform="scale(1 1) rotate(0) translate(4 100)">
<title>f90getopt::process_long</title>
<polygon fill="white" stroke="transparent" points="-4,4 -4,-100 358,-100 358,4 -4,4"/>
<!-- Node1 -->
<g id="node1" class="node">
<title>Node1</title>
<g id="a_node1"><a xlink:title=" ">
<polygon fill="#bfbfbf" stroke="black" points="235,-38.5 235,-57.5 354,-57.5 354,-38.5 235,-38.5"/>
<text text-anchor="middle" x="294.5" y="-45.5" font-family="Helvetica,sans-Serif" font-size="10.00">f90getopt::process_long</text>
</a>
</g>
</g>
<!-- Node1&#45;&gt;Node1 -->
<g id="edge6" class="edge">
<title>Node1&#45;&gt;Node1</title>
<path fill="none" stroke="midnightblue" d="M320.54,-67.03C319.12,-72.13 310.44,-76 294.5,-76 269.62,-76 262.42,-66.57 272.92,-57.76"/>
<polygon fill="midnightblue" stroke="midnightblue" points="323.57,-65.25 316.08,-57.76 317.26,-68.29 323.57,-65.25"/>
</g>
<!-- Node2 -->
<g id="node2" class="node">
<title>Node2</title>
<g id="a_node2"><a xlink:href="namespacef90getopt.html#a2c03e2bbb786bfc0f6a825be6a5f3857" target="_top" xlink:title=" ">
<polygon fill="white" stroke="black" points="110,-38.5 110,-57.5 199,-57.5 199,-38.5 110,-38.5"/>
<text text-anchor="middle" x="154.5" y="-45.5" font-family="Helvetica,sans-Serif" font-size="10.00">f90getopt::getopt</text>
</a>
</g>
</g>
<!-- Node1&#45;&gt;Node2 -->
<g id="edge1" class="edge">
<title>Node1&#45;&gt;Node2</title>
<path fill="none" stroke="midnightblue" d="M224.74,-48C215.99,-48 207.24,-48 199.04,-48"/>
<polygon fill="midnightblue" stroke="midnightblue" points="224.98,-51.5 234.98,-48 224.98,-44.5 224.98,-51.5"/>
</g>
<!-- Node2&#45;&gt;Node2 -->
<g id="edge3" class="edge">
<title>Node2&#45;&gt;Node2</title>
<path fill="none" stroke="midnightblue" d="M175.98,-67.4C174.55,-72.31 167.39,-76 154.5,-76 133.88,-76 127.92,-66.57 136.62,-57.76"/>
<polygon fill="midnightblue" stroke="midnightblue" points="179.16,-65.9 172.38,-57.76 172.6,-68.35 179.16,-65.9"/>
</g>
<!-- Node3 -->
<g id="node3" class="node">
<title>Node3</title>
<g id="a_node3"><a xlink:href="brdc__cmdline_8f95.html#a55c2e7b5d95ebb997e20ba341ef2c625" target="_top" xlink:title=" ">
<polygon fill="white" stroke="red" points="0,-76.5 0,-95.5 74,-95.5 74,-76.5 0,-76.5"/>
<text text-anchor="middle" x="37" y="-83.5" font-family="Helvetica,sans-Serif" font-size="10.00">brdc_cmdline</text>
</a>
</g>
</g>
<!-- Node2&#45;&gt;Node3 -->
<g id="edge2" class="edge">
<title>Node2&#45;&gt;Node3</title>
<path fill="none" stroke="midnightblue" d="M114.52,-60.83C99.02,-65.92 81.5,-71.69 67.14,-76.41"/>
<polygon fill="midnightblue" stroke="midnightblue" points="115.95,-64.04 124.35,-57.59 113.76,-57.39 115.95,-64.04"/>
</g>
<!-- Node5 -->
<g id="node4" class="node">
<title>Node5</title>
<g id="a_node4"><a xlink:href="read__cmdline_8f95.html#ad82b452653d93389d0d35275a97de0ea" target="_top" xlink:title=" ">
<polygon fill="white" stroke="black" points="0,-38.5 0,-57.5 74,-57.5 74,-38.5 0,-38.5"/>
<text text-anchor="middle" x="37" y="-45.5" font-family="Helvetica,sans-Serif" font-size="10.00">read_cmdline</text>
</a>
</g>
</g>
<!-- Node2&#45;&gt;Node5 -->
<g id="edge4" class="edge">
<title>Node2&#45;&gt;Node5</title>
<path fill="none" stroke="midnightblue" d="M99.77,-48C91.1,-48 82.32,-48 74.2,-48"/>
<polygon fill="midnightblue" stroke="midnightblue" points="99.83,-51.5 109.83,-48 99.83,-44.5 99.83,-51.5"/>
</g>
<!-- Node6 -->
<g id="node5" class="node">
<title>Node6</title>
<g id="a_node5"><a xlink:href="time__cmdline_8f95.html#a776eca576954d11ec26f51e75ad29301" target="_top" xlink:title=" ">
<polygon fill="white" stroke="red" points="0,-0.5 0,-19.5 74,-19.5 74,-0.5 0,-0.5"/>
<text text-anchor="middle" x="37" y="-7.5" font-family="Helvetica,sans-Serif" font-size="10.00">time_cmdline</text>
</a>
</g>
</g>
<!-- Node2&#45;&gt;Node6 -->
<g id="edge5" class="edge">
<title>Node2&#45;&gt;Node6</title>
<path fill="none" stroke="midnightblue" d="M114.52,-35.17C99.02,-30.08 81.5,-24.31 67.14,-19.59"/>
<polygon fill="midnightblue" stroke="midnightblue" points="113.76,-38.61 124.35,-38.41 115.95,-31.96 113.76,-38.61"/>
</g>
</g>
</svg>
