<?xml version="1.0" encoding="UTF-8" standalone="no"?>
<!DOCTYPE svg PUBLIC "-//W3C//DTD SVG 1.1//EN"
 "http://www.w3.org/Graphics/SVG/1.1/DTD/svg11.dtd">
<!-- Generated by graphviz version 2.50.0 (20220203.2022)
 -->
<!-- Title: m_integreqm::integr_eqm Pages: 1 -->
<svg width="342pt" height="104pt"
 viewBox="0.00 0.00 342.00 104.00" xmlns="http://www.w3.org/2000/svg" xmlns:xlink="http://www.w3.org/1999/xlink">
<g id="graph0" class="graph" transform="scale(1 1) rotate(0) translate(4 100)">
<title>m_integreqm::integr_eqm</title>
<polygon fill="white" stroke="transparent" points="-4,4 -4,-100 338,-100 338,4 -4,4"/>
<!-- Node1 -->
<g id="node1" class="node">
<title>Node1</title>
<g id="a_node1"><a xlink:title=" ">
<polygon fill="#bfbfbf" stroke="black" points="0,-38.5 0,-57.5 125,-57.5 125,-38.5 0,-38.5"/>
<text text-anchor="middle" x="62.5" y="-45.5" font-family="Helvetica,sans-Serif" font-size="10.00">m_integreqm::integr_eqm</text>
</a>
</g>
</g>
<!-- Node2 -->
<g id="node2" class="node">
<title>Node2</title>
<g id="a_node2"><a xlink:href="integr__rk4_8f95.html#a9dda6722652d81539eb1d5c9cfe8e9e9" target="_top" xlink:title=" ">
<polygon fill="white" stroke="black" points="169,-76.5 169,-95.5 228,-95.5 228,-76.5 169,-76.5"/>
<text text-anchor="middle" x="198.5" y="-83.5" font-family="Helvetica,sans-Serif" font-size="10.00">integr_rk4</text>
</a>
</g>
</g>
<!-- Node1&#45;&gt;Node2 -->
<g id="edge1" class="edge">
<title>Node1&#45;&gt;Node2</title>
<path fill="none" stroke="midnightblue" d="M97.31,-57.59C116.06,-62.91 139.45,-69.54 158.92,-75.06"/>
<polygon fill="midnightblue" stroke="midnightblue" points="158.12,-78.47 168.69,-77.83 160.03,-71.74 158.12,-78.47"/>
</g>
<!-- Node137 -->
<g id="node4" class="node">
<title>Node137</title>
<g id="a_node4"><a xlink:href="integr__rk87_8f95.html#a2a9a86b5021347d1c51f6b40066fbb40" target="_top" xlink:title=" ">
<polygon fill="white" stroke="black" points="166,-38.5 166,-57.5 231,-57.5 231,-38.5 166,-38.5"/>
<text text-anchor="middle" x="198.5" y="-45.5" font-family="Helvetica,sans-Serif" font-size="10.00">integr_rk87</text>
</a>
</g>
</g>
<!-- Node1&#45;&gt;Node137 -->
<g id="edge3" class="edge">
<title>Node1&#45;&gt;Node137</title>
<path fill="none" stroke="midnightblue" d="M125.01,-48C135.42,-48 146,-48 155.75,-48"/>
<polygon fill="midnightblue" stroke="midnightblue" points="155.96,-51.5 165.96,-48 155.96,-44.5 155.96,-51.5"/>
</g>
<!-- Node138 -->
<g id="node5" class="node">
<title>Node138</title>
<g id="a_node5"><a xlink:href="integr__rkn768_8f95.html#ace93d66297205f5b3bf470f6fb55a277" target="_top" xlink:title=" ">
<polygon fill="white" stroke="black" points="161,-0.5 161,-19.5 236,-19.5 236,-0.5 161,-0.5"/>
<text text-anchor="middle" x="198.5" y="-7.5" font-family="Helvetica,sans-Serif" font-size="10.00">integr_rkn768</text>
</a>
</g>
</g>
<!-- Node1&#45;&gt;Node138 -->
<g id="edge5" class="edge">
<title>Node1&#45;&gt;Node138</title>
<path fill="none" stroke="midnightblue" d="M97.31,-38.41C114.53,-33.53 135.66,-27.54 154.07,-22.32"/>
<polygon fill="midnightblue" stroke="midnightblue" points="155.03,-25.68 163.7,-19.59 153.12,-18.95 155.03,-25.68"/>
</g>
<!-- Node3 -->
<g id="node3" class="node">
<title>Node3</title>
<g id="a_node3"><a xlink:href="force__sum_8f95.html#a757e2ccbe362bf3b01a51e2c0431a490" target="_top" xlink:title=" ">
<polygon fill="white" stroke="red" points="272,-38.5 272,-57.5 334,-57.5 334,-38.5 272,-38.5"/>
<text text-anchor="middle" x="303" y="-45.5" font-family="Helvetica,sans-Serif" font-size="10.00">force_sum</text>
</a>
</g>
</g>
<!-- Node2&#45;&gt;Node3 -->
<g id="edge2" class="edge">
<title>Node2&#45;&gt;Node3</title>
<path fill="none" stroke="midnightblue" d="M225.37,-76.41C237.87,-71.78 253.07,-66.14 266.62,-61.11"/>
<polygon fill="midnightblue" stroke="midnightblue" points="267.98,-64.34 276.14,-57.59 265.55,-57.78 267.98,-64.34"/>
</g>
<!-- Node137&#45;&gt;Node3 -->
<g id="edge4" class="edge">
<title>Node137&#45;&gt;Node3</title>
<path fill="none" stroke="midnightblue" d="M231.09,-48C240.69,-48 251.38,-48 261.49,-48"/>
<polygon fill="midnightblue" stroke="midnightblue" points="261.74,-51.5 271.74,-48 261.74,-44.5 261.74,-51.5"/>
</g>
<!-- Node138&#45;&gt;Node3 -->
<g id="edge6" class="edge">
<title>Node138&#45;&gt;Node3</title>
<path fill="none" stroke="midnightblue" d="M225.37,-19.59C237.87,-24.22 253.07,-29.86 266.62,-34.89"/>
<polygon fill="midnightblue" stroke="midnightblue" points="265.55,-38.22 276.14,-38.41 267.98,-31.66 265.55,-38.22"/>
</g>
</g>
</svg>
