<?xml version="1.0" encoding="UTF-8" standalone="no"?>
<!DOCTYPE svg PUBLIC "-//W3C//DTD SVG 1.1//EN"
 "http://www.w3.org/Graphics/SVG/1.1/DTD/svg11.dtd">
<!-- Generated by graphviz version 2.50.0 (20220203.2022)
 -->
<!-- Title: pod_yaml::get_input_refsys Pages: 1 -->
<svg width="342pt" height="57pt"
 viewBox="0.00 0.00 342.00 57.00" xmlns="http://www.w3.org/2000/svg" xmlns:xlink="http://www.w3.org/1999/xlink">
<g id="graph0" class="graph" transform="scale(1 1) rotate(0) translate(4 53)">
<title>pod_yaml::get_input_refsys</title>
<polygon fill="white" stroke="transparent" points="-4,4 -4,-53 338,-53 338,4 -4,4"/>
<!-- Node1 -->
<g id="node1" class="node">
<title>Node1</title>
<g id="a_node1"><a xlink:title=" ">
<polygon fill="#bfbfbf" stroke="black" points="232,-0.5 232,-30.5 334,-30.5 334,-0.5 232,-0.5"/>
<text text-anchor="start" x="240" y="-18.5" font-family="Helvetica,sans-Serif" font-size="10.00">pod_yaml::get_input</text>
<text text-anchor="middle" x="283" y="-7.5" font-family="Helvetica,sans-Serif" font-size="10.00">_refsys</text>
</a>
</g>
</g>
<!-- Node1&#45;&gt;Node1 -->
<g id="edge1" class="edge">
<title>Node1&#45;&gt;Node1</title>
<path fill="none" stroke="midnightblue" d="M307.17,-40.96C304.17,-45.68 296.11,-49 283,-49 261.48,-49 253.58,-40.06 259.3,-30.66"/>
<polygon fill="midnightblue" stroke="midnightblue" points="310.65,-40.49 306.7,-30.66 303.66,-40.81 310.65,-40.49"/>
</g>
<!-- Node2 -->
<g id="node2" class="node">
<title>Node2</title>
<g id="a_node2"><a xlink:href="namespacepod__yaml.html#aca21c2bb86797b2b46c5d509e3593198" target="_top" xlink:title=" ">
<polygon fill="white" stroke="black" points="95,-6 95,-25 196,-25 196,-6 95,-6"/>
<text text-anchor="middle" x="145.5" y="-13" font-family="Helvetica,sans-Serif" font-size="10.00">pod_yaml::get_yaml</text>
</a>
</g>
</g>
<!-- Node1&#45;&gt;Node2 -->
<g id="edge2" class="edge">
<title>Node1&#45;&gt;Node2</title>
<path fill="none" stroke="midnightblue" d="M221.71,-15.5C213.24,-15.5 204.61,-15.5 196.36,-15.5"/>
<polygon fill="midnightblue" stroke="midnightblue" points="221.93,-19 231.93,-15.5 221.93,-12 221.93,-19"/>
</g>
<!-- Node3 -->
<g id="node3" class="node">
<title>Node3</title>
<g id="a_node3"><a xlink:href="test__yaml_8F90.html#a6888e150b7fd2e019bcfccff79c24da2" target="_top" xlink:title=" ">
<polygon fill="white" stroke="black" points="0,-6 0,-25 59,-25 59,-6 0,-6"/>
<text text-anchor="middle" x="29.5" y="-13" font-family="Helvetica,sans-Serif" font-size="10.00">test_yaml</text>
</a>
</g>
</g>
<!-- Node2&#45;&gt;Node3 -->
<g id="edge3" class="edge">
<title>Node2&#45;&gt;Node3</title>
<path fill="none" stroke="midnightblue" d="M84.73,-15.5C75.78,-15.5 66.92,-15.5 59.04,-15.5"/>
<polygon fill="midnightblue" stroke="midnightblue" points="84.83,-19 94.83,-15.5 84.83,-12 84.83,-19"/>
</g>
</g>
</svg>
