<?xml version="1.0" encoding="UTF-8" standalone="no"?>
<!DOCTYPE svg PUBLIC "-//W3C//DTD SVG 1.1//EN"
 "http://www.w3.org/Graphics/SVG/1.1/DTD/svg11.dtd">
<!-- Generated by graphviz version 2.50.0 (20220203.2022)
 -->
<!-- Title: f90getopt::substr Pages: 1 -->
<svg width="354pt" height="57pt"
 viewBox="0.00 0.00 354.00 57.00" xmlns="http://www.w3.org/2000/svg" xmlns:xlink="http://www.w3.org/1999/xlink">
<g id="graph0" class="graph" transform="scale(1 1) rotate(0) translate(4 53)">
<title>f90getopt::substr</title>
<polygon fill="white" stroke="transparent" points="-4,4 -4,-53 350,-53 350,4 -4,4"/>
<!-- Node1 -->
<g id="node1" class="node">
<title>Node1</title>
<g id="a_node1"><a xlink:title=" ">
<polygon fill="#bfbfbf" stroke="black" points="257,-6 257,-25 346,-25 346,-6 257,-6"/>
<text text-anchor="middle" x="301.5" y="-13" font-family="Helvetica,sans-Serif" font-size="10.00">f90getopt::substr</text>
</a>
</g>
</g>
<!-- Node1&#45;&gt;Node1 -->
<g id="edge5" class="edge">
<title>Node1&#45;&gt;Node1</title>
<path fill="none" stroke="midnightblue" d="M325.31,-34.53C324.01,-39.63 316.07,-43.5 301.5,-43.5 278.75,-43.5 272.17,-34.07 281.77,-25.26"/>
<polygon fill="midnightblue" stroke="midnightblue" points="328.46,-33 321.23,-25.26 322.05,-35.82 328.46,-33"/>
</g>
<!-- Node2 -->
<g id="node2" class="node">
<title>Node2</title>
<g id="a_node2"><a xlink:href="namespacef90getopt.html#a934ac578da100fc190fa88c9199e9517" target="_top" xlink:title=" ">
<polygon fill="white" stroke="black" points="125,-0.5 125,-30.5 221,-30.5 221,-0.5 125,-0.5"/>
<text text-anchor="start" x="133" y="-18.5" font-family="Helvetica,sans-Serif" font-size="10.00">f90getopt::process</text>
<text text-anchor="middle" x="173" y="-7.5" font-family="Helvetica,sans-Serif" font-size="10.00">_short</text>
</a>
</g>
</g>
<!-- Node1&#45;&gt;Node2 -->
<g id="edge1" class="edge">
<title>Node1&#45;&gt;Node2</title>
<path fill="none" stroke="midnightblue" d="M246.72,-15.5C238.2,-15.5 229.43,-15.5 221.07,-15.5"/>
<polygon fill="midnightblue" stroke="midnightblue" points="246.97,-19 256.97,-15.5 246.97,-12 246.97,-19"/>
</g>
<!-- Node2&#45;&gt;Node2 -->
<g id="edge4" class="edge">
<title>Node2&#45;&gt;Node2</title>
<path fill="none" stroke="midnightblue" d="M195.74,-40.96C192.92,-45.68 185.34,-49 173,-49 152.75,-49 145.31,-40.06 150.69,-30.66"/>
<polygon fill="midnightblue" stroke="midnightblue" points="199.23,-40.5 195.31,-30.66 192.23,-40.8 199.23,-40.5"/>
</g>
<!-- Node3 -->
<g id="node3" class="node">
<title>Node3</title>
<g id="a_node3"><a xlink:href="namespacef90getopt.html#a2c03e2bbb786bfc0f6a825be6a5f3857" target="_top" xlink:title=" ">
<polygon fill="white" stroke="red" points="0,-6 0,-25 89,-25 89,-6 0,-6"/>
<text text-anchor="middle" x="44.5" y="-13" font-family="Helvetica,sans-Serif" font-size="10.00">f90getopt::getopt</text>
</a>
</g>
</g>
<!-- Node2&#45;&gt;Node3 -->
<g id="edge2" class="edge">
<title>Node2&#45;&gt;Node3</title>
<path fill="none" stroke="midnightblue" d="M114.63,-15.5C106.12,-15.5 97.47,-15.5 89.29,-15.5"/>
<polygon fill="midnightblue" stroke="midnightblue" points="114.9,-19 124.9,-15.5 114.9,-12 114.9,-19"/>
</g>
<!-- Node3&#45;&gt;Node3 -->
<g id="edge3" class="edge">
<title>Node3&#45;&gt;Node3</title>
<path fill="none" stroke="midnightblue" d="M68.31,-34.53C67.01,-39.63 59.07,-43.5 44.5,-43.5 21.75,-43.5 15.17,-34.07 24.77,-25.26"/>
<polygon fill="midnightblue" stroke="midnightblue" points="71.46,-33 64.23,-25.26 65.05,-35.82 71.46,-33"/>
</g>
</g>
</svg>
