<?xml version="1.0" encoding="UTF-8" standalone="no"?>
<!DOCTYPE svg PUBLIC "-//W3C//DTD SVG 1.1//EN"
 "http://www.w3.org/Graphics/SVG/1.1/DTD/svg11.dtd">
<!-- Generated by graphviz version 2.50.0 (20220203.2022)
 -->
<!-- Title: m_eop_data::eop_data Pages: 1 -->
<svg width="395pt" height="80pt"
 viewBox="0.00 0.00 395.00 79.88" xmlns="http://www.w3.org/2000/svg" xmlns:xlink="http://www.w3.org/1999/xlink">
<g id="graph0" class="graph" transform="scale(1 1) rotate(0) translate(4 75.88)">
<title>m_eop_data::eop_data</title>
<polygon fill="white" stroke="transparent" points="-4,4 -4,-75.88 391,-75.88 391,4 -4,4"/>
<!-- Node1 -->
<g id="node1" class="node">
<title>Node1</title>
<g id="a_node1"><a xlink:title=" ">
<polygon fill="#bfbfbf" stroke="black" points="0,-19.5 0,-38.5 114,-38.5 114,-19.5 0,-19.5"/>
<text text-anchor="middle" x="57" y="-26.5" font-family="Helvetica,sans-Serif" font-size="10.00">m_eop_data::eop_data</text>
</a>
</g>
</g>
<!-- Node2 -->
<g id="node2" class="node">
<title>Node2</title>
<g id="a_node2"><a xlink:href="eop__rd_8f90.html#a1baa1d841357dc20b9a5fd6f9de799b6" target="_top" xlink:title=" ">
<polygon fill="white" stroke="black" points="150.5,-38.5 150.5,-57.5 196.5,-57.5 196.5,-38.5 150.5,-38.5"/>
<text text-anchor="middle" x="173.5" y="-45.5" font-family="Helvetica,sans-Serif" font-size="10.00">eop_rd</text>
</a>
</g>
</g>
<!-- Node1&#45;&gt;Node2 -->
<g id="edge1" class="edge">
<title>Node1&#45;&gt;Node2</title>
<path fill="none" stroke="midnightblue" d="M114.24,-38.33C123.13,-39.81 132.05,-41.29 140.15,-42.63"/>
<polygon fill="midnightblue" stroke="midnightblue" points="139.8,-46.12 150.24,-44.31 140.95,-39.22 139.8,-46.12"/>
</g>
<!-- Node26 -->
<g id="node6" class="node">
<title>Node26</title>
<g id="a_node6"><a xlink:href="time__TT_8f90.html#aac4be73ca07f0d71843391b034a7d20e" target="_top" xlink:title=" ">
<polygon fill="white" stroke="red" points="150,-0.5 150,-19.5 197,-19.5 197,-0.5 150,-0.5"/>
<text text-anchor="middle" x="173.5" y="-7.5" font-family="Helvetica,sans-Serif" font-size="10.00">time_tt</text>
</a>
</g>
</g>
<!-- Node1&#45;&gt;Node26 -->
<g id="edge7" class="edge">
<title>Node1&#45;&gt;Node26</title>
<path fill="none" stroke="midnightblue" d="M114.24,-19.67C123.05,-18.21 131.89,-16.74 139.93,-15.4"/>
<polygon fill="midnightblue" stroke="midnightblue" points="140.67,-18.83 149.96,-13.74 139.53,-11.92 140.67,-18.83"/>
</g>
<!-- Node3 -->
<g id="node3" class="node">
<title>Node3</title>
<g id="a_node3"><a xlink:href="EOP_8f90.html#ae7a3de1bf2c72753f2eeb8e05d63f962" target="_top" xlink:title=" ">
<polygon fill="white" stroke="red" points="355,-38.5 355,-57.5 387,-57.5 387,-38.5 355,-38.5"/>
<text text-anchor="middle" x="371" y="-45.5" font-family="Helvetica,sans-Serif" font-size="10.00">eop</text>
</a>
</g>
</g>
<!-- Node2&#45;&gt;Node3 -->
<g id="edge2" class="edge">
<title>Node2&#45;&gt;Node3</title>
<path fill="none" stroke="midnightblue" d="M196.6,-56.99C207.38,-60.91 220.66,-65.05 233,-67 270.75,-72.98 281.38,-73.78 319,-67 327.86,-65.4 337.19,-62.36 345.41,-59.18"/>
<polygon fill="midnightblue" stroke="midnightblue" points="346.88,-62.36 354.78,-55.3 344.2,-55.89 346.88,-62.36"/>
</g>
<!-- Node39 -->
<g id="node4" class="node">
<title>Node39</title>
<g id="a_node4"><a xlink:href="eop__c04_8f90.html#a34bd76d884570241edddcff0887b7918" target="_top" xlink:title=" ">
<polygon fill="white" stroke="red" points="249.5,-38.5 249.5,-57.5 302.5,-57.5 302.5,-38.5 249.5,-38.5"/>
<text text-anchor="middle" x="276" y="-45.5" font-family="Helvetica,sans-Serif" font-size="10.00">eop_c04</text>
</a>
</g>
</g>
<!-- Node2&#45;&gt;Node39 -->
<g id="edge3" class="edge">
<title>Node2&#45;&gt;Node39</title>
<path fill="none" stroke="midnightblue" d="M196.8,-48C209.15,-48 224.81,-48 238.86,-48"/>
<polygon fill="midnightblue" stroke="midnightblue" points="239.21,-51.5 249.21,-48 239.21,-44.5 239.21,-51.5"/>
</g>
<!-- Node40 -->
<g id="node5" class="node">
<title>Node40</title>
<g id="a_node5"><a xlink:href="eop__finals2000A_8f90.html#a091868f9644b2756bb9453a98b5045b2" target="_top" xlink:title=" ">
<polygon fill="white" stroke="red" points="233,-0.5 233,-19.5 319,-19.5 319,-0.5 233,-0.5"/>
<text text-anchor="middle" x="276" y="-7.5" font-family="Helvetica,sans-Serif" font-size="10.00">eop_finals2000a</text>
</a>
</g>
</g>
<!-- Node2&#45;&gt;Node40 -->
<g id="edge5" class="edge">
<title>Node2&#45;&gt;Node40</title>
<path fill="none" stroke="midnightblue" d="M196.8,-39.57C209.49,-34.77 225.66,-28.66 240,-23.23"/>
<polygon fill="midnightblue" stroke="midnightblue" points="241.45,-26.43 249.57,-19.62 238.98,-19.88 241.45,-26.43"/>
</g>
<!-- Node39&#45;&gt;Node3 -->
<g id="edge4" class="edge">
<title>Node39&#45;&gt;Node3</title>
<path fill="none" stroke="midnightblue" d="M302.91,-48C316.01,-48 331.84,-48 344.84,-48"/>
<polygon fill="midnightblue" stroke="midnightblue" points="344.96,-51.5 354.96,-48 344.96,-44.5 344.96,-51.5"/>
</g>
<!-- Node40&#45;&gt;Node3 -->
<g id="edge6" class="edge">
<title>Node40&#45;&gt;Node3</title>
<path fill="none" stroke="midnightblue" d="M300.47,-19.59C314.24,-25.22 331.61,-32.31 345.55,-38.01"/>
<polygon fill="midnightblue" stroke="midnightblue" points="344.41,-41.32 354.99,-41.87 347.05,-34.84 344.41,-41.32"/>
</g>
</g>
</svg>
