<?xml version="1.0" encoding="UTF-8" standalone="no"?>
<!DOCTYPE svg PUBLIC "-//W3C//DTD SVG 1.1//EN"
 "http://www.w3.org/Graphics/SVG/1.1/DTD/svg11.dtd">
<!-- Generated by graphviz version 2.50.0 (20220203.2022)
 -->
<!-- Title: m_pd_geopotential::pd_geopotential Pages: 1 -->
<svg width="583pt" height="218pt"
 viewBox="0.00 0.00 583.00 218.00" xmlns="http://www.w3.org/2000/svg" xmlns:xlink="http://www.w3.org/1999/xlink">
<g id="graph0" class="graph" transform="scale(1 1) rotate(0) translate(4 214)">
<title>m_pd_geopotential::pd_geopotential</title>
<polygon fill="white" stroke="transparent" points="-4,4 -4,-214 579,-214 579,4 -4,4"/>
<!-- Node1 -->
<g id="node1" class="node">
<title>Node1</title>
<g id="a_node1"><a xlink:title=" ">
<polygon fill="#bfbfbf" stroke="black" points="0,-90 0,-120 103,-120 103,-90 0,-90"/>
<text text-anchor="start" x="8" y="-108" font-family="Helvetica,sans-Serif" font-size="10.00">m_pd_geopotential::</text>
<text text-anchor="middle" x="51.5" y="-97" font-family="Helvetica,sans-Serif" font-size="10.00">pd_geopotential</text>
</a>
</g>
</g>
<!-- Node2 -->
<g id="node2" class="node">
<title>Node2</title>
<g id="a_node2"><a xlink:href="coord__r2sph_8f90.html#a434fdfd324d259f287bff1473e7d95b1" target="_top" xlink:title=" ">
<polygon fill="white" stroke="black" points="163.5,-190.5 163.5,-209.5 233.5,-209.5 233.5,-190.5 163.5,-190.5"/>
<text text-anchor="middle" x="198.5" y="-197.5" font-family="Helvetica,sans-Serif" font-size="10.00">coord_r2sph</text>
</a>
</g>
</g>
<!-- Node1&#45;&gt;Node2 -->
<g id="edge1" class="edge">
<title>Node1&#45;&gt;Node2</title>
<path fill="none" stroke="midnightblue" d="M67.99,-120.16C84.52,-135.72 111.98,-159.86 139,-176 145.48,-179.87 152.7,-183.39 159.79,-186.47"/>
<polygon fill="midnightblue" stroke="midnightblue" points="158.73,-189.82 169.31,-190.4 161.39,-183.35 158.73,-189.82"/>
</g>
<!-- Node4 -->
<g id="node4" class="node">
<title>Node4</title>
<g id="a_node4"><a xlink:href="namespacem__legendre.html#acbaf8dfd40c737b932c6bee8ba79b61a" target="_top" xlink:title=" ">
<polygon fill="white" stroke="black" points="467,-114.5 467,-133.5 575,-133.5 575,-114.5 467,-114.5"/>
<text text-anchor="middle" x="521" y="-121.5" font-family="Helvetica,sans-Serif" font-size="10.00">m_legendre::legendre</text>
</a>
</g>
</g>
<!-- Node1&#45;&gt;Node4 -->
<g id="edge3" class="edge">
<title>Node1&#45;&gt;Node4</title>
<path fill="none" stroke="midnightblue" d="M79.19,-120.17C95.81,-128.74 117.97,-138.58 139,-143 253.06,-166.95 390.34,-149 465.02,-135.43"/>
<polygon fill="midnightblue" stroke="midnightblue" points="465.94,-138.82 475.13,-133.55 464.66,-131.94 465.94,-138.82"/>
</g>
<!-- Node5 -->
<g id="node5" class="node">
<title>Node5</title>
<g id="a_node5"><a xlink:href="namespacem__legendre2.html#a535753aa124aa3b66eabdd5d17690634" target="_top" xlink:title=" ">
<polygon fill="white" stroke="black" points="139,-114.5 139,-133.5 258,-133.5 258,-114.5 139,-114.5"/>
<text text-anchor="middle" x="198.5" y="-121.5" font-family="Helvetica,sans-Serif" font-size="10.00">m_legendre2::legendre2</text>
</a>
</g>
</g>
<!-- Node1&#45;&gt;Node5 -->
<g id="edge4" class="edge">
<title>Node1&#45;&gt;Node5</title>
<path fill="none" stroke="midnightblue" d="M103.21,-111.65C111.49,-112.73 120.18,-113.87 128.81,-115"/>
<polygon fill="midnightblue" stroke="midnightblue" points="128.5,-118.49 138.87,-116.32 129.41,-111.55 128.5,-118.49"/>
</g>
<!-- Node6 -->
<g id="node6" class="node">
<title>Node6</title>
<g id="a_node6"><a xlink:href="namespacem__legendre1.html#a73dd0249119b581df23d53853881cdad" target="_top" xlink:title=" ">
<polygon fill="white" stroke="black" points="294,-76.5 294,-95.5 431,-95.5 431,-76.5 294,-76.5"/>
<text text-anchor="middle" x="362.5" y="-83.5" font-family="Helvetica,sans-Serif" font-size="10.00">m_legendre1::legendre_drv1</text>
</a>
</g>
</g>
<!-- Node1&#45;&gt;Node6 -->
<g id="edge8" class="edge">
<title>Node1&#45;&gt;Node6</title>
<path fill="none" stroke="midnightblue" d="M103.18,-101.88C152.2,-98.87 227.17,-94.26 283.75,-90.78"/>
<polygon fill="midnightblue" stroke="midnightblue" points="283.96,-94.27 293.73,-90.17 283.53,-87.29 283.96,-94.27"/>
</g>
<!-- Node7 -->
<g id="node7" class="node">
<title>Node7</title>
<g id="a_node7"><a xlink:href="matrix__Rr_8f90.html#ac8734d74fb7ada7605575d3b9d26f2bb" target="_top" xlink:title=" ">
<polygon fill="white" stroke="black" points="171.5,-38.5 171.5,-57.5 225.5,-57.5 225.5,-38.5 171.5,-38.5"/>
<text text-anchor="middle" x="198.5" y="-45.5" font-family="Helvetica,sans-Serif" font-size="10.00">matrix_rr</text>
</a>
</g>
</g>
<!-- Node1&#45;&gt;Node7 -->
<g id="edge9" class="edge">
<title>Node1&#45;&gt;Node7</title>
<path fill="none" stroke="midnightblue" d="M90.98,-89.87C113.53,-81.01 141.77,-69.91 163.5,-61.36"/>
<polygon fill="midnightblue" stroke="midnightblue" points="164.96,-64.55 172.99,-57.64 162.4,-58.04 164.96,-64.55"/>
</g>
<!-- Node10 -->
<g id="node10" class="node">
<title>Node10</title>
<g id="a_node10"><a xlink:href="namespacem__matrixrxr.html#a076caf822a2cf65610dfd6eac38dcbdc" target="_top" xlink:title=" ">
<polygon fill="white" stroke="black" points="144.5,-0.5 144.5,-19.5 252.5,-19.5 252.5,-0.5 144.5,-0.5"/>
<text text-anchor="middle" x="198.5" y="-7.5" font-family="Helvetica,sans-Serif" font-size="10.00">m_matrixrxr::matrixrxr</text>
</a>
</g>
</g>
<!-- Node1&#45;&gt;Node10 -->
<g id="edge12" class="edge">
<title>Node1&#45;&gt;Node10</title>
<path fill="none" stroke="midnightblue" d="M66.08,-89.82C82.02,-72.82 109.99,-45.51 139,-29 142.71,-26.89 146.68,-24.98 150.75,-23.25"/>
<polygon fill="midnightblue" stroke="midnightblue" points="152.26,-26.42 160.33,-19.55 149.74,-19.89 152.26,-26.42"/>
</g>
<!-- Node3 -->
<g id="node3" class="node">
<title>Node3</title>
<g id="a_node3"><a xlink:href="arctan_8f90.html#a6542129800abaa371ae7617afbcb4402" target="_top" xlink:title=" ">
<polygon fill="white" stroke="black" points="340.5,-190.5 340.5,-209.5 384.5,-209.5 384.5,-190.5 340.5,-190.5"/>
<text text-anchor="middle" x="362.5" y="-197.5" font-family="Helvetica,sans-Serif" font-size="10.00">arctan</text>
</a>
</g>
</g>
<!-- Node2&#45;&gt;Node3 -->
<g id="edge2" class="edge">
<title>Node2&#45;&gt;Node3</title>
<path fill="none" stroke="midnightblue" d="M233.86,-200C262.23,-200 302.18,-200 329.79,-200"/>
<polygon fill="midnightblue" stroke="midnightblue" points="330.08,-203.5 340.08,-200 330.08,-196.5 330.08,-203.5"/>
</g>
<!-- Node5&#45;&gt;Node4 -->
<g id="edge5" class="edge">
<title>Node5&#45;&gt;Node4</title>
<path fill="none" stroke="midnightblue" d="M258.28,-124C314.54,-124 399.14,-124 456.82,-124"/>
<polygon fill="midnightblue" stroke="midnightblue" points="456.91,-127.5 466.91,-124 456.91,-120.5 456.91,-127.5"/>
</g>
<!-- Node5&#45;&gt;Node6 -->
<g id="edge6" class="edge">
<title>Node5&#45;&gt;Node6</title>
<path fill="none" stroke="midnightblue" d="M240.38,-114.41C261.85,-109.37 288.36,-103.16 311.1,-97.82"/>
<polygon fill="midnightblue" stroke="midnightblue" points="311.98,-101.21 320.91,-95.52 310.38,-94.4 311.98,-101.21"/>
</g>
<!-- Node6&#45;&gt;Node4 -->
<g id="edge7" class="edge">
<title>Node6&#45;&gt;Node4</title>
<path fill="none" stroke="midnightblue" d="M402.99,-95.59C423.64,-100.6 449.11,-106.79 471.01,-112.11"/>
<polygon fill="midnightblue" stroke="midnightblue" points="470.25,-115.52 480.79,-114.48 471.9,-108.72 470.25,-115.52"/>
</g>
<!-- Node8 -->
<g id="node8" class="node">
<title>Node8</title>
<g id="a_node8"><a xlink:href="R1_8for.html#a790dd7e73934aaad6a8f20558f2a175f" target="_top" xlink:title=" ">
<polygon fill="white" stroke="black" points="348,-38.5 348,-57.5 377,-57.5 377,-38.5 348,-38.5"/>
<text text-anchor="middle" x="362.5" y="-45.5" font-family="Helvetica,sans-Serif" font-size="10.00">r1</text>
</a>
</g>
</g>
<!-- Node7&#45;&gt;Node8 -->
<g id="edge10" class="edge">
<title>Node7&#45;&gt;Node8</title>
<path fill="none" stroke="midnightblue" d="M225.53,-48C256.46,-48 307.64,-48 337.6,-48"/>
<polygon fill="midnightblue" stroke="midnightblue" points="337.96,-51.5 347.96,-48 337.96,-44.5 337.96,-51.5"/>
</g>
<!-- Node9 -->
<g id="node9" class="node">
<title>Node9</title>
<g id="a_node9"><a xlink:href="R3_8for.html#a8736a6c65234edc13681ad51dff7ed1d" target="_top" xlink:title=" ">
<polygon fill="white" stroke="black" points="348,-0.5 348,-19.5 377,-19.5 377,-0.5 348,-0.5"/>
<text text-anchor="middle" x="362.5" y="-7.5" font-family="Helvetica,sans-Serif" font-size="10.00">r3</text>
</a>
</g>
</g>
<!-- Node7&#45;&gt;Node9 -->
<g id="edge11" class="edge">
<title>Node7&#45;&gt;Node9</title>
<path fill="none" stroke="midnightblue" d="M225.53,-41.89C256.59,-34.61 308.09,-22.53 338,-15.51"/>
<polygon fill="midnightblue" stroke="midnightblue" points="339.02,-18.87 347.96,-13.18 337.43,-12.05 339.02,-18.87"/>
</g>
<!-- Node10&#45;&gt;Node8 -->
<g id="edge13" class="edge">
<title>Node10&#45;&gt;Node8</title>
<path fill="none" stroke="midnightblue" d="M240.38,-19.59C271.22,-26.82 312.44,-36.49 337.96,-42.48"/>
<polygon fill="midnightblue" stroke="midnightblue" points="337.33,-45.92 347.86,-44.8 338.93,-39.11 337.33,-45.92"/>
</g>
<!-- Node10&#45;&gt;Node9 -->
<g id="edge14" class="edge">
<title>Node10&#45;&gt;Node9</title>
<path fill="none" stroke="midnightblue" d="M252.54,-10C281.28,-10 315.36,-10 337.66,-10"/>
<polygon fill="midnightblue" stroke="midnightblue" points="337.87,-13.5 347.87,-10 337.87,-6.5 337.87,-13.5"/>
</g>
</g>
</svg>
