<?xml version="1.0" encoding="UTF-8" standalone="no"?>
<!DOCTYPE svg PUBLIC "-//W3C//DTD SVG 1.1//EN"
 "http://www.w3.org/Graphics/SVG/1.1/DTD/svg11.dtd">
<!-- Generated by graphviz version 2.50.0 (20220203.2022)
 -->
<!-- Title: m_read_svsinex::read_sinex_file Pages: 1 -->
<svg width="439pt" height="116pt"
 viewBox="0.00 0.00 439.00 115.50" xmlns="http://www.w3.org/2000/svg" xmlns:xlink="http://www.w3.org/1999/xlink">
<g id="graph0" class="graph" transform="scale(1 1) rotate(0) translate(4 111.5)">
<title>m_read_svsinex::read_sinex_file</title>
<polygon fill="white" stroke="transparent" points="-4,4 -4,-111.5 435,-111.5 435,4 -4,4"/>
<!-- Node1 -->
<g id="node1" class="node">
<title>Node1</title>
<g id="a_node1"><a xlink:title=" ">
<polygon fill="#bfbfbf" stroke="black" points="321,-44.5 321,-74.5 431,-74.5 431,-44.5 321,-44.5"/>
<text text-anchor="start" x="329" y="-62.5" font-family="Helvetica,sans-Serif" font-size="10.00">m_read_svsinex::read</text>
<text text-anchor="middle" x="376" y="-51.5" font-family="Helvetica,sans-Serif" font-size="10.00">_sinex_file</text>
</a>
</g>
</g>
<!-- Node2 -->
<g id="node2" class="node">
<title>Node2</title>
<g id="a_node2"><a xlink:href="namespacem__read__satsnx.html#a0325a5acf4c4a7f382a936c90395e46a" target="_top" xlink:title=" ">
<polygon fill="white" stroke="black" points="179,-44.5 179,-74.5 285,-74.5 285,-44.5 179,-44.5"/>
<text text-anchor="start" x="187" y="-62.5" font-family="Helvetica,sans-Serif" font-size="10.00">m_read_satsnx::read</text>
<text text-anchor="middle" x="232" y="-51.5" font-family="Helvetica,sans-Serif" font-size="10.00">_satsnx</text>
</a>
</g>
</g>
<!-- Node1&#45;&gt;Node2 -->
<g id="edge1" class="edge">
<title>Node1&#45;&gt;Node2</title>
<path fill="none" stroke="midnightblue" d="M310.87,-59.5C302.23,-59.5 293.46,-59.5 285.06,-59.5"/>
<polygon fill="midnightblue" stroke="midnightblue" points="310.91,-63 320.91,-59.5 310.91,-56 310.91,-63"/>
</g>
<!-- Node3 -->
<g id="node3" class="node">
<title>Node3</title>
<g id="a_node3"><a xlink:href="namespacem__pod__gnss.html#acc5f9a213cb0b59b5e4d35e4d0ebdc72" target="_top" xlink:title=" ">
<polygon fill="white" stroke="black" points="12,-88 12,-107 131,-107 131,-88 12,-88"/>
<text text-anchor="middle" x="71.5" y="-95" font-family="Helvetica,sans-Serif" font-size="10.00">m_pod_gnss::pod_gnss</text>
</a>
</g>
</g>
<!-- Node2&#45;&gt;Node3 -->
<g id="edge2" class="edge">
<title>Node2&#45;&gt;Node3</title>
<path fill="none" stroke="midnightblue" d="M168.85,-74.4C149.79,-78.97 129.36,-83.87 112.23,-87.98"/>
<polygon fill="midnightblue" stroke="midnightblue" points="169.75,-77.78 178.66,-72.05 168.12,-70.98 169.75,-77.78"/>
</g>
<!-- Node4 -->
<g id="node4" class="node">
<title>Node4</title>
<g id="a_node4"><a xlink:href="namespacem__satmetadata.html#a00402093827c5202ee7e8ceb74e9a2f7" target="_top" xlink:title=" ">
<polygon fill="white" stroke="black" points="0,-50 0,-69 143,-69 143,-50 0,-50"/>
<text text-anchor="middle" x="71.5" y="-57" font-family="Helvetica,sans-Serif" font-size="10.00">m_satmetadata::satmetadata</text>
</a>
</g>
</g>
<!-- Node2&#45;&gt;Node4 -->
<g id="edge3" class="edge">
<title>Node2&#45;&gt;Node4</title>
<path fill="none" stroke="midnightblue" d="M168.63,-59.5C160.27,-59.5 151.65,-59.5 143.17,-59.5"/>
<polygon fill="midnightblue" stroke="midnightblue" points="168.66,-63 178.66,-59.5 168.66,-56 168.66,-63"/>
</g>
<!-- Node5 -->
<g id="node5" class="node">
<title>Node5</title>
<g id="a_node5"><a xlink:href="namespacem__writeorbit__multi.html#a417e83d6d78aea1b32e8b66b2a8efde0" target="_top" xlink:title=" ">
<polygon fill="white" stroke="black" points="23.5,-0.5 23.5,-30.5 119.5,-30.5 119.5,-0.5 23.5,-0.5"/>
<text text-anchor="start" x="31.5" y="-18.5" font-family="Helvetica,sans-Serif" font-size="10.00">m_writeorbit_multi</text>
<text text-anchor="middle" x="71.5" y="-7.5" font-family="Helvetica,sans-Serif" font-size="10.00">::writeorbit_multi</text>
</a>
</g>
</g>
<!-- Node2&#45;&gt;Node5 -->
<g id="edge4" class="edge">
<title>Node2&#45;&gt;Node5</title>
<path fill="none" stroke="midnightblue" d="M168.67,-42.2C152.37,-37.67 135.07,-32.87 119.71,-28.6"/>
<polygon fill="midnightblue" stroke="midnightblue" points="168.09,-45.67 178.66,-44.97 169.96,-38.92 168.09,-45.67"/>
</g>
</g>
</svg>
