<?xml version="1.0" encoding="UTF-8" standalone="no"?>
<!DOCTYPE svg PUBLIC "-//W3C//DTD SVG 1.1//EN"
 "http://www.w3.org/Graphics/SVG/1.1/DTD/svg11.dtd">
<!-- Generated by graphviz version 2.50.0 (20220203.2022)
 -->
<!-- Title: yaml_settings::type_string_setting_create Pages: 1 -->
<svg width="467pt" height="100pt"
 viewBox="0.00 0.00 467.00 99.71" xmlns="http://www.w3.org/2000/svg" xmlns:xlink="http://www.w3.org/1999/xlink">
<g id="graph0" class="graph" transform="scale(1 1) rotate(0) translate(4 95.71)">
<title>yaml_settings::type_string_setting_create</title>
<polygon fill="white" stroke="transparent" points="-4,4 -4,-95.71 463,-95.71 463,4 -4,4"/>
<!-- Node1 -->
<g id="node1" class="node">
<title>Node1</title>
<g id="a_node1"><a xlink:title=" ">
<polygon fill="#bfbfbf" stroke="black" points="0,-44.5 0,-74.5 113,-74.5 113,-44.5 0,-44.5"/>
<text text-anchor="start" x="8" y="-62.5" font-family="Helvetica,sans-Serif" font-size="10.00">yaml_settings::type</text>
<text text-anchor="middle" x="56.5" y="-51.5" font-family="Helvetica,sans-Serif" font-size="10.00">_string_setting_create</text>
</a>
</g>
</g>
<!-- Node2 -->
<g id="node2" class="node">
<title>Node2</title>
<g id="a_node2"><a xlink:href="namespaceyaml__settings.html#adc1e77e299c991421bd7ed4a2a8726e0" target="_top" xlink:title=" ">
<polygon fill="white" stroke="black" points="284,-41.5 284,-71.5 390,-71.5 390,-41.5 284,-41.5"/>
<text text-anchor="start" x="292" y="-59.5" font-family="Helvetica,sans-Serif" font-size="10.00">yaml_settings::report</text>
<text text-anchor="middle" x="337" y="-48.5" font-family="Helvetica,sans-Serif" font-size="10.00">_error</text>
</a>
</g>
</g>
<!-- Node1&#45;&gt;Node2 -->
<g id="edge1" class="edge">
<title>Node1&#45;&gt;Node2</title>
<path fill="none" stroke="midnightblue" d="M113.19,-58.9C159.48,-58.4 225.31,-57.69 273.42,-57.17"/>
<polygon fill="midnightblue" stroke="midnightblue" points="273.74,-60.67 283.7,-57.06 273.67,-53.67 273.74,-60.67"/>
</g>
<!-- Node3 -->
<g id="node3" class="node">
<title>Node3</title>
<g id="a_node3"><a xlink:href="sinex_8cpp.html#a06fabc81a2cc41dfee260450a527ad2d" target="_top" xlink:title=" ">
<polygon fill="white" stroke="black" points="426,-47 426,-66 459,-66 459,-47 426,-47"/>
<text text-anchor="middle" x="442.5" y="-54" font-family="Helvetica,sans-Serif" font-size="10.00">trim</text>
</a>
</g>
</g>
<!-- Node1&#45;&gt;Node3 -->
<g id="edge3" class="edge">
<title>Node1&#45;&gt;Node3</title>
<path fill="none" stroke="midnightblue" d="M113.06,-68.14C124.9,-69.77 137.35,-71.33 149,-72.5 255.63,-83.22 285.37,-103.68 390,-80.5 399.14,-78.48 408.58,-74.66 416.84,-70.65"/>
<polygon fill="midnightblue" stroke="midnightblue" points="418.63,-73.66 425.9,-65.96 415.41,-67.44 418.63,-73.66"/>
</g>
<!-- Node4 -->
<g id="node4" class="node">
<title>Node4</title>
<g id="a_node4"><a xlink:href="namespaceyaml__settings.html#a039407065e8a18dbaeeb8685982a1c8e" target="_top" xlink:title=" ">
<polygon fill="white" stroke="black" points="149,-0.5 149,-30.5 248,-30.5 248,-0.5 149,-0.5"/>
<text text-anchor="start" x="157" y="-18.5" font-family="Helvetica,sans-Serif" font-size="10.00">yaml_settings::type</text>
<text text-anchor="middle" x="198.5" y="-7.5" font-family="Helvetica,sans-Serif" font-size="10.00">_settings_create</text>
</a>
</g>
</g>
<!-- Node1&#45;&gt;Node4 -->
<g id="edge4" class="edge">
<title>Node1&#45;&gt;Node4</title>
<path fill="none" stroke="midnightblue" d="M105.29,-44.48C116.32,-41.01 128.16,-37.29 139.57,-33.71"/>
<polygon fill="midnightblue" stroke="midnightblue" points="140.96,-36.94 149.45,-30.6 138.86,-30.26 140.96,-36.94"/>
</g>
<!-- Node2&#45;&gt;Node3 -->
<g id="edge2" class="edge">
<title>Node2&#45;&gt;Node3</title>
<path fill="none" stroke="midnightblue" d="M390.05,-56.5C398.95,-56.5 407.83,-56.5 415.65,-56.5"/>
<polygon fill="midnightblue" stroke="midnightblue" points="415.89,-60 425.89,-56.5 415.89,-53 415.89,-60"/>
</g>
<!-- Node4&#45;&gt;Node2 -->
<g id="edge5" class="edge">
<title>Node4&#45;&gt;Node2</title>
<path fill="none" stroke="midnightblue" d="M248.01,-30.07C257.11,-32.8 266.72,-35.69 276.12,-38.51"/>
<polygon fill="midnightblue" stroke="midnightblue" points="275.22,-41.9 285.8,-41.42 277.23,-35.19 275.22,-41.9"/>
</g>
<!-- Node4&#45;&gt;Node3 -->
<g id="edge6" class="edge">
<title>Node4&#45;&gt;Node3</title>
<path fill="none" stroke="midnightblue" d="M248.11,-14.71C287.12,-15.23 342.95,-18.59 390,-31.5 399.09,-34 408.52,-38.08 416.78,-42.22"/>
<polygon fill="midnightblue" stroke="midnightblue" points="415.39,-45.44 425.86,-47.03 418.66,-39.26 415.39,-45.44"/>
</g>
</g>
</svg>
