<?xml version="1.0" encoding="UTF-8" standalone="no"?>
<!DOCTYPE svg PUBLIC "-//W3C//DTD SVG 1.1//EN"
 "http://www.w3.org/Graphics/SVG/1.1/DTD/svg11.dtd">
<!-- Generated by graphviz version 2.50.0 (20220203.2022)
 -->
<!-- Title: m_statorbit::statorbit Pages: 1 -->
<svg width="416pt" height="370pt"
 viewBox="0.00 0.00 416.00 370.00" xmlns="http://www.w3.org/2000/svg" xmlns:xlink="http://www.w3.org/1999/xlink">
<g id="graph0" class="graph" transform="scale(1 1) rotate(0) translate(4 366)">
<title>m_statorbit::statorbit</title>
<polygon fill="white" stroke="transparent" points="-4,4 -4,-366 412,-366 412,4 -4,4"/>
<!-- Node1 -->
<g id="node1" class="node">
<title>Node1</title>
<g id="a_node1"><a xlink:title=" ">
<polygon fill="#bfbfbf" stroke="black" points="0,-228.5 0,-247.5 105,-247.5 105,-228.5 0,-228.5"/>
<text text-anchor="middle" x="52.5" y="-235.5" font-family="Helvetica,sans-Serif" font-size="10.00">m_statorbit::statorbit</text>
</a>
</g>
</g>
<!-- Node2 -->
<g id="node2" class="node">
<title>Node2</title>
<g id="a_node2"><a xlink:href="jd2cal_8for.html#a9bed91282551283d85294092fe0cc509" target="_top" xlink:title=" ">
<polygon fill="white" stroke="black" points="155.5,-332.5 155.5,-351.5 215.5,-351.5 215.5,-332.5 155.5,-332.5"/>
<text text-anchor="middle" x="185.5" y="-339.5" font-family="Helvetica,sans-Serif" font-size="10.00">iau_jd2cal</text>
</a>
</g>
</g>
<!-- Node1&#45;&gt;Node2 -->
<g id="edge1" class="edge">
<title>Node1&#45;&gt;Node2</title>
<path fill="none" stroke="midnightblue" d="M61.29,-247.56C75.58,-264.61 107.59,-300.57 141,-323 143.58,-324.74 146.35,-326.37 149.2,-327.9"/>
<polygon fill="midnightblue" stroke="midnightblue" points="147.87,-331.15 158.39,-332.41 150.96,-324.87 147.87,-331.15"/>
</g>
<!-- Node3 -->
<g id="node3" class="node">
<title>Node3</title>
<g id="a_node3"><a xlink:href="kepler__z2k_8f90.html#aaece6d2b7d204b571232ad144687f646" target="_top" xlink:title=" ">
<polygon fill="white" stroke="black" points="154,-247.5 154,-266.5 217,-266.5 217,-247.5 154,-247.5"/>
<text text-anchor="middle" x="185.5" y="-254.5" font-family="Helvetica,sans-Serif" font-size="10.00">kepler_z2k</text>
</a>
</g>
</g>
<!-- Node1&#45;&gt;Node3 -->
<g id="edge2" class="edge">
<title>Node1&#45;&gt;Node3</title>
<path fill="none" stroke="midnightblue" d="M105.27,-245.51C118.13,-247.37 131.71,-249.34 143.94,-251.12"/>
<polygon fill="midnightblue" stroke="midnightblue" points="143.44,-254.58 153.84,-252.55 144.45,-247.65 143.44,-254.58"/>
</g>
<!-- Node7 -->
<g id="node7" class="node">
<title>Node7</title>
<g id="a_node7"><a xlink:href="matrix__Rr_8f90.html#ac8734d74fb7ada7605575d3b9d26f2bb" target="_top" xlink:title=" ">
<polygon fill="white" stroke="black" points="158.5,-294.5 158.5,-313.5 212.5,-313.5 212.5,-294.5 158.5,-294.5"/>
<text text-anchor="middle" x="185.5" y="-301.5" font-family="Helvetica,sans-Serif" font-size="10.00">matrix_rr</text>
</a>
</g>
</g>
<!-- Node1&#45;&gt;Node7 -->
<g id="edge6" class="edge">
<title>Node1&#45;&gt;Node7</title>
<path fill="none" stroke="midnightblue" d="M72.55,-247.6C94.57,-258.69 131.03,-277.06 156.33,-289.81"/>
<polygon fill="midnightblue" stroke="midnightblue" points="154.92,-293.02 165.43,-294.39 158.07,-286.77 154.92,-293.02"/>
</g>
<!-- Node9 -->
<g id="node9" class="node">
<title>Node9</title>
<g id="a_node9"><a xlink:href="orb__frame_8f90.html#a5282c7b911bbb6ac175ad64fe3e2750e" target="_top" xlink:title=" ">
<polygon fill="white" stroke="black" points="155.5,-209.5 155.5,-228.5 215.5,-228.5 215.5,-209.5 155.5,-209.5"/>
<text text-anchor="middle" x="185.5" y="-216.5" font-family="Helvetica,sans-Serif" font-size="10.00">orb_frame</text>
</a>
</g>
</g>
<!-- Node1&#45;&gt;Node9 -->
<g id="edge9" class="edge">
<title>Node1&#45;&gt;Node9</title>
<path fill="none" stroke="midnightblue" d="M105.27,-230.49C118.57,-228.56 132.66,-226.52 145.21,-224.7"/>
<polygon fill="midnightblue" stroke="midnightblue" points="145.95,-228.13 155.34,-223.23 144.94,-221.2 145.95,-228.13"/>
</g>
<!-- Node11 -->
<g id="node11" class="node">
<title>Node11</title>
<g id="a_node11"><a xlink:href="report_8f90.html#ad7b70277944dcb0bbfd72a8dbe9ad4df" target="_top" xlink:title=" ">
<polygon fill="white" stroke="black" points="165,-114.5 165,-133.5 206,-133.5 206,-114.5 165,-114.5"/>
<text text-anchor="middle" x="185.5" y="-121.5" font-family="Helvetica,sans-Serif" font-size="10.00">report</text>
</a>
</g>
</g>
<!-- Node1&#45;&gt;Node11 -->
<g id="edge13" class="edge">
<title>Node1&#45;&gt;Node11</title>
<path fill="none" stroke="midnightblue" d="M64.67,-228.28C87.1,-208.76 137.84,-164.61 165.55,-140.49"/>
<polygon fill="midnightblue" stroke="midnightblue" points="168.11,-142.9 173.36,-133.69 163.52,-137.62 168.11,-142.9"/>
</g>
<!-- Node17 -->
<g id="node17" class="node">
<title>Node17</title>
<g id="a_node17"><a xlink:href="namespacem__statist.html#ae4dae726f599a6a4d90554226d07808e" target="_top" xlink:title=" ">
<polygon fill="white" stroke="black" points="141,-76.5 141,-95.5 230,-95.5 230,-76.5 141,-76.5"/>
<text text-anchor="middle" x="185.5" y="-83.5" font-family="Helvetica,sans-Serif" font-size="10.00">m_statist::statist</text>
</a>
</g>
</g>
<!-- Node1&#45;&gt;Node17 -->
<g id="edge23" class="edge">
<title>Node1&#45;&gt;Node17</title>
<path fill="none" stroke="midnightblue" d="M57.53,-228.26C67.92,-204.22 97.89,-141.34 141,-105 142.93,-103.37 145.02,-101.86 147.21,-100.47"/>
<polygon fill="midnightblue" stroke="midnightblue" points="148.9,-103.53 155.96,-95.63 145.52,-97.4 148.9,-103.53"/>
</g>
<!-- Node4 -->
<g id="node4" class="node">
<title>Node4</title>
<g id="a_node4"><a xlink:href="arctan_8f90.html#a6542129800abaa371ae7617afbcb4402" target="_top" xlink:title=" ">
<polygon fill="white" stroke="black" points="280.5,-266.5 280.5,-285.5 324.5,-285.5 324.5,-266.5 280.5,-266.5"/>
<text text-anchor="middle" x="302.5" y="-273.5" font-family="Helvetica,sans-Serif" font-size="10.00">arctan</text>
</a>
</g>
</g>
<!-- Node3&#45;&gt;Node4 -->
<g id="edge3" class="edge">
<title>Node3&#45;&gt;Node4</title>
<path fill="none" stroke="midnightblue" d="M217.02,-262.04C233.39,-264.75 253.54,-268.08 270.06,-270.81"/>
<polygon fill="midnightblue" stroke="midnightblue" points="269.87,-274.32 280.31,-272.5 271.01,-267.42 269.87,-274.32"/>
</g>
<!-- Node5 -->
<g id="node5" class="node">
<title>Node5</title>
<g id="a_node5"><a xlink:href="productdot_8f90.html#a14430d9cb0b48474effeb33068eaf0ed" target="_top" xlink:title=" ">
<polygon fill="white" stroke="black" points="271.5,-228.5 271.5,-247.5 333.5,-247.5 333.5,-228.5 271.5,-228.5"/>
<text text-anchor="middle" x="302.5" y="-235.5" font-family="Helvetica,sans-Serif" font-size="10.00">productdot</text>
</a>
</g>
</g>
<!-- Node3&#45;&gt;Node5 -->
<g id="edge4" class="edge">
<title>Node3&#45;&gt;Node5</title>
<path fill="none" stroke="midnightblue" d="M217.02,-251.96C230.51,-249.73 246.57,-247.08 261.04,-244.68"/>
<polygon fill="midnightblue" stroke="midnightblue" points="261.94,-248.08 271.24,-243 260.8,-241.18 261.94,-248.08"/>
</g>
<!-- Node6 -->
<g id="node6" class="node">
<title>Node6</title>
<g id="a_node6"><a xlink:href="R1_8for.html#a790dd7e73934aaad6a8f20558f2a175f" target="_top" xlink:title=" ">
<polygon fill="white" stroke="black" points="377,-228.5 377,-247.5 406,-247.5 406,-228.5 377,-228.5"/>
<text text-anchor="middle" x="391.5" y="-235.5" font-family="Helvetica,sans-Serif" font-size="10.00">r1</text>
</a>
</g>
</g>
<!-- Node5&#45;&gt;Node6 -->
<g id="edge5" class="edge">
<title>Node5&#45;&gt;Node6</title>
<path fill="none" stroke="midnightblue" d="M333.93,-238C344.72,-238 356.7,-238 366.85,-238"/>
<polygon fill="midnightblue" stroke="midnightblue" points="367,-241.5 377,-238 367,-234.5 367,-241.5"/>
</g>
<!-- Node7&#45;&gt;Node6 -->
<g id="edge7" class="edge">
<title>Node7&#45;&gt;Node6</title>
<path fill="none" stroke="midnightblue" d="M212.53,-308.21C244.12,-312.06 298.23,-314.57 339,-295 356.39,-286.65 370.57,-269.55 379.61,-256.24"/>
<polygon fill="midnightblue" stroke="midnightblue" points="382.58,-258.1 385.03,-247.79 376.69,-254.32 382.58,-258.1"/>
</g>
<!-- Node8 -->
<g id="node8" class="node">
<title>Node8</title>
<g id="a_node8"><a xlink:href="R3_8for.html#a8736a6c65234edc13681ad51dff7ed1d" target="_top" xlink:title=" ">
<polygon fill="white" stroke="black" points="288,-342.5 288,-361.5 317,-361.5 317,-342.5 288,-342.5"/>
<text text-anchor="middle" x="302.5" y="-349.5" font-family="Helvetica,sans-Serif" font-size="10.00">r3</text>
</a>
</g>
</g>
<!-- Node7&#45;&gt;Node8 -->
<g id="edge8" class="edge">
<title>Node7&#45;&gt;Node8</title>
<path fill="none" stroke="midnightblue" d="M209.5,-313.6C229.57,-321.98 258.55,-334.07 278.59,-342.44"/>
<polygon fill="midnightblue" stroke="midnightblue" points="277.33,-345.7 287.91,-346.33 280.02,-339.24 277.33,-345.7"/>
</g>
<!-- Node9&#45;&gt;Node5 -->
<g id="edge12" class="edge">
<title>Node9&#45;&gt;Node5</title>
<path fill="none" stroke="midnightblue" d="M215.52,-223.79C229.36,-226.08 246.14,-228.85 261.2,-231.34"/>
<polygon fill="midnightblue" stroke="midnightblue" points="260.85,-234.83 271.29,-233.01 261.99,-227.92 260.85,-234.83"/>
</g>
<!-- Node10 -->
<g id="node10" class="node">
<title>Node10</title>
<g id="a_node10"><a xlink:href="productcross_8f90.html#a2e59e22456af10602cf068c75f925c76" target="_top" xlink:title=" ">
<polygon fill="white" stroke="black" points="266,-190.5 266,-209.5 339,-209.5 339,-190.5 266,-190.5"/>
<text text-anchor="middle" x="302.5" y="-197.5" font-family="Helvetica,sans-Serif" font-size="10.00">productcross</text>
</a>
</g>
</g>
<!-- Node9&#45;&gt;Node10 -->
<g id="edge10" class="edge">
<title>Node9&#45;&gt;Node10</title>
<path fill="none" stroke="midnightblue" d="M215.52,-214.21C227.71,-212.19 242.2,-209.8 255.77,-207.56"/>
<polygon fill="midnightblue" stroke="midnightblue" points="256.61,-210.96 265.91,-205.88 255.47,-204.06 256.61,-210.96"/>
</g>
<!-- Node10&#45;&gt;Node6 -->
<g id="edge11" class="edge">
<title>Node10&#45;&gt;Node6</title>
<path fill="none" stroke="midnightblue" d="M325.45,-209.59C338.37,-215.23 354.68,-222.35 367.73,-228.06"/>
<polygon fill="midnightblue" stroke="midnightblue" points="366.41,-231.3 376.97,-232.09 369.21,-224.88 366.41,-231.3"/>
</g>
<!-- Node12 -->
<g id="node12" class="node">
<title>Node12</title>
<g id="a_node12"><a xlink:href="report_8f90.html#a25928520f92370869a7e004be7f30f10" target="_top" xlink:title=" ">
<polygon fill="white" stroke="black" points="276,-152.5 276,-171.5 329,-171.5 329,-152.5 276,-152.5"/>
<text text-anchor="middle" x="302.5" y="-159.5" font-family="Helvetica,sans-Serif" font-size="10.00">casefold</text>
</a>
</g>
</g>
<!-- Node11&#45;&gt;Node12 -->
<g id="edge14" class="edge">
<title>Node11&#45;&gt;Node12</title>
<path fill="none" stroke="midnightblue" d="M206.01,-130.45C222.45,-135.88 246.41,-143.79 266.21,-150.34"/>
<polygon fill="midnightblue" stroke="midnightblue" points="265.24,-153.7 275.83,-153.52 267.43,-147.06 265.24,-153.7"/>
</g>
<!-- Node13 -->
<g id="node13" class="node">
<title>Node13</title>
<g id="a_node13"><a xlink:href="sinex_8cpp.html#a06fabc81a2cc41dfee260450a527ad2d" target="_top" xlink:title=" ">
<polygon fill="white" stroke="black" points="375,-76.5 375,-95.5 408,-95.5 408,-76.5 375,-76.5"/>
<text text-anchor="middle" x="391.5" y="-83.5" font-family="Helvetica,sans-Serif" font-size="10.00">trim</text>
</a>
</g>
</g>
<!-- Node11&#45;&gt;Node13 -->
<g id="edge22" class="edge">
<title>Node11&#45;&gt;Node13</title>
<path fill="none" stroke="midnightblue" d="M206.02,-123C235.27,-121.19 292.08,-116.42 339,-105 347.69,-102.89 356.93,-99.77 365.15,-96.67"/>
<polygon fill="midnightblue" stroke="midnightblue" points="366.54,-99.88 374.56,-92.96 363.97,-93.37 366.54,-99.88"/>
</g>
<!-- Node14 -->
<g id="node14" class="node">
<title>Node14</title>
<g id="a_node14"><a xlink:href="report_8f90.html#a467ea466dec943f417d29fc397607ed6" target="_top" xlink:title=" ">
<polygon fill="white" stroke="black" points="270.5,-76.5 270.5,-95.5 334.5,-95.5 334.5,-76.5 270.5,-76.5"/>
<text text-anchor="middle" x="302.5" y="-83.5" font-family="Helvetica,sans-Serif" font-size="10.00">caseunfold</text>
</a>
</g>
</g>
<!-- Node11&#45;&gt;Node14 -->
<g id="edge16" class="edge">
<title>Node11&#45;&gt;Node14</title>
<path fill="none" stroke="midnightblue" d="M206.01,-117.55C221.51,-112.43 243.67,-105.11 262.74,-98.81"/>
<polygon fill="midnightblue" stroke="midnightblue" points="263.99,-102.08 272.38,-95.62 261.79,-95.44 263.99,-102.08"/>
</g>
<!-- Node15 -->
<g id="node15" class="node">
<title>Node15</title>
<g id="a_node15"><a xlink:href="report_8f90.html#a75ac46c159583ff1b223dd8d0e9da6b9" target="_top" xlink:title=" ">
<polygon fill="white" stroke="black" points="268.5,-38.5 268.5,-57.5 336.5,-57.5 336.5,-38.5 268.5,-38.5"/>
<text text-anchor="middle" x="302.5" y="-45.5" font-family="Helvetica,sans-Serif" font-size="10.00">check_ascii</text>
</a>
</g>
</g>
<!-- Node11&#45;&gt;Node15 -->
<g id="edge18" class="edge">
<title>Node11&#45;&gt;Node15</title>
<path fill="none" stroke="midnightblue" d="M206,-117.42C213.84,-114.29 222.72,-110.11 230,-105 249.04,-91.63 247.51,-81.11 266,-67 267.85,-65.59 269.82,-64.22 271.85,-62.91"/>
<polygon fill="midnightblue" stroke="midnightblue" points="274.06,-65.67 280.91,-57.58 270.51,-59.64 274.06,-65.67"/>
</g>
<!-- Node16 -->
<g id="node16" class="node">
<title>Node16</title>
<g id="a_node16"><a xlink:href="report_8f90.html#a6aa8309ac4ed66175c4ef2dc7fdda50a" target="_top" xlink:title=" ">
<polygon fill="white" stroke="black" points="274.5,-0.5 274.5,-19.5 330.5,-19.5 330.5,-0.5 274.5,-0.5"/>
<text text-anchor="middle" x="302.5" y="-7.5" font-family="Helvetica,sans-Serif" font-size="10.00">rep_open</text>
</a>
</g>
</g>
<!-- Node11&#45;&gt;Node16 -->
<g id="edge20" class="edge">
<title>Node11&#45;&gt;Node16</title>
<path fill="none" stroke="midnightblue" d="M206.02,-118.83C214.22,-115.87 223.37,-111.43 230,-105 256.83,-78.98 240.23,-56.07 266,-29 267.19,-27.75 268.49,-26.56 269.85,-25.43"/>
<polygon fill="midnightblue" stroke="midnightblue" points="271.96,-28.23 278.22,-19.69 268,-22.46 271.96,-28.23"/>
</g>
<!-- Node12&#45;&gt;Node13 -->
<g id="edge15" class="edge">
<title>Node12&#45;&gt;Node13</title>
<path fill="none" stroke="midnightblue" d="M319.18,-152.35C325.53,-148.2 332.82,-143.13 339,-138 351.94,-127.27 365.26,-113.75 375.11,-103.18"/>
<polygon fill="midnightblue" stroke="midnightblue" points="377.72,-105.51 381.9,-95.77 372.56,-100.77 377.72,-105.51"/>
</g>
<!-- Node14&#45;&gt;Node13 -->
<g id="edge17" class="edge">
<title>Node14&#45;&gt;Node13</title>
<path fill="none" stroke="midnightblue" d="M334.91,-86C344.7,-86 355.39,-86 364.75,-86"/>
<polygon fill="midnightblue" stroke="midnightblue" points="365,-89.5 375,-86 365,-82.5 365,-89.5"/>
</g>
<!-- Node15&#45;&gt;Node13 -->
<g id="edge19" class="edge">
<title>Node15&#45;&gt;Node13</title>
<path fill="none" stroke="midnightblue" d="M325.45,-57.59C337.61,-62.9 352.76,-69.52 365.39,-75.03"/>
<polygon fill="midnightblue" stroke="midnightblue" points="364.3,-78.38 374.86,-79.17 367.1,-71.96 364.3,-78.38"/>
</g>
<!-- Node16&#45;&gt;Node13 -->
<g id="edge21" class="edge">
<title>Node16&#45;&gt;Node13</title>
<path fill="none" stroke="midnightblue" d="M324.15,-19.51C329.22,-22.25 334.48,-25.47 339,-29 353.54,-40.37 367.41,-56.11 377.09,-68.17"/>
<polygon fill="midnightblue" stroke="midnightblue" points="374.43,-70.45 383.34,-76.18 379.95,-66.14 374.43,-70.45"/>
</g>
</g>
</svg>
