<?xml version="1.0" encoding="UTF-8" standalone="no"?>
<!DOCTYPE svg PUBLIC "-//W3C//DTD SVG 1.1//EN"
 "http://www.w3.org/Graphics/SVG/1.1/DTD/svg11.dtd">
<!-- Generated by graphviz version 2.50.0 (20220203.2022)
 -->
<!-- Title: m_interporb_nom::interp_orb_nom Pages: 1 -->
<svg width="442pt" height="85pt"
 viewBox="0.00 0.00 442.00 85.00" xmlns="http://www.w3.org/2000/svg" xmlns:xlink="http://www.w3.org/1999/xlink">
<g id="graph0" class="graph" transform="scale(1 1) rotate(0) translate(4 81)">
<title>m_interporb_nom::interp_orb_nom</title>
<polygon fill="white" stroke="transparent" points="-4,4 -4,-81 438,-81 438,4 -4,4"/>
<!-- Node1 -->
<g id="node1" class="node">
<title>Node1</title>
<g id="a_node1"><a xlink:title=" ">
<polygon fill="#bfbfbf" stroke="black" points="0,-33 0,-63 120,-63 120,-33 0,-33"/>
<text text-anchor="start" x="8" y="-51" font-family="Helvetica,sans-Serif" font-size="10.00">m_interporb_nom::interp</text>
<text text-anchor="middle" x="60" y="-40" font-family="Helvetica,sans-Serif" font-size="10.00">_orb_nom</text>
</a>
</g>
</g>
<!-- Node2 -->
<g id="node2" class="node">
<title>Node2</title>
<g id="a_node2"><a xlink:href="namespacem__lagrange.html#abbb653a5bcb9c51a690428b3b77a68e8" target="_top" xlink:title=" ">
<polygon fill="white" stroke="black" points="156,-57.5 156,-76.5 269,-76.5 269,-57.5 156,-57.5"/>
<text text-anchor="middle" x="212.5" y="-64.5" font-family="Helvetica,sans-Serif" font-size="10.00">m_lagrange::interp_lag</text>
</a>
</g>
</g>
<!-- Node1&#45;&gt;Node2 -->
<g id="edge1" class="edge">
<title>Node1&#45;&gt;Node2</title>
<path fill="none" stroke="midnightblue" d="M120.05,-55.45C128.36,-56.5 136.95,-57.59 145.39,-58.65"/>
<polygon fill="midnightblue" stroke="midnightblue" points="145.21,-62.16 155.57,-59.94 146.09,-55.21 145.21,-62.16"/>
</g>
<!-- Node3 -->
<g id="node3" class="node">
<title>Node3</title>
<g id="a_node3"><a xlink:href="namespacem__sp3.html#aee5ee4c6b89b55a15add0857c52f3352" target="_top" xlink:title=" ">
<polygon fill="white" stroke="black" points="179.5,-19.5 179.5,-38.5 245.5,-38.5 245.5,-19.5 179.5,-19.5"/>
<text text-anchor="middle" x="212.5" y="-26.5" font-family="Helvetica,sans-Serif" font-size="10.00">m_sp3::sp3</text>
</a>
</g>
</g>
<!-- Node1&#45;&gt;Node3 -->
<g id="edge2" class="edge">
<title>Node1&#45;&gt;Node3</title>
<path fill="none" stroke="midnightblue" d="M120.05,-40.55C136.38,-38.48 153.77,-36.29 168.96,-34.37"/>
<polygon fill="midnightblue" stroke="midnightblue" points="169.6,-37.82 179.08,-33.09 168.72,-30.87 169.6,-37.82"/>
</g>
<!-- Node4 -->
<g id="node4" class="node">
<title>Node4</title>
<g id="a_node4"><a xlink:href="cal2jd_8for.html#af9bdf5980bab8c8324930b1a0af0175a" target="_top" xlink:title=" ">
<polygon fill="white" stroke="black" points="305,-57.5 305,-76.5 365,-76.5 365,-57.5 305,-57.5"/>
<text text-anchor="middle" x="335" y="-64.5" font-family="Helvetica,sans-Serif" font-size="10.00">iau_cal2jd</text>
</a>
</g>
</g>
<!-- Node3&#45;&gt;Node4 -->
<g id="edge3" class="edge">
<title>Node3&#45;&gt;Node4</title>
<path fill="none" stroke="midnightblue" d="M243.91,-38.59C259.38,-43.47 278.37,-49.46 294.92,-54.67"/>
<polygon fill="midnightblue" stroke="midnightblue" points="294.26,-58.14 304.85,-57.81 296.37,-51.46 294.26,-58.14"/>
</g>
<!-- Node5 -->
<g id="node5" class="node">
<title>Node5</title>
<g id="a_node5"><a xlink:href="report_8f90.html#ad7b70277944dcb0bbfd72a8dbe9ad4df" target="_top" xlink:title=" ">
<polygon fill="white" stroke="red" points="314.5,-19.5 314.5,-38.5 355.5,-38.5 355.5,-19.5 314.5,-19.5"/>
<text text-anchor="middle" x="335" y="-26.5" font-family="Helvetica,sans-Serif" font-size="10.00">report</text>
</a>
</g>
</g>
<!-- Node3&#45;&gt;Node5 -->
<g id="edge4" class="edge">
<title>Node3&#45;&gt;Node5</title>
<path fill="none" stroke="midnightblue" d="M245.79,-29C264.01,-29 286.6,-29 304.36,-29"/>
<polygon fill="midnightblue" stroke="midnightblue" points="304.45,-32.5 314.45,-29 304.45,-25.5 304.45,-32.5"/>
</g>
<!-- Node7 -->
<g id="node6" class="node">
<title>Node7</title>
<g id="a_node6"><a xlink:href="sinex_8cpp.html#a06fabc81a2cc41dfee260450a527ad2d" target="_top" xlink:title=" ">
<polygon fill="white" stroke="black" points="401,-0.5 401,-19.5 434,-19.5 434,-0.5 401,-0.5"/>
<text text-anchor="middle" x="417.5" y="-7.5" font-family="Helvetica,sans-Serif" font-size="10.00">trim</text>
</a>
</g>
</g>
<!-- Node3&#45;&gt;Node7 -->
<g id="edge6" class="edge">
<title>Node3&#45;&gt;Node7</title>
<path fill="none" stroke="midnightblue" d="M245.85,-20.59C263.25,-16.51 285.15,-12.04 305,-10 334.29,-6.99 368.14,-7.56 390.79,-8.51"/>
<polygon fill="midnightblue" stroke="midnightblue" points="390.78,-12.02 400.94,-9 391.12,-5.02 390.78,-12.02"/>
</g>
<!-- Node5&#45;&gt;Node7 -->
<g id="edge5" class="edge">
<title>Node5&#45;&gt;Node7</title>
<path fill="none" stroke="midnightblue" d="M355.9,-24.3C366.52,-21.8 379.71,-18.68 391.07,-16"/>
<polygon fill="midnightblue" stroke="midnightblue" points="391.93,-19.39 400.86,-13.69 390.32,-12.58 391.93,-19.39"/>
</g>
</g>
</svg>
