<?xml version="1.0" encoding="UTF-8" standalone="no"?>
<!DOCTYPE svg PUBLIC "-//W3C//DTD SVG 1.1//EN"
 "http://www.w3.org/Graphics/SVG/1.1/DTD/svg11.dtd">
<!-- Generated by graphviz version 2.50.0 (20220203.2022)
 -->
<!-- Title: m_attitude_orb::attitude_orb Pages: 1 -->
<svg width="427pt" height="294pt"
 viewBox="0.00 0.00 427.00 294.00" xmlns="http://www.w3.org/2000/svg" xmlns:xlink="http://www.w3.org/1999/xlink">
<g id="graph0" class="graph" transform="scale(1 1) rotate(0) translate(4 290)">
<title>m_attitude_orb::attitude_orb</title>
<polygon fill="white" stroke="transparent" points="-4,4 -4,-290 423,-290 423,4 -4,4"/>
<!-- Node1 -->
<g id="node1" class="node">
<title>Node1</title>
<g id="a_node1"><a xlink:title=" ">
<polygon fill="#bfbfbf" stroke="black" points="0,-133.5 0,-152.5 137,-152.5 137,-133.5 0,-133.5"/>
<text text-anchor="middle" x="68.5" y="-140.5" font-family="Helvetica,sans-Serif" font-size="10.00">m_attitude_orb::attitude_orb</text>
</a>
</g>
</g>
<!-- Node2 -->
<g id="node2" class="node">
<title>Node2</title>
<g id="a_node2"><a xlink:href="att__matrix_8f95.html#ac1f312f7022d981046ebb52cb86c69b2" target="_top" xlink:title=" ">
<polygon fill="white" stroke="black" points="173,-133.5 173,-152.5 232,-152.5 232,-133.5 173,-133.5"/>
<text text-anchor="middle" x="202.5" y="-140.5" font-family="Helvetica,sans-Serif" font-size="10.00">att_matrix</text>
</a>
</g>
</g>
<!-- Node1&#45;&gt;Node2 -->
<g id="edge1" class="edge">
<title>Node1&#45;&gt;Node2</title>
<path fill="none" stroke="midnightblue" d="M137.05,-143C145.78,-143 154.48,-143 162.52,-143"/>
<polygon fill="midnightblue" stroke="midnightblue" points="162.68,-146.5 172.68,-143 162.68,-139.5 162.68,-146.5"/>
</g>
<!-- Node3 -->
<g id="node3" class="node">
<title>Node3</title>
<g id="a_node3"><a xlink:href="attitude_8f95.html#a8ee7764bdfc5e3bea9130e1ca999cb6d" target="_top" xlink:title=" ">
<polygon fill="white" stroke="red" points="276.5,-266.5 276.5,-285.5 325.5,-285.5 325.5,-266.5 276.5,-266.5"/>
<text text-anchor="middle" x="301" y="-273.5" font-family="Helvetica,sans-Serif" font-size="10.00">attitude</text>
</a>
</g>
</g>
<!-- Node2&#45;&gt;Node3 -->
<g id="edge2" class="edge">
<title>Node2&#45;&gt;Node3</title>
<path fill="none" stroke="midnightblue" d="M206.96,-152.63C214.93,-173.72 236.34,-224.67 268,-257 269.21,-258.24 270.52,-259.42 271.89,-260.56"/>
<polygon fill="midnightblue" stroke="midnightblue" points="270.03,-263.53 280.22,-266.44 274.07,-257.81 270.03,-263.53"/>
</g>
<!-- Node43 -->
<g id="node4" class="node">
<title>Node43</title>
<g id="a_node4"><a xlink:href="crf__bff_8f90.html#ae0977fd0aaff11215c21ba04f7e6db7d" target="_top" xlink:title=" ">
<polygon fill="white" stroke="red" points="279,-228.5 279,-247.5 323,-247.5 323,-228.5 279,-228.5"/>
<text text-anchor="middle" x="301" y="-235.5" font-family="Helvetica,sans-Serif" font-size="10.00">crf_bff</text>
</a>
</g>
</g>
<!-- Node2&#45;&gt;Node43 -->
<g id="edge3" class="edge">
<title>Node2&#45;&gt;Node43</title>
<path fill="none" stroke="midnightblue" d="M211.32,-152.72C222.95,-166.92 245.83,-193.82 268,-214 271.03,-216.76 274.37,-219.53 277.71,-222.14"/>
<polygon fill="midnightblue" stroke="midnightblue" points="275.75,-225.05 285.84,-228.27 279.96,-219.46 275.75,-225.05"/>
</g>
<!-- Node34 -->
<g id="node5" class="node">
<title>Node34</title>
<g id="a_node5"><a xlink:href="algebra__old_8cpp.html#adc33998911a24938042604ba1f8e6196" target="_top" xlink:title=" ">
<polygon fill="white" stroke="black" points="370,-209.5 370,-228.5 419,-228.5 419,-209.5 370,-209.5"/>
<text text-anchor="middle" x="394.5" y="-216.5" font-family="Helvetica,sans-Serif" font-size="10.00">matmul</text>
</a>
</g>
</g>
<!-- Node2&#45;&gt;Node34 -->
<g id="edge7" class="edge">
<title>Node2&#45;&gt;Node34</title>
<path fill="none" stroke="midnightblue" d="M217.83,-152.79C230.56,-161.16 249.91,-173.07 268,-181 298.05,-194.18 334.05,-204.56 359.77,-211.12"/>
<polygon fill="midnightblue" stroke="midnightblue" points="359.22,-214.59 369.77,-213.61 360.91,-207.8 359.22,-214.59"/>
</g>
<!-- Node45 -->
<g id="node6" class="node">
<title>Node45</title>
<g id="a_node6"><a xlink:href="EOP_8f90.html#ae7a3de1bf2c72753f2eeb8e05d63f962" target="_top" xlink:title=" ">
<polygon fill="white" stroke="red" points="285,-152.5 285,-171.5 317,-171.5 317,-152.5 285,-152.5"/>
<text text-anchor="middle" x="301" y="-159.5" font-family="Helvetica,sans-Serif" font-size="10.00">eop</text>
</a>
</g>
</g>
<!-- Node2&#45;&gt;Node45 -->
<g id="edge5" class="edge">
<title>Node2&#45;&gt;Node45</title>
<path fill="none" stroke="midnightblue" d="M232.19,-148.65C245.73,-151.32 261.75,-154.47 274.82,-157.04"/>
<polygon fill="midnightblue" stroke="midnightblue" points="274.49,-160.54 284.98,-159.04 275.84,-153.68 274.49,-160.54"/>
</g>
<!-- Node77 -->
<g id="node7" class="node">
<title>Node77</title>
<g id="a_node7"><a xlink:href="mat2quater_8f95.html#a67222f408cac4223ec509d42b10c3753" target="_top" xlink:title=" ">
<polygon fill="white" stroke="black" points="268.5,-114.5 268.5,-133.5 333.5,-133.5 333.5,-114.5 268.5,-114.5"/>
<text text-anchor="middle" x="301" y="-121.5" font-family="Helvetica,sans-Serif" font-size="10.00">mat2quater</text>
</a>
</g>
</g>
<!-- Node2&#45;&gt;Node77 -->
<g id="edge6" class="edge">
<title>Node2&#45;&gt;Node77</title>
<path fill="none" stroke="midnightblue" d="M232.19,-137.35C240.34,-135.75 249.38,-133.97 258.14,-132.24"/>
<polygon fill="midnightblue" stroke="midnightblue" points="259.08,-135.62 268.21,-130.26 257.72,-128.76 259.08,-135.62"/>
</g>
<!-- Node78 -->
<g id="node8" class="node">
<title>Node78</title>
<g id="a_node8"><a xlink:href="matrix__inv3_8f90.html#ae08b768b5ba708cd4f00646e35adff14" target="_top" xlink:title=" ">
<polygon fill="white" stroke="red" points="268,-76.5 268,-95.5 334,-95.5 334,-76.5 268,-76.5"/>
<text text-anchor="middle" x="301" y="-83.5" font-family="Helvetica,sans-Serif" font-size="10.00">matrix_inv3</text>
</a>
</g>
</g>
<!-- Node2&#45;&gt;Node78 -->
<g id="edge8" class="edge">
<title>Node2&#45;&gt;Node78</title>
<path fill="none" stroke="midnightblue" d="M219.87,-133.33C234.93,-124.43 257.5,-111.1 274.85,-100.86"/>
<polygon fill="midnightblue" stroke="midnightblue" points="277.04,-103.63 283.87,-95.53 273.48,-97.6 277.04,-103.63"/>
</g>
<!-- Node32 -->
<g id="node9" class="node">
<title>Node32</title>
<g id="a_node9"><a xlink:href="PLEPH_8f.html#aedc7e0a9526045bd01307271228e14a3" target="_top" xlink:title=" ">
<polygon fill="white" stroke="red" points="281,-38.5 281,-57.5 321,-57.5 321,-38.5 281,-38.5"/>
<text text-anchor="middle" x="301" y="-45.5" font-family="Helvetica,sans-Serif" font-size="10.00">pleph</text>
</a>
</g>
</g>
<!-- Node2&#45;&gt;Node32 -->
<g id="edge9" class="edge">
<title>Node2&#45;&gt;Node32</title>
<path fill="none" stroke="midnightblue" d="M210.16,-133.22C221,-117.82 243.68,-87.55 268,-67 269.52,-65.72 271.13,-64.47 272.8,-63.27"/>
<polygon fill="midnightblue" stroke="midnightblue" points="274.91,-66.07 281.36,-57.66 271.07,-60.21 274.91,-66.07"/>
</g>
<!-- Node18 -->
<g id="node10" class="node">
<title>Node18</title>
<g id="a_node10"><a xlink:href="yaw__angle_8f90.html#a1277ab64ce3b1dc308e68636c6d3e077" target="_top" xlink:title=" ">
<polygon fill="white" stroke="black" points="270,-0.5 270,-19.5 332,-19.5 332,-0.5 270,-0.5"/>
<text text-anchor="middle" x="301" y="-7.5" font-family="Helvetica,sans-Serif" font-size="10.00">yaw_angle</text>
</a>
</g>
</g>
<!-- Node2&#45;&gt;Node18 -->
<g id="edge10" class="edge">
<title>Node2&#45;&gt;Node18</title>
<path fill="none" stroke="midnightblue" d="M206.96,-133.37C214.93,-112.28 236.34,-61.33 268,-29 269.21,-27.76 270.52,-26.58 271.89,-25.44"/>
<polygon fill="midnightblue" stroke="midnightblue" points="274.07,-28.19 280.22,-19.56 270.03,-22.47 274.07,-28.19"/>
</g>
<!-- Node43&#45;&gt;Node34 -->
<g id="edge4" class="edge">
<title>Node43&#45;&gt;Node34</title>
<path fill="none" stroke="midnightblue" d="M323.22,-233.59C334.11,-231.33 347.63,-228.52 359.9,-225.98"/>
<polygon fill="midnightblue" stroke="midnightblue" points="360.74,-229.38 369.82,-223.92 359.31,-222.52 360.74,-229.38"/>
</g>
</g>
</svg>
