<?xml version="1.0" encoding="UTF-8" standalone="no"?>
<!DOCTYPE svg PUBLIC "-//W3C//DTD SVG 1.1//EN"
 "http://www.w3.org/Graphics/SVG/1.1/DTD/svg11.dtd">
<!-- Generated by graphviz version 2.50.0 (20220203.2022)
 -->
<!-- Title: m_orbc2t::orbc2t Pages: 1 -->
<!--zoomable 314 -->
<svg id="main" version="1.1" xmlns="http://www.w3.org/2000/svg" xmlns:xlink="http://www.w3.org/1999/xlink" xml:space="preserve" onload="init(evt)">
<style type="text/css"><![CDATA[
.edge:hover path { stroke: red; }
.edge:hover polygon { stroke: red; fill: red; }
]]></style>
<script type="text/javascript"><![CDATA[
var edges = document.getElementsByTagName('g');
if (edges && edges.length) {
  for (var i=0;i<edges.length;i++) {
    if (edges[i].id.substr(0,4)=='edge') {
      edges[i].setAttribute('class','edge');
    }
  }
}
]]></script>
        <defs>
                <circle id="rim" cx="0" cy="0" r="7"/>
                <circle id="rim2" cx="0" cy="0" r="3.5"/>
                <g id="zoomPlus">
                        <use xlink:href="#rim" fill="#404040">
                                <set attributeName="fill" to="#808080" begin="zoomplus.mouseover" end="zoomplus.mouseout"/>
                        </use>
                        <path d="M-4,0h8M0,-4v8" fill="none" stroke="white" stroke-width="1.5" pointer-events="none"/>
                </g>
                <g id="zoomMin">
                        <use xlink:href="#rim" fill="#404040">
                                <set attributeName="fill" to="#808080" begin="zoomminus.mouseover" end="zoomminus.mouseout"/>
                        </use>
                        <path d="M-4,0h8" fill="none" stroke="white" stroke-width="1.5" pointer-events="none"/>
                </g>
                <g id="dirArrow">
                        <path fill="none" stroke="white" stroke-width="1.5" d="M0,-3.0v7 M-2.5,-0.5L0,-3.0L2.5,-0.5"/>
                </g>
               <g id="resetDef">
                       <use xlink:href="#rim2" fill="#404040">
                               <set attributeName="fill" to="#808080" begin="reset.mouseover" end="reset.mouseout"/>
                       </use>
               </g>
        </defs>

<script type="text/javascript">
var viewWidth = 515;
var viewHeight = 314;
var sectionId = 'dynsection-0';
</script>
<script xlink:href="svgpan.js"/>
<svg id="graph" class="graph">
<g id="viewport">
<title>m_orbc2t::orbc2t</title>
<polygon fill="white" stroke="transparent" points="-4,4 -4,-310.29 511,-310.29 511,4 -4,4"/>
<!-- Node1 -->
<g id="node1" class="node">
<title>Node1</title>
<g id="a_node1"><a xlink:title=" ">
<polygon fill="#bfbfbf" stroke="black" points="0,-133.5 0,-152.5 89,-152.5 89,-133.5 0,-133.5"/>
<text text-anchor="middle" x="44.5" y="-140.5" font-family="Helvetica,sans-Serif" font-size="10.00">m_orbc2t::orbc2t</text>
</a>
</g>
</g>
<!-- Node2 -->
<g id="node2" class="node">
<title>Node2</title>
<g id="a_node2"><a xlink:href="EOP_8f90.html#ae7a3de1bf2c72753f2eeb8e05d63f962" target="_top" xlink:title=" ">
<polygon fill="white" stroke="black" points="136,-209.5 136,-228.5 168,-228.5 168,-209.5 136,-209.5"/>
<text text-anchor="middle" x="152" y="-216.5" font-family="Helvetica,sans-Serif" font-size="10.00">eop</text>
</a>
</g>
</g>
<!-- Node1&#45;&gt;Node2 -->
<g id="edge1" class="edge">
<title>Node1&#45;&gt;Node2</title>
<path fill="none" stroke="midnightblue" d="M58.86,-152.63C76.62,-165.42 108.21,-188.17 129.38,-203.43"/>
<polygon fill="midnightblue" stroke="midnightblue" points="127.59,-206.45 137.75,-209.45 131.68,-200.77 127.59,-206.45"/>
</g>
<!-- Node25 -->
<g id="node4" class="node">
<title>Node25</title>
<g id="a_node4"><a xlink:href="time__TT_8f90.html#aac4be73ca07f0d71843391b034a7d20e" target="_top" xlink:title=" ">
<polygon fill="white" stroke="black" points="359.5,-228.5 359.5,-247.5 406.5,-247.5 406.5,-228.5 359.5,-228.5"/>
<text text-anchor="middle" x="383" y="-235.5" font-family="Helvetica,sans-Serif" font-size="10.00">time_tt</text>
</a>
</g>
</g>
<!-- Node1&#45;&gt;Node25 -->
<g id="edge18" class="edge">
<title>Node1&#45;&gt;Node25</title>
<path fill="none" stroke="midnightblue" d="M51.67,-152.86C71.09,-182.74 134.52,-271.66 215,-295 259.39,-307.88 275.87,-311.62 319,-295 339.52,-287.1 357.5,-269.07 368.94,-255.39"/>
<polygon fill="midnightblue" stroke="midnightblue" points="371.69,-257.56 375.19,-247.56 366.22,-253.2 371.69,-257.56"/>
</g>
<!-- Node38 -->
<g id="node9" class="node">
<title>Node38</title>
<g id="a_node9"><a xlink:href="matrix__Rr_8f90.html#ac8734d74fb7ada7605575d3b9d26f2bb" target="_top" xlink:title=" ">
<polygon fill="white" stroke="black" points="125,-38.5 125,-57.5 179,-57.5 179,-38.5 125,-38.5"/>
<text text-anchor="middle" x="152" y="-45.5" font-family="Helvetica,sans-Serif" font-size="10.00">matrix_rr</text>
</a>
</g>
</g>
<!-- Node1&#45;&gt;Node38 -->
<g id="edge9" class="edge">
<title>Node1&#45;&gt;Node38</title>
<path fill="none" stroke="midnightblue" d="M56.39,-133.19C74.41,-116.97 110.62,-84.36 132.64,-64.53"/>
<polygon fill="midnightblue" stroke="midnightblue" points="135.23,-66.91 140.32,-57.61 130.55,-61.7 135.23,-66.91"/>
</g>
<!-- Node41 -->
<g id="node12" class="node">
<title>Node41</title>
<g id="a_node12"><a xlink:href="time__GPS_8f90.html#abc2a33c3ed6bda1d04db6c1e5ae6d0f2" target="_top" xlink:title=" ">
<polygon fill="white" stroke="black" points="355,-152.5 355,-171.5 411,-171.5 411,-152.5 355,-152.5"/>
<text text-anchor="middle" x="383" y="-159.5" font-family="Helvetica,sans-Serif" font-size="10.00">time_gps</text>
</a>
</g>
</g>
<!-- Node1&#45;&gt;Node41 -->
<g id="edge12" class="edge">
<title>Node1&#45;&gt;Node41</title>
<path fill="none" stroke="midnightblue" d="M89.15,-145.46C155.88,-149.23 282.13,-156.36 344.79,-159.9"/>
<polygon fill="midnightblue" stroke="midnightblue" points="344.82,-163.41 355,-160.48 345.21,-156.42 344.82,-163.41"/>
</g>
<!-- Node42 -->
<g id="node13" class="node">
<title>Node42</title>
<g id="a_node13"><a xlink:href="time__TAI_8f90.html#a100297f335efa93736f0ef563a5d0de0" target="_top" xlink:title=" ">
<polygon fill="white" stroke="black" points="357.5,-114.5 357.5,-133.5 408.5,-133.5 408.5,-114.5 357.5,-114.5"/>
<text text-anchor="middle" x="383" y="-121.5" font-family="Helvetica,sans-Serif" font-size="10.00">time_tai</text>
</a>
</g>
</g>
<!-- Node1&#45;&gt;Node42 -->
<g id="edge15" class="edge">
<title>Node1&#45;&gt;Node42</title>
<path fill="none" stroke="midnightblue" d="M89.15,-140.54C156.72,-136.72 285.32,-129.46 347.12,-125.97"/>
<polygon fill="midnightblue" stroke="midnightblue" points="347.37,-129.46 357.15,-125.4 346.97,-122.47 347.37,-129.46"/>
</g>
<!-- Node43 -->
<g id="node14" class="node">
<title>Node43</title>
<g id="a_node14"><a xlink:href="time__UTC_8f90.html#a5c5b31c8678ff9da6694a16d7bb9387f" target="_top" xlink:title=" ">
<polygon fill="white" stroke="black" points="356,-76.5 356,-95.5 410,-95.5 410,-76.5 356,-76.5"/>
<text text-anchor="middle" x="383" y="-83.5" font-family="Helvetica,sans-Serif" font-size="10.00">time_utc</text>
</a>
</g>
</g>
<!-- Node1&#45;&gt;Node43 -->
<g id="edge19" class="edge">
<title>Node1&#45;&gt;Node43</title>
<path fill="none" stroke="midnightblue" d="M89.15,-135.61C156.22,-124.25 283.4,-102.7 345.73,-92.14"/>
<polygon fill="midnightblue" stroke="midnightblue" points="346.6,-95.55 355.87,-90.43 345.43,-88.65 346.6,-95.55"/>
</g>
<!-- Node3 -->
<g id="node3" class="node">
<title>Node3</title>
<g id="a_node3"><a xlink:href="crs__trs_8f90.html#ad60041f94ed21d7dccece31ca956443c" target="_top" xlink:title=" ">
<polygon fill="white" stroke="red" points="243.5,-266.5 243.5,-285.5 290.5,-285.5 290.5,-266.5 243.5,-266.5"/>
<text text-anchor="middle" x="267" y="-273.5" font-family="Helvetica,sans-Serif" font-size="10.00">crs_trs</text>
</a>
</g>
</g>
<!-- Node2&#45;&gt;Node3 -->
<g id="edge2" class="edge">
<title>Node2&#45;&gt;Node3</title>
<path fill="none" stroke="midnightblue" d="M166.84,-228.56C179.13,-236.78 197.75,-248.6 215,-257 220.91,-259.88 227.37,-262.59 233.65,-265.03"/>
<polygon fill="midnightblue" stroke="midnightblue" points="232.67,-268.39 243.26,-268.59 235.11,-261.83 232.67,-268.39"/>
</g>
<!-- Node29 -->
<g id="node7" class="node">
<title>Node29</title>
<g id="a_node7"><a xlink:href="namespacem__eop__cor.html#af1a58e51cefaf1a8f938020cd41f03ec" target="_top" xlink:title=" ">
<polygon fill="white" stroke="red" points="215,-228.5 215,-247.5 319,-247.5 319,-228.5 215,-228.5"/>
<text text-anchor="middle" x="267" y="-235.5" font-family="Helvetica,sans-Serif" font-size="10.00">m_eop_cor::eop_cor</text>
</a>
</g>
</g>
<!-- Node2&#45;&gt;Node29 -->
<g id="edge6" class="edge">
<title>Node2&#45;&gt;Node29</title>
<path fill="none" stroke="midnightblue" d="M168.24,-221.56C177.93,-223.19 191.19,-225.42 204.82,-227.71"/>
<polygon fill="midnightblue" stroke="midnightblue" points="204.32,-231.18 214.76,-229.38 205.48,-224.27 204.32,-231.18"/>
</g>
<!-- Node34 -->
<g id="node8" class="node">
<title>Node34</title>
<g id="a_node8"><a xlink:href="namespacem__eop__igu.html#a87fff80e2ab805d1c8b484f4d8760c06" target="_top" xlink:title=" ">
<polygon fill="white" stroke="red" points="216,-190.5 216,-209.5 318,-209.5 318,-190.5 216,-190.5"/>
<text text-anchor="middle" x="267" y="-197.5" font-family="Helvetica,sans-Serif" font-size="10.00">m_eop_igu::eop_igu</text>
</a>
</g>
</g>
<!-- Node2&#45;&gt;Node34 -->
<g id="edge8" class="edge">
<title>Node2&#45;&gt;Node34</title>
<path fill="none" stroke="midnightblue" d="M168.24,-216.44C178.13,-214.77 191.73,-212.49 205.64,-210.15"/>
<polygon fill="midnightblue" stroke="midnightblue" points="206.49,-213.55 215.77,-208.45 205.33,-206.65 206.49,-213.55"/>
</g>
<!-- Node3&#45;&gt;Node25 -->
<g id="edge3" class="edge">
<title>Node3&#45;&gt;Node25</title>
<path fill="none" stroke="midnightblue" d="M290.52,-268.49C307.35,-262.88 330.61,-255.13 349.46,-248.85"/>
<polygon fill="midnightblue" stroke="midnightblue" points="350.75,-252.1 359.13,-245.62 348.54,-245.46 350.75,-252.1"/>
</g>
<!-- Node26 -->
<g id="node5" class="node">
<title>Node26</title>
<g id="a_node5"><a xlink:href="jd2cal_8for.html#a9bed91282551283d85294092fe0cc509" target="_top" xlink:title=" ">
<polygon fill="white" stroke="black" points="447,-152.5 447,-171.5 507,-171.5 507,-152.5 447,-152.5"/>
<text text-anchor="middle" x="477" y="-159.5" font-family="Helvetica,sans-Serif" font-size="10.00">iau_jd2cal</text>
</a>
</g>
</g>
<!-- Node25&#45;&gt;Node26 -->
<g id="edge4" class="edge">
<title>Node25&#45;&gt;Node26</title>
<path fill="none" stroke="midnightblue" d="M395.65,-228.37C411,-215.7 438.19,-193.23 456.65,-177.98"/>
<polygon fill="midnightblue" stroke="midnightblue" points="458.96,-180.61 464.44,-171.55 454.5,-175.22 458.96,-180.61"/>
</g>
<!-- Node27 -->
<g id="node6" class="node">
<title>Node27</title>
<g id="a_node6"><a xlink:href="taiutc_8for.html#a86edd73f696a0968f1600df656bad920" target="_top" xlink:title=" ">
<polygon fill="white" stroke="red" points="456.5,-114.5 456.5,-133.5 497.5,-133.5 497.5,-114.5 456.5,-114.5"/>
<text text-anchor="middle" x="477" y="-121.5" font-family="Helvetica,sans-Serif" font-size="10.00">taiutc</text>
</a>
</g>
</g>
<!-- Node25&#45;&gt;Node27 -->
<g id="edge5" class="edge">
<title>Node25&#45;&gt;Node27</title>
<path fill="none" stroke="midnightblue" d="M388.65,-228.46C397.86,-210.25 419.92,-169.93 447,-143 448.09,-141.91 449.26,-140.85 450.47,-139.82"/>
<polygon fill="midnightblue" stroke="midnightblue" points="452.94,-142.35 458.87,-133.58 448.76,-136.74 452.94,-142.35"/>
</g>
<!-- Node29&#45;&gt;Node25 -->
<g id="edge7" class="edge">
<title>Node29&#45;&gt;Node25</title>
<path fill="none" stroke="midnightblue" d="M319.33,-238C329.55,-238 340.02,-238 349.39,-238"/>
<polygon fill="midnightblue" stroke="midnightblue" points="349.45,-241.5 359.45,-238 349.45,-234.5 349.45,-241.5"/>
</g>
<!-- Node39 -->
<g id="node10" class="node">
<title>Node39</title>
<g id="a_node10"><a xlink:href="R1_8for.html#a790dd7e73934aaad6a8f20558f2a175f" target="_top" xlink:title=" ">
<polygon fill="white" stroke="black" points="252.5,-0.5 252.5,-19.5 281.5,-19.5 281.5,-0.5 252.5,-0.5"/>
<text text-anchor="middle" x="267" y="-7.5" font-family="Helvetica,sans-Serif" font-size="10.00">r1</text>
</a>
</g>
</g>
<!-- Node38&#45;&gt;Node39 -->
<g id="edge10" class="edge">
<title>Node38&#45;&gt;Node39</title>
<path fill="none" stroke="midnightblue" d="M179.21,-39.19C198.37,-32.74 224.14,-24.08 242.61,-17.87"/>
<polygon fill="midnightblue" stroke="midnightblue" points="243.92,-21.12 252.29,-14.61 241.69,-14.48 243.92,-21.12"/>
</g>
<!-- Node40 -->
<g id="node11" class="node">
<title>Node40</title>
<g id="a_node11"><a xlink:href="R3_8for.html#a8736a6c65234edc13681ad51dff7ed1d" target="_top" xlink:title=" ">
<polygon fill="white" stroke="black" points="252.5,-38.5 252.5,-57.5 281.5,-57.5 281.5,-38.5 252.5,-38.5"/>
<text text-anchor="middle" x="267" y="-45.5" font-family="Helvetica,sans-Serif" font-size="10.00">r3</text>
</a>
</g>
</g>
<!-- Node38&#45;&gt;Node40 -->
<g id="edge11" class="edge">
<title>Node38&#45;&gt;Node40</title>
<path fill="none" stroke="midnightblue" d="M179.21,-48C198.19,-48 223.66,-48 242.09,-48"/>
<polygon fill="midnightblue" stroke="midnightblue" points="242.29,-51.5 252.29,-48 242.29,-44.5 242.29,-51.5"/>
</g>
<!-- Node41&#45;&gt;Node26 -->
<g id="edge13" class="edge">
<title>Node41&#45;&gt;Node26</title>
<path fill="none" stroke="midnightblue" d="M411.11,-162C419.09,-162 428,-162 436.6,-162"/>
<polygon fill="midnightblue" stroke="midnightblue" points="436.84,-165.5 446.84,-162 436.84,-158.5 436.84,-165.5"/>
</g>
<!-- Node41&#45;&gt;Node27 -->
<g id="edge14" class="edge">
<title>Node41&#45;&gt;Node27</title>
<path fill="none" stroke="midnightblue" d="M407.22,-152.41C419.26,-147.44 434.1,-141.31 446.9,-136.02"/>
<polygon fill="midnightblue" stroke="midnightblue" points="448.31,-139.22 456.22,-132.17 445.64,-132.75 448.31,-139.22"/>
</g>
<!-- Node42&#45;&gt;Node26 -->
<g id="edge16" class="edge">
<title>Node42&#45;&gt;Node26</title>
<path fill="none" stroke="midnightblue" d="M407.22,-133.59C418.22,-138.13 431.55,-143.64 443.54,-148.59"/>
<polygon fill="midnightblue" stroke="midnightblue" points="442.21,-151.83 452.79,-152.41 444.89,-145.36 442.21,-151.83"/>
</g>
<!-- Node42&#45;&gt;Node27 -->
<g id="edge17" class="edge">
<title>Node42&#45;&gt;Node27</title>
<path fill="none" stroke="midnightblue" d="M408.65,-124C420.18,-124 434.01,-124 446.12,-124"/>
<polygon fill="midnightblue" stroke="midnightblue" points="446.23,-127.5 456.23,-124 446.23,-120.5 446.23,-127.5"/>
</g>
<!-- Node43&#45;&gt;Node26 -->
<g id="edge20" class="edge">
<title>Node43&#45;&gt;Node26</title>
<path fill="none" stroke="midnightblue" d="M398.69,-95.55C402.8,-98.43 407.18,-101.7 411,-105 428.6,-120.21 429.15,-128.08 447,-143 448.37,-144.14 449.8,-145.27 451.28,-146.38"/>
<polygon fill="midnightblue" stroke="midnightblue" points="449.67,-149.53 459.87,-152.38 453.68,-143.79 449.67,-149.53"/>
</g>
<!-- Node43&#45;&gt;Node27 -->
<g id="edge21" class="edge">
<title>Node43&#45;&gt;Node27</title>
<path fill="none" stroke="midnightblue" d="M407.22,-95.59C419.26,-100.56 434.1,-106.69 446.9,-111.98"/>
<polygon fill="midnightblue" stroke="midnightblue" points="445.64,-115.25 456.22,-115.83 448.31,-108.78 445.64,-115.25"/>
</g>
</g>
</svg>
        <g id="navigator" transform="translate(0 0)" fill="#404254">
                <rect fill="#f2f5e9" fill-opacity="0.5" stroke="#606060" stroke-width=".5" x="0" y="0" width="60" height="60"/>
                <use id="zoomplus" xlink:href="#zoomPlus" x="17" y="9" onmousedown="handleZoom(evt,'in')"/>
                <use id="zoomminus" xlink:href="#zoomMin" x="42" y="9" onmousedown="handleZoom(evt,'out')"/>
                <use id="reset" xlink:href="#resetDef" x="30" y="36" onmousedown="handleReset()"/>
                <g id="arrowUp" xlink:href="#dirArrow" transform="translate(30 24)" onmousedown="handlePan(0,-1)">
                  <use xlink:href="#rim" fill="#404040">
                        <set attributeName="fill" to="#808080" begin="arrowUp.mouseover" end="arrowUp.mouseout"/>
                  </use>
                  <path fill="none" stroke="white" stroke-width="1.5" d="M0,-3.0v7 M-2.5,-0.5L0,-3.0L2.5,-0.5"/>
                </g>
                <g id="arrowRight" xlink:href="#dirArrow" transform="rotate(90) translate(36 -43)" onmousedown="handlePan(1,0)">
                  <use xlink:href="#rim" fill="#404040">
                        <set attributeName="fill" to="#808080" begin="arrowRight.mouseover" end="arrowRight.mouseout"/>
                  </use>
                  <path fill="none" stroke="white" stroke-width="1.5" d="M0,-3.0v7 M-2.5,-0.5L0,-3.0L2.5,-0.5"/>
                </g>
                <g id="arrowDown" xlink:href="#dirArrow" transform="rotate(180) translate(-30 -48)" onmousedown="handlePan(0,1)">
                  <use xlink:href="#rim" fill="#404040">
                        <set attributeName="fill" to="#808080" begin="arrowDown.mouseover" end="arrowDown.mouseout"/>
                  </use>
                  <path fill="none" stroke="white" stroke-width="1.5" d="M0,-3.0v7 M-2.5,-0.5L0,-3.0L2.5,-0.5"/>
                </g>
                <g id="arrowLeft" xlink:href="#dirArrow" transform="rotate(270) translate(-36 17)" onmousedown="handlePan(-1,0)">
                  <use xlink:href="#rim" fill="#404040">
                        <set attributeName="fill" to="#808080" begin="arrowLeft.mouseover" end="arrowLeft.mouseout"/>
                  </use>
                  <path fill="none" stroke="white" stroke-width="1.5" d="M0,-3.0v7 M-2.5,-0.5L0,-3.0L2.5,-0.5"/>
                </g>
        </g>
        <svg viewBox="0 0 15 15" width="100%" height="30px" preserveAspectRatio="xMaxYMin meet">
         <g id="arrow_out" transform="scale(0.3 0.3)">
          <a xlink:href="namespacem__orbc2t_a199ab2f2c024cd6d18cf08f6580013a0_cgraph_org.svg" target="_base">
           <rect id="button" ry="5" rx="5" y="6" x="6" height="38" width="38"
                fill="#f2f5e9" fill-opacity="0.5" stroke="#606060" stroke-width="1.0"/>
           <path id="arrow"
             d="M 11.500037,31.436501 C 11.940474,20.09759 22.043105,11.32322 32.158766,21.979434 L 37.068811,17.246167 C 37.068811,17.246167 37.088388,32 37.088388,32 L 22.160133,31.978069 C 22.160133,31.978069 26.997745,27.140456 26.997745,27.140456 C 18.528582,18.264221 13.291696,25.230495 11.500037,31.436501 z"
             style="fill:#404040;"/>
          </a>
         </g>
        </svg>
</svg>
