<?xml version="1.0" encoding="UTF-8" standalone="no"?>
<!DOCTYPE svg PUBLIC "-//W3C//DTD SVG 1.1//EN"
 "http://www.w3.org/Graphics/SVG/1.1/DTD/svg11.dtd">
<!-- Generated by graphviz version 2.50.0 (20220203.2022)
 -->
<!-- Title: m_obsorbt2c::obsorbt2c Pages: 1 -->
<svg width="546pt" height="314pt"
 viewBox="0.00 0.00 546.00 314.29" xmlns="http://www.w3.org/2000/svg" xmlns:xlink="http://www.w3.org/1999/xlink">
<g id="graph0" class="graph" transform="scale(1 1) rotate(0) translate(4 310.29)">
<title>m_obsorbt2c::obsorbt2c</title>
<polygon fill="white" stroke="transparent" points="-4,4 -4,-310.29 542,-310.29 542,4 -4,4"/>
<!-- Node1 -->
<g id="node1" class="node">
<title>Node1</title>
<g id="a_node1"><a xlink:title=" ">
<polygon fill="#bfbfbf" stroke="black" points="0,-133.5 0,-152.5 120,-152.5 120,-133.5 0,-133.5"/>
<text text-anchor="middle" x="60" y="-140.5" font-family="Helvetica,sans-Serif" font-size="10.00">m_obsorbt2c::obsorbt2c</text>
</a>
</g>
</g>
<!-- Node2 -->
<g id="node2" class="node">
<title>Node2</title>
<g id="a_node2"><a xlink:href="EOP_8f90.html#ae7a3de1bf2c72753f2eeb8e05d63f962" target="_top" xlink:title=" ">
<polygon fill="white" stroke="black" points="167,-209.5 167,-228.5 199,-228.5 199,-209.5 167,-209.5"/>
<text text-anchor="middle" x="183" y="-216.5" font-family="Helvetica,sans-Serif" font-size="10.00">eop</text>
</a>
</g>
</g>
<!-- Node1&#45;&gt;Node2 -->
<g id="edge1" class="edge">
<title>Node1&#45;&gt;Node2</title>
<path fill="none" stroke="midnightblue" d="M76.32,-152.63C96.96,-165.59 133.9,-188.79 158.17,-204.04"/>
<polygon fill="midnightblue" stroke="midnightblue" points="156.47,-207.1 166.8,-209.45 160.19,-201.17 156.47,-207.1"/>
</g>
<!-- Node25 -->
<g id="node4" class="node">
<title>Node25</title>
<g id="a_node4"><a xlink:href="time__TT_8f90.html#aac4be73ca07f0d71843391b034a7d20e" target="_top" xlink:title=" ">
<polygon fill="white" stroke="black" points="390.5,-228.5 390.5,-247.5 437.5,-247.5 437.5,-228.5 390.5,-228.5"/>
<text text-anchor="middle" x="414" y="-235.5" font-family="Helvetica,sans-Serif" font-size="10.00">time_tt</text>
</a>
</g>
</g>
<!-- Node1&#45;&gt;Node25 -->
<g id="edge18" class="edge">
<title>Node1&#45;&gt;Node25</title>
<path fill="none" stroke="midnightblue" d="M68.02,-152.75C90.03,-182.32 161.36,-270.45 246,-295 290.39,-307.88 306.87,-311.62 350,-295 370.52,-287.1 388.5,-269.07 399.94,-255.39"/>
<polygon fill="midnightblue" stroke="midnightblue" points="402.69,-257.56 406.19,-247.56 397.22,-253.2 402.69,-257.56"/>
</g>
<!-- Node38 -->
<g id="node9" class="node">
<title>Node38</title>
<g id="a_node9"><a xlink:href="matrix__Rr_8f90.html#ac8734d74fb7ada7605575d3b9d26f2bb" target="_top" xlink:title=" ">
<polygon fill="white" stroke="black" points="156,-38.5 156,-57.5 210,-57.5 210,-38.5 156,-38.5"/>
<text text-anchor="middle" x="183" y="-45.5" font-family="Helvetica,sans-Serif" font-size="10.00">matrix_rr</text>
</a>
</g>
</g>
<!-- Node1&#45;&gt;Node38 -->
<g id="edge9" class="edge">
<title>Node1&#45;&gt;Node38</title>
<path fill="none" stroke="midnightblue" d="M73.49,-133.19C94.34,-116.82 136.42,-83.79 161.61,-64.01"/>
<polygon fill="midnightblue" stroke="midnightblue" points="164.05,-66.54 169.75,-57.61 159.73,-61.04 164.05,-66.54"/>
</g>
<!-- Node41 -->
<g id="node12" class="node">
<title>Node41</title>
<g id="a_node12"><a xlink:href="time__GPS_8f90.html#abc2a33c3ed6bda1d04db6c1e5ae6d0f2" target="_top" xlink:title=" ">
<polygon fill="white" stroke="black" points="386,-152.5 386,-171.5 442,-171.5 442,-152.5 386,-152.5"/>
<text text-anchor="middle" x="414" y="-159.5" font-family="Helvetica,sans-Serif" font-size="10.00">time_gps</text>
</a>
</g>
</g>
<!-- Node1&#45;&gt;Node41 -->
<g id="edge12" class="edge">
<title>Node1&#45;&gt;Node41</title>
<path fill="none" stroke="midnightblue" d="M120.31,-146.2C193.14,-150.13 314.47,-156.68 375.51,-159.98"/>
<polygon fill="midnightblue" stroke="midnightblue" points="375.65,-163.49 385.83,-160.53 376.03,-156.5 375.65,-163.49"/>
</g>
<!-- Node42 -->
<g id="node13" class="node">
<title>Node42</title>
<g id="a_node13"><a xlink:href="time__TAI_8f90.html#a100297f335efa93736f0ef563a5d0de0" target="_top" xlink:title=" ">
<polygon fill="white" stroke="black" points="388.5,-114.5 388.5,-133.5 439.5,-133.5 439.5,-114.5 388.5,-114.5"/>
<text text-anchor="middle" x="414" y="-121.5" font-family="Helvetica,sans-Serif" font-size="10.00">time_tai</text>
</a>
</g>
</g>
<!-- Node1&#45;&gt;Node42 -->
<g id="edge15" class="edge">
<title>Node1&#45;&gt;Node42</title>
<path fill="none" stroke="midnightblue" d="M120.31,-139.8C194.25,-135.81 318.18,-129.12 378.26,-125.88"/>
<polygon fill="midnightblue" stroke="midnightblue" points="378.56,-129.36 388.36,-125.33 378.19,-122.37 378.56,-129.36"/>
</g>
<!-- Node43 -->
<g id="node14" class="node">
<title>Node43</title>
<g id="a_node14"><a xlink:href="time__UTC_8f90.html#a5c5b31c8678ff9da6694a16d7bb9387f" target="_top" xlink:title=" ">
<polygon fill="white" stroke="black" points="387,-76.5 387,-95.5 441,-95.5 441,-76.5 387,-76.5"/>
<text text-anchor="middle" x="414" y="-83.5" font-family="Helvetica,sans-Serif" font-size="10.00">time_utc</text>
</a>
</g>
</g>
<!-- Node1&#45;&gt;Node43 -->
<g id="edge19" class="edge">
<title>Node1&#45;&gt;Node43</title>
<path fill="none" stroke="midnightblue" d="M119.92,-133.46C193.18,-121.6 315.98,-101.71 376.72,-91.87"/>
<polygon fill="midnightblue" stroke="midnightblue" points="377.31,-95.33 386.62,-90.27 376.19,-88.42 377.31,-95.33"/>
</g>
<!-- Node3 -->
<g id="node3" class="node">
<title>Node3</title>
<g id="a_node3"><a xlink:href="crs__trs_8f90.html#ad60041f94ed21d7dccece31ca956443c" target="_top" xlink:title=" ">
<polygon fill="white" stroke="red" points="274.5,-266.5 274.5,-285.5 321.5,-285.5 321.5,-266.5 274.5,-266.5"/>
<text text-anchor="middle" x="298" y="-273.5" font-family="Helvetica,sans-Serif" font-size="10.00">crs_trs</text>
</a>
</g>
</g>
<!-- Node2&#45;&gt;Node3 -->
<g id="edge2" class="edge">
<title>Node2&#45;&gt;Node3</title>
<path fill="none" stroke="midnightblue" d="M197.84,-228.56C210.13,-236.78 228.75,-248.6 246,-257 251.91,-259.88 258.37,-262.59 264.65,-265.03"/>
<polygon fill="midnightblue" stroke="midnightblue" points="263.67,-268.39 274.26,-268.59 266.11,-261.83 263.67,-268.39"/>
</g>
<!-- Node29 -->
<g id="node7" class="node">
<title>Node29</title>
<g id="a_node7"><a xlink:href="namespacem__eop__cor.html#af1a58e51cefaf1a8f938020cd41f03ec" target="_top" xlink:title=" ">
<polygon fill="white" stroke="red" points="246,-228.5 246,-247.5 350,-247.5 350,-228.5 246,-228.5"/>
<text text-anchor="middle" x="298" y="-235.5" font-family="Helvetica,sans-Serif" font-size="10.00">m_eop_cor::eop_cor</text>
</a>
</g>
</g>
<!-- Node2&#45;&gt;Node29 -->
<g id="edge6" class="edge">
<title>Node2&#45;&gt;Node29</title>
<path fill="none" stroke="midnightblue" d="M199.24,-221.56C208.93,-223.19 222.19,-225.42 235.82,-227.71"/>
<polygon fill="midnightblue" stroke="midnightblue" points="235.32,-231.18 245.76,-229.38 236.48,-224.27 235.32,-231.18"/>
</g>
<!-- Node34 -->
<g id="node8" class="node">
<title>Node34</title>
<g id="a_node8"><a xlink:href="namespacem__eop__igu.html#a87fff80e2ab805d1c8b484f4d8760c06" target="_top" xlink:title=" ">
<polygon fill="white" stroke="red" points="247,-190.5 247,-209.5 349,-209.5 349,-190.5 247,-190.5"/>
<text text-anchor="middle" x="298" y="-197.5" font-family="Helvetica,sans-Serif" font-size="10.00">m_eop_igu::eop_igu</text>
</a>
</g>
</g>
<!-- Node2&#45;&gt;Node34 -->
<g id="edge8" class="edge">
<title>Node2&#45;&gt;Node34</title>
<path fill="none" stroke="midnightblue" d="M199.24,-216.44C209.13,-214.77 222.73,-212.49 236.64,-210.15"/>
<polygon fill="midnightblue" stroke="midnightblue" points="237.49,-213.55 246.77,-208.45 236.33,-206.65 237.49,-213.55"/>
</g>
<!-- Node3&#45;&gt;Node25 -->
<g id="edge3" class="edge">
<title>Node3&#45;&gt;Node25</title>
<path fill="none" stroke="midnightblue" d="M321.52,-268.49C338.35,-262.88 361.61,-255.13 380.46,-248.85"/>
<polygon fill="midnightblue" stroke="midnightblue" points="381.75,-252.1 390.13,-245.62 379.54,-245.46 381.75,-252.1"/>
</g>
<!-- Node26 -->
<g id="node5" class="node">
<title>Node26</title>
<g id="a_node5"><a xlink:href="jd2cal_8for.html#a9bed91282551283d85294092fe0cc509" target="_top" xlink:title=" ">
<polygon fill="white" stroke="black" points="478,-152.5 478,-171.5 538,-171.5 538,-152.5 478,-152.5"/>
<text text-anchor="middle" x="508" y="-159.5" font-family="Helvetica,sans-Serif" font-size="10.00">iau_jd2cal</text>
</a>
</g>
</g>
<!-- Node25&#45;&gt;Node26 -->
<g id="edge4" class="edge">
<title>Node25&#45;&gt;Node26</title>
<path fill="none" stroke="midnightblue" d="M426.65,-228.37C442,-215.7 469.19,-193.23 487.65,-177.98"/>
<polygon fill="midnightblue" stroke="midnightblue" points="489.96,-180.61 495.44,-171.55 485.5,-175.22 489.96,-180.61"/>
</g>
<!-- Node27 -->
<g id="node6" class="node">
<title>Node27</title>
<g id="a_node6"><a xlink:href="taiutc_8for.html#a86edd73f696a0968f1600df656bad920" target="_top" xlink:title=" ">
<polygon fill="white" stroke="red" points="487.5,-114.5 487.5,-133.5 528.5,-133.5 528.5,-114.5 487.5,-114.5"/>
<text text-anchor="middle" x="508" y="-121.5" font-family="Helvetica,sans-Serif" font-size="10.00">taiutc</text>
</a>
</g>
</g>
<!-- Node25&#45;&gt;Node27 -->
<g id="edge5" class="edge">
<title>Node25&#45;&gt;Node27</title>
<path fill="none" stroke="midnightblue" d="M419.65,-228.46C428.86,-210.25 450.92,-169.93 478,-143 479.09,-141.91 480.26,-140.85 481.47,-139.82"/>
<polygon fill="midnightblue" stroke="midnightblue" points="483.94,-142.35 489.87,-133.58 479.76,-136.74 483.94,-142.35"/>
</g>
<!-- Node29&#45;&gt;Node25 -->
<g id="edge7" class="edge">
<title>Node29&#45;&gt;Node25</title>
<path fill="none" stroke="midnightblue" d="M350.33,-238C360.55,-238 371.02,-238 380.39,-238"/>
<polygon fill="midnightblue" stroke="midnightblue" points="380.45,-241.5 390.45,-238 380.45,-234.5 380.45,-241.5"/>
</g>
<!-- Node39 -->
<g id="node10" class="node">
<title>Node39</title>
<g id="a_node10"><a xlink:href="R1_8for.html#a790dd7e73934aaad6a8f20558f2a175f" target="_top" xlink:title=" ">
<polygon fill="white" stroke="black" points="283.5,-0.5 283.5,-19.5 312.5,-19.5 312.5,-0.5 283.5,-0.5"/>
<text text-anchor="middle" x="298" y="-7.5" font-family="Helvetica,sans-Serif" font-size="10.00">r1</text>
</a>
</g>
</g>
<!-- Node38&#45;&gt;Node39 -->
<g id="edge10" class="edge">
<title>Node38&#45;&gt;Node39</title>
<path fill="none" stroke="midnightblue" d="M210.21,-39.19C229.37,-32.74 255.14,-24.08 273.61,-17.87"/>
<polygon fill="midnightblue" stroke="midnightblue" points="274.92,-21.12 283.29,-14.61 272.69,-14.48 274.92,-21.12"/>
</g>
<!-- Node40 -->
<g id="node11" class="node">
<title>Node40</title>
<g id="a_node11"><a xlink:href="R3_8for.html#a8736a6c65234edc13681ad51dff7ed1d" target="_top" xlink:title=" ">
<polygon fill="white" stroke="black" points="283.5,-38.5 283.5,-57.5 312.5,-57.5 312.5,-38.5 283.5,-38.5"/>
<text text-anchor="middle" x="298" y="-45.5" font-family="Helvetica,sans-Serif" font-size="10.00">r3</text>
</a>
</g>
</g>
<!-- Node38&#45;&gt;Node40 -->
<g id="edge11" class="edge">
<title>Node38&#45;&gt;Node40</title>
<path fill="none" stroke="midnightblue" d="M210.21,-48C229.19,-48 254.66,-48 273.09,-48"/>
<polygon fill="midnightblue" stroke="midnightblue" points="273.29,-51.5 283.29,-48 273.29,-44.5 273.29,-51.5"/>
</g>
<!-- Node41&#45;&gt;Node26 -->
<g id="edge13" class="edge">
<title>Node41&#45;&gt;Node26</title>
<path fill="none" stroke="midnightblue" d="M442.11,-162C450.09,-162 459,-162 467.6,-162"/>
<polygon fill="midnightblue" stroke="midnightblue" points="467.84,-165.5 477.84,-162 467.84,-158.5 467.84,-165.5"/>
</g>
<!-- Node41&#45;&gt;Node27 -->
<g id="edge14" class="edge">
<title>Node41&#45;&gt;Node27</title>
<path fill="none" stroke="midnightblue" d="M438.22,-152.41C450.26,-147.44 465.1,-141.31 477.9,-136.02"/>
<polygon fill="midnightblue" stroke="midnightblue" points="479.31,-139.22 487.22,-132.17 476.64,-132.75 479.31,-139.22"/>
</g>
<!-- Node42&#45;&gt;Node26 -->
<g id="edge16" class="edge">
<title>Node42&#45;&gt;Node26</title>
<path fill="none" stroke="midnightblue" d="M438.22,-133.59C449.22,-138.13 462.55,-143.64 474.54,-148.59"/>
<polygon fill="midnightblue" stroke="midnightblue" points="473.21,-151.83 483.79,-152.41 475.89,-145.36 473.21,-151.83"/>
</g>
<!-- Node42&#45;&gt;Node27 -->
<g id="edge17" class="edge">
<title>Node42&#45;&gt;Node27</title>
<path fill="none" stroke="midnightblue" d="M439.65,-124C451.18,-124 465.01,-124 477.12,-124"/>
<polygon fill="midnightblue" stroke="midnightblue" points="477.23,-127.5 487.23,-124 477.23,-120.5 477.23,-127.5"/>
</g>
<!-- Node43&#45;&gt;Node26 -->
<g id="edge20" class="edge">
<title>Node43&#45;&gt;Node26</title>
<path fill="none" stroke="midnightblue" d="M429.69,-95.55C433.8,-98.43 438.18,-101.7 442,-105 459.6,-120.21 460.15,-128.08 478,-143 479.37,-144.14 480.8,-145.27 482.28,-146.38"/>
<polygon fill="midnightblue" stroke="midnightblue" points="480.67,-149.53 490.87,-152.38 484.68,-143.79 480.67,-149.53"/>
</g>
<!-- Node43&#45;&gt;Node27 -->
<g id="edge21" class="edge">
<title>Node43&#45;&gt;Node27</title>
<path fill="none" stroke="midnightblue" d="M438.22,-95.59C450.26,-100.56 465.1,-106.69 477.9,-111.98"/>
<polygon fill="midnightblue" stroke="midnightblue" points="476.64,-115.25 487.22,-115.83 479.31,-108.78 476.64,-115.25"/>
</g>
</g>
</svg>
