<?xml version="1.0" encoding="UTF-8" standalone="no"?>
<!DOCTYPE svg PUBLIC "-//W3C//DTD SVG 1.1//EN"
 "http://www.w3.org/Graphics/SVG/1.1/DTD/svg11.dtd">
<!-- Generated by graphviz version 2.50.0 (20220203.2022)
 -->
<!-- Title: m_ecom_init::ecom_init Pages: 1 -->
<svg width="371pt" height="122pt"
 viewBox="0.00 0.00 371.00 122.00" xmlns="http://www.w3.org/2000/svg" xmlns:xlink="http://www.w3.org/1999/xlink">
<g id="graph0" class="graph" transform="scale(1 1) rotate(0) translate(4 118)">
<title>m_ecom_init::ecom_init</title>
<polygon fill="white" stroke="transparent" points="-4,4 -4,-118 367,-118 367,4 -4,4"/>
<!-- Node1 -->
<g id="node1" class="node">
<title>Node1</title>
<g id="a_node1"><a xlink:title=" ">
<polygon fill="#bfbfbf" stroke="black" points="0,-38.5 0,-57.5 119,-57.5 119,-38.5 0,-38.5"/>
<text text-anchor="middle" x="59.5" y="-45.5" font-family="Helvetica,sans-Serif" font-size="10.00">m_ecom_init::ecom_init</text>
</a>
</g>
</g>
<!-- Node2 -->
<g id="node2" class="node">
<title>Node2</title>
<g id="a_node2"><a xlink:href="namespacepod__yaml.html#a7eec6e3f0fd68e255161a8184dfe05ab" target="_top" xlink:title=" ">
<polygon fill="white" stroke="black" points="155,-76.5 155,-95.5 294,-95.5 294,-76.5 155,-76.5"/>
<text text-anchor="middle" x="224.5" y="-83.5" font-family="Helvetica,sans-Serif" font-size="10.00">pod_yaml::new_prn_override</text>
</a>
</g>
</g>
<!-- Node1&#45;&gt;Node2 -->
<g id="edge1" class="edge">
<title>Node1&#45;&gt;Node2</title>
<path fill="none" stroke="midnightblue" d="M101.63,-57.59C123.24,-62.63 149.91,-68.84 172.79,-74.18"/>
<polygon fill="midnightblue" stroke="midnightblue" points="172.13,-77.62 182.66,-76.48 173.72,-70.8 172.13,-77.62"/>
</g>
<!-- Node3 -->
<g id="node3" class="node">
<title>Node3</title>
<g id="a_node3"><a xlink:href="sinex_8cpp.html#a06fabc81a2cc41dfee260450a527ad2d" target="_top" xlink:title=" ">
<polygon fill="white" stroke="black" points="330,-38.5 330,-57.5 363,-57.5 363,-38.5 330,-38.5"/>
<text text-anchor="middle" x="346.5" y="-45.5" font-family="Helvetica,sans-Serif" font-size="10.00">trim</text>
</a>
</g>
</g>
<!-- Node1&#45;&gt;Node3 -->
<g id="edge4" class="edge">
<title>Node1&#45;&gt;Node3</title>
<path fill="none" stroke="midnightblue" d="M119.21,-48C180.78,-48 274.71,-48 319.71,-48"/>
<polygon fill="midnightblue" stroke="midnightblue" points="319.8,-51.5 329.8,-48 319.8,-44.5 319.8,-51.5"/>
</g>
<!-- Node4 -->
<g id="node4" class="node">
<title>Node4</title>
<g id="a_node4"><a xlink:href="write__prmfile__init0_8f95.html#af45f9c34f973d7a7a2ca04a752ce74c5" target="_top" xlink:title=" ">
<polygon fill="white" stroke="black" points="177,-0.5 177,-19.5 272,-19.5 272,-0.5 177,-0.5"/>
<text text-anchor="middle" x="224.5" y="-7.5" font-family="Helvetica,sans-Serif" font-size="10.00">write_prmfile_init0</text>
</a>
</g>
</g>
<!-- Node1&#45;&gt;Node4 -->
<g id="edge5" class="edge">
<title>Node1&#45;&gt;Node4</title>
<path fill="none" stroke="midnightblue" d="M101.63,-38.41C123.24,-33.37 149.91,-27.16 172.79,-21.82"/>
<polygon fill="midnightblue" stroke="midnightblue" points="173.72,-25.2 182.66,-19.52 172.13,-18.38 173.72,-25.2"/>
</g>
<!-- Node2&#45;&gt;Node2 -->
<g id="edge2" class="edge">
<title>Node2&#45;&gt;Node2</title>
<path fill="none" stroke="midnightblue" d="M205.7,-95.76C196.55,-104.57 202.82,-114 224.5,-114 238.39,-114 245.96,-110.13 247.19,-105.03"/>
<polygon fill="midnightblue" stroke="midnightblue" points="250.4,-103.62 243.3,-95.76 243.94,-106.33 250.4,-103.62"/>
</g>
<!-- Node2&#45;&gt;Node3 -->
<g id="edge3" class="edge">
<title>Node2&#45;&gt;Node3</title>
<path fill="none" stroke="midnightblue" d="M255.78,-76.41C275.7,-70.1 301.46,-61.94 320.27,-55.99"/>
<polygon fill="midnightblue" stroke="midnightblue" points="321.44,-59.29 329.92,-52.93 319.33,-52.62 321.44,-59.29"/>
</g>
<!-- Node4&#45;&gt;Node3 -->
<g id="edge6" class="edge">
<title>Node4&#45;&gt;Node3</title>
<path fill="none" stroke="midnightblue" d="M255.78,-19.59C275.7,-25.9 301.46,-34.06 320.27,-40.01"/>
<polygon fill="midnightblue" stroke="midnightblue" points="319.33,-43.38 329.92,-43.07 321.44,-36.71 319.33,-43.38"/>
</g>
</g>
</svg>
