<?xml version="1.0" encoding="UTF-8" standalone="no"?>
<!DOCTYPE svg PUBLIC "-//W3C//DTD SVG 1.1//EN"
 "http://www.w3.org/Graphics/SVG/1.1/DTD/svg11.dtd">
<!-- Generated by graphviz version 2.50.0 (20220203.2022)
 -->
<!-- Title: better_enums::_constant_length Pages: 1 -->
<svg width="303pt" height="57pt"
 viewBox="0.00 0.00 303.00 57.00" xmlns="http://www.w3.org/2000/svg" xmlns:xlink="http://www.w3.org/1999/xlink">
<g id="graph0" class="graph" transform="scale(1 1) rotate(0) translate(4 53)">
<title>better_enums::_constant_length</title>
<polygon fill="white" stroke="transparent" points="-4,4 -4,-53 299,-53 299,4 -4,4"/>
<!-- Node1 -->
<g id="node1" class="node">
<title>Node1</title>
<g id="a_node1"><a xlink:title=" ">
<polygon fill="#bfbfbf" stroke="black" points="0,-0.5 0,-30.5 123,-30.5 123,-0.5 0,-0.5"/>
<text text-anchor="start" x="8" y="-18.5" font-family="Helvetica,sans-Serif" font-size="10.00">better_enums::_constant</text>
<text text-anchor="middle" x="61.5" y="-7.5" font-family="Helvetica,sans-Serif" font-size="10.00">_length</text>
</a>
</g>
</g>
<!-- Node1&#45;&gt;Node1 -->
<g id="edge1" class="edge">
<title>Node1&#45;&gt;Node1</title>
<path fill="none" stroke="midnightblue" d="M32.92,-30.66C26.03,-40.06 35.55,-49 61.5,-49 77.31,-49 87.02,-45.68 90.64,-40.96"/>
<polygon fill="midnightblue" stroke="midnightblue" points="94.12,-40.45 90.08,-30.66 87.13,-40.83 94.12,-40.45"/>
</g>
<!-- Node2 -->
<g id="node2" class="node">
<title>Node2</title>
<g id="a_node2"><a xlink:href="namespacebetter__enums.html#a30503c6d0e4871dfa52fde9bb515903f" target="_top" xlink:title=" ">
<polygon fill="white" stroke="black" points="159,-6 159,-25 295,-25 295,-6 159,-6"/>
<text text-anchor="middle" x="227" y="-13" font-family="Helvetica,sans-Serif" font-size="10.00">better_enums::_ends_name</text>
</a>
</g>
</g>
<!-- Node1&#45;&gt;Node2 -->
<g id="edge2" class="edge">
<title>Node1&#45;&gt;Node2</title>
<path fill="none" stroke="midnightblue" d="M123.38,-15.5C131.58,-15.5 140.08,-15.5 148.51,-15.5"/>
<polygon fill="midnightblue" stroke="midnightblue" points="148.75,-19 158.75,-15.5 148.75,-12 148.75,-19"/>
</g>
<!-- Node2&#45;&gt;Node2 -->
<g id="edge3" class="edge">
<title>Node2&#45;&gt;Node2</title>
<path fill="none" stroke="midnightblue" d="M201.72,-25.26C189.43,-34.07 197.85,-43.5 227,-43.5 246.58,-43.5 256.81,-39.24 257.69,-33.77"/>
<polygon fill="midnightblue" stroke="midnightblue" points="260.59,-31.82 252.28,-25.26 254.69,-35.57 260.59,-31.82"/>
</g>
</g>
</svg>
