<?xml version="1.0" encoding="UTF-8" standalone="no"?>
<!DOCTYPE svg PUBLIC "-//W3C//DTD SVG 1.1//EN"
 "http://www.w3.org/Graphics/SVG/1.1/DTD/svg11.dtd">
<!-- Generated by graphviz version 2.50.0 (20220203.2022)
 -->
<!-- Title: yaml_settings::option Pages: 1 -->
<!--zoomable 496 -->
<svg id="main" version="1.1" xmlns="http://www.w3.org/2000/svg" xmlns:xlink="http://www.w3.org/1999/xlink" xml:space="preserve" onload="init(evt)">
<style type="text/css"><![CDATA[
.edge:hover path { stroke: red; }
.edge:hover polygon { stroke: red; fill: red; }
]]></style>
<script type="text/javascript"><![CDATA[
var edges = document.getElementsByTagName('g');
if (edges && edges.length) {
  for (var i=0;i<edges.length;i++) {
    if (edges[i].id.substr(0,4)=='edge') {
      edges[i].setAttribute('class','edge');
    }
  }
}
]]></script>
        <defs>
                <circle id="rim" cx="0" cy="0" r="7"/>
                <circle id="rim2" cx="0" cy="0" r="3.5"/>
                <g id="zoomPlus">
                        <use xlink:href="#rim" fill="#404040">
                                <set attributeName="fill" to="#808080" begin="zoomplus.mouseover" end="zoomplus.mouseout"/>
                        </use>
                        <path d="M-4,0h8M0,-4v8" fill="none" stroke="white" stroke-width="1.5" pointer-events="none"/>
                </g>
                <g id="zoomMin">
                        <use xlink:href="#rim" fill="#404040">
                                <set attributeName="fill" to="#808080" begin="zoomminus.mouseover" end="zoomminus.mouseout"/>
                        </use>
                        <path d="M-4,0h8" fill="none" stroke="white" stroke-width="1.5" pointer-events="none"/>
                </g>
                <g id="dirArrow">
                        <path fill="none" stroke="white" stroke-width="1.5" d="M0,-3.0v7 M-2.5,-0.5L0,-3.0L2.5,-0.5"/>
                </g>
               <g id="resetDef">
                       <use xlink:href="#rim2" fill="#404040">
                               <set attributeName="fill" to="#808080" begin="reset.mouseover" end="reset.mouseout"/>
                       </use>
               </g>
        </defs>

<script type="text/javascript">
var viewWidth = 889;
var viewHeight = 496;
var sectionId = 'dynsection-0';
</script>
<script xlink:href="svgpan.js"/>
<svg id="graph" class="graph">
<g id="viewport">
<title>yaml_settings::option</title>
<polygon fill="white" stroke="transparent" points="-4,4 -4,-492 885,-492 885,4 -4,4"/>
<!-- Node1 -->
<g id="node1" class="node">
<title>Node1</title>
<g id="a_node1"><a xlink:title=" ">
<polygon fill="#bfbfbf" stroke="black" points="0,-423.5 0,-442.5 107,-442.5 107,-423.5 0,-423.5"/>
<text text-anchor="middle" x="53.5" y="-430.5" font-family="Helvetica,sans-Serif" font-size="10.00">yaml_settings::option</text>
</a>
</g>
</g>
<!-- Node1&#45;&gt;Node1 -->
<g id="edge16" class="edge">
<title>Node1&#45;&gt;Node1</title>
<path fill="none" stroke="midnightblue" d="M31.92,-442.76C21.42,-451.57 28.62,-461 53.5,-461 69.44,-461 78.12,-457.13 79.54,-452.03"/>
<polygon fill="midnightblue" stroke="midnightblue" points="82.57,-450.25 75.08,-442.76 76.26,-453.29 82.57,-450.25"/>
</g>
<!-- Node2 -->
<g id="node2" class="node">
<title>Node2</title>
<g id="a_node2"><a xlink:href="minimumConstraints_8cpp.html#a6644baa0ee22e2cb52a4975b7d8f218e" target="_top" xlink:title=" ">
<polygon fill="white" stroke="black" points="462,-259.5 462,-278.5 518,-278.5 518,-259.5 462,-259.5"/>
<text text-anchor="middle" x="490" y="-266.5" font-family="Helvetica,sans-Serif" font-size="10.00">minimum</text>
</a>
</g>
</g>
<!-- Node1&#45;&gt;Node2 -->
<g id="edge1" class="edge">
<title>Node1&#45;&gt;Node2</title>
<path fill="none" stroke="midnightblue" d="M64.79,-423.17C95.15,-394.93 188.16,-313.58 283,-283 339.77,-264.69 409.77,-264.27 451.82,-266.22"/>
<polygon fill="midnightblue" stroke="midnightblue" points="451.71,-269.72 461.88,-266.75 452.08,-262.73 451.71,-269.72"/>
</g>
<!-- Node28 -->
<g id="node15" class="node">
<title>Node28</title>
<g id="a_node15"><a xlink:href="namespaceyaml__settings.html#adc1e77e299c991421bd7ed4a2a8726e0" target="_top" xlink:title=" ">
<polygon fill="white" stroke="black" points="437,-380 437,-410 543,-410 543,-380 437,-380"/>
<text text-anchor="start" x="445" y="-398" font-family="Helvetica,sans-Serif" font-size="10.00">yaml_settings::report</text>
<text text-anchor="middle" x="490" y="-387" font-family="Helvetica,sans-Serif" font-size="10.00">_error</text>
</a>
</g>
</g>
<!-- Node1&#45;&gt;Node28 -->
<g id="edge17" class="edge">
<title>Node1&#45;&gt;Node28</title>
<path fill="none" stroke="midnightblue" d="M107.17,-430.81C175.2,-427.64 297.2,-420.83 401,-409 409.4,-408.04 418.22,-406.86 426.9,-405.58"/>
<polygon fill="midnightblue" stroke="midnightblue" points="427.62,-409.01 436.99,-404.06 426.58,-402.09 427.62,-409.01"/>
</g>
<!-- Node29 -->
<g id="node16" class="node">
<title>Node29</title>
<g id="a_node16"><a xlink:href="sinex_8cpp.html#a06fabc81a2cc41dfee260450a527ad2d" target="_top" xlink:title=" ">
<polygon fill="white" stroke="black" points="636,-468.5 636,-487.5 669,-487.5 669,-468.5 636,-468.5"/>
<text text-anchor="middle" x="652.5" y="-475.5" font-family="Helvetica,sans-Serif" font-size="10.00">trim</text>
</a>
</g>
</g>
<!-- Node1&#45;&gt;Node29 -->
<g id="edge19" class="edge">
<title>Node1&#45;&gt;Node29</title>
<path fill="none" stroke="midnightblue" d="M107.38,-437.19C119.11,-438.12 131.48,-439.09 143,-440 273.66,-450.28 306.29,-453.32 437,-463 505.2,-468.05 585.64,-473.56 625.88,-476.28"/>
<polygon fill="midnightblue" stroke="midnightblue" points="625.67,-479.77 635.89,-476.95 626.15,-472.79 625.67,-479.77"/>
</g>
<!-- Node30 -->
<g id="node17" class="node">
<title>Node30</title>
<g id="a_node17"><a xlink:href="namespaceyaml__settings.html#a272015627b7da584c91ef06808218070" target="_top" xlink:title=" ">
<polygon fill="white" stroke="black" points="143,-380 143,-410 247,-410 247,-380 143,-380"/>
<text text-anchor="start" x="151" y="-398" font-family="Helvetica,sans-Serif" font-size="10.00">yaml_settings::type</text>
<text text-anchor="middle" x="195" y="-387" font-family="Helvetica,sans-Serif" font-size="10.00">_real_setting_create</text>
</a>
</g>
</g>
<!-- Node1&#45;&gt;Node30 -->
<g id="edge20" class="edge">
<title>Node1&#45;&gt;Node30</title>
<path fill="none" stroke="midnightblue" d="M89.7,-423.41C102.94,-419.8 118.41,-415.59 133.31,-411.53"/>
<polygon fill="midnightblue" stroke="midnightblue" points="134.27,-414.9 143,-408.89 132.43,-408.15 134.27,-414.9"/>
</g>
<!-- Node3 -->
<g id="node3" class="node">
<title>Node3</title>
<g id="a_node3"><a xlink:href="structKFMeasEntry.html#a5af30258b0bcd703468c0d0ec2ed6d54" target="_top" xlink:title="Adds a design matrix entry for this measurement.">
<polygon fill="white" stroke="black" points="582.5,-354.5 582.5,-373.5 722.5,-373.5 722.5,-354.5 582.5,-354.5"/>
<text text-anchor="middle" x="652.5" y="-361.5" font-family="Helvetica,sans-Serif" font-size="10.00">KFMeasEntry::addDsgnEntry</text>
</a>
</g>
</g>
<!-- Node2&#45;&gt;Node3 -->
<g id="edge2" class="edge">
<title>Node2&#45;&gt;Node3</title>
<path fill="none" stroke="midnightblue" d="M499.45,-278.76C514.04,-294.97 545.59,-327.42 579,-345 583.31,-347.27 587.9,-349.28 592.61,-351.06"/>
<polygon fill="midnightblue" stroke="midnightblue" points="591.79,-354.47 602.38,-354.39 594.05,-347.85 591.79,-354.47"/>
</g>
<!-- Node4 -->
<g id="node4" class="node">
<title>Node4</title>
<g id="a_node4"><a xlink:href="structKFState.html#abae5c2435fa3ca6bb4396cd8a5363f85" target="_top" xlink:title="Combine a list of KFMeasEntrys into a single KFMeas object for used in the filter.">
<polygon fill="white" stroke="red" points="579,-316.5 579,-335.5 726,-335.5 726,-316.5 579,-316.5"/>
<text text-anchor="middle" x="652.5" y="-323.5" font-family="Helvetica,sans-Serif" font-size="10.00">KFState::combineKFMeasList</text>
</a>
</g>
</g>
<!-- Node2&#45;&gt;Node4 -->
<g id="edge3" class="edge">
<title>Node2&#45;&gt;Node4</title>
<path fill="none" stroke="midnightblue" d="M510.93,-278.64C528.55,-286.91 555.09,-298.76 579,-307 585.93,-309.39 593.33,-311.65 600.65,-313.72"/>
<polygon fill="midnightblue" stroke="midnightblue" points="599.96,-317.16 610.53,-316.42 601.81,-310.41 599.96,-317.16"/>
</g>
<!-- Node6 -->
<g id="node5" class="node">
<title>Node6</title>
<g id="a_node5"><a xlink:href="structKFState.html#a84691f6bbbe3cdccaa14722995a61e1b" target="_top" xlink:title="Returns the value and variance of a state within the kalman filter object.">
<polygon fill="white" stroke="black" points="598.5,-278.5 598.5,-297.5 706.5,-297.5 706.5,-278.5 598.5,-278.5"/>
<text text-anchor="middle" x="652.5" y="-285.5" font-family="Helvetica,sans-Serif" font-size="10.00">KFState::getKFValue</text>
</a>
</g>
</g>
<!-- Node2&#45;&gt;Node6 -->
<g id="edge4" class="edge">
<title>Node2&#45;&gt;Node6</title>
<path fill="none" stroke="midnightblue" d="M518.23,-272.22C537.49,-274.5 564.12,-277.66 588.52,-280.54"/>
<polygon fill="midnightblue" stroke="midnightblue" points="588.11,-284.02 598.45,-281.72 588.93,-277.07 588.11,-284.02"/>
</g>
<!-- Node7 -->
<g id="node6" class="node">
<title>Node7</title>
<g id="a_node6"><a xlink:href="structACSConfig.html#a92bff361b02a9eb9de0296f29e7e1091" target="_top" xlink:title="Set minimum constraint options for a specific receiver using a hierarchy of sources.">
<polygon fill="white" stroke="red" points="584.5,-240.5 584.5,-259.5 720.5,-259.5 720.5,-240.5 584.5,-240.5"/>
<text text-anchor="middle" x="652.5" y="-247.5" font-family="Helvetica,sans-Serif" font-size="10.00">ACSConfig::getMinConOpts</text>
</a>
</g>
</g>
<!-- Node2&#45;&gt;Node7 -->
<g id="edge5" class="edge">
<title>Node2&#45;&gt;Node7</title>
<path fill="none" stroke="midnightblue" d="M518.23,-265.78C533.76,-263.94 554.09,-261.53 574.17,-259.15"/>
<polygon fill="midnightblue" stroke="midnightblue" points="574.78,-262.61 584.3,-257.95 573.96,-255.65 574.78,-262.61"/>
</g>
<!-- Node11 -->
<g id="node7" class="node">
<title>Node11</title>
<g id="a_node7"><a xlink:href="structKFState.html#a34fe78e0ab7a8f1d122ceabddc29b207" target="_top" xlink:title="Clears and initialises the state transition matrix to identity at the beginning of an epoch.">
<polygon fill="white" stroke="black" points="762,-411.5 762,-430.5 881,-430.5 881,-411.5 762,-411.5"/>
<text text-anchor="middle" x="821.5" y="-418.5" font-family="Helvetica,sans-Serif" font-size="10.00">KFState::initFilterEpoch</text>
</a>
</g>
</g>
<!-- Node2&#45;&gt;Node11 -->
<g id="edge6" class="edge">
<title>Node2&#45;&gt;Node11</title>
<path fill="none" stroke="midnightblue" d="M499.57,-278.59C510.62,-291.28 529.95,-314.67 543,-337 563.49,-372.07 545.09,-398.64 579,-421 640.2,-461.35 730.45,-446.59 781.53,-433.17"/>
<polygon fill="midnightblue" stroke="midnightblue" points="782.48,-436.54 791.2,-430.52 780.63,-429.78 782.48,-436.54"/>
</g>
<!-- Node12 -->
<g id="node8" class="node">
<title>Node12</title>
<g id="a_node8"><a xlink:href="structKFState.html#a5b591c7386c7fb734067424a097ca118" target="_top" xlink:title="Kalman filter.">
<polygon fill="white" stroke="red" points="610.5,-164.5 610.5,-183.5 694.5,-183.5 694.5,-164.5 610.5,-164.5"/>
<text text-anchor="middle" x="652.5" y="-171.5" font-family="Helvetica,sans-Serif" font-size="10.00">KFState::kFilter</text>
</a>
</g>
</g>
<!-- Node2&#45;&gt;Node12 -->
<g id="edge7" class="edge">
<title>Node2&#45;&gt;Node12</title>
<path fill="none" stroke="midnightblue" d="M500.44,-259.41C515.7,-244.41 547.29,-215.29 579,-198 586.95,-193.66 595.82,-189.93 604.55,-186.79"/>
<polygon fill="midnightblue" stroke="midnightblue" points="605.94,-190.02 614.29,-183.5 603.7,-183.39 605.94,-190.02"/>
</g>
<!-- Node14 -->
<g id="node9" class="node">
<title>Node14</title>
<g id="a_node9"><a xlink:href="structKFState.html#ae1fc274c403b77dc814ed90763b4dea1" target="_top" xlink:title="Least squares estimator for new kalman filter states.">
<polygon fill="white" stroke="red" points="591.5,-115 591.5,-145 713.5,-145 713.5,-115 591.5,-115"/>
<text text-anchor="start" x="599.5" y="-133" font-family="Helvetica,sans-Serif" font-size="10.00">KFState::leastSquareInit</text>
<text text-anchor="middle" x="652.5" y="-122" font-family="Helvetica,sans-Serif" font-size="10.00">States</text>
</a>
</g>
</g>
<!-- Node2&#45;&gt;Node14 -->
<g id="edge8" class="edge">
<title>Node2&#45;&gt;Node14</title>
<path fill="none" stroke="midnightblue" d="M495.96,-259.21C507.52,-237.34 538.38,-184.17 579,-155 581.65,-153.1 584.46,-151.33 587.37,-149.69"/>
<polygon fill="midnightblue" stroke="midnightblue" points="589.01,-152.78 596.35,-145.14 585.84,-146.54 589.01,-152.78"/>
</g>
<!-- Node16 -->
<g id="node10" class="node">
<title>Node16</title>
<g id="a_node10"><a xlink:href="structKFState.html#a6b83754311ce0a082153ebe40ee63e15" target="_top" xlink:title="Output keys and states in human readable format.">
<polygon fill="white" stroke="red" points="596,-76.5 596,-95.5 709,-95.5 709,-76.5 596,-76.5"/>
<text text-anchor="middle" x="652.5" y="-83.5" font-family="Helvetica,sans-Serif" font-size="10.00">KFState::outputStates</text>
</a>
</g>
</g>
<!-- Node2&#45;&gt;Node16 -->
<g id="edge9" class="edge">
<title>Node2&#45;&gt;Node16</title>
<path fill="none" stroke="midnightblue" d="M493.24,-259.49C500.39,-231.25 525.45,-147.19 579,-105 581.43,-103.09 584.03,-101.37 586.74,-99.82"/>
<polygon fill="midnightblue" stroke="midnightblue" points="588.31,-102.95 595.77,-95.44 585.25,-96.66 588.31,-102.95"/>
</g>
<!-- Node21 -->
<g id="node11" class="node">
<title>Node21</title>
<g id="a_node11"><a xlink:href="structKFMeasEntry.html#a1054abe38550bcd614c1a3c1afe752ee" target="_top" xlink:title="Adds the measurement noise entry for this measurement.">
<polygon fill="white" stroke="black" points="593,-38.5 593,-57.5 712,-57.5 712,-38.5 593,-38.5"/>
<text text-anchor="middle" x="652.5" y="-45.5" font-family="Helvetica,sans-Serif" font-size="10.00">KFMeasEntry::setNoise</text>
</a>
</g>
</g>
<!-- Node2&#45;&gt;Node21 -->
<g id="edge10" class="edge">
<title>Node2&#45;&gt;Node21</title>
<path fill="none" stroke="midnightblue" d="M492.24,-259.23C496.92,-226.61 516.53,-120.49 579,-67 580.99,-65.3 583.11,-63.74 585.34,-62.33"/>
<polygon fill="midnightblue" stroke="midnightblue" points="587.18,-65.31 594.36,-57.52 583.89,-59.14 587.18,-65.31"/>
</g>
<!-- Node22 -->
<g id="node12" class="node">
<title>Node22</title>
<g id="a_node12"><a xlink:href="structKFMeasEntry.html#a56ed46a7048dcd7e87e75eebc342dc7d" target="_top" xlink:title="Adds the actual measurement value for this measurement.">
<polygon fill="white" stroke="black" points="593.5,-0.5 593.5,-19.5 711.5,-19.5 711.5,-0.5 593.5,-0.5"/>
<text text-anchor="middle" x="652.5" y="-7.5" font-family="Helvetica,sans-Serif" font-size="10.00">KFMeasEntry::setValue</text>
</a>
</g>
</g>
<!-- Node2&#45;&gt;Node22 -->
<g id="edge11" class="edge">
<title>Node2&#45;&gt;Node22</title>
<path fill="none" stroke="midnightblue" d="M491.51,-259.01C493.93,-222.36 507.41,-94.08 579,-29 580.72,-27.44 582.56,-26 584.48,-24.67"/>
<polygon fill="midnightblue" stroke="midnightblue" points="586.45,-27.58 593.4,-19.59 582.98,-21.5 586.45,-27.58"/>
</g>
<!-- Node23 -->
<g id="node13" class="node">
<title>Node23</title>
<g id="a_node13"><a xlink:href="algebraTrace_8hpp.html#a912bbc3ba390c6b3a01f7cae26a53588" target="_top" xlink:title="Output filter state to a file for later reading.">
<polygon fill="white" stroke="red" points="781,-297.5 781,-316.5 862,-316.5 862,-297.5 781,-297.5"/>
<text text-anchor="middle" x="821.5" y="-304.5" font-family="Helvetica,sans-Serif" font-size="10.00">spitFilterToFile</text>
</a>
</g>
</g>
<!-- Node2&#45;&gt;Node23 -->
<g id="edge12" class="edge">
<title>Node2&#45;&gt;Node23</title>
<path fill="none" stroke="midnightblue" d="M507.52,-259.43C524.72,-250.05 552.76,-236.42 579,-231 642.98,-217.78 664.38,-209.29 726,-231 759.04,-242.64 789.05,-271.25 806.01,-289.86"/>
<polygon fill="midnightblue" stroke="midnightblue" points="803.41,-292.2 812.65,-297.37 808.65,-287.56 803.41,-292.2"/>
</g>
<!-- Node26 -->
<g id="node14" class="node">
<title>Node26</title>
<g id="a_node14"><a xlink:href="structKFState.html#a170d9c3a01bee9ec1f7264615b087c58" target="_top" xlink:title="Add process noise and dynamics to filter object according to time gap.">
<polygon fill="white" stroke="red" points="591.5,-392.5 591.5,-411.5 713.5,-411.5 713.5,-392.5 591.5,-392.5"/>
<text text-anchor="middle" x="652.5" y="-399.5" font-family="Helvetica,sans-Serif" font-size="10.00">KFState::stateTransition</text>
</a>
</g>
</g>
<!-- Node2&#45;&gt;Node26 -->
<g id="edge13" class="edge">
<title>Node2&#45;&gt;Node26</title>
<path fill="none" stroke="midnightblue" d="M498.37,-278.63C519.29,-305.96 577.63,-382.09 579,-383 582.11,-385.06 585.44,-386.9 588.89,-388.54"/>
<polygon fill="midnightblue" stroke="midnightblue" points="587.68,-391.83 598.26,-392.43 590.36,-385.36 587.68,-391.83"/>
</g>
<!-- Node26&#45;&gt;Node11 -->
<g id="edge14" class="edge">
<title>Node26&#45;&gt;Node11</title>
<path fill="none" stroke="midnightblue" d="M713.79,-408.86C726.18,-410.27 739.3,-411.76 751.95,-413.2"/>
<polygon fill="midnightblue" stroke="midnightblue" points="751.64,-416.69 761.97,-414.34 752.43,-409.73 751.64,-416.69"/>
</g>
<!-- Node26&#45;&gt;Node23 -->
<g id="edge15" class="edge">
<title>Node26&#45;&gt;Node23</title>
<path fill="none" stroke="midnightblue" d="M701.74,-392.41C710.06,-389.9 718.45,-386.81 726,-383 756.49,-367.63 786.27,-341.24 804.01,-323.95"/>
<polygon fill="midnightblue" stroke="midnightblue" points="806.65,-326.26 811.27,-316.73 801.71,-321.3 806.65,-326.26"/>
</g>
<!-- Node28&#45;&gt;Node29 -->
<g id="edge18" class="edge">
<title>Node28&#45;&gt;Node29</title>
<path fill="none" stroke="midnightblue" d="M519.02,-410.1C526.92,-414.65 535.43,-419.82 543,-425 559.95,-436.61 560.96,-444.17 579,-454 593.8,-462.07 611.78,-468.04 626.14,-472.01"/>
<polygon fill="midnightblue" stroke="midnightblue" points="625.29,-475.41 635.85,-474.55 627.06,-468.63 625.29,-475.41"/>
</g>
<!-- Node30&#45;&gt;Node2 -->
<g id="edge21" class="edge">
<title>Node30&#45;&gt;Node2</title>
<path fill="none" stroke="midnightblue" d="M211.01,-379.93C227.38,-364.32 254.99,-340.24 283,-326 338.31,-297.89 409.26,-282.18 451.81,-274.67"/>
<polygon fill="midnightblue" stroke="midnightblue" points="452.47,-278.11 461.73,-272.97 451.29,-271.21 452.47,-278.11"/>
</g>
<!-- Node30&#45;&gt;Node28 -->
<g id="edge22" class="edge">
<title>Node30&#45;&gt;Node28</title>
<path fill="none" stroke="midnightblue" d="M247.04,-395C296.94,-395 373.03,-395 426.53,-395"/>
<polygon fill="midnightblue" stroke="midnightblue" points="426.58,-398.5 436.58,-395 426.58,-391.5 426.58,-398.5"/>
</g>
<!-- Node30&#45;&gt;Node29 -->
<g id="edge23" class="edge">
<title>Node30&#45;&gt;Node29</title>
<path fill="none" stroke="midnightblue" d="M247.37,-404.36C344.74,-422.1 552.95,-460.04 625.74,-473.31"/>
<polygon fill="midnightblue" stroke="midnightblue" points="625.38,-476.8 635.85,-475.15 626.63,-469.91 625.38,-476.8"/>
</g>
<!-- Node31 -->
<g id="node18" class="node">
<title>Node31</title>
<g id="a_node18"><a xlink:href="namespaceyaml__settings.html#af06e8e4d30d8e2a7bda90429f30edc4e" target="_top" xlink:title=" ">
<polygon fill="white" stroke="red" points="283,-336 283,-366 401,-366 401,-336 283,-336"/>
<text text-anchor="start" x="291" y="-354" font-family="Helvetica,sans-Serif" font-size="10.00">yaml_settings::type</text>
<text text-anchor="middle" x="342" y="-343" font-family="Helvetica,sans-Serif" font-size="10.00">_integer_setting_create</text>
</a>
</g>
</g>
<!-- Node30&#45;&gt;Node31 -->
<g id="edge24" class="edge">
<title>Node30&#45;&gt;Node31</title>
<path fill="none" stroke="midnightblue" d="M245.5,-379.98C257.03,-376.48 269.44,-372.72 281.36,-369.1"/>
<polygon fill="midnightblue" stroke="midnightblue" points="282.68,-372.35 291.24,-366.1 280.65,-365.66 282.68,-372.35"/>
</g>
<!-- Node31&#45;&gt;Node2 -->
<g id="edge25" class="edge">
<title>Node31&#45;&gt;Node2</title>
<path fill="none" stroke="midnightblue" d="M372.98,-335.9C382.04,-331.23 391.97,-326 401,-321 422.62,-309.04 446.75,-294.71 464.26,-284.12"/>
<polygon fill="midnightblue" stroke="midnightblue" points="466.52,-286.84 473.26,-278.67 462.89,-280.86 466.52,-286.84"/>
</g>
<!-- Node31&#45;&gt;Node28 -->
<g id="edge26" class="edge">
<title>Node31&#45;&gt;Node28</title>
<path fill="none" stroke="midnightblue" d="M392.84,-366.02C404.57,-369.56 417.19,-373.36 429.31,-377.01"/>
<polygon fill="midnightblue" stroke="midnightblue" points="428.31,-380.36 438.89,-379.9 430.33,-373.66 428.31,-380.36"/>
</g>
<!-- Node31&#45;&gt;Node29 -->
<g id="edge27" class="edge">
<title>Node31&#45;&gt;Node29</title>
<path fill="none" stroke="midnightblue" d="M401.05,-341.73C444.22,-338.09 502.43,-340.4 543,-370 575.81,-393.94 549.08,-426.53 579,-454 591.85,-465.8 610.66,-471.81 625.89,-474.87"/>
<polygon fill="midnightblue" stroke="midnightblue" points="625.31,-478.32 635.75,-476.54 626.48,-471.42 625.31,-478.32"/>
</g>
</g>
</svg>
        <g id="navigator" transform="translate(0 0)" fill="#404254">
                <rect fill="#f2f5e9" fill-opacity="0.5" stroke="#606060" stroke-width=".5" x="0" y="0" width="60" height="60"/>
                <use id="zoomplus" xlink:href="#zoomPlus" x="17" y="9" onmousedown="handleZoom(evt,'in')"/>
                <use id="zoomminus" xlink:href="#zoomMin" x="42" y="9" onmousedown="handleZoom(evt,'out')"/>
                <use id="reset" xlink:href="#resetDef" x="30" y="36" onmousedown="handleReset()"/>
                <g id="arrowUp" xlink:href="#dirArrow" transform="translate(30 24)" onmousedown="handlePan(0,-1)">
                  <use xlink:href="#rim" fill="#404040">
                        <set attributeName="fill" to="#808080" begin="arrowUp.mouseover" end="arrowUp.mouseout"/>
                  </use>
                  <path fill="none" stroke="white" stroke-width="1.5" d="M0,-3.0v7 M-2.5,-0.5L0,-3.0L2.5,-0.5"/>
                </g>
                <g id="arrowRight" xlink:href="#dirArrow" transform="rotate(90) translate(36 -43)" onmousedown="handlePan(1,0)">
                  <use xlink:href="#rim" fill="#404040">
                        <set attributeName="fill" to="#808080" begin="arrowRight.mouseover" end="arrowRight.mouseout"/>
                  </use>
                  <path fill="none" stroke="white" stroke-width="1.5" d="M0,-3.0v7 M-2.5,-0.5L0,-3.0L2.5,-0.5"/>
                </g>
                <g id="arrowDown" xlink:href="#dirArrow" transform="rotate(180) translate(-30 -48)" onmousedown="handlePan(0,1)">
                  <use xlink:href="#rim" fill="#404040">
                        <set attributeName="fill" to="#808080" begin="arrowDown.mouseover" end="arrowDown.mouseout"/>
                  </use>
                  <path fill="none" stroke="white" stroke-width="1.5" d="M0,-3.0v7 M-2.5,-0.5L0,-3.0L2.5,-0.5"/>
                </g>
                <g id="arrowLeft" xlink:href="#dirArrow" transform="rotate(270) translate(-36 17)" onmousedown="handlePan(-1,0)">
                  <use xlink:href="#rim" fill="#404040">
                        <set attributeName="fill" to="#808080" begin="arrowLeft.mouseover" end="arrowLeft.mouseout"/>
                  </use>
                  <path fill="none" stroke="white" stroke-width="1.5" d="M0,-3.0v7 M-2.5,-0.5L0,-3.0L2.5,-0.5"/>
                </g>
        </g>
        <svg viewBox="0 0 15 15" width="100%" height="30px" preserveAspectRatio="xMaxYMin meet">
         <g id="arrow_out" transform="scale(0.3 0.3)">
          <a xlink:href="namespaceyaml__settings_ac9d7a5ebee43ae709c9fb9ae6e59a483_cgraph_org.svg" target="_base">
           <rect id="button" ry="5" rx="5" y="6" x="6" height="38" width="38"
                fill="#f2f5e9" fill-opacity="0.5" stroke="#606060" stroke-width="1.0"/>
           <path id="arrow"
             d="M 11.500037,31.436501 C 11.940474,20.09759 22.043105,11.32322 32.158766,21.979434 L 37.068811,17.246167 C 37.068811,17.246167 37.088388,32 37.088388,32 L 22.160133,31.978069 C 22.160133,31.978069 26.997745,27.140456 26.997745,27.140456 C 18.528582,18.264221 13.291696,25.230495 11.500037,31.436501 z"
             style="fill:#404040;"/>
          </a>
         </g>
        </svg>
</svg>
