<?xml version="1.0" encoding="UTF-8" standalone="no"?>
<!DOCTYPE svg PUBLIC "-//W3C//DTD SVG 1.1//EN"
 "http://www.w3.org/Graphics/SVG/1.1/DTD/svg11.dtd">
<!-- Generated by graphviz version 2.50.0 (20220203.2022)
 -->
<!-- Title: m_read_svsinex::qsort_sinex_prn Pages: 1 -->
<svg width="419pt" height="88pt"
 viewBox="0.00 0.00 419.00 88.00" xmlns="http://www.w3.org/2000/svg" xmlns:xlink="http://www.w3.org/1999/xlink">
<g id="graph0" class="graph" transform="scale(1 1) rotate(0) translate(4 84)">
<title>m_read_svsinex::qsort_sinex_prn</title>
<polygon fill="white" stroke="transparent" points="-4,4 -4,-84 415,-84 415,4 -4,4"/>
<!-- Node1 -->
<g id="node1" class="node">
<title>Node1</title>
<g id="a_node1"><a xlink:title=" ">
<polygon fill="#bfbfbf" stroke="black" points="298,-24.5 298,-54.5 411,-54.5 411,-24.5 298,-24.5"/>
<text text-anchor="start" x="306" y="-42.5" font-family="Helvetica,sans-Serif" font-size="10.00">m_read_svsinex::qsort</text>
<text text-anchor="middle" x="354.5" y="-31.5" font-family="Helvetica,sans-Serif" font-size="10.00">_sinex_prn</text>
</a>
</g>
</g>
<!-- Node2 -->
<g id="node2" class="node">
<title>Node2</title>
<g id="a_node2"><a xlink:href="namespacem__read__svsinex.html#ac27ebe3b628563a972696b772c79868c" target="_top" xlink:title=" ">
<polygon fill="white" stroke="black" points="142,-49.5 142,-79.5 262,-79.5 262,-49.5 142,-49.5"/>
<text text-anchor="start" x="150" y="-67.5" font-family="Helvetica,sans-Serif" font-size="10.00">m_read_svsinex::lookup</text>
<text text-anchor="middle" x="202" y="-56.5" font-family="Helvetica,sans-Serif" font-size="10.00">_sinex</text>
</a>
</g>
</g>
<!-- Node1&#45;&gt;Node2 -->
<g id="edge1" class="edge">
<title>Node1&#45;&gt;Node2</title>
<path fill="none" stroke="midnightblue" d="M287.93,-50.39C279.37,-51.81 270.63,-53.27 262.17,-54.67"/>
<polygon fill="midnightblue" stroke="midnightblue" points="288.6,-53.83 297.89,-48.74 287.45,-46.92 288.6,-53.83"/>
</g>
<!-- Node7 -->
<g id="node4" class="node">
<title>Node7</title>
<g id="a_node4"><a xlink:href="namespacem__read__svsinex.html#ac2ff3910d5159e29b8bbb4c4713197bd" target="_top" xlink:title=" ">
<polygon fill="white" stroke="black" points="147,-0.5 147,-30.5 257,-30.5 257,-0.5 147,-0.5"/>
<text text-anchor="start" x="155" y="-18.5" font-family="Helvetica,sans-Serif" font-size="10.00">m_read_svsinex::read</text>
<text text-anchor="middle" x="202" y="-7.5" font-family="Helvetica,sans-Serif" font-size="10.00">_sinex_file</text>
</a>
</g>
</g>
<!-- Node1&#45;&gt;Node7 -->
<g id="edge3" class="edge">
<title>Node1&#45;&gt;Node7</title>
<path fill="none" stroke="midnightblue" d="M287.76,-29.02C277.53,-27.39 267.07,-25.72 257.13,-24.13"/>
<polygon fill="midnightblue" stroke="midnightblue" points="287.46,-32.51 297.89,-30.63 288.56,-25.6 287.46,-32.51"/>
</g>
<!-- Node3 -->
<g id="node3" class="node">
<title>Node3</title>
<g id="a_node3"><a xlink:href="namespacem__read__satsnx.html#a0325a5acf4c4a7f382a936c90395e46a" target="_top" xlink:title=" ">
<polygon fill="white" stroke="red" points="0,-24.5 0,-54.5 106,-54.5 106,-24.5 0,-24.5"/>
<text text-anchor="start" x="8" y="-42.5" font-family="Helvetica,sans-Serif" font-size="10.00">m_read_satsnx::read</text>
<text text-anchor="middle" x="53" y="-31.5" font-family="Helvetica,sans-Serif" font-size="10.00">_satsnx</text>
</a>
</g>
</g>
<!-- Node2&#45;&gt;Node3 -->
<g id="edge2" class="edge">
<title>Node2&#45;&gt;Node3</title>
<path fill="none" stroke="midnightblue" d="M131.59,-52.7C122.98,-51.23 114.3,-49.76 106.02,-48.35"/>
<polygon fill="midnightblue" stroke="midnightblue" points="131.19,-56.18 141.63,-54.4 132.36,-49.28 131.19,-56.18"/>
</g>
<!-- Node7&#45;&gt;Node3 -->
<g id="edge4" class="edge">
<title>Node7&#45;&gt;Node3</title>
<path fill="none" stroke="midnightblue" d="M136.61,-26.01C126.42,-27.68 116,-29.38 106.14,-30.99"/>
<polygon fill="midnightblue" stroke="midnightblue" points="137.37,-29.43 146.68,-24.37 136.25,-22.53 137.37,-29.43"/>
</g>
</g>
</svg>
