<?xml version="1.0" encoding="UTF-8" standalone="no"?>
<!DOCTYPE svg PUBLIC "-//W3C//DTD SVG 1.1//EN"
 "http://www.w3.org/Graphics/SVG/1.1/DTD/svg11.dtd">
<!-- Generated by graphviz version 2.50.0 (20220203.2022)
 -->
<!-- Title: m_legendre2::legendre2 Pages: 1 -->
<svg width="412pt" height="66pt"
 viewBox="0.00 0.00 412.00 66.00" xmlns="http://www.w3.org/2000/svg" xmlns:xlink="http://www.w3.org/1999/xlink">
<g id="graph0" class="graph" transform="scale(1 1) rotate(0) translate(4 62)">
<title>m_legendre2::legendre2</title>
<polygon fill="white" stroke="transparent" points="-4,4 -4,-62 408,-62 408,4 -4,4"/>
<!-- Node1 -->
<g id="node1" class="node">
<title>Node1</title>
<g id="a_node1"><a xlink:title=" ">
<polygon fill="#bfbfbf" stroke="black" points="285,-19.5 285,-38.5 404,-38.5 404,-19.5 285,-19.5"/>
<text text-anchor="middle" x="344.5" y="-26.5" font-family="Helvetica,sans-Serif" font-size="10.00">m_legendre2::legendre2</text>
</a>
</g>
</g>
<!-- Node2 -->
<g id="node2" class="node">
<title>Node2</title>
<g id="a_node2"><a xlink:href="namespacem__pd__geopotential.html#a348c4f09b044b8253b29d7738b6635f8" target="_top" xlink:title=" ">
<polygon fill="white" stroke="black" points="146,-14 146,-44 249,-44 249,-14 146,-14"/>
<text text-anchor="start" x="154" y="-32" font-family="Helvetica,sans-Serif" font-size="10.00">m_pd_geopotential::</text>
<text text-anchor="middle" x="197.5" y="-21" font-family="Helvetica,sans-Serif" font-size="10.00">pd_geopotential</text>
</a>
</g>
</g>
<!-- Node1&#45;&gt;Node2 -->
<g id="edge1" class="edge">
<title>Node1&#45;&gt;Node2</title>
<path fill="none" stroke="midnightblue" d="M274.9,-29C266.29,-29 257.62,-29 249.35,-29"/>
<polygon fill="midnightblue" stroke="midnightblue" points="274.94,-32.5 284.94,-29 274.94,-25.5 274.94,-32.5"/>
</g>
<!-- Node3 -->
<g id="node3" class="node">
<title>Node3</title>
<g id="a_node3"><a xlink:href="namespacem__pd__force.html#a942ea044856d62ee03ee7623436bc97e" target="_top" xlink:title=" ">
<polygon fill="white" stroke="red" points="0,-38.5 0,-57.5 110,-57.5 110,-38.5 0,-38.5"/>
<text text-anchor="middle" x="55" y="-45.5" font-family="Helvetica,sans-Serif" font-size="10.00">m_pd_force::pd_force</text>
</a>
</g>
</g>
<!-- Node2&#45;&gt;Node3 -->
<g id="edge2" class="edge">
<title>Node2&#45;&gt;Node3</title>
<path fill="none" stroke="midnightblue" d="M135.67,-37.23C127.28,-38.36 118.71,-39.52 110.45,-40.64"/>
<polygon fill="midnightblue" stroke="midnightblue" points="136.34,-40.67 145.78,-35.86 135.4,-33.73 136.34,-40.67"/>
</g>
<!-- Node10 -->
<g id="node4" class="node">
<title>Node10</title>
<g id="a_node4"><a xlink:href="pd__forceZ_8f95.html#abdd0ae4a7eb5f80ef45608c877df1a5e" target="_top" xlink:title=" ">
<polygon fill="white" stroke="black" points="25.5,-0.5 25.5,-19.5 84.5,-19.5 84.5,-0.5 25.5,-0.5"/>
<text text-anchor="middle" x="55" y="-7.5" font-family="Helvetica,sans-Serif" font-size="10.00">pd_forcez</text>
</a>
</g>
</g>
<!-- Node2&#45;&gt;Node10 -->
<g id="edge3" class="edge">
<title>Node2&#45;&gt;Node10</title>
<path fill="none" stroke="midnightblue" d="M135.48,-20.75C117.77,-18.35 99.27,-15.85 84.58,-13.86"/>
<polygon fill="midnightblue" stroke="midnightblue" points="135.4,-24.27 145.78,-22.14 136.34,-17.33 135.4,-24.27"/>
</g>
</g>
</svg>
