<?xml version="1.0" encoding="UTF-8" standalone="no"?>
<!DOCTYPE svg PUBLIC "-//W3C//DTD SVG 1.1//EN"
 "http://www.w3.org/Graphics/SVG/1.1/DTD/svg11.dtd">
<!-- Generated by graphviz version 2.50.0 (20220203.2022)
 -->
<!-- Title: m_get_lambda::get_lambda Pages: 1 -->
<svg width="427pt" height="142pt"
 viewBox="0.00 0.00 427.00 142.00" xmlns="http://www.w3.org/2000/svg" xmlns:xlink="http://www.w3.org/1999/xlink">
<g id="graph0" class="graph" transform="scale(1 1) rotate(0) translate(4 138)">
<title>m_get_lambda::get_lambda</title>
<polygon fill="white" stroke="transparent" points="-4,4 -4,-138 423,-138 423,4 -4,4"/>
<!-- Node1 -->
<g id="node1" class="node">
<title>Node1</title>
<g id="a_node1"><a xlink:title=" ">
<polygon fill="#bfbfbf" stroke="black" points="284,-57.5 284,-76.5 419,-76.5 419,-57.5 284,-57.5"/>
<text text-anchor="middle" x="351.5" y="-64.5" font-family="Helvetica,sans-Serif" font-size="10.00">m_get_lambda::get_lambda</text>
</a>
</g>
</g>
<!-- Node2 -->
<g id="node2" class="node">
<title>Node2</title>
<g id="a_node2"><a xlink:href="namespacem__shadow.html#a57161869236b6fe30e33523417670ca1" target="_top" xlink:title=" ">
<polygon fill="white" stroke="black" points="146,-57.5 146,-76.5 248,-76.5 248,-57.5 146,-57.5"/>
<text text-anchor="middle" x="197" y="-64.5" font-family="Helvetica,sans-Serif" font-size="10.00">m_shadow::shadow</text>
</a>
</g>
</g>
<!-- Node1&#45;&gt;Node2 -->
<g id="edge1" class="edge">
<title>Node1&#45;&gt;Node2</title>
<path fill="none" stroke="midnightblue" d="M273.57,-67C265,-67 256.44,-67 248.33,-67"/>
<polygon fill="midnightblue" stroke="midnightblue" points="273.61,-70.5 283.61,-67 273.61,-63.5 273.61,-70.5"/>
</g>
<!-- Node3 -->
<g id="node3" class="node">
<title>Node3</title>
<g id="a_node3"><a xlink:href="namespacem__betainfo.html#a7c2c7a1fff113613caae0cd8f91ca37d" target="_top" xlink:title=" ">
<polygon fill="white" stroke="black" points="3,-114.5 3,-133.5 107,-133.5 107,-114.5 3,-114.5"/>
<text text-anchor="middle" x="55" y="-121.5" font-family="Helvetica,sans-Serif" font-size="10.00">m_betainfo::betainfo</text>
</a>
</g>
</g>
<!-- Node2&#45;&gt;Node3 -->
<g id="edge2" class="edge">
<title>Node2&#45;&gt;Node3</title>
<path fill="none" stroke="midnightblue" d="M166.54,-80.69C150.05,-88.19 129.03,-97.46 110,-105 101.78,-108.26 92.74,-111.55 84.46,-114.45"/>
<polygon fill="midnightblue" stroke="midnightblue" points="168.05,-83.86 175.69,-76.51 165.14,-77.49 168.05,-83.86"/>
</g>
<!-- Node4 -->
<g id="node4" class="node">
<title>Node4</title>
<g id="a_node4"><a xlink:href="force__sum_8f95.html#a757e2ccbe362bf3b01a51e2c0431a490" target="_top" xlink:title=" ">
<polygon fill="white" stroke="red" points="24,-76.5 24,-95.5 86,-95.5 86,-76.5 24,-76.5"/>
<text text-anchor="middle" x="55" y="-83.5" font-family="Helvetica,sans-Serif" font-size="10.00">force_sum</text>
</a>
</g>
</g>
<!-- Node2&#45;&gt;Node4 -->
<g id="edge3" class="edge">
<title>Node2&#45;&gt;Node4</title>
<path fill="none" stroke="midnightblue" d="M135.89,-75.16C118.75,-77.48 100.8,-79.92 86.27,-81.89"/>
<polygon fill="midnightblue" stroke="midnightblue" points="136.41,-78.62 145.85,-73.81 135.47,-71.68 136.41,-78.62"/>
</g>
<!-- Node13 -->
<g id="node5" class="node">
<title>Node13</title>
<g id="a_node5"><a xlink:href="namespacem__orbinfo.html#a7e90574cb9078c6ff14c6104446ee24a" target="_top" xlink:title=" ">
<polygon fill="white" stroke="red" points="8.5,-38.5 8.5,-57.5 101.5,-57.5 101.5,-38.5 8.5,-38.5"/>
<text text-anchor="middle" x="55" y="-45.5" font-family="Helvetica,sans-Serif" font-size="10.00">m_orbinfo::orbinfo</text>
</a>
</g>
</g>
<!-- Node2&#45;&gt;Node13 -->
<g id="edge4" class="edge">
<title>Node2&#45;&gt;Node13</title>
<path fill="none" stroke="midnightblue" d="M135.88,-58.84C124.4,-57.28 112.55,-55.67 101.61,-54.19"/>
<polygon fill="midnightblue" stroke="midnightblue" points="135.47,-62.32 145.85,-60.19 136.41,-55.38 135.47,-62.32"/>
</g>
<!-- Node16 -->
<g id="node6" class="node">
<title>Node16</title>
<g id="a_node6"><a xlink:href="namespacem__pd__force.html#a942ea044856d62ee03ee7623436bc97e" target="_top" xlink:title=" ">
<polygon fill="white" stroke="red" points="0,-0.5 0,-19.5 110,-19.5 110,-0.5 0,-0.5"/>
<text text-anchor="middle" x="55" y="-7.5" font-family="Helvetica,sans-Serif" font-size="10.00">m_pd_force::pd_force</text>
</a>
</g>
</g>
<!-- Node2&#45;&gt;Node16 -->
<g id="edge5" class="edge">
<title>Node2&#45;&gt;Node16</title>
<path fill="none" stroke="midnightblue" d="M166.54,-53.31C150.05,-45.81 129.03,-36.54 110,-29 101.78,-25.74 92.74,-22.45 84.46,-19.55"/>
<polygon fill="midnightblue" stroke="midnightblue" points="165.14,-56.51 175.69,-57.49 168.05,-50.14 165.14,-56.51"/>
</g>
</g>
</svg>
