<?xml version="1.0" encoding="UTF-8" standalone="no"?>
<!DOCTYPE svg PUBLIC "-//W3C//DTD SVG 1.1//EN"
 "http://www.w3.org/Graphics/SVG/1.1/DTD/svg11.dtd">
<!-- Generated by graphviz version 2.50.0 (20220203.2022)
 -->
<!-- Title: pod_yaml::get_input_refsys Pages: 1 -->
<svg width="268pt" height="57pt"
 viewBox="0.00 0.00 268.00 57.00" xmlns="http://www.w3.org/2000/svg" xmlns:xlink="http://www.w3.org/1999/xlink">
<g id="graph0" class="graph" transform="scale(1 1) rotate(0) translate(4 53)">
<title>pod_yaml::get_input_refsys</title>
<polygon fill="white" stroke="transparent" points="-4,4 -4,-53 264,-53 264,4 -4,4"/>
<!-- Node1 -->
<g id="node1" class="node">
<title>Node1</title>
<g id="a_node1"><a xlink:title=" ">
<polygon fill="#bfbfbf" stroke="black" points="0,-0.5 0,-30.5 102,-30.5 102,-0.5 0,-0.5"/>
<text text-anchor="start" x="8" y="-18.5" font-family="Helvetica,sans-Serif" font-size="10.00">pod_yaml::get_input</text>
<text text-anchor="middle" x="51" y="-7.5" font-family="Helvetica,sans-Serif" font-size="10.00">_refsys</text>
</a>
</g>
</g>
<!-- Node1&#45;&gt;Node1 -->
<g id="edge1" class="edge">
<title>Node1&#45;&gt;Node1</title>
<path fill="none" stroke="midnightblue" d="M25.21,-30.66C18.99,-40.06 27.59,-49 51,-49 65.27,-49 74.03,-45.68 77.3,-40.96"/>
<polygon fill="midnightblue" stroke="midnightblue" points="80.78,-40.48 76.79,-30.66 73.79,-40.82 80.78,-40.48"/>
</g>
<!-- Node2 -->
<g id="node2" class="node">
<title>Node2</title>
<g id="a_node2"><a xlink:href="namespacepod__yaml.html#a89669454b72a5dadaea9de7ce5ee3cc5" target="_top" xlink:title=" ">
<polygon fill="white" stroke="black" points="138,-0.5 138,-30.5 260,-30.5 260,-0.5 138,-0.5"/>
<text text-anchor="start" x="146" y="-18.5" font-family="Helvetica,sans-Serif" font-size="10.00">pod_yaml::get_reference</text>
<text text-anchor="middle" x="199" y="-7.5" font-family="Helvetica,sans-Serif" font-size="10.00">_system</text>
</a>
</g>
</g>
<!-- Node1&#45;&gt;Node2 -->
<g id="edge2" class="edge">
<title>Node1&#45;&gt;Node2</title>
<path fill="none" stroke="midnightblue" d="M102.24,-15.5C110.49,-15.5 119.16,-15.5 127.78,-15.5"/>
<polygon fill="midnightblue" stroke="midnightblue" points="127.84,-19 137.84,-15.5 127.84,-12 127.84,-19"/>
</g>
<!-- Node2&#45;&gt;Node2 -->
<g id="edge3" class="edge">
<title>Node2&#45;&gt;Node2</title>
<path fill="none" stroke="midnightblue" d="M173.21,-30.66C166.99,-40.06 175.59,-49 199,-49 213.27,-49 222.03,-45.68 225.3,-40.96"/>
<polygon fill="midnightblue" stroke="midnightblue" points="228.78,-40.48 224.79,-30.66 221.79,-40.82 228.78,-40.48"/>
</g>
</g>
</svg>
