<?xml version="1.0" encoding="UTF-8" standalone="no"?>
<!DOCTYPE svg PUBLIC "-//W3C//DTD SVG 1.1//EN"
 "http://www.w3.org/Graphics/SVG/1.1/DTD/svg11.dtd">
<!-- Generated by graphviz version 2.50.0 (20220203.2022)
 -->
<!-- Title: m_write_orb2sp3::write_orb2sp3 Pages: 1 -->
<svg width="341pt" height="104pt"
 viewBox="0.00 0.00 341.00 104.00" xmlns="http://www.w3.org/2000/svg" xmlns:xlink="http://www.w3.org/1999/xlink">
<g id="graph0" class="graph" transform="scale(1 1) rotate(0) translate(4 100)">
<title>m_write_orb2sp3::write_orb2sp3</title>
<polygon fill="white" stroke="transparent" points="-4,4 -4,-100 337,-100 337,4 -4,4"/>
<!-- Node1 -->
<g id="node1" class="node">
<title>Node1</title>
<g id="a_node1"><a xlink:title=" ">
<polygon fill="#bfbfbf" stroke="black" points="0,-33 0,-63 116,-63 116,-33 0,-33"/>
<text text-anchor="start" x="8" y="-51" font-family="Helvetica,sans-Serif" font-size="10.00">m_write_orb2sp3::write</text>
<text text-anchor="middle" x="58" y="-40" font-family="Helvetica,sans-Serif" font-size="10.00">_orb2sp3</text>
</a>
</g>
</g>
<!-- Node2 -->
<g id="node2" class="node">
<title>Node2</title>
<g id="a_node2"><a xlink:href="jd2cal_8for.html#a9bed91282551283d85294092fe0cc509" target="_top" xlink:title=" ">
<polygon fill="white" stroke="black" points="164.5,-76.5 164.5,-95.5 224.5,-95.5 224.5,-76.5 164.5,-76.5"/>
<text text-anchor="middle" x="194.5" y="-83.5" font-family="Helvetica,sans-Serif" font-size="10.00">iau_jd2cal</text>
</a>
</g>
</g>
<!-- Node1&#45;&gt;Node2 -->
<g id="edge1" class="edge">
<title>Node1&#45;&gt;Node2</title>
<path fill="none" stroke="midnightblue" d="M112.16,-63.02C126.32,-67.02 141.35,-71.27 154.59,-75.01"/>
<polygon fill="midnightblue" stroke="midnightblue" points="153.75,-78.41 164.32,-77.76 155.65,-71.67 153.75,-78.41"/>
</g>
<!-- Node3 -->
<g id="node3" class="node">
<title>Node3</title>
<g id="a_node3"><a xlink:href="time__GPSweek3_8f90.html#aeb3da60a108b7ce50c14435bf57bd743" target="_top" xlink:title=" ">
<polygon fill="white" stroke="black" points="152,-38.5 152,-57.5 237,-57.5 237,-38.5 152,-38.5"/>
<text text-anchor="middle" x="194.5" y="-45.5" font-family="Helvetica,sans-Serif" font-size="10.00">time_gpsweek3</text>
</a>
</g>
</g>
<!-- Node1&#45;&gt;Node3 -->
<g id="edge2" class="edge">
<title>Node1&#45;&gt;Node3</title>
<path fill="none" stroke="midnightblue" d="M116.04,-48C124.59,-48 133.37,-48 141.8,-48"/>
<polygon fill="midnightblue" stroke="midnightblue" points="141.88,-51.5 151.88,-48 141.88,-44.5 141.88,-51.5"/>
</g>
<!-- Node5 -->
<g id="node5" class="node">
<title>Node5</title>
<g id="a_node5"><a xlink:href="sinex_8cpp.html#a06fabc81a2cc41dfee260450a527ad2d" target="_top" xlink:title=" ">
<polygon fill="white" stroke="black" points="178,-0.5 178,-19.5 211,-19.5 211,-0.5 178,-0.5"/>
<text text-anchor="middle" x="194.5" y="-7.5" font-family="Helvetica,sans-Serif" font-size="10.00">trim</text>
</a>
</g>
</g>
<!-- Node1&#45;&gt;Node5 -->
<g id="edge4" class="edge">
<title>Node1&#45;&gt;Node5</title>
<path fill="none" stroke="midnightblue" d="M112.16,-32.98C131.37,-27.55 152.19,-21.67 167.95,-17.22"/>
<polygon fill="midnightblue" stroke="midnightblue" points="169.31,-20.47 177.98,-14.39 167.4,-13.74 169.31,-20.47"/>
</g>
<!-- Node4 -->
<g id="node4" class="node">
<title>Node4</title>
<g id="a_node4"><a xlink:href="cal2jd_8for.html#af9bdf5980bab8c8324930b1a0af0175a" target="_top" xlink:title=" ">
<polygon fill="white" stroke="black" points="273,-38.5 273,-57.5 333,-57.5 333,-38.5 273,-38.5"/>
<text text-anchor="middle" x="303" y="-45.5" font-family="Helvetica,sans-Serif" font-size="10.00">iau_cal2jd</text>
</a>
</g>
</g>
<!-- Node3&#45;&gt;Node4 -->
<g id="edge3" class="edge">
<title>Node3&#45;&gt;Node4</title>
<path fill="none" stroke="midnightblue" d="M237.29,-48C245.64,-48 254.4,-48 262.67,-48"/>
<polygon fill="midnightblue" stroke="midnightblue" points="262.83,-51.5 272.83,-48 262.83,-44.5 262.83,-51.5"/>
</g>
</g>
</svg>
