<?xml version="1.0" encoding="UTF-8" standalone="no"?>
<!DOCTYPE svg PUBLIC "-//W3C//DTD SVG 1.1//EN"
 "http://www.w3.org/Graphics/SVG/1.1/DTD/svg11.dtd">
<!-- Generated by graphviz version 2.50.0 (20220203.2022)
 -->
<!-- Title: m_orbext::orbext Pages: 1 -->
<svg width="688pt" height="643pt"
 viewBox="0.00 0.00 688.00 642.71" xmlns="http://www.w3.org/2000/svg" xmlns:xlink="http://www.w3.org/1999/xlink">
<g id="graph0" class="graph" transform="scale(1 1) rotate(0) translate(4 638.71)">
<title>m_orbext::orbext</title>
<polygon fill="white" stroke="transparent" points="-4,4 -4,-638.71 684,-638.71 684,4 -4,4"/>
<!-- Node1 -->
<g id="node1" class="node">
<title>Node1</title>
<g id="a_node1"><a xlink:title=" ">
<polygon fill="#bfbfbf" stroke="black" points="0,-265.36 0,-284.36 87,-284.36 87,-265.36 0,-265.36"/>
<text text-anchor="middle" x="43.5" y="-272.36" font-family="Helvetica,sans-Serif" font-size="10.00">m_orbext::orbext</text>
</a>
</g>
</g>
<!-- Node2 -->
<g id="node2" class="node">
<title>Node2</title>
<g id="a_node2"><a xlink:href="prm__orbext_8f95.html#a22ef50da05110c9316a9e9a935fe47a2" target="_top" xlink:title=" ">
<polygon fill="white" stroke="black" points="148.5,-151.36 148.5,-170.36 213.5,-170.36 213.5,-151.36 148.5,-151.36"/>
<text text-anchor="middle" x="181" y="-158.36" font-family="Helvetica,sans-Serif" font-size="10.00">prm_orbext</text>
</a>
</g>
</g>
<!-- Node1&#45;&gt;Node2 -->
<g id="edge1" class="edge">
<title>Node1&#45;&gt;Node2</title>
<path fill="none" stroke="midnightblue" d="M56.05,-265.14C79.35,-245.54 132.19,-201.09 160.77,-177.03"/>
<polygon fill="midnightblue" stroke="midnightblue" points="163.08,-179.67 168.48,-170.55 158.57,-174.31 163.08,-179.67"/>
</g>
<!-- Node49 -->
<g id="node11" class="node">
<title>Node49</title>
<g id="a_node11"><a xlink:href="time__TT_8f90.html#aac4be73ca07f0d71843391b034a7d20e" target="_top" xlink:title=" ">
<polygon fill="white" stroke="black" points="447,-132.36 447,-151.36 494,-151.36 494,-132.36 447,-132.36"/>
<text text-anchor="middle" x="470.5" y="-139.36" font-family="Helvetica,sans-Serif" font-size="10.00">time_tt</text>
</a>
</g>
</g>
<!-- Node1&#45;&gt;Node49 -->
<g id="edge41" class="edge">
<title>Node1&#45;&gt;Node49</title>
<path fill="none" stroke="midnightblue" d="M48.32,-265.13C57.91,-241.63 85,-180.83 123,-141.86 178.61,-84.82 198.42,-68.82 275,-46.86 324.13,-32.77 346.81,-19.53 390,-46.86 421.58,-66.84 399.17,-96.84 426,-122.86 429.35,-126.11 433.35,-128.85 437.55,-131.15"/>
<polygon fill="midnightblue" stroke="midnightblue" points="436.33,-134.44 446.87,-135.5 439.29,-128.1 436.33,-134.44"/>
</g>
<!-- Node64 -->
<g id="node15" class="node">
<title>Node64</title>
<g id="a_node15"><a xlink:href="namespacem__statdelta.html#a8233872ed966bef447929ab7eeb960d8" target="_top" xlink:title=" ">
<polygon fill="white" stroke="black" points="277.5,-588.36 277.5,-607.36 387.5,-607.36 387.5,-588.36 277.5,-588.36"/>
<text text-anchor="middle" x="332.5" y="-595.36" font-family="Helvetica,sans-Serif" font-size="10.00">m_statdelta::statdelta</text>
</a>
</g>
</g>
<!-- Node1&#45;&gt;Node64 -->
<g id="edge20" class="edge">
<title>Node1&#45;&gt;Node64</title>
<path fill="none" stroke="midnightblue" d="M47.14,-284.56C54.98,-311.99 80.24,-391.49 123,-443.86 175.5,-508.16 260.6,-559.75 304.06,-583.57"/>
<polygon fill="midnightblue" stroke="midnightblue" points="302.46,-586.68 312.92,-588.35 305.78,-580.52 302.46,-586.68"/>
</g>
<!-- Node66 -->
<g id="node17" class="node">
<title>Node66</title>
<g id="a_node17"><a xlink:href="namespacem__statorbit.html#a56a49355e7e28cab9185c86483b3e452" target="_top" xlink:title=" ">
<polygon fill="white" stroke="black" points="280,-512.36 280,-531.36 385,-531.36 385,-512.36 280,-512.36"/>
<text text-anchor="middle" x="332.5" y="-519.36" font-family="Helvetica,sans-Serif" font-size="10.00">m_statorbit::statorbit</text>
</a>
</g>
</g>
<!-- Node1&#45;&gt;Node66 -->
<g id="edge23" class="edge">
<title>Node1&#45;&gt;Node66</title>
<path fill="none" stroke="midnightblue" d="M49.54,-284.62C60.67,-305.54 89.08,-355.49 123,-388.86 177.92,-442.88 258.28,-486.51 301.44,-507.78"/>
<polygon fill="midnightblue" stroke="midnightblue" points="300.04,-510.99 310.57,-512.22 303.1,-504.7 300.04,-510.99"/>
</g>
<!-- Node69 -->
<g id="node19" class="node">
<title>Node69</title>
<g id="a_node19"><a xlink:href="namespacem__statorbit2.html#a6ba60e4ad1e25a33b4f2f9607374ea58" target="_top" xlink:title=" ">
<polygon fill="white" stroke="black" points="123,-360.36 123,-379.36 239,-379.36 239,-360.36 123,-360.36"/>
<text text-anchor="middle" x="181" y="-367.36" font-family="Helvetica,sans-Serif" font-size="10.00">m_statorbit2::statorbit2</text>
</a>
</g>
</g>
<!-- Node1&#45;&gt;Node69 -->
<g id="edge30" class="edge">
<title>Node1&#45;&gt;Node69</title>
<path fill="none" stroke="midnightblue" d="M58.24,-284.49C81.67,-300.92 129.57,-334.5 157.81,-354.3"/>
<polygon fill="midnightblue" stroke="midnightblue" points="156.03,-357.33 166.23,-360.2 160.05,-351.59 156.03,-357.33"/>
</g>
<!-- Node102 -->
<g id="node23" class="node">
<title>Node102</title>
<g id="a_node23"><a xlink:href="time__TT__sec_8f90.html#a31aa62c537a593dd783353bda39fe608" target="_top" xlink:title=" ">
<polygon fill="white" stroke="black" points="436.5,-56.36 436.5,-75.36 504.5,-75.36 504.5,-56.36 436.5,-56.36"/>
<text text-anchor="middle" x="470.5" y="-63.36" font-family="Helvetica,sans-Serif" font-size="10.00">time_tt_sec</text>
</a>
</g>
</g>
<!-- Node1&#45;&gt;Node102 -->
<g id="edge42" class="edge">
<title>Node1&#45;&gt;Node102</title>
<path fill="none" stroke="midnightblue" d="M44.72,-265.01C46.05,-230.05 55.57,-110.96 123,-53.86 214.02,23.22 273.82,0.11 390,-26.86 410.09,-31.52 430.96,-42.01 446.27,-50.93"/>
<polygon fill="midnightblue" stroke="midnightblue" points="444.66,-54.05 455.03,-56.22 448.28,-48.06 444.66,-54.05"/>
</g>
<!-- Node3 -->
<g id="node3" class="node">
<title>Node3</title>
<g id="a_node3"><a xlink:href="namespacem__interporb.html#a631fd5c000c2c7afd7cd5f36179b4cc0" target="_top" xlink:title=" ">
<polygon fill="white" stroke="red" points="275,-56.36 275,-75.36 390,-75.36 390,-56.36 275,-56.36"/>
<text text-anchor="middle" x="332.5" y="-63.36" font-family="Helvetica,sans-Serif" font-size="10.00">m_interporb::interp_orb</text>
</a>
</g>
</g>
<!-- Node2&#45;&gt;Node3 -->
<g id="edge2" class="edge">
<title>Node2&#45;&gt;Node3</title>
<path fill="none" stroke="midnightblue" d="M192.81,-151.15C209.52,-136.49 243.04,-108.45 275,-89.86 281.52,-86.06 288.76,-82.53 295.82,-79.41"/>
<polygon fill="midnightblue" stroke="midnightblue" points="297.4,-82.54 305.25,-75.41 294.67,-76.09 297.4,-82.54"/>
</g>
<!-- Node7 -->
<g id="node4" class="node">
<title>Node7</title>
<g id="a_node4"><a xlink:href="namespacem__sp3.html#aee5ee4c6b89b55a15add0857c52f3352" target="_top" xlink:title=" ">
<polygon fill="white" stroke="red" points="437.5,-94.36 437.5,-113.36 503.5,-113.36 503.5,-94.36 437.5,-94.36"/>
<text text-anchor="middle" x="470.5" y="-101.36" font-family="Helvetica,sans-Serif" font-size="10.00">m_sp3::sp3</text>
</a>
</g>
</g>
<!-- Node2&#45;&gt;Node7 -->
<g id="edge17" class="edge">
<title>Node2&#45;&gt;Node7</title>
<path fill="none" stroke="midnightblue" d="M213.59,-154.59C265.61,-144.28 369.3,-123.72 427.46,-112.19"/>
<polygon fill="midnightblue" stroke="midnightblue" points="428.29,-115.6 437.42,-110.22 426.93,-108.73 428.29,-115.6"/>
</g>
<!-- Node11 -->
<g id="node6" class="node">
<title>Node11</title>
<g id="a_node6"><a xlink:href="sinex_8cpp.html#a06fabc81a2cc41dfee260450a527ad2d" target="_top" xlink:title=" ">
<polygon fill="white" stroke="black" points="647,-94.36 647,-113.36 680,-113.36 680,-94.36 647,-94.36"/>
<text text-anchor="middle" x="663.5" y="-101.36" font-family="Helvetica,sans-Serif" font-size="10.00">trim</text>
</a>
</g>
</g>
<!-- Node2&#45;&gt;Node11 -->
<g id="edge19" class="edge">
<title>Node2&#45;&gt;Node11</title>
<path fill="none" stroke="midnightblue" d="M186.29,-151.08C197.13,-127.75 228.16,-69.1 275,-46.86 409.9,17.19 474.53,13.76 611,-46.86 628.83,-54.78 643.09,-72.25 652.05,-85.78"/>
<polygon fill="midnightblue" stroke="midnightblue" points="649.12,-87.7 657.38,-94.35 655.07,-84.01 649.12,-87.7"/>
</g>
<!-- Node16 -->
<g id="node7" class="node">
<title>Node16</title>
<g id="a_node7"><a xlink:href="namespacem__keplerorb.html#a02c25cf4c2ea19e9295785bf281b39f4" target="_top" xlink:title=" ">
<polygon fill="white" stroke="red" points="275.5,-246.36 275.5,-265.36 389.5,-265.36 389.5,-246.36 275.5,-246.36"/>
<text text-anchor="middle" x="332.5" y="-253.36" font-family="Helvetica,sans-Serif" font-size="10.00">m_keplerorb::keplerorb</text>
</a>
</g>
</g>
<!-- Node2&#45;&gt;Node16 -->
<g id="edge7" class="edge">
<title>Node2&#45;&gt;Node16</title>
<path fill="none" stroke="midnightblue" d="M191.44,-170.59C207.34,-186.48 241.05,-218.1 275,-236.86 278.77,-238.94 282.81,-240.85 286.93,-242.58"/>
<polygon fill="midnightblue" stroke="midnightblue" points="286.01,-245.98 296.6,-246.32 288.53,-239.45 286.01,-245.98"/>
</g>
<!-- Node25 -->
<g id="node9" class="node">
<title>Node25</title>
<g id="a_node9"><a xlink:href="namespacem__orbc2t.html#a199ab2f2c024cd6d18cf08f6580013a0" target="_top" xlink:title=" ">
<polygon fill="white" stroke="red" points="288,-208.36 288,-227.36 377,-227.36 377,-208.36 288,-208.36"/>
<text text-anchor="middle" x="332.5" y="-215.36" font-family="Helvetica,sans-Serif" font-size="10.00">m_orbc2t::orbc2t</text>
</a>
</g>
</g>
<!-- Node2&#45;&gt;Node25 -->
<g id="edge9" class="edge">
<title>Node2&#45;&gt;Node25</title>
<path fill="none" stroke="midnightblue" d="M204.39,-170.47C223.13,-178.41 250.64,-189.8 275,-198.86 280.59,-200.94 286.53,-203.05 292.38,-205.06"/>
<polygon fill="midnightblue" stroke="midnightblue" points="291.46,-208.44 302.05,-208.35 293.71,-201.82 291.46,-208.44"/>
</g>
<!-- Node2&#45;&gt;Node49 -->
<g id="edge18" class="edge">
<title>Node2&#45;&gt;Node49</title>
<path fill="none" stroke="midnightblue" d="M213.59,-158.77C268.54,-155.14 381.17,-147.69 436.85,-144.02"/>
<polygon fill="midnightblue" stroke="midnightblue" points="437.13,-147.5 446.88,-143.35 436.67,-140.52 437.13,-147.5"/>
</g>
<!-- Node63 -->
<g id="node14" class="node">
<title>Node63</title>
<g id="a_node14"><a xlink:href="namespacem__orbt2c.html#a876ee97d4b7569bf142ff8abf3512555" target="_top" xlink:title=" ">
<polygon fill="white" stroke="red" points="288,-170.36 288,-189.36 377,-189.36 377,-170.36 288,-170.36"/>
<text text-anchor="middle" x="332.5" y="-177.36" font-family="Helvetica,sans-Serif" font-size="10.00">m_orbt2c::orbt2c</text>
</a>
</g>
</g>
<!-- Node2&#45;&gt;Node63 -->
<g id="edge14" class="edge">
<title>Node2&#45;&gt;Node63</title>
<path fill="none" stroke="midnightblue" d="M213.71,-164.89C232.35,-167.26 256.42,-170.32 277.93,-173.05"/>
<polygon fill="midnightblue" stroke="midnightblue" points="277.57,-176.53 287.93,-174.32 278.45,-169.59 277.57,-176.53"/>
</g>
<!-- Node3&#45;&gt;Node7 -->
<g id="edge3" class="edge">
<title>Node3&#45;&gt;Node7</title>
<path fill="none" stroke="midnightblue" d="M367.82,-75.45C385.91,-80.5 408.26,-86.75 427.39,-92.09"/>
<polygon fill="midnightblue" stroke="midnightblue" points="426.49,-95.47 437.07,-94.79 428.38,-88.73 426.49,-95.47"/>
</g>
<!-- Node9 -->
<g id="node5" class="node">
<title>Node9</title>
<g id="a_node5"><a xlink:href="report_8f90.html#ad7b70277944dcb0bbfd72a8dbe9ad4df" target="_top" xlink:title=" ">
<polygon fill="white" stroke="red" points="560.5,-379.36 560.5,-398.36 601.5,-398.36 601.5,-379.36 560.5,-379.36"/>
<text text-anchor="middle" x="581" y="-386.36" font-family="Helvetica,sans-Serif" font-size="10.00">report</text>
</a>
</g>
</g>
<!-- Node7&#45;&gt;Node9 -->
<g id="edge4" class="edge">
<title>Node7&#45;&gt;Node9</title>
<path fill="none" stroke="midnightblue" d="M503.35,-113.56C507.74,-116.02 511.82,-119.07 515,-122.86 577.19,-196.8 581.6,-320.99 580.78,-369.04"/>
<polygon fill="midnightblue" stroke="midnightblue" points="577.27,-369.21 580.5,-379.3 584.27,-369.4 577.27,-369.21"/>
</g>
<!-- Node7&#45;&gt;Node11 -->
<g id="edge6" class="edge">
<title>Node7&#45;&gt;Node11</title>
<path fill="none" stroke="midnightblue" d="M503.9,-103.86C541.36,-103.86 602.25,-103.86 636.67,-103.86"/>
<polygon fill="midnightblue" stroke="midnightblue" points="636.85,-107.36 646.85,-103.86 636.85,-100.36 636.85,-107.36"/>
</g>
<!-- Node9&#45;&gt;Node11 -->
<g id="edge5" class="edge">
<title>Node9&#45;&gt;Node11</title>
<path fill="none" stroke="midnightblue" d="M584.77,-379.05C596.38,-337.94 641.25,-179.09 657,-123.34"/>
<polygon fill="midnightblue" stroke="midnightblue" points="660.39,-124.2 659.74,-113.63 653.65,-122.3 660.39,-124.2"/>
</g>
<!-- Node22 -->
<g id="node8" class="node">
<title>Node22</title>
<g id="a_node8"><a xlink:href="kepler__z2k_8f90.html#aaece6d2b7d204b571232ad144687f646" target="_top" xlink:title=" ">
<polygon fill="white" stroke="red" points="439,-398.36 439,-417.36 502,-417.36 502,-398.36 439,-398.36"/>
<text text-anchor="middle" x="470.5" y="-405.36" font-family="Helvetica,sans-Serif" font-size="10.00">kepler_z2k</text>
</a>
</g>
</g>
<!-- Node16&#45;&gt;Node22 -->
<g id="edge8" class="edge">
<title>Node16&#45;&gt;Node22</title>
<path fill="none" stroke="midnightblue" d="M337.91,-265.58C349.25,-289.61 381.66,-352.45 426,-388.86 428.01,-390.5 430.18,-392.03 432.44,-393.45"/>
<polygon fill="midnightblue" stroke="midnightblue" points="431.03,-396.67 441.49,-398.36 434.37,-390.51 431.03,-396.67"/>
</g>
<!-- Node19 -->
<g id="node10" class="node">
<title>Node19</title>
<g id="a_node10"><a xlink:href="matrix__Rr_8f90.html#ac8734d74fb7ada7605575d3b9d26f2bb" target="_top" xlink:title=" ">
<polygon fill="white" stroke="red" points="443.5,-284.36 443.5,-303.36 497.5,-303.36 497.5,-284.36 443.5,-284.36"/>
<text text-anchor="middle" x="470.5" y="-291.36" font-family="Helvetica,sans-Serif" font-size="10.00">matrix_rr</text>
</a>
</g>
</g>
<!-- Node25&#45;&gt;Node19 -->
<g id="edge10" class="edge">
<title>Node25&#45;&gt;Node19</title>
<path fill="none" stroke="midnightblue" d="M367.34,-227.41C374.97,-230.06 382.91,-233.23 390,-236.86 412.19,-248.22 435.08,-265.3 450.56,-277.8"/>
<polygon fill="midnightblue" stroke="midnightblue" points="448.41,-280.55 458.35,-284.2 452.85,-275.15 448.41,-280.55"/>
</g>
<!-- Node25&#45;&gt;Node49 -->
<g id="edge11" class="edge">
<title>Node25&#45;&gt;Node49</title>
<path fill="none" stroke="midnightblue" d="M367.34,-208.31C374.97,-205.66 382.91,-202.49 390,-198.86 412.19,-187.49 435.08,-170.42 450.56,-157.92"/>
<polygon fill="midnightblue" stroke="midnightblue" points="452.85,-160.57 458.35,-151.51 448.41,-155.16 452.85,-160.57"/>
</g>
<!-- Node50 -->
<g id="node12" class="node">
<title>Node50</title>
<g id="a_node12"><a xlink:href="jd2cal_8for.html#a9bed91282551283d85294092fe0cc509" target="_top" xlink:title=" ">
<polygon fill="white" stroke="black" points="551,-132.36 551,-151.36 611,-151.36 611,-132.36 551,-132.36"/>
<text text-anchor="middle" x="581" y="-139.36" font-family="Helvetica,sans-Serif" font-size="10.00">iau_jd2cal</text>
</a>
</g>
</g>
<!-- Node49&#45;&gt;Node50 -->
<g id="edge12" class="edge">
<title>Node49&#45;&gt;Node50</title>
<path fill="none" stroke="midnightblue" d="M494.25,-141.86C507.57,-141.86 524.79,-141.86 540.29,-141.86"/>
<polygon fill="midnightblue" stroke="midnightblue" points="540.68,-145.36 550.68,-141.86 540.68,-138.36 540.68,-145.36"/>
</g>
<!-- Node51 -->
<g id="node13" class="node">
<title>Node51</title>
<g id="a_node13"><a xlink:href="taiutc_8for.html#a86edd73f696a0968f1600df656bad920" target="_top" xlink:title=" ">
<polygon fill="white" stroke="red" points="560.5,-56.36 560.5,-75.36 601.5,-75.36 601.5,-56.36 560.5,-56.36"/>
<text text-anchor="middle" x="581" y="-63.36" font-family="Helvetica,sans-Serif" font-size="10.00">taiutc</text>
</a>
</g>
</g>
<!-- Node49&#45;&gt;Node51 -->
<g id="edge13" class="edge">
<title>Node49&#45;&gt;Node51</title>
<path fill="none" stroke="midnightblue" d="M494.3,-133.46C501.18,-130.52 508.6,-126.92 515,-122.86 532.88,-111.5 550.79,-95.35 563.27,-83.14"/>
<polygon fill="midnightblue" stroke="midnightblue" points="566.04,-85.32 570.64,-75.77 561.09,-80.37 566.04,-85.32"/>
</g>
<!-- Node63&#45;&gt;Node19 -->
<g id="edge15" class="edge">
<title>Node63&#45;&gt;Node19</title>
<path fill="none" stroke="midnightblue" d="M371.65,-189.47C378.07,-191.97 384.45,-195.06 390,-198.86 420.03,-219.37 445.08,-254.23 458.62,-275.54"/>
<polygon fill="midnightblue" stroke="midnightblue" points="455.78,-277.6 464.01,-284.28 461.74,-273.93 455.78,-277.6"/>
</g>
<!-- Node63&#45;&gt;Node49 -->
<g id="edge16" class="edge">
<title>Node63&#45;&gt;Node49</title>
<path fill="none" stroke="midnightblue" d="M367.82,-170.27C389.05,-164.34 416.15,-156.76 437.03,-150.93"/>
<polygon fill="midnightblue" stroke="midnightblue" points="438.04,-154.28 446.73,-148.22 436.15,-147.54 438.04,-154.28"/>
</g>
<!-- Node64&#45;&gt;Node9 -->
<g id="edge21" class="edge">
<title>Node64&#45;&gt;Node9</title>
<path fill="none" stroke="midnightblue" d="M352.2,-607.44C387.82,-624.19 466.19,-653.69 515,-616.86 548.9,-591.27 570.39,-458.74 577.44,-408.34"/>
<polygon fill="midnightblue" stroke="midnightblue" points="580.92,-408.78 578.79,-398.4 573.98,-407.84 580.92,-408.78"/>
</g>
<!-- Node65 -->
<g id="node16" class="node">
<title>Node65</title>
<g id="a_node16"><a xlink:href="namespacem__statist.html#ae4dae726f599a6a4d90554226d07808e" target="_top" xlink:title=" ">
<polygon fill="white" stroke="black" points="426,-588.36 426,-607.36 515,-607.36 515,-588.36 426,-588.36"/>
<text text-anchor="middle" x="470.5" y="-595.36" font-family="Helvetica,sans-Serif" font-size="10.00">m_statist::statist</text>
</a>
</g>
</g>
<!-- Node64&#45;&gt;Node65 -->
<g id="edge22" class="edge">
<title>Node64&#45;&gt;Node65</title>
<path fill="none" stroke="midnightblue" d="M387.64,-597.86C396.79,-597.86 406.29,-597.86 415.44,-597.86"/>
<polygon fill="midnightblue" stroke="midnightblue" points="415.58,-601.36 425.58,-597.86 415.58,-594.36 415.58,-601.36"/>
</g>
<!-- Node66&#45;&gt;Node9 -->
<g id="edge28" class="edge">
<title>Node66&#45;&gt;Node9</title>
<path fill="none" stroke="midnightblue" d="M355.16,-531.39C391.46,-545.77 465.48,-568.11 515,-535.86 558.72,-507.39 573.25,-442.1 577.91,-408.96"/>
<polygon fill="midnightblue" stroke="midnightblue" points="581.42,-409.04 579.17,-398.68 574.47,-408.18 581.42,-409.04"/>
</g>
<!-- Node66&#45;&gt;Node22 -->
<g id="edge25" class="edge">
<title>Node66&#45;&gt;Node22</title>
<path fill="none" stroke="midnightblue" d="M345.1,-512.14C368.48,-492.54 421.51,-448.09 450.2,-424.03"/>
<polygon fill="midnightblue" stroke="midnightblue" points="452.52,-426.66 457.93,-417.55 448.02,-421.29 452.52,-426.66"/>
</g>
<!-- Node66&#45;&gt;Node19 -->
<g id="edge26" class="edge">
<title>Node66&#45;&gt;Node19</title>
<path fill="none" stroke="midnightblue" d="M346.04,-512.26C358.8,-501.87 378.33,-484.18 390,-464.86 417.47,-419.38 401.52,-398.01 426,-350.86 433.42,-336.56 444.46,-322.15 453.55,-311.4"/>
<polygon fill="midnightblue" stroke="midnightblue" points="456.39,-313.47 460.33,-303.63 451.12,-308.87 456.39,-313.47"/>
</g>
<!-- Node66&#45;&gt;Node50 -->
<g id="edge24" class="edge">
<title>Node66&#45;&gt;Node50</title>
<path fill="none" stroke="midnightblue" d="M382.77,-531.37C423.47,-536.17 480.06,-535.31 515,-502.86 540.47,-479.2 569.77,-233.34 577.85,-161.48"/>
<polygon fill="midnightblue" stroke="midnightblue" points="581.33,-161.83 578.96,-151.5 574.37,-161.05 581.33,-161.83"/>
</g>
<!-- Node66&#45;&gt;Node65 -->
<g id="edge29" class="edge">
<title>Node66&#45;&gt;Node65</title>
<path fill="none" stroke="midnightblue" d="M350.53,-531.48C369.07,-541.95 399.6,-559.16 426,-573.86 431.5,-576.92 437.41,-580.19 443.03,-583.3"/>
<polygon fill="midnightblue" stroke="midnightblue" points="441.68,-586.55 452.13,-588.31 445.06,-580.42 441.68,-586.55"/>
</g>
<!-- Node67 -->
<g id="node18" class="node">
<title>Node67</title>
<g id="a_node18"><a xlink:href="orb__frame_8f90.html#a5282c7b911bbb6ac175ad64fe3e2750e" target="_top" xlink:title=" ">
<polygon fill="white" stroke="red" points="440.5,-474.36 440.5,-493.36 500.5,-493.36 500.5,-474.36 440.5,-474.36"/>
<text text-anchor="middle" x="470.5" y="-481.36" font-family="Helvetica,sans-Serif" font-size="10.00">orb_frame</text>
</a>
</g>
</g>
<!-- Node66&#45;&gt;Node67 -->
<g id="edge27" class="edge">
<title>Node66&#45;&gt;Node67</title>
<path fill="none" stroke="midnightblue" d="M367.82,-512.27C386.94,-506.93 410.81,-500.26 430.61,-494.72"/>
<polygon fill="midnightblue" stroke="midnightblue" points="431.57,-498.09 440.26,-492.03 429.69,-491.35 431.57,-498.09"/>
</g>
<!-- Node69&#45;&gt;Node9 -->
<g id="edge40" class="edge">
<title>Node69&#45;&gt;Node9</title>
<path fill="none" stroke="midnightblue" d="M218.75,-360.29C280.97,-345.73 410.48,-322.55 515,-350.86 531.24,-355.26 547.59,-364.84 559.83,-373.29"/>
<polygon fill="midnightblue" stroke="midnightblue" points="557.79,-376.13 567.95,-379.14 561.88,-370.45 557.79,-376.13"/>
</g>
<!-- Node69&#45;&gt;Node19 -->
<g id="edge32" class="edge">
<title>Node69&#45;&gt;Node19</title>
<path fill="none" stroke="midnightblue" d="M195.1,-360.35C212.44,-348.29 244.41,-327.87 275,-317.86 328.28,-300.42 393.55,-295.49 433.31,-294.19"/>
<polygon fill="midnightblue" stroke="midnightblue" points="433.42,-297.68 443.32,-293.92 433.23,-290.69 433.42,-297.68"/>
</g>
<!-- Node69&#45;&gt;Node67 -->
<g id="edge33" class="edge">
<title>Node69&#45;&gt;Node67</title>
<path fill="none" stroke="midnightblue" d="M190.64,-379.39C211.63,-402.47 264.38,-459.77 275,-464.86 324.54,-488.59 389.22,-489.9 430.07,-487.66"/>
<polygon fill="midnightblue" stroke="midnightblue" points="430.41,-491.15 440.17,-487.01 429.96,-484.16 430.41,-491.15"/>
</g>
<!-- Node70 -->
<g id="node20" class="node">
<title>Node70</title>
<g id="a_node20"><a xlink:href="lambda_8cpp.html#a364f9f201016e3baff0a9366158a823b" target="_top" xlink:title=" ">
<polygon fill="white" stroke="red" points="446.5,-360.36 446.5,-379.36 494.5,-379.36 494.5,-360.36 446.5,-360.36"/>
<text text-anchor="middle" x="470.5" y="-367.36" font-family="Helvetica,sans-Serif" font-size="10.00">lambda</text>
</a>
</g>
</g>
<!-- Node69&#45;&gt;Node70 -->
<g id="edge31" class="edge">
<title>Node69&#45;&gt;Node70</title>
<path fill="none" stroke="midnightblue" d="M239.14,-369.86C298.06,-369.86 387.93,-369.86 436.15,-369.86"/>
<polygon fill="midnightblue" stroke="midnightblue" points="436.35,-373.36 446.35,-369.86 436.35,-366.36 436.35,-373.36"/>
</g>
<!-- Node93 -->
<g id="node21" class="node">
<title>Node93</title>
<g id="a_node21"><a xlink:href="namespacem__orbinfo.html#a7e90574cb9078c6ff14c6104446ee24a" target="_top" xlink:title=" ">
<polygon fill="white" stroke="red" points="286,-436.36 286,-455.36 379,-455.36 379,-436.36 286,-436.36"/>
<text text-anchor="middle" x="332.5" y="-443.36" font-family="Helvetica,sans-Serif" font-size="10.00">m_orbinfo::orbinfo</text>
</a>
</g>
</g>
<!-- Node69&#45;&gt;Node93 -->
<g id="edge34" class="edge">
<title>Node69&#45;&gt;Node93</title>
<path fill="none" stroke="midnightblue" d="M195.32,-379.36C212.91,-391.59 245.15,-412.91 275,-426.86 279.63,-429.02 284.57,-431.05 289.54,-432.93"/>
<polygon fill="midnightblue" stroke="midnightblue" points="288.44,-436.26 299.04,-436.34 290.8,-429.67 288.44,-436.26"/>
</g>
<!-- Node101 -->
<g id="node22" class="node">
<title>Node101</title>
<g id="a_node22"><a xlink:href="prn__shift_8f95.html#a00ea60b366ee67859f6200371ed68bd2" target="_top" xlink:title=" ">
<polygon fill="white" stroke="black" points="305.5,-398.36 305.5,-417.36 359.5,-417.36 359.5,-398.36 305.5,-398.36"/>
<text text-anchor="middle" x="332.5" y="-405.36" font-family="Helvetica,sans-Serif" font-size="10.00">prn_shift</text>
</a>
</g>
</g>
<!-- Node69&#45;&gt;Node101 -->
<g id="edge39" class="edge">
<title>Node69&#45;&gt;Node101</title>
<path fill="none" stroke="midnightblue" d="M219.73,-379.45C242.83,-385.32 272.25,-392.8 295.1,-398.61"/>
<polygon fill="midnightblue" stroke="midnightblue" points="294.54,-402.07 305.1,-401.15 296.27,-395.29 294.54,-402.07"/>
</g>
<!-- Node93&#45;&gt;Node9 -->
<g id="edge38" class="edge">
<title>Node93&#45;&gt;Node9</title>
<path fill="none" stroke="midnightblue" d="M379.36,-446.36C416.74,-445.53 470.44,-441.46 515,-426.86 530.64,-421.73 546.62,-412.46 558.82,-404.35"/>
<polygon fill="midnightblue" stroke="midnightblue" points="561.1,-407.03 567.35,-398.47 557.13,-401.27 561.1,-407.03"/>
</g>
<!-- Node93&#45;&gt;Node22 -->
<g id="edge35" class="edge">
<title>Node93&#45;&gt;Node22</title>
<path fill="none" stroke="midnightblue" d="M367.82,-436.27C386.45,-431.06 409.59,-424.6 429.08,-419.15"/>
<polygon fill="midnightblue" stroke="midnightblue" points="430.22,-422.47 438.9,-416.41 428.33,-415.73 430.22,-422.47"/>
</g>
<!-- Node93&#45;&gt;Node19 -->
<g id="edge37" class="edge">
<title>Node93&#45;&gt;Node19</title>
<path fill="none" stroke="midnightblue" d="M375.14,-436.24C380.53,-433.78 385.67,-430.71 390,-426.86 417.94,-402.03 406.56,-382.78 426,-350.86 434.48,-336.93 445.67,-322.33 454.58,-311.4"/>
<polygon fill="midnightblue" stroke="midnightblue" points="457.44,-313.43 461.14,-303.5 452.06,-308.96 457.44,-313.43"/>
</g>
<!-- Node93&#45;&gt;Node70 -->
<g id="edge36" class="edge">
<title>Node93&#45;&gt;Node70</title>
<path fill="none" stroke="midnightblue" d="M370.56,-436.3C377.3,-433.76 384.07,-430.65 390,-426.86 409.61,-414.33 406.96,-402.23 426,-388.86 429.49,-386.41 433.35,-384.17 437.28,-382.16"/>
<polygon fill="midnightblue" stroke="midnightblue" points="438.86,-385.29 446.46,-377.9 435.91,-378.94 438.86,-385.29"/>
</g>
<!-- Node102&#45;&gt;Node50 -->
<g id="edge43" class="edge">
<title>Node102&#45;&gt;Node50</title>
<path fill="none" stroke="midnightblue" d="M497.02,-75.44C503.1,-78.14 509.43,-81.32 515,-84.86 532.88,-96.21 550.79,-112.36 563.27,-124.58"/>
<polygon fill="midnightblue" stroke="midnightblue" points="561.09,-127.35 570.64,-131.94 566.04,-122.4 561.09,-127.35"/>
</g>
<!-- Node102&#45;&gt;Node51 -->
<g id="edge44" class="edge">
<title>Node102&#45;&gt;Node51</title>
<path fill="none" stroke="midnightblue" d="M504.64,-65.86C519.14,-65.86 536.03,-65.86 550.14,-65.86"/>
<polygon fill="midnightblue" stroke="midnightblue" points="550.3,-69.36 560.3,-65.86 550.3,-62.36 550.3,-69.36"/>
</g>
</g>
</svg>
