<?xml version="1.0" encoding="UTF-8" standalone="no"?>
<!DOCTYPE svg PUBLIC "-//W3C//DTD SVG 1.1//EN"
 "http://www.w3.org/Graphics/SVG/1.1/DTD/svg11.dtd">
<!-- Generated by graphviz version 2.50.0 (20220203.2022)
 -->
<!-- Title: m_keplerorb::keplerorb Pages: 1 -->
<svg width="357pt" height="66pt"
 viewBox="0.00 0.00 357.00 66.00" xmlns="http://www.w3.org/2000/svg" xmlns:xlink="http://www.w3.org/1999/xlink">
<g id="graph0" class="graph" transform="scale(1 1) rotate(0) translate(4 62)">
<title>m_keplerorb::keplerorb</title>
<polygon fill="white" stroke="transparent" points="-4,4 -4,-62 353,-62 353,4 -4,4"/>
<!-- Node1 -->
<g id="node1" class="node">
<title>Node1</title>
<g id="a_node1"><a xlink:title=" ">
<polygon fill="#bfbfbf" stroke="black" points="235,-19.5 235,-38.5 349,-38.5 349,-19.5 235,-19.5"/>
<text text-anchor="middle" x="292" y="-26.5" font-family="Helvetica,sans-Serif" font-size="10.00">m_keplerorb::keplerorb</text>
</a>
</g>
</g>
<!-- Node2 -->
<g id="node2" class="node">
<title>Node2</title>
<g id="a_node2"><a xlink:href="prm__orbext_8f95.html#a22ef50da05110c9316a9e9a935fe47a2" target="_top" xlink:title=" ">
<polygon fill="white" stroke="black" points="134,-19.5 134,-38.5 199,-38.5 199,-19.5 134,-19.5"/>
<text text-anchor="middle" x="166.5" y="-26.5" font-family="Helvetica,sans-Serif" font-size="10.00">prm_orbext</text>
</a>
</g>
</g>
<!-- Node1&#45;&gt;Node2 -->
<g id="edge1" class="edge">
<title>Node1&#45;&gt;Node2</title>
<path fill="none" stroke="midnightblue" d="M224.63,-29C215.74,-29 206.99,-29 199.1,-29"/>
<polygon fill="midnightblue" stroke="midnightblue" points="224.67,-32.5 234.67,-29 224.67,-25.5 224.67,-32.5"/>
</g>
<!-- Node3 -->
<g id="node3" class="node">
<title>Node3</title>
<g id="a_node3"><a xlink:href="namespacem__orbext.html#a5d9ae5d81af99b9d31eee5b6ec19d51f" target="_top" xlink:title=" ">
<polygon fill="white" stroke="red" points="5.5,-38.5 5.5,-57.5 92.5,-57.5 92.5,-38.5 5.5,-38.5"/>
<text text-anchor="middle" x="49" y="-45.5" font-family="Helvetica,sans-Serif" font-size="10.00">m_orbext::orbext</text>
</a>
</g>
</g>
<!-- Node2&#45;&gt;Node3 -->
<g id="edge2" class="edge">
<title>Node2&#45;&gt;Node3</title>
<path fill="none" stroke="midnightblue" d="M123.75,-35.87C113.68,-37.52 102.9,-39.3 92.78,-40.96"/>
<polygon fill="midnightblue" stroke="midnightblue" points="124.64,-39.27 133.94,-34.19 123.5,-32.36 124.64,-39.27"/>
</g>
<!-- Node6 -->
<g id="node4" class="node">
<title>Node6</title>
<g id="a_node4"><a xlink:href="namespacem__orbext2.html#a8edc32bdc671004ee3dcaa85b4f1f176" target="_top" xlink:title=" ">
<polygon fill="white" stroke="red" points="0,-0.5 0,-19.5 98,-19.5 98,-0.5 0,-0.5"/>
<text text-anchor="middle" x="49" y="-7.5" font-family="Helvetica,sans-Serif" font-size="10.00">m_orbext2::orbext2</text>
</a>
</g>
</g>
<!-- Node2&#45;&gt;Node6 -->
<g id="edge3" class="edge">
<title>Node2&#45;&gt;Node6</title>
<path fill="none" stroke="midnightblue" d="M123.82,-22.14C115.58,-20.79 106.87,-19.36 98.44,-17.97"/>
<polygon fill="midnightblue" stroke="midnightblue" points="123.5,-25.64 133.94,-23.81 124.64,-18.73 123.5,-25.64"/>
</g>
</g>
</svg>
