<?xml version="1.0" encoding="UTF-8" standalone="no"?>
<!DOCTYPE svg PUBLIC "-//W3C//DTD SVG 1.1//EN"
 "http://www.w3.org/Graphics/SVG/1.1/DTD/svg11.dtd">
<!-- Generated by graphviz version 2.50.0 (20220203.2022)
 -->
<!-- Title: pod_yaml::get_ext_orbit_opt Pages: 1 -->
<svg width="377pt" height="46pt"
 viewBox="0.00 0.00 377.00 46.00" xmlns="http://www.w3.org/2000/svg" xmlns:xlink="http://www.w3.org/1999/xlink">
<g id="graph0" class="graph" transform="scale(1 1) rotate(0) translate(4 42)">
<title>pod_yaml::get_ext_orbit_opt</title>
<polygon fill="white" stroke="transparent" points="-4,4 -4,-42 373,-42 373,4 -4,4"/>
<!-- Node1 -->
<g id="node1" class="node">
<title>Node1</title>
<g id="a_node1"><a xlink:title=" ">
<polygon fill="#bfbfbf" stroke="black" points="232,-0.5 232,-19.5 369,-19.5 369,-0.5 232,-0.5"/>
<text text-anchor="middle" x="300.5" y="-7.5" font-family="Helvetica,sans-Serif" font-size="10.00">pod_yaml::get_ext_orbit_opt</text>
</a>
</g>
</g>
<!-- Node1&#45;&gt;Node1 -->
<g id="edge1" class="edge">
<title>Node1&#45;&gt;Node1</title>
<path fill="none" stroke="midnightblue" d="M329.25,-28.65C328.04,-33.94 318.46,-38 300.5,-38 273.13,-38 265.22,-28.57 276.76,-19.76"/>
<polygon fill="midnightblue" stroke="midnightblue" points="332.19,-26.75 324.24,-19.76 326.09,-30.19 332.19,-26.75"/>
</g>
<!-- Node2 -->
<g id="node2" class="node">
<title>Node2</title>
<g id="a_node2"><a xlink:href="namespacepod__yaml.html#aca21c2bb86797b2b46c5d509e3593198" target="_top" xlink:title=" ">
<polygon fill="white" stroke="black" points="95,-0.5 95,-19.5 196,-19.5 196,-0.5 95,-0.5"/>
<text text-anchor="middle" x="145.5" y="-7.5" font-family="Helvetica,sans-Serif" font-size="10.00">pod_yaml::get_yaml</text>
</a>
</g>
</g>
<!-- Node1&#45;&gt;Node2 -->
<g id="edge2" class="edge">
<title>Node1&#45;&gt;Node2</title>
<path fill="none" stroke="midnightblue" d="M221.77,-10C213.09,-10 204.43,-10 196.23,-10"/>
<polygon fill="midnightblue" stroke="midnightblue" points="221.95,-13.5 231.95,-10 221.95,-6.5 221.95,-13.5"/>
</g>
<!-- Node3 -->
<g id="node3" class="node">
<title>Node3</title>
<g id="a_node3"><a xlink:href="test__yaml_8F90.html#a6888e150b7fd2e019bcfccff79c24da2" target="_top" xlink:title=" ">
<polygon fill="white" stroke="black" points="0,-0.5 0,-19.5 59,-19.5 59,-0.5 0,-0.5"/>
<text text-anchor="middle" x="29.5" y="-7.5" font-family="Helvetica,sans-Serif" font-size="10.00">test_yaml</text>
</a>
</g>
</g>
<!-- Node2&#45;&gt;Node3 -->
<g id="edge3" class="edge">
<title>Node2&#45;&gt;Node3</title>
<path fill="none" stroke="midnightblue" d="M84.73,-10C75.78,-10 66.92,-10 59.04,-10"/>
<polygon fill="midnightblue" stroke="midnightblue" points="84.83,-13.5 94.83,-10 84.83,-6.5 84.83,-13.5"/>
</g>
</g>
</svg>
