<?xml version="1.0" encoding="UTF-8" standalone="no"?>
<!DOCTYPE svg PUBLIC "-//W3C//DTD SVG 1.1//EN"
 "http://www.w3.org/Graphics/SVG/1.1/DTD/svg11.dtd">
<!-- Generated by graphviz version 2.50.0 (20220203.2022)
 -->
<!-- Title: pod_yaml::get_tidal_effects Pages: 1 -->
<svg width="223pt" height="57pt"
 viewBox="0.00 0.00 223.00 57.00" xmlns="http://www.w3.org/2000/svg" xmlns:xlink="http://www.w3.org/1999/xlink">
<g id="graph0" class="graph" transform="scale(1 1) rotate(0) translate(4 53)">
<title>pod_yaml::get_tidal_effects</title>
<polygon fill="white" stroke="transparent" points="-4,4 -4,-53 219,-53 219,4 -4,4"/>
<!-- Node1 -->
<g id="node1" class="node">
<title>Node1</title>
<g id="a_node1"><a xlink:title=" ">
<polygon fill="#bfbfbf" stroke="black" points="0,-0.5 0,-30.5 99,-30.5 99,-0.5 0,-0.5"/>
<text text-anchor="start" x="8" y="-18.5" font-family="Helvetica,sans-Serif" font-size="10.00">pod_yaml::get_tidal</text>
<text text-anchor="middle" x="49.5" y="-7.5" font-family="Helvetica,sans-Serif" font-size="10.00">_effects</text>
</a>
</g>
</g>
<!-- Node1&#45;&gt;Node1 -->
<g id="edge1" class="edge">
<title>Node1&#45;&gt;Node1</title>
<path fill="none" stroke="midnightblue" d="M27.89,-30.66C22.68,-40.06 29.88,-49 49.5,-49 61.45,-49 68.8,-45.68 71.53,-40.96"/>
<polygon fill="midnightblue" stroke="midnightblue" points="75.02,-40.51 71.11,-30.66 68.02,-40.79 75.02,-40.51"/>
</g>
<!-- Node2 -->
<g id="node2" class="node">
<title>Node2</title>
<g id="a_node2"><a xlink:href="namespacepod__yaml.html#a59ea539cabb34ef7985e7e57c4b9dd93" target="_top" xlink:title=" ">
<polygon fill="white" stroke="black" points="135,-6 135,-25 215,-25 215,-6 135,-6"/>
<text text-anchor="middle" x="175" y="-13" font-family="Helvetica,sans-Serif" font-size="10.00">pod_yaml::pow</text>
</a>
</g>
</g>
<!-- Node1&#45;&gt;Node2 -->
<g id="edge2" class="edge">
<title>Node1&#45;&gt;Node2</title>
<path fill="none" stroke="midnightblue" d="M99.31,-15.5C107.56,-15.5 116.13,-15.5 124.4,-15.5"/>
<polygon fill="midnightblue" stroke="midnightblue" points="124.66,-19 134.66,-15.5 124.66,-12 124.66,-19"/>
</g>
<!-- Node2&#45;&gt;Node2 -->
<g id="edge3" class="edge">
<title>Node2&#45;&gt;Node2</title>
<path fill="none" stroke="midnightblue" d="M155.89,-25.26C146.59,-34.07 152.96,-43.5 175,-43.5 189.12,-43.5 196.81,-39.63 198.07,-34.53"/>
<polygon fill="midnightblue" stroke="midnightblue" points="201.25,-33.08 194.11,-25.26 194.81,-35.83 201.25,-33.08"/>
</g>
</g>
</svg>
