<?xml version="1.0" encoding="UTF-8" standalone="no"?>
<!DOCTYPE svg PUBLIC "-//W3C//DTD SVG 1.1//EN"
 "http://www.w3.org/Graphics/SVG/1.1/DTD/svg11.dtd">
<!-- Generated by graphviz version 2.50.0 (20220203.2022)
 -->
<!-- Title: m_interporb_filt::interp_orb_filt Pages: 1 -->
<svg width="386pt" height="66pt"
 viewBox="0.00 0.00 386.00 66.00" xmlns="http://www.w3.org/2000/svg" xmlns:xlink="http://www.w3.org/1999/xlink">
<g id="graph0" class="graph" transform="scale(1 1) rotate(0) translate(4 62)">
<title>m_interporb_filt::interp_orb_filt</title>
<polygon fill="white" stroke="transparent" points="-4,4 -4,-62 382,-62 382,4 -4,4"/>
<!-- Node1 -->
<g id="node1" class="node">
<title>Node1</title>
<g id="a_node1"><a xlink:title=" ">
<polygon fill="#bfbfbf" stroke="black" points="267,-14 267,-44 378,-44 378,-14 267,-14"/>
<text text-anchor="start" x="275" y="-32" font-family="Helvetica,sans-Serif" font-size="10.00">m_interporb_filt::interp</text>
<text text-anchor="middle" x="322.5" y="-21" font-family="Helvetica,sans-Serif" font-size="10.00">_orb_filt</text>
</a>
</g>
</g>
<!-- Node2 -->
<g id="node2" class="node">
<title>Node2</title>
<g id="a_node2"><a xlink:href="namespacem__interporb.html#a631fd5c000c2c7afd7cd5f36179b4cc0" target="_top" xlink:title=" ">
<polygon fill="white" stroke="black" points="116,-19.5 116,-38.5 231,-38.5 231,-19.5 116,-19.5"/>
<text text-anchor="middle" x="173.5" y="-26.5" font-family="Helvetica,sans-Serif" font-size="10.00">m_interporb::interp_orb</text>
</a>
</g>
</g>
<!-- Node1&#45;&gt;Node2 -->
<g id="edge1" class="edge">
<title>Node1&#45;&gt;Node2</title>
<path fill="none" stroke="midnightblue" d="M256.57,-29C248.13,-29 239.54,-29 231.25,-29"/>
<polygon fill="midnightblue" stroke="midnightblue" points="256.76,-32.5 266.76,-29 256.76,-25.5 256.76,-32.5"/>
</g>
<!-- Node3 -->
<g id="node3" class="node">
<title>Node3</title>
<g id="a_node3"><a xlink:href="prm__orbext_8f95.html#a22ef50da05110c9316a9e9a935fe47a2" target="_top" xlink:title=" ">
<polygon fill="white" stroke="red" points="7.5,-38.5 7.5,-57.5 72.5,-57.5 72.5,-38.5 7.5,-38.5"/>
<text text-anchor="middle" x="40" y="-45.5" font-family="Helvetica,sans-Serif" font-size="10.00">prm_orbext</text>
</a>
</g>
</g>
<!-- Node2&#45;&gt;Node3 -->
<g id="edge2" class="edge">
<title>Node2&#45;&gt;Node3</title>
<path fill="none" stroke="midnightblue" d="M105.88,-38.63C94.36,-40.29 82.88,-41.95 72.85,-43.4"/>
<polygon fill="midnightblue" stroke="midnightblue" points="106.57,-42.06 115.97,-37.17 105.57,-35.13 106.57,-42.06"/>
</g>
<!-- Node8 -->
<g id="node4" class="node">
<title>Node8</title>
<g id="a_node4"><a xlink:href="prm__pseudobs_8f95.html#a9102cbfe661c31c134e733af690febc2" target="_top" xlink:title=" ">
<polygon fill="white" stroke="red" points="0,-0.5 0,-19.5 80,-19.5 80,-0.5 0,-0.5"/>
<text text-anchor="middle" x="40" y="-7.5" font-family="Helvetica,sans-Serif" font-size="10.00">prm_pseudobs</text>
</a>
</g>
</g>
<!-- Node2&#45;&gt;Node8 -->
<g id="edge3" class="edge">
<title>Node2&#45;&gt;Node8</title>
<path fill="none" stroke="midnightblue" d="M105.97,-19.39C97.09,-18.1 88.24,-16.82 80.04,-15.64"/>
<polygon fill="midnightblue" stroke="midnightblue" points="105.57,-22.87 115.97,-20.83 106.57,-15.94 105.57,-22.87"/>
</g>
</g>
</svg>
