<?xml version="1.0" encoding="UTF-8" standalone="no"?>
<!DOCTYPE svg PUBLIC "-//W3C//DTD SVG 1.1//EN"
 "http://www.w3.org/Graphics/SVG/1.1/DTD/svg11.dtd">
<!-- Generated by graphviz version 2.50.0 (20220203.2022)
 -->
<!-- Title: pod_yaml::get_ext_orbit_frame Pages: 1 -->
<svg width="284pt" height="57pt"
 viewBox="0.00 0.00 284.00 57.00" xmlns="http://www.w3.org/2000/svg" xmlns:xlink="http://www.w3.org/1999/xlink">
<g id="graph0" class="graph" transform="scale(1 1) rotate(0) translate(4 53)">
<title>pod_yaml::get_ext_orbit_frame</title>
<polygon fill="white" stroke="transparent" points="-4,4 -4,-53 280,-53 280,4 -4,4"/>
<!-- Node1 -->
<g id="node1" class="node">
<title>Node1</title>
<g id="a_node1"><a xlink:title=" ">
<polygon fill="#bfbfbf" stroke="black" points="0,-0.5 0,-30.5 118,-30.5 118,-0.5 0,-0.5"/>
<text text-anchor="start" x="8" y="-18.5" font-family="Helvetica,sans-Serif" font-size="10.00">pod_yaml::get_ext_orbit</text>
<text text-anchor="middle" x="59" y="-7.5" font-family="Helvetica,sans-Serif" font-size="10.00">_frame</text>
</a>
</g>
</g>
<!-- Node1&#45;&gt;Node1 -->
<g id="edge1" class="edge">
<title>Node1&#45;&gt;Node1</title>
<path fill="none" stroke="midnightblue" d="M31.81,-30.66C25.26,-40.06 34.32,-49 59,-49 74.04,-49 83.28,-45.68 86.72,-40.96"/>
<polygon fill="midnightblue" stroke="midnightblue" points="90.2,-40.46 86.19,-30.66 83.21,-40.83 90.2,-40.46"/>
</g>
<!-- Node2 -->
<g id="node2" class="node">
<title>Node2</title>
<g id="a_node2"><a xlink:href="namespacepod__yaml.html#a89669454b72a5dadaea9de7ce5ee3cc5" target="_top" xlink:title=" ">
<polygon fill="white" stroke="black" points="154,-0.5 154,-30.5 276,-30.5 276,-0.5 154,-0.5"/>
<text text-anchor="start" x="162" y="-18.5" font-family="Helvetica,sans-Serif" font-size="10.00">pod_yaml::get_reference</text>
<text text-anchor="middle" x="215" y="-7.5" font-family="Helvetica,sans-Serif" font-size="10.00">_system</text>
</a>
</g>
</g>
<!-- Node1&#45;&gt;Node2 -->
<g id="edge2" class="edge">
<title>Node1&#45;&gt;Node2</title>
<path fill="none" stroke="midnightblue" d="M118.22,-15.5C126.61,-15.5 135.31,-15.5 143.9,-15.5"/>
<polygon fill="midnightblue" stroke="midnightblue" points="143.9,-19 153.9,-15.5 143.9,-12 143.9,-19"/>
</g>
<!-- Node2&#45;&gt;Node2 -->
<g id="edge3" class="edge">
<title>Node2&#45;&gt;Node2</title>
<path fill="none" stroke="midnightblue" d="M187.81,-30.66C181.26,-40.06 190.32,-49 215,-49 230.04,-49 239.28,-45.68 242.72,-40.96"/>
<polygon fill="midnightblue" stroke="midnightblue" points="246.2,-40.46 242.19,-30.66 239.21,-40.83 246.2,-40.46"/>
</g>
</g>
</svg>
