<?xml version="1.0" encoding="UTF-8" standalone="no"?>
<!DOCTYPE svg PUBLIC "-//W3C//DTD SVG 1.1//EN"
 "http://www.w3.org/Graphics/SVG/1.1/DTD/svg11.dtd">
<!-- Generated by graphviz version 2.50.0 (20220203.2022)
 -->
<!-- Title: networkEstimator Pages: 1 -->
<!--zoomable 1206 -->
<svg id="main" version="1.1" xmlns="http://www.w3.org/2000/svg" xmlns:xlink="http://www.w3.org/1999/xlink" xml:space="preserve" onload="init(evt)">
<style type="text/css"><![CDATA[
.edge:hover path { stroke: red; }
.edge:hover polygon { stroke: red; fill: red; }
]]></style>
<script type="text/javascript"><![CDATA[
var edges = document.getElementsByTagName('g');
if (edges && edges.length) {
  for (var i=0;i<edges.length;i++) {
    if (edges[i].id.substr(0,4)=='edge') {
      edges[i].setAttribute('class','edge');
    }
  }
}
]]></script>
        <defs>
                <circle id="rim" cx="0" cy="0" r="7"/>
                <circle id="rim2" cx="0" cy="0" r="3.5"/>
                <g id="zoomPlus">
                        <use xlink:href="#rim" fill="#404040">
                                <set attributeName="fill" to="#808080" begin="zoomplus.mouseover" end="zoomplus.mouseout"/>
                        </use>
                        <path d="M-4,0h8M0,-4v8" fill="none" stroke="white" stroke-width="1.5" pointer-events="none"/>
                </g>
                <g id="zoomMin">
                        <use xlink:href="#rim" fill="#404040">
                                <set attributeName="fill" to="#808080" begin="zoomminus.mouseover" end="zoomminus.mouseout"/>
                        </use>
                        <path d="M-4,0h8" fill="none" stroke="white" stroke-width="1.5" pointer-events="none"/>
                </g>
                <g id="dirArrow">
                        <path fill="none" stroke="white" stroke-width="1.5" d="M0,-3.0v7 M-2.5,-0.5L0,-3.0L2.5,-0.5"/>
                </g>
               <g id="resetDef">
                       <use xlink:href="#rim2" fill="#404040">
                               <set attributeName="fill" to="#808080" begin="reset.mouseover" end="reset.mouseout"/>
                       </use>
               </g>
        </defs>

<script type="text/javascript">
var viewWidth = 605;
var viewHeight = 1206;
var sectionId = 'dynsection-3';
</script>
<script xlink:href="svgpan.js"/>
<svg id="graph" class="graph">
<g id="viewport">
<title>networkEstimator</title>
<polygon fill="white" stroke="transparent" points="-4,4 -4,-1202 601,-1202 601,4 -4,4"/>
<!-- Node1 -->
<g id="node1" class="node">
<title>Node1</title>
<g id="a_node1"><a xlink:title="Estimates parameters for a network of stations simultaneously.">
<polygon fill="#bfbfbf" stroke="black" points="0,-392.5 0,-411.5 92,-411.5 92,-392.5 0,-392.5"/>
<text text-anchor="middle" x="46" y="-399.5" font-family="Helvetica,sans-Serif" font-size="10.00">networkEstimator</text>
</a>
</g>
</g>
<!-- Node2 -->
<g id="node2" class="node">
<title>Node2</title>
<g id="a_node2"><a xlink:href="structKFMeasEntry.html#a5af30258b0bcd703468c0d0ec2ed6d54" target="_top" xlink:title="Adds a design matrix entry for this measurement.">
<polygon fill="white" stroke="black" points="131.5,-1178.5 131.5,-1197.5 271.5,-1197.5 271.5,-1178.5 131.5,-1178.5"/>
<text text-anchor="middle" x="201.5" y="-1185.5" font-family="Helvetica,sans-Serif" font-size="10.00">KFMeasEntry::addDsgnEntry</text>
</a>
</g>
</g>
<!-- Node1&#45;&gt;Node2 -->
<g id="edge1" class="edge">
<title>Node1&#45;&gt;Node2</title>
<path fill="none" stroke="midnightblue" d="M47.36,-411.68C50.64,-496.29 76.02,-1108.51 128,-1169 129.03,-1170.2 130.13,-1171.33 131.29,-1172.4"/>
<polygon fill="midnightblue" stroke="midnightblue" points="129.52,-1175.44 139.66,-1178.49 133.63,-1169.77 129.52,-1175.44"/>
</g>
<!-- Node3 -->
<g id="node3" class="node">
<title>Node3</title>
<g id="a_node3"><a xlink:href="structSatSys.html#a0c566f797b315fe7eeaa1c5b839f1de1" target="_top" xlink:title="Returns the bias group associated with this satellite.">
<polygon fill="white" stroke="black" points="153,-1140.5 153,-1159.5 250,-1159.5 250,-1140.5 153,-1140.5"/>
<text text-anchor="middle" x="201.5" y="-1147.5" font-family="Helvetica,sans-Serif" font-size="10.00">SatSys::biasGroup</text>
</a>
</g>
</g>
<!-- Node1&#45;&gt;Node3 -->
<g id="edge2" class="edge">
<title>Node1&#45;&gt;Node3</title>
<path fill="none" stroke="midnightblue" d="M47.42,-411.71C51.08,-494.07 78.52,-1073.73 128,-1131 132.24,-1135.91 137.58,-1139.63 143.44,-1142.43"/>
<polygon fill="midnightblue" stroke="midnightblue" points="142.38,-1145.78 152.96,-1146.13 144.91,-1139.25 142.38,-1145.78"/>
</g>
<!-- Node4 -->
<g id="node4" class="node">
<title>Node4</title>
<g id="a_node4"><a xlink:href="structKFState.html#abae5c2435fa3ca6bb4396cd8a5363f85" target="_top" xlink:title="Combine a list of KFMeasEntrys into a single KFMeas object for used in the filter.">
<polygon fill="white" stroke="black" points="128,-1102.5 128,-1121.5 275,-1121.5 275,-1102.5 128,-1102.5"/>
<text text-anchor="middle" x="201.5" y="-1109.5" font-family="Helvetica,sans-Serif" font-size="10.00">KFState::combineKFMeasList</text>
</a>
</g>
</g>
<!-- Node1&#45;&gt;Node4 -->
<g id="edge3" class="edge">
<title>Node1&#45;&gt;Node4</title>
<path fill="none" stroke="midnightblue" d="M46.77,-411.9C45.18,-487.87 38.54,-978.35 128,-1088 130.96,-1091.62 134.47,-1094.7 138.34,-1097.32"/>
<polygon fill="midnightblue" stroke="midnightblue" points="136.85,-1100.5 147.29,-1102.35 140.28,-1094.4 136.85,-1100.5"/>
</g>
<!-- Node6 -->
<g id="node6" class="node">
<title>Node6</title>
<g id="a_node6"><a xlink:href="networkEstimator_8cpp.html#ac12f8c95166096d5ea861f0b8213c9a8" target="_top" xlink:title="Check and correct clock jitter/wraparound.">
<polygon fill="white" stroke="black" points="154.5,-468.5 154.5,-487.5 248.5,-487.5 248.5,-468.5 154.5,-468.5"/>
<text text-anchor="middle" x="201.5" y="-475.5" font-family="Helvetica,sans-Serif" font-size="10.00">correctRecClocks</text>
</a>
</g>
</g>
<!-- Node1&#45;&gt;Node6 -->
<g id="edge5" class="edge">
<title>Node1&#45;&gt;Node6</title>
<path fill="none" stroke="midnightblue" d="M59.6,-411.52C75.05,-422.85 102.36,-441.77 128,-454 136.88,-458.24 146.71,-462.04 156.18,-465.29"/>
<polygon fill="midnightblue" stroke="midnightblue" points="155.28,-468.68 165.88,-468.49 157.47,-462.03 155.28,-468.68"/>
</g>
<!-- Node8 -->
<g id="node8" class="node">
<title>Node8</title>
<g id="a_node8"><a xlink:href="structACSConfig.html#a7ddfbaf20a1c9181d73d0dabe92beace" target="_top" xlink:title="Set receiver options for a specific receiver using a hierarchy of sources.">
<polygon fill="white" stroke="black" points="332,-418.5 332,-437.5 452,-437.5 452,-418.5 332,-418.5"/>
<text text-anchor="middle" x="392" y="-425.5" font-family="Helvetica,sans-Serif" font-size="10.00">ACSConfig::getRecOpts</text>
</a>
</g>
</g>
<!-- Node1&#45;&gt;Node8 -->
<g id="edge25" class="edge">
<title>Node1&#45;&gt;Node8</title>
<path fill="none" stroke="midnightblue" d="M80.61,-411.5C95.07,-415.17 112.24,-418.96 128,-421 193.43,-429.45 268.75,-430.6 321.97,-429.99"/>
<polygon fill="midnightblue" stroke="midnightblue" points="322.03,-433.49 331.98,-429.85 321.93,-426.49 322.03,-433.49"/>
</g>
<!-- Node16 -->
<g id="node11" class="node">
<title>Node16</title>
<g id="a_node11"><a xlink:href="structKFState.html#a21a4858020ad706771efeea814d6c43f" target="_top" xlink:title="Kalman filter operation.">
<polygon fill="white" stroke="black" points="147.5,-874.5 147.5,-893.5 255.5,-893.5 255.5,-874.5 147.5,-874.5"/>
<text text-anchor="middle" x="201.5" y="-881.5" font-family="Helvetica,sans-Serif" font-size="10.00">KFState::filterKalman</text>
</a>
</g>
</g>
<!-- Node1&#45;&gt;Node16 -->
<g id="edge10" class="edge">
<title>Node1&#45;&gt;Node16</title>
<path fill="none" stroke="midnightblue" d="M50.07,-411.63C68.83,-470.55 168.23,-782.66 194.26,-864.4"/>
<polygon fill="midnightblue" stroke="midnightblue" points="191.06,-865.88 197.43,-874.35 197.73,-863.76 191.06,-865.88"/>
</g>
<!-- Node19 -->
<g id="node14" class="node">
<title>Node19</title>
<g id="a_node14"><a xlink:href="structKFState.html#a34fe78e0ab7a8f1d122ceabddc29b207" target="_top" xlink:title="Clears and initialises the state transition matrix to identity at the beginning of an epoch.">
<polygon fill="white" stroke="black" points="332.5,-1102.5 332.5,-1121.5 451.5,-1121.5 451.5,-1102.5 332.5,-1102.5"/>
<text text-anchor="middle" x="392" y="-1109.5" font-family="Helvetica,sans-Serif" font-size="10.00">KFState::initFilterEpoch</text>
</a>
</g>
</g>
<!-- Node1&#45;&gt;Node19 -->
<g id="edge34" class="edge">
<title>Node1&#45;&gt;Node19</title>
<path fill="none" stroke="midnightblue" d="M47.55,-411.92C51.93,-490.1 82.44,-1005.14 128,-1055 134.87,-1062.52 254.46,-1086.25 329.99,-1100.61"/>
<polygon fill="midnightblue" stroke="midnightblue" points="329.41,-1104.07 339.88,-1102.49 330.71,-1097.19 329.41,-1104.07"/>
</g>
<!-- Node40 -->
<g id="node25" class="node">
<title>Node40</title>
<g id="a_node25"><a xlink:href="structSatSys.html#aa31d14f6b8c2100c085c732b9a3fef3f" target="_top" xlink:title="Constructs a SatSys object from it&#39;s hash uid.">
<polygon fill="white" stroke="black" points="154,-316.5 154,-335.5 249,-335.5 249,-316.5 154,-316.5"/>
<text text-anchor="middle" x="201.5" y="-323.5" font-family="Helvetica,sans-Serif" font-size="10.00">SatSys::fromHash</text>
</a>
</g>
</g>
<!-- Node1&#45;&gt;Node40 -->
<g id="edge24" class="edge">
<title>Node1&#45;&gt;Node40</title>
<path fill="none" stroke="midnightblue" d="M58,-392.3C72.88,-379.66 100.71,-357.67 128,-345 133.09,-342.64 138.52,-340.53 144.04,-338.66"/>
<polygon fill="midnightblue" stroke="midnightblue" points="145.5,-341.87 154,-335.55 143.41,-335.19 145.5,-341.87"/>
</g>
<!-- Node41 -->
<g id="node26" class="node">
<title>Node41</title>
<g id="a_node26"><a xlink:href="structACSConfig.html#a9f893b7ab2412f42ef7a02423d755940" target="_top" xlink:title="Set satellite options for a specific satellite using a hierarchy of sources.">
<polygon fill="white" stroke="black" points="142.5,-354.5 142.5,-373.5 260.5,-373.5 260.5,-354.5 142.5,-354.5"/>
<text text-anchor="middle" x="201.5" y="-361.5" font-family="Helvetica,sans-Serif" font-size="10.00">ACSConfig::getSatOpts</text>
</a>
</g>
</g>
<!-- Node1&#45;&gt;Node41 -->
<g id="edge26" class="edge">
<title>Node1&#45;&gt;Node41</title>
<path fill="none" stroke="midnightblue" d="M85.73,-392.41C105.9,-387.42 130.75,-381.27 152.16,-375.97"/>
<polygon fill="midnightblue" stroke="midnightblue" points="153.18,-379.32 162.04,-373.52 151.5,-372.53 153.18,-379.32"/>
</g>
<!-- Node28 -->
<g id="node28" class="node">
<title>Node28</title>
<g id="a_node28"><a xlink:href="structSatSys.html#aec6d07b90d1e8172b8b6a6966abef4fd" target="_top" xlink:title="Returns a std::string of this satellite&#39;s id.">
<polygon fill="white" stroke="red" points="362,-532.5 362,-551.5 422,-551.5 422,-532.5 362,-532.5"/>
<text text-anchor="middle" x="392" y="-539.5" font-family="Helvetica,sans-Serif" font-size="10.00">SatSys::id</text>
</a>
</g>
</g>
<!-- Node1&#45;&gt;Node28 -->
<g id="edge32" class="edge">
<title>Node1&#45;&gt;Node28</title>
<path fill="none" stroke="midnightblue" d="M52.18,-411.75C63.21,-431.47 91.07,-476 128,-497 199.16,-537.47 297.4,-543.51 351.43,-543.37"/>
<polygon fill="midnightblue" stroke="midnightblue" points="351.66,-546.87 361.62,-543.27 351.58,-539.87 351.66,-546.87"/>
</g>
<!-- Node45 -->
<g id="node31" class="node">
<title>Node45</title>
<g id="a_node31"><a xlink:href="networkEstimator_8cpp.html#a1b145154bdf2c87b17222894b3d8b80f" target="_top" xlink:title=" ">
<polygon fill="white" stroke="black" points="143.5,-278.5 143.5,-297.5 259.5,-297.5 259.5,-278.5 143.5,-278.5"/>
<text text-anchor="middle" x="201.5" y="-285.5" font-family="Helvetica,sans-Serif" font-size="10.00">incrementOutageCount</text>
</a>
</g>
</g>
<!-- Node1&#45;&gt;Node45 -->
<g id="edge33" class="edge">
<title>Node1&#45;&gt;Node45</title>
<path fill="none" stroke="midnightblue" d="M52.51,-392.22C63.94,-372.83 92.2,-329.47 128,-307 131.38,-304.88 134.98,-303 138.71,-301.32"/>
<polygon fill="midnightblue" stroke="midnightblue" points="140.18,-304.51 148.19,-297.58 137.6,-298 140.18,-304.51"/>
</g>
<!-- Node46 -->
<g id="node32" class="node">
<title>Node46</title>
<g id="a_node32"><a xlink:href="algebra_8cpp.html#a304f0d512353a3c5a991c2439ea73287" target="_top" xlink:title=" ">
<polygon fill="white" stroke="black" points="145.5,-240.5 145.5,-259.5 257.5,-259.5 257.5,-240.5 145.5,-240.5"/>
<text text-anchor="middle" x="201.5" y="-247.5" font-family="Helvetica,sans-Serif" font-size="10.00">initialStateFromConfig</text>
</a>
</g>
</g>
<!-- Node1&#45;&gt;Node46 -->
<g id="edge35" class="edge">
<title>Node1&#45;&gt;Node46</title>
<path fill="none" stroke="midnightblue" d="M50.07,-392.21C58.35,-367.47 83.55,-302.1 128,-269 130.53,-267.12 133.23,-265.42 136.04,-263.89"/>
<polygon fill="midnightblue" stroke="midnightblue" points="137.76,-266.95 145.35,-259.56 134.81,-260.61 137.76,-266.95"/>
</g>
<!-- Node47 -->
<g id="node33" class="node">
<title>Node47</title>
<g id="a_node33"><a xlink:href="structKFState.html#ae1fc274c403b77dc814ed90763b4dea1" target="_top" xlink:title="Least squares estimator for new kalman filter states.">
<polygon fill="white" stroke="black" points="140.5,-191 140.5,-221 262.5,-221 262.5,-191 140.5,-191"/>
<text text-anchor="start" x="148.5" y="-209" font-family="Helvetica,sans-Serif" font-size="10.00">KFState::leastSquareInit</text>
<text text-anchor="middle" x="201.5" y="-198" font-family="Helvetica,sans-Serif" font-size="10.00">States</text>
</a>
</g>
</g>
<!-- Node1&#45;&gt;Node47 -->
<g id="edge36" class="edge">
<title>Node1&#45;&gt;Node47</title>
<path fill="none" stroke="midnightblue" d="M48.84,-392.29C54.82,-363.42 76.36,-277.24 128,-231 129.73,-229.45 131.57,-227.99 133.48,-226.63"/>
<polygon fill="midnightblue" stroke="midnightblue" points="135.63,-229.41 142.31,-221.19 131.96,-223.45 135.63,-229.41"/>
</g>
<!-- Node49 -->
<g id="node35" class="node">
<title>Node49</title>
<g id="a_node35"><a xlink:href="orbits_8cpp.html#af8bbfb0593942b407e3b695eb6c13a30" target="_top" xlink:title=" ">
<polygon fill="white" stroke="black" points="170,-570.5 170,-589.5 233,-589.5 233,-570.5 170,-570.5"/>
<text text-anchor="middle" x="201.5" y="-577.5" font-family="Helvetica,sans-Serif" font-size="10.00">orbPartials</text>
</a>
</g>
</g>
<!-- Node1&#45;&gt;Node49 -->
<g id="edge38" class="edge">
<title>Node1&#45;&gt;Node49</title>
<path fill="none" stroke="midnightblue" d="M50.37,-411.81C59.35,-436.69 86.08,-503.1 128,-543 138.2,-552.7 151.43,-560.46 163.8,-566.31"/>
<polygon fill="midnightblue" stroke="midnightblue" points="162.47,-569.55 173.03,-570.42 165.32,-563.15 162.47,-569.55"/>
</g>
<!-- Node52 -->
<g id="node38" class="node">
<title>Node52</title>
<g id="a_node38"><a xlink:href="networkEstimator_8cpp.html#a4aec9796d8fba83efe8e2557b89d508a" target="_top" xlink:title=" ">
<polygon fill="white" stroke="black" points="156.5,-152.5 156.5,-171.5 246.5,-171.5 246.5,-152.5 156.5,-152.5"/>
<text text-anchor="middle" x="201.5" y="-159.5" font-family="Helvetica,sans-Serif" font-size="10.00">postFilterChecks</text>
</a>
</g>
</g>
<!-- Node1&#45;&gt;Node52 -->
<g id="edge43" class="edge">
<title>Node1&#45;&gt;Node52</title>
<path fill="none" stroke="midnightblue" d="M47.54,-392.4C49.99,-358.29 62.99,-241.79 128,-182 133.42,-177.02 139.97,-173.26 146.88,-170.43"/>
<polygon fill="midnightblue" stroke="midnightblue" points="148.16,-173.69 156.47,-167.11 145.88,-167.07 148.16,-173.69"/>
</g>
<!-- Node55 -->
<g id="node41" class="node">
<title>Node55</title>
<g id="a_node41"><a xlink:href="networkEstimator_8cpp.html#a552f5bd62ab4b7d536fa38bf0924a849" target="_top" xlink:title="Remove ambiguity states from filter when they deemed old or bad This effectively reinitialises them o...">
<polygon fill="white" stroke="black" points="143,-392.5 143,-411.5 260,-411.5 260,-392.5 143,-392.5"/>
<text text-anchor="middle" x="201.5" y="-399.5" font-family="Helvetica,sans-Serif" font-size="10.00">removeBadAmbiguities</text>
</a>
</g>
</g>
<!-- Node1&#45;&gt;Node55 -->
<g id="edge46" class="edge">
<title>Node1&#45;&gt;Node55</title>
<path fill="none" stroke="midnightblue" d="M92.22,-402C104.84,-402 118.83,-402 132.45,-402"/>
<polygon fill="midnightblue" stroke="midnightblue" points="132.76,-405.5 142.76,-402 132.76,-398.5 132.76,-405.5"/>
</g>
<!-- Node57 -->
<g id="node43" class="node">
<title>Node57</title>
<g id="a_node43"><a xlink:href="structKFState.html#a3808815eb5103a8d8f5514af130a0700" target="_top" xlink:title="Adds dynamics to a filter state by inserting off&#45;diagonal, time dependent elements to transition matr...">
<polygon fill="white" stroke="black" points="137.5,-114.5 137.5,-133.5 265.5,-133.5 265.5,-114.5 137.5,-114.5"/>
<text text-anchor="middle" x="201.5" y="-121.5" font-family="Helvetica,sans-Serif" font-size="10.00">KFState::setKFTransRate</text>
</a>
</g>
</g>
<!-- Node1&#45;&gt;Node57 -->
<g id="edge49" class="edge">
<title>Node1&#45;&gt;Node57</title>
<path fill="none" stroke="midnightblue" d="M46.91,-392.32C47.09,-354.4 53.01,-214.56 128,-143 129.64,-141.43 131.4,-139.99 133.25,-138.66"/>
<polygon fill="midnightblue" stroke="midnightblue" points="135.04,-141.66 141.86,-133.55 131.47,-135.65 135.04,-141.66"/>
</g>
<!-- Node59 -->
<g id="node45" class="node">
<title>Node59</title>
<g id="a_node45"><a xlink:href="structKFMeasEntry.html#a1054abe38550bcd614c1a3c1afe752ee" target="_top" xlink:title="Adds the measurement noise entry for this measurement.">
<polygon fill="white" stroke="black" points="142,-76.5 142,-95.5 261,-95.5 261,-76.5 142,-76.5"/>
<text text-anchor="middle" x="201.5" y="-83.5" font-family="Helvetica,sans-Serif" font-size="10.00">KFMeasEntry::setNoise</text>
</a>
</g>
</g>
<!-- Node1&#45;&gt;Node59 -->
<g id="edge51" class="edge">
<title>Node1&#45;&gt;Node59</title>
<path fill="none" stroke="midnightblue" d="M48.31,-392.47C54.81,-346.43 85.08,-147.49 128,-105 129.49,-103.52 131.08,-102.16 132.75,-100.9"/>
<polygon fill="midnightblue" stroke="midnightblue" points="135.02,-103.61 141.71,-95.4 131.35,-97.65 135.02,-103.61"/>
</g>
<!-- Node60 -->
<g id="node46" class="node">
<title>Node60</title>
<g id="a_node46"><a xlink:href="structKFMeasEntry.html#a56ed46a7048dcd7e87e75eebc342dc7d" target="_top" xlink:title="Adds the actual measurement value for this measurement.">
<polygon fill="white" stroke="black" points="142.5,-38.5 142.5,-57.5 260.5,-57.5 260.5,-38.5 142.5,-38.5"/>
<text text-anchor="middle" x="201.5" y="-45.5" font-family="Helvetica,sans-Serif" font-size="10.00">KFMeasEntry::setValue</text>
</a>
</g>
</g>
<!-- Node1&#45;&gt;Node60 -->
<g id="edge52" class="edge">
<title>Node1&#45;&gt;Node60</title>
<path fill="none" stroke="midnightblue" d="M48.02,-392.28C53.42,-342.38 80.33,-115.58 128,-67 129.67,-65.3 131.46,-63.75 133.37,-62.33"/>
<polygon fill="midnightblue" stroke="midnightblue" points="135.55,-65.1 142.29,-56.93 131.92,-59.11 135.55,-65.1"/>
</g>
<!-- Node61 -->
<g id="node47" class="node">
<title>Node61</title>
<g id="a_node47"><a xlink:href="structKFState.html#a170d9c3a01bee9ec1f7264615b087c58" target="_top" xlink:title="Add process noise and dynamics to filter object according to time gap.">
<polygon fill="white" stroke="black" points="140.5,-1026.5 140.5,-1045.5 262.5,-1045.5 262.5,-1026.5 140.5,-1026.5"/>
<text text-anchor="middle" x="201.5" y="-1033.5" font-family="Helvetica,sans-Serif" font-size="10.00">KFState::stateTransition</text>
</a>
</g>
</g>
<!-- Node1&#45;&gt;Node61 -->
<g id="edge53" class="edge">
<title>Node1&#45;&gt;Node61</title>
<path fill="none" stroke="midnightblue" d="M47.35,-411.51C49.46,-462.93 62.82,-712.51 128,-903 142.95,-946.68 171.49,-993.01 187.95,-1017.8"/>
<polygon fill="midnightblue" stroke="midnightblue" points="185.12,-1019.87 193.62,-1026.2 190.93,-1015.95 185.12,-1019.87"/>
</g>
<!-- Node62 -->
<g id="node48" class="node">
<title>Node62</title>
<g id="a_node48"><a xlink:href="networkEstimator_8cpp.html#adbb209c5763e1986e5382dc2c030f28a" target="_top" xlink:title=" ">
<polygon fill="white" stroke="black" points="154,-0.5 154,-19.5 249,-19.5 249,-0.5 154,-0.5"/>
<text text-anchor="middle" x="201.5" y="-7.5" font-family="Helvetica,sans-Serif" font-size="10.00">stationEopPartials</text>
</a>
</g>
</g>
<!-- Node1&#45;&gt;Node62 -->
<g id="edge58" class="edge">
<title>Node1&#45;&gt;Node62</title>
<path fill="none" stroke="midnightblue" d="M47.76,-392.26C52.11,-339.02 75.5,-83.78 128,-29 132.55,-24.25 138.13,-20.64 144.15,-17.9"/>
<polygon fill="midnightblue" stroke="midnightblue" points="145.75,-21.04 153.9,-14.27 143.31,-14.48 145.75,-21.04"/>
</g>
<!-- Node5 -->
<g id="node5" class="node">
<title>Node5</title>
<g id="a_node5"><a xlink:href="structKFState.html#a5aeeee0f20df8cc8c4747c1b5b18212f" target="_top" xlink:title="Finds the position in the KF state vector of particular states.">
<polygon fill="white" stroke="black" points="338.5,-1140.5 338.5,-1159.5 445.5,-1159.5 445.5,-1140.5 338.5,-1140.5"/>
<text text-anchor="middle" x="392" y="-1147.5" font-family="Helvetica,sans-Serif" font-size="10.00">KFState::getKFIndex</text>
</a>
</g>
</g>
<!-- Node4&#45;&gt;Node5 -->
<g id="edge4" class="edge">
<title>Node4&#45;&gt;Node5</title>
<path fill="none" stroke="midnightblue" d="M250.07,-1121.59C275.5,-1126.72 307,-1133.07 333.77,-1138.46"/>
<polygon fill="midnightblue" stroke="midnightblue" points="333.28,-1141.93 343.78,-1140.48 334.66,-1135.07 333.28,-1141.93"/>
</g>
<!-- Node7 -->
<g id="node7" class="node">
<title>Node7</title>
<g id="a_node7"><a xlink:href="structKFState.html#a84691f6bbbe3cdccaa14722995a61e1b" target="_top" xlink:title="Returns the value and variance of a state within the kalman filter object.">
<polygon fill="white" stroke="black" points="338,-456.5 338,-475.5 446,-475.5 446,-456.5 338,-456.5"/>
<text text-anchor="middle" x="392" y="-463.5" font-family="Helvetica,sans-Serif" font-size="10.00">KFState::getKFValue</text>
</a>
</g>
</g>
<!-- Node6&#45;&gt;Node7 -->
<g id="edge6" class="edge">
<title>Node6&#45;&gt;Node7</title>
<path fill="none" stroke="midnightblue" d="M248.61,-475.06C272.38,-473.55 301.73,-471.68 327.59,-470.04"/>
<polygon fill="midnightblue" stroke="midnightblue" points="327.93,-473.52 337.69,-469.39 327.49,-466.54 327.93,-473.52"/>
</g>
<!-- Node6&#45;&gt;Node8 -->
<g id="edge7" class="edge">
<title>Node6&#45;&gt;Node8</title>
<path fill="none" stroke="midnightblue" d="M234.68,-468.39C256.21,-462.07 285.22,-453.74 311,-447 320.23,-444.59 330.08,-442.14 339.61,-439.84"/>
<polygon fill="midnightblue" stroke="midnightblue" points="340.48,-443.23 349.39,-437.51 338.85,-436.43 340.48,-443.23"/>
</g>
<!-- Node15 -->
<g id="node10" class="node">
<title>Node15</title>
<g id="a_node10"><a xlink:href="structKFState.html#afa27fbd7603d376e9e67cb9c09ba7454" target="_top" xlink:title="Sets the value of a state within the kalman filter object.">
<polygon fill="white" stroke="black" points="338,-494.5 338,-513.5 446,-513.5 446,-494.5 338,-494.5"/>
<text text-anchor="middle" x="392" y="-501.5" font-family="Helvetica,sans-Serif" font-size="10.00">KFState::setKFValue</text>
</a>
</g>
</g>
<!-- Node6&#45;&gt;Node15 -->
<g id="edge9" class="edge">
<title>Node6&#45;&gt;Node15</title>
<path fill="none" stroke="midnightblue" d="M248.61,-484.36C272.38,-487.64 301.73,-491.69 327.59,-495.25"/>
<polygon fill="midnightblue" stroke="midnightblue" points="327.3,-498.75 337.69,-496.65 328.26,-491.81 327.3,-498.75"/>
</g>
<!-- Node9 -->
<g id="node9" class="node">
<title>Node9</title>
<g id="a_node9"><a xlink:href="acsConfig_8cpp.html#a93b507f5cfa7760051904a0a1863118a" target="_top" xlink:title="Set satellite options from yaml.">
<polygon fill="white" stroke="red" points="515.5,-342.5 515.5,-361.5 590.5,-361.5 590.5,-342.5 515.5,-342.5"/>
<text text-anchor="middle" x="553" y="-349.5" font-family="Helvetica,sans-Serif" font-size="10.00">getFromYaml</text>
</a>
</g>
</g>
<!-- Node8&#45;&gt;Node9 -->
<g id="edge8" class="edge">
<title>Node8&#45;&gt;Node9</title>
<path fill="none" stroke="midnightblue" d="M446.06,-418.5C455.25,-415.99 464.56,-412.86 473,-409 495.84,-398.55 518.76,-381.04 533.99,-368.18"/>
<polygon fill="midnightblue" stroke="midnightblue" points="536.34,-370.78 541.61,-361.59 531.76,-365.49 536.34,-370.78"/>
</g>
<!-- Node17 -->
<g id="node12" class="node">
<title>Node17</title>
<g id="a_node12"><a xlink:href="structKFState.html#ae6e89a4dca53b4c6f8a5eadb1f61dd5c" target="_top" xlink:title=" ">
<polygon fill="white" stroke="black" points="311,-836.5 311,-855.5 473,-855.5 473,-836.5 311,-836.5"/>
<text text-anchor="middle" x="392" y="-843.5" font-family="Helvetica,sans-Serif" font-size="10.00">KFState::doMeasRejectCallbacks</text>
</a>
</g>
</g>
<!-- Node16&#45;&gt;Node17 -->
<g id="edge11" class="edge">
<title>Node16&#45;&gt;Node17</title>
<path fill="none" stroke="midnightblue" d="M250.07,-874.41C275.5,-869.28 307,-862.93 333.77,-857.54"/>
<polygon fill="midnightblue" stroke="midnightblue" points="334.66,-860.93 343.78,-855.52 333.28,-854.07 334.66,-860.93"/>
</g>
<!-- Node18 -->
<g id="node13" class="node">
<title>Node18</title>
<g id="a_node13"><a xlink:href="structKFState.html#adc93fe4d98f33b24037d09e712e8400a" target="_top" xlink:title=" ">
<polygon fill="white" stroke="black" points="311.5,-798.5 311.5,-817.5 472.5,-817.5 472.5,-798.5 311.5,-798.5"/>
<text text-anchor="middle" x="392" y="-805.5" font-family="Helvetica,sans-Serif" font-size="10.00">KFState::doStateRejectCallbacks</text>
</a>
</g>
</g>
<!-- Node16&#45;&gt;Node18 -->
<g id="edge12" class="edge">
<title>Node16&#45;&gt;Node18</title>
<path fill="none" stroke="midnightblue" d="M217.74,-874.42C238.23,-861.9 276.13,-840.06 311,-827 317.8,-824.45 325.06,-822.17 332.32,-820.14"/>
<polygon fill="midnightblue" stroke="midnightblue" points="333.41,-823.47 342.19,-817.54 331.63,-816.7 333.41,-823.47"/>
</g>
<!-- Node16&#45;&gt;Node19 -->
<g id="edge13" class="edge">
<title>Node16&#45;&gt;Node19</title>
<path fill="none" stroke="midnightblue" d="M207.97,-893.58C220.31,-915.32 251.15,-970.12 275,-1017 291.95,-1050.31 281.96,-1069.48 311,-1093 314.59,-1095.91 318.55,-1098.39 322.74,-1100.49"/>
<polygon fill="midnightblue" stroke="midnightblue" points="321.61,-1103.82 332.18,-1104.54 324.37,-1097.39 321.61,-1103.82"/>
</g>
<!-- Node20 -->
<g id="node15" class="node">
<title>Node20</title>
<g id="a_node15"><a xlink:href="structKFState.html#a2280e82ccd3ebdefc388756580e5fad7" target="_top" xlink:title="Compute Chi&#45;square increment based on pre&#45;fit residuals (innovations)">
<polygon fill="white" stroke="black" points="329.5,-760.5 329.5,-779.5 454.5,-779.5 454.5,-760.5 329.5,-760.5"/>
<text text-anchor="middle" x="392" y="-767.5" font-family="Helvetica,sans-Serif" font-size="10.00">KFState::innovChiSquare</text>
</a>
</g>
</g>
<!-- Node16&#45;&gt;Node20 -->
<g id="edge14" class="edge">
<title>Node16&#45;&gt;Node20</title>
<path fill="none" stroke="midnightblue" d="M210.4,-874.5C226.96,-855.23 267.39,-811.49 311,-789 315.56,-786.65 320.42,-784.58 325.4,-782.77"/>
<polygon fill="midnightblue" stroke="midnightblue" points="326.68,-786.03 335.09,-779.58 324.49,-779.38 326.68,-786.03"/>
</g>
<!-- Node21 -->
<g id="node16" class="node">
<title>Node21</title>
<g id="a_node16"><a xlink:href="structKFState.html#a5b591c7386c7fb734067424a097ca118" target="_top" xlink:title="Kalman filter.">
<polygon fill="white" stroke="red" points="350,-722.5 350,-741.5 434,-741.5 434,-722.5 350,-722.5"/>
<text text-anchor="middle" x="392" y="-729.5" font-family="Helvetica,sans-Serif" font-size="10.00">KFState::kFilter</text>
</a>
</g>
</g>
<!-- Node16&#45;&gt;Node21 -->
<g id="edge15" class="edge">
<title>Node16&#45;&gt;Node21</title>
<path fill="none" stroke="midnightblue" d="M207.35,-874.49C220.43,-849.85 258.99,-783.6 311,-751 319.71,-745.54 329.85,-741.65 339.92,-738.88"/>
<polygon fill="midnightblue" stroke="midnightblue" points="341.02,-742.21 349.92,-736.46 339.38,-735.41 341.02,-742.21"/>
</g>
<!-- Node23 -->
<g id="node17" class="node">
<title>Node23</title>
<g id="a_node17"><a xlink:href="structKFState.html#a67bbec17e7e74bf5de0d83098281bfc0" target="_top" xlink:title="Compute Chi&#45;square increment based on post&#45;fit residuals.">
<polygon fill="white" stroke="black" points="329,-684.5 329,-703.5 455,-703.5 455,-684.5 329,-684.5"/>
<text text-anchor="middle" x="392" y="-691.5" font-family="Helvetica,sans-Serif" font-size="10.00">KFState::measChiSquare</text>
</a>
</g>
</g>
<!-- Node16&#45;&gt;Node23 -->
<g id="edge16" class="edge">
<title>Node16&#45;&gt;Node23</title>
<path fill="none" stroke="midnightblue" d="M205.63,-874.42C215.73,-845.14 250.3,-756.27 311,-713 313.73,-711.05 316.64,-709.3 319.66,-707.73"/>
<polygon fill="midnightblue" stroke="midnightblue" points="321.33,-710.81 329.02,-703.53 318.47,-704.43 321.33,-710.81"/>
</g>
<!-- Node24 -->
<g id="node18" class="node">
<title>Node24</title>
<g id="a_node18"><a xlink:href="mongoWrite_8cpp.html#a2b60515d35b3ad7ac783de1d8539495f" target="_top" xlink:title=" ">
<polygon fill="white" stroke="black" points="350.5,-988.5 350.5,-1007.5 433.5,-1007.5 433.5,-988.5 350.5,-988.5"/>
<text text-anchor="middle" x="392" y="-995.5" font-family="Helvetica,sans-Serif" font-size="10.00">mongoTestStat</text>
</a>
</g>
</g>
<!-- Node16&#45;&gt;Node24 -->
<g id="edge17" class="edge">
<title>Node16&#45;&gt;Node24</title>
<path fill="none" stroke="midnightblue" d="M210.4,-893.5C226.96,-912.77 267.39,-956.51 311,-979 320.04,-983.66 330.24,-987.2 340.27,-989.88"/>
<polygon fill="midnightblue" stroke="midnightblue" points="339.63,-993.33 350.18,-992.28 341.28,-986.53 339.63,-993.33"/>
</g>
<!-- Node25 -->
<g id="node19" class="node">
<title>Node25</title>
<g id="a_node19"><a xlink:href="structGTime.html#aaa8a379d11cd6c040a6bbe680c0e913e" target="_top" xlink:title="Uninitialised time for comparisons.">
<polygon fill="white" stroke="black" points="350.5,-1064.5 350.5,-1083.5 433.5,-1083.5 433.5,-1064.5 350.5,-1064.5"/>
<text text-anchor="middle" x="392" y="-1071.5" font-family="Helvetica,sans-Serif" font-size="10.00">GTime::noTime</text>
</a>
</g>
</g>
<!-- Node16&#45;&gt;Node25 -->
<g id="edge18" class="edge">
<title>Node16&#45;&gt;Node25</title>
<path fill="none" stroke="midnightblue" d="M207.35,-893.61C224.09,-926.37 280.08,-1032.96 311,-1055 319.63,-1061.15 329.99,-1065.34 340.34,-1068.17"/>
<polygon fill="midnightblue" stroke="midnightblue" points="339.68,-1071.61 350.21,-1070.5 341.28,-1064.8 339.68,-1071.61"/>
</g>
<!-- Node26 -->
<g id="node20" class="node">
<title>Node26</title>
<g id="a_node20"><a xlink:href="structKFState.html#aab4e5ed0ddc781d8b4db8de02af119cc" target="_top" xlink:title="Compare variances of measurements and filtered states to detect unreasonable values.">
<polygon fill="white" stroke="red" points="318,-950.5 318,-969.5 466,-969.5 466,-950.5 318,-950.5"/>
<text text-anchor="middle" x="392" y="-957.5" font-family="Helvetica,sans-Serif" font-size="10.00">KFState::postFitSigmaChecks</text>
</a>
</g>
</g>
<!-- Node16&#45;&gt;Node26 -->
<g id="edge19" class="edge">
<title>Node16&#45;&gt;Node26</title>
<path fill="none" stroke="midnightblue" d="M217.74,-893.58C238.23,-906.1 276.13,-927.94 311,-941 317.8,-943.55 325.06,-945.83 332.32,-947.86"/>
<polygon fill="midnightblue" stroke="midnightblue" points="331.63,-951.3 342.19,-950.46 333.41,-944.53 331.63,-951.3"/>
</g>
<!-- Node35 -->
<g id="node22" class="node">
<title>Node35</title>
<g id="a_node22"><a xlink:href="structKFState.html#a1d84b2acc0006963bdea090daa78685a" target="_top" xlink:title="Compare variances of measurements and pre&#45;filtered states to detect unreasonable values Ref: Wang et ...">
<polygon fill="white" stroke="black" points="323.5,-912.5 323.5,-931.5 460.5,-931.5 460.5,-912.5 323.5,-912.5"/>
<text text-anchor="middle" x="392" y="-919.5" font-family="Helvetica,sans-Serif" font-size="10.00">KFState::preFitSigmaCheck</text>
</a>
</g>
</g>
<!-- Node16&#45;&gt;Node35 -->
<g id="edge21" class="edge">
<title>Node16&#45;&gt;Node35</title>
<path fill="none" stroke="midnightblue" d="M250.07,-893.59C275.5,-898.72 307,-905.07 333.77,-910.46"/>
<polygon fill="midnightblue" stroke="midnightblue" points="333.28,-913.93 343.78,-912.48 334.66,-907.07 333.28,-913.93"/>
</g>
<!-- Node36 -->
<g id="node23" class="node">
<title>Node36</title>
<g id="a_node23"><a xlink:href="algebraTrace_8hpp.html#a912bbc3ba390c6b3a01f7cae26a53588" target="_top" xlink:title="Output filter state to a file for later reading.">
<polygon fill="white" stroke="red" points="351.5,-1026.5 351.5,-1045.5 432.5,-1045.5 432.5,-1026.5 351.5,-1026.5"/>
<text text-anchor="middle" x="392" y="-1033.5" font-family="Helvetica,sans-Serif" font-size="10.00">spitFilterToFile</text>
</a>
</g>
</g>
<!-- Node16&#45;&gt;Node36 -->
<g id="edge22" class="edge">
<title>Node16&#45;&gt;Node36</title>
<path fill="none" stroke="midnightblue" d="M207.35,-893.51C220.43,-918.15 258.99,-984.4 311,-1017 320.07,-1022.69 330.7,-1026.67 341.19,-1029.47"/>
<polygon fill="midnightblue" stroke="midnightblue" points="340.62,-1032.93 351.15,-1031.8 342.21,-1026.11 340.62,-1032.93"/>
</g>
<!-- Node39 -->
<g id="node24" class="node">
<title>Node39</title>
<g id="a_node24"><a xlink:href="structKFState.html#aa963c92f094f4c0f9d43eea2661723dd" target="_top" xlink:title="Compute Chi&#45;square increment based on the change of fitting solution.">
<polygon fill="white" stroke="black" points="330,-874.5 330,-893.5 454,-893.5 454,-874.5 330,-874.5"/>
<text text-anchor="middle" x="392" y="-881.5" font-family="Helvetica,sans-Serif" font-size="10.00">KFState::stateChiSquare</text>
</a>
</g>
</g>
<!-- Node16&#45;&gt;Node39 -->
<g id="edge23" class="edge">
<title>Node16&#45;&gt;Node39</title>
<path fill="none" stroke="midnightblue" d="M255.51,-884C275.35,-884 298.22,-884 319.46,-884"/>
<polygon fill="midnightblue" stroke="midnightblue" points="319.74,-887.5 329.74,-884 319.74,-880.5 319.74,-887.5"/>
</g>
<!-- Node31 -->
<g id="node21" class="node">
<title>Node31</title>
<g id="a_node21"><a xlink:href="structGTime.html#a64394968bbfdecbbeec4ba5134fdb682" target="_top" xlink:title=" ">
<polygon fill="white" stroke="red" points="509,-798.5 509,-817.5 597,-817.5 597,-798.5 509,-798.5"/>
<text text-anchor="middle" x="553" y="-805.5" font-family="Helvetica,sans-Serif" font-size="10.00">GTime::to_string</text>
</a>
</g>
</g>
<!-- Node26&#45;&gt;Node31 -->
<g id="edge20" class="edge">
<title>Node26&#45;&gt;Node31</title>
<path fill="none" stroke="midnightblue" d="M455.5,-950.47C461.74,-948 467.71,-944.89 473,-941 512.51,-911.95 535.84,-856.69 545.98,-827.38"/>
<polygon fill="midnightblue" stroke="midnightblue" points="549.32,-828.44 549.12,-817.85 542.67,-826.25 549.32,-828.44"/>
</g>
<!-- Node41&#45;&gt;Node9 -->
<g id="edge28" class="edge">
<title>Node41&#45;&gt;Node9</title>
<path fill="none" stroke="midnightblue" d="M256.24,-354.47C262.88,-352 269.31,-348.9 275,-345 297.58,-329.5 286.63,-307.48 311,-295 375.08,-262.17 404.49,-272.86 473,-295 497.44,-302.9 520.69,-321.49 535.55,-335.3"/>
<polygon fill="midnightblue" stroke="midnightblue" points="533.28,-337.97 542.91,-342.39 538.13,-332.93 533.28,-337.97"/>
</g>
<!-- Node42 -->
<g id="node27" class="node">
<title>Node42</title>
<g id="a_node27"><a xlink:href="structSatSys.html#a01de9e9cee76346f43550516bba9558e" target="_top" xlink:title=" ">
<polygon fill="white" stroke="black" points="343.5,-228.5 343.5,-247.5 440.5,-247.5 440.5,-228.5 343.5,-228.5"/>
<text text-anchor="middle" x="392" y="-235.5" font-family="Helvetica,sans-Serif" font-size="10.00">SatSys::blockType</text>
</a>
</g>
</g>
<!-- Node41&#45;&gt;Node42 -->
<g id="edge27" class="edge">
<title>Node41&#45;&gt;Node42</title>
<path fill="none" stroke="midnightblue" d="M259.65,-354.49C265.21,-352.01 270.46,-348.9 275,-345 305.52,-318.82 280.94,-288.71 311,-262 317.47,-256.25 325.26,-251.88 333.42,-248.56"/>
<polygon fill="midnightblue" stroke="midnightblue" points="334.85,-251.76 343.1,-245.11 332.51,-245.17 334.85,-251.76"/>
</g>
<!-- Node41&#45;&gt;Node28 -->
<g id="edge29" class="edge">
<title>Node41&#45;&gt;Node28</title>
<path fill="none" stroke="midnightblue" d="M260.65,-372.99C265.95,-375.57 270.87,-378.85 275,-383 320.32,-428.53 265.15,-477.99 311,-523 321.74,-533.54 337.2,-538.62 351.67,-540.95"/>
<polygon fill="midnightblue" stroke="midnightblue" points="351.6,-544.47 361.95,-542.2 352.45,-537.52 351.6,-544.47"/>
</g>
<!-- Node43 -->
<g id="node29" class="node">
<title>Node43</title>
<g id="a_node29"><a xlink:href="structSatSys.html#a1da3994cf03ff0ec115928954c9307bb" target="_top" xlink:title=" ">
<polygon fill="white" stroke="black" points="358,-342.5 358,-361.5 426,-361.5 426,-342.5 358,-342.5"/>
<text text-anchor="middle" x="392" y="-349.5" font-family="Helvetica,sans-Serif" font-size="10.00">SatSys::svn</text>
</a>
</g>
</g>
<!-- Node41&#45;&gt;Node43 -->
<g id="edge30" class="edge">
<title>Node41&#45;&gt;Node43</title>
<path fill="none" stroke="midnightblue" d="M260.59,-360.3C288.64,-358.52 321.72,-356.41 347.55,-354.77"/>
<polygon fill="midnightblue" stroke="midnightblue" points="348.02,-358.24 357.78,-354.11 347.58,-351.26 348.02,-358.24"/>
</g>
<!-- Node44 -->
<g id="node30" class="node">
<title>Node44</title>
<g id="a_node30"><a xlink:href="structSatSys.html#a099c890a6a613ec08f3260a51f0544f8" target="_top" xlink:title=" ">
<polygon fill="white" stroke="black" points="345,-304.5 345,-323.5 439,-323.5 439,-304.5 345,-304.5"/>
<text text-anchor="middle" x="392" y="-311.5" font-family="Helvetica,sans-Serif" font-size="10.00">SatSys::sysName</text>
</a>
</g>
</g>
<!-- Node41&#45;&gt;Node44 -->
<g id="edge31" class="edge">
<title>Node41&#45;&gt;Node44</title>
<path fill="none" stroke="midnightblue" d="M241.01,-354.41C252.03,-351.53 264.02,-348.26 275,-345 291.17,-340.19 294.78,-337.62 311,-333 319.58,-330.56 328.74,-328.17 337.68,-325.97"/>
<polygon fill="midnightblue" stroke="midnightblue" points="338.74,-329.31 347.64,-323.56 337.1,-322.51 338.74,-329.31"/>
</g>
<!-- Node48 -->
<g id="node34" class="node">
<title>Node48</title>
<g id="a_node34"><a xlink:href="structKFState.html#a326b2c602fc4aaa81c0342cb0333932f" target="_top" xlink:title="Perform chi squared quality control.">
<polygon fill="white" stroke="red" points="350,-190.5 350,-209.5 434,-209.5 434,-190.5 350,-190.5"/>
<text text-anchor="middle" x="392" y="-197.5" font-family="Helvetica,sans-Serif" font-size="10.00">KFState::chiQC</text>
</a>
</g>
</g>
<!-- Node47&#45;&gt;Node48 -->
<g id="edge37" class="edge">
<title>Node47&#45;&gt;Node48</title>
<path fill="none" stroke="midnightblue" d="M262.66,-204.09C287.44,-203.3 315.85,-202.39 339.63,-201.64"/>
<polygon fill="midnightblue" stroke="midnightblue" points="339.97,-205.13 349.86,-201.31 339.75,-198.13 339.97,-205.13"/>
</g>
<!-- Node49&#45;&gt;Node31 -->
<g id="edge41" class="edge">
<title>Node49&#45;&gt;Node31</title>
<path fill="none" stroke="midnightblue" d="M217.73,-589.6C238.22,-602.13 276.11,-623.99 311,-637 380.29,-662.85 413.36,-631.27 473,-675 512.55,-703.99 535.87,-759.28 545.99,-788.61"/>
<polygon fill="midnightblue" stroke="midnightblue" points="542.68,-789.74 549.13,-798.14 549.33,-787.55 542.68,-789.74"/>
</g>
<!-- Node49&#45;&gt;Node28 -->
<g id="edge39" class="edge">
<title>Node49&#45;&gt;Node28</title>
<path fill="none" stroke="midnightblue" d="M233.21,-573.81C265.58,-567.28 316.69,-556.98 351.92,-549.88"/>
<polygon fill="midnightblue" stroke="midnightblue" points="352.75,-553.28 361.86,-547.87 351.36,-546.42 352.75,-553.28"/>
</g>
<!-- Node50 -->
<g id="node36" class="node">
<title>Node50</title>
<g id="a_node36"><a xlink:href="preceph_8cpp.html#a3484687362aab309b89c125d59887180" target="_top" xlink:title=" ">
<polygon fill="white" stroke="black" points="365.5,-608.5 365.5,-627.5 418.5,-627.5 418.5,-608.5 365.5,-608.5"/>
<text text-anchor="middle" x="392" y="-615.5" font-family="Helvetica,sans-Serif" font-size="10.00">interppol</text>
</a>
</g>
</g>
<!-- Node49&#45;&gt;Node50 -->
<g id="edge40" class="edge">
<title>Node49&#45;&gt;Node50</title>
<path fill="none" stroke="midnightblue" d="M233.21,-586.19C266.72,-592.95 320.31,-603.75 355.58,-610.86"/>
<polygon fill="midnightblue" stroke="midnightblue" points="354.96,-614.3 365.45,-612.85 356.34,-607.44 354.96,-614.3"/>
</g>
<!-- Node51 -->
<g id="node37" class="node">
<title>Node51</title>
<g id="a_node37"><a xlink:href="streamTrace_8cpp.html#a26d8a8c49d22d1ec101a45f8ee2e1fcc" target="_top" xlink:title=" ">
<polygon fill="white" stroke="black" points="365,-570.5 365,-589.5 419,-589.5 419,-570.5 365,-570.5"/>
<text text-anchor="middle" x="392" y="-577.5" font-family="Helvetica,sans-Serif" font-size="10.00">tracepde</text>
</a>
</g>
</g>
<!-- Node49&#45;&gt;Node51 -->
<g id="edge42" class="edge">
<title>Node49&#45;&gt;Node51</title>
<path fill="none" stroke="midnightblue" d="M233.21,-580C266.39,-580 319.25,-580 354.52,-580"/>
<polygon fill="midnightblue" stroke="midnightblue" points="354.87,-583.5 364.87,-580 354.87,-576.5 354.87,-583.5"/>
</g>
<!-- Node53 -->
<g id="node39" class="node">
<title>Node53</title>
<g id="a_node39"><a xlink:href="ppp_8cpp.html#a25f6a8757de3716a61a1c0952978aa9a" target="_top" xlink:title=" ">
<polygon fill="white" stroke="black" points="335.5,-152.5 335.5,-171.5 448.5,-171.5 448.5,-152.5 335.5,-152.5"/>
<text text-anchor="middle" x="392" y="-159.5" font-family="Helvetica,sans-Serif" font-size="10.00">resetPhaseSignalError</text>
</a>
</g>
</g>
<!-- Node52&#45;&gt;Node53 -->
<g id="edge44" class="edge">
<title>Node52&#45;&gt;Node53</title>
<path fill="none" stroke="midnightblue" d="M246.69,-162C270.04,-162 299.15,-162 325.11,-162"/>
<polygon fill="midnightblue" stroke="midnightblue" points="325.25,-165.5 335.25,-162 325.25,-158.5 325.25,-165.5"/>
</g>
<!-- Node54 -->
<g id="node40" class="node">
<title>Node54</title>
<g id="a_node40"><a xlink:href="ppp_8cpp.html#aa7876230dc10974f36981266f3df6cde" target="_top" xlink:title=" ">
<polygon fill="white" stroke="black" points="329.5,-114.5 329.5,-133.5 454.5,-133.5 454.5,-114.5 329.5,-114.5"/>
<text text-anchor="middle" x="392" y="-121.5" font-family="Helvetica,sans-Serif" font-size="10.00">resetPhaseSignalOutage</text>
</a>
</g>
</g>
<!-- Node52&#45;&gt;Node54 -->
<g id="edge45" class="edge">
<title>Node52&#45;&gt;Node54</title>
<path fill="none" stroke="midnightblue" d="M246.69,-153.09C272.67,-147.85 305.79,-141.18 333.74,-135.54"/>
<polygon fill="midnightblue" stroke="midnightblue" points="334.68,-138.92 343.79,-133.52 333.29,-132.06 334.68,-138.92"/>
</g>
<!-- Node55&#45;&gt;Node8 -->
<g id="edge47" class="edge">
<title>Node55&#45;&gt;Node8</title>
<path fill="none" stroke="midnightblue" d="M260.08,-409.94C279.53,-412.62 301.45,-415.65 321.71,-418.44"/>
<polygon fill="midnightblue" stroke="midnightblue" points="321.43,-421.94 331.82,-419.84 322.39,-415 321.43,-421.94"/>
</g>
<!-- Node56 -->
<g id="node42" class="node">
<title>Node56</title>
<g id="a_node42"><a xlink:href="structKFState.html#abdf1505bdab1895a280fd018979849f1" target="_top" xlink:title="Remove a state from a kalman filter object.">
<polygon fill="white" stroke="black" points="335.5,-380.5 335.5,-399.5 448.5,-399.5 448.5,-380.5 335.5,-380.5"/>
<text text-anchor="middle" x="392" y="-387.5" font-family="Helvetica,sans-Serif" font-size="10.00">KFState::removeState</text>
</a>
</g>
</g>
<!-- Node55&#45;&gt;Node56 -->
<g id="edge48" class="edge">
<title>Node55&#45;&gt;Node56</title>
<path fill="none" stroke="midnightblue" d="M260.08,-398.33C280.64,-397.03 303.97,-395.54 325.17,-394.19"/>
<polygon fill="midnightblue" stroke="midnightblue" points="325.63,-397.67 335.39,-393.54 325.19,-390.68 325.63,-397.67"/>
</g>
<!-- Node58 -->
<g id="node44" class="node">
<title>Node58</title>
<g id="a_node44"><a xlink:href="structKFState.html#a86b5a2dd8946dc0bd53606e7b2ff8c11" target="_top" xlink:title="Tries to add a state to the filter object.">
<polygon fill="white" stroke="black" points="337.5,-76.5 337.5,-95.5 446.5,-95.5 446.5,-76.5 337.5,-76.5"/>
<text text-anchor="middle" x="392" y="-83.5" font-family="Helvetica,sans-Serif" font-size="10.00">KFState::addKFState</text>
</a>
</g>
</g>
<!-- Node57&#45;&gt;Node58 -->
<g id="edge50" class="edge">
<title>Node57&#45;&gt;Node58</title>
<path fill="none" stroke="midnightblue" d="M250.07,-114.41C275.5,-109.28 307,-102.93 333.77,-97.54"/>
<polygon fill="midnightblue" stroke="midnightblue" points="334.66,-100.93 343.78,-95.52 333.28,-94.07 334.66,-100.93"/>
</g>
<!-- Node61&#45;&gt;Node5 -->
<g id="edge54" class="edge">
<title>Node61&#45;&gt;Node5</title>
<path fill="none" stroke="midnightblue" d="M215.8,-1045.54C230.71,-1056.44 255.36,-1075.09 275,-1093 292.19,-1108.68 290.84,-1119.38 311,-1131 316.44,-1134.13 322.37,-1136.75 328.46,-1138.94"/>
<polygon fill="midnightblue" stroke="midnightblue" points="327.53,-1142.32 338.12,-1142.03 329.67,-1135.65 327.53,-1142.32"/>
</g>
<!-- Node61&#45;&gt;Node19 -->
<g id="edge55" class="edge">
<title>Node61&#45;&gt;Node19</title>
<path fill="none" stroke="midnightblue" d="M241.44,-1045.57C252.69,-1049.2 264.71,-1053.96 275,-1060 293.72,-1070.99 291.82,-1082.83 311,-1093 315.46,-1095.36 320.21,-1097.44 325.09,-1099.25"/>
<polygon fill="midnightblue" stroke="midnightblue" points="323.99,-1102.58 334.59,-1102.44 326.22,-1095.94 323.99,-1102.58"/>
</g>
<!-- Node61&#45;&gt;Node25 -->
<g id="edge56" class="edge">
<title>Node61&#45;&gt;Node25</title>
<path fill="none" stroke="midnightblue" d="M250.07,-1045.59C277.65,-1051.15 312.38,-1058.15 340.46,-1063.81"/>
<polygon fill="midnightblue" stroke="midnightblue" points="339.98,-1067.29 350.48,-1065.83 341.36,-1060.42 339.98,-1067.29"/>
</g>
<!-- Node61&#45;&gt;Node36 -->
<g id="edge57" class="edge">
<title>Node61&#45;&gt;Node36</title>
<path fill="none" stroke="midnightblue" d="M262.66,-1036C287.91,-1036 316.93,-1036 340.98,-1036"/>
<polygon fill="midnightblue" stroke="midnightblue" points="341.3,-1039.5 351.3,-1036 341.3,-1032.5 341.3,-1039.5"/>
</g>
</g>
</svg>
        <g id="navigator" transform="translate(0 0)" fill="#404254">
                <rect fill="#f2f5e9" fill-opacity="0.5" stroke="#606060" stroke-width=".5" x="0" y="0" width="60" height="60"/>
                <use id="zoomplus" xlink:href="#zoomPlus" x="17" y="9" onmousedown="handleZoom(evt,'in')"/>
                <use id="zoomminus" xlink:href="#zoomMin" x="42" y="9" onmousedown="handleZoom(evt,'out')"/>
                <use id="reset" xlink:href="#resetDef" x="30" y="36" onmousedown="handleReset()"/>
                <g id="arrowUp" xlink:href="#dirArrow" transform="translate(30 24)" onmousedown="handlePan(0,-1)">
                  <use xlink:href="#rim" fill="#404040">
                        <set attributeName="fill" to="#808080" begin="arrowUp.mouseover" end="arrowUp.mouseout"/>
                  </use>
                  <path fill="none" stroke="white" stroke-width="1.5" d="M0,-3.0v7 M-2.5,-0.5L0,-3.0L2.5,-0.5"/>
                </g>
                <g id="arrowRight" xlink:href="#dirArrow" transform="rotate(90) translate(36 -43)" onmousedown="handlePan(1,0)">
                  <use xlink:href="#rim" fill="#404040">
                        <set attributeName="fill" to="#808080" begin="arrowRight.mouseover" end="arrowRight.mouseout"/>
                  </use>
                  <path fill="none" stroke="white" stroke-width="1.5" d="M0,-3.0v7 M-2.5,-0.5L0,-3.0L2.5,-0.5"/>
                </g>
                <g id="arrowDown" xlink:href="#dirArrow" transform="rotate(180) translate(-30 -48)" onmousedown="handlePan(0,1)">
                  <use xlink:href="#rim" fill="#404040">
                        <set attributeName="fill" to="#808080" begin="arrowDown.mouseover" end="arrowDown.mouseout"/>
                  </use>
                  <path fill="none" stroke="white" stroke-width="1.5" d="M0,-3.0v7 M-2.5,-0.5L0,-3.0L2.5,-0.5"/>
                </g>
                <g id="arrowLeft" xlink:href="#dirArrow" transform="rotate(270) translate(-36 17)" onmousedown="handlePan(-1,0)">
                  <use xlink:href="#rim" fill="#404040">
                        <set attributeName="fill" to="#808080" begin="arrowLeft.mouseover" end="arrowLeft.mouseout"/>
                  </use>
                  <path fill="none" stroke="white" stroke-width="1.5" d="M0,-3.0v7 M-2.5,-0.5L0,-3.0L2.5,-0.5"/>
                </g>
        </g>
        <svg viewBox="0 0 15 15" width="100%" height="30px" preserveAspectRatio="xMaxYMin meet">
         <g id="arrow_out" transform="scale(0.3 0.3)">
          <a xlink:href="networkEstimator_8cpp_a36828506971a6b66c6e61db51197c9e1_cgraph_org.svg" target="_base">
           <rect id="button" ry="5" rx="5" y="6" x="6" height="38" width="38"
                fill="#f2f5e9" fill-opacity="0.5" stroke="#606060" stroke-width="1.0"/>
           <path id="arrow"
             d="M 11.500037,31.436501 C 11.940474,20.09759 22.043105,11.32322 32.158766,21.979434 L 37.068811,17.246167 C 37.068811,17.246167 37.088388,32 37.088388,32 L 22.160133,31.978069 C 22.160133,31.978069 26.997745,27.140456 26.997745,27.140456 C 18.528582,18.264221 13.291696,25.230495 11.500037,31.436501 z"
             style="fill:#404040;"/>
          </a>
         </g>
        </svg>
</svg>
