<?xml version="1.0" encoding="UTF-8" standalone="no"?>
<!DOCTYPE svg PUBLIC "-//W3C//DTD SVG 1.1//EN"
 "http://www.w3.org/Graphics/SVG/1.1/DTD/svg11.dtd">
<!-- Generated by graphviz version 2.50.0 (20220203.2022)
 -->
<!-- Title: removeBadIonospheres Pages: 1 -->
<svg width="339pt" height="28pt"
 viewBox="0.00 0.00 339.00 28.00" xmlns="http://www.w3.org/2000/svg" xmlns:xlink="http://www.w3.org/1999/xlink">
<g id="graph0" class="graph" transform="scale(1 1) rotate(0) translate(4 24)">
<title>removeBadIonospheres</title>
<polygon fill="white" stroke="transparent" points="-4,4 -4,-24 335,-24 335,4 -4,4"/>
<!-- Node1 -->
<g id="node1" class="node">
<title>Node1</title>
<g id="a_node1"><a xlink:title="Remove ambiguity states from filter when they deemed old or bad This effectively reinitialises them o...">
<polygon fill="#bfbfbf" stroke="black" points="212,-0.5 212,-19.5 331,-19.5 331,-0.5 212,-0.5"/>
<text text-anchor="middle" x="271.5" y="-7.5" font-family="Helvetica,sans-Serif" font-size="10.00">removeBadIonospheres</text>
</a>
</g>
</g>
<!-- Node2 -->
<g id="node2" class="node">
<title>Node2</title>
<g id="a_node2"><a xlink:href="ppppp_8cpp.html#a936f239adc72073920104f4acc2aea67" target="_top" xlink:title=" ">
<polygon fill="white" stroke="black" points="139,-0.5 139,-19.5 176,-19.5 176,-0.5 139,-0.5"/>
<text text-anchor="middle" x="157.5" y="-7.5" font-family="Helvetica,sans-Serif" font-size="10.00">PPP</text>
</a>
</g>
</g>
<!-- Node1&#45;&gt;Node2 -->
<g id="edge1" class="edge">
<title>Node1&#45;&gt;Node2</title>
<path fill="none" stroke="midnightblue" d="M201.68,-10C192.41,-10 183.63,-10 176.45,-10"/>
<polygon fill="midnightblue" stroke="midnightblue" points="201.88,-13.5 211.88,-10 201.88,-6.5 201.88,-13.5"/>
</g>
<!-- Node3 -->
<g id="node3" class="node">
<title>Node3</title>
<g id="a_node3"><a xlink:href="main_8cpp.html#a30c68344d30ddfe1e926f8472b86f094" target="_top" xlink:title=" ">
<polygon fill="white" stroke="black" points="0,-0.5 0,-19.5 103,-19.5 103,-0.5 0,-0.5"/>
<text text-anchor="middle" x="51.5" y="-7.5" font-family="Helvetica,sans-Serif" font-size="10.00">mainOncePerEpoch</text>
</a>
</g>
</g>
<!-- Node2&#45;&gt;Node3 -->
<g id="edge2" class="edge">
<title>Node2&#45;&gt;Node3</title>
<path fill="none" stroke="midnightblue" d="M128.84,-10C121,-10 112.19,-10 103.43,-10"/>
<polygon fill="midnightblue" stroke="midnightblue" points="128.86,-13.5 138.86,-10 128.86,-6.5 128.86,-13.5"/>
</g>
</g>
</svg>
