<?xml version="1.0" encoding="UTF-8" standalone="no"?>
<!DOCTYPE svg PUBLIC "-//W3C//DTD SVG 1.1//EN"
 "http://www.w3.org/Graphics/SVG/1.1/DTD/svg11.dtd">
<!-- Generated by graphviz version 2.50.0 (20220203.2022)
 -->
<!-- Title: /github/workspace/src/cpp/common/ntripSocket.hpp Pages: 1 -->
<!--zoomable 251 -->
<svg id="main" version="1.1" xmlns="http://www.w3.org/2000/svg" xmlns:xlink="http://www.w3.org/1999/xlink" xml:space="preserve" onload="init(evt)">
<style type="text/css"><![CDATA[
.edge:hover path { stroke: red; }
.edge:hover polygon { stroke: red; fill: red; }
]]></style>
<script type="text/javascript"><![CDATA[
var edges = document.getElementsByTagName('g');
if (edges && edges.length) {
  for (var i=0;i<edges.length;i++) {
    if (edges[i].id.substr(0,4)=='edge') {
      edges[i].setAttribute('class','edge');
    }
  }
}
]]></script>
        <defs>
                <circle id="rim" cx="0" cy="0" r="7"/>
                <circle id="rim2" cx="0" cy="0" r="3.5"/>
                <g id="zoomPlus">
                        <use xlink:href="#rim" fill="#404040">
                                <set attributeName="fill" to="#808080" begin="zoomplus.mouseover" end="zoomplus.mouseout"/>
                        </use>
                        <path d="M-4,0h8M0,-4v8" fill="none" stroke="white" stroke-width="1.5" pointer-events="none"/>
                </g>
                <g id="zoomMin">
                        <use xlink:href="#rim" fill="#404040">
                                <set attributeName="fill" to="#808080" begin="zoomminus.mouseover" end="zoomminus.mouseout"/>
                        </use>
                        <path d="M-4,0h8" fill="none" stroke="white" stroke-width="1.5" pointer-events="none"/>
                </g>
                <g id="dirArrow">
                        <path fill="none" stroke="white" stroke-width="1.5" d="M0,-3.0v7 M-2.5,-0.5L0,-3.0L2.5,-0.5"/>
                </g>
               <g id="resetDef">
                       <use xlink:href="#rim2" fill="#404040">
                               <set attributeName="fill" to="#808080" begin="reset.mouseover" end="reset.mouseout"/>
                       </use>
               </g>
        </defs>

<script type="text/javascript">
var viewWidth = 927;
var viewHeight = 251;
var sectionId = 'dynsection-0';
</script>
<script xlink:href="svgpan.js"/>
<svg id="graph" class="graph">
<g id="viewport">
<title>/github/workspace/src/cpp/common/ntripSocket.hpp</title>
<polygon fill="white" stroke="transparent" points="-4,4 -4,-247 922.5,-247 922.5,4 -4,4"/>
<!-- Node1 -->
<g id="node1" class="node">
<title>Node1</title>
<g id="a_node1"><a xlink:title=" ">
<polygon fill="#bfbfbf" stroke="black" points="456.5,-212.5 456.5,-242.5 602.5,-242.5 602.5,-212.5 456.5,-212.5"/>
<text text-anchor="start" x="464.5" y="-230.5" font-family="Helvetica,sans-Serif" font-size="10.00">/github/workspace/src</text>
<text text-anchor="middle" x="529.5" y="-219.5" font-family="Helvetica,sans-Serif" font-size="10.00">/cpp/common/ntripSocket.hpp</text>
</a>
</g>
</g>
<!-- Node2 -->
<g id="node2" class="node">
<title>Node2</title>
<g id="a_node2"><a xlink:href="brdc2sp3__main__bck_8cpp.html" target="_top" xlink:title=" ">
<polygon fill="white" stroke="black" points="0,-0.5 0,-41.5 121,-41.5 121,-0.5 0,-0.5"/>
<text text-anchor="start" x="8" y="-29.5" font-family="Helvetica,sans-Serif" font-size="10.00">/github/workspace/src</text>
<text text-anchor="start" x="8" y="-18.5" font-family="Helvetica,sans-Serif" font-size="10.00">/cpp/brdc2sp3/brdc2sp3</text>
<text text-anchor="middle" x="60.5" y="-7.5" font-family="Helvetica,sans-Serif" font-size="10.00">_main_bck.cpp</text>
</a>
</g>
</g>
<!-- Node1&#45;&gt;Node2 -->
<g id="edge1" class="edge">
<title>Node1&#45;&gt;Node2</title>
<path fill="none" stroke="midnightblue" d="M446.13,-219.5C317.54,-206.73 80.49,-174.7 31.5,-109 16.46,-88.83 31.03,-60.42 44.39,-41.62"/>
<polygon fill="midnightblue" stroke="midnightblue" points="446.04,-223.01 456.33,-220.49 446.72,-216.04 446.04,-223.01"/>
</g>
<!-- Node3 -->
<g id="node3" class="node">
<title>Node3</title>
<g id="a_node3"><a xlink:href="ntripBroadcast_8hpp.html" target="_top" xlink:title=" ">
<polygon fill="white" stroke="black" points="368.5,-78.5 368.5,-108.5 528.5,-108.5 528.5,-78.5 368.5,-78.5"/>
<text text-anchor="start" x="376.5" y="-96.5" font-family="Helvetica,sans-Serif" font-size="10.00">/github/workspace/src</text>
<text text-anchor="middle" x="448.5" y="-85.5" font-family="Helvetica,sans-Serif" font-size="10.00">/cpp/common/ntripBroadcast.hpp</text>
</a>
</g>
</g>
<!-- Node1&#45;&gt;Node3 -->
<g id="edge2" class="edge">
<title>Node1&#45;&gt;Node3</title>
<path fill="none" stroke="midnightblue" d="M515.59,-203.83C498.8,-176.47 471.07,-131.28 457.11,-108.52"/>
<polygon fill="midnightblue" stroke="midnightblue" points="512.62,-205.68 520.83,-212.37 518.58,-202.02 512.62,-205.68"/>
</g>
<!-- Node5 -->
<g id="node5" class="node">
<title>Node5</title>
<g id="a_node5"><a xlink:href="main_8cpp.html" target="_top" xlink:title=" ">
<polygon fill="white" stroke="black" points="524,-6 524,-36 637,-36 637,-6 524,-6"/>
<text text-anchor="start" x="532" y="-24" font-family="Helvetica,sans-Serif" font-size="10.00">/github/workspace/src</text>
<text text-anchor="middle" x="580.5" y="-13" font-family="Helvetica,sans-Serif" font-size="10.00">/cpp/pea/main.cpp</text>
</a>
</g>
</g>
<!-- Node1&#45;&gt;Node5 -->
<g id="edge18" class="edge">
<title>Node1&#45;&gt;Node5</title>
<path fill="none" stroke="midnightblue" d="M535.47,-202.58C546.18,-159.62 568.36,-70.7 576.97,-36.15"/>
<polygon fill="midnightblue" stroke="midnightblue" points="532.03,-201.89 533.01,-212.44 538.82,-203.59 532.03,-201.89"/>
</g>
<!-- Node7 -->
<g id="node7" class="node">
<title>Node7</title>
<g id="a_node7"><a xlink:href="ntripSocket_8cpp.html" target="_top" xlink:title=" ">
<polygon fill="white" stroke="black" points="772.5,-145.5 772.5,-175.5 918.5,-175.5 918.5,-145.5 772.5,-145.5"/>
<text text-anchor="start" x="780.5" y="-163.5" font-family="Helvetica,sans-Serif" font-size="10.00">/github/workspace/src</text>
<text text-anchor="middle" x="845.5" y="-152.5" font-family="Helvetica,sans-Serif" font-size="10.00">/cpp/common/ntripSocket.cpp</text>
</a>
</g>
</g>
<!-- Node1&#45;&gt;Node7 -->
<g id="edge6" class="edge">
<title>Node1&#45;&gt;Node7</title>
<path fill="none" stroke="midnightblue" d="M607.53,-210.45C659.55,-199.75 727.28,-185.82 777.17,-175.55"/>
<polygon fill="midnightblue" stroke="midnightblue" points="606.77,-207.03 597.68,-212.48 608.18,-213.89 606.77,-207.03"/>
</g>
<!-- Node8 -->
<g id="node8" class="node">
<title>Node8</title>
<g id="a_node8"><a xlink:href="ntripSourceTable_8hpp.html" target="_top" xlink:title=" ">
<polygon fill="white" stroke="black" points="584.5,-145.5 584.5,-175.5 754.5,-175.5 754.5,-145.5 584.5,-145.5"/>
<text text-anchor="start" x="592.5" y="-163.5" font-family="Helvetica,sans-Serif" font-size="10.00">/github/workspace/src</text>
<text text-anchor="middle" x="669.5" y="-152.5" font-family="Helvetica,sans-Serif" font-size="10.00">/cpp/common/ntripSourceTable.hpp</text>
</a>
</g>
</g>
<!-- Node1&#45;&gt;Node8 -->
<g id="edge7" class="edge">
<title>Node1&#45;&gt;Node8</title>
<path fill="none" stroke="midnightblue" d="M569.07,-208.13C591.31,-197.8 618.65,-185.11 639.18,-175.58"/>
<polygon fill="midnightblue" stroke="midnightblue" points="567.47,-205.01 559.88,-212.4 570.42,-211.36 567.47,-205.01"/>
</g>
<!-- Node10 -->
<g id="node10" class="node">
<title>Node10</title>
<g id="a_node10"><a xlink:href="streamNtrip_8hpp.html" target="_top" xlink:title=" ">
<polygon fill="white" stroke="black" points="265.5,-145.5 265.5,-175.5 413.5,-175.5 413.5,-145.5 265.5,-145.5"/>
<text text-anchor="start" x="273.5" y="-163.5" font-family="Helvetica,sans-Serif" font-size="10.00">/github/workspace/src</text>
<text text-anchor="middle" x="339.5" y="-152.5" font-family="Helvetica,sans-Serif" font-size="10.00">/cpp/common/streamNtrip.hpp</text>
</a>
</g>
</g>
<!-- Node1&#45;&gt;Node10 -->
<g id="edge10" class="edge">
<title>Node1&#45;&gt;Node10</title>
<path fill="none" stroke="midnightblue" d="M478.61,-209.09C447.94,-198.6 409.39,-185.41 380.65,-175.58"/>
<polygon fill="midnightblue" stroke="midnightblue" points="477.68,-212.47 488.27,-212.4 479.94,-205.85 477.68,-212.47"/>
</g>
<!-- Node4 -->
<g id="node4" class="node">
<title>Node4</title>
<g id="a_node4"><a xlink:href="ntripBroadcast_8cpp.html" target="_top" xlink:title=" ">
<polygon fill="white" stroke="black" points="163.5,-6 163.5,-36 323.5,-36 323.5,-6 163.5,-6"/>
<text text-anchor="start" x="171.5" y="-24" font-family="Helvetica,sans-Serif" font-size="10.00">/github/workspace/src</text>
<text text-anchor="middle" x="243.5" y="-13" font-family="Helvetica,sans-Serif" font-size="10.00">/cpp/common/ntripBroadcast.cpp</text>
</a>
</g>
</g>
<!-- Node3&#45;&gt;Node4 -->
<g id="edge3" class="edge">
<title>Node3&#45;&gt;Node4</title>
<path fill="none" stroke="midnightblue" d="M397.96,-75.12C363,-63.1 317.08,-47.31 284.42,-36.07"/>
<polygon fill="midnightblue" stroke="midnightblue" points="396.91,-78.46 407.51,-78.4 399.19,-71.84 396.91,-78.46"/>
</g>
<!-- Node3&#45;&gt;Node5 -->
<g id="edge4" class="edge">
<title>Node3&#45;&gt;Node5</title>
<path fill="none" stroke="midnightblue" d="M483.97,-73.56C506.06,-61.76 534.02,-46.83 554.15,-36.07"/>
<polygon fill="midnightblue" stroke="midnightblue" points="482.07,-70.6 474.89,-78.4 485.36,-76.78 482.07,-70.6"/>
</g>
<!-- Node6 -->
<g id="node6" class="node">
<title>Node6</title>
<g id="a_node6"><a xlink:href="uploadMain_8cpp.html" target="_top" xlink:title=" ">
<polygon fill="white" stroke="black" points="341.5,-6 341.5,-36 505.5,-36 505.5,-6 341.5,-6"/>
<text text-anchor="start" x="349.5" y="-24" font-family="Helvetica,sans-Serif" font-size="10.00">/github/workspace/src</text>
<text text-anchor="middle" x="423.5" y="-13" font-family="Helvetica,sans-Serif" font-size="10.00">/cpp/peaUploader/uploadMain.cpp</text>
</a>
</g>
</g>
<!-- Node3&#45;&gt;Node6 -->
<g id="edge5" class="edge">
<title>Node3&#45;&gt;Node6</title>
<path fill="none" stroke="midnightblue" d="M440.01,-68.56C436.2,-57.82 431.84,-45.51 428.55,-36.25"/>
<polygon fill="midnightblue" stroke="midnightblue" points="436.8,-69.98 443.44,-78.23 443.4,-67.64 436.8,-69.98"/>
</g>
<!-- Node8&#45;&gt;Node5 -->
<g id="edge9" class="edge">
<title>Node8&#45;&gt;Node5</title>
<path fill="none" stroke="midnightblue" d="M726.71,-141.03C741.22,-133.47 755.08,-123.09 763.5,-109 770.57,-97.17 771.69,-89.08 763.5,-78 734.75,-39.14 679.57,-26.36 637.28,-22.57"/>
<polygon fill="midnightblue" stroke="midnightblue" points="725.13,-137.91 717.62,-145.38 728.16,-144.22 725.13,-137.91"/>
</g>
<!-- Node9 -->
<g id="node9" class="node">
<title>Node9</title>
<g id="a_node9"><a xlink:href="ntripSourceTable_8cpp.html" target="_top" xlink:title=" ">
<polygon fill="white" stroke="black" points="584.5,-78.5 584.5,-108.5 754.5,-108.5 754.5,-78.5 584.5,-78.5"/>
<text text-anchor="start" x="592.5" y="-96.5" font-family="Helvetica,sans-Serif" font-size="10.00">/github/workspace/src</text>
<text text-anchor="middle" x="669.5" y="-85.5" font-family="Helvetica,sans-Serif" font-size="10.00">/cpp/common/ntripSourceTable.cpp</text>
</a>
</g>
</g>
<!-- Node8&#45;&gt;Node9 -->
<g id="edge8" class="edge">
<title>Node8&#45;&gt;Node9</title>
<path fill="none" stroke="midnightblue" d="M669.5,-135.11C669.5,-126.15 669.5,-116.32 669.5,-108.58"/>
<polygon fill="midnightblue" stroke="midnightblue" points="666,-135.4 669.5,-145.4 673,-135.4 666,-135.4"/>
</g>
<!-- Node10&#45;&gt;Node3 -->
<g id="edge16" class="edge">
<title>Node10&#45;&gt;Node3</title>
<path fill="none" stroke="midnightblue" d="M372.17,-140.02C389.14,-129.9 409.48,-117.77 424.89,-108.58"/>
<polygon fill="midnightblue" stroke="midnightblue" points="369.95,-137.27 363.15,-145.4 373.53,-143.28 369.95,-137.27"/>
</g>
<!-- Node11 -->
<g id="node11" class="node">
<title>Node11</title>
<g id="a_node11"><a xlink:href="acsStream_8hpp.html" target="_top" xlink:title=" ">
<polygon fill="white" stroke="red" points="206.5,-78.5 206.5,-108.5 350.5,-108.5 350.5,-78.5 206.5,-78.5"/>
<text text-anchor="start" x="214.5" y="-96.5" font-family="Helvetica,sans-Serif" font-size="10.00">/github/workspace/src</text>
<text text-anchor="middle" x="278.5" y="-85.5" font-family="Helvetica,sans-Serif" font-size="10.00">/cpp/common/acsStream.hpp</text>
</a>
</g>
</g>
<!-- Node10&#45;&gt;Node11 -->
<g id="edge11" class="edge">
<title>Node10&#45;&gt;Node11</title>
<path fill="none" stroke="midnightblue" d="M319.35,-138.02C310.26,-128.34 299.78,-117.17 291.71,-108.58"/>
<polygon fill="midnightblue" stroke="midnightblue" points="316.87,-140.5 326.26,-145.4 321.97,-135.71 316.87,-140.5"/>
</g>
<!-- Node16 -->
<g id="node12" class="node">
<title>Node16</title>
<g id="a_node12"><a xlink:href="streamNtrip_8cpp.html" target="_top" xlink:title=" ">
<polygon fill="white" stroke="black" points="40.5,-78.5 40.5,-108.5 188.5,-108.5 188.5,-78.5 40.5,-78.5"/>
<text text-anchor="start" x="48.5" y="-96.5" font-family="Helvetica,sans-Serif" font-size="10.00">/github/workspace/src</text>
<text text-anchor="middle" x="114.5" y="-85.5" font-family="Helvetica,sans-Serif" font-size="10.00">/cpp/common/streamNtrip.cpp</text>
</a>
</g>
</g>
<!-- Node10&#45;&gt;Node16 -->
<g id="edge17" class="edge">
<title>Node10&#45;&gt;Node16</title>
<path fill="none" stroke="midnightblue" d="M280.93,-142.58C244.39,-132.02 197.9,-118.59 163.35,-108.61"/>
<polygon fill="midnightblue" stroke="midnightblue" points="280.38,-146.06 290.96,-145.48 282.32,-139.34 280.38,-146.06"/>
</g>
<!-- Node11&#45;&gt;Node2 -->
<g id="edge12" class="edge">
<title>Node11&#45;&gt;Node2</title>
<path fill="none" stroke="midnightblue" d="M225.26,-75.28C193.77,-65.1 153.78,-52.17 121.08,-41.59"/>
<polygon fill="midnightblue" stroke="midnightblue" points="224.58,-78.74 235.17,-78.49 226.73,-72.08 224.58,-78.74"/>
</g>
<!-- Node11&#45;&gt;Node4 -->
<g id="edge13" class="edge">
<title>Node11&#45;&gt;Node4</title>
<path fill="none" stroke="midnightblue" d="M266.95,-69.23C261.54,-58.33 255.27,-45.7 250.57,-36.25"/>
<polygon fill="midnightblue" stroke="midnightblue" points="263.84,-70.83 271.42,-78.23 270.11,-67.72 263.84,-70.83"/>
</g>
<!-- Node11&#45;&gt;Node5 -->
<g id="edge14" class="edge">
<title>Node11&#45;&gt;Node5</title>
<path fill="none" stroke="midnightblue" d="M360.47,-76.71C406.05,-67.49 463.66,-55.12 514.5,-42 521.46,-40.21 528.78,-38.15 535.91,-36.06"/>
<polygon fill="midnightblue" stroke="midnightblue" points="359.76,-73.28 350.64,-78.69 361.14,-80.15 359.76,-73.28"/>
</g>
<!-- Node11&#45;&gt;Node6 -->
<g id="edge15" class="edge">
<title>Node11&#45;&gt;Node6</title>
<path fill="none" stroke="midnightblue" d="M316.49,-74.03C340.91,-62.16 372.14,-46.97 394.56,-36.07"/>
<polygon fill="midnightblue" stroke="midnightblue" points="314.96,-70.88 307.49,-78.4 318.02,-77.18 314.96,-70.88"/>
</g>
</g>
</svg>
        <g id="navigator" transform="translate(0 0)" fill="#404254">
                <rect fill="#f2f5e9" fill-opacity="0.5" stroke="#606060" stroke-width=".5" x="0" y="0" width="60" height="60"/>
                <use id="zoomplus" xlink:href="#zoomPlus" x="17" y="9" onmousedown="handleZoom(evt,'in')"/>
                <use id="zoomminus" xlink:href="#zoomMin" x="42" y="9" onmousedown="handleZoom(evt,'out')"/>
                <use id="reset" xlink:href="#resetDef" x="30" y="36" onmousedown="handleReset()"/>
                <g id="arrowUp" xlink:href="#dirArrow" transform="translate(30 24)" onmousedown="handlePan(0,-1)">
                  <use xlink:href="#rim" fill="#404040">
                        <set attributeName="fill" to="#808080" begin="arrowUp.mouseover" end="arrowUp.mouseout"/>
                  </use>
                  <path fill="none" stroke="white" stroke-width="1.5" d="M0,-3.0v7 M-2.5,-0.5L0,-3.0L2.5,-0.5"/>
                </g>
                <g id="arrowRight" xlink:href="#dirArrow" transform="rotate(90) translate(36 -43)" onmousedown="handlePan(1,0)">
                  <use xlink:href="#rim" fill="#404040">
                        <set attributeName="fill" to="#808080" begin="arrowRight.mouseover" end="arrowRight.mouseout"/>
                  </use>
                  <path fill="none" stroke="white" stroke-width="1.5" d="M0,-3.0v7 M-2.5,-0.5L0,-3.0L2.5,-0.5"/>
                </g>
                <g id="arrowDown" xlink:href="#dirArrow" transform="rotate(180) translate(-30 -48)" onmousedown="handlePan(0,1)">
                  <use xlink:href="#rim" fill="#404040">
                        <set attributeName="fill" to="#808080" begin="arrowDown.mouseover" end="arrowDown.mouseout"/>
                  </use>
                  <path fill="none" stroke="white" stroke-width="1.5" d="M0,-3.0v7 M-2.5,-0.5L0,-3.0L2.5,-0.5"/>
                </g>
                <g id="arrowLeft" xlink:href="#dirArrow" transform="rotate(270) translate(-36 17)" onmousedown="handlePan(-1,0)">
                  <use xlink:href="#rim" fill="#404040">
                        <set attributeName="fill" to="#808080" begin="arrowLeft.mouseover" end="arrowLeft.mouseout"/>
                  </use>
                  <path fill="none" stroke="white" stroke-width="1.5" d="M0,-3.0v7 M-2.5,-0.5L0,-3.0L2.5,-0.5"/>
                </g>
        </g>
        <svg viewBox="0 0 15 15" width="100%" height="30px" preserveAspectRatio="xMaxYMin meet">
         <g id="arrow_out" transform="scale(0.3 0.3)">
          <a xlink:href="ntripSocket_8hpp__dep__incl_org.svg" target="_base">
           <rect id="button" ry="5" rx="5" y="6" x="6" height="38" width="38"
                fill="#f2f5e9" fill-opacity="0.5" stroke="#606060" stroke-width="1.0"/>
           <path id="arrow"
             d="M 11.500037,31.436501 C 11.940474,20.09759 22.043105,11.32322 32.158766,21.979434 L 37.068811,17.246167 C 37.068811,17.246167 37.088388,32 37.088388,32 L 22.160133,31.978069 C 22.160133,31.978069 26.997745,27.140456 26.997745,27.140456 C 18.528582,18.264221 13.291696,25.230495 11.500037,31.436501 z"
             style="fill:#404040;"/>
          </a>
         </g>
        </svg>
</svg>
