<?xml version="1.0" encoding="UTF-8" standalone="no"?>
<!DOCTYPE svg PUBLIC "-//W3C//DTD SVG 1.1//EN"
 "http://www.w3.org/Graphics/SVG/1.1/DTD/svg11.dtd">
<!-- Generated by graphviz version 2.50.0 (20220203.2022)
 -->
<!-- Title: /github/workspace/src/cpp/common/ntripSourceTable.hpp Pages: 1 -->
<svg width="310pt" height="106pt"
 viewBox="0.00 0.00 309.50 106.00" xmlns="http://www.w3.org/2000/svg" xmlns:xlink="http://www.w3.org/1999/xlink">
<g id="graph0" class="graph" transform="scale(1 1) rotate(0) translate(4 102)">
<title>/github/workspace/src/cpp/common/ntripSourceTable.hpp</title>
<polygon fill="white" stroke="transparent" points="-4,4 -4,-102 305.5,-102 305.5,4 -4,4"/>
<!-- Node1 -->
<g id="node1" class="node">
<title>Node1</title>
<g id="a_node1"><a xlink:title=" ">
<polygon fill="#bfbfbf" stroke="black" points="80,-67.5 80,-97.5 250,-97.5 250,-67.5 80,-67.5"/>
<text text-anchor="start" x="88" y="-85.5" font-family="Helvetica,sans-Serif" font-size="10.00">/github/workspace/src</text>
<text text-anchor="middle" x="165" y="-74.5" font-family="Helvetica,sans-Serif" font-size="10.00">/cpp/common/ntripSourceTable.hpp</text>
</a>
</g>
</g>
<!-- Node2 -->
<g id="node2" class="node">
<title>Node2</title>
<g id="a_node2"><a xlink:href="ntripSourceTable_8cpp.html" target="_top" xlink:title=" ">
<polygon fill="white" stroke="black" points="0,-0.5 0,-30.5 170,-30.5 170,-0.5 0,-0.5"/>
<text text-anchor="start" x="8" y="-18.5" font-family="Helvetica,sans-Serif" font-size="10.00">/github/workspace/src</text>
<text text-anchor="middle" x="85" y="-7.5" font-family="Helvetica,sans-Serif" font-size="10.00">/cpp/common/ntripSourceTable.cpp</text>
</a>
</g>
</g>
<!-- Node1&#45;&gt;Node2 -->
<g id="edge1" class="edge">
<title>Node1&#45;&gt;Node2</title>
<path fill="none" stroke="midnightblue" d="M139.63,-60.88C127.47,-51.01 113.22,-39.43 102.32,-30.58"/>
<polygon fill="midnightblue" stroke="midnightblue" points="137.67,-63.81 147.64,-67.4 142.09,-58.37 137.67,-63.81"/>
</g>
<!-- Node3 -->
<g id="node3" class="node">
<title>Node3</title>
<g id="a_node3"><a xlink:href="main_8cpp.html" target="_top" xlink:title=" ">
<polygon fill="white" stroke="black" points="188.5,-0.5 188.5,-30.5 301.5,-30.5 301.5,-0.5 188.5,-0.5"/>
<text text-anchor="start" x="196.5" y="-18.5" font-family="Helvetica,sans-Serif" font-size="10.00">/github/workspace/src</text>
<text text-anchor="middle" x="245" y="-7.5" font-family="Helvetica,sans-Serif" font-size="10.00">/cpp/pea/main.cpp</text>
</a>
</g>
</g>
<!-- Node1&#45;&gt;Node3 -->
<g id="edge2" class="edge">
<title>Node1&#45;&gt;Node3</title>
<path fill="none" stroke="midnightblue" d="M190.37,-60.88C202.53,-51.01 216.78,-39.43 227.68,-30.58"/>
<polygon fill="midnightblue" stroke="midnightblue" points="187.91,-58.37 182.36,-67.4 192.33,-63.81 187.91,-58.37"/>
</g>
</g>
</svg>
