<?xml version="1.0" encoding="UTF-8" standalone="no"?>
<!DOCTYPE svg PUBLIC "-//W3C//DTD SVG 1.1//EN"
 "http://www.w3.org/Graphics/SVG/1.1/DTD/svg11.dtd">
<!-- Generated by graphviz version 2.50.0 (20220203.2022)
 -->
<!-- Title: orb3sp3 Pages: 1 -->
<svg width="246pt" height="47pt"
 viewBox="0.00 0.00 246.00 47.00" xmlns="http://www.w3.org/2000/svg" xmlns:xlink="http://www.w3.org/1999/xlink">
<g id="graph0" class="graph" transform="scale(1 1) rotate(0) translate(4 43)">
<title>orb3sp3</title>
<polygon fill="white" stroke="transparent" points="-4,4 -4,-43 242,-43 242,4 -4,4"/>
<!-- Node1 -->
<g id="node1" class="node">
<title>Node1</title>
<g id="a_node1"><a xlink:title=" ">
<polygon fill="#bfbfbf" stroke="black" points="0,-0.5 0,-19.5 51,-19.5 51,-0.5 0,-0.5"/>
<text text-anchor="middle" x="25.5" y="-7.5" font-family="Helvetica,sans-Serif" font-size="10.00">orb3sp3</text>
</a>
</g>
</g>
<!-- Node2 -->
<g id="node2" class="node">
<title>Node2</title>
<g id="a_node2"><a xlink:href="orb__sp3_8f90.html#a3d374ee329f1bf49ba116d77e507d765" target="_top" xlink:title=" ">
<polygon fill="white" stroke="black" points="87,-19.5 87,-38.5 138,-38.5 138,-19.5 87,-19.5"/>
<text text-anchor="middle" x="112.5" y="-26.5" font-family="Helvetica,sans-Serif" font-size="10.00">orb_sp3</text>
</a>
</g>
</g>
<!-- Node1&#45;&gt;Node2 -->
<g id="edge1" class="edge">
<title>Node1&#45;&gt;Node2</title>
<path fill="none" stroke="midnightblue" d="M51.09,-15.5C59.19,-17.31 68.36,-19.36 77.06,-21.3"/>
<polygon fill="midnightblue" stroke="midnightblue" points="76.45,-24.75 86.97,-23.52 77.97,-17.92 76.45,-24.75"/>
</g>
<!-- Node3 -->
<g id="node3" class="node">
<title>Node3</title>
<g id="a_node3"><a xlink:href="write__array_8f90.html#acda5566ba9b8ed1317a37bfc53c3a5a7" target="_top" xlink:title=" ">
<polygon fill="white" stroke="red" points="174,-0.5 174,-19.5 238,-19.5 238,-0.5 174,-0.5"/>
<text text-anchor="middle" x="206" y="-7.5" font-family="Helvetica,sans-Serif" font-size="10.00">write_array</text>
</a>
</g>
</g>
<!-- Node1&#45;&gt;Node3 -->
<g id="edge3" class="edge">
<title>Node1&#45;&gt;Node3</title>
<path fill="none" stroke="midnightblue" d="M51.32,-10C80.32,-10 128.74,-10 163.49,-10"/>
<polygon fill="midnightblue" stroke="midnightblue" points="163.79,-13.5 173.79,-10 163.79,-6.5 163.79,-13.5"/>
</g>
<!-- Node2&#45;&gt;Node3 -->
<g id="edge2" class="edge">
<title>Node2&#45;&gt;Node3</title>
<path fill="none" stroke="midnightblue" d="M138.02,-23.91C146.02,-22.25 155.13,-20.35 164,-18.51"/>
<polygon fill="midnightblue" stroke="midnightblue" points="164.77,-21.93 173.85,-16.47 163.34,-15.08 164.77,-21.93"/>
</g>
</g>
</svg>
