<?xml version="1.0" encoding="UTF-8" standalone="no"?>
<!DOCTYPE svg PUBLIC "-//W3C//DTD SVG 1.1//EN"
 "http://www.w3.org/Graphics/SVG/1.1/DTD/svg11.dtd">
<!-- Generated by graphviz version 2.50.0 (20220203.2022)
 -->
<!-- Title: orb3sp3_2 Pages: 1 -->
<svg width="271pt" height="47pt"
 viewBox="0.00 0.00 271.00 47.00" xmlns="http://www.w3.org/2000/svg" xmlns:xlink="http://www.w3.org/1999/xlink">
<g id="graph0" class="graph" transform="scale(1 1) rotate(0) translate(4 43)">
<title>orb3sp3_2</title>
<polygon fill="white" stroke="transparent" points="-4,4 -4,-43 267,-43 267,4 -4,4"/>
<!-- Node1 -->
<g id="node1" class="node">
<title>Node1</title>
<g id="a_node1"><a xlink:title=" ">
<polygon fill="#bfbfbf" stroke="black" points="0,-0.5 0,-19.5 62,-19.5 62,-0.5 0,-0.5"/>
<text text-anchor="middle" x="31" y="-7.5" font-family="Helvetica,sans-Serif" font-size="10.00">orb3sp3_2</text>
</a>
</g>
</g>
<!-- Node2 -->
<g id="node2" class="node">
<title>Node2</title>
<g id="a_node2"><a xlink:href="interp__orb2_8f90.html#ac95fe7b4c99df98f81e3f473c8c7b022" target="_top" xlink:title=" ">
<polygon fill="white" stroke="black" points="98,-19.5 98,-38.5 163,-38.5 163,-19.5 98,-19.5"/>
<text text-anchor="middle" x="130.5" y="-26.5" font-family="Helvetica,sans-Serif" font-size="10.00">interp_orb2</text>
</a>
</g>
</g>
<!-- Node1&#45;&gt;Node2 -->
<g id="edge1" class="edge">
<title>Node1&#45;&gt;Node2</title>
<path fill="none" stroke="midnightblue" d="M62.05,-15.86C70.17,-17.44 79.11,-19.18 87.75,-20.86"/>
<polygon fill="midnightblue" stroke="midnightblue" points="87.21,-24.32 97.69,-22.8 88.55,-17.45 87.21,-24.32"/>
</g>
<!-- Node3 -->
<g id="node3" class="node">
<title>Node3</title>
<g id="a_node3"><a xlink:href="write__array_8f90.html#acda5566ba9b8ed1317a37bfc53c3a5a7" target="_top" xlink:title=" ">
<polygon fill="white" stroke="red" points="199,-0.5 199,-19.5 263,-19.5 263,-0.5 199,-0.5"/>
<text text-anchor="middle" x="231" y="-7.5" font-family="Helvetica,sans-Serif" font-size="10.00">write_array</text>
</a>
</g>
</g>
<!-- Node1&#45;&gt;Node3 -->
<g id="edge3" class="edge">
<title>Node1&#45;&gt;Node3</title>
<path fill="none" stroke="midnightblue" d="M62.07,-10C95.89,-10 151.01,-10 188.82,-10"/>
<polygon fill="midnightblue" stroke="midnightblue" points="188.99,-13.5 198.99,-10 188.99,-6.5 188.99,-13.5"/>
</g>
<!-- Node2&#45;&gt;Node3 -->
<g id="edge2" class="edge">
<title>Node2&#45;&gt;Node3</title>
<path fill="none" stroke="midnightblue" d="M163.21,-22.88C171.37,-21.31 180.28,-19.59 188.85,-17.94"/>
<polygon fill="midnightblue" stroke="midnightblue" points="189.53,-21.37 198.69,-16.04 188.21,-14.5 189.53,-21.37"/>
</g>
</g>
</svg>
