<?xml version="1.0" encoding="UTF-8" standalone="no"?>
<!DOCTYPE svg PUBLIC "-//W3C//DTD SVG 1.1//EN"
 "http://www.w3.org/Graphics/SVG/1.1/DTD/svg11.dtd">
<!-- Generated by graphviz version 2.50.0 (20220203.2022)
 -->
<!-- Title: orb_frame Pages: 1 -->
<svg width="354pt" height="104pt"
 viewBox="0.00 0.00 354.00 104.00" xmlns="http://www.w3.org/2000/svg" xmlns:xlink="http://www.w3.org/1999/xlink">
<g id="graph0" class="graph" transform="scale(1 1) rotate(0) translate(4 100)">
<title>orb_frame</title>
<polygon fill="white" stroke="transparent" points="-4,4 -4,-100 350,-100 350,4 -4,4"/>
<!-- Node1 -->
<g id="node1" class="node">
<title>Node1</title>
<g id="a_node1"><a xlink:title=" ">
<polygon fill="#bfbfbf" stroke="black" points="286,-38.5 286,-57.5 346,-57.5 346,-38.5 286,-38.5"/>
<text text-anchor="middle" x="316" y="-45.5" font-family="Helvetica,sans-Serif" font-size="10.00">orb_frame</text>
</a>
</g>
</g>
<!-- Node2 -->
<g id="node2" class="node">
<title>Node2</title>
<g id="a_node2"><a xlink:href="crf__bff_8f90.html#ae0977fd0aaff11215c21ba04f7e6db7d" target="_top" xlink:title=" ">
<polygon fill="white" stroke="black" points="170,-76.5 170,-95.5 214,-95.5 214,-76.5 170,-76.5"/>
<text text-anchor="middle" x="192" y="-83.5" font-family="Helvetica,sans-Serif" font-size="10.00">crf_bff</text>
</a>
</g>
</g>
<!-- Node1&#45;&gt;Node2 -->
<g id="edge1" class="edge">
<title>Node1&#45;&gt;Node2</title>
<path fill="none" stroke="midnightblue" d="M276.09,-60.12C255.64,-66.49 231.36,-74.05 214.34,-79.35"/>
<polygon fill="midnightblue" stroke="midnightblue" points="277.27,-63.42 285.78,-57.1 275.19,-56.73 277.27,-63.42"/>
</g>
<!-- Node6 -->
<g id="node4" class="node">
<title>Node6</title>
<g id="a_node4"><a xlink:href="namespacem__statorbit.html#a56a49355e7e28cab9185c86483b3e452" target="_top" xlink:title=" ">
<polygon fill="white" stroke="black" points="139.5,-0.5 139.5,-19.5 244.5,-19.5 244.5,-0.5 139.5,-0.5"/>
<text text-anchor="middle" x="192" y="-7.5" font-family="Helvetica,sans-Serif" font-size="10.00">m_statorbit::statorbit</text>
</a>
</g>
</g>
<!-- Node1&#45;&gt;Node6 -->
<g id="edge3" class="edge">
<title>Node1&#45;&gt;Node6</title>
<path fill="none" stroke="midnightblue" d="M276.15,-35.9C259.19,-30.62 239.59,-24.51 223.69,-19.56"/>
<polygon fill="midnightblue" stroke="midnightblue" points="275.19,-39.27 285.78,-38.9 277.27,-32.58 275.19,-39.27"/>
</g>
<!-- Node11 -->
<g id="node7" class="node">
<title>Node11</title>
<g id="a_node7"><a xlink:href="namespacem__statorbit2.html#a6ba60e4ad1e25a33b4f2f9607374ea58" target="_top" xlink:title=" ">
<polygon fill="white" stroke="black" points="134,-38.5 134,-57.5 250,-57.5 250,-38.5 134,-38.5"/>
<text text-anchor="middle" x="192" y="-45.5" font-family="Helvetica,sans-Serif" font-size="10.00">m_statorbit2::statorbit2</text>
</a>
</g>
</g>
<!-- Node1&#45;&gt;Node11 -->
<g id="edge6" class="edge">
<title>Node1&#45;&gt;Node11</title>
<path fill="none" stroke="midnightblue" d="M275.54,-48C267.45,-48 258.78,-48 250.21,-48"/>
<polygon fill="midnightblue" stroke="midnightblue" points="275.78,-51.5 285.78,-48 275.78,-44.5 275.78,-51.5"/>
</g>
<!-- Node3 -->
<g id="node3" class="node">
<title>Node3</title>
<g id="a_node3"><a xlink:href="att__matrix_8f95.html#ac1f312f7022d981046ebb52cb86c69b2" target="_top" xlink:title=" ">
<polygon fill="white" stroke="red" points="19.5,-76.5 19.5,-95.5 78.5,-95.5 78.5,-76.5 19.5,-76.5"/>
<text text-anchor="middle" x="49" y="-83.5" font-family="Helvetica,sans-Serif" font-size="10.00">att_matrix</text>
</a>
</g>
</g>
<!-- Node2&#45;&gt;Node3 -->
<g id="edge2" class="edge">
<title>Node2&#45;&gt;Node3</title>
<path fill="none" stroke="midnightblue" d="M159.78,-86C135.52,-86 102.15,-86 78.58,-86"/>
<polygon fill="midnightblue" stroke="midnightblue" points="159.89,-89.5 169.89,-86 159.89,-82.5 159.89,-89.5"/>
</g>
<!-- Node7 -->
<g id="node5" class="node">
<title>Node7</title>
<g id="a_node5"><a xlink:href="namespacem__orbext.html#a5d9ae5d81af99b9d31eee5b6ec19d51f" target="_top" xlink:title=" ">
<polygon fill="white" stroke="red" points="5.5,-38.5 5.5,-57.5 92.5,-57.5 92.5,-38.5 5.5,-38.5"/>
<text text-anchor="middle" x="49" y="-45.5" font-family="Helvetica,sans-Serif" font-size="10.00">m_orbext::orbext</text>
</a>
</g>
</g>
<!-- Node6&#45;&gt;Node7 -->
<g id="edge4" class="edge">
<title>Node6&#45;&gt;Node7</title>
<path fill="none" stroke="midnightblue" d="M145.56,-22.25C126.13,-27.48 103.77,-33.51 85.57,-38.41"/>
<polygon fill="midnightblue" stroke="midnightblue" points="146.68,-25.57 155.42,-19.59 144.85,-18.81 146.68,-25.57"/>
</g>
<!-- Node10 -->
<g id="node6" class="node">
<title>Node10</title>
<g id="a_node6"><a xlink:href="namespacem__orbext2.html#a8edc32bdc671004ee3dcaa85b4f1f176" target="_top" xlink:title=" ">
<polygon fill="white" stroke="red" points="0,-0.5 0,-19.5 98,-19.5 98,-0.5 0,-0.5"/>
<text text-anchor="middle" x="49" y="-7.5" font-family="Helvetica,sans-Serif" font-size="10.00">m_orbext2::orbext2</text>
</a>
</g>
</g>
<!-- Node6&#45;&gt;Node10 -->
<g id="edge5" class="edge">
<title>Node6&#45;&gt;Node10</title>
<path fill="none" stroke="midnightblue" d="M129.13,-10C118.84,-10 108.31,-10 98.42,-10"/>
<polygon fill="midnightblue" stroke="midnightblue" points="129.3,-13.5 139.3,-10 129.3,-6.5 129.3,-13.5"/>
</g>
<!-- Node11&#45;&gt;Node7 -->
<g id="edge7" class="edge">
<title>Node11&#45;&gt;Node7</title>
<path fill="none" stroke="midnightblue" d="M123.59,-48C113.03,-48 102.38,-48 92.59,-48"/>
<polygon fill="midnightblue" stroke="midnightblue" points="123.65,-51.5 133.65,-48 123.65,-44.5 123.65,-51.5"/>
</g>
</g>
</svg>
