<?xml version="1.0" encoding="UTF-8" standalone="no"?>
<!DOCTYPE svg PUBLIC "-//W3C//DTD SVG 1.1//EN"
 "http://www.w3.org/Graphics/SVG/1.1/DTD/svg11.dtd">
<!-- Generated by graphviz version 2.50.0 (20220203.2022)
 -->
<!-- Title: readorbit Pages: 1 -->
<svg width="343pt" height="180pt"
 viewBox="0.00 0.00 343.00 180.00" xmlns="http://www.w3.org/2000/svg" xmlns:xlink="http://www.w3.org/1999/xlink">
<g id="graph0" class="graph" transform="scale(1 1) rotate(0) translate(4 176)">
<title>readorbit</title>
<polygon fill="white" stroke="transparent" points="-4,4 -4,-176 339,-176 339,4 -4,4"/>
<!-- Node1 -->
<g id="node1" class="node">
<title>Node1</title>
<g id="a_node1"><a xlink:title="read orbit file from POD">
<polygon fill="#bfbfbf" stroke="black" points="0,-76.5 0,-95.5 54,-95.5 54,-76.5 0,-76.5"/>
<text text-anchor="middle" x="27" y="-83.5" font-family="Helvetica,sans-Serif" font-size="10.00">readorbit</text>
</a>
</g>
</g>
<!-- Node2 -->
<g id="node2" class="node">
<title>Node2</title>
<g id="a_node2"><a xlink:href="gTime_8cpp.html#aa46173b9085096882d09e53d96e9dc41" target="_top" xlink:title=" ">
<polygon fill="white" stroke="black" points="112.5,-152.5 112.5,-171.5 179.5,-171.5 179.5,-152.5 112.5,-152.5"/>
<text text-anchor="middle" x="146" y="-159.5" font-family="Helvetica,sans-Serif" font-size="10.00">epoch2time</text>
</a>
</g>
</g>
<!-- Node1&#45;&gt;Node2 -->
<g id="edge1" class="edge">
<title>Node1&#45;&gt;Node2</title>
<path fill="none" stroke="midnightblue" d="M36.28,-95.79C47.36,-108.32 68.15,-129.96 90,-143 93.96,-145.36 98.26,-147.49 102.65,-149.39"/>
<polygon fill="midnightblue" stroke="midnightblue" points="101.72,-152.78 112.31,-153.18 104.28,-146.27 101.72,-152.78"/>
</g>
<!-- Node3 -->
<g id="node3" class="node">
<title>Node3</title>
<g id="a_node3"><a xlink:href="gTime_8cpp.html#af3de1769838cbab288c9fcc6ac07b2ad" target="_top" xlink:title=" ">
<polygon fill="white" stroke="black" points="113,-114.5 113,-133.5 179,-133.5 179,-114.5 113,-114.5"/>
<text text-anchor="middle" x="146" y="-121.5" font-family="Helvetica,sans-Serif" font-size="10.00">jd2ymdhms</text>
</a>
</g>
</g>
<!-- Node1&#45;&gt;Node3 -->
<g id="edge2" class="edge">
<title>Node1&#45;&gt;Node3</title>
<path fill="none" stroke="midnightblue" d="M54.26,-94.53C69.46,-99.47 88.9,-105.78 105.88,-111.29"/>
<polygon fill="midnightblue" stroke="midnightblue" points="104.95,-114.67 115.54,-114.43 107.11,-108.01 104.95,-114.67"/>
</g>
<!-- Node5 -->
<g id="node5" class="node">
<title>Node5</title>
<g id="a_node5"><a xlink:href="structSatSys.html#aa2f7732319c19c6aa872606483a9c471" target="_top" xlink:title=" ">
<polygon fill="white" stroke="black" points="90,-76.5 90,-95.5 202,-95.5 202,-76.5 90,-76.5"/>
<text text-anchor="middle" x="146" y="-83.5" font-family="Helvetica,sans-Serif" font-size="10.00">SatSys::setBlockType</text>
</a>
</g>
</g>
<!-- Node1&#45;&gt;Node5 -->
<g id="edge4" class="edge">
<title>Node1&#45;&gt;Node5</title>
<path fill="none" stroke="midnightblue" d="M54.26,-86C61.89,-86 70.6,-86 79.52,-86"/>
<polygon fill="midnightblue" stroke="midnightblue" points="79.64,-89.5 89.64,-86 79.64,-82.5 79.64,-89.5"/>
</g>
<!-- Node7 -->
<g id="node7" class="node">
<title>Node7</title>
<g id="a_node7"><a xlink:href="structSatSys.html#a2ddfec2df97dea21d4c8b04502d75c3a" target="_top" xlink:title=" ">
<polygon fill="white" stroke="black" points="104.5,-38.5 104.5,-57.5 187.5,-57.5 187.5,-38.5 104.5,-38.5"/>
<text text-anchor="middle" x="146" y="-45.5" font-family="Helvetica,sans-Serif" font-size="10.00">SatSys::setSvn</text>
</a>
</g>
</g>
<!-- Node1&#45;&gt;Node7 -->
<g id="edge6" class="edge">
<title>Node1&#45;&gt;Node7</title>
<path fill="none" stroke="midnightblue" d="M54.26,-77.47C69.46,-72.53 88.9,-66.22 105.88,-60.71"/>
<polygon fill="midnightblue" stroke="midnightblue" points="107.11,-63.99 115.54,-57.57 104.95,-57.33 107.11,-63.99"/>
</g>
<!-- Node9 -->
<g id="node9" class="node">
<title>Node9</title>
<g id="a_node9"><a xlink:href="orbits_8cpp.html#a6978fb43806cd21507c1797e71996920" target="_top" xlink:title=" ">
<polygon fill="white" stroke="black" points="125.5,-0.5 125.5,-19.5 166.5,-19.5 166.5,-0.5 125.5,-0.5"/>
<text text-anchor="middle" x="146" y="-7.5" font-family="Helvetica,sans-Serif" font-size="10.00">strspt</text>
</a>
</g>
</g>
<!-- Node1&#45;&gt;Node9 -->
<g id="edge8" class="edge">
<title>Node1&#45;&gt;Node9</title>
<path fill="none" stroke="midnightblue" d="M36.28,-76.21C47.36,-63.68 68.15,-42.04 90,-29 97.86,-24.31 107.04,-20.56 115.62,-17.68"/>
<polygon fill="midnightblue" stroke="midnightblue" points="116.79,-20.98 125.31,-14.68 114.72,-14.29 116.79,-20.98"/>
</g>
<!-- Node4 -->
<g id="node4" class="node">
<title>Node4</title>
<g id="a_node4"><a xlink:href="gTime_8cpp.html#a6c68c2e261457a8d821f4f5fd9854158" target="_top" xlink:title=" ">
<polygon fill="white" stroke="black" points="260,-114.5 260,-133.5 313,-133.5 313,-114.5 260,-114.5"/>
<text text-anchor="middle" x="286.5" y="-121.5" font-family="Helvetica,sans-Serif" font-size="10.00">setdigits</text>
</a>
</g>
</g>
<!-- Node3&#45;&gt;Node4 -->
<g id="edge3" class="edge">
<title>Node3&#45;&gt;Node4</title>
<path fill="none" stroke="midnightblue" d="M179.12,-124C200.14,-124 227.63,-124 249.4,-124"/>
<polygon fill="midnightblue" stroke="midnightblue" points="249.57,-127.5 259.57,-124 249.57,-120.5 249.57,-127.5"/>
</g>
<!-- Node6 -->
<g id="node6" class="node">
<title>Node6</title>
<g id="a_node6"><a xlink:href="structSatSys.html#a01de9e9cee76346f43550516bba9558e" target="_top" xlink:title=" ">
<polygon fill="white" stroke="black" points="238,-76.5 238,-95.5 335,-95.5 335,-76.5 238,-76.5"/>
<text text-anchor="middle" x="286.5" y="-83.5" font-family="Helvetica,sans-Serif" font-size="10.00">SatSys::blockType</text>
</a>
</g>
</g>
<!-- Node5&#45;&gt;Node6 -->
<g id="edge5" class="edge">
<title>Node5&#45;&gt;Node6</title>
<path fill="none" stroke="midnightblue" d="M202.14,-86C210.5,-86 219.16,-86 227.58,-86"/>
<polygon fill="midnightblue" stroke="midnightblue" points="227.71,-89.5 237.71,-86 227.71,-82.5 227.71,-89.5"/>
</g>
<!-- Node8 -->
<g id="node8" class="node">
<title>Node8</title>
<g id="a_node8"><a xlink:href="structSatSys.html#a1da3994cf03ff0ec115928954c9307bb" target="_top" xlink:title=" ">
<polygon fill="white" stroke="black" points="252.5,-38.5 252.5,-57.5 320.5,-57.5 320.5,-38.5 252.5,-38.5"/>
<text text-anchor="middle" x="286.5" y="-45.5" font-family="Helvetica,sans-Serif" font-size="10.00">SatSys::svn</text>
</a>
</g>
</g>
<!-- Node7&#45;&gt;Node8 -->
<g id="edge7" class="edge">
<title>Node7&#45;&gt;Node8</title>
<path fill="none" stroke="midnightblue" d="M187.81,-48C204.85,-48 224.69,-48 242.01,-48"/>
<polygon fill="midnightblue" stroke="midnightblue" points="242.42,-51.5 252.42,-48 242.42,-44.5 242.42,-51.5"/>
</g>
</g>
</svg>
