<?xml version="1.0" encoding="UTF-8" standalone="no"?>
<!DOCTYPE svg PUBLIC "-//W3C//DTD SVG 1.1//EN"
 "http://www.w3.org/Graphics/SVG/1.1/DTD/svg11.dtd">
<!-- Generated by graphviz version 2.50.0 (20220203.2022)
 -->
<!-- Title: outputOrbit Pages: 1 -->
<svg width="360pt" height="408pt"
 viewBox="0.00 0.00 360.00 408.00" xmlns="http://www.w3.org/2000/svg" xmlns:xlink="http://www.w3.org/1999/xlink">
<g id="graph0" class="graph" transform="scale(1 1) rotate(0) translate(4 404)">
<title>outputOrbit</title>
<polygon fill="white" stroke="transparent" points="-4,4 -4,-404 356,-404 356,4 -4,4"/>
<!-- Node1 -->
<g id="node1" class="node">
<title>Node1</title>
<g id="a_node1"><a xlink:title=" ">
<polygon fill="#bfbfbf" stroke="black" points="0,-171.5 0,-190.5 65,-190.5 65,-171.5 0,-171.5"/>
<text text-anchor="middle" x="32.5" y="-178.5" font-family="Helvetica,sans-Serif" font-size="10.00">outputOrbit</text>
</a>
</g>
</g>
<!-- Node2 -->
<g id="node2" class="node">
<title>Node2</title>
<g id="a_node2"><a xlink:href="structSatSys.html#a01de9e9cee76346f43550516bba9558e" target="_top" xlink:title=" ">
<polygon fill="white" stroke="black" points="255,-380.5 255,-399.5 352,-399.5 352,-380.5 255,-380.5"/>
<text text-anchor="middle" x="303.5" y="-387.5" font-family="Helvetica,sans-Serif" font-size="10.00">SatSys::blockType</text>
</a>
</g>
</g>
<!-- Node1&#45;&gt;Node2 -->
<g id="edge1" class="edge">
<title>Node1&#45;&gt;Node2</title>
<path fill="none" stroke="midnightblue" d="M34.94,-190.88C39.42,-217.9 55.62,-293.66 101,-333 141.01,-367.69 200.72,-381.36 244.76,-386.69"/>
<polygon fill="midnightblue" stroke="midnightblue" points="244.43,-390.18 254.75,-387.8 245.2,-383.22 244.43,-390.18"/>
</g>
<!-- Node3 -->
<g id="node3" class="node">
<title>Node3</title>
<g id="a_node3"><a xlink:href="structSatSys.html#aa31d14f6b8c2100c085c732b9a3fef3f" target="_top" xlink:title="Constructs a SatSys object from it&#39;s hash uid.">
<polygon fill="white" stroke="black" points="112.5,-190.5 112.5,-209.5 207.5,-209.5 207.5,-190.5 112.5,-190.5"/>
<text text-anchor="middle" x="160" y="-197.5" font-family="Helvetica,sans-Serif" font-size="10.00">SatSys::fromHash</text>
</a>
</g>
</g>
<!-- Node1&#45;&gt;Node3 -->
<g id="edge2" class="edge">
<title>Node1&#45;&gt;Node3</title>
<path fill="none" stroke="midnightblue" d="M65.17,-185.79C76.4,-187.49 89.41,-189.46 102.09,-191.38"/>
<polygon fill="midnightblue" stroke="midnightblue" points="101.75,-194.87 112.16,-192.91 102.79,-187.95 101.75,-194.87"/>
</g>
<!-- Node4 -->
<g id="node4" class="node">
<title>Node4</title>
<g id="a_node4"><a xlink:href="structKFState.html#a84691f6bbbe3cdccaa14722995a61e1b" target="_top" xlink:title="Returns the value and variance of a state within the kalman filter object.">
<polygon fill="white" stroke="black" points="106,-152.5 106,-171.5 214,-171.5 214,-152.5 106,-152.5"/>
<text text-anchor="middle" x="160" y="-159.5" font-family="Helvetica,sans-Serif" font-size="10.00">KFState::getKFValue</text>
</a>
</g>
</g>
<!-- Node1&#45;&gt;Node4 -->
<g id="edge3" class="edge">
<title>Node1&#45;&gt;Node4</title>
<path fill="none" stroke="midnightblue" d="M65.17,-176.21C74.52,-174.79 85.11,-173.19 95.72,-171.58"/>
<polygon fill="midnightblue" stroke="midnightblue" points="96.49,-175 105.86,-170.05 95.45,-168.08 96.49,-175"/>
</g>
<!-- Node5 -->
<g id="node5" class="node">
<title>Node5</title>
<g id="a_node5"><a xlink:href="structACSConfig.html#a9f893b7ab2412f42ef7a02423d755940" target="_top" xlink:title="Set satellite options for a specific satellite using a hierarchy of sources.">
<polygon fill="white" stroke="black" points="101,-304.5 101,-323.5 219,-323.5 219,-304.5 101,-304.5"/>
<text text-anchor="middle" x="160" y="-311.5" font-family="Helvetica,sans-Serif" font-size="10.00">ACSConfig::getSatOpts</text>
</a>
</g>
</g>
<!-- Node1&#45;&gt;Node5 -->
<g id="edge4" class="edge">
<title>Node1&#45;&gt;Node5</title>
<path fill="none" stroke="midnightblue" d="M37.03,-190.54C45.18,-211.36 67.25,-261.32 101,-290 105.63,-293.93 110.99,-297.29 116.55,-300.14"/>
<polygon fill="midnightblue" stroke="midnightblue" points="115.44,-303.48 125.99,-304.46 118.35,-297.11 115.44,-303.48"/>
</g>
<!-- Node12 -->
<g id="node7" class="node">
<title>Node12</title>
<g id="a_node7"><a xlink:href="structSatSys.html#aec6d07b90d1e8172b8b6a6966abef4fd" target="_top" xlink:title="Returns a std::string of this satellite&#39;s id.">
<polygon fill="white" stroke="red" points="273.5,-266.5 273.5,-285.5 333.5,-285.5 333.5,-266.5 273.5,-266.5"/>
<text text-anchor="middle" x="303.5" y="-273.5" font-family="Helvetica,sans-Serif" font-size="10.00">SatSys::id</text>
</a>
</g>
</g>
<!-- Node1&#45;&gt;Node12 -->
<g id="edge10" class="edge">
<title>Node1&#45;&gt;Node12</title>
<path fill="none" stroke="midnightblue" d="M41.05,-190.66C52.44,-204.48 75.41,-229.61 101,-242 153.25,-267.3 221.03,-274.15 263.14,-275.8"/>
<polygon fill="midnightblue" stroke="midnightblue" points="263.16,-279.3 273.27,-276.11 263.38,-272.3 263.16,-279.3"/>
</g>
<!-- Node15 -->
<g id="node8" class="node">
<title>Node15</title>
<g id="a_node8"><a xlink:href="structSatSys.html#a1da3994cf03ff0ec115928954c9307bb" target="_top" xlink:title=" ">
<polygon fill="white" stroke="black" points="269.5,-228.5 269.5,-247.5 337.5,-247.5 337.5,-228.5 269.5,-228.5"/>
<text text-anchor="middle" x="303.5" y="-235.5" font-family="Helvetica,sans-Serif" font-size="10.00">SatSys::svn</text>
</a>
</g>
</g>
<!-- Node1&#45;&gt;Node15 -->
<g id="edge12" class="edge">
<title>Node1&#45;&gt;Node15</title>
<path fill="none" stroke="midnightblue" d="M46.69,-190.65C59.76,-199.67 80.72,-212.65 101,-219 153.71,-235.5 217.65,-238.9 259.17,-239.07"/>
<polygon fill="midnightblue" stroke="midnightblue" points="259.22,-242.57 269.22,-239.05 259.21,-235.57 259.22,-242.57"/>
</g>
<!-- Node17 -->
<g id="node10" class="node">
<title>Node17</title>
<g id="a_node10"><a xlink:href="algebra_8cpp.html#a304f0d512353a3c5a991c2439ea73287" target="_top" xlink:title=" ">
<polygon fill="white" stroke="black" points="104,-114.5 104,-133.5 216,-133.5 216,-114.5 104,-114.5"/>
<text text-anchor="middle" x="160" y="-121.5" font-family="Helvetica,sans-Serif" font-size="10.00">initialStateFromConfig</text>
</a>
</g>
</g>
<!-- Node1&#45;&gt;Node17 -->
<g id="edge11" class="edge">
<title>Node1&#45;&gt;Node17</title>
<path fill="none" stroke="midnightblue" d="M48.61,-171.36C62,-163.09 82.29,-151.24 101,-143 105.97,-140.81 111.27,-138.74 116.58,-136.82"/>
<polygon fill="midnightblue" stroke="midnightblue" points="117.75,-140.12 126.06,-133.55 115.47,-133.5 117.75,-140.12"/>
</g>
<!-- Node18 -->
<g id="node11" class="node">
<title>Node18</title>
<g id="a_node11"><a xlink:href="gTime_8cpp.html#a7a747c44ca37f2ebe379fc4309d3cfba" target="_top" xlink:title=" ">
<polygon fill="white" stroke="black" points="126.5,-76.5 126.5,-95.5 193.5,-95.5 193.5,-76.5 126.5,-76.5"/>
<text text-anchor="middle" x="160" y="-83.5" font-family="Helvetica,sans-Serif" font-size="10.00">time2epoch</text>
</a>
</g>
</g>
<!-- Node1&#45;&gt;Node18 -->
<g id="edge13" class="edge">
<title>Node1&#45;&gt;Node18</title>
<path fill="none" stroke="midnightblue" d="M39.55,-171.36C50.11,-155.31 73.41,-123.1 101,-105 105.88,-101.8 111.35,-99.09 116.92,-96.82"/>
<polygon fill="midnightblue" stroke="midnightblue" points="118.12,-100.11 126.32,-93.4 115.72,-93.53 118.12,-100.11"/>
</g>
<!-- Node19 -->
<g id="node12" class="node">
<title>Node19</title>
<g id="a_node12"><a xlink:href="streamTrace_8cpp.html#ae00e6addd3bdf3a7fd41a254eb9aec89" target="_top" xlink:title=" ">
<polygon fill="white" stroke="black" points="128,-38.5 128,-57.5 192,-57.5 192,-38.5 128,-38.5"/>
<text text-anchor="middle" x="160" y="-45.5" font-family="Helvetica,sans-Serif" font-size="10.00">tracepdeex</text>
</a>
</g>
</g>
<!-- Node1&#45;&gt;Node19 -->
<g id="edge14" class="edge">
<title>Node1&#45;&gt;Node19</title>
<path fill="none" stroke="midnightblue" d="M36.52,-171.48C43.9,-149.71 64.95,-95.94 101,-67 106.04,-62.95 111.98,-59.75 118.09,-57.23"/>
<polygon fill="midnightblue" stroke="midnightblue" points="119.5,-60.45 127.75,-53.8 117.15,-53.85 119.5,-60.45"/>
</g>
<!-- Node20 -->
<g id="node13" class="node">
<title>Node20</title>
<g id="a_node13"><a xlink:href="gTime_8cpp.html#a282534ac1ef65d4844290ce80bf76fed" target="_top" xlink:title="YMDHMS to Julian Day &#160;&#160;return : julian day.">
<polygon fill="white" stroke="black" points="127,-0.5 127,-19.5 193,-19.5 193,-0.5 127,-0.5"/>
<text text-anchor="middle" x="160" y="-7.5" font-family="Helvetica,sans-Serif" font-size="10.00">ymdhms2jd</text>
</a>
</g>
</g>
<!-- Node1&#45;&gt;Node20 -->
<g id="edge15" class="edge">
<title>Node1&#45;&gt;Node20</title>
<path fill="none" stroke="midnightblue" d="M35.03,-171.22C39.73,-144.44 56.44,-69.26 101,-29 105.75,-24.71 111.48,-21.39 117.47,-18.82"/>
<polygon fill="midnightblue" stroke="midnightblue" points="118.79,-22.06 126.99,-15.36 116.4,-15.48 118.79,-22.06"/>
</g>
<!-- Node5&#45;&gt;Node2 -->
<g id="edge5" class="edge">
<title>Node5&#45;&gt;Node2</title>
<path fill="none" stroke="midnightblue" d="M175.23,-323.65C193.29,-335.65 225.63,-356.34 255,-371 258.76,-372.87 262.74,-374.7 266.75,-376.44"/>
<polygon fill="midnightblue" stroke="midnightblue" points="265.45,-379.69 276.03,-380.31 268.14,-373.23 265.45,-379.69"/>
</g>
<!-- Node6 -->
<g id="node6" class="node">
<title>Node6</title>
<g id="a_node6"><a xlink:href="acsConfig_8cpp.html#a93b507f5cfa7760051904a0a1863118a" target="_top" xlink:title="Set satellite options from yaml.">
<polygon fill="white" stroke="red" points="266,-304.5 266,-323.5 341,-323.5 341,-304.5 266,-304.5"/>
<text text-anchor="middle" x="303.5" y="-311.5" font-family="Helvetica,sans-Serif" font-size="10.00">getFromYaml</text>
</a>
</g>
</g>
<!-- Node5&#45;&gt;Node6 -->
<g id="edge6" class="edge">
<title>Node5&#45;&gt;Node6</title>
<path fill="none" stroke="midnightblue" d="M219.37,-314C231.38,-314 243.88,-314 255.42,-314"/>
<polygon fill="midnightblue" stroke="midnightblue" points="255.72,-317.5 265.72,-314 255.72,-310.5 255.72,-317.5"/>
</g>
<!-- Node5&#45;&gt;Node12 -->
<g id="edge7" class="edge">
<title>Node5&#45;&gt;Node12</title>
<path fill="none" stroke="midnightblue" d="M196.71,-304.41C217.11,-298.93 242.72,-292.05 263.63,-286.44"/>
<polygon fill="midnightblue" stroke="midnightblue" points="264.72,-289.77 273.47,-283.8 262.9,-283.01 264.72,-289.77"/>
</g>
<!-- Node5&#45;&gt;Node15 -->
<g id="edge8" class="edge">
<title>Node5&#45;&gt;Node15</title>
<path fill="none" stroke="midnightblue" d="M175.23,-304.35C193.29,-292.35 225.63,-271.66 255,-257 258.76,-255.13 262.74,-253.3 266.75,-251.56"/>
<polygon fill="midnightblue" stroke="midnightblue" points="268.14,-254.77 276.03,-247.69 265.45,-248.31 268.14,-254.77"/>
</g>
<!-- Node16 -->
<g id="node9" class="node">
<title>Node16</title>
<g id="a_node9"><a xlink:href="structSatSys.html#a099c890a6a613ec08f3260a51f0544f8" target="_top" xlink:title=" ">
<polygon fill="white" stroke="black" points="256.5,-342.5 256.5,-361.5 350.5,-361.5 350.5,-342.5 256.5,-342.5"/>
<text text-anchor="middle" x="303.5" y="-349.5" font-family="Helvetica,sans-Serif" font-size="10.00">SatSys::sysName</text>
</a>
</g>
</g>
<!-- Node5&#45;&gt;Node16 -->
<g id="edge9" class="edge">
<title>Node5&#45;&gt;Node16</title>
<path fill="none" stroke="midnightblue" d="M196.71,-323.59C214.97,-328.49 237.41,-334.52 256.91,-339.76"/>
<polygon fill="midnightblue" stroke="midnightblue" points="256.24,-343.2 266.8,-342.41 258.05,-336.44 256.24,-343.2"/>
</g>
</g>
</svg>
