<?xml version="1.0" encoding="UTF-8" standalone="no"?>
<!DOCTYPE svg PUBLIC "-//W3C//DTD SVG 1.1//EN"
 "http://www.w3.org/Graphics/SVG/1.1/DTD/svg11.dtd">
<!-- Generated by graphviz version 2.50.0 (20220203.2022)
 -->
<!-- Title: /github/workspace/src/cpp/common/orbits.hpp Pages: 1 -->
<!--zoomable 396 -->
<svg id="main" version="1.1" xmlns="http://www.w3.org/2000/svg" xmlns:xlink="http://www.w3.org/1999/xlink" xml:space="preserve" onload="init(evt)">
<style type="text/css"><![CDATA[
.edge:hover path { stroke: red; }
.edge:hover polygon { stroke: red; fill: red; }
]]></style>
<script type="text/javascript"><![CDATA[
var edges = document.getElementsByTagName('g');
if (edges && edges.length) {
  for (var i=0;i<edges.length;i++) {
    if (edges[i].id.substr(0,4)=='edge') {
      edges[i].setAttribute('class','edge');
    }
  }
}
]]></script>
        <defs>
                <circle id="rim" cx="0" cy="0" r="7"/>
                <circle id="rim2" cx="0" cy="0" r="3.5"/>
                <g id="zoomPlus">
                        <use xlink:href="#rim" fill="#404040">
                                <set attributeName="fill" to="#808080" begin="zoomplus.mouseover" end="zoomplus.mouseout"/>
                        </use>
                        <path d="M-4,0h8M0,-4v8" fill="none" stroke="white" stroke-width="1.5" pointer-events="none"/>
                </g>
                <g id="zoomMin">
                        <use xlink:href="#rim" fill="#404040">
                                <set attributeName="fill" to="#808080" begin="zoomminus.mouseover" end="zoomminus.mouseout"/>
                        </use>
                        <path d="M-4,0h8" fill="none" stroke="white" stroke-width="1.5" pointer-events="none"/>
                </g>
                <g id="dirArrow">
                        <path fill="none" stroke="white" stroke-width="1.5" d="M0,-3.0v7 M-2.5,-0.5L0,-3.0L2.5,-0.5"/>
                </g>
               <g id="resetDef">
                       <use xlink:href="#rim2" fill="#404040">
                               <set attributeName="fill" to="#808080" begin="reset.mouseover" end="reset.mouseout"/>
                       </use>
               </g>
        </defs>

<script type="text/javascript">
var viewWidth = 3935;
var viewHeight = 396;
var sectionId = 'dynsection-0';
</script>
<script xlink:href="svgpan.js"/>
<svg id="graph" class="graph">
<g id="viewport">
<title>/github/workspace/src/cpp/common/orbits.hpp</title>
<polygon fill="white" stroke="transparent" points="-4,4 -4,-392 3930.5,-392 3930.5,4 -4,4"/>
<!-- Node1 -->
<g id="node1" class="node">
<title>Node1</title>
<g id="a_node1"><a xlink:title=" ">
<polygon fill="#bfbfbf" stroke="black" points="2036,-357.5 2036,-387.5 2157,-387.5 2157,-357.5 2036,-357.5"/>
<text text-anchor="start" x="2044" y="-375.5" font-family="Helvetica,sans-Serif" font-size="10.00">/github/workspace/src</text>
<text text-anchor="middle" x="2096.5" y="-364.5" font-family="Helvetica,sans-Serif" font-size="10.00">/cpp/common/orbits.hpp</text>
</a>
</g>
</g>
<!-- Node2 -->
<g id="node2" class="node">
<title>Node2</title>
<g id="a_node2"><a xlink:href="brdc2sp3__main__bck_8cpp.html" target="_top" xlink:title=" ">
<polygon fill="white" stroke="black" points="208,-134.5 208,-175.5 329,-175.5 329,-134.5 208,-134.5"/>
<text text-anchor="start" x="216" y="-163.5" font-family="Helvetica,sans-Serif" font-size="10.00">/github/workspace/src</text>
<text text-anchor="start" x="216" y="-152.5" font-family="Helvetica,sans-Serif" font-size="10.00">/cpp/brdc2sp3/brdc2sp3</text>
<text text-anchor="middle" x="268.5" y="-141.5" font-family="Helvetica,sans-Serif" font-size="10.00">_main_bck.cpp</text>
</a>
</g>
</g>
<!-- Node1&#45;&gt;Node2 -->
<g id="edge1" class="edge">
<title>Node1&#45;&gt;Node2</title>
<path fill="none" stroke="midnightblue" d="M2025.53,-369.25C1721.49,-359.28 537.29,-316.7 383.5,-254 341.96,-237.07 304.61,-199.03 284.38,-175.64"/>
<polygon fill="midnightblue" stroke="midnightblue" points="2025.87,-372.77 2035.98,-369.6 2026.09,-365.77 2025.87,-372.77"/>
</g>
<!-- Node3 -->
<g id="node3" class="node">
<title>Node3</title>
<g id="a_node3"><a xlink:href="navigation_8hpp.html" target="_top" xlink:title=" ">
<polygon fill="white" stroke="black" points="2026,-290.5 2026,-320.5 2167,-320.5 2167,-290.5 2026,-290.5"/>
<text text-anchor="start" x="2034" y="-308.5" font-family="Helvetica,sans-Serif" font-size="10.00">/github/workspace/src</text>
<text text-anchor="middle" x="2096.5" y="-297.5" font-family="Helvetica,sans-Serif" font-size="10.00">/cpp/common/navigation.hpp</text>
</a>
</g>
</g>
<!-- Node1&#45;&gt;Node3 -->
<g id="edge2" class="edge">
<title>Node1&#45;&gt;Node3</title>
<path fill="none" stroke="midnightblue" d="M2096.5,-347.11C2096.5,-338.15 2096.5,-328.32 2096.5,-320.58"/>
<polygon fill="midnightblue" stroke="midnightblue" points="2093,-347.4 2096.5,-357.4 2100,-347.4 2093,-347.4"/>
</g>
<!-- Node15 -->
<g id="node6" class="node">
<title>Node15</title>
<g id="a_node6"><a xlink:href="main_8cpp.html" target="_top" xlink:title=" ">
<polygon fill="white" stroke="black" points="3298,-0.5 3298,-30.5 3411,-30.5 3411,-0.5 3298,-0.5"/>
<text text-anchor="start" x="3306" y="-18.5" font-family="Helvetica,sans-Serif" font-size="10.00">/github/workspace/src</text>
<text text-anchor="middle" x="3354.5" y="-7.5" font-family="Helvetica,sans-Serif" font-size="10.00">/cpp/pea/main.cpp</text>
</a>
</g>
</g>
<!-- Node1&#45;&gt;Node15 -->
<g id="edge58" class="edge">
<title>Node1&#45;&gt;Node15</title>
<path fill="none" stroke="midnightblue" d="M2167.44,-370.98C2362.9,-369.05 2925.65,-360.25 3391.5,-321 3631.55,-300.78 3926.5,-474.9 3926.5,-234 3926.5,-234 3926.5,-234 3926.5,-154 3926.5,-91.32 3873.55,-90.65 3815.5,-67 3743.46,-37.64 3517.48,-23.83 3411.03,-18.82"/>
<polygon fill="midnightblue" stroke="midnightblue" points="2167.27,-367.48 2157.3,-371.07 2167.33,-374.48 2167.27,-367.48"/>
</g>
<!-- Node33 -->
<g id="node10" class="node">
<title>Node33</title>
<g id="a_node10"><a xlink:href="networkEstimator_8cpp.html" target="_top" xlink:title=" ">
<polygon fill="white" stroke="black" points="0,-140 0,-170 151,-170 151,-140 0,-140"/>
<text text-anchor="start" x="8" y="-158" font-family="Helvetica,sans-Serif" font-size="10.00">/github/workspace/src</text>
<text text-anchor="middle" x="75.5" y="-147" font-family="Helvetica,sans-Serif" font-size="10.00">/cpp/pea/networkEstimator.cpp</text>
</a>
</g>
</g>
<!-- Node1&#45;&gt;Node33 -->
<g id="edge59" class="edge">
<title>Node1&#45;&gt;Node33</title>
<path fill="none" stroke="midnightblue" d="M2025.62,-371.55C1810.72,-371.19 1147.71,-366.21 600.5,-321 373.54,-302.25 256.77,-411.73 92.5,-254 69.71,-232.11 70.81,-191.44 73.3,-170.02"/>
<polygon fill="midnightblue" stroke="midnightblue" points="2025.81,-375.05 2035.81,-371.57 2025.82,-368.05 2025.81,-375.05"/>
</g>
<!-- Node90 -->
<g id="node24" class="node">
<title>Node90</title>
<g id="a_node24"><a xlink:href="orbits_8cpp.html" target="_top" xlink:title=" ">
<polygon fill="white" stroke="black" points="3777,-218 3777,-248 3898,-248 3898,-218 3777,-218"/>
<text text-anchor="start" x="3785" y="-236" font-family="Helvetica,sans-Serif" font-size="10.00">/github/workspace/src</text>
<text text-anchor="middle" x="3837.5" y="-225" font-family="Helvetica,sans-Serif" font-size="10.00">/cpp/common/orbits.cpp</text>
</a>
</g>
</g>
<!-- Node1&#45;&gt;Node90 -->
<g id="edge57" class="edge">
<title>Node1&#45;&gt;Node90</title>
<path fill="none" stroke="midnightblue" d="M2167.42,-371.3C2398.63,-369.63 3150.94,-356.15 3762.5,-254 3771.54,-252.49 3781.07,-250.37 3790.19,-248.07"/>
<polygon fill="midnightblue" stroke="midnightblue" points="2167.1,-367.8 2157.13,-371.37 2167.15,-374.8 2167.1,-367.8"/>
</g>
<!-- Node4 -->
<g id="node4" class="node">
<title>Node4</title>
<g id="a_node4"><a xlink:href="brdc2sp3__main_8cpp.html" target="_top" xlink:title=" ">
<polygon fill="white" stroke="black" points="3101,-212.5 3101,-253.5 3222,-253.5 3222,-212.5 3101,-212.5"/>
<text text-anchor="start" x="3109" y="-241.5" font-family="Helvetica,sans-Serif" font-size="10.00">/github/workspace/src</text>
<text text-anchor="start" x="3109" y="-230.5" font-family="Helvetica,sans-Serif" font-size="10.00">/cpp/brdc2sp3/brdc2sp3</text>
<text text-anchor="middle" x="3161.5" y="-219.5" font-family="Helvetica,sans-Serif" font-size="10.00">_main.cpp</text>
</a>
</g>
</g>
<!-- Node3&#45;&gt;Node4 -->
<g id="edge3" class="edge">
<title>Node3&#45;&gt;Node4</title>
<path fill="none" stroke="midnightblue" d="M2177.19,-302.77C2381.65,-298.01 2916.26,-283.09 3091.5,-254 3094.62,-253.48 3097.79,-252.88 3100.99,-252.2"/>
<polygon fill="midnightblue" stroke="midnightblue" points="2177.04,-299.27 2167.12,-303 2177.2,-306.27 2177.04,-299.27"/>
</g>
<!-- Node5 -->
<g id="node5" class="node">
<title>Node5</title>
<g id="a_node5"><a xlink:href="acsQC_8hpp.html" target="_top" xlink:title=" ">
<polygon fill="white" stroke="red" points="3497,-67.5 3497,-97.5 3624,-97.5 3624,-67.5 3497,-67.5"/>
<text text-anchor="start" x="3505" y="-85.5" font-family="Helvetica,sans-Serif" font-size="10.00">/github/workspace/src</text>
<text text-anchor="middle" x="3560.5" y="-74.5" font-family="Helvetica,sans-Serif" font-size="10.00">/cpp/common/acsQC.hpp</text>
</a>
</g>
</g>
<!-- Node3&#45;&gt;Node5 -->
<g id="edge4" class="edge">
<title>Node3&#45;&gt;Node5</title>
<path fill="none" stroke="midnightblue" d="M2177.21,-304.19C2470.95,-302.73 3468.64,-294.78 3522.5,-254 3571.58,-216.84 3566.72,-131.4 3562.6,-97.62"/>
<polygon fill="midnightblue" stroke="midnightblue" points="2177.05,-300.69 2167.07,-304.24 2177.08,-307.69 2177.05,-300.69"/>
</g>
<!-- Node48 -->
<g id="node7" class="node">
<title>Node48</title>
<g id="a_node7"><a xlink:href="acsStream_8cpp.html" target="_top" xlink:title=" ">
<polygon fill="white" stroke="black" points="3662.5,-67.5 3662.5,-97.5 3806.5,-97.5 3806.5,-67.5 3662.5,-67.5"/>
<text text-anchor="start" x="3670.5" y="-85.5" font-family="Helvetica,sans-Serif" font-size="10.00">/github/workspace/src</text>
<text text-anchor="middle" x="3734.5" y="-74.5" font-family="Helvetica,sans-Serif" font-size="10.00">/cpp/common/acsStream.cpp</text>
</a>
</g>
</g>
<!-- Node3&#45;&gt;Node48 -->
<g id="edge6" class="edge">
<title>Node3&#45;&gt;Node48</title>
<path fill="none" stroke="midnightblue" d="M2177.41,-303.48C2502.92,-299.22 3700.73,-281.65 3728.5,-254 3770.69,-211.99 3750.33,-130.84 3739.63,-97.91"/>
<polygon fill="midnightblue" stroke="midnightblue" points="2177.07,-299.99 2167.11,-303.62 2177.16,-306.99 2177.07,-299.99"/>
</g>
<!-- Node29 -->
<g id="node8" class="node">
<title>Node29</title>
<g id="a_node8"><a xlink:href="algebraTrace_8cpp.html" target="_top" xlink:title=" ">
<polygon fill="white" stroke="black" points="347,-140 347,-170 500,-170 500,-140 347,-140"/>
<text text-anchor="start" x="355" y="-158" font-family="Helvetica,sans-Serif" font-size="10.00">/github/workspace/src</text>
<text text-anchor="middle" x="423.5" y="-147" font-family="Helvetica,sans-Serif" font-size="10.00">/cpp/common/algebraTrace.cpp</text>
</a>
</g>
</g>
<!-- Node3&#45;&gt;Node29 -->
<g id="edge7" class="edge">
<title>Node3&#45;&gt;Node29</title>
<path fill="none" stroke="midnightblue" d="M2015.68,-304.32C1766.01,-303.3 1017.78,-296.69 917.5,-254 892.63,-243.41 898.07,-223.28 873.5,-212 725.35,-144.01 669.3,-202.73 508.5,-176 498.78,-174.38 488.52,-172.3 478.61,-170.09"/>
<polygon fill="midnightblue" stroke="midnightblue" points="2015.76,-307.82 2025.77,-304.36 2015.78,-300.82 2015.76,-307.82"/>
</g>
<!-- Node30 -->
<g id="node9" class="node">
<title>Node30</title>
<g id="a_node9"><a xlink:href="algebraTrace_8hpp.html" target="_top" xlink:title=" ">
<polygon fill="white" stroke="red" points="142,-218 142,-248 295,-248 295,-218 142,-218"/>
<text text-anchor="start" x="150" y="-236" font-family="Helvetica,sans-Serif" font-size="10.00">/github/workspace/src</text>
<text text-anchor="middle" x="218.5" y="-225" font-family="Helvetica,sans-Serif" font-size="10.00">/cpp/common/algebraTrace.hpp</text>
</a>
</g>
</g>
<!-- Node3&#45;&gt;Node30 -->
<g id="edge8" class="edge">
<title>Node3&#45;&gt;Node30</title>
<path fill="none" stroke="midnightblue" d="M2015.31,-303.5C1716.42,-299.63 677.67,-284.24 347.5,-254 330.46,-252.44 312.25,-250.06 295.04,-247.48"/>
<polygon fill="midnightblue" stroke="midnightblue" points="2015.58,-307.01 2025.62,-303.64 2015.67,-300.01 2015.58,-307.01"/>
</g>
<!-- Node3&#45;&gt;Node33 -->
<g id="edge46" class="edge">
<title>Node3&#45;&gt;Node33</title>
<path fill="none" stroke="midnightblue" d="M2015.83,-304.61C1656.37,-304.83 214.66,-302.67 132.5,-254 101.17,-235.44 85.36,-192.53 78.99,-170.15"/>
<polygon fill="midnightblue" stroke="midnightblue" points="2015.89,-308.11 2025.89,-304.61 2015.89,-301.11 2015.89,-308.11"/>
</g>
<!-- Node72 -->
<g id="node11" class="node">
<title>Node72</title>
<g id="a_node11"><a xlink:href="antenna_8cpp.html" target="_top" xlink:title=" ">
<polygon fill="white" stroke="black" points="3589,-218 3589,-248 3720,-248 3720,-218 3589,-218"/>
<text text-anchor="start" x="3597" y="-236" font-family="Helvetica,sans-Serif" font-size="10.00">/github/workspace/src</text>
<text text-anchor="middle" x="3654.5" y="-225" font-family="Helvetica,sans-Serif" font-size="10.00">/cpp/common/antenna.cpp</text>
</a>
</g>
</g>
<!-- Node3&#45;&gt;Node72 -->
<g id="edge13" class="edge">
<title>Node3&#45;&gt;Node72</title>
<path fill="none" stroke="midnightblue" d="M2177.11,-303.98C2444.58,-301.92 3301.2,-292.39 3574.5,-254 3584.57,-252.59 3595.2,-250.42 3605.32,-248.02"/>
<polygon fill="midnightblue" stroke="midnightblue" points="2177.06,-300.48 2167.09,-304.06 2177.11,-307.48 2177.06,-300.48"/>
</g>
<!-- Node73 -->
<g id="node12" class="node">
<title>Node73</title>
<g id="a_node12"><a xlink:href="biasSINEX_8hpp.html" target="_top" xlink:title=" ">
<polygon fill="white" stroke="red" points="428,-218 428,-248 573,-248 573,-218 428,-218"/>
<text text-anchor="start" x="436" y="-236" font-family="Helvetica,sans-Serif" font-size="10.00">/github/workspace/src</text>
<text text-anchor="middle" x="500.5" y="-225" font-family="Helvetica,sans-Serif" font-size="10.00">/cpp/common/biasSINEX.hpp</text>
</a>
</g>
</g>
<!-- Node3&#45;&gt;Node73 -->
<g id="edge14" class="edge">
<title>Node3&#45;&gt;Node73</title>
<path fill="none" stroke="midnightblue" d="M2015.81,-304C1744.01,-301.97 863.22,-292.5 582.5,-254 572.19,-252.59 561.3,-250.42 550.93,-248.02"/>
<polygon fill="midnightblue" stroke="midnightblue" points="2015.97,-307.5 2025.99,-304.07 2016.02,-300.5 2015.97,-307.5"/>
</g>
<!-- Node40 -->
<g id="node13" class="node">
<title>Node40</title>
<g id="a_node13"><a xlink:href="preceph_8cpp.html" target="_top" xlink:title=" ">
<polygon fill="white" stroke="black" points="2675,-140 2675,-170 2806,-170 2806,-140 2675,-140"/>
<text text-anchor="start" x="2683" y="-158" font-family="Helvetica,sans-Serif" font-size="10.00">/github/workspace/src</text>
<text text-anchor="middle" x="2740.5" y="-147" font-family="Helvetica,sans-Serif" font-size="10.00">/cpp/common/preceph.cpp</text>
</a>
</g>
</g>
<!-- Node3&#45;&gt;Node40 -->
<g id="edge35" class="edge">
<title>Node3&#45;&gt;Node40</title>
<path fill="none" stroke="midnightblue" d="M2177.64,-303.99C2434.09,-301.96 3212.5,-292.66 3249.5,-254 3262.41,-240.51 3261.96,-225.9 3249.5,-212 3220.43,-179.56 2937.51,-163.97 2806.48,-158.44"/>
<polygon fill="midnightblue" stroke="midnightblue" points="2177.25,-300.49 2167.28,-304.07 2177.3,-307.49 2177.25,-300.49"/>
</g>
<!-- Node59 -->
<g id="node14" class="node">
<title>Node59</title>
<g id="a_node14"><a xlink:href="ionoModel_8hpp.html" target="_top" xlink:title=" ">
<polygon fill="white" stroke="red" points="950.5,-140 950.5,-170 1072.5,-170 1072.5,-140 950.5,-140"/>
<text text-anchor="start" x="958.5" y="-158" font-family="Helvetica,sans-Serif" font-size="10.00">/github/workspace/src</text>
<text text-anchor="middle" x="1011.5" y="-147" font-family="Helvetica,sans-Serif" font-size="10.00">/cpp/iono/ionoModel.hpp</text>
</a>
</g>
</g>
<!-- Node3&#45;&gt;Node59 -->
<g id="edge42" class="edge">
<title>Node3&#45;&gt;Node59</title>
<path fill="none" stroke="midnightblue" d="M2015.52,-303.83C1766.05,-301.39 1023.88,-291.03 988.5,-254 966.53,-231 987.42,-191.17 1001.34,-170.07"/>
<polygon fill="midnightblue" stroke="midnightblue" points="2015.57,-307.34 2025.6,-303.93 2015.64,-300.34 2015.57,-307.34"/>
</g>
<!-- Node16 -->
<g id="node15" class="node">
<title>Node16</title>
<g id="a_node15"><a xlink:href="ppp_8cpp.html" target="_top" xlink:title="ppp.c : precise point positioning">
<polygon fill="white" stroke="black" points="518,-140 518,-170 631,-170 631,-140 518,-140"/>
<text text-anchor="start" x="526" y="-158" font-family="Helvetica,sans-Serif" font-size="10.00">/github/workspace/src</text>
<text text-anchor="middle" x="574.5" y="-147" font-family="Helvetica,sans-Serif" font-size="10.00">/cpp/pea/ppp.cpp</text>
</a>
</g>
</g>
<!-- Node3&#45;&gt;Node16 -->
<g id="edge48" class="edge">
<title>Node3&#45;&gt;Node16</title>
<path fill="none" stroke="midnightblue" d="M2015.79,-303.62C1681.94,-299.78 425.03,-283.39 396.5,-254 383.5,-240.61 385.46,-227.05 396.5,-212 397.52,-210.61 476.14,-186.23 528.54,-170.1"/>
<polygon fill="midnightblue" stroke="midnightblue" points="2015.83,-307.12 2025.87,-303.73 2015.91,-300.12 2015.83,-307.12"/>
</g>
<!-- Node70 -->
<g id="node16" class="node">
<title>Node70</title>
<g id="a_node16"><a xlink:href="spp_8cpp.html" target="_top" xlink:title=" ">
<polygon fill="white" stroke="black" points="649,-140 649,-170 762,-170 762,-140 649,-140"/>
<text text-anchor="start" x="657" y="-158" font-family="Helvetica,sans-Serif" font-size="10.00">/github/workspace/src</text>
<text text-anchor="middle" x="705.5" y="-147" font-family="Helvetica,sans-Serif" font-size="10.00">/cpp/pea/spp.cpp</text>
</a>
</g>
</g>
<!-- Node3&#45;&gt;Node70 -->
<g id="edge53" class="edge">
<title>Node3&#45;&gt;Node70</title>
<path fill="none" stroke="midnightblue" d="M2015.52,-303.58C1684.01,-299.63 446.62,-282.98 418.5,-254 355.3,-188.87 459.12,-217.83 639.5,-176 646.85,-174.3 654.58,-172.22 662.05,-170.06"/>
<polygon fill="midnightblue" stroke="midnightblue" points="2015.95,-307.09 2025.99,-303.71 2016.04,-300.09 2015.95,-307.09"/>
</g>
<!-- Node76 -->
<g id="node17" class="node">
<title>Node76</title>
<g id="a_node17"><a xlink:href="ionex_8cpp.html" target="_top" xlink:title=" ">
<polygon fill="white" stroke="black" points="819,-140 819,-170 932,-170 932,-140 819,-140"/>
<text text-anchor="start" x="827" y="-158" font-family="Helvetica,sans-Serif" font-size="10.00">/github/workspace/src</text>
<text text-anchor="middle" x="875.5" y="-147" font-family="Helvetica,sans-Serif" font-size="10.00">/cpp/rtklib/ionex.cpp</text>
</a>
</g>
</g>
<!-- Node3&#45;&gt;Node76 -->
<g id="edge54" class="edge">
<title>Node3&#45;&gt;Node76</title>
<path fill="none" stroke="midnightblue" d="M2015.52,-304.18C1774.06,-302.76 1070,-295.09 975.5,-254 934.26,-236.07 900.4,-192.87 884.79,-170.3"/>
<polygon fill="midnightblue" stroke="midnightblue" points="2015.61,-307.68 2025.63,-304.24 2015.65,-300.68 2015.61,-307.68"/>
</g>
<!-- Node69 -->
<g id="node18" class="node">
<title>Node69</title>
<g id="a_node18"><a xlink:href="rinex_8cpp.html" target="_top" xlink:title=" ">
<polygon fill="white" stroke="black" points="1572,-140 1572,-170 1685,-170 1685,-140 1572,-140"/>
<text text-anchor="start" x="1580" y="-158" font-family="Helvetica,sans-Serif" font-size="10.00">/github/workspace/src</text>
<text text-anchor="middle" x="1628.5" y="-147" font-family="Helvetica,sans-Serif" font-size="10.00">/cpp/rtklib/rinex.cpp</text>
</a>
</g>
</g>
<!-- Node3&#45;&gt;Node69 -->
<g id="edge55" class="edge">
<title>Node3&#45;&gt;Node69</title>
<path fill="none" stroke="midnightblue" d="M2177.62,-303.92C2431.18,-301.72 3194.18,-291.97 3230.5,-254 3243.4,-240.51 3243.47,-225.43 3230.5,-212 3203.1,-183.63 1967.41,-161.58 1685.39,-156.92"/>
<polygon fill="midnightblue" stroke="midnightblue" points="2177.34,-300.42 2167.37,-304.01 2177.4,-307.42 2177.34,-300.42"/>
</g>
<!-- Node77 -->
<g id="node19" class="node">
<title>Node77</title>
<g id="a_node19"><a xlink:href="ephemeris_8cpp.html" target="_top" xlink:title=" ">
<polygon fill="white" stroke="black" points="591.5,-218 591.5,-248 733.5,-248 733.5,-218 591.5,-218"/>
<text text-anchor="start" x="599.5" y="-236" font-family="Helvetica,sans-Serif" font-size="10.00">/github/workspace/src</text>
<text text-anchor="middle" x="662.5" y="-225" font-family="Helvetica,sans-Serif" font-size="10.00">/cpp/common/ephemeris.cpp</text>
</a>
</g>
</g>
<!-- Node3&#45;&gt;Node77 -->
<g id="edge24" class="edge">
<title>Node3&#45;&gt;Node77</title>
<path fill="none" stroke="midnightblue" d="M2015.45,-303.68C1762.61,-300.79 990.44,-289.23 742.5,-254 732.58,-252.59 722.1,-250.46 712.11,-248.1"/>
<polygon fill="midnightblue" stroke="midnightblue" points="2015.62,-307.19 2025.66,-303.8 2015.7,-300.19 2015.62,-307.19"/>
</g>
<!-- Node78 -->
<g id="node20" class="node">
<title>Node78</title>
<g id="a_node20"><a xlink:href="erp_8cpp.html" target="_top" xlink:title=" ">
<polygon fill="white" stroke="black" points="752,-218 752,-248 865,-248 865,-218 752,-218"/>
<text text-anchor="start" x="760" y="-236" font-family="Helvetica,sans-Serif" font-size="10.00">/github/workspace/src</text>
<text text-anchor="middle" x="808.5" y="-225" font-family="Helvetica,sans-Serif" font-size="10.00">/cpp/common/erp.cpp</text>
</a>
</g>
</g>
<!-- Node3&#45;&gt;Node78 -->
<g id="edge25" class="edge">
<title>Node3&#45;&gt;Node78</title>
<path fill="none" stroke="midnightblue" d="M2015.65,-303.6C1780.44,-300.59 1099.29,-289.02 879.5,-254 870.65,-252.59 861.33,-250.45 852.46,-248.1"/>
<polygon fill="midnightblue" stroke="midnightblue" points="2015.8,-307.1 2025.84,-303.73 2015.88,-300.1 2015.8,-307.1"/>
</g>
<!-- Node79 -->
<g id="node21" class="node">
<title>Node79</title>
<g id="a_node21"><a xlink:href="ntripBroadcast_8hpp.html" target="_top" xlink:title=" ">
<polygon fill="white" stroke="red" points="3274.5,-67.5 3274.5,-97.5 3434.5,-97.5 3434.5,-67.5 3274.5,-67.5"/>
<text text-anchor="start" x="3282.5" y="-85.5" font-family="Helvetica,sans-Serif" font-size="10.00">/github/workspace/src</text>
<text text-anchor="middle" x="3354.5" y="-74.5" font-family="Helvetica,sans-Serif" font-size="10.00">/cpp/common/ntripBroadcast.hpp</text>
</a>
</g>
</g>
<!-- Node3&#45;&gt;Node79 -->
<g id="edge26" class="edge">
<title>Node3&#45;&gt;Node79</title>
<path fill="none" stroke="midnightblue" d="M2177.03,-303.26C2434.38,-298.99 3222.73,-283.55 3268.5,-254 3325.04,-217.49 3345.99,-131.67 3352.24,-97.7"/>
<polygon fill="midnightblue" stroke="midnightblue" points="2176.95,-299.76 2167.01,-303.42 2177.06,-306.76 2176.95,-299.76"/>
</g>
<!-- Node80 -->
<g id="node22" class="node">
<title>Node80</title>
<g id="a_node22"><a xlink:href="ntripTrace_8hpp.html" target="_top" xlink:title=" ">
<polygon fill="white" stroke="red" points="3354.5,-218 3354.5,-248 3494.5,-248 3494.5,-218 3354.5,-218"/>
<text text-anchor="start" x="3362.5" y="-236" font-family="Helvetica,sans-Serif" font-size="10.00">/github/workspace/src</text>
<text text-anchor="middle" x="3424.5" y="-225" font-family="Helvetica,sans-Serif" font-size="10.00">/cpp/common/ntripTrace.hpp</text>
</a>
</g>
</g>
<!-- Node3&#45;&gt;Node80 -->
<g id="edge28" class="edge">
<title>Node3&#45;&gt;Node80</title>
<path fill="none" stroke="midnightblue" d="M2177.4,-303.26C2416.07,-299.27 3114.62,-285.18 3340.5,-254 3350.9,-252.57 3361.89,-250.42 3372.37,-248.06"/>
<polygon fill="midnightblue" stroke="midnightblue" points="2177.01,-299.76 2167.06,-303.43 2177.12,-306.76 2177.01,-299.76"/>
</g>
<!-- Node88 -->
<g id="node23" class="node">
<title>Node88</title>
<g id="a_node23"><a xlink:href="rtcmEncoder_8hpp.html" target="_top" xlink:title=" ">
<polygon fill="white" stroke="red" points="3386.5,-140 3386.5,-170 3538.5,-170 3538.5,-140 3386.5,-140"/>
<text text-anchor="start" x="3394.5" y="-158" font-family="Helvetica,sans-Serif" font-size="10.00">/github/workspace/src</text>
<text text-anchor="middle" x="3462.5" y="-147" font-family="Helvetica,sans-Serif" font-size="10.00">/cpp/common/rtcmEncoder.hpp</text>
</a>
</g>
</g>
<!-- Node3&#45;&gt;Node88 -->
<g id="edge38" class="edge">
<title>Node3&#45;&gt;Node88</title>
<path fill="none" stroke="midnightblue" d="M2177.6,-303.1C2473.7,-297.79 3480.35,-278 3503.5,-254 3526.68,-229.98 3496.58,-190.93 3476.96,-170.12"/>
<polygon fill="midnightblue" stroke="midnightblue" points="2177.31,-299.6 2167.37,-303.28 2177.43,-306.6 2177.31,-299.6"/>
</g>
<!-- Node3&#45;&gt;Node90 -->
<g id="edge34" class="edge">
<title>Node3&#45;&gt;Node90</title>
<path fill="none" stroke="midnightblue" d="M2177.51,-303.14C2489.7,-297.75 3605.16,-277.05 3762.5,-254 3771.97,-252.61 3781.95,-250.46 3791.44,-248.07"/>
<polygon fill="midnightblue" stroke="midnightblue" points="2177.13,-299.65 2167.19,-303.32 2177.25,-306.64 2177.13,-299.65"/>
</g>
<!-- Node27 -->
<g id="node25" class="node">
<title>Node27</title>
<g id="a_node25"><a xlink:href="rinexClkWrite_8cpp.html" target="_top" xlink:title=" ">
<polygon fill="white" stroke="black" points="997.5,-218 997.5,-248 1151.5,-248 1151.5,-218 997.5,-218"/>
<text text-anchor="start" x="1005.5" y="-236" font-family="Helvetica,sans-Serif" font-size="10.00">/github/workspace/src</text>
<text text-anchor="middle" x="1074.5" y="-225" font-family="Helvetica,sans-Serif" font-size="10.00">/cpp/common/rinexClkWrite.cpp</text>
</a>
</g>
</g>
<!-- Node3&#45;&gt;Node27 -->
<g id="edge36" class="edge">
<title>Node3&#45;&gt;Node27</title>
<path fill="none" stroke="midnightblue" d="M2015.53,-304.87C1852.71,-304.57 1474.43,-298.62 1160.5,-254 1150.03,-252.51 1138.95,-250.37 1128.36,-248.04"/>
<polygon fill="midnightblue" stroke="midnightblue" points="2015.93,-308.37 2025.94,-304.88 2015.94,-301.37 2015.93,-308.37"/>
</g>
<!-- Node42 -->
<g id="node26" class="node">
<title>Node42</title>
<g id="a_node26"><a xlink:href="rinexNavWrite_8cpp.html" target="_top" xlink:title=" ">
<polygon fill="white" stroke="black" points="1169.5,-218 1169.5,-248 1327.5,-248 1327.5,-218 1169.5,-218"/>
<text text-anchor="start" x="1177.5" y="-236" font-family="Helvetica,sans-Serif" font-size="10.00">/github/workspace/src</text>
<text text-anchor="middle" x="1248.5" y="-225" font-family="Helvetica,sans-Serif" font-size="10.00">/cpp/common/rinexNavWrite.cpp</text>
</a>
</g>
</g>
<!-- Node3&#45;&gt;Node42 -->
<g id="edge37" class="edge">
<title>Node3&#45;&gt;Node42</title>
<path fill="none" stroke="midnightblue" d="M2015.74,-303.29C1876.43,-300.28 1582.24,-289.86 1336.5,-254 1325.96,-252.46 1314.81,-250.33 1304.12,-248.03"/>
<polygon fill="midnightblue" stroke="midnightblue" points="2015.84,-306.8 2025.91,-303.51 2015.98,-299.8 2015.84,-306.8"/>
</g>
<!-- Node91 -->
<g id="node27" class="node">
<title>Node91</title>
<g id="a_node27"><a xlink:href="sp3_8cpp.html" target="_top" xlink:title=" ">
<polygon fill="white" stroke="black" points="1346,-218 1346,-248 1459,-248 1459,-218 1346,-218"/>
<text text-anchor="start" x="1354" y="-236" font-family="Helvetica,sans-Serif" font-size="10.00">/github/workspace/src</text>
<text text-anchor="middle" x="1402.5" y="-225" font-family="Helvetica,sans-Serif" font-size="10.00">/cpp/common/sp3.cpp</text>
</a>
</g>
</g>
<!-- Node3&#45;&gt;Node91 -->
<g id="edge39" class="edge">
<title>Node3&#45;&gt;Node91</title>
<path fill="none" stroke="midnightblue" d="M2015.3,-303.62C1894.72,-301.05 1661.7,-291.21 1467.5,-254 1459.61,-252.49 1451.33,-250.37 1443.42,-248.07"/>
<polygon fill="midnightblue" stroke="midnightblue" points="2015.48,-307.13 2025.55,-303.83 2015.62,-300.13 2015.48,-307.13"/>
</g>
<!-- Node28 -->
<g id="node28" class="node">
<title>Node28</title>
<g id="a_node28"><a xlink:href="sp3Write_8cpp.html" target="_top" xlink:title=" ">
<polygon fill="white" stroke="black" points="1477,-218 1477,-248 1612,-248 1612,-218 1477,-218"/>
<text text-anchor="start" x="1485" y="-236" font-family="Helvetica,sans-Serif" font-size="10.00">/github/workspace/src</text>
<text text-anchor="middle" x="1544.5" y="-225" font-family="Helvetica,sans-Serif" font-size="10.00">/cpp/common/sp3Write.cpp</text>
</a>
</g>
</g>
<!-- Node3&#45;&gt;Node28 -->
<g id="edge40" class="edge">
<title>Node3&#45;&gt;Node28</title>
<path fill="none" stroke="midnightblue" d="M2015.51,-299.56C1920.54,-292.92 1758.67,-278.96 1621.5,-254 1612.53,-252.37 1603.07,-250.25 1593.96,-248"/>
<polygon fill="midnightblue" stroke="midnightblue" points="2015.4,-303.06 2025.61,-300.26 2015.88,-296.08 2015.4,-303.06"/>
</g>
<!-- Node92 -->
<g id="node29" class="node">
<title>Node92</title>
<g id="a_node29"><a xlink:href="streamTrace_8cpp.html" target="_top" xlink:title=" ">
<polygon fill="white" stroke="black" points="1630.5,-218 1630.5,-248 1782.5,-248 1782.5,-218 1630.5,-218"/>
<text text-anchor="start" x="1638.5" y="-236" font-family="Helvetica,sans-Serif" font-size="10.00">/github/workspace/src</text>
<text text-anchor="middle" x="1706.5" y="-225" font-family="Helvetica,sans-Serif" font-size="10.00">/cpp/common/streamTrace.cpp</text>
</a>
</g>
</g>
<!-- Node3&#45;&gt;Node92 -->
<g id="edge41" class="edge">
<title>Node3&#45;&gt;Node92</title>
<path fill="none" stroke="midnightblue" d="M2015.94,-292.67C1954.3,-283.25 1867.28,-269.17 1791.5,-254 1782.58,-252.21 1773.17,-250.17 1764,-248.08"/>
<polygon fill="midnightblue" stroke="midnightblue" points="2015.58,-296.15 2025.99,-294.2 2016.63,-289.23 2015.58,-296.15"/>
</g>
<!-- Node93 -->
<g id="node30" class="node">
<title>Node93</title>
<g id="a_node30"><a xlink:href="forceModels_8cpp.html" target="_top" xlink:title=" ">
<polygon fill="white" stroke="black" points="1801,-218 1801,-248 1946,-248 1946,-218 1801,-218"/>
<text text-anchor="start" x="1809" y="-236" font-family="Helvetica,sans-Serif" font-size="10.00">/github/workspace/src</text>
<text text-anchor="middle" x="1873.5" y="-225" font-family="Helvetica,sans-Serif" font-size="10.00">/cpp/orbprop/forceModels.cpp</text>
</a>
</g>
</g>
<!-- Node3&#45;&gt;Node93 -->
<g id="edge43" class="edge">
<title>Node3&#45;&gt;Node93</title>
<path fill="none" stroke="midnightblue" d="M2042.28,-287.36C2004.2,-275.32 1953.88,-259.41 1918.12,-248.11"/>
<polygon fill="midnightblue" stroke="midnightblue" points="2041.59,-290.81 2052.18,-290.49 2043.7,-284.14 2041.59,-290.81"/>
</g>
<!-- Node94 -->
<g id="node31" class="node">
<title>Node94</title>
<g id="a_node31"><a xlink:href="gravity_8cpp.html" target="_top" xlink:title=" ">
<polygon fill="white" stroke="black" points="1964.5,-218 1964.5,-248 2084.5,-248 2084.5,-218 1964.5,-218"/>
<text text-anchor="start" x="1972.5" y="-236" font-family="Helvetica,sans-Serif" font-size="10.00">/github/workspace/src</text>
<text text-anchor="middle" x="2024.5" y="-225" font-family="Helvetica,sans-Serif" font-size="10.00">/cpp/orbprop/gravity.cpp</text>
</a>
</g>
</g>
<!-- Node3&#45;&gt;Node94 -->
<g id="edge44" class="edge">
<title>Node3&#45;&gt;Node94</title>
<path fill="none" stroke="midnightblue" d="M2074.73,-283.19C2063.18,-271.87 2049.29,-258.27 2039.05,-248.25"/>
<polygon fill="midnightblue" stroke="midnightblue" points="2072.34,-285.74 2081.93,-290.23 2077.23,-280.74 2072.34,-285.74"/>
</g>
<!-- Node95 -->
<g id="node32" class="node">
<title>Node95</title>
<g id="a_node32"><a xlink:href="test__egm_8cpp.html" target="_top" xlink:title=" ">
<polygon fill="white" stroke="black" points="2102.5,-218 2102.5,-248 2234.5,-248 2234.5,-218 2102.5,-218"/>
<text text-anchor="start" x="2110.5" y="-236" font-family="Helvetica,sans-Serif" font-size="10.00">/github/workspace/src</text>
<text text-anchor="middle" x="2168.5" y="-225" font-family="Helvetica,sans-Serif" font-size="10.00">/cpp/orbprop/test_egm.cpp</text>
</a>
</g>
</g>
<!-- Node3&#45;&gt;Node95 -->
<g id="edge45" class="edge">
<title>Node3&#45;&gt;Node95</title>
<path fill="none" stroke="midnightblue" d="M2118.27,-283.19C2129.82,-271.87 2143.71,-258.27 2153.95,-248.25"/>
<polygon fill="midnightblue" stroke="midnightblue" points="2115.77,-280.74 2111.07,-290.23 2120.66,-285.74 2115.77,-280.74"/>
</g>
<!-- Node64 -->
<g id="node33" class="node">
<title>Node64</title>
<g id="a_node33"><a xlink:href="pea__snx_8cpp.html" target="_top" xlink:title=" ">
<polygon fill="white" stroke="black" points="2253,-218 2253,-248 2366,-248 2366,-218 2253,-218"/>
<text text-anchor="start" x="2261" y="-236" font-family="Helvetica,sans-Serif" font-size="10.00">/github/workspace/src</text>
<text text-anchor="middle" x="2309.5" y="-225" font-family="Helvetica,sans-Serif" font-size="10.00">/cpp/pea/pea_snx.cpp</text>
</a>
</g>
</g>
<!-- Node3&#45;&gt;Node64 -->
<g id="edge47" class="edge">
<title>Node3&#45;&gt;Node64</title>
<path fill="none" stroke="midnightblue" d="M2148.75,-287.2C2185.07,-275.18 2232.87,-259.36 2266.88,-248.11"/>
<polygon fill="midnightblue" stroke="midnightblue" points="2147.23,-284.02 2138.84,-290.49 2149.43,-290.67 2147.23,-284.02"/>
</g>
<!-- Node65 -->
<g id="node34" class="node">
<title>Node65</title>
<g id="a_node34"><a xlink:href="ppp__network_8cpp.html" target="_top" xlink:title=" ">
<polygon fill="white" stroke="black" points="2384,-218 2384,-248 2515,-248 2515,-218 2384,-218"/>
<text text-anchor="start" x="2392" y="-236" font-family="Helvetica,sans-Serif" font-size="10.00">/github/workspace/src</text>
<text text-anchor="middle" x="2449.5" y="-225" font-family="Helvetica,sans-Serif" font-size="10.00">/cpp/pea/ppp_network.cpp</text>
</a>
</g>
</g>
<!-- Node3&#45;&gt;Node65 -->
<g id="edge49" class="edge">
<title>Node3&#45;&gt;Node65</title>
<path fill="none" stroke="midnightblue" d="M2177.24,-291.61C2232.91,-282.29 2308.48,-268.77 2374.5,-254 2382.52,-252.2 2390.98,-250.13 2399.21,-248.01"/>
<polygon fill="midnightblue" stroke="midnightblue" points="2176.37,-288.2 2167.08,-293.3 2177.52,-295.11 2176.37,-288.2"/>
</g>
<!-- Node66 -->
<g id="node35" class="node">
<title>Node66</title>
<g id="a_node35"><a xlink:href="ppp__user_8cpp.html" target="_top" xlink:title=" ">
<polygon fill="white" stroke="black" points="2533,-218 2533,-248 2648,-248 2648,-218 2533,-218"/>
<text text-anchor="start" x="2541" y="-236" font-family="Helvetica,sans-Serif" font-size="10.00">/github/workspace/src</text>
<text text-anchor="middle" x="2590.5" y="-225" font-family="Helvetica,sans-Serif" font-size="10.00">/cpp/pea/ppp_user.cpp</text>
</a>
</g>
</g>
<!-- Node3&#45;&gt;Node66 -->
<g id="edge50" class="edge">
<title>Node3&#45;&gt;Node66</title>
<path fill="none" stroke="midnightblue" d="M2177.37,-299.11C2263.74,-292.38 2404.31,-278.65 2523.5,-254 2531.35,-252.38 2539.6,-250.26 2547.53,-248.02"/>
<polygon fill="midnightblue" stroke="midnightblue" points="2177.07,-295.62 2167.37,-299.88 2177.61,-302.6 2177.07,-295.62"/>
</g>
<!-- Node51 -->
<g id="node36" class="node">
<title>Node51</title>
<g id="a_node36"><a xlink:href="ppppp_8cpp.html" target="_top" xlink:title=" ">
<polygon fill="white" stroke="black" points="2666,-218 2666,-248 2779,-248 2779,-218 2666,-218"/>
<text text-anchor="start" x="2674" y="-236" font-family="Helvetica,sans-Serif" font-size="10.00">/github/workspace/src</text>
<text text-anchor="middle" x="2722.5" y="-225" font-family="Helvetica,sans-Serif" font-size="10.00">/cpp/pea/ppppp.cpp</text>
</a>
</g>
</g>
<!-- Node3&#45;&gt;Node51 -->
<g id="edge51" class="edge">
<title>Node3&#45;&gt;Node51</title>
<path fill="none" stroke="midnightblue" d="M2177.75,-302.37C2287.36,-298.31 2488.25,-286.72 2656.5,-254 2664.49,-252.45 2672.89,-250.31 2680.93,-248"/>
<polygon fill="midnightblue" stroke="midnightblue" points="2177.3,-298.88 2167.43,-302.74 2177.55,-305.88 2177.3,-298.88"/>
</g>
<!-- Node68 -->
<g id="node37" class="node">
<title>Node68</title>
<g id="a_node37"><a xlink:href="ppppp__pseudoobs_8cpp.html" target="_top" xlink:title=" ">
<polygon fill="white" stroke="black" points="2797.5,-218 2797.5,-248 2951.5,-248 2951.5,-218 2797.5,-218"/>
<text text-anchor="start" x="2805.5" y="-236" font-family="Helvetica,sans-Serif" font-size="10.00">/github/workspace/src</text>
<text text-anchor="middle" x="2874.5" y="-225" font-family="Helvetica,sans-Serif" font-size="10.00">/cpp/pea/ppppp_pseudoobs.cpp</text>
</a>
</g>
</g>
<!-- Node3&#45;&gt;Node68 -->
<g id="edge52" class="edge">
<title>Node3&#45;&gt;Node68</title>
<path fill="none" stroke="midnightblue" d="M2177.25,-302.6C2306.68,-298.66 2568.33,-287 2787.5,-254 2797.77,-252.45 2808.62,-250.35 2819.05,-248.08"/>
<polygon fill="midnightblue" stroke="midnightblue" points="2176.92,-299.11 2167.03,-302.9 2177.13,-306.11 2176.92,-299.11"/>
</g>
<!-- Node96 -->
<g id="node38" class="node">
<title>Node96</title>
<g id="a_node38"><a xlink:href="rtkcmn_8cpp.html" target="_top" xlink:title=" ">
<polygon fill="white" stroke="black" points="2970,-218 2970,-248 3083,-248 3083,-218 2970,-218"/>
<text text-anchor="start" x="2978" y="-236" font-family="Helvetica,sans-Serif" font-size="10.00">/github/workspace/src</text>
<text text-anchor="middle" x="3026.5" y="-225" font-family="Helvetica,sans-Serif" font-size="10.00">/cpp/rtklib/rtkcmn.cpp</text>
</a>
</g>
</g>
<!-- Node3&#45;&gt;Node96 -->
<g id="edge56" class="edge">
<title>Node3&#45;&gt;Node96</title>
<path fill="none" stroke="midnightblue" d="M2177.2,-302.21C2362.02,-296.58 2811.51,-280.54 2960.5,-254 2968.75,-252.53 2977.42,-250.37 2985.67,-248"/>
<polygon fill="midnightblue" stroke="midnightblue" points="2176.89,-298.72 2167,-302.52 2177.11,-305.72 2176.89,-298.72"/>
</g>
<!-- Node5&#45;&gt;Node15 -->
<g id="edge5" class="edge">
<title>Node5&#45;&gt;Node15</title>
<path fill="none" stroke="midnightblue" d="M3506.45,-64.44C3473.05,-53.91 3430.72,-40.55 3399.22,-30.61"/>
<polygon fill="midnightblue" stroke="midnightblue" points="3505.46,-67.8 3516.05,-67.48 3507.57,-61.13 3505.46,-67.8"/>
</g>
<!-- Node30&#45;&gt;Node2 -->
<g id="edge9" class="edge">
<title>Node30&#45;&gt;Node2</title>
<path fill="none" stroke="midnightblue" d="M233.45,-209.27C240.49,-198.58 248.79,-185.96 255.55,-175.68"/>
<polygon fill="midnightblue" stroke="midnightblue" points="230.48,-207.43 227.9,-217.7 236.32,-211.27 230.48,-207.43"/>
</g>
<!-- Node30&#45;&gt;Node15 -->
<g id="edge11" class="edge">
<title>Node30&#45;&gt;Node15</title>
<path fill="none" stroke="midnightblue" d="M203.89,-208.96C191.98,-186.97 179.92,-154.27 198.5,-134 314.41,-7.55 796.21,-76.26 967.5,-67 1897.22,-16.72 3033.15,-15.8 3297.62,-16.32"/>
<polygon fill="midnightblue" stroke="midnightblue" points="200.87,-210.73 208.89,-217.66 206.94,-207.25 200.87,-210.73"/>
</g>
<!-- Node30&#45;&gt;Node29 -->
<g id="edge10" class="edge">
<title>Node30&#45;&gt;Node29</title>
<path fill="none" stroke="midnightblue" d="M266,-214.39C302.37,-200.9 351.89,-182.55 385.63,-170.04"/>
<polygon fill="midnightblue" stroke="midnightblue" points="264.74,-211.13 256.58,-217.88 267.17,-217.69 264.74,-211.13"/>
</g>
<!-- Node30&#45;&gt;Node33 -->
<g id="edge12" class="edge">
<title>Node30&#45;&gt;Node33</title>
<path fill="none" stroke="midnightblue" d="M183.08,-213.17C157.94,-199.82 124.75,-182.18 101.92,-170.04"/>
<polygon fill="midnightblue" stroke="midnightblue" points="181.46,-216.28 191.94,-217.88 184.75,-210.1 181.46,-216.28"/>
</g>
<!-- Node73&#45;&gt;Node2 -->
<g id="edge15" class="edge">
<title>Node73&#45;&gt;Node2</title>
<path fill="none" stroke="midnightblue" d="M447.95,-214.79C412.32,-203.11 365.15,-187.66 328.12,-175.53"/>
<polygon fill="midnightblue" stroke="midnightblue" points="447.08,-218.18 457.68,-217.97 449.26,-211.53 447.08,-218.18"/>
</g>
<!-- Node73&#45;&gt;Node15 -->
<g id="edge19" class="edge">
<title>Node73&#45;&gt;Node15</title>
<path fill="none" stroke="midnightblue" d="M566.28,-215.65C571.76,-214.38 577.22,-213.15 582.5,-212 665.63,-193.91 696.08,-217.22 770.5,-176 792.78,-163.66 786.45,-144.85 809.5,-134 1041.66,-24.69 2944.22,-17 3298,-16.52"/>
<polygon fill="midnightblue" stroke="midnightblue" points="565.37,-212.27 556.43,-217.96 566.97,-219.08 565.37,-212.27"/>
</g>
<!-- Node73&#45;&gt;Node40 -->
<g id="edge16" class="edge">
<title>Node73&#45;&gt;Node40</title>
<path fill="none" stroke="midnightblue" d="M560.76,-215.76C568.04,-214.26 575.41,-212.95 582.5,-212 688.61,-197.85 2324.57,-164.34 2674.82,-157.31"/>
<polygon fill="midnightblue" stroke="midnightblue" points="559.94,-212.36 550.92,-217.92 561.44,-219.2 559.94,-212.36"/>
</g>
<!-- Node73&#45;&gt;Node59 -->
<g id="edge17" class="edge">
<title>Node73&#45;&gt;Node59</title>
<path fill="none" stroke="midnightblue" d="M563.59,-215.68C569.95,-214.32 576.34,-213.06 582.5,-212 740.12,-184.99 783.39,-205.79 940.5,-176 948.8,-174.43 957.55,-172.33 965.95,-170.1"/>
<polygon fill="midnightblue" stroke="midnightblue" points="562.65,-212.31 553.65,-217.9 564.17,-219.14 562.65,-212.31"/>
</g>
<!-- Node73&#45;&gt;Node16 -->
<g id="edge20" class="edge">
<title>Node73&#45;&gt;Node16</title>
<path fill="none" stroke="midnightblue" d="M521.4,-210.53C533.96,-197.63 549.6,-181.57 560.64,-170.23"/>
<polygon fill="midnightblue" stroke="midnightblue" points="518.89,-208.1 514.42,-217.7 523.9,-212.98 518.89,-208.1"/>
</g>
<!-- Node73&#45;&gt;Node70 -->
<g id="edge21" class="edge">
<title>Node73&#45;&gt;Node70</title>
<path fill="none" stroke="midnightblue" d="M548,-214.39C584.37,-200.9 633.89,-182.55 667.63,-170.04"/>
<polygon fill="midnightblue" stroke="midnightblue" points="546.74,-211.13 538.58,-217.88 549.17,-217.69 546.74,-211.13"/>
</g>
<!-- Node73&#45;&gt;Node76 -->
<g id="edge22" class="edge">
<title>Node73&#45;&gt;Node76</title>
<path fill="none" stroke="midnightblue" d="M565.26,-215.71C571.08,-214.39 576.89,-213.14 582.5,-212 680.46,-192.14 706.9,-197.59 804.5,-176 812.25,-174.29 820.41,-172.23 828.33,-170.09"/>
<polygon fill="midnightblue" stroke="midnightblue" points="564.46,-212.3 555.5,-217.96 566.03,-219.12 564.46,-212.3"/>
</g>
<!-- Node73&#45;&gt;Node69 -->
<g id="edge23" class="edge">
<title>Node73&#45;&gt;Node69</title>
<path fill="none" stroke="midnightblue" d="M561.89,-215.72C568.8,-214.28 575.78,-212.99 582.5,-212 776.02,-183.47 1382.94,-163.35 1571.82,-157.65"/>
<polygon fill="midnightblue" stroke="midnightblue" points="560.84,-212.37 551.83,-217.94 562.35,-219.21 560.84,-212.37"/>
</g>
<!-- Node59&#45;&gt;Node15 -->
<g id="edge18" class="edge">
<title>Node59&#45;&gt;Node15</title>
<path fill="none" stroke="midnightblue" d="M1082.72,-149.82C1434.41,-129.18 2981.56,-38.39 3297.89,-19.82"/>
<polygon fill="midnightblue" stroke="midnightblue" points="1082.44,-146.33 1072.67,-150.41 1082.85,-153.32 1082.44,-146.33"/>
</g>
<!-- Node79&#45;&gt;Node15 -->
<g id="edge27" class="edge">
<title>Node79&#45;&gt;Node15</title>
<path fill="none" stroke="midnightblue" d="M3354.5,-57.11C3354.5,-48.15 3354.5,-38.32 3354.5,-30.58"/>
<polygon fill="midnightblue" stroke="midnightblue" points="3351,-57.4 3354.5,-67.4 3358,-57.4 3351,-57.4"/>
</g>
<!-- Node80&#45;&gt;Node79 -->
<g id="edge29" class="edge">
<title>Node80&#45;&gt;Node79</title>
<path fill="none" stroke="midnightblue" d="M3402.37,-210.4C3393.49,-200.63 3383.86,-188.49 3377.5,-176 3364.36,-150.19 3358.44,-116.44 3356,-97.67"/>
<polygon fill="midnightblue" stroke="midnightblue" points="3399.85,-212.82 3409.26,-217.68 3404.93,-208.01 3399.85,-212.82"/>
</g>
<!-- Node80&#45;&gt;Node88 -->
<g id="edge30" class="edge">
<title>Node80&#45;&gt;Node88</title>
<path fill="none" stroke="midnightblue" d="M3436.15,-208.7C3442.43,-196.14 3449.98,-181.04 3455.38,-170.23"/>
<polygon fill="midnightblue" stroke="midnightblue" points="3432.99,-207.2 3431.65,-217.7 3439.25,-210.33 3432.99,-207.2"/>
</g>
<!-- Node88&#45;&gt;Node15 -->
<g id="edge33" class="edge">
<title>Node88&#45;&gt;Node15</title>
<path fill="none" stroke="midnightblue" d="M3462.41,-129.79C3461.2,-111.02 3456.91,-85.21 3443.5,-67 3431.38,-50.55 3412.19,-38.69 3394.73,-30.61"/>
<polygon fill="midnightblue" stroke="midnightblue" points="3458.92,-130.07 3462.82,-139.92 3465.92,-129.79 3458.92,-130.07"/>
</g>
<!-- Node88&#45;&gt;Node48 -->
<g id="edge31" class="edge">
<title>Node88&#45;&gt;Node48</title>
<path fill="none" stroke="midnightblue" d="M3526.28,-137.47C3572.99,-125.36 3635.71,-109.1 3680.07,-97.61"/>
<polygon fill="midnightblue" stroke="midnightblue" points="3525.37,-134.09 3516.56,-139.99 3527.12,-140.87 3525.37,-134.09"/>
</g>
<!-- Node88&#45;&gt;Node79 -->
<g id="edge32" class="edge">
<title>Node88&#45;&gt;Node79</title>
<path fill="none" stroke="midnightblue" d="M3432.51,-134.42C3414.59,-122.72 3392.24,-108.13 3376.06,-97.57"/>
<polygon fill="midnightblue" stroke="midnightblue" points="3430.62,-137.37 3440.9,-139.9 3434.44,-131.51 3430.62,-137.37"/>
</g>
</g>
</svg>
        <g id="navigator" transform="translate(0 0)" fill="#404254">
                <rect fill="#f2f5e9" fill-opacity="0.5" stroke="#606060" stroke-width=".5" x="0" y="0" width="60" height="60"/>
                <use id="zoomplus" xlink:href="#zoomPlus" x="17" y="9" onmousedown="handleZoom(evt,'in')"/>
                <use id="zoomminus" xlink:href="#zoomMin" x="42" y="9" onmousedown="handleZoom(evt,'out')"/>
                <use id="reset" xlink:href="#resetDef" x="30" y="36" onmousedown="handleReset()"/>
                <g id="arrowUp" xlink:href="#dirArrow" transform="translate(30 24)" onmousedown="handlePan(0,-1)">
                  <use xlink:href="#rim" fill="#404040">
                        <set attributeName="fill" to="#808080" begin="arrowUp.mouseover" end="arrowUp.mouseout"/>
                  </use>
                  <path fill="none" stroke="white" stroke-width="1.5" d="M0,-3.0v7 M-2.5,-0.5L0,-3.0L2.5,-0.5"/>
                </g>
                <g id="arrowRight" xlink:href="#dirArrow" transform="rotate(90) translate(36 -43)" onmousedown="handlePan(1,0)">
                  <use xlink:href="#rim" fill="#404040">
                        <set attributeName="fill" to="#808080" begin="arrowRight.mouseover" end="arrowRight.mouseout"/>
                  </use>
                  <path fill="none" stroke="white" stroke-width="1.5" d="M0,-3.0v7 M-2.5,-0.5L0,-3.0L2.5,-0.5"/>
                </g>
                <g id="arrowDown" xlink:href="#dirArrow" transform="rotate(180) translate(-30 -48)" onmousedown="handlePan(0,1)">
                  <use xlink:href="#rim" fill="#404040">
                        <set attributeName="fill" to="#808080" begin="arrowDown.mouseover" end="arrowDown.mouseout"/>
                  </use>
                  <path fill="none" stroke="white" stroke-width="1.5" d="M0,-3.0v7 M-2.5,-0.5L0,-3.0L2.5,-0.5"/>
                </g>
                <g id="arrowLeft" xlink:href="#dirArrow" transform="rotate(270) translate(-36 17)" onmousedown="handlePan(-1,0)">
                  <use xlink:href="#rim" fill="#404040">
                        <set attributeName="fill" to="#808080" begin="arrowLeft.mouseover" end="arrowLeft.mouseout"/>
                  </use>
                  <path fill="none" stroke="white" stroke-width="1.5" d="M0,-3.0v7 M-2.5,-0.5L0,-3.0L2.5,-0.5"/>
                </g>
        </g>
        <svg viewBox="0 0 15 15" width="100%" height="30px" preserveAspectRatio="xMaxYMin meet">
         <g id="arrow_out" transform="scale(0.3 0.3)">
          <a xlink:href="orbits_8hpp__dep__incl_org.svg" target="_base">
           <rect id="button" ry="5" rx="5" y="6" x="6" height="38" width="38"
                fill="#f2f5e9" fill-opacity="0.5" stroke="#606060" stroke-width="1.0"/>
           <path id="arrow"
             d="M 11.500037,31.436501 C 11.940474,20.09759 22.043105,11.32322 32.158766,21.979434 L 37.068811,17.246167 C 37.068811,17.246167 37.088388,32 37.088388,32 L 22.160133,31.978069 C 22.160133,31.978069 26.997745,27.140456 26.997745,27.140456 C 18.528582,18.264221 13.291696,25.230495 11.500037,31.436501 z"
             style="fill:#404040;"/>
          </a>
         </g>
        </svg>
</svg>
