<?xml version="1.0" encoding="UTF-8" standalone="no"?>
<!DOCTYPE svg PUBLIC "-//W3C//DTD SVG 1.1//EN"
 "http://www.w3.org/Graphics/SVG/1.1/DTD/svg11.dtd">
<!-- Generated by graphviz version 2.50.0 (20220203.2022)
 -->
<!-- Title: iau_pn00a Pages: 1 -->
<svg width="356pt" height="123pt"
 viewBox="0.00 0.00 356.00 123.00" xmlns="http://www.w3.org/2000/svg" xmlns:xlink="http://www.w3.org/1999/xlink">
<g id="graph0" class="graph" transform="scale(1 1) rotate(0) translate(4 119)">
<title>iau_pn00a</title>
<polygon fill="white" stroke="transparent" points="-4,4 -4,-119 352,-119 352,4 -4,4"/>
<!-- Node1 -->
<g id="node1" class="node">
<title>Node1</title>
<g id="a_node1"><a xlink:title=" ">
<polygon fill="#bfbfbf" stroke="black" points="0,-76.5 0,-95.5 61,-95.5 61,-76.5 0,-76.5"/>
<text text-anchor="middle" x="30.5" y="-83.5" font-family="Helvetica,sans-Serif" font-size="10.00">iau_pn00a</text>
</a>
</g>
</g>
<!-- Node2 -->
<g id="node2" class="node">
<title>Node2</title>
<g id="a_node2"><a xlink:href="nut00a_8for.html#a60e6cdea71e6b89964ba71c96625d76a" target="_top" xlink:title=" ">
<polygon fill="white" stroke="black" points="97,-95.5 97,-114.5 161,-114.5 161,-95.5 97,-95.5"/>
<text text-anchor="middle" x="129" y="-102.5" font-family="Helvetica,sans-Serif" font-size="10.00">iau_nut00a</text>
</a>
</g>
</g>
<!-- Node1&#45;&gt;Node2 -->
<g id="edge1" class="edge">
<title>Node1&#45;&gt;Node2</title>
<path fill="none" stroke="midnightblue" d="M61.24,-91.86C69.36,-93.45 78.3,-95.22 86.94,-96.91"/>
<polygon fill="midnightblue" stroke="midnightblue" points="86.37,-100.37 96.85,-98.87 87.72,-93.5 86.37,-100.37"/>
</g>
<!-- Node3 -->
<g id="node3" class="node">
<title>Node3</title>
<g id="a_node3"><a xlink:href="pn00_8for.html#a31b905e027b17107c0e56061a6850c13" target="_top" xlink:title=" ">
<polygon fill="white" stroke="black" points="101,-57.5 101,-76.5 157,-76.5 157,-57.5 101,-57.5"/>
<text text-anchor="middle" x="129" y="-64.5" font-family="Helvetica,sans-Serif" font-size="10.00">iau_pn00</text>
</a>
</g>
</g>
<!-- Node1&#45;&gt;Node3 -->
<g id="edge2" class="edge">
<title>Node1&#45;&gt;Node3</title>
<path fill="none" stroke="midnightblue" d="M61.24,-80.14C70.61,-78.3 81.08,-76.24 90.9,-74.3"/>
<polygon fill="midnightblue" stroke="midnightblue" points="91.68,-77.72 100.82,-72.35 90.33,-70.85 91.68,-77.72"/>
</g>
<!-- Node4 -->
<g id="node4" class="node">
<title>Node4</title>
<g id="a_node4"><a xlink:href="bp00_8for.html#a3fc3bdf84399c71da9637c97a5dbd8af" target="_top" xlink:title=" ">
<polygon fill="white" stroke="red" points="200,-76.5 200,-95.5 256,-95.5 256,-76.5 200,-76.5"/>
<text text-anchor="middle" x="228" y="-83.5" font-family="Helvetica,sans-Serif" font-size="10.00">iau_bp00</text>
</a>
</g>
</g>
<!-- Node3&#45;&gt;Node4 -->
<g id="edge3" class="edge">
<title>Node3&#45;&gt;Node4</title>
<path fill="none" stroke="midnightblue" d="M157.02,-72.29C167.13,-74.27 178.8,-76.56 189.68,-78.69"/>
<polygon fill="midnightblue" stroke="midnightblue" points="189.3,-82.18 199.79,-80.67 190.65,-75.31 189.3,-82.18"/>
</g>
<!-- Node9 -->
<g id="node5" class="node">
<title>Node9</title>
<g id="a_node5"><a xlink:href="pr00_8for.html#aaaa69a98c375d37172546f7770a5120e" target="_top" xlink:title=" ">
<polygon fill="white" stroke="black" points="295,-95.5 295,-114.5 348,-114.5 348,-95.5 295,-95.5"/>
<text text-anchor="middle" x="321.5" y="-102.5" font-family="Helvetica,sans-Serif" font-size="10.00">iau_pr00</text>
</a>
</g>
</g>
<!-- Node3&#45;&gt;Node9 -->
<g id="edge7" class="edge">
<title>Node3&#45;&gt;Node9</title>
<path fill="none" stroke="midnightblue" d="M146.06,-76.68C164.09,-87.46 191.54,-103.56 197,-105 225.84,-112.61 259.81,-111.95 284.82,-109.76"/>
<polygon fill="midnightblue" stroke="midnightblue" points="285.34,-113.22 294.94,-108.75 284.64,-106.26 285.34,-113.22"/>
</g>
<!-- Node11 -->
<g id="node6" class="node">
<title>Node11</title>
<g id="a_node6"><a xlink:href="rxr_8for.html#a8172488cdcd29f9780d47f2a0c045f40" target="_top" xlink:title=" ">
<polygon fill="white" stroke="red" points="299,-57.5 299,-76.5 344,-76.5 344,-57.5 299,-57.5"/>
<text text-anchor="middle" x="321.5" y="-64.5" font-family="Helvetica,sans-Serif" font-size="10.00">iau_rxr</text>
</a>
</g>
</g>
<!-- Node3&#45;&gt;Node11 -->
<g id="edge8" class="edge">
<title>Node3&#45;&gt;Node11</title>
<path fill="none" stroke="midnightblue" d="M157.29,-67C192.03,-67 251.94,-67 288.7,-67"/>
<polygon fill="midnightblue" stroke="midnightblue" points="288.87,-70.5 298.87,-67 288.87,-63.5 288.87,-70.5"/>
</g>
<!-- Node14 -->
<g id="node7" class="node">
<title>Node14</title>
<g id="a_node7"><a xlink:href="numat_8for.html#a392b40077f51844d6cf0c4ae04b75893" target="_top" xlink:title=" ">
<polygon fill="white" stroke="red" points="197,-0.5 197,-19.5 259,-19.5 259,-0.5 197,-0.5"/>
<text text-anchor="middle" x="228" y="-7.5" font-family="Helvetica,sans-Serif" font-size="10.00">iau_numat</text>
</a>
</g>
</g>
<!-- Node3&#45;&gt;Node14 -->
<g id="edge6" class="edge">
<title>Node3&#45;&gt;Node14</title>
<path fill="none" stroke="midnightblue" d="M146.45,-57.33C161.6,-48.43 184.28,-35.1 201.72,-24.86"/>
<polygon fill="midnightblue" stroke="midnightblue" points="203.94,-27.61 210.79,-19.53 200.39,-21.58 203.94,-27.61"/>
</g>
<!-- Node4&#45;&gt;Node9 -->
<g id="edge4" class="edge">
<title>Node4&#45;&gt;Node9</title>
<path fill="none" stroke="midnightblue" d="M256.45,-91.7C265.42,-93.56 275.51,-95.66 284.99,-97.63"/>
<polygon fill="midnightblue" stroke="midnightblue" points="284.44,-101.09 294.94,-99.69 285.86,-94.23 284.44,-101.09"/>
</g>
<!-- Node4&#45;&gt;Node11 -->
<g id="edge5" class="edge">
<title>Node4&#45;&gt;Node11</title>
<path fill="none" stroke="midnightblue" d="M256.45,-80.3C266.64,-78.18 278.27,-75.77 288.81,-73.58"/>
<polygon fill="midnightblue" stroke="midnightblue" points="289.8,-76.95 298.88,-71.49 288.38,-70.1 289.8,-76.95"/>
</g>
</g>
</svg>
