<?xml version="1.0" encoding="UTF-8" standalone="no"?>
<!DOCTYPE svg PUBLIC "-//W3C//DTD SVG 1.1//EN"
 "http://www.w3.org/Graphics/SVG/1.1/DTD/svg11.dtd">
<!-- Generated by graphviz version 2.50.0 (20220203.2022)
 -->
<!-- Title: sat_yaw Pages: 1 -->
<svg width="399pt" height="104pt"
 viewBox="0.00 0.00 399.00 104.00" xmlns="http://www.w3.org/2000/svg" xmlns:xlink="http://www.w3.org/1999/xlink">
<g id="graph0" class="graph" transform="scale(1 1) rotate(0) translate(4 100)">
<title>sat_yaw</title>
<polygon fill="white" stroke="transparent" points="-4,4 -4,-100 395,-100 395,4 -4,4"/>
<!-- Node1 -->
<g id="node1" class="node">
<title>Node1</title>
<g id="a_node1"><a xlink:title="Satellite attitude model.">
<polygon fill="#bfbfbf" stroke="black" points="0,-38.5 0,-57.5 53,-57.5 53,-38.5 0,-38.5"/>
<text text-anchor="middle" x="26.5" y="-45.5" font-family="Helvetica,sans-Serif" font-size="10.00">sat_yaw</text>
</a>
</g>
</g>
<!-- Node2 -->
<g id="node2" class="node">
<title>Node2</title>
<g id="a_node2"><a xlink:href="gTime_8cpp.html#a853f281ccd45b714eb3edb14259a982a" target="_top" xlink:title=" ">
<polygon fill="white" stroke="black" points="216,-76.5 216,-95.5 270,-95.5 270,-76.5 216,-76.5"/>
<text text-anchor="middle" x="243" y="-83.5" font-family="Helvetica,sans-Serif" font-size="10.00">gpst2utc</text>
</a>
</g>
</g>
<!-- Node1&#45;&gt;Node2 -->
<g id="edge1" class="edge">
<title>Node1&#45;&gt;Node2</title>
<path fill="none" stroke="midnightblue" d="M53.27,-57.07C64.17,-60.62 77.09,-64.44 89,-67 128.5,-75.48 174.61,-80.57 205.8,-83.31"/>
<polygon fill="midnightblue" stroke="midnightblue" points="205.52,-86.8 215.78,-84.16 206.11,-79.83 205.52,-86.8"/>
</g>
<!-- Node4 -->
<g id="node4" class="node">
<title>Node4</title>
<g id="a_node4"><a xlink:href="rtkcmn_8cpp.html#ac9a81e78329f3b0dafee87842d6c1027" target="_top" xlink:title="get sun and moon position in ecef">
<polygon fill="white" stroke="black" points="89.5,-38.5 89.5,-57.5 161.5,-57.5 161.5,-38.5 89.5,-38.5"/>
<text text-anchor="middle" x="125.5" y="-45.5" font-family="Helvetica,sans-Serif" font-size="10.00">sunmoonpos</text>
</a>
</g>
</g>
<!-- Node1&#45;&gt;Node4 -->
<g id="edge3" class="edge">
<title>Node1&#45;&gt;Node4</title>
<path fill="none" stroke="midnightblue" d="M53.24,-48C61.15,-48 70.1,-48 78.92,-48"/>
<polygon fill="midnightblue" stroke="midnightblue" points="79.14,-51.5 89.14,-48 79.14,-44.5 79.14,-51.5"/>
</g>
<!-- Node13 -->
<g id="node7" class="node">
<title>Node13</title>
<g id="a_node7"><a xlink:href="ppp_8cpp.html#aeec4be9da926fd56edd154d0e81a5d63" target="_top" xlink:title="Calculate nominal yaw&#45;angle.">
<polygon fill="white" stroke="black" points="89,-0.5 89,-19.5 162,-19.5 162,-0.5 89,-0.5"/>
<text text-anchor="middle" x="125.5" y="-7.5" font-family="Helvetica,sans-Serif" font-size="10.00">yaw_nominal</text>
</a>
</g>
</g>
<!-- Node1&#45;&gt;Node13 -->
<g id="edge8" class="edge">
<title>Node1&#45;&gt;Node13</title>
<path fill="none" stroke="midnightblue" d="M51.98,-38.41C63.69,-33.82 77.92,-28.25 90.65,-23.26"/>
<polygon fill="midnightblue" stroke="midnightblue" points="92,-26.49 100.03,-19.59 89.44,-19.97 92,-26.49"/>
</g>
<!-- Node3 -->
<g id="node3" class="node">
<title>Node3</title>
<g id="a_node3"><a xlink:href="gTime_8cpp.html#aa46173b9085096882d09e53d96e9dc41" target="_top" xlink:title=" ">
<polygon fill="white" stroke="black" points="324,-38.5 324,-57.5 391,-57.5 391,-38.5 324,-38.5"/>
<text text-anchor="middle" x="357.5" y="-45.5" font-family="Helvetica,sans-Serif" font-size="10.00">epoch2time</text>
</a>
</g>
</g>
<!-- Node2&#45;&gt;Node3 -->
<g id="edge2" class="edge">
<title>Node2&#45;&gt;Node3</title>
<path fill="none" stroke="midnightblue" d="M270.09,-77.19C284.5,-72.32 302.65,-66.19 318.6,-60.8"/>
<polygon fill="midnightblue" stroke="midnightblue" points="319.83,-64.08 328.18,-57.56 317.59,-57.45 319.83,-64.08"/>
</g>
<!-- Node5 -->
<g id="node5" class="node">
<title>Node5</title>
<g id="a_node5"><a xlink:href="rtkcmn_8cpp.html#a304b15df0b6ab1452fd1f31277dad490" target="_top" xlink:title="eci to ecef transformation matrix">
<polygon fill="white" stroke="red" points="216.5,-38.5 216.5,-57.5 269.5,-57.5 269.5,-38.5 216.5,-38.5"/>
<text text-anchor="middle" x="243" y="-45.5" font-family="Helvetica,sans-Serif" font-size="10.00">eci2ecef</text>
</a>
</g>
</g>
<!-- Node4&#45;&gt;Node5 -->
<g id="edge4" class="edge">
<title>Node4&#45;&gt;Node5</title>
<path fill="none" stroke="midnightblue" d="M161.78,-48C175.84,-48 192.01,-48 206.13,-48"/>
<polygon fill="midnightblue" stroke="midnightblue" points="206.46,-51.5 216.46,-48 206.46,-44.5 206.46,-51.5"/>
</g>
<!-- Node12 -->
<g id="node6" class="node">
<title>Node12</title>
<g id="a_node6"><a xlink:href="rtkcmn_8cpp.html#ae750d4c658ef6ae3e065e949878edcee" target="_top" xlink:title=" ">
<polygon fill="white" stroke="red" points="198,-0.5 198,-19.5 288,-19.5 288,-0.5 198,-0.5"/>
<text text-anchor="middle" x="243" y="-7.5" font-family="Helvetica,sans-Serif" font-size="10.00">sunmoonpos_eci</text>
</a>
</g>
</g>
<!-- Node4&#45;&gt;Node12 -->
<g id="edge6" class="edge">
<title>Node4&#45;&gt;Node12</title>
<path fill="none" stroke="midnightblue" d="M155.65,-38.41C170.01,-33.69 187.53,-27.92 203.03,-22.82"/>
<polygon fill="midnightblue" stroke="midnightblue" points="204.46,-26.04 212.86,-19.59 202.27,-19.39 204.46,-26.04"/>
</g>
<!-- Node5&#45;&gt;Node3 -->
<g id="edge5" class="edge">
<title>Node5&#45;&gt;Node3</title>
<path fill="none" stroke="midnightblue" d="M269.53,-48C282.59,-48 298.84,-48 313.75,-48"/>
<polygon fill="midnightblue" stroke="midnightblue" points="313.8,-51.5 323.8,-48 313.8,-44.5 313.8,-51.5"/>
</g>
<!-- Node12&#45;&gt;Node3 -->
<g id="edge7" class="edge">
<title>Node12&#45;&gt;Node3</title>
<path fill="none" stroke="midnightblue" d="M272.39,-19.59C286.38,-24.31 303.44,-30.08 318.54,-35.18"/>
<polygon fill="midnightblue" stroke="midnightblue" points="317.53,-38.53 328.12,-38.41 319.77,-31.9 317.53,-38.53"/>
</g>
</g>
</svg>
