<?xml version="1.0" encoding="UTF-8" standalone="no"?>
<!DOCTYPE svg PUBLIC "-//W3C//DTD SVG 1.1//EN"
 "http://www.w3.org/Graphics/SVG/1.1/DTD/svg11.dtd">
<!-- Generated by graphviz version 2.50.0 (20220203.2022)
 -->
<!-- Title: trop_model_prec Pages: 1 -->
<svg width="278pt" height="66pt"
 viewBox="0.00 0.00 278.00 66.00" xmlns="http://www.w3.org/2000/svg" xmlns:xlink="http://www.w3.org/1999/xlink">
<g id="graph0" class="graph" transform="scale(1 1) rotate(0) translate(4 62)">
<title>trop_model_prec</title>
<polygon fill="white" stroke="transparent" points="-4,4 -4,-62 274,-62 274,4 -4,4"/>
<!-- Node1 -->
<g id="node1" class="node">
<title>Node1</title>
<g id="a_node1"><a xlink:title=" ">
<polygon fill="#bfbfbf" stroke="black" points="181,-19.5 181,-38.5 270,-38.5 270,-19.5 181,-19.5"/>
<text text-anchor="middle" x="225.5" y="-26.5" font-family="Helvetica,sans-Serif" font-size="10.00">trop_model_prec</text>
</a>
</g>
</g>
<!-- Node2 -->
<g id="node2" class="node">
<title>Node2</title>
<g id="a_node2"><a xlink:href="ppp__user_8cpp.html#a6840432dd58d1e58178b15080b92bdd8" target="_top" xlink:title=" ">
<polygon fill="white" stroke="black" points="84,-38.5 84,-57.5 140,-57.5 140,-38.5 84,-38.5"/>
<text text-anchor="middle" x="112" y="-45.5" font-family="Helvetica,sans-Serif" font-size="10.00">ppp_filter</text>
</a>
</g>
</g>
<!-- Node1&#45;&gt;Node2 -->
<g id="edge1" class="edge">
<title>Node1&#45;&gt;Node2</title>
<path fill="none" stroke="midnightblue" d="M170.69,-38.17C160.12,-39.97 149.46,-41.79 140.22,-43.36"/>
<polygon fill="midnightblue" stroke="midnightblue" points="171.48,-41.58 180.75,-36.45 170.31,-34.68 171.48,-41.58"/>
</g>
<!-- Node6 -->
<g id="node4" class="node">
<title>Node6</title>
<g id="a_node4"><a xlink:href="ppppp__obs_8cpp.html#a3db2ffced7ab37c4874c3a53fcb7953e" target="_top" xlink:title=" ">
<polygon fill="white" stroke="black" points="79,-0.5 79,-19.5 145,-19.5 145,-0.5 79,-0.5"/>
<text text-anchor="middle" x="112" y="-7.5" font-family="Helvetica,sans-Serif" font-size="10.00">stationPPP</text>
</a>
</g>
</g>
<!-- Node1&#45;&gt;Node6 -->
<g id="edge3" class="edge">
<title>Node1&#45;&gt;Node6</title>
<path fill="none" stroke="midnightblue" d="M170.64,-19.82C161.95,-18.34 153.21,-16.85 145.24,-15.49"/>
<polygon fill="midnightblue" stroke="midnightblue" points="170.31,-23.32 180.75,-21.55 171.48,-16.42 170.31,-23.32"/>
</g>
<!-- Node3 -->
<g id="node3" class="node">
<title>Node3</title>
<g id="a_node3"><a xlink:href="ppp__user_8cpp.html#aad22d0ff0d06af12ea66aefd09d89af3" target="_top" xlink:title=" ">
<polygon fill="white" stroke="red" points="0,-38.5 0,-57.5 43,-57.5 43,-38.5 0,-38.5"/>
<text text-anchor="middle" x="21.5" y="-45.5" font-family="Helvetica,sans-Serif" font-size="10.00">pppos</text>
</a>
</g>
</g>
<!-- Node2&#45;&gt;Node3 -->
<g id="edge2" class="edge">
<title>Node2&#45;&gt;Node3</title>
<path fill="none" stroke="midnightblue" d="M73.77,-48C63.31,-48 52.31,-48 43.19,-48"/>
<polygon fill="midnightblue" stroke="midnightblue" points="73.97,-51.5 83.97,-48 73.97,-44.5 73.97,-51.5"/>
</g>
<!-- Node7 -->
<g id="node5" class="node">
<title>Node7</title>
<g id="a_node5"><a xlink:href="ppppp_8cpp.html#a936f239adc72073920104f4acc2aea67" target="_top" xlink:title=" ">
<polygon fill="white" stroke="red" points="3,-0.5 3,-19.5 40,-19.5 40,-0.5 3,-0.5"/>
<text text-anchor="middle" x="21.5" y="-7.5" font-family="Helvetica,sans-Serif" font-size="10.00">PPP</text>
</a>
</g>
</g>
<!-- Node6&#45;&gt;Node7 -->
<g id="edge4" class="edge">
<title>Node6&#45;&gt;Node7</title>
<path fill="none" stroke="midnightblue" d="M68.49,-10C58.48,-10 48.34,-10 40.15,-10"/>
<polygon fill="midnightblue" stroke="midnightblue" points="68.8,-13.5 78.8,-10 68.8,-6.5 68.8,-13.5"/>
</g>
</g>
</svg>
