<?xml version="1.0" encoding="UTF-8" standalone="no"?>
<!DOCTYPE svg PUBLIC "-//W3C//DTD SVG 1.1//EN"
 "http://www.w3.org/Graphics/SVG/1.1/DTD/svg11.dtd">
<!-- Generated by graphviz version 2.50.0 (20220203.2022)
 -->
<!-- Title: measVar Pages: 1 -->
<svg width="271pt" height="28pt"
 viewBox="0.00 0.00 271.00 28.00" xmlns="http://www.w3.org/2000/svg" xmlns:xlink="http://www.w3.org/1999/xlink">
<g id="graph0" class="graph" transform="scale(1 1) rotate(0) translate(4 24)">
<title>measVar</title>
<polygon fill="white" stroke="transparent" points="-4,4 -4,-24 267,-24 267,4 -4,4"/>
<!-- Node1 -->
<g id="node1" class="node">
<title>Node1</title>
<g id="a_node1"><a xlink:title=" ">
<polygon fill="#bfbfbf" stroke="black" points="207,-0.5 207,-19.5 263,-19.5 263,-0.5 207,-0.5"/>
<text text-anchor="middle" x="235" y="-7.5" font-family="Helvetica,sans-Serif" font-size="10.00">measVar</text>
</a>
</g>
</g>
<!-- Node2 -->
<g id="node2" class="node">
<title>Node2</title>
<g id="a_node2"><a xlink:href="rtkcmn_8cpp.html#a340ba63f81ed21d7574d279d6da9ca0c" target="_top" xlink:title="Low pass filter values.">
<polygon fill="white" stroke="black" points="95,-0.5 95,-19.5 171,-19.5 171,-0.5 95,-0.5"/>
<text text-anchor="middle" x="133" y="-7.5" font-family="Helvetica,sans-Serif" font-size="10.00">lowPassFilter</text>
</a>
</g>
</g>
<!-- Node1&#45;&gt;Node2 -->
<g id="edge1" class="edge">
<title>Node1&#45;&gt;Node2</title>
<path fill="none" stroke="midnightblue" d="M196.73,-10C188.39,-10 179.55,-10 171.22,-10"/>
<polygon fill="midnightblue" stroke="midnightblue" points="196.94,-13.5 206.94,-10 196.94,-6.5 196.94,-13.5"/>
</g>
<!-- Node3 -->
<g id="node3" class="node">
<title>Node3</title>
<g id="a_node3"><a xlink:href="acsQC_8cpp.html#a099d227578f6d7896777651aca60fe1b" target="_top" xlink:title="Cycle slip detection and repair.">
<polygon fill="white" stroke="red" points="0,-0.5 0,-19.5 59,-19.5 59,-0.5 0,-0.5"/>
<text text-anchor="middle" x="29.5" y="-7.5" font-family="Helvetica,sans-Serif" font-size="10.00">detectslip</text>
</a>
</g>
</g>
<!-- Node2&#45;&gt;Node3 -->
<g id="edge2" class="edge">
<title>Node2&#45;&gt;Node3</title>
<path fill="none" stroke="midnightblue" d="M84.67,-10C75.94,-10 67.08,-10 59.13,-10"/>
<polygon fill="midnightblue" stroke="midnightblue" points="84.78,-13.5 94.78,-10 84.78,-6.5 84.78,-13.5"/>
</g>
</g>
</svg>
