<?xml version="1.0" encoding="UTF-8" standalone="no"?>
<!DOCTYPE svg PUBLIC "-//W3C//DTD SVG 1.1//EN"
 "http://www.w3.org/Graphics/SVG/1.1/DTD/svg11.dtd">
<!-- Generated by graphviz version 2.50.0 (20220203.2022)
 -->
<!-- Title: pppCorrections Pages: 1 -->
<!--zoomable 579 -->
<svg id="main" version="1.1" xmlns="http://www.w3.org/2000/svg" xmlns:xlink="http://www.w3.org/1999/xlink" xml:space="preserve" onload="init(evt)">
<style type="text/css"><![CDATA[
.edge:hover path { stroke: red; }
.edge:hover polygon { stroke: red; fill: red; }
]]></style>
<script type="text/javascript"><![CDATA[
var edges = document.getElementsByTagName('g');
if (edges && edges.length) {
  for (var i=0;i<edges.length;i++) {
    if (edges[i].id.substr(0,4)=='edge') {
      edges[i].setAttribute('class','edge');
    }
  }
}
]]></script>
        <defs>
                <circle id="rim" cx="0" cy="0" r="7"/>
                <circle id="rim2" cx="0" cy="0" r="3.5"/>
                <g id="zoomPlus">
                        <use xlink:href="#rim" fill="#404040">
                                <set attributeName="fill" to="#808080" begin="zoomplus.mouseover" end="zoomplus.mouseout"/>
                        </use>
                        <path d="M-4,0h8M0,-4v8" fill="none" stroke="white" stroke-width="1.5" pointer-events="none"/>
                </g>
                <g id="zoomMin">
                        <use xlink:href="#rim" fill="#404040">
                                <set attributeName="fill" to="#808080" begin="zoomminus.mouseover" end="zoomminus.mouseout"/>
                        </use>
                        <path d="M-4,0h8" fill="none" stroke="white" stroke-width="1.5" pointer-events="none"/>
                </g>
                <g id="dirArrow">
                        <path fill="none" stroke="white" stroke-width="1.5" d="M0,-3.0v7 M-2.5,-0.5L0,-3.0L2.5,-0.5"/>
                </g>
               <g id="resetDef">
                       <use xlink:href="#rim2" fill="#404040">
                               <set attributeName="fill" to="#808080" begin="reset.mouseover" end="reset.mouseout"/>
                       </use>
               </g>
        </defs>

<script type="text/javascript">
var viewWidth = 462;
var viewHeight = 579;
var sectionId = 'dynsection-23';
</script>
<script xlink:href="svgpan.js"/>
<svg id="graph" class="graph">
<g id="viewport">
<title>pppCorrections</title>
<polygon fill="white" stroke="transparent" points="-4,4 -4,-575 458,-575 458,4 -4,4"/>
<!-- Node1 -->
<g id="node1" class="node">
<title>Node1</title>
<g id="a_node1"><a xlink:title=" ">
<polygon fill="#bfbfbf" stroke="black" points="0,-266.5 0,-285.5 82,-285.5 82,-266.5 0,-266.5"/>
<text text-anchor="middle" x="41" y="-273.5" font-family="Helvetica,sans-Serif" font-size="10.00">pppCorrections</text>
</a>
</g>
</g>
<!-- Node2 -->
<g id="node2" class="node">
<title>Node2</title>
<g id="a_node2"><a xlink:href="ppp_8cpp.html#aaf5e8ef15242164157594caa1b63f7e9" target="_top" xlink:title="Antenna corrected measurement.">
<polygon fill="white" stroke="black" points="136.5,-532.5 136.5,-551.5 198.5,-551.5 198.5,-532.5 136.5,-532.5"/>
<text text-anchor="middle" x="167.5" y="-539.5" font-family="Helvetica,sans-Serif" font-size="10.00">corr_meas</text>
</a>
</g>
</g>
<!-- Node1&#45;&gt;Node2 -->
<g id="edge1" class="edge">
<title>Node1&#45;&gt;Node2</title>
<path fill="none" stroke="midnightblue" d="M42.4,-285.59C44.36,-320.86 55.58,-445.06 118,-518 121.04,-521.55 124.72,-524.62 128.69,-527.28"/>
<polygon fill="midnightblue" stroke="midnightblue" points="127.27,-530.5 137.69,-532.43 130.75,-524.42 127.27,-530.5"/>
</g>
<!-- Node12 -->
<g id="node5" class="node">
<title>Node12</title>
<g id="a_node5"><a xlink:href="streamTrace_8cpp.html#a26d8a8c49d22d1ec101a45f8ee2e1fcc" target="_top" xlink:title=" ">
<polygon fill="white" stroke="black" points="278.5,-494.5 278.5,-513.5 332.5,-513.5 332.5,-494.5 278.5,-494.5"/>
<text text-anchor="middle" x="305.5" y="-501.5" font-family="Helvetica,sans-Serif" font-size="10.00">tracepde</text>
</a>
</g>
</g>
<!-- Node1&#45;&gt;Node12 -->
<g id="edge27" class="edge">
<title>Node1&#45;&gt;Node12</title>
<path fill="none" stroke="midnightblue" d="M42.49,-285.77C44.71,-318.36 56.54,-424.11 118,-474 160.63,-508.61 227.27,-510.78 268.28,-508.14"/>
<polygon fill="midnightblue" stroke="midnightblue" points="268.67,-511.62 278.37,-507.36 268.13,-504.64 268.67,-511.62"/>
</g>
<!-- Node13 -->
<g id="node6" class="node">
<title>Node13</title>
<g id="a_node6"><a xlink:href="rtkcmn_8cpp.html#ae91d83cf693cdc7e1efacbe4d8d9656e" target="_top" xlink:title=" ">
<polygon fill="white" stroke="black" points="277.5,-456.5 277.5,-475.5 333.5,-475.5 333.5,-456.5 277.5,-456.5"/>
<text text-anchor="middle" x="305.5" y="-463.5" font-family="Helvetica,sans-Serif" font-size="10.00">ecef2pos</text>
</a>
</g>
</g>
<!-- Node1&#45;&gt;Node13 -->
<g id="edge6" class="edge">
<title>Node1&#45;&gt;Node13</title>
<path fill="none" stroke="midnightblue" d="M43.02,-285.84C46.71,-315.84 62.23,-406.59 118,-447 161.64,-478.62 226.85,-477.29 267.47,-472.4"/>
<polygon fill="midnightblue" stroke="midnightblue" points="268.04,-475.85 277.49,-471.06 267.12,-468.91 268.04,-475.85"/>
</g>
<!-- Node14 -->
<g id="node7" class="node">
<title>Node14</title>
<g id="a_node7"><a xlink:href="rtkcmn_8cpp.html#a1926e232cdab381c3ccfc8abca86b2a8" target="_top" xlink:title=" ">
<polygon fill="white" stroke="black" points="139.5,-380.5 139.5,-399.5 195.5,-399.5 195.5,-380.5 139.5,-380.5"/>
<text text-anchor="middle" x="167.5" y="-387.5" font-family="Helvetica,sans-Serif" font-size="10.00">enu2ecef</text>
</a>
</g>
</g>
<!-- Node1&#45;&gt;Node14 -->
<g id="edge7" class="edge">
<title>Node1&#45;&gt;Node14</title>
<path fill="none" stroke="midnightblue" d="M47.41,-285.74C58.37,-304.67 85,-346.7 118,-371 121.66,-373.7 125.76,-376.07 129.98,-378.14"/>
<polygon fill="midnightblue" stroke="midnightblue" points="128.71,-381.4 139.28,-382.19 131.51,-374.99 128.71,-381.4"/>
</g>
<!-- Node17 -->
<g id="node10" class="node">
<title>Node17</title>
<g id="a_node10"><a xlink:href="antenna_8cpp.html#a034836f3266a59abe9199c55e50dbe8b" target="_top" xlink:title=" ">
<polygon fill="white" stroke="black" points="133.5,-342.5 133.5,-361.5 201.5,-361.5 201.5,-342.5 133.5,-342.5"/>
<text text-anchor="middle" x="167.5" y="-349.5" font-family="Helvetica,sans-Serif" font-size="10.00">findAntenna</text>
</a>
</g>
</g>
<!-- Node1&#45;&gt;Node17 -->
<g id="edge10" class="edge">
<title>Node1&#45;&gt;Node17</title>
<path fill="none" stroke="midnightblue" d="M53.17,-285.92C67.43,-298.21 93.22,-319.19 118,-333 121.46,-334.93 125.15,-336.75 128.89,-338.45"/>
<polygon fill="midnightblue" stroke="midnightblue" points="127.64,-341.72 138.21,-342.4 130.37,-335.27 127.64,-341.72"/>
</g>
<!-- Node18 -->
<g id="node11" class="node">
<title>Node18</title>
<g id="a_node11"><a xlink:href="rtkcmn_8cpp.html#a52a667466317784c7a286f77b2ee9c3f" target="_top" xlink:title="geometric distance compute geometric distance and receiver&#45;to&#45;satellite unit vector notes : distance ...">
<polygon fill="white" stroke="black" points="143.5,-304.5 143.5,-323.5 191.5,-323.5 191.5,-304.5 143.5,-304.5"/>
<text text-anchor="middle" x="167.5" y="-311.5" font-family="Helvetica,sans-Serif" font-size="10.00">geodist</text>
</a>
</g>
</g>
<!-- Node1&#45;&gt;Node18 -->
<g id="edge11" class="edge">
<title>Node1&#45;&gt;Node18</title>
<path fill="none" stroke="midnightblue" d="M73.42,-285.59C91.77,-291.19 114.91,-298.25 133.53,-303.94"/>
<polygon fill="midnightblue" stroke="midnightblue" points="132.76,-307.36 143.35,-306.93 134.8,-300.67 132.76,-307.36"/>
</g>
<!-- Node19 -->
<g id="node12" class="node">
<title>Node19</title>
<g id="a_node12"><a xlink:href="linearCombo_8cpp.html#afdd3451cef793c3574f718f2f79d9278" target="_top" xlink:title="Create combinations between specific observation values.">
<polygon fill="white" stroke="black" points="146,-266.5 146,-285.5 189,-285.5 189,-266.5 146,-266.5"/>
<text text-anchor="middle" x="167.5" y="-273.5" font-family="Helvetica,sans-Serif" font-size="10.00">getLC</text>
</a>
</g>
</g>
<!-- Node1&#45;&gt;Node19 -->
<g id="edge12" class="edge">
<title>Node1&#45;&gt;Node19</title>
<path fill="none" stroke="midnightblue" d="M82.08,-276C99.45,-276 119.48,-276 135.67,-276"/>
<polygon fill="midnightblue" stroke="midnightblue" points="135.69,-279.5 145.69,-276 135.69,-272.5 135.69,-279.5"/>
</g>
<!-- Node20 -->
<g id="node13" class="node">
<title>Node20</title>
<g id="a_node13"><a xlink:href="ppp_8cpp.html#a16577502bd03c2d743d118a6993420d5" target="_top" xlink:title="phase windup model">
<polygon fill="white" stroke="black" points="134.5,-418.5 134.5,-437.5 200.5,-437.5 200.5,-418.5 134.5,-418.5"/>
<text text-anchor="middle" x="167.5" y="-425.5" font-family="Helvetica,sans-Serif" font-size="10.00">model_phw</text>
</a>
</g>
</g>
<!-- Node1&#45;&gt;Node20 -->
<g id="edge13" class="edge">
<title>Node1&#45;&gt;Node20</title>
<path fill="none" stroke="midnightblue" d="M45.05,-285.84C53.06,-310.14 76.95,-373.53 118,-409 120.32,-411 122.88,-412.81 125.57,-414.44"/>
<polygon fill="midnightblue" stroke="midnightblue" points="123.99,-417.56 134.48,-419.04 127.2,-411.34 123.99,-417.56"/>
</g>
<!-- Node34 -->
<g id="node15" class="node">
<title>Node34</title>
<g id="a_node15"><a xlink:href="antenna_8cpp.html#a64657acdada51278c7b1b00209badd32" target="_top" xlink:title=" ">
<polygon fill="white" stroke="black" points="144.5,-228.5 144.5,-247.5 190.5,-247.5 190.5,-228.5 144.5,-228.5"/>
<text text-anchor="middle" x="167.5" y="-235.5" font-family="Helvetica,sans-Serif" font-size="10.00">recpco</text>
</a>
</g>
</g>
<!-- Node1&#45;&gt;Node34 -->
<g id="edge17" class="edge">
<title>Node1&#45;&gt;Node34</title>
<path fill="none" stroke="midnightblue" d="M73.42,-266.41C92.1,-260.71 115.74,-253.49 134.53,-247.76"/>
<polygon fill="midnightblue" stroke="midnightblue" points="135.58,-251.1 144.13,-244.83 133.54,-244.4 135.58,-251.1"/>
</g>
<!-- Node35 -->
<g id="node16" class="node">
<title>Node35</title>
<g id="a_node16"><a xlink:href="antenna_8cpp.html#a6be4bbc7469c0841cc8fe35224918f6a" target="_top" xlink:title=" ">
<polygon fill="white" stroke="black" points="144.5,-190.5 144.5,-209.5 190.5,-209.5 190.5,-190.5 144.5,-190.5"/>
<text text-anchor="middle" x="167.5" y="-197.5" font-family="Helvetica,sans-Serif" font-size="10.00">recpcv</text>
</a>
</g>
</g>
<!-- Node1&#45;&gt;Node35 -->
<g id="edge18" class="edge">
<title>Node1&#45;&gt;Node35</title>
<path fill="none" stroke="midnightblue" d="M53.17,-266.08C67.43,-253.79 93.22,-232.81 118,-219 123.26,-216.07 129.07,-213.37 134.79,-210.99"/>
<polygon fill="midnightblue" stroke="midnightblue" points="136.17,-214.21 144.2,-207.3 133.61,-207.69 136.17,-214.21"/>
</g>
<!-- Node37 -->
<g id="node18" class="node">
<title>Node37</title>
<g id="a_node18"><a xlink:href="ppp_8cpp.html#a8109d5d9556f9248b7149b7a3f309585" target="_top" xlink:title=" ">
<polygon fill="white" stroke="black" points="138,-152.5 138,-171.5 197,-171.5 197,-152.5 138,-152.5"/>
<text text-anchor="middle" x="167.5" y="-159.5" font-family="Helvetica,sans-Serif" font-size="10.00">satantpcv</text>
</a>
</g>
</g>
<!-- Node1&#45;&gt;Node37 -->
<g id="edge20" class="edge">
<title>Node1&#45;&gt;Node37</title>
<path fill="none" stroke="midnightblue" d="M47.41,-266.26C58.37,-247.33 85,-205.3 118,-181 121.23,-178.62 124.79,-176.5 128.47,-174.62"/>
<polygon fill="midnightblue" stroke="midnightblue" points="130.1,-177.72 137.76,-170.41 127.21,-171.35 130.1,-177.72"/>
</g>
<!-- Node39 -->
<g id="node20" class="node">
<title>Node39</title>
<g id="a_node20"><a xlink:href="rtkcmn_8cpp.html#aaafb25a7d4b390167b7c784461583bae" target="_top" xlink:title=" ">
<polygon fill="white" stroke="black" points="136,-114.5 136,-133.5 199,-133.5 199,-114.5 136,-114.5"/>
<text text-anchor="middle" x="167.5" y="-121.5" font-family="Helvetica,sans-Serif" font-size="10.00">satexclude</text>
</a>
</g>
</g>
<!-- Node1&#45;&gt;Node39 -->
<g id="edge22" class="edge">
<title>Node1&#45;&gt;Node39</title>
<path fill="none" stroke="midnightblue" d="M45.05,-266.16C53.06,-241.86 76.95,-178.47 118,-143 120.68,-140.68 123.68,-138.63 126.83,-136.82"/>
<polygon fill="midnightblue" stroke="midnightblue" points="128.57,-139.86 136,-132.31 125.48,-133.58 128.57,-139.86"/>
</g>
<!-- Node40 -->
<g id="node21" class="node">
<title>Node40</title>
<g id="a_node21"><a xlink:href="structTestStack.html#aff20cea87ae5eee6108b33d022913707" target="_top" xlink:title="Compare matrix against test dataset.">
<polygon fill="white" stroke="black" points="118,-76.5 118,-95.5 217,-95.5 217,-76.5 118,-76.5"/>
<text text-anchor="middle" x="167.5" y="-83.5" font-family="Helvetica,sans-Serif" font-size="10.00">TestStack::testMat</text>
</a>
</g>
</g>
<!-- Node1&#45;&gt;Node40 -->
<g id="edge23" class="edge">
<title>Node1&#45;&gt;Node40</title>
<path fill="none" stroke="midnightblue" d="M43.63,-266.4C48.95,-237.82 68.45,-152.37 118,-105 119.65,-103.43 121.44,-101.98 123.33,-100.65"/>
<polygon fill="midnightblue" stroke="midnightblue" points="125.26,-103.58 132.14,-95.52 121.73,-97.53 125.26,-103.58"/>
</g>
<!-- Node30 -->
<g id="node24" class="node">
<title>Node30</title>
<g id="a_node24"><a xlink:href="gTime_8cpp.html#a7a747c44ca37f2ebe379fc4309d3cfba" target="_top" xlink:title=" ">
<polygon fill="white" stroke="black" points="134,-38.5 134,-57.5 201,-57.5 201,-38.5 134,-38.5"/>
<text text-anchor="middle" x="167.5" y="-45.5" font-family="Helvetica,sans-Serif" font-size="10.00">time2epoch</text>
</a>
</g>
</g>
<!-- Node1&#45;&gt;Node30 -->
<g id="edge26" class="edge">
<title>Node1&#45;&gt;Node30</title>
<path fill="none" stroke="midnightblue" d="M42.76,-266.21C45.83,-233.45 60.03,-126.41 118,-67 120.07,-64.88 122.41,-62.98 124.91,-61.3"/>
<polygon fill="midnightblue" stroke="midnightblue" points="126.83,-64.24 133.9,-56.34 123.45,-58.11 126.83,-64.24"/>
</g>
<!-- Node44 -->
<g id="node25" class="node">
<title>Node44</title>
<g id="a_node25"><a xlink:href="gTime_8cpp.html#a282534ac1ef65d4844290ce80bf76fed" target="_top" xlink:title="YMDHMS to Julian Day &#160;&#160;return : julian day.">
<polygon fill="white" stroke="black" points="134.5,-0.5 134.5,-19.5 200.5,-19.5 200.5,-0.5 134.5,-0.5"/>
<text text-anchor="middle" x="167.5" y="-7.5" font-family="Helvetica,sans-Serif" font-size="10.00">ymdhms2jd</text>
</a>
</g>
</g>
<!-- Node1&#45;&gt;Node44 -->
<g id="edge28" class="edge">
<title>Node1&#45;&gt;Node44</title>
<path fill="none" stroke="midnightblue" d="M42.13,-266.03C43.14,-229.4 51.48,-100.7 118,-29 120.24,-26.58 122.84,-24.46 125.63,-22.61"/>
<polygon fill="midnightblue" stroke="midnightblue" points="127.34,-25.67 134.47,-17.83 124.01,-19.51 127.34,-25.67"/>
</g>
<!-- Node3 -->
<g id="node3" class="node">
<title>Node3</title>
<g id="a_node3"><a xlink:href="biasSINEXread_8cpp.html#ad8d3890eaff651716f2ad2d8240438c8" target="_top" xlink:title="Search for hardware biases in phase and code.">
<polygon fill="white" stroke="red" points="268.5,-532.5 268.5,-551.5 342.5,-551.5 342.5,-532.5 268.5,-532.5"/>
<text text-anchor="middle" x="305.5" y="-539.5" font-family="Helvetica,sans-Serif" font-size="10.00">getBiasSinex</text>
</a>
</g>
</g>
<!-- Node2&#45;&gt;Node3 -->
<g id="edge2" class="edge">
<title>Node2&#45;&gt;Node3</title>
<path fill="none" stroke="midnightblue" d="M198.68,-542C216.06,-542 238.27,-542 257.86,-542"/>
<polygon fill="midnightblue" stroke="midnightblue" points="258.12,-545.5 268.12,-542 258.12,-538.5 258.12,-545.5"/>
</g>
<!-- Node8 -->
<g id="node4" class="node">
<title>Node8</title>
<g id="a_node4"><a xlink:href="structSatSys.html#aec6d07b90d1e8172b8b6a6966abef4fd" target="_top" xlink:title="Returns a std::string of this satellite&#39;s id.">
<polygon fill="white" stroke="red" points="394,-551.5 394,-570.5 454,-570.5 454,-551.5 394,-551.5"/>
<text text-anchor="middle" x="424" y="-558.5" font-family="Helvetica,sans-Serif" font-size="10.00">SatSys::id</text>
</a>
</g>
</g>
<!-- Node2&#45;&gt;Node8 -->
<g id="edge4" class="edge">
<title>Node2&#45;&gt;Node8</title>
<path fill="none" stroke="midnightblue" d="M198.73,-550.5C214.72,-554.57 234.77,-558.98 253,-561 297.53,-565.94 349.02,-565.03 383.56,-563.46"/>
<polygon fill="midnightblue" stroke="midnightblue" points="383.9,-566.95 393.71,-562.96 383.55,-559.95 383.9,-566.95"/>
</g>
<!-- Node2&#45;&gt;Node12 -->
<g id="edge5" class="edge">
<title>Node2&#45;&gt;Node12</title>
<path fill="none" stroke="midnightblue" d="M198.68,-533.57C219.22,-527.83 246.5,-520.2 268.22,-514.14"/>
<polygon fill="midnightblue" stroke="midnightblue" points="269.39,-517.45 278.08,-511.38 267.5,-510.7 269.39,-517.45"/>
</g>
<!-- Node3&#45;&gt;Node8 -->
<g id="edge3" class="edge">
<title>Node3&#45;&gt;Node8</title>
<path fill="none" stroke="midnightblue" d="M342.72,-547.91C355.69,-550.02 370.36,-552.42 383.58,-554.57"/>
<polygon fill="midnightblue" stroke="midnightblue" points="383.38,-558.09 393.82,-556.24 384.51,-551.18 383.38,-558.09"/>
</g>
<!-- Node15 -->
<g id="node8" class="node">
<title>Node15</title>
<g id="a_node8"><a xlink:href="algebra__old_8cpp.html#adc33998911a24938042604ba1f8e6196" target="_top" xlink:title=" ">
<polygon fill="white" stroke="black" points="281,-342.5 281,-361.5 330,-361.5 330,-342.5 281,-342.5"/>
<text text-anchor="middle" x="305.5" y="-349.5" font-family="Helvetica,sans-Serif" font-size="10.00">matmul</text>
</a>
</g>
</g>
<!-- Node14&#45;&gt;Node15 -->
<g id="edge8" class="edge">
<title>Node14&#45;&gt;Node15</title>
<path fill="none" stroke="midnightblue" d="M195.69,-382.4C217.44,-376.33 248.01,-367.78 271.22,-361.3"/>
<polygon fill="midnightblue" stroke="midnightblue" points="272.29,-364.63 280.98,-358.57 270.41,-357.89 272.29,-364.63"/>
</g>
<!-- Node16 -->
<g id="node9" class="node">
<title>Node16</title>
<g id="a_node9"><a xlink:href="rtkcmn_8cpp.html#a59a54664edbf3bc2ebeb1f5e5e7a67d0" target="_top" xlink:title=" ">
<polygon fill="white" stroke="black" points="280,-380.5 280,-399.5 331,-399.5 331,-380.5 280,-380.5"/>
<text text-anchor="middle" x="305.5" y="-387.5" font-family="Helvetica,sans-Serif" font-size="10.00">xyz2enu</text>
</a>
</g>
</g>
<!-- Node14&#45;&gt;Node16 -->
<g id="edge9" class="edge">
<title>Node14&#45;&gt;Node16</title>
<path fill="none" stroke="midnightblue" d="M195.69,-390C216.94,-390 246.61,-390 269.6,-390"/>
<polygon fill="midnightblue" stroke="midnightblue" points="269.64,-393.5 279.64,-390 269.64,-386.5 269.64,-393.5"/>
</g>
<!-- Node20&#45;&gt;Node13 -->
<g id="edge14" class="edge">
<title>Node20&#45;&gt;Node13</title>
<path fill="none" stroke="midnightblue" d="M200.73,-437.01C220.71,-442.59 246.45,-449.78 267.3,-455.61"/>
<polygon fill="midnightblue" stroke="midnightblue" points="266.52,-459.02 277.09,-458.34 268.4,-452.28 266.52,-459.02"/>
</g>
<!-- Node20&#45;&gt;Node16 -->
<g id="edge16" class="edge">
<title>Node20&#45;&gt;Node16</title>
<path fill="none" stroke="midnightblue" d="M200.73,-418.99C221.52,-413.19 248.55,-405.63 269.81,-399.69"/>
<polygon fill="midnightblue" stroke="midnightblue" points="271.04,-402.98 279.73,-396.92 269.16,-396.24 271.04,-402.98"/>
</g>
<!-- Node21 -->
<g id="node14" class="node">
<title>Node21</title>
<g id="a_node14"><a xlink:href="ppp_8cpp.html#a6053b3464076332d20cdebf306bbcf86" target="_top" xlink:title="Satellite attitude model.">
<polygon fill="white" stroke="red" points="279,-418.5 279,-437.5 332,-437.5 332,-418.5 279,-418.5"/>
<text text-anchor="middle" x="305.5" y="-425.5" font-family="Helvetica,sans-Serif" font-size="10.00">sat_yaw</text>
</a>
</g>
</g>
<!-- Node20&#45;&gt;Node21 -->
<g id="edge15" class="edge">
<title>Node20&#45;&gt;Node21</title>
<path fill="none" stroke="midnightblue" d="M200.73,-428C221.16,-428 247.61,-428 268.69,-428"/>
<polygon fill="midnightblue" stroke="midnightblue" points="268.86,-431.5 278.86,-428 268.86,-424.5 268.86,-431.5"/>
</g>
<!-- Node36 -->
<g id="node17" class="node">
<title>Node36</title>
<g id="a_node17"><a xlink:href="antenna_8cpp.html#a2933470cdf57501c3c9808727ee0b428" target="_top" xlink:title=" ">
<polygon fill="white" stroke="black" points="285,-190.5 285,-209.5 326,-209.5 326,-190.5 285,-190.5"/>
<text text-anchor="middle" x="305.5" y="-197.5" font-family="Helvetica,sans-Serif" font-size="10.00">interp</text>
</a>
</g>
</g>
<!-- Node35&#45;&gt;Node36 -->
<g id="edge19" class="edge">
<title>Node35&#45;&gt;Node36</title>
<path fill="none" stroke="midnightblue" d="M190.65,-200C213.44,-200 249.09,-200 274.41,-200"/>
<polygon fill="midnightblue" stroke="midnightblue" points="274.57,-203.5 284.57,-200 274.57,-196.5 274.57,-203.5"/>
</g>
<!-- Node38 -->
<g id="node19" class="node">
<title>Node38</title>
<g id="a_node19"><a xlink:href="antenna_8cpp.html#a4f6e6e0606504b2d826e692c328ff7f1" target="_top" xlink:title="Satellite antenna model.">
<polygon fill="white" stroke="black" points="256,-152.5 256,-171.5 355,-171.5 355,-152.5 256,-152.5"/>
<text text-anchor="middle" x="305.5" y="-159.5" font-family="Helvetica,sans-Serif" font-size="10.00">interp_satantmodel</text>
</a>
</g>
</g>
<!-- Node37&#45;&gt;Node38 -->
<g id="edge21" class="edge">
<title>Node37&#45;&gt;Node38</title>
<path fill="none" stroke="midnightblue" d="M197.01,-162C211.14,-162 228.74,-162 245.59,-162"/>
<polygon fill="midnightblue" stroke="midnightblue" points="245.94,-165.5 255.94,-162 245.94,-158.5 245.94,-165.5"/>
</g>
<!-- Node41 -->
<g id="node22" class="node">
<title>Node41</title>
<g id="a_node22"><a xlink:href="structTestStack.html#afbc78d5bcc032f03034721e763558313" target="_top" xlink:title="Get the test stack as a string.">
<polygon fill="white" stroke="black" points="253,-95.5 253,-114.5 358,-114.5 358,-95.5 253,-95.5"/>
<text text-anchor="middle" x="305.5" y="-102.5" font-family="Helvetica,sans-Serif" font-size="10.00">TestStack::getStack</text>
</a>
</g>
</g>
<!-- Node40&#45;&gt;Node41 -->
<g id="edge24" class="edge">
<title>Node40&#45;&gt;Node41</title>
<path fill="none" stroke="midnightblue" d="M217.21,-92.81C225.54,-93.97 234.29,-95.19 242.9,-96.39"/>
<polygon fill="midnightblue" stroke="midnightblue" points="242.52,-99.87 252.91,-97.79 243.49,-92.94 242.52,-99.87"/>
</g>
<!-- Node42 -->
<g id="node23" class="node">
<title>Node42</title>
<g id="a_node23"><a xlink:href="algebra__old_8cpp.html#a1d2c1ecab5b17dcc773fcd83c0b87b7e" target="_top" xlink:title=" ">
<polygon fill="white" stroke="red" points="289,-57.5 289,-76.5 322,-76.5 322,-57.5 289,-57.5"/>
<text text-anchor="middle" x="305.5" y="-64.5" font-family="Helvetica,sans-Serif" font-size="10.00">mat</text>
</a>
</g>
</g>
<!-- Node40&#45;&gt;Node42 -->
<g id="edge25" class="edge">
<title>Node40&#45;&gt;Node42</title>
<path fill="none" stroke="midnightblue" d="M217.21,-79.19C238.04,-76.28 261.5,-73.01 278.85,-70.58"/>
<polygon fill="midnightblue" stroke="midnightblue" points="279.37,-74.05 288.79,-69.2 278.4,-67.11 279.37,-74.05"/>
</g>
</g>
</svg>
        <g id="navigator" transform="translate(0 0)" fill="#404254">
                <rect fill="#f2f5e9" fill-opacity="0.5" stroke="#606060" stroke-width=".5" x="0" y="0" width="60" height="60"/>
                <use id="zoomplus" xlink:href="#zoomPlus" x="17" y="9" onmousedown="handleZoom(evt,'in')"/>
                <use id="zoomminus" xlink:href="#zoomMin" x="42" y="9" onmousedown="handleZoom(evt,'out')"/>
                <use id="reset" xlink:href="#resetDef" x="30" y="36" onmousedown="handleReset()"/>
                <g id="arrowUp" xlink:href="#dirArrow" transform="translate(30 24)" onmousedown="handlePan(0,-1)">
                  <use xlink:href="#rim" fill="#404040">
                        <set attributeName="fill" to="#808080" begin="arrowUp.mouseover" end="arrowUp.mouseout"/>
                  </use>
                  <path fill="none" stroke="white" stroke-width="1.5" d="M0,-3.0v7 M-2.5,-0.5L0,-3.0L2.5,-0.5"/>
                </g>
                <g id="arrowRight" xlink:href="#dirArrow" transform="rotate(90) translate(36 -43)" onmousedown="handlePan(1,0)">
                  <use xlink:href="#rim" fill="#404040">
                        <set attributeName="fill" to="#808080" begin="arrowRight.mouseover" end="arrowRight.mouseout"/>
                  </use>
                  <path fill="none" stroke="white" stroke-width="1.5" d="M0,-3.0v7 M-2.5,-0.5L0,-3.0L2.5,-0.5"/>
                </g>
                <g id="arrowDown" xlink:href="#dirArrow" transform="rotate(180) translate(-30 -48)" onmousedown="handlePan(0,1)">
                  <use xlink:href="#rim" fill="#404040">
                        <set attributeName="fill" to="#808080" begin="arrowDown.mouseover" end="arrowDown.mouseout"/>
                  </use>
                  <path fill="none" stroke="white" stroke-width="1.5" d="M0,-3.0v7 M-2.5,-0.5L0,-3.0L2.5,-0.5"/>
                </g>
                <g id="arrowLeft" xlink:href="#dirArrow" transform="rotate(270) translate(-36 17)" onmousedown="handlePan(-1,0)">
                  <use xlink:href="#rim" fill="#404040">
                        <set attributeName="fill" to="#808080" begin="arrowLeft.mouseover" end="arrowLeft.mouseout"/>
                  </use>
                  <path fill="none" stroke="white" stroke-width="1.5" d="M0,-3.0v7 M-2.5,-0.5L0,-3.0L2.5,-0.5"/>
                </g>
        </g>
        <svg viewBox="0 0 15 15" width="100%" height="30px" preserveAspectRatio="xMaxYMin meet">
         <g id="arrow_out" transform="scale(0.3 0.3)">
          <a xlink:href="ppp_8hpp_ae6ff673a04fff8b0f78b4d1b111a2a42_cgraph_org.svg" target="_base">
           <rect id="button" ry="5" rx="5" y="6" x="6" height="38" width="38"
                fill="#f2f5e9" fill-opacity="0.5" stroke="#606060" stroke-width="1.0"/>
           <path id="arrow"
             d="M 11.500037,31.436501 C 11.940474,20.09759 22.043105,11.32322 32.158766,21.979434 L 37.068811,17.246167 C 37.068811,17.246167 37.088388,32 37.088388,32 L 22.160133,31.978069 C 22.160133,31.978069 26.997745,27.140456 26.997745,27.140456 C 18.528582,18.264221 13.291696,25.230495 11.500037,31.436501 z"
             style="fill:#404040;"/>
          </a>
         </g>
        </svg>
</svg>
