<?xml version="1.0" encoding="UTF-8" standalone="no"?>
<!DOCTYPE svg PUBLIC "-//W3C//DTD SVG 1.1//EN"
 "http://www.w3.org/Graphics/SVG/1.1/DTD/svg11.dtd">
<!-- Generated by graphviz version 2.50.0 (20220203.2022)
 -->
<!-- Title: initialStateFromConfig Pages: 1 -->
<svg width="531pt" height="218pt"
 viewBox="0.00 0.00 531.00 218.00" xmlns="http://www.w3.org/2000/svg" xmlns:xlink="http://www.w3.org/1999/xlink">
<g id="graph0" class="graph" transform="scale(1 1) rotate(0) translate(4 214)">
<title>initialStateFromConfig</title>
<polygon fill="white" stroke="transparent" points="-4,4 -4,-214 527,-214 527,4 -4,4"/>
<!-- Node1 -->
<g id="node1" class="node">
<title>Node1</title>
<g id="a_node1"><a xlink:title=" ">
<polygon fill="#bfbfbf" stroke="black" points="411,-95.5 411,-114.5 523,-114.5 523,-95.5 411,-95.5"/>
<text text-anchor="middle" x="467" y="-102.5" font-family="Helvetica,sans-Serif" font-size="10.00">initialStateFromConfig</text>
</a>
</g>
</g>
<!-- Node2 -->
<g id="node2" class="node">
<title>Node2</title>
<g id="a_node2"><a xlink:href="networkEstimator_8cpp.html#a36828506971a6b66c6e61db51197c9e1" target="_top" xlink:title="Estimates parameters for a network of stations simultaneously.">
<polygon fill="white" stroke="black" points="146.5,-190.5 146.5,-209.5 238.5,-209.5 238.5,-190.5 146.5,-190.5"/>
<text text-anchor="middle" x="192.5" y="-197.5" font-family="Helvetica,sans-Serif" font-size="10.00">networkEstimator</text>
</a>
</g>
</g>
<!-- Node1&#45;&gt;Node2 -->
<g id="edge1" class="edge">
<title>Node1&#45;&gt;Node2</title>
<path fill="none" stroke="midnightblue" d="M451.47,-122.05C434.96,-140.1 406.24,-167.79 375,-181 331.23,-199.51 276.44,-202.85 238.57,-202.45"/>
<polygon fill="midnightblue" stroke="midnightblue" points="454.13,-124.31 458.16,-114.51 448.9,-119.67 454.13,-124.31"/>
</g>
<!-- Node4 -->
<g id="node4" class="node">
<title>Node4</title>
<g id="a_node4"><a xlink:href="orbits_8cpp.html#adbf44cc33c6497cf698ffbae0894eb14" target="_top" xlink:title=" ">
<polygon fill="white" stroke="black" points="296,-152.5 296,-171.5 361,-171.5 361,-152.5 296,-152.5"/>
<text text-anchor="middle" x="328.5" y="-159.5" font-family="Helvetica,sans-Serif" font-size="10.00">outputOrbit</text>
</a>
</g>
</g>
<!-- Node1&#45;&gt;Node4 -->
<g id="edge3" class="edge">
<title>Node1&#45;&gt;Node4</title>
<path fill="none" stroke="midnightblue" d="M433.72,-118.48C408.72,-128.92 374.69,-143.13 352.42,-152.43"/>
<polygon fill="midnightblue" stroke="midnightblue" points="435.27,-121.62 443.15,-114.54 432.58,-115.16 435.27,-121.62"/>
</g>
<!-- Node6 -->
<g id="node6" class="node">
<title>Node6</title>
<g id="a_node6"><a xlink:href="ppp__user_8cpp.html#a6840432dd58d1e58178b15080b92bdd8" target="_top" xlink:title=" ">
<polygon fill="white" stroke="black" points="300.5,-114.5 300.5,-133.5 356.5,-133.5 356.5,-114.5 300.5,-114.5"/>
<text text-anchor="middle" x="328.5" y="-121.5" font-family="Helvetica,sans-Serif" font-size="10.00">ppp_filter</text>
</a>
</g>
</g>
<!-- Node1&#45;&gt;Node6 -->
<g id="edge5" class="edge">
<title>Node1&#45;&gt;Node6</title>
<path fill="none" stroke="midnightblue" d="M400.72,-114.09C385.18,-116.25 369.44,-118.44 356.72,-120.21"/>
<polygon fill="midnightblue" stroke="midnightblue" points="401.45,-117.52 410.87,-112.67 400.49,-110.59 401.45,-117.52"/>
</g>
<!-- Node9 -->
<g id="node8" class="node">
<title>Node9</title>
<g id="a_node8"><a xlink:href="ppppp__obs_8cpp.html#a3db2ffced7ab37c4874c3a53fcb7953e" target="_top" xlink:title=" ">
<polygon fill="white" stroke="black" points="295.5,-76.5 295.5,-95.5 361.5,-95.5 361.5,-76.5 295.5,-76.5"/>
<text text-anchor="middle" x="328.5" y="-83.5" font-family="Helvetica,sans-Serif" font-size="10.00">stationPPP</text>
</a>
</g>
</g>
<!-- Node1&#45;&gt;Node9 -->
<g id="edge7" class="edge">
<title>Node1&#45;&gt;Node9</title>
<path fill="none" stroke="midnightblue" d="M400.58,-95.89C387.04,-94.01 373.35,-92.1 361.65,-90.48"/>
<polygon fill="midnightblue" stroke="midnightblue" points="400.49,-99.41 410.87,-97.33 401.45,-92.48 400.49,-99.41"/>
</g>
<!-- Node11 -->
<g id="node10" class="node">
<title>Node11</title>
<g id="a_node10"><a xlink:href="ppppp__pseudoobs_8cpp.html#ab255260e2ca2e89c21d280174f5a5a0b" target="_top" xlink:title=" ">
<polygon fill="white" stroke="black" points="289,-38.5 289,-57.5 368,-57.5 368,-38.5 289,-38.5"/>
<text text-anchor="middle" x="328.5" y="-45.5" font-family="Helvetica,sans-Serif" font-size="10.00">stationPseudo</text>
</a>
</g>
</g>
<!-- Node1&#45;&gt;Node11 -->
<g id="edge10" class="edge">
<title>Node1&#45;&gt;Node11</title>
<path fill="none" stroke="midnightblue" d="M433.72,-91.52C408.72,-81.08 374.69,-66.87 352.42,-57.57"/>
<polygon fill="midnightblue" stroke="midnightblue" points="432.58,-94.84 443.15,-95.46 435.27,-88.38 432.58,-94.84"/>
</g>
<!-- Node12 -->
<g id="node11" class="node">
<title>Node12</title>
<g id="a_node11"><a xlink:href="ppppp_8cpp.html#a0544cce952f9b2692ee25b1aa22753c0" target="_top" xlink:title="Update the accelerations applied to orbital elements during the interval between epochs.">
<polygon fill="white" stroke="black" points="282,-0.5 282,-19.5 375,-19.5 375,-0.5 282,-0.5"/>
<text text-anchor="middle" x="328.5" y="-7.5" font-family="Helvetica,sans-Serif" font-size="10.00">updateRecClocks</text>
</a>
</g>
</g>
<!-- Node1&#45;&gt;Node12 -->
<g id="edge12" class="edge">
<title>Node1&#45;&gt;Node12</title>
<path fill="none" stroke="midnightblue" d="M448.75,-87.85C431.3,-71.19 402.97,-45.98 375,-29 369.15,-25.45 362.51,-22.26 356.15,-19.55"/>
<polygon fill="midnightblue" stroke="midnightblue" points="446.78,-90.81 456.39,-95.27 451.66,-85.79 446.78,-90.81"/>
</g>
<!-- Node3 -->
<g id="node3" class="node">
<title>Node3</title>
<g id="a_node3"><a xlink:href="main_8cpp.html#a30c68344d30ddfe1e926f8472b86f094" target="_top" xlink:title=" ">
<polygon fill="white" stroke="black" points="0,-133.5 0,-152.5 103,-152.5 103,-133.5 0,-133.5"/>
<text text-anchor="middle" x="51.5" y="-140.5" font-family="Helvetica,sans-Serif" font-size="10.00">mainOncePerEpoch</text>
</a>
</g>
</g>
<!-- Node2&#45;&gt;Node3 -->
<g id="edge2" class="edge">
<title>Node2&#45;&gt;Node3</title>
<path fill="none" stroke="midnightblue" d="M154.34,-186.9C149.17,-184.98 143.94,-182.97 139,-181 116.31,-171.92 90.73,-160.54 73.31,-152.61"/>
<polygon fill="midnightblue" stroke="midnightblue" points="153.53,-190.33 164.12,-190.48 155.93,-183.76 153.53,-190.33"/>
</g>
<!-- Node5 -->
<g id="node5" class="node">
<title>Node5</title>
<g id="a_node5"><a xlink:href="main_8cpp.html#a93c49123b4afe8e199430439fd682acd" target="_top" xlink:title=" ">
<polygon fill="white" stroke="black" points="139,-152.5 139,-171.5 246,-171.5 246,-152.5 139,-152.5"/>
<text text-anchor="middle" x="192.5" y="-159.5" font-family="Helvetica,sans-Serif" font-size="10.00">mainPostProcessing</text>
</a>
</g>
</g>
<!-- Node4&#45;&gt;Node5 -->
<g id="edge4" class="edge">
<title>Node4&#45;&gt;Node5</title>
<path fill="none" stroke="midnightblue" d="M285.63,-162C273.15,-162 259.32,-162 246.24,-162"/>
<polygon fill="midnightblue" stroke="midnightblue" points="285.74,-165.5 295.74,-162 285.74,-158.5 285.74,-165.5"/>
</g>
<!-- Node7 -->
<g id="node7" class="node">
<title>Node7</title>
<g id="a_node7"><a xlink:href="ppp__user_8cpp.html#aad22d0ff0d06af12ea66aefd09d89af3" target="_top" xlink:title=" ">
<polygon fill="white" stroke="red" points="171,-114.5 171,-133.5 214,-133.5 214,-114.5 171,-114.5"/>
<text text-anchor="middle" x="192.5" y="-121.5" font-family="Helvetica,sans-Serif" font-size="10.00">pppos</text>
</a>
</g>
</g>
<!-- Node6&#45;&gt;Node7 -->
<g id="edge6" class="edge">
<title>Node6&#45;&gt;Node7</title>
<path fill="none" stroke="midnightblue" d="M290.29,-124C265.64,-124 234.25,-124 214.01,-124"/>
<polygon fill="midnightblue" stroke="midnightblue" points="290.38,-127.5 300.38,-124 290.38,-120.5 290.38,-127.5"/>
</g>
<!-- Node10 -->
<g id="node9" class="node">
<title>Node10</title>
<g id="a_node9"><a xlink:href="ppppp_8cpp.html#a936f239adc72073920104f4acc2aea67" target="_top" xlink:title=" ">
<polygon fill="white" stroke="black" points="174,-57.5 174,-76.5 211,-76.5 211,-57.5 174,-57.5"/>
<text text-anchor="middle" x="192.5" y="-64.5" font-family="Helvetica,sans-Serif" font-size="10.00">PPP</text>
</a>
</g>
</g>
<!-- Node9&#45;&gt;Node10 -->
<g id="edge8" class="edge">
<title>Node9&#45;&gt;Node10</title>
<path fill="none" stroke="midnightblue" d="M285.45,-80.04C260.51,-76.5 230.19,-72.2 211.36,-69.53"/>
<polygon fill="midnightblue" stroke="midnightblue" points="285.01,-83.51 295.4,-81.45 285.99,-76.58 285.01,-83.51"/>
</g>
<!-- Node10&#45;&gt;Node3 -->
<g id="edge9" class="edge">
<title>Node10&#45;&gt;Node3</title>
<path fill="none" stroke="midnightblue" d="M165.06,-81.46C137.14,-96.72 93.91,-120.36 69.96,-133.45"/>
<polygon fill="midnightblue" stroke="midnightblue" points="166.8,-84.49 173.9,-76.63 163.44,-78.35 166.8,-84.49"/>
</g>
<!-- Node11&#45;&gt;Node10 -->
<g id="edge11" class="edge">
<title>Node11&#45;&gt;Node10</title>
<path fill="none" stroke="midnightblue" d="M278.84,-54.9C255.17,-58.26 228.2,-62.08 211.02,-64.52"/>
<polygon fill="midnightblue" stroke="midnightblue" points="279.33,-58.36 288.74,-53.5 278.35,-51.43 279.33,-58.36"/>
</g>
<!-- Node12&#45;&gt;Node10 -->
<g id="edge13" class="edge">
<title>Node12&#45;&gt;Node10</title>
<path fill="none" stroke="midnightblue" d="M294.97,-23.54C290.61,-25.37 286.19,-27.22 282,-29 257.36,-39.43 228.95,-51.67 211.11,-59.38"/>
<polygon fill="midnightblue" stroke="midnightblue" points="296.46,-26.71 304.33,-19.62 293.76,-20.25 296.46,-26.71"/>
</g>
</g>
</svg>
