<?xml version="1.0" encoding="UTF-8" standalone="no"?>
<!DOCTYPE svg PUBLIC "-//W3C//DTD SVG 1.1//EN"
 "http://www.w3.org/Graphics/SVG/1.1/DTD/svg11.dtd">
<!-- Generated by graphviz version 2.50.0 (20220203.2022)
 -->
<!-- Title: corr_meas Pages: 1 -->
<svg width="280pt" height="66pt"
 viewBox="0.00 0.00 280.00 66.00" xmlns="http://www.w3.org/2000/svg" xmlns:xlink="http://www.w3.org/1999/xlink">
<g id="graph0" class="graph" transform="scale(1 1) rotate(0) translate(4 62)">
<title>corr_meas</title>
<polygon fill="white" stroke="transparent" points="-4,4 -4,-62 276,-62 276,4 -4,4"/>
<!-- Node1 -->
<g id="node1" class="node">
<title>Node1</title>
<g id="a_node1"><a xlink:title="Antenna corrected measurement.">
<polygon fill="#bfbfbf" stroke="black" points="210,-19.5 210,-38.5 272,-38.5 272,-19.5 210,-19.5"/>
<text text-anchor="middle" x="241" y="-26.5" font-family="Helvetica,sans-Serif" font-size="10.00">corr_meas</text>
</a>
</g>
</g>
<!-- Node2 -->
<g id="node2" class="node">
<title>Node2</title>
<g id="a_node2"><a xlink:href="ppp_8cpp.html#ae6ff673a04fff8b0f78b4d1b111a2a42" target="_top" xlink:title=" ">
<polygon fill="white" stroke="black" points="92,-38.5 92,-57.5 174,-57.5 174,-38.5 92,-38.5"/>
<text text-anchor="middle" x="133" y="-45.5" font-family="Helvetica,sans-Serif" font-size="10.00">pppCorrections</text>
</a>
</g>
</g>
<!-- Node1&#45;&gt;Node2 -->
<g id="edge1" class="edge">
<title>Node1&#45;&gt;Node2</title>
<path fill="none" stroke="midnightblue" d="M199.89,-36.19C191.44,-37.7 182.52,-39.3 174.07,-40.82"/>
<polygon fill="midnightblue" stroke="midnightblue" points="200.68,-39.6 209.91,-34.39 199.45,-32.71 200.68,-39.6"/>
</g>
<!-- Node7 -->
<g id="node4" class="node">
<title>Node7</title>
<g id="a_node4"><a xlink:href="ppp__network_8cpp.html#a8841c4de50d731334b0aa349d64a2985" target="_top" xlink:title=" ">
<polygon fill="white" stroke="black" points="108.5,-0.5 108.5,-19.5 157.5,-19.5 157.5,-0.5 108.5,-0.5"/>
<text text-anchor="middle" x="133" y="-7.5" font-family="Helvetica,sans-Serif" font-size="10.00">resomc</text>
</a>
</g>
</g>
<!-- Node1&#45;&gt;Node7 -->
<g id="edge3" class="edge">
<title>Node1&#45;&gt;Node7</title>
<path fill="none" stroke="midnightblue" d="M199.87,-21.81C185.67,-19.26 170.17,-16.48 157.77,-14.26"/>
<polygon fill="midnightblue" stroke="midnightblue" points="199.45,-25.29 209.91,-23.61 200.68,-18.4 199.45,-25.29"/>
</g>
<!-- Node3 -->
<g id="node3" class="node">
<title>Node3</title>
<g id="a_node3"><a xlink:href="ppp__user_8cpp.html#a6840432dd58d1e58178b15080b92bdd8" target="_top" xlink:title=" ">
<polygon fill="white" stroke="red" points="0,-38.5 0,-57.5 56,-57.5 56,-38.5 0,-38.5"/>
<text text-anchor="middle" x="28" y="-45.5" font-family="Helvetica,sans-Serif" font-size="10.00">ppp_filter</text>
</a>
</g>
</g>
<!-- Node2&#45;&gt;Node3 -->
<g id="edge2" class="edge">
<title>Node2&#45;&gt;Node3</title>
<path fill="none" stroke="midnightblue" d="M81.64,-48C72.84,-48 63.99,-48 56.13,-48"/>
<polygon fill="midnightblue" stroke="midnightblue" points="81.88,-51.5 91.88,-48 81.88,-44.5 81.88,-51.5"/>
</g>
<!-- Node8 -->
<g id="node5" class="node">
<title>Node8</title>
<g id="a_node5"><a xlink:href="ppp__network_8cpp.html#a58f075aaa941ce20e727a84401270780" target="_top" xlink:title=" ">
<polygon fill="white" stroke="red" points="2.5,-0.5 2.5,-19.5 53.5,-19.5 53.5,-0.5 2.5,-0.5"/>
<text text-anchor="middle" x="28" y="-7.5" font-family="Helvetica,sans-Serif" font-size="10.00">pppomc</text>
</a>
</g>
</g>
<!-- Node7&#45;&gt;Node8 -->
<g id="edge4" class="edge">
<title>Node7&#45;&gt;Node8</title>
<path fill="none" stroke="midnightblue" d="M98.23,-10C83.67,-10 66.95,-10 53.6,-10"/>
<polygon fill="midnightblue" stroke="midnightblue" points="98.37,-13.5 108.37,-10 98.37,-6.5 98.37,-13.5"/>
</g>
</g>
</svg>
