<?xml version="1.0" encoding="UTF-8" standalone="no"?>
<!DOCTYPE svg PUBLIC "-//W3C//DTD SVG 1.1//EN"
 "http://www.w3.org/Graphics/SVG/1.1/DTD/svg11.dtd">
<!-- Generated by graphviz version 2.50.0 (20220203.2022)
 -->
<!-- Title: updateRecClocks Pages: 1 -->
<svg width="402pt" height="142pt"
 viewBox="0.00 0.00 402.00 142.00" xmlns="http://www.w3.org/2000/svg" xmlns:xlink="http://www.w3.org/1999/xlink">
<g id="graph0" class="graph" transform="scale(1 1) rotate(0) translate(4 138)">
<title>updateRecClocks</title>
<polygon fill="white" stroke="transparent" points="-4,4 -4,-138 398,-138 398,4 -4,4"/>
<!-- Node1 -->
<g id="node1" class="node">
<title>Node1</title>
<g id="a_node1"><a xlink:title="Update the accelerations applied to orbital elements during the interval between epochs.">
<polygon fill="#bfbfbf" stroke="black" points="0,-57.5 0,-76.5 93,-76.5 93,-57.5 0,-57.5"/>
<text text-anchor="middle" x="46.5" y="-64.5" font-family="Helvetica,sans-Serif" font-size="10.00">updateRecClocks</text>
</a>
</g>
</g>
<!-- Node2 -->
<g id="node2" class="node">
<title>Node2</title>
<g id="a_node2"><a xlink:href="structACSConfig.html#a7ddfbaf20a1c9181d73d0dabe92beace" target="_top" xlink:title="Set receiver options for a specific receiver using a hierarchy of sources.">
<polygon fill="white" stroke="black" points="129,-114.5 129,-133.5 249,-133.5 249,-114.5 129,-114.5"/>
<text text-anchor="middle" x="189" y="-121.5" font-family="Helvetica,sans-Serif" font-size="10.00">ACSConfig::getRecOpts</text>
</a>
</g>
</g>
<!-- Node1&#45;&gt;Node2 -->
<g id="edge1" class="edge">
<title>Node1&#45;&gt;Node2</title>
<path fill="none" stroke="midnightblue" d="M66.31,-76.59C82.64,-84.72 107.06,-96.39 129,-105 134.52,-107.17 140.4,-109.28 146.22,-111.26"/>
<polygon fill="midnightblue" stroke="midnightblue" points="145.31,-114.65 155.9,-114.46 147.5,-108 145.31,-114.65"/>
</g>
<!-- Node9 -->
<g id="node4" class="node">
<title>Node9</title>
<g id="a_node4"><a xlink:href="streamTrace_8hpp.html#a11d8bb0b71dca46dd29f27f595c70ddf" target="_top" xlink:title=" ">
<polygon fill="white" stroke="black" points="153.5,-76.5 153.5,-95.5 224.5,-95.5 224.5,-76.5 153.5,-76.5"/>
<text text-anchor="middle" x="189" y="-83.5" font-family="Helvetica,sans-Serif" font-size="10.00">getTraceFile</text>
</a>
</g>
</g>
<!-- Node1&#45;&gt;Node9 -->
<g id="edge3" class="edge">
<title>Node1&#45;&gt;Node9</title>
<path fill="none" stroke="midnightblue" d="M93.12,-73.17C109.15,-75.34 127.15,-77.77 143.13,-79.93"/>
<polygon fill="midnightblue" stroke="midnightblue" points="142.92,-83.44 153.3,-81.31 143.85,-76.5 142.92,-83.44"/>
</g>
<!-- Node10 -->
<g id="node5" class="node">
<title>Node10</title>
<g id="a_node5"><a xlink:href="algebra_8cpp.html#a304f0d512353a3c5a991c2439ea73287" target="_top" xlink:title=" ">
<polygon fill="white" stroke="black" points="133,-38.5 133,-57.5 245,-57.5 245,-38.5 133,-38.5"/>
<text text-anchor="middle" x="189" y="-45.5" font-family="Helvetica,sans-Serif" font-size="10.00">initialStateFromConfig</text>
</a>
</g>
</g>
<!-- Node1&#45;&gt;Node10 -->
<g id="edge4" class="edge">
<title>Node1&#45;&gt;Node10</title>
<path fill="none" stroke="midnightblue" d="M93.12,-60.83C102.61,-59.55 112.79,-58.17 122.84,-56.81"/>
<polygon fill="midnightblue" stroke="midnightblue" points="123.36,-60.27 132.8,-55.46 122.42,-53.34 123.36,-60.27"/>
</g>
<!-- Node11 -->
<g id="node6" class="node">
<title>Node11</title>
<g id="a_node6"><a xlink:href="structKFState.html#ae544a260c4983f5a1b06f71ddad7338f" target="_top" xlink:title="Adds dynamics to a filter state by inserting off&#45;diagonal, non&#45;time dependent elements to transition ...">
<polygon fill="white" stroke="black" points="135,-0.5 135,-19.5 243,-19.5 243,-0.5 135,-0.5"/>
<text text-anchor="middle" x="189" y="-7.5" font-family="Helvetica,sans-Serif" font-size="10.00">KFState::setKFTrans</text>
</a>
</g>
</g>
<!-- Node1&#45;&gt;Node11 -->
<g id="edge5" class="edge">
<title>Node1&#45;&gt;Node11</title>
<path fill="none" stroke="midnightblue" d="M66.31,-57.41C82.64,-49.28 107.06,-37.61 129,-29 134.52,-26.83 140.4,-24.72 146.22,-22.74"/>
<polygon fill="midnightblue" stroke="midnightblue" points="147.5,-26 155.9,-19.54 145.31,-19.35 147.5,-26"/>
</g>
<!-- Node3 -->
<g id="node3" class="node">
<title>Node3</title>
<g id="a_node3"><a xlink:href="acsConfig_8cpp.html#a93b507f5cfa7760051904a0a1863118a" target="_top" xlink:title="Set satellite options from yaml.">
<polygon fill="white" stroke="red" points="302,-114.5 302,-133.5 377,-133.5 377,-114.5 302,-114.5"/>
<text text-anchor="middle" x="339.5" y="-121.5" font-family="Helvetica,sans-Serif" font-size="10.00">getFromYaml</text>
</a>
</g>
</g>
<!-- Node2&#45;&gt;Node3 -->
<g id="edge2" class="edge">
<title>Node2&#45;&gt;Node3</title>
<path fill="none" stroke="midnightblue" d="M249.12,-124C263.3,-124 278.25,-124 291.77,-124"/>
<polygon fill="midnightblue" stroke="midnightblue" points="291.81,-127.5 301.81,-124 291.81,-120.5 291.81,-127.5"/>
</g>
<!-- Node12 -->
<g id="node7" class="node">
<title>Node12</title>
<g id="a_node7"><a xlink:href="structKFState.html#a86b5a2dd8946dc0bd53606e7b2ff8c11" target="_top" xlink:title="Tries to add a state to the filter object.">
<polygon fill="white" stroke="black" points="285,-0.5 285,-19.5 394,-19.5 394,-0.5 285,-0.5"/>
<text text-anchor="middle" x="339.5" y="-7.5" font-family="Helvetica,sans-Serif" font-size="10.00">KFState::addKFState</text>
</a>
</g>
</g>
<!-- Node11&#45;&gt;Node12 -->
<g id="edge6" class="edge">
<title>Node11&#45;&gt;Node12</title>
<path fill="none" stroke="midnightblue" d="M243.19,-10C253.47,-10 264.34,-10 274.91,-10"/>
<polygon fill="midnightblue" stroke="midnightblue" points="274.93,-13.5 284.93,-10 274.93,-6.5 274.93,-13.5"/>
</g>
</g>
</svg>
