<?xml version="1.0" encoding="UTF-8" standalone="no"?>
<!DOCTYPE svg PUBLIC "-//W3C//DTD SVG 1.1//EN"
 "http://www.w3.org/Graphics/SVG/1.1/DTD/svg11.dtd">
<!-- Generated by graphviz version 2.50.0 (20220203.2022)
 -->
<!-- Title: lambdacalcs Pages: 1 -->
<svg width="322pt" height="256pt"
 viewBox="0.00 0.00 322.00 256.00" xmlns="http://www.w3.org/2000/svg" xmlns:xlink="http://www.w3.org/1999/xlink">
<g id="graph0" class="graph" transform="scale(1 1) rotate(0) translate(4 252)">
<title>lambdacalcs</title>
<polygon fill="white" stroke="transparent" points="-4,4 -4,-252 318,-252 318,4 -4,4"/>
<!-- Node1 -->
<g id="node1" class="node">
<title>Node1</title>
<g id="a_node1"><a xlink:title=" ">
<polygon fill="#bfbfbf" stroke="black" points="0,-114.5 0,-133.5 71,-133.5 71,-114.5 0,-114.5"/>
<text text-anchor="middle" x="35.5" y="-121.5" font-family="Helvetica,sans-Serif" font-size="10.00">lambdacalcs</text>
</a>
</g>
</g>
<!-- Node2 -->
<g id="node2" class="node">
<title>Node2</title>
<g id="a_node2"><a xlink:href="ppppp__ambres_8cpp.html#affb36a89f53fcbb0643c98e20b15b8a7" target="_top" xlink:title=" ">
<polygon fill="white" stroke="black" points="107,-114.5 107,-133.5 177,-133.5 177,-114.5 107,-114.5"/>
<text text-anchor="middle" x="142" y="-121.5" font-family="Helvetica,sans-Serif" font-size="10.00">newLambda</text>
</a>
</g>
</g>
<!-- Node1&#45;&gt;Node2 -->
<g id="edge1" class="edge">
<title>Node1&#45;&gt;Node2</title>
<path fill="none" stroke="midnightblue" d="M71.01,-124C79.21,-124 88.07,-124 96.64,-124"/>
<polygon fill="midnightblue" stroke="midnightblue" points="96.89,-127.5 106.89,-124 96.89,-120.5 96.89,-127.5"/>
</g>
<!-- Node3 -->
<g id="node3" class="node">
<title>Node3</title>
<g id="a_node3"><a xlink:href="ppppp__ambres_8cpp.html#a37aa1051c0c3358e79565505bd4a605b" target="_top" xlink:title=" ">
<polygon fill="white" stroke="red" points="231,-228.5 231,-247.5 296,-247.5 296,-228.5 231,-228.5"/>
<text text-anchor="middle" x="263.5" y="-235.5" font-family="Helvetica,sans-Serif" font-size="10.00">newFFratio</text>
</a>
</g>
</g>
<!-- Node2&#45;&gt;Node3 -->
<g id="edge2" class="edge">
<title>Node2&#45;&gt;Node3</title>
<path fill="none" stroke="midnightblue" d="M147.77,-133.78C157.49,-152.78 181.39,-194.91 213,-219 215.76,-221.1 218.77,-222.99 221.91,-224.7"/>
<polygon fill="midnightblue" stroke="midnightblue" points="220.44,-227.87 230.97,-229 223.44,-221.55 220.44,-227.87"/>
</g>
<!-- Node5 -->
<g id="node4" class="node">
<title>Node5</title>
<g id="a_node4"><a xlink:href="ppppp__ambres_8cpp.html#a6fe0c913b634982bfd5b884fc3d396fa" target="_top" xlink:title=" ">
<polygon fill="white" stroke="black" points="213,-190.5 213,-209.5 314,-209.5 314,-190.5 213,-190.5"/>
<text text-anchor="middle" x="263.5" y="-197.5" font-family="Helvetica,sans-Serif" font-size="10.00">newLambdaSearch</text>
</a>
</g>
</g>
<!-- Node2&#45;&gt;Node5 -->
<g id="edge3" class="edge">
<title>Node2&#45;&gt;Node5</title>
<path fill="none" stroke="midnightblue" d="M152.68,-133.59C165.54,-145.91 189.4,-167.33 213,-181 216.4,-182.97 220.04,-184.81 223.74,-186.51"/>
<polygon fill="midnightblue" stroke="midnightblue" points="222.42,-189.75 233,-190.44 225.16,-183.31 222.42,-189.75"/>
</g>
<!-- Node6 -->
<g id="node5" class="node">
<title>Node6</title>
<g id="a_node5"><a xlink:href="ppppp__ambres_8cpp.html#a63e7f5650d24785329449d8f7d490398" target="_top" xlink:title=" ">
<polygon fill="white" stroke="black" points="240,-152.5 240,-171.5 287,-171.5 287,-152.5 240,-152.5"/>
<text text-anchor="middle" x="263.5" y="-159.5" font-family="Helvetica,sans-Serif" font-size="10.00">newLD</text>
</a>
</g>
</g>
<!-- Node2&#45;&gt;Node6 -->
<g id="edge4" class="edge">
<title>Node2&#45;&gt;Node6</title>
<path fill="none" stroke="midnightblue" d="M173.15,-133.59C190.49,-139.1 212.28,-146.03 230,-151.67"/>
<polygon fill="midnightblue" stroke="midnightblue" points="229.31,-155.12 239.9,-154.81 231.43,-148.45 229.31,-155.12"/>
</g>
<!-- Node7 -->
<g id="node6" class="node">
<title>Node7</title>
<g id="a_node6"><a xlink:href="ppppp__ambres_8cpp.html#af5b38b8640cc5e4113d7df6a148b7b22" target="_top" xlink:title=" ">
<polygon fill="white" stroke="red" points="223.5,-114.5 223.5,-133.5 303.5,-133.5 303.5,-114.5 223.5,-114.5"/>
<text text-anchor="middle" x="263.5" y="-121.5" font-family="Helvetica,sans-Serif" font-size="10.00">newNormcdfar</text>
</a>
</g>
</g>
<!-- Node2&#45;&gt;Node7 -->
<g id="edge5" class="edge">
<title>Node2&#45;&gt;Node7</title>
<path fill="none" stroke="midnightblue" d="M177.24,-124C188.34,-124 200.88,-124 212.86,-124"/>
<polygon fill="midnightblue" stroke="midnightblue" points="213.2,-127.5 223.2,-124 213.2,-120.5 213.2,-127.5"/>
</g>
<!-- Node10 -->
<g id="node7" class="node">
<title>Node10</title>
<g id="a_node7"><a xlink:href="ppppp__ambres_8cpp.html#a0087cbdd5452be6f913e149b0c4f6490" target="_top" xlink:title=" ">
<polygon fill="white" stroke="red" points="224.5,-76.5 224.5,-95.5 302.5,-95.5 302.5,-76.5 224.5,-76.5"/>
<text text-anchor="middle" x="263.5" y="-83.5" font-family="Helvetica,sans-Serif" font-size="10.00">newReduction</text>
</a>
</g>
</g>
<!-- Node2&#45;&gt;Node10 -->
<g id="edge6" class="edge">
<title>Node2&#45;&gt;Node10</title>
<path fill="none" stroke="midnightblue" d="M173.15,-114.41C188.16,-109.64 206.49,-103.81 222.63,-98.68"/>
<polygon fill="midnightblue" stroke="midnightblue" points="223.89,-101.95 232.35,-95.59 221.76,-95.28 223.89,-101.95"/>
</g>
<!-- Node12 -->
<g id="node8" class="node">
<title>Node12</title>
<g id="a_node8"><a xlink:href="algebra__old_8cpp.html#a54fd9b64416949c38e879ac889964d2a" target="_top" xlink:title=" ">
<polygon fill="white" stroke="red" points="243.5,-38.5 243.5,-57.5 283.5,-57.5 283.5,-38.5 243.5,-38.5"/>
<text text-anchor="middle" x="263.5" y="-45.5" font-family="Helvetica,sans-Serif" font-size="10.00">solve</text>
</a>
</g>
</g>
<!-- Node2&#45;&gt;Node12 -->
<g id="edge7" class="edge">
<title>Node2&#45;&gt;Node12</title>
<path fill="none" stroke="midnightblue" d="M152.68,-114.41C165.54,-102.09 189.4,-80.67 213,-67 219.32,-63.34 226.47,-60.13 233.33,-57.43"/>
<polygon fill="midnightblue" stroke="midnightblue" points="234.87,-60.6 243.05,-53.87 232.46,-54.03 234.87,-60.6"/>
</g>
<!-- Node21 -->
<g id="node9" class="node">
<title>Node21</title>
<g id="a_node9"><a xlink:href="streamTrace_8cpp.html#ae00e6addd3bdf3a7fd41a254eb9aec89" target="_top" xlink:title=" ">
<polygon fill="white" stroke="black" points="231.5,-0.5 231.5,-19.5 295.5,-19.5 295.5,-0.5 231.5,-0.5"/>
<text text-anchor="middle" x="263.5" y="-7.5" font-family="Helvetica,sans-Serif" font-size="10.00">tracepdeex</text>
</a>
</g>
</g>
<!-- Node2&#45;&gt;Node21 -->
<g id="edge8" class="edge">
<title>Node2&#45;&gt;Node21</title>
<path fill="none" stroke="midnightblue" d="M147.77,-114.22C157.49,-95.22 181.39,-53.09 213,-29 215.83,-26.84 218.94,-24.9 222.17,-23.17"/>
<polygon fill="midnightblue" stroke="midnightblue" points="223.93,-26.21 231.49,-18.79 220.95,-19.87 223.93,-26.21"/>
</g>
</g>
</svg>
