<?xml version="1.0" encoding="UTF-8" standalone="no"?>
<!DOCTYPE svg PUBLIC "-//W3C//DTD SVG 1.1//EN"
 "http://www.w3.org/Graphics/SVG/1.1/DTD/svg11.dtd">
<!-- Generated by graphviz version 2.50.0 (20220203.2022)
 -->
<!-- Title: peph2pos Pages: 1 -->
<svg width="289pt" height="142pt"
 viewBox="0.00 0.00 289.00 142.00" xmlns="http://www.w3.org/2000/svg" xmlns:xlink="http://www.w3.org/1999/xlink">
<g id="graph0" class="graph" transform="scale(1 1) rotate(0) translate(4 138)">
<title>peph2pos</title>
<polygon fill="white" stroke="transparent" points="-4,4 -4,-138 285,-138 285,4 -4,4"/>
<!-- Node1 -->
<g id="node1" class="node">
<title>Node1</title>
<g id="a_node1"><a xlink:title=" ">
<polygon fill="#bfbfbf" stroke="black" points="222,-57.5 222,-76.5 281,-76.5 281,-57.5 222,-57.5"/>
<text text-anchor="middle" x="251.5" y="-64.5" font-family="Helvetica,sans-Serif" font-size="10.00">peph2pos</text>
</a>
</g>
</g>
<!-- Node2 -->
<g id="node2" class="node">
<title>Node2</title>
<g id="a_node2"><a xlink:href="ephemeris_8cpp.html#a8d3c308314354139cf1e890cdf6bead2" target="_top" xlink:title=" ">
<polygon fill="white" stroke="black" points="140,-57.5 140,-76.5 186,-76.5 186,-57.5 140,-57.5"/>
<text text-anchor="middle" x="163" y="-64.5" font-family="Helvetica,sans-Serif" font-size="10.00">satpos</text>
</a>
</g>
</g>
<!-- Node1&#45;&gt;Node2 -->
<g id="edge1" class="edge">
<title>Node1&#45;&gt;Node2</title>
<path fill="none" stroke="midnightblue" d="M211.63,-67C202.88,-67 193.89,-67 186.11,-67"/>
<polygon fill="midnightblue" stroke="midnightblue" points="211.7,-70.5 221.7,-67 211.7,-63.5 211.7,-70.5"/>
</g>
<!-- Node3 -->
<g id="node3" class="node">
<title>Node3</title>
<g id="a_node3"><a xlink:href="rinexClkWrite_8cpp.html#a3f6744a347b111bb423bd32d27947654" target="_top" xlink:title=" ">
<polygon fill="white" stroke="red" points="0,-114.5 0,-133.5 104,-133.5 104,-114.5 0,-114.5"/>
<text text-anchor="middle" x="52" y="-121.5" font-family="Helvetica,sans-Serif" font-size="10.00">getSatClksFromEph</text>
</a>
</g>
</g>
<!-- Node2&#45;&gt;Node3 -->
<g id="edge2" class="edge">
<title>Node2&#45;&gt;Node3</title>
<path fill="none" stroke="midnightblue" d="M140.86,-82.49C130.16,-89.9 116.76,-98.55 104,-105 97.09,-108.5 89.37,-111.7 82.07,-114.45"/>
<polygon fill="midnightblue" stroke="midnightblue" points="143,-85.26 149.14,-76.63 138.96,-79.55 143,-85.26"/>
</g>
<!-- Node12 -->
<g id="node4" class="node">
<title>Node12</title>
<g id="a_node4"><a xlink:href="mongoWrite_8cpp.html#ac5399222f483050332a2571ebcbc5ba1" target="_top" xlink:title=" ">
<polygon fill="white" stroke="red" points="6,-76.5 6,-95.5 98,-95.5 98,-76.5 6,-76.5"/>
<text text-anchor="middle" x="52" y="-83.5" font-family="Helvetica,sans-Serif" font-size="10.00">prepareSsrStates</text>
</a>
</g>
</g>
<!-- Node2&#45;&gt;Node12 -->
<g id="edge3" class="edge">
<title>Node2&#45;&gt;Node12</title>
<path fill="none" stroke="midnightblue" d="M129.81,-72.61C119.98,-74.32 108.97,-76.24 98.44,-78.08"/>
<polygon fill="midnightblue" stroke="midnightblue" points="130.69,-76.01 139.94,-70.84 129.49,-69.11 130.69,-76.01"/>
</g>
<!-- Node13 -->
<g id="node5" class="node">
<title>Node13</title>
<g id="a_node5"><a xlink:href="ephemeris_8cpp.html#a24cd8a842f9d8dbf3b035cfcd61862a0" target="_top" xlink:title="satellite positions and clocks.">
<polygon fill="white" stroke="red" points="26.5,-38.5 26.5,-57.5 77.5,-57.5 77.5,-38.5 26.5,-38.5"/>
<text text-anchor="middle" x="52" y="-45.5" font-family="Helvetica,sans-Serif" font-size="10.00">satposs</text>
</a>
</g>
</g>
<!-- Node2&#45;&gt;Node13 -->
<g id="edge4" class="edge">
<title>Node2&#45;&gt;Node13</title>
<path fill="none" stroke="midnightblue" d="M130.05,-61.43C113.34,-58.52 93.19,-55.01 77.69,-52.3"/>
<polygon fill="midnightblue" stroke="midnightblue" points="129.49,-64.89 139.94,-63.16 130.69,-57.99 129.49,-64.89"/>
</g>
<!-- Node19 -->
<g id="node6" class="node">
<title>Node19</title>
<g id="a_node6"><a xlink:href="sp3Write_8cpp.html#a53c4eda35c9ccdfe9aa683fb0272c8c0" target="_top" xlink:title=" ">
<polygon fill="white" stroke="red" points="9,-0.5 9,-19.5 95,-19.5 95,-0.5 9,-0.5"/>
<text text-anchor="middle" x="52" y="-7.5" font-family="Helvetica,sans-Serif" font-size="10.00">writeSysSetSp3</text>
</a>
</g>
</g>
<!-- Node2&#45;&gt;Node19 -->
<g id="edge5" class="edge">
<title>Node2&#45;&gt;Node19</title>
<path fill="none" stroke="midnightblue" d="M140.86,-51.51C130.16,-44.1 116.76,-35.45 104,-29 97.09,-25.5 89.37,-22.3 82.07,-19.55"/>
<polygon fill="midnightblue" stroke="midnightblue" points="138.96,-54.45 149.14,-57.37 143,-48.74 138.96,-54.45"/>
</g>
</g>
</svg>
