<?xml version="1.0" encoding="UTF-8" standalone="no"?>
<!DOCTYPE svg PUBLIC "-//W3C//DTD SVG 1.1//EN"
 "http://www.w3.org/Graphics/SVG/1.1/DTD/svg11.dtd">
<!-- Generated by graphviz version 2.50.0 (20220203.2022)
 -->
<!-- Title: pephpos Pages: 1 -->
<svg width="309pt" height="180pt"
 viewBox="0.00 0.00 309.00 180.00" xmlns="http://www.w3.org/2000/svg" xmlns:xlink="http://www.w3.org/1999/xlink">
<g id="graph0" class="graph" transform="scale(1 1) rotate(0) translate(4 176)">
<title>pephpos</title>
<polygon fill="white" stroke="transparent" points="-4,4 -4,-176 305,-176 305,4 -4,4"/>
<!-- Node1 -->
<g id="node1" class="node">
<title>Node1</title>
<g id="a_node1"><a xlink:title=" ">
<polygon fill="#bfbfbf" stroke="black" points="0,-76.5 0,-95.5 53,-95.5 53,-76.5 0,-76.5"/>
<text text-anchor="middle" x="26.5" y="-83.5" font-family="Helvetica,sans-Serif" font-size="10.00">pephpos</text>
</a>
</g>
</g>
<!-- Node2 -->
<g id="node2" class="node">
<title>Node2</title>
<g id="a_node2"><a xlink:href="structSatSys.html#adbdf98ba1ef1f22b6aaed93916529513" target="_top" xlink:title="Sets a 4 character c_string of this satellite&#39;s id.">
<polygon fill="white" stroke="black" points="96,-152.5 96,-171.5 170,-171.5 170,-152.5 96,-152.5"/>
<text text-anchor="middle" x="133" y="-159.5" font-family="Helvetica,sans-Serif" font-size="10.00">SatSys::getId</text>
</a>
</g>
</g>
<!-- Node1&#45;&gt;Node2 -->
<g id="edge1" class="edge">
<title>Node1&#45;&gt;Node2</title>
<path fill="none" stroke="midnightblue" d="M35.87,-95.51C47.03,-107.75 67.84,-129.08 89,-143 91.73,-144.79 94.65,-146.49 97.65,-148.08"/>
<polygon fill="midnightblue" stroke="midnightblue" points="96.19,-151.26 106.71,-152.49 99.25,-144.97 96.19,-151.26"/>
</g>
<!-- Node4 -->
<g id="node4" class="node">
<title>Node4</title>
<g id="a_node4"><a xlink:href="preceph_8cpp.html#a3484687362aab309b89c125d59887180" target="_top" xlink:title=" ">
<polygon fill="white" stroke="black" points="106.5,-114.5 106.5,-133.5 159.5,-133.5 159.5,-114.5 106.5,-114.5"/>
<text text-anchor="middle" x="133" y="-121.5" font-family="Helvetica,sans-Serif" font-size="10.00">interppol</text>
</a>
</g>
</g>
<!-- Node1&#45;&gt;Node4 -->
<g id="edge3" class="edge">
<title>Node1&#45;&gt;Node4</title>
<path fill="none" stroke="midnightblue" d="M53.06,-95.3C66.22,-100.08 82.46,-105.99 96.79,-111.2"/>
<polygon fill="midnightblue" stroke="midnightblue" points="95.74,-114.54 106.34,-114.67 98.14,-107.96 95.74,-114.54"/>
</g>
<!-- Node5 -->
<g id="node5" class="node">
<title>Node5</title>
<g id="a_node5"><a xlink:href="algebra__old_8cpp.html#abaa5d4a31df361116a9b2be552624cf9" target="_top" xlink:title=" ">
<polygon fill="white" stroke="black" points="114,-76.5 114,-95.5 152,-95.5 152,-76.5 114,-76.5"/>
<text text-anchor="middle" x="133" y="-83.5" font-family="Helvetica,sans-Serif" font-size="10.00">norm</text>
</a>
</g>
</g>
<!-- Node1&#45;&gt;Node5 -->
<g id="edge4" class="edge">
<title>Node1&#45;&gt;Node5</title>
<path fill="none" stroke="midnightblue" d="M53.06,-86C68.38,-86 87.88,-86 103.67,-86"/>
<polygon fill="midnightblue" stroke="midnightblue" points="103.91,-89.5 113.91,-86 103.91,-82.5 103.91,-89.5"/>
</g>
<!-- Node7 -->
<g id="node7" class="node">
<title>Node7</title>
<g id="a_node7"><a xlink:href="structGTime.html#a64394968bbfdecbbeec4ba5134fdb682" target="_top" xlink:title=" ">
<polygon fill="white" stroke="black" points="89,-38.5 89,-57.5 177,-57.5 177,-38.5 89,-38.5"/>
<text text-anchor="middle" x="133" y="-45.5" font-family="Helvetica,sans-Serif" font-size="10.00">GTime::to_string</text>
</a>
</g>
</g>
<!-- Node1&#45;&gt;Node7 -->
<g id="edge6" class="edge">
<title>Node1&#45;&gt;Node7</title>
<path fill="none" stroke="midnightblue" d="M53.06,-76.7C66.02,-71.99 81.98,-66.19 96.15,-61.04"/>
<polygon fill="midnightblue" stroke="midnightblue" points="97.41,-64.3 105.61,-57.6 95.02,-57.72 97.41,-64.3"/>
</g>
<!-- Node11 -->
<g id="node9" class="node">
<title>Node11</title>
<g id="a_node9"><a xlink:href="streamTrace_8cpp.html#ae00e6addd3bdf3a7fd41a254eb9aec89" target="_top" xlink:title=" ">
<polygon fill="white" stroke="black" points="101,-0.5 101,-19.5 165,-19.5 165,-0.5 101,-0.5"/>
<text text-anchor="middle" x="133" y="-7.5" font-family="Helvetica,sans-Serif" font-size="10.00">tracepdeex</text>
</a>
</g>
</g>
<!-- Node1&#45;&gt;Node11 -->
<g id="edge8" class="edge">
<title>Node1&#45;&gt;Node11</title>
<path fill="none" stroke="midnightblue" d="M35.87,-76.49C47.03,-64.25 67.84,-42.92 89,-29 91.73,-27.21 94.65,-25.51 97.65,-23.92"/>
<polygon fill="midnightblue" stroke="midnightblue" points="99.25,-27.03 106.71,-19.51 96.19,-20.74 99.25,-27.03"/>
</g>
<!-- Node3 -->
<g id="node3" class="node">
<title>Node3</title>
<g id="a_node3"><a xlink:href="structSatSys.html#abfd7e43b0d57c2718d05ca595ee360dd" target="_top" xlink:title="Returns the character used as a prefix for this system.">
<polygon fill="white" stroke="black" points="213,-152.5 213,-171.5 301,-171.5 301,-152.5 213,-152.5"/>
<text text-anchor="middle" x="257" y="-159.5" font-family="Helvetica,sans-Serif" font-size="10.00">SatSys::sysChar</text>
</a>
</g>
</g>
<!-- Node2&#45;&gt;Node3 -->
<g id="edge2" class="edge">
<title>Node2&#45;&gt;Node3</title>
<path fill="none" stroke="midnightblue" d="M170.27,-162C180.39,-162 191.59,-162 202.47,-162"/>
<polygon fill="midnightblue" stroke="midnightblue" points="202.76,-165.5 212.76,-162 202.76,-158.5 202.76,-165.5"/>
</g>
<!-- Node6 -->
<g id="node6" class="node">
<title>Node6</title>
<g id="a_node6"><a xlink:href="algebra__old_8cpp.html#addee52380c690a50fa0048924c67bc92" target="_top" xlink:title=" ">
<polygon fill="white" stroke="black" points="242,-76.5 242,-95.5 272,-95.5 272,-76.5 242,-76.5"/>
<text text-anchor="middle" x="257" y="-83.5" font-family="Helvetica,sans-Serif" font-size="10.00">dot</text>
</a>
</g>
</g>
<!-- Node5&#45;&gt;Node6 -->
<g id="edge5" class="edge">
<title>Node5&#45;&gt;Node6</title>
<path fill="none" stroke="midnightblue" d="M152,-86C173.06,-86 208.02,-86 231.53,-86"/>
<polygon fill="midnightblue" stroke="midnightblue" points="231.74,-89.5 241.74,-86 231.74,-82.5 231.74,-89.5"/>
</g>
<!-- Node8 -->
<g id="node8" class="node">
<title>Node8</title>
<g id="a_node8"><a xlink:href="gTime_8cpp.html#a016d7b64e67752afcd07e5074a3cc516" target="_top" xlink:title=" ">
<polygon fill="white" stroke="red" points="231,-38.5 231,-57.5 283,-57.5 283,-38.5 231,-38.5"/>
<text text-anchor="middle" x="257" y="-45.5" font-family="Helvetica,sans-Serif" font-size="10.00">time2str</text>
</a>
</g>
</g>
<!-- Node7&#45;&gt;Node8 -->
<g id="edge7" class="edge">
<title>Node7&#45;&gt;Node8</title>
<path fill="none" stroke="midnightblue" d="M177.01,-48C191.2,-48 206.8,-48 220.37,-48"/>
<polygon fill="midnightblue" stroke="midnightblue" points="220.75,-51.5 230.75,-48 220.75,-44.5 220.75,-51.5"/>
</g>
</g>
</svg>
