<?xml version="1.0" encoding="UTF-8" standalone="no"?>
<!DOCTYPE svg PUBLIC "-//W3C//DTD SVG 1.1//EN"
 "http://www.w3.org/Graphics/SVG/1.1/DTD/svg11.dtd">
<!-- Generated by graphviz version 2.50.0 (20220203.2022)
 -->
<!-- Title: pephclk Pages: 1 -->
<svg width="489pt" height="208pt"
 viewBox="0.00 0.00 489.00 208.00" xmlns="http://www.w3.org/2000/svg" xmlns:xlink="http://www.w3.org/1999/xlink">
<g id="graph0" class="graph" transform="scale(1 1) rotate(0) translate(4 204)">
<title>pephclk</title>
<polygon fill="white" stroke="transparent" points="-4,4 -4,-204 485,-204 485,4 -4,4"/>
<!-- Node1 -->
<g id="node1" class="node">
<title>Node1</title>
<g id="a_node1"><a xlink:title=" ">
<polygon fill="#bfbfbf" stroke="black" points="431,-85.5 431,-104.5 481,-104.5 481,-85.5 431,-85.5"/>
<text text-anchor="middle" x="456" y="-92.5" font-family="Helvetica,sans-Serif" font-size="10.00">pephclk</text>
</a>
</g>
</g>
<!-- Node2 -->
<g id="node2" class="node">
<title>Node2</title>
<g id="a_node2"><a xlink:href="rinexClkWrite_8cpp.html#a38af028a37fcf21d64d43bb78264ad81" target="_top" xlink:title=" ">
<polygon fill="white" stroke="black" points="295,-180.5 295,-199.5 395,-199.5 395,-180.5 295,-180.5"/>
<text text-anchor="middle" x="345" y="-187.5" font-family="Helvetica,sans-Serif" font-size="10.00">getPreciseRecClks</text>
</a>
</g>
</g>
<!-- Node1&#45;&gt;Node2 -->
<g id="edge1" class="edge">
<title>Node1&#45;&gt;Node2</title>
<path fill="none" stroke="midnightblue" d="M442.95,-113.12C431.9,-128.67 414.36,-150.9 395,-166 387.6,-171.77 378.6,-176.66 370.34,-180.5"/>
<polygon fill="midnightblue" stroke="midnightblue" points="445.86,-115.06 448.66,-104.84 440.1,-111.08 445.86,-115.06"/>
</g>
<!-- Node11 -->
<g id="node5" class="node">
<title>Node11</title>
<g id="a_node5"><a xlink:href="ppp_8cpp.html#a2819b8840bd01cf172f0bda75f89efcc" target="_top" xlink:title=" ">
<polygon fill="white" stroke="black" points="186.5,-142.5 186.5,-161.5 257.5,-161.5 257.5,-142.5 186.5,-142.5"/>
<text text-anchor="middle" x="222" y="-149.5" font-family="Helvetica,sans-Serif" font-size="10.00">outputApriori</text>
</a>
</g>
</g>
<!-- Node1&#45;&gt;Node11 -->
<g id="edge4" class="edge">
<title>Node1&#45;&gt;Node11</title>
<path fill="none" stroke="midnightblue" d="M435.28,-110.72C424.11,-118.77 409.51,-127.91 395,-133 349.36,-149.01 293.09,-152.4 257.62,-152.71"/>
<polygon fill="midnightblue" stroke="midnightblue" points="437.54,-113.41 443.44,-104.61 433.34,-107.81 437.54,-113.41"/>
</g>
<!-- Node12 -->
<g id="node6" class="node">
<title>Node12</title>
<g id="a_node6"><a xlink:href="preceph_8cpp.html#a456852b89b6a5953b7a551854482c2dd" target="_top" xlink:title=" ">
<polygon fill="white" stroke="black" points="315.5,-104.5 315.5,-123.5 374.5,-123.5 374.5,-104.5 315.5,-104.5"/>
<text text-anchor="middle" x="345" y="-111.5" font-family="Helvetica,sans-Serif" font-size="10.00">peph2pos</text>
</a>
</g>
</g>
<!-- Node1&#45;&gt;Node12 -->
<g id="edge6" class="edge">
<title>Node1&#45;&gt;Node12</title>
<path fill="none" stroke="midnightblue" d="M420.56,-101C405.82,-103.57 388.81,-106.54 374.76,-108.99"/>
<polygon fill="midnightblue" stroke="midnightblue" points="421.56,-104.38 430.81,-99.22 420.36,-97.49 421.56,-104.38"/>
</g>
<!-- Node25 -->
<g id="node8" class="node">
<title>Node25</title>
<g id="a_node8"><a xlink:href="ppp__user_8cpp.html#a6840432dd58d1e58178b15080b92bdd8" target="_top" xlink:title=" ">
<polygon fill="white" stroke="black" points="317,-66.5 317,-85.5 373,-85.5 373,-66.5 317,-66.5"/>
<text text-anchor="middle" x="345" y="-73.5" font-family="Helvetica,sans-Serif" font-size="10.00">ppp_filter</text>
</a>
</g>
</g>
<!-- Node1&#45;&gt;Node25 -->
<g id="edge8" class="edge">
<title>Node1&#45;&gt;Node25</title>
<path fill="none" stroke="midnightblue" d="M420.67,-89.02C405.36,-86.35 387.56,-83.24 373.19,-80.74"/>
<polygon fill="midnightblue" stroke="midnightblue" points="420.36,-92.51 430.81,-90.78 421.56,-85.62 420.36,-92.51"/>
</g>
<!-- Node17 -->
<g id="node10" class="node">
<title>Node17</title>
<g id="a_node10"><a xlink:href="ephemeris_8cpp.html#a24cd8a842f9d8dbf3b035cfcd61862a0" target="_top" xlink:title="satellite positions and clocks.">
<polygon fill="white" stroke="red" points="319.5,-28.5 319.5,-47.5 370.5,-47.5 370.5,-28.5 319.5,-28.5"/>
<text text-anchor="middle" x="345" y="-35.5" font-family="Helvetica,sans-Serif" font-size="10.00">satposs</text>
</a>
</g>
</g>
<!-- Node1&#45;&gt;Node17 -->
<g id="edge10" class="edge">
<title>Node1&#45;&gt;Node17</title>
<path fill="none" stroke="midnightblue" d="M433.03,-79.63C421.93,-72.25 408.07,-63.6 395,-57 387.26,-53.1 378.52,-49.47 370.58,-46.46"/>
<polygon fill="midnightblue" stroke="midnightblue" points="431.38,-82.75 441.62,-85.46 435.31,-76.95 431.38,-82.75"/>
</g>
<!-- Node21 -->
<g id="node11" class="node">
<title>Node21</title>
<g id="a_node11"><a xlink:href="ppppp__obs_8cpp.html#a3db2ffced7ab37c4874c3a53fcb7953e" target="_top" xlink:title=" ">
<polygon fill="white" stroke="red" points="189,-0.5 189,-19.5 255,-19.5 255,-0.5 189,-0.5"/>
<text text-anchor="middle" x="222" y="-7.5" font-family="Helvetica,sans-Serif" font-size="10.00">stationPPP</text>
</a>
</g>
</g>
<!-- Node1&#45;&gt;Node21 -->
<g id="edge13" class="edge">
<title>Node1&#45;&gt;Node21</title>
<path fill="none" stroke="midnightblue" d="M446.15,-76.27C436.42,-58.06 418.94,-31.38 395,-19 350.78,3.88 291.32,0.8 255.15,-4.14"/>
<polygon fill="midnightblue" stroke="midnightblue" points="443.12,-78.03 450.75,-85.38 449.36,-74.87 443.12,-78.03"/>
</g>
<!-- Node3 -->
<g id="node3" class="node">
<title>Node3</title>
<g id="a_node3"><a xlink:href="rinexClkWrite_8cpp.html#a28b150df3243b4be7af0d94240cedc50" target="_top" xlink:title=" ">
<polygon fill="white" stroke="red" points="185,-180.5 185,-199.5 259,-199.5 259,-180.5 185,-180.5"/>
<text text-anchor="middle" x="222" y="-187.5" font-family="Helvetica,sans-Serif" font-size="10.00">outputClocks</text>
</a>
</g>
</g>
<!-- Node2&#45;&gt;Node3 -->
<g id="edge2" class="edge">
<title>Node2&#45;&gt;Node3</title>
<path fill="none" stroke="midnightblue" d="M284.64,-190C275.94,-190 267.22,-190 259.18,-190"/>
<polygon fill="midnightblue" stroke="midnightblue" points="284.78,-193.5 294.78,-190 284.78,-186.5 284.78,-193.5"/>
</g>
<!-- Node4 -->
<g id="node4" class="node">
<title>Node4</title>
<g id="a_node4"><a xlink:href="main_8cpp.html#a052aae1f895ebdbdaf816f70d9287e78" target="_top" xlink:title=" ">
<polygon fill="white" stroke="red" points="0,-156 0,-186 149,-186 149,-156 0,-156"/>
<text text-anchor="start" x="8" y="-174" font-family="Helvetica,sans-Serif" font-size="10.00">mainPerEpochPostProcessing</text>
<text text-anchor="middle" x="74.5" y="-163" font-family="Helvetica,sans-Serif" font-size="10.00">AndOutputs</text>
</a>
</g>
</g>
<!-- Node3&#45;&gt;Node4 -->
<g id="edge3" class="edge">
<title>Node3&#45;&gt;Node4</title>
<path fill="none" stroke="midnightblue" d="M174.64,-183.95C166.49,-182.88 157.82,-181.75 149.13,-180.62"/>
<polygon fill="midnightblue" stroke="midnightblue" points="174.29,-187.43 184.66,-185.25 175.2,-180.49 174.29,-187.43"/>
</g>
<!-- Node11&#45;&gt;Node4 -->
<g id="edge5" class="edge">
<title>Node11&#45;&gt;Node4</title>
<path fill="none" stroke="midnightblue" d="M176.08,-157.87C167.54,-158.98 158.41,-160.17 149.25,-161.37"/>
<polygon fill="midnightblue" stroke="midnightblue" points="176.69,-161.32 186.15,-156.55 175.78,-154.38 176.69,-161.32"/>
</g>
<!-- Node13 -->
<g id="node7" class="node">
<title>Node13</title>
<g id="a_node7"><a xlink:href="preceph_8cpp.html#a5de24b59b2c115a07bdf76fca0efdda8" target="_top" xlink:title=" ">
<polygon fill="white" stroke="red" points="192.5,-104.5 192.5,-123.5 251.5,-123.5 251.5,-104.5 192.5,-104.5"/>
<text text-anchor="middle" x="222" y="-111.5" font-family="Helvetica,sans-Serif" font-size="10.00">peph2pos</text>
</a>
</g>
</g>
<!-- Node12&#45;&gt;Node13 -->
<g id="edge7" class="edge">
<title>Node12&#45;&gt;Node13</title>
<path fill="none" stroke="midnightblue" d="M304.98,-114C287.72,-114 267.78,-114 251.89,-114"/>
<polygon fill="midnightblue" stroke="midnightblue" points="305.32,-117.5 315.32,-114 305.32,-110.5 305.32,-117.5"/>
</g>
<!-- Node19 -->
<g id="node9" class="node">
<title>Node19</title>
<g id="a_node9"><a xlink:href="ppp__user_8cpp.html#aad22d0ff0d06af12ea66aefd09d89af3" target="_top" xlink:title=" ">
<polygon fill="white" stroke="red" points="200.5,-57.5 200.5,-76.5 243.5,-76.5 243.5,-57.5 200.5,-57.5"/>
<text text-anchor="middle" x="222" y="-64.5" font-family="Helvetica,sans-Serif" font-size="10.00">pppos</text>
</a>
</g>
</g>
<!-- Node25&#45;&gt;Node19 -->
<g id="edge9" class="edge">
<title>Node25&#45;&gt;Node19</title>
<path fill="none" stroke="midnightblue" d="M306.75,-73.23C286,-71.69 260.94,-69.82 243.67,-68.54"/>
<polygon fill="midnightblue" stroke="midnightblue" points="306.61,-76.73 316.85,-73.98 307.13,-69.75 306.61,-76.73"/>
</g>
<!-- Node17&#45;&gt;Node19 -->
<g id="edge11" class="edge">
<title>Node17&#45;&gt;Node19</title>
<path fill="none" stroke="midnightblue" d="M309.29,-46.32C288.09,-51.4 261.7,-57.73 243.72,-62.03"/>
<polygon fill="midnightblue" stroke="midnightblue" points="310.31,-49.67 319.22,-43.94 308.68,-42.87 310.31,-49.67"/>
</g>
<!-- Node17&#45;&gt;Node21 -->
<g id="edge12" class="edge">
<title>Node17&#45;&gt;Node21</title>
<path fill="none" stroke="midnightblue" d="M309.11,-29.93C292.09,-25.99 271.74,-21.28 255.11,-17.43"/>
<polygon fill="midnightblue" stroke="midnightblue" points="308.69,-33.42 319.22,-32.27 310.27,-26.6 308.69,-33.42"/>
</g>
</g>
</svg>
