<?xml version="1.0" encoding="UTF-8" standalone="no"?>
<!DOCTYPE svg PUBLIC "-//W3C//DTD SVG 1.1//EN"
 "http://www.w3.org/Graphics/SVG/1.1/DTD/svg11.dtd">
<!-- Generated by graphviz version 2.50.0 (20220203.2022)
 -->
<!-- Title: prm_gravity Pages: 1 -->
<svg width="419pt" height="218pt"
 viewBox="0.00 0.00 419.00 218.00" xmlns="http://www.w3.org/2000/svg" xmlns:xlink="http://www.w3.org/1999/xlink">
<g id="graph0" class="graph" transform="scale(1 1) rotate(0) translate(4 214)">
<title>prm_gravity</title>
<polygon fill="white" stroke="transparent" points="-4,4 -4,-214 415,-214 415,4 -4,4"/>
<!-- Node1 -->
<g id="node1" class="node">
<title>Node1</title>
<g id="a_node1"><a xlink:title=" ">
<polygon fill="#bfbfbf" stroke="black" points="0,-133.5 0,-152.5 67,-152.5 67,-133.5 0,-133.5"/>
<text text-anchor="middle" x="33.5" y="-140.5" font-family="Helvetica,sans-Serif" font-size="10.00">prm_gravity</text>
</a>
</g>
</g>
<!-- Node2 -->
<g id="node2" class="node">
<title>Node2</title>
<g id="a_node2"><a xlink:href="namespacem__gfc.html#a5f7406996cafdc48f401657df79deef5" target="_top" xlink:title=" ">
<polygon fill="white" stroke="black" points="116,-190.5 116,-209.5 183,-209.5 183,-190.5 116,-190.5"/>
<text text-anchor="middle" x="149.5" y="-197.5" font-family="Helvetica,sans-Serif" font-size="10.00">m_gfc::gfc1</text>
</a>
</g>
</g>
<!-- Node1&#45;&gt;Node2 -->
<g id="edge1" class="edge">
<title>Node1&#45;&gt;Node2</title>
<path fill="none" stroke="midnightblue" d="M53.58,-152.54C71.83,-161.66 99.57,-175.53 120.35,-185.93"/>
<polygon fill="midnightblue" stroke="midnightblue" points="118.85,-189.09 129.36,-190.43 121.98,-182.83 118.85,-189.09"/>
</g>
<!-- Node3 -->
<g id="node3" class="node">
<title>Node3</title>
<g id="a_node3"><a xlink:href="sinex_8cpp.html#a06fabc81a2cc41dfee260450a527ad2d" target="_top" xlink:title=" ">
<polygon fill="white" stroke="black" points="364.5,-152.5 364.5,-171.5 397.5,-171.5 397.5,-152.5 364.5,-152.5"/>
<text text-anchor="middle" x="381" y="-159.5" font-family="Helvetica,sans-Serif" font-size="10.00">trim</text>
</a>
</g>
</g>
<!-- Node1&#45;&gt;Node3 -->
<g id="edge11" class="edge">
<title>Node1&#45;&gt;Node3</title>
<path fill="none" stroke="midnightblue" d="M67.24,-145.54C78.56,-146.38 91.34,-147.28 103,-148 195.49,-153.71 305.46,-158.75 354.36,-160.9"/>
<polygon fill="midnightblue" stroke="midnightblue" points="354.23,-164.39 364.37,-161.33 354.54,-157.4 354.23,-164.39"/>
</g>
<!-- Node4 -->
<g id="node4" class="node">
<title>Node4</title>
<g id="a_node4"><a xlink:href="namespacem__gfc.html#afc584f3636a4453bb8c5810c4b1a3ec3" target="_top" xlink:title=" ">
<polygon fill="white" stroke="black" points="240,-114.5 240,-133.5 307,-133.5 307,-114.5 240,-114.5"/>
<text text-anchor="middle" x="273.5" y="-121.5" font-family="Helvetica,sans-Serif" font-size="10.00">m_gfc::gfc2</text>
</a>
</g>
</g>
<!-- Node1&#45;&gt;Node4 -->
<g id="edge3" class="edge">
<title>Node1&#45;&gt;Node4</title>
<path fill="none" stroke="midnightblue" d="M67.09,-140.4C109.35,-137.02 183.13,-131.13 229.82,-127.41"/>
<polygon fill="midnightblue" stroke="midnightblue" points="230.23,-130.89 239.92,-126.6 229.67,-123.91 230.23,-130.89"/>
</g>
<!-- Node6 -->
<g id="node6" class="node">
<title>Node6</title>
<g id="a_node6"><a xlink:href="namespacem__gfc3.html#a59f4ebb47172a72ea3e1785e765ad89c" target="_top" xlink:title=" ">
<polygon fill="white" stroke="black" points="103,-76.5 103,-95.5 196,-95.5 196,-76.5 103,-76.5"/>
<text text-anchor="middle" x="149.5" y="-83.5" font-family="Helvetica,sans-Serif" font-size="10.00">m_gfc3::gfc3_iers</text>
</a>
</g>
</g>
<!-- Node1&#45;&gt;Node6 -->
<g id="edge6" class="edge">
<title>Node1&#45;&gt;Node6</title>
<path fill="none" stroke="midnightblue" d="M53.58,-133.46C71.83,-124.34 99.57,-110.47 120.35,-100.07"/>
<polygon fill="midnightblue" stroke="midnightblue" points="121.98,-103.17 129.36,-95.57 118.85,-96.91 121.98,-103.17"/>
</g>
<!-- Node2&#45;&gt;Node3 -->
<g id="edge2" class="edge">
<title>Node2&#45;&gt;Node3</title>
<path fill="none" stroke="midnightblue" d="M183.07,-195.91C216.33,-191.57 269.41,-184.23 315,-176 328.09,-173.64 342.57,-170.57 354.53,-167.9"/>
<polygon fill="midnightblue" stroke="midnightblue" points="355.32,-171.31 364.3,-165.69 353.77,-164.48 355.32,-171.31"/>
</g>
<!-- Node4&#45;&gt;Node3 -->
<g id="edge5" class="edge">
<title>Node4&#45;&gt;Node3</title>
<path fill="none" stroke="midnightblue" d="M301.12,-133.59C317.45,-139.47 338.24,-146.96 354.37,-152.77"/>
<polygon fill="midnightblue" stroke="midnightblue" points="353.62,-156.22 364.21,-156.31 355.99,-149.63 353.62,-156.22"/>
</g>
<!-- Node5 -->
<g id="node5" class="node">
<title>Node5</title>
<g id="a_node5"><a xlink:href="cal2jd_8for.html#af9bdf5980bab8c8324930b1a0af0175a" target="_top" xlink:title=" ">
<polygon fill="white" stroke="black" points="351,-95.5 351,-114.5 411,-114.5 411,-95.5 351,-95.5"/>
<text text-anchor="middle" x="381" y="-102.5" font-family="Helvetica,sans-Serif" font-size="10.00">iau_cal2jd</text>
</a>
</g>
</g>
<!-- Node4&#45;&gt;Node5 -->
<g id="edge4" class="edge">
<title>Node4&#45;&gt;Node5</title>
<path fill="none" stroke="midnightblue" d="M307.01,-118.14C317.77,-116.21 329.85,-114.03 341.03,-112.02"/>
<polygon fill="midnightblue" stroke="midnightblue" points="341.77,-115.44 350.99,-110.22 340.53,-108.55 341.77,-115.44"/>
</g>
<!-- Node6&#45;&gt;Node4 -->
<g id="edge7" class="edge">
<title>Node6&#45;&gt;Node4</title>
<path fill="none" stroke="midnightblue" d="M181.29,-95.59C196.6,-100.36 215.32,-106.19 231.8,-111.32"/>
<polygon fill="midnightblue" stroke="midnightblue" points="231.14,-114.78 241.72,-114.41 233.22,-108.1 231.14,-114.78"/>
</g>
<!-- Node6&#45;&gt;Node5 -->
<g id="edge8" class="edge">
<title>Node6&#45;&gt;Node5</title>
<path fill="none" stroke="midnightblue" d="M196.12,-89.78C238.36,-93.27 300.52,-98.42 340.64,-101.74"/>
<polygon fill="midnightblue" stroke="midnightblue" points="340.58,-105.25 350.83,-102.59 341.15,-98.27 340.58,-105.25"/>
</g>
<!-- Node7 -->
<g id="node7" class="node">
<title>Node7</title>
<g id="a_node7"><a xlink:href="jd2cal_8for.html#a9bed91282551283d85294092fe0cc509" target="_top" xlink:title=" ">
<polygon fill="white" stroke="black" points="243.5,-38.5 243.5,-57.5 303.5,-57.5 303.5,-38.5 243.5,-38.5"/>
<text text-anchor="middle" x="273.5" y="-45.5" font-family="Helvetica,sans-Serif" font-size="10.00">iau_jd2cal</text>
</a>
</g>
</g>
<!-- Node6&#45;&gt;Node7 -->
<g id="edge9" class="edge">
<title>Node6&#45;&gt;Node7</title>
<path fill="none" stroke="midnightblue" d="M181.29,-76.41C197.22,-71.45 216.83,-65.34 233.78,-60.06"/>
<polygon fill="midnightblue" stroke="midnightblue" points="234.9,-63.38 243.4,-57.06 232.82,-56.69 234.9,-63.38"/>
</g>
<!-- Node8 -->
<g id="node8" class="node">
<title>Node8</title>
<g id="a_node8"><a xlink:href="IERS__CMP__2015_8F.html#ac4ece299e55962f539a6a94c65c89f6d" target="_top" xlink:title=" ">
<polygon fill="white" stroke="black" points="232,-0.5 232,-19.5 315,-19.5 315,-0.5 232,-0.5"/>
<text text-anchor="middle" x="273.5" y="-7.5" font-family="Helvetica,sans-Serif" font-size="10.00">iers_cmp_2015</text>
</a>
</g>
</g>
<!-- Node6&#45;&gt;Node8 -->
<g id="edge10" class="edge">
<title>Node6&#45;&gt;Node8</title>
<path fill="none" stroke="midnightblue" d="M162.76,-76.42C178.34,-64.49 206.29,-43.87 232,-29 234.89,-27.33 237.95,-25.68 241.05,-24.1"/>
<polygon fill="midnightblue" stroke="midnightblue" points="242.84,-27.12 250.29,-19.58 239.77,-20.83 242.84,-27.12"/>
</g>
</g>
</svg>
