<?xml version="1.0" encoding="UTF-8" standalone="no"?>
<!DOCTYPE svg PUBLIC "-//W3C//DTD SVG 1.1//EN"
 "http://www.w3.org/Graphics/SVG/1.1/DTD/svg11.dtd">
<!-- Generated by graphviz version 2.50.0 (20220203.2022)
 -->
<!-- Title: prm_orbext Pages: 1 -->
<svg width="357pt" height="66pt"
 viewBox="0.00 0.00 357.00 66.00" xmlns="http://www.w3.org/2000/svg" xmlns:xlink="http://www.w3.org/1999/xlink">
<g id="graph0" class="graph" transform="scale(1 1) rotate(0) translate(4 62)">
<title>prm_orbext</title>
<polygon fill="white" stroke="transparent" points="-4,4 -4,-62 353,-62 353,4 -4,4"/>
<!-- Node1 -->
<g id="node1" class="node">
<title>Node1</title>
<g id="a_node1"><a xlink:title=" ">
<polygon fill="#bfbfbf" stroke="black" points="284,-19.5 284,-38.5 349,-38.5 349,-19.5 284,-19.5"/>
<text text-anchor="middle" x="316.5" y="-26.5" font-family="Helvetica,sans-Serif" font-size="10.00">prm_orbext</text>
</a>
</g>
</g>
<!-- Node2 -->
<g id="node2" class="node">
<title>Node2</title>
<g id="a_node2"><a xlink:href="namespacem__orbext.html#a5d9ae5d81af99b9d31eee5b6ec19d51f" target="_top" xlink:title=" ">
<polygon fill="white" stroke="black" points="155.5,-38.5 155.5,-57.5 242.5,-57.5 242.5,-38.5 155.5,-38.5"/>
<text text-anchor="middle" x="199" y="-45.5" font-family="Helvetica,sans-Serif" font-size="10.00">m_orbext::orbext</text>
</a>
</g>
</g>
<!-- Node1&#45;&gt;Node2 -->
<g id="edge1" class="edge">
<title>Node1&#45;&gt;Node2</title>
<path fill="none" stroke="midnightblue" d="M273.75,-35.87C263.68,-37.52 252.9,-39.3 242.78,-40.96"/>
<polygon fill="midnightblue" stroke="midnightblue" points="274.64,-39.27 283.94,-34.19 273.5,-32.36 274.64,-39.27"/>
</g>
<!-- Node5 -->
<g id="node4" class="node">
<title>Node5</title>
<g id="a_node4"><a xlink:href="namespacem__orbext2.html#a8edc32bdc671004ee3dcaa85b4f1f176" target="_top" xlink:title=" ">
<polygon fill="white" stroke="black" points="150,-0.5 150,-19.5 248,-19.5 248,-0.5 150,-0.5"/>
<text text-anchor="middle" x="199" y="-7.5" font-family="Helvetica,sans-Serif" font-size="10.00">m_orbext2::orbext2</text>
</a>
</g>
</g>
<!-- Node1&#45;&gt;Node5 -->
<g id="edge3" class="edge">
<title>Node1&#45;&gt;Node5</title>
<path fill="none" stroke="midnightblue" d="M273.82,-22.14C265.58,-20.79 256.87,-19.36 248.44,-17.97"/>
<polygon fill="midnightblue" stroke="midnightblue" points="273.5,-25.64 283.94,-23.81 274.64,-18.73 273.5,-25.64"/>
</g>
<!-- Node3 -->
<g id="node3" class="node">
<title>Node3</title>
<g id="a_node3"><a xlink:href="namespacem__orbitmain.html#a1f0644c9f3c2294329c1c62342d93717" target="_top" xlink:title=" ">
<polygon fill="white" stroke="red" points="0,-19.5 0,-38.5 114,-38.5 114,-19.5 0,-19.5"/>
<text text-anchor="middle" x="57" y="-26.5" font-family="Helvetica,sans-Serif" font-size="10.00">m_orbitmain::orbitmain</text>
</a>
</g>
</g>
<!-- Node2&#45;&gt;Node3 -->
<g id="edge2" class="edge">
<title>Node2&#45;&gt;Node3</title>
<path fill="none" stroke="midnightblue" d="M145.28,-40.85C135.12,-39.47 124.45,-38.02 114.18,-36.62"/>
<polygon fill="midnightblue" stroke="midnightblue" points="144.85,-44.32 155.23,-42.2 145.8,-37.38 144.85,-44.32"/>
</g>
<!-- Node5&#45;&gt;Node3 -->
<g id="edge4" class="edge">
<title>Node5&#45;&gt;Node3</title>
<path fill="none" stroke="midnightblue" d="M139.76,-17.9C131.39,-19.04 122.8,-20.21 114.46,-21.34"/>
<polygon fill="midnightblue" stroke="midnightblue" points="140.38,-21.35 149.82,-16.54 139.44,-14.42 140.38,-21.35"/>
</g>
</g>
</svg>
