<?xml version="1.0" encoding="UTF-8" standalone="no"?>
<!DOCTYPE svg PUBLIC "-//W3C//DTD SVG 1.1//EN"
 "http://www.w3.org/Graphics/SVG/1.1/DTD/svg11.dtd">
<!-- Generated by graphviz version 2.50.0 (20220203.2022)
 -->
<!-- Title: prm_pseudobs Pages: 1 -->
<!--zoomable 461 -->
<svg id="main" version="1.1" xmlns="http://www.w3.org/2000/svg" xmlns:xlink="http://www.w3.org/1999/xlink" xml:space="preserve" onload="init(evt)">
<style type="text/css"><![CDATA[
.edge:hover path { stroke: red; }
.edge:hover polygon { stroke: red; fill: red; }
]]></style>
<script type="text/javascript"><![CDATA[
var edges = document.getElementsByTagName('g');
if (edges && edges.length) {
  for (var i=0;i<edges.length;i++) {
    if (edges[i].id.substr(0,4)=='edge') {
      edges[i].setAttribute('class','edge');
    }
  }
}
]]></script>
        <defs>
                <circle id="rim" cx="0" cy="0" r="7"/>
                <circle id="rim2" cx="0" cy="0" r="3.5"/>
                <g id="zoomPlus">
                        <use xlink:href="#rim" fill="#404040">
                                <set attributeName="fill" to="#808080" begin="zoomplus.mouseover" end="zoomplus.mouseout"/>
                        </use>
                        <path d="M-4,0h8M0,-4v8" fill="none" stroke="white" stroke-width="1.5" pointer-events="none"/>
                </g>
                <g id="zoomMin">
                        <use xlink:href="#rim" fill="#404040">
                                <set attributeName="fill" to="#808080" begin="zoomminus.mouseover" end="zoomminus.mouseout"/>
                        </use>
                        <path d="M-4,0h8" fill="none" stroke="white" stroke-width="1.5" pointer-events="none"/>
                </g>
                <g id="dirArrow">
                        <path fill="none" stroke="white" stroke-width="1.5" d="M0,-3.0v7 M-2.5,-0.5L0,-3.0L2.5,-0.5"/>
                </g>
               <g id="resetDef">
                       <use xlink:href="#rim2" fill="#404040">
                               <set attributeName="fill" to="#808080" begin="reset.mouseover" end="reset.mouseout"/>
                       </use>
               </g>
        </defs>

<script type="text/javascript">
var viewWidth = 571;
var viewHeight = 461;
var sectionId = 'dynsection-0';
</script>
<script xlink:href="svgpan.js"/>
<svg id="graph" class="graph">
<g id="viewport">
<title>prm_pseudobs</title>
<polygon fill="white" stroke="transparent" points="-4,4 -4,-456.92 567,-456.92 567,4 -4,4"/>
<!-- Node1 -->
<g id="node1" class="node">
<title>Node1</title>
<g id="a_node1"><a xlink:title=" ">
<polygon fill="#bfbfbf" stroke="black" points="0,-250.5 0,-269.5 80,-269.5 80,-250.5 0,-250.5"/>
<text text-anchor="middle" x="40" y="-257.5" font-family="Helvetica,sans-Serif" font-size="10.00">prm_pseudobs</text>
</a>
</g>
</g>
<!-- Node2 -->
<g id="node2" class="node">
<title>Node2</title>
<g id="a_node2"><a xlink:href="namespacem__interporb.html#a631fd5c000c2c7afd7cd5f36179b4cc0" target="_top" xlink:title=" ">
<polygon fill="white" stroke="black" points="118.5,-321.5 118.5,-340.5 233.5,-340.5 233.5,-321.5 118.5,-321.5"/>
<text text-anchor="middle" x="176" y="-328.5" font-family="Helvetica,sans-Serif" font-size="10.00">m_interporb::interp_orb</text>
</a>
</g>
</g>
<!-- Node1&#45;&gt;Node2 -->
<g id="edge1" class="edge">
<title>Node1&#45;&gt;Node2</title>
<path fill="none" stroke="midnightblue" d="M59.07,-269.58C81.85,-281.64 121.22,-302.5 147.68,-316.52"/>
<polygon fill="midnightblue" stroke="midnightblue" points="146.31,-319.76 156.79,-321.35 149.59,-313.57 146.31,-319.76"/>
</g>
<!-- Node6 -->
<g id="node5" class="node">
<title>Node6</title>
<g id="a_node5"><a xlink:href="namespacem__sp3.html#aee5ee4c6b89b55a15add0857c52f3352" target="_top" xlink:title=" ">
<polygon fill="white" stroke="red" points="428,-343.5 428,-362.5 494,-362.5 494,-343.5 428,-343.5"/>
<text text-anchor="middle" x="461" y="-350.5" font-family="Helvetica,sans-Serif" font-size="10.00">m_sp3::sp3</text>
</a>
</g>
</g>
<!-- Node1&#45;&gt;Node6 -->
<g id="edge23" class="edge">
<title>Node1&#45;&gt;Node6</title>
<path fill="none" stroke="midnightblue" d="M73.29,-250.46C137.98,-233.27 286.31,-203.68 392,-258 422.97,-273.92 442.99,-311.22 452.81,-334.06"/>
<polygon fill="midnightblue" stroke="midnightblue" points="449.6,-335.46 456.61,-343.41 456.09,-332.83 449.6,-335.46"/>
</g>
<!-- Node10 -->
<g id="node6" class="node">
<title>Node10</title>
<g id="a_node6"><a xlink:href="sinex_8cpp.html#a06fabc81a2cc41dfee260450a527ad2d" target="_top" xlink:title=" ">
<polygon fill="white" stroke="black" points="530,-398.5 530,-417.5 563,-417.5 563,-398.5 530,-398.5"/>
<text text-anchor="middle" x="546.5" y="-405.5" font-family="Helvetica,sans-Serif" font-size="10.00">trim</text>
</a>
</g>
</g>
<!-- Node1&#45;&gt;Node10 -->
<g id="edge24" class="edge">
<title>Node1&#45;&gt;Node10</title>
<path fill="none" stroke="midnightblue" d="M47.35,-269.57C59.28,-287.05 86.52,-324.7 116,-350 177.43,-402.71 194.01,-422.32 272,-444 361.17,-468.79 471.57,-435.64 520.33,-417.9"/>
<polygon fill="midnightblue" stroke="midnightblue" points="521.63,-421.15 529.77,-414.37 519.18,-414.59 521.63,-421.15"/>
</g>
<!-- Node14 -->
<g id="node7" class="node">
<title>Node14</title>
<g id="a_node7"><a xlink:href="namespacem__orb__outlier.html#a7bd1e6e8621b6ed600466a1c4d5851bf" target="_top" xlink:title=" ">
<polygon fill="white" stroke="black" points="285.5,-267 285.5,-297 378.5,-297 378.5,-267 285.5,-267"/>
<text text-anchor="start" x="293.5" y="-285" font-family="Helvetica,sans-Serif" font-size="10.00">m_orb_outlier::orb</text>
<text text-anchor="middle" x="332" y="-274" font-family="Helvetica,sans-Serif" font-size="10.00">_outlier</text>
</a>
</g>
</g>
<!-- Node1&#45;&gt;Node14 -->
<g id="edge15" class="edge">
<title>Node1&#45;&gt;Node14</title>
<path fill="none" stroke="midnightblue" d="M80.11,-262.97C130.32,-266.78 217.79,-273.41 275.04,-277.75"/>
<polygon fill="midnightblue" stroke="midnightblue" points="275.12,-281.27 285.36,-278.54 275.65,-274.29 275.12,-281.27"/>
</g>
<!-- Node15 -->
<g id="node8" class="node">
<title>Node15</title>
<g id="a_node8"><a xlink:href="namespacem__obsorbt2c.html#a23877ecd7325dd1180eb315c14d3a6a6" target="_top" xlink:title=" ">
<polygon fill="white" stroke="black" points="116,-133.5 116,-152.5 236,-152.5 236,-133.5 116,-133.5"/>
<text text-anchor="middle" x="176" y="-140.5" font-family="Helvetica,sans-Serif" font-size="10.00">m_obsorbt2c::obsorbt2c</text>
</a>
</g>
</g>
<!-- Node1&#45;&gt;Node15 -->
<g id="edge8" class="edge">
<title>Node1&#45;&gt;Node15</title>
<path fill="none" stroke="midnightblue" d="M51.97,-250.43C74.84,-230.46 127.85,-184.17 156.25,-159.37"/>
<polygon fill="midnightblue" stroke="midnightblue" points="158.65,-161.92 163.88,-152.71 154.05,-156.65 158.65,-161.92"/>
</g>
<!-- Node56 -->
<g id="node15" class="node">
<title>Node56</title>
<g id="a_node15"><a xlink:href="namespacem__orbt2c.html#a876ee97d4b7569bf142ff8abf3512555" target="_top" xlink:title=" ">
<polygon fill="white" stroke="black" points="131.5,-95.5 131.5,-114.5 220.5,-114.5 220.5,-95.5 131.5,-95.5"/>
<text text-anchor="middle" x="176" y="-102.5" font-family="Helvetica,sans-Serif" font-size="10.00">m_orbt2c::orbt2c</text>
</a>
</g>
</g>
<!-- Node1&#45;&gt;Node56 -->
<g id="edge16" class="edge">
<title>Node1&#45;&gt;Node56</title>
<path fill="none" stroke="midnightblue" d="M43.66,-250.14C50.91,-225.22 73.34,-159.15 116,-124 118.15,-122.23 120.46,-120.63 122.88,-119.17"/>
<polygon fill="midnightblue" stroke="midnightblue" points="124.72,-122.17 132.05,-114.52 121.55,-115.92 124.72,-122.17"/>
</g>
<!-- Node3 -->
<g id="node3" class="node">
<title>Node3</title>
<g id="a_node3"><a xlink:href="namespacem__interporb__filt.html#a778b59f6651da23effe1eb30a90abaec" target="_top" xlink:title=" ">
<polygon fill="white" stroke="red" points="276.5,-404 276.5,-434 387.5,-434 387.5,-404 276.5,-404"/>
<text text-anchor="start" x="284.5" y="-422" font-family="Helvetica,sans-Serif" font-size="10.00">m_interporb_filt::interp</text>
<text text-anchor="middle" x="332" y="-411" font-family="Helvetica,sans-Serif" font-size="10.00">_orb_filt</text>
</a>
</g>
</g>
<!-- Node2&#45;&gt;Node3 -->
<g id="edge2" class="edge">
<title>Node2&#45;&gt;Node3</title>
<path fill="none" stroke="midnightblue" d="M191.92,-340.61C210.45,-352.42 243.15,-372.89 272,-389 278.07,-392.39 284.56,-395.85 290.94,-399.16"/>
<polygon fill="midnightblue" stroke="midnightblue" points="289.64,-402.43 300.14,-403.88 292.84,-396.2 289.64,-402.43"/>
</g>
<!-- Node5 -->
<g id="node4" class="node">
<title>Node5</title>
<g id="a_node4"><a xlink:href="namespacem__interporb__nom.html#a0b087fad3c04e3392428a7fd4676039e" target="_top" xlink:title=" ">
<polygon fill="white" stroke="red" points="272,-316 272,-346 392,-346 392,-316 272,-316"/>
<text text-anchor="start" x="280" y="-334" font-family="Helvetica,sans-Serif" font-size="10.00">m_interporb_nom::interp</text>
<text text-anchor="middle" x="332" y="-323" font-family="Helvetica,sans-Serif" font-size="10.00">_orb_nom</text>
</a>
</g>
</g>
<!-- Node2&#45;&gt;Node5 -->
<g id="edge3" class="edge">
<title>Node2&#45;&gt;Node5</title>
<path fill="none" stroke="midnightblue" d="M233.91,-331C242.97,-331 252.43,-331 261.73,-331"/>
<polygon fill="midnightblue" stroke="midnightblue" points="261.75,-334.5 271.75,-331 261.75,-327.5 261.75,-334.5"/>
</g>
<!-- Node2&#45;&gt;Node6 -->
<g id="edge7" class="edge">
<title>Node2&#45;&gt;Node6</title>
<path fill="none" stroke="midnightblue" d="M205.72,-340.62C224.37,-346.36 249.34,-353.07 272,-356 324.89,-362.84 338.68,-357.18 392,-356 400.32,-355.82 409.2,-355.51 417.71,-355.16"/>
<polygon fill="midnightblue" stroke="midnightblue" points="418,-358.65 427.84,-354.71 417.7,-351.65 418,-358.65"/>
</g>
<!-- Node2&#45;&gt;Node14 -->
<g id="edge6" class="edge">
<title>Node2&#45;&gt;Node14</title>
<path fill="none" stroke="midnightblue" d="M207.06,-321.44C226.51,-315.25 252.43,-307 275.54,-299.65"/>
<polygon fill="midnightblue" stroke="midnightblue" points="276.77,-302.93 285.24,-296.56 274.65,-296.26 276.77,-302.93"/>
</g>
<!-- Node5&#45;&gt;Node6 -->
<g id="edge4" class="edge">
<title>Node5&#45;&gt;Node6</title>
<path fill="none" stroke="midnightblue" d="M392.04,-341.23C400.69,-342.73 409.46,-344.24 417.69,-345.67"/>
<polygon fill="midnightblue" stroke="midnightblue" points="417.32,-349.16 427.77,-347.42 418.52,-342.26 417.32,-349.16"/>
</g>
<!-- Node6&#45;&gt;Node10 -->
<g id="edge5" class="edge">
<title>Node6&#45;&gt;Node10</title>
<path fill="none" stroke="midnightblue" d="M476.54,-362.58C489.16,-370.89 507.64,-383.06 522.3,-392.72"/>
<polygon fill="midnightblue" stroke="midnightblue" points="520.57,-395.77 530.84,-398.34 524.42,-389.92 520.57,-395.77"/>
</g>
<!-- Node16 -->
<g id="node9" class="node">
<title>Node16</title>
<g id="a_node9"><a xlink:href="EOP_8f90.html#ae7a3de1bf2c72753f2eeb8e05d63f962" target="_top" xlink:title=" ">
<polygon fill="white" stroke="red" points="316,-190.5 316,-209.5 348,-209.5 348,-190.5 316,-190.5"/>
<text text-anchor="middle" x="332" y="-197.5" font-family="Helvetica,sans-Serif" font-size="10.00">eop</text>
</a>
</g>
</g>
<!-- Node15&#45;&gt;Node16 -->
<g id="edge9" class="edge">
<title>Node15&#45;&gt;Node16</title>
<path fill="none" stroke="midnightblue" d="M199.48,-152.5C218.63,-160.47 246.93,-171.96 272,-181 283.08,-185 295.48,-189.05 306.04,-192.38"/>
<polygon fill="midnightblue" stroke="midnightblue" points="305.28,-195.81 315.87,-195.44 307.36,-189.13 305.28,-195.81"/>
</g>
<!-- Node50 -->
<g id="node10" class="node">
<title>Node50</title>
<g id="a_node10"><a xlink:href="matrix__Rr_8f90.html#ac8734d74fb7ada7605575d3b9d26f2bb" target="_top" xlink:title=" ">
<polygon fill="white" stroke="red" points="305,-152.5 305,-171.5 359,-171.5 359,-152.5 305,-152.5"/>
<text text-anchor="middle" x="332" y="-159.5" font-family="Helvetica,sans-Serif" font-size="10.00">matrix_rr</text>
</a>
</g>
</g>
<!-- Node15&#45;&gt;Node50 -->
<g id="edge10" class="edge">
<title>Node15&#45;&gt;Node50</title>
<path fill="none" stroke="midnightblue" d="M236.1,-150.29C255.77,-152.72 277.09,-155.35 294.52,-157.5"/>
<polygon fill="midnightblue" stroke="midnightblue" points="294.48,-161.02 304.83,-158.77 295.34,-154.07 294.48,-161.02"/>
</g>
<!-- Node53 -->
<g id="node11" class="node">
<title>Node53</title>
<g id="a_node11"><a xlink:href="time__GPS_8f90.html#abc2a33c3ed6bda1d04db6c1e5ae6d0f2" target="_top" xlink:title=" ">
<polygon fill="white" stroke="red" points="304,-114.5 304,-133.5 360,-133.5 360,-114.5 304,-114.5"/>
<text text-anchor="middle" x="332" y="-121.5" font-family="Helvetica,sans-Serif" font-size="10.00">time_gps</text>
</a>
</g>
</g>
<!-- Node15&#45;&gt;Node53 -->
<g id="edge11" class="edge">
<title>Node15&#45;&gt;Node53</title>
<path fill="none" stroke="midnightblue" d="M236.1,-135.71C255.35,-133.33 276.17,-130.76 293.4,-128.64"/>
<polygon fill="midnightblue" stroke="midnightblue" points="294.12,-132.08 303.61,-127.38 293.26,-125.13 294.12,-132.08"/>
</g>
<!-- Node54 -->
<g id="node12" class="node">
<title>Node54</title>
<g id="a_node12"><a xlink:href="time__TAI_8f90.html#a100297f335efa93736f0ef563a5d0de0" target="_top" xlink:title=" ">
<polygon fill="white" stroke="red" points="306.5,-76.5 306.5,-95.5 357.5,-95.5 357.5,-76.5 306.5,-76.5"/>
<text text-anchor="middle" x="332" y="-83.5" font-family="Helvetica,sans-Serif" font-size="10.00">time_tai</text>
</a>
</g>
</g>
<!-- Node15&#45;&gt;Node54 -->
<g id="edge12" class="edge">
<title>Node15&#45;&gt;Node54</title>
<path fill="none" stroke="midnightblue" d="M210.14,-133.45C218.67,-130.68 227.77,-127.47 236,-124 252.67,-116.98 255.33,-112.02 272,-105 279.83,-101.7 288.43,-98.63 296.6,-95.97"/>
<polygon fill="midnightblue" stroke="midnightblue" points="297.77,-99.27 306.25,-92.92 295.66,-92.59 297.77,-99.27"/>
</g>
<!-- Node39 -->
<g id="node13" class="node">
<title>Node39</title>
<g id="a_node13"><a xlink:href="time__TT_8f90.html#aac4be73ca07f0d71843391b034a7d20e" target="_top" xlink:title=" ">
<polygon fill="white" stroke="red" points="308.5,-38.5 308.5,-57.5 355.5,-57.5 355.5,-38.5 308.5,-38.5"/>
<text text-anchor="middle" x="332" y="-45.5" font-family="Helvetica,sans-Serif" font-size="10.00">time_tt</text>
</a>
</g>
</g>
<!-- Node15&#45;&gt;Node39 -->
<g id="edge13" class="edge">
<title>Node15&#45;&gt;Node39</title>
<path fill="none" stroke="midnightblue" d="M219.13,-133.47C225.14,-131 230.98,-127.89 236,-124 259.68,-105.64 248.32,-85.36 272,-67 279.68,-61.04 289.29,-56.93 298.5,-54.09"/>
<polygon fill="midnightblue" stroke="midnightblue" points="299.48,-57.45 308.24,-51.49 297.68,-50.69 299.48,-57.45"/>
</g>
<!-- Node55 -->
<g id="node14" class="node">
<title>Node55</title>
<g id="a_node14"><a xlink:href="time__UTC_8f90.html#a5c5b31c8678ff9da6694a16d7bb9387f" target="_top" xlink:title=" ">
<polygon fill="white" stroke="red" points="305,-0.5 305,-19.5 359,-19.5 359,-0.5 305,-0.5"/>
<text text-anchor="middle" x="332" y="-7.5" font-family="Helvetica,sans-Serif" font-size="10.00">time_utc</text>
</a>
</g>
</g>
<!-- Node15&#45;&gt;Node55 -->
<g id="edge14" class="edge">
<title>Node15&#45;&gt;Node55</title>
<path fill="none" stroke="midnightblue" d="M221.96,-133.38C227.1,-130.93 231.94,-127.86 236,-124 268.73,-92.89 239.27,-60.11 272,-29 278.39,-22.93 286.73,-18.79 295.13,-15.98"/>
<polygon fill="midnightblue" stroke="midnightblue" points="296.2,-19.32 304.89,-13.25 294.31,-12.57 296.2,-19.32"/>
</g>
<!-- Node56&#45;&gt;Node16 -->
<g id="edge17" class="edge">
<title>Node56&#45;&gt;Node16</title>
<path fill="none" stroke="midnightblue" d="M219.13,-114.53C225.14,-117 230.98,-120.11 236,-124 259.68,-142.36 248.32,-162.64 272,-181 281.73,-188.55 294.55,-193.14 305.75,-195.92"/>
<polygon fill="midnightblue" stroke="midnightblue" points="305.34,-199.41 315.85,-198.06 306.79,-192.56 305.34,-199.41"/>
</g>
<!-- Node56&#45;&gt;Node50 -->
<g id="edge18" class="edge">
<title>Node56&#45;&gt;Node50</title>
<path fill="none" stroke="midnightblue" d="M210.14,-114.55C218.67,-117.32 227.77,-120.53 236,-124 252.67,-131.02 255.33,-135.98 272,-143 279.39,-146.11 287.48,-149.02 295.23,-151.59"/>
<polygon fill="midnightblue" stroke="midnightblue" points="294.21,-154.93 304.8,-154.63 296.33,-148.26 294.21,-154.93"/>
</g>
<!-- Node56&#45;&gt;Node53 -->
<g id="edge19" class="edge">
<title>Node56&#45;&gt;Node53</title>
<path fill="none" stroke="midnightblue" d="M220.72,-110.39C243.75,-113.24 271.7,-116.68 293.7,-119.4"/>
<polygon fill="midnightblue" stroke="midnightblue" points="293.3,-122.88 303.66,-120.63 294.16,-115.93 293.3,-122.88"/>
</g>
<!-- Node56&#45;&gt;Node54 -->
<g id="edge20" class="edge">
<title>Node56&#45;&gt;Node54</title>
<path fill="none" stroke="midnightblue" d="M220.72,-99.61C244.67,-96.65 273.94,-93.04 296.31,-90.28"/>
<polygon fill="midnightblue" stroke="midnightblue" points="296.87,-93.74 306.36,-89.04 296.01,-86.79 296.87,-93.74"/>
</g>
<!-- Node56&#45;&gt;Node39 -->
<g id="edge21" class="edge">
<title>Node56&#45;&gt;Node39</title>
<path fill="none" stroke="midnightblue" d="M199.48,-95.5C218.63,-87.53 246.93,-76.04 272,-67 280.59,-63.9 289.96,-60.77 298.65,-57.97"/>
<polygon fill="midnightblue" stroke="midnightblue" points="299.99,-61.22 308.46,-54.86 297.87,-54.55 299.99,-61.22"/>
</g>
<!-- Node56&#45;&gt;Node55 -->
<g id="edge22" class="edge">
<title>Node56&#45;&gt;Node55</title>
<path fill="none" stroke="midnightblue" d="M186.4,-95.49C202.55,-79.63 237.21,-47.7 272,-29 279.2,-25.13 287.32,-21.89 295.18,-19.23"/>
<polygon fill="midnightblue" stroke="midnightblue" points="296.41,-22.52 304.91,-16.19 294.32,-15.84 296.41,-22.52"/>
</g>
</g>
</svg>
        <g id="navigator" transform="translate(0 0)" fill="#404254">
                <rect fill="#f2f5e9" fill-opacity="0.5" stroke="#606060" stroke-width=".5" x="0" y="0" width="60" height="60"/>
                <use id="zoomplus" xlink:href="#zoomPlus" x="17" y="9" onmousedown="handleZoom(evt,'in')"/>
                <use id="zoomminus" xlink:href="#zoomMin" x="42" y="9" onmousedown="handleZoom(evt,'out')"/>
                <use id="reset" xlink:href="#resetDef" x="30" y="36" onmousedown="handleReset()"/>
                <g id="arrowUp" xlink:href="#dirArrow" transform="translate(30 24)" onmousedown="handlePan(0,-1)">
                  <use xlink:href="#rim" fill="#404040">
                        <set attributeName="fill" to="#808080" begin="arrowUp.mouseover" end="arrowUp.mouseout"/>
                  </use>
                  <path fill="none" stroke="white" stroke-width="1.5" d="M0,-3.0v7 M-2.5,-0.5L0,-3.0L2.5,-0.5"/>
                </g>
                <g id="arrowRight" xlink:href="#dirArrow" transform="rotate(90) translate(36 -43)" onmousedown="handlePan(1,0)">
                  <use xlink:href="#rim" fill="#404040">
                        <set attributeName="fill" to="#808080" begin="arrowRight.mouseover" end="arrowRight.mouseout"/>
                  </use>
                  <path fill="none" stroke="white" stroke-width="1.5" d="M0,-3.0v7 M-2.5,-0.5L0,-3.0L2.5,-0.5"/>
                </g>
                <g id="arrowDown" xlink:href="#dirArrow" transform="rotate(180) translate(-30 -48)" onmousedown="handlePan(0,1)">
                  <use xlink:href="#rim" fill="#404040">
                        <set attributeName="fill" to="#808080" begin="arrowDown.mouseover" end="arrowDown.mouseout"/>
                  </use>
                  <path fill="none" stroke="white" stroke-width="1.5" d="M0,-3.0v7 M-2.5,-0.5L0,-3.0L2.5,-0.5"/>
                </g>
                <g id="arrowLeft" xlink:href="#dirArrow" transform="rotate(270) translate(-36 17)" onmousedown="handlePan(-1,0)">
                  <use xlink:href="#rim" fill="#404040">
                        <set attributeName="fill" to="#808080" begin="arrowLeft.mouseover" end="arrowLeft.mouseout"/>
                  </use>
                  <path fill="none" stroke="white" stroke-width="1.5" d="M0,-3.0v7 M-2.5,-0.5L0,-3.0L2.5,-0.5"/>
                </g>
        </g>
        <svg viewBox="0 0 15 15" width="100%" height="30px" preserveAspectRatio="xMaxYMin meet">
         <g id="arrow_out" transform="scale(0.3 0.3)">
          <a xlink:href="prm__pseudobs_8f95_a9102cbfe661c31c134e733af690febc2_cgraph_org.svg" target="_base">
           <rect id="button" ry="5" rx="5" y="6" x="6" height="38" width="38"
                fill="#f2f5e9" fill-opacity="0.5" stroke="#606060" stroke-width="1.0"/>
           <path id="arrow"
             d="M 11.500037,31.436501 C 11.940474,20.09759 22.043105,11.32322 32.158766,21.979434 L 37.068811,17.246167 C 37.068811,17.246167 37.088388,32 37.088388,32 L 22.160133,31.978069 C 22.160133,31.978069 26.997745,27.140456 26.997745,27.140456 C 18.528582,18.264221 13.291696,25.230495 11.500037,31.436501 z"
             style="fill:#404040;"/>
          </a>
         </g>
        </svg>
</svg>
