<?xml version="1.0" encoding="UTF-8" standalone="no"?>
<!DOCTYPE svg PUBLIC "-//W3C//DTD SVG 1.1//EN"
 "http://www.w3.org/Graphics/SVG/1.1/DTD/svg11.dtd">
<!-- Generated by graphviz version 2.50.0 (20220203.2022)
 -->
<!-- Title: prm_ocean Pages: 1 -->
<svg width="255pt" height="47pt"
 viewBox="0.00 0.00 255.00 47.00" xmlns="http://www.w3.org/2000/svg" xmlns:xlink="http://www.w3.org/1999/xlink">
<g id="graph0" class="graph" transform="scale(1 1) rotate(0) translate(4 43)">
<title>prm_ocean</title>
<polygon fill="white" stroke="transparent" points="-4,4 -4,-43 251,-43 251,4 -4,4"/>
<!-- Node1 -->
<g id="node1" class="node">
<title>Node1</title>
<g id="a_node1"><a xlink:title=" ">
<polygon fill="#bfbfbf" stroke="black" points="0,-0.5 0,-19.5 65,-19.5 65,-0.5 0,-0.5"/>
<text text-anchor="middle" x="32.5" y="-7.5" font-family="Helvetica,sans-Serif" font-size="10.00">prm_ocean</text>
</a>
</g>
</g>
<!-- Node2 -->
<g id="node2" class="node">
<title>Node2</title>
<g id="a_node2"><a xlink:href="tides__fes2004_8f90.html#a7e0a347a115518239aeeb994b0c1f28a" target="_top" xlink:title=" ">
<polygon fill="white" stroke="black" points="101,-19.5 101,-38.5 178,-38.5 178,-19.5 101,-19.5"/>
<text text-anchor="middle" x="139.5" y="-26.5" font-family="Helvetica,sans-Serif" font-size="10.00">tides_fes2004</text>
</a>
</g>
</g>
<!-- Node1&#45;&gt;Node2 -->
<g id="edge1" class="edge">
<title>Node1&#45;&gt;Node2</title>
<path fill="none" stroke="midnightblue" d="M65,-15.7C73.08,-17.16 81.95,-18.77 90.65,-20.34"/>
<polygon fill="midnightblue" stroke="midnightblue" points="90.26,-23.83 100.72,-22.16 91.5,-16.94 90.26,-23.83"/>
</g>
<!-- Node3 -->
<g id="node3" class="node">
<title>Node3</title>
<g id="a_node3"><a xlink:href="sinex_8cpp.html#a06fabc81a2cc41dfee260450a527ad2d" target="_top" xlink:title=" ">
<polygon fill="white" stroke="black" points="214,-0.5 214,-19.5 247,-19.5 247,-0.5 214,-0.5"/>
<text text-anchor="middle" x="230.5" y="-7.5" font-family="Helvetica,sans-Serif" font-size="10.00">trim</text>
</a>
</g>
</g>
<!-- Node1&#45;&gt;Node3 -->
<g id="edge3" class="edge">
<title>Node1&#45;&gt;Node3</title>
<path fill="none" stroke="midnightblue" d="M65.43,-10C103.96,-10 168.01,-10 203.62,-10"/>
<polygon fill="midnightblue" stroke="midnightblue" points="203.69,-13.5 213.69,-10 203.69,-6.5 203.69,-13.5"/>
</g>
<!-- Node2&#45;&gt;Node3 -->
<g id="edge2" class="edge">
<title>Node2&#45;&gt;Node3</title>
<path fill="none" stroke="midnightblue" d="M178.24,-20.94C186.94,-19.09 195.99,-17.15 204.02,-15.44"/>
<polygon fill="midnightblue" stroke="midnightblue" points="204.83,-18.85 213.88,-13.34 203.37,-12 204.83,-18.85"/>
</g>
</g>
</svg>
