<?xml version="1.0" encoding="UTF-8" standalone="no"?>
<!DOCTYPE svg PUBLIC "-//W3C//DTD SVG 1.1//EN"
 "http://www.w3.org/Graphics/SVG/1.1/DTD/svg11.dtd">
<!-- Generated by graphviz version 2.50.0 (20220203.2022)
 -->
<!-- Title: prm_main Pages: 1 -->
<svg width="637pt" height="131pt"
 viewBox="0.00 0.00 637.00 131.20" xmlns="http://www.w3.org/2000/svg" xmlns:xlink="http://www.w3.org/1999/xlink">
<g id="graph0" class="graph" transform="scale(1 1) rotate(0) translate(4 127.2)">
<title>prm_main</title>
<polygon fill="white" stroke="transparent" points="-4,4 -4,-127.2 633,-127.2 633,4 -4,4"/>
<!-- Node1 -->
<g id="node1" class="node">
<title>Node1</title>
<g id="a_node1"><a xlink:title=" ">
<polygon fill="#bfbfbf" stroke="black" points="570,-69 570,-88 629,-88 629,-69 570,-69"/>
<text text-anchor="middle" x="599.5" y="-76" font-family="Helvetica,sans-Serif" font-size="10.00">prm_main</text>
</a>
</g>
</g>
<!-- Node2 -->
<g id="node2" class="node">
<title>Node2</title>
<g id="a_node2"><a xlink:href="namespacem__orbdet.html#a49487178b457ba359e3528454fee1a43" target="_top" xlink:title=" ">
<polygon fill="white" stroke="black" points="305,-88 305,-107 394,-107 394,-88 305,-88"/>
<text text-anchor="middle" x="349.5" y="-95" font-family="Helvetica,sans-Serif" font-size="10.00">m_orbdet::orbdet</text>
</a>
</g>
</g>
<!-- Node1&#45;&gt;Node2 -->
<g id="edge1" class="edge">
<title>Node1&#45;&gt;Node2</title>
<path fill="none" stroke="midnightblue" d="M578.15,-94.32C566.05,-102.7 549.99,-112.14 534,-116.5 481.01,-130.95 416.66,-117.51 379.96,-107.07"/>
<polygon fill="midnightblue" stroke="midnightblue" points="580.52,-96.92 586.56,-88.22 576.41,-91.25 580.52,-96.92"/>
</g>
<!-- Node4 -->
<g id="node4" class="node">
<title>Node4</title>
<g id="a_node4"><a xlink:href="namespacem__pod__gnss.html#acc5f9a213cb0b59b5e4d35e4d0ebdc72" target="_top" xlink:title=" ">
<polygon fill="white" stroke="black" points="0,-69 0,-88 119,-88 119,-69 0,-69"/>
<text text-anchor="middle" x="59.5" y="-76" font-family="Helvetica,sans-Serif" font-size="10.00">m_pod_gnss::pod_gnss</text>
</a>
</g>
</g>
<!-- Node1&#45;&gt;Node4 -->
<g id="edge6" class="edge">
<title>Node1&#45;&gt;Node4</title>
<path fill="none" stroke="midnightblue" d="M559.85,-78.5C466.77,-78.5 229.72,-78.5 119.06,-78.5"/>
<polygon fill="midnightblue" stroke="midnightblue" points="559.95,-82 569.95,-78.5 559.95,-75 559.95,-82"/>
</g>
<!-- Node5 -->
<g id="node5" class="node">
<title>Node5</title>
<g id="a_node5"><a xlink:href="namespacem__orbinteg.html#a5b2517e1f60f866948f18b9723198cff" target="_top" xlink:title=" ">
<polygon fill="white" stroke="black" points="430,-88 430,-107 534,-107 534,-88 430,-88"/>
<text text-anchor="middle" x="482" y="-95" font-family="Helvetica,sans-Serif" font-size="10.00">m_orbinteg::orbinteg</text>
</a>
</g>
</g>
<!-- Node1&#45;&gt;Node5 -->
<g id="edge4" class="edge">
<title>Node1&#45;&gt;Node5</title>
<path fill="none" stroke="midnightblue" d="M559.88,-84.85C551.64,-86.21 542.8,-87.66 534.17,-89.08"/>
<polygon fill="midnightblue" stroke="midnightblue" points="560.65,-88.27 569.95,-83.2 559.51,-81.37 560.65,-88.27"/>
</g>
<!-- Node6 -->
<g id="node6" class="node">
<title>Node6</title>
<g id="a_node6"><a xlink:href="namespacem__writeorbit__multi.html#a417e83d6d78aea1b32e8b66b2a8efde0" target="_top" xlink:title=" ">
<polygon fill="white" stroke="black" points="434,-0.5 434,-30.5 530,-30.5 530,-0.5 434,-0.5"/>
<text text-anchor="start" x="442" y="-18.5" font-family="Helvetica,sans-Serif" font-size="10.00">m_writeorbit_multi</text>
<text text-anchor="middle" x="482" y="-7.5" font-family="Helvetica,sans-Serif" font-size="10.00">::writeorbit_multi</text>
</a>
</g>
</g>
<!-- Node1&#45;&gt;Node6 -->
<g id="edge7" class="edge">
<title>Node1&#45;&gt;Node6</title>
<path fill="none" stroke="midnightblue" d="M571.97,-64.03C553.6,-54.01 529.22,-40.71 510.62,-30.57"/>
<polygon fill="midnightblue" stroke="midnightblue" points="570.5,-67.22 580.96,-68.93 573.86,-61.07 570.5,-67.22"/>
</g>
<!-- Node3 -->
<g id="node3" class="node">
<title>Node3</title>
<g id="a_node3"><a xlink:href="namespacem__orbitmain.html#a1f0644c9f3c2294329c1c62342d93717" target="_top" xlink:title=" ">
<polygon fill="white" stroke="black" points="155,-88 155,-107 269,-107 269,-88 155,-88"/>
<text text-anchor="middle" x="212" y="-95" font-family="Helvetica,sans-Serif" font-size="10.00">m_orbitmain::orbitmain</text>
</a>
</g>
</g>
<!-- Node2&#45;&gt;Node3 -->
<g id="edge2" class="edge">
<title>Node2&#45;&gt;Node3</title>
<path fill="none" stroke="midnightblue" d="M294.86,-97.5C286.5,-97.5 277.84,-97.5 269.41,-97.5"/>
<polygon fill="midnightblue" stroke="midnightblue" points="294.88,-101 304.88,-97.5 294.88,-94 294.88,-101"/>
</g>
<!-- Node3&#45;&gt;Node4 -->
<g id="edge3" class="edge">
<title>Node3&#45;&gt;Node4</title>
<path fill="none" stroke="midnightblue" d="M144.96,-89.16C136.35,-88.08 127.58,-86.97 119.1,-85.9"/>
<polygon fill="midnightblue" stroke="midnightblue" points="144.6,-92.64 154.96,-90.43 145.48,-85.7 144.6,-92.64"/>
</g>
<!-- Node5&#45;&gt;Node2 -->
<g id="edge5" class="edge">
<title>Node5&#45;&gt;Node2</title>
<path fill="none" stroke="midnightblue" d="M419.52,-97.5C411.03,-97.5 402.46,-97.5 394.37,-97.5"/>
<polygon fill="midnightblue" stroke="midnightblue" points="419.8,-101 429.8,-97.5 419.8,-94 419.8,-101"/>
</g>
</g>
</svg>
