<?xml version="1.0" encoding="UTF-8" standalone="no"?>
<!DOCTYPE svg PUBLIC "-//W3C//DTD SVG 1.1//EN"
 "http://www.w3.org/Graphics/SVG/1.1/DTD/svg11.dtd">
<!-- Generated by graphviz version 2.50.0 (20220203.2022)
 -->
<!-- Title: pwindup Pages: 1 -->
<svg width="341pt" height="218pt"
 viewBox="0.00 0.00 341.00 218.00" xmlns="http://www.w3.org/2000/svg" xmlns:xlink="http://www.w3.org/1999/xlink">
<g id="graph0" class="graph" transform="scale(1 1) rotate(0) translate(4 214)">
<title>pwindup</title>
<polygon fill="white" stroke="transparent" points="-4,4 -4,-214 337,-214 337,4 -4,4"/>
<!-- Node1 -->
<g id="node1" class="node">
<title>Node1</title>
<g id="a_node1"><a xlink:title=" ">
<polygon fill="#bfbfbf" stroke="black" points="0,-38.5 0,-57.5 53,-57.5 53,-38.5 0,-38.5"/>
<text text-anchor="middle" x="26.5" y="-45.5" font-family="Helvetica,sans-Serif" font-size="10.00">pwindup</text>
</a>
</g>
</g>
<!-- Node2 -->
<g id="node2" class="node">
<title>Node2</title>
<g id="a_node2"><a xlink:href="ENU_8f90.html#a7002bfac4c009044281b6b5ea21b6e9a" target="_top" xlink:title=" ">
<polygon fill="white" stroke="black" points="109.5,-114.5 109.5,-133.5 141.5,-133.5 141.5,-114.5 109.5,-114.5"/>
<text text-anchor="middle" x="125.5" y="-121.5" font-family="Helvetica,sans-Serif" font-size="10.00">enu</text>
</a>
</g>
</g>
<!-- Node1&#45;&gt;Node2 -->
<g id="edge1" class="edge">
<title>Node1&#45;&gt;Node2</title>
<path fill="none" stroke="midnightblue" d="M39.79,-57.63C56.04,-70.36 84.9,-92.97 104.36,-108.22"/>
<polygon fill="midnightblue" stroke="midnightblue" points="102.28,-111.04 112.31,-114.45 106.6,-105.53 102.28,-111.04"/>
</g>
<!-- Node9 -->
<g id="node8" class="node">
<title>Node9</title>
<g id="a_node8"><a xlink:href="productcross_8f90.html#a2e59e22456af10602cf068c75f925c76" target="_top" xlink:title=" ">
<polygon fill="white" stroke="black" points="89,-38.5 89,-57.5 162,-57.5 162,-38.5 89,-38.5"/>
<text text-anchor="middle" x="125.5" y="-45.5" font-family="Helvetica,sans-Serif" font-size="10.00">productcross</text>
</a>
</g>
</g>
<!-- Node1&#45;&gt;Node9 -->
<g id="edge8" class="edge">
<title>Node1&#45;&gt;Node9</title>
<path fill="none" stroke="midnightblue" d="M53.24,-48C61.07,-48 69.91,-48 78.65,-48"/>
<polygon fill="midnightblue" stroke="midnightblue" points="78.78,-51.5 88.78,-48 78.78,-44.5 78.78,-51.5"/>
</g>
<!-- Node10 -->
<g id="node9" class="node">
<title>Node10</title>
<g id="a_node9"><a xlink:href="productdot_8f90.html#a14430d9cb0b48474effeb33068eaf0ed" target="_top" xlink:title=" ">
<polygon fill="white" stroke="black" points="94.5,-0.5 94.5,-19.5 156.5,-19.5 156.5,-0.5 94.5,-0.5"/>
<text text-anchor="middle" x="125.5" y="-7.5" font-family="Helvetica,sans-Serif" font-size="10.00">productdot</text>
</a>
</g>
</g>
<!-- Node1&#45;&gt;Node10 -->
<g id="edge10" class="edge">
<title>Node1&#45;&gt;Node10</title>
<path fill="none" stroke="midnightblue" d="M51.98,-38.41C63.69,-33.82 77.92,-28.25 90.65,-23.26"/>
<polygon fill="midnightblue" stroke="midnightblue" points="92,-26.49 100.03,-19.59 89.44,-19.97 92,-26.49"/>
</g>
<!-- Node3 -->
<g id="node3" class="node">
<title>Node3</title>
<g id="a_node3"><a xlink:href="coord__r2sph_8f90.html#a434fdfd324d259f287bff1473e7d95b1" target="_top" xlink:title=" ">
<polygon fill="white" stroke="red" points="198,-190.5 198,-209.5 268,-209.5 268,-190.5 198,-190.5"/>
<text text-anchor="middle" x="233" y="-197.5" font-family="Helvetica,sans-Serif" font-size="10.00">coord_r2sph</text>
</a>
</g>
</g>
<!-- Node2&#45;&gt;Node3 -->
<g id="edge2" class="edge">
<title>Node2&#45;&gt;Node3</title>
<path fill="none" stroke="midnightblue" d="M137.7,-133.88C151.42,-145.76 175.59,-165.96 198,-181 200.16,-182.45 202.44,-183.9 204.76,-185.3"/>
<polygon fill="midnightblue" stroke="midnightblue" points="203.27,-188.49 213.67,-190.48 206.78,-182.43 203.27,-188.49"/>
</g>
<!-- Node5 -->
<g id="node4" class="node">
<title>Node5</title>
<g id="a_node4"><a xlink:href="algebra__old_8cpp.html#adc33998911a24938042604ba1f8e6196" target="_top" xlink:title=" ">
<polygon fill="white" stroke="black" points="208.5,-152.5 208.5,-171.5 257.5,-171.5 257.5,-152.5 208.5,-152.5"/>
<text text-anchor="middle" x="233" y="-159.5" font-family="Helvetica,sans-Serif" font-size="10.00">matmul</text>
</a>
</g>
</g>
<!-- Node2&#45;&gt;Node5 -->
<g id="edge3" class="edge">
<title>Node2&#45;&gt;Node5</title>
<path fill="none" stroke="midnightblue" d="M141.62,-129.44C156.46,-134.79 179.61,-143.13 198.76,-150.03"/>
<polygon fill="midnightblue" stroke="midnightblue" points="197.75,-153.38 208.35,-153.48 200.12,-146.8 197.75,-153.38"/>
</g>
<!-- Node6 -->
<g id="node5" class="node">
<title>Node6</title>
<g id="a_node5"><a xlink:href="matrix__Rr_8f90.html#ac8734d74fb7ada7605575d3b9d26f2bb" target="_top" xlink:title=" ">
<polygon fill="white" stroke="black" points="206,-76.5 206,-95.5 260,-95.5 260,-76.5 206,-76.5"/>
<text text-anchor="middle" x="233" y="-83.5" font-family="Helvetica,sans-Serif" font-size="10.00">matrix_rr</text>
</a>
</g>
</g>
<!-- Node2&#45;&gt;Node6 -->
<g id="edge4" class="edge">
<title>Node2&#45;&gt;Node6</title>
<path fill="none" stroke="midnightblue" d="M141.62,-118.56C155.88,-113.42 177.81,-105.52 196.49,-98.79"/>
<polygon fill="midnightblue" stroke="midnightblue" points="197.68,-102.08 205.91,-95.4 195.31,-95.49 197.68,-102.08"/>
</g>
<!-- Node8 -->
<g id="node7" class="node">
<title>Node8</title>
<g id="a_node7"><a xlink:href="R3_8for.html#a8736a6c65234edc13681ad51dff7ed1d" target="_top" xlink:title=" ">
<polygon fill="white" stroke="black" points="304,-95.5 304,-114.5 333,-114.5 333,-95.5 304,-95.5"/>
<text text-anchor="middle" x="318.5" y="-102.5" font-family="Helvetica,sans-Serif" font-size="10.00">r3</text>
</a>
</g>
</g>
<!-- Node2&#45;&gt;Node8 -->
<g id="edge7" class="edge">
<title>Node2&#45;&gt;Node8</title>
<path fill="none" stroke="midnightblue" d="M141.81,-122.48C175.06,-119.17 254.11,-111.31 293.84,-107.35"/>
<polygon fill="midnightblue" stroke="midnightblue" points="294.33,-110.82 303.93,-106.35 293.64,-103.86 294.33,-110.82"/>
</g>
<!-- Node7 -->
<g id="node6" class="node">
<title>Node7</title>
<g id="a_node6"><a xlink:href="R1_8for.html#a790dd7e73934aaad6a8f20558f2a175f" target="_top" xlink:title=" ">
<polygon fill="white" stroke="black" points="304,-38.5 304,-57.5 333,-57.5 333,-38.5 304,-38.5"/>
<text text-anchor="middle" x="318.5" y="-45.5" font-family="Helvetica,sans-Serif" font-size="10.00">r1</text>
</a>
</g>
</g>
<!-- Node6&#45;&gt;Node7 -->
<g id="edge5" class="edge">
<title>Node6&#45;&gt;Node7</title>
<path fill="none" stroke="midnightblue" d="M255.07,-76.41C267.12,-70.93 282.24,-64.05 294.58,-58.43"/>
<polygon fill="midnightblue" stroke="midnightblue" points="296.12,-61.58 303.77,-54.25 293.22,-55.2 296.12,-61.58"/>
</g>
<!-- Node6&#45;&gt;Node8 -->
<g id="edge6" class="edge">
<title>Node6&#45;&gt;Node8</title>
<path fill="none" stroke="midnightblue" d="M260.42,-92.01C271.06,-94.43 283.24,-97.2 293.61,-99.56"/>
<polygon fill="midnightblue" stroke="midnightblue" points="293.09,-103.04 303.62,-101.84 294.64,-96.21 293.09,-103.04"/>
</g>
<!-- Node9&#45;&gt;Node7 -->
<g id="edge9" class="edge">
<title>Node9&#45;&gt;Node7</title>
<path fill="none" stroke="midnightblue" d="M162.43,-48C200.87,-48 260.77,-48 293.74,-48"/>
<polygon fill="midnightblue" stroke="midnightblue" points="293.82,-51.5 303.82,-48 293.82,-44.5 293.82,-51.5"/>
</g>
<!-- Node10&#45;&gt;Node7 -->
<g id="edge11" class="edge">
<title>Node10&#45;&gt;Node7</title>
<path fill="none" stroke="midnightblue" d="M156.76,-16.02C194.73,-23.57 259.05,-36.37 293.7,-43.26"/>
<polygon fill="midnightblue" stroke="midnightblue" points="293.34,-46.76 303.83,-45.28 294.71,-39.9 293.34,-46.76"/>
</g>
</g>
</svg>
