<?xml version="1.0" encoding="UTF-8" standalone="no"?>
<!DOCTYPE svg PUBLIC "-//W3C//DTD SVG 1.1//EN"
 "http://www.w3.org/Graphics/SVG/1.1/DTD/svg11.dtd">
<!-- Generated by graphviz version 2.50.0 (20220203.2022)
 -->
<!-- Title: readbrdcmessg Pages: 1 -->
<svg width="308pt" height="120pt"
 viewBox="0.00 0.00 308.00 120.02" xmlns="http://www.w3.org/2000/svg" xmlns:xlink="http://www.w3.org/1999/xlink">
<g id="graph0" class="graph" transform="scale(1 1) rotate(0) translate(4 116.02)">
<title>readbrdcmessg</title>
<polygon fill="white" stroke="transparent" points="-4,4 -4,-116.02 304,-116.02 304,4 -4,4"/>
<!-- Node1 -->
<g id="node1" class="node">
<title>Node1</title>
<g id="a_node1"><a xlink:title=" ">
<polygon fill="#bfbfbf" stroke="black" points="0,-57.5 0,-76.5 83,-76.5 83,-57.5 0,-57.5"/>
<text text-anchor="middle" x="41.5" y="-64.5" font-family="Helvetica,sans-Serif" font-size="10.00">readbrdcmessg</text>
</a>
</g>
</g>
<!-- Node2 -->
<g id="node2" class="node">
<title>Node2</title>
<g id="a_node2"><a xlink:href="cal2jd_8for.html#af9bdf5980bab8c8324930b1a0af0175a" target="_top" xlink:title=" ">
<polygon fill="white" stroke="black" points="240,-57.5 240,-76.5 300,-76.5 300,-57.5 240,-57.5"/>
<text text-anchor="middle" x="270" y="-64.5" font-family="Helvetica,sans-Serif" font-size="10.00">iau_cal2jd</text>
</a>
</g>
</g>
<!-- Node1&#45;&gt;Node2 -->
<g id="edge1" class="edge">
<title>Node1&#45;&gt;Node2</title>
<path fill="none" stroke="midnightblue" d="M56.68,-76.56C71.49,-85.92 95.76,-99.54 119,-105 155.78,-113.63 167.54,-114.88 204,-105 220.24,-100.6 236.59,-91.01 248.83,-82.57"/>
<polygon fill="midnightblue" stroke="midnightblue" points="250.88,-85.4 256.95,-76.72 246.79,-79.72 250.88,-85.4"/>
</g>
<!-- Node3 -->
<g id="node3" class="node">
<title>Node3</title>
<g id="a_node3"><a xlink:href="prn__shift__brdc_8f95.html#ab1eb7033c13c10208651f63e10e55494" target="_top" xlink:title=" ">
<polygon fill="white" stroke="black" points="122.5,-76.5 122.5,-95.5 200.5,-95.5 200.5,-76.5 122.5,-76.5"/>
<text text-anchor="middle" x="161.5" y="-83.5" font-family="Helvetica,sans-Serif" font-size="10.00">prn_shift_brdc</text>
</a>
</g>
</g>
<!-- Node1&#45;&gt;Node3 -->
<g id="edge2" class="edge">
<title>Node1&#45;&gt;Node3</title>
<path fill="none" stroke="midnightblue" d="M83.11,-73.54C92.51,-75.05 102.6,-76.68 112.29,-78.24"/>
<polygon fill="midnightblue" stroke="midnightblue" points="111.77,-81.7 122.2,-79.83 112.89,-74.79 111.77,-81.7"/>
</g>
<!-- Node4 -->
<g id="node4" class="node">
<title>Node4</title>
<g id="a_node4"><a xlink:href="reformbrdc_8f90.html#a7db70b99a710bbfc2ef44eae0cd0f40a" target="_top" xlink:title=" ">
<polygon fill="white" stroke="black" points="130,-38.5 130,-57.5 193,-57.5 193,-38.5 130,-38.5"/>
<text text-anchor="middle" x="161.5" y="-45.5" font-family="Helvetica,sans-Serif" font-size="10.00">reformbrdc</text>
</a>
</g>
</g>
<!-- Node1&#45;&gt;Node4 -->
<g id="edge3" class="edge">
<title>Node1&#45;&gt;Node4</title>
<path fill="none" stroke="midnightblue" d="M83.11,-60.46C94.97,-58.55 107.93,-56.46 119.79,-54.55"/>
<polygon fill="midnightblue" stroke="midnightblue" points="120.57,-57.97 129.88,-52.93 119.45,-51.06 120.57,-57.97"/>
</g>
<!-- Node5 -->
<g id="node5" class="node">
<title>Node5</title>
<g id="a_node5"><a xlink:href="time__GPSweek2_8f90.html#adeefb73caf196250b99185fc5ccec9fc" target="_top" xlink:title=" ">
<polygon fill="white" stroke="black" points="119,-0.5 119,-19.5 204,-19.5 204,-0.5 119,-0.5"/>
<text text-anchor="middle" x="161.5" y="-7.5" font-family="Helvetica,sans-Serif" font-size="10.00">time_gpsweek2</text>
</a>
</g>
</g>
<!-- Node1&#45;&gt;Node5 -->
<g id="edge4" class="edge">
<title>Node1&#45;&gt;Node5</title>
<path fill="none" stroke="midnightblue" d="M61.28,-57.46C76.72,-49.68 99.19,-38.45 119,-29 122.6,-27.28 126.39,-25.51 130.15,-23.76"/>
<polygon fill="midnightblue" stroke="midnightblue" points="131.71,-26.9 139.33,-19.54 128.78,-20.54 131.71,-26.9"/>
</g>
<!-- Node5&#45;&gt;Node2 -->
<g id="edge5" class="edge">
<title>Node5&#45;&gt;Node2</title>
<path fill="none" stroke="midnightblue" d="M184.67,-19.65C190.97,-22.54 197.81,-25.78 204,-29 217.86,-36.2 232.95,-44.97 245.1,-52.26"/>
<polygon fill="midnightblue" stroke="midnightblue" points="243.38,-55.31 253.75,-57.5 247.01,-49.32 243.38,-55.31"/>
</g>
</g>
</svg>
