<?xml version="1.0" encoding="UTF-8" standalone="no"?>
<!DOCTYPE svg PUBLIC "-//W3C//DTD SVG 1.1//EN"
 "http://www.w3.org/Graphics/SVG/1.1/DTD/svg11.dtd">
<!-- Generated by graphviz version 2.50.0 (20220203.2022)
 -->
<!-- Title: rep_open Pages: 1 -->
<svg width="622pt" height="655pt"
 viewBox="0.00 0.00 622.00 654.88" xmlns="http://www.w3.org/2000/svg" xmlns:xlink="http://www.w3.org/1999/xlink">
<g id="graph0" class="graph" transform="scale(1 1) rotate(0) translate(4 650.88)">
<title>rep_open</title>
<polygon fill="white" stroke="transparent" points="-4,4 -4,-650.88 618,-650.88 618,4 -4,4"/>
<!-- Node1 -->
<g id="node1" class="node">
<title>Node1</title>
<g id="a_node1"><a xlink:title=" ">
<polygon fill="#bfbfbf" stroke="black" points="558,-300.38 558,-319.38 614,-319.38 614,-300.38 558,-300.38"/>
<text text-anchor="middle" x="586" y="-307.38" font-family="Helvetica,sans-Serif" font-size="10.00">rep_open</text>
</a>
</g>
</g>
<!-- Node2 -->
<g id="node2" class="node">
<title>Node2</title>
<g id="a_node2"><a xlink:href="report_8f90.html#ad7b70277944dcb0bbfd72a8dbe9ad4df" target="_top" xlink:title=" ">
<polygon fill="white" stroke="black" points="481,-300.38 481,-319.38 522,-319.38 522,-300.38 481,-300.38"/>
<text text-anchor="middle" x="501.5" y="-307.38" font-family="Helvetica,sans-Serif" font-size="10.00">report</text>
</a>
</g>
</g>
<!-- Node1&#45;&gt;Node2 -->
<g id="edge1" class="edge">
<title>Node1&#45;&gt;Node2</title>
<path fill="none" stroke="midnightblue" d="M547.84,-309.88C539.02,-309.88 529.94,-309.88 522.25,-309.88"/>
<polygon fill="midnightblue" stroke="midnightblue" points="547.99,-313.38 557.99,-309.88 547.99,-306.38 547.99,-313.38"/>
</g>
<!-- Node3 -->
<g id="node3" class="node">
<title>Node3</title>
<g id="a_node3"><a xlink:href="force__srp_8f90.html#ac60c56aaaf5a6f7118c763fe46ce8373" target="_top" xlink:title=" ">
<polygon fill="white" stroke="red" points="349,-627.38 349,-646.38 406,-646.38 406,-627.38 349,-627.38"/>
<text text-anchor="middle" x="377.5" y="-634.38" font-family="Helvetica,sans-Serif" font-size="10.00">force_srp</text>
</a>
</g>
</g>
<!-- Node2&#45;&gt;Node3 -->
<g id="edge2" class="edge">
<title>Node2&#45;&gt;Node3</title>
<path fill="none" stroke="midnightblue" d="M499.41,-329.56C495.7,-389.69 481.7,-569.57 445,-612.88 435.32,-624.31 419.76,-630.3 406.13,-633.43"/>
<polygon fill="midnightblue" stroke="midnightblue" points="502.91,-329.68 500,-319.49 495.92,-329.27 502.91,-329.68"/>
</g>
<!-- Node15 -->
<g id="node4" class="node">
<title>Node15</title>
<g id="a_node4"><a xlink:href="namespacem__integrveq.html#a26456b441514cdb95835b24d64563a0c" target="_top" xlink:title=" ">
<polygon fill="white" stroke="red" points="155,-34.38 155,-53.38 274,-53.38 274,-34.38 155,-34.38"/>
<text text-anchor="middle" x="214.5" y="-41.38" font-family="Helvetica,sans-Serif" font-size="10.00">m_integrveq::integr_veq</text>
</a>
</g>
</g>
<!-- Node2&#45;&gt;Node15 -->
<g id="edge3" class="edge">
<title>Node2&#45;&gt;Node15</title>
<path fill="none" stroke="midnightblue" d="M499.78,-290.04C497.17,-231.05 486.12,-58.77 445,-24.88 383.29,25.97 277.93,-14.23 234.78,-34.26"/>
<polygon fill="midnightblue" stroke="midnightblue" points="496.29,-290.4 500.19,-300.25 503.28,-290.12 496.29,-290.4"/>
</g>
<!-- Node17 -->
<g id="node5" class="node">
<title>Node17</title>
<g id="a_node5"><a xlink:href="namespacem__read__svsinex.html#ac27ebe3b628563a972696b772c79868c" target="_top" xlink:title=" ">
<polygon fill="white" stroke="black" points="317.5,-490.88 317.5,-520.88 437.5,-520.88 437.5,-490.88 317.5,-490.88"/>
<text text-anchor="start" x="325.5" y="-508.88" font-family="Helvetica,sans-Serif" font-size="10.00">m_read_svsinex::lookup</text>
<text text-anchor="middle" x="377.5" y="-497.88" font-family="Helvetica,sans-Serif" font-size="10.00">_sinex</text>
</a>
</g>
</g>
<!-- Node2&#45;&gt;Node17 -->
<g id="edge4" class="edge">
<title>Node2&#45;&gt;Node17</title>
<path fill="none" stroke="midnightblue" d="M498.98,-329.46C495.36,-363.34 483.44,-433.35 445,-475.88 439.57,-481.9 432.69,-486.78 425.44,-490.72"/>
<polygon fill="midnightblue" stroke="midnightblue" points="502.47,-329.73 499.91,-319.45 495.5,-329.08 502.47,-329.73"/>
</g>
<!-- Node18 -->
<g id="node6" class="node">
<title>Node18</title>
<g id="a_node6"><a xlink:href="namespacem__read__satsnx.html#a0325a5acf4c4a7f382a936c90395e46a" target="_top" xlink:title=" ">
<polygon fill="white" stroke="red" points="161.5,-513.88 161.5,-543.88 267.5,-543.88 267.5,-513.88 161.5,-513.88"/>
<text text-anchor="start" x="169.5" y="-531.88" font-family="Helvetica,sans-Serif" font-size="10.00">m_read_satsnx::read</text>
<text text-anchor="middle" x="214.5" y="-520.88" font-family="Helvetica,sans-Serif" font-size="10.00">_satsnx</text>
</a>
</g>
</g>
<!-- Node2&#45;&gt;Node18 -->
<g id="edge14" class="edge">
<title>Node2&#45;&gt;Node18</title>
<path fill="none" stroke="midnightblue" d="M497.7,-329.69C492.54,-358.75 478.79,-412.74 445,-442.88 398.39,-484.46 368.2,-459.22 310,-481.88 286.61,-490.99 261.19,-503.81 242.61,-513.76"/>
<polygon fill="midnightblue" stroke="midnightblue" points="501.2,-329.98 499.33,-319.55 494.29,-328.87 501.2,-329.98"/>
</g>
<!-- Node10 -->
<g id="node7" class="node">
<title>Node10</title>
<g id="a_node7"><a xlink:href="namespacem__pod__gnss.html#acc5f9a213cb0b59b5e4d35e4d0ebdc72" target="_top" xlink:title=" ">
<polygon fill="white" stroke="black" points="0,-565.38 0,-584.38 119,-584.38 119,-565.38 0,-565.38"/>
<text text-anchor="middle" x="59.5" y="-572.38" font-family="Helvetica,sans-Serif" font-size="10.00">m_pod_gnss::pod_gnss</text>
</a>
</g>
</g>
<!-- Node2&#45;&gt;Node10 -->
<g id="edge12" class="edge">
<title>Node2&#45;&gt;Node10</title>
<path fill="none" stroke="midnightblue" d="M499.54,-329.8C496.35,-386.74 483.95,-548.13 445,-579.88 396.69,-619.28 214.25,-598.54 119.08,-584.43"/>
<polygon fill="midnightblue" stroke="midnightblue" points="503.05,-329.77 500.08,-319.6 496.06,-329.4 503.05,-329.77"/>
</g>
<!-- Node8 -->
<g id="node8" class="node">
<title>Node8</title>
<g id="a_node8"><a xlink:href="namespacem__orbdet.html#a49487178b457ba359e3528454fee1a43" target="_top" xlink:title=" ">
<polygon fill="white" stroke="red" points="170,-376.38 170,-395.38 259,-395.38 259,-376.38 170,-376.38"/>
<text text-anchor="middle" x="214.5" y="-383.38" font-family="Helvetica,sans-Serif" font-size="10.00">m_orbdet::orbdet</text>
</a>
</g>
</g>
<!-- Node2&#45;&gt;Node8 -->
<g id="edge7" class="edge">
<title>Node2&#45;&gt;Node8</title>
<path fill="none" stroke="midnightblue" d="M488.39,-328.03C478.43,-341.28 463.07,-358.36 445,-366.88 385.33,-395.02 307.24,-394.78 259.26,-391.06"/>
<polygon fill="midnightblue" stroke="midnightblue" points="491.43,-329.79 494.38,-319.61 485.72,-325.73 491.43,-329.79"/>
</g>
<!-- Node21 -->
<g id="node9" class="node">
<title>Node21</title>
<g id="a_node9"><a xlink:href="namespacem__orbinfo.html#a7e90574cb9078c6ff14c6104446ee24a" target="_top" xlink:title=" ">
<polygon fill="white" stroke="black" points="331,-224.38 331,-243.38 424,-243.38 424,-224.38 331,-224.38"/>
<text text-anchor="middle" x="377.5" y="-231.38" font-family="Helvetica,sans-Serif" font-size="10.00">m_orbinfo::orbinfo</text>
</a>
</g>
</g>
<!-- Node2&#45;&gt;Node21 -->
<g id="edge8" class="edge">
<title>Node2&#45;&gt;Node21</title>
<path fill="none" stroke="midnightblue" d="M487.52,-292.29C477.29,-279.61 461.96,-263.01 445,-252.88 438.61,-249.07 431.41,-245.98 424.18,-243.5"/>
<polygon fill="midnightblue" stroke="midnightblue" points="484.85,-294.56 493.74,-300.32 490.38,-290.27 484.85,-294.56"/>
</g>
<!-- Node22 -->
<g id="node10" class="node">
<title>Node22</title>
<g id="a_node10"><a xlink:href="namespacem__statorbit2.html#a6ba60e4ad1e25a33b4f2f9607374ea58" target="_top" xlink:title=" ">
<polygon fill="white" stroke="red" points="156.5,-262.38 156.5,-281.38 272.5,-281.38 272.5,-262.38 156.5,-262.38"/>
<text text-anchor="middle" x="214.5" y="-269.38" font-family="Helvetica,sans-Serif" font-size="10.00">m_statorbit2::statorbit2</text>
</a>
</g>
</g>
<!-- Node2&#45;&gt;Node22 -->
<g id="edge23" class="edge">
<title>Node2&#45;&gt;Node22</title>
<path fill="none" stroke="midnightblue" d="M470.7,-307.83C433.11,-305.03 366.54,-299.37 310,-290.88 292.95,-288.33 274.33,-284.75 258.15,-281.39"/>
<polygon fill="midnightblue" stroke="midnightblue" points="470.72,-311.34 480.95,-308.58 471.23,-304.36 470.72,-311.34"/>
</g>
<!-- Node24 -->
<g id="node11" class="node">
<title>Node24</title>
<g id="a_node11"><a xlink:href="namespacem__orbresize.html#ae6a21b6195aef354b12f944f5d14bde2" target="_top" xlink:title=" ">
<polygon fill="white" stroke="black" points="321,-338.38 321,-357.38 434,-357.38 434,-338.38 321,-338.38"/>
<text text-anchor="middle" x="377.5" y="-345.38" font-family="Helvetica,sans-Serif" font-size="10.00">m_orbresize::orbresize</text>
</a>
</g>
</g>
<!-- Node2&#45;&gt;Node24 -->
<g id="edge10" class="edge">
<title>Node2&#45;&gt;Node24</title>
<path fill="none" stroke="midnightblue" d="M471.1,-319.04C452.31,-324.89 428.01,-332.46 409.01,-338.38"/>
<polygon fill="midnightblue" stroke="midnightblue" points="472.39,-322.31 480.9,-315.99 470.31,-315.62 472.39,-322.31"/>
</g>
<!-- Node25 -->
<g id="node12" class="node">
<title>Node25</title>
<g id="a_node12"><a xlink:href="PROPBOXW_8f90.html#ac3a27ff08205f2ab234a40fd28010134" target="_top" xlink:title=" ">
<polygon fill="white" stroke="red" points="348.5,-262.38 348.5,-281.38 406.5,-281.38 406.5,-262.38 348.5,-262.38"/>
<text text-anchor="middle" x="377.5" y="-269.38" font-family="Helvetica,sans-Serif" font-size="10.00">propboxw</text>
</a>
</g>
</g>
<!-- Node2&#45;&gt;Node25 -->
<g id="edge13" class="edge">
<title>Node2&#45;&gt;Node25</title>
<path fill="none" stroke="midnightblue" d="M471.28,-300.78C451.7,-294.68 426.06,-286.7 406.69,-280.67"/>
<polygon fill="midnightblue" stroke="midnightblue" points="470.31,-304.15 480.9,-303.78 472.39,-297.46 470.31,-304.15"/>
</g>
<!-- Node28 -->
<g id="node13" class="node">
<title>Node28</title>
<g id="a_node13"><a xlink:href="namespacem__read__svsinex.html#ac2ff3910d5159e29b8bbb4c4713197bd" target="_top" xlink:title=" ">
<polygon fill="white" stroke="black" points="322.5,-539.88 322.5,-569.88 432.5,-569.88 432.5,-539.88 322.5,-539.88"/>
<text text-anchor="start" x="330.5" y="-557.88" font-family="Helvetica,sans-Serif" font-size="10.00">m_read_svsinex::read</text>
<text text-anchor="middle" x="377.5" y="-546.88" font-family="Helvetica,sans-Serif" font-size="10.00">_sinex_file</text>
</a>
</g>
</g>
<!-- Node2&#45;&gt;Node28 -->
<g id="edge15" class="edge">
<title>Node2&#45;&gt;Node28</title>
<path fill="none" stroke="midnightblue" d="M501.34,-329.92C502,-372.5 497.5,-472.83 445,-530.88 441.46,-534.8 437.23,-538.08 432.65,-540.82"/>
<polygon fill="midnightblue" stroke="midnightblue" points="504.83,-329.64 501.06,-319.74 497.83,-329.84 504.83,-329.64"/>
</g>
<!-- Node29 -->
<g id="node14" class="node">
<title>Node29</title>
<g id="a_node14"><a xlink:href="namespacem__satinfo.html#ae0b7edb4a9e7acef74ce9d6b52946cb6" target="_top" xlink:title=" ">
<polygon fill="white" stroke="black" points="331,-186.38 331,-205.38 424,-205.38 424,-186.38 331,-186.38"/>
<text text-anchor="middle" x="377.5" y="-193.38" font-family="Helvetica,sans-Serif" font-size="10.00">m_satinfo::satinfo</text>
</a>
</g>
</g>
<!-- Node2&#45;&gt;Node29 -->
<g id="edge17" class="edge">
<title>Node2&#45;&gt;Node29</title>
<path fill="none" stroke="midnightblue" d="M494.15,-290.44C486.1,-268.84 470.17,-234.43 445,-214.88 438.84,-210.1 431.51,-206.52 424.02,-203.84"/>
<polygon fill="midnightblue" stroke="midnightblue" points="490.95,-291.89 497.56,-300.16 497.55,-289.57 490.95,-291.89"/>
</g>
<!-- Node30 -->
<g id="node15" class="node">
<title>Node30</title>
<g id="a_node15"><a xlink:href="scan0orb_8f95.html#a5b49390188b8a123e748c5cdcc8f30e2" target="_top" xlink:title=" ">
<polygon fill="white" stroke="black" points="349.5,-148.38 349.5,-167.38 405.5,-167.38 405.5,-148.38 349.5,-148.38"/>
<text text-anchor="middle" x="377.5" y="-155.38" font-family="Helvetica,sans-Serif" font-size="10.00">scan0orb</text>
</a>
</g>
</g>
<!-- Node2&#45;&gt;Node30 -->
<g id="edge18" class="edge">
<title>Node2&#45;&gt;Node30</title>
<path fill="none" stroke="midnightblue" d="M497.71,-290.07C492.57,-260.99 478.84,-206.98 445,-176.88 434.23,-167.31 418.95,-162.54 405.75,-160.17"/>
<polygon fill="midnightblue" stroke="midnightblue" points="494.3,-290.89 499.33,-300.21 501.21,-289.78 494.3,-290.89"/>
</g>
<!-- Node31 -->
<g id="node16" class="node">
<title>Node31</title>
<g id="a_node16"><a xlink:href="namespacem__sp3.html#aee5ee4c6b89b55a15add0857c52f3352" target="_top" xlink:title=" ">
<polygon fill="white" stroke="red" points="344.5,-110.38 344.5,-129.38 410.5,-129.38 410.5,-110.38 344.5,-110.38"/>
<text text-anchor="middle" x="377.5" y="-117.38" font-family="Helvetica,sans-Serif" font-size="10.00">m_sp3::sp3</text>
</a>
</g>
</g>
<!-- Node2&#45;&gt;Node31 -->
<g id="edge19" class="edge">
<title>Node2&#45;&gt;Node31</title>
<path fill="none" stroke="midnightblue" d="M499.86,-290.08C497.62,-254.62 487.76,-180.15 445,-138.88 435.84,-130.05 422.87,-125.27 410.81,-122.71"/>
<polygon fill="midnightblue" stroke="midnightblue" points="496.37,-290.31 500.35,-300.13 503.36,-289.97 496.37,-290.31"/>
</g>
<!-- Node38 -->
<g id="node17" class="node">
<title>Node38</title>
<g id="a_node17"><a xlink:href="namespacem__statdelta.html#a8233872ed966bef447929ab7eeb960d8" target="_top" xlink:title=" ">
<polygon fill="white" stroke="red" points="322.5,-414.38 322.5,-433.38 432.5,-433.38 432.5,-414.38 322.5,-414.38"/>
<text text-anchor="middle" x="377.5" y="-421.38" font-family="Helvetica,sans-Serif" font-size="10.00">m_statdelta::statdelta</text>
</a>
</g>
</g>
<!-- Node2&#45;&gt;Node38 -->
<g id="edge20" class="edge">
<title>Node2&#45;&gt;Node38</title>
<path fill="none" stroke="midnightblue" d="M493.26,-328.92C484.64,-349.17 468.42,-380.86 445,-399.88 437.28,-406.15 427.79,-410.86 418.42,-414.36"/>
<polygon fill="midnightblue" stroke="midnightblue" points="496.56,-330.08 497.07,-319.49 490.07,-327.45 496.56,-330.08"/>
</g>
<!-- Node39 -->
<g id="node18" class="node">
<title>Node39</title>
<g id="a_node18"><a xlink:href="namespacem__statorbit.html#a56a49355e7e28cab9185c86483b3e452" target="_top" xlink:title=" ">
<polygon fill="white" stroke="red" points="325,-34.38 325,-53.38 430,-53.38 430,-34.38 325,-34.38"/>
<text text-anchor="middle" x="377.5" y="-41.38" font-family="Helvetica,sans-Serif" font-size="10.00">m_statorbit::statorbit</text>
</a>
</g>
</g>
<!-- Node2&#45;&gt;Node39 -->
<g id="edge22" class="edge">
<title>Node2&#45;&gt;Node39</title>
<path fill="none" stroke="midnightblue" d="M498.63,-290.06C493.29,-237.44 476.28,-96 445,-62.88 440.8,-58.43 435.63,-55 430.05,-52.36"/>
<polygon fill="midnightblue" stroke="midnightblue" points="495.16,-290.52 499.62,-300.13 502.13,-289.83 495.16,-290.52"/>
</g>
<!-- Node14 -->
<g id="node19" class="node">
<title>Node14</title>
<g id="a_node19"><a xlink:href="namespacem__veq__rkn768.html#acade84f4eab8c2bb71f72dda5be85361" target="_top" xlink:title=" ">
<polygon fill="white" stroke="black" points="310,-72.38 310,-91.38 445,-91.38 445,-72.38 310,-72.38"/>
<text text-anchor="middle" x="377.5" y="-79.38" font-family="Helvetica,sans-Serif" font-size="10.00">m_veq_rkn768::veq_rkn768</text>
</a>
</g>
</g>
<!-- Node2&#45;&gt;Node14 -->
<g id="edge24" class="edge">
<title>Node2&#45;&gt;Node14</title>
<path fill="none" stroke="midnightblue" d="M501.27,-289.81C501.72,-248.52 496.68,-153.54 445,-100.88 441.22,-97.03 436.71,-93.94 431.84,-91.47"/>
<polygon fill="midnightblue" stroke="midnightblue" points="497.77,-289.87 501.04,-299.95 504.77,-290.04 497.77,-289.87"/>
</g>
<!-- Node17&#45;&gt;Node18 -->
<g id="edge5" class="edge">
<title>Node17&#45;&gt;Node18</title>
<path fill="none" stroke="midnightblue" d="M307.38,-515.76C294.05,-517.66 280.29,-519.63 267.62,-521.44"/>
<polygon fill="midnightblue" stroke="midnightblue" points="308.06,-519.2 317.46,-514.32 307.07,-512.27 308.06,-519.2"/>
</g>
<!-- Node18&#45;&gt;Node10 -->
<g id="edge6" class="edge">
<title>Node18&#45;&gt;Node10</title>
<path fill="none" stroke="midnightblue" d="M153.64,-546.88C132.76,-553.16 110.14,-559.96 92.42,-565.29"/>
<polygon fill="midnightblue" stroke="midnightblue" points="154.83,-550.18 163.4,-543.95 152.82,-543.47 154.83,-550.18"/>
</g>
<!-- Node21&#45;&gt;Node22 -->
<g id="edge9" class="edge">
<title>Node21&#45;&gt;Node22</title>
<path fill="none" stroke="midnightblue" d="M326.1,-245.78C303.47,-251.12 277.13,-257.34 255.83,-262.36"/>
<polygon fill="midnightblue" stroke="midnightblue" points="326.94,-249.18 335.87,-243.47 325.34,-242.36 326.94,-249.18"/>
</g>
<!-- Node24&#45;&gt;Node8 -->
<g id="edge11" class="edge">
<title>Node24&#45;&gt;Node8</title>
<path fill="none" stroke="midnightblue" d="M326.1,-359.78C303.47,-365.12 277.13,-371.34 255.83,-376.36"/>
<polygon fill="midnightblue" stroke="midnightblue" points="326.94,-363.18 335.87,-357.47 325.34,-356.36 326.94,-363.18"/>
</g>
<!-- Node28&#45;&gt;Node18 -->
<g id="edge16" class="edge">
<title>Node28&#45;&gt;Node18</title>
<path fill="none" stroke="midnightblue" d="M312.3,-544.52C297.43,-542.11 281.78,-539.59 267.51,-537.28"/>
<polygon fill="midnightblue" stroke="midnightblue" points="312.01,-548.02 322.44,-546.15 313.13,-541.11 312.01,-548.02"/>
</g>
<!-- Node38&#45;&gt;Node8 -->
<g id="edge21" class="edge">
<title>Node38&#45;&gt;Node8</title>
<path fill="none" stroke="midnightblue" d="M326.1,-411.99C303.47,-406.65 277.13,-400.43 255.83,-395.4"/>
<polygon fill="midnightblue" stroke="midnightblue" points="325.34,-415.41 335.87,-414.3 326.94,-408.59 325.34,-415.41"/>
</g>
<!-- Node14&#45;&gt;Node15 -->
<g id="edge25" class="edge">
<title>Node14&#45;&gt;Node15</title>
<path fill="none" stroke="midnightblue" d="M326.1,-69.99C303.47,-64.65 277.13,-58.43 255.83,-53.4"/>
<polygon fill="midnightblue" stroke="midnightblue" points="325.34,-73.41 335.87,-72.3 326.94,-66.59 325.34,-73.41"/>
</g>
</g>
</svg>
