<?xml version="1.0" encoding="UTF-8" standalone="no"?>
<!DOCTYPE svg PUBLIC "-//W3C//DTD SVG 1.1//EN"
 "http://www.w3.org/Graphics/SVG/1.1/DTD/svg11.dtd">
<!-- Generated by graphviz version 2.50.0 (20220203.2022)
 -->
<!-- Title: decode_obsepoch Pages: 1 -->
<svg width="308pt" height="28pt"
 viewBox="0.00 0.00 308.00 28.00" xmlns="http://www.w3.org/2000/svg" xmlns:xlink="http://www.w3.org/1999/xlink">
<g id="graph0" class="graph" transform="scale(1 1) rotate(0) translate(4 24)">
<title>decode_obsepoch</title>
<polygon fill="white" stroke="transparent" points="-4,4 -4,-24 304,-24 304,4 -4,4"/>
<!-- Node1 -->
<g id="node1" class="node">
<title>Node1</title>
<g id="a_node1"><a xlink:title=" ">
<polygon fill="#bfbfbf" stroke="black" points="205,-0.5 205,-19.5 300,-19.5 300,-0.5 205,-0.5"/>
<text text-anchor="middle" x="252.5" y="-7.5" font-family="Helvetica,sans-Serif" font-size="10.00">decode_obsepoch</text>
</a>
</g>
</g>
<!-- Node2 -->
<g id="node2" class="node">
<title>Node2</title>
<g id="a_node2"><a xlink:href="rinex_8cpp.html#a8904a223b164e16e88cc0e2e0681d5c2" target="_top" xlink:title=" ">
<polygon fill="white" stroke="black" points="100,-0.5 100,-19.5 169,-19.5 169,-0.5 100,-0.5"/>
<text text-anchor="middle" x="134.5" y="-7.5" font-family="Helvetica,sans-Serif" font-size="10.00">readrnxobsb</text>
</a>
</g>
</g>
<!-- Node1&#45;&gt;Node2 -->
<g id="edge1" class="edge">
<title>Node1&#45;&gt;Node2</title>
<path fill="none" stroke="midnightblue" d="M194.77,-10C186.01,-10 177.21,-10 169.17,-10"/>
<polygon fill="midnightblue" stroke="midnightblue" points="194.99,-13.5 204.99,-10 194.99,-6.5 194.99,-13.5"/>
</g>
<!-- Node3 -->
<g id="node3" class="node">
<title>Node3</title>
<g id="a_node3"><a xlink:href="rinex_8cpp.html#a7ac0513671bff5c91f961ebca3ae1673" target="_top" xlink:title=" ">
<polygon fill="white" stroke="red" points="0,-0.5 0,-19.5 64,-19.5 64,-0.5 0,-0.5"/>
<text text-anchor="middle" x="32" y="-7.5" font-family="Helvetica,sans-Serif" font-size="10.00">readrnxobs</text>
</a>
</g>
</g>
<!-- Node2&#45;&gt;Node3 -->
<g id="edge2" class="edge">
<title>Node2&#45;&gt;Node3</title>
<path fill="none" stroke="midnightblue" d="M89.51,-10C80.95,-10 72.15,-10 64.11,-10"/>
<polygon fill="midnightblue" stroke="midnightblue" points="89.76,-13.5 99.76,-10 89.76,-6.5 89.76,-13.5"/>
</g>
</g>
</svg>
