<?xml version="1.0" encoding="UTF-8" standalone="no"?>
<!DOCTYPE svg PUBLIC "-//W3C//DTD SVG 1.1//EN"
 "http://www.w3.org/Graphics/SVG/1.1/DTD/svg11.dtd">
<!-- Generated by graphviz version 2.50.0 (20220203.2022)
 -->
<!-- Title: writeRinexObsHeader Pages: 1 -->
<svg width="390pt" height="198pt"
 viewBox="0.00 0.00 390.00 198.00" xmlns="http://www.w3.org/2000/svg" xmlns:xlink="http://www.w3.org/1999/xlink">
<g id="graph0" class="graph" transform="scale(1 1) rotate(0) translate(4 194)">
<title>writeRinexObsHeader</title>
<polygon fill="white" stroke="transparent" points="-4,4 -4,-194 386,-194 386,4 -4,4"/>
<!-- Node1 -->
<g id="node1" class="node">
<title>Node1</title>
<g id="a_node1"><a xlink:title=" ">
<polygon fill="#bfbfbf" stroke="black" points="0,-76.5 0,-95.5 111,-95.5 111,-76.5 0,-76.5"/>
<text text-anchor="middle" x="55.5" y="-83.5" font-family="Helvetica,sans-Serif" font-size="10.00">writeRinexObsHeader</text>
</a>
</g>
</g>
<!-- Node2 -->
<g id="node2" class="node">
<title>Node2</title>
<g id="a_node2"><a xlink:href="gTime_8cpp.html#a016d7b64e67752afcd07e5074a3cc516" target="_top" xlink:title=" ">
<polygon fill="white" stroke="black" points="180.5,-152.5 180.5,-171.5 232.5,-171.5 232.5,-152.5 180.5,-152.5"/>
<text text-anchor="middle" x="206.5" y="-159.5" font-family="Helvetica,sans-Serif" font-size="10.00">time2str</text>
</a>
</g>
</g>
<!-- Node1&#45;&gt;Node2 -->
<g id="edge1" class="edge">
<title>Node1&#45;&gt;Node2</title>
<path fill="none" stroke="midnightblue" d="M69.4,-95.58C86.45,-107.89 117.74,-129.3 147,-143 154.41,-146.47 162.63,-149.57 170.5,-152.2"/>
<polygon fill="midnightblue" stroke="midnightblue" points="169.62,-155.59 180.21,-155.28 171.74,-148.92 169.62,-155.59"/>
</g>
<!-- Node5 -->
<g id="node5" class="node">
<title>Node5</title>
<g id="a_node5"><a xlink:href="gTime_8cpp.html#a2a318fa02e2d05aa22eabbcf1a537fcf" target="_top" xlink:title="get current time in utc">
<polygon fill="white" stroke="black" points="182,-38.5 182,-57.5 231,-57.5 231,-38.5 182,-38.5"/>
<text text-anchor="middle" x="206.5" y="-45.5" font-family="Helvetica,sans-Serif" font-size="10.00">timeget</text>
</a>
</g>
</g>
<!-- Node1&#45;&gt;Node5 -->
<g id="edge5" class="edge">
<title>Node1&#45;&gt;Node5</title>
<path fill="none" stroke="midnightblue" d="M94.1,-76.41C118.13,-70.28 149.01,-62.41 172.17,-56.5"/>
<polygon fill="midnightblue" stroke="midnightblue" points="173.07,-59.88 181.89,-54.02 171.34,-53.1 173.07,-59.88"/>
</g>
<!-- Node7 -->
<g id="node7" class="node">
<title>Node7</title>
<g id="a_node7"><a xlink:href="streamTrace_8cpp.html#ae00e6addd3bdf3a7fd41a254eb9aec89" target="_top" xlink:title=" ">
<polygon fill="white" stroke="black" points="310,-76.5 310,-95.5 374,-95.5 374,-76.5 310,-76.5"/>
<text text-anchor="middle" x="342" y="-83.5" font-family="Helvetica,sans-Serif" font-size="10.00">tracepdeex</text>
</a>
</g>
</g>
<!-- Node1&#45;&gt;Node7 -->
<g id="edge7" class="edge">
<title>Node1&#45;&gt;Node7</title>
<path fill="none" stroke="midnightblue" d="M111.02,-86C166.15,-86 250.13,-86 299.89,-86"/>
<polygon fill="midnightblue" stroke="midnightblue" points="299.97,-89.5 309.97,-86 299.97,-82.5 299.97,-89.5"/>
</g>
<!-- Node8 -->
<g id="node8" class="node">
<title>Node8</title>
<g id="a_node8"><a xlink:href="rinexObsWrite_8cpp.html#ab1a7a3d3255b546c3cea605eb2ea87cb" target="_top" xlink:title=" ">
<polygon fill="white" stroke="black" points="147,-114.5 147,-133.5 266,-133.5 266,-114.5 147,-114.5"/>
<text text-anchor="middle" x="206.5" y="-121.5" font-family="Helvetica,sans-Serif" font-size="10.00">updateRinexObsHeader</text>
</a>
</g>
</g>
<!-- Node1&#45;&gt;Node8 -->
<g id="edge8" class="edge">
<title>Node1&#45;&gt;Node8</title>
<path fill="none" stroke="midnightblue" d="M94.1,-95.59C113.58,-100.56 137.57,-106.68 158.3,-111.96"/>
<polygon fill="midnightblue" stroke="midnightblue" points="157.62,-115.4 168.17,-114.48 159.35,-108.62 157.62,-115.4"/>
</g>
<!-- Node9 -->
<g id="node9" class="node">
<title>Node9</title>
<g id="a_node9"><a xlink:href="gTime_8cpp.html#abb00b59d1e35b7cc9e031a5faf536f9e" target="_top" xlink:title=" ">
<polygon fill="white" stroke="black" points="179.5,-0.5 179.5,-19.5 233.5,-19.5 233.5,-0.5 179.5,-0.5"/>
<text text-anchor="middle" x="206.5" y="-7.5" font-family="Helvetica,sans-Serif" font-size="10.00">utc2gpst</text>
</a>
</g>
</g>
<!-- Node1&#45;&gt;Node9 -->
<g id="edge11" class="edge">
<title>Node1&#45;&gt;Node9</title>
<path fill="none" stroke="midnightblue" d="M69.4,-76.42C86.45,-64.11 117.74,-42.7 147,-29 154.13,-25.66 162,-22.67 169.6,-20.1"/>
<polygon fill="midnightblue" stroke="midnightblue" points="170.89,-23.37 179.34,-16.98 168.75,-16.7 170.89,-23.37"/>
</g>
<!-- Node3 -->
<g id="node3" class="node">
<title>Node3</title>
<g id="a_node3"><a xlink:href="namespacepod__yaml.html#a59ea539cabb34ef7985e7e57c4b9dd93" target="_top" xlink:title=" ">
<polygon fill="white" stroke="black" points="302,-152.5 302,-171.5 382,-171.5 382,-152.5 302,-152.5"/>
<text text-anchor="middle" x="342" y="-159.5" font-family="Helvetica,sans-Serif" font-size="10.00">pod_yaml::pow</text>
</a>
</g>
</g>
<!-- Node2&#45;&gt;Node3 -->
<g id="edge2" class="edge">
<title>Node2&#45;&gt;Node3</title>
<path fill="none" stroke="midnightblue" d="M232.61,-162C249.2,-162 271.52,-162 291.58,-162"/>
<polygon fill="midnightblue" stroke="midnightblue" points="291.83,-165.5 301.83,-162 291.83,-158.5 291.83,-165.5"/>
</g>
<!-- Node4 -->
<g id="node4" class="node">
<title>Node4</title>
<g id="a_node4"><a xlink:href="gTime_8cpp.html#a7a747c44ca37f2ebe379fc4309d3cfba" target="_top" xlink:title=" ">
<polygon fill="white" stroke="black" points="308.5,-114.5 308.5,-133.5 375.5,-133.5 375.5,-114.5 308.5,-114.5"/>
<text text-anchor="middle" x="342" y="-121.5" font-family="Helvetica,sans-Serif" font-size="10.00">time2epoch</text>
</a>
</g>
</g>
<!-- Node2&#45;&gt;Node4 -->
<g id="edge4" class="edge">
<title>Node2&#45;&gt;Node4</title>
<path fill="none" stroke="midnightblue" d="M232.61,-154.85C251.21,-149.56 277,-142.22 298.75,-136.03"/>
<polygon fill="midnightblue" stroke="midnightblue" points="299.76,-139.38 308.42,-133.27 297.85,-132.64 299.76,-139.38"/>
</g>
<!-- Node3&#45;&gt;Node3 -->
<g id="edge3" class="edge">
<title>Node3&#45;&gt;Node3</title>
<path fill="none" stroke="midnightblue" d="M321.35,-171.76C311.3,-180.57 318.18,-190 342,-190 357.26,-190 365.57,-186.13 366.93,-181.03"/>
<polygon fill="midnightblue" stroke="midnightblue" points="370.02,-179.37 362.65,-171.76 363.66,-182.3 370.02,-179.37"/>
</g>
<!-- Node6 -->
<g id="node6" class="node">
<title>Node6</title>
<g id="a_node6"><a xlink:href="gTime_8cpp.html#aa46173b9085096882d09e53d96e9dc41" target="_top" xlink:title=" ">
<polygon fill="white" stroke="black" points="308.5,-19.5 308.5,-38.5 375.5,-38.5 375.5,-19.5 308.5,-19.5"/>
<text text-anchor="middle" x="342" y="-26.5" font-family="Helvetica,sans-Serif" font-size="10.00">epoch2time</text>
</a>
</g>
</g>
<!-- Node5&#45;&gt;Node6 -->
<g id="edge6" class="edge">
<title>Node5&#45;&gt;Node6</title>
<path fill="none" stroke="midnightblue" d="M231.06,-44.65C249.69,-42 276.19,-38.22 298.5,-35.05"/>
<polygon fill="midnightblue" stroke="midnightblue" points="299.01,-38.51 308.41,-33.64 298.02,-31.58 299.01,-38.51"/>
</g>
<!-- Node8&#45;&gt;Node4 -->
<g id="edge9" class="edge">
<title>Node8&#45;&gt;Node4</title>
<path fill="none" stroke="midnightblue" d="M266.06,-124C276.77,-124 287.76,-124 297.92,-124"/>
<polygon fill="midnightblue" stroke="midnightblue" points="298.15,-127.5 308.15,-124 298.15,-120.5 298.15,-127.5"/>
</g>
<!-- Node8&#45;&gt;Node7 -->
<g id="edge10" class="edge">
<title>Node8&#45;&gt;Node7</title>
<path fill="none" stroke="midnightblue" d="M241.19,-114.41C259,-109.34 281.01,-103.08 299.82,-97.72"/>
<polygon fill="midnightblue" stroke="midnightblue" points="300.96,-101.04 309.62,-94.93 299.04,-94.3 300.96,-101.04"/>
</g>
<!-- Node9&#45;&gt;Node6 -->
<g id="edge12" class="edge">
<title>Node9&#45;&gt;Node6</title>
<path fill="none" stroke="midnightblue" d="M233.56,-13.71C251.95,-16.33 277,-19.89 298.29,-22.92"/>
<polygon fill="midnightblue" stroke="midnightblue" points="298,-26.41 308.39,-24.36 298.98,-19.48 298,-26.41"/>
</g>
</g>
</svg>
