<?xml version="1.0" encoding="UTF-8" standalone="no"?>
<!DOCTYPE svg PUBLIC "-//W3C//DTD SVG 1.1//EN"
 "http://www.w3.org/Graphics/SVG/1.1/DTD/svg11.dtd">
<!-- Generated by graphviz version 2.50.0 (20220203.2022)
 -->
<!-- Title: getSatClksFromEph Pages: 1 -->
<svg width="468pt" height="276pt"
 viewBox="0.00 0.00 468.00 275.70" xmlns="http://www.w3.org/2000/svg" xmlns:xlink="http://www.w3.org/1999/xlink">
<g id="graph0" class="graph" transform="scale(1 1) rotate(0) translate(4 271.7)">
<title>getSatClksFromEph</title>
<polygon fill="white" stroke="transparent" points="-4,4 -4,-271.7 464,-271.7 464,4 -4,4"/>
<!-- Node1 -->
<g id="node1" class="node">
<title>Node1</title>
<g id="a_node1"><a xlink:title=" ">
<polygon fill="#bfbfbf" stroke="black" points="0,-210.2 0,-229.2 104,-229.2 104,-210.2 0,-210.2"/>
<text text-anchor="middle" x="52" y="-217.2" font-family="Helvetica,sans-Serif" font-size="10.00">getSatClksFromEph</text>
</a>
</g>
</g>
<!-- Node2 -->
<g id="node2" class="node">
<title>Node2</title>
<g id="a_node2"><a xlink:href="structSatSys.html#aa31d14f6b8c2100c085c732b9a3fef3f" target="_top" xlink:title="Constructs a SatSys object from it&#39;s hash uid.">
<polygon fill="white" stroke="black" points="140,-248.2 140,-267.2 235,-267.2 235,-248.2 140,-248.2"/>
<text text-anchor="middle" x="187.5" y="-255.2" font-family="Helvetica,sans-Serif" font-size="10.00">SatSys::fromHash</text>
</a>
</g>
</g>
<!-- Node1&#45;&gt;Node2 -->
<g id="edge1" class="edge">
<title>Node1&#45;&gt;Node2</title>
<path fill="none" stroke="midnightblue" d="M86.69,-229.29C103.76,-234.15 124.7,-240.11 142.98,-245.31"/>
<polygon fill="midnightblue" stroke="midnightblue" points="142.25,-248.74 152.82,-248.11 144.16,-242.01 142.25,-248.74"/>
</g>
<!-- Node3 -->
<g id="node3" class="node">
<title>Node3</title>
<g id="a_node3"><a xlink:href="structSatSys.html#aec6d07b90d1e8172b8b6a6966abef4fd" target="_top" xlink:title="Returns a std::string of this satellite&#39;s id.">
<polygon fill="white" stroke="black" points="273.5,-248.2 273.5,-267.2 333.5,-267.2 333.5,-248.2 273.5,-248.2"/>
<text text-anchor="middle" x="303.5" y="-255.2" font-family="Helvetica,sans-Serif" font-size="10.00">SatSys::id</text>
</a>
</g>
</g>
<!-- Node1&#45;&gt;Node3 -->
<g id="edge2" class="edge">
<title>Node1&#45;&gt;Node3</title>
<path fill="none" stroke="midnightblue" d="M104.33,-222.71C140.98,-225.43 191.32,-230.33 235,-238.7 244.31,-240.48 254.2,-242.93 263.45,-245.49"/>
<polygon fill="midnightblue" stroke="midnightblue" points="262.61,-248.89 273.19,-248.27 264.54,-242.16 262.61,-248.89"/>
</g>
<!-- Node6 -->
<g id="node5" class="node">
<title>Node6</title>
<g id="a_node5"><a xlink:href="ephemeris_8cpp.html#a8d3c308314354139cf1e890cdf6bead2" target="_top" xlink:title=" ">
<polygon fill="white" stroke="black" points="164.5,-134.2 164.5,-153.2 210.5,-153.2 210.5,-134.2 164.5,-134.2"/>
<text text-anchor="middle" x="187.5" y="-141.2" font-family="Helvetica,sans-Serif" font-size="10.00">satpos</text>
</a>
</g>
</g>
<!-- Node1&#45;&gt;Node6 -->
<g id="edge4" class="edge">
<title>Node1&#45;&gt;Node6</title>
<path fill="none" stroke="midnightblue" d="M69.91,-210.07C92.88,-196.99 134.15,-173.5 160.92,-158.26"/>
<polygon fill="midnightblue" stroke="midnightblue" points="162.77,-161.23 169.73,-153.24 159.31,-155.15 162.77,-161.23"/>
</g>
<!-- Node4 -->
<g id="node4" class="node">
<title>Node4</title>
<g id="a_node4"><a xlink:href="structSatSys.html#adbdf98ba1ef1f22b6aaed93916529513" target="_top" xlink:title="Sets a 4 character c_string of this satellite&#39;s id.">
<polygon fill="white" stroke="red" points="379,-248.2 379,-267.2 453,-267.2 453,-248.2 379,-248.2"/>
<text text-anchor="middle" x="416" y="-255.2" font-family="Helvetica,sans-Serif" font-size="10.00">SatSys::getId</text>
</a>
</g>
</g>
<!-- Node3&#45;&gt;Node4 -->
<g id="edge3" class="edge">
<title>Node3&#45;&gt;Node4</title>
<path fill="none" stroke="midnightblue" d="M333.53,-257.7C344.22,-257.7 356.6,-257.7 368.44,-257.7"/>
<polygon fill="midnightblue" stroke="midnightblue" points="368.65,-261.2 378.65,-257.7 368.65,-254.2 368.65,-261.2"/>
</g>
<!-- Node6&#45;&gt;Node3 -->
<g id="edge6" class="edge">
<title>Node6&#45;&gt;Node3</title>
<path fill="none" stroke="midnightblue" d="M196.42,-153.41C210.55,-170.5 241.42,-206.69 271,-233.7 274.05,-236.49 277.41,-239.29 280.76,-241.95"/>
<polygon fill="midnightblue" stroke="midnightblue" points="278.83,-244.87 288.9,-248.16 283.08,-239.31 278.83,-244.87"/>
</g>
<!-- Node7 -->
<g id="node6" class="node">
<title>Node7</title>
<g id="a_node6"><a xlink:href="ephemeris_8cpp.html#ab387654b0425d2c50b5b539400e122d1" target="_top" xlink:title=" ">
<polygon fill="white" stroke="red" points="392,-153.2 392,-172.2 440,-172.2 440,-153.2 392,-153.2"/>
<text text-anchor="middle" x="416" y="-160.2" font-family="Helvetica,sans-Serif" font-size="10.00">ephpos</text>
</a>
</g>
</g>
<!-- Node6&#45;&gt;Node7 -->
<g id="edge5" class="edge">
<title>Node6&#45;&gt;Node7</title>
<path fill="none" stroke="midnightblue" d="M198.09,-153.32C212.45,-166.98 241.08,-191.37 271,-200.7 298.58,-209.3 307.83,-207.12 336,-200.7 355.78,-196.19 376.39,-186.07 391.59,-177.4"/>
<polygon fill="midnightblue" stroke="midnightblue" points="393.47,-180.36 400.31,-172.26 389.92,-174.33 393.47,-180.36"/>
</g>
<!-- Node25 -->
<g id="node7" class="node">
<title>Node25</title>
<g id="a_node7"><a xlink:href="ephemeris_8cpp.html#a9b8aa496bacec0c8a8a76cac9adeb727" target="_top" xlink:title=" ">
<polygon fill="white" stroke="red" points="271,-172.2 271,-191.2 336,-191.2 336,-172.2 271,-172.2"/>
<text text-anchor="middle" x="303.5" y="-179.2" font-family="Helvetica,sans-Serif" font-size="10.00">kalmanPos</text>
</a>
</g>
</g>
<!-- Node6&#45;&gt;Node25 -->
<g id="edge7" class="edge">
<title>Node6&#45;&gt;Node25</title>
<path fill="none" stroke="midnightblue" d="M210.75,-151.11C225.95,-156.18 246.48,-163.02 264.26,-168.95"/>
<polygon fill="midnightblue" stroke="midnightblue" points="263.22,-172.29 273.81,-172.13 265.43,-165.65 263.22,-172.29"/>
</g>
<!-- Node27 -->
<g id="node8" class="node">
<title>Node27</title>
<g id="a_node8"><a xlink:href="preceph_8cpp.html#a5de24b59b2c115a07bdf76fca0efdda8" target="_top" xlink:title=" ">
<polygon fill="white" stroke="red" points="274,-134.2 274,-153.2 333,-153.2 333,-134.2 274,-134.2"/>
<text text-anchor="middle" x="303.5" y="-141.2" font-family="Helvetica,sans-Serif" font-size="10.00">peph2pos</text>
</a>
</g>
</g>
<!-- Node6&#45;&gt;Node27 -->
<g id="edge8" class="edge">
<title>Node6&#45;&gt;Node27</title>
<path fill="none" stroke="midnightblue" d="M210.75,-143.7C225.81,-143.7 246.1,-143.7 263.77,-143.7"/>
<polygon fill="midnightblue" stroke="midnightblue" points="263.81,-147.2 273.81,-143.7 263.81,-140.2 263.81,-147.2"/>
</g>
<!-- Node35 -->
<g id="node9" class="node">
<title>Node35</title>
<g id="a_node9"><a xlink:href="preceph_8cpp.html#a1e3783257a7c3cce97cf6c8064bdb335" target="_top" xlink:title=" ">
<polygon fill="white" stroke="red" points="276.5,-20.2 276.5,-39.2 330.5,-39.2 330.5,-20.2 276.5,-20.2"/>
<text text-anchor="middle" x="303.5" y="-27.2" font-family="Helvetica,sans-Serif" font-size="10.00">satantoff</text>
</a>
</g>
</g>
<!-- Node6&#45;&gt;Node35 -->
<g id="edge9" class="edge">
<title>Node6&#45;&gt;Node35</title>
<path fill="none" stroke="midnightblue" d="M196.42,-133.98C210.55,-116.89 241.42,-80.71 271,-53.7 274.05,-50.91 277.41,-48.1 280.76,-45.45"/>
<polygon fill="midnightblue" stroke="midnightblue" points="283.08,-48.09 288.9,-39.24 278.83,-42.52 283.08,-48.09"/>
</g>
<!-- Node17 -->
<g id="node10" class="node">
<title>Node17</title>
<g id="a_node10"><a xlink:href="structGTime.html#a64394968bbfdecbbeec4ba5134fdb682" target="_top" xlink:title=" ">
<polygon fill="white" stroke="red" points="372,-20.2 372,-39.2 460,-39.2 460,-20.2 372,-20.2"/>
<text text-anchor="middle" x="416" y="-27.2" font-family="Helvetica,sans-Serif" font-size="10.00">GTime::to_string</text>
</a>
</g>
</g>
<!-- Node6&#45;&gt;Node17 -->
<g id="edge16" class="edge">
<title>Node6&#45;&gt;Node17</title>
<path fill="none" stroke="midnightblue" d="M191.01,-133.95C198.24,-108.12 221.85,-38.05 271,-10.7 306.99,9.33 355.67,-3.93 386.2,-16.16"/>
<polygon fill="midnightblue" stroke="midnightblue" points="384.86,-19.39 395.43,-20.05 387.58,-12.94 384.86,-19.39"/>
</g>
<!-- Node34 -->
<g id="node11" class="node">
<title>Node34</title>
<g id="a_node11"><a xlink:href="streamTrace_8cpp.html#a26d8a8c49d22d1ec101a45f8ee2e1fcc" target="_top" xlink:title=" ">
<polygon fill="white" stroke="black" points="389,-58.2 389,-77.2 443,-77.2 443,-58.2 389,-58.2"/>
<text text-anchor="middle" x="416" y="-65.2" font-family="Helvetica,sans-Serif" font-size="10.00">tracepde</text>
</a>
</g>
</g>
<!-- Node6&#45;&gt;Node34 -->
<g id="edge17" class="edge">
<title>Node6&#45;&gt;Node34</title>
<path fill="none" stroke="midnightblue" d="M198.76,-134.15C213.49,-121.05 242.09,-97.84 271,-86.7 305.89,-73.25 348.68,-69 378.51,-67.81"/>
<polygon fill="midnightblue" stroke="midnightblue" points="378.98,-71.3 388.87,-67.5 378.77,-64.31 378.98,-71.3"/>
</g>
<!-- Node46 -->
<g id="node12" class="node">
<title>Node46</title>
<g id="a_node12"><a xlink:href="ephemeris_8cpp.html#ac837b0f37e00dcd5e15c87d5bffe4ab8" target="_top" xlink:title=" ">
<polygon fill="white" stroke="red" points="271,-96.2 271,-115.2 336,-115.2 336,-96.2 271,-96.2"/>
<text text-anchor="middle" x="303.5" y="-103.2" font-family="Helvetica,sans-Serif" font-size="10.00">satpos_ssr</text>
</a>
</g>
</g>
<!-- Node6&#45;&gt;Node46 -->
<g id="edge12" class="edge">
<title>Node6&#45;&gt;Node46</title>
<path fill="none" stroke="midnightblue" d="M210.75,-136.28C225.95,-131.21 246.48,-124.37 264.26,-118.44"/>
<polygon fill="midnightblue" stroke="midnightblue" points="265.43,-121.74 273.81,-115.26 263.22,-115.1 265.43,-121.74"/>
</g>
<!-- Node35&#45;&gt;Node17 -->
<g id="edge10" class="edge">
<title>Node35&#45;&gt;Node17</title>
<path fill="none" stroke="midnightblue" d="M330.69,-29.7C339.97,-29.7 350.79,-29.7 361.52,-29.7"/>
<polygon fill="midnightblue" stroke="midnightblue" points="361.72,-33.2 371.72,-29.7 361.72,-26.2 361.72,-33.2"/>
</g>
<!-- Node35&#45;&gt;Node34 -->
<g id="edge11" class="edge">
<title>Node35&#45;&gt;Node34</title>
<path fill="none" stroke="midnightblue" d="M330.69,-38.7C345.17,-43.68 363.37,-49.94 379.16,-55.37"/>
<polygon fill="midnightblue" stroke="midnightblue" points="378.02,-58.68 388.62,-58.62 380.3,-52.06 378.02,-58.68"/>
</g>
<!-- Node46&#45;&gt;Node7 -->
<g id="edge13" class="edge">
<title>Node46&#45;&gt;Node7</title>
<path fill="none" stroke="midnightblue" d="M323.24,-115.37C340.89,-124.47 367.53,-138.21 387.57,-148.55"/>
<polygon fill="midnightblue" stroke="midnightblue" points="386.04,-151.7 396.53,-153.17 389.25,-145.48 386.04,-151.7"/>
</g>
<!-- Node46&#45;&gt;Node17 -->
<g id="edge14" class="edge">
<title>Node46&#45;&gt;Node17</title>
<path fill="none" stroke="midnightblue" d="M314.31,-95.83C326.85,-83.6 349.63,-62.68 372,-48.7 374.77,-46.97 377.72,-45.31 380.73,-43.75"/>
<polygon fill="midnightblue" stroke="midnightblue" points="382.33,-46.87 389.82,-39.38 379.29,-40.56 382.33,-46.87"/>
</g>
<!-- Node46&#45;&gt;Node34 -->
<g id="edge15" class="edge">
<title>Node46&#45;&gt;Node34</title>
<path fill="none" stroke="midnightblue" d="M332.38,-96.11C346.54,-91.24 363.91,-85.26 379.07,-80.05"/>
<polygon fill="midnightblue" stroke="midnightblue" points="380.33,-83.32 388.65,-76.76 378.05,-76.7 380.33,-83.32"/>
</g>
</g>
</svg>
