<?xml version="1.0" encoding="UTF-8" standalone="no"?>
<!DOCTYPE svg PUBLIC "-//W3C//DTD SVG 1.1//EN"
 "http://www.w3.org/Graphics/SVG/1.1/DTD/svg11.dtd">
<!-- Generated by graphviz version 2.50.0 (20220203.2022)
 -->
<!-- Title: getSysOutputFilenames Pages: 1 -->
<svg width="371pt" height="141pt"
 viewBox="0.00 0.00 371.00 141.00" xmlns="http://www.w3.org/2000/svg" xmlns:xlink="http://www.w3.org/1999/xlink">
<g id="graph0" class="graph" transform="scale(1 1) rotate(0) translate(4 137)">
<title>getSysOutputFilenames</title>
<polygon fill="white" stroke="transparent" points="-4,4 -4,-137 367,-137 367,4 -4,4"/>
<!-- Node1 -->
<g id="node1" class="node">
<title>Node1</title>
<g id="a_node1"><a xlink:title=" ">
<polygon fill="#bfbfbf" stroke="black" points="0,-66.5 0,-85.5 121,-85.5 121,-66.5 0,-66.5"/>
<text text-anchor="middle" x="60.5" y="-73.5" font-family="Helvetica,sans-Serif" font-size="10.00">getSysOutputFilenames</text>
</a>
</g>
</g>
<!-- Node2 -->
<g id="node2" class="node">
<title>Node2</title>
<g id="a_node2"><a xlink:href="acsConfig_8cpp.html#a4384ae3d8da08f4e8562857e46291559" target="_top" xlink:title="search for and replace section of string">
<polygon fill="white" stroke="black" points="289,-113.5 289,-132.5 363,-132.5 363,-113.5 289,-113.5"/>
<text text-anchor="middle" x="326" y="-120.5" font-family="Helvetica,sans-Serif" font-size="10.00">replaceString</text>
</a>
</g>
</g>
<!-- Node1&#45;&gt;Node2 -->
<g id="edge1" class="edge">
<title>Node1&#45;&gt;Node2</title>
<path fill="none" stroke="midnightblue" d="M75.6,-85.53C93.57,-97.06 126.04,-115.8 157,-123 197.29,-132.38 244.5,-131.36 278.6,-128.6"/>
<polygon fill="midnightblue" stroke="midnightblue" points="279.09,-132.07 288.74,-127.69 278.47,-125.09 279.09,-132.07"/>
</g>
<!-- Node3 -->
<g id="node3" class="node">
<title>Node3</title>
<g id="a_node3"><a xlink:href="acsConfig_8cpp.html#a75a34dc41e76a8680e3aa6d62ff4c800" target="_top" xlink:title="Replace macros for times with numeric values.">
<polygon fill="white" stroke="black" points="167.5,-94.5 167.5,-113.5 242.5,-113.5 242.5,-94.5 167.5,-94.5"/>
<text text-anchor="middle" x="205" y="-101.5" font-family="Helvetica,sans-Serif" font-size="10.00">replaceTimes</text>
</a>
</g>
</g>
<!-- Node1&#45;&gt;Node3 -->
<g id="edge2" class="edge">
<title>Node1&#45;&gt;Node3</title>
<path fill="none" stroke="midnightblue" d="M110.14,-85.56C125.34,-88.54 142.07,-91.83 157.14,-94.79"/>
<polygon fill="midnightblue" stroke="midnightblue" points="156.79,-98.29 167.27,-96.78 158.14,-91.42 156.79,-98.29"/>
</g>
<!-- Node4 -->
<g id="node4" class="node">
<title>Node4</title>
<g id="a_node4"><a xlink:href="structGTime.html#a7ed28cc28b05a43069702e96295be269" target="_top" xlink:title=" ">
<polygon fill="white" stroke="black" points="157,-38.5 157,-57.5 253,-57.5 253,-38.5 157,-38.5"/>
<text text-anchor="middle" x="205" y="-45.5" font-family="Helvetica,sans-Serif" font-size="10.00">GTime::roundTime</text>
</a>
</g>
</g>
<!-- Node1&#45;&gt;Node4 -->
<g id="edge4" class="edge">
<title>Node1&#45;&gt;Node4</title>
<path fill="none" stroke="midnightblue" d="M110.14,-66.44C121.86,-64.14 134.48,-61.66 146.56,-59.29"/>
<polygon fill="midnightblue" stroke="midnightblue" points="147.4,-62.69 156.54,-57.33 146.05,-55.82 147.4,-62.69"/>
</g>
<!-- Node5 -->
<g id="node5" class="node">
<title>Node5</title>
<g id="a_node5"><a xlink:href="structSatSys.html#abfd7e43b0d57c2718d05ca595ee360dd" target="_top" xlink:title="Returns the character used as a prefix for this system.">
<polygon fill="white" stroke="black" points="161,-0.5 161,-19.5 249,-19.5 249,-0.5 161,-0.5"/>
<text text-anchor="middle" x="205" y="-7.5" font-family="Helvetica,sans-Serif" font-size="10.00">SatSys::sysChar</text>
</a>
</g>
</g>
<!-- Node1&#45;&gt;Node5 -->
<g id="edge6" class="edge">
<title>Node1&#45;&gt;Node5</title>
<path fill="none" stroke="midnightblue" d="M79.97,-66.41C99.07,-56.61 129.84,-41.15 157,-29 161.18,-27.13 165.6,-25.23 170,-23.4"/>
<polygon fill="midnightblue" stroke="midnightblue" points="171.54,-26.55 179.46,-19.53 168.88,-20.08 171.54,-26.55"/>
</g>
<!-- Node3&#45;&gt;Node2 -->
<g id="edge3" class="edge">
<title>Node3&#45;&gt;Node2</title>
<path fill="none" stroke="midnightblue" d="M242.67,-109.86C253.98,-111.66 266.58,-113.67 278.45,-115.57"/>
<polygon fill="midnightblue" stroke="midnightblue" points="278.22,-119.08 288.65,-117.2 279.33,-112.16 278.22,-119.08"/>
</g>
<!-- Node4&#45;&gt;Node4 -->
<g id="edge5" class="edge">
<title>Node4&#45;&gt;Node4</title>
<path fill="none" stroke="midnightblue" d="M186.5,-57.76C177.51,-66.57 183.67,-76 205,-76 218.66,-76 226.1,-72.13 227.32,-67.03"/>
<polygon fill="midnightblue" stroke="midnightblue" points="230.55,-65.67 223.5,-57.76 224.07,-68.34 230.55,-65.67"/>
</g>
</g>
</svg>
