<?xml version="1.0" encoding="UTF-8" standalone="no"?>
<!DOCTYPE svg PUBLIC "-//W3C//DTD SVG 1.1//EN"
 "http://www.w3.org/Graphics/SVG/1.1/DTD/svg11.dtd">
<!-- Generated by graphviz version 2.50.0 (20220203.2022)
 -->
<!-- Title: outputNavRinexBody Pages: 1 -->
<svg width="497pt" height="476pt"
 viewBox="0.00 0.00 497.00 475.70" xmlns="http://www.w3.org/2000/svg" xmlns:xlink="http://www.w3.org/1999/xlink">
<g id="graph0" class="graph" transform="scale(1 1) rotate(0) translate(4 471.7)">
<title>outputNavRinexBody</title>
<polygon fill="white" stroke="transparent" points="-4,4 -4,-471.7 493,-471.7 493,4 -4,4"/>
<!-- Node1 -->
<g id="node1" class="node">
<title>Node1</title>
<g id="a_node1"><a xlink:title=" ">
<polygon fill="#bfbfbf" stroke="black" points="0,-143.5 0,-162.5 107,-162.5 107,-143.5 0,-143.5"/>
<text text-anchor="middle" x="53.5" y="-150.5" font-family="Helvetica,sans-Serif" font-size="10.00">outputNavRinexBody</text>
</a>
</g>
</g>
<!-- Node2 -->
<g id="node2" class="node">
<title>Node2</title>
<g id="a_node2"><a xlink:href="structSatSys.html#aa31d14f6b8c2100c085c732b9a3fef3f" target="_top" xlink:title="Constructs a SatSys object from it&#39;s hash uid.">
<polygon fill="white" stroke="black" points="150,-304.5 150,-323.5 245,-323.5 245,-304.5 150,-304.5"/>
<text text-anchor="middle" x="197.5" y="-311.5" font-family="Helvetica,sans-Serif" font-size="10.00">SatSys::fromHash</text>
</a>
</g>
</g>
<!-- Node1&#45;&gt;Node2 -->
<g id="edge1" class="edge">
<title>Node1&#45;&gt;Node2</title>
<path fill="none" stroke="midnightblue" d="M57.97,-162.84C67.48,-188.4 96.37,-257.5 143,-295 145.16,-296.74 147.49,-298.32 149.92,-299.76"/>
<polygon fill="midnightblue" stroke="midnightblue" points="148.59,-303.01 159.1,-304.4 151.75,-296.77 148.59,-303.01"/>
</g>
<!-- Node3 -->
<g id="node3" class="node">
<title>Node3</title>
<g id="a_node3"><a xlink:href="rinexNavWrite_8cpp.html#ad6032ecaca96d9c55f6d307d1c7f09fe" target="_top" xlink:title=" ">
<polygon fill="white" stroke="black" points="146.5,-266.5 146.5,-285.5 248.5,-285.5 248.5,-266.5 146.5,-266.5"/>
<text text-anchor="middle" x="197.5" y="-273.5" font-family="Helvetica,sans-Serif" font-size="10.00">outputNavRinexEph</text>
</a>
</g>
</g>
<!-- Node1&#45;&gt;Node3 -->
<g id="edge2" class="edge">
<title>Node1&#45;&gt;Node3</title>
<path fill="none" stroke="midnightblue" d="M65.64,-162.65C89.91,-183.67 147.74,-233.77 177.74,-259.75"/>
<polygon fill="midnightblue" stroke="midnightblue" points="175.56,-262.49 185.41,-266.39 180.14,-257.2 175.56,-262.49"/>
</g>
<!-- Node17 -->
<g id="node13" class="node">
<title>Node17</title>
<g id="a_node13"><a xlink:href="rinexNavWrite_8cpp.html#a7740f536df7f89a2483312817d815269" target="_top" xlink:title=" ">
<polygon fill="white" stroke="black" points="143,-143.5 143,-162.5 252,-162.5 252,-143.5 143,-143.5"/>
<text text-anchor="middle" x="197.5" y="-150.5" font-family="Helvetica,sans-Serif" font-size="10.00">outputNavRinexGeph</text>
</a>
</g>
</g>
<!-- Node1&#45;&gt;Node17 -->
<g id="edge13" class="edge">
<title>Node1&#45;&gt;Node17</title>
<path fill="none" stroke="midnightblue" d="M107.38,-153C115.56,-153 124.09,-153 132.49,-153"/>
<polygon fill="midnightblue" stroke="midnightblue" points="132.63,-156.5 142.63,-153 132.63,-149.5 132.63,-156.5"/>
</g>
<!-- Node19 -->
<g id="node15" class="node">
<title>Node19</title>
<g id="a_node15"><a xlink:href="ephemeris_8cpp.html#a9f0efb8ea92b3f1fa36a85ce12b366f1" target="_top" xlink:title=" ">
<polygon fill="white" stroke="black" points="158.5,-86.5 158.5,-105.5 236.5,-105.5 236.5,-86.5 158.5,-86.5"/>
<text text-anchor="middle" x="197.5" y="-93.5" font-family="Helvetica,sans-Serif" font-size="10.00">seleph&lt; Eph &gt;</text>
</a>
</g>
</g>
<!-- Node1&#45;&gt;Node19 -->
<g id="edge20" class="edge">
<title>Node1&#45;&gt;Node19</title>
<path fill="none" stroke="midnightblue" d="M78.27,-143.46C101.51,-134.13 137.11,-119.84 163.18,-109.38"/>
<polygon fill="midnightblue" stroke="midnightblue" points="164.68,-112.54 172.65,-105.57 162.07,-106.05 164.68,-112.54"/>
</g>
<!-- Node23 -->
<g id="node17" class="node">
<title>Node23</title>
<g id="a_node17"><a xlink:href="ephemeris_8cpp.html#a45e085c47e8a0dea0de6413085f7d885" target="_top" xlink:title=" ">
<polygon fill="white" stroke="black" points="155,-10.5 155,-29.5 240,-29.5 240,-10.5 155,-10.5"/>
<text text-anchor="middle" x="197.5" y="-17.5" font-family="Helvetica,sans-Serif" font-size="10.00">seleph&lt; Geph &gt;</text>
</a>
</g>
</g>
<!-- Node1&#45;&gt;Node23 -->
<g id="edge24" class="edge">
<title>Node1&#45;&gt;Node23</title>
<path fill="none" stroke="midnightblue" d="M64.71,-143.43C88.65,-121.02 148.61,-64.86 178.69,-36.68"/>
<polygon fill="midnightblue" stroke="midnightblue" points="181.09,-39.23 186,-29.84 176.31,-34.12 181.09,-39.23"/>
</g>
<!-- Node4 -->
<g id="node4" class="node">
<title>Node4</title>
<g id="a_node4"><a xlink:href="gTime_8cpp.html#a0f1c35b5babe507c5b320111c1e634b7" target="_top" xlink:title=" ">
<polygon fill="white" stroke="black" points="311.5,-380.5 311.5,-399.5 365.5,-399.5 365.5,-380.5 311.5,-380.5"/>
<text text-anchor="middle" x="338.5" y="-387.5" font-family="Helvetica,sans-Serif" font-size="10.00">gpst2bdt</text>
</a>
</g>
</g>
<!-- Node3&#45;&gt;Node4 -->
<g id="edge3" class="edge">
<title>Node3&#45;&gt;Node4</title>
<path fill="none" stroke="midnightblue" d="M237.12,-285.51C242.52,-287.99 247.69,-291.1 252,-295 279.73,-320.06 260.59,-345.59 288,-371 292.05,-374.75 296.92,-377.79 302.01,-380.24"/>
<polygon fill="midnightblue" stroke="midnightblue" points="300.68,-383.48 311.26,-384.05 303.34,-377.01 300.68,-383.48"/>
</g>
<!-- Node5 -->
<g id="node5" class="node">
<title>Node5</title>
<g id="a_node5"><a xlink:href="structSatSys.html#aec6d07b90d1e8172b8b6a6966abef4fd" target="_top" xlink:title="Returns a std::string of this satellite&#39;s id.">
<polygon fill="white" stroke="red" points="427,-38.5 427,-57.5 487,-57.5 487,-38.5 427,-38.5"/>
<text text-anchor="middle" x="457" y="-45.5" font-family="Helvetica,sans-Serif" font-size="10.00">SatSys::id</text>
</a>
</g>
</g>
<!-- Node3&#45;&gt;Node5 -->
<g id="edge4" class="edge">
<title>Node3&#45;&gt;Node5</title>
<path fill="none" stroke="midnightblue" d="M236.75,-266.47C289.03,-253.16 377.63,-229.46 389,-219 433.66,-177.88 448.95,-103.34 453.85,-67.83"/>
<polygon fill="midnightblue" stroke="midnightblue" points="457.35,-68.13 455.11,-57.77 450.4,-67.26 457.35,-68.13"/>
</g>
<!-- Node8 -->
<g id="node6" class="node">
<title>Node8</title>
<g id="a_node6"><a xlink:href="common_8cpp.html#a3e64e6b27352f5d683cfbfd28e9bc69a" target="_top" xlink:title=" ">
<polygon fill="white" stroke="black" points="307,-342.5 307,-361.5 370,-361.5 370,-342.5 307,-342.5"/>
<text text-anchor="middle" x="338.5" y="-349.5" font-family="Helvetica,sans-Serif" font-size="10.00">svaToSisa</text>
</a>
</g>
</g>
<!-- Node3&#45;&gt;Node8 -->
<g id="edge5" class="edge">
<title>Node3&#45;&gt;Node8</title>
<path fill="none" stroke="midnightblue" d="M233.03,-285.56C239.6,-288.11 246.22,-291.24 252,-295 271.5,-307.69 268.66,-320.07 288,-333 290.96,-334.98 294.15,-336.79 297.45,-338.45"/>
<polygon fill="midnightblue" stroke="midnightblue" points="296.31,-341.77 306.86,-342.69 299.18,-335.39 296.31,-341.77"/>
</g>
<!-- Node9 -->
<g id="node7" class="node">
<title>Node9</title>
<g id="a_node7"><a xlink:href="common_8cpp.html#a47b796248ca1aabdfc761d61bb878142" target="_top" xlink:title=" ">
<polygon fill="white" stroke="red" points="309,-304.5 309,-323.5 368,-323.5 368,-304.5 309,-304.5"/>
<text text-anchor="middle" x="338.5" y="-311.5" font-family="Helvetica,sans-Serif" font-size="10.00">svaToUra</text>
</a>
</g>
</g>
<!-- Node3&#45;&gt;Node9 -->
<g id="edge6" class="edge">
<title>Node3&#45;&gt;Node9</title>
<path fill="none" stroke="midnightblue" d="M233.58,-285.59C253.62,-291.07 278.77,-297.95 299.31,-303.56"/>
<polygon fill="midnightblue" stroke="midnightblue" points="298.41,-306.94 308.98,-306.2 300.26,-300.19 298.41,-306.94"/>
</g>
<!-- Node11 -->
<g id="node8" class="node">
<title>Node11</title>
<g id="a_node8"><a xlink:href="gTime_8cpp.html#a043c97b6d22706c23f55a5d29563d7dd" target="_top" xlink:title=" ">
<polygon fill="white" stroke="red" points="311.5,-418.5 311.5,-437.5 365.5,-437.5 365.5,-418.5 311.5,-418.5"/>
<text text-anchor="middle" x="338.5" y="-425.5" font-family="Helvetica,sans-Serif" font-size="10.00">time2bdt</text>
</a>
</g>
</g>
<!-- Node3&#45;&gt;Node11 -->
<g id="edge7" class="edge">
<title>Node3&#45;&gt;Node11</title>
<path fill="none" stroke="midnightblue" d="M238.69,-285.53C243.62,-288 248.24,-291.1 252,-295 288.9,-333.23 251.59,-370.31 288,-409 291.86,-413.11 296.71,-416.33 301.85,-418.87"/>
<polygon fill="midnightblue" stroke="midnightblue" points="300.69,-422.18 311.27,-422.73 303.35,-415.7 300.69,-422.18"/>
</g>
<!-- Node13 -->
<g id="node9" class="node">
<title>Node13</title>
<g id="a_node9"><a xlink:href="gTime_8cpp.html#a7a747c44ca37f2ebe379fc4309d3cfba" target="_top" xlink:title=" ">
<polygon fill="white" stroke="black" points="305,-152.5 305,-171.5 372,-171.5 372,-152.5 305,-152.5"/>
<text text-anchor="middle" x="338.5" y="-159.5" font-family="Helvetica,sans-Serif" font-size="10.00">time2epoch</text>
</a>
</g>
</g>
<!-- Node3&#45;&gt;Node13 -->
<g id="edge8" class="edge">
<title>Node3&#45;&gt;Node13</title>
<path fill="none" stroke="midnightblue" d="M205.28,-266.29C218.92,-247.42 251.49,-205.49 288,-181 290.88,-179.07 293.98,-177.3 297.18,-175.68"/>
<polygon fill="midnightblue" stroke="midnightblue" points="298.68,-178.84 306.33,-171.51 295.78,-172.46 298.68,-178.84"/>
</g>
<!-- Node14 -->
<g id="node10" class="node">
<title>Node14</title>
<g id="a_node10"><a xlink:href="gTime_8cpp.html#abf196aa655d8ca10168c2301a68a8101" target="_top" xlink:title=" ">
<polygon fill="white" stroke="red" points="309,-190.5 309,-209.5 368,-209.5 368,-190.5 309,-190.5"/>
<text text-anchor="middle" x="338.5" y="-197.5" font-family="Helvetica,sans-Serif" font-size="10.00">time2gpst</text>
</a>
</g>
</g>
<!-- Node3&#45;&gt;Node14 -->
<g id="edge9" class="edge">
<title>Node3&#45;&gt;Node14</title>
<path fill="none" stroke="midnightblue" d="M214.14,-266.43C231.85,-255.72 261.66,-238.01 288,-224 294.23,-220.68 300.99,-217.28 307.45,-214.12"/>
<polygon fill="midnightblue" stroke="midnightblue" points="309.13,-217.2 316.61,-209.7 306.09,-210.9 309.13,-217.2"/>
</g>
<!-- Node15 -->
<g id="node11" class="node">
<title>Node15</title>
<g id="a_node11"><a xlink:href="streamTrace_8cpp.html#a755e8144b75554c3f9f4407284f37437" target="_top" xlink:title=" ">
<polygon fill="white" stroke="red" points="288,-266.5 288,-285.5 389,-285.5 389,-266.5 288,-266.5"/>
<text text-anchor="middle" x="338.5" y="-273.5" font-family="Helvetica,sans-Serif" font-size="10.00">traceFormatedFloat</text>
</a>
</g>
</g>
<!-- Node3&#45;&gt;Node15 -->
<g id="edge10" class="edge">
<title>Node3&#45;&gt;Node15</title>
<path fill="none" stroke="midnightblue" d="M248.68,-276C258.15,-276 268.13,-276 277.85,-276"/>
<polygon fill="midnightblue" stroke="midnightblue" points="277.86,-279.5 287.86,-276 277.86,-272.5 277.86,-279.5"/>
</g>
<!-- Node16 -->
<g id="node12" class="node">
<title>Node16</title>
<g id="a_node12"><a xlink:href="streamTrace_8cpp.html#ae00e6addd3bdf3a7fd41a254eb9aec89" target="_top" xlink:title=" ">
<polygon fill="white" stroke="black" points="425,-190.5 425,-209.5 489,-209.5 489,-190.5 425,-190.5"/>
<text text-anchor="middle" x="457" y="-197.5" font-family="Helvetica,sans-Serif" font-size="10.00">tracepdeex</text>
</a>
</g>
</g>
<!-- Node3&#45;&gt;Node16 -->
<g id="edge12" class="edge">
<title>Node3&#45;&gt;Node16</title>
<path fill="none" stroke="midnightblue" d="M239.49,-285.56C244.18,-288.02 248.51,-291.11 252,-295 298.35,-346.68 233.55,-403.94 288,-447 323.21,-474.84 353.35,-474.27 389,-447 425.74,-418.9 447.03,-273.15 453.71,-219.69"/>
<polygon fill="midnightblue" stroke="midnightblue" points="457.18,-220.1 454.91,-209.75 450.23,-219.26 457.18,-220.1"/>
</g>
<!-- Node15&#45;&gt;Node16 -->
<g id="edge11" class="edge">
<title>Node15&#45;&gt;Node16</title>
<path fill="none" stroke="midnightblue" d="M361.71,-266.44C370.44,-262.37 380.4,-257.34 389,-252 406.24,-241.29 424.33,-227.05 437.37,-216.17"/>
<polygon fill="midnightblue" stroke="midnightblue" points="439.77,-218.72 445.14,-209.58 435.25,-213.38 439.77,-218.72"/>
</g>
<!-- Node17&#45;&gt;Node5 -->
<g id="edge15" class="edge">
<title>Node17&#45;&gt;Node5</title>
<path fill="none" stroke="midnightblue" d="M214.94,-143.22C226.07,-136.16 240.74,-125.97 252,-115 271.1,-96.39 264.86,-80.25 288,-67 327.53,-44.37 380.87,-42.19 416.75,-43.99"/>
<polygon fill="midnightblue" stroke="midnightblue" points="416.63,-47.49 426.83,-44.62 417.07,-40.5 416.63,-47.49"/>
</g>
<!-- Node17&#45;&gt;Node13 -->
<g id="edge16" class="edge">
<title>Node17&#45;&gt;Node13</title>
<path fill="none" stroke="midnightblue" d="M252.24,-156.48C266.23,-157.39 281.11,-158.35 294.46,-159.21"/>
<polygon fill="midnightblue" stroke="midnightblue" points="294.59,-162.73 304.8,-159.88 295.04,-155.74 294.59,-162.73"/>
</g>
<!-- Node17&#45;&gt;Node14 -->
<g id="edge17" class="edge">
<title>Node17&#45;&gt;Node14</title>
<path fill="none" stroke="midnightblue" d="M226.63,-162.51C247.5,-169.57 276.19,-179.27 299.16,-187.04"/>
<polygon fill="midnightblue" stroke="midnightblue" points="298.34,-190.45 308.94,-190.34 300.58,-183.82 298.34,-190.45"/>
</g>
<!-- Node17&#45;&gt;Node15 -->
<g id="edge18" class="edge">
<title>Node17&#45;&gt;Node15</title>
<path fill="none" stroke="midnightblue" d="M209.41,-162.65C233.16,-183.67 289.77,-233.77 319.14,-259.75"/>
<polygon fill="midnightblue" stroke="midnightblue" points="316.84,-262.39 326.64,-266.39 321.47,-257.15 316.84,-262.39"/>
</g>
<!-- Node17&#45;&gt;Node16 -->
<g id="edge19" class="edge">
<title>Node17&#45;&gt;Node16</title>
<path fill="none" stroke="midnightblue" d="M232.04,-143.46C271.06,-134.1 336.78,-123.79 389,-143 410.37,-150.86 429.57,-168.89 441.88,-182.58"/>
<polygon fill="midnightblue" stroke="midnightblue" points="439.44,-185.12 448.61,-190.42 444.75,-180.56 439.44,-185.12"/>
</g>
<!-- Node18 -->
<g id="node14" class="node">
<title>Node18</title>
<g id="a_node14"><a xlink:href="gTime_8cpp.html#a853f281ccd45b714eb3edb14259a982a" target="_top" xlink:title=" ">
<polygon fill="white" stroke="red" points="311.5,-76.5 311.5,-95.5 365.5,-95.5 365.5,-76.5 311.5,-76.5"/>
<text text-anchor="middle" x="338.5" y="-83.5" font-family="Helvetica,sans-Serif" font-size="10.00">gpst2utc</text>
</a>
</g>
</g>
<!-- Node17&#45;&gt;Node18 -->
<g id="edge14" class="edge">
<title>Node17&#45;&gt;Node18</title>
<path fill="none" stroke="midnightblue" d="M218.42,-143.4C241.95,-132.06 281.31,-113.08 308.29,-100.08"/>
<polygon fill="midnightblue" stroke="midnightblue" points="310.13,-103.08 317.62,-95.58 307.09,-96.77 310.13,-103.08"/>
</g>
<!-- Node20 -->
<g id="node16" class="node">
<title>Node20</title>
<g id="a_node16"><a xlink:href="ephemeris_8cpp.html#a1c8372fd221a0909216384e0b3fdced5" target="_top" xlink:title="select ephememeris">
<polygon fill="white" stroke="red" points="316,-0.5 316,-19.5 361,-19.5 361,-0.5 316,-0.5"/>
<text text-anchor="middle" x="338.5" y="-7.5" font-family="Helvetica,sans-Serif" font-size="10.00">seleph</text>
</a>
</g>
</g>
<!-- Node19&#45;&gt;Node20 -->
<g id="edge21" class="edge">
<title>Node19&#45;&gt;Node20</title>
<path fill="none" stroke="midnightblue" d="M211.13,-86.32C228.1,-73.53 259.44,-50.68 288,-34 293.98,-30.5 300.55,-27.06 306.89,-23.92"/>
<polygon fill="midnightblue" stroke="midnightblue" points="308.44,-27.07 315.93,-19.57 305.4,-20.76 308.44,-27.07"/>
</g>
<!-- Node20&#45;&gt;Node5 -->
<g id="edge22" class="edge">
<title>Node20&#45;&gt;Node5</title>
<path fill="none" stroke="midnightblue" d="M361.14,-17.06C376.76,-22.15 398.28,-29.17 416.88,-35.24"/>
<polygon fill="midnightblue" stroke="midnightblue" points="415.98,-38.63 426.57,-38.4 418.15,-31.97 415.98,-38.63"/>
</g>
<!-- Node20&#45;&gt;Node16 -->
<g id="edge23" class="edge">
<title>Node20&#45;&gt;Node16</title>
<path fill="none" stroke="midnightblue" d="M349.44,-19.88C360.08,-30.78 377.03,-49.15 389,-67 414.56,-105.1 436.88,-154.28 448.17,-180.88"/>
<polygon fill="midnightblue" stroke="midnightblue" points="444.97,-182.32 452.06,-190.2 451.43,-179.62 444.97,-182.32"/>
</g>
<!-- Node23&#45;&gt;Node20 -->
<g id="edge25" class="edge">
<title>Node23&#45;&gt;Node20</title>
<path fill="none" stroke="midnightblue" d="M240.2,-17C261.26,-15.49 286.38,-13.68 305.83,-12.28"/>
<polygon fill="midnightblue" stroke="midnightblue" points="306.26,-15.76 315.98,-11.55 305.76,-8.77 306.26,-15.76"/>
</g>
</g>
</svg>
