<?xml version="1.0" encoding="UTF-8" standalone="no"?>
<!DOCTYPE svg PUBLIC "-//W3C//DTD SVG 1.1//EN"
 "http://www.w3.org/Graphics/SVG/1.1/DTD/svg11.dtd">
<!-- Generated by graphviz version 2.50.0 (20220203.2022)
 -->
<!-- Title: adjweek Pages: 1 -->
<svg width="276pt" height="66pt"
 viewBox="0.00 0.00 276.00 66.00" xmlns="http://www.w3.org/2000/svg" xmlns:xlink="http://www.w3.org/1999/xlink">
<g id="graph0" class="graph" transform="scale(1 1) rotate(0) translate(4 62)">
<title>adjweek</title>
<polygon fill="white" stroke="transparent" points="-4,4 -4,-62 272,-62 272,4 -4,4"/>
<!-- Node1 -->
<g id="node1" class="node">
<title>Node1</title>
<g id="a_node1"><a xlink:title=" ">
<polygon fill="#bfbfbf" stroke="black" points="215,-19.5 215,-38.5 268,-38.5 268,-19.5 215,-19.5"/>
<text text-anchor="middle" x="241.5" y="-26.5" font-family="Helvetica,sans-Serif" font-size="10.00">adjweek</text>
</a>
</g>
</g>
<!-- Node2 -->
<g id="node2" class="node">
<title>Node2</title>
<g id="a_node2"><a xlink:href="rinex_8cpp.html#afb57cdb7cbbb718d96f87e59bb9baa1d" target="_top" xlink:title=" ">
<polygon fill="white" stroke="black" points="107.5,-38.5 107.5,-57.5 176.5,-57.5 176.5,-38.5 107.5,-38.5"/>
<text text-anchor="middle" x="142" y="-45.5" font-family="Helvetica,sans-Serif" font-size="10.00">decode_eph</text>
</a>
</g>
</g>
<!-- Node1&#45;&gt;Node2 -->
<g id="edge1" class="edge">
<title>Node1&#45;&gt;Node2</title>
<path fill="none" stroke="midnightblue" d="M204.81,-35.95C195.57,-37.76 185.65,-39.69 176.52,-41.47"/>
<polygon fill="midnightblue" stroke="midnightblue" points="205.74,-39.34 214.88,-33.99 204.4,-32.47 205.74,-39.34"/>
</g>
<!-- Node14 -->
<g id="node4" class="node">
<title>Node14</title>
<g id="a_node4"><a xlink:href="rinex_8cpp.html#aac018138a12c01f48cea551537a20c80" target="_top" xlink:title=" ">
<polygon fill="white" stroke="black" points="105,-0.5 105,-19.5 179,-19.5 179,-0.5 105,-0.5"/>
<text text-anchor="middle" x="142" y="-7.5" font-family="Helvetica,sans-Serif" font-size="10.00">decode_seph</text>
</a>
</g>
</g>
<!-- Node1&#45;&gt;Node14 -->
<g id="edge3" class="edge">
<title>Node1&#45;&gt;Node14</title>
<path fill="none" stroke="midnightblue" d="M204.96,-22.07C196.53,-20.43 187.53,-18.68 179.08,-17.03"/>
<polygon fill="midnightblue" stroke="midnightblue" points="204.4,-25.53 214.88,-24.01 205.74,-18.66 204.4,-25.53"/>
</g>
<!-- Node3 -->
<g id="node3" class="node">
<title>Node3</title>
<g id="a_node3"><a xlink:href="rinex_8cpp.html#a60ceb46efd053b71d9bff42f456e0c73" target="_top" xlink:title=" ">
<polygon fill="white" stroke="red" points="0,-19.5 0,-38.5 69,-38.5 69,-19.5 0,-19.5"/>
<text text-anchor="middle" x="34.5" y="-26.5" font-family="Helvetica,sans-Serif" font-size="10.00">readrnxnavb</text>
</a>
</g>
</g>
<!-- Node2&#45;&gt;Node3 -->
<g id="edge2" class="edge">
<title>Node2&#45;&gt;Node3</title>
<path fill="none" stroke="midnightblue" d="M97.35,-40.14C87.95,-38.45 78.16,-36.68 69.21,-35.07"/>
<polygon fill="midnightblue" stroke="midnightblue" points="96.87,-43.61 107.33,-41.94 98.11,-36.72 96.87,-43.61"/>
</g>
<!-- Node14&#45;&gt;Node3 -->
<g id="edge4" class="edge">
<title>Node14&#45;&gt;Node3</title>
<path fill="none" stroke="midnightblue" d="M94.99,-18.29C86.33,-19.85 77.42,-21.45 69.22,-22.93"/>
<polygon fill="midnightblue" stroke="midnightblue" points="95.77,-21.7 104.99,-16.49 94.53,-14.81 95.77,-21.7"/>
</g>
</g>
</svg>
