<?xml version="1.0" encoding="UTF-8" standalone="no"?>
<!DOCTYPE svg PUBLIC "-//W3C//DTD SVG 1.1//EN"
 "http://www.w3.org/Graphics/SVG/1.1/DTD/svg11.dtd">
<!-- Generated by graphviz version 2.50.0 (20220203.2022)
 -->
<!-- Title: outputNavRinexEph Pages: 1 -->
<svg width="363pt" height="332pt"
 viewBox="0.00 0.00 363.00 332.00" xmlns="http://www.w3.org/2000/svg" xmlns:xlink="http://www.w3.org/1999/xlink">
<g id="graph0" class="graph" transform="scale(1 1) rotate(0) translate(4 328)">
<title>outputNavRinexEph</title>
<polygon fill="white" stroke="transparent" points="-4,4 -4,-328 359,-328 359,4 -4,4"/>
<!-- Node1 -->
<g id="node1" class="node">
<title>Node1</title>
<g id="a_node1"><a xlink:title=" ">
<polygon fill="#bfbfbf" stroke="black" points="0,-152.5 0,-171.5 102,-171.5 102,-152.5 0,-152.5"/>
<text text-anchor="middle" x="51" y="-159.5" font-family="Helvetica,sans-Serif" font-size="10.00">outputNavRinexEph</text>
</a>
</g>
</g>
<!-- Node2 -->
<g id="node2" class="node">
<title>Node2</title>
<g id="a_node2"><a xlink:href="gTime_8cpp.html#a0f1c35b5babe507c5b320111c1e634b7" target="_top" xlink:title=" ">
<polygon fill="white" stroke="black" points="161.5,-304.5 161.5,-323.5 215.5,-323.5 215.5,-304.5 161.5,-304.5"/>
<text text-anchor="middle" x="188.5" y="-311.5" font-family="Helvetica,sans-Serif" font-size="10.00">gpst2bdt</text>
</a>
</g>
</g>
<!-- Node1&#45;&gt;Node2 -->
<g id="edge1" class="edge">
<title>Node1&#45;&gt;Node2</title>
<path fill="none" stroke="midnightblue" d="M55.67,-171.5C65.41,-195.56 94.23,-259.48 138,-295 142.14,-298.36 146.94,-301.17 151.88,-303.51"/>
<polygon fill="midnightblue" stroke="midnightblue" points="150.87,-306.87 161.45,-307.45 153.53,-300.4 150.87,-306.87"/>
</g>
<!-- Node3 -->
<g id="node3" class="node">
<title>Node3</title>
<g id="a_node3"><a xlink:href="structSatSys.html#aec6d07b90d1e8172b8b6a6966abef4fd" target="_top" xlink:title="Returns a std::string of this satellite&#39;s id.">
<polygon fill="white" stroke="black" points="158.5,-266.5 158.5,-285.5 218.5,-285.5 218.5,-266.5 158.5,-266.5"/>
<text text-anchor="middle" x="188.5" y="-273.5" font-family="Helvetica,sans-Serif" font-size="10.00">SatSys::id</text>
</a>
</g>
</g>
<!-- Node1&#45;&gt;Node3 -->
<g id="edge2" class="edge">
<title>Node1&#45;&gt;Node3</title>
<path fill="none" stroke="midnightblue" d="M58.42,-171.72C71.37,-190.63 102.4,-232.6 138,-257 141.46,-259.37 145.26,-261.5 149.16,-263.4"/>
<polygon fill="midnightblue" stroke="midnightblue" points="147.79,-266.62 158.35,-267.41 150.59,-260.2 147.79,-266.62"/>
</g>
<!-- Node6 -->
<g id="node5" class="node">
<title>Node6</title>
<g id="a_node5"><a xlink:href="common_8cpp.html#a3e64e6b27352f5d683cfbfd28e9bc69a" target="_top" xlink:title=" ">
<polygon fill="white" stroke="black" points="157,-228.5 157,-247.5 220,-247.5 220,-228.5 157,-228.5"/>
<text text-anchor="middle" x="188.5" y="-235.5" font-family="Helvetica,sans-Serif" font-size="10.00">svaToSisa</text>
</a>
</g>
</g>
<!-- Node1&#45;&gt;Node6 -->
<g id="edge4" class="edge">
<title>Node1&#45;&gt;Node6</title>
<path fill="none" stroke="midnightblue" d="M64.57,-171.61C80.86,-183.76 110.46,-204.8 138,-219 141.82,-220.97 145.89,-222.85 150,-224.61"/>
<polygon fill="midnightblue" stroke="midnightblue" points="148.96,-227.97 159.54,-228.49 151.59,-221.48 148.96,-227.97"/>
</g>
<!-- Node7 -->
<g id="node6" class="node">
<title>Node7</title>
<g id="a_node6"><a xlink:href="common_8cpp.html#a47b796248ca1aabdfc761d61bb878142" target="_top" xlink:title=" ">
<polygon fill="white" stroke="black" points="159,-190.5 159,-209.5 218,-209.5 218,-190.5 159,-190.5"/>
<text text-anchor="middle" x="188.5" y="-197.5" font-family="Helvetica,sans-Serif" font-size="10.00">svaToUra</text>
</a>
</g>
</g>
<!-- Node1&#45;&gt;Node7 -->
<g id="edge5" class="edge">
<title>Node1&#45;&gt;Node7</title>
<path fill="none" stroke="midnightblue" d="M86.19,-171.59C105.37,-176.97 129.36,-183.69 149.17,-189.25"/>
<polygon fill="midnightblue" stroke="midnightblue" points="148.24,-192.63 158.82,-191.96 150.13,-185.89 148.24,-192.63"/>
</g>
<!-- Node9 -->
<g id="node8" class="node">
<title>Node9</title>
<g id="a_node8"><a xlink:href="gTime_8cpp.html#a043c97b6d22706c23f55a5d29563d7dd" target="_top" xlink:title=" ">
<polygon fill="white" stroke="black" points="161.5,-76.5 161.5,-95.5 215.5,-95.5 215.5,-76.5 161.5,-76.5"/>
<text text-anchor="middle" x="188.5" y="-83.5" font-family="Helvetica,sans-Serif" font-size="10.00">time2bdt</text>
</a>
</g>
</g>
<!-- Node1&#45;&gt;Node9 -->
<g id="edge8" class="edge">
<title>Node1&#45;&gt;Node9</title>
<path fill="none" stroke="midnightblue" d="M66.98,-152.36C83.94,-141.59 112.55,-123.83 138,-110 144.2,-106.63 150.95,-103.21 157.41,-100.04"/>
<polygon fill="midnightblue" stroke="midnightblue" points="159.08,-103.12 166.57,-95.62 156.04,-96.81 159.08,-103.12"/>
</g>
<!-- Node11 -->
<g id="node10" class="node">
<title>Node11</title>
<g id="a_node10"><a xlink:href="gTime_8cpp.html#a7a747c44ca37f2ebe379fc4309d3cfba" target="_top" xlink:title=" ">
<polygon fill="white" stroke="black" points="155,-0.5 155,-19.5 222,-19.5 222,-0.5 155,-0.5"/>
<text text-anchor="middle" x="188.5" y="-7.5" font-family="Helvetica,sans-Serif" font-size="10.00">time2epoch</text>
</a>
</g>
</g>
<!-- Node1&#45;&gt;Node11 -->
<g id="edge10" class="edge">
<title>Node1&#45;&gt;Node11</title>
<path fill="none" stroke="midnightblue" d="M55.67,-152.5C65.41,-128.44 94.23,-64.52 138,-29 140.39,-27.06 143,-25.31 145.73,-23.72"/>
<polygon fill="midnightblue" stroke="midnightblue" points="147.37,-26.81 154.74,-19.2 144.24,-20.55 147.37,-26.81"/>
</g>
<!-- Node12 -->
<g id="node11" class="node">
<title>Node12</title>
<g id="a_node11"><a xlink:href="gTime_8cpp.html#abf196aa655d8ca10168c2301a68a8101" target="_top" xlink:title=" ">
<polygon fill="white" stroke="black" points="159,-38.5 159,-57.5 218,-57.5 218,-38.5 159,-38.5"/>
<text text-anchor="middle" x="188.5" y="-45.5" font-family="Helvetica,sans-Serif" font-size="10.00">time2gpst</text>
</a>
</g>
</g>
<!-- Node1&#45;&gt;Node12 -->
<g id="edge11" class="edge">
<title>Node1&#45;&gt;Node12</title>
<path fill="none" stroke="midnightblue" d="M58.42,-152.28C71.37,-133.37 102.4,-91.4 138,-67 141.55,-64.57 145.44,-62.4 149.45,-60.46"/>
<polygon fill="midnightblue" stroke="midnightblue" points="151.08,-63.57 158.87,-56.39 148.3,-57.14 151.08,-63.57"/>
</g>
<!-- Node13 -->
<g id="node12" class="node">
<title>Node13</title>
<g id="a_node12"><a xlink:href="streamTrace_8cpp.html#a755e8144b75554c3f9f4407284f37437" target="_top" xlink:title=" ">
<polygon fill="white" stroke="black" points="138,-152.5 138,-171.5 239,-171.5 239,-152.5 138,-152.5"/>
<text text-anchor="middle" x="188.5" y="-159.5" font-family="Helvetica,sans-Serif" font-size="10.00">traceFormatedFloat</text>
</a>
</g>
</g>
<!-- Node1&#45;&gt;Node13 -->
<g id="edge13" class="edge">
<title>Node1&#45;&gt;Node13</title>
<path fill="none" stroke="midnightblue" d="M102.07,-162C110.32,-162 118.95,-162 127.42,-162"/>
<polygon fill="midnightblue" stroke="midnightblue" points="127.64,-165.5 137.64,-162 127.64,-158.5 127.64,-165.5"/>
</g>
<!-- Node14 -->
<g id="node13" class="node">
<title>Node14</title>
<g id="a_node13"><a xlink:href="streamTrace_8cpp.html#ae00e6addd3bdf3a7fd41a254eb9aec89" target="_top" xlink:title=" ">
<polygon fill="white" stroke="black" points="283,-124.5 283,-143.5 347,-143.5 347,-124.5 283,-124.5"/>
<text text-anchor="middle" x="315" y="-131.5" font-family="Helvetica,sans-Serif" font-size="10.00">tracepdeex</text>
</a>
</g>
</g>
<!-- Node1&#45;&gt;Node14 -->
<g id="edge16" class="edge">
<title>Node1&#45;&gt;Node14</title>
<path fill="none" stroke="midnightblue" d="M89.01,-152.41C104.1,-148.87 121.79,-145.19 138,-143 183.81,-136.81 236.85,-134.79 272.63,-134.18"/>
<polygon fill="midnightblue" stroke="midnightblue" points="272.75,-137.68 282.7,-134.03 272.65,-130.68 272.75,-137.68"/>
</g>
<!-- Node4 -->
<g id="node4" class="node">
<title>Node4</title>
<g id="a_node4"><a xlink:href="structSatSys.html#adbdf98ba1ef1f22b6aaed93916529513" target="_top" xlink:title="Sets a 4 character c_string of this satellite&#39;s id.">
<polygon fill="white" stroke="red" points="278,-266.5 278,-285.5 352,-285.5 352,-266.5 278,-266.5"/>
<text text-anchor="middle" x="315" y="-273.5" font-family="Helvetica,sans-Serif" font-size="10.00">SatSys::getId</text>
</a>
</g>
</g>
<!-- Node3&#45;&gt;Node4 -->
<g id="edge3" class="edge">
<title>Node3&#45;&gt;Node4</title>
<path fill="none" stroke="midnightblue" d="M218.69,-276C233.19,-276 251.07,-276 267.41,-276"/>
<polygon fill="midnightblue" stroke="midnightblue" points="267.87,-279.5 277.87,-276 267.87,-272.5 267.87,-279.5"/>
</g>
<!-- Node8 -->
<g id="node7" class="node">
<title>Node8</title>
<g id="a_node7"><a xlink:href="namespacepod__yaml.html#a59ea539cabb34ef7985e7e57c4b9dd93" target="_top" xlink:title=" ">
<polygon fill="white" stroke="black" points="275,-171.5 275,-190.5 355,-190.5 355,-171.5 275,-171.5"/>
<text text-anchor="middle" x="315" y="-178.5" font-family="Helvetica,sans-Serif" font-size="10.00">pod_yaml::pow</text>
</a>
</g>
</g>
<!-- Node7&#45;&gt;Node8 -->
<g id="edge6" class="edge">
<title>Node7&#45;&gt;Node8</title>
<path fill="none" stroke="midnightblue" d="M218.06,-195.64C231.84,-193.54 248.78,-190.95 264.56,-188.55"/>
<polygon fill="midnightblue" stroke="midnightblue" points="265.36,-191.96 274.72,-186.99 264.31,-185.04 265.36,-191.96"/>
</g>
<!-- Node8&#45;&gt;Node8 -->
<g id="edge7" class="edge">
<title>Node8&#45;&gt;Node8</title>
<path fill="none" stroke="midnightblue" d="M295.58,-190.76C286.13,-199.57 292.61,-209 315,-209 329.35,-209 337.16,-205.13 338.44,-200.03"/>
<polygon fill="midnightblue" stroke="midnightblue" points="341.61,-198.54 334.42,-190.76 335.18,-201.32 341.61,-198.54"/>
</g>
<!-- Node10 -->
<g id="node9" class="node">
<title>Node10</title>
<g id="a_node9"><a xlink:href="gTime_8cpp.html#aa46173b9085096882d09e53d96e9dc41" target="_top" xlink:title=" ">
<polygon fill="white" stroke="black" points="281.5,-57.5 281.5,-76.5 348.5,-76.5 348.5,-57.5 281.5,-57.5"/>
<text text-anchor="middle" x="315" y="-64.5" font-family="Helvetica,sans-Serif" font-size="10.00">epoch2time</text>
</a>
</g>
</g>
<!-- Node9&#45;&gt;Node10 -->
<g id="edge9" class="edge">
<title>Node9&#45;&gt;Node10</title>
<path fill="none" stroke="midnightblue" d="M215.6,-82.02C231.72,-79.56 252.8,-76.34 271.31,-73.52"/>
<polygon fill="midnightblue" stroke="midnightblue" points="271.92,-76.96 281.28,-71.99 270.86,-70.04 271.92,-76.96"/>
</g>
<!-- Node12&#45;&gt;Node10 -->
<g id="edge12" class="edge">
<title>Node12&#45;&gt;Node10</title>
<path fill="none" stroke="midnightblue" d="M218.06,-52.36C233.79,-54.76 253.61,-57.78 271.15,-60.46"/>
<polygon fill="midnightblue" stroke="midnightblue" points="270.76,-63.94 281.17,-61.99 271.81,-57.02 270.76,-63.94"/>
</g>
<!-- Node13&#45;&gt;Node8 -->
<g id="edge14" class="edge">
<title>Node13&#45;&gt;Node8</title>
<path fill="none" stroke="midnightblue" d="M239.06,-169.56C247.55,-170.86 256.36,-172.2 264.84,-173.5"/>
<polygon fill="midnightblue" stroke="midnightblue" points="264.55,-176.99 274.96,-175.04 265.6,-170.07 264.55,-176.99"/>
</g>
<!-- Node13&#45;&gt;Node14 -->
<g id="edge15" class="edge">
<title>Node13&#45;&gt;Node14</title>
<path fill="none" stroke="midnightblue" d="M232,-152.44C245.12,-149.49 259.54,-146.25 272.58,-143.31"/>
<polygon fill="midnightblue" stroke="midnightblue" points="273.71,-146.65 282.7,-141.04 272.17,-139.82 273.71,-146.65"/>
</g>
</g>
</svg>
