<?xml version="1.0" encoding="UTF-8" standalone="no"?>
<!DOCTYPE svg PUBLIC "-//W3C//DTD SVG 1.1//EN"
 "http://www.w3.org/Graphics/SVG/1.1/DTD/svg11.dtd">
<!-- Generated by graphviz version 2.50.0 (20220203.2022)
 -->
<!-- Title: readrnx Pages: 1 -->
<svg width="360pt" height="332pt"
 viewBox="0.00 0.00 360.00 332.00" xmlns="http://www.w3.org/2000/svg" xmlns:xlink="http://www.w3.org/1999/xlink">
<g id="graph0" class="graph" transform="scale(1 1) rotate(0) translate(4 328)">
<title>readrnx</title>
<polygon fill="white" stroke="transparent" points="-4,4 -4,-328 356,-328 356,4 -4,4"/>
<!-- Node1 -->
<g id="node1" class="node">
<title>Node1</title>
<g id="a_node1"><a xlink:title=" ">
<polygon fill="#bfbfbf" stroke="black" points="0,-95.5 0,-114.5 48,-114.5 48,-95.5 0,-95.5"/>
<text text-anchor="middle" x="24" y="-102.5" font-family="Helvetica,sans-Serif" font-size="10.00">readrnx</text>
</a>
</g>
</g>
<!-- Node2 -->
<g id="node2" class="node">
<title>Node2</title>
<g id="a_node2"><a xlink:href="rinex_8cpp.html#a9bcafc420d22153ecc929aee6cc3e56d" target="_top" xlink:title=" ">
<polygon fill="white" stroke="black" points="193.5,-114.5 193.5,-133.5 254.5,-133.5 254.5,-114.5 193.5,-114.5"/>
<text text-anchor="middle" x="224" y="-121.5" font-family="Helvetica,sans-Serif" font-size="10.00">readrnxclk</text>
</a>
</g>
</g>
<!-- Node1&#45;&gt;Node2 -->
<g id="edge1" class="edge">
<title>Node1&#45;&gt;Node2</title>
<path fill="none" stroke="midnightblue" d="M48.1,-107.22C81.23,-110.4 142.69,-116.29 183.22,-120.18"/>
<polygon fill="midnightblue" stroke="midnightblue" points="183,-123.68 193.29,-121.15 183.67,-116.71 183,-123.68"/>
</g>
<!-- Node6 -->
<g id="node5" class="node">
<title>Node6</title>
<g id="a_node5"><a xlink:href="rinex_8cpp.html#abfdf86b0c638cef30e7c8b3dbfed6973" target="_top" xlink:title=" ">
<polygon fill="white" stroke="black" points="89.5,-209.5 89.5,-228.5 142.5,-228.5 142.5,-209.5 89.5,-209.5"/>
<text text-anchor="middle" x="116" y="-216.5" font-family="Helvetica,sans-Serif" font-size="10.00">readrnxh</text>
</a>
</g>
</g>
<!-- Node1&#45;&gt;Node6 -->
<g id="edge4" class="edge">
<title>Node1&#45;&gt;Node6</title>
<path fill="none" stroke="midnightblue" d="M32.67,-114.72C47.82,-133.9 81.74,-176.88 100.98,-201.25"/>
<polygon fill="midnightblue" stroke="midnightblue" points="98.4,-203.62 107.35,-209.31 103.9,-199.29 98.4,-203.62"/>
</g>
<!-- Node11 -->
<g id="node10" class="node">
<title>Node11</title>
<g id="a_node10"><a xlink:href="rinex_8cpp.html#a32df8e726fe3787b8b1f3ecae9a14dcd" target="_top" xlink:title=" ">
<polygon fill="white" stroke="black" points="84,-76.5 84,-95.5 148,-95.5 148,-76.5 84,-76.5"/>
<text text-anchor="middle" x="116" y="-83.5" font-family="Helvetica,sans-Serif" font-size="10.00">readrnxnav</text>
</a>
</g>
</g>
<!-- Node1&#45;&gt;Node11 -->
<g id="edge14" class="edge">
<title>Node1&#45;&gt;Node11</title>
<path fill="none" stroke="midnightblue" d="M48.18,-100.11C56.05,-98.45 65.09,-96.54 73.94,-94.67"/>
<polygon fill="midnightblue" stroke="midnightblue" points="74.7,-98.09 83.76,-92.6 73.25,-91.24 74.7,-98.09"/>
</g>
<!-- Node31 -->
<g id="node12" class="node">
<title>Node31</title>
<g id="a_node12"><a xlink:href="rinex_8cpp.html#a7ac0513671bff5c91f961ebca3ae1673" target="_top" xlink:title=" ">
<polygon fill="white" stroke="black" points="84,-38.5 84,-57.5 148,-57.5 148,-38.5 84,-38.5"/>
<text text-anchor="middle" x="116" y="-45.5" font-family="Helvetica,sans-Serif" font-size="10.00">readrnxobs</text>
</a>
</g>
</g>
<!-- Node1&#45;&gt;Node31 -->
<g id="edge18" class="edge">
<title>Node1&#45;&gt;Node31</title>
<path fill="none" stroke="midnightblue" d="M39.98,-95.22C51.87,-87.49 68.94,-76.46 84,-67 86.15,-65.65 88.39,-64.25 90.64,-62.86"/>
<polygon fill="midnightblue" stroke="midnightblue" points="92.51,-65.82 99.19,-57.6 88.84,-59.86 92.51,-65.82"/>
</g>
<!-- Node3 -->
<g id="node3" class="node">
<title>Node3</title>
<g id="a_node3"><a xlink:href="gTime_8cpp.html#aca21817ee2127e89013ae4252c5f9abe" target="_top" xlink:title=" ">
<polygon fill="white" stroke="black" points="300,-190.5 300,-209.5 352,-209.5 352,-190.5 300,-190.5"/>
<text text-anchor="middle" x="326" y="-197.5" font-family="Helvetica,sans-Serif" font-size="10.00">str2num</text>
</a>
</g>
</g>
<!-- Node2&#45;&gt;Node3 -->
<g id="edge2" class="edge">
<title>Node2&#45;&gt;Node3</title>
<path fill="none" stroke="midnightblue" d="M242.07,-133.73C249.03,-137.89 257.06,-142.95 264,-148 279.18,-159.04 295.3,-172.88 307.15,-183.51"/>
<polygon fill="midnightblue" stroke="midnightblue" points="304.85,-186.15 314.61,-190.28 309.56,-180.96 304.85,-186.15"/>
</g>
<!-- Node4 -->
<g id="node4" class="node">
<title>Node4</title>
<g id="a_node4"><a xlink:href="gTime_8cpp.html#a2c095eb9298cdfa2742bfc37ad2a0148" target="_top" xlink:title=" ">
<polygon fill="white" stroke="red" points="300,-95.5 300,-114.5 352,-114.5 352,-95.5 300,-95.5"/>
<text text-anchor="middle" x="326" y="-102.5" font-family="Helvetica,sans-Serif" font-size="10.00">str2time</text>
</a>
</g>
</g>
<!-- Node2&#45;&gt;Node4 -->
<g id="edge3" class="edge">
<title>Node2&#45;&gt;Node4</title>
<path fill="none" stroke="midnightblue" d="M254.73,-118.35C265.75,-116.26 278.35,-113.86 289.81,-111.69"/>
<polygon fill="midnightblue" stroke="midnightblue" points="290.77,-115.07 299.94,-109.76 289.46,-108.19 290.77,-115.07"/>
</g>
<!-- Node6&#45;&gt;Node3 -->
<g id="edge13" class="edge">
<title>Node6&#45;&gt;Node3</title>
<path fill="none" stroke="midnightblue" d="M129.47,-209.28C142.31,-199.94 163.31,-186.46 184,-181 218.38,-171.93 228.85,-175.65 264,-181 272.75,-182.33 281.97,-184.68 290.52,-187.28"/>
<polygon fill="midnightblue" stroke="midnightblue" points="289.58,-190.65 300.17,-190.4 291.74,-183.99 289.58,-190.65"/>
</g>
<!-- Node7 -->
<g id="node6" class="node">
<title>Node7</title>
<g id="a_node6"><a xlink:href="rinex_8cpp.html#a7ed873968127b3e21850ea6a4aa2e3fe" target="_top" xlink:title=" ">
<polygon fill="white" stroke="black" points="184,-304.5 184,-323.5 264,-323.5 264,-304.5 184,-304.5"/>
<text text-anchor="middle" x="224" y="-311.5" font-family="Helvetica,sans-Serif" font-size="10.00">decode_gnavh</text>
</a>
</g>
</g>
<!-- Node6&#45;&gt;Node7 -->
<g id="edge5" class="edge">
<title>Node6&#45;&gt;Node7</title>
<path fill="none" stroke="midnightblue" d="M123.81,-229C134.9,-244.71 158.25,-275.39 184,-295 186.04,-296.56 188.24,-298.04 190.5,-299.43"/>
<polygon fill="midnightblue" stroke="midnightblue" points="188.99,-302.6 199.43,-304.38 192.38,-296.47 188.99,-302.6"/>
</g>
<!-- Node8 -->
<g id="node7" class="node">
<title>Node8</title>
<g id="a_node7"><a xlink:href="rinex_8cpp.html#ad533ed4e82d5f5e27cc614534076e026" target="_top" xlink:title=" ">
<polygon fill="white" stroke="black" points="184,-266.5 184,-285.5 264,-285.5 264,-266.5 184,-266.5"/>
<text text-anchor="middle" x="224" y="-273.5" font-family="Helvetica,sans-Serif" font-size="10.00">decode_hnavh</text>
</a>
</g>
</g>
<!-- Node6&#45;&gt;Node8 -->
<g id="edge7" class="edge">
<title>Node6&#45;&gt;Node8</title>
<path fill="none" stroke="midnightblue" d="M133.09,-228.5C146.56,-236.37 166.37,-247.72 184,-257 187.09,-258.63 190.35,-260.29 193.6,-261.92"/>
<polygon fill="midnightblue" stroke="midnightblue" points="192.12,-265.09 202.64,-266.38 195.22,-258.82 192.12,-265.09"/>
</g>
<!-- Node9 -->
<g id="node8" class="node">
<title>Node9</title>
<g id="a_node8"><a xlink:href="rinex_8cpp.html#a39ebe5bda70440d155728068d2b6380d" target="_top" xlink:title=" ">
<polygon fill="white" stroke="black" points="187,-228.5 187,-247.5 261,-247.5 261,-228.5 187,-228.5"/>
<text text-anchor="middle" x="224" y="-235.5" font-family="Helvetica,sans-Serif" font-size="10.00">decode_navh</text>
</a>
</g>
</g>
<!-- Node6&#45;&gt;Node9 -->
<g id="edge9" class="edge">
<title>Node6&#45;&gt;Node9</title>
<path fill="none" stroke="midnightblue" d="M142.66,-223.6C152.9,-225.43 165.01,-227.6 176.68,-229.7"/>
<polygon fill="midnightblue" stroke="midnightblue" points="176.3,-233.19 186.76,-231.5 177.54,-226.29 176.3,-233.19"/>
</g>
<!-- Node10 -->
<g id="node9" class="node">
<title>Node10</title>
<g id="a_node9"><a xlink:href="rinex_8cpp.html#a2537d98218e8bb6c34db17074c094eb2" target="_top" xlink:title=" ">
<polygon fill="white" stroke="black" points="187,-190.5 187,-209.5 261,-209.5 261,-190.5 187,-190.5"/>
<text text-anchor="middle" x="224" y="-197.5" font-family="Helvetica,sans-Serif" font-size="10.00">decode_obsh</text>
</a>
</g>
</g>
<!-- Node6&#45;&gt;Node10 -->
<g id="edge11" class="edge">
<title>Node6&#45;&gt;Node10</title>
<path fill="none" stroke="midnightblue" d="M142.66,-214.4C152.9,-212.57 165.01,-210.4 176.68,-208.3"/>
<polygon fill="midnightblue" stroke="midnightblue" points="177.54,-211.71 186.76,-206.5 176.3,-204.81 177.54,-211.71"/>
</g>
<!-- Node7&#45;&gt;Node3 -->
<g id="edge6" class="edge">
<title>Node7&#45;&gt;Node3</title>
<path fill="none" stroke="midnightblue" d="M249.79,-304.46C254.82,-301.85 259.83,-298.7 264,-295 288.42,-273.29 306.91,-239.57 316.83,-218.68"/>
<polygon fill="midnightblue" stroke="midnightblue" points="320.02,-220.12 321,-209.57 313.65,-217.21 320.02,-220.12"/>
</g>
<!-- Node8&#45;&gt;Node3 -->
<g id="edge8" class="edge">
<title>Node8&#45;&gt;Node3</title>
<path fill="none" stroke="midnightblue" d="M247.51,-266.45C253.08,-263.71 258.91,-260.5 264,-257 280.85,-245.41 297.66,-229.28 309.35,-217.14"/>
<polygon fill="midnightblue" stroke="midnightblue" points="311.93,-219.5 316.24,-209.82 306.84,-214.7 311.93,-219.5"/>
</g>
<!-- Node9&#45;&gt;Node3 -->
<g id="edge10" class="edge">
<title>Node9&#45;&gt;Node3</title>
<path fill="none" stroke="midnightblue" d="M250.23,-228.41C262.31,-223.82 276.97,-218.25 290.1,-213.26"/>
<polygon fill="midnightblue" stroke="midnightblue" points="291.67,-216.41 299.77,-209.59 289.18,-209.87 291.67,-216.41"/>
</g>
<!-- Node10&#45;&gt;Node3 -->
<g id="edge12" class="edge">
<title>Node10&#45;&gt;Node3</title>
<path fill="none" stroke="midnightblue" d="M261.1,-200C270.45,-200 280.5,-200 289.81,-200"/>
<polygon fill="midnightblue" stroke="midnightblue" points="289.91,-203.5 299.91,-200 289.91,-196.5 289.91,-203.5"/>
</g>
<!-- Node12 -->
<g id="node11" class="node">
<title>Node12</title>
<g id="a_node11"><a xlink:href="rinex_8cpp.html#a60ceb46efd053b71d9bff42f456e0c73" target="_top" xlink:title=" ">
<polygon fill="white" stroke="red" points="189.5,-76.5 189.5,-95.5 258.5,-95.5 258.5,-76.5 189.5,-76.5"/>
<text text-anchor="middle" x="224" y="-83.5" font-family="Helvetica,sans-Serif" font-size="10.00">readrnxnavb</text>
</a>
</g>
</g>
<!-- Node11&#45;&gt;Node12 -->
<g id="edge15" class="edge">
<title>Node11&#45;&gt;Node12</title>
<path fill="none" stroke="midnightblue" d="M148.23,-86C157.94,-86 168.83,-86 179.23,-86"/>
<polygon fill="midnightblue" stroke="midnightblue" points="179.41,-89.5 189.41,-86 179.41,-82.5 179.41,-89.5"/>
</g>
<!-- Node12&#45;&gt;Node3 -->
<g id="edge16" class="edge">
<title>Node12&#45;&gt;Node3</title>
<path fill="none" stroke="midnightblue" d="M249.79,-95.54C254.82,-98.15 259.83,-101.3 264,-105 288.42,-126.71 306.91,-160.43 316.83,-181.32"/>
<polygon fill="midnightblue" stroke="midnightblue" points="313.65,-182.79 321,-190.43 320.02,-179.88 313.65,-182.79"/>
</g>
<!-- Node12&#45;&gt;Node4 -->
<g id="edge17" class="edge">
<title>Node12&#45;&gt;Node4</title>
<path fill="none" stroke="midnightblue" d="M258.58,-92.38C268.7,-94.3 279.84,-96.42 290.06,-98.36"/>
<polygon fill="midnightblue" stroke="midnightblue" points="289.42,-101.8 299.89,-100.23 290.72,-94.92 289.42,-101.8"/>
</g>
<!-- Node32 -->
<g id="node13" class="node">
<title>Node32</title>
<g id="a_node13"><a xlink:href="rinex_8cpp.html#a8904a223b164e16e88cc0e2e0681d5c2" target="_top" xlink:title=" ">
<polygon fill="white" stroke="red" points="189.5,-0.5 189.5,-19.5 258.5,-19.5 258.5,-0.5 189.5,-0.5"/>
<text text-anchor="middle" x="224" y="-7.5" font-family="Helvetica,sans-Serif" font-size="10.00">readrnxobsb</text>
</a>
</g>
</g>
<!-- Node31&#45;&gt;Node32 -->
<g id="edge19" class="edge">
<title>Node31&#45;&gt;Node32</title>
<path fill="none" stroke="midnightblue" d="M143.75,-38.41C156.8,-33.73 172.7,-28.03 186.82,-22.97"/>
<polygon fill="midnightblue" stroke="midnightblue" points="188.03,-26.26 196.26,-19.59 185.67,-19.67 188.03,-26.26"/>
</g>
<!-- Node29 -->
<g id="node14" class="node">
<title>Node29</title>
<g id="a_node14"><a xlink:href="gTime_8cpp.html#abb00b59d1e35b7cc9e031a5faf536f9e" target="_top" xlink:title=" ">
<polygon fill="white" stroke="red" points="197,-38.5 197,-57.5 251,-57.5 251,-38.5 197,-38.5"/>
<text text-anchor="middle" x="224" y="-45.5" font-family="Helvetica,sans-Serif" font-size="10.00">utc2gpst</text>
</a>
</g>
</g>
<!-- Node31&#45;&gt;Node29 -->
<g id="edge20" class="edge">
<title>Node31&#45;&gt;Node29</title>
<path fill="none" stroke="midnightblue" d="M148.23,-48C160.35,-48 174.3,-48 186.85,-48"/>
<polygon fill="midnightblue" stroke="midnightblue" points="186.99,-51.5 196.99,-48 186.99,-44.5 186.99,-51.5"/>
</g>
</g>
</svg>
