<?xml version="1.0" encoding="UTF-8" standalone="no"?>
<!DOCTYPE svg PUBLIC "-//W3C//DTD SVG 1.1//EN"
 "http://www.w3.org/Graphics/SVG/1.1/DTD/svg11.dtd">
<!-- Generated by graphviz version 2.50.0 (20220203.2022)
 -->
<!-- Title: rinexNavHeader Pages: 1 -->
<svg width="322pt" height="180pt"
 viewBox="0.00 0.00 322.00 180.00" xmlns="http://www.w3.org/2000/svg" xmlns:xlink="http://www.w3.org/1999/xlink">
<g id="graph0" class="graph" transform="scale(1 1) rotate(0) translate(4 176)">
<title>rinexNavHeader</title>
<polygon fill="white" stroke="transparent" points="-4,4 -4,-176 318,-176 318,4 -4,4"/>
<!-- Node1 -->
<g id="node1" class="node">
<title>Node1</title>
<g id="a_node1"><a xlink:title=" ">
<polygon fill="#bfbfbf" stroke="black" points="0,-76.5 0,-95.5 86,-95.5 86,-76.5 0,-76.5"/>
<text text-anchor="middle" x="43" y="-83.5" font-family="Helvetica,sans-Serif" font-size="10.00">rinexNavHeader</text>
</a>
</g>
</g>
<!-- Node2 -->
<g id="node2" class="node">
<title>Node2</title>
<g id="a_node2"><a xlink:href="rinexObsWrite_8cpp.html#a7392cc91a14f17ab70dd83c89365d9b2" target="_top" xlink:title=" ">
<polygon fill="white" stroke="black" points="122,-152.5 122,-171.5 198,-171.5 198,-152.5 122,-152.5"/>
<text text-anchor="middle" x="160" y="-159.5" font-family="Helvetica,sans-Serif" font-size="10.00">rinexSysDesc</text>
</a>
</g>
</g>
<!-- Node1&#45;&gt;Node2 -->
<g id="edge1" class="edge">
<title>Node1&#45;&gt;Node2</title>
<path fill="none" stroke="midnightblue" d="M56.01,-95.7C70.99,-107.57 97.59,-127.94 122,-143 124.48,-144.53 127.09,-146.05 129.74,-147.52"/>
<polygon fill="midnightblue" stroke="midnightblue" points="128.24,-150.69 138.71,-152.31 131.54,-144.51 128.24,-150.69"/>
</g>
<!-- Node3 -->
<g id="node3" class="node">
<title>Node3</title>
<g id="a_node3"><a xlink:href="gTime_8cpp.html#a016d7b64e67752afcd07e5074a3cc516" target="_top" xlink:title=" ">
<polygon fill="white" stroke="black" points="134,-114.5 134,-133.5 186,-133.5 186,-114.5 134,-114.5"/>
<text text-anchor="middle" x="160" y="-121.5" font-family="Helvetica,sans-Serif" font-size="10.00">time2str</text>
</a>
</g>
</g>
<!-- Node1&#45;&gt;Node3 -->
<g id="edge2" class="edge">
<title>Node1&#45;&gt;Node3</title>
<path fill="none" stroke="midnightblue" d="M73.02,-95.59C88.56,-100.72 107.81,-107.08 124.15,-112.49"/>
<polygon fill="midnightblue" stroke="midnightblue" points="123.3,-115.89 133.9,-115.7 125.5,-109.24 123.3,-115.89"/>
</g>
<!-- Node6 -->
<g id="node6" class="node">
<title>Node6</title>
<g id="a_node6"><a xlink:href="gTime_8cpp.html#a2a318fa02e2d05aa22eabbcf1a537fcf" target="_top" xlink:title="get current time in utc">
<polygon fill="white" stroke="black" points="135.5,-76.5 135.5,-95.5 184.5,-95.5 184.5,-76.5 135.5,-76.5"/>
<text text-anchor="middle" x="160" y="-83.5" font-family="Helvetica,sans-Serif" font-size="10.00">timeget</text>
</a>
</g>
</g>
<!-- Node1&#45;&gt;Node6 -->
<g id="edge6" class="edge">
<title>Node1&#45;&gt;Node6</title>
<path fill="none" stroke="midnightblue" d="M86.17,-86C98.96,-86 112.84,-86 125.03,-86"/>
<polygon fill="midnightblue" stroke="midnightblue" points="125.22,-89.5 135.22,-86 125.22,-82.5 125.22,-89.5"/>
</g>
<!-- Node8 -->
<g id="node8" class="node">
<title>Node8</title>
<g id="a_node8"><a xlink:href="streamTrace_8cpp.html#ae00e6addd3bdf3a7fd41a254eb9aec89" target="_top" xlink:title=" ">
<polygon fill="white" stroke="black" points="128,-38.5 128,-57.5 192,-57.5 192,-38.5 128,-38.5"/>
<text text-anchor="middle" x="160" y="-45.5" font-family="Helvetica,sans-Serif" font-size="10.00">tracepdeex</text>
</a>
</g>
</g>
<!-- Node1&#45;&gt;Node8 -->
<g id="edge8" class="edge">
<title>Node1&#45;&gt;Node8</title>
<path fill="none" stroke="midnightblue" d="M73.02,-76.41C87.32,-71.69 104.76,-65.92 120.19,-60.82"/>
<polygon fill="midnightblue" stroke="midnightblue" points="121.59,-64.05 129.99,-57.59 119.4,-57.4 121.59,-64.05"/>
</g>
<!-- Node9 -->
<g id="node9" class="node">
<title>Node9</title>
<g id="a_node9"><a xlink:href="gTime_8cpp.html#abb00b59d1e35b7cc9e031a5faf536f9e" target="_top" xlink:title=" ">
<polygon fill="white" stroke="black" points="133,-0.5 133,-19.5 187,-19.5 187,-0.5 133,-0.5"/>
<text text-anchor="middle" x="160" y="-7.5" font-family="Helvetica,sans-Serif" font-size="10.00">utc2gpst</text>
</a>
</g>
</g>
<!-- Node1&#45;&gt;Node9 -->
<g id="edge9" class="edge">
<title>Node1&#45;&gt;Node9</title>
<path fill="none" stroke="midnightblue" d="M56.01,-76.3C70.99,-64.43 97.59,-44.06 122,-29 124.48,-27.47 127.09,-25.95 129.74,-24.48"/>
<polygon fill="midnightblue" stroke="midnightblue" points="131.54,-27.49 138.71,-19.69 128.24,-21.31 131.54,-27.49"/>
</g>
<!-- Node4 -->
<g id="node4" class="node">
<title>Node4</title>
<g id="a_node4"><a xlink:href="namespacepod__yaml.html#a59ea539cabb34ef7985e7e57c4b9dd93" target="_top" xlink:title=" ">
<polygon fill="white" stroke="black" points="234,-133.5 234,-152.5 314,-152.5 314,-133.5 234,-133.5"/>
<text text-anchor="middle" x="274" y="-140.5" font-family="Helvetica,sans-Serif" font-size="10.00">pod_yaml::pow</text>
</a>
</g>
</g>
<!-- Node3&#45;&gt;Node4 -->
<g id="edge3" class="edge">
<title>Node3&#45;&gt;Node4</title>
<path fill="none" stroke="midnightblue" d="M186.13,-128.26C197.23,-130.15 210.67,-132.43 223.64,-134.63"/>
<polygon fill="midnightblue" stroke="midnightblue" points="223.43,-138.14 233.88,-136.36 224.6,-131.24 223.43,-138.14"/>
</g>
<!-- Node5 -->
<g id="node5" class="node">
<title>Node5</title>
<g id="a_node5"><a xlink:href="gTime_8cpp.html#a7a747c44ca37f2ebe379fc4309d3cfba" target="_top" xlink:title=" ">
<polygon fill="white" stroke="black" points="240.5,-95.5 240.5,-114.5 307.5,-114.5 307.5,-95.5 240.5,-95.5"/>
<text text-anchor="middle" x="274" y="-102.5" font-family="Helvetica,sans-Serif" font-size="10.00">time2epoch</text>
</a>
</g>
</g>
<!-- Node3&#45;&gt;Node5 -->
<g id="edge5" class="edge">
<title>Node3&#45;&gt;Node5</title>
<path fill="none" stroke="midnightblue" d="M186.13,-119.74C199.13,-117.53 215.35,-114.78 230.25,-112.25"/>
<polygon fill="midnightblue" stroke="midnightblue" points="231.02,-115.67 240.29,-110.55 229.85,-108.77 231.02,-115.67"/>
</g>
<!-- Node4&#45;&gt;Node4 -->
<g id="edge4" class="edge">
<title>Node4&#45;&gt;Node4</title>
<path fill="none" stroke="midnightblue" d="M256.43,-152.76C247.88,-161.57 253.74,-171 274,-171 286.66,-171 293.7,-167.31 295.11,-162.4"/>
<polygon fill="midnightblue" stroke="midnightblue" points="298.3,-160.94 291.57,-152.76 291.73,-163.35 298.3,-160.94"/>
</g>
<!-- Node7 -->
<g id="node7" class="node">
<title>Node7</title>
<g id="a_node7"><a xlink:href="gTime_8cpp.html#aa46173b9085096882d09e53d96e9dc41" target="_top" xlink:title=" ">
<polygon fill="white" stroke="black" points="240.5,-38.5 240.5,-57.5 307.5,-57.5 307.5,-38.5 240.5,-38.5"/>
<text text-anchor="middle" x="274" y="-45.5" font-family="Helvetica,sans-Serif" font-size="10.00">epoch2time</text>
</a>
</g>
</g>
<!-- Node6&#45;&gt;Node7 -->
<g id="edge7" class="edge">
<title>Node6&#45;&gt;Node7</title>
<path fill="none" stroke="midnightblue" d="M184.75,-77.94C199.46,-72.95 218.67,-66.43 235.41,-60.75"/>
<polygon fill="midnightblue" stroke="midnightblue" points="236.58,-64.05 244.93,-57.52 234.33,-57.42 236.58,-64.05"/>
</g>
<!-- Node9&#45;&gt;Node7 -->
<g id="edge10" class="edge">
<title>Node9&#45;&gt;Node7</title>
<path fill="none" stroke="midnightblue" d="M187.26,-18.91C201.61,-23.78 219.63,-29.89 235.44,-35.26"/>
<polygon fill="midnightblue" stroke="midnightblue" points="234.35,-38.58 244.95,-38.48 236.6,-31.95 234.35,-38.58"/>
</g>
</g>
</svg>
