<?xml version="1.0" encoding="UTF-8" standalone="no"?>
<!DOCTYPE svg PUBLIC "-//W3C//DTD SVG 1.1//EN"
 "http://www.w3.org/Graphics/SVG/1.1/DTD/svg11.dtd">
<!-- Generated by graphviz version 2.50.0 (20220203.2022)
 -->
<!-- Title: outputRinexClocksHeader Pages: 1 -->
<svg width="432pt" height="78pt"
 viewBox="0.00 0.00 432.00 77.50" xmlns="http://www.w3.org/2000/svg" xmlns:xlink="http://www.w3.org/1999/xlink">
<g id="graph0" class="graph" transform="scale(1 1) rotate(0) translate(4 73.5)">
<title>outputRinexClocksHeader</title>
<polygon fill="white" stroke="transparent" points="-4,4 -4,-73.5 428,-73.5 428,4 -4,4"/>
<!-- Node1 -->
<g id="node1" class="node">
<title>Node1</title>
<g id="a_node1"><a xlink:title=" ">
<polygon fill="#bfbfbf" stroke="black" points="295,-22.5 295,-41.5 424,-41.5 424,-22.5 295,-22.5"/>
<text text-anchor="middle" x="359.5" y="-29.5" font-family="Helvetica,sans-Serif" font-size="10.00">outputRinexClocksHeader</text>
</a>
</g>
</g>
<!-- Node2 -->
<g id="node2" class="node">
<title>Node2</title>
<g id="a_node2"><a xlink:href="rinexClkWrite_8cpp.html#a28b150df3243b4be7af0d94240cedc50" target="_top" xlink:title=" ">
<polygon fill="white" stroke="black" points="185,-22.5 185,-41.5 259,-41.5 259,-22.5 185,-22.5"/>
<text text-anchor="middle" x="222" y="-29.5" font-family="Helvetica,sans-Serif" font-size="10.00">outputClocks</text>
</a>
</g>
</g>
<!-- Node1&#45;&gt;Node2 -->
<g id="edge1" class="edge">
<title>Node1&#45;&gt;Node2</title>
<path fill="none" stroke="midnightblue" d="M284.69,-32C275.83,-32 267.11,-32 259.14,-32"/>
<polygon fill="midnightblue" stroke="midnightblue" points="284.72,-35.5 294.72,-32 284.72,-28.5 284.72,-35.5"/>
</g>
<!-- Node3 -->
<g id="node3" class="node">
<title>Node3</title>
<g id="a_node3"><a xlink:href="main_8cpp.html#a052aae1f895ebdbdaf816f70d9287e78" target="_top" xlink:title=" ">
<polygon fill="white" stroke="red" points="0,-39 0,-69 149,-69 149,-39 0,-39"/>
<text text-anchor="start" x="8" y="-57" font-family="Helvetica,sans-Serif" font-size="10.00">mainPerEpochPostProcessing</text>
<text text-anchor="middle" x="74.5" y="-46" font-family="Helvetica,sans-Serif" font-size="10.00">AndOutputs</text>
</a>
</g>
</g>
<!-- Node2&#45;&gt;Node3 -->
<g id="edge2" class="edge">
<title>Node2&#45;&gt;Node3</title>
<path fill="none" stroke="midnightblue" d="M174.64,-39.01C166.49,-40.24 157.82,-41.55 149.13,-42.87"/>
<polygon fill="midnightblue" stroke="midnightblue" points="175.3,-42.45 184.66,-37.49 174.25,-35.53 175.3,-42.45"/>
</g>
<!-- Node5 -->
<g id="node4" class="node">
<title>Node5</title>
<g id="a_node4"><a xlink:href="rtsSmoothing_8cpp.html#a5578ecd05e227e9ffc9828e5c7ad287e" target="_top" xlink:title=" ">
<polygon fill="white" stroke="red" points="30.5,-0.5 30.5,-19.5 118.5,-19.5 118.5,-0.5 30.5,-0.5"/>
<text text-anchor="middle" x="74.5" y="-7.5" font-family="Helvetica,sans-Serif" font-size="10.00">postRTSActions</text>
</a>
</g>
</g>
<!-- Node2&#45;&gt;Node5 -->
<g id="edge3" class="edge">
<title>Node2&#45;&gt;Node5</title>
<path fill="none" stroke="midnightblue" d="M174.69,-25C156.72,-22.28 136.27,-19.19 118.61,-16.52"/>
<polygon fill="midnightblue" stroke="midnightblue" points="174.25,-28.47 184.66,-26.51 175.3,-21.55 174.25,-28.47"/>
</g>
</g>
</svg>
