<?xml version="1.0" encoding="UTF-8" standalone="no"?>
<!DOCTYPE svg PUBLIC "-//W3C//DTD SVG 1.1//EN"
 "http://www.w3.org/Graphics/SVG/1.1/DTD/svg11.dtd">
<!-- Generated by graphviz version 2.50.0 (20220203.2022)
 -->
<!-- Title: writeRinexObsFile Pages: 1 -->
<svg width="514pt" height="206pt"
 viewBox="0.00 0.00 514.00 206.07" xmlns="http://www.w3.org/2000/svg" xmlns:xlink="http://www.w3.org/1999/xlink">
<g id="graph0" class="graph" transform="scale(1 1) rotate(0) translate(4 202.07)">
<title>writeRinexObsFile</title>
<polygon fill="white" stroke="transparent" points="-4,4 -4,-202.07 510,-202.07 510,4 -4,4"/>
<!-- Node1 -->
<g id="node1" class="node">
<title>Node1</title>
<g id="a_node1"><a xlink:title=" ">
<polygon fill="#bfbfbf" stroke="black" points="0,-102.57 0,-121.57 95,-121.57 95,-102.57 0,-102.57"/>
<text text-anchor="middle" x="47.5" y="-109.57" font-family="Helvetica,sans-Serif" font-size="10.00">writeRinexObsFile</text>
</a>
</g>
</g>
<!-- Node2 -->
<g id="node2" class="node">
<title>Node2</title>
<g id="a_node2"><a xlink:href="rinexObsWrite_8cpp.html#a7392cc91a14f17ab70dd83c89365d9b2" target="_top" xlink:title=" ">
<polygon fill="white" stroke="black" points="151.5,-178.57 151.5,-197.57 227.5,-197.57 227.5,-178.57 151.5,-178.57"/>
<text text-anchor="middle" x="189.5" y="-185.57" font-family="Helvetica,sans-Serif" font-size="10.00">rinexSysDesc</text>
</a>
</g>
</g>
<!-- Node1&#45;&gt;Node2 -->
<g id="edge1" class="edge">
<title>Node1&#45;&gt;Node2</title>
<path fill="none" stroke="midnightblue" d="M62.09,-121.64C78.12,-132.67 105.76,-150.97 131,-164.07 138.22,-167.82 146.17,-171.44 153.78,-174.68"/>
<polygon fill="midnightblue" stroke="midnightblue" points="152.6,-177.98 163.18,-178.57 155.27,-171.51 152.6,-177.98"/>
</g>
<!-- Node3 -->
<g id="node3" class="node">
<title>Node3</title>
<g id="a_node3"><a xlink:href="rinexObsWrite_8cpp.html#ab1a7a3d3255b546c3cea605eb2ea87cb" target="_top" xlink:title=" ">
<polygon fill="white" stroke="black" points="284,-102.57 284,-121.57 403,-121.57 403,-102.57 284,-102.57"/>
<text text-anchor="middle" x="343.5" y="-109.57" font-family="Helvetica,sans-Serif" font-size="10.00">updateRinexObsHeader</text>
</a>
</g>
</g>
<!-- Node1&#45;&gt;Node3 -->
<g id="edge2" class="edge">
<title>Node1&#45;&gt;Node3</title>
<path fill="none" stroke="midnightblue" d="M95.09,-112.07C143.25,-112.07 218.97,-112.07 273.97,-112.07"/>
<polygon fill="midnightblue" stroke="midnightblue" points="273.98,-115.57 283.98,-112.07 273.98,-108.57 273.98,-115.57"/>
</g>
<!-- Node6 -->
<g id="node6" class="node">
<title>Node6</title>
<g id="a_node6"><a xlink:href="rinexObsWrite_8cpp.html#a138826753b7db440e1a7a4b24c48b418" target="_top" xlink:title=" ">
<polygon fill="white" stroke="black" points="131,-26.57 131,-45.57 248,-45.57 248,-26.57 131,-26.57"/>
<text text-anchor="middle" x="189.5" y="-33.57" font-family="Helvetica,sans-Serif" font-size="10.00">updateRinexObsOutput</text>
</a>
</g>
</g>
<!-- Node1&#45;&gt;Node6 -->
<g id="edge5" class="edge">
<title>Node1&#45;&gt;Node6</title>
<path fill="none" stroke="midnightblue" d="M60.12,-102.43C75.51,-90.05 103.88,-68.57 131,-55.07 135.3,-52.93 139.9,-50.95 144.56,-49.14"/>
<polygon fill="midnightblue" stroke="midnightblue" points="145.91,-52.37 154.11,-45.66 143.51,-45.79 145.91,-52.37"/>
</g>
<!-- Node7 -->
<g id="node7" class="node">
<title>Node7</title>
<g id="a_node7"><a xlink:href="rinexObsWrite_8cpp.html#ab174c6561b64f3ba323b1ea016fd5fa9" target="_top" xlink:title=" ">
<polygon fill="white" stroke="black" points="293,-178.57 293,-197.57 394,-197.57 394,-178.57 293,-178.57"/>
<text text-anchor="middle" x="343.5" y="-185.57" font-family="Helvetica,sans-Serif" font-size="10.00">writeRinexObsBody</text>
</a>
</g>
</g>
<!-- Node1&#45;&gt;Node7 -->
<g id="edge6" class="edge">
<title>Node1&#45;&gt;Node7</title>
<path fill="none" stroke="midnightblue" d="M85.44,-121.62C138.8,-135.41 237.43,-160.91 295.78,-175.99"/>
<polygon fill="midnightblue" stroke="midnightblue" points="294.92,-179.39 305.48,-178.5 296.68,-172.61 294.92,-179.39"/>
</g>
<!-- Node8 -->
<g id="node8" class="node">
<title>Node8</title>
<g id="a_node8"><a xlink:href="rinexObsWrite_8cpp.html#a8fe4a6f8dc9cd7718c5e58b9cebd141d" target="_top" xlink:title=" ">
<polygon fill="white" stroke="black" points="134,-64.57 134,-83.57 245,-83.57 245,-64.57 134,-64.57"/>
<text text-anchor="middle" x="189.5" y="-71.57" font-family="Helvetica,sans-Serif" font-size="10.00">writeRinexObsHeader</text>
</a>
</g>
</g>
<!-- Node1&#45;&gt;Node8 -->
<g id="edge9" class="edge">
<title>Node1&#45;&gt;Node8</title>
<path fill="none" stroke="midnightblue" d="M83.83,-102.48C101.9,-97.58 124.1,-91.55 143.39,-86.32"/>
<polygon fill="midnightblue" stroke="midnightblue" points="144.45,-89.66 153.18,-83.66 142.62,-82.9 144.45,-89.66"/>
</g>
<!-- Node4 -->
<g id="node4" class="node">
<title>Node4</title>
<g id="a_node4"><a xlink:href="gTime_8cpp.html#a7a747c44ca37f2ebe379fc4309d3cfba" target="_top" xlink:title=" ">
<polygon fill="white" stroke="black" points="439,-140.57 439,-159.57 506,-159.57 506,-140.57 439,-140.57"/>
<text text-anchor="middle" x="472.5" y="-147.57" font-family="Helvetica,sans-Serif" font-size="10.00">time2epoch</text>
</a>
</g>
</g>
<!-- Node3&#45;&gt;Node4 -->
<g id="edge3" class="edge">
<title>Node3&#45;&gt;Node4</title>
<path fill="none" stroke="midnightblue" d="M376.55,-121.66C392.64,-126.48 412.34,-132.37 429.62,-137.54"/>
<polygon fill="midnightblue" stroke="midnightblue" points="428.88,-140.97 439.46,-140.49 430.89,-134.27 428.88,-140.97"/>
</g>
<!-- Node5 -->
<g id="node5" class="node">
<title>Node5</title>
<g id="a_node5"><a xlink:href="streamTrace_8cpp.html#ae00e6addd3bdf3a7fd41a254eb9aec89" target="_top" xlink:title=" ">
<polygon fill="white" stroke="black" points="440.5,-102.57 440.5,-121.57 504.5,-121.57 504.5,-102.57 440.5,-102.57"/>
<text text-anchor="middle" x="472.5" y="-109.57" font-family="Helvetica,sans-Serif" font-size="10.00">tracepdeex</text>
</a>
</g>
</g>
<!-- Node3&#45;&gt;Node5 -->
<g id="edge4" class="edge">
<title>Node3&#45;&gt;Node5</title>
<path fill="none" stroke="midnightblue" d="M403.17,-112.07C412.32,-112.07 421.6,-112.07 430.25,-112.07"/>
<polygon fill="midnightblue" stroke="midnightblue" points="430.44,-115.57 440.44,-112.07 430.44,-108.57 430.44,-115.57"/>
</g>
<!-- Node7&#45;&gt;Node4 -->
<g id="edge7" class="edge">
<title>Node7&#45;&gt;Node4</title>
<path fill="none" stroke="midnightblue" d="M376.55,-178.48C392.64,-173.67 412.34,-167.77 429.62,-162.6"/>
<polygon fill="midnightblue" stroke="midnightblue" points="430.89,-165.88 439.46,-159.66 428.88,-159.17 430.89,-165.88"/>
</g>
<!-- Node7&#45;&gt;Node5 -->
<g id="edge8" class="edge">
<title>Node7&#45;&gt;Node5</title>
<path fill="none" stroke="midnightblue" d="M383.18,-178.54C390.06,-176.01 396.95,-172.89 403,-169.07 422.67,-156.65 420.78,-145.53 439,-131.07 440.75,-129.69 442.61,-128.33 444.52,-127.03"/>
<polygon fill="midnightblue" stroke="midnightblue" points="446.44,-129.95 453.03,-121.66 442.7,-124.03 446.44,-129.95"/>
</g>
<!-- Node8&#45;&gt;Node3 -->
<g id="edge14" class="edge">
<title>Node8&#45;&gt;Node3</title>
<path fill="none" stroke="midnightblue" d="M228.86,-83.66C248.82,-88.65 273.43,-94.8 294.63,-100.11"/>
<polygon fill="midnightblue" stroke="midnightblue" points="293.87,-103.52 304.42,-102.55 295.57,-96.73 293.87,-103.52"/>
</g>
<!-- Node8&#45;&gt;Node5 -->
<g id="edge13" class="edge">
<title>Node8&#45;&gt;Node5</title>
<path fill="none" stroke="midnightblue" d="M228.52,-64.47C235.28,-61.95 242.05,-58.85 248,-55.07 267.64,-42.6 262.63,-26.27 284,-17.07 332.59,3.83 355.92,7.02 403,-17.07 434.08,-32.98 454.28,-70.28 464.22,-93.13"/>
<polygon fill="midnightblue" stroke="midnightblue" points="461.02,-94.56 468.06,-102.48 467.5,-91.9 461.02,-94.56"/>
</g>
<!-- Node9 -->
<g id="node9" class="node">
<title>Node9</title>
<g id="a_node9"><a xlink:href="gTime_8cpp.html#a016d7b64e67752afcd07e5074a3cc516" target="_top" xlink:title=" ">
<polygon fill="white" stroke="red" points="317.5,-140.57 317.5,-159.57 369.5,-159.57 369.5,-140.57 317.5,-140.57"/>
<text text-anchor="middle" x="343.5" y="-147.57" font-family="Helvetica,sans-Serif" font-size="10.00">time2str</text>
</a>
</g>
</g>
<!-- Node8&#45;&gt;Node9 -->
<g id="edge10" class="edge">
<title>Node8&#45;&gt;Node9</title>
<path fill="none" stroke="midnightblue" d="M203.88,-83.62C221.55,-95.89 253.94,-117.26 284,-131.07 291.44,-134.49 299.66,-137.56 307.54,-140.19"/>
<polygon fill="midnightblue" stroke="midnightblue" points="306.66,-143.59 317.25,-143.28 308.78,-136.91 306.66,-143.59"/>
</g>
<!-- Node11 -->
<g id="node10" class="node">
<title>Node11</title>
<g id="a_node10"><a xlink:href="gTime_8cpp.html#a2a318fa02e2d05aa22eabbcf1a537fcf" target="_top" xlink:title="get current time in utc">
<polygon fill="white" stroke="red" points="319,-64.57 319,-83.57 368,-83.57 368,-64.57 319,-64.57"/>
<text text-anchor="middle" x="343.5" y="-71.57" font-family="Helvetica,sans-Serif" font-size="10.00">timeget</text>
</a>
</g>
</g>
<!-- Node8&#45;&gt;Node11 -->
<g id="edge12" class="edge">
<title>Node8&#45;&gt;Node11</title>
<path fill="none" stroke="midnightblue" d="M245.38,-74.07C266.51,-74.07 290.02,-74.07 308.62,-74.07"/>
<polygon fill="midnightblue" stroke="midnightblue" points="308.67,-77.57 318.67,-74.07 308.67,-70.57 308.67,-77.57"/>
</g>
<!-- Node13 -->
<g id="node11" class="node">
<title>Node13</title>
<g id="a_node11"><a xlink:href="gTime_8cpp.html#abb00b59d1e35b7cc9e031a5faf536f9e" target="_top" xlink:title=" ">
<polygon fill="white" stroke="red" points="316.5,-26.57 316.5,-45.57 370.5,-45.57 370.5,-26.57 316.5,-26.57"/>
<text text-anchor="middle" x="343.5" y="-33.57" font-family="Helvetica,sans-Serif" font-size="10.00">utc2gpst</text>
</a>
</g>
</g>
<!-- Node8&#45;&gt;Node13 -->
<g id="edge15" class="edge">
<title>Node8&#45;&gt;Node13</title>
<path fill="none" stroke="midnightblue" d="M228.86,-64.48C252.61,-58.55 282.92,-50.97 306.26,-45.13"/>
<polygon fill="midnightblue" stroke="midnightblue" points="307.27,-48.49 316.12,-42.67 305.57,-41.7 307.27,-48.49"/>
</g>
<!-- Node9&#45;&gt;Node4 -->
<g id="edge11" class="edge">
<title>Node9&#45;&gt;Node4</title>
<path fill="none" stroke="midnightblue" d="M369.59,-150.07C386.38,-150.07 408.91,-150.07 428.51,-150.07"/>
<polygon fill="midnightblue" stroke="midnightblue" points="428.75,-153.57 438.75,-150.07 428.75,-146.57 428.75,-153.57"/>
</g>
</g>
</svg>
