<?xml version="1.0" encoding="UTF-8" standalone="no"?>
<!DOCTYPE svg PUBLIC "-//W3C//DTD SVG 1.1//EN"
 "http://www.w3.org/Graphics/SVG/1.1/DTD/svg11.dtd">
<!-- Generated by graphviz version 2.50.0 (20220203.2022)
 -->
<!-- Title: rinexSysDesc Pages: 1 -->
<svg width="365pt" height="104pt"
 viewBox="0.00 0.00 365.00 104.00" xmlns="http://www.w3.org/2000/svg" xmlns:xlink="http://www.w3.org/1999/xlink">
<g id="graph0" class="graph" transform="scale(1 1) rotate(0) translate(4 100)">
<title>rinexSysDesc</title>
<polygon fill="white" stroke="transparent" points="-4,4 -4,-100 361,-100 361,4 -4,4"/>
<!-- Node1 -->
<g id="node1" class="node">
<title>Node1</title>
<g id="a_node1"><a xlink:title=" ">
<polygon fill="#bfbfbf" stroke="black" points="281,-38.5 281,-57.5 357,-57.5 357,-38.5 281,-38.5"/>
<text text-anchor="middle" x="319" y="-45.5" font-family="Helvetica,sans-Serif" font-size="10.00">rinexSysDesc</text>
</a>
</g>
</g>
<!-- Node2 -->
<g id="node2" class="node">
<title>Node2</title>
<g id="a_node2"><a xlink:href="rinexClkWrite_8cpp.html#abb0b221f0160ac0ab681859cce35e6e5" target="_top" xlink:title=" ">
<polygon fill="white" stroke="black" points="116,-76.5 116,-95.5 245,-95.5 245,-76.5 116,-76.5"/>
<text text-anchor="middle" x="180.5" y="-83.5" font-family="Helvetica,sans-Serif" font-size="10.00">outputRinexClocksHeader</text>
</a>
</g>
</g>
<!-- Node1&#45;&gt;Node2 -->
<g id="edge1" class="edge">
<title>Node1&#45;&gt;Node2</title>
<path fill="none" stroke="midnightblue" d="M273.75,-60.32C255,-65.54 233.47,-71.53 215.93,-76.41"/>
<polygon fill="midnightblue" stroke="midnightblue" points="274.86,-63.64 283.56,-57.59 272.98,-56.9 274.86,-63.64"/>
</g>
<!-- Node11 -->
<g id="node4" class="node">
<title>Node11</title>
<g id="a_node4"><a xlink:href="rinexNavWrite_8cpp.html#a5874d81a129caffff69368a0fb421f88" target="_top" xlink:title=" ">
<polygon fill="white" stroke="black" points="137.5,-38.5 137.5,-57.5 223.5,-57.5 223.5,-38.5 137.5,-38.5"/>
<text text-anchor="middle" x="180.5" y="-45.5" font-family="Helvetica,sans-Serif" font-size="10.00">rinexNavHeader</text>
</a>
</g>
</g>
<!-- Node1&#45;&gt;Node11 -->
<g id="edge3" class="edge">
<title>Node1&#45;&gt;Node11</title>
<path fill="none" stroke="midnightblue" d="M270.43,-48C255.17,-48 238.4,-48 223.57,-48"/>
<polygon fill="midnightblue" stroke="midnightblue" points="270.7,-51.5 280.7,-48 270.7,-44.5 270.7,-51.5"/>
</g>
<!-- Node13 -->
<g id="node6" class="node">
<title>Node13</title>
<g id="a_node6"><a xlink:href="rinexObsWrite_8cpp.html#a97a38d95c36aa54b9bed32a5a46eae71" target="_top" xlink:title=" ">
<polygon fill="white" stroke="black" points="133,-0.5 133,-19.5 228,-19.5 228,-0.5 133,-0.5"/>
<text text-anchor="middle" x="180.5" y="-7.5" font-family="Helvetica,sans-Serif" font-size="10.00">writeRinexObsFile</text>
</a>
</g>
</g>
<!-- Node1&#45;&gt;Node13 -->
<g id="edge5" class="edge">
<title>Node1&#45;&gt;Node13</title>
<path fill="none" stroke="midnightblue" d="M273.75,-35.68C255,-30.46 233.47,-24.47 215.93,-19.59"/>
<polygon fill="midnightblue" stroke="midnightblue" points="272.98,-39.1 283.56,-38.41 274.86,-32.36 272.98,-39.1"/>
</g>
<!-- Node3 -->
<g id="node3" class="node">
<title>Node3</title>
<g id="a_node3"><a xlink:href="rinexClkWrite_8cpp.html#a28b150df3243b4be7af0d94240cedc50" target="_top" xlink:title=" ">
<polygon fill="white" stroke="red" points="3,-76.5 3,-95.5 77,-95.5 77,-76.5 3,-76.5"/>
<text text-anchor="middle" x="40" y="-83.5" font-family="Helvetica,sans-Serif" font-size="10.00">outputClocks</text>
</a>
</g>
</g>
<!-- Node2&#45;&gt;Node3 -->
<g id="edge2" class="edge">
<title>Node2&#45;&gt;Node3</title>
<path fill="none" stroke="midnightblue" d="M105.67,-86C95.85,-86 86.14,-86 77.36,-86"/>
<polygon fill="midnightblue" stroke="midnightblue" points="105.93,-89.5 115.93,-86 105.92,-82.5 105.93,-89.5"/>
</g>
<!-- Node12 -->
<g id="node5" class="node">
<title>Node12</title>
<g id="a_node5"><a xlink:href="rinexNavWrite_8cpp.html#acfa075e8efad5e2ebce159dfb921a4bc" target="_top" xlink:title=" ">
<polygon fill="white" stroke="red" points="0,-38.5 0,-57.5 80,-57.5 80,-38.5 0,-38.5"/>
<text text-anchor="middle" x="40" y="-45.5" font-family="Helvetica,sans-Serif" font-size="10.00">writeRinexNav</text>
</a>
</g>
</g>
<!-- Node11&#45;&gt;Node12 -->
<g id="edge4" class="edge">
<title>Node11&#45;&gt;Node12</title>
<path fill="none" stroke="midnightblue" d="M127.17,-48C111.59,-48 94.8,-48 80.21,-48"/>
<polygon fill="midnightblue" stroke="midnightblue" points="127.19,-51.5 137.19,-48 127.19,-44.5 127.19,-51.5"/>
</g>
<!-- Node14 -->
<g id="node7" class="node">
<title>Node14</title>
<g id="a_node7"><a xlink:href="rinexObsWrite_8cpp.html#ab37a1bf1c4cd6f1099216ee508910dd9" target="_top" xlink:title=" ">
<polygon fill="white" stroke="red" points="0,-0.5 0,-19.5 80,-19.5 80,-0.5 0,-0.5"/>
<text text-anchor="middle" x="40" y="-7.5" font-family="Helvetica,sans-Serif" font-size="10.00">writeRinexObs</text>
</a>
</g>
</g>
<!-- Node13&#45;&gt;Node14 -->
<g id="edge6" class="edge">
<title>Node13&#45;&gt;Node14</title>
<path fill="none" stroke="midnightblue" d="M122.76,-10C108.46,-10 93.44,-10 80.22,-10"/>
<polygon fill="midnightblue" stroke="midnightblue" points="123,-13.5 133,-10 123,-6.5 123,-13.5"/>
</g>
</g>
</svg>
