<?xml version="1.0" encoding="UTF-8" standalone="no"?>
<!DOCTYPE svg PUBLIC "-//W3C//DTD SVG 1.1//EN"
 "http://www.w3.org/Graphics/SVG/1.1/DTD/svg11.dtd">
<!-- Generated by graphviz version 2.50.0 (20220203.2022)
 -->
<!-- Title: writeRinexNav Pages: 1 -->
<!--zoomable 523 -->
<svg id="main" version="1.1" xmlns="http://www.w3.org/2000/svg" xmlns:xlink="http://www.w3.org/1999/xlink" xml:space="preserve" onload="init(evt)">
<style type="text/css"><![CDATA[
.edge:hover path { stroke: red; }
.edge:hover polygon { stroke: red; fill: red; }
]]></style>
<script type="text/javascript"><![CDATA[
var edges = document.getElementsByTagName('g');
if (edges && edges.length) {
  for (var i=0;i<edges.length;i++) {
    if (edges[i].id.substr(0,4)=='edge') {
      edges[i].setAttribute('class','edge');
    }
  }
}
]]></script>
        <defs>
                <circle id="rim" cx="0" cy="0" r="7"/>
                <circle id="rim2" cx="0" cy="0" r="3.5"/>
                <g id="zoomPlus">
                        <use xlink:href="#rim" fill="#404040">
                                <set attributeName="fill" to="#808080" begin="zoomplus.mouseover" end="zoomplus.mouseout"/>
                        </use>
                        <path d="M-4,0h8M0,-4v8" fill="none" stroke="white" stroke-width="1.5" pointer-events="none"/>
                </g>
                <g id="zoomMin">
                        <use xlink:href="#rim" fill="#404040">
                                <set attributeName="fill" to="#808080" begin="zoomminus.mouseover" end="zoomminus.mouseout"/>
                        </use>
                        <path d="M-4,0h8" fill="none" stroke="white" stroke-width="1.5" pointer-events="none"/>
                </g>
                <g id="dirArrow">
                        <path fill="none" stroke="white" stroke-width="1.5" d="M0,-3.0v7 M-2.5,-0.5L0,-3.0L2.5,-0.5"/>
                </g>
               <g id="resetDef">
                       <use xlink:href="#rim2" fill="#404040">
                               <set attributeName="fill" to="#808080" begin="reset.mouseover" end="reset.mouseout"/>
                       </use>
               </g>
        </defs>

<script type="text/javascript">
var viewWidth = 500;
var viewHeight = 523;
var sectionId = 'dynsection-1';
</script>
<script xlink:href="svgpan.js"/>
<svg id="graph" class="graph">
<g id="viewport">
<title>writeRinexNav</title>
<polygon fill="white" stroke="transparent" points="-4,4 -4,-519.24 496,-519.24 496,4 -4,4"/>
<!-- Node1 -->
<g id="node1" class="node">
<title>Node1</title>
<g id="a_node1"><a xlink:title=" ">
<polygon fill="#bfbfbf" stroke="black" points="0,-266.5 0,-285.5 80,-285.5 80,-266.5 0,-266.5"/>
<text text-anchor="middle" x="40" y="-273.5" font-family="Helvetica,sans-Serif" font-size="10.00">writeRinexNav</text>
</a>
</g>
</g>
<!-- Node2 -->
<g id="node2" class="node">
<title>Node2</title>
<g id="a_node2"><a xlink:href="rinexClkWrite_8cpp.html#ae105b449da2c0d5e0ce91380d3b6907b" target="_top" xlink:title=" ">
<polygon fill="white" stroke="black" points="116,-418.5 116,-437.5 237,-437.5 237,-418.5 116,-418.5"/>
<text text-anchor="middle" x="176.5" y="-425.5" font-family="Helvetica,sans-Serif" font-size="10.00">getSysOutputFilenames</text>
</a>
</g>
</g>
<!-- Node1&#45;&gt;Node2 -->
<g id="edge1" class="edge">
<title>Node1&#45;&gt;Node2</title>
<path fill="none" stroke="midnightblue" d="M49.41,-285.51C71.59,-310.57 131.86,-378.68 160.28,-410.8"/>
<polygon fill="midnightblue" stroke="midnightblue" points="157.84,-413.33 167.09,-418.5 163.08,-408.69 157.84,-413.33"/>
</g>
<!-- Node7 -->
<g id="node7" class="node">
<title>Node7</title>
<g id="a_node7"><a xlink:href="rinexNavWrite_8cpp.html#adcdc6b6fa739eb37d934e1cc51f45d5a" target="_top" xlink:title=" ">
<polygon fill="white" stroke="black" points="123,-266.5 123,-285.5 230,-285.5 230,-266.5 123,-266.5"/>
<text text-anchor="middle" x="176.5" y="-273.5" font-family="Helvetica,sans-Serif" font-size="10.00">outputNavRinexBody</text>
</a>
</g>
</g>
<!-- Node1&#45;&gt;Node7 -->
<g id="edge8" class="edge">
<title>Node1&#45;&gt;Node7</title>
<path fill="none" stroke="midnightblue" d="M80.26,-276C90.48,-276 101.73,-276 112.83,-276"/>
<polygon fill="midnightblue" stroke="midnightblue" points="112.93,-279.5 122.93,-276 112.93,-272.5 112.93,-279.5"/>
</g>
<!-- Node29 -->
<g id="node14" class="node">
<title>Node29</title>
<g id="a_node14"><a xlink:href="rinexNavWrite_8cpp.html#a5874d81a129caffff69368a0fb421f88" target="_top" xlink:title=" ">
<polygon fill="white" stroke="black" points="133.5,-95.5 133.5,-114.5 219.5,-114.5 219.5,-95.5 133.5,-95.5"/>
<text text-anchor="middle" x="176.5" y="-102.5" font-family="Helvetica,sans-Serif" font-size="10.00">rinexNavHeader</text>
</a>
</g>
</g>
<!-- Node1&#45;&gt;Node29 -->
<g id="edge16" class="edge">
<title>Node1&#45;&gt;Node29</title>
<path fill="none" stroke="midnightblue" d="M48.62,-266.32C70.44,-238.57 133.44,-158.48 161.6,-122.67"/>
<polygon fill="midnightblue" stroke="midnightblue" points="164.54,-124.6 167.97,-114.58 159.03,-120.27 164.54,-124.6"/>
</g>
<!-- Node3 -->
<g id="node3" class="node">
<title>Node3</title>
<g id="a_node3"><a xlink:href="acsConfig_8cpp.html#a4384ae3d8da08f4e8562857e46291559" target="_top" xlink:title="search for and replace section of string">
<polygon fill="white" stroke="black" points="418,-493.5 418,-512.5 492,-512.5 492,-493.5 418,-493.5"/>
<text text-anchor="middle" x="455" y="-500.5" font-family="Helvetica,sans-Serif" font-size="10.00">replaceString</text>
</a>
</g>
</g>
<!-- Node2&#45;&gt;Node3 -->
<g id="edge2" class="edge">
<title>Node2&#45;&gt;Node3</title>
<path fill="none" stroke="midnightblue" d="M185.48,-437.51C200.51,-454.57 234.94,-489.84 273,-503 316.84,-518.16 370.31,-515.83 407.72,-511.15"/>
<polygon fill="midnightblue" stroke="midnightblue" points="408.39,-514.59 417.82,-509.78 407.44,-507.66 408.39,-514.59"/>
</g>
<!-- Node4 -->
<g id="node4" class="node">
<title>Node4</title>
<g id="a_node4"><a xlink:href="acsConfig_8cpp.html#a75a34dc41e76a8680e3aa6d62ff4c800" target="_top" xlink:title="Replace macros for times with numeric values.">
<polygon fill="white" stroke="black" points="290,-474.5 290,-493.5 365,-493.5 365,-474.5 290,-474.5"/>
<text text-anchor="middle" x="327.5" y="-481.5" font-family="Helvetica,sans-Serif" font-size="10.00">replaceTimes</text>
</a>
</g>
</g>
<!-- Node2&#45;&gt;Node4 -->
<g id="edge3" class="edge">
<title>Node2&#45;&gt;Node4</title>
<path fill="none" stroke="midnightblue" d="M201.76,-437.62C221.02,-445.2 248.66,-455.97 273,-465 278.31,-466.97 283.94,-469.02 289.47,-471"/>
<polygon fill="midnightblue" stroke="midnightblue" points="288.63,-474.42 299.23,-474.48 290.99,-467.83 288.63,-474.42"/>
</g>
<!-- Node5 -->
<g id="node5" class="node">
<title>Node5</title>
<g id="a_node5"><a xlink:href="structGTime.html#a7ed28cc28b05a43069702e96295be269" target="_top" xlink:title=" ">
<polygon fill="white" stroke="black" points="279.5,-418.5 279.5,-437.5 375.5,-437.5 375.5,-418.5 279.5,-418.5"/>
<text text-anchor="middle" x="327.5" y="-425.5" font-family="Helvetica,sans-Serif" font-size="10.00">GTime::roundTime</text>
</a>
</g>
</g>
<!-- Node2&#45;&gt;Node5 -->
<g id="edge5" class="edge">
<title>Node2&#45;&gt;Node5</title>
<path fill="none" stroke="midnightblue" d="M237.25,-428C247.69,-428 258.54,-428 268.92,-428"/>
<polygon fill="midnightblue" stroke="midnightblue" points="269.12,-431.5 279.12,-428 269.12,-424.5 269.12,-431.5"/>
</g>
<!-- Node6 -->
<g id="node6" class="node">
<title>Node6</title>
<g id="a_node6"><a xlink:href="structSatSys.html#abfd7e43b0d57c2718d05ca595ee360dd" target="_top" xlink:title="Returns the character used as a prefix for this system.">
<polygon fill="white" stroke="black" points="283.5,-380.5 283.5,-399.5 371.5,-399.5 371.5,-380.5 283.5,-380.5"/>
<text text-anchor="middle" x="327.5" y="-387.5" font-family="Helvetica,sans-Serif" font-size="10.00">SatSys::sysChar</text>
</a>
</g>
</g>
<!-- Node2&#45;&gt;Node6 -->
<g id="edge7" class="edge">
<title>Node2&#45;&gt;Node6</title>
<path fill="none" stroke="midnightblue" d="M215.1,-418.41C234.58,-413.44 258.57,-407.32 279.3,-402.04"/>
<polygon fill="midnightblue" stroke="midnightblue" points="280.35,-405.38 289.17,-399.52 278.62,-398.6 280.35,-405.38"/>
</g>
<!-- Node4&#45;&gt;Node3 -->
<g id="edge4" class="edge">
<title>Node4&#45;&gt;Node3</title>
<path fill="none" stroke="midnightblue" d="M365.14,-489.55C378.53,-491.57 393.85,-493.89 407.96,-496.03"/>
<polygon fill="midnightblue" stroke="midnightblue" points="407.56,-499.51 417.97,-497.54 408.6,-492.59 407.56,-499.51"/>
</g>
<!-- Node5&#45;&gt;Node5 -->
<g id="edge6" class="edge">
<title>Node5&#45;&gt;Node5</title>
<path fill="none" stroke="midnightblue" d="M308.08,-437.76C298.63,-446.57 305.11,-456 327.5,-456 341.85,-456 349.66,-452.13 350.94,-447.03"/>
<polygon fill="midnightblue" stroke="midnightblue" points="354.11,-445.54 346.92,-437.76 347.68,-448.32 354.11,-445.54"/>
</g>
<!-- Node8 -->
<g id="node8" class="node">
<title>Node8</title>
<g id="a_node8"><a xlink:href="structSatSys.html#aa31d14f6b8c2100c085c732b9a3fef3f" target="_top" xlink:title="Constructs a SatSys object from it&#39;s hash uid.">
<polygon fill="white" stroke="black" points="280,-342.5 280,-361.5 375,-361.5 375,-342.5 280,-342.5"/>
<text text-anchor="middle" x="327.5" y="-349.5" font-family="Helvetica,sans-Serif" font-size="10.00">SatSys::fromHash</text>
</a>
</g>
</g>
<!-- Node7&#45;&gt;Node8 -->
<g id="edge9" class="edge">
<title>Node7&#45;&gt;Node8</title>
<path fill="none" stroke="midnightblue" d="M191.57,-285.61C209.79,-297.75 242.77,-318.78 273,-333 277.4,-335.07 282.08,-337.04 286.78,-338.89"/>
<polygon fill="midnightblue" stroke="midnightblue" points="285.77,-342.25 296.37,-342.47 288.22,-335.69 285.77,-342.25"/>
</g>
<!-- Node9 -->
<g id="node9" class="node">
<title>Node9</title>
<g id="a_node9"><a xlink:href="rinexNavWrite_8cpp.html#ad6032ecaca96d9c55f6d307d1c7f09fe" target="_top" xlink:title=" ">
<polygon fill="white" stroke="red" points="276.5,-304.5 276.5,-323.5 378.5,-323.5 378.5,-304.5 276.5,-304.5"/>
<text text-anchor="middle" x="327.5" y="-311.5" font-family="Helvetica,sans-Serif" font-size="10.00">outputNavRinexEph</text>
</a>
</g>
</g>
<!-- Node7&#45;&gt;Node9 -->
<g id="edge10" class="edge">
<title>Node7&#45;&gt;Node9</title>
<path fill="none" stroke="midnightblue" d="M215.1,-285.59C234.58,-290.56 258.57,-296.68 279.3,-301.96"/>
<polygon fill="midnightblue" stroke="midnightblue" points="278.62,-305.4 289.17,-304.48 280.35,-298.62 278.62,-305.4"/>
</g>
<!-- Node22 -->
<g id="node11" class="node">
<title>Node22</title>
<g id="a_node11"><a xlink:href="rinexNavWrite_8cpp.html#a7740f536df7f89a2483312817d815269" target="_top" xlink:title=" ">
<polygon fill="white" stroke="red" points="273,-266.5 273,-285.5 382,-285.5 382,-266.5 273,-266.5"/>
<text text-anchor="middle" x="327.5" y="-273.5" font-family="Helvetica,sans-Serif" font-size="10.00">outputNavRinexGeph</text>
</a>
</g>
</g>
<!-- Node7&#45;&gt;Node22 -->
<g id="edge12" class="edge">
<title>Node7&#45;&gt;Node22</title>
<path fill="none" stroke="midnightblue" d="M230.03,-276C240.57,-276 251.76,-276 262.63,-276"/>
<polygon fill="midnightblue" stroke="midnightblue" points="262.93,-279.5 272.93,-276 262.93,-272.5 262.93,-279.5"/>
</g>
<!-- Node24 -->
<g id="node12" class="node">
<title>Node24</title>
<g id="a_node12"><a xlink:href="ephemeris_8cpp.html#a9f0efb8ea92b3f1fa36a85ce12b366f1" target="_top" xlink:title=" ">
<polygon fill="white" stroke="red" points="288.5,-228.5 288.5,-247.5 366.5,-247.5 366.5,-228.5 288.5,-228.5"/>
<text text-anchor="middle" x="327.5" y="-235.5" font-family="Helvetica,sans-Serif" font-size="10.00">seleph&lt; Eph &gt;</text>
</a>
</g>
</g>
<!-- Node7&#45;&gt;Node24 -->
<g id="edge14" class="edge">
<title>Node7&#45;&gt;Node24</title>
<path fill="none" stroke="midnightblue" d="M215.1,-266.41C234.58,-261.44 258.57,-255.32 279.3,-250.04"/>
<polygon fill="midnightblue" stroke="midnightblue" points="280.35,-253.38 289.17,-247.52 278.62,-246.6 280.35,-253.38"/>
</g>
<!-- Node28 -->
<g id="node13" class="node">
<title>Node28</title>
<g id="a_node13"><a xlink:href="ephemeris_8cpp.html#a45e085c47e8a0dea0de6413085f7d885" target="_top" xlink:title=" ">
<polygon fill="white" stroke="red" points="285,-190.5 285,-209.5 370,-209.5 370,-190.5 285,-190.5"/>
<text text-anchor="middle" x="327.5" y="-197.5" font-family="Helvetica,sans-Serif" font-size="10.00">seleph&lt; Geph &gt;</text>
</a>
</g>
</g>
<!-- Node7&#45;&gt;Node28 -->
<g id="edge15" class="edge">
<title>Node7&#45;&gt;Node28</title>
<path fill="none" stroke="midnightblue" d="M191.57,-266.39C209.79,-254.25 242.77,-233.22 273,-219 277.4,-216.93 282.08,-214.96 286.78,-213.11"/>
<polygon fill="midnightblue" stroke="midnightblue" points="288.22,-216.31 296.37,-209.53 285.77,-209.75 288.22,-216.31"/>
</g>
<!-- Node21 -->
<g id="node10" class="node">
<title>Node21</title>
<g id="a_node10"><a xlink:href="streamTrace_8cpp.html#ae00e6addd3bdf3a7fd41a254eb9aec89" target="_top" xlink:title=" ">
<polygon fill="white" stroke="black" points="423,-266.5 423,-285.5 487,-285.5 487,-266.5 423,-266.5"/>
<text text-anchor="middle" x="455" y="-273.5" font-family="Helvetica,sans-Serif" font-size="10.00">tracepdeex</text>
</a>
</g>
</g>
<!-- Node9&#45;&gt;Node21 -->
<g id="edge11" class="edge">
<title>Node9&#45;&gt;Node21</title>
<path fill="none" stroke="midnightblue" d="M360.17,-304.41C376.19,-299.56 395.84,-293.61 413,-288.41"/>
<polygon fill="midnightblue" stroke="midnightblue" points="414.22,-291.7 422.78,-285.45 412.19,-285 414.22,-291.7"/>
</g>
<!-- Node22&#45;&gt;Node21 -->
<g id="edge13" class="edge">
<title>Node22&#45;&gt;Node21</title>
<path fill="none" stroke="midnightblue" d="M382.09,-276C392.26,-276 402.77,-276 412.5,-276"/>
<polygon fill="midnightblue" stroke="midnightblue" points="412.71,-279.5 422.71,-276 412.71,-272.5 412.71,-279.5"/>
</g>
<!-- Node29&#45;&gt;Node21 -->
<g id="edge20" class="edge">
<title>Node29&#45;&gt;Node21</title>
<path fill="none" stroke="midnightblue" d="M200.94,-114.65C220.2,-122.51 248.26,-133.77 273,-143 321.07,-160.93 340.51,-150.82 382,-181 410.17,-201.49 432.43,-236.11 444.37,-257.42"/>
<polygon fill="midnightblue" stroke="midnightblue" points="441.4,-259.3 449.24,-266.43 447.56,-255.97 441.4,-259.3"/>
</g>
<!-- Node30 -->
<g id="node15" class="node">
<title>Node30</title>
<g id="a_node15"><a xlink:href="rinexObsWrite_8cpp.html#a7392cc91a14f17ab70dd83c89365d9b2" target="_top" xlink:title=" ">
<polygon fill="white" stroke="black" points="289.5,-114.5 289.5,-133.5 365.5,-133.5 365.5,-114.5 289.5,-114.5"/>
<text text-anchor="middle" x="327.5" y="-121.5" font-family="Helvetica,sans-Serif" font-size="10.00">rinexSysDesc</text>
</a>
</g>
</g>
<!-- Node29&#45;&gt;Node30 -->
<g id="edge17" class="edge">
<title>Node29&#45;&gt;Node30</title>
<path fill="none" stroke="midnightblue" d="M219.8,-110.39C238.32,-112.76 260.14,-115.54 279.2,-117.97"/>
<polygon fill="midnightblue" stroke="midnightblue" points="278.81,-121.45 289.17,-119.24 279.69,-114.5 278.81,-121.45"/>
</g>
<!-- Node27 -->
<g id="node16" class="node">
<title>Node27</title>
<g id="a_node16"><a xlink:href="gTime_8cpp.html#a016d7b64e67752afcd07e5074a3cc516" target="_top" xlink:title=" ">
<polygon fill="white" stroke="red" points="301.5,-76.5 301.5,-95.5 353.5,-95.5 353.5,-76.5 301.5,-76.5"/>
<text text-anchor="middle" x="327.5" y="-83.5" font-family="Helvetica,sans-Serif" font-size="10.00">time2str</text>
</a>
</g>
</g>
<!-- Node29&#45;&gt;Node27 -->
<g id="edge18" class="edge">
<title>Node29&#45;&gt;Node27</title>
<path fill="none" stroke="midnightblue" d="M219.8,-99.61C242.42,-96.72 269.96,-93.21 291.38,-90.48"/>
<polygon fill="midnightblue" stroke="midnightblue" points="291.89,-93.94 301.37,-89.2 291,-87 291.89,-93.94"/>
</g>
<!-- Node31 -->
<g id="node17" class="node">
<title>Node31</title>
<g id="a_node17"><a xlink:href="gTime_8cpp.html#a2a318fa02e2d05aa22eabbcf1a537fcf" target="_top" xlink:title="get current time in utc">
<polygon fill="white" stroke="red" points="303,-38.5 303,-57.5 352,-57.5 352,-38.5 303,-38.5"/>
<text text-anchor="middle" x="327.5" y="-45.5" font-family="Helvetica,sans-Serif" font-size="10.00">timeget</text>
</a>
</g>
</g>
<!-- Node29&#45;&gt;Node31 -->
<g id="edge19" class="edge">
<title>Node29&#45;&gt;Node31</title>
<path fill="none" stroke="midnightblue" d="M200.95,-95.38C220.23,-87.55 248.28,-76.3 273,-67 279.57,-64.53 286.62,-61.96 293.39,-59.54"/>
<polygon fill="midnightblue" stroke="midnightblue" points="294.74,-62.78 302.99,-56.13 292.4,-56.18 294.74,-62.78"/>
</g>
<!-- Node32 -->
<g id="node18" class="node">
<title>Node32</title>
<g id="a_node18"><a xlink:href="gTime_8cpp.html#abb00b59d1e35b7cc9e031a5faf536f9e" target="_top" xlink:title=" ">
<polygon fill="white" stroke="red" points="300.5,-0.5 300.5,-19.5 354.5,-19.5 354.5,-0.5 300.5,-0.5"/>
<text text-anchor="middle" x="327.5" y="-7.5" font-family="Helvetica,sans-Serif" font-size="10.00">utc2gpst</text>
</a>
</g>
</g>
<!-- Node29&#45;&gt;Node32 -->
<g id="edge21" class="edge">
<title>Node29&#45;&gt;Node32</title>
<path fill="none" stroke="midnightblue" d="M187.29,-95.35C203.74,-79.58 238.54,-48.13 273,-29 278.6,-25.89 284.8,-23.14 290.94,-20.76"/>
<polygon fill="midnightblue" stroke="midnightblue" points="292.22,-24.02 300.44,-17.33 289.85,-17.43 292.22,-24.02"/>
</g>
</g>
</svg>
        <g id="navigator" transform="translate(0 0)" fill="#404254">
                <rect fill="#f2f5e9" fill-opacity="0.5" stroke="#606060" stroke-width=".5" x="0" y="0" width="60" height="60"/>
                <use id="zoomplus" xlink:href="#zoomPlus" x="17" y="9" onmousedown="handleZoom(evt,'in')"/>
                <use id="zoomminus" xlink:href="#zoomMin" x="42" y="9" onmousedown="handleZoom(evt,'out')"/>
                <use id="reset" xlink:href="#resetDef" x="30" y="36" onmousedown="handleReset()"/>
                <g id="arrowUp" xlink:href="#dirArrow" transform="translate(30 24)" onmousedown="handlePan(0,-1)">
                  <use xlink:href="#rim" fill="#404040">
                        <set attributeName="fill" to="#808080" begin="arrowUp.mouseover" end="arrowUp.mouseout"/>
                  </use>
                  <path fill="none" stroke="white" stroke-width="1.5" d="M0,-3.0v7 M-2.5,-0.5L0,-3.0L2.5,-0.5"/>
                </g>
                <g id="arrowRight" xlink:href="#dirArrow" transform="rotate(90) translate(36 -43)" onmousedown="handlePan(1,0)">
                  <use xlink:href="#rim" fill="#404040">
                        <set attributeName="fill" to="#808080" begin="arrowRight.mouseover" end="arrowRight.mouseout"/>
                  </use>
                  <path fill="none" stroke="white" stroke-width="1.5" d="M0,-3.0v7 M-2.5,-0.5L0,-3.0L2.5,-0.5"/>
                </g>
                <g id="arrowDown" xlink:href="#dirArrow" transform="rotate(180) translate(-30 -48)" onmousedown="handlePan(0,1)">
                  <use xlink:href="#rim" fill="#404040">
                        <set attributeName="fill" to="#808080" begin="arrowDown.mouseover" end="arrowDown.mouseout"/>
                  </use>
                  <path fill="none" stroke="white" stroke-width="1.5" d="M0,-3.0v7 M-2.5,-0.5L0,-3.0L2.5,-0.5"/>
                </g>
                <g id="arrowLeft" xlink:href="#dirArrow" transform="rotate(270) translate(-36 17)" onmousedown="handlePan(-1,0)">
                  <use xlink:href="#rim" fill="#404040">
                        <set attributeName="fill" to="#808080" begin="arrowLeft.mouseover" end="arrowLeft.mouseout"/>
                  </use>
                  <path fill="none" stroke="white" stroke-width="1.5" d="M0,-3.0v7 M-2.5,-0.5L0,-3.0L2.5,-0.5"/>
                </g>
        </g>
        <svg viewBox="0 0 15 15" width="100%" height="30px" preserveAspectRatio="xMaxYMin meet">
         <g id="arrow_out" transform="scale(0.3 0.3)">
          <a xlink:href="rinexNavWrite_8hpp_acfa075e8efad5e2ebce159dfb921a4bc_cgraph_org.svg" target="_base">
           <rect id="button" ry="5" rx="5" y="6" x="6" height="38" width="38"
                fill="#f2f5e9" fill-opacity="0.5" stroke="#606060" stroke-width="1.0"/>
           <path id="arrow"
             d="M 11.500037,31.436501 C 11.940474,20.09759 22.043105,11.32322 32.158766,21.979434 L 37.068811,17.246167 C 37.068811,17.246167 37.088388,32 37.088388,32 L 22.160133,31.978069 C 22.160133,31.978069 26.997745,27.140456 26.997745,27.140456 C 18.528582,18.264221 13.291696,25.230495 11.500037,31.436501 z"
             style="fill:#404040;"/>
          </a>
         </g>
        </svg>
</svg>
