<?xml version="1.0" encoding="UTF-8" standalone="no"?>
<!DOCTYPE svg PUBLIC "-//W3C//DTD SVG 1.1//EN"
 "http://www.w3.org/Graphics/SVG/1.1/DTD/svg11.dtd">
<!-- Generated by graphviz version 2.50.0 (20220203.2022)
 -->
<!-- Title: updateRinexObsHeader Pages: 1 -->
<svg width="521pt" height="47pt"
 viewBox="0.00 0.00 521.00 47.00" xmlns="http://www.w3.org/2000/svg" xmlns:xlink="http://www.w3.org/1999/xlink">
<g id="graph0" class="graph" transform="scale(1 1) rotate(0) translate(4 43)">
<title>updateRinexObsHeader</title>
<polygon fill="white" stroke="transparent" points="-4,4 -4,-43 517,-43 517,4 -4,4"/>
<!-- Node1 -->
<g id="node1" class="node">
<title>Node1</title>
<g id="a_node1"><a xlink:title=" ">
<polygon fill="#bfbfbf" stroke="black" points="394,-19.5 394,-38.5 513,-38.5 513,-19.5 394,-19.5"/>
<text text-anchor="middle" x="453.5" y="-26.5" font-family="Helvetica,sans-Serif" font-size="10.00">updateRinexObsHeader</text>
</a>
</g>
</g>
<!-- Node2 -->
<g id="node2" class="node">
<title>Node2</title>
<g id="a_node2"><a xlink:href="rinexObsWrite_8cpp.html#a97a38d95c36aa54b9bed32a5a46eae71" target="_top" xlink:title=" ">
<polygon fill="white" stroke="black" points="116,-19.5 116,-38.5 211,-38.5 211,-19.5 116,-19.5"/>
<text text-anchor="middle" x="163.5" y="-26.5" font-family="Helvetica,sans-Serif" font-size="10.00">writeRinexObsFile</text>
</a>
</g>
</g>
<!-- Node1&#45;&gt;Node2 -->
<g id="edge1" class="edge">
<title>Node1&#45;&gt;Node2</title>
<path fill="none" stroke="midnightblue" d="M383.81,-29C330.47,-29 257.95,-29 211.18,-29"/>
<polygon fill="midnightblue" stroke="midnightblue" points="383.87,-32.5 393.87,-29 383.87,-25.5 383.87,-32.5"/>
</g>
<!-- Node6 -->
<g id="node4" class="node">
<title>Node6</title>
<g id="a_node4"><a xlink:href="rinexObsWrite_8cpp.html#a8fe4a6f8dc9cd7718c5e58b9cebd141d" target="_top" xlink:title=" ">
<polygon fill="white" stroke="black" points="247,-0.5 247,-19.5 358,-19.5 358,-0.5 247,-0.5"/>
<text text-anchor="middle" x="302.5" y="-7.5" font-family="Helvetica,sans-Serif" font-size="10.00">writeRinexObsHeader</text>
</a>
</g>
</g>
<!-- Node1&#45;&gt;Node6 -->
<g id="edge3" class="edge">
<title>Node1&#45;&gt;Node6</title>
<path fill="none" stroke="midnightblue" d="M383.63,-20.22C375.06,-19.13 366.39,-18.02 358.08,-16.96"/>
<polygon fill="midnightblue" stroke="midnightblue" points="383.25,-23.7 393.61,-21.49 384.13,-16.75 383.25,-23.7"/>
</g>
<!-- Node3 -->
<g id="node3" class="node">
<title>Node3</title>
<g id="a_node3"><a xlink:href="rinexObsWrite_8cpp.html#ab37a1bf1c4cd6f1099216ee508910dd9" target="_top" xlink:title=" ">
<polygon fill="white" stroke="red" points="0,-19.5 0,-38.5 80,-38.5 80,-19.5 0,-19.5"/>
<text text-anchor="middle" x="40" y="-26.5" font-family="Helvetica,sans-Serif" font-size="10.00">writeRinexObs</text>
</a>
</g>
</g>
<!-- Node2&#45;&gt;Node3 -->
<g id="edge2" class="edge">
<title>Node2&#45;&gt;Node3</title>
<path fill="none" stroke="midnightblue" d="M105.8,-29C97.14,-29 88.37,-29 80.2,-29"/>
<polygon fill="midnightblue" stroke="midnightblue" points="105.87,-32.5 115.87,-29 105.87,-25.5 105.87,-32.5"/>
</g>
<!-- Node6&#45;&gt;Node2 -->
<g id="edge4" class="edge">
<title>Node6&#45;&gt;Node2</title>
<path fill="none" stroke="midnightblue" d="M236.91,-18.96C228.29,-20.15 219.58,-21.36 211.34,-22.5"/>
<polygon fill="midnightblue" stroke="midnightblue" points="237.54,-22.4 246.96,-17.56 236.57,-15.47 237.54,-22.4"/>
</g>
</g>
</svg>
