<?xml version="1.0" encoding="UTF-8" standalone="no"?>
<!DOCTYPE svg PUBLIC "-//W3C//DTD SVG 1.1//EN"
 "http://www.w3.org/Graphics/SVG/1.1/DTD/svg11.dtd">
<!-- Generated by graphviz version 2.50.0 (20220203.2022)
 -->
<!-- Title: /github/workspace/src/cpp/common/rtcmDecoder.hpp Pages: 1 -->
<svg width="528pt" height="240pt"
 viewBox="0.00 0.00 527.50 240.00" xmlns="http://www.w3.org/2000/svg" xmlns:xlink="http://www.w3.org/1999/xlink">
<g id="graph0" class="graph" transform="scale(1 1) rotate(0) translate(4 236)">
<title>/github/workspace/src/cpp/common/rtcmDecoder.hpp</title>
<polygon fill="white" stroke="transparent" points="-4,4 -4,-236 523.5,-236 523.5,4 -4,4"/>
<!-- Node1 -->
<g id="node1" class="node">
<title>Node1</title>
<g id="a_node1"><a xlink:title=" ">
<polygon fill="#bfbfbf" stroke="black" points="52,-201.5 52,-231.5 204,-231.5 204,-201.5 52,-201.5"/>
<text text-anchor="start" x="60" y="-219.5" font-family="Helvetica,sans-Serif" font-size="10.00">/github/workspace/src</text>
<text text-anchor="middle" x="128" y="-208.5" font-family="Helvetica,sans-Serif" font-size="10.00">/cpp/common/rtcmDecoder.hpp</text>
</a>
</g>
</g>
<!-- Node2 -->
<g id="node2" class="node">
<title>Node2</title>
<g id="a_node2"><a xlink:href="rtcmDecoder_8cpp.html" target="_top" xlink:title=" ">
<polygon fill="white" stroke="black" points="0,-67.5 0,-97.5 152,-97.5 152,-67.5 0,-67.5"/>
<text text-anchor="start" x="8" y="-85.5" font-family="Helvetica,sans-Serif" font-size="10.00">/github/workspace/src</text>
<text text-anchor="middle" x="76" y="-74.5" font-family="Helvetica,sans-Serif" font-size="10.00">/cpp/common/rtcmDecoder.cpp</text>
</a>
</g>
</g>
<!-- Node1&#45;&gt;Node2 -->
<g id="edge1" class="edge">
<title>Node1&#45;&gt;Node2</title>
<path fill="none" stroke="midnightblue" d="M111.34,-192.7C105.83,-184.32 100.06,-174.54 96,-165 86.41,-142.48 80.79,-114.42 78.06,-97.79"/>
<polygon fill="midnightblue" stroke="midnightblue" points="108.61,-194.9 117.14,-201.17 114.38,-190.95 108.61,-194.9"/>
</g>
<!-- Node3 -->
<g id="node3" class="node">
<title>Node3</title>
<g id="a_node3"><a xlink:href="streamRtcm_8hpp.html" target="_top" xlink:title=" ">
<polygon fill="white" stroke="black" points="105,-134.5 105,-164.5 255,-164.5 255,-134.5 105,-134.5"/>
<text text-anchor="start" x="113" y="-152.5" font-family="Helvetica,sans-Serif" font-size="10.00">/github/workspace/src</text>
<text text-anchor="middle" x="180" y="-141.5" font-family="Helvetica,sans-Serif" font-size="10.00">/cpp/common/streamRtcm.hpp</text>
</a>
</g>
</g>
<!-- Node1&#45;&gt;Node3 -->
<g id="edge2" class="edge">
<title>Node1&#45;&gt;Node3</title>
<path fill="none" stroke="midnightblue" d="M145.64,-193.45C153.28,-183.9 162,-173 168.74,-164.58"/>
<polygon fill="midnightblue" stroke="midnightblue" points="142.8,-191.4 139.28,-201.4 148.26,-195.77 142.8,-191.4"/>
</g>
<!-- Node3&#45;&gt;Node2 -->
<g id="edge7" class="edge">
<title>Node3&#45;&gt;Node2</title>
<path fill="none" stroke="midnightblue" d="M148.82,-129.02C132.64,-118.9 113.23,-106.77 98.52,-97.58"/>
<polygon fill="midnightblue" stroke="midnightblue" points="147.1,-132.06 157.43,-134.4 150.81,-126.13 147.1,-132.06"/>
</g>
<!-- Node4 -->
<g id="node4" class="node">
<title>Node4</title>
<g id="a_node4"><a xlink:href="acsStream_8cpp.html" target="_top" xlink:title=" ">
<polygon fill="white" stroke="black" points="158,-0.5 158,-30.5 302,-30.5 302,-0.5 158,-0.5"/>
<text text-anchor="start" x="166" y="-18.5" font-family="Helvetica,sans-Serif" font-size="10.00">/github/workspace/src</text>
<text text-anchor="middle" x="230" y="-7.5" font-family="Helvetica,sans-Serif" font-size="10.00">/cpp/common/acsStream.cpp</text>
</a>
</g>
</g>
<!-- Node3&#45;&gt;Node4 -->
<g id="edge3" class="edge">
<title>Node3&#45;&gt;Node4</title>
<path fill="none" stroke="midnightblue" d="M183.54,-124.27C186.47,-107.72 191.39,-85.52 199,-67 204.32,-54.06 212.73,-40.61 219.46,-30.86"/>
<polygon fill="midnightblue" stroke="midnightblue" points="180.08,-123.8 181.9,-134.23 186.98,-124.93 180.08,-123.8"/>
</g>
<!-- Node5 -->
<g id="node5" class="node">
<title>Node5</title>
<g id="a_node5"><a xlink:href="acsStream_8hpp.html" target="_top" xlink:title=" ">
<polygon fill="white" stroke="red" points="208,-67.5 208,-97.5 352,-97.5 352,-67.5 208,-67.5"/>
<text text-anchor="start" x="216" y="-85.5" font-family="Helvetica,sans-Serif" font-size="10.00">/github/workspace/src</text>
<text text-anchor="middle" x="280" y="-74.5" font-family="Helvetica,sans-Serif" font-size="10.00">/cpp/common/acsStream.hpp</text>
</a>
</g>
</g>
<!-- Node3&#45;&gt;Node5 -->
<g id="edge4" class="edge">
<title>Node3&#45;&gt;Node5</title>
<path fill="none" stroke="midnightblue" d="M210.41,-128.73C225.88,-118.68 244.33,-106.68 258.34,-97.58"/>
<polygon fill="midnightblue" stroke="midnightblue" points="208.18,-126.01 201.7,-134.4 211.99,-131.88 208.18,-126.01"/>
</g>
<!-- Node13 -->
<g id="node6" class="node">
<title>Node13</title>
<g id="a_node6"><a xlink:href="mongoRead_8cpp.html" target="_top" xlink:title=" ">
<polygon fill="white" stroke="black" points="370.5,-67.5 370.5,-97.5 519.5,-97.5 519.5,-67.5 370.5,-67.5"/>
<text text-anchor="start" x="378.5" y="-85.5" font-family="Helvetica,sans-Serif" font-size="10.00">/github/workspace/src</text>
<text text-anchor="middle" x="445" y="-74.5" font-family="Helvetica,sans-Serif" font-size="10.00">/cpp/common/mongoRead.cpp</text>
</a>
</g>
</g>
<!-- Node3&#45;&gt;Node13 -->
<g id="edge6" class="edge">
<title>Node3&#45;&gt;Node13</title>
<path fill="none" stroke="midnightblue" d="M247.06,-132.05C290.38,-121.43 346.17,-107.74 387.47,-97.61"/>
<polygon fill="midnightblue" stroke="midnightblue" points="246.05,-128.69 237.17,-134.48 247.72,-135.49 246.05,-128.69"/>
</g>
<!-- Node5&#45;&gt;Node4 -->
<g id="edge5" class="edge">
<title>Node5&#45;&gt;Node4</title>
<path fill="none" stroke="midnightblue" d="M263.04,-59.45C255.69,-49.9 247.31,-39 240.83,-30.58"/>
<polygon fill="midnightblue" stroke="midnightblue" points="260.28,-61.6 269.15,-67.4 265.83,-57.34 260.28,-61.6"/>
</g>
</g>
</svg>
