<?xml version="1.0" encoding="UTF-8" standalone="no"?>
<!DOCTYPE svg PUBLIC "-//W3C//DTD SVG 1.1//EN"
 "http://www.w3.org/Graphics/SVG/1.1/DTD/svg11.dtd">
<!-- Generated by graphviz version 2.50.0 (20220203.2022)
 -->
<!-- Title: /github/workspace/src/cpp/common/rtcmEncoder.hpp Pages: 1 -->
<svg width="1187pt" height="173pt"
 viewBox="0.00 0.00 1187.00 173.00" xmlns="http://www.w3.org/2000/svg" xmlns:xlink="http://www.w3.org/1999/xlink">
<g id="graph0" class="graph" transform="scale(1 1) rotate(0) translate(4 169)">
<title>/github/workspace/src/cpp/common/rtcmEncoder.hpp</title>
<polygon fill="white" stroke="transparent" points="-4,4 -4,-169 1183,-169 1183,4 -4,4"/>
<!-- Node1 -->
<g id="node1" class="node">
<title>Node1</title>
<g id="a_node1"><a xlink:title=" ">
<polygon fill="#bfbfbf" stroke="black" points="532,-134.5 532,-164.5 684,-164.5 684,-134.5 532,-134.5"/>
<text text-anchor="start" x="540" y="-152.5" font-family="Helvetica,sans-Serif" font-size="10.00">/github/workspace/src</text>
<text text-anchor="middle" x="608" y="-141.5" font-family="Helvetica,sans-Serif" font-size="10.00">/cpp/common/rtcmEncoder.hpp</text>
</a>
</g>
</g>
<!-- Node2 -->
<g id="node2" class="node">
<title>Node2</title>
<g id="a_node2"><a xlink:href="acsStream_8cpp.html" target="_top" xlink:title=" ">
<polygon fill="white" stroke="black" points="0,-67.5 0,-97.5 144,-97.5 144,-67.5 0,-67.5"/>
<text text-anchor="start" x="8" y="-85.5" font-family="Helvetica,sans-Serif" font-size="10.00">/github/workspace/src</text>
<text text-anchor="middle" x="72" y="-74.5" font-family="Helvetica,sans-Serif" font-size="10.00">/cpp/common/acsStream.cpp</text>
</a>
</g>
</g>
<!-- Node1&#45;&gt;Node2 -->
<g id="edge1" class="edge">
<title>Node1&#45;&gt;Node2</title>
<path fill="none" stroke="midnightblue" d="M521.66,-140.64C429.98,-131.9 280.94,-116.53 153,-98 150.17,-97.59 147.29,-97.16 144.38,-96.7"/>
<polygon fill="midnightblue" stroke="midnightblue" points="521.44,-144.14 531.72,-141.6 522.1,-137.17 521.44,-144.14"/>
</g>
<!-- Node3 -->
<g id="node3" class="node">
<title>Node3</title>
<g id="a_node3"><a xlink:href="mongo_8cpp.html" target="_top" xlink:title=" ">
<polygon fill="white" stroke="black" points="162,-67.5 162,-97.5 288,-97.5 288,-67.5 162,-67.5"/>
<text text-anchor="start" x="170" y="-85.5" font-family="Helvetica,sans-Serif" font-size="10.00">/github/workspace/src</text>
<text text-anchor="middle" x="225" y="-74.5" font-family="Helvetica,sans-Serif" font-size="10.00">/cpp/common/mongo.cpp</text>
</a>
</g>
</g>
<!-- Node1&#45;&gt;Node3 -->
<g id="edge2" class="edge">
<title>Node1&#45;&gt;Node3</title>
<path fill="none" stroke="midnightblue" d="M521.61,-135.37C459.11,-125.65 372.71,-111.76 297,-98 294.11,-97.48 291.17,-96.93 288.19,-96.37"/>
<polygon fill="midnightblue" stroke="midnightblue" points="521.4,-138.88 531.81,-136.95 522.47,-131.96 521.4,-138.88"/>
</g>
<!-- Node4 -->
<g id="node4" class="node">
<title>Node4</title>
<g id="a_node4"><a xlink:href="mongoRead_8hpp.html" target="_top" xlink:title=" ">
<polygon fill="white" stroke="black" points="306.5,-67.5 306.5,-97.5 455.5,-97.5 455.5,-67.5 306.5,-67.5"/>
<text text-anchor="start" x="314.5" y="-85.5" font-family="Helvetica,sans-Serif" font-size="10.00">/github/workspace/src</text>
<text text-anchor="middle" x="381" y="-74.5" font-family="Helvetica,sans-Serif" font-size="10.00">/cpp/common/mongoRead.hpp</text>
</a>
</g>
</g>
<!-- Node1&#45;&gt;Node4 -->
<g id="edge3" class="edge">
<title>Node1&#45;&gt;Node4</title>
<path fill="none" stroke="midnightblue" d="M549.38,-131.71C512.44,-121.14 465.29,-107.63 430.28,-97.61"/>
<polygon fill="midnightblue" stroke="midnightblue" points="548.45,-135.09 559.02,-134.48 550.37,-128.36 548.45,-135.09"/>
</g>
<!-- Node8 -->
<g id="node8" class="node">
<title>Node8</title>
<g id="a_node8"><a xlink:href="mongoWrite_8cpp.html" target="_top" xlink:title=" ">
<polygon fill="white" stroke="black" points="689.5,-67.5 689.5,-97.5 838.5,-97.5 838.5,-67.5 689.5,-67.5"/>
<text text-anchor="start" x="697.5" y="-85.5" font-family="Helvetica,sans-Serif" font-size="10.00">/github/workspace/src</text>
<text text-anchor="middle" x="764" y="-74.5" font-family="Helvetica,sans-Serif" font-size="10.00">/cpp/common/mongoWrite.cpp</text>
</a>
</g>
</g>
<!-- Node1&#45;&gt;Node8 -->
<g id="edge7" class="edge">
<title>Node1&#45;&gt;Node8</title>
<path fill="none" stroke="midnightblue" d="M651.09,-130.54C676.06,-120.14 707.03,-107.24 730.22,-97.58"/>
<polygon fill="midnightblue" stroke="midnightblue" points="649.73,-127.32 641.85,-134.4 652.43,-133.78 649.73,-127.32"/>
</g>
<!-- Node9 -->
<g id="node9" class="node">
<title>Node9</title>
<g id="a_node9"><a xlink:href="ntripBroadcast_8hpp.html" target="_top" xlink:title=" ">
<polygon fill="white" stroke="black" points="474,-67.5 474,-97.5 634,-97.5 634,-67.5 474,-67.5"/>
<text text-anchor="start" x="482" y="-85.5" font-family="Helvetica,sans-Serif" font-size="10.00">/github/workspace/src</text>
<text text-anchor="middle" x="554" y="-74.5" font-family="Helvetica,sans-Serif" font-size="10.00">/cpp/common/ntripBroadcast.hpp</text>
</a>
</g>
</g>
<!-- Node1&#45;&gt;Node9 -->
<g id="edge8" class="edge">
<title>Node1&#45;&gt;Node9</title>
<path fill="none" stroke="midnightblue" d="M589.68,-126.45C581.75,-116.9 572.7,-106 565.69,-97.58"/>
<polygon fill="midnightblue" stroke="midnightblue" points="587.2,-128.94 596.28,-134.4 592.58,-124.47 587.2,-128.94"/>
</g>
<!-- Node10 -->
<g id="node10" class="node">
<title>Node10</title>
<g id="a_node10"><a xlink:href="main_8cpp.html" target="_top" xlink:title=" ">
<polygon fill="white" stroke="black" points="654.5,-0.5 654.5,-30.5 767.5,-30.5 767.5,-0.5 654.5,-0.5"/>
<text text-anchor="start" x="662.5" y="-18.5" font-family="Helvetica,sans-Serif" font-size="10.00">/github/workspace/src</text>
<text text-anchor="middle" x="711" y="-7.5" font-family="Helvetica,sans-Serif" font-size="10.00">/cpp/pea/main.cpp</text>
</a>
</g>
</g>
<!-- Node1&#45;&gt;Node10 -->
<g id="edge14" class="edge">
<title>Node1&#45;&gt;Node10</title>
<path fill="none" stroke="midnightblue" d="M625.41,-126.19C646.73,-98.86 682.22,-53.38 700.06,-30.52"/>
<polygon fill="midnightblue" stroke="midnightblue" points="622.42,-124.34 619.02,-134.37 627.93,-128.64 622.42,-124.34"/>
</g>
<!-- Node11 -->
<g id="node11" class="node">
<title>Node11</title>
<g id="a_node11"><a xlink:href="rtcmDecoder_8cpp.html" target="_top" xlink:title=" ">
<polygon fill="white" stroke="black" points="857,-67.5 857,-97.5 1009,-97.5 1009,-67.5 857,-67.5"/>
<text text-anchor="start" x="865" y="-85.5" font-family="Helvetica,sans-Serif" font-size="10.00">/github/workspace/src</text>
<text text-anchor="middle" x="933" y="-74.5" font-family="Helvetica,sans-Serif" font-size="10.00">/cpp/common/rtcmDecoder.cpp</text>
</a>
</g>
</g>
<!-- Node1&#45;&gt;Node11 -->
<g id="edge12" class="edge">
<title>Node1&#45;&gt;Node11</title>
<path fill="none" stroke="midnightblue" d="M688.25,-132.45C741.76,-121.75 811.41,-107.82 862.73,-97.55"/>
<polygon fill="midnightblue" stroke="midnightblue" points="687.24,-129.08 678.12,-134.48 688.61,-135.95 687.24,-129.08"/>
</g>
<!-- Node12 -->
<g id="node12" class="node">
<title>Node12</title>
<g id="a_node12"><a xlink:href="rtcmEncoder_8cpp.html" target="_top" xlink:title=" ">
<polygon fill="white" stroke="black" points="1027,-67.5 1027,-97.5 1179,-97.5 1179,-67.5 1027,-67.5"/>
<text text-anchor="start" x="1035" y="-85.5" font-family="Helvetica,sans-Serif" font-size="10.00">/github/workspace/src</text>
<text text-anchor="middle" x="1103" y="-74.5" font-family="Helvetica,sans-Serif" font-size="10.00">/cpp/common/rtcmEncoder.cpp</text>
</a>
</g>
</g>
<!-- Node1&#45;&gt;Node12 -->
<g id="edge13" class="edge">
<title>Node1&#45;&gt;Node12</title>
<path fill="none" stroke="midnightblue" d="M694.24,-139.06C777.31,-129.68 906.46,-114.37 1018,-98 1020.81,-97.59 1023.68,-97.16 1026.57,-96.71"/>
<polygon fill="midnightblue" stroke="midnightblue" points="693.63,-135.6 684.09,-140.2 694.41,-142.56 693.63,-135.6"/>
</g>
<!-- Node5 -->
<g id="node5" class="node">
<title>Node5</title>
<g id="a_node5"><a xlink:href="mongoRead_8cpp.html" target="_top" xlink:title=" ">
<polygon fill="white" stroke="black" points="126.5,-0.5 126.5,-30.5 275.5,-30.5 275.5,-0.5 126.5,-0.5"/>
<text text-anchor="start" x="134.5" y="-18.5" font-family="Helvetica,sans-Serif" font-size="10.00">/github/workspace/src</text>
<text text-anchor="middle" x="201" y="-7.5" font-family="Helvetica,sans-Serif" font-size="10.00">/cpp/common/mongoRead.cpp</text>
</a>
</g>
</g>
<!-- Node4&#45;&gt;Node5 -->
<g id="edge4" class="edge">
<title>Node4&#45;&gt;Node5</title>
<path fill="none" stroke="midnightblue" d="M332.41,-63.96C303.42,-53.48 267.09,-40.37 239.98,-30.58"/>
<polygon fill="midnightblue" stroke="midnightblue" points="331.35,-67.29 341.94,-67.4 333.73,-60.71 331.35,-67.29"/>
</g>
<!-- Node6 -->
<g id="node6" class="node">
<title>Node6</title>
<g id="a_node6"><a xlink:href="ntripBroadcast_8cpp.html" target="_top" xlink:title=" ">
<polygon fill="white" stroke="black" points="294,-0.5 294,-30.5 454,-30.5 454,-0.5 294,-0.5"/>
<text text-anchor="start" x="302" y="-18.5" font-family="Helvetica,sans-Serif" font-size="10.00">/github/workspace/src</text>
<text text-anchor="middle" x="374" y="-7.5" font-family="Helvetica,sans-Serif" font-size="10.00">/cpp/common/ntripBroadcast.cpp</text>
</a>
</g>
</g>
<!-- Node4&#45;&gt;Node6 -->
<g id="edge5" class="edge">
<title>Node4&#45;&gt;Node6</title>
<path fill="none" stroke="midnightblue" d="M378.4,-57.4C377.43,-48.37 376.36,-38.41 375.52,-30.58"/>
<polygon fill="midnightblue" stroke="midnightblue" points="374.93,-57.83 379.48,-67.4 381.89,-57.08 374.93,-57.83"/>
</g>
<!-- Node7 -->
<g id="node7" class="node">
<title>Node7</title>
<g id="a_node7"><a xlink:href="uploadMain_8cpp.html" target="_top" xlink:title=" ">
<polygon fill="white" stroke="black" points="472,-0.5 472,-30.5 636,-30.5 636,-0.5 472,-0.5"/>
<text text-anchor="start" x="480" y="-18.5" font-family="Helvetica,sans-Serif" font-size="10.00">/github/workspace/src</text>
<text text-anchor="middle" x="554" y="-7.5" font-family="Helvetica,sans-Serif" font-size="10.00">/cpp/peaUploader/uploadMain.cpp</text>
</a>
</g>
</g>
<!-- Node4&#45;&gt;Node7 -->
<g id="edge6" class="edge">
<title>Node4&#45;&gt;Node7</title>
<path fill="none" stroke="midnightblue" d="M428.06,-63.82C455.87,-53.37 490.59,-40.32 516.53,-30.58"/>
<polygon fill="midnightblue" stroke="midnightblue" points="426.67,-60.6 418.54,-67.4 429.13,-67.16 426.67,-60.6"/>
</g>
<!-- Node9&#45;&gt;Node6 -->
<g id="edge9" class="edge">
<title>Node9&#45;&gt;Node6</title>
<path fill="none" stroke="midnightblue" d="M505.41,-63.96C476.42,-53.48 440.09,-40.37 412.98,-30.58"/>
<polygon fill="midnightblue" stroke="midnightblue" points="504.35,-67.29 514.94,-67.4 506.73,-60.71 504.35,-67.29"/>
</g>
<!-- Node9&#45;&gt;Node7 -->
<g id="edge11" class="edge">
<title>Node9&#45;&gt;Node7</title>
<path fill="none" stroke="midnightblue" d="M554,-57.11C554,-48.15 554,-38.32 554,-30.58"/>
<polygon fill="midnightblue" stroke="midnightblue" points="550.5,-57.4 554,-67.4 557.5,-57.4 550.5,-57.4"/>
</g>
<!-- Node9&#45;&gt;Node10 -->
<g id="edge10" class="edge">
<title>Node9&#45;&gt;Node10</title>
<path fill="none" stroke="midnightblue" d="M597.37,-63.54C622.49,-53.14 653.66,-40.24 677,-30.58"/>
<polygon fill="midnightblue" stroke="midnightblue" points="595.97,-60.34 588.07,-67.4 598.64,-66.8 595.97,-60.34"/>
</g>
</g>
</svg>
