<?xml version="1.0" encoding="UTF-8" standalone="no"?>
<!DOCTYPE svg PUBLIC "-//W3C//DTD SVG 1.1//EN"
 "http://www.w3.org/Graphics/SVG/1.1/DTD/svg11.dtd">
<!-- Generated by graphviz version 2.50.0 (20220203.2022)
 -->
<!-- Title: satexclude Pages: 1 -->
<svg width="360pt" height="142pt"
 viewBox="0.00 0.00 360.00 142.00" xmlns="http://www.w3.org/2000/svg" xmlns:xlink="http://www.w3.org/1999/xlink">
<g id="graph0" class="graph" transform="scale(1 1) rotate(0) translate(4 138)">
<title>satexclude</title>
<polygon fill="white" stroke="transparent" points="-4,4 -4,-138 356,-138 356,4 -4,4"/>
<!-- Node1 -->
<g id="node1" class="node">
<title>Node1</title>
<g id="a_node1"><a xlink:title=" ">
<polygon fill="#bfbfbf" stroke="black" points="289,-38.5 289,-57.5 352,-57.5 352,-38.5 289,-38.5"/>
<text text-anchor="middle" x="320.5" y="-45.5" font-family="Helvetica,sans-Serif" font-size="10.00">satexclude</text>
</a>
</g>
</g>
<!-- Node2 -->
<g id="node2" class="node">
<title>Node2</title>
<g id="a_node2"><a xlink:href="spp_8cpp.html#a939492c482104cf7cdf7597d24b5b8fb" target="_top" xlink:title="Estimate receiver position and biases using code measurements.">
<polygon fill="white" stroke="black" points="189,-76.5 189,-95.5 235,-95.5 235,-76.5 189,-76.5"/>
<text text-anchor="middle" x="212" y="-83.5" font-family="Helvetica,sans-Serif" font-size="10.00">estpos</text>
</a>
</g>
</g>
<!-- Node1&#45;&gt;Node2 -->
<g id="edge1" class="edge">
<title>Node1&#45;&gt;Node2</title>
<path fill="none" stroke="midnightblue" d="M283.07,-61C267.17,-66.67 249.03,-73.14 235.2,-78.08"/>
<polygon fill="midnightblue" stroke="midnightblue" points="284.38,-64.25 292.63,-57.59 282.03,-57.65 284.38,-64.25"/>
</g>
<!-- Node7 -->
<g id="node5" class="node">
<title>Node7</title>
<g id="a_node5"><a xlink:href="ppp_8cpp.html#ae6ff673a04fff8b0f78b4d1b111a2a42" target="_top" xlink:title=" ">
<polygon fill="white" stroke="black" points="171,-38.5 171,-57.5 253,-57.5 253,-38.5 171,-38.5"/>
<text text-anchor="middle" x="212" y="-45.5" font-family="Helvetica,sans-Serif" font-size="10.00">pppCorrections</text>
</a>
</g>
</g>
<!-- Node1&#45;&gt;Node7 -->
<g id="edge5" class="edge">
<title>Node1&#45;&gt;Node7</title>
<path fill="none" stroke="midnightblue" d="M278.93,-48C270.45,-48 261.52,-48 253.06,-48"/>
<polygon fill="midnightblue" stroke="midnightblue" points="278.98,-51.5 288.98,-48 278.98,-44.5 278.98,-51.5"/>
</g>
<!-- Node10 -->
<g id="node7" class="node">
<title>Node10</title>
<g id="a_node7"><a xlink:href="ppp__network_8cpp.html#a8841c4de50d731334b0aa349d64a2985" target="_top" xlink:title=" ">
<polygon fill="white" stroke="black" points="187.5,-0.5 187.5,-19.5 236.5,-19.5 236.5,-0.5 187.5,-0.5"/>
<text text-anchor="middle" x="212" y="-7.5" font-family="Helvetica,sans-Serif" font-size="10.00">resomc</text>
</a>
</g>
</g>
<!-- Node1&#45;&gt;Node10 -->
<g id="edge7" class="edge">
<title>Node1&#45;&gt;Node10</title>
<path fill="none" stroke="midnightblue" d="M282.91,-34.94C267.58,-29.47 250.2,-23.27 236.6,-18.42"/>
<polygon fill="midnightblue" stroke="midnightblue" points="282.03,-38.35 292.63,-38.41 284.38,-31.75 282.03,-38.35"/>
</g>
<!-- Node3 -->
<g id="node3" class="node">
<title>Node3</title>
<g id="a_node3"><a xlink:href="spp_8cpp.html#a377ec0db0b94700f96e82a487cfe6761" target="_top" xlink:title="Receiver autonomous integrity monitoring (RAIM) failure detection and exclution.">
<polygon fill="white" stroke="black" points="80,-114.5 80,-133.5 134,-133.5 134,-114.5 80,-114.5"/>
<text text-anchor="middle" x="107" y="-121.5" font-family="Helvetica,sans-Serif" font-size="10.00">raim_fde</text>
</a>
</g>
</g>
<!-- Node2&#45;&gt;Node3 -->
<g id="edge2" class="edge">
<title>Node2&#45;&gt;Node3</title>
<path fill="none" stroke="midnightblue" d="M179.32,-97.69C164.81,-103.04 147.82,-109.31 134.07,-114.38"/>
<polygon fill="midnightblue" stroke="midnightblue" points="180.73,-100.9 188.9,-94.15 178.31,-94.33 180.73,-100.9"/>
</g>
<!-- Node4 -->
<g id="node4" class="node">
<title>Node4</title>
<g id="a_node4"><a xlink:href="spp_8cpp.html#a80e3d976b8371ffec2003e91fbd86282" target="_top" xlink:title="Compute receiver position, velocity, clock bias by single&#45;point positioning with pseudorange observab...">
<polygon fill="white" stroke="red" points="0,-95.5 0,-114.5 43,-114.5 43,-95.5 0,-95.5"/>
<text text-anchor="middle" x="21.5" y="-102.5" font-family="Helvetica,sans-Serif" font-size="10.00">sppos</text>
</a>
</g>
</g>
<!-- Node2&#45;&gt;Node4 -->
<g id="edge4" class="edge">
<title>Node2&#45;&gt;Node4</title>
<path fill="none" stroke="midnightblue" d="M178.38,-89.29C139.5,-93.21 75.72,-99.64 43.11,-102.92"/>
<polygon fill="midnightblue" stroke="midnightblue" points="179.04,-92.74 188.64,-88.25 178.34,-85.77 179.04,-92.74"/>
</g>
<!-- Node3&#45;&gt;Node4 -->
<g id="edge3" class="edge">
<title>Node3&#45;&gt;Node4</title>
<path fill="none" stroke="midnightblue" d="M69.61,-115.72C60.57,-113.66 51.18,-111.53 43.19,-109.71"/>
<polygon fill="midnightblue" stroke="midnightblue" points="69.05,-119.18 79.58,-117.99 70.61,-112.36 69.05,-119.18"/>
</g>
<!-- Node8 -->
<g id="node6" class="node">
<title>Node8</title>
<g id="a_node6"><a xlink:href="ppp__user_8cpp.html#a6840432dd58d1e58178b15080b92bdd8" target="_top" xlink:title=" ">
<polygon fill="white" stroke="red" points="79,-38.5 79,-57.5 135,-57.5 135,-38.5 79,-38.5"/>
<text text-anchor="middle" x="107" y="-45.5" font-family="Helvetica,sans-Serif" font-size="10.00">ppp_filter</text>
</a>
</g>
</g>
<!-- Node7&#45;&gt;Node8 -->
<g id="edge6" class="edge">
<title>Node7&#45;&gt;Node8</title>
<path fill="none" stroke="midnightblue" d="M160.64,-48C151.84,-48 142.99,-48 135.13,-48"/>
<polygon fill="midnightblue" stroke="midnightblue" points="160.88,-51.5 170.88,-48 160.88,-44.5 160.88,-51.5"/>
</g>
<!-- Node11 -->
<g id="node8" class="node">
<title>Node11</title>
<g id="a_node8"><a xlink:href="ppp__network_8cpp.html#a58f075aaa941ce20e727a84401270780" target="_top" xlink:title=" ">
<polygon fill="white" stroke="red" points="81.5,-0.5 81.5,-19.5 132.5,-19.5 132.5,-0.5 81.5,-0.5"/>
<text text-anchor="middle" x="107" y="-7.5" font-family="Helvetica,sans-Serif" font-size="10.00">pppomc</text>
</a>
</g>
</g>
<!-- Node10&#45;&gt;Node11 -->
<g id="edge8" class="edge">
<title>Node10&#45;&gt;Node11</title>
<path fill="none" stroke="midnightblue" d="M177.23,-10C162.67,-10 145.95,-10 132.6,-10"/>
<polygon fill="midnightblue" stroke="midnightblue" points="177.37,-13.5 187.37,-10 177.37,-6.5 177.37,-13.5"/>
</g>
</g>
</svg>
