<?xml version="1.0" encoding="UTF-8" standalone="no"?>
<!DOCTYPE svg PUBLIC "-//W3C//DTD SVG 1.1//EN"
 "http://www.w3.org/Graphics/SVG/1.1/DTD/svg11.dtd">
<!-- Generated by graphviz version 2.50.0 (20220203.2022)
 -->
<!-- Title: satazel Pages: 1 -->
<svg width="318pt" height="161pt"
 viewBox="0.00 0.00 318.00 161.00" xmlns="http://www.w3.org/2000/svg" xmlns:xlink="http://www.w3.org/1999/xlink">
<g id="graph0" class="graph" transform="scale(1 1) rotate(0) translate(4 157)">
<title>satazel</title>
<polygon fill="white" stroke="transparent" points="-4,4 -4,-157 314,-157 314,4 -4,4"/>
<!-- Node1 -->
<g id="node1" class="node">
<title>Node1</title>
<g id="a_node1"><a xlink:title=" ">
<polygon fill="#bfbfbf" stroke="black" points="0,-95.5 0,-114.5 47,-114.5 47,-95.5 0,-95.5"/>
<text text-anchor="middle" x="23.5" y="-102.5" font-family="Helvetica,sans-Serif" font-size="10.00">satazel</text>
</a>
</g>
</g>
<!-- Node2 -->
<g id="node2" class="node">
<title>Node2</title>
<g id="a_node2"><a xlink:href="algebra__old_8cpp.html#addee52380c690a50fa0048924c67bc92" target="_top" xlink:title=" ">
<polygon fill="white" stroke="black" points="96,-133.5 96,-152.5 126,-152.5 126,-133.5 96,-133.5"/>
<text text-anchor="middle" x="111" y="-140.5" font-family="Helvetica,sans-Serif" font-size="10.00">dot</text>
</a>
</g>
</g>
<!-- Node1&#45;&gt;Node2 -->
<g id="edge1" class="edge">
<title>Node1&#45;&gt;Node2</title>
<path fill="none" stroke="midnightblue" d="M46.08,-114.59C58.41,-120.07 73.89,-126.95 86.53,-132.57"/>
<polygon fill="midnightblue" stroke="midnightblue" points="85.38,-135.89 95.94,-136.75 88.22,-129.49 85.38,-135.89"/>
</g>
<!-- Node3 -->
<g id="node3" class="node">
<title>Node3</title>
<g id="a_node3"><a xlink:href="rtkcmn_8cpp.html#afcfc8fbadfd57eaa5b29712f2db88c64" target="_top" xlink:title=" ">
<polygon fill="white" stroke="black" points="83,-95.5 83,-114.5 139,-114.5 139,-95.5 83,-95.5"/>
<text text-anchor="middle" x="111" y="-102.5" font-family="Helvetica,sans-Serif" font-size="10.00">ecef2enu</text>
</a>
</g>
</g>
<!-- Node1&#45;&gt;Node3 -->
<g id="edge2" class="edge">
<title>Node1&#45;&gt;Node3</title>
<path fill="none" stroke="midnightblue" d="M47.41,-105C55.15,-105 64,-105 72.56,-105"/>
<polygon fill="midnightblue" stroke="midnightblue" points="72.77,-108.5 82.77,-105 72.77,-101.5 72.77,-108.5"/>
</g>
<!-- Node6 -->
<g id="node6" class="node">
<title>Node6</title>
<g id="a_node6"><a xlink:href="ENU_8f90.html#a7002bfac4c009044281b6b5ea21b6e9a" target="_top" xlink:title=" ">
<polygon fill="white" stroke="black" points="95,-57.5 95,-76.5 127,-76.5 127,-57.5 95,-57.5"/>
<text text-anchor="middle" x="111" y="-64.5" font-family="Helvetica,sans-Serif" font-size="10.00">enu</text>
</a>
</g>
</g>
<!-- Node1&#45;&gt;Node6 -->
<g id="edge5" class="edge">
<title>Node1&#45;&gt;Node6</title>
<path fill="none" stroke="midnightblue" d="M46.08,-95.41C58.1,-90.07 73.11,-83.4 85.56,-77.86"/>
<polygon fill="midnightblue" stroke="midnightblue" points="87.18,-80.97 94.9,-73.71 84.34,-74.57 87.18,-80.97"/>
</g>
<!-- Node4 -->
<g id="node4" class="node">
<title>Node4</title>
<g id="a_node4"><a xlink:href="algebra__old_8cpp.html#adc33998911a24938042604ba1f8e6196" target="_top" xlink:title=" ">
<polygon fill="white" stroke="black" points="185.5,-95.5 185.5,-114.5 234.5,-114.5 234.5,-95.5 185.5,-95.5"/>
<text text-anchor="middle" x="210" y="-102.5" font-family="Helvetica,sans-Serif" font-size="10.00">matmul</text>
</a>
</g>
</g>
<!-- Node3&#45;&gt;Node4 -->
<g id="edge3" class="edge">
<title>Node3&#45;&gt;Node4</title>
<path fill="none" stroke="midnightblue" d="M139.02,-105C150.29,-105 163.51,-105 175.4,-105"/>
<polygon fill="midnightblue" stroke="midnightblue" points="175.42,-108.5 185.42,-105 175.42,-101.5 175.42,-108.5"/>
</g>
<!-- Node5 -->
<g id="node5" class="node">
<title>Node5</title>
<g id="a_node5"><a xlink:href="rtkcmn_8cpp.html#a59a54664edbf3bc2ebeb1f5e5e7a67d0" target="_top" xlink:title=" ">
<polygon fill="white" stroke="black" points="184.5,-133.5 184.5,-152.5 235.5,-152.5 235.5,-133.5 184.5,-133.5"/>
<text text-anchor="middle" x="210" y="-140.5" font-family="Helvetica,sans-Serif" font-size="10.00">xyz2enu</text>
</a>
</g>
</g>
<!-- Node3&#45;&gt;Node5 -->
<g id="edge4" class="edge">
<title>Node3&#45;&gt;Node5</title>
<path fill="none" stroke="midnightblue" d="M136.48,-114.59C148.19,-119.18 162.42,-124.75 175.15,-129.74"/>
<polygon fill="midnightblue" stroke="midnightblue" points="173.94,-133.03 184.53,-133.41 176.5,-126.51 173.94,-133.03"/>
</g>
<!-- Node6&#45;&gt;Node4 -->
<g id="edge7" class="edge">
<title>Node6&#45;&gt;Node4</title>
<path fill="none" stroke="midnightblue" d="M127.16,-72.94C140.16,-78.03 159.37,-85.56 175.91,-92.04"/>
<polygon fill="midnightblue" stroke="midnightblue" points="174.68,-95.32 185.27,-95.7 177.24,-88.8 174.68,-95.32"/>
</g>
<!-- Node7 -->
<g id="node7" class="node">
<title>Node7</title>
<g id="a_node7"><a xlink:href="coord__r2sph_8f90.html#a434fdfd324d259f287bff1473e7d95b1" target="_top" xlink:title=" ">
<polygon fill="white" stroke="red" points="175,-57.5 175,-76.5 245,-76.5 245,-57.5 175,-57.5"/>
<text text-anchor="middle" x="210" y="-64.5" font-family="Helvetica,sans-Serif" font-size="10.00">coord_r2sph</text>
</a>
</g>
</g>
<!-- Node6&#45;&gt;Node7 -->
<g id="edge6" class="edge">
<title>Node6&#45;&gt;Node7</title>
<path fill="none" stroke="midnightblue" d="M127.16,-67C137.26,-67 151.11,-67 164.54,-67"/>
<polygon fill="midnightblue" stroke="midnightblue" points="164.66,-70.5 174.66,-67 164.66,-63.5 164.66,-70.5"/>
</g>
<!-- Node9 -->
<g id="node8" class="node">
<title>Node9</title>
<g id="a_node8"><a xlink:href="matrix__Rr_8f90.html#ac8734d74fb7ada7605575d3b9d26f2bb" target="_top" xlink:title=" ">
<polygon fill="white" stroke="red" points="183,-19.5 183,-38.5 237,-38.5 237,-19.5 183,-19.5"/>
<text text-anchor="middle" x="210" y="-26.5" font-family="Helvetica,sans-Serif" font-size="10.00">matrix_rr</text>
</a>
</g>
</g>
<!-- Node6&#45;&gt;Node9 -->
<g id="edge8" class="edge">
<title>Node6&#45;&gt;Node9</title>
<path fill="none" stroke="midnightblue" d="M127.16,-61.06C139.86,-56.08 158.49,-48.79 174.77,-42.41"/>
<polygon fill="midnightblue" stroke="midnightblue" points="176.49,-45.5 184.52,-38.59 173.94,-38.98 176.49,-45.5"/>
</g>
<!-- Node11 -->
<g id="node9" class="node">
<title>Node11</title>
<g id="a_node9"><a xlink:href="R3_8for.html#a8736a6c65234edc13681ad51dff7ed1d" target="_top" xlink:title=" ">
<polygon fill="white" stroke="black" points="281,-0.5 281,-19.5 310,-19.5 310,-0.5 281,-0.5"/>
<text text-anchor="middle" x="295.5" y="-7.5" font-family="Helvetica,sans-Serif" font-size="10.00">r3</text>
</a>
</g>
</g>
<!-- Node6&#45;&gt;Node11 -->
<g id="edge10" class="edge">
<title>Node6&#45;&gt;Node11</title>
<path fill="none" stroke="midnightblue" d="M118.81,-57.44C129.14,-43.85 150.23,-19.54 175,-10 206.37,2.08 245.9,-1.13 270.69,-5.11"/>
<polygon fill="midnightblue" stroke="midnightblue" points="270.2,-8.58 280.66,-6.89 271.43,-1.69 270.2,-8.58"/>
</g>
<!-- Node9&#45;&gt;Node11 -->
<g id="edge9" class="edge">
<title>Node9&#45;&gt;Node11</title>
<path fill="none" stroke="midnightblue" d="M237.42,-22.99C248.06,-20.57 260.24,-17.8 270.61,-15.44"/>
<polygon fill="midnightblue" stroke="midnightblue" points="271.64,-18.79 280.62,-13.16 270.09,-11.96 271.64,-18.79"/>
</g>
</g>
</svg>
