<?xml version="1.0" encoding="UTF-8" standalone="no"?>
<!DOCTYPE svg PUBLIC "-//W3C//DTD SVG 1.1//EN"
 "http://www.w3.org/Graphics/SVG/1.1/DTD/svg11.dtd">
<!-- Generated by graphviz version 2.50.0 (20220203.2022)
 -->
<!-- Title: ecef2enu Pages: 1 -->
<svg width="384pt" height="180pt"
 viewBox="0.00 0.00 384.00 180.00" xmlns="http://www.w3.org/2000/svg" xmlns:xlink="http://www.w3.org/1999/xlink">
<g id="graph0" class="graph" transform="scale(1 1) rotate(0) translate(4 176)">
<title>ecef2enu</title>
<polygon fill="white" stroke="transparent" points="-4,4 -4,-176 380,-176 380,4 -4,4"/>
<!-- Node1 -->
<g id="node1" class="node">
<title>Node1</title>
<g id="a_node1"><a xlink:title=" ">
<polygon fill="#bfbfbf" stroke="black" points="320,-76.5 320,-95.5 376,-95.5 376,-76.5 320,-76.5"/>
<text text-anchor="middle" x="348" y="-83.5" font-family="Helvetica,sans-Serif" font-size="10.00">ecef2enu</text>
</a>
</g>
</g>
<!-- Node2 -->
<g id="node2" class="node">
<title>Node2</title>
<g id="a_node2"><a xlink:href="GinARoutpt_8cpp.html#a07ea53cf66383354009d2325720176e0" target="_top" xlink:title="Output ambiguity measurments/states.">
<polygon fill="white" stroke="black" points="209.5,-114.5 209.5,-133.5 259.5,-133.5 259.5,-114.5 209.5,-114.5"/>
<text text-anchor="middle" x="234.5" y="-121.5" font-family="Helvetica,sans-Serif" font-size="10.00">artrcout</text>
</a>
</g>
</g>
<!-- Node1&#45;&gt;Node2 -->
<g id="edge1" class="edge">
<title>Node1&#45;&gt;Node2</title>
<path fill="none" stroke="midnightblue" d="M309.85,-98.66C293.38,-104.27 274.47,-110.72 259.84,-115.71"/>
<polygon fill="midnightblue" stroke="midnightblue" points="311.39,-101.83 319.72,-95.3 309.13,-95.21 311.39,-101.83"/>
</g>
<!-- Node11 -->
<g id="node5" class="node">
<title>Node11</title>
<g id="a_node5"><a xlink:href="ppp_8cpp.html#afb3e8826054bef8c969b2cf1e3a94d2b" target="_top" xlink:title="Compare estimated station position with benchmark in SINEX file.">
<polygon fill="white" stroke="black" points="185,-76.5 185,-95.5 284,-95.5 284,-76.5 185,-76.5"/>
<text text-anchor="middle" x="234.5" y="-83.5" font-family="Helvetica,sans-Serif" font-size="10.00">outputPPPSolution</text>
</a>
</g>
</g>
<!-- Node1&#45;&gt;Node11 -->
<g id="edge4" class="edge">
<title>Node1&#45;&gt;Node11</title>
<path fill="none" stroke="midnightblue" d="M309.48,-86C301.38,-86 292.7,-86 284.24,-86"/>
<polygon fill="midnightblue" stroke="midnightblue" points="309.72,-89.5 319.72,-86 309.72,-82.5 309.72,-89.5"/>
</g>
<!-- Node12 -->
<g id="node7" class="node">
<title>Node12</title>
<g id="a_node7"><a xlink:href="rtkcmn_8cpp.html#a4ec5c9d8effd9f823bfe6f9e12e7583f" target="_top" xlink:title=" ">
<polygon fill="white" stroke="black" points="211,-38.5 211,-57.5 258,-57.5 258,-38.5 211,-38.5"/>
<text text-anchor="middle" x="234.5" y="-45.5" font-family="Helvetica,sans-Serif" font-size="10.00">satazel</text>
</a>
</g>
</g>
<!-- Node1&#45;&gt;Node12 -->
<g id="edge6" class="edge">
<title>Node1&#45;&gt;Node12</title>
<path fill="none" stroke="midnightblue" d="M310.04,-73.4C292.97,-67.58 273.23,-60.86 258.36,-55.79"/>
<polygon fill="midnightblue" stroke="midnightblue" points="309.13,-76.79 319.72,-76.7 311.39,-70.17 309.13,-76.79"/>
</g>
<!-- Node3 -->
<g id="node3" class="node">
<title>Node3</title>
<g id="a_node3"><a xlink:href="GinAR__main_8cpp.html#a5d80c7f56e03c96dc400839ceca50698" target="_top" xlink:title="Ambiguity resolution for network solutions.">
<polygon fill="white" stroke="red" points="25.5,-152.5 25.5,-171.5 123.5,-171.5 123.5,-152.5 25.5,-152.5"/>
<text text-anchor="middle" x="74.5" y="-159.5" font-family="Helvetica,sans-Serif" font-size="10.00">networkAmbigResl</text>
</a>
</g>
</g>
<!-- Node2&#45;&gt;Node3 -->
<g id="edge2" class="edge">
<title>Node2&#45;&gt;Node3</title>
<path fill="none" stroke="midnightblue" d="M199.15,-132.26C174.46,-138.2 141.09,-146.23 115.24,-152.44"/>
<polygon fill="midnightblue" stroke="midnightblue" points="200.25,-135.6 209.16,-129.85 198.62,-128.79 200.25,-135.6"/>
</g>
<!-- Node6 -->
<g id="node4" class="node">
<title>Node6</title>
<g id="a_node4"><a xlink:href="GinAR__main_8cpp.html#a99547395860accf77f4d3dc4328cb139" target="_top" xlink:title="Ambiguity resolution on smoothed KF solutions.">
<polygon fill="white" stroke="red" points="24,-114.5 24,-133.5 125,-133.5 125,-114.5 24,-114.5"/>
<text text-anchor="middle" x="74.5" y="-121.5" font-family="Helvetica,sans-Serif" font-size="10.00">smoothdAmbigResl</text>
</a>
</g>
</g>
<!-- Node2&#45;&gt;Node6 -->
<g id="edge3" class="edge">
<title>Node2&#45;&gt;Node6</title>
<path fill="none" stroke="midnightblue" d="M199.11,-124C177.44,-124 149.12,-124 125.06,-124"/>
<polygon fill="midnightblue" stroke="midnightblue" points="199.16,-127.5 209.16,-124 199.16,-120.5 199.16,-127.5"/>
</g>
<!-- Node9 -->
<g id="node6" class="node">
<title>Node9</title>
<g id="a_node6"><a xlink:href="main_8cpp.html#a7e63aa887c069bdb77cd28a88ad18562" target="_top" xlink:title="Perform operations for each station This function occurs in parallel with other stations &#45; ensure tha...">
<polygon fill="white" stroke="red" points="0,-76.5 0,-95.5 149,-95.5 149,-76.5 0,-76.5"/>
<text text-anchor="middle" x="74.5" y="-83.5" font-family="Helvetica,sans-Serif" font-size="10.00">mainOncePerEpochPerStation</text>
</a>
</g>
</g>
<!-- Node11&#45;&gt;Node9 -->
<g id="edge5" class="edge">
<title>Node11&#45;&gt;Node9</title>
<path fill="none" stroke="midnightblue" d="M174.76,-86C166.37,-86 157.65,-86 149.02,-86"/>
<polygon fill="midnightblue" stroke="midnightblue" points="174.81,-89.5 184.81,-86 174.81,-82.5 174.81,-89.5"/>
</g>
<!-- Node13 -->
<g id="node8" class="node">
<title>Node13</title>
<g id="a_node8"><a xlink:href="spp_8cpp.html#a939492c482104cf7cdf7597d24b5b8fb" target="_top" xlink:title="Estimate receiver position and biases using code measurements.">
<polygon fill="white" stroke="red" points="51.5,-38.5 51.5,-57.5 97.5,-57.5 97.5,-38.5 51.5,-38.5"/>
<text text-anchor="middle" x="74.5" y="-45.5" font-family="Helvetica,sans-Serif" font-size="10.00">estpos</text>
</a>
</g>
</g>
<!-- Node12&#45;&gt;Node13 -->
<g id="edge7" class="edge">
<title>Node12&#45;&gt;Node13</title>
<path fill="none" stroke="midnightblue" d="M200.59,-48C169.7,-48 124.35,-48 97.59,-48"/>
<polygon fill="midnightblue" stroke="midnightblue" points="200.86,-51.5 210.86,-48 200.86,-44.5 200.86,-51.5"/>
</g>
<!-- Node16 -->
<g id="node9" class="node">
<title>Node16</title>
<g id="a_node9"><a xlink:href="ppp__network_8cpp.html#a8841c4de50d731334b0aa349d64a2985" target="_top" xlink:title=" ">
<polygon fill="white" stroke="red" points="50,-0.5 50,-19.5 99,-19.5 99,-0.5 50,-0.5"/>
<text text-anchor="middle" x="74.5" y="-7.5" font-family="Helvetica,sans-Serif" font-size="10.00">resomc</text>
</a>
</g>
</g>
<!-- Node12&#45;&gt;Node16 -->
<g id="edge8" class="edge">
<title>Node12&#45;&gt;Node16</title>
<path fill="none" stroke="midnightblue" d="M200.78,-40.13C170.47,-32.84 126.12,-22.18 99.13,-15.68"/>
<polygon fill="midnightblue" stroke="midnightblue" points="200.32,-43.62 210.86,-42.56 201.96,-36.81 200.32,-43.62"/>
</g>
</g>
</svg>
