<?xml version="1.0" encoding="UTF-8" standalone="no"?>
<!DOCTYPE svg PUBLIC "-//W3C//DTD SVG 1.1//EN"
 "http://www.w3.org/Graphics/SVG/1.1/DTD/svg11.dtd">
<!-- Generated by graphviz version 2.50.0 (20220203.2022)
 -->
<!-- Title: isPositiveSemiDefinite Pages: 1 -->
<svg width="274pt" height="28pt"
 viewBox="0.00 0.00 274.00 28.00" xmlns="http://www.w3.org/2000/svg" xmlns:xlink="http://www.w3.org/1999/xlink">
<g id="graph0" class="graph" transform="scale(1 1) rotate(0) translate(4 24)">
<title>isPositiveSemiDefinite</title>
<polygon fill="white" stroke="transparent" points="-4,4 -4,-24 270,-24 270,4 -4,4"/>
<!-- Node1 -->
<g id="node1" class="node">
<title>Node1</title>
<g id="a_node1"><a xlink:title=" ">
<polygon fill="#bfbfbf" stroke="black" points="0,-0.5 0,-19.5 114,-19.5 114,-0.5 0,-0.5"/>
<text text-anchor="middle" x="57" y="-7.5" font-family="Helvetica,sans-Serif" font-size="10.00">isPositiveSemiDefinite</text>
</a>
</g>
</g>
<!-- Node2 -->
<g id="node2" class="node">
<title>Node2</title>
<g id="a_node2"><a xlink:href="algebra__old_8cpp.html#a1d2c1ecab5b17dcc773fcd83c0b87b7e" target="_top" xlink:title=" ">
<polygon fill="white" stroke="black" points="150,-0.5 150,-19.5 183,-19.5 183,-0.5 150,-0.5"/>
<text text-anchor="middle" x="166.5" y="-7.5" font-family="Helvetica,sans-Serif" font-size="10.00">mat</text>
</a>
</g>
</g>
<!-- Node1&#45;&gt;Node2 -->
<g id="edge1" class="edge">
<title>Node1&#45;&gt;Node2</title>
<path fill="none" stroke="midnightblue" d="M114.27,-10C123.11,-10 131.86,-10 139.55,-10"/>
<polygon fill="midnightblue" stroke="midnightblue" points="139.64,-13.5 149.64,-10 139.64,-6.5 139.64,-13.5"/>
</g>
<!-- Node3 -->
<g id="node3" class="node">
<title>Node3</title>
<g id="a_node3"><a xlink:href="streamTrace_8cpp.html#a21317feb447406c5be7ca4a27dc3e862" target="_top" xlink:title=" ">
<polygon fill="white" stroke="black" points="219,-0.5 219,-19.5 266,-19.5 266,-0.5 219,-0.5"/>
<text text-anchor="middle" x="242.5" y="-7.5" font-family="Helvetica,sans-Serif" font-size="10.00">fatalerr</text>
</a>
</g>
</g>
<!-- Node2&#45;&gt;Node3 -->
<g id="edge2" class="edge">
<title>Node2&#45;&gt;Node3</title>
<path fill="none" stroke="midnightblue" d="M183.19,-10C190.63,-10 199.82,-10 208.68,-10"/>
<polygon fill="midnightblue" stroke="midnightblue" points="208.81,-13.5 218.81,-10 208.81,-6.5 208.81,-13.5"/>
</g>
</g>
</svg>
