<?xml version="1.0" encoding="UTF-8" standalone="no"?>
<!DOCTYPE svg PUBLIC "-//W3C//DTD SVG 1.1//EN"
 "http://www.w3.org/Graphics/SVG/1.1/DTD/svg11.dtd">
<!-- Generated by graphviz version 2.50.0 (20220203.2022)
 -->
<!-- Title: postRTSActions Pages: 1 -->
<svg width="541pt" height="780pt"
 viewBox="0.00 0.00 541.00 780.00" xmlns="http://www.w3.org/2000/svg" xmlns:xlink="http://www.w3.org/1999/xlink">
<g id="graph0" class="graph" transform="scale(1 1) rotate(0) translate(4 776)">
<title>postRTSActions</title>
<polygon fill="white" stroke="transparent" points="-4,4 -4,-776 537,-776 537,4 -4,4"/>
<!-- Node1 -->
<g id="node1" class="node">
<title>Node1</title>
<g id="a_node1"><a xlink:title=" ">
<polygon fill="#bfbfbf" stroke="black" points="0,-190.5 0,-209.5 88,-209.5 88,-190.5 0,-190.5"/>
<text text-anchor="middle" x="44" y="-197.5" font-family="Helvetica,sans-Serif" font-size="10.00">postRTSActions</text>
</a>
</g>
</g>
<!-- Node2 -->
<g id="node2" class="node">
<title>Node2</title>
<g id="a_node2"><a xlink:href="rinexClkWrite_8cpp.html#ae105b449da2c0d5e0ce91380d3b6907b" target="_top" xlink:title=" ">
<polygon fill="white" stroke="black" points="124,-342.5 124,-361.5 245,-361.5 245,-342.5 124,-342.5"/>
<text text-anchor="middle" x="184.5" y="-349.5" font-family="Helvetica,sans-Serif" font-size="10.00">getSysOutputFilenames</text>
</a>
</g>
</g>
<!-- Node1&#45;&gt;Node2 -->
<g id="edge1" class="edge">
<title>Node1&#45;&gt;Node2</title>
<path fill="none" stroke="midnightblue" d="M53.66,-209.51C76.5,-234.57 138.56,-302.68 167.83,-334.8"/>
<polygon fill="midnightblue" stroke="midnightblue" points="165.52,-337.46 174.84,-342.5 170.69,-332.75 165.52,-337.46"/>
</g>
<!-- Node7 -->
<g id="node7" class="node">
<title>Node7</title>
<g id="a_node7"><a xlink:href="mongoWrite_8cpp.html#a4140cbc1fb306e5c1ffefc5b83f3dd8b" target="_top" xlink:title=" ">
<polygon fill="white" stroke="black" points="147.5,-209.5 147.5,-228.5 221.5,-228.5 221.5,-209.5 147.5,-209.5"/>
<text text-anchor="middle" x="184.5" y="-216.5" font-family="Helvetica,sans-Serif" font-size="10.00">mongoStates</text>
</a>
</g>
</g>
<!-- Node1&#45;&gt;Node7 -->
<g id="edge8" class="edge">
<title>Node1&#45;&gt;Node7</title>
<path fill="none" stroke="midnightblue" d="M88.06,-205.91C103.7,-208.05 121.42,-210.48 137.31,-212.66"/>
<polygon fill="midnightblue" stroke="midnightblue" points="137.07,-216.16 147.45,-214.05 138.02,-209.23 137.07,-216.16"/>
</g>
<!-- Node8 -->
<g id="node8" class="node">
<title>Node8</title>
<g id="a_node8"><a xlink:href="rinexClkWrite_8cpp.html#a28b150df3243b4be7af0d94240cedc50" target="_top" xlink:title=" ">
<polygon fill="white" stroke="black" points="147.5,-171.5 147.5,-190.5 221.5,-190.5 221.5,-171.5 147.5,-171.5"/>
<text text-anchor="middle" x="184.5" y="-178.5" font-family="Helvetica,sans-Serif" font-size="10.00">outputClocks</text>
</a>
</g>
</g>
<!-- Node1&#45;&gt;Node8 -->
<g id="edge9" class="edge">
<title>Node1&#45;&gt;Node8</title>
<path fill="none" stroke="midnightblue" d="M88.06,-194.09C103.7,-191.95 121.42,-189.52 137.31,-187.34"/>
<polygon fill="midnightblue" stroke="midnightblue" points="138.02,-190.77 147.45,-185.95 137.07,-183.84 138.02,-190.77"/>
</g>
<!-- Node65 -->
<g id="node16" class="node">
<title>Node65</title>
<g id="a_node16"><a xlink:href="structKFState.html#a6b83754311ce0a082153ebe40ee63e15" target="_top" xlink:title="Output keys and states in human readable format.">
<polygon fill="white" stroke="black" points="128,-95.5 128,-114.5 241,-114.5 241,-95.5 128,-95.5"/>
<text text-anchor="middle" x="184.5" y="-102.5" font-family="Helvetica,sans-Serif" font-size="10.00">KFState::outputStates</text>
</a>
</g>
</g>
<!-- Node1&#45;&gt;Node65 -->
<g id="edge18" class="edge">
<title>Node1&#45;&gt;Node65</title>
<path fill="none" stroke="midnightblue" d="M59.04,-190.37C83,-173.94 131.96,-140.36 160.81,-120.56"/>
<polygon fill="midnightblue" stroke="midnightblue" points="163.15,-123.2 169.42,-114.66 159.19,-117.43 163.15,-123.2"/>
</g>
<!-- Node66 -->
<g id="node18" class="node">
<title>Node66</title>
<g id="a_node18"><a xlink:href="tropSinex_8cpp.html#a69a4f80dc077e096360a1451c0d28e39" target="_top" xlink:title="Export troposphere Sinex data.">
<polygon fill="white" stroke="black" points="141,-572.5 141,-591.5 228,-591.5 228,-572.5 141,-572.5"/>
<text text-anchor="middle" x="184.5" y="-579.5" font-family="Helvetica,sans-Serif" font-size="10.00">outputTropSinex</text>
</a>
</g>
</g>
<!-- Node1&#45;&gt;Node66 -->
<g id="edge21" class="edge">
<title>Node1&#45;&gt;Node66</title>
<path fill="none" stroke="midnightblue" d="M48.56,-209.83C66.97,-260.6 151.41,-493.48 176.47,-562.6"/>
<polygon fill="midnightblue" stroke="midnightblue" points="173.26,-564.03 179.96,-572.24 179.84,-561.64 173.26,-564.03"/>
</g>
<!-- Node113 -->
<g id="node27" class="node">
<title>Node113</title>
<g id="a_node27"><a xlink:href="rinexClkWrite_8cpp.html#a82145c4693c5c40f4452f3d32b52e2b8" target="_top" xlink:title=" ">
<polygon fill="white" stroke="black" points="125,-57.5 125,-76.5 244,-76.5 244,-57.5 125,-57.5"/>
<text text-anchor="middle" x="184.5" y="-64.5" font-family="Helvetica,sans-Serif" font-size="10.00">tryPrepareFilterPointers</text>
</a>
</g>
</g>
<!-- Node1&#45;&gt;Node113 -->
<g id="edge31" class="edge">
<title>Node1&#45;&gt;Node113</title>
<path fill="none" stroke="midnightblue" d="M48.98,-190.46C58.58,-168.65 85.09,-114.79 124,-86 126.62,-84.07 129.43,-82.32 132.37,-80.75"/>
<polygon fill="midnightblue" stroke="midnightblue" points="133.86,-83.92 141.47,-76.55 130.93,-77.57 133.86,-83.92"/>
</g>
<!-- Node3 -->
<g id="node3" class="node">
<title>Node3</title>
<g id="a_node3"><a xlink:href="acsConfig_8cpp.html#a4384ae3d8da08f4e8562857e46291559" target="_top" xlink:title="search for and replace section of string">
<polygon fill="white" stroke="black" points="459,-417.5 459,-436.5 533,-436.5 533,-417.5 459,-417.5"/>
<text text-anchor="middle" x="496" y="-424.5" font-family="Helvetica,sans-Serif" font-size="10.00">replaceString</text>
</a>
</g>
</g>
<!-- Node2&#45;&gt;Node3 -->
<g id="edge2" class="edge">
<title>Node2&#45;&gt;Node3</title>
<path fill="none" stroke="midnightblue" d="M206.72,-361.59C225.81,-369.89 254.8,-381.67 281,-389 337.86,-404.9 405.15,-415.56 448.88,-421.44"/>
<polygon fill="midnightblue" stroke="midnightblue" points="448.56,-424.93 458.93,-422.77 449.47,-417.99 448.56,-424.93"/>
</g>
<!-- Node4 -->
<g id="node4" class="node">
<title>Node4</title>
<g id="a_node4"><a xlink:href="acsConfig_8cpp.html#a75a34dc41e76a8680e3aa6d62ff4c800" target="_top" xlink:title="Replace macros for times with numeric values.">
<polygon fill="white" stroke="black" points="314.5,-436.5 314.5,-455.5 389.5,-455.5 389.5,-436.5 314.5,-436.5"/>
<text text-anchor="middle" x="352" y="-443.5" font-family="Helvetica,sans-Serif" font-size="10.00">replaceTimes</text>
</a>
</g>
</g>
<!-- Node2&#45;&gt;Node4 -->
<g id="edge3" class="edge">
<title>Node2&#45;&gt;Node4</title>
<path fill="none" stroke="midnightblue" d="M196.23,-361.58C213.18,-376.3 247.66,-404.58 281,-422 289.03,-426.19 297.94,-429.9 306.64,-433.06"/>
<polygon fill="midnightblue" stroke="midnightblue" points="305.72,-436.45 316.32,-436.4 308.01,-429.83 305.72,-436.45"/>
</g>
<!-- Node5 -->
<g id="node5" class="node">
<title>Node5</title>
<g id="a_node5"><a xlink:href="structGTime.html#a7ed28cc28b05a43069702e96295be269" target="_top" xlink:title=" ">
<polygon fill="white" stroke="black" points="304,-342.5 304,-361.5 400,-361.5 400,-342.5 304,-342.5"/>
<text text-anchor="middle" x="352" y="-349.5" font-family="Helvetica,sans-Serif" font-size="10.00">GTime::roundTime</text>
</a>
</g>
</g>
<!-- Node2&#45;&gt;Node5 -->
<g id="edge5" class="edge">
<title>Node2&#45;&gt;Node5</title>
<path fill="none" stroke="midnightblue" d="M245.25,-352C261.05,-352 278.06,-352 293.72,-352"/>
<polygon fill="midnightblue" stroke="midnightblue" points="293.8,-355.5 303.8,-352 293.8,-348.5 293.8,-355.5"/>
</g>
<!-- Node6 -->
<g id="node6" class="node">
<title>Node6</title>
<g id="a_node6"><a xlink:href="structSatSys.html#abfd7e43b0d57c2718d05ca595ee360dd" target="_top" xlink:title="Returns the character used as a prefix for this system.">
<polygon fill="white" stroke="black" points="308,-304.5 308,-323.5 396,-323.5 396,-304.5 308,-304.5"/>
<text text-anchor="middle" x="352" y="-311.5" font-family="Helvetica,sans-Serif" font-size="10.00">SatSys::sysChar</text>
</a>
</g>
</g>
<!-- Node2&#45;&gt;Node6 -->
<g id="edge7" class="edge">
<title>Node2&#45;&gt;Node6</title>
<path fill="none" stroke="midnightblue" d="M227.26,-342.41C249.2,-337.37 276.28,-331.16 299.51,-325.82"/>
<polygon fill="midnightblue" stroke="midnightblue" points="300.57,-329.17 309.54,-323.52 299.01,-322.35 300.57,-329.17"/>
</g>
<!-- Node4&#45;&gt;Node3 -->
<g id="edge4" class="edge">
<title>Node4&#45;&gt;Node3</title>
<path fill="none" stroke="midnightblue" d="M389.57,-441.11C407.54,-438.7 429.39,-435.78 448.54,-433.22"/>
<polygon fill="midnightblue" stroke="midnightblue" points="449.11,-436.67 458.56,-431.88 448.18,-429.73 449.11,-436.67"/>
</g>
<!-- Node5&#45;&gt;Node5 -->
<g id="edge6" class="edge">
<title>Node5&#45;&gt;Node5</title>
<path fill="none" stroke="midnightblue" d="M329.81,-361.76C319.01,-370.57 326.41,-380 352,-380 368.8,-380 377.76,-375.94 378.88,-370.65"/>
<polygon fill="midnightblue" stroke="midnightblue" points="381.95,-368.97 374.19,-361.76 375.76,-372.24 381.95,-368.97"/>
</g>
<!-- Node9 -->
<g id="node9" class="node">
<title>Node9</title>
<g id="a_node9"><a xlink:href="rinexClkWrite_8cpp.html#a0ba2ad835d94106be37f4eaf88a47dbd" target="_top" xlink:title=" ">
<polygon fill="white" stroke="red" points="302,-266.5 302,-285.5 402,-285.5 402,-266.5 302,-266.5"/>
<text text-anchor="middle" x="352" y="-273.5" font-family="Helvetica,sans-Serif" font-size="10.00">getKalmanRecClks</text>
</a>
</g>
</g>
<!-- Node8&#45;&gt;Node9 -->
<g id="edge10" class="edge">
<title>Node8&#45;&gt;Node9</title>
<path fill="none" stroke="midnightblue" d="M221.78,-188.17C229.96,-190.94 238.22,-194.76 245,-200 268.7,-218.33 256.9,-239.2 281,-257 284.48,-259.57 288.28,-261.79 292.25,-263.71"/>
<polygon fill="midnightblue" stroke="midnightblue" points="291.21,-267.06 301.78,-267.67 293.89,-260.6 291.21,-267.06"/>
</g>
<!-- Node11 -->
<g id="node10" class="node">
<title>Node11</title>
<g id="a_node10"><a xlink:href="rinexClkWrite_8cpp.html#a88b529acb82f79fb531f22e928e9f725" target="_top" xlink:title=" ">
<polygon fill="white" stroke="red" points="303,-228.5 303,-247.5 401,-247.5 401,-228.5 303,-228.5"/>
<text text-anchor="middle" x="352" y="-235.5" font-family="Helvetica,sans-Serif" font-size="10.00">getKalmanSatClks</text>
</a>
</g>
</g>
<!-- Node8&#45;&gt;Node11 -->
<g id="edge11" class="edge">
<title>Node8&#45;&gt;Node11</title>
<path fill="none" stroke="midnightblue" d="M218.92,-190.53C227.53,-193.3 236.7,-196.52 245,-200 261.68,-207 264.17,-212.37 281,-219 287,-221.36 293.39,-223.54 299.79,-225.51"/>
<polygon fill="midnightblue" stroke="midnightblue" points="299.21,-228.99 309.79,-228.44 301.18,-222.27 299.21,-228.99"/>
</g>
<!-- Node12 -->
<g id="node11" class="node">
<title>Node12</title>
<g id="a_node11"><a xlink:href="rinexClkWrite_8cpp.html#a38af028a37fcf21d64d43bb78264ad81" target="_top" xlink:title=" ">
<polygon fill="white" stroke="red" points="302,-190.5 302,-209.5 402,-209.5 402,-190.5 302,-190.5"/>
<text text-anchor="middle" x="352" y="-197.5" font-family="Helvetica,sans-Serif" font-size="10.00">getPreciseRecClks</text>
</a>
</g>
</g>
<!-- Node8&#45;&gt;Node12 -->
<g id="edge12" class="edge">
<title>Node8&#45;&gt;Node12</title>
<path fill="none" stroke="midnightblue" d="M221.82,-185.17C242.29,-187.52 268.37,-190.51 291.73,-193.2"/>
<polygon fill="midnightblue" stroke="midnightblue" points="291.56,-196.7 301.89,-194.36 292.36,-189.74 291.56,-196.7"/>
</g>
<!-- Node18 -->
<g id="node12" class="node">
<title>Node18</title>
<g id="a_node12"><a xlink:href="rinexClkWrite_8cpp.html#a3f6744a347b111bb423bd32d27947654" target="_top" xlink:title=" ">
<polygon fill="white" stroke="red" points="300,-152.5 300,-171.5 404,-171.5 404,-152.5 300,-152.5"/>
<text text-anchor="middle" x="352" y="-159.5" font-family="Helvetica,sans-Serif" font-size="10.00">getSatClksFromEph</text>
</a>
</g>
</g>
<!-- Node8&#45;&gt;Node18 -->
<g id="edge13" class="edge">
<title>Node8&#45;&gt;Node18</title>
<path fill="none" stroke="midnightblue" d="M221.82,-176.83C241.71,-174.55 266.9,-171.66 289.74,-169.03"/>
<polygon fill="midnightblue" stroke="midnightblue" points="290.16,-172.51 299.7,-167.89 289.36,-165.55 290.16,-172.51"/>
</g>
<!-- Node62 -->
<g id="node13" class="node">
<title>Node62</title>
<g id="a_node13"><a xlink:href="rinexClkWrite_8cpp.html#a2d791ebb18371d4a41fa365b14a65987" target="_top" xlink:title=" ">
<polygon fill="white" stroke="red" points="292.5,-114.5 292.5,-133.5 411.5,-133.5 411.5,-114.5 292.5,-114.5"/>
<text text-anchor="middle" x="352" y="-121.5" font-family="Helvetica,sans-Serif" font-size="10.00">outputRinexClocksBody</text>
</a>
</g>
</g>
<!-- Node8&#45;&gt;Node62 -->
<g id="edge14" class="edge">
<title>Node8&#45;&gt;Node62</title>
<path fill="none" stroke="midnightblue" d="M207.62,-171.37C226.81,-163.21 255.44,-151.52 281,-143 287.98,-140.67 295.42,-138.42 302.75,-136.32"/>
<polygon fill="midnightblue" stroke="midnightblue" points="303.92,-139.63 312.62,-133.57 302.05,-132.89 303.92,-139.63"/>
</g>
<!-- Node63 -->
<g id="node15" class="node">
<title>Node63</title>
<g id="a_node15"><a xlink:href="rinexClkWrite_8cpp.html#abb0b221f0160ac0ab681859cce35e6e5" target="_top" xlink:title=" ">
<polygon fill="white" stroke="red" points="287.5,-76.5 287.5,-95.5 416.5,-95.5 416.5,-76.5 287.5,-76.5"/>
<text text-anchor="middle" x="352" y="-83.5" font-family="Helvetica,sans-Serif" font-size="10.00">outputRinexClocksHeader</text>
</a>
</g>
</g>
<!-- Node8&#45;&gt;Node63 -->
<g id="edge16" class="edge">
<title>Node8&#45;&gt;Node63</title>
<path fill="none" stroke="midnightblue" d="M194.87,-171.31C210.99,-155.2 245.65,-122.9 281,-105 285.59,-102.68 290.49,-100.61 295.5,-98.78"/>
<polygon fill="midnightblue" stroke="midnightblue" points="296.81,-102.03 305.18,-95.55 294.59,-95.4 296.81,-102.03"/>
</g>
<!-- Node33 -->
<g id="node14" class="node">
<title>Node33</title>
<g id="a_node14"><a xlink:href="streamTrace_8cpp.html#ae00e6addd3bdf3a7fd41a254eb9aec89" target="_top" xlink:title=" ">
<polygon fill="white" stroke="black" points="464,-76.5 464,-95.5 528,-95.5 528,-76.5 464,-76.5"/>
<text text-anchor="middle" x="496" y="-83.5" font-family="Helvetica,sans-Serif" font-size="10.00">tracepdeex</text>
</a>
</g>
</g>
<!-- Node62&#45;&gt;Node33 -->
<g id="edge15" class="edge">
<title>Node62&#45;&gt;Node33</title>
<path fill="none" stroke="midnightblue" d="M388.83,-114.41C408.6,-109.12 433.24,-102.53 453.8,-97.02"/>
<polygon fill="midnightblue" stroke="midnightblue" points="454.77,-100.39 463.53,-94.42 452.96,-93.63 454.77,-100.39"/>
</g>
<!-- Node63&#45;&gt;Node33 -->
<g id="edge17" class="edge">
<title>Node63&#45;&gt;Node33</title>
<path fill="none" stroke="midnightblue" d="M416.52,-86C429.08,-86 441.94,-86 453.53,-86"/>
<polygon fill="midnightblue" stroke="midnightblue" points="453.77,-89.5 463.77,-86 453.77,-82.5 453.77,-89.5"/>
</g>
<!-- Node65&#45;&gt;Node33 -->
<g id="edge20" class="edge">
<title>Node65&#45;&gt;Node33</title>
<path fill="none" stroke="midnightblue" d="M218.92,-95.47C227.53,-92.7 236.7,-89.48 245,-86 261.68,-79 263.44,-71.35 281,-67 342.26,-51.83 360.41,-58.88 423,-67 433.88,-68.41 445.46,-70.98 456.08,-73.77"/>
<polygon fill="midnightblue" stroke="midnightblue" points="455.34,-77.2 465.91,-76.5 457.21,-70.45 455.34,-77.2"/>
</g>
<!-- Node14 -->
<g id="node17" class="node">
<title>Node14</title>
<g id="a_node17"><a xlink:href="structGTime.html#a64394968bbfdecbbeec4ba5134fdb682" target="_top" xlink:title=" ">
<polygon fill="white" stroke="red" points="308,-0.5 308,-19.5 396,-19.5 396,-0.5 308,-0.5"/>
<text text-anchor="middle" x="352" y="-7.5" font-family="Helvetica,sans-Serif" font-size="10.00">GTime::to_string</text>
</a>
</g>
</g>
<!-- Node65&#45;&gt;Node14 -->
<g id="edge19" class="edge">
<title>Node65&#45;&gt;Node14</title>
<path fill="none" stroke="midnightblue" d="M227.53,-95.45C233.72,-92.97 239.77,-89.87 245,-86 267.59,-69.28 258.58,-50.96 281,-34 286.58,-29.78 292.94,-26.27 299.52,-23.36"/>
<polygon fill="midnightblue" stroke="midnightblue" points="301.22,-26.45 309.22,-19.51 298.64,-19.94 301.22,-26.45"/>
</g>
<!-- Node66&#45;&gt;Node4 -->
<g id="edge22" class="edge">
<title>Node66&#45;&gt;Node4</title>
<path fill="none" stroke="midnightblue" d="M190.52,-572.43C202.8,-550.01 236.57,-493.83 281,-465 288.14,-460.37 296.38,-456.86 304.65,-454.2"/>
<polygon fill="midnightblue" stroke="midnightblue" points="305.65,-457.56 314.31,-451.45 303.74,-450.82 305.65,-457.56"/>
</g>
<!-- Node67 -->
<g id="node19" class="node">
<title>Node67</title>
<g id="a_node19"><a xlink:href="tropSinex_8cpp.html#a2b411879ffbf816c3fac1aac04f9e2c5" target="_top" xlink:title=" ">
<polygon fill="white" stroke="red" points="311.5,-752.5 311.5,-771.5 392.5,-771.5 392.5,-752.5 311.5,-752.5"/>
<text text-anchor="middle" x="352" y="-759.5" font-family="Helvetica,sans-Serif" font-size="10.00">setFileRefData</text>
</a>
</g>
</g>
<!-- Node66&#45;&gt;Node67 -->
<g id="edge23" class="edge">
<title>Node66&#45;&gt;Node67</title>
<path fill="none" stroke="midnightblue" d="M188.38,-591.72C197.22,-619.81 226.68,-701.69 281,-743 286.99,-747.56 294.01,-751.03 301.24,-753.66"/>
<polygon fill="midnightblue" stroke="midnightblue" points="300.57,-757.12 311.16,-756.76 302.66,-750.44 300.57,-757.12"/>
</g>
<!-- Node69 -->
<g id="node20" class="node">
<title>Node69</title>
<g id="a_node20"><a xlink:href="tropSinex_8cpp.html#ac3ac2e24c9eaa98dcd7252e3106626cb" target="_top" xlink:title="Set marker name for file header.">
<polygon fill="white" stroke="black" points="297,-714.5 297,-733.5 407,-733.5 407,-714.5 297,-714.5"/>
<text text-anchor="middle" x="352" y="-721.5" font-family="Helvetica,sans-Serif" font-size="10.00">setSinexMarkerName</text>
</a>
</g>
</g>
<!-- Node66&#45;&gt;Node69 -->
<g id="edge24" class="edge">
<title>Node66&#45;&gt;Node69</title>
<path fill="none" stroke="midnightblue" d="M190.21,-591.72C202.04,-615.06 235.33,-674.57 281,-705 284.12,-707.08 287.46,-708.93 290.92,-710.58"/>
<polygon fill="midnightblue" stroke="midnightblue" points="289.75,-713.88 300.33,-714.49 292.44,-707.42 289.75,-713.88"/>
</g>
<!-- Node70 -->
<g id="node21" class="node">
<title>Node70</title>
<g id="a_node21"><a xlink:href="tropSinex_8cpp.html#a95b1f2181cb3285e229337473ca2948c" target="_top" xlink:title="Set data for trop description block.">
<polygon fill="white" stroke="black" points="316,-676.5 316,-695.5 388,-695.5 388,-676.5 316,-676.5"/>
<text text-anchor="middle" x="352" y="-683.5" font-family="Helvetica,sans-Serif" font-size="10.00">setTropDesc</text>
</a>
</g>
</g>
<!-- Node66&#45;&gt;Node70 -->
<g id="edge25" class="edge">
<title>Node66&#45;&gt;Node70</title>
<path fill="none" stroke="midnightblue" d="M193.63,-591.75C208.91,-609.44 243.72,-646.82 281,-667 288.8,-671.22 297.62,-674.56 306.29,-677.18"/>
<polygon fill="midnightblue" stroke="midnightblue" points="305.39,-680.57 315.96,-679.85 307.25,-673.82 305.39,-680.57"/>
</g>
<!-- Node71 -->
<g id="node22" class="node">
<title>Node71</title>
<g id="a_node22"><a xlink:href="tropSinex_8cpp.html#a8b6e41cc22808aa9045176f6997e1057" target="_top" xlink:title=" ">
<polygon fill="white" stroke="red" points="301.5,-638.5 301.5,-657.5 402.5,-657.5 402.5,-638.5 301.5,-638.5"/>
<text text-anchor="middle" x="352" y="-645.5" font-family="Helvetica,sans-Serif" font-size="10.00">setTropHeaderData</text>
</a>
</g>
</g>
<!-- Node66&#45;&gt;Node71 -->
<g id="edge26" class="edge">
<title>Node66&#45;&gt;Node71</title>
<path fill="none" stroke="midnightblue" d="M202.31,-591.51C221.05,-601.81 252.48,-618.22 281,-629 287.33,-631.39 294.09,-633.62 300.82,-635.64"/>
<polygon fill="midnightblue" stroke="midnightblue" points="300.02,-639.05 310.6,-638.45 301.96,-632.33 300.02,-639.05"/>
</g>
<!-- Node74 -->
<g id="node23" class="node">
<title>Node74</title>
<g id="a_node23"><a xlink:href="tropSinex_8cpp.html#a4a0e58dc579e8bf6d843084b2218b06d" target="_top" xlink:title="Set antenna calibration model data for SITE/ANTENNA block.">
<polygon fill="white" stroke="red" points="284.5,-589 284.5,-619 419.5,-619 419.5,-589 284.5,-589"/>
<text text-anchor="start" x="292.5" y="-607" font-family="Helvetica,sans-Serif" font-size="10.00">setTropSiteAntCalibModels</text>
<text text-anchor="middle" x="352" y="-596" font-family="Helvetica,sans-Serif" font-size="10.00">FromNav</text>
</a>
</g>
</g>
<!-- Node66&#45;&gt;Node74 -->
<g id="edge27" class="edge">
<title>Node66&#45;&gt;Node74</title>
<path fill="none" stroke="midnightblue" d="M228.12,-587.67C242.18,-589.53 258.29,-591.68 274.1,-593.78"/>
<polygon fill="midnightblue" stroke="midnightblue" points="274.06,-597.3 284.43,-595.15 274.98,-590.36 274.06,-597.3"/>
</g>
<!-- Node76 -->
<g id="node24" class="node">
<title>Node76</title>
<g id="a_node24"><a xlink:href="tropSinex_8cpp.html#a8e80887facc71dc237f9d45741a16122" target="_top" xlink:title="Set site coordinates from filter.">
<polygon fill="white" stroke="red" points="281,-550.5 281,-569.5 423,-569.5 423,-550.5 281,-550.5"/>
<text text-anchor="middle" x="352" y="-557.5" font-family="Helvetica,sans-Serif" font-size="10.00">setTropSiteCoordsFromFilter</text>
</a>
</g>
</g>
<!-- Node66&#45;&gt;Node76 -->
<g id="edge28" class="edge">
<title>Node66&#45;&gt;Node76</title>
<path fill="none" stroke="midnightblue" d="M228.12,-576.33C241.19,-574.6 256.03,-572.62 270.76,-570.67"/>
<polygon fill="midnightblue" stroke="midnightblue" points="271.47,-574.1 280.92,-569.32 270.54,-567.16 271.47,-574.1"/>
</g>
<!-- Node78 -->
<g id="node25" class="node">
<title>Node78</title>
<g id="a_node25"><a xlink:href="tropSinex_8cpp.html#a4a465038c77f0160662676189ddd43f3" target="_top" xlink:title="Set troposphere solution data.">
<polygon fill="white" stroke="red" points="317.5,-512.5 317.5,-531.5 386.5,-531.5 386.5,-512.5 317.5,-512.5"/>
<text text-anchor="middle" x="352" y="-519.5" font-family="Helvetica,sans-Serif" font-size="10.00">setTropSols</text>
</a>
</g>
</g>
<!-- Node66&#45;&gt;Node78 -->
<g id="edge29" class="edge">
<title>Node66&#45;&gt;Node78</title>
<path fill="none" stroke="midnightblue" d="M205.66,-572.36C224.77,-563.46 254.42,-550.26 281,-541 289.47,-538.05 298.64,-535.27 307.47,-532.8"/>
<polygon fill="midnightblue" stroke="midnightblue" points="308.51,-536.14 317.24,-530.14 306.67,-529.39 308.51,-536.14"/>
</g>
<!-- Node83 -->
<g id="node26" class="node">
<title>Node83</title>
<g id="a_node26"><a xlink:href="tropSinex_8cpp.html#ab59eaf15f25fdbc2cdf51adbadfc9ad3" target="_top" xlink:title="Write troposphere Sinex data to file.">
<polygon fill="white" stroke="red" points="298,-474.5 298,-493.5 406,-493.5 406,-474.5 298,-474.5"/>
<text text-anchor="middle" x="352" y="-481.5" font-family="Helvetica,sans-Serif" font-size="10.00">writeTropSinexToFile</text>
</a>
</g>
</g>
<!-- Node66&#45;&gt;Node83 -->
<g id="edge30" class="edge">
<title>Node66&#45;&gt;Node83</title>
<path fill="none" stroke="midnightblue" d="M194.28,-572.44C210.05,-555.85 244.89,-521.71 281,-503 285.5,-500.67 290.31,-498.6 295.22,-496.77"/>
<polygon fill="midnightblue" stroke="midnightblue" points="296.41,-500.07 304.75,-493.54 294.16,-493.44 296.41,-500.07"/>
</g>
</g>
</svg>
