<?xml version="1.0" encoding="UTF-8" standalone="no"?>
<!DOCTYPE svg PUBLIC "-//W3C//DTD SVG 1.1//EN"
 "http://www.w3.org/Graphics/SVG/1.1/DTD/svg11.dtd">
<!-- Generated by graphviz version 2.50.0 (20220203.2022)
 -->
<!-- Title: iau_rxr Pages: 1 -->
<svg width="359pt" height="189pt"
 viewBox="0.00 0.00 359.00 189.00" xmlns="http://www.w3.org/2000/svg" xmlns:xlink="http://www.w3.org/1999/xlink">
<g id="graph0" class="graph" transform="scale(1 1) rotate(0) translate(4 185)">
<title>iau_rxr</title>
<polygon fill="white" stroke="transparent" points="-4,4 -4,-185 355,-185 355,4 -4,4"/>
<!-- Node1 -->
<g id="node1" class="node">
<title>Node1</title>
<g id="a_node1"><a xlink:title=" ">
<polygon fill="#bfbfbf" stroke="black" points="306,-76.5 306,-95.5 351,-95.5 351,-76.5 306,-76.5"/>
<text text-anchor="middle" x="328.5" y="-83.5" font-family="Helvetica,sans-Serif" font-size="10.00">iau_rxr</text>
</a>
</g>
</g>
<!-- Node2 -->
<g id="node2" class="node">
<title>Node2</title>
<g id="a_node2"><a xlink:href="crs__trs_8f90.html#ad60041f94ed21d7dccece31ca956443c" target="_top" xlink:title=" ">
<polygon fill="white" stroke="black" points="215.5,-152.5 215.5,-171.5 262.5,-171.5 262.5,-152.5 215.5,-152.5"/>
<text text-anchor="middle" x="239" y="-159.5" font-family="Helvetica,sans-Serif" font-size="10.00">crs_trs</text>
</a>
</g>
</g>
<!-- Node1&#45;&gt;Node2 -->
<g id="edge1" class="edge">
<title>Node1&#45;&gt;Node2</title>
<path fill="none" stroke="midnightblue" d="M312.2,-103.01C301.09,-114.9 285.36,-130.76 270,-143 265.85,-146.3 261.11,-149.53 256.63,-152.36"/>
<polygon fill="midnightblue" stroke="midnightblue" points="314.9,-105.25 319.1,-95.52 309.75,-100.51 314.9,-105.25"/>
</g>
<!-- Node37 -->
<g id="node5" class="node">
<title>Node37</title>
<g id="a_node5"><a xlink:href="era__matrix_8f90.html#a90c9a2cf4c3058069f634af9536ba0cf" target="_top" xlink:title=" ">
<polygon fill="white" stroke="black" points="208,-114.5 208,-133.5 270,-133.5 270,-114.5 208,-114.5"/>
<text text-anchor="middle" x="239" y="-121.5" font-family="Helvetica,sans-Serif" font-size="10.00">era_matrix</text>
</a>
</g>
</g>
<!-- Node1&#45;&gt;Node37 -->
<g id="edge5" class="edge">
<title>Node1&#45;&gt;Node37</title>
<path fill="none" stroke="midnightblue" d="M296.64,-99.4C285.21,-104.37 272.48,-109.9 261.99,-114.45"/>
<polygon fill="midnightblue" stroke="midnightblue" points="298.09,-102.59 305.87,-95.39 295.3,-96.17 298.09,-102.59"/>
</g>
<!-- Node38 -->
<g id="node6" class="node">
<title>Node38</title>
<g id="a_node6"><a xlink:href="bp00_8for.html#a3fc3bdf84399c71da9637c97a5dbd8af" target="_top" xlink:title=" ">
<polygon fill="white" stroke="black" points="211,-76.5 211,-95.5 267,-95.5 267,-76.5 211,-76.5"/>
<text text-anchor="middle" x="239" y="-83.5" font-family="Helvetica,sans-Serif" font-size="10.00">iau_bp00</text>
</a>
</g>
</g>
<!-- Node1&#45;&gt;Node38 -->
<g id="edge6" class="edge">
<title>Node1&#45;&gt;Node38</title>
<path fill="none" stroke="midnightblue" d="M295.7,-86C286.29,-86 276.09,-86 267.02,-86"/>
<polygon fill="midnightblue" stroke="midnightblue" points="295.87,-89.5 305.87,-86 295.87,-82.5 295.87,-89.5"/>
</g>
<!-- Node39 -->
<g id="node7" class="node">
<title>Node39</title>
<g id="a_node7"><a xlink:href="pn00_8for.html#a31b905e027b17107c0e56061a6850c13" target="_top" xlink:title=" ">
<polygon fill="white" stroke="red" points="116,-66.5 116,-85.5 172,-85.5 172,-66.5 116,-66.5"/>
<text text-anchor="middle" x="144" y="-73.5" font-family="Helvetica,sans-Serif" font-size="10.00">iau_pn00</text>
</a>
</g>
</g>
<!-- Node1&#45;&gt;Node39 -->
<g id="edge9" class="edge">
<title>Node1&#45;&gt;Node39</title>
<path fill="none" stroke="midnightblue" d="M296.35,-73.7C287.93,-70.94 278.73,-68.4 270,-67 236.7,-61.64 197.9,-66.07 172.47,-70.4"/>
<polygon fill="midnightblue" stroke="midnightblue" points="295.2,-77.01 305.79,-77.01 297.51,-70.4 295.2,-77.01"/>
</g>
<!-- Node43 -->
<g id="node8" class="node">
<title>Node43</title>
<g id="a_node8"><a xlink:href="c2tcio_8for.html#a5815d9f1720c251f0ca339f1edf7add2" target="_top" xlink:title=" ">
<polygon fill="white" stroke="black" points="208.5,-0.5 208.5,-19.5 269.5,-19.5 269.5,-0.5 208.5,-0.5"/>
<text text-anchor="middle" x="239" y="-7.5" font-family="Helvetica,sans-Serif" font-size="10.00">iau_c2tcio</text>
</a>
</g>
</g>
<!-- Node1&#45;&gt;Node43 -->
<g id="edge8" class="edge">
<title>Node1&#45;&gt;Node43</title>
<path fill="none" stroke="midnightblue" d="M309.61,-69.31C298.39,-58.97 283.53,-45.51 270,-34 264.31,-29.16 257.86,-23.96 252.4,-19.64"/>
<polygon fill="midnightblue" stroke="midnightblue" points="307.36,-72 317.07,-76.22 312.11,-66.86 307.36,-72"/>
</g>
<!-- Node3 -->
<g id="node3" class="node">
<title>Node3</title>
<g id="a_node3"><a xlink:href="EOP_8f90.html#ae7a3de1bf2c72753f2eeb8e05d63f962" target="_top" xlink:title=" ">
<polygon fill="white" stroke="red" points="128,-161.5 128,-180.5 160,-180.5 160,-161.5 128,-161.5"/>
<text text-anchor="middle" x="144" y="-168.5" font-family="Helvetica,sans-Serif" font-size="10.00">eop</text>
</a>
</g>
</g>
<!-- Node2&#45;&gt;Node3 -->
<g id="edge2" class="edge">
<title>Node2&#45;&gt;Node3</title>
<path fill="none" stroke="midnightblue" d="M205.27,-165.17C189.86,-166.66 172.24,-168.36 160.05,-169.54"/>
<polygon fill="midnightblue" stroke="midnightblue" points="205.87,-168.63 215.49,-164.18 205.2,-161.66 205.87,-168.63"/>
</g>
<!-- Node18 -->
<g id="node4" class="node">
<title>Node18</title>
<g id="a_node4"><a xlink:href="main__brdcorbit_8f90.html#a34cbfb6f2004478de868a894a67a8b30" target="_top" xlink:title=" ">
<polygon fill="white" stroke="black" points="0,-142.5 0,-161.5 80,-161.5 80,-142.5 0,-142.5"/>
<text text-anchor="middle" x="40" y="-149.5" font-family="Helvetica,sans-Serif" font-size="10.00">main_brdcorbit</text>
</a>
</g>
</g>
<!-- Node2&#45;&gt;Node18 -->
<g id="edge4" class="edge">
<title>Node2&#45;&gt;Node18</title>
<path fill="none" stroke="midnightblue" d="M205.38,-156.06C194.77,-154.4 182.92,-152.82 172,-152 141.16,-149.68 106.11,-149.82 80.04,-150.47"/>
<polygon fill="midnightblue" stroke="midnightblue" points="205.06,-159.56 215.49,-157.73 206.19,-152.65 205.06,-159.56"/>
</g>
<!-- Node3&#45;&gt;Node18 -->
<g id="edge3" class="edge">
<title>Node3&#45;&gt;Node18</title>
<path fill="none" stroke="midnightblue" d="M117.92,-166.33C106.61,-164.22 92.98,-161.68 80.36,-159.33"/>
<polygon fill="midnightblue" stroke="midnightblue" points="117.48,-169.81 127.95,-168.2 118.76,-162.92 117.48,-169.81"/>
</g>
<!-- Node38&#45;&gt;Node39 -->
<g id="edge7" class="edge">
<title>Node38&#45;&gt;Node39</title>
<path fill="none" stroke="midnightblue" d="M200.59,-81.98C191.1,-80.96 181.08,-79.88 172.2,-78.93"/>
<polygon fill="midnightblue" stroke="midnightblue" points="200.28,-85.46 210.6,-83.05 201.03,-78.5 200.28,-85.46"/>
</g>
</g>
</svg>
