<?xml version="1.0" encoding="UTF-8" standalone="no"?>
<!DOCTYPE svg PUBLIC "-//W3C//DTD SVG 1.1//EN"
 "http://www.w3.org/Graphics/SVG/1.1/DTD/svg11.dtd">
<!-- Generated by graphviz version 2.50.0 (20220203.2022)
 -->
<!-- Title: iau_s00 Pages: 1 -->
<svg width="161pt" height="438pt"
 viewBox="0.00 0.00 161.00 438.00" xmlns="http://www.w3.org/2000/svg" xmlns:xlink="http://www.w3.org/1999/xlink">
<g id="graph0" class="graph" transform="scale(1 1) rotate(0) translate(4 434)">
<title>iau_s00</title>
<polygon fill="white" stroke="transparent" points="-4,4 -4,-434 157,-434 157,4 -4,4"/>
<!-- Node1 -->
<g id="node1" class="node">
<title>Node1</title>
<g id="a_node1"><a xlink:title=" ">
<polygon fill="#bfbfbf" stroke="black" points="0,-196.5 0,-215.5 50,-215.5 50,-196.5 0,-196.5"/>
<text text-anchor="middle" x="25" y="-203.5" font-family="Helvetica,sans-Serif" font-size="10.00">iau_s00</text>
</a>
</g>
</g>
<!-- Node1&#45;&gt;Node1 -->
<g id="edge17" class="edge">
<title>Node1&#45;&gt;Node1</title>
<path fill="none" stroke="midnightblue" d="M10.51,-215.76C3.46,-224.57 8.29,-234 25,-234 35.44,-234 41.24,-230.31 42.41,-225.4"/>
<polygon fill="midnightblue" stroke="midnightblue" points="45.73,-224.31 39.49,-215.76 39.03,-226.34 45.73,-224.31"/>
</g>
<!-- Node2 -->
<g id="node2" class="node">
<title>Node2</title>
<g id="a_node2"><a xlink:href="fad03_8for.html#a5b7a407fa1d0c61e1e48de7f19d64f9a" target="_top" xlink:title=" ">
<polygon fill="white" stroke="black" points="90,-392.5 90,-411.5 149,-411.5 149,-392.5 90,-392.5"/>
<text text-anchor="middle" x="119.5" y="-399.5" font-family="Helvetica,sans-Serif" font-size="10.00">iau_fad03</text>
</a>
</g>
</g>
<!-- Node1&#45;&gt;Node2 -->
<g id="edge1" class="edge">
<title>Node1&#45;&gt;Node2</title>
<path fill="none" stroke="midnightblue" d="M26.9,-215.57C30.03,-244.11 42.72,-329.95 86,-383 86.84,-384.03 87.74,-385.01 88.71,-385.95"/>
<polygon fill="midnightblue" stroke="midnightblue" points="86.84,-388.93 96.88,-392.31 91.14,-383.41 86.84,-388.93"/>
</g>
<!-- Node3 -->
<g id="node3" class="node">
<title>Node3</title>
<g id="a_node3"><a xlink:href="fae03_8for.html#a53b18cc1c441535ad595a576f6e27bc7" target="_top" xlink:title=" ">
<polygon fill="white" stroke="black" points="90,-336.5 90,-355.5 149,-355.5 149,-336.5 90,-336.5"/>
<text text-anchor="middle" x="119.5" y="-343.5" font-family="Helvetica,sans-Serif" font-size="10.00">iau_fae03</text>
</a>
</g>
</g>
<!-- Node1&#45;&gt;Node3 -->
<g id="edge3" class="edge">
<title>Node1&#45;&gt;Node3</title>
<path fill="none" stroke="midnightblue" d="M28.66,-215.58C35.19,-237.6 53.84,-292.55 86,-327 87.17,-328.25 88.43,-329.44 89.76,-330.57"/>
<polygon fill="midnightblue" stroke="midnightblue" points="87.75,-333.44 97.92,-336.41 91.83,-327.75 87.75,-333.44"/>
</g>
<!-- Node4 -->
<g id="node4" class="node">
<title>Node4</title>
<g id="a_node4"><a xlink:href="faf03_8for.html#a34ea95ce99ee85b70fb5317abe1e449e" target="_top" xlink:title=" ">
<polygon fill="white" stroke="black" points="91.5,-280.5 91.5,-299.5 147.5,-299.5 147.5,-280.5 91.5,-280.5"/>
<text text-anchor="middle" x="119.5" y="-287.5" font-family="Helvetica,sans-Serif" font-size="10.00">iau_faf03</text>
</a>
</g>
</g>
<!-- Node1&#45;&gt;Node4 -->
<g id="edge5" class="edge">
<title>Node1&#45;&gt;Node4</title>
<path fill="none" stroke="midnightblue" d="M33.38,-215.66C44.01,-229.14 64.7,-253.87 86,-271 87.74,-272.4 89.59,-273.76 91.5,-275.07"/>
<polygon fill="midnightblue" stroke="midnightblue" points="89.67,-278.06 100,-280.45 93.42,-272.15 89.67,-278.06"/>
</g>
<!-- Node5 -->
<g id="node5" class="node">
<title>Node5</title>
<g id="a_node5"><a xlink:href="fal03_8for.html#aed0d86ac67bcfba63d4c780a21a19cc4" target="_top" xlink:title=" ">
<polygon fill="white" stroke="black" points="91.5,-224.5 91.5,-243.5 147.5,-243.5 147.5,-224.5 91.5,-224.5"/>
<text text-anchor="middle" x="119.5" y="-231.5" font-family="Helvetica,sans-Serif" font-size="10.00">iau_fal03</text>
</a>
</g>
</g>
<!-- Node1&#45;&gt;Node5 -->
<g id="edge7" class="edge">
<title>Node1&#45;&gt;Node5</title>
<path fill="none" stroke="midnightblue" d="M50.3,-213.36C59.88,-216.25 71.08,-219.65 81.61,-222.83"/>
<polygon fill="midnightblue" stroke="midnightblue" points="80.84,-226.26 91.43,-225.8 82.87,-219.56 80.84,-226.26"/>
</g>
<!-- Node6 -->
<g id="node6" class="node">
<title>Node6</title>
<g id="a_node6"><a xlink:href="falp03_8for.html#a3c7c52b1bd9a7d57bfd93a1625bfa381" target="_top" xlink:title=" ">
<polygon fill="white" stroke="black" points="89,-168.5 89,-187.5 150,-187.5 150,-168.5 89,-168.5"/>
<text text-anchor="middle" x="119.5" y="-175.5" font-family="Helvetica,sans-Serif" font-size="10.00">iau_falp03</text>
</a>
</g>
</g>
<!-- Node1&#45;&gt;Node6 -->
<g id="edge9" class="edge">
<title>Node1&#45;&gt;Node6</title>
<path fill="none" stroke="midnightblue" d="M50.3,-198.64C59.14,-195.97 69.36,-192.88 79.16,-189.91"/>
<polygon fill="midnightblue" stroke="midnightblue" points="80.19,-193.25 88.75,-187.01 78.16,-186.55 80.19,-193.25"/>
</g>
<!-- Node7 -->
<g id="node7" class="node">
<title>Node7</title>
<g id="a_node7"><a xlink:href="faom03_8for.html#a84bf082ec118ef1839eadeffa0449520" target="_top" xlink:title=" ">
<polygon fill="white" stroke="black" points="86,-112.5 86,-131.5 153,-131.5 153,-112.5 86,-112.5"/>
<text text-anchor="middle" x="119.5" y="-119.5" font-family="Helvetica,sans-Serif" font-size="10.00">iau_faom03</text>
</a>
</g>
</g>
<!-- Node1&#45;&gt;Node7 -->
<g id="edge11" class="edge">
<title>Node1&#45;&gt;Node7</title>
<path fill="none" stroke="midnightblue" d="M36.61,-196.36C52.22,-182.19 81.58,-155.52 100.58,-138.28"/>
<polygon fill="midnightblue" stroke="midnightblue" points="102.96,-140.84 108.01,-131.52 98.26,-135.66 102.96,-140.84"/>
</g>
<!-- Node8 -->
<g id="node8" class="node">
<title>Node8</title>
<g id="a_node8"><a xlink:href="fapa03_8for.html#a6e010692ea9f78e9604c88950b4157d9" target="_top" xlink:title=" ">
<polygon fill="white" stroke="black" points="87.5,-56.5 87.5,-75.5 151.5,-75.5 151.5,-56.5 87.5,-56.5"/>
<text text-anchor="middle" x="119.5" y="-63.5" font-family="Helvetica,sans-Serif" font-size="10.00">iau_fapa03</text>
</a>
</g>
</g>
<!-- Node1&#45;&gt;Node8 -->
<g id="edge13" class="edge">
<title>Node1&#45;&gt;Node8</title>
<path fill="none" stroke="midnightblue" d="M30.87,-196.25C40.41,-177.5 62.66,-135.41 86,-103 90.88,-96.23 96.76,-89.24 102.17,-83.18"/>
<polygon fill="midnightblue" stroke="midnightblue" points="104.94,-85.35 109.13,-75.62 99.78,-80.61 104.94,-85.35"/>
</g>
<!-- Node9 -->
<g id="node9" class="node">
<title>Node9</title>
<g id="a_node9"><a xlink:href="fave03_8for.html#add0e95b7783f8bfe95f97728d48849f8" target="_top" xlink:title=" ">
<polygon fill="white" stroke="black" points="87.5,-0.5 87.5,-19.5 151.5,-19.5 151.5,-0.5 87.5,-0.5"/>
<text text-anchor="middle" x="119.5" y="-7.5" font-family="Helvetica,sans-Serif" font-size="10.00">iau_fave03</text>
</a>
</g>
</g>
<!-- Node1&#45;&gt;Node9 -->
<g id="edge15" class="edge">
<title>Node1&#45;&gt;Node9</title>
<path fill="none" stroke="midnightblue" d="M28.39,-196.14C34.93,-170.31 54.71,-99.11 86,-47 90.24,-39.95 95.88,-32.96 101.28,-27"/>
<polygon fill="midnightblue" stroke="midnightblue" points="103.97,-29.25 108.32,-19.59 98.9,-24.42 103.97,-29.25"/>
</g>
<!-- Node2&#45;&gt;Node2 -->
<g id="edge2" class="edge">
<title>Node2&#45;&gt;Node2</title>
<path fill="none" stroke="midnightblue" d="M105.01,-411.76C97.96,-420.57 102.79,-430 119.5,-430 129.94,-430 135.74,-426.31 136.91,-421.4"/>
<polygon fill="midnightblue" stroke="midnightblue" points="140.23,-420.31 133.99,-411.76 133.53,-422.34 140.23,-420.31"/>
</g>
<!-- Node3&#45;&gt;Node3 -->
<g id="edge4" class="edge">
<title>Node3&#45;&gt;Node3</title>
<path fill="none" stroke="midnightblue" d="M105.01,-355.76C97.96,-364.57 102.79,-374 119.5,-374 129.94,-374 135.74,-370.31 136.91,-365.4"/>
<polygon fill="midnightblue" stroke="midnightblue" points="140.23,-364.31 133.99,-355.76 133.53,-366.34 140.23,-364.31"/>
</g>
<!-- Node4&#45;&gt;Node4 -->
<g id="edge6" class="edge">
<title>Node4&#45;&gt;Node4</title>
<path fill="none" stroke="midnightblue" d="M105.01,-299.76C97.96,-308.57 102.79,-318 119.5,-318 129.94,-318 135.74,-314.31 136.91,-309.4"/>
<polygon fill="midnightblue" stroke="midnightblue" points="140.23,-308.31 133.99,-299.76 133.53,-310.34 140.23,-308.31"/>
</g>
<!-- Node5&#45;&gt;Node5 -->
<g id="edge8" class="edge">
<title>Node5&#45;&gt;Node5</title>
<path fill="none" stroke="midnightblue" d="M105.01,-243.76C97.96,-252.57 102.79,-262 119.5,-262 129.94,-262 135.74,-258.31 136.91,-253.4"/>
<polygon fill="midnightblue" stroke="midnightblue" points="140.23,-252.31 133.99,-243.76 133.53,-254.34 140.23,-252.31"/>
</g>
<!-- Node6&#45;&gt;Node6 -->
<g id="edge10" class="edge">
<title>Node6&#45;&gt;Node6</title>
<path fill="none" stroke="midnightblue" d="M105.01,-187.76C97.96,-196.57 102.79,-206 119.5,-206 129.94,-206 135.74,-202.31 136.91,-197.4"/>
<polygon fill="midnightblue" stroke="midnightblue" points="140.23,-196.31 133.99,-187.76 133.53,-198.34 140.23,-196.31"/>
</g>
<!-- Node7&#45;&gt;Node7 -->
<g id="edge12" class="edge">
<title>Node7&#45;&gt;Node7</title>
<path fill="none" stroke="midnightblue" d="M105.01,-131.76C97.96,-140.57 102.79,-150 119.5,-150 129.94,-150 135.74,-146.31 136.91,-141.4"/>
<polygon fill="midnightblue" stroke="midnightblue" points="140.23,-140.31 133.99,-131.76 133.53,-142.34 140.23,-140.31"/>
</g>
<!-- Node8&#45;&gt;Node8 -->
<g id="edge14" class="edge">
<title>Node8&#45;&gt;Node8</title>
<path fill="none" stroke="midnightblue" d="M105.01,-75.76C97.96,-84.57 102.79,-94 119.5,-94 129.94,-94 135.74,-90.31 136.91,-85.4"/>
<polygon fill="midnightblue" stroke="midnightblue" points="140.23,-84.31 133.99,-75.76 133.53,-86.34 140.23,-84.31"/>
</g>
<!-- Node9&#45;&gt;Node9 -->
<g id="edge16" class="edge">
<title>Node9&#45;&gt;Node9</title>
<path fill="none" stroke="midnightblue" d="M105.01,-19.76C97.96,-28.57 102.79,-38 119.5,-38 129.94,-38 135.74,-34.31 136.91,-29.4"/>
<polygon fill="midnightblue" stroke="midnightblue" points="140.23,-28.31 133.99,-19.76 133.53,-30.34 140.23,-28.31"/>
</g>
</g>
</svg>
