<?xml version="1.0" encoding="UTF-8" standalone="no"?>
<!DOCTYPE svg PUBLIC "-//W3C//DTD SVG 1.1//EN"
 "http://www.w3.org/Graphics/SVG/1.1/DTD/svg11.dtd">
<!-- Generated by graphviz version 2.50.0 (20220203.2022)
 -->
<!-- Title: satid Pages: 1 -->
<svg width="417pt" height="104pt"
 viewBox="0.00 0.00 417.00 104.00" xmlns="http://www.w3.org/2000/svg" xmlns:xlink="http://www.w3.org/1999/xlink">
<g id="graph0" class="graph" transform="scale(1 1) rotate(0) translate(4 100)">
<title>satid</title>
<polygon fill="white" stroke="transparent" points="-4,4 -4,-100 413,-100 413,4 -4,4"/>
<!-- Node1 -->
<g id="node1" class="node">
<title>Node1</title>
<g id="a_node1"><a xlink:title=" ">
<polygon fill="#bfbfbf" stroke="black" points="371,-38.5 371,-57.5 409,-57.5 409,-38.5 371,-38.5"/>
<text text-anchor="middle" x="390" y="-45.5" font-family="Helvetica,sans-Serif" font-size="10.00">satid</text>
</a>
</g>
</g>
<!-- Node2 -->
<g id="node2" class="node">
<title>Node2</title>
<g id="a_node2"><a xlink:href="ephemeris_8cpp.html#a54c09f3ed2a61e7f23caae21c73a0e8e" target="_top" xlink:title=" ">
<polygon fill="white" stroke="black" points="257.5,-76.5 257.5,-95.5 324.5,-95.5 324.5,-76.5 257.5,-76.5"/>
<text text-anchor="middle" x="291" y="-83.5" font-family="Helvetica,sans-Serif" font-size="10.00">cullEphMap</text>
</a>
</g>
</g>
<!-- Node1&#45;&gt;Node2 -->
<g id="edge1" class="edge">
<title>Node1&#45;&gt;Node2</title>
<path fill="none" stroke="midnightblue" d="M361.07,-58.94C346.95,-64.47 329.98,-71.12 316.39,-76.44"/>
<polygon fill="midnightblue" stroke="midnightblue" points="362.72,-62.05 370.76,-55.15 360.17,-55.54 362.72,-62.05"/>
</g>
<!-- Node5 -->
<g id="node5" class="node">
<title>Node5</title>
<g id="a_node5"><a xlink:href="ephemeris_8cpp.html#af3a8b4b103b082a7cab9c5e53b5f4338" target="_top" xlink:title=" ">
<polygon fill="white" stroke="black" points="139,-38.5 139,-57.5 211,-57.5 211,-38.5 139,-38.5"/>
<text text-anchor="middle" x="175" y="-45.5" font-family="Helvetica,sans-Serif" font-size="10.00">cullOldSSRs</text>
</a>
</g>
</g>
<!-- Node1&#45;&gt;Node5 -->
<g id="edge4" class="edge">
<title>Node1&#45;&gt;Node5</title>
<path fill="none" stroke="midnightblue" d="M360.83,-48C322.28,-48 253.12,-48 211.21,-48"/>
<polygon fill="midnightblue" stroke="midnightblue" points="360.84,-51.5 370.84,-48 360.84,-44.5 360.84,-51.5"/>
</g>
<!-- Node6 -->
<g id="node6" class="node">
<title>Node6</title>
<g id="a_node6"><a xlink:href="rinex_8cpp.html#a6c365ade07508e2f0d0b1e35b3309d1d" target="_top" xlink:title=" ">
<polygon fill="white" stroke="black" points="247,-0.5 247,-19.5 335,-19.5 335,-0.5 247,-0.5"/>
<text text-anchor="middle" x="291" y="-7.5" font-family="Helvetica,sans-Serif" font-size="10.00">decode_obsdata</text>
</a>
</g>
</g>
<!-- Node1&#45;&gt;Node6 -->
<g id="edge6" class="edge">
<title>Node1&#45;&gt;Node6</title>
<path fill="none" stroke="midnightblue" d="M361.07,-37.06C346.95,-31.53 329.98,-24.88 316.39,-19.56"/>
<polygon fill="midnightblue" stroke="midnightblue" points="360.17,-40.46 370.76,-40.85 362.72,-33.95 360.17,-40.46"/>
</g>
<!-- Node3 -->
<g id="node3" class="node">
<title>Node3</title>
<g id="a_node3"><a xlink:href="ephemeris_8cpp.html#aec22060c47a6a68b1f56a0d513a8df8a" target="_top" xlink:title=" ">
<polygon fill="white" stroke="black" points="141,-76.5 141,-95.5 209,-95.5 209,-76.5 141,-76.5"/>
<text text-anchor="middle" x="175" y="-83.5" font-family="Helvetica,sans-Serif" font-size="10.00">cullOldEphs</text>
</a>
</g>
</g>
<!-- Node2&#45;&gt;Node3 -->
<g id="edge2" class="edge">
<title>Node2&#45;&gt;Node3</title>
<path fill="none" stroke="midnightblue" d="M247.06,-86C234.48,-86 220.93,-86 209.07,-86"/>
<polygon fill="midnightblue" stroke="midnightblue" points="247.33,-89.5 257.33,-86 247.33,-82.5 247.33,-89.5"/>
</g>
<!-- Node4 -->
<g id="node4" class="node">
<title>Node4</title>
<g id="a_node4"><a xlink:href="main_8cpp.html#a30c68344d30ddfe1e926f8472b86f094" target="_top" xlink:title=" ">
<polygon fill="white" stroke="black" points="0,-57.5 0,-76.5 103,-76.5 103,-57.5 0,-57.5"/>
<text text-anchor="middle" x="51.5" y="-64.5" font-family="Helvetica,sans-Serif" font-size="10.00">mainOncePerEpoch</text>
</a>
</g>
</g>
<!-- Node3&#45;&gt;Node4 -->
<g id="edge3" class="edge">
<title>Node3&#45;&gt;Node4</title>
<path fill="none" stroke="midnightblue" d="M130.73,-79.23C121.9,-77.85 112.53,-76.39 103.45,-74.97"/>
<polygon fill="midnightblue" stroke="midnightblue" points="130.38,-82.72 140.8,-80.81 131.46,-75.81 130.38,-82.72"/>
</g>
<!-- Node5&#45;&gt;Node4 -->
<g id="edge5" class="edge">
<title>Node5&#45;&gt;Node4</title>
<path fill="none" stroke="midnightblue" d="M128.95,-55.04C120.62,-56.35 111.87,-57.72 103.38,-59.04"/>
<polygon fill="midnightblue" stroke="midnightblue" points="129.52,-58.5 138.86,-53.5 128.44,-51.58 129.52,-58.5"/>
</g>
<!-- Node7 -->
<g id="node7" class="node">
<title>Node7</title>
<g id="a_node7"><a xlink:href="rinex_8cpp.html#a8904a223b164e16e88cc0e2e0681d5c2" target="_top" xlink:title=" ">
<polygon fill="white" stroke="red" points="140.5,-0.5 140.5,-19.5 209.5,-19.5 209.5,-0.5 140.5,-0.5"/>
<text text-anchor="middle" x="175" y="-7.5" font-family="Helvetica,sans-Serif" font-size="10.00">readrnxobsb</text>
</a>
</g>
</g>
<!-- Node6&#45;&gt;Node7 -->
<g id="edge7" class="edge">
<title>Node6&#45;&gt;Node7</title>
<path fill="none" stroke="midnightblue" d="M236.61,-10C227.4,-10 218.06,-10 209.56,-10"/>
<polygon fill="midnightblue" stroke="midnightblue" points="236.9,-13.5 246.9,-10 236.9,-6.5 236.9,-13.5"/>
</g>
</g>
</svg>
