<?xml version="1.0" encoding="UTF-8" standalone="no"?>
<!DOCTYPE svg PUBLIC "-//W3C//DTD SVG 1.1//EN"
 "http://www.w3.org/Graphics/SVG/1.1/DTD/svg11.dtd">
<!-- Generated by graphviz version 2.50.0 (20220203.2022)
 -->
<!-- Title: write_pretty_line Pages: 1 -->
<svg width="383pt" height="66pt"
 viewBox="0.00 0.00 383.00 66.00" xmlns="http://www.w3.org/2000/svg" xmlns:xlink="http://www.w3.org/1999/xlink">
<g id="graph0" class="graph" transform="scale(1 1) rotate(0) translate(4 62)">
<title>write_pretty_line</title>
<polygon fill="white" stroke="transparent" points="-4,4 -4,-62 379,-62 379,4 -4,4"/>
<!-- Node1 -->
<g id="node1" class="node">
<title>Node1</title>
<g id="a_node1"><a xlink:title=" ">
<polygon fill="#bfbfbf" stroke="black" points="288,-19.5 288,-38.5 375,-38.5 375,-19.5 288,-19.5"/>
<text text-anchor="middle" x="331.5" y="-26.5" font-family="Helvetica,sans-Serif" font-size="10.00">write_pretty_line</text>
</a>
</g>
</g>
<!-- Node2 -->
<g id="node2" class="node">
<title>Node2</title>
<g id="a_node2"><a xlink:href="sinex_8cpp.html#a747f37ad26259edf174b9fa6cdf6797d" target="_top" xlink:title=" ">
<polygon fill="white" stroke="black" points="165.5,-38.5 165.5,-57.5 230.5,-57.5 230.5,-38.5 165.5,-38.5"/>
<text text-anchor="middle" x="198" y="-45.5" font-family="Helvetica,sans-Serif" font-size="10.00">write_sinex</text>
</a>
</g>
</g>
<!-- Node1&#45;&gt;Node2 -->
<g id="edge1" class="edge">
<title>Node1&#45;&gt;Node2</title>
<path fill="none" stroke="midnightblue" d="M277.55,-36.65C261.65,-38.95 244.71,-41.4 230.65,-43.43"/>
<polygon fill="midnightblue" stroke="midnightblue" points="278.41,-40.06 287.81,-35.17 277.41,-33.13 278.41,-40.06"/>
</g>
<!-- Node5 -->
<g id="node4" class="node">
<title>Node5</title>
<g id="a_node4"><a xlink:href="tropSinex_8cpp.html#ab59eaf15f25fdbc2cdf51adbadfc9ad3" target="_top" xlink:title="Write troposphere Sinex data to file.">
<polygon fill="white" stroke="black" points="144,-0.5 144,-19.5 252,-19.5 252,-0.5 144,-0.5"/>
<text text-anchor="middle" x="198" y="-7.5" font-family="Helvetica,sans-Serif" font-size="10.00">writeTropSinexToFile</text>
</a>
</g>
</g>
<!-- Node1&#45;&gt;Node5 -->
<g id="edge3" class="edge">
<title>Node1&#45;&gt;Node5</title>
<path fill="none" stroke="midnightblue" d="M277.69,-21.37C269.25,-20.15 260.51,-18.89 252.07,-17.67"/>
<polygon fill="midnightblue" stroke="midnightblue" points="277.41,-24.87 287.81,-22.83 278.41,-17.94 277.41,-24.87"/>
</g>
<!-- Node3 -->
<g id="node3" class="node">
<title>Node3</title>
<g id="a_node3"><a xlink:href="pea__snx_8cpp.html#aa7e3332fc8c5c18f3e9cd8aece87c36c" target="_top" xlink:title=" ">
<polygon fill="white" stroke="red" points="0,-38.5 0,-57.5 108,-57.5 108,-38.5 0,-38.5"/>
<text text-anchor="middle" x="54" y="-45.5" font-family="Helvetica,sans-Serif" font-size="10.00">sinexPostProcessing</text>
</a>
</g>
</g>
<!-- Node2&#45;&gt;Node3 -->
<g id="edge2" class="edge">
<title>Node2&#45;&gt;Node3</title>
<path fill="none" stroke="midnightblue" d="M155.17,-48C140.45,-48 123.71,-48 108.18,-48"/>
<polygon fill="midnightblue" stroke="midnightblue" points="155.49,-51.5 165.49,-48 155.49,-44.5 155.49,-51.5"/>
</g>
<!-- Node6 -->
<g id="node5" class="node">
<title>Node6</title>
<g id="a_node5"><a xlink:href="tropSinex_8cpp.html#a69a4f80dc077e096360a1451c0d28e39" target="_top" xlink:title="Export troposphere Sinex data.">
<polygon fill="white" stroke="red" points="10.5,-0.5 10.5,-19.5 97.5,-19.5 97.5,-0.5 10.5,-0.5"/>
<text text-anchor="middle" x="54" y="-7.5" font-family="Helvetica,sans-Serif" font-size="10.00">outputTropSinex</text>
</a>
</g>
</g>
<!-- Node5&#45;&gt;Node6 -->
<g id="edge4" class="edge">
<title>Node5&#45;&gt;Node6</title>
<path fill="none" stroke="midnightblue" d="M133.67,-10C121.59,-10 109.2,-10 97.94,-10"/>
<polygon fill="midnightblue" stroke="midnightblue" points="133.72,-13.5 143.72,-10 133.72,-6.5 133.72,-13.5"/>
</g>
</g>
</svg>
