<?xml version="1.0" encoding="UTF-8" standalone="no"?>
<!DOCTYPE svg PUBLIC "-//W3C//DTD SVG 1.1//EN"
 "http://www.w3.org/Graphics/SVG/1.1/DTD/svg11.dtd">
<!-- Generated by graphviz version 2.50.0 (20220203.2022)
 -->
<!-- Title: setRestrictiveEndTime Pages: 1 -->
<svg width="389pt" height="85pt"
 viewBox="0.00 0.00 389.00 85.00" xmlns="http://www.w3.org/2000/svg" xmlns:xlink="http://www.w3.org/1999/xlink">
<g id="graph0" class="graph" transform="scale(1 1) rotate(0) translate(4 81)">
<title>setRestrictiveEndTime</title>
<polygon fill="white" stroke="transparent" points="-4,4 -4,-81 385,-81 385,4 -4,4"/>
<!-- Node1 -->
<g id="node1" class="node">
<title>Node1</title>
<g id="a_node1"><a xlink:title=" ">
<polygon fill="#bfbfbf" stroke="black" points="0,-38.5 0,-57.5 115,-57.5 115,-38.5 0,-38.5"/>
<text text-anchor="middle" x="57.5" y="-45.5" font-family="Helvetica,sans-Serif" font-size="10.00">setRestrictiveEndTime</text>
</a>
</g>
</g>
<!-- Node2 -->
<g id="node2" class="node">
<title>Node2</title>
<g id="a_node2"><a xlink:href="sinex_8cpp.html#a5d4b582fbe641b956dec6621e592ac63" target="_top" xlink:title=" ">
<polygon fill="white" stroke="black" points="151,-57.5 151,-76.5 229,-76.5 229,-57.5 151,-57.5"/>
<text text-anchor="middle" x="190" y="-64.5" font-family="Helvetica,sans-Serif" font-size="10.00">time_compare</text>
</a>
</g>
</g>
<!-- Node1&#45;&gt;Node2 -->
<g id="edge1" class="edge">
<title>Node1&#45;&gt;Node2</title>
<path fill="none" stroke="midnightblue" d="M115.36,-56.28C123.76,-57.5 132.35,-58.75 140.57,-59.95"/>
<polygon fill="midnightblue" stroke="midnightblue" points="140.32,-63.45 150.72,-61.43 141.33,-56.52 140.32,-63.45"/>
</g>
<!-- Node3 -->
<g id="node3" class="node">
<title>Node3</title>
<g id="a_node3"><a xlink:href="algebra__old_8cpp.html#a446a2803e5eaeb996733dd8d73966f00" target="_top" xlink:title=" ">
<polygon fill="white" stroke="black" points="170,-19.5 170,-38.5 210,-38.5 210,-19.5 170,-19.5"/>
<text text-anchor="middle" x="190" y="-26.5" font-family="Helvetica,sans-Serif" font-size="10.00">zeros</text>
</a>
</g>
</g>
<!-- Node1&#45;&gt;Node3 -->
<g id="edge2" class="edge">
<title>Node1&#45;&gt;Node3</title>
<path fill="none" stroke="midnightblue" d="M115.36,-39.72C130.6,-37.5 146.46,-35.19 159.54,-33.29"/>
<polygon fill="midnightblue" stroke="midnightblue" points="160.41,-36.7 169.8,-31.8 159.4,-29.77 160.41,-36.7"/>
</g>
<!-- Node4 -->
<g id="node4" class="node">
<title>Node4</title>
<g id="a_node4"><a xlink:href="streamTrace_8cpp.html#a21317feb447406c5be7ca4a27dc3e862" target="_top" xlink:title=" ">
<polygon fill="white" stroke="black" points="334,-19.5 334,-38.5 381,-38.5 381,-19.5 334,-19.5"/>
<text text-anchor="middle" x="357.5" y="-26.5" font-family="Helvetica,sans-Serif" font-size="10.00">fatalerr</text>
</a>
</g>
</g>
<!-- Node3&#45;&gt;Node4 -->
<g id="edge3" class="edge">
<title>Node3&#45;&gt;Node4</title>
<path fill="none" stroke="midnightblue" d="M210.31,-29C238.08,-29 289.69,-29 323.56,-29"/>
<polygon fill="midnightblue" stroke="midnightblue" points="323.89,-32.5 333.89,-29 323.89,-25.5 323.89,-32.5"/>
</g>
<!-- Node5 -->
<g id="node5" class="node">
<title>Node5</title>
<g id="a_node5"><a xlink:href="algebra__old_8cpp.html#a1d2c1ecab5b17dcc773fcd83c0b87b7e" target="_top" xlink:title=" ">
<polygon fill="white" stroke="black" points="265,-0.5 265,-19.5 298,-19.5 298,-0.5 265,-0.5"/>
<text text-anchor="middle" x="281.5" y="-7.5" font-family="Helvetica,sans-Serif" font-size="10.00">mat</text>
</a>
</g>
</g>
<!-- Node3&#45;&gt;Node5 -->
<g id="edge4" class="edge">
<title>Node3&#45;&gt;Node5</title>
<path fill="none" stroke="midnightblue" d="M210.42,-24.88C223.45,-22.11 240.75,-18.44 254.9,-15.44"/>
<polygon fill="midnightblue" stroke="midnightblue" points="255.93,-18.79 264.98,-13.29 254.47,-11.95 255.93,-18.79"/>
</g>
<!-- Node5&#45;&gt;Node4 -->
<g id="edge5" class="edge">
<title>Node5&#45;&gt;Node4</title>
<path fill="none" stroke="midnightblue" d="M298.19,-14.03C305.71,-15.96 315.02,-18.35 323.97,-20.65"/>
<polygon fill="midnightblue" stroke="midnightblue" points="323.25,-24.08 333.81,-23.17 324.99,-17.3 323.25,-24.08"/>
</g>
</g>
</svg>
