<?xml version="1.0" encoding="UTF-8" standalone="no"?>
<!DOCTYPE svg PUBLIC "-//W3C//DTD SVG 1.1//EN"
 "http://www.w3.org/Graphics/SVG/1.1/DTD/svg11.dtd">
<!-- Generated by graphviz version 2.50.0 (20220203.2022)
 -->
<!-- Title: sinex_update_header Pages: 1 -->
<svg width="403pt" height="66pt"
 viewBox="0.00 0.00 403.00 66.00" xmlns="http://www.w3.org/2000/svg" xmlns:xlink="http://www.w3.org/1999/xlink">
<g id="graph0" class="graph" transform="scale(1 1) rotate(0) translate(4 62)">
<title>sinex_update_header</title>
<polygon fill="white" stroke="transparent" points="-4,4 -4,-62 399,-62 399,4 -4,4"/>
<!-- Node1 -->
<g id="node1" class="node">
<title>Node1</title>
<g id="a_node1"><a xlink:title=" ">
<polygon fill="#bfbfbf" stroke="black" points="287,-19.5 287,-38.5 395,-38.5 395,-19.5 287,-19.5"/>
<text text-anchor="middle" x="341" y="-26.5" font-family="Helvetica,sans-Serif" font-size="10.00">sinex_update_header</text>
</a>
</g>
</g>
<!-- Node2 -->
<g id="node2" class="node">
<title>Node2</title>
<g id="a_node2"><a xlink:href="tropSinex_8cpp.html#a8b6e41cc22808aa9045176f6997e1057" target="_top" xlink:title=" ">
<polygon fill="white" stroke="black" points="146.5,-38.5 146.5,-57.5 247.5,-57.5 247.5,-38.5 146.5,-38.5"/>
<text text-anchor="middle" x="197" y="-45.5" font-family="Helvetica,sans-Serif" font-size="10.00">setTropHeaderData</text>
</a>
</g>
</g>
<!-- Node1&#45;&gt;Node2 -->
<g id="edge1" class="edge">
<title>Node1&#45;&gt;Node2</title>
<path fill="none" stroke="midnightblue" d="M276.73,-37.47C267.04,-38.76 257.16,-40.08 247.82,-41.33"/>
<polygon fill="midnightblue" stroke="midnightblue" points="277.27,-40.92 286.72,-36.13 276.34,-33.99 277.27,-40.92"/>
</g>
<!-- Node11 -->
<g id="node4" class="node">
<title>Node11</title>
<g id="a_node4"><a xlink:href="pea__snx_8cpp.html#aa7e3332fc8c5c18f3e9cd8aece87c36c" target="_top" xlink:title=" ">
<polygon fill="white" stroke="black" points="143,-0.5 143,-19.5 251,-19.5 251,-0.5 143,-0.5"/>
<text text-anchor="middle" x="197" y="-7.5" font-family="Helvetica,sans-Serif" font-size="10.00">sinexPostProcessing</text>
</a>
</g>
</g>
<!-- Node1&#45;&gt;Node11 -->
<g id="edge3" class="edge">
<title>Node1&#45;&gt;Node11</title>
<path fill="none" stroke="midnightblue" d="M276.76,-20.54C268.19,-19.39 259.47,-18.23 251.11,-17.11"/>
<polygon fill="midnightblue" stroke="midnightblue" points="276.34,-24.01 286.72,-21.87 277.27,-17.08 276.34,-24.01"/>
</g>
<!-- Node3 -->
<g id="node3" class="node">
<title>Node3</title>
<g id="a_node3"><a xlink:href="tropSinex_8cpp.html#a69a4f80dc077e096360a1451c0d28e39" target="_top" xlink:title="Export troposphere Sinex data.">
<polygon fill="white" stroke="red" points="10,-38.5 10,-57.5 97,-57.5 97,-38.5 10,-38.5"/>
<text text-anchor="middle" x="53.5" y="-45.5" font-family="Helvetica,sans-Serif" font-size="10.00">outputTropSinex</text>
</a>
</g>
</g>
<!-- Node2&#45;&gt;Node3 -->
<g id="edge2" class="edge">
<title>Node2&#45;&gt;Node3</title>
<path fill="none" stroke="midnightblue" d="M135.87,-48C122.93,-48 109.5,-48 97.37,-48"/>
<polygon fill="midnightblue" stroke="midnightblue" points="136.11,-51.5 146.11,-48 136.11,-44.5 136.11,-51.5"/>
</g>
<!-- Node10 -->
<g id="node5" class="node">
<title>Node10</title>
<g id="a_node5"><a xlink:href="main_8cpp.html#a93c49123b4afe8e199430439fd682acd" target="_top" xlink:title=" ">
<polygon fill="white" stroke="black" points="0,-0.5 0,-19.5 107,-19.5 107,-0.5 0,-0.5"/>
<text text-anchor="middle" x="53.5" y="-7.5" font-family="Helvetica,sans-Serif" font-size="10.00">mainPostProcessing</text>
</a>
</g>
</g>
<!-- Node11&#45;&gt;Node10 -->
<g id="edge4" class="edge">
<title>Node11&#45;&gt;Node10</title>
<path fill="none" stroke="midnightblue" d="M132.71,-10C124.26,-10 115.67,-10 107.42,-10"/>
<polygon fill="midnightblue" stroke="midnightblue" points="132.91,-13.5 142.91,-10 132.91,-6.5 132.91,-13.5"/>
</g>
</g>
</svg>
