<?xml version="1.0" encoding="UTF-8" standalone="no"?>
<!DOCTYPE svg PUBLIC "-//W3C//DTD SVG 1.1//EN"
 "http://www.w3.org/Graphics/SVG/1.1/DTD/svg11.dtd">
<!-- Generated by graphviz version 2.50.0 (20220203.2022)
 -->
<!-- Title: write_sinex Pages: 1 -->
<svg width="396pt" height="594pt"
 viewBox="0.00 0.00 396.00 594.00" xmlns="http://www.w3.org/2000/svg" xmlns:xlink="http://www.w3.org/1999/xlink">
<g id="graph0" class="graph" transform="scale(1 1) rotate(0) translate(4 590)">
<title>write_sinex</title>
<polygon fill="white" stroke="transparent" points="-4,4 -4,-590 392,-590 392,4 -4,4"/>
<!-- Node1 -->
<g id="node1" class="node">
<title>Node1</title>
<g id="a_node1"><a xlink:title=" ">
<polygon fill="#bfbfbf" stroke="black" points="0,-300.5 0,-319.5 65,-319.5 65,-300.5 0,-300.5"/>
<text text-anchor="middle" x="32.5" y="-307.5" font-family="Helvetica,sans-Serif" font-size="10.00">write_sinex</text>
</a>
</g>
</g>
<!-- Node2 -->
<g id="node2" class="node">
<title>Node2</title>
<g id="a_node2"><a xlink:href="sinex_8cpp.html#a636859cd3e0a9e3062bf6ad610fb779f" target="_top" xlink:title=" ">
<polygon fill="white" stroke="black" points="123.5,-566.5 123.5,-585.5 225.5,-585.5 225.5,-566.5 123.5,-566.5"/>
<text text-anchor="middle" x="174.5" y="-573.5" font-family="Helvetica,sans-Serif" font-size="10.00">comments_override</text>
</a>
</g>
</g>
<!-- Node1&#45;&gt;Node2 -->
<g id="edge1" class="edge">
<title>Node1&#45;&gt;Node2</title>
<path fill="none" stroke="midnightblue" d="M32.99,-319.7C31.6,-356.44 31.8,-488.52 101,-557 104.78,-560.74 109.19,-563.76 113.95,-566.22"/>
<polygon fill="midnightblue" stroke="midnightblue" points="112.86,-569.56 123.43,-570.25 115.6,-563.11 112.86,-569.56"/>
</g>
<!-- Node3 -->
<g id="node3" class="node">
<title>Node3</title>
<g id="a_node3"><a xlink:href="sinex_8cpp.html#a24958aa87271b24dcab7694d4af3720f" target="_top" xlink:title=" ">
<polygon fill="white" stroke="black" points="131,-528.5 131,-547.5 218,-547.5 218,-528.5 131,-528.5"/>
<text text-anchor="middle" x="174.5" y="-535.5" font-family="Helvetica,sans-Serif" font-size="10.00">write_pretty_line</text>
</a>
</g>
</g>
<!-- Node1&#45;&gt;Node3 -->
<g id="edge2" class="edge">
<title>Node1&#45;&gt;Node3</title>
<path fill="none" stroke="midnightblue" d="M33.55,-319.57C34.24,-352.53 41.15,-462.42 101,-519 106.72,-524.41 113.78,-528.32 121.23,-531.14"/>
<polygon fill="midnightblue" stroke="midnightblue" points="120.22,-534.49 130.81,-534.16 122.32,-527.81 120.22,-534.49"/>
</g>
<!-- Node4 -->
<g id="node4" class="node">
<title>Node4</title>
<g id="a_node4"><a xlink:href="sinex_8cpp.html#a8a8e54c1e55d6668fc13725d1f769a59" target="_top" xlink:title=" ">
<polygon fill="white" stroke="black" points="101,-490.5 101,-509.5 248,-509.5 248,-490.5 101,-490.5"/>
<text text-anchor="middle" x="174.5" y="-497.5" font-family="Helvetica,sans-Serif" font-size="10.00">write_snx_acknowledgements</text>
</a>
</g>
</g>
<!-- Node1&#45;&gt;Node4 -->
<g id="edge3" class="edge">
<title>Node1&#45;&gt;Node4</title>
<path fill="none" stroke="midnightblue" d="M34.35,-319.85C37.43,-349.12 50.62,-436.31 101,-481 102.78,-482.58 104.67,-484.03 106.66,-485.36"/>
<polygon fill="midnightblue" stroke="midnightblue" points="105.42,-488.67 115.86,-490.47 108.82,-482.56 105.42,-488.67"/>
</g>
<!-- Node6 -->
<g id="node6" class="node">
<title>Node6</title>
<g id="a_node6"><a xlink:href="sinex_8cpp.html#a0c4d36ba13234456bf25cedd4ca6c20b" target="_top" xlink:title=" ">
<polygon fill="white" stroke="black" points="123,-262.5 123,-281.5 226,-281.5 226,-262.5 123,-262.5"/>
<text text-anchor="middle" x="174.5" y="-269.5" font-family="Helvetica,sans-Serif" font-size="10.00">write_snx_antennas</text>
</a>
</g>
</g>
<!-- Node1&#45;&gt;Node6 -->
<g id="edge5" class="edge">
<title>Node1&#45;&gt;Node6</title>
<path fill="none" stroke="midnightblue" d="M65.06,-300.99C76.38,-297.79 89.25,-294.19 101,-291 109.3,-288.74 118.15,-286.39 126.72,-284.13"/>
<polygon fill="midnightblue" stroke="midnightblue" points="127.8,-287.46 136.58,-281.54 126.02,-280.69 127.8,-287.46"/>
</g>
<!-- Node8 -->
<g id="node8" class="node">
<title>Node8</title>
<g id="a_node8"><a xlink:href="sinex_8cpp.html#a8e81508919daf3771748f1d99583f7b1" target="_top" xlink:title=" ">
<polygon fill="white" stroke="black" points="117.5,-115 117.5,-145 231.5,-145 231.5,-115 117.5,-115"/>
<text text-anchor="start" x="125.5" y="-133" font-family="Helvetica,sans-Serif" font-size="10.00">write_snx_apriori_from</text>
<text text-anchor="middle" x="174.5" y="-122" font-family="Helvetica,sans-Serif" font-size="10.00">_stations</text>
</a>
</g>
</g>
<!-- Node1&#45;&gt;Node8 -->
<g id="edge8" class="edge">
<title>Node1&#45;&gt;Node8</title>
<path fill="none" stroke="midnightblue" d="M34.89,-300.37C39.3,-273.26 55.5,-195.64 101,-154 103.32,-151.88 105.84,-149.94 108.49,-148.17"/>
<polygon fill="midnightblue" stroke="midnightblue" points="110.41,-151.1 117.35,-143.1 106.94,-145.03 110.41,-151.1"/>
</g>
<!-- Node9 -->
<g id="node9" class="node">
<title>Node9</title>
<g id="a_node9"><a xlink:href="sinex_8cpp.html#adc3dc88fc2e6652490d9f3ce3f0ef861" target="_top" xlink:title=" ">
<polygon fill="white" stroke="black" points="120,-76.5 120,-95.5 229,-95.5 229,-76.5 120,-76.5"/>
<text text-anchor="middle" x="174.5" y="-83.5" font-family="Helvetica,sans-Serif" font-size="10.00">write_snx_comments</text>
</a>
</g>
</g>
<!-- Node1&#45;&gt;Node9 -->
<g id="edge10" class="edge">
<title>Node1&#45;&gt;Node9</title>
<path fill="none" stroke="midnightblue" d="M33.62,-300.16C34.59,-267.27 42.3,-160.18 101,-105 103.96,-102.22 107.27,-99.84 110.8,-97.8"/>
<polygon fill="midnightblue" stroke="midnightblue" points="112.48,-100.87 119.98,-93.38 109.45,-94.56 112.48,-100.87"/>
</g>
<!-- Node10 -->
<g id="node10" class="node">
<title>Node10</title>
<g id="a_node10"><a xlink:href="sinex_8cpp.html#a5ac5f69c01a5faf33ca4cd299ec458e5" target="_top" xlink:title=" ">
<polygon fill="white" stroke="black" points="121.5,-213 121.5,-243 227.5,-243 227.5,-213 121.5,-213"/>
<text text-anchor="start" x="129.5" y="-231" font-family="Helvetica,sans-Serif" font-size="10.00">write_snx_estimates</text>
<text text-anchor="middle" x="174.5" y="-220" font-family="Helvetica,sans-Serif" font-size="10.00">_from_filter</text>
</a>
</g>
</g>
<!-- Node1&#45;&gt;Node10 -->
<g id="edge11" class="edge">
<title>Node1&#45;&gt;Node10</title>
<path fill="none" stroke="midnightblue" d="M42.7,-300.26C54.95,-287.78 77.8,-266.18 101,-253 104.71,-250.89 108.63,-248.92 112.65,-247.08"/>
<polygon fill="midnightblue" stroke="midnightblue" points="114.31,-250.18 122.14,-243.04 111.57,-243.73 114.31,-250.18"/>
</g>
<!-- Node11 -->
<g id="node11" class="node">
<title>Node11</title>
<g id="a_node11"><a xlink:href="sinex_8cpp.html#aea2c8625621b459ad8928d6105688ad9" target="_top" xlink:title=" ">
<polygon fill="white" stroke="black" points="128.5,-38.5 128.5,-57.5 220.5,-57.5 220.5,-38.5 128.5,-38.5"/>
<text text-anchor="middle" x="174.5" y="-45.5" font-family="Helvetica,sans-Serif" font-size="10.00">write_snx_header</text>
</a>
</g>
</g>
<!-- Node1&#45;&gt;Node11 -->
<g id="edge14" class="edge">
<title>Node1&#45;&gt;Node11</title>
<path fill="none" stroke="midnightblue" d="M33.04,-300.46C31.86,-264.29 32.7,-134.31 101,-67 105.98,-62.09 112.07,-58.41 118.57,-55.65"/>
<polygon fill="midnightblue" stroke="midnightblue" points="120.05,-58.84 128.33,-52.23 117.73,-52.23 120.05,-58.84"/>
</g>
<!-- Node12 -->
<g id="node12" class="node">
<title>Node12</title>
<g id="a_node12"><a xlink:href="sinex_8cpp.html#a1c4b9b3a6798a206a32de94a5bd7bac0" target="_top" xlink:title=" ">
<polygon fill="white" stroke="black" points="121,-452.5 121,-471.5 228,-471.5 228,-452.5 121,-452.5"/>
<text text-anchor="middle" x="174.5" y="-459.5" font-family="Helvetica,sans-Serif" font-size="10.00">write_snx_input_files</text>
</a>
</g>
</g>
<!-- Node1&#45;&gt;Node12 -->
<g id="edge15" class="edge">
<title>Node1&#45;&gt;Node12</title>
<path fill="none" stroke="midnightblue" d="M35.55,-319.76C41.25,-344.44 59.68,-409.67 101,-443 104.16,-445.55 107.62,-447.75 111.27,-449.67"/>
<polygon fill="midnightblue" stroke="midnightblue" points="110.09,-452.97 120.65,-453.85 112.94,-446.58 110.09,-452.97"/>
</g>
<!-- Node13 -->
<g id="node13" class="node">
<title>Node13</title>
<g id="a_node13"><a xlink:href="sinex_8cpp.html#a4f10fce58e14cd54d5dacf3b6c0d3199" target="_top" xlink:title=" ">
<polygon fill="white" stroke="black" points="115.5,-414.5 115.5,-433.5 233.5,-433.5 233.5,-414.5 115.5,-414.5"/>
<text text-anchor="middle" x="174.5" y="-421.5" font-family="Helvetica,sans-Serif" font-size="10.00">write_snx_input_history</text>
</a>
</g>
</g>
<!-- Node1&#45;&gt;Node13 -->
<g id="edge17" class="edge">
<title>Node1&#45;&gt;Node13</title>
<path fill="none" stroke="midnightblue" d="M37.64,-319.79C46.37,-339.19 68.54,-382.57 101,-405 103.87,-406.98 106.93,-408.76 110.12,-410.35"/>
<polygon fill="midnightblue" stroke="midnightblue" points="108.8,-413.59 119.36,-414.36 111.58,-407.17 108.8,-413.59"/>
</g>
<!-- Node14 -->
<g id="node14" class="node">
<title>Node14</title>
<g id="a_node14"><a xlink:href="sinex_8cpp.html#abfc552a17b3fc10aa69c8ea9fde1d1be" target="_top" xlink:title=" ">
<polygon fill="white" stroke="black" points="124,-164 124,-194 225,-194 225,-164 124,-164"/>
<text text-anchor="start" x="132" y="-182" font-family="Helvetica,sans-Serif" font-size="10.00">write_snx_matrices</text>
<text text-anchor="middle" x="174.5" y="-171" font-family="Helvetica,sans-Serif" font-size="10.00">_from_filter</text>
</a>
</g>
</g>
<!-- Node1&#45;&gt;Node14 -->
<g id="edge19" class="edge">
<title>Node1&#45;&gt;Node14</title>
<path fill="none" stroke="midnightblue" d="M36.93,-300.45C44.88,-279.65 66.57,-229.93 101,-203 105.14,-199.76 109.73,-196.96 114.54,-194.52"/>
<polygon fill="midnightblue" stroke="midnightblue" points="116.29,-197.57 123.98,-190.28 113.43,-191.18 116.29,-197.57"/>
</g>
<!-- Node15 -->
<g id="node15" class="node">
<title>Node15</title>
<g id="a_node15"><a xlink:href="sinex_8cpp.html#ace311021db68268a6e9ca3cc03afb1df" target="_top" xlink:title=" ">
<polygon fill="white" stroke="black" points="123,-376.5 123,-395.5 226,-395.5 226,-376.5 123,-376.5"/>
<text text-anchor="middle" x="174.5" y="-383.5" font-family="Helvetica,sans-Serif" font-size="10.00">write_snx_receivers</text>
</a>
</g>
</g>
<!-- Node1&#45;&gt;Node15 -->
<g id="edge22" class="edge">
<title>Node1&#45;&gt;Node15</title>
<path fill="none" stroke="midnightblue" d="M42.14,-319.58C54.12,-332.29 77.04,-354.56 101,-367 105.5,-369.34 110.32,-371.4 115.24,-373.23"/>
<polygon fill="midnightblue" stroke="midnightblue" points="114.21,-376.57 124.8,-376.44 116.44,-369.94 114.21,-376.57"/>
</g>
<!-- Node16 -->
<g id="node16" class="node">
<title>Node16</title>
<g id="a_node16"><a xlink:href="sinex_8cpp.html#abb02e510789a0533ee22f501e54efb92" target="_top" xlink:title=" ">
<polygon fill="white" stroke="black" points="122.5,-0.5 122.5,-19.5 226.5,-19.5 226.5,-0.5 122.5,-0.5"/>
<text text-anchor="middle" x="174.5" y="-7.5" font-family="Helvetica,sans-Serif" font-size="10.00">write_snx_reference</text>
</a>
</g>
</g>
<!-- Node1&#45;&gt;Node16 -->
<g id="edge25" class="edge">
<title>Node1&#45;&gt;Node16</title>
<path fill="none" stroke="midnightblue" d="M34.49,-300.41C39.29,-255.83 61.5,-69.32 101,-29 104.46,-25.47 108.49,-22.57 112.85,-20.18"/>
<polygon fill="midnightblue" stroke="midnightblue" points="114.48,-23.29 122.16,-15.99 111.61,-16.9 114.48,-23.29"/>
</g>
<!-- Node17 -->
<g id="node17" class="node">
<title>Node17</title>
<g id="a_node17"><a xlink:href="sinex_8cpp.html#a3454b6082cd186c9fd3ee8654c69ea2a" target="_top" xlink:title=" ">
<polygon fill="white" stroke="black" points="122,-338.5 122,-357.5 227,-357.5 227,-338.5 122,-338.5"/>
<text text-anchor="middle" x="174.5" y="-345.5" font-family="Helvetica,sans-Serif" font-size="10.00">write_snx_site_eccs</text>
</a>
</g>
</g>
<!-- Node1&#45;&gt;Node17 -->
<g id="edge26" class="edge">
<title>Node1&#45;&gt;Node17</title>
<path fill="none" stroke="midnightblue" d="M65.06,-319.01C76.38,-322.21 89.25,-325.81 101,-329 109.3,-331.26 118.15,-333.61 126.72,-335.87"/>
<polygon fill="midnightblue" stroke="midnightblue" points="126.02,-339.31 136.58,-338.46 127.8,-332.54 126.02,-339.31"/>
</g>
<!-- Node18 -->
<g id="node18" class="node">
<title>Node18</title>
<g id="a_node18"><a xlink:href="sinex_8cpp.html#aa58f653aeaa546b0dc1fe6f2238dd003" target="_top" xlink:title=" ">
<polygon fill="white" stroke="black" points="128.5,-300.5 128.5,-319.5 220.5,-319.5 220.5,-300.5 128.5,-300.5"/>
<text text-anchor="middle" x="174.5" y="-307.5" font-family="Helvetica,sans-Serif" font-size="10.00">write_snx_siteids</text>
</a>
</g>
</g>
<!-- Node1&#45;&gt;Node18 -->
<g id="edge29" class="edge">
<title>Node1&#45;&gt;Node18</title>
<path fill="none" stroke="midnightblue" d="M65.27,-310C80.92,-310 100.25,-310 118.22,-310"/>
<polygon fill="midnightblue" stroke="midnightblue" points="118.32,-313.5 128.32,-310 118.32,-306.5 118.32,-313.5"/>
</g>
<!-- Node5 -->
<g id="node5" class="node">
<title>Node5</title>
<g id="a_node5"><a xlink:href="sinex_8cpp.html#a35435dacdc5df53aa3357b64931ae2d6" target="_top" xlink:title=" ">
<polygon fill="white" stroke="black" points="284,-338.5 284,-357.5 388,-357.5 388,-338.5 284,-338.5"/>
<text text-anchor="middle" x="336" y="-345.5" font-family="Helvetica,sans-Serif" font-size="10.00">write_as_comments</text>
</a>
</g>
</g>
<!-- Node4&#45;&gt;Node5 -->
<g id="edge4" class="edge">
<title>Node4&#45;&gt;Node5</title>
<path fill="none" stroke="midnightblue" d="M230.15,-490.42C236.5,-487.96 242.61,-484.88 248,-481 288.89,-451.57 315.7,-396.47 327.73,-367.28"/>
<polygon fill="midnightblue" stroke="midnightblue" points="331.05,-368.38 331.48,-357.8 324.55,-365.81 331.05,-368.38"/>
</g>
<!-- Node6&#45;&gt;Node5 -->
<g id="edge7" class="edge">
<title>Node6&#45;&gt;Node5</title>
<path fill="none" stroke="midnightblue" d="M221.14,-281.55C230.22,-284.12 239.56,-287.25 248,-291 272.59,-301.93 298.03,-319.45 315,-332.18"/>
<polygon fill="midnightblue" stroke="midnightblue" points="312.99,-335.05 323.06,-338.35 317.24,-329.49 312.99,-335.05"/>
</g>
<!-- Node7 -->
<g id="node7" class="node">
<title>Node7</title>
<g id="a_node7"><a xlink:href="streamTrace_8cpp.html#ae00e6addd3bdf3a7fd41a254eb9aec89" target="_top" xlink:title=" ">
<polygon fill="white" stroke="black" points="304,-262.5 304,-281.5 368,-281.5 368,-262.5 304,-262.5"/>
<text text-anchor="middle" x="336" y="-269.5" font-family="Helvetica,sans-Serif" font-size="10.00">tracepdeex</text>
</a>
</g>
</g>
<!-- Node6&#45;&gt;Node7 -->
<g id="edge6" class="edge">
<title>Node6&#45;&gt;Node7</title>
<path fill="none" stroke="midnightblue" d="M226.41,-272C247.99,-272 272.83,-272 293.3,-272"/>
<polygon fill="midnightblue" stroke="midnightblue" points="293.57,-275.5 303.57,-272 293.57,-268.5 293.57,-275.5"/>
</g>
<!-- Node8&#45;&gt;Node7 -->
<g id="edge9" class="edge">
<title>Node8&#45;&gt;Node7</title>
<path fill="none" stroke="midnightblue" d="M231.85,-144.72C237.56,-147.35 243.06,-150.42 248,-154 284.74,-180.65 312.51,-227.43 325.98,-253.36"/>
<polygon fill="midnightblue" stroke="midnightblue" points="322.95,-255.14 330.58,-262.49 329.21,-251.99 322.95,-255.14"/>
</g>
<!-- Node10&#45;&gt;Node5 -->
<g id="edge13" class="edge">
<title>Node10&#45;&gt;Node5</title>
<path fill="none" stroke="midnightblue" d="M227.7,-242.44C234.79,-245.41 241.77,-248.91 248,-253 252.32,-255.84 295.77,-304.12 319.59,-330.73"/>
<polygon fill="midnightblue" stroke="midnightblue" points="317.01,-333.1 326.28,-338.22 322.22,-328.43 317.01,-333.1"/>
</g>
<!-- Node10&#45;&gt;Node7 -->
<g id="edge12" class="edge">
<title>Node10&#45;&gt;Node7</title>
<path fill="none" stroke="midnightblue" d="M227.73,-242.41C249.18,-248.32 273.66,-255.08 293.81,-260.64"/>
<polygon fill="midnightblue" stroke="midnightblue" points="293.05,-264.06 303.62,-263.34 294.91,-257.31 293.05,-264.06"/>
</g>
<!-- Node12&#45;&gt;Node5 -->
<g id="edge16" class="edge">
<title>Node12&#45;&gt;Node5</title>
<path fill="none" stroke="midnightblue" d="M226.92,-452.48C234.28,-450.01 241.54,-446.9 248,-443 280.53,-423.38 308.19,-387.97 323.13,-366.36"/>
<polygon fill="midnightblue" stroke="midnightblue" points="326.23,-368.03 328.9,-357.77 320.41,-364.12 326.23,-368.03"/>
</g>
<!-- Node13&#45;&gt;Node5 -->
<g id="edge18" class="edge">
<title>Node13&#45;&gt;Node5</title>
<path fill="none" stroke="midnightblue" d="M221.14,-414.45C230.22,-411.88 239.56,-408.75 248,-405 272.59,-394.07 298.03,-376.55 315,-363.82"/>
<polygon fill="midnightblue" stroke="midnightblue" points="317.24,-366.51 323.06,-357.65 312.99,-360.95 317.24,-366.51"/>
</g>
<!-- Node14&#45;&gt;Node5 -->
<g id="edge21" class="edge">
<title>Node14&#45;&gt;Node5</title>
<path fill="none" stroke="midnightblue" d="M225.08,-189.02C233.45,-192.4 241.51,-196.94 248,-203 278.89,-231.84 261.59,-255.18 284,-291 293.3,-305.86 306.56,-320.54 317.23,-331.29"/>
<polygon fill="midnightblue" stroke="midnightblue" points="314.86,-333.86 324.45,-338.36 319.76,-328.86 314.86,-333.86"/>
</g>
<!-- Node14&#45;&gt;Node7 -->
<g id="edge20" class="edge">
<title>Node14&#45;&gt;Node7</title>
<path fill="none" stroke="midnightblue" d="M225.23,-192.87C233.04,-195.78 240.88,-199.16 248,-203 274.68,-217.4 301.41,-240.15 318.06,-255.55"/>
<polygon fill="midnightblue" stroke="midnightblue" points="315.71,-258.14 325.38,-262.46 320.51,-253.05 315.71,-258.14"/>
</g>
<!-- Node15&#45;&gt;Node5 -->
<g id="edge24" class="edge">
<title>Node15&#45;&gt;Node5</title>
<path fill="none" stroke="midnightblue" d="M215.75,-376.41C236.8,-371.4 262.76,-365.21 285.07,-359.89"/>
<polygon fill="midnightblue" stroke="midnightblue" points="286.12,-363.24 295.04,-357.52 284.5,-356.43 286.12,-363.24"/>
</g>
<!-- Node15&#45;&gt;Node7 -->
<g id="edge23" class="edge">
<title>Node15&#45;&gt;Node7</title>
<path fill="none" stroke="midnightblue" d="M226.16,-376.73C233.78,-374.22 241.32,-371.03 248,-367 252.43,-364.33 295.83,-315.97 319.61,-289.31"/>
<polygon fill="midnightblue" stroke="midnightblue" points="322.26,-291.6 326.29,-281.8 317.03,-286.94 322.26,-291.6"/>
</g>
<!-- Node17&#45;&gt;Node5 -->
<g id="edge28" class="edge">
<title>Node17&#45;&gt;Node5</title>
<path fill="none" stroke="midnightblue" d="M227.29,-348C241.99,-348 258.15,-348 273.38,-348"/>
<polygon fill="midnightblue" stroke="midnightblue" points="273.75,-351.5 283.75,-348 273.75,-344.5 273.75,-351.5"/>
</g>
<!-- Node17&#45;&gt;Node7 -->
<g id="edge27" class="edge">
<title>Node17&#45;&gt;Node7</title>
<path fill="none" stroke="midnightblue" d="M221.14,-338.45C230.22,-335.88 239.56,-332.75 248,-329 272.59,-318.07 298.03,-300.55 315,-287.82"/>
<polygon fill="midnightblue" stroke="midnightblue" points="317.24,-290.51 323.06,-281.65 312.99,-284.95 317.24,-290.51"/>
</g>
<!-- Node18&#45;&gt;Node5 -->
<g id="edge31" class="edge">
<title>Node18&#45;&gt;Node5</title>
<path fill="none" stroke="midnightblue" d="M215.75,-319.59C236.8,-324.6 262.76,-330.79 285.07,-336.11"/>
<polygon fill="midnightblue" stroke="midnightblue" points="284.5,-339.57 295.04,-338.48 286.12,-332.76 284.5,-339.57"/>
</g>
<!-- Node18&#45;&gt;Node7 -->
<g id="edge30" class="edge">
<title>Node18&#45;&gt;Node7</title>
<path fill="none" stroke="midnightblue" d="M215.75,-300.41C239.65,-294.72 269.89,-287.51 293.93,-281.78"/>
<polygon fill="midnightblue" stroke="midnightblue" points="294.9,-285.15 303.82,-279.43 293.28,-278.34 294.9,-285.15"/>
</g>
</g>
</svg>
