<?xml version="1.0" encoding="UTF-8" standalone="no"?>
<!DOCTYPE svg PUBLIC "-//W3C//DTD SVG 1.1//EN"
 "http://www.w3.org/Graphics/SVG/1.1/DTD/svg11.dtd">
<!-- Generated by graphviz version 2.50.0 (20220203.2022)
 -->
<!-- Title: time_compare Pages: 1 -->
<svg width="499pt" height="128pt"
 viewBox="0.00 0.00 499.00 127.67" xmlns="http://www.w3.org/2000/svg" xmlns:xlink="http://www.w3.org/1999/xlink">
<g id="graph0" class="graph" transform="scale(1 1) rotate(0) translate(4 123.67)">
<title>time_compare</title>
<polygon fill="white" stroke="transparent" points="-4,4 -4,-123.67 495,-123.67 495,4 -4,4"/>
<!-- Node1 -->
<g id="node1" class="node">
<title>Node1</title>
<g id="a_node1"><a xlink:title=" ">
<polygon fill="#bfbfbf" stroke="black" points="413,-43.17 413,-62.17 491,-62.17 491,-43.17 413,-43.17"/>
<text text-anchor="middle" x="452" y="-50.17" font-family="Helvetica,sans-Serif" font-size="10.00">time_compare</text>
</a>
</g>
</g>
<!-- Node2 -->
<g id="node2" class="node">
<title>Node2</title>
<g id="a_node2"><a xlink:href="sinex_8cpp.html#a9ccfee922fdab0a4be97909076017dea" target="_top" xlink:title=" ">
<polygon fill="white" stroke="black" points="292.5,-100.17 292.5,-119.17 346.5,-119.17 346.5,-100.17 292.5,-100.17"/>
<text text-anchor="middle" x="319.5" y="-107.17" font-family="Helvetica,sans-Serif" font-size="10.00">compare</text>
</a>
</g>
</g>
<!-- Node1&#45;&gt;Node2 -->
<g id="edge1" class="edge">
<title>Node1&#45;&gt;Node2</title>
<path fill="none" stroke="midnightblue" d="M424.98,-67.25C411,-74.77 393.32,-83.78 377,-90.67 367.28,-94.78 356.33,-98.63 346.68,-101.78"/>
<polygon fill="midnightblue" stroke="midnightblue" points="426.9,-70.19 434.01,-62.33 423.55,-64.04 426.9,-70.19"/>
</g>
<!-- Node3 -->
<g id="node3" class="node">
<title>Node3</title>
<g id="a_node3"><a xlink:href="sinex_8cpp.html#a74b3213edcd9f9ac9e2d173fd5a97d42" target="_top" xlink:title=" ">
<polygon fill="white" stroke="black" points="272.5,-62.17 272.5,-81.17 366.5,-81.17 366.5,-62.17 272.5,-62.17"/>
<text text-anchor="middle" x="319.5" y="-69.17" font-family="Helvetica,sans-Serif" font-size="10.00">compare_normals</text>
</a>
</g>
</g>
<!-- Node1&#45;&gt;Node3 -->
<g id="edge2" class="edge">
<title>Node1&#45;&gt;Node3</title>
<path fill="none" stroke="midnightblue" d="M402.8,-59.69C391.01,-61.41 378.43,-63.24 366.74,-64.94"/>
<polygon fill="midnightblue" stroke="midnightblue" points="403.51,-63.13 412.9,-58.22 402.5,-56.2 403.51,-63.13"/>
</g>
<!-- Node7 -->
<g id="node5" class="node">
<title>Node7</title>
<g id="a_node5"><a xlink:href="sinex_8cpp.html#a1a490e4f0aad264f47485c1c4ddd4819" target="_top" xlink:title=" ">
<polygon fill="white" stroke="black" points="262,-24.17 262,-43.17 377,-43.17 377,-24.17 262,-24.17"/>
<text text-anchor="middle" x="319.5" y="-31.17" font-family="Helvetica,sans-Serif" font-size="10.00">setRestrictiveEndTime</text>
</a>
</g>
</g>
<!-- Node1&#45;&gt;Node7 -->
<g id="edge4" class="edge">
<title>Node1&#45;&gt;Node7</title>
<path fill="none" stroke="midnightblue" d="M402.97,-45.68C394.62,-44.47 385.87,-43.19 377.32,-41.95"/>
<polygon fill="midnightblue" stroke="midnightblue" points="402.5,-49.15 412.9,-47.13 403.51,-42.22 402.5,-49.15"/>
</g>
<!-- Node9 -->
<g id="node7" class="node">
<title>Node9</title>
<g id="a_node7"><a xlink:href="pea__snx_8cpp.html#aed4746550d7a760c43a7afd5eece42f7" target="_top" xlink:title=" ">
<polygon fill="white" stroke="red" points="0,-5.17 0,-24.17 127,-24.17 127,-5.17 0,-5.17"/>
<text text-anchor="middle" x="63.5" y="-12.17" font-family="Helvetica,sans-Serif" font-size="10.00">sinexPerEpochPerStation</text>
</a>
</g>
</g>
<!-- Node1&#45;&gt;Node9 -->
<g id="edge7" class="edge">
<title>Node1&#45;&gt;Node9</title>
<path fill="none" stroke="midnightblue" d="M428.8,-37.73C414.65,-29.13 395.54,-19.16 377,-14.67 292.36,5.79 191.02,0.59 127.18,-6.13"/>
<polygon fill="midnightblue" stroke="midnightblue" points="427,-40.74 437.33,-43.12 430.74,-34.82 427,-40.74"/>
</g>
<!-- Node4 -->
<g id="node4" class="node">
<title>Node4</title>
<g id="a_node4"><a xlink:href="sinex_8cpp.html#aa7095ca5f93f6529a75020f467ac4f7a" target="_top" xlink:title=" ">
<polygon fill="white" stroke="red" points="163,-62.17 163,-81.17 226,-81.17 226,-62.17 163,-62.17"/>
<text text-anchor="middle" x="194.5" y="-69.17" font-family="Helvetica,sans-Serif" font-size="10.00">read_sinex</text>
</a>
</g>
</g>
<!-- Node3&#45;&gt;Node4 -->
<g id="edge3" class="edge">
<title>Node3&#45;&gt;Node4</title>
<path fill="none" stroke="midnightblue" d="M262.09,-71.67C249.74,-71.67 237.12,-71.67 226.23,-71.67"/>
<polygon fill="midnightblue" stroke="midnightblue" points="262.35,-75.17 272.35,-71.67 262.35,-68.17 262.35,-75.17"/>
</g>
<!-- Node8 -->
<g id="node6" class="node">
<title>Node8</title>
<g id="a_node6"><a xlink:href="sinex_8cpp.html#af6a5f07daf9e8d4806b3d9db1509e4c2" target="_top" xlink:title=" ">
<polygon fill="white" stroke="red" points="165,-24.17 165,-43.17 224,-43.17 224,-24.17 165,-24.17"/>
<text text-anchor="middle" x="194.5" y="-31.17" font-family="Helvetica,sans-Serif" font-size="10.00">getstnsnx</text>
</a>
</g>
</g>
<!-- Node7&#45;&gt;Node8 -->
<g id="edge5" class="edge">
<title>Node7&#45;&gt;Node8</title>
<path fill="none" stroke="midnightblue" d="M251.64,-33.67C242.02,-33.67 232.58,-33.67 224.27,-33.67"/>
<polygon fill="midnightblue" stroke="midnightblue" points="251.68,-37.17 261.68,-33.67 251.68,-30.17 251.68,-37.17"/>
</g>
<!-- Node8&#45;&gt;Node9 -->
<g id="edge6" class="edge">
<title>Node8&#45;&gt;Node9</title>
<path fill="none" stroke="midnightblue" d="M154.96,-28C146.17,-26.7 136.62,-25.3 127.11,-23.9"/>
<polygon fill="midnightblue" stroke="midnightblue" points="154.47,-31.46 164.87,-29.46 155.49,-24.54 154.47,-31.46"/>
</g>
</g>
</svg>
