<?xml version="1.0" encoding="UTF-8" standalone="no"?>
<!DOCTYPE svg PUBLIC "-//W3C//DTD SVG 1.1//EN"
 "http://www.w3.org/Graphics/SVG/1.1/DTD/svg11.dtd">
<!-- Generated by graphviz version 2.50.0 (20220203.2022)
 -->
<!-- Title: outputTropSinex Pages: 1 -->
<!--zoomable 800 -->
<svg id="main" version="1.1" xmlns="http://www.w3.org/2000/svg" xmlns:xlink="http://www.w3.org/1999/xlink" xml:space="preserve" onload="init(evt)">
<style type="text/css"><![CDATA[
.edge:hover path { stroke: red; }
.edge:hover polygon { stroke: red; fill: red; }
]]></style>
<script type="text/javascript"><![CDATA[
var edges = document.getElementsByTagName('g');
if (edges && edges.length) {
  for (var i=0;i<edges.length;i++) {
    if (edges[i].id.substr(0,4)=='edge') {
      edges[i].setAttribute('class','edge');
    }
  }
}
]]></script>
        <defs>
                <circle id="rim" cx="0" cy="0" r="7"/>
                <circle id="rim2" cx="0" cy="0" r="3.5"/>
                <g id="zoomPlus">
                        <use xlink:href="#rim" fill="#404040">
                                <set attributeName="fill" to="#808080" begin="zoomplus.mouseover" end="zoomplus.mouseout"/>
                        </use>
                        <path d="M-4,0h8M0,-4v8" fill="none" stroke="white" stroke-width="1.5" pointer-events="none"/>
                </g>
                <g id="zoomMin">
                        <use xlink:href="#rim" fill="#404040">
                                <set attributeName="fill" to="#808080" begin="zoomminus.mouseover" end="zoomminus.mouseout"/>
                        </use>
                        <path d="M-4,0h8" fill="none" stroke="white" stroke-width="1.5" pointer-events="none"/>
                </g>
                <g id="dirArrow">
                        <path fill="none" stroke="white" stroke-width="1.5" d="M0,-3.0v7 M-2.5,-0.5L0,-3.0L2.5,-0.5"/>
                </g>
               <g id="resetDef">
                       <use xlink:href="#rim2" fill="#404040">
                               <set attributeName="fill" to="#808080" begin="reset.mouseover" end="reset.mouseout"/>
                       </use>
               </g>
        </defs>

<script type="text/javascript">
var viewWidth = 581;
var viewHeight = 800;
var sectionId = 'dynsection-3';
</script>
<script xlink:href="svgpan.js"/>
<svg id="graph" class="graph">
<g id="viewport">
<title>outputTropSinex</title>
<polygon fill="white" stroke="transparent" points="-4,4 -4,-796 577,-796 577,4 -4,4"/>
<!-- Node1 -->
<g id="node1" class="node">
<title>Node1</title>
<g id="a_node1"><a xlink:title="Export troposphere Sinex data.">
<polygon fill="#bfbfbf" stroke="black" points="0,-614.5 0,-633.5 87,-633.5 87,-614.5 0,-614.5"/>
<text text-anchor="middle" x="43.5" y="-621.5" font-family="Helvetica,sans-Serif" font-size="10.00">outputTropSinex</text>
</a>
</g>
</g>
<!-- Node2 -->
<g id="node2" class="node">
<title>Node2</title>
<g id="a_node2"><a xlink:href="acsConfig_8cpp.html#a75a34dc41e76a8680e3aa6d62ff4c800" target="_top" xlink:title="Replace macros for times with numeric values.">
<polygon fill="white" stroke="black" points="156.5,-769.5 156.5,-788.5 231.5,-788.5 231.5,-769.5 156.5,-769.5"/>
<text text-anchor="middle" x="194" y="-776.5" font-family="Helvetica,sans-Serif" font-size="10.00">replaceTimes</text>
</a>
</g>
</g>
<!-- Node1&#45;&gt;Node2 -->
<g id="edge1" class="edge">
<title>Node1&#45;&gt;Node2</title>
<path fill="none" stroke="midnightblue" d="M47.48,-633.66C55.51,-658.1 79.95,-722.82 123,-757 129.96,-762.53 138.32,-766.67 146.81,-769.78"/>
<polygon fill="midnightblue" stroke="midnightblue" points="145.78,-773.13 156.37,-772.87 147.93,-766.47 145.78,-773.13"/>
</g>
<!-- Node4 -->
<g id="node4" class="node">
<title>Node4</title>
<g id="a_node4"><a xlink:href="tropSinex_8cpp.html#a2b411879ffbf816c3fac1aac04f9e2c5" target="_top" xlink:title=" ">
<polygon fill="white" stroke="black" points="153.5,-728.5 153.5,-747.5 234.5,-747.5 234.5,-728.5 153.5,-728.5"/>
<text text-anchor="middle" x="194" y="-735.5" font-family="Helvetica,sans-Serif" font-size="10.00">setFileRefData</text>
</a>
</g>
</g>
<!-- Node1&#45;&gt;Node4 -->
<g id="edge3" class="edge">
<title>Node1&#45;&gt;Node4</title>
<path fill="none" stroke="midnightblue" d="M49.77,-633.76C60.74,-653.11 87.93,-696.39 123,-719 129.26,-723.03 136.36,-726.22 143.58,-728.73"/>
<polygon fill="midnightblue" stroke="midnightblue" points="142.85,-732.17 153.43,-731.75 144.9,-725.47 142.85,-732.17"/>
</g>
<!-- Node6 -->
<g id="node6" class="node">
<title>Node6</title>
<g id="a_node6"><a xlink:href="tropSinex_8cpp.html#ac3ac2e24c9eaa98dcd7252e3106626cb" target="_top" xlink:title="Set marker name for file header.">
<polygon fill="white" stroke="black" points="139,-690.5 139,-709.5 249,-709.5 249,-690.5 139,-690.5"/>
<text text-anchor="middle" x="194" y="-697.5" font-family="Helvetica,sans-Serif" font-size="10.00">setSinexMarkerName</text>
</a>
</g>
</g>
<!-- Node1&#45;&gt;Node6 -->
<g id="edge5" class="edge">
<title>Node1&#45;&gt;Node6</title>
<path fill="none" stroke="midnightblue" d="M55.12,-633.69C69.49,-646.31 96.42,-668.27 123,-681 127.9,-683.35 133.13,-685.44 138.45,-687.3"/>
<polygon fill="midnightblue" stroke="midnightblue" points="137.47,-690.66 148.06,-690.4 139.62,-684 137.47,-690.66"/>
</g>
<!-- Node7 -->
<g id="node7" class="node">
<title>Node7</title>
<g id="a_node7"><a xlink:href="tropSinex_8cpp.html#a95b1f2181cb3285e229337473ca2948c" target="_top" xlink:title="Set data for trop description block.">
<polygon fill="white" stroke="black" points="158,-652.5 158,-671.5 230,-671.5 230,-652.5 158,-652.5"/>
<text text-anchor="middle" x="194" y="-659.5" font-family="Helvetica,sans-Serif" font-size="10.00">setTropDesc</text>
</a>
</g>
</g>
<!-- Node1&#45;&gt;Node7 -->
<g id="edge6" class="edge">
<title>Node1&#45;&gt;Node7</title>
<path fill="none" stroke="midnightblue" d="M81.97,-633.59C102.07,-638.73 126.99,-645.11 148.12,-650.51"/>
<polygon fill="midnightblue" stroke="midnightblue" points="147.28,-653.91 157.84,-653 149.02,-647.13 147.28,-653.91"/>
</g>
<!-- Node8 -->
<g id="node8" class="node">
<title>Node8</title>
<g id="a_node8"><a xlink:href="tropSinex_8cpp.html#a8b6e41cc22808aa9045176f6997e1057" target="_top" xlink:title=" ">
<polygon fill="white" stroke="black" points="143.5,-614.5 143.5,-633.5 244.5,-633.5 244.5,-614.5 143.5,-614.5"/>
<text text-anchor="middle" x="194" y="-621.5" font-family="Helvetica,sans-Serif" font-size="10.00">setTropHeaderData</text>
</a>
</g>
</g>
<!-- Node1&#45;&gt;Node8 -->
<g id="edge7" class="edge">
<title>Node1&#45;&gt;Node8</title>
<path fill="none" stroke="midnightblue" d="M87.05,-624C101.47,-624 117.84,-624 133.33,-624"/>
<polygon fill="midnightblue" stroke="midnightblue" points="133.36,-627.5 143.36,-624 133.36,-620.5 133.36,-627.5"/>
</g>
<!-- Node12 -->
<g id="node12" class="node">
<title>Node12</title>
<g id="a_node12"><a xlink:href="tropSinex_8cpp.html#a4a0e58dc579e8bf6d843084b2218b06d" target="_top" xlink:title="Set antenna calibration model data for SITE/ANTENNA block.">
<polygon fill="white" stroke="black" points="126.5,-565 126.5,-595 261.5,-595 261.5,-565 126.5,-565"/>
<text text-anchor="start" x="134.5" y="-583" font-family="Helvetica,sans-Serif" font-size="10.00">setTropSiteAntCalibModels</text>
<text text-anchor="middle" x="194" y="-572" font-family="Helvetica,sans-Serif" font-size="10.00">FromNav</text>
</a>
</g>
</g>
<!-- Node1&#45;&gt;Node12 -->
<g id="edge11" class="edge">
<title>Node1&#45;&gt;Node12</title>
<path fill="none" stroke="midnightblue" d="M76.72,-614.45C92.99,-609.63 113.28,-603.62 132.33,-597.98"/>
<polygon fill="midnightblue" stroke="midnightblue" points="133.56,-601.26 142.15,-595.07 131.57,-594.55 133.56,-601.26"/>
</g>
<!-- Node14 -->
<g id="node14" class="node">
<title>Node14</title>
<g id="a_node14"><a xlink:href="tropSinex_8cpp.html#a8e80887facc71dc237f9d45741a16122" target="_top" xlink:title="Set site coordinates from filter.">
<polygon fill="white" stroke="black" points="123,-526.5 123,-545.5 265,-545.5 265,-526.5 123,-526.5"/>
<text text-anchor="middle" x="194" y="-533.5" font-family="Helvetica,sans-Serif" font-size="10.00">setTropSiteCoordsFromFilter</text>
</a>
</g>
</g>
<!-- Node1&#45;&gt;Node14 -->
<g id="edge13" class="edge">
<title>Node1&#45;&gt;Node14</title>
<path fill="none" stroke="midnightblue" d="M53.15,-614.15C66.64,-599.4 94.14,-571.62 123,-556 127.93,-553.33 133.26,-550.99 138.69,-548.93"/>
<polygon fill="midnightblue" stroke="midnightblue" points="140.21,-552.11 148.53,-545.55 137.94,-545.49 140.21,-552.11"/>
</g>
<!-- Node17 -->
<g id="node17" class="node">
<title>Node17</title>
<g id="a_node17"><a xlink:href="tropSinex_8cpp.html#a4a465038c77f0160662676189ddd43f3" target="_top" xlink:title="Set troposphere solution data.">
<polygon fill="white" stroke="black" points="159.5,-456.5 159.5,-475.5 228.5,-475.5 228.5,-456.5 159.5,-456.5"/>
<text text-anchor="middle" x="194" y="-463.5" font-family="Helvetica,sans-Serif" font-size="10.00">setTropSols</text>
</a>
</g>
</g>
<!-- Node1&#45;&gt;Node17 -->
<g id="edge16" class="edge">
<title>Node1&#45;&gt;Node17</title>
<path fill="none" stroke="midnightblue" d="M50.14,-614.38C61.99,-594.66 91.02,-548.88 123,-517 136.72,-503.33 154.35,-490.51 168.48,-481.14"/>
<polygon fill="midnightblue" stroke="midnightblue" points="170.7,-483.87 177.19,-475.51 166.89,-478 170.7,-483.87"/>
</g>
<!-- Node23 -->
<g id="node20" class="node">
<title>Node23</title>
<g id="a_node20"><a xlink:href="tropSinex_8cpp.html#ab59eaf15f25fdbc2cdf51adbadfc9ad3" target="_top" xlink:title="Write troposphere Sinex data to file.">
<polygon fill="white" stroke="black" points="140,-209.5 140,-228.5 248,-228.5 248,-209.5 140,-209.5"/>
<text text-anchor="middle" x="194" y="-216.5" font-family="Helvetica,sans-Serif" font-size="10.00">writeTropSinexToFile</text>
</a>
</g>
</g>
<!-- Node1&#45;&gt;Node23 -->
<g id="edge20" class="edge">
<title>Node1&#45;&gt;Node23</title>
<path fill="none" stroke="midnightblue" d="M48.02,-614.39C67.24,-561.98 159.49,-310.4 185.91,-238.33"/>
<polygon fill="midnightblue" stroke="midnightblue" points="189.29,-239.3 189.44,-228.7 182.71,-236.89 189.29,-239.3"/>
</g>
<!-- Node3 -->
<g id="node3" class="node">
<title>Node3</title>
<g id="a_node3"><a xlink:href="acsConfig_8cpp.html#a4384ae3d8da08f4e8562857e46291559" target="_top" xlink:title="search for and replace section of string">
<polygon fill="white" stroke="black" points="328,-772.5 328,-791.5 402,-791.5 402,-772.5 328,-772.5"/>
<text text-anchor="middle" x="365" y="-779.5" font-family="Helvetica,sans-Serif" font-size="10.00">replaceString</text>
</a>
</g>
</g>
<!-- Node2&#45;&gt;Node3 -->
<g id="edge2" class="edge">
<title>Node2&#45;&gt;Node3</title>
<path fill="none" stroke="midnightblue" d="M231.67,-779.65C256.98,-780.1 290.82,-780.7 317.95,-781.18"/>
<polygon fill="midnightblue" stroke="midnightblue" points="317.92,-784.68 327.98,-781.36 318.05,-777.68 317.92,-784.68"/>
</g>
<!-- Node5 -->
<g id="node5" class="node">
<title>Node5</title>
<g id="a_node5"><a xlink:href="sinex_8cpp.html#a32c742a3442654bb9d17958a0bd32621" target="_top" xlink:title=" ">
<polygon fill="white" stroke="black" points="311.5,-723 311.5,-753 418.5,-753 418.5,-723 311.5,-723"/>
<text text-anchor="start" x="319.5" y="-741" font-family="Helvetica,sans-Serif" font-size="10.00">sinex_check_add_ga</text>
<text text-anchor="middle" x="365" y="-730" font-family="Helvetica,sans-Serif" font-size="10.00">_reference</text>
</a>
</g>
</g>
<!-- Node4&#45;&gt;Node5 -->
<g id="edge4" class="edge">
<title>Node4&#45;&gt;Node5</title>
<path fill="none" stroke="midnightblue" d="M234.62,-738C254.42,-738 278.85,-738 301.12,-738"/>
<polygon fill="midnightblue" stroke="midnightblue" points="301.18,-741.5 311.18,-738 301.18,-734.5 301.18,-741.5"/>
</g>
<!-- Node9 -->
<g id="node9" class="node">
<title>Node9</title>
<g id="a_node9"><a xlink:href="gTime_8cpp.html#a42a98c9bc4ba5249c22e031840d672e0" target="_top" xlink:title=" ">
<polygon fill="white" stroke="black" points="333.5,-684.5 333.5,-703.5 396.5,-703.5 396.5,-684.5 333.5,-684.5"/>
<text text-anchor="middle" x="365" y="-691.5" font-family="Helvetica,sans-Serif" font-size="10.00">epoch2yds</text>
</a>
</g>
</g>
<!-- Node8&#45;&gt;Node9 -->
<g id="edge8" class="edge">
<title>Node8&#45;&gt;Node9</title>
<path fill="none" stroke="midnightblue" d="M242.1,-633.56C249.99,-636.06 257.91,-639.17 265,-643 283.83,-653.19 282.31,-664.55 301,-675 308.01,-678.92 315.92,-682.12 323.71,-684.7"/>
<polygon fill="midnightblue" stroke="midnightblue" points="322.85,-688.1 333.44,-687.64 324.88,-681.4 322.85,-688.1"/>
</g>
<!-- Node10 -->
<g id="node10" class="node">
<title>Node10</title>
<g id="a_node10"><a xlink:href="sinex_8cpp.html#a3a182eb82bc3e7885feba85677baea2b" target="_top" xlink:title=" ">
<polygon fill="white" stroke="black" points="311,-646.5 311,-665.5 419,-665.5 419,-646.5 311,-646.5"/>
<text text-anchor="middle" x="365" y="-653.5" font-family="Helvetica,sans-Serif" font-size="10.00">sinex_update_header</text>
</a>
</g>
</g>
<!-- Node8&#45;&gt;Node10 -->
<g id="edge9" class="edge">
<title>Node8&#45;&gt;Node10</title>
<path fill="none" stroke="midnightblue" d="M244.79,-633.43C263.28,-636.93 284.45,-640.94 303.78,-644.6"/>
<polygon fill="midnightblue" stroke="midnightblue" points="303.21,-648.05 313.69,-646.47 304.51,-641.17 303.21,-648.05"/>
</g>
<!-- Node11 -->
<g id="node11" class="node">
<title>Node11</title>
<g id="a_node11"><a xlink:href="gTime_8cpp.html#a7a747c44ca37f2ebe379fc4309d3cfba" target="_top" xlink:title=" ">
<polygon fill="white" stroke="black" points="331.5,-608.5 331.5,-627.5 398.5,-627.5 398.5,-608.5 331.5,-608.5"/>
<text text-anchor="middle" x="365" y="-615.5" font-family="Helvetica,sans-Serif" font-size="10.00">time2epoch</text>
</a>
</g>
</g>
<!-- Node8&#45;&gt;Node11 -->
<g id="edge10" class="edge">
<title>Node8&#45;&gt;Node11</title>
<path fill="none" stroke="midnightblue" d="M244.79,-622.23C269.02,-621.37 297.87,-620.35 321.11,-619.52"/>
<polygon fill="midnightblue" stroke="midnightblue" points="321.49,-623.01 331.36,-619.16 321.24,-616.02 321.49,-623.01"/>
</g>
<!-- Node13 -->
<g id="node13" class="node">
<title>Node13</title>
<g id="a_node13"><a xlink:href="antenna_8cpp.html#a034836f3266a59abe9199c55e50dbe8b" target="_top" xlink:title=" ">
<polygon fill="white" stroke="black" points="331,-570.5 331,-589.5 399,-589.5 399,-570.5 331,-570.5"/>
<text text-anchor="middle" x="365" y="-577.5" font-family="Helvetica,sans-Serif" font-size="10.00">findAntenna</text>
</a>
</g>
</g>
<!-- Node12&#45;&gt;Node13 -->
<g id="edge12" class="edge">
<title>Node12&#45;&gt;Node13</title>
<path fill="none" stroke="midnightblue" d="M261.79,-580C281.54,-580 302.63,-580 320.5,-580"/>
<polygon fill="midnightblue" stroke="midnightblue" points="320.61,-583.5 330.61,-580 320.61,-576.5 320.61,-583.5"/>
</g>
<!-- Node15 -->
<g id="node15" class="node">
<title>Node15</title>
<g id="a_node15"><a xlink:href="structKFState.html#a84691f6bbbe3cdccaa14722995a61e1b" target="_top" xlink:title="Returns the value and variance of a state within the kalman filter object.">
<polygon fill="white" stroke="black" points="465,-475.5 465,-494.5 573,-494.5 573,-475.5 465,-475.5"/>
<text text-anchor="middle" x="519" y="-482.5" font-family="Helvetica,sans-Serif" font-size="10.00">KFState::getKFValue</text>
</a>
</g>
</g>
<!-- Node14&#45;&gt;Node15 -->
<g id="edge14" class="edge">
<title>Node14&#45;&gt;Node15</title>
<path fill="none" stroke="midnightblue" d="M265.01,-538.41C311.98,-538.49 374.92,-535.64 429,-523 450.95,-517.87 474.33,-507.68 491.62,-499.15"/>
<polygon fill="midnightblue" stroke="midnightblue" points="493.22,-502.26 500.55,-494.61 490.05,-496.02 493.22,-502.26"/>
</g>
<!-- Node16 -->
<g id="node16" class="node">
<title>Node16</title>
<g id="a_node16"><a xlink:href="algebra_8cpp.html#a875aaa79fee3ea86808271f92784a3ad" target="_top" xlink:title=" ">
<polygon fill="white" stroke="black" points="329.5,-494.5 329.5,-513.5 400.5,-513.5 400.5,-494.5 329.5,-494.5"/>
<text text-anchor="middle" x="365" y="-501.5" font-family="Helvetica,sans-Serif" font-size="10.00">mergeFilters</text>
</a>
</g>
</g>
<!-- Node14&#45;&gt;Node16 -->
<g id="edge15" class="edge">
<title>Node14&#45;&gt;Node16</title>
<path fill="none" stroke="midnightblue" d="M245.25,-526.49C268.79,-522.03 296.6,-516.76 319.39,-512.45"/>
<polygon fill="midnightblue" stroke="midnightblue" points="320.3,-515.84 329.47,-510.54 318.99,-508.96 320.3,-515.84"/>
</g>
<!-- Node18 -->
<g id="node18" class="node">
<title>Node18</title>
<g id="a_node18"><a xlink:href="tropSinex_8cpp.html#a01609b567cee9fc597731f8a38b66e1c" target="_top" xlink:title="Set troposphere solution header comment.">
<polygon fill="white" stroke="black" points="304,-456.5 304,-475.5 426,-475.5 426,-456.5 304,-456.5"/>
<text text-anchor="middle" x="365" y="-463.5" font-family="Helvetica,sans-Serif" font-size="10.00">setTropSolCommentList</text>
</a>
</g>
</g>
<!-- Node17&#45;&gt;Node18 -->
<g id="edge17" class="edge">
<title>Node17&#45;&gt;Node18</title>
<path fill="none" stroke="midnightblue" d="M228.79,-466C247.42,-466 271.27,-466 293.73,-466"/>
<polygon fill="midnightblue" stroke="midnightblue" points="293.93,-469.5 303.93,-466 293.93,-462.5 293.93,-469.5"/>
</g>
<!-- Node19 -->
<g id="node19" class="node">
<title>Node19</title>
<g id="a_node19"><a xlink:href="tropSinex_8cpp.html#a46c251b82049d97d17fe992587395761" target="_top" xlink:title="Set troposphere solution data from filter.">
<polygon fill="white" stroke="red" points="308.5,-418.5 308.5,-437.5 421.5,-437.5 421.5,-418.5 308.5,-418.5"/>
<text text-anchor="middle" x="365" y="-425.5" font-family="Helvetica,sans-Serif" font-size="10.00">setTropSolsFromFilter</text>
</a>
</g>
</g>
<!-- Node17&#45;&gt;Node19 -->
<g id="edge18" class="edge">
<title>Node17&#45;&gt;Node19</title>
<path fill="none" stroke="midnightblue" d="M228.79,-458.4C252.45,-453.08 284.53,-445.87 311.5,-439.8"/>
<polygon fill="midnightblue" stroke="midnightblue" points="312.57,-443.15 321.56,-437.54 311.04,-436.32 312.57,-443.15"/>
</g>
<!-- Node19&#45;&gt;Node15 -->
<g id="edge19" class="edge">
<title>Node19&#45;&gt;Node15</title>
<path fill="none" stroke="midnightblue" d="M400.23,-437.57C409.62,-440.4 419.76,-443.65 429,-447 448.93,-454.24 470.85,-463.58 487.94,-471.18"/>
<polygon fill="midnightblue" stroke="midnightblue" points="486.84,-474.53 497.4,-475.43 489.71,-468.14 486.84,-474.53"/>
</g>
<!-- Node24 -->
<g id="node21" class="node">
<title>Node24</title>
<g id="a_node21"><a xlink:href="tropSinex_8cpp.html#a0237934de88e2b0e9ce83aaf4ea522f3" target="_top" xlink:title="Reset comments to their default values.">
<polygon fill="white" stroke="black" points="301,-380.5 301,-399.5 429,-399.5 429,-380.5 301,-380.5"/>
<text text-anchor="middle" x="365" y="-387.5" font-family="Helvetica,sans-Serif" font-size="10.00">resetCommentsToDefault</text>
</a>
</g>
</g>
<!-- Node23&#45;&gt;Node24 -->
<g id="edge21" class="edge">
<title>Node23&#45;&gt;Node24</title>
<path fill="none" stroke="midnightblue" d="M199.07,-228.88C210.71,-255.93 246.83,-331.72 301,-371 303.68,-372.94 306.56,-374.69 309.57,-376.26"/>
<polygon fill="midnightblue" stroke="midnightblue" points="308.31,-379.54 318.86,-380.46 311.19,-373.16 308.31,-379.54"/>
</g>
<!-- Node25 -->
<g id="node22" class="node">
<title>Node25</title>
<g id="a_node22"><a xlink:href="sinex_8cpp.html#a24958aa87271b24dcab7694d4af3720f" target="_top" xlink:title=" ">
<polygon fill="white" stroke="black" points="321.5,-342.5 321.5,-361.5 408.5,-361.5 408.5,-342.5 321.5,-342.5"/>
<text text-anchor="middle" x="365" y="-349.5" font-family="Helvetica,sans-Serif" font-size="10.00">write_pretty_line</text>
</a>
</g>
</g>
<!-- Node23&#45;&gt;Node25 -->
<g id="edge22" class="edge">
<title>Node23&#45;&gt;Node25</title>
<path fill="none" stroke="midnightblue" d="M201.19,-228.55C215.85,-250.38 254.9,-304.27 301,-333 304.39,-335.11 308.04,-337.01 311.8,-338.7"/>
<polygon fill="midnightblue" stroke="midnightblue" points="310.73,-342.04 321.31,-342.49 313.32,-335.54 310.73,-342.04"/>
</g>
<!-- Node26 -->
<g id="node23" class="node">
<title>Node26</title>
<g id="a_node23"><a xlink:href="sinex_8cpp.html#abb02e510789a0533ee22f501e54efb92" target="_top" xlink:title=" ">
<polygon fill="white" stroke="black" points="313,-304.5 313,-323.5 417,-323.5 417,-304.5 313,-304.5"/>
<text text-anchor="middle" x="365" y="-311.5" font-family="Helvetica,sans-Serif" font-size="10.00">write_snx_reference</text>
</a>
</g>
</g>
<!-- Node23&#45;&gt;Node26 -->
<g id="edge23" class="edge">
<title>Node23&#45;&gt;Node26</title>
<path fill="none" stroke="midnightblue" d="M205.67,-228.51C223.96,-244.37 263.01,-276.3 301,-295 305.56,-297.24 310.44,-299.28 315.38,-301.12"/>
<polygon fill="midnightblue" stroke="midnightblue" points="314.32,-304.45 324.92,-304.4 316.6,-297.84 314.32,-304.45"/>
</g>
<!-- Node27 -->
<g id="node24" class="node">
<title>Node27</title>
<g id="a_node24"><a xlink:href="tropSinex_8cpp.html#a7aa042e01fa4d0739861d7a8e251b5a3" target="_top" xlink:title="Write TROP/DESCRIPTION block.">
<polygon fill="white" stroke="red" points="325,-266.5 325,-285.5 405,-285.5 405,-266.5 325,-266.5"/>
<text text-anchor="middle" x="365" y="-273.5" font-family="Helvetica,sans-Serif" font-size="10.00">writeTropDesc</text>
</a>
</g>
</g>
<!-- Node23&#45;&gt;Node27 -->
<g id="edge24" class="edge">
<title>Node23&#45;&gt;Node27</title>
<path fill="none" stroke="midnightblue" d="M220.58,-228.58C241.97,-236.5 273.34,-247.88 301,-257 307.56,-259.16 314.54,-261.37 321.37,-263.47"/>
<polygon fill="midnightblue" stroke="midnightblue" points="320.62,-266.9 331.2,-266.46 322.65,-260.2 320.62,-266.9"/>
</g>
<!-- Node30 -->
<g id="node25" class="node">
<title>Node30</title>
<g id="a_node25"><a xlink:href="tropSinex_8cpp.html#a05c9b0fc26ae1defbde4d314304f56b2" target="_top" xlink:title="Write out trop sinex file header.">
<polygon fill="white" stroke="red" points="320.5,-228.5 320.5,-247.5 409.5,-247.5 409.5,-228.5 320.5,-228.5"/>
<text text-anchor="middle" x="365" y="-235.5" font-family="Helvetica,sans-Serif" font-size="10.00">writeTropHeader</text>
</a>
</g>
</g>
<!-- Node23&#45;&gt;Node30 -->
<g id="edge25" class="edge">
<title>Node23&#45;&gt;Node30</title>
<path fill="none" stroke="midnightblue" d="M248.01,-224.96C267.79,-227.18 290.26,-229.71 310.12,-231.94"/>
<polygon fill="midnightblue" stroke="midnightblue" points="309.92,-235.44 320.24,-233.08 310.7,-228.49 309.92,-235.44"/>
</g>
<!-- Node31 -->
<g id="node26" class="node">
<title>Node31</title>
<g id="a_node26"><a xlink:href="tropSinex_8cpp.html#a95b499a6b4b43baed944d21264eb49e4" target="_top" xlink:title="Write SITE/ANTENNA block.">
<polygon fill="white" stroke="red" points="320.5,-190.5 320.5,-209.5 409.5,-209.5 409.5,-190.5 320.5,-190.5"/>
<text text-anchor="middle" x="365" y="-197.5" font-family="Helvetica,sans-Serif" font-size="10.00">writeTropSiteAnt</text>
</a>
</g>
</g>
<!-- Node23&#45;&gt;Node31 -->
<g id="edge26" class="edge">
<title>Node23&#45;&gt;Node31</title>
<path fill="none" stroke="midnightblue" d="M248.01,-213.04C267.79,-210.82 290.26,-208.29 310.12,-206.06"/>
<polygon fill="midnightblue" stroke="midnightblue" points="310.7,-209.51 320.24,-204.92 309.92,-202.56 310.7,-209.51"/>
</g>
<!-- Node32 -->
<g id="node27" class="node">
<title>Node32</title>
<g id="a_node27"><a xlink:href="tropSinex_8cpp.html#a124674fc9fc84e524c55903dd04b4f10" target="_top" xlink:title="Write SITE/COORDINATES block.">
<polygon fill="white" stroke="red" points="315,-152.5 315,-171.5 415,-171.5 415,-152.5 315,-152.5"/>
<text text-anchor="middle" x="365" y="-159.5" font-family="Helvetica,sans-Serif" font-size="10.00">writeTropSiteCoord</text>
</a>
</g>
</g>
<!-- Node23&#45;&gt;Node32 -->
<g id="edge27" class="edge">
<title>Node23&#45;&gt;Node32</title>
<path fill="none" stroke="midnightblue" d="M220.58,-209.42C241.97,-201.5 273.34,-190.12 301,-181 307.56,-178.84 314.54,-176.63 321.37,-174.53"/>
<polygon fill="midnightblue" stroke="midnightblue" points="322.65,-177.8 331.2,-171.54 320.62,-171.1 322.65,-177.8"/>
</g>
<!-- Node33 -->
<g id="node28" class="node">
<title>Node33</title>
<g id="a_node28"><a xlink:href="tropSinex_8cpp.html#a984ea12e38f91b4a1121ae68863bd5ed" target="_top" xlink:title="Write SITE/ECCENTRICITY block.">
<polygon fill="white" stroke="red" points="319.5,-114.5 319.5,-133.5 410.5,-133.5 410.5,-114.5 319.5,-114.5"/>
<text text-anchor="middle" x="365" y="-121.5" font-family="Helvetica,sans-Serif" font-size="10.00">writeTropSiteEcc</text>
</a>
</g>
</g>
<!-- Node23&#45;&gt;Node33 -->
<g id="edge28" class="edge">
<title>Node23&#45;&gt;Node33</title>
<path fill="none" stroke="midnightblue" d="M205.67,-209.49C223.96,-193.63 263.01,-161.7 301,-143 305.56,-140.76 310.44,-138.72 315.38,-136.88"/>
<polygon fill="midnightblue" stroke="midnightblue" points="316.6,-140.16 324.92,-133.6 314.32,-133.55 316.6,-140.16"/>
</g>
<!-- Node34 -->
<g id="node29" class="node">
<title>Node34</title>
<g id="a_node29"><a xlink:href="tropSinex_8cpp.html#a2fb8fe8aceac5caf6ff006e3bd6635d4" target="_top" xlink:title="Write SITE/ID block.">
<polygon fill="white" stroke="red" points="323.5,-76.5 323.5,-95.5 406.5,-95.5 406.5,-76.5 323.5,-76.5"/>
<text text-anchor="middle" x="365" y="-83.5" font-family="Helvetica,sans-Serif" font-size="10.00">writeTropSiteId</text>
</a>
</g>
</g>
<!-- Node23&#45;&gt;Node34 -->
<g id="edge29" class="edge">
<title>Node23&#45;&gt;Node34</title>
<path fill="none" stroke="midnightblue" d="M201.19,-209.45C215.85,-187.62 254.9,-133.73 301,-105 305.03,-102.49 309.41,-100.29 313.92,-98.37"/>
<polygon fill="midnightblue" stroke="midnightblue" points="315.19,-101.64 323.3,-94.82 312.71,-95.09 315.19,-101.64"/>
</g>
<!-- Node52 -->
<g id="node30" class="node">
<title>Node52</title>
<g id="a_node30"><a xlink:href="tropSinex_8cpp.html#a8f7ac3f551700a176752a2dc3bb708b5" target="_top" xlink:title="Write SITE/RECEIVER block.">
<polygon fill="white" stroke="red" points="319,-38.5 319,-57.5 411,-57.5 411,-38.5 319,-38.5"/>
<text text-anchor="middle" x="365" y="-45.5" font-family="Helvetica,sans-Serif" font-size="10.00">writeTropSiteRec</text>
</a>
</g>
</g>
<!-- Node23&#45;&gt;Node52 -->
<g id="edge30" class="edge">
<title>Node23&#45;&gt;Node52</title>
<path fill="none" stroke="midnightblue" d="M199.07,-209.12C210.71,-182.07 246.83,-106.28 301,-67 303.68,-65.06 306.56,-63.31 309.57,-61.74"/>
<polygon fill="midnightblue" stroke="midnightblue" points="311.19,-64.84 318.86,-57.54 308.31,-58.46 311.19,-64.84"/>
</g>
<!-- Node53 -->
<g id="node31" class="node">
<title>Node53</title>
<g id="a_node31"><a xlink:href="tropSinex_8cpp.html#aabae1c55df6cb4855fb3706b498e4e28" target="_top" xlink:title="Write TROP/SOLUTION block.">
<polygon fill="white" stroke="red" points="329.5,-0.5 329.5,-19.5 400.5,-19.5 400.5,-0.5 329.5,-0.5"/>
<text text-anchor="middle" x="365" y="-7.5" font-family="Helvetica,sans-Serif" font-size="10.00">writeTropSol</text>
</a>
</g>
</g>
<!-- Node23&#45;&gt;Node53 -->
<g id="edge31" class="edge">
<title>Node23&#45;&gt;Node53</title>
<path fill="none" stroke="midnightblue" d="M197.54,-209.43C206.26,-178.39 238.02,-79.66 301,-29 306.44,-24.62 312.88,-21.25 319.52,-18.66"/>
<polygon fill="midnightblue" stroke="midnightblue" points="320.94,-21.87 329.32,-15.38 318.72,-15.23 320.94,-21.87"/>
</g>
</g>
</svg>
        <g id="navigator" transform="translate(0 0)" fill="#404254">
                <rect fill="#f2f5e9" fill-opacity="0.5" stroke="#606060" stroke-width=".5" x="0" y="0" width="60" height="60"/>
                <use id="zoomplus" xlink:href="#zoomPlus" x="17" y="9" onmousedown="handleZoom(evt,'in')"/>
                <use id="zoomminus" xlink:href="#zoomMin" x="42" y="9" onmousedown="handleZoom(evt,'out')"/>
                <use id="reset" xlink:href="#resetDef" x="30" y="36" onmousedown="handleReset()"/>
                <g id="arrowUp" xlink:href="#dirArrow" transform="translate(30 24)" onmousedown="handlePan(0,-1)">
                  <use xlink:href="#rim" fill="#404040">
                        <set attributeName="fill" to="#808080" begin="arrowUp.mouseover" end="arrowUp.mouseout"/>
                  </use>
                  <path fill="none" stroke="white" stroke-width="1.5" d="M0,-3.0v7 M-2.5,-0.5L0,-3.0L2.5,-0.5"/>
                </g>
                <g id="arrowRight" xlink:href="#dirArrow" transform="rotate(90) translate(36 -43)" onmousedown="handlePan(1,0)">
                  <use xlink:href="#rim" fill="#404040">
                        <set attributeName="fill" to="#808080" begin="arrowRight.mouseover" end="arrowRight.mouseout"/>
                  </use>
                  <path fill="none" stroke="white" stroke-width="1.5" d="M0,-3.0v7 M-2.5,-0.5L0,-3.0L2.5,-0.5"/>
                </g>
                <g id="arrowDown" xlink:href="#dirArrow" transform="rotate(180) translate(-30 -48)" onmousedown="handlePan(0,1)">
                  <use xlink:href="#rim" fill="#404040">
                        <set attributeName="fill" to="#808080" begin="arrowDown.mouseover" end="arrowDown.mouseout"/>
                  </use>
                  <path fill="none" stroke="white" stroke-width="1.5" d="M0,-3.0v7 M-2.5,-0.5L0,-3.0L2.5,-0.5"/>
                </g>
                <g id="arrowLeft" xlink:href="#dirArrow" transform="rotate(270) translate(-36 17)" onmousedown="handlePan(-1,0)">
                  <use xlink:href="#rim" fill="#404040">
                        <set attributeName="fill" to="#808080" begin="arrowLeft.mouseover" end="arrowLeft.mouseout"/>
                  </use>
                  <path fill="none" stroke="white" stroke-width="1.5" d="M0,-3.0v7 M-2.5,-0.5L0,-3.0L2.5,-0.5"/>
                </g>
        </g>
        <svg viewBox="0 0 15 15" width="100%" height="30px" preserveAspectRatio="xMaxYMin meet">
         <g id="arrow_out" transform="scale(0.3 0.3)">
          <a xlink:href="sinex_8hpp_ad23515c671b5cf07c1604a6da6c223aa_cgraph_org.svg" target="_base">
           <rect id="button" ry="5" rx="5" y="6" x="6" height="38" width="38"
                fill="#f2f5e9" fill-opacity="0.5" stroke="#606060" stroke-width="1.0"/>
           <path id="arrow"
             d="M 11.500037,31.436501 C 11.940474,20.09759 22.043105,11.32322 32.158766,21.979434 L 37.068811,17.246167 C 37.068811,17.246167 37.088388,32 37.088388,32 L 22.160133,31.978069 C 22.160133,31.978069 26.997745,27.140456 26.997745,27.140456 C 18.528582,18.264221 13.291696,25.230495 11.500037,31.436501 z"
             style="fill:#404040;"/>
          </a>
         </g>
        </svg>
</svg>
