<?xml version="1.0" encoding="UTF-8" standalone="no"?>
<!DOCTYPE svg PUBLIC "-//W3C//DTD SVG 1.1//EN"
 "http://www.w3.org/Graphics/SVG/1.1/DTD/svg11.dtd">
<!-- Generated by graphviz version 2.50.0 (20220203.2022)
 -->
<!-- Title: setRestrictiveEndTime Pages: 1 -->
<svg width="381pt" height="66pt"
 viewBox="0.00 0.00 381.00 66.00" xmlns="http://www.w3.org/2000/svg" xmlns:xlink="http://www.w3.org/1999/xlink">
<g id="graph0" class="graph" transform="scale(1 1) rotate(0) translate(4 62)">
<title>setRestrictiveEndTime</title>
<polygon fill="white" stroke="transparent" points="-4,4 -4,-62 377,-62 377,4 -4,4"/>
<!-- Node1 -->
<g id="node1" class="node">
<title>Node1</title>
<g id="a_node1"><a xlink:title=" ">
<polygon fill="#bfbfbf" stroke="black" points="258,-19.5 258,-38.5 373,-38.5 373,-19.5 258,-19.5"/>
<text text-anchor="middle" x="315.5" y="-26.5" font-family="Helvetica,sans-Serif" font-size="10.00">setRestrictiveEndTime</text>
</a>
</g>
</g>
<!-- Node2 -->
<g id="node2" class="node">
<title>Node2</title>
<g id="a_node2"><a xlink:href="sinex_8cpp.html#af6a5f07daf9e8d4806b3d9db1509e4c2" target="_top" xlink:title=" ">
<polygon fill="white" stroke="black" points="163,-19.5 163,-38.5 222,-38.5 222,-19.5 163,-19.5"/>
<text text-anchor="middle" x="192.5" y="-26.5" font-family="Helvetica,sans-Serif" font-size="10.00">getstnsnx</text>
</a>
</g>
</g>
<!-- Node1&#45;&gt;Node2 -->
<g id="edge1" class="edge">
<title>Node1&#45;&gt;Node2</title>
<path fill="none" stroke="midnightblue" d="M247.7,-29C238.7,-29 229.89,-29 222.07,-29"/>
<polygon fill="midnightblue" stroke="midnightblue" points="247.9,-32.5 257.9,-29 247.9,-25.5 247.9,-32.5"/>
</g>
<!-- Node3 -->
<g id="node3" class="node">
<title>Node3</title>
<g id="a_node3"><a xlink:href="pea__snx_8cpp.html#aed4746550d7a760c43a7afd5eece42f7" target="_top" xlink:title=" ">
<polygon fill="white" stroke="red" points="0,-38.5 0,-57.5 127,-57.5 127,-38.5 0,-38.5"/>
<text text-anchor="middle" x="63.5" y="-45.5" font-family="Helvetica,sans-Serif" font-size="10.00">sinexPerEpochPerStation</text>
</a>
</g>
</g>
<!-- Node2&#45;&gt;Node3 -->
<g id="edge2" class="edge">
<title>Node2&#45;&gt;Node3</title>
<path fill="none" stroke="midnightblue" d="M153.03,-34.75C144.85,-35.98 136,-37.3 127.17,-38.62"/>
<polygon fill="midnightblue" stroke="midnightblue" points="153.63,-38.21 163,-33.26 152.59,-31.28 153.63,-38.21"/>
</g>
<!-- Node6 -->
<g id="node4" class="node">
<title>Node6</title>
<g id="a_node4"><a xlink:href="tropSinex_8cpp.html#a2fb8fe8aceac5caf6ff006e3bd6635d4" target="_top" xlink:title="Write SITE/ID block.">
<polygon fill="white" stroke="red" points="22,-0.5 22,-19.5 105,-19.5 105,-0.5 22,-0.5"/>
<text text-anchor="middle" x="63.5" y="-7.5" font-family="Helvetica,sans-Serif" font-size="10.00">writeTropSiteId</text>
</a>
</g>
</g>
<!-- Node2&#45;&gt;Node6 -->
<g id="edge3" class="edge">
<title>Node2&#45;&gt;Node6</title>
<path fill="none" stroke="midnightblue" d="M153,-23.24C137.96,-20.99 120.7,-18.41 105.43,-16.12"/>
<polygon fill="midnightblue" stroke="midnightblue" points="152.59,-26.72 163,-24.74 153.63,-19.79 152.59,-26.72"/>
</g>
</g>
</svg>
