<?xml version="1.0" encoding="UTF-8" standalone="no"?>
<!DOCTYPE svg PUBLIC "-//W3C//DTD SVG 1.1//EN"
 "http://www.w3.org/Graphics/SVG/1.1/DTD/svg11.dtd">
<!-- Generated by graphviz version 2.50.0 (20220203.2022)
 -->
<!-- Title: iauGmst06 Pages: 1 -->
<svg width="393pt" height="39pt"
 viewBox="0.00 0.00 393.00 39.00" xmlns="http://www.w3.org/2000/svg" xmlns:xlink="http://www.w3.org/1999/xlink">
<g id="graph0" class="graph" transform="scale(1 1) rotate(0) translate(4 35)">
<title>iauGmst06</title>
<polygon fill="white" stroke="transparent" points="-4,4 -4,-35 389,-35 389,4 -4,4"/>
<!-- Node1 -->
<g id="node1" class="node">
<title>Node1</title>
<g id="a_node1"><a xlink:title=" ">
<polygon fill="#bfbfbf" stroke="black" points="321,-6 321,-25 385,-25 385,-6 321,-6"/>
<text text-anchor="middle" x="353" y="-13" font-family="Helvetica,sans-Serif" font-size="10.00">iauGmst06</text>
</a>
</g>
</g>
<!-- Node2 -->
<g id="node2" class="node">
<title>Node2</title>
<g id="a_node2"><a xlink:href="structGravityModel.html#a74d19df51b8c0789f2bb405ec4540e90" target="_top" xlink:title="Rho, azimuth and altitude information of Moon.">
<polygon fill="white" stroke="black" points="164,-0.5 164,-30.5 285,-30.5 285,-0.5 164,-0.5"/>
<text text-anchor="start" x="172" y="-18.5" font-family="Helvetica,sans-Serif" font-size="10.00">GravityModel::solidEarth</text>
<text text-anchor="middle" x="224.5" y="-7.5" font-family="Helvetica,sans-Serif" font-size="10.00">TidesCorrection</text>
</a>
</g>
</g>
<!-- Node1&#45;&gt;Node2 -->
<g id="edge1" class="edge">
<title>Node1&#45;&gt;Node2</title>
<path fill="none" stroke="midnightblue" d="M310.69,-15.5C302.48,-15.5 293.71,-15.5 285.04,-15.5"/>
<polygon fill="midnightblue" stroke="midnightblue" points="310.73,-19 320.73,-15.5 310.73,-12 310.73,-19"/>
</g>
<!-- Node3 -->
<g id="node3" class="node">
<title>Node3</title>
<g id="a_node3"><a xlink:href="structGravityModel.html#a0e1dabb37011988e3b1d54da0cd6517b" target="_top" xlink:title=" ">
<polygon fill="white" stroke="red" points="0,-0.5 0,-30.5 128,-30.5 128,-0.5 0,-0.5"/>
<text text-anchor="start" x="8" y="-18.5" font-family="Helvetica,sans-Serif" font-size="10.00">GravityModel::correctEgm</text>
<text text-anchor="middle" x="64" y="-7.5" font-family="Helvetica,sans-Serif" font-size="10.00">Coefficients</text>
</a>
</g>
</g>
<!-- Node2&#45;&gt;Node3 -->
<g id="edge2" class="edge">
<title>Node2&#45;&gt;Node3</title>
<path fill="none" stroke="midnightblue" d="M153.42,-15.5C145.02,-15.5 136.48,-15.5 128.18,-15.5"/>
<polygon fill="midnightblue" stroke="midnightblue" points="153.58,-19 163.58,-15.5 153.58,-12 153.58,-19"/>
</g>
</g>
</svg>
