<?xml version="1.0" encoding="UTF-8" standalone="no"?>
<!DOCTYPE svg PUBLIC "-//W3C//DTD SVG 1.1//EN"
 "http://www.w3.org/Graphics/SVG/1.1/DTD/svg11.dtd">
<!-- Generated by graphviz version 2.50.0 (20220203.2022)
 -->
<!-- Title: iauFave03 Pages: 1 -->
<svg width="264pt" height="66pt"
 viewBox="0.00 0.00 264.00 66.00" xmlns="http://www.w3.org/2000/svg" xmlns:xlink="http://www.w3.org/1999/xlink">
<g id="graph0" class="graph" transform="scale(1 1) rotate(0) translate(4 62)">
<title>iauFave03</title>
<polygon fill="white" stroke="transparent" points="-4,4 -4,-62 260,-62 260,4 -4,4"/>
<!-- Node1 -->
<g id="node1" class="node">
<title>Node1</title>
<g id="a_node1"><a xlink:title=" ">
<polygon fill="#bfbfbf" stroke="black" points="194,-19.5 194,-38.5 256,-38.5 256,-19.5 194,-19.5"/>
<text text-anchor="middle" x="225" y="-26.5" font-family="Helvetica,sans-Serif" font-size="10.00">iauFave03</text>
</a>
</g>
</g>
<!-- Node2 -->
<g id="node2" class="node">
<title>Node2</title>
<g id="a_node2"><a xlink:href="sofa_8cpp.html#a74ba4a6ff65cb9303188d90136b97264" target="_top" xlink:title=" ">
<polygon fill="white" stroke="black" points="97,-38.5 97,-57.5 158,-57.5 158,-38.5 97,-38.5"/>
<text text-anchor="middle" x="127.5" y="-45.5" font-family="Helvetica,sans-Serif" font-size="10.00">iauNut00a</text>
</a>
</g>
</g>
<!-- Node1&#45;&gt;Node2 -->
<g id="edge1" class="edge">
<title>Node1&#45;&gt;Node2</title>
<path fill="none" stroke="midnightblue" d="M183.9,-36.98C175.28,-38.69 166.33,-40.47 158.19,-42.09"/>
<polygon fill="midnightblue" stroke="midnightblue" points="184.66,-40.4 193.78,-35.01 183.29,-33.53 184.66,-40.4"/>
</g>
<!-- Node13 -->
<g id="node4" class="node">
<title>Node13</title>
<g id="a_node4"><a xlink:href="sofa_8cpp.html#a8b5b5ca6a675bb3a3d8862ab0c1549e2" target="_top" xlink:title=" ">
<polygon fill="white" stroke="black" points="104,-0.5 104,-19.5 151,-19.5 151,-0.5 104,-0.5"/>
<text text-anchor="middle" x="127.5" y="-7.5" font-family="Helvetica,sans-Serif" font-size="10.00">iauS06</text>
</a>
</g>
</g>
<!-- Node1&#45;&gt;Node13 -->
<g id="edge3" class="edge">
<title>Node1&#45;&gt;Node13</title>
<path fill="none" stroke="midnightblue" d="M183.8,-21C172.68,-18.79 161,-16.47 151.25,-14.53"/>
<polygon fill="midnightblue" stroke="midnightblue" points="183.29,-24.47 193.78,-22.99 184.66,-17.6 183.29,-24.47"/>
</g>
<!-- Node3 -->
<g id="node3" class="node">
<title>Node3</title>
<g id="a_node3"><a xlink:href="sofa_8cpp.html#afb760780b2d738977073996e81fe1509" target="_top" xlink:title=" ">
<polygon fill="white" stroke="red" points="0,-38.5 0,-57.5 61,-57.5 61,-38.5 0,-38.5"/>
<text text-anchor="middle" x="30.5" y="-45.5" font-family="Helvetica,sans-Serif" font-size="10.00">iauNut06a</text>
</a>
</g>
</g>
<!-- Node2&#45;&gt;Node3 -->
<g id="edge2" class="edge">
<title>Node2&#45;&gt;Node3</title>
<path fill="none" stroke="midnightblue" d="M86.71,-48C78.11,-48 69.15,-48 61.02,-48"/>
<polygon fill="midnightblue" stroke="midnightblue" points="86.96,-51.5 96.96,-48 86.96,-44.5 86.96,-51.5"/>
</g>
<!-- Node14 -->
<g id="node5" class="node">
<title>Node14</title>
<g id="a_node5"><a xlink:href="sofa_8cpp.html#a3b42028734d3ce7dd47e3d81ca892644" target="_top" xlink:title=" ">
<polygon fill="white" stroke="red" points="2.5,-0.5 2.5,-19.5 58.5,-19.5 58.5,-0.5 2.5,-0.5"/>
<text text-anchor="middle" x="30.5" y="-7.5" font-family="Helvetica,sans-Serif" font-size="10.00">iauGst06</text>
</a>
</g>
</g>
<!-- Node13&#45;&gt;Node14 -->
<g id="edge4" class="edge">
<title>Node13&#45;&gt;Node14</title>
<path fill="none" stroke="midnightblue" d="M93.88,-10C82.38,-10 69.58,-10 58.59,-10"/>
<polygon fill="midnightblue" stroke="midnightblue" points="93.99,-13.5 103.99,-10 93.99,-6.5 93.99,-13.5"/>
</g>
</g>
</svg>
