<?xml version="1.0" encoding="UTF-8" standalone="no"?>
<!DOCTYPE svg PUBLIC "-//W3C//DTD SVG 1.1//EN"
 "http://www.w3.org/Graphics/SVG/1.1/DTD/svg11.dtd">
<!-- Generated by graphviz version 2.50.0 (20220203.2022)
 -->
<!-- Title: iauGst06a Pages: 1 -->
<svg width="350pt" height="272pt"
 viewBox="0.00 0.00 350.00 272.27" xmlns="http://www.w3.org/2000/svg" xmlns:xlink="http://www.w3.org/1999/xlink">
<g id="graph0" class="graph" transform="scale(1 1) rotate(0) translate(4 268.27)">
<title>iauGst06a</title>
<polygon fill="white" stroke="transparent" points="-4,4 -4,-268.27 346,-268.27 346,4 -4,4"/>
<!-- Node1 -->
<g id="node1" class="node">
<title>Node1</title>
<g id="a_node1"><a xlink:title=" ">
<polygon fill="#bfbfbf" stroke="black" points="0,-95.5 0,-114.5 61,-114.5 61,-95.5 0,-95.5"/>
<text text-anchor="middle" x="30.5" y="-102.5" font-family="Helvetica,sans-Serif" font-size="10.00">iauGst06a</text>
</a>
</g>
</g>
<!-- Node2 -->
<g id="node2" class="node">
<title>Node2</title>
<g id="a_node2"><a xlink:href="sofa_8cpp.html#a3b42028734d3ce7dd47e3d81ca892644" target="_top" xlink:title=" ">
<polygon fill="white" stroke="black" points="101.5,-171.5 101.5,-190.5 157.5,-190.5 157.5,-171.5 101.5,-171.5"/>
<text text-anchor="middle" x="129.5" y="-178.5" font-family="Helvetica,sans-Serif" font-size="10.00">iauGst06</text>
</a>
</g>
</g>
<!-- Node1&#45;&gt;Node2 -->
<g id="edge1" class="edge">
<title>Node1&#45;&gt;Node2</title>
<path fill="none" stroke="midnightblue" d="M43.79,-114.63C60.04,-127.36 88.9,-149.97 108.36,-165.22"/>
<polygon fill="midnightblue" stroke="midnightblue" points="106.28,-168.04 116.31,-171.45 110.6,-162.53 106.28,-168.04"/>
</g>
<!-- Node16 -->
<g id="node8" class="node">
<title>Node16</title>
<g id="a_node8"><a xlink:href="sofa_8cpp.html#af98e979c68de2a248f398a937ef9756a" target="_top" xlink:title=" ">
<polygon fill="white" stroke="black" points="97,-57.5 97,-76.5 162,-76.5 162,-57.5 97,-57.5"/>
<text text-anchor="middle" x="129.5" y="-64.5" font-family="Helvetica,sans-Serif" font-size="10.00">iauPnm06a</text>
</a>
</g>
</g>
<!-- Node1&#45;&gt;Node16 -->
<g id="edge8" class="edge">
<title>Node1&#45;&gt;Node16</title>
<path fill="none" stroke="midnightblue" d="M55.98,-95.41C67.69,-90.82 81.92,-85.25 94.65,-80.26"/>
<polygon fill="midnightblue" stroke="midnightblue" points="96,-83.49 104.03,-76.59 93.44,-76.97 96,-83.49"/>
</g>
<!-- Node3 -->
<g id="node3" class="node">
<title>Node3</title>
<g id="a_node3"><a xlink:href="sofa_8cpp.html#a98a8080494cb2e9b104d037623fc84ad" target="_top" xlink:title=" ">
<polygon fill="white" stroke="black" points="295,-209.5 295,-228.5 342,-228.5 342,-209.5 295,-209.5"/>
<text text-anchor="middle" x="318.5" y="-216.5" font-family="Helvetica,sans-Serif" font-size="10.00">iauAnp</text>
</a>
</g>
</g>
<!-- Node2&#45;&gt;Node3 -->
<g id="edge2" class="edge">
<title>Node2&#45;&gt;Node3</title>
<path fill="none" stroke="midnightblue" d="M135.4,-190.54C144.81,-207.68 167.25,-243.19 198,-257 222.73,-268.11 233.01,-264.7 259,-257 273.66,-252.66 288.09,-243.36 298.95,-235.04"/>
<polygon fill="midnightblue" stroke="midnightblue" points="301.23,-237.7 306.83,-228.7 296.84,-232.24 301.23,-237.7"/>
</g>
<!-- Node4 -->
<g id="node4" class="node">
<title>Node4</title>
<g id="a_node4"><a xlink:href="sofa_8cpp.html#a96b8b95f277d45ee63c7aa2d7f09a77d" target="_top" xlink:title=" ">
<polygon fill="white" stroke="black" points="198,-228.5 198,-247.5 259,-247.5 259,-228.5 198,-228.5"/>
<text text-anchor="middle" x="228.5" y="-235.5" font-family="Helvetica,sans-Serif" font-size="10.00">iauBpn2xy</text>
</a>
</g>
</g>
<!-- Node2&#45;&gt;Node4 -->
<g id="edge3" class="edge">
<title>Node2&#45;&gt;Node4</title>
<path fill="none" stroke="midnightblue" d="M146.95,-190.67C162.1,-199.57 184.78,-212.9 202.22,-223.14"/>
<polygon fill="midnightblue" stroke="midnightblue" points="200.89,-226.42 211.29,-228.47 204.44,-220.39 200.89,-226.42"/>
</g>
<!-- Node5 -->
<g id="node5" class="node">
<title>Node5</title>
<g id="a_node5"><a xlink:href="sofa_8cpp.html#a350d09aff497e1ee085984d66f9c0e9d" target="_top" xlink:title=" ">
<polygon fill="white" stroke="black" points="204,-190.5 204,-209.5 253,-209.5 253,-190.5 204,-190.5"/>
<text text-anchor="middle" x="228.5" y="-197.5" font-family="Helvetica,sans-Serif" font-size="10.00">iauEors</text>
</a>
</g>
</g>
<!-- Node2&#45;&gt;Node5 -->
<g id="edge4" class="edge">
<title>Node2&#45;&gt;Node5</title>
<path fill="none" stroke="midnightblue" d="M157.52,-186.29C168.79,-188.5 182.01,-191.09 193.9,-193.42"/>
<polygon fill="midnightblue" stroke="midnightblue" points="193.44,-196.89 203.92,-195.38 194.78,-190.02 193.44,-196.89"/>
</g>
<!-- Node6 -->
<g id="node6" class="node">
<title>Node6</title>
<g id="a_node6"><a xlink:href="sofa_8cpp.html#a1d5780c2d869da41106c5fb5a426a9a7" target="_top" xlink:title=" ">
<polygon fill="white" stroke="black" points="201.5,-152.5 201.5,-171.5 255.5,-171.5 255.5,-152.5 201.5,-152.5"/>
<text text-anchor="middle" x="228.5" y="-159.5" font-family="Helvetica,sans-Serif" font-size="10.00">iauEra00</text>
</a>
</g>
</g>
<!-- Node2&#45;&gt;Node6 -->
<g id="edge5" class="edge">
<title>Node2&#45;&gt;Node6</title>
<path fill="none" stroke="midnightblue" d="M157.52,-175.71C167.99,-173.66 180.14,-171.28 191.34,-169.08"/>
<polygon fill="midnightblue" stroke="midnightblue" points="192.15,-172.49 201.29,-167.13 190.81,-165.62 192.15,-172.49"/>
</g>
<!-- Node7 -->
<g id="node7" class="node">
<title>Node7</title>
<g id="a_node7"><a xlink:href="sofa_8cpp.html#a8b5b5ca6a675bb3a3d8862ab0c1549e2" target="_top" xlink:title=" ">
<polygon fill="white" stroke="red" points="205,-114.5 205,-133.5 252,-133.5 252,-114.5 205,-114.5"/>
<text text-anchor="middle" x="228.5" y="-121.5" font-family="Helvetica,sans-Serif" font-size="10.00">iauS06</text>
</a>
</g>
</g>
<!-- Node2&#45;&gt;Node7 -->
<g id="edge7" class="edge">
<title>Node2&#45;&gt;Node7</title>
<path fill="none" stroke="midnightblue" d="M146.95,-171.33C162.1,-162.43 184.78,-149.1 202.22,-138.86"/>
<polygon fill="midnightblue" stroke="midnightblue" points="204.44,-141.61 211.29,-133.53 200.89,-135.58 204.44,-141.61"/>
</g>
<!-- Node6&#45;&gt;Node3 -->
<g id="edge6" class="edge">
<title>Node6&#45;&gt;Node3</title>
<path fill="none" stroke="midnightblue" d="M244.51,-171.65C249.16,-174.65 254.29,-177.96 259,-181 270.6,-188.5 283.48,-196.86 294.19,-203.83"/>
<polygon fill="midnightblue" stroke="midnightblue" points="292.31,-206.78 302.6,-209.3 296.13,-200.91 292.31,-206.78"/>
</g>
<!-- Node17 -->
<g id="node9" class="node">
<title>Node17</title>
<g id="a_node9"><a xlink:href="sofa_8cpp.html#a84880f6e3e8e8b1094cea51066f03791" target="_top" xlink:title=" ">
<polygon fill="white" stroke="red" points="200.5,-76.5 200.5,-95.5 256.5,-95.5 256.5,-76.5 200.5,-76.5"/>
<text text-anchor="middle" x="228.5" y="-83.5" font-family="Helvetica,sans-Serif" font-size="10.00">iauFw2m</text>
</a>
</g>
</g>
<!-- Node16&#45;&gt;Node17 -->
<g id="edge9" class="edge">
<title>Node16&#45;&gt;Node17</title>
<path fill="none" stroke="midnightblue" d="M162.26,-73.22C171.17,-74.97 180.95,-76.88 190.15,-78.68"/>
<polygon fill="midnightblue" stroke="midnightblue" points="189.74,-82.17 200.23,-80.66 191.09,-75.3 189.74,-82.17"/>
</g>
<!-- Node21 -->
<g id="node10" class="node">
<title>Node21</title>
<g id="a_node10"><a xlink:href="sofa_8cpp.html#afb760780b2d738977073996e81fe1509" target="_top" xlink:title=" ">
<polygon fill="white" stroke="red" points="198,-38.5 198,-57.5 259,-57.5 259,-38.5 198,-38.5"/>
<text text-anchor="middle" x="228.5" y="-45.5" font-family="Helvetica,sans-Serif" font-size="10.00">iauNut06a</text>
</a>
</g>
</g>
<!-- Node16&#45;&gt;Node21 -->
<g id="edge10" class="edge">
<title>Node16&#45;&gt;Node21</title>
<path fill="none" stroke="midnightblue" d="M162.26,-60.78C170.52,-59.16 179.52,-57.4 188.12,-55.71"/>
<polygon fill="midnightblue" stroke="midnightblue" points="188.83,-59.14 197.97,-53.78 187.48,-52.27 188.83,-59.14"/>
</g>
<!-- Node28 -->
<g id="node11" class="node">
<title>Node28</title>
<g id="a_node11"><a xlink:href="sofa_8cpp.html#aae6b93d8ca59466dda6b9699630cda6f" target="_top" xlink:title=" ">
<polygon fill="white" stroke="red" points="200,-0.5 200,-19.5 257,-19.5 257,-0.5 200,-0.5"/>
<text text-anchor="middle" x="228.5" y="-7.5" font-family="Helvetica,sans-Serif" font-size="10.00">iauPfw06</text>
</a>
</g>
</g>
<!-- Node16&#45;&gt;Node28 -->
<g id="edge11" class="edge">
<title>Node16&#45;&gt;Node28</title>
<path fill="none" stroke="midnightblue" d="M146.95,-57.33C162.1,-48.43 184.78,-35.1 202.22,-24.86"/>
<polygon fill="midnightblue" stroke="midnightblue" points="204.44,-27.61 211.29,-19.53 200.89,-21.58 204.44,-27.61"/>
</g>
</g>
</svg>
