<?xml version="1.0" encoding="UTF-8" standalone="no"?>
<!DOCTYPE svg PUBLIC "-//W3C//DTD SVG 1.1//EN"
 "http://www.w3.org/Graphics/SVG/1.1/DTD/svg11.dtd">
<!-- Generated by graphviz version 2.50.0 (20220203.2022)
 -->
<!-- Title: iauAnp Pages: 1 -->
<svg width="245pt" height="75pt"
 viewBox="0.00 0.00 245.00 75.00" xmlns="http://www.w3.org/2000/svg" xmlns:xlink="http://www.w3.org/1999/xlink">
<g id="graph0" class="graph" transform="scale(1 1) rotate(0) translate(4 71)">
<title>iauAnp</title>
<polygon fill="white" stroke="transparent" points="-4,4 -4,-71 241,-71 241,4 -4,4"/>
<!-- Node1 -->
<g id="node1" class="node">
<title>Node1</title>
<g id="a_node1"><a xlink:title=" ">
<polygon fill="#bfbfbf" stroke="black" points="190,-28.5 190,-47.5 237,-47.5 237,-28.5 190,-28.5"/>
<text text-anchor="middle" x="213.5" y="-35.5" font-family="Helvetica,sans-Serif" font-size="10.00">iauAnp</text>
</a>
</g>
</g>
<!-- Node2 -->
<g id="node2" class="node">
<title>Node2</title>
<g id="a_node2"><a xlink:href="sofa_8cpp.html#a1d5780c2d869da41106c5fb5a426a9a7" target="_top" xlink:title=" ">
<polygon fill="white" stroke="black" points="100,-28.5 100,-47.5 154,-47.5 154,-28.5 100,-28.5"/>
<text text-anchor="middle" x="127" y="-35.5" font-family="Helvetica,sans-Serif" font-size="10.00">iauEra00</text>
</a>
</g>
</g>
<!-- Node1&#45;&gt;Node2 -->
<g id="edge1" class="edge">
<title>Node1&#45;&gt;Node2</title>
<path fill="none" stroke="midnightblue" d="M179.61,-38C171.22,-38 162.31,-38 154.3,-38"/>
<polygon fill="midnightblue" stroke="midnightblue" points="179.86,-41.5 189.86,-38 179.86,-34.5 179.86,-41.5"/>
</g>
<!-- Node3 -->
<g id="node3" class="node">
<title>Node3</title>
<g id="a_node3"><a xlink:href="sofa_8cpp.html#a8447e1a04c982b11f68ab9b66d168ec3" target="_top" xlink:title=" ">
<polygon fill="white" stroke="red" points="0,-47.5 0,-66.5 64,-66.5 64,-47.5 0,-47.5"/>
<text text-anchor="middle" x="32" y="-54.5" font-family="Helvetica,sans-Serif" font-size="10.00">iauGmst06</text>
</a>
</g>
</g>
<!-- Node1&#45;&gt;Node3 -->
<g id="edge4" class="edge">
<title>Node1&#45;&gt;Node3</title>
<path fill="none" stroke="midnightblue" d="M180.35,-50.44C171.9,-53.15 162.72,-55.62 154,-57 123.71,-61.8 88.61,-61.12 64.04,-59.66"/>
<polygon fill="midnightblue" stroke="midnightblue" points="181.52,-53.74 189.85,-47.19 179.25,-47.11 181.52,-53.74"/>
</g>
<!-- Node7 -->
<g id="node4" class="node">
<title>Node7</title>
<g id="a_node4"><a xlink:href="sofa_8cpp.html#a3b42028734d3ce7dd47e3d81ca892644" target="_top" xlink:title=" ">
<polygon fill="white" stroke="red" points="4,-0.5 4,-19.5 60,-19.5 60,-0.5 4,-0.5"/>
<text text-anchor="middle" x="32" y="-7.5" font-family="Helvetica,sans-Serif" font-size="10.00">iauGst06</text>
</a>
</g>
</g>
<!-- Node1&#45;&gt;Node7 -->
<g id="edge5" class="edge">
<title>Node1&#45;&gt;Node7</title>
<path fill="none" stroke="midnightblue" d="M180.27,-26.01C171.83,-23.29 162.66,-20.7 154,-19 122.17,-12.74 84.85,-10.76 60.16,-10.17"/>
<polygon fill="midnightblue" stroke="midnightblue" points="179.18,-29.33 189.78,-29.21 181.42,-22.7 179.18,-29.33"/>
</g>
<!-- Node2&#45;&gt;Node3 -->
<g id="edge2" class="edge">
<title>Node2&#45;&gt;Node3</title>
<path fill="none" stroke="midnightblue" d="M89.61,-45.43C81.17,-47.16 72.27,-48.98 64.08,-50.65"/>
<polygon fill="midnightblue" stroke="midnightblue" points="90.5,-48.82 99.6,-43.39 89.1,-41.97 90.5,-48.82"/>
</g>
<!-- Node2&#45;&gt;Node7 -->
<g id="edge3" class="edge">
<title>Node2&#45;&gt;Node7</title>
<path fill="none" stroke="midnightblue" d="M89.97,-27.15C80.04,-24.16 69.44,-20.97 60.11,-18.16"/>
<polygon fill="midnightblue" stroke="midnightblue" points="89.01,-30.52 99.6,-30.05 91.03,-23.82 89.01,-30.52"/>
</g>
</g>
</svg>
