<?xml version="1.0" encoding="UTF-8" standalone="no"?>
<!DOCTYPE svg PUBLIC "-//W3C//DTD SVG 1.1//EN"
 "http://www.w3.org/Graphics/SVG/1.1/DTD/svg11.dtd">
<!-- Generated by graphviz version 2.50.0 (20220203.2022)
 -->
<!-- Title: iauIr Pages: 1 -->
<svg width="349pt" height="66pt"
 viewBox="0.00 0.00 349.00 66.00" xmlns="http://www.w3.org/2000/svg" xmlns:xlink="http://www.w3.org/1999/xlink">
<g id="graph0" class="graph" transform="scale(1 1) rotate(0) translate(4 62)">
<title>iauIr</title>
<polygon fill="white" stroke="transparent" points="-4,4 -4,-62 345,-62 345,4 -4,4"/>
<!-- Node1 -->
<g id="node1" class="node">
<title>Node1</title>
<g id="a_node1"><a xlink:title=" ">
<polygon fill="#bfbfbf" stroke="black" points="306,-19.5 306,-38.5 341,-38.5 341,-19.5 306,-19.5"/>
<text text-anchor="middle" x="323.5" y="-26.5" font-family="Helvetica,sans-Serif" font-size="10.00">iauIr</text>
</a>
</g>
</g>
<!-- Node2 -->
<g id="node2" class="node">
<title>Node2</title>
<g id="a_node2"><a xlink:href="sofa_8cpp.html#a84880f6e3e8e8b1094cea51066f03791" target="_top" xlink:title=" ">
<polygon fill="white" stroke="black" points="214,-38.5 214,-57.5 270,-57.5 270,-38.5 214,-38.5"/>
<text text-anchor="middle" x="242" y="-45.5" font-family="Helvetica,sans-Serif" font-size="10.00">iauFw2m</text>
</a>
</g>
</g>
<!-- Node1&#45;&gt;Node2 -->
<g id="edge1" class="edge">
<title>Node1&#45;&gt;Node2</title>
<path fill="none" stroke="midnightblue" d="M295.77,-35.39C287.52,-37.36 278.43,-39.53 270.16,-41.51"/>
<polygon fill="midnightblue" stroke="midnightblue" points="296.73,-38.76 305.64,-33.03 295.1,-31.95 296.73,-38.76"/>
</g>
<!-- Node12 -->
<g id="node5" class="node">
<title>Node12</title>
<g id="a_node5"><a xlink:href="sofa_8cpp.html#acc3eee0acc7723d3affd70713db52da6" target="_top" xlink:title=" ">
<polygon fill="white" stroke="black" points="115.5,-0.5 115.5,-19.5 175.5,-19.5 175.5,-0.5 115.5,-0.5"/>
<text text-anchor="middle" x="145.5" y="-7.5" font-family="Helvetica,sans-Serif" font-size="10.00">iauPom00</text>
</a>
</g>
</g>
<!-- Node1&#45;&gt;Node12 -->
<g id="edge4" class="edge">
<title>Node1&#45;&gt;Node12</title>
<path fill="none" stroke="midnightblue" d="M295.87,-26.13C263.5,-22.63 209.06,-16.75 175.61,-13.14"/>
<polygon fill="midnightblue" stroke="midnightblue" points="295.62,-29.62 305.94,-27.21 296.38,-22.66 295.62,-29.62"/>
</g>
<!-- Node3 -->
<g id="node3" class="node">
<title>Node3</title>
<g id="a_node3"><a xlink:href="sofa_8cpp.html#af98e979c68de2a248f398a937ef9756a" target="_top" xlink:title=" ">
<polygon fill="white" stroke="red" points="113,-38.5 113,-57.5 178,-57.5 178,-38.5 113,-38.5"/>
<text text-anchor="middle" x="145.5" y="-45.5" font-family="Helvetica,sans-Serif" font-size="10.00">iauPnm06a</text>
</a>
</g>
</g>
<!-- Node2&#45;&gt;Node3 -->
<g id="edge2" class="edge">
<title>Node2&#45;&gt;Node3</title>
<path fill="none" stroke="midnightblue" d="M203.89,-48C195.42,-48 186.49,-48 178.26,-48"/>
<polygon fill="midnightblue" stroke="midnightblue" points="203.92,-51.5 213.92,-48 203.92,-44.5 203.92,-51.5"/>
</g>
<!-- Node4 -->
<g id="node4" class="node">
<title>Node4</title>
<g id="a_node4"><a xlink:href="rtkcmn_8cpp.html#a470bf7b49dcb299ab533958252a1dfe0" target="_top" xlink:title="eci to ecef transformation matrix using the sofa library">
<polygon fill="white" stroke="red" points="0,-19.5 0,-38.5 77,-38.5 77,-19.5 0,-19.5"/>
<text text-anchor="middle" x="38.5" y="-26.5" font-family="Helvetica,sans-Serif" font-size="10.00">eci2ecef_sofa</text>
</a>
</g>
</g>
<!-- Node3&#45;&gt;Node4 -->
<g id="edge3" class="edge">
<title>Node3&#45;&gt;Node4</title>
<path fill="none" stroke="midnightblue" d="M102.93,-40.48C94.47,-38.95 85.6,-37.34 77.28,-35.84"/>
<polygon fill="midnightblue" stroke="midnightblue" points="102.53,-43.96 113,-42.3 103.78,-37.07 102.53,-43.96"/>
</g>
<!-- Node12&#45;&gt;Node4 -->
<g id="edge5" class="edge">
<title>Node12&#45;&gt;Node4</title>
<path fill="none" stroke="midnightblue" d="M105.22,-17.11C96.06,-18.76 86.33,-20.53 77.24,-22.17"/>
<polygon fill="midnightblue" stroke="midnightblue" points="106.03,-20.52 115.25,-15.29 104.79,-13.63 106.03,-20.52"/>
</g>
</g>
</svg>
