<?xml version="1.0" encoding="UTF-8" standalone="no"?>
<!DOCTYPE svg PUBLIC "-//W3C//DTD SVG 1.1//EN"
 "http://www.w3.org/Graphics/SVG/1.1/DTD/svg11.dtd">
<!-- Generated by graphviz version 2.50.0 (20220203.2022)
 -->
<!-- Title: iauPnm06a Pages: 1 -->
<svg width="267pt" height="180pt"
 viewBox="0.00 0.00 267.00 180.00" xmlns="http://www.w3.org/2000/svg" xmlns:xlink="http://www.w3.org/1999/xlink">
<g id="graph0" class="graph" transform="scale(1 1) rotate(0) translate(4 176)">
<title>iauPnm06a</title>
<polygon fill="white" stroke="transparent" points="-4,4 -4,-176 263,-176 263,4 -4,4"/>
<!-- Node1 -->
<g id="node1" class="node">
<title>Node1</title>
<g id="a_node1"><a xlink:title=" ">
<polygon fill="#bfbfbf" stroke="black" points="0,-38.5 0,-57.5 65,-57.5 65,-38.5 0,-38.5"/>
<text text-anchor="middle" x="32.5" y="-45.5" font-family="Helvetica,sans-Serif" font-size="10.00">iauPnm06a</text>
</a>
</g>
</g>
<!-- Node2 -->
<g id="node2" class="node">
<title>Node2</title>
<g id="a_node2"><a xlink:href="sofa_8cpp.html#a84880f6e3e8e8b1094cea51066f03791" target="_top" xlink:title=" ">
<polygon fill="white" stroke="black" points="103.5,-95.5 103.5,-114.5 159.5,-114.5 159.5,-95.5 103.5,-95.5"/>
<text text-anchor="middle" x="131.5" y="-102.5" font-family="Helvetica,sans-Serif" font-size="10.00">iauFw2m</text>
</a>
</g>
</g>
<!-- Node1&#45;&gt;Node2 -->
<g id="edge1" class="edge">
<title>Node1&#45;&gt;Node2</title>
<path fill="none" stroke="midnightblue" d="M49.95,-57.67C65.1,-66.57 87.78,-79.9 105.22,-90.14"/>
<polygon fill="midnightblue" stroke="midnightblue" points="103.89,-93.42 114.29,-95.47 107.44,-87.39 103.89,-93.42"/>
</g>
<!-- Node6 -->
<g id="node6" class="node">
<title>Node6</title>
<g id="a_node6"><a xlink:href="sofa_8cpp.html#afb760780b2d738977073996e81fe1509" target="_top" xlink:title=" ">
<polygon fill="white" stroke="black" points="101,-38.5 101,-57.5 162,-57.5 162,-38.5 101,-38.5"/>
<text text-anchor="middle" x="131.5" y="-45.5" font-family="Helvetica,sans-Serif" font-size="10.00">iauNut06a</text>
</a>
</g>
</g>
<!-- Node1&#45;&gt;Node6 -->
<g id="edge5" class="edge">
<title>Node1&#45;&gt;Node6</title>
<path fill="none" stroke="midnightblue" d="M65.26,-48C73.43,-48 82.32,-48 90.84,-48"/>
<polygon fill="midnightblue" stroke="midnightblue" points="90.97,-51.5 100.97,-48 90.97,-44.5 90.97,-51.5"/>
</g>
<!-- Node19 -->
<g id="node8" class="node">
<title>Node19</title>
<g id="a_node8"><a xlink:href="sofa_8cpp.html#aae6b93d8ca59466dda6b9699630cda6f" target="_top" xlink:title=" ">
<polygon fill="white" stroke="black" points="103,-0.5 103,-19.5 160,-19.5 160,-0.5 103,-0.5"/>
<text text-anchor="middle" x="131.5" y="-7.5" font-family="Helvetica,sans-Serif" font-size="10.00">iauPfw06</text>
</a>
</g>
</g>
<!-- Node1&#45;&gt;Node19 -->
<g id="edge7" class="edge">
<title>Node1&#45;&gt;Node19</title>
<path fill="none" stroke="midnightblue" d="M57.98,-38.41C69.69,-33.82 83.92,-28.25 96.65,-23.26"/>
<polygon fill="midnightblue" stroke="midnightblue" points="98,-26.49 106.03,-19.59 95.44,-19.97 98,-26.49"/>
</g>
<!-- Node3 -->
<g id="node3" class="node">
<title>Node3</title>
<g id="a_node3"><a xlink:href="sofa_8cpp.html#a6f3e10f518840ea7c6933b6da24188b6" target="_top" xlink:title=" ">
<polygon fill="white" stroke="black" points="211,-152.5 211,-171.5 246,-171.5 246,-152.5 211,-152.5"/>
<text text-anchor="middle" x="228.5" y="-159.5" font-family="Helvetica,sans-Serif" font-size="10.00">iauIr</text>
</a>
</g>
</g>
<!-- Node2&#45;&gt;Node3 -->
<g id="edge2" class="edge">
<title>Node2&#45;&gt;Node3</title>
<path fill="none" stroke="midnightblue" d="M148.62,-114.67C163.44,-123.57 185.66,-136.9 202.74,-147.14"/>
<polygon fill="midnightblue" stroke="midnightblue" points="201.25,-150.33 211.62,-152.47 204.85,-144.33 201.25,-150.33"/>
</g>
<!-- Node4 -->
<g id="node4" class="node">
<title>Node4</title>
<g id="a_node4"><a xlink:href="sofa_8cpp.html#a3cc86173d298eb8401b4f22f606905a6" target="_top" xlink:title=" ">
<polygon fill="white" stroke="black" points="208,-114.5 208,-133.5 249,-133.5 249,-114.5 208,-114.5"/>
<text text-anchor="middle" x="228.5" y="-121.5" font-family="Helvetica,sans-Serif" font-size="10.00">iauRx</text>
</a>
</g>
</g>
<!-- Node2&#45;&gt;Node4 -->
<g id="edge3" class="edge">
<title>Node2&#45;&gt;Node4</title>
<path fill="none" stroke="midnightblue" d="M159.72,-110.44C171.6,-112.82 185.55,-115.61 197.7,-118.04"/>
<polygon fill="midnightblue" stroke="midnightblue" points="197.33,-121.53 207.82,-120.06 198.7,-114.67 197.33,-121.53"/>
</g>
<!-- Node5 -->
<g id="node5" class="node">
<title>Node5</title>
<g id="a_node5"><a xlink:href="sofa_8cpp.html#a5a8e3535b2f0b705f490de2afeeaa9ab" target="_top" xlink:title=" ">
<polygon fill="white" stroke="black" points="208,-76.5 208,-95.5 249,-95.5 249,-76.5 208,-76.5"/>
<text text-anchor="middle" x="228.5" y="-83.5" font-family="Helvetica,sans-Serif" font-size="10.00">iauRz</text>
</a>
</g>
</g>
<!-- Node2&#45;&gt;Node5 -->
<g id="edge4" class="edge">
<title>Node2&#45;&gt;Node5</title>
<path fill="none" stroke="midnightblue" d="M159.72,-99.56C171.6,-97.18 185.55,-94.39 197.7,-91.96"/>
<polygon fill="midnightblue" stroke="midnightblue" points="198.7,-95.33 207.82,-89.94 197.33,-88.47 198.7,-95.33"/>
</g>
<!-- Node7 -->
<g id="node7" class="node">
<title>Node7</title>
<g id="a_node7"><a xlink:href="sofa_8cpp.html#a74ba4a6ff65cb9303188d90136b97264" target="_top" xlink:title=" ">
<polygon fill="white" stroke="red" points="198,-38.5 198,-57.5 259,-57.5 259,-38.5 198,-38.5"/>
<text text-anchor="middle" x="228.5" y="-45.5" font-family="Helvetica,sans-Serif" font-size="10.00">iauNut00a</text>
</a>
</g>
</g>
<!-- Node6&#45;&gt;Node7 -->
<g id="edge6" class="edge">
<title>Node6&#45;&gt;Node7</title>
<path fill="none" stroke="midnightblue" d="M162.04,-48C170.17,-48 179.13,-48 187.73,-48"/>
<polygon fill="midnightblue" stroke="midnightblue" points="187.98,-51.5 197.98,-48 187.98,-44.5 187.98,-51.5"/>
</g>
<!-- Node20 -->
<g id="node9" class="node">
<title>Node20</title>
<g id="a_node9"><a xlink:href="sofa_8cpp.html#a184b140f5cf880d978721e0c0d62f4ef" target="_top" xlink:title=" ">
<polygon fill="white" stroke="black" points="201,-0.5 201,-19.5 256,-19.5 256,-0.5 201,-0.5"/>
<text text-anchor="middle" x="228.5" y="-7.5" font-family="Helvetica,sans-Serif" font-size="10.00">iauObl06</text>
</a>
</g>
</g>
<!-- Node19&#45;&gt;Node20 -->
<g id="edge8" class="edge">
<title>Node19&#45;&gt;Node20</title>
<path fill="none" stroke="midnightblue" d="M160.23,-10C169.74,-10 180.54,-10 190.66,-10"/>
<polygon fill="midnightblue" stroke="midnightblue" points="190.88,-13.5 200.88,-10 190.88,-6.5 190.88,-13.5"/>
</g>
</g>
</svg>
