<?xml version="1.0" encoding="UTF-8" standalone="no"?>
<!DOCTYPE svg PUBLIC "-//W3C//DTD SVG 1.1//EN"
 "http://www.w3.org/Graphics/SVG/1.1/DTD/svg11.dtd">
<!-- Generated by graphviz version 2.50.0 (20220203.2022)
 -->
<!-- Title: iauS06 Pages: 1 -->
<svg width="260pt" height="66pt"
 viewBox="0.00 0.00 260.00 66.00" xmlns="http://www.w3.org/2000/svg" xmlns:xlink="http://www.w3.org/1999/xlink">
<g id="graph0" class="graph" transform="scale(1 1) rotate(0) translate(4 62)">
<title>iauS06</title>
<polygon fill="white" stroke="transparent" points="-4,4 -4,-62 256,-62 256,4 -4,4"/>
<!-- Node1 -->
<g id="node1" class="node">
<title>Node1</title>
<g id="a_node1"><a xlink:title=" ">
<polygon fill="#bfbfbf" stroke="black" points="205,-19.5 205,-38.5 252,-38.5 252,-19.5 205,-19.5"/>
<text text-anchor="middle" x="228.5" y="-26.5" font-family="Helvetica,sans-Serif" font-size="10.00">iauS06</text>
</a>
</g>
</g>
<!-- Node2 -->
<g id="node2" class="node">
<title>Node2</title>
<g id="a_node2"><a xlink:href="sofa_8cpp.html#a3b42028734d3ce7dd47e3d81ca892644" target="_top" xlink:title=" ">
<polygon fill="white" stroke="black" points="113,-19.5 113,-38.5 169,-38.5 169,-19.5 113,-19.5"/>
<text text-anchor="middle" x="141" y="-26.5" font-family="Helvetica,sans-Serif" font-size="10.00">iauGst06</text>
</a>
</g>
</g>
<!-- Node1&#45;&gt;Node2 -->
<g id="edge1" class="edge">
<title>Node1&#45;&gt;Node2</title>
<path fill="none" stroke="midnightblue" d="M194.41,-29C186.09,-29 177.24,-29 169.23,-29"/>
<polygon fill="midnightblue" stroke="midnightblue" points="194.59,-32.5 204.59,-29 194.59,-25.5 194.59,-32.5"/>
</g>
<!-- Node3 -->
<g id="node3" class="node">
<title>Node3</title>
<g id="a_node3"><a xlink:href="rtkcmn_8cpp.html#a470bf7b49dcb299ab533958252a1dfe0" target="_top" xlink:title="eci to ecef transformation matrix using the sofa library">
<polygon fill="white" stroke="red" points="0,-38.5 0,-57.5 77,-57.5 77,-38.5 0,-38.5"/>
<text text-anchor="middle" x="38.5" y="-45.5" font-family="Helvetica,sans-Serif" font-size="10.00">eci2ecef_sofa</text>
</a>
</g>
</g>
<!-- Node2&#45;&gt;Node3 -->
<g id="edge2" class="edge">
<title>Node2&#45;&gt;Node3</title>
<path fill="none" stroke="midnightblue" d="M102.93,-36.01C94.56,-37.59 85.68,-39.27 77.28,-40.86"/>
<polygon fill="midnightblue" stroke="midnightblue" points="103.63,-39.44 112.8,-34.14 102.33,-32.56 103.63,-39.44"/>
</g>
<!-- Node10 -->
<g id="node4" class="node">
<title>Node10</title>
<g id="a_node4"><a xlink:href="sofa_8cpp.html#ab3fbe9315e026a1affa5e7cae83b1bfb" target="_top" xlink:title=" ">
<polygon fill="white" stroke="black" points="8,-0.5 8,-19.5 69,-19.5 69,-0.5 8,-0.5"/>
<text text-anchor="middle" x="38.5" y="-7.5" font-family="Helvetica,sans-Serif" font-size="10.00">iauGst06a</text>
</a>
</g>
</g>
<!-- Node2&#45;&gt;Node10 -->
<g id="edge3" class="edge">
<title>Node2&#45;&gt;Node10</title>
<path fill="none" stroke="midnightblue" d="M102.92,-21.99C91.81,-19.89 79.76,-17.61 69.19,-15.61"/>
<polygon fill="midnightblue" stroke="midnightblue" points="102.33,-25.44 112.8,-23.86 103.63,-18.56 102.33,-25.44"/>
</g>
</g>
</svg>
