<?xml version="1.0" encoding="UTF-8" standalone="no"?>
<!DOCTYPE svg PUBLIC "-//W3C//DTD SVG 1.1//EN"
 "http://www.w3.org/Graphics/SVG/1.1/DTD/svg11.dtd">
<!-- Generated by graphviz version 2.50.0 (20220203.2022)
 -->
<!-- Title: iauGmst06 Pages: 1 -->
<svg width="245pt" height="47pt"
 viewBox="0.00 0.00 245.00 47.00" xmlns="http://www.w3.org/2000/svg" xmlns:xlink="http://www.w3.org/1999/xlink">
<g id="graph0" class="graph" transform="scale(1 1) rotate(0) translate(4 43)">
<title>iauGmst06</title>
<polygon fill="white" stroke="transparent" points="-4,4 -4,-43 241,-43 241,4 -4,4"/>
<!-- Node1 -->
<g id="node1" class="node">
<title>Node1</title>
<g id="a_node1"><a xlink:title=" ">
<polygon fill="#bfbfbf" stroke="black" points="0,-19.5 0,-38.5 64,-38.5 64,-19.5 0,-19.5"/>
<text text-anchor="middle" x="32" y="-26.5" font-family="Helvetica,sans-Serif" font-size="10.00">iauGmst06</text>
</a>
</g>
</g>
<!-- Node2 -->
<g id="node2" class="node">
<title>Node2</title>
<g id="a_node2"><a xlink:href="sofa_8cpp.html#a98a8080494cb2e9b104d037623fc84ad" target="_top" xlink:title=" ">
<polygon fill="white" stroke="black" points="190,-19.5 190,-38.5 237,-38.5 237,-19.5 190,-19.5"/>
<text text-anchor="middle" x="213.5" y="-26.5" font-family="Helvetica,sans-Serif" font-size="10.00">iauAnp</text>
</a>
</g>
</g>
<!-- Node1&#45;&gt;Node2 -->
<g id="edge1" class="edge">
<title>Node1&#45;&gt;Node2</title>
<path fill="none" stroke="midnightblue" d="M64.27,-29C96.62,-29 146.94,-29 179.81,-29"/>
<polygon fill="midnightblue" stroke="midnightblue" points="179.83,-32.5 189.83,-29 179.83,-25.5 179.83,-32.5"/>
</g>
<!-- Node3 -->
<g id="node3" class="node">
<title>Node3</title>
<g id="a_node3"><a xlink:href="sofa_8cpp.html#a1d5780c2d869da41106c5fb5a426a9a7" target="_top" xlink:title=" ">
<polygon fill="white" stroke="black" points="100,-0.5 100,-19.5 154,-19.5 154,-0.5 100,-0.5"/>
<text text-anchor="middle" x="127" y="-7.5" font-family="Helvetica,sans-Serif" font-size="10.00">iauEra00</text>
</a>
</g>
</g>
<!-- Node1&#45;&gt;Node3 -->
<g id="edge2" class="edge">
<title>Node1&#45;&gt;Node3</title>
<path fill="none" stroke="midnightblue" d="M64.23,-22.62C72.48,-20.93 81.46,-19.1 89.94,-17.37"/>
<polygon fill="midnightblue" stroke="midnightblue" points="90.87,-20.75 99.97,-15.32 89.47,-13.89 90.87,-20.75"/>
</g>
<!-- Node3&#45;&gt;Node2 -->
<g id="edge3" class="edge">
<title>Node3&#45;&gt;Node2</title>
<path fill="none" stroke="midnightblue" d="M154.27,-15.91C162.4,-17.74 171.46,-19.77 179.96,-21.68"/>
<polygon fill="midnightblue" stroke="midnightblue" points="179.42,-25.15 189.95,-23.93 180.96,-18.32 179.42,-25.15"/>
</g>
</g>
</svg>
