<?xml version="1.0" encoding="UTF-8" standalone="no"?>
<!DOCTYPE svg PUBLIC "-//W3C//DTD SVG 1.1//EN"
 "http://www.w3.org/Graphics/SVG/1.1/DTD/svg11.dtd">
<!-- Generated by graphviz version 2.50.0 (20220203.2022)
 -->
<!-- Title: iauFalp03 Pages: 1 -->
<svg width="242pt" height="28pt"
 viewBox="0.00 0.00 242.00 28.00" xmlns="http://www.w3.org/2000/svg" xmlns:xlink="http://www.w3.org/1999/xlink">
<g id="graph0" class="graph" transform="scale(1 1) rotate(0) translate(4 24)">
<title>iauFalp03</title>
<polygon fill="white" stroke="transparent" points="-4,4 -4,-24 238,-24 238,4 -4,4"/>
<!-- Node1 -->
<g id="node1" class="node">
<title>Node1</title>
<g id="a_node1"><a xlink:title=" ">
<polygon fill="#bfbfbf" stroke="black" points="175,-0.5 175,-19.5 234,-19.5 234,-0.5 175,-0.5"/>
<text text-anchor="middle" x="204.5" y="-7.5" font-family="Helvetica,sans-Serif" font-size="10.00">iauFalp03</text>
</a>
</g>
</g>
<!-- Node2 -->
<g id="node2" class="node">
<title>Node2</title>
<g id="a_node2"><a xlink:href="sofa_8cpp.html#a8b5b5ca6a675bb3a3d8862ab0c1549e2" target="_top" xlink:title=" ">
<polygon fill="white" stroke="black" points="92,-0.5 92,-19.5 139,-19.5 139,-0.5 92,-0.5"/>
<text text-anchor="middle" x="115.5" y="-7.5" font-family="Helvetica,sans-Serif" font-size="10.00">iauS06</text>
</a>
</g>
</g>
<!-- Node1&#45;&gt;Node2 -->
<g id="edge1" class="edge">
<title>Node1&#45;&gt;Node2</title>
<path fill="none" stroke="midnightblue" d="M164.49,-10C155.77,-10 146.8,-10 139.02,-10"/>
<polygon fill="midnightblue" stroke="midnightblue" points="164.53,-13.5 174.53,-10 164.53,-6.5 164.53,-13.5"/>
</g>
<!-- Node3 -->
<g id="node3" class="node">
<title>Node3</title>
<g id="a_node3"><a xlink:href="sofa_8cpp.html#a3b42028734d3ce7dd47e3d81ca892644" target="_top" xlink:title=" ">
<polygon fill="white" stroke="red" points="0,-0.5 0,-19.5 56,-19.5 56,-0.5 0,-0.5"/>
<text text-anchor="middle" x="28" y="-7.5" font-family="Helvetica,sans-Serif" font-size="10.00">iauGst06</text>
</a>
</g>
</g>
<!-- Node2&#45;&gt;Node3 -->
<g id="edge2" class="edge">
<title>Node2&#45;&gt;Node3</title>
<path fill="none" stroke="midnightblue" d="M81.41,-10C73.09,-10 64.24,-10 56.23,-10"/>
<polygon fill="midnightblue" stroke="midnightblue" points="81.59,-13.5 91.59,-10 81.59,-6.5 81.59,-13.5"/>
</g>
</g>
</svg>
