<?xml version="1.0" encoding="UTF-8" standalone="no"?>
<!DOCTYPE svg PUBLIC "-//W3C//DTD SVG 1.1//EN"
 "http://www.w3.org/Graphics/SVG/1.1/DTD/svg11.dtd">
<!-- Generated by graphviz version 2.50.0 (20220203.2022)
 -->
<!-- Title: iauPnm06a Pages: 1 -->
<svg width="341pt" height="142pt"
 viewBox="0.00 0.00 341.00 142.00" xmlns="http://www.w3.org/2000/svg" xmlns:xlink="http://www.w3.org/1999/xlink">
<g id="graph0" class="graph" transform="scale(1 1) rotate(0) translate(4 138)">
<title>iauPnm06a</title>
<polygon fill="white" stroke="transparent" points="-4,4 -4,-138 337,-138 337,4 -4,4"/>
<!-- Node1 -->
<g id="node1" class="node">
<title>Node1</title>
<g id="a_node1"><a xlink:title=" ">
<polygon fill="#bfbfbf" stroke="black" points="268,-38.5 268,-57.5 333,-57.5 333,-38.5 268,-38.5"/>
<text text-anchor="middle" x="300.5" y="-45.5" font-family="Helvetica,sans-Serif" font-size="10.00">iauPnm06a</text>
</a>
</g>
</g>
<!-- Node2 -->
<g id="node2" class="node">
<title>Node2</title>
<g id="a_node2"><a xlink:href="rtkcmn_8cpp.html#a470bf7b49dcb299ab533958252a1dfe0" target="_top" xlink:title="eci to ecef transformation matrix using the sofa library">
<polygon fill="white" stroke="black" points="155,-57.5 155,-76.5 232,-76.5 232,-57.5 155,-57.5"/>
<text text-anchor="middle" x="193.5" y="-64.5" font-family="Helvetica,sans-Serif" font-size="10.00">eci2ecef_sofa</text>
</a>
</g>
</g>
<!-- Node1&#45;&gt;Node2 -->
<g id="edge1" class="edge">
<title>Node1&#45;&gt;Node2</title>
<path fill="none" stroke="midnightblue" d="M257.93,-55.52C249.47,-57.05 240.6,-58.66 232.28,-60.16"/>
<polygon fill="midnightblue" stroke="midnightblue" points="258.78,-58.93 268,-53.7 257.53,-52.04 258.78,-58.93"/>
</g>
<!-- Node9 -->
<g id="node7" class="node">
<title>Node9</title>
<g id="a_node7"><a xlink:href="sofa_8cpp.html#ab3fbe9315e026a1affa5e7cae83b1bfb" target="_top" xlink:title=" ">
<polygon fill="white" stroke="black" points="163,-19.5 163,-38.5 224,-38.5 224,-19.5 163,-19.5"/>
<text text-anchor="middle" x="193.5" y="-26.5" font-family="Helvetica,sans-Serif" font-size="10.00">iauGst06a</text>
</a>
</g>
</g>
<!-- Node1&#45;&gt;Node9 -->
<g id="edge6" class="edge">
<title>Node1&#45;&gt;Node9</title>
<path fill="none" stroke="midnightblue" d="M257.9,-40.47C246.63,-38.43 234.65,-36.27 224.18,-34.37"/>
<polygon fill="midnightblue" stroke="midnightblue" points="257.53,-43.96 268,-42.3 258.78,-37.07 257.53,-43.96"/>
</g>
<!-- Node3 -->
<g id="node3" class="node">
<title>Node3</title>
<g id="a_node3"><a xlink:href="rtkcmn_8cpp.html#ac2b6cc31f68b273128f1a15ff409b1e9" target="_top" xlink:title="vector transformed from ecef to eci using the sofa library">
<polygon fill="white" stroke="black" points="21,-114.5 21,-133.5 98,-133.5 98,-114.5 21,-114.5"/>
<text text-anchor="middle" x="59.5" y="-121.5" font-family="Helvetica,sans-Serif" font-size="10.00">ecef2eci_sofa</text>
</a>
</g>
</g>
<!-- Node2&#45;&gt;Node3 -->
<g id="edge2" class="edge">
<title>Node2&#45;&gt;Node3</title>
<path fill="none" stroke="midnightblue" d="M166.97,-81.51C153.05,-89.08 135.37,-98.16 119,-105 110.72,-108.46 101.58,-111.69 93.03,-114.48"/>
<polygon fill="midnightblue" stroke="midnightblue" points="168.88,-84.45 175.94,-76.55 165.49,-78.32 168.88,-84.45"/>
</g>
<!-- Node4 -->
<g id="node4" class="node">
<title>Node4</title>
<g id="a_node4"><a xlink:href="rtkcmn_8cpp.html#acff32e24f536f55cf057586b5e157046" target="_top" xlink:title="vector transformed from eci to ecef using the sofa library">
<polygon fill="white" stroke="black" points="21,-76.5 21,-95.5 98,-95.5 98,-76.5 21,-76.5"/>
<text text-anchor="middle" x="59.5" y="-83.5" font-family="Helvetica,sans-Serif" font-size="10.00">eci2ecef_sofa</text>
</a>
</g>
</g>
<!-- Node2&#45;&gt;Node4 -->
<g id="edge3" class="edge">
<title>Node2&#45;&gt;Node4</title>
<path fill="none" stroke="midnightblue" d="M144.43,-73.92C129.24,-76.11 112.69,-78.49 98.33,-80.55"/>
<polygon fill="midnightblue" stroke="midnightblue" points="145.27,-77.33 154.67,-72.44 144.28,-70.41 145.27,-77.33"/>
</g>
<!-- Node5 -->
<g id="node5" class="node">
<title>Node5</title>
<g id="a_node5"><a xlink:href="structOrbitPropagator.html#ad6ae055f90d570dd668cf5965c4d06f9" target="_top" xlink:title="mjdUTC at the current moment">
<polygon fill="white" stroke="black" points="0,-38.5 0,-57.5 119,-57.5 119,-38.5 0,-38.5"/>
<text text-anchor="middle" x="59.5" y="-45.5" font-family="Helvetica,sans-Serif" font-size="10.00">OrbitPropagator::update</text>
</a>
</g>
</g>
<!-- Node2&#45;&gt;Node5 -->
<g id="edge4" class="edge">
<title>Node2&#45;&gt;Node5</title>
<path fill="none" stroke="midnightblue" d="M144.74,-60.13C136.39,-58.92 127.62,-57.66 119.02,-56.42"/>
<polygon fill="midnightblue" stroke="midnightblue" points="144.28,-63.59 154.67,-61.56 145.27,-56.67 144.28,-63.59"/>
</g>
<!-- Node6 -->
<g id="node6" class="node">
<title>Node6</title>
<g id="a_node6"><a xlink:href="forceModels_8cpp.html#adc8a87f58bb4e50044b472ffb013e651" target="_top" xlink:title="ODE of variational equation to be solved, i.e.">
<polygon fill="white" stroke="red" points="23.5,-0.5 23.5,-19.5 95.5,-19.5 95.5,-0.5 23.5,-0.5"/>
<text text-anchor="middle" x="59.5" y="-7.5" font-family="Helvetica,sans-Serif" font-size="10.00">updateOrbits</text>
</a>
</g>
</g>
<!-- Node2&#45;&gt;Node6 -->
<g id="edge5" class="edge">
<title>Node2&#45;&gt;Node6</title>
<path fill="none" stroke="midnightblue" d="M164.22,-52.73C161.1,-51.14 157.98,-49.54 155,-48 138.93,-39.69 135.66,-36.04 119,-29 110.84,-25.55 101.82,-22.34 93.35,-19.58"/>
<polygon fill="midnightblue" stroke="midnightblue" points="162.89,-55.99 173.39,-57.4 166.06,-49.74 162.89,-55.99"/>
</g>
</g>
</svg>
