<?xml version="1.0" encoding="UTF-8" standalone="no"?>
<!DOCTYPE svg PUBLIC "-//W3C//DTD SVG 1.1//EN"
 "http://www.w3.org/Graphics/SVG/1.1/DTD/svg11.dtd">
<!-- Generated by graphviz version 2.50.0 (20220203.2022)
 -->
<!-- Title: iauRz Pages: 1 -->
<svg width="510pt" height="142pt"
 viewBox="0.00 0.00 510.00 142.00" xmlns="http://www.w3.org/2000/svg" xmlns:xlink="http://www.w3.org/1999/xlink">
<g id="graph0" class="graph" transform="scale(1 1) rotate(0) translate(4 138)">
<title>iauRz</title>
<polygon fill="white" stroke="transparent" points="-4,4 -4,-138 506,-138 506,4 -4,4"/>
<!-- Node1 -->
<g id="node1" class="node">
<title>Node1</title>
<g id="a_node1"><a xlink:title=" ">
<polygon fill="#bfbfbf" stroke="black" points="461,-57.5 461,-76.5 502,-76.5 502,-57.5 461,-57.5"/>
<text text-anchor="middle" x="481.5" y="-64.5" font-family="Helvetica,sans-Serif" font-size="10.00">iauRz</text>
</a>
</g>
</g>
<!-- Node2 -->
<g id="node2" class="node">
<title>Node2</title>
<g id="a_node2"><a xlink:href="rtkcmn_8cpp.html#a470bf7b49dcb299ab533958252a1dfe0" target="_top" xlink:title="eci to ecef transformation matrix using the sofa library">
<polygon fill="white" stroke="black" points="155,-57.5 155,-76.5 232,-76.5 232,-57.5 155,-57.5"/>
<text text-anchor="middle" x="193.5" y="-64.5" font-family="Helvetica,sans-Serif" font-size="10.00">eci2ecef_sofa</text>
</a>
</g>
</g>
<!-- Node1&#45;&gt;Node2 -->
<g id="edge1" class="edge">
<title>Node1&#45;&gt;Node2</title>
<path fill="none" stroke="midnightblue" d="M451.22,-79.03C442.89,-81.9 433.71,-84.55 425,-86 356.17,-97.46 337.22,-94.8 268,-86 253.36,-84.14 237.46,-80.27 224.2,-76.5"/>
<polygon fill="midnightblue" stroke="midnightblue" points="452.69,-82.22 460.87,-75.49 450.28,-75.65 452.69,-82.22"/>
</g>
<!-- Node9 -->
<g id="node7" class="node">
<title>Node9</title>
<g id="a_node7"><a xlink:href="sofa_8cpp.html#a84880f6e3e8e8b1094cea51066f03791" target="_top" xlink:title=" ">
<polygon fill="white" stroke="black" points="369,-57.5 369,-76.5 425,-76.5 425,-57.5 369,-57.5"/>
<text text-anchor="middle" x="397" y="-64.5" font-family="Helvetica,sans-Serif" font-size="10.00">iauFw2m</text>
</a>
</g>
</g>
<!-- Node1&#45;&gt;Node9 -->
<g id="edge6" class="edge">
<title>Node1&#45;&gt;Node9</title>
<path fill="none" stroke="midnightblue" d="M450.84,-67C442.48,-67 433.43,-67 425.21,-67"/>
<polygon fill="midnightblue" stroke="midnightblue" points="450.95,-70.5 460.95,-67 450.95,-63.5 450.95,-70.5"/>
</g>
<!-- Node12 -->
<g id="node9" class="node">
<title>Node12</title>
<g id="a_node9"><a xlink:href="sofa_8cpp.html#acc3eee0acc7723d3affd70713db52da6" target="_top" xlink:title=" ">
<polygon fill="white" stroke="black" points="270.5,-19.5 270.5,-38.5 330.5,-38.5 330.5,-19.5 270.5,-19.5"/>
<text text-anchor="middle" x="300.5" y="-26.5" font-family="Helvetica,sans-Serif" font-size="10.00">iauPom00</text>
</a>
</g>
</g>
<!-- Node1&#45;&gt;Node12 -->
<g id="edge9" class="edge">
<title>Node1&#45;&gt;Node12</title>
<path fill="none" stroke="midnightblue" d="M451.53,-56C443.07,-53.08 433.74,-50.15 425,-48 393.19,-40.17 355.94,-34.97 330.73,-32.02"/>
<polygon fill="midnightblue" stroke="midnightblue" points="450.38,-59.31 460.97,-59.37 452.73,-52.71 450.38,-59.31"/>
</g>
<!-- Node3 -->
<g id="node3" class="node">
<title>Node3</title>
<g id="a_node3"><a xlink:href="rtkcmn_8cpp.html#ac2b6cc31f68b273128f1a15ff409b1e9" target="_top" xlink:title="vector transformed from ecef to eci using the sofa library">
<polygon fill="white" stroke="black" points="21,-114.5 21,-133.5 98,-133.5 98,-114.5 21,-114.5"/>
<text text-anchor="middle" x="59.5" y="-121.5" font-family="Helvetica,sans-Serif" font-size="10.00">ecef2eci_sofa</text>
</a>
</g>
</g>
<!-- Node2&#45;&gt;Node3 -->
<g id="edge2" class="edge">
<title>Node2&#45;&gt;Node3</title>
<path fill="none" stroke="midnightblue" d="M166.97,-81.51C153.05,-89.08 135.37,-98.16 119,-105 110.72,-108.46 101.58,-111.69 93.03,-114.48"/>
<polygon fill="midnightblue" stroke="midnightblue" points="168.88,-84.45 175.94,-76.55 165.49,-78.32 168.88,-84.45"/>
</g>
<!-- Node4 -->
<g id="node4" class="node">
<title>Node4</title>
<g id="a_node4"><a xlink:href="rtkcmn_8cpp.html#acff32e24f536f55cf057586b5e157046" target="_top" xlink:title="vector transformed from eci to ecef using the sofa library">
<polygon fill="white" stroke="black" points="21,-76.5 21,-95.5 98,-95.5 98,-76.5 21,-76.5"/>
<text text-anchor="middle" x="59.5" y="-83.5" font-family="Helvetica,sans-Serif" font-size="10.00">eci2ecef_sofa</text>
</a>
</g>
</g>
<!-- Node2&#45;&gt;Node4 -->
<g id="edge3" class="edge">
<title>Node2&#45;&gt;Node4</title>
<path fill="none" stroke="midnightblue" d="M144.43,-73.92C129.24,-76.11 112.69,-78.49 98.33,-80.55"/>
<polygon fill="midnightblue" stroke="midnightblue" points="145.27,-77.33 154.67,-72.44 144.28,-70.41 145.27,-77.33"/>
</g>
<!-- Node5 -->
<g id="node5" class="node">
<title>Node5</title>
<g id="a_node5"><a xlink:href="structOrbitPropagator.html#ad6ae055f90d570dd668cf5965c4d06f9" target="_top" xlink:title="mjdUTC at the current moment">
<polygon fill="white" stroke="black" points="0,-38.5 0,-57.5 119,-57.5 119,-38.5 0,-38.5"/>
<text text-anchor="middle" x="59.5" y="-45.5" font-family="Helvetica,sans-Serif" font-size="10.00">OrbitPropagator::update</text>
</a>
</g>
</g>
<!-- Node2&#45;&gt;Node5 -->
<g id="edge4" class="edge">
<title>Node2&#45;&gt;Node5</title>
<path fill="none" stroke="midnightblue" d="M144.74,-60.13C136.39,-58.92 127.62,-57.66 119.02,-56.42"/>
<polygon fill="midnightblue" stroke="midnightblue" points="144.28,-63.59 154.67,-61.56 145.27,-56.67 144.28,-63.59"/>
</g>
<!-- Node6 -->
<g id="node6" class="node">
<title>Node6</title>
<g id="a_node6"><a xlink:href="forceModels_8cpp.html#adc8a87f58bb4e50044b472ffb013e651" target="_top" xlink:title="ODE of variational equation to be solved, i.e.">
<polygon fill="white" stroke="red" points="23.5,-0.5 23.5,-19.5 95.5,-19.5 95.5,-0.5 23.5,-0.5"/>
<text text-anchor="middle" x="59.5" y="-7.5" font-family="Helvetica,sans-Serif" font-size="10.00">updateOrbits</text>
</a>
</g>
</g>
<!-- Node2&#45;&gt;Node6 -->
<g id="edge5" class="edge">
<title>Node2&#45;&gt;Node6</title>
<path fill="none" stroke="midnightblue" d="M166.97,-52.49C153.05,-44.92 135.37,-35.84 119,-29 110.72,-25.54 101.58,-22.31 93.03,-19.52"/>
<polygon fill="midnightblue" stroke="midnightblue" points="165.49,-55.68 175.94,-57.45 168.88,-49.55 165.49,-55.68"/>
</g>
<!-- Node10 -->
<g id="node8" class="node">
<title>Node10</title>
<g id="a_node8"><a xlink:href="sofa_8cpp.html#af98e979c68de2a248f398a937ef9756a" target="_top" xlink:title=" ">
<polygon fill="white" stroke="red" points="268,-57.5 268,-76.5 333,-76.5 333,-57.5 268,-57.5"/>
<text text-anchor="middle" x="300.5" y="-64.5" font-family="Helvetica,sans-Serif" font-size="10.00">iauPnm06a</text>
</a>
</g>
</g>
<!-- Node9&#45;&gt;Node10 -->
<g id="edge7" class="edge">
<title>Node9&#45;&gt;Node10</title>
<path fill="none" stroke="midnightblue" d="M358.89,-67C350.42,-67 341.49,-67 333.26,-67"/>
<polygon fill="midnightblue" stroke="midnightblue" points="358.92,-70.5 368.92,-67 358.92,-63.5 358.92,-70.5"/>
</g>
<!-- Node10&#45;&gt;Node2 -->
<g id="edge8" class="edge">
<title>Node10&#45;&gt;Node2</title>
<path fill="none" stroke="midnightblue" d="M257.93,-67C249.47,-67 240.6,-67 232.28,-67"/>
<polygon fill="midnightblue" stroke="midnightblue" points="258,-70.5 268,-67 258,-63.5 258,-70.5"/>
</g>
<!-- Node12&#45;&gt;Node2 -->
<g id="edge10" class="edge">
<title>Node12&#45;&gt;Node2</title>
<path fill="none" stroke="midnightblue" d="M263.25,-42.12C249.37,-47.14 233.79,-52.78 220.99,-57.41"/>
<polygon fill="midnightblue" stroke="midnightblue" points="264.79,-45.28 273,-38.59 262.41,-38.7 264.79,-45.28"/>
</g>
</g>
</svg>
