<?xml version="1.0" encoding="UTF-8" standalone="no"?>
<!DOCTYPE svg PUBLIC "-//W3C//DTD SVG 1.1//EN"
 "http://www.w3.org/Graphics/SVG/1.1/DTD/svg11.dtd">
<!-- Generated by graphviz version 2.50.0 (20220203.2022)
 -->
<!-- Title: outputSp3 Pages: 1 -->
<svg width="468pt" height="332pt"
 viewBox="0.00 0.00 468.00 332.42" xmlns="http://www.w3.org/2000/svg" xmlns:xlink="http://www.w3.org/1999/xlink">
<g id="graph0" class="graph" transform="scale(1 1) rotate(0) translate(4 328.42)">
<title>outputSp3</title>
<polygon fill="white" stroke="transparent" points="-4,4 -4,-328.42 464,-328.42 464,4 -4,4"/>
<!-- Node1 -->
<g id="node1" class="node">
<title>Node1</title>
<g id="a_node1"><a xlink:title=" ">
<polygon fill="#bfbfbf" stroke="black" points="0,-152.5 0,-171.5 61,-171.5 61,-152.5 0,-152.5"/>
<text text-anchor="middle" x="30.5" y="-159.5" font-family="Helvetica,sans-Serif" font-size="10.00">outputSp3</text>
</a>
</g>
</g>
<!-- Node2 -->
<g id="node2" class="node">
<title>Node2</title>
<g id="a_node2"><a xlink:href="rinexClkWrite_8cpp.html#ae105b449da2c0d5e0ce91380d3b6907b" target="_top" xlink:title=" ">
<polygon fill="white" stroke="black" points="97,-228.5 97,-247.5 218,-247.5 218,-228.5 97,-228.5"/>
<text text-anchor="middle" x="157.5" y="-235.5" font-family="Helvetica,sans-Serif" font-size="10.00">getSysOutputFilenames</text>
</a>
</g>
</g>
<!-- Node1&#45;&gt;Node2 -->
<g id="edge1" class="edge">
<title>Node1&#45;&gt;Node2</title>
<path fill="none" stroke="midnightblue" d="M47.33,-171.63C68.75,-184.65 107.14,-207.99 132.22,-223.24"/>
<polygon fill="midnightblue" stroke="midnightblue" points="130.43,-226.25 140.8,-228.45 134.07,-220.27 130.43,-226.25"/>
</g>
<!-- Node7 -->
<g id="node7" class="node">
<title>Node7</title>
<g id="a_node7"><a xlink:href="sp3Write_8cpp.html#a53c4eda35c9ccdfe9aa683fb0272c8c0" target="_top" xlink:title=" ">
<polygon fill="white" stroke="black" points="114.5,-95.5 114.5,-114.5 200.5,-114.5 200.5,-95.5 114.5,-95.5"/>
<text text-anchor="middle" x="157.5" y="-102.5" font-family="Helvetica,sans-Serif" font-size="10.00">writeSysSetSp3</text>
</a>
</g>
</g>
<!-- Node1&#45;&gt;Node7 -->
<g id="edge8" class="edge">
<title>Node1&#45;&gt;Node7</title>
<path fill="none" stroke="midnightblue" d="M52.42,-152.46C72.61,-143.25 103.4,-129.22 126.25,-118.79"/>
<polygon fill="midnightblue" stroke="midnightblue" points="127.86,-121.91 135.51,-114.57 124.96,-115.54 127.86,-121.91"/>
</g>
<!-- Node3 -->
<g id="node3" class="node">
<title>Node3</title>
<g id="a_node3"><a xlink:href="acsConfig_8cpp.html#a4384ae3d8da08f4e8562857e46291559" target="_top" xlink:title="search for and replace section of string">
<polygon fill="white" stroke="black" points="386,-303.5 386,-322.5 460,-322.5 460,-303.5 386,-303.5"/>
<text text-anchor="middle" x="423" y="-310.5" font-family="Helvetica,sans-Serif" font-size="10.00">replaceString</text>
</a>
</g>
</g>
<!-- Node2&#45;&gt;Node3 -->
<g id="edge2" class="edge">
<title>Node2&#45;&gt;Node3</title>
<path fill="none" stroke="midnightblue" d="M166.48,-247.51C181.51,-264.57 215.94,-299.84 254,-313 293.35,-326.6 341.04,-325.04 375.55,-320.99"/>
<polygon fill="midnightblue" stroke="midnightblue" points="376.34,-324.42 385.81,-319.67 375.44,-317.47 376.34,-324.42"/>
</g>
<!-- Node4 -->
<g id="node4" class="node">
<title>Node4</title>
<g id="a_node4"><a xlink:href="acsConfig_8cpp.html#a75a34dc41e76a8680e3aa6d62ff4c800" target="_top" xlink:title="Replace macros for times with numeric values.">
<polygon fill="white" stroke="black" points="264.5,-284.5 264.5,-303.5 339.5,-303.5 339.5,-284.5 264.5,-284.5"/>
<text text-anchor="middle" x="302" y="-291.5" font-family="Helvetica,sans-Serif" font-size="10.00">replaceTimes</text>
</a>
</g>
</g>
<!-- Node2&#45;&gt;Node4 -->
<g id="edge3" class="edge">
<title>Node2&#45;&gt;Node4</title>
<path fill="none" stroke="midnightblue" d="M183,-247.63C206.28,-256.78 241.5,-270.62 267.4,-280.79"/>
<polygon fill="midnightblue" stroke="midnightblue" points="266.24,-284.1 276.82,-284.5 268.8,-277.58 266.24,-284.1"/>
</g>
<!-- Node5 -->
<g id="node5" class="node">
<title>Node5</title>
<g id="a_node5"><a xlink:href="structGTime.html#a7ed28cc28b05a43069702e96295be269" target="_top" xlink:title=" ">
<polygon fill="white" stroke="black" points="254,-228.5 254,-247.5 350,-247.5 350,-228.5 254,-228.5"/>
<text text-anchor="middle" x="302" y="-235.5" font-family="Helvetica,sans-Serif" font-size="10.00">GTime::roundTime</text>
</a>
</g>
</g>
<!-- Node2&#45;&gt;Node5 -->
<g id="edge5" class="edge">
<title>Node2&#45;&gt;Node5</title>
<path fill="none" stroke="midnightblue" d="M218.11,-238C226.57,-238 235.25,-238 243.66,-238"/>
<polygon fill="midnightblue" stroke="midnightblue" points="243.76,-241.5 253.76,-238 243.76,-234.5 243.76,-241.5"/>
</g>
<!-- Node6 -->
<g id="node6" class="node">
<title>Node6</title>
<g id="a_node6"><a xlink:href="structSatSys.html#abfd7e43b0d57c2718d05ca595ee360dd" target="_top" xlink:title="Returns the character used as a prefix for this system.">
<polygon fill="white" stroke="black" points="258,-190.5 258,-209.5 346,-209.5 346,-190.5 258,-190.5"/>
<text text-anchor="middle" x="302" y="-197.5" font-family="Helvetica,sans-Serif" font-size="10.00">SatSys::sysChar</text>
</a>
</g>
</g>
<!-- Node2&#45;&gt;Node6 -->
<g id="edge7" class="edge">
<title>Node2&#45;&gt;Node6</title>
<path fill="none" stroke="midnightblue" d="M194.46,-228.41C212.94,-223.48 235.66,-217.43 255.36,-212.17"/>
<polygon fill="midnightblue" stroke="midnightblue" points="256.29,-215.54 265.05,-209.59 254.49,-208.78 256.29,-215.54"/>
</g>
<!-- Node4&#45;&gt;Node3 -->
<g id="edge4" class="edge">
<title>Node4&#45;&gt;Node3</title>
<path fill="none" stroke="midnightblue" d="M339.67,-299.86C350.98,-301.66 363.58,-303.67 375.45,-305.57"/>
<polygon fill="midnightblue" stroke="midnightblue" points="375.22,-309.08 385.65,-307.2 376.33,-302.16 375.22,-309.08"/>
</g>
<!-- Node5&#45;&gt;Node5 -->
<g id="edge6" class="edge">
<title>Node5&#45;&gt;Node5</title>
<path fill="none" stroke="midnightblue" d="M283.5,-247.76C274.51,-256.57 280.67,-266 302,-266 315.66,-266 323.1,-262.13 324.32,-257.03"/>
<polygon fill="midnightblue" stroke="midnightblue" points="327.55,-255.67 320.5,-247.76 321.07,-258.34 327.55,-255.67"/>
</g>
<!-- Node8 -->
<g id="node8" class="node">
<title>Node8</title>
<g id="a_node8"><a xlink:href="antenna_8cpp.html#a034836f3266a59abe9199c55e50dbe8b" target="_top" xlink:title=" ">
<polygon fill="white" stroke="black" points="268,-152.5 268,-171.5 336,-171.5 336,-152.5 268,-152.5"/>
<text text-anchor="middle" x="302" y="-159.5" font-family="Helvetica,sans-Serif" font-size="10.00">findAntenna</text>
</a>
</g>
</g>
<!-- Node7&#45;&gt;Node8 -->
<g id="edge9" class="edge">
<title>Node7&#45;&gt;Node8</title>
<path fill="none" stroke="midnightblue" d="M182.35,-114.54C205.68,-123.87 241.4,-138.16 267.56,-148.62"/>
<polygon fill="midnightblue" stroke="midnightblue" points="266.49,-151.96 277.07,-152.43 269.09,-145.46 266.49,-151.96"/>
</g>
<!-- Node9 -->
<g id="node9" class="node">
<title>Node9</title>
<g id="a_node9"><a xlink:href="structSatSys.html#aa31d14f6b8c2100c085c732b9a3fef3f" target="_top" xlink:title="Constructs a SatSys object from it&#39;s hash uid.">
<polygon fill="white" stroke="black" points="254.5,-114.5 254.5,-133.5 349.5,-133.5 349.5,-114.5 254.5,-114.5"/>
<text text-anchor="middle" x="302" y="-121.5" font-family="Helvetica,sans-Serif" font-size="10.00">SatSys::fromHash</text>
</a>
</g>
</g>
<!-- Node7&#45;&gt;Node9 -->
<g id="edge10" class="edge">
<title>Node7&#45;&gt;Node9</title>
<path fill="none" stroke="midnightblue" d="M200.87,-110.65C214.4,-112.45 229.61,-114.48 244.01,-116.4"/>
<polygon fill="midnightblue" stroke="midnightblue" points="243.94,-119.92 254.31,-117.77 244.86,-112.98 243.94,-119.92"/>
</g>
<!-- Node10 -->
<g id="node10" class="node">
<title>Node10</title>
<g id="a_node10"><a xlink:href="structSatSys.html#aec6d07b90d1e8172b8b6a6966abef4fd" target="_top" xlink:title="Returns a std::string of this satellite&#39;s id.">
<polygon fill="white" stroke="red" points="393,-57.5 393,-76.5 453,-76.5 453,-57.5 393,-57.5"/>
<text text-anchor="middle" x="423" y="-64.5" font-family="Helvetica,sans-Serif" font-size="10.00">SatSys::id</text>
</a>
</g>
</g>
<!-- Node7&#45;&gt;Node10 -->
<g id="edge11" class="edge">
<title>Node7&#45;&gt;Node10</title>
<path fill="none" stroke="midnightblue" d="M200.54,-98.94C250.63,-91.71 333.65,-79.74 382.56,-72.69"/>
<polygon fill="midnightblue" stroke="midnightblue" points="383.35,-76.11 392.75,-71.22 382.35,-69.18 383.35,-76.11"/>
</g>
<!-- Node12 -->
<g id="node11" class="node">
<title>Node12</title>
<g id="a_node11"><a xlink:href="ephemeris_8cpp.html#a8d3c308314354139cf1e890cdf6bead2" target="_top" xlink:title=" ">
<polygon fill="white" stroke="red" points="279,-38.5 279,-57.5 325,-57.5 325,-38.5 279,-38.5"/>
<text text-anchor="middle" x="302" y="-45.5" font-family="Helvetica,sans-Serif" font-size="10.00">satpos</text>
</a>
</g>
</g>
<!-- Node7&#45;&gt;Node12 -->
<g id="edge12" class="edge">
<title>Node7&#45;&gt;Node12</title>
<path fill="none" stroke="midnightblue" d="M182.35,-95.46C206.24,-85.9 243.13,-71.15 269.43,-60.63"/>
<polygon fill="midnightblue" stroke="midnightblue" points="270.96,-63.78 278.95,-56.82 268.36,-57.29 270.96,-63.78"/>
</g>
<!-- Node58 -->
<g id="node12" class="node">
<title>Node58</title>
<g id="a_node12"><a xlink:href="sp3Write_8cpp.html#ad7758ef92662b89e46d4a9650eb3a840" target="_top" xlink:title=" ">
<polygon fill="white" stroke="red" points="259.5,-0.5 259.5,-19.5 344.5,-19.5 344.5,-0.5 259.5,-0.5"/>
<text text-anchor="middle" x="302" y="-7.5" font-family="Helvetica,sans-Serif" font-size="10.00">updateSp3Body</text>
</a>
</g>
</g>
<!-- Node7&#45;&gt;Node58 -->
<g id="edge14" class="edge">
<title>Node7&#45;&gt;Node58</title>
<path fill="none" stroke="midnightblue" d="M168.65,-95.26C185.35,-79.65 220.14,-48.76 254,-29 257.23,-27.11 260.68,-25.33 264.2,-23.67"/>
<polygon fill="midnightblue" stroke="midnightblue" points="265.78,-26.8 273.52,-19.56 262.96,-20.39 265.78,-26.8"/>
</g>
<!-- Node12&#45;&gt;Node10 -->
<g id="edge13" class="edge">
<title>Node12&#45;&gt;Node10</title>
<path fill="none" stroke="midnightblue" d="M325.1,-51.53C341.28,-54.11 363.67,-57.69 382.85,-60.75"/>
<polygon fill="midnightblue" stroke="midnightblue" points="382.4,-64.22 392.83,-62.34 383.5,-57.31 382.4,-64.22"/>
</g>
</g>
</svg>
