<?xml version="1.0" encoding="UTF-8" standalone="no"?>
<!DOCTYPE svg PUBLIC "-//W3C//DTD SVG 1.1//EN"
 "http://www.w3.org/Graphics/SVG/1.1/DTD/svg11.dtd">
<!-- Generated by graphviz version 2.50.0 (20220203.2022)
 -->
<!-- Title: writeSysSetSp3 Pages: 1 -->
<svg width="471pt" height="398pt"
 viewBox="0.00 0.00 471.00 398.00" xmlns="http://www.w3.org/2000/svg" xmlns:xlink="http://www.w3.org/1999/xlink">
<g id="graph0" class="graph" transform="scale(1 1) rotate(0) translate(4 394)">
<title>writeSysSetSp3</title>
<polygon fill="white" stroke="transparent" points="-4,4 -4,-394 467,-394 467,4 -4,4"/>
<!-- Node1 -->
<g id="node1" class="node">
<title>Node1</title>
<g id="a_node1"><a xlink:title=" ">
<polygon fill="#bfbfbf" stroke="black" points="0,-275.5 0,-294.5 86,-294.5 86,-275.5 0,-275.5"/>
<text text-anchor="middle" x="43" y="-282.5" font-family="Helvetica,sans-Serif" font-size="10.00">writeSysSetSp3</text>
</a>
</g>
</g>
<!-- Node2 -->
<g id="node2" class="node">
<title>Node2</title>
<g id="a_node2"><a xlink:href="antenna_8cpp.html#a034836f3266a59abe9199c55e50dbe8b" target="_top" xlink:title=" ">
<polygon fill="white" stroke="black" points="135.5,-351.5 135.5,-370.5 203.5,-370.5 203.5,-351.5 135.5,-351.5"/>
<text text-anchor="middle" x="169.5" y="-358.5" font-family="Helvetica,sans-Serif" font-size="10.00">findAntenna</text>
</a>
</g>
</g>
<!-- Node1&#45;&gt;Node2 -->
<g id="edge1" class="edge">
<title>Node1&#45;&gt;Node2</title>
<path fill="none" stroke="midnightblue" d="M55.29,-294.63C69.95,-306.79 96.67,-327.85 122,-342 125.32,-343.85 128.85,-345.63 132.43,-347.29"/>
<polygon fill="midnightblue" stroke="midnightblue" points="131.34,-350.63 141.91,-351.43 134.15,-344.22 131.34,-350.63"/>
</g>
<!-- Node3 -->
<g id="node3" class="node">
<title>Node3</title>
<g id="a_node3"><a xlink:href="structSatSys.html#aa31d14f6b8c2100c085c732b9a3fef3f" target="_top" xlink:title="Constructs a SatSys object from it&#39;s hash uid.">
<polygon fill="white" stroke="black" points="122,-313.5 122,-332.5 217,-332.5 217,-313.5 122,-313.5"/>
<text text-anchor="middle" x="169.5" y="-320.5" font-family="Helvetica,sans-Serif" font-size="10.00">SatSys::fromHash</text>
</a>
</g>
</g>
<!-- Node1&#45;&gt;Node3 -->
<g id="edge2" class="edge">
<title>Node1&#45;&gt;Node3</title>
<path fill="none" stroke="midnightblue" d="M75.42,-294.59C91.19,-299.4 110.51,-305.3 127.44,-310.47"/>
<polygon fill="midnightblue" stroke="midnightblue" points="126.51,-313.84 137.09,-313.41 128.55,-307.15 126.51,-313.84"/>
</g>
<!-- Node4 -->
<g id="node4" class="node">
<title>Node4</title>
<g id="a_node4"><a xlink:href="structSatSys.html#aec6d07b90d1e8172b8b6a6966abef4fd" target="_top" xlink:title="Returns a std::string of this satellite&#39;s id.">
<polygon fill="white" stroke="black" points="266,-370.5 266,-389.5 326,-389.5 326,-370.5 266,-370.5"/>
<text text-anchor="middle" x="296" y="-377.5" font-family="Helvetica,sans-Serif" font-size="10.00">SatSys::id</text>
</a>
</g>
</g>
<!-- Node1&#45;&gt;Node4 -->
<g id="edge3" class="edge">
<title>Node1&#45;&gt;Node4</title>
<path fill="none" stroke="midnightblue" d="M86.08,-279.88C123.3,-277.49 177.67,-279.42 217,-304 242.41,-319.88 230.4,-341.33 253,-361 254.72,-362.49 256.57,-363.89 258.51,-365.19"/>
<polygon fill="midnightblue" stroke="midnightblue" points="256.98,-368.35 267.4,-370.31 260.48,-362.29 256.98,-368.35"/>
</g>
<!-- Node7 -->
<g id="node6" class="node">
<title>Node7</title>
<g id="a_node6"><a xlink:href="ephemeris_8cpp.html#a8d3c308314354139cf1e890cdf6bead2" target="_top" xlink:title=" ">
<polygon fill="white" stroke="black" points="146.5,-237.5 146.5,-256.5 192.5,-256.5 192.5,-237.5 146.5,-237.5"/>
<text text-anchor="middle" x="169.5" y="-244.5" font-family="Helvetica,sans-Serif" font-size="10.00">satpos</text>
</a>
</g>
</g>
<!-- Node1&#45;&gt;Node7 -->
<g id="edge5" class="edge">
<title>Node1&#45;&gt;Node7</title>
<path fill="none" stroke="midnightblue" d="M75.42,-275.41C94.1,-269.71 117.74,-262.49 136.53,-256.76"/>
<polygon fill="midnightblue" stroke="midnightblue" points="137.58,-260.1 146.13,-253.83 135.54,-253.4 137.58,-260.1"/>
</g>
<!-- Node53 -->
<g id="node14" class="node">
<title>Node53</title>
<g id="a_node14"><a xlink:href="sp3Write_8cpp.html#ad7758ef92662b89e46d4a9650eb3a840" target="_top" xlink:title=" ">
<polygon fill="white" stroke="black" points="127,-47.5 127,-66.5 212,-66.5 212,-47.5 127,-47.5"/>
<text text-anchor="middle" x="169.5" y="-54.5" font-family="Helvetica,sans-Serif" font-size="10.00">updateSp3Body</text>
</a>
</g>
</g>
<!-- Node1&#45;&gt;Node53 -->
<g id="edge19" class="edge">
<title>Node1&#45;&gt;Node53</title>
<path fill="none" stroke="midnightblue" d="M49.19,-275.49C68.06,-240.95 133.19,-121.66 158.41,-75.47"/>
<polygon fill="midnightblue" stroke="midnightblue" points="161.57,-77 163.29,-66.55 155.42,-73.65 161.57,-77"/>
</g>
<!-- Node5 -->
<g id="node5" class="node">
<title>Node5</title>
<g id="a_node5"><a xlink:href="structSatSys.html#adbdf98ba1ef1f22b6aaed93916529513" target="_top" xlink:title="Sets a 4 character c_string of this satellite&#39;s id.">
<polygon fill="white" stroke="red" points="382,-370.5 382,-389.5 456,-389.5 456,-370.5 382,-370.5"/>
<text text-anchor="middle" x="419" y="-377.5" font-family="Helvetica,sans-Serif" font-size="10.00">SatSys::getId</text>
</a>
</g>
</g>
<!-- Node4&#45;&gt;Node5 -->
<g id="edge4" class="edge">
<title>Node4&#45;&gt;Node5</title>
<path fill="none" stroke="midnightblue" d="M326.29,-380C339.82,-380 356.21,-380 371.37,-380"/>
<polygon fill="midnightblue" stroke="midnightblue" points="371.62,-383.5 381.62,-380 371.62,-376.5 371.62,-383.5"/>
</g>
<!-- Node7&#45;&gt;Node4 -->
<g id="edge7" class="edge">
<title>Node7&#45;&gt;Node4</title>
<path fill="none" stroke="midnightblue" d="M192.54,-254.51C201.1,-258.33 210.4,-263.74 217,-271 245.97,-302.89 223.22,-329.87 253,-361 254.37,-362.43 255.87,-363.76 257.45,-365"/>
<polygon fill="midnightblue" stroke="midnightblue" points="255.66,-368.01 265.97,-370.44 259.43,-362.11 255.66,-368.01"/>
</g>
<!-- Node8 -->
<g id="node7" class="node">
<title>Node8</title>
<g id="a_node7"><a xlink:href="ephemeris_8cpp.html#ab387654b0425d2c50b5b539400e122d1" target="_top" xlink:title=" ">
<polygon fill="white" stroke="red" points="395,-161.5 395,-180.5 443,-180.5 443,-161.5 395,-161.5"/>
<text text-anchor="middle" x="419" y="-168.5" font-family="Helvetica,sans-Serif" font-size="10.00">ephpos</text>
</a>
</g>
</g>
<!-- Node7&#45;&gt;Node8 -->
<g id="edge6" class="edge">
<title>Node7&#45;&gt;Node8</title>
<path fill="none" stroke="midnightblue" d="M177.05,-237.41C189.48,-220.17 218.35,-184.53 253,-171 296.17,-154.15 350.66,-158.59 384.93,-164.15"/>
<polygon fill="midnightblue" stroke="midnightblue" points="384.43,-167.61 394.89,-165.89 385.64,-160.72 384.43,-167.61"/>
</g>
<!-- Node26 -->
<g id="node8" class="node">
<title>Node26</title>
<g id="a_node8"><a xlink:href="ephemeris_8cpp.html#a9b8aa496bacec0c8a8a76cac9adeb727" target="_top" xlink:title=" ">
<polygon fill="white" stroke="red" points="263.5,-104.5 263.5,-123.5 328.5,-123.5 328.5,-104.5 263.5,-104.5"/>
<text text-anchor="middle" x="296" y="-111.5" font-family="Helvetica,sans-Serif" font-size="10.00">kalmanPos</text>
</a>
</g>
</g>
<!-- Node7&#45;&gt;Node26 -->
<g id="edge8" class="edge">
<title>Node7&#45;&gt;Node26</title>
<path fill="none" stroke="midnightblue" d="M176.03,-237.22C187.96,-216.77 217.88,-168.86 253,-138 256.75,-134.71 261.01,-131.65 265.36,-128.9"/>
<polygon fill="midnightblue" stroke="midnightblue" points="267.38,-131.77 274.25,-123.7 263.85,-125.73 267.38,-131.77"/>
</g>
<!-- Node28 -->
<g id="node9" class="node">
<title>Node28</title>
<g id="a_node9"><a xlink:href="preceph_8cpp.html#a5de24b59b2c115a07bdf76fca0efdda8" target="_top" xlink:title=" ">
<polygon fill="white" stroke="red" points="266.5,-332.5 266.5,-351.5 325.5,-351.5 325.5,-332.5 266.5,-332.5"/>
<text text-anchor="middle" x="296" y="-339.5" font-family="Helvetica,sans-Serif" font-size="10.00">peph2pos</text>
</a>
</g>
</g>
<!-- Node7&#45;&gt;Node28 -->
<g id="edge9" class="edge">
<title>Node7&#45;&gt;Node28</title>
<path fill="none" stroke="midnightblue" d="M192.55,-255.92C200.72,-259.84 209.75,-264.94 217,-271 237.18,-287.89 233.19,-300.69 253,-318 256.75,-321.28 261.03,-324.33 265.38,-327.08"/>
<polygon fill="midnightblue" stroke="midnightblue" points="263.87,-330.25 274.26,-332.28 267.4,-324.21 263.87,-330.25"/>
</g>
<!-- Node36 -->
<g id="node10" class="node">
<title>Node36</title>
<g id="a_node10"><a xlink:href="preceph_8cpp.html#a1e3783257a7c3cce97cf6c8064bdb335" target="_top" xlink:title=" ">
<polygon fill="white" stroke="red" points="269,-256.5 269,-275.5 323,-275.5 323,-256.5 269,-256.5"/>
<text text-anchor="middle" x="296" y="-263.5" font-family="Helvetica,sans-Serif" font-size="10.00">satantoff</text>
</a>
</g>
</g>
<!-- Node7&#45;&gt;Node36 -->
<g id="edge10" class="edge">
<title>Node7&#45;&gt;Node36</title>
<path fill="none" stroke="midnightblue" d="M192.76,-250.4C211.03,-253.19 237.28,-257.19 258.6,-260.44"/>
<polygon fill="midnightblue" stroke="midnightblue" points="258.2,-263.92 268.62,-261.97 259.26,-257 258.2,-263.92"/>
</g>
<!-- Node18 -->
<g id="node11" class="node">
<title>Node18</title>
<g id="a_node11"><a xlink:href="structGTime.html#a64394968bbfdecbbeec4ba5134fdb682" target="_top" xlink:title=" ">
<polygon fill="white" stroke="red" points="375,-218.5 375,-237.5 463,-237.5 463,-218.5 375,-218.5"/>
<text text-anchor="middle" x="419" y="-225.5" font-family="Helvetica,sans-Serif" font-size="10.00">GTime::to_string</text>
</a>
</g>
</g>
<!-- Node7&#45;&gt;Node18 -->
<g id="edge17" class="edge">
<title>Node7&#45;&gt;Node18</title>
<path fill="none" stroke="midnightblue" d="M192.9,-245.28C231.47,-242.32 311.41,-236.18 364.89,-232.08"/>
<polygon fill="midnightblue" stroke="midnightblue" points="365.18,-235.57 374.88,-231.31 364.64,-228.59 365.18,-235.57"/>
</g>
<!-- Node35 -->
<g id="node12" class="node">
<title>Node35</title>
<g id="a_node12"><a xlink:href="streamTrace_8cpp.html#a26d8a8c49d22d1ec101a45f8ee2e1fcc" target="_top" xlink:title=" ">
<polygon fill="white" stroke="black" points="392,-256.5 392,-275.5 446,-275.5 446,-256.5 392,-256.5"/>
<text text-anchor="middle" x="419" y="-263.5" font-family="Helvetica,sans-Serif" font-size="10.00">tracepde</text>
</a>
</g>
</g>
<!-- Node7&#45;&gt;Node35 -->
<g id="edge18" class="edge">
<title>Node7&#45;&gt;Node35</title>
<path fill="none" stroke="midnightblue" d="M188.82,-256.56C208.95,-266.87 240.14,-282.18 253,-285 296.78,-294.6 348.22,-285.54 381.88,-276.94"/>
<polygon fill="midnightblue" stroke="midnightblue" points="382.97,-280.27 391.73,-274.31 381.16,-273.51 382.97,-280.27"/>
</g>
<!-- Node47 -->
<g id="node13" class="node">
<title>Node47</title>
<g id="a_node13"><a xlink:href="ephemeris_8cpp.html#ac837b0f37e00dcd5e15c87d5bffe4ab8" target="_top" xlink:title=" ">
<polygon fill="white" stroke="red" points="263.5,-180.5 263.5,-199.5 328.5,-199.5 328.5,-180.5 263.5,-180.5"/>
<text text-anchor="middle" x="296" y="-187.5" font-family="Helvetica,sans-Serif" font-size="10.00">satpos_ssr</text>
</a>
</g>
</g>
<!-- Node7&#45;&gt;Node47 -->
<g id="edge13" class="edge">
<title>Node7&#45;&gt;Node47</title>
<path fill="none" stroke="midnightblue" d="M191.34,-237.46C211.45,-228.25 242.11,-214.22 264.87,-203.79"/>
<polygon fill="midnightblue" stroke="midnightblue" points="266.46,-206.92 274.09,-199.57 263.54,-200.55 266.46,-206.92"/>
</g>
<!-- Node36&#45;&gt;Node18 -->
<g id="edge11" class="edge">
<title>Node36&#45;&gt;Node18</title>
<path fill="none" stroke="midnightblue" d="M323.26,-257.75C339.21,-252.74 359.89,-246.25 377.87,-240.6"/>
<polygon fill="midnightblue" stroke="midnightblue" points="379.03,-243.91 387.53,-237.57 376.94,-237.23 379.03,-243.91"/>
</g>
<!-- Node36&#45;&gt;Node35 -->
<g id="edge12" class="edge">
<title>Node36&#45;&gt;Node35</title>
<path fill="none" stroke="midnightblue" d="M323.26,-266C340.38,-266 362.96,-266 381.78,-266"/>
<polygon fill="midnightblue" stroke="midnightblue" points="381.8,-269.5 391.8,-266 381.8,-262.5 381.8,-269.5"/>
</g>
<!-- Node47&#45;&gt;Node8 -->
<g id="edge14" class="edge">
<title>Node47&#45;&gt;Node8</title>
<path fill="none" stroke="midnightblue" d="M328.79,-185.01C345.95,-182.31 367.13,-178.99 384.54,-176.25"/>
<polygon fill="midnightblue" stroke="midnightblue" points="385.5,-179.65 394.83,-174.64 384.41,-172.73 385.5,-179.65"/>
</g>
<!-- Node47&#45;&gt;Node18 -->
<g id="edge15" class="edge">
<title>Node47&#45;&gt;Node18</title>
<path fill="none" stroke="midnightblue" d="M327.53,-199.59C342.72,-204.36 361.29,-210.19 377.63,-215.32"/>
<polygon fill="midnightblue" stroke="midnightblue" points="376.89,-218.76 387.48,-218.41 378.98,-212.08 376.89,-218.76"/>
</g>
<!-- Node47&#45;&gt;Node35 -->
<g id="edge16" class="edge">
<title>Node47&#45;&gt;Node35</title>
<path fill="none" stroke="midnightblue" d="M308.36,-199.51C323.08,-211.56 349.87,-232.49 375,-247 378.06,-248.77 381.32,-250.48 384.62,-252.11"/>
<polygon fill="midnightblue" stroke="midnightblue" points="383.35,-255.38 393.89,-256.44 386.31,-249.04 383.35,-255.38"/>
</g>
<!-- Node21 -->
<g id="node15" class="node">
<title>Node21</title>
<g id="a_node15"><a xlink:href="gTime_8cpp.html#a7a747c44ca37f2ebe379fc4309d3cfba" target="_top" xlink:title=" ">
<polygon fill="white" stroke="black" points="385.5,-57.5 385.5,-76.5 452.5,-76.5 452.5,-57.5 385.5,-57.5"/>
<text text-anchor="middle" x="419" y="-64.5" font-family="Helvetica,sans-Serif" font-size="10.00">time2epoch</text>
</a>
</g>
</g>
<!-- Node53&#45;&gt;Node21 -->
<g id="edge20" class="edge">
<title>Node53&#45;&gt;Node21</title>
<path fill="none" stroke="midnightblue" d="M212.21,-58.69C257.45,-60.51 329.32,-63.42 375.05,-65.26"/>
<polygon fill="midnightblue" stroke="midnightblue" points="375.1,-68.77 385.23,-65.68 375.38,-61.78 375.1,-68.77"/>
</g>
<!-- Node22 -->
<g id="node16" class="node">
<title>Node22</title>
<g id="a_node16"><a xlink:href="streamTrace_8cpp.html#ae00e6addd3bdf3a7fd41a254eb9aec89" target="_top" xlink:title=" ">
<polygon fill="white" stroke="black" points="387,-0.5 387,-19.5 451,-19.5 451,-0.5 387,-0.5"/>
<text text-anchor="middle" x="419" y="-7.5" font-family="Helvetica,sans-Serif" font-size="10.00">tracepdeex</text>
</a>
</g>
</g>
<!-- Node53&#45;&gt;Node22 -->
<g id="edge21" class="edge">
<title>Node53&#45;&gt;Node22</title>
<path fill="none" stroke="midnightblue" d="M186.58,-47.37C202.73,-38.23 228.66,-25.03 253,-19 294.08,-8.81 342.61,-7.38 376.36,-7.99"/>
<polygon fill="midnightblue" stroke="midnightblue" points="376.69,-11.5 386.77,-8.25 376.86,-4.5 376.69,-11.5"/>
</g>
<!-- Node54 -->
<g id="node17" class="node">
<title>Node54</title>
<g id="a_node17"><a xlink:href="sp3Write_8cpp.html#aed29c95c9a69a1717d95e354d190d5df" target="_top" xlink:title=" ">
<polygon fill="white" stroke="red" points="253,-28.5 253,-47.5 339,-47.5 339,-28.5 253,-28.5"/>
<text text-anchor="middle" x="296" y="-35.5" font-family="Helvetica,sans-Serif" font-size="10.00">writeSp3Header</text>
</a>
</g>
</g>
<!-- Node53&#45;&gt;Node54 -->
<g id="edge22" class="edge">
<title>Node53&#45;&gt;Node54</title>
<path fill="none" stroke="midnightblue" d="M212.3,-50.62C222.05,-49.13 232.55,-47.53 242.69,-45.98"/>
<polygon fill="midnightblue" stroke="midnightblue" points="243.31,-49.43 252.67,-44.46 242.26,-42.51 243.31,-49.43"/>
</g>
<!-- Node54&#45;&gt;Node21 -->
<g id="edge23" class="edge">
<title>Node54&#45;&gt;Node21</title>
<path fill="none" stroke="midnightblue" d="M336.96,-47.58C349.34,-50.54 363.03,-53.82 375.57,-56.83"/>
<polygon fill="midnightblue" stroke="midnightblue" points="374.8,-60.25 385.34,-59.17 376.43,-53.44 374.8,-60.25"/>
</g>
<!-- Node54&#45;&gt;Node22 -->
<g id="edge24" class="edge">
<title>Node54&#45;&gt;Node22</title>
<path fill="none" stroke="midnightblue" d="M338.3,-28.44C350.71,-25.57 364.32,-22.42 376.73,-19.55"/>
<polygon fill="midnightblue" stroke="midnightblue" points="377.86,-22.88 386.81,-17.22 376.28,-16.06 377.86,-22.88"/>
</g>
</g>
</svg>
