<?xml version="1.0" encoding="UTF-8" standalone="no"?>
<!DOCTYPE svg PUBLIC "-//W3C//DTD SVG 1.1//EN"
 "http://www.w3.org/Graphics/SVG/1.1/DTD/svg11.dtd">
<!-- Generated by graphviz version 2.50.0 (20220203.2022)
 -->
<!-- Title: split Pages: 1 -->
<svg width="404pt" height="78pt"
 viewBox="0.00 0.00 404.00 77.50" xmlns="http://www.w3.org/2000/svg" xmlns:xlink="http://www.w3.org/1999/xlink">
<g id="graph0" class="graph" transform="scale(1 1) rotate(0) translate(4 73.5)">
<title>split</title>
<polygon fill="white" stroke="transparent" points="-4,4 -4,-73.5 400,-73.5 400,4 -4,4"/>
<!-- Node1 -->
<g id="node1" class="node">
<title>Node1</title>
<g id="a_node1"><a xlink:title=" ">
<polygon fill="#bfbfbf" stroke="black" points="361,-22.5 361,-41.5 396,-41.5 396,-22.5 361,-22.5"/>
<text text-anchor="middle" x="378.5" y="-29.5" font-family="Helvetica,sans-Serif" font-size="10.00">split</text>
</a>
</g>
</g>
<!-- Node2 -->
<g id="node2" class="node">
<title>Node2</title>
<g id="a_node2"><a xlink:href="structNtripSourceTable.html#a255528a066ea7f0bd2254768a0b92314" target="_top" xlink:title=" ">
<polygon fill="white" stroke="black" points="184,-39 184,-69 325,-69 325,-39 184,-39"/>
<text text-anchor="start" x="192" y="-57" font-family="Helvetica,sans-Serif" font-size="10.00">NtripSourceTable::getSource</text>
<text text-anchor="middle" x="254.5" y="-46" font-family="Helvetica,sans-Serif" font-size="10.00">Table</text>
</a>
</g>
</g>
<!-- Node1&#45;&gt;Node2 -->
<g id="edge1" class="edge">
<title>Node1&#45;&gt;Node2</title>
<path fill="none" stroke="midnightblue" d="M350.95,-36.79C343.17,-38.19 334.27,-39.8 325.11,-41.45"/>
<polygon fill="midnightblue" stroke="midnightblue" points="351.57,-40.23 360.79,-35.01 350.33,-33.34 351.57,-40.23"/>
</g>
<!-- Node5 -->
<g id="node4" class="node">
<title>Node5</title>
<g id="a_node4"><a xlink:href="classloadGrid.html#ab846a5cf0b57be20c1c371252f126a2a" target="_top" xlink:title=" ">
<polygon fill="white" stroke="black" points="216.5,-0.5 216.5,-19.5 292.5,-19.5 292.5,-0.5 216.5,-0.5"/>
<text text-anchor="middle" x="254.5" y="-7.5" font-family="Helvetica,sans-Serif" font-size="10.00">loadGrid::read</text>
</a>
</g>
</g>
<!-- Node1&#45;&gt;Node5 -->
<g id="edge3" class="edge">
<title>Node1&#45;&gt;Node5</title>
<path fill="none" stroke="midnightblue" d="M350.92,-27.21C333.82,-24.12 311.36,-20.07 292.53,-16.68"/>
<polygon fill="midnightblue" stroke="midnightblue" points="350.33,-30.66 360.79,-28.99 351.57,-23.77 350.33,-30.66"/>
</g>
<!-- Node3 -->
<g id="node3" class="node">
<title>Node3</title>
<g id="a_node3"><a xlink:href="main_8cpp.html#a2d75b8e97c01e0fc332ddf680796fd21" target="_top" xlink:title=" ">
<polygon fill="white" stroke="red" points="0,-44.5 0,-63.5 148,-63.5 148,-44.5 0,-44.5"/>
<text text-anchor="middle" x="74" y="-51.5" font-family="Helvetica,sans-Serif" font-size="10.00">configureDownloadingStreams</text>
</a>
</g>
</g>
<!-- Node2&#45;&gt;Node3 -->
<g id="edge2" class="edge">
<title>Node2&#45;&gt;Node3</title>
<path fill="none" stroke="midnightblue" d="M173.97,-54C165.38,-54 156.67,-54 148.17,-54"/>
<polygon fill="midnightblue" stroke="midnightblue" points="173.98,-57.5 183.98,-54 173.98,-50.5 173.98,-57.5"/>
</g>
</g>
</svg>
