<?xml version="1.0" encoding="UTF-8" standalone="no"?>
<!DOCTYPE svg PUBLIC "-//W3C//DTD SVG 1.1//EN"
 "http://www.w3.org/Graphics/SVG/1.1/DTD/svg11.dtd">
<!-- Generated by graphviz version 2.50.0 (20220203.2022)
 -->
<!-- Title: tropcorr Pages: 1 -->
<svg width="269pt" height="46pt"
 viewBox="0.00 0.00 269.00 46.00" xmlns="http://www.w3.org/2000/svg" xmlns:xlink="http://www.w3.org/1999/xlink">
<g id="graph0" class="graph" transform="scale(1 1) rotate(0) translate(4 42)">
<title>tropcorr</title>
<polygon fill="white" stroke="transparent" points="-4,4 -4,-42 265,-42 265,4 -4,4"/>
<!-- Node1 -->
<g id="node1" class="node">
<title>Node1</title>
<g id="a_node1"><a xlink:title="Compute tropospheric corrections.">
<polygon fill="#bfbfbf" stroke="black" points="0,-0.5 0,-19.5 50,-19.5 50,-0.5 0,-0.5"/>
<text text-anchor="middle" x="25" y="-7.5" font-family="Helvetica,sans-Serif" font-size="10.00">tropcorr</text>
</a>
</g>
</g>
<!-- Node2 -->
<g id="node2" class="node">
<title>Node2</title>
<g id="a_node2"><a xlink:href="corrections_8cpp.html#a107b0c6a5655cfedf65b229de74e0b3d" target="_top" xlink:title=" ">
<polygon fill="white" stroke="black" points="86,-0.5 86,-19.5 145,-19.5 145,-0.5 86,-0.5"/>
<text text-anchor="middle" x="115.5" y="-7.5" font-family="Helvetica,sans-Serif" font-size="10.00">tropmodel</text>
</a>
</g>
</g>
<!-- Node1&#45;&gt;Node2 -->
<g id="edge1" class="edge">
<title>Node1&#45;&gt;Node2</title>
<path fill="none" stroke="midnightblue" d="M50.18,-10C58.13,-10 67.17,-10 75.91,-10"/>
<polygon fill="midnightblue" stroke="midnightblue" points="75.95,-13.5 85.95,-10 75.95,-6.5 75.95,-13.5"/>
</g>
<!-- Node3 -->
<g id="node3" class="node">
<title>Node3</title>
<g id="a_node3"><a xlink:href="namespacepod__yaml.html#a59ea539cabb34ef7985e7e57c4b9dd93" target="_top" xlink:title=" ">
<polygon fill="white" stroke="black" points="181,-0.5 181,-19.5 261,-19.5 261,-0.5 181,-0.5"/>
<text text-anchor="middle" x="221" y="-7.5" font-family="Helvetica,sans-Serif" font-size="10.00">pod_yaml::pow</text>
</a>
</g>
</g>
<!-- Node2&#45;&gt;Node3 -->
<g id="edge2" class="edge">
<title>Node2&#45;&gt;Node3</title>
<path fill="none" stroke="midnightblue" d="M145.06,-10C152.97,-10 161.79,-10 170.53,-10"/>
<polygon fill="midnightblue" stroke="midnightblue" points="170.69,-13.5 180.69,-10 170.69,-6.5 170.69,-13.5"/>
</g>
<!-- Node3&#45;&gt;Node3 -->
<g id="edge3" class="edge">
<title>Node3&#45;&gt;Node3</title>
<path fill="none" stroke="midnightblue" d="M204.97,-19.76C197.17,-28.57 202.52,-38 221,-38 232.55,-38 238.97,-34.31 240.26,-29.4"/>
<polygon fill="midnightblue" stroke="midnightblue" points="243.52,-28.13 237.03,-19.76 236.89,-30.35 243.52,-28.13"/>
</g>
</g>
</svg>
