<?xml version="1.0" encoding="UTF-8" standalone="no"?>
<!DOCTYPE svg PUBLIC "-//W3C//DTD SVG 1.1//EN"
 "http://www.w3.org/Graphics/SVG/1.1/DTD/svg11.dtd">
<!-- Generated by graphviz version 2.50.0 (20220203.2022)
 -->
<!-- Title: raim_fde Pages: 1 -->
<!--zoomable 818 -->
<svg id="main" version="1.1" xmlns="http://www.w3.org/2000/svg" xmlns:xlink="http://www.w3.org/1999/xlink" xml:space="preserve" onload="init(evt)">
<style type="text/css"><![CDATA[
.edge:hover path { stroke: red; }
.edge:hover polygon { stroke: red; fill: red; }
]]></style>
<script type="text/javascript"><![CDATA[
var edges = document.getElementsByTagName('g');
if (edges && edges.length) {
  for (var i=0;i<edges.length;i++) {
    if (edges[i].id.substr(0,4)=='edge') {
      edges[i].setAttribute('class','edge');
    }
  }
}
]]></script>
        <defs>
                <circle id="rim" cx="0" cy="0" r="7"/>
                <circle id="rim2" cx="0" cy="0" r="3.5"/>
                <g id="zoomPlus">
                        <use xlink:href="#rim" fill="#404040">
                                <set attributeName="fill" to="#808080" begin="zoomplus.mouseover" end="zoomplus.mouseout"/>
                        </use>
                        <path d="M-4,0h8M0,-4v8" fill="none" stroke="white" stroke-width="1.5" pointer-events="none"/>
                </g>
                <g id="zoomMin">
                        <use xlink:href="#rim" fill="#404040">
                                <set attributeName="fill" to="#808080" begin="zoomminus.mouseover" end="zoomminus.mouseout"/>
                        </use>
                        <path d="M-4,0h8" fill="none" stroke="white" stroke-width="1.5" pointer-events="none"/>
                </g>
                <g id="dirArrow">
                        <path fill="none" stroke="white" stroke-width="1.5" d="M0,-3.0v7 M-2.5,-0.5L0,-3.0L2.5,-0.5"/>
                </g>
               <g id="resetDef">
                       <use xlink:href="#rim2" fill="#404040">
                               <set attributeName="fill" to="#808080" begin="reset.mouseover" end="reset.mouseout"/>
                       </use>
               </g>
        </defs>

<script type="text/javascript">
var viewWidth = 490;
var viewHeight = 818;
var sectionId = 'dynsection-6';
</script>
<script xlink:href="svgpan.js"/>
<svg id="graph" class="graph">
<g id="viewport">
<title>raim_fde</title>
<polygon fill="white" stroke="transparent" points="-4,4 -4,-814 486,-814 486,4 -4,4"/>
<!-- Node1 -->
<g id="node1" class="node">
<title>Node1</title>
<g id="a_node1"><a xlink:title="Receiver autonomous integrity monitoring (RAIM) failure detection and exclution.">
<polygon fill="#bfbfbf" stroke="black" points="0,-75.5 0,-94.5 54,-94.5 54,-75.5 0,-75.5"/>
<text text-anchor="middle" x="27" y="-82.5" font-family="Helvetica,sans-Serif" font-size="10.00">raim_fde</text>
</a>
</g>
</g>
<!-- Node2 -->
<g id="node2" class="node">
<title>Node2</title>
<g id="a_node2"><a xlink:href="spp_8cpp.html#a939492c482104cf7cdf7597d24b5b8fb" target="_top" xlink:title="Estimate receiver position and biases using code measurements.">
<polygon fill="white" stroke="black" points="94,-448.5 94,-467.5 140,-467.5 140,-448.5 94,-448.5"/>
<text text-anchor="middle" x="117" y="-455.5" font-family="Helvetica,sans-Serif" font-size="10.00">estpos</text>
</a>
</g>
</g>
<!-- Node1&#45;&gt;Node2 -->
<g id="edge1" class="edge">
<title>Node1&#45;&gt;Node2</title>
<path fill="none" stroke="midnightblue" d="M30.26,-94.6C41.94,-144.07 95.39,-370.63 111.43,-438.64"/>
<polygon fill="midnightblue" stroke="midnightblue" points="108.05,-439.54 113.75,-448.47 114.86,-437.93 108.05,-439.54"/>
</g>
<!-- Node27 -->
<g id="node13" class="node">
<title>Node27</title>
<g id="a_node13"><a xlink:href="structSatSys.html#aec6d07b90d1e8172b8b6a6966abef4fd" target="_top" xlink:title="Returns a std::string of this satellite&#39;s id.">
<polygon fill="white" stroke="red" points="392.5,-113.5 392.5,-132.5 452.5,-132.5 452.5,-113.5 392.5,-113.5"/>
<text text-anchor="middle" x="422.5" y="-120.5" font-family="Helvetica,sans-Serif" font-size="10.00">SatSys::id</text>
</a>
</g>
</g>
<!-- Node1&#45;&gt;Node27 -->
<g id="edge23" class="edge">
<title>Node1&#45;&gt;Node27</title>
<path fill="none" stroke="midnightblue" d="M54.12,-87.52C121.64,-94.04 302.24,-111.48 382.33,-119.22"/>
<polygon fill="midnightblue" stroke="midnightblue" points="382.2,-122.72 392.49,-120.2 382.87,-115.75 382.2,-122.72"/>
</g>
<!-- Node51 -->
<g id="node22" class="node">
<title>Node51</title>
<g id="a_node22"><a xlink:href="gTime_8cpp.html#a016d7b64e67752afcd07e5074a3cc516" target="_top" xlink:title=" ">
<polygon fill="white" stroke="black" points="91,-56.5 91,-75.5 143,-75.5 143,-56.5 91,-56.5"/>
<text text-anchor="middle" x="117" y="-63.5" font-family="Helvetica,sans-Serif" font-size="10.00">time2str</text>
</a>
</g>
</g>
<!-- Node1&#45;&gt;Node51 -->
<g id="edge24" class="edge">
<title>Node1&#45;&gt;Node51</title>
<path fill="none" stroke="midnightblue" d="M54.4,-79.3C62.7,-77.51 72,-75.5 80.8,-73.6"/>
<polygon fill="midnightblue" stroke="midnightblue" points="81.79,-76.97 90.82,-71.44 80.31,-70.13 81.79,-76.97"/>
</g>
<!-- Node53 -->
<g id="node25" class="node">
<title>Node53</title>
<g id="a_node25"><a xlink:href="streamTrace_8cpp.html#a26d8a8c49d22d1ec101a45f8ee2e1fcc" target="_top" xlink:title=" ">
<polygon fill="white" stroke="black" points="90,-18.5 90,-37.5 144,-37.5 144,-18.5 90,-18.5"/>
<text text-anchor="middle" x="117" y="-25.5" font-family="Helvetica,sans-Serif" font-size="10.00">tracepde</text>
</a>
</g>
</g>
<!-- Node1&#45;&gt;Node53 -->
<g id="edge28" class="edge">
<title>Node1&#45;&gt;Node53</title>
<path fill="none" stroke="midnightblue" d="M42.93,-75.33C56.54,-66.52 76.86,-53.35 92.62,-43.14"/>
<polygon fill="midnightblue" stroke="midnightblue" points="94.8,-45.9 101.29,-37.53 91,-40.03 94.8,-45.9"/>
</g>
<!-- Node3 -->
<g id="node3" class="node">
<title>Node3</title>
<g id="a_node3"><a xlink:href="structKFMeasEntry.html#a5af30258b0bcd703468c0d0ec2ed6d54" target="_top" xlink:title="Adds a design matrix entry for this measurement.">
<polygon fill="white" stroke="black" points="183.5,-676.5 183.5,-695.5 323.5,-695.5 323.5,-676.5 183.5,-676.5"/>
<text text-anchor="middle" x="253.5" y="-683.5" font-family="Helvetica,sans-Serif" font-size="10.00">KFMeasEntry::addDsgnEntry</text>
</a>
</g>
</g>
<!-- Node2&#45;&gt;Node3 -->
<g id="edge2" class="edge">
<title>Node2&#45;&gt;Node3</title>
<path fill="none" stroke="midnightblue" d="M117.77,-467.55C117.51,-500.44 121.27,-610.13 180,-667 181.47,-668.43 183.04,-669.75 184.68,-670.97"/>
<polygon fill="midnightblue" stroke="midnightblue" points="183.09,-674.1 193.44,-676.34 186.74,-668.13 183.09,-674.1"/>
</g>
<!-- Node4 -->
<g id="node4" class="node">
<title>Node4</title>
<g id="a_node4"><a xlink:href="structKFState.html#abae5c2435fa3ca6bb4396cd8a5363f85" target="_top" xlink:title="Combine a list of KFMeasEntrys into a single KFMeas object for used in the filter.">
<polygon fill="white" stroke="red" points="180,-638.5 180,-657.5 327,-657.5 327,-638.5 180,-638.5"/>
<text text-anchor="middle" x="253.5" y="-645.5" font-family="Helvetica,sans-Serif" font-size="10.00">KFState::combineKFMeasList</text>
</a>
</g>
</g>
<!-- Node2&#45;&gt;Node4 -->
<g id="edge3" class="edge">
<title>Node2&#45;&gt;Node4</title>
<path fill="none" stroke="midnightblue" d="M118.51,-467.83C120.58,-497.04 130.78,-584.09 180,-629 181.72,-630.57 183.55,-632.01 185.47,-633.33"/>
<polygon fill="midnightblue" stroke="midnightblue" points="183.97,-636.51 194.39,-638.43 187.44,-630.43 183.97,-636.51"/>
</g>
<!-- Node6 -->
<g id="node5" class="node">
<title>Node6</title>
<g id="a_node5"><a xlink:href="rtkcmn_8cpp.html#ae91d83cf693cdc7e1efacbe4d8d9656e" target="_top" xlink:title=" ">
<polygon fill="white" stroke="black" points="225.5,-600.5 225.5,-619.5 281.5,-619.5 281.5,-600.5 225.5,-600.5"/>
<text text-anchor="middle" x="253.5" y="-607.5" font-family="Helvetica,sans-Serif" font-size="10.00">ecef2pos</text>
</a>
</g>
</g>
<!-- Node2&#45;&gt;Node6 -->
<g id="edge4" class="edge">
<title>Node2&#45;&gt;Node6</title>
<path fill="none" stroke="midnightblue" d="M119.63,-467.75C124.27,-492.38 139.9,-557.54 180,-591 189.91,-599.27 203.03,-603.99 215.38,-606.66"/>
<polygon fill="midnightblue" stroke="midnightblue" points="215.03,-610.15 225.49,-608.45 216.26,-603.26 215.03,-610.15"/>
</g>
<!-- Node7 -->
<g id="node6" class="node">
<title>Node7</title>
<g id="a_node6"><a xlink:href="rtkcmn_8cpp.html#a52a667466317784c7a286f77b2ee9c3f" target="_top" xlink:title="geometric distance compute geometric distance and receiver&#45;to&#45;satellite unit vector notes : distance ...">
<polygon fill="white" stroke="black" points="229.5,-562.5 229.5,-581.5 277.5,-581.5 277.5,-562.5 229.5,-562.5"/>
<text text-anchor="middle" x="253.5" y="-569.5" font-family="Helvetica,sans-Serif" font-size="10.00">geodist</text>
</a>
</g>
</g>
<!-- Node2&#45;&gt;Node7 -->
<g id="edge5" class="edge">
<title>Node2&#45;&gt;Node7</title>
<path fill="none" stroke="midnightblue" d="M121.58,-467.79C129.18,-487.18 148.84,-530.55 180,-553 191.41,-561.22 206.11,-565.89 219.29,-568.54"/>
<polygon fill="midnightblue" stroke="midnightblue" points="219,-572.04 229.44,-570.26 220.17,-565.14 219,-572.04"/>
</g>
<!-- Node8 -->
<g id="node7" class="node">
<title>Node8</title>
<g id="a_node7"><a xlink:href="structKFState.html#a84691f6bbbe3cdccaa14722995a61e1b" target="_top" xlink:title="Returns the value and variance of a state within the kalman filter object.">
<polygon fill="white" stroke="black" points="199.5,-524.5 199.5,-543.5 307.5,-543.5 307.5,-524.5 199.5,-524.5"/>
<text text-anchor="middle" x="253.5" y="-531.5" font-family="Helvetica,sans-Serif" font-size="10.00">KFState::getKFValue</text>
</a>
</g>
</g>
<!-- Node2&#45;&gt;Node8 -->
<g id="edge6" class="edge">
<title>Node2&#45;&gt;Node8</title>
<path fill="none" stroke="midnightblue" d="M127.23,-467.72C138.65,-479.25 159.14,-498.37 180,-510 187.74,-514.32 196.38,-518.02 204.92,-521.13"/>
<polygon fill="midnightblue" stroke="midnightblue" points="203.88,-524.47 214.48,-524.39 206.14,-517.84 203.88,-524.47"/>
</g>
<!-- Node9 -->
<g id="node8" class="node">
<title>Node9</title>
<g id="a_node8"><a xlink:href="structKFState.html#a34fe78e0ab7a8f1d122ceabddc29b207" target="_top" xlink:title="Clears and initialises the state transition matrix to identity at the beginning of an epoch.">
<polygon fill="white" stroke="black" points="363,-442.5 363,-461.5 482,-461.5 482,-442.5 363,-442.5"/>
<text text-anchor="middle" x="422.5" y="-449.5" font-family="Helvetica,sans-Serif" font-size="10.00">KFState::initFilterEpoch</text>
</a>
</g>
</g>
<!-- Node2&#45;&gt;Node9 -->
<g id="edge7" class="edge">
<title>Node2&#45;&gt;Node9</title>
<path fill="none" stroke="midnightblue" d="M140.01,-466.5C151.7,-470.55 166.42,-474.97 180,-477 244.61,-486.68 262.21,-485.42 327,-477 345.85,-474.55 366.3,-469.46 383.34,-464.5"/>
<polygon fill="midnightblue" stroke="midnightblue" points="384.36,-467.85 392.93,-461.62 382.35,-461.14 384.36,-467.85"/>
</g>
<!-- Node10 -->
<g id="node9" class="node">
<title>Node10</title>
<g id="a_node9"><a xlink:href="spp_8cpp.html#a3698fc84967d3b3f57776a1909f62d45" target="_top" xlink:title="Compute ionospheric corrections.">
<polygon fill="white" stroke="red" points="228,-448.5 228,-467.5 279,-467.5 279,-448.5 228,-448.5"/>
<text text-anchor="middle" x="253.5" y="-455.5" font-family="Helvetica,sans-Serif" font-size="10.00">ionocorr</text>
</a>
</g>
</g>
<!-- Node2&#45;&gt;Node10 -->
<g id="edge8" class="edge">
<title>Node2&#45;&gt;Node10</title>
<path fill="none" stroke="midnightblue" d="M140.21,-458C161.27,-458 193.23,-458 217.68,-458"/>
<polygon fill="midnightblue" stroke="midnightblue" points="217.98,-461.5 227.98,-458 217.98,-454.5 217.98,-461.5"/>
</g>
<!-- Node17 -->
<g id="node10" class="node">
<title>Node17</title>
<g id="a_node10"><a xlink:href="structKFState.html#ae1fc274c403b77dc814ed90763b4dea1" target="_top" xlink:title="Least squares estimator for new kalman filter states.">
<polygon fill="white" stroke="red" points="192.5,-399 192.5,-429 314.5,-429 314.5,-399 192.5,-399"/>
<text text-anchor="start" x="200.5" y="-417" font-family="Helvetica,sans-Serif" font-size="10.00">KFState::leastSquareInit</text>
<text text-anchor="middle" x="253.5" y="-406" font-family="Helvetica,sans-Serif" font-size="10.00">States</text>
</a>
</g>
</g>
<!-- Node2&#45;&gt;Node17 -->
<g id="edge9" class="edge">
<title>Node2&#45;&gt;Node17</title>
<path fill="none" stroke="midnightblue" d="M140.21,-450.73C155.66,-445.68 176.99,-438.7 196.91,-432.19"/>
<polygon fill="midnightblue" stroke="midnightblue" points="198.12,-435.47 206.54,-429.04 195.95,-428.82 198.12,-435.47"/>
</g>
<!-- Node20 -->
<g id="node11" class="node">
<title>Node20</title>
<g id="a_node11"><a xlink:href="structGTime.html#aaa8a379d11cd6c040a6bbe680c0e913e" target="_top" xlink:title="Uninitialised time for comparisons.">
<polygon fill="white" stroke="black" points="381,-341.5 381,-360.5 464,-360.5 464,-341.5 381,-341.5"/>
<text text-anchor="middle" x="422.5" y="-348.5" font-family="Helvetica,sans-Serif" font-size="10.00">GTime::noTime</text>
</a>
</g>
</g>
<!-- Node2&#45;&gt;Node20 -->
<g id="edge10" class="edge">
<title>Node2&#45;&gt;Node20</title>
<path fill="none" stroke="midnightblue" d="M120.18,-448.29C125.71,-426.22 142.61,-372.55 180,-351 241.85,-315.35 328.26,-327.13 379.2,-339.01"/>
<polygon fill="midnightblue" stroke="midnightblue" points="378.66,-342.48 389.2,-341.45 380.32,-335.68 378.66,-342.48"/>
</g>
<!-- Node21 -->
<g id="node12" class="node">
<title>Node21</title>
<g id="a_node12"><a xlink:href="spp_8cpp.html#a94f6b70d37281b0c7712a6c05aab586c" target="_top" xlink:title="Calculate pseudorange with code bias correction.">
<polygon fill="white" stroke="red" points="230.5,-132.5 230.5,-151.5 276.5,-151.5 276.5,-132.5 230.5,-132.5"/>
<text text-anchor="middle" x="253.5" y="-139.5" font-family="Helvetica,sans-Serif" font-size="10.00">prange</text>
</a>
</g>
</g>
<!-- Node2&#45;&gt;Node21 -->
<g id="edge11" class="edge">
<title>Node2&#45;&gt;Node21</title>
<path fill="none" stroke="midnightblue" d="M118.67,-448.5C122.07,-402.58 138.99,-204.14 180,-161 190.39,-150.07 206.23,-145.14 220.45,-143.02"/>
<polygon fill="midnightblue" stroke="midnightblue" points="220.87,-146.5 230.42,-141.93 220.1,-139.54 220.87,-146.5"/>
</g>
<!-- Node30 -->
<g id="node14" class="node">
<title>Node30</title>
<g id="a_node14"><a xlink:href="rtkcmn_8cpp.html#a4ec5c9d8effd9f823bfe6f9e12e7583f" target="_top" xlink:title=" ">
<polygon fill="white" stroke="red" points="230,-284.5 230,-303.5 277,-303.5 277,-284.5 230,-284.5"/>
<text text-anchor="middle" x="253.5" y="-291.5" font-family="Helvetica,sans-Serif" font-size="10.00">satazel</text>
</a>
</g>
</g>
<!-- Node2&#45;&gt;Node30 -->
<g id="edge13" class="edge">
<title>Node2&#45;&gt;Node30</title>
<path fill="none" stroke="midnightblue" d="M119.53,-448.28C124.01,-423.03 139.44,-354.79 180,-318 190.96,-308.06 206.13,-302.23 219.77,-298.81"/>
<polygon fill="midnightblue" stroke="midnightblue" points="220.77,-302.17 229.8,-296.64 219.29,-295.33 220.77,-302.17"/>
</g>
<!-- Node40 -->
<g id="node15" class="node">
<title>Node40</title>
<g id="a_node15"><a xlink:href="rtkcmn_8cpp.html#aaafb25a7d4b390167b7c784461583bae" target="_top" xlink:title=" ">
<polygon fill="white" stroke="black" points="222,-246.5 222,-265.5 285,-265.5 285,-246.5 222,-246.5"/>
<text text-anchor="middle" x="253.5" y="-253.5" font-family="Helvetica,sans-Serif" font-size="10.00">satexclude</text>
</a>
</g>
</g>
<!-- Node2&#45;&gt;Node40 -->
<g id="edge14" class="edge">
<title>Node2&#45;&gt;Node40</title>
<path fill="none" stroke="midnightblue" d="M118.24,-448.37C119.52,-418.05 127.73,-323.71 180,-275 188.69,-266.9 200.39,-262.16 211.87,-259.42"/>
<polygon fill="midnightblue" stroke="midnightblue" points="212.66,-262.83 221.8,-257.49 211.32,-255.96 212.66,-262.83"/>
</g>
<!-- Node41 -->
<g id="node16" class="node">
<title>Node41</title>
<g id="a_node16"><a xlink:href="structKFMeasEntry.html#a1054abe38550bcd614c1a3c1afe752ee" target="_top" xlink:title="Adds the measurement noise entry for this measurement.">
<polygon fill="white" stroke="black" points="194,-208.5 194,-227.5 313,-227.5 313,-208.5 194,-208.5"/>
<text text-anchor="middle" x="253.5" y="-215.5" font-family="Helvetica,sans-Serif" font-size="10.00">KFMeasEntry::setNoise</text>
</a>
</g>
</g>
<!-- Node2&#45;&gt;Node41 -->
<g id="edge15" class="edge">
<title>Node2&#45;&gt;Node41</title>
<path fill="none" stroke="midnightblue" d="M117.58,-448.4C116.66,-414.26 118.33,-297.62 180,-237 181.5,-235.53 183.09,-234.17 184.77,-232.91"/>
<polygon fill="midnightblue" stroke="midnightblue" points="187.03,-235.63 193.74,-227.43 183.38,-229.66 187.03,-235.63"/>
</g>
<!-- Node42 -->
<g id="node17" class="node">
<title>Node42</title>
<g id="a_node17"><a xlink:href="structKFMeasEntry.html#a56ed46a7048dcd7e87e75eebc342dc7d" target="_top" xlink:title="Adds the actual measurement value for this measurement.">
<polygon fill="white" stroke="black" points="194.5,-170.5 194.5,-189.5 312.5,-189.5 312.5,-170.5 194.5,-170.5"/>
<text text-anchor="middle" x="253.5" y="-177.5" font-family="Helvetica,sans-Serif" font-size="10.00">KFMeasEntry::setValue</text>
</a>
</g>
</g>
<!-- Node2&#45;&gt;Node42 -->
<g id="edge16" class="edge">
<title>Node2&#45;&gt;Node42</title>
<path fill="none" stroke="midnightblue" d="M119,-448.32C123.57,-405.79 143.86,-235.92 180,-199 181.66,-197.3 183.46,-195.75 185.36,-194.33"/>
<polygon fill="midnightblue" stroke="midnightblue" points="187.54,-197.1 194.28,-188.92 183.91,-191.11 187.54,-197.1"/>
</g>
<!-- Node43 -->
<g id="node18" class="node">
<title>Node43</title>
<g id="a_node18"><a xlink:href="structKFState.html#a170d9c3a01bee9ec1f7264615b087c58" target="_top" xlink:title="Add process noise and dynamics to filter object according to time gap.">
<polygon fill="white" stroke="red" points="192.5,-360.5 192.5,-379.5 314.5,-379.5 314.5,-360.5 192.5,-360.5"/>
<text text-anchor="middle" x="253.5" y="-367.5" font-family="Helvetica,sans-Serif" font-size="10.00">KFState::stateTransition</text>
</a>
</g>
</g>
<!-- Node2&#45;&gt;Node43 -->
<g id="edge17" class="edge">
<title>Node2&#45;&gt;Node43</title>
<path fill="none" stroke="midnightblue" d="M124.33,-448.05C134.34,-433.16 155.22,-405.21 180,-390 184.34,-387.34 189.04,-385.02 193.89,-383.01"/>
<polygon fill="midnightblue" stroke="midnightblue" points="195.19,-386.26 203.35,-379.5 192.75,-379.7 195.19,-386.26"/>
</g>
<!-- Node19 -->
<g id="node19" class="node">
<title>Node19</title>
<g id="a_node19"><a xlink:href="streamTrace_8cpp.html#ae00e6addd3bdf3a7fd41a254eb9aec89" target="_top" xlink:title=" ">
<polygon fill="white" stroke="black" points="221.5,-790.5 221.5,-809.5 285.5,-809.5 285.5,-790.5 221.5,-790.5"/>
<text text-anchor="middle" x="253.5" y="-797.5" font-family="Helvetica,sans-Serif" font-size="10.00">tracepdeex</text>
</a>
</g>
</g>
<!-- Node2&#45;&gt;Node19 -->
<g id="edge20" class="edge">
<title>Node2&#45;&gt;Node19</title>
<path fill="none" stroke="midnightblue" d="M118.5,-467.67C121.22,-516.31 135.73,-733.67 180,-781 188.11,-789.67 199.66,-794.58 211.15,-797.3"/>
<polygon fill="midnightblue" stroke="midnightblue" points="210.68,-800.77 221.15,-799.16 211.97,-793.89 210.68,-800.77"/>
</g>
<!-- Node47 -->
<g id="node20" class="node">
<title>Node47</title>
<g id="a_node20"><a xlink:href="spp_8cpp.html#a5235cea2cbba9ed2169db98409d6e3f1" target="_top" xlink:title="Compute tropospheric corrections.">
<polygon fill="white" stroke="red" points="228.5,-752.5 228.5,-771.5 278.5,-771.5 278.5,-752.5 228.5,-752.5"/>
<text text-anchor="middle" x="253.5" y="-759.5" font-family="Helvetica,sans-Serif" font-size="10.00">tropcorr</text>
</a>
</g>
</g>
<!-- Node2&#45;&gt;Node47 -->
<g id="edge21" class="edge">
<title>Node2&#45;&gt;Node47</title>
<path fill="none" stroke="midnightblue" d="M118.77,-467.72C122.56,-512.89 140.58,-701.88 180,-743 189.9,-753.33 204.68,-758.29 218.31,-760.59"/>
<polygon fill="midnightblue" stroke="midnightblue" points="218.05,-764.08 228.41,-761.87 218.93,-757.14 218.05,-764.08"/>
</g>
<!-- Node49 -->
<g id="node21" class="node">
<title>Node49</title>
<g id="a_node21"><a xlink:href="spp_8cpp.html#a9a1fd2f6109a7af44382492c01352af9" target="_top" xlink:title="Validate Dilution of Precision of solution.">
<polygon fill="white" stroke="red" points="218,-714.5 218,-733.5 289,-733.5 289,-714.5 218,-714.5"/>
<text text-anchor="middle" x="253.5" y="-721.5" font-family="Helvetica,sans-Serif" font-size="10.00">validateDOP</text>
</a>
</g>
</g>
<!-- Node2&#45;&gt;Node49 -->
<g id="edge22" class="edge">
<title>Node2&#45;&gt;Node49</title>
<path fill="none" stroke="midnightblue" d="M119.1,-467.51C124.01,-508.54 145.32,-669.96 180,-705 187.49,-712.57 197.6,-717.24 207.89,-720.09"/>
<polygon fill="midnightblue" stroke="midnightblue" points="207.21,-723.53 217.73,-722.31 208.75,-716.7 207.21,-723.53"/>
</g>
<!-- Node21&#45;&gt;Node27 -->
<g id="edge12" class="edge">
<title>Node21&#45;&gt;Node27</title>
<path fill="none" stroke="midnightblue" d="M276.68,-139.48C303.58,-136.42 349.4,-131.2 382.31,-127.46"/>
<polygon fill="midnightblue" stroke="midnightblue" points="382.95,-130.91 392.49,-126.3 382.16,-123.95 382.95,-130.91"/>
</g>
<!-- Node43&#45;&gt;Node9 -->
<g id="edge18" class="edge">
<title>Node43&#45;&gt;Node9</title>
<path fill="none" stroke="midnightblue" d="M297.83,-379.58C307.63,-382.39 317.84,-385.86 327,-390 354.5,-402.44 383.07,-422.32 401.5,-436.2"/>
<polygon fill="midnightblue" stroke="midnightblue" points="399.62,-439.17 409.68,-442.48 403.88,-433.61 399.62,-439.17"/>
</g>
<!-- Node43&#45;&gt;Node20 -->
<g id="edge19" class="edge">
<title>Node43&#45;&gt;Node20</title>
<path fill="none" stroke="midnightblue" d="M314.79,-363.14C333.14,-361.05 353.12,-358.78 370.78,-356.77"/>
<polygon fill="midnightblue" stroke="midnightblue" points="371.33,-360.23 380.87,-355.62 370.54,-353.28 371.33,-360.23"/>
</g>
<!-- Node14 -->
<g id="node23" class="node">
<title>Node14</title>
<g id="a_node23"><a xlink:href="namespacepod__yaml.html#a59ea539cabb34ef7985e7e57c4b9dd93" target="_top" xlink:title=" ">
<polygon fill="white" stroke="black" points="213.5,-0.5 213.5,-19.5 293.5,-19.5 293.5,-0.5 213.5,-0.5"/>
<text text-anchor="middle" x="253.5" y="-7.5" font-family="Helvetica,sans-Serif" font-size="10.00">pod_yaml::pow</text>
</a>
</g>
</g>
<!-- Node51&#45;&gt;Node14 -->
<g id="edge25" class="edge">
<title>Node51&#45;&gt;Node14</title>
<path fill="none" stroke="midnightblue" d="M141.12,-56.37C162.91,-47.3 195.75,-33.63 220.13,-23.48"/>
<polygon fill="midnightblue" stroke="midnightblue" points="221.79,-26.58 229.68,-19.5 219.1,-20.11 221.79,-26.58"/>
</g>
<!-- Node52 -->
<g id="node24" class="node">
<title>Node52</title>
<g id="a_node24"><a xlink:href="gTime_8cpp.html#a7a747c44ca37f2ebe379fc4309d3cfba" target="_top" xlink:title=" ">
<polygon fill="white" stroke="black" points="220,-56.5 220,-75.5 287,-75.5 287,-56.5 220,-56.5"/>
<text text-anchor="middle" x="253.5" y="-63.5" font-family="Helvetica,sans-Serif" font-size="10.00">time2epoch</text>
</a>
</g>
</g>
<!-- Node51&#45;&gt;Node52 -->
<g id="edge27" class="edge">
<title>Node51&#45;&gt;Node52</title>
<path fill="none" stroke="midnightblue" d="M143.3,-66C161.96,-66 187.78,-66 209.64,-66"/>
<polygon fill="midnightblue" stroke="midnightblue" points="209.68,-69.5 219.68,-66 209.68,-62.5 209.68,-69.5"/>
</g>
<!-- Node14&#45;&gt;Node14 -->
<g id="edge26" class="edge">
<title>Node14&#45;&gt;Node14</title>
<path fill="none" stroke="midnightblue" d="M232.54,-19.76C222.34,-28.57 229.33,-38 253.5,-38 268.99,-38 277.42,-34.13 278.8,-29.03"/>
<polygon fill="midnightblue" stroke="midnightblue" points="281.87,-27.33 274.46,-19.76 275.53,-30.3 281.87,-27.33"/>
</g>
</g>
</svg>
        <g id="navigator" transform="translate(0 0)" fill="#404254">
                <rect fill="#f2f5e9" fill-opacity="0.5" stroke="#606060" stroke-width=".5" x="0" y="0" width="60" height="60"/>
                <use id="zoomplus" xlink:href="#zoomPlus" x="17" y="9" onmousedown="handleZoom(evt,'in')"/>
                <use id="zoomminus" xlink:href="#zoomMin" x="42" y="9" onmousedown="handleZoom(evt,'out')"/>
                <use id="reset" xlink:href="#resetDef" x="30" y="36" onmousedown="handleReset()"/>
                <g id="arrowUp" xlink:href="#dirArrow" transform="translate(30 24)" onmousedown="handlePan(0,-1)">
                  <use xlink:href="#rim" fill="#404040">
                        <set attributeName="fill" to="#808080" begin="arrowUp.mouseover" end="arrowUp.mouseout"/>
                  </use>
                  <path fill="none" stroke="white" stroke-width="1.5" d="M0,-3.0v7 M-2.5,-0.5L0,-3.0L2.5,-0.5"/>
                </g>
                <g id="arrowRight" xlink:href="#dirArrow" transform="rotate(90) translate(36 -43)" onmousedown="handlePan(1,0)">
                  <use xlink:href="#rim" fill="#404040">
                        <set attributeName="fill" to="#808080" begin="arrowRight.mouseover" end="arrowRight.mouseout"/>
                  </use>
                  <path fill="none" stroke="white" stroke-width="1.5" d="M0,-3.0v7 M-2.5,-0.5L0,-3.0L2.5,-0.5"/>
                </g>
                <g id="arrowDown" xlink:href="#dirArrow" transform="rotate(180) translate(-30 -48)" onmousedown="handlePan(0,1)">
                  <use xlink:href="#rim" fill="#404040">
                        <set attributeName="fill" to="#808080" begin="arrowDown.mouseover" end="arrowDown.mouseout"/>
                  </use>
                  <path fill="none" stroke="white" stroke-width="1.5" d="M0,-3.0v7 M-2.5,-0.5L0,-3.0L2.5,-0.5"/>
                </g>
                <g id="arrowLeft" xlink:href="#dirArrow" transform="rotate(270) translate(-36 17)" onmousedown="handlePan(-1,0)">
                  <use xlink:href="#rim" fill="#404040">
                        <set attributeName="fill" to="#808080" begin="arrowLeft.mouseover" end="arrowLeft.mouseout"/>
                  </use>
                  <path fill="none" stroke="white" stroke-width="1.5" d="M0,-3.0v7 M-2.5,-0.5L0,-3.0L2.5,-0.5"/>
                </g>
        </g>
        <svg viewBox="0 0 15 15" width="100%" height="30px" preserveAspectRatio="xMaxYMin meet">
         <g id="arrow_out" transform="scale(0.3 0.3)">
          <a xlink:href="spp_8cpp_a377ec0db0b94700f96e82a487cfe6761_cgraph_org.svg" target="_base">
           <rect id="button" ry="5" rx="5" y="6" x="6" height="38" width="38"
                fill="#f2f5e9" fill-opacity="0.5" stroke="#606060" stroke-width="1.0"/>
           <path id="arrow"
             d="M 11.500037,31.436501 C 11.940474,20.09759 22.043105,11.32322 32.158766,21.979434 L 37.068811,17.246167 C 37.068811,17.246167 37.088388,32 37.088388,32 L 22.160133,31.978069 C 22.160133,31.978069 26.997745,27.140456 26.997745,27.140456 C 18.528582,18.264221 13.291696,25.230495 11.500037,31.436501 z"
             style="fill:#404040;"/>
          </a>
         </g>
        </svg>
</svg>
