<?xml version="1.0" encoding="UTF-8" standalone="no"?>
<!DOCTYPE svg PUBLIC "-//W3C//DTD SVG 1.1//EN"
 "http://www.w3.org/Graphics/SVG/1.1/DTD/svg11.dtd">
<!-- Generated by graphviz version 2.50.0 (20220203.2022)
 -->
<!-- Title: prepareSsrStates Pages: 1 -->
<!--zoomable 470 -->
<svg id="main" version="1.1" xmlns="http://www.w3.org/2000/svg" xmlns:xlink="http://www.w3.org/1999/xlink" xml:space="preserve" onload="init(evt)">
<style type="text/css"><![CDATA[
.edge:hover path { stroke: red; }
.edge:hover polygon { stroke: red; fill: red; }
]]></style>
<script type="text/javascript"><![CDATA[
var edges = document.getElementsByTagName('g');
if (edges && edges.length) {
  for (var i=0;i<edges.length;i++) {
    if (edges[i].id.substr(0,4)=='edge') {
      edges[i].setAttribute('class','edge');
    }
  }
}
]]></script>
        <defs>
                <circle id="rim" cx="0" cy="0" r="7"/>
                <circle id="rim2" cx="0" cy="0" r="3.5"/>
                <g id="zoomPlus">
                        <use xlink:href="#rim" fill="#404040">
                                <set attributeName="fill" to="#808080" begin="zoomplus.mouseover" end="zoomplus.mouseout"/>
                        </use>
                        <path d="M-4,0h8M0,-4v8" fill="none" stroke="white" stroke-width="1.5" pointer-events="none"/>
                </g>
                <g id="zoomMin">
                        <use xlink:href="#rim" fill="#404040">
                                <set attributeName="fill" to="#808080" begin="zoomminus.mouseover" end="zoomminus.mouseout"/>
                        </use>
                        <path d="M-4,0h8" fill="none" stroke="white" stroke-width="1.5" pointer-events="none"/>
                </g>
                <g id="dirArrow">
                        <path fill="none" stroke="white" stroke-width="1.5" d="M0,-3.0v7 M-2.5,-0.5L0,-3.0L2.5,-0.5"/>
                </g>
               <g id="resetDef">
                       <use xlink:href="#rim2" fill="#404040">
                               <set attributeName="fill" to="#808080" begin="reset.mouseover" end="reset.mouseout"/>
                       </use>
               </g>
        </defs>

<script type="text/javascript">
var viewWidth = 593;
var viewHeight = 470;
var sectionId = 'dynsection-1';
</script>
<script xlink:href="svgpan.js"/>
<svg id="graph" class="graph">
<g id="viewport">
<title>prepareSsrStates</title>
<polygon fill="white" stroke="transparent" points="-4,4 -4,-466.31 589,-466.31 589,4 -4,4"/>
<!-- Node1 -->
<g id="node1" class="node">
<title>Node1</title>
<g id="a_node1"><a xlink:title=" ">
<polygon fill="#bfbfbf" stroke="black" points="0,-252.81 0,-271.81 92,-271.81 92,-252.81 0,-252.81"/>
<text text-anchor="middle" x="46" y="-259.81" font-family="Helvetica,sans-Serif" font-size="10.00">prepareSsrStates</text>
</a>
</g>
</g>
<!-- Node2 -->
<g id="node2" class="node">
<title>Node2</title>
<g id="a_node2"><a xlink:href="antenna_8cpp.html#a034836f3266a59abe9199c55e50dbe8b" target="_top" xlink:title=" ">
<polygon fill="white" stroke="black" points="131.5,-404.81 131.5,-423.81 199.5,-423.81 199.5,-404.81 131.5,-404.81"/>
<text text-anchor="middle" x="165.5" y="-411.81" font-family="Helvetica,sans-Serif" font-size="10.00">findAntenna</text>
</a>
</g>
</g>
<!-- Node1&#45;&gt;Node2 -->
<g id="edge1" class="edge">
<title>Node1&#45;&gt;Node2</title>
<path fill="none" stroke="midnightblue" d="M50.68,-271.88C60.2,-295.55 87.72,-357.64 128,-395.31 129.45,-396.66 131.01,-397.95 132.65,-399.16"/>
<polygon fill="midnightblue" stroke="midnightblue" points="130.93,-402.21 141.24,-404.63 134.68,-396.31 130.93,-402.21"/>
</g>
<!-- Node3 -->
<g id="node3" class="node">
<title>Node3</title>
<g id="a_node3"><a xlink:href="biasSINEXread_8cpp.html#ad8d3890eaff651716f2ad2d8240438c8" target="_top" xlink:title="Search for hardware biases in phase and code.">
<polygon fill="white" stroke="black" points="128.5,-366.81 128.5,-385.81 202.5,-385.81 202.5,-366.81 128.5,-366.81"/>
<text text-anchor="middle" x="165.5" y="-373.81" font-family="Helvetica,sans-Serif" font-size="10.00">getBiasSinex</text>
</a>
</g>
</g>
<!-- Node1&#45;&gt;Node3 -->
<g id="edge2" class="edge">
<title>Node1&#45;&gt;Node3</title>
<path fill="none" stroke="midnightblue" d="M54.33,-271.98C67.76,-289.31 97.71,-326.28 128,-352.31 131.53,-355.34 135.45,-358.29 139.39,-361.03"/>
<polygon fill="midnightblue" stroke="midnightblue" points="137.6,-364.04 147.87,-366.64 141.46,-358.21 137.6,-364.04"/>
</g>
<!-- Node12 -->
<g id="node8" class="node">
<title>Node12</title>
<g id="a_node8"><a xlink:href="structKFState.html#a84691f6bbbe3cdccaa14722995a61e1b" target="_top" xlink:title="Returns the value and variance of a state within the kalman filter object.">
<polygon fill="white" stroke="black" points="363,-290.81 363,-309.81 471,-309.81 471,-290.81 363,-290.81"/>
<text text-anchor="middle" x="417" y="-297.81" font-family="Helvetica,sans-Serif" font-size="10.00">KFState::getKFValue</text>
</a>
</g>
</g>
<!-- Node1&#45;&gt;Node12 -->
<g id="edge7" class="edge">
<title>Node1&#45;&gt;Node12</title>
<path fill="none" stroke="midnightblue" d="M56.38,-271.93C70.43,-285.58 98.49,-309.97 128,-319.31 212.27,-345.99 317.16,-326.88 374.23,-312.41"/>
<polygon fill="midnightblue" stroke="midnightblue" points="375.19,-315.78 383.98,-309.87 373.42,-309.01 375.19,-315.78"/>
</g>
<!-- Node13 -->
<g id="node9" class="node">
<title>Node13</title>
<g id="a_node9"><a xlink:href="satSys_8cpp.html#aae80f3401dd26548c7b0b83c1e25e499" target="_top" xlink:title="Get all satellites of target system.">
<polygon fill="white" stroke="black" points="132,-290.81 132,-309.81 199,-309.81 199,-290.81 132,-290.81"/>
<text text-anchor="middle" x="165.5" y="-297.81" font-family="Helvetica,sans-Serif" font-size="10.00">getSysSats</text>
</a>
</g>
</g>
<!-- Node1&#45;&gt;Node13 -->
<g id="edge8" class="edge">
<title>Node1&#45;&gt;Node13</title>
<path fill="none" stroke="midnightblue" d="M76.65,-271.9C91.4,-276.67 109.43,-282.5 125.3,-287.63"/>
<polygon fill="midnightblue" stroke="midnightblue" points="124.27,-290.98 134.86,-290.72 126.42,-284.32 124.27,-290.98"/>
</g>
<!-- Node14 -->
<g id="node10" class="node">
<title>Node14</title>
<g id="a_node10"><a xlink:href="mongoWrite_8cpp.html#aaf15c5afcaa4503b0ba32d1265950326" target="_top" xlink:title=" ">
<polygon fill="white" stroke="black" points="134.5,-252.81 134.5,-271.81 196.5,-271.81 196.5,-252.81 134.5,-252.81"/>
<text text-anchor="middle" x="165.5" y="-259.81" font-family="Helvetica,sans-Serif" font-size="10.00">mongoCull</text>
</a>
</g>
</g>
<!-- Node1&#45;&gt;Node14 -->
<g id="edge9" class="edge">
<title>Node1&#45;&gt;Node14</title>
<path fill="none" stroke="midnightblue" d="M92.09,-262.31C102.67,-262.31 113.88,-262.31 124.24,-262.31"/>
<polygon fill="midnightblue" stroke="midnightblue" points="124.25,-265.81 134.25,-262.31 124.25,-258.81 124.25,-265.81"/>
</g>
<!-- Node15 -->
<g id="node11" class="node">
<title>Node15</title>
<g id="a_node11"><a xlink:href="mongoWrite_8cpp.html#a14767a2d2264347ab7832d5a1f3dd506" target="_top" xlink:title=" ">
<polygon fill="white" stroke="black" points="128,-214.81 128,-233.81 203,-233.81 203,-214.81 128,-214.81"/>
<text text-anchor="middle" x="165.5" y="-221.81" font-family="Helvetica,sans-Serif" font-size="10.00">mongoOutput</text>
</a>
</g>
</g>
<!-- Node1&#45;&gt;Node15 -->
<g id="edge10" class="edge">
<title>Node1&#45;&gt;Node15</title>
<path fill="none" stroke="midnightblue" d="M76.65,-252.72C91.4,-247.95 109.43,-242.12 125.3,-236.99"/>
<polygon fill="midnightblue" stroke="midnightblue" points="126.42,-240.3 134.86,-233.9 124.27,-233.64 126.42,-240.3"/>
</g>
<!-- Node16 -->
<g id="node12" class="node">
<title>Node16</title>
<g id="a_node12"><a xlink:href="ephemeris_8cpp.html#a8d3c308314354139cf1e890cdf6bead2" target="_top" xlink:title=" ">
<polygon fill="white" stroke="black" points="142.5,-176.81 142.5,-195.81 188.5,-195.81 188.5,-176.81 142.5,-176.81"/>
<text text-anchor="middle" x="165.5" y="-183.81" font-family="Helvetica,sans-Serif" font-size="10.00">satpos</text>
</a>
</g>
</g>
<!-- Node1&#45;&gt;Node16 -->
<g id="edge11" class="edge">
<title>Node1&#45;&gt;Node16</title>
<path fill="none" stroke="midnightblue" d="M59.55,-252.69C75.18,-240.89 102.88,-220.59 128,-205.31 130.52,-203.78 133.17,-202.25 135.85,-200.75"/>
<polygon fill="midnightblue" stroke="midnightblue" points="137.75,-203.71 144.91,-195.9 134.45,-197.54 137.75,-203.71"/>
</g>
<!-- Node25 -->
<g id="node14" class="node">
<title>Node25</title>
<g id="a_node14"><a xlink:href="ephemeris_8cpp.html#a9f0efb8ea92b3f1fa36a85ce12b366f1" target="_top" xlink:title=" ">
<polygon fill="white" stroke="red" points="507,-138.81 507,-157.81 585,-157.81 585,-138.81 507,-138.81"/>
<text text-anchor="middle" x="546" y="-145.81" font-family="Helvetica,sans-Serif" font-size="10.00">seleph&lt; Eph &gt;</text>
</a>
</g>
</g>
<!-- Node1&#45;&gt;Node25 -->
<g id="edge28" class="edge">
<title>Node1&#45;&gt;Node25</title>
<path fill="none" stroke="midnightblue" d="M47.79,-252.74C51.03,-219.79 66.24,-109.84 128,-52.31 165.75,-17.14 187.97,-25.95 239,-18.31 341.22,-3.01 383.04,19.96 471,-34.31 506.65,-56.31 528.44,-102.62 538.45,-128.95"/>
<polygon fill="midnightblue" stroke="midnightblue" points="535.24,-130.35 541.93,-138.57 541.83,-127.98 535.24,-130.35"/>
</g>
<!-- Node42 -->
<g id="node19" class="node">
<title>Node42</title>
<g id="a_node19"><a xlink:href="streamTrace_8cpp.html#a26d8a8c49d22d1ec101a45f8ee2e1fcc" target="_top" xlink:title=" ">
<polygon fill="white" stroke="black" points="390,-43.81 390,-62.81 444,-62.81 444,-43.81 390,-43.81"/>
<text text-anchor="middle" x="417" y="-50.81" font-family="Helvetica,sans-Serif" font-size="10.00">tracepde</text>
</a>
</g>
</g>
<!-- Node1&#45;&gt;Node42 -->
<g id="edge29" class="edge">
<title>Node1&#45;&gt;Node42</title>
<path fill="none" stroke="midnightblue" d="M51.29,-252.57C68.36,-215.2 135.59,-80.69 239,-32.31 286.4,-10.13 348.41,-26.42 385.05,-40.03"/>
<polygon fill="midnightblue" stroke="midnightblue" points="384.08,-43.41 394.67,-43.76 386.62,-36.88 384.08,-43.41"/>
</g>
<!-- Node4 -->
<g id="node4" class="node">
<title>Node4</title>
<g id="a_node4"><a xlink:href="biasSINEXread_8cpp.html#a4ccebd721f67990485d488f06eb69ab5" target="_top" xlink:title="Search for hardware bias for given measurmenet type.">
<polygon fill="white" stroke="red" points="258,-442.81 258,-461.81 308,-461.81 308,-442.81 258,-442.81"/>
<text text-anchor="middle" x="283" y="-449.81" font-family="Helvetica,sans-Serif" font-size="10.00">getBias</text>
</a>
</g>
</g>
<!-- Node3&#45;&gt;Node4 -->
<g id="edge3" class="edge">
<title>Node3&#45;&gt;Node4</title>
<path fill="none" stroke="midnightblue" d="M187.68,-385.82C192.9,-388.56 198.32,-391.78 203,-395.31 221.57,-409.32 219.99,-419.9 239,-433.31 242.05,-435.46 245.38,-437.45 248.79,-439.26"/>
<polygon fill="midnightblue" stroke="midnightblue" points="247.36,-442.46 257.89,-443.65 250.4,-436.15 247.36,-442.46"/>
</g>
<!-- Node8 -->
<g id="node5" class="node">
<title>Node8</title>
<g id="a_node5"><a xlink:href="structSatSys.html#aec6d07b90d1e8172b8b6a6966abef4fd" target="_top" xlink:title="Returns a std::string of this satellite&#39;s id.">
<polygon fill="white" stroke="red" points="253,-290.81 253,-309.81 313,-309.81 313,-290.81 253,-290.81"/>
<text text-anchor="middle" x="283" y="-297.81" font-family="Helvetica,sans-Serif" font-size="10.00">SatSys::id</text>
</a>
</g>
</g>
<!-- Node3&#45;&gt;Node8 -->
<g id="edge4" class="edge">
<title>Node3&#45;&gt;Node8</title>
<path fill="none" stroke="midnightblue" d="M181.13,-366.68C200.74,-353.78 235.77,-330.73 258.95,-315.48"/>
<polygon fill="midnightblue" stroke="midnightblue" points="261.06,-318.28 267.49,-309.86 257.21,-312.43 261.06,-318.28"/>
</g>
<!-- Node10 -->
<g id="node6" class="node">
<title>Node10</title>
<g id="a_node6"><a xlink:href="structSatSys.html#abfd7e43b0d57c2718d05ca595ee360dd" target="_top" xlink:title="Returns the character used as a prefix for this system.">
<polygon fill="white" stroke="black" points="239,-404.81 239,-423.81 327,-423.81 327,-404.81 239,-404.81"/>
<text text-anchor="middle" x="283" y="-411.81" font-family="Helvetica,sans-Serif" font-size="10.00">SatSys::sysChar</text>
</a>
</g>
</g>
<!-- Node3&#45;&gt;Node10 -->
<g id="edge5" class="edge">
<title>Node3&#45;&gt;Node10</title>
<path fill="none" stroke="midnightblue" d="M195.65,-385.9C210.01,-390.62 227.53,-396.39 243.03,-401.49"/>
<polygon fill="midnightblue" stroke="midnightblue" points="242.27,-404.92 252.86,-404.72 244.46,-398.27 242.27,-404.92"/>
</g>
<!-- Node11 -->
<g id="node7" class="node">
<title>Node11</title>
<g id="a_node7"><a xlink:href="streamTrace_8cpp.html#ae00e6addd3bdf3a7fd41a254eb9aec89" target="_top" xlink:title=" ">
<polygon fill="white" stroke="black" points="251,-366.81 251,-385.81 315,-385.81 315,-366.81 251,-366.81"/>
<text text-anchor="middle" x="283" y="-373.81" font-family="Helvetica,sans-Serif" font-size="10.00">tracepdeex</text>
</a>
</g>
</g>
<!-- Node3&#45;&gt;Node11 -->
<g id="edge6" class="edge">
<title>Node3&#45;&gt;Node11</title>
<path fill="none" stroke="midnightblue" d="M202.73,-376.31C214.82,-376.31 228.39,-376.31 240.83,-376.31"/>
<polygon fill="midnightblue" stroke="midnightblue" points="240.96,-379.81 250.96,-376.31 240.96,-372.81 240.96,-379.81"/>
</g>
<!-- Node16&#45;&gt;Node8 -->
<g id="edge14" class="edge">
<title>Node16&#45;&gt;Node8</title>
<path fill="none" stroke="midnightblue" d="M188.53,-194.86C193.73,-197.62 198.94,-201.09 203,-205.31 228.93,-232.23 212.23,-255.23 239,-281.31 240.62,-282.88 242.38,-284.34 244.25,-285.68"/>
<polygon fill="midnightblue" stroke="midnightblue" points="242.55,-288.74 252.92,-290.88 246.15,-282.74 242.55,-288.74"/>
</g>
<!-- Node17 -->
<g id="node13" class="node">
<title>Node17</title>
<g id="a_node13"><a xlink:href="ephemeris_8cpp.html#ab387654b0425d2c50b5b539400e122d1" target="_top" xlink:title=" ">
<polygon fill="white" stroke="red" points="393,-176.81 393,-195.81 441,-195.81 441,-176.81 393,-176.81"/>
<text text-anchor="middle" x="417" y="-183.81" font-family="Helvetica,sans-Serif" font-size="10.00">ephpos</text>
</a>
</g>
</g>
<!-- Node16&#45;&gt;Node17 -->
<g id="edge12" class="edge">
<title>Node16&#45;&gt;Node17</title>
<path fill="none" stroke="midnightblue" d="M188.74,-193.72C202.94,-198.06 221.84,-203.1 239,-205.31 277.79,-210.31 288.1,-209.41 327,-205.31 345.74,-203.33 366.33,-199.07 382.98,-195.09"/>
<polygon fill="midnightblue" stroke="midnightblue" points="383.92,-198.46 392.79,-192.67 382.24,-191.67 383.92,-198.46"/>
</g>
<!-- Node34 -->
<g id="node15" class="node">
<title>Node34</title>
<g id="a_node15"><a xlink:href="ephemeris_8cpp.html#a9b8aa496bacec0c8a8a76cac9adeb727" target="_top" xlink:title=" ">
<polygon fill="white" stroke="black" points="250.5,-252.81 250.5,-271.81 315.5,-271.81 315.5,-252.81 250.5,-252.81"/>
<text text-anchor="middle" x="283" y="-259.81" font-family="Helvetica,sans-Serif" font-size="10.00">kalmanPos</text>
</a>
</g>
</g>
<!-- Node16&#45;&gt;Node34 -->
<g id="edge15" class="edge">
<title>Node16&#45;&gt;Node34</title>
<path fill="none" stroke="midnightblue" d="M187.13,-195.85C192.47,-198.64 198.08,-201.87 203,-205.31 220.78,-217.76 221.4,-225.6 239,-238.31 243.59,-241.63 248.69,-244.83 253.72,-247.77"/>
<polygon fill="midnightblue" stroke="midnightblue" points="252.14,-250.89 262.58,-252.71 255.55,-244.78 252.14,-250.89"/>
</g>
<!-- Node35 -->
<g id="node16" class="node">
<title>Node35</title>
<g id="a_node16"><a xlink:href="preceph_8cpp.html#a5de24b59b2c115a07bdf76fca0efdda8" target="_top" xlink:title=" ">
<polygon fill="white" stroke="red" points="253.5,-176.81 253.5,-195.81 312.5,-195.81 312.5,-176.81 253.5,-176.81"/>
<text text-anchor="middle" x="283" y="-183.81" font-family="Helvetica,sans-Serif" font-size="10.00">peph2pos</text>
</a>
</g>
</g>
<!-- Node16&#45;&gt;Node35 -->
<g id="edge17" class="edge">
<title>Node16&#45;&gt;Node35</title>
<path fill="none" stroke="midnightblue" d="M188.77,-186.31C204.18,-186.31 225.11,-186.31 243.22,-186.31"/>
<polygon fill="midnightblue" stroke="midnightblue" points="243.23,-189.81 253.23,-186.31 243.23,-182.81 243.23,-189.81"/>
</g>
<!-- Node43 -->
<g id="node17" class="node">
<title>Node43</title>
<g id="a_node17"><a xlink:href="preceph_8cpp.html#a1e3783257a7c3cce97cf6c8064bdb335" target="_top" xlink:title=" ">
<polygon fill="white" stroke="red" points="256,-62.81 256,-81.81 310,-81.81 310,-62.81 256,-62.81"/>
<text text-anchor="middle" x="283" y="-69.81" font-family="Helvetica,sans-Serif" font-size="10.00">satantoff</text>
</a>
</g>
</g>
<!-- Node16&#45;&gt;Node43 -->
<g id="edge18" class="edge">
<title>Node16&#45;&gt;Node43</title>
<path fill="none" stroke="midnightblue" d="M172.48,-176.63C183.77,-158.96 209.71,-121.02 239,-96.31 243.06,-92.88 247.69,-89.7 252.36,-86.86"/>
<polygon fill="midnightblue" stroke="midnightblue" points="254.3,-89.78 261.27,-81.81 250.85,-83.69 254.3,-89.78"/>
</g>
<!-- Node27 -->
<g id="node18" class="node">
<title>Node27</title>
<g id="a_node18"><a xlink:href="structGTime.html#a64394968bbfdecbbeec4ba5134fdb682" target="_top" xlink:title=" ">
<polygon fill="white" stroke="red" points="373,-100.81 373,-119.81 461,-119.81 461,-100.81 373,-100.81"/>
<text text-anchor="middle" x="417" y="-107.81" font-family="Helvetica,sans-Serif" font-size="10.00">GTime::to_string</text>
</a>
</g>
</g>
<!-- Node16&#45;&gt;Node27 -->
<g id="edge26" class="edge">
<title>Node16&#45;&gt;Node27</title>
<path fill="none" stroke="midnightblue" d="M175.24,-176.65C187.86,-163.41 212.6,-140.06 239,-129.31 278.34,-113.29 326.45,-109 362.58,-108.46"/>
<polygon fill="midnightblue" stroke="midnightblue" points="362.93,-111.95 372.91,-108.4 362.89,-104.95 362.93,-111.95"/>
</g>
<!-- Node16&#45;&gt;Node42 -->
<g id="edge27" class="edge">
<title>Node16&#45;&gt;Node42</title>
<path fill="none" stroke="midnightblue" d="M168.31,-176.61C173.68,-150.91 192.19,-81.1 239,-53.31 281.99,-27.78 341.83,-34.7 379.74,-43.14"/>
<polygon fill="midnightblue" stroke="midnightblue" points="379.28,-46.63 389.82,-45.53 380.9,-39.82 379.28,-46.63"/>
</g>
<!-- Node54 -->
<g id="node20" class="node">
<title>Node54</title>
<g id="a_node20"><a xlink:href="ephemeris_8cpp.html#ac837b0f37e00dcd5e15c87d5bffe4ab8" target="_top" xlink:title=" ">
<polygon fill="white" stroke="red" points="250.5,-138.81 250.5,-157.81 315.5,-157.81 315.5,-138.81 250.5,-138.81"/>
<text text-anchor="middle" x="283" y="-145.81" font-family="Helvetica,sans-Serif" font-size="10.00">satpos_ssr</text>
</a>
</g>
</g>
<!-- Node16&#45;&gt;Node54 -->
<g id="edge21" class="edge">
<title>Node16&#45;&gt;Node54</title>
<path fill="none" stroke="midnightblue" d="M188.77,-178.98C204.15,-173.92 225,-167.06 243.09,-161.11"/>
<polygon fill="midnightblue" stroke="midnightblue" points="244.39,-164.37 252.8,-157.92 242.21,-157.72 244.39,-164.37"/>
</g>
<!-- Node17&#45;&gt;Node25 -->
<g id="edge13" class="edge">
<title>Node17&#45;&gt;Node25</title>
<path fill="none" stroke="midnightblue" d="M441.29,-179.34C458.65,-174.15 482.81,-166.92 503.44,-160.74"/>
<polygon fill="midnightblue" stroke="midnightblue" points="504.67,-164.03 513.24,-157.81 502.66,-157.32 504.67,-164.03"/>
</g>
<!-- Node34&#45;&gt;Node12 -->
<g id="edge16" class="edge">
<title>Node34&#45;&gt;Node12</title>
<path fill="none" stroke="midnightblue" d="M315.62,-271.41C332.81,-276.36 354.33,-282.56 373.03,-287.94"/>
<polygon fill="midnightblue" stroke="midnightblue" points="372.22,-291.35 382.8,-290.75 374.16,-284.62 372.22,-291.35"/>
</g>
<!-- Node43&#45;&gt;Node27 -->
<g id="edge19" class="edge">
<title>Node43&#45;&gt;Node27</title>
<path fill="none" stroke="midnightblue" d="M310.08,-79.82C328.03,-84.98 352.29,-91.97 373.06,-97.95"/>
<polygon fill="midnightblue" stroke="midnightblue" points="372.36,-101.39 382.94,-100.79 374.3,-94.66 372.36,-101.39"/>
</g>
<!-- Node43&#45;&gt;Node42 -->
<g id="edge20" class="edge">
<title>Node43&#45;&gt;Node42</title>
<path fill="none" stroke="midnightblue" d="M310.08,-68.56C330.06,-65.68 357.85,-61.68 379.95,-58.5"/>
<polygon fill="midnightblue" stroke="midnightblue" points="380.58,-61.94 389.98,-57.06 379.58,-55.02 380.58,-61.94"/>
</g>
<!-- Node54&#45;&gt;Node17 -->
<g id="edge22" class="edge">
<title>Node54&#45;&gt;Node17</title>
<path fill="none" stroke="midnightblue" d="M315.62,-157.41C336.07,-163.3 362.63,-170.94 383.29,-176.89"/>
<polygon fill="midnightblue" stroke="midnightblue" points="382.33,-180.26 392.91,-179.66 384.27,-173.53 382.33,-180.26"/>
</g>
<!-- Node54&#45;&gt;Node25 -->
<g id="edge23" class="edge">
<title>Node54&#45;&gt;Node25</title>
<path fill="none" stroke="midnightblue" d="M315.74,-148.31C360.83,-148.31 443.79,-148.31 496.58,-148.31"/>
<polygon fill="midnightblue" stroke="midnightblue" points="496.72,-151.81 506.72,-148.31 496.72,-144.81 496.72,-151.81"/>
</g>
<!-- Node54&#45;&gt;Node27 -->
<g id="edge24" class="edge">
<title>Node54&#45;&gt;Node27</title>
<path fill="none" stroke="midnightblue" d="M315.62,-139.21C332.81,-134.26 354.33,-128.06 373.03,-122.68"/>
<polygon fill="midnightblue" stroke="midnightblue" points="374.16,-126 382.8,-119.87 372.22,-119.27 374.16,-126"/>
</g>
<!-- Node54&#45;&gt;Node42 -->
<g id="edge25" class="edge">
<title>Node54&#45;&gt;Node42</title>
<path fill="none" stroke="midnightblue" d="M297.41,-138.62C313.12,-127.26 339.93,-107.9 363,-91.31 373.27,-83.92 384.68,-75.74 394.27,-68.87"/>
<polygon fill="midnightblue" stroke="midnightblue" points="396.39,-71.65 402.49,-62.98 392.32,-65.96 396.39,-71.65"/>
</g>
</g>
</svg>
        <g id="navigator" transform="translate(0 0)" fill="#404254">
                <rect fill="#f2f5e9" fill-opacity="0.5" stroke="#606060" stroke-width=".5" x="0" y="0" width="60" height="60"/>
                <use id="zoomplus" xlink:href="#zoomPlus" x="17" y="9" onmousedown="handleZoom(evt,'in')"/>
                <use id="zoomminus" xlink:href="#zoomMin" x="42" y="9" onmousedown="handleZoom(evt,'out')"/>
                <use id="reset" xlink:href="#resetDef" x="30" y="36" onmousedown="handleReset()"/>
                <g id="arrowUp" xlink:href="#dirArrow" transform="translate(30 24)" onmousedown="handlePan(0,-1)">
                  <use xlink:href="#rim" fill="#404040">
                        <set attributeName="fill" to="#808080" begin="arrowUp.mouseover" end="arrowUp.mouseout"/>
                  </use>
                  <path fill="none" stroke="white" stroke-width="1.5" d="M0,-3.0v7 M-2.5,-0.5L0,-3.0L2.5,-0.5"/>
                </g>
                <g id="arrowRight" xlink:href="#dirArrow" transform="rotate(90) translate(36 -43)" onmousedown="handlePan(1,0)">
                  <use xlink:href="#rim" fill="#404040">
                        <set attributeName="fill" to="#808080" begin="arrowRight.mouseover" end="arrowRight.mouseout"/>
                  </use>
                  <path fill="none" stroke="white" stroke-width="1.5" d="M0,-3.0v7 M-2.5,-0.5L0,-3.0L2.5,-0.5"/>
                </g>
                <g id="arrowDown" xlink:href="#dirArrow" transform="rotate(180) translate(-30 -48)" onmousedown="handlePan(0,1)">
                  <use xlink:href="#rim" fill="#404040">
                        <set attributeName="fill" to="#808080" begin="arrowDown.mouseover" end="arrowDown.mouseout"/>
                  </use>
                  <path fill="none" stroke="white" stroke-width="1.5" d="M0,-3.0v7 M-2.5,-0.5L0,-3.0L2.5,-0.5"/>
                </g>
                <g id="arrowLeft" xlink:href="#dirArrow" transform="rotate(270) translate(-36 17)" onmousedown="handlePan(-1,0)">
                  <use xlink:href="#rim" fill="#404040">
                        <set attributeName="fill" to="#808080" begin="arrowLeft.mouseover" end="arrowLeft.mouseout"/>
                  </use>
                  <path fill="none" stroke="white" stroke-width="1.5" d="M0,-3.0v7 M-2.5,-0.5L0,-3.0L2.5,-0.5"/>
                </g>
        </g>
        <svg viewBox="0 0 15 15" width="100%" height="30px" preserveAspectRatio="xMaxYMin meet">
         <g id="arrow_out" transform="scale(0.3 0.3)">
          <a xlink:href="ssr_8hpp_ac5399222f483050332a2571ebcbc5ba1_cgraph_org.svg" target="_base">
           <rect id="button" ry="5" rx="5" y="6" x="6" height="38" width="38"
                fill="#f2f5e9" fill-opacity="0.5" stroke="#606060" stroke-width="1.0"/>
           <path id="arrow"
             d="M 11.500037,31.436501 C 11.940474,20.09759 22.043105,11.32322 32.158766,21.979434 L 37.068811,17.246167 C 37.068811,17.246167 37.088388,32 37.088388,32 L 22.160133,31.978069 C 22.160133,31.978069 26.997745,27.140456 26.997745,27.140456 C 18.528582,18.264221 13.291696,25.230495 11.500037,31.436501 z"
             style="fill:#404040;"/>
          </a>
         </g>
        </svg>
</svg>
