<?xml version="1.0" encoding="UTF-8" standalone="no"?>
<!DOCTYPE svg PUBLIC "-//W3C//DTD SVG 1.1//EN"
 "http://www.w3.org/Graphics/SVG/1.1/DTD/svg11.dtd">
<!-- Generated by graphviz version 2.50.0 (20220203.2022)
 -->
<!-- Title: traceFormatedFloat Pages: 1 -->
<svg width="397pt" height="104pt"
 viewBox="0.00 0.00 397.00 104.00" xmlns="http://www.w3.org/2000/svg" xmlns:xlink="http://www.w3.org/1999/xlink">
<g id="graph0" class="graph" transform="scale(1 1) rotate(0) translate(4 100)">
<title>traceFormatedFloat</title>
<polygon fill="white" stroke="transparent" points="-4,4 -4,-100 393,-100 393,4 -4,4"/>
<!-- Node1 -->
<g id="node1" class="node">
<title>Node1</title>
<g id="a_node1"><a xlink:title=" ">
<polygon fill="#bfbfbf" stroke="black" points="288,-38.5 288,-57.5 389,-57.5 389,-38.5 288,-38.5"/>
<text text-anchor="middle" x="338.5" y="-45.5" font-family="Helvetica,sans-Serif" font-size="10.00">traceFormatedFloat</text>
</a>
</g>
</g>
<!-- Node2 -->
<g id="node2" class="node">
<title>Node2</title>
<g id="a_node2"><a xlink:href="rinexNavWrite_8cpp.html#ad6032ecaca96d9c55f6d307d1c7f09fe" target="_top" xlink:title=" ">
<polygon fill="white" stroke="black" points="146.5,-76.5 146.5,-95.5 248.5,-95.5 248.5,-76.5 146.5,-76.5"/>
<text text-anchor="middle" x="197.5" y="-83.5" font-family="Helvetica,sans-Serif" font-size="10.00">outputNavRinexEph</text>
</a>
</g>
</g>
<!-- Node1&#45;&gt;Node2 -->
<g id="edge1" class="edge">
<title>Node1&#45;&gt;Node2</title>
<path fill="none" stroke="midnightblue" d="M292.7,-60.25C273.55,-65.48 251.51,-71.51 233.56,-76.41"/>
<polygon fill="midnightblue" stroke="midnightblue" points="293.7,-63.6 302.42,-57.59 291.86,-56.85 293.7,-63.6"/>
</g>
<!-- Node6 -->
<g id="node4" class="node">
<title>Node6</title>
<g id="a_node4"><a xlink:href="rinexNavWrite_8cpp.html#a7740f536df7f89a2483312817d815269" target="_top" xlink:title=" ">
<polygon fill="white" stroke="black" points="143,-38.5 143,-57.5 252,-57.5 252,-38.5 143,-38.5"/>
<text text-anchor="middle" x="197.5" y="-45.5" font-family="Helvetica,sans-Serif" font-size="10.00">outputNavRinexGeph</text>
</a>
</g>
</g>
<!-- Node1&#45;&gt;Node6 -->
<g id="edge3" class="edge">
<title>Node1&#45;&gt;Node6</title>
<path fill="none" stroke="midnightblue" d="M277.55,-48C269.11,-48 260.48,-48 252.18,-48"/>
<polygon fill="midnightblue" stroke="midnightblue" points="277.71,-51.5 287.71,-48 277.71,-44.5 277.71,-51.5"/>
</g>
<!-- Node7 -->
<g id="node5" class="node">
<title>Node7</title>
<g id="a_node5"><a xlink:href="biasSINEXwrite_8cpp.html#a4e4fe834c1dbcb6b4a41560de1d7432e" target="_top" xlink:title="print bias SINEX data line">
<polygon fill="white" stroke="black" points="148.5,-0.5 148.5,-19.5 246.5,-19.5 246.5,-0.5 148.5,-0.5"/>
<text text-anchor="middle" x="197.5" y="-7.5" font-family="Helvetica,sans-Serif" font-size="10.00">write_bSINEX_line</text>
</a>
</g>
</g>
<!-- Node1&#45;&gt;Node7 -->
<g id="edge5" class="edge">
<title>Node1&#45;&gt;Node7</title>
<path fill="none" stroke="midnightblue" d="M292.7,-35.75C273.55,-30.52 251.51,-24.49 233.56,-19.59"/>
<polygon fill="midnightblue" stroke="midnightblue" points="291.86,-39.15 302.42,-38.41 293.7,-32.4 291.86,-39.15"/>
</g>
<!-- Node3 -->
<g id="node3" class="node">
<title>Node3</title>
<g id="a_node3"><a xlink:href="rinexNavWrite_8cpp.html#adcdc6b6fa739eb37d934e1cc51f45d5a" target="_top" xlink:title=" ">
<polygon fill="white" stroke="red" points="0,-57.5 0,-76.5 107,-76.5 107,-57.5 0,-57.5"/>
<text text-anchor="middle" x="53.5" y="-64.5" font-family="Helvetica,sans-Serif" font-size="10.00">outputNavRinexBody</text>
</a>
</g>
</g>
<!-- Node2&#45;&gt;Node3 -->
<g id="edge2" class="edge">
<title>Node2&#45;&gt;Node3</title>
<path fill="none" stroke="midnightblue" d="M136.52,-77.97C126.87,-76.68 116.95,-75.36 107.48,-74.09"/>
<polygon fill="midnightblue" stroke="midnightblue" points="136.06,-81.44 146.44,-79.3 136.99,-74.51 136.06,-81.44"/>
</g>
<!-- Node6&#45;&gt;Node3 -->
<g id="edge4" class="edge">
<title>Node6&#45;&gt;Node3</title>
<path fill="none" stroke="midnightblue" d="M132.88,-56.51C124.34,-57.66 115.65,-58.82 107.32,-59.93"/>
<polygon fill="midnightblue" stroke="midnightblue" points="133.37,-59.98 142.82,-55.18 132.44,-53.04 133.37,-59.98"/>
</g>
<!-- Node8 -->
<g id="node6" class="node">
<title>Node8</title>
<g id="a_node6"><a xlink:href="biasSINEXwrite_8cpp.html#aee560ba7f0a3ee3cb198627a9673c27e" target="_top" xlink:title="Write stored bias output to SINEX file Return number of written biases (&#45;1 if file not found)">
<polygon fill="white" stroke="red" points="13,-0.5 13,-19.5 94,-19.5 94,-0.5 13,-0.5"/>
<text text-anchor="middle" x="53.5" y="-7.5" font-family="Helvetica,sans-Serif" font-size="10.00">writeBiasSinex</text>
</a>
</g>
</g>
<!-- Node7&#45;&gt;Node8 -->
<g id="edge6" class="edge">
<title>Node7&#45;&gt;Node8</title>
<path fill="none" stroke="midnightblue" d="M138.28,-10C123.39,-10 107.73,-10 94.03,-10"/>
<polygon fill="midnightblue" stroke="midnightblue" points="138.43,-13.5 148.43,-10 138.43,-6.5 138.43,-13.5"/>
</g>
</g>
</svg>
