<?xml version="1.0" encoding="UTF-8" standalone="no"?>
<!DOCTYPE svg PUBLIC "-//W3C//DTD SVG 1.1//EN"
 "http://www.w3.org/Graphics/SVG/1.1/DTD/svg11.dtd">
<!-- Generated by graphviz version 2.50.0 (20220203.2022)
 -->
<!-- Title: /github/workspace/src/cpp/common/streamRtcm.hpp Pages: 1 -->
<svg width="1214pt" height="184pt"
 viewBox="0.00 0.00 1214.00 184.00" xmlns="http://www.w3.org/2000/svg" xmlns:xlink="http://www.w3.org/1999/xlink">
<g id="graph0" class="graph" transform="scale(1 1) rotate(0) translate(4 180)">
<title>/github/workspace/src/cpp/common/streamRtcm.hpp</title>
<polygon fill="white" stroke="transparent" points="-4,4 -4,-180 1210,-180 1210,4 -4,4"/>
<!-- Node1 -->
<g id="node1" class="node">
<title>Node1</title>
<g id="a_node1"><a xlink:title=" ">
<polygon fill="#bfbfbf" stroke="black" points="530,-145.5 530,-175.5 680,-175.5 680,-145.5 530,-145.5"/>
<text text-anchor="start" x="538" y="-163.5" font-family="Helvetica,sans-Serif" font-size="10.00">/github/workspace/src</text>
<text text-anchor="middle" x="605" y="-152.5" font-family="Helvetica,sans-Serif" font-size="10.00">/cpp/common/streamRtcm.hpp</text>
</a>
</g>
</g>
<!-- Node2 -->
<g id="node2" class="node">
<title>Node2</title>
<g id="a_node2"><a xlink:href="acsStream_8cpp.html" target="_top" xlink:title=" ">
<polygon fill="white" stroke="black" points="0,-6 0,-36 144,-36 144,-6 0,-6"/>
<text text-anchor="start" x="8" y="-24" font-family="Helvetica,sans-Serif" font-size="10.00">/github/workspace/src</text>
<text text-anchor="middle" x="72" y="-13" font-family="Helvetica,sans-Serif" font-size="10.00">/cpp/common/acsStream.cpp</text>
</a>
</g>
</g>
<!-- Node1&#45;&gt;Node2 -->
<g id="edge1" class="edge">
<title>Node1&#45;&gt;Node2</title>
<path fill="none" stroke="midnightblue" d="M540.54,-142.87C434.58,-115.54 225.49,-61.6 126.46,-36.05"/>
<polygon fill="midnightblue" stroke="midnightblue" points="539.91,-146.32 550.46,-145.43 541.66,-139.54 539.91,-146.32"/>
</g>
<!-- Node3 -->
<g id="node3" class="node">
<title>Node3</title>
<g id="a_node3"><a xlink:href="acsStream_8hpp.html" target="_top" xlink:title=" ">
<polygon fill="white" stroke="black" points="451,-78.5 451,-108.5 595,-108.5 595,-78.5 451,-78.5"/>
<text text-anchor="start" x="459" y="-96.5" font-family="Helvetica,sans-Serif" font-size="10.00">/github/workspace/src</text>
<text text-anchor="middle" x="523" y="-85.5" font-family="Helvetica,sans-Serif" font-size="10.00">/cpp/common/acsStream.hpp</text>
</a>
</g>
</g>
<!-- Node1&#45;&gt;Node3 -->
<g id="edge2" class="edge">
<title>Node1&#45;&gt;Node3</title>
<path fill="none" stroke="midnightblue" d="M579.35,-139.17C566.81,-129.23 552.03,-117.51 540.76,-108.58"/>
<polygon fill="midnightblue" stroke="midnightblue" points="577.2,-141.93 587.21,-145.4 581.54,-136.44 577.2,-141.93"/>
</g>
<!-- Node11 -->
<g id="node11" class="node">
<title>Node11</title>
<g id="a_node11"><a xlink:href="mongoRead_8cpp.html" target="_top" xlink:title=" ">
<polygon fill="white" stroke="black" points="613.5,-78.5 613.5,-108.5 762.5,-108.5 762.5,-78.5 613.5,-78.5"/>
<text text-anchor="start" x="621.5" y="-96.5" font-family="Helvetica,sans-Serif" font-size="10.00">/github/workspace/src</text>
<text text-anchor="middle" x="688" y="-85.5" font-family="Helvetica,sans-Serif" font-size="10.00">/cpp/common/mongoRead.cpp</text>
</a>
</g>
</g>
<!-- Node1&#45;&gt;Node11 -->
<g id="edge11" class="edge">
<title>Node1&#45;&gt;Node11</title>
<path fill="none" stroke="midnightblue" d="M630.96,-139.17C643.65,-129.23 658.61,-117.51 670.03,-108.58"/>
<polygon fill="midnightblue" stroke="midnightblue" points="628.72,-136.47 623.01,-145.4 633.04,-141.99 628.72,-136.47"/>
</g>
<!-- Node12 -->
<g id="node12" class="node">
<title>Node12</title>
<g id="a_node12"><a xlink:href="rtcmDecoder_8cpp.html" target="_top" xlink:title=" ">
<polygon fill="white" stroke="black" points="781,-78.5 781,-108.5 933,-108.5 933,-78.5 781,-78.5"/>
<text text-anchor="start" x="789" y="-96.5" font-family="Helvetica,sans-Serif" font-size="10.00">/github/workspace/src</text>
<text text-anchor="middle" x="857" y="-85.5" font-family="Helvetica,sans-Serif" font-size="10.00">/cpp/common/rtcmDecoder.cpp</text>
</a>
</g>
</g>
<!-- Node1&#45;&gt;Node12 -->
<g id="edge12" class="edge">
<title>Node1&#45;&gt;Node12</title>
<path fill="none" stroke="midnightblue" d="M669.29,-142.92C710.41,-132.31 763.18,-118.7 802.29,-108.61"/>
<polygon fill="midnightblue" stroke="midnightblue" points="668.18,-139.59 659.37,-145.48 669.93,-146.37 668.18,-139.59"/>
</g>
<!-- Node3&#45;&gt;Node2 -->
<g id="edge4" class="edge">
<title>Node3&#45;&gt;Node2</title>
<path fill="none" stroke="midnightblue" d="M440.31,-83.77C365.05,-75.21 251.07,-60.74 153,-42 144.04,-40.29 134.58,-38.21 125.41,-36.04"/>
<polygon fill="midnightblue" stroke="midnightblue" points="440.33,-87.29 450.66,-84.93 441.12,-80.33 440.33,-87.29"/>
</g>
<!-- Node4 -->
<g id="node4" class="node">
<title>Node4</title>
<g id="a_node4"><a xlink:href="brdc2sp3__main__bck_8cpp.html" target="_top" xlink:title=" ">
<polygon fill="white" stroke="black" points="162.5,-0.5 162.5,-41.5 283.5,-41.5 283.5,-0.5 162.5,-0.5"/>
<text text-anchor="start" x="170.5" y="-29.5" font-family="Helvetica,sans-Serif" font-size="10.00">/github/workspace/src</text>
<text text-anchor="start" x="170.5" y="-18.5" font-family="Helvetica,sans-Serif" font-size="10.00">/cpp/brdc2sp3/brdc2sp3</text>
<text text-anchor="middle" x="223" y="-7.5" font-family="Helvetica,sans-Serif" font-size="10.00">_main_bck.cpp</text>
</a>
</g>
</g>
<!-- Node3&#45;&gt;Node4 -->
<g id="edge3" class="edge">
<title>Node3&#45;&gt;Node4</title>
<path fill="none" stroke="midnightblue" d="M443.05,-76.4C398.43,-67.07 341.94,-54.68 292,-42 289.22,-41.29 286.38,-40.55 283.52,-39.79"/>
<polygon fill="midnightblue" stroke="midnightblue" points="442.46,-79.85 452.97,-78.46 443.89,-73 442.46,-79.85"/>
</g>
<!-- Node5 -->
<g id="node5" class="node">
<title>Node5</title>
<g id="a_node5"><a xlink:href="debug_8cpp.html" target="_top" xlink:title=" ">
<polygon fill="white" stroke="black" points="301.5,-6 301.5,-36 424.5,-36 424.5,-6 301.5,-6"/>
<text text-anchor="start" x="309.5" y="-24" font-family="Helvetica,sans-Serif" font-size="10.00">/github/workspace/src</text>
<text text-anchor="middle" x="363" y="-13" font-family="Helvetica,sans-Serif" font-size="10.00">/cpp/common/debug.cpp</text>
</a>
</g>
</g>
<!-- Node3&#45;&gt;Node5 -->
<g id="edge5" class="edge">
<title>Node3&#45;&gt;Node5</title>
<path fill="none" stroke="midnightblue" d="M481.79,-74.34C454.74,-62.42 419.89,-47.07 394.94,-36.07"/>
<polygon fill="midnightblue" stroke="midnightblue" points="480.44,-77.57 491.01,-78.4 483.27,-71.17 480.44,-77.57"/>
</g>
<!-- Node6 -->
<g id="node6" class="node">
<title>Node6</title>
<g id="a_node6"><a xlink:href="ntripBroadcast_8cpp.html" target="_top" xlink:title=" ">
<polygon fill="white" stroke="black" points="443,-6 443,-36 603,-36 603,-6 443,-6"/>
<text text-anchor="start" x="451" y="-24" font-family="Helvetica,sans-Serif" font-size="10.00">/github/workspace/src</text>
<text text-anchor="middle" x="523" y="-13" font-family="Helvetica,sans-Serif" font-size="10.00">/cpp/common/ntripBroadcast.cpp</text>
</a>
</g>
</g>
<!-- Node3&#45;&gt;Node6 -->
<g id="edge6" class="edge">
<title>Node3&#45;&gt;Node6</title>
<path fill="none" stroke="midnightblue" d="M523,-68.23C523,-57.57 523,-45.41 523,-36.25"/>
<polygon fill="midnightblue" stroke="midnightblue" points="519.5,-68.23 523,-78.23 526.5,-68.23 519.5,-68.23"/>
</g>
<!-- Node7 -->
<g id="node7" class="node">
<title>Node7</title>
<g id="a_node7"><a xlink:href="ntripTrace_8cpp.html" target="_top" xlink:title=" ">
<polygon fill="white" stroke="black" points="621,-6 621,-36 761,-36 761,-6 621,-6"/>
<text text-anchor="start" x="629" y="-24" font-family="Helvetica,sans-Serif" font-size="10.00">/github/workspace/src</text>
<text text-anchor="middle" x="691" y="-13" font-family="Helvetica,sans-Serif" font-size="10.00">/cpp/common/ntripTrace.cpp</text>
</a>
</g>
</g>
<!-- Node3&#45;&gt;Node7 -->
<g id="edge7" class="edge">
<title>Node3&#45;&gt;Node7</title>
<path fill="none" stroke="midnightblue" d="M565.9,-74.5C594.35,-62.56 631.15,-47.11 657.46,-36.07"/>
<polygon fill="midnightblue" stroke="midnightblue" points="564.46,-71.31 556.59,-78.4 567.17,-77.76 564.46,-71.31"/>
</g>
<!-- Node8 -->
<g id="node8" class="node">
<title>Node8</title>
<g id="a_node8"><a xlink:href="main_8cpp.html" target="_top" xlink:title=" ">
<polygon fill="white" stroke="black" points="779.5,-6 779.5,-36 892.5,-36 892.5,-6 779.5,-6"/>
<text text-anchor="start" x="787.5" y="-24" font-family="Helvetica,sans-Serif" font-size="10.00">/github/workspace/src</text>
<text text-anchor="middle" x="836" y="-13" font-family="Helvetica,sans-Serif" font-size="10.00">/cpp/pea/main.cpp</text>
</a>
</g>
</g>
<!-- Node3&#45;&gt;Node8 -->
<g id="edge8" class="edge">
<title>Node3&#45;&gt;Node8</title>
<path fill="none" stroke="midnightblue" d="M605.09,-77.69C653.36,-68.49 715.43,-55.81 770,-42 777.08,-40.21 784.53,-38.13 791.78,-36.01"/>
<polygon fill="midnightblue" stroke="midnightblue" points="604.18,-74.3 595,-79.6 605.48,-81.18 604.18,-74.3"/>
</g>
<!-- Node9 -->
<g id="node9" class="node">
<title>Node9</title>
<g id="a_node9"><a xlink:href="ppppp_8cpp.html" target="_top" xlink:title=" ">
<polygon fill="white" stroke="black" points="910.5,-6 910.5,-36 1023.5,-36 1023.5,-6 910.5,-6"/>
<text text-anchor="start" x="918.5" y="-24" font-family="Helvetica,sans-Serif" font-size="10.00">/github/workspace/src</text>
<text text-anchor="middle" x="967" y="-13" font-family="Helvetica,sans-Serif" font-size="10.00">/cpp/pea/ppppp.cpp</text>
</a>
</g>
</g>
<!-- Node3&#45;&gt;Node9 -->
<g id="edge9" class="edge">
<title>Node3&#45;&gt;Node9</title>
<path fill="none" stroke="midnightblue" d="M605.55,-77.99C738.3,-58.94 775.12,-68.99 902,-42 909.62,-40.38 917.63,-38.26 925.33,-36.02"/>
<polygon fill="midnightblue" stroke="midnightblue" points="604.79,-74.57 595.4,-79.48 605.8,-81.49 604.79,-74.57"/>
</g>
<!-- Node10 -->
<g id="node10" class="node">
<title>Node10</title>
<g id="a_node10"><a xlink:href="uploadMain_8cpp.html" target="_top" xlink:title=" ">
<polygon fill="white" stroke="black" points="1042,-6 1042,-36 1206,-36 1206,-6 1042,-6"/>
<text text-anchor="start" x="1050" y="-24" font-family="Helvetica,sans-Serif" font-size="10.00">/github/workspace/src</text>
<text text-anchor="middle" x="1124" y="-13" font-family="Helvetica,sans-Serif" font-size="10.00">/cpp/peaUploader/uploadMain.cpp</text>
</a>
</g>
</g>
<!-- Node3&#45;&gt;Node10 -->
<g id="edge10" class="edge">
<title>Node3&#45;&gt;Node10</title>
<path fill="none" stroke="midnightblue" d="M605.45,-78.04C796.04,-53.93 847.48,-70.06 1033,-42 1043.56,-40.4 1054.72,-38.3 1065.47,-36.06"/>
<polygon fill="midnightblue" stroke="midnightblue" points="604.85,-74.59 595.38,-79.33 605.75,-81.53 604.85,-74.59"/>
</g>
</g>
</svg>
