<?xml version="1.0" encoding="UTF-8" standalone="no"?>
<!DOCTYPE svg PUBLIC "-//W3C//DTD SVG 1.1//EN"
 "http://www.w3.org/Graphics/SVG/1.1/DTD/svg11.dtd">
<!-- Generated by graphviz version 2.50.0 (20220203.2022)
 -->
<!-- Title: Peph Pages: 1 -->
<svg width="314pt" height="139pt"
 viewBox="0.00 0.00 314.00 139.00" xmlns="http://www.w3.org/2000/svg" xmlns:xlink="http://www.w3.org/1999/xlink">
<g id="graph0" class="graph" transform="scale(1 1) rotate(0) translate(4 135)">
<title>Peph</title>
<polygon fill="white" stroke="transparent" points="-4,4 -4,-135 310,-135 310,4 -4,4"/>
<!-- Node1 -->
<g id="node1" class="node">
<title>Node1</title>
<g id="a_node1"><a xlink:title=" ">
<polygon fill="#bfbfbf" stroke="black" points="189.5,-6 189.5,-25 228.5,-25 228.5,-6 189.5,-6"/>
<text text-anchor="middle" x="209" y="-13" font-family="Helvetica,sans-Serif" font-size="10.00">Peph</text>
</a>
</g>
</g>
<!-- Node2 -->
<g id="node2" class="node">
<title>Node2</title>
<g id="a_node2"><a xlink:href="structSatSys.html" target="_top" xlink:title="Object holding satellite id, and providing related functions.">
<polygon fill="white" stroke="black" points="64,-111.5 64,-130.5 112,-130.5 112,-111.5 64,-111.5"/>
<text text-anchor="middle" x="88" y="-118.5" font-family="Helvetica,sans-Serif" font-size="10.00">SatSys</text>
</a>
</g>
</g>
<!-- Node2&#45;&gt;Node1 -->
<g id="edge1" class="edge">
<title>Node2&#45;&gt;Node1</title>
<path fill="none" stroke="#9a32cd" stroke-dasharray="5,2" d="M119.52,-107.22C127.56,-103.26 135.92,-98.47 143,-93 169.38,-72.63 192.96,-40.36 203.36,-25.07"/>
<polygon fill="#9a32cd" stroke="#9a32cd" points="117.92,-104.11 110.32,-111.49 120.87,-110.45 117.92,-104.11"/>
<text text-anchor="middle" x="194" y="-68.5" font-family="Helvetica,sans-Serif" font-size="10.00"> Sat</text>
</g>
<!-- Node3 -->
<g id="node3" class="node">
<title>Node3</title>
<g id="a_node3"><a xlink:title=" ">
<polygon fill="white" stroke="red" points="0,-0.5 0,-30.5 130,-30.5 130,-0.5 0,-0.5"/>
<text text-anchor="start" x="8" y="-18.5" font-family="Helvetica,sans-Serif" font-size="10.00">std::map&lt; SatSys, SatSys</text>
<text text-anchor="middle" x="65" y="-7.5" font-family="Helvetica,sans-Serif" font-size="10.00">::SatData &gt;</text>
</a>
</g>
</g>
<!-- Node2&#45;&gt;Node3 -->
<g id="edge3" class="edge">
<title>Node2&#45;&gt;Node3</title>
<path fill="none" stroke="#9a32cd" stroke-dasharray="5,2" d="M57.52,-105.8C52.89,-102.28 48.75,-98.04 46,-93 36.63,-75.84 40.89,-67.88 46,-49 47.74,-42.57 51.11,-36.1 54.54,-30.65"/>
<polygon fill="#9a32cd" stroke="#9a32cd" points="55.87,-108.9 66.17,-111.36 59.65,-103.01 55.87,-108.9"/>
<text text-anchor="middle" x="57.5" y="-68.5" font-family="Helvetica,sans-Serif" font-size="10.00"> keys</text>
</g>
<!-- Node3&#45;&gt;Node2 -->
<g id="edge2" class="edge">
<title>Node3&#45;&gt;Node2</title>
<path fill="none" stroke="#9a32cd" stroke-dasharray="5,2" d="M70.38,-40.72C75.4,-63.29 82.61,-95.73 86.04,-111.18"/>
<polygon fill="#9a32cd" stroke="#9a32cd" points="73.77,-39.84 68.19,-30.84 66.94,-41.36 73.77,-39.84"/>
<text text-anchor="middle" x="110.5" y="-68.5" font-family="Helvetica,sans-Serif" font-size="10.00"> SatDataMap</text>
</g>
<!-- Node7 -->
<g id="node4" class="node">
<title>Node7</title>
<g id="a_node4"><a xlink:href="structGTime.html" target="_top" xlink:title="Time structure used throughout this software.">
<polygon fill="white" stroke="black" points="186,-111.5 186,-130.5 232,-130.5 232,-111.5 186,-111.5"/>
<text text-anchor="middle" x="209" y="-118.5" font-family="Helvetica,sans-Serif" font-size="10.00">GTime</text>
</a>
</g>
</g>
<!-- Node7&#45;&gt;Node1 -->
<g id="edge4" class="edge">
<title>Node7&#45;&gt;Node1</title>
<path fill="none" stroke="#9a32cd" stroke-dasharray="5,2" d="M209,-101.1C209,-78.47 209,-41.57 209,-25.01"/>
<polygon fill="#9a32cd" stroke="#9a32cd" points="205.5,-101.18 209,-111.18 212.5,-101.18 205.5,-101.18"/>
<text text-anchor="middle" x="220" y="-68.5" font-family="Helvetica,sans-Serif" font-size="10.00"> time</text>
</g>
<!-- Node8 -->
<g id="node5" class="node">
<title>Node8</title>
<g id="a_node5"><a xlink:title=" ">
<polygon fill="white" stroke="black" points="250,-111.5 250,-130.5 306,-130.5 306,-111.5 250,-111.5"/>
<text text-anchor="middle" x="278" y="-118.5" font-family="Helvetica,sans-Serif" font-size="10.00">Vector3d</text>
</a>
</g>
</g>
<!-- Node8&#45;&gt;Node1 -->
<g id="edge5" class="edge">
<title>Node8&#45;&gt;Node1</title>
<path fill="none" stroke="#9a32cd" stroke-dasharray="5,2" d="M268.27,-102.53C259.93,-87.91 247.34,-66.66 235,-49 229.13,-40.59 221.77,-31.51 216.38,-25.09"/>
<polygon fill="#9a32cd" stroke="#9a32cd" points="265.35,-104.48 273.31,-111.47 271.45,-101.04 265.35,-104.48"/>
<text text-anchor="middle" x="278.5" y="-85" font-family="Helvetica,sans-Serif" font-size="10.00"> Pos</text>
<text text-anchor="middle" x="278.5" y="-74" font-family="Helvetica,sans-Serif" font-size="10.00">PosStd</text>
<text text-anchor="middle" x="278.5" y="-63" font-family="Helvetica,sans-Serif" font-size="10.00">Vel</text>
<text text-anchor="middle" x="278.5" y="-52" font-family="Helvetica,sans-Serif" font-size="10.00">VelStd</text>
</g>
</g>
</svg>
