<?xml version="1.0" encoding="UTF-8" standalone="no"?>
<!DOCTYPE svg PUBLIC "-//W3C//DTD SVG 1.1//EN"
 "http://www.w3.org/Graphics/SVG/1.1/DTD/svg11.dtd">
<!-- Generated by graphviz version 2.50.0 (20220203.2022)
 -->
<!-- Title: ObsStream Pages: 1 -->
<svg width="312pt" height="140pt"
 viewBox="0.00 0.00 312.00 140.00" xmlns="http://www.w3.org/2000/svg" xmlns:xlink="http://www.w3.org/1999/xlink">
<g id="graph0" class="graph" transform="scale(1 1) rotate(0) translate(4 136)">
<title>ObsStream</title>
<polygon fill="white" stroke="transparent" points="-4,4 -4,-136 308,-136 308,4 -4,4"/>
<!-- Node1 -->
<g id="node1" class="node">
<title>Node1</title>
<g id="a_node1"><a xlink:title="Interface for streams that supply observations.">
<polygon fill="#bfbfbf" stroke="black" points="64,-112.5 64,-131.5 130,-131.5 130,-112.5 64,-112.5"/>
<text text-anchor="middle" x="97" y="-119.5" font-family="Helvetica,sans-Serif" font-size="10.00">ObsStream</text>
</a>
</g>
</g>
<!-- Node2 -->
<g id="node2" class="node">
<title>Node2</title>
<g id="a_node2"><a xlink:href="structRinexStream.html" target="_top" xlink:title="Interface for rinex streams.">
<polygon fill="white" stroke="black" points="16,-56.5 16,-75.5 88,-75.5 88,-56.5 16,-56.5"/>
<text text-anchor="middle" x="52" y="-63.5" font-family="Helvetica,sans-Serif" font-size="10.00">RinexStream</text>
</a>
</g>
</g>
<!-- Node1&#45;&gt;Node2 -->
<g id="edge1" class="edge">
<title>Node1&#45;&gt;Node2</title>
<path fill="none" stroke="midnightblue" d="M82.95,-104.14C75.11,-94.74 65.67,-83.4 59.29,-75.75"/>
<polygon fill="midnightblue" stroke="midnightblue" points="80.48,-106.64 89.57,-112.08 85.86,-102.16 80.48,-106.64"/>
</g>
<!-- Node4 -->
<g id="node4" class="node">
<title>Node4</title>
<g id="a_node4"><a xlink:href="structRtcmStream.html" target="_top" xlink:title=" ">
<polygon fill="white" stroke="black" points="114.5,-56.5 114.5,-75.5 185.5,-75.5 185.5,-56.5 114.5,-56.5"/>
<text text-anchor="middle" x="150" y="-63.5" font-family="Helvetica,sans-Serif" font-size="10.00">RtcmStream</text>
</a>
</g>
</g>
<!-- Node1&#45;&gt;Node4 -->
<g id="edge3" class="edge">
<title>Node1&#45;&gt;Node4</title>
<path fill="none" stroke="midnightblue" d="M112.98,-104.72C122.32,-95.2 133.75,-83.56 141.41,-75.75"/>
<polygon fill="midnightblue" stroke="midnightblue" points="110.26,-102.49 105.75,-112.08 115.25,-107.4 110.26,-102.49"/>
</g>
<!-- Node3 -->
<g id="node3" class="node">
<title>Node3</title>
<g id="a_node3"><a xlink:href="structFileRinexStream.html" target="_top" xlink:title="Object that streams RINEX data from a file.">
<polygon fill="white" stroke="black" points="0,-0.5 0,-19.5 88,-19.5 88,-0.5 0,-0.5"/>
<text text-anchor="middle" x="44" y="-7.5" font-family="Helvetica,sans-Serif" font-size="10.00">FileRinexStream</text>
</a>
</g>
</g>
<!-- Node2&#45;&gt;Node3 -->
<g id="edge2" class="edge">
<title>Node2&#45;&gt;Node3</title>
<path fill="none" stroke="midnightblue" d="M49.2,-46.1C47.87,-37.14 46.35,-26.86 45.3,-19.75"/>
<polygon fill="midnightblue" stroke="midnightblue" points="45.75,-46.7 50.68,-56.08 52.68,-45.68 45.75,-46.7"/>
</g>
<!-- Node5 -->
<g id="node5" class="node">
<title>Node5</title>
<g id="a_node5"><a xlink:href="structFileRtcmStream.html" target="_top" xlink:title="Object that streams RTCM data from a file.">
<polygon fill="white" stroke="black" points="106.5,-0.5 106.5,-19.5 193.5,-19.5 193.5,-0.5 106.5,-0.5"/>
<text text-anchor="middle" x="150" y="-7.5" font-family="Helvetica,sans-Serif" font-size="10.00">FileRtcmStream</text>
</a>
</g>
</g>
<!-- Node4&#45;&gt;Node5 -->
<g id="edge4" class="edge">
<title>Node4&#45;&gt;Node5</title>
<path fill="none" stroke="midnightblue" d="M150,-45.8C150,-36.91 150,-26.78 150,-19.75"/>
<polygon fill="midnightblue" stroke="midnightblue" points="146.5,-46.08 150,-56.08 153.5,-46.08 146.5,-46.08"/>
</g>
<!-- Node6 -->
<g id="node6" class="node">
<title>Node6</title>
<g id="a_node6"><a xlink:href="structNtripRtcmStream.html" target="_top" xlink:title="Object that streams RTCM data from NTRIP castors.">
<polygon fill="white" stroke="black" points="212,-0.5 212,-19.5 304,-19.5 304,-0.5 212,-0.5"/>
<text text-anchor="middle" x="258" y="-7.5" font-family="Helvetica,sans-Serif" font-size="10.00">NtripRtcmStream</text>
</a>
</g>
</g>
<!-- Node4&#45;&gt;Node6 -->
<g id="edge5" class="edge">
<title>Node4&#45;&gt;Node6</title>
<path fill="none" stroke="midnightblue" d="M176.55,-51.73C196.55,-41.73 223.39,-28.31 240.69,-19.65"/>
<polygon fill="midnightblue" stroke="midnightblue" points="174.73,-48.72 167.35,-56.32 177.86,-54.98 174.73,-48.72"/>
</g>
</g>
</svg>
