<?xml version="1.0" encoding="UTF-8" standalone="no"?>
<!DOCTYPE svg PUBLIC "-//W3C//DTD SVG 1.1//EN"
 "http://www.w3.org/Graphics/SVG/1.1/DTD/svg11.dtd">
<!-- Generated by graphviz version 2.50.0 (20220203.2022)
 -->
<!-- Title: RtcmTrace::outputSsrClkToJson Pages: 1 -->
<svg width="546pt" height="96pt"
 viewBox="0.00 0.00 546.00 95.50" xmlns="http://www.w3.org/2000/svg" xmlns:xlink="http://www.w3.org/1999/xlink">
<g id="graph0" class="graph" transform="scale(1 1) rotate(0) translate(4 91.5)">
<title>RtcmTrace::outputSsrClkToJson</title>
<polygon fill="white" stroke="transparent" points="-4,4 -4,-91.5 542,-91.5 542,4 -4,4"/>
<!-- Node1 -->
<g id="node1" class="node">
<title>Node1</title>
<g id="a_node1"><a xlink:title=" ">
<polygon fill="#bfbfbf" stroke="black" points="380,-37 380,-56 538,-56 538,-37 380,-37"/>
<text text-anchor="middle" x="459" y="-44" font-family="Helvetica,sans-Serif" font-size="10.00">RtcmTrace::outputSsrClkToJson</text>
</a>
</g>
</g>
<!-- Node2 -->
<g id="node2" class="node">
<title>Node2</title>
<g id="a_node2"><a xlink:href="structRtcmDecoder.html#a187d2bf36da0d4de61f4c603b203b09f" target="_top" xlink:title=" ">
<polygon fill="white" stroke="black" points="202,-62 202,-81 334,-81 334,-62 202,-62"/>
<text text-anchor="middle" x="268" y="-69" font-family="Helvetica,sans-Serif" font-size="10.00">RtcmDecoder::decodeSSR</text>
</a>
</g>
</g>
<!-- Node1&#45;&gt;Node2 -->
<g id="edge1" class="edge">
<title>Node1&#45;&gt;Node2</title>
<path fill="none" stroke="midnightblue" d="M375.94,-57.35C362.01,-59.2 347.71,-61.09 334.28,-62.87"/>
<polygon fill="midnightblue" stroke="midnightblue" points="376.55,-60.8 386.01,-56.02 375.64,-53.86 376.55,-60.8"/>
</g>
<!-- Node8 -->
<g id="node4" class="node">
<title>Node8</title>
<g id="a_node4"><a xlink:href="structRtcmEncoder.html#af1c137bc7d09727b2a6f6ec350586fbc" target="_top" xlink:title=" ">
<polygon fill="white" stroke="black" points="192,-18 192,-37 344,-37 344,-18 192,-18"/>
<text text-anchor="middle" x="268" y="-25" font-family="Helvetica,sans-Serif" font-size="10.00">RtcmEncoder::encodeSsrComb</text>
</a>
</g>
</g>
<!-- Node1&#45;&gt;Node8 -->
<g id="edge3" class="edge">
<title>Node1&#45;&gt;Node8</title>
<path fill="none" stroke="midnightblue" d="M369.76,-37.63C361.19,-36.77 352.56,-35.9 344.14,-35.05"/>
<polygon fill="midnightblue" stroke="midnightblue" points="369.46,-41.12 379.76,-38.63 370.16,-34.15 369.46,-41.12"/>
</g>
<!-- Node3 -->
<g id="node3" class="node">
<title>Node3</title>
<g id="a_node3"><a xlink:href="structRtcmStream.html#a34a7a941dab214b7ff6b17e8a53eb55a" target="_top" xlink:title=" ">
<polygon fill="white" stroke="red" points="14,-68 14,-87 142,-87 142,-68 14,-68"/>
<text text-anchor="middle" x="78" y="-75" font-family="Helvetica,sans-Serif" font-size="10.00">RtcmStream::parseRTCM</text>
</a>
</g>
</g>
<!-- Node2&#45;&gt;Node3 -->
<g id="edge2" class="edge">
<title>Node2&#45;&gt;Node3</title>
<path fill="none" stroke="midnightblue" d="M191.68,-73.9C175.28,-74.43 158.08,-74.98 142.21,-75.48"/>
<polygon fill="midnightblue" stroke="midnightblue" points="191.89,-77.4 201.77,-73.58 191.67,-70.4 191.89,-77.4"/>
</g>
<!-- Node9 -->
<g id="node5" class="node">
<title>Node9</title>
<g id="a_node5"><a xlink:href="structNtripUploader.html#a0763f31214a177f3d9be2301138fd0e7" target="_top" xlink:title=" ">
<polygon fill="white" stroke="red" points="0,-0.5 0,-30.5 156,-30.5 156,-0.5 0,-0.5"/>
<text text-anchor="start" x="8" y="-18.5" font-family="Helvetica,sans-Serif" font-size="10.00">NtripUploader::messageTimeout</text>
<text text-anchor="middle" x="78" y="-7.5" font-family="Helvetica,sans-Serif" font-size="10.00">_hanlder</text>
</a>
</g>
</g>
<!-- Node8&#45;&gt;Node9 -->
<g id="edge4" class="edge">
<title>Node8&#45;&gt;Node9</title>
<path fill="none" stroke="midnightblue" d="M181.88,-22.07C173.31,-21.52 164.63,-20.97 156.15,-20.42"/>
<polygon fill="midnightblue" stroke="midnightblue" points="181.68,-25.56 191.89,-22.71 182.13,-18.58 181.68,-25.56"/>
</g>
<!-- Node9&#45;&gt;Node9 -->
<g id="edge5" class="edge">
<title>Node9&#45;&gt;Node9</title>
<path fill="none" stroke="midnightblue" d="M111.76,-40.96C107.57,-45.68 96.32,-49 78,-49 47.94,-49 36.9,-40.06 44.89,-30.66"/>
<polygon fill="midnightblue" stroke="midnightblue" points="115.23,-40.42 111.11,-30.66 108.25,-40.86 115.23,-40.42"/>
</g>
</g>
</svg>
