<?xml version="1.0" encoding="UTF-8" standalone="no"?>
<!DOCTYPE svg PUBLIC "-//W3C//DTD SVG 1.1//EN"
 "http://www.w3.org/Graphics/SVG/1.1/DTD/svg11.dtd">
<!-- Generated by graphviz version 2.50.0 (20220203.2022)
 -->
<!-- Title: Station_AR_control Pages: 1 -->
<!--zoomable 276 -->
<svg id="main" version="1.1" xmlns="http://www.w3.org/2000/svg" xmlns:xlink="http://www.w3.org/1999/xlink" xml:space="preserve" onload="init(evt)">
<style type="text/css"><![CDATA[
.edge:hover path { stroke: red; }
.edge:hover polygon { stroke: red; fill: red; }
]]></style>
<script type="text/javascript"><![CDATA[
var edges = document.getElementsByTagName('g');
if (edges && edges.length) {
  for (var i=0;i<edges.length;i++) {
    if (edges[i].id.substr(0,4)=='edge') {
      edges[i].setAttribute('class','edge');
    }
  }
}
]]></script>
        <defs>
                <circle id="rim" cx="0" cy="0" r="7"/>
                <circle id="rim2" cx="0" cy="0" r="3.5"/>
                <g id="zoomPlus">
                        <use xlink:href="#rim" fill="#404040">
                                <set attributeName="fill" to="#808080" begin="zoomplus.mouseover" end="zoomplus.mouseout"/>
                        </use>
                        <path d="M-4,0h8M0,-4v8" fill="none" stroke="white" stroke-width="1.5" pointer-events="none"/>
                </g>
                <g id="zoomMin">
                        <use xlink:href="#rim" fill="#404040">
                                <set attributeName="fill" to="#808080" begin="zoomminus.mouseover" end="zoomminus.mouseout"/>
                        </use>
                        <path d="M-4,0h8" fill="none" stroke="white" stroke-width="1.5" pointer-events="none"/>
                </g>
                <g id="dirArrow">
                        <path fill="none" stroke="white" stroke-width="1.5" d="M0,-3.0v7 M-2.5,-0.5L0,-3.0L2.5,-0.5"/>
                </g>
               <g id="resetDef">
                       <use xlink:href="#rim2" fill="#404040">
                               <set attributeName="fill" to="#808080" begin="reset.mouseover" end="reset.mouseout"/>
                       </use>
               </g>
        </defs>

<script type="text/javascript">
var viewWidth = 820;
var viewHeight = 276;
var sectionId = 'dynsection-0';
</script>
<script xlink:href="svgpan.js"/>
<svg id="graph" class="graph">
<g id="viewport">
<title>Station_AR_control</title>
<polygon fill="white" stroke="transparent" points="-4,4 -4,-272 816,-272 816,4 -4,4"/>
<!-- Node1 -->
<g id="node1" class="node">
<title>Node1</title>
<g id="a_node1"><a xlink:title=" ">
<polygon fill="#bfbfbf" stroke="black" points="711,-124.5 711,-143.5 812,-143.5 812,-124.5 711,-124.5"/>
<text text-anchor="middle" x="761.5" y="-131.5" font-family="Helvetica,sans-Serif" font-size="10.00">Station_AR_control</text>
</a>
</g>
</g>
<!-- Node2 -->
<g id="node2" class="node">
<title>Node2</title>
<g id="a_node2"><a xlink:title=" ">
<polygon fill="white" stroke="black" points="130,-158.5 130,-177.5 189,-177.5 189,-158.5 130,-158.5"/>
<text text-anchor="middle" x="159.5" y="-165.5" font-family="Helvetica,sans-Serif" font-size="10.00">std::string</text>
</a>
</g>
</g>
<!-- Node2&#45;&gt;Node1 -->
<g id="edge1" class="edge">
<title>Node2&#45;&gt;Node1</title>
<path fill="none" stroke="#9a32cd" stroke-dasharray="5,2" d="M190.34,-181.83C221.09,-195.34 270.78,-215.12 316,-224 443.82,-249.1 481.02,-255.24 609,-231 648.41,-223.54 659.16,-219.53 693,-198 717.25,-182.57 740.41,-157.66 752.27,-143.91"/>
<polygon fill="#9a32cd" stroke="#9a32cd" points="191.61,-178.56 181.05,-177.69 188.76,-184.96 191.61,-178.56"/>
<text text-anchor="middle" x="433.5" y="-260" font-family="Helvetica,sans-Serif" font-size="10.00"> ID</text>
<text text-anchor="middle" x="433.5" y="-249" font-family="Helvetica,sans-Serif" font-size="10.00">solutFilename</text>
</g>
<!-- Node6 -->
<g id="node6" class="node">
<title>Node6</title>
<g id="a_node6"><a xlink:href="structKFKey.html" target="_top" xlink:title="Keys used to interface with Kalman filter objects.">
<polygon fill="white" stroke="red" points="327.5,-149.5 327.5,-168.5 373.5,-168.5 373.5,-149.5 327.5,-149.5"/>
<text text-anchor="middle" x="350.5" y="-156.5" font-family="Helvetica,sans-Serif" font-size="10.00">KFKey</text>
</a>
</g>
</g>
<!-- Node2&#45;&gt;Node6 -->
<g id="edge6" class="edge">
<title>Node2&#45;&gt;Node6</title>
<path fill="none" stroke="#9a32cd" stroke-dasharray="5,2" d="M199.56,-166.14C238.2,-164.3 295.98,-161.55 327.33,-160.06"/>
<polygon fill="#9a32cd" stroke="#9a32cd" points="199.03,-162.66 189.21,-166.63 199.36,-169.65 199.03,-162.66"/>
<text text-anchor="middle" x="252.5" y="-168" font-family="Helvetica,sans-Serif" font-size="10.00"> str</text>
</g>
<!-- Node19 -->
<g id="node9" class="node">
<title>Node19</title>
<g id="a_node9"><a xlink:href="structKFState.html" target="_top" xlink:title="Kalman filter object.">
<polygon fill="white" stroke="red" points="407,-102.5 407,-121.5 460,-121.5 460,-102.5 407,-102.5"/>
<text text-anchor="middle" x="433.5" y="-109.5" font-family="Helvetica,sans-Serif" font-size="10.00">KFState</text>
</a>
</g>
</g>
<!-- Node2&#45;&gt;Node19 -->
<g id="edge11" class="edge">
<title>Node2&#45;&gt;Node19</title>
<path fill="none" stroke="#9a32cd" stroke-dasharray="5,2" d="M173.87,-150.3C182.23,-140.68 193.89,-129.63 207,-124 274.37,-95.08 363.64,-102.01 406.87,-107.84"/>
<polygon fill="#9a32cd" stroke="#9a32cd" points="171.02,-148.25 167.41,-158.21 176.45,-152.67 171.02,-148.25"/>
<text text-anchor="middle" x="252.5" y="-149" font-family="Helvetica,sans-Serif" font-size="10.00"> id</text>
<text text-anchor="middle" x="252.5" y="-138" font-family="Helvetica,sans-Serif" font-size="10.00">rts_filename</text>
<text text-anchor="middle" x="252.5" y="-127" font-family="Helvetica,sans-Serif" font-size="10.00">rts_forward_filename</text>
</g>
<!-- Node3 -->
<g id="node3" class="node">
<title>Node3</title>
<g id="a_node3"><a xlink:title=" ">
<polygon fill="white" stroke="black" points="0,-153 0,-183 93,-183 93,-153 0,-153"/>
<text text-anchor="start" x="8" y="-171" font-family="Helvetica,sans-Serif" font-size="10.00">std::basic_string&lt;</text>
<text text-anchor="middle" x="46.5" y="-160" font-family="Helvetica,sans-Serif" font-size="10.00"> Char &gt;</text>
</a>
</g>
</g>
<!-- Node3&#45;&gt;Node2 -->
<g id="edge2" class="edge">
<title>Node3&#45;&gt;Node2</title>
<path fill="none" stroke="midnightblue" d="M103.58,-168C112.73,-168 121.86,-168 129.97,-168"/>
<polygon fill="midnightblue" stroke="midnightblue" points="103.29,-164.5 93.29,-168 103.29,-171.5 103.29,-164.5"/>
</g>
<!-- Node4 -->
<g id="node4" class="node">
<title>Node4</title>
<g id="a_node4"><a xlink:title=" ">
<polygon fill="white" stroke="black" points="489.5,-45 489.5,-75 601.5,-75 601.5,-45 489.5,-45"/>
<text text-anchor="start" x="497.5" y="-63" font-family="Helvetica,sans-Serif" font-size="10.00">std::map&lt; E_AmbTyp,</text>
<text text-anchor="middle" x="545.5" y="-52" font-family="Helvetica,sans-Serif" font-size="10.00"> int &gt;</text>
</a>
</g>
</g>
<!-- Node4&#45;&gt;Node1 -->
<g id="edge3" class="edge">
<title>Node4&#45;&gt;Node1</title>
<path fill="none" stroke="#9a32cd" stroke-dasharray="5,2" d="M611.79,-65.98C637.78,-69.9 667.5,-76.36 693,-87 715.14,-96.24 737.29,-113.59 749.9,-124.43"/>
<polygon fill="#9a32cd" stroke="#9a32cd" points="612.05,-62.49 601.66,-64.55 611.07,-69.42 612.05,-62.49"/>
<text text-anchor="middle" x="660" y="-90" font-family="Helvetica,sans-Serif" font-size="10.00"> AmbTypMap</text>
</g>
<!-- Node5 -->
<g id="node5" class="node">
<title>Node5</title>
<g id="a_node5"><a xlink:title=" ">
<polygon fill="white" stroke="black" points="483,-142 483,-172 608,-172 608,-142 483,-142"/>
<text text-anchor="start" x="491" y="-160" font-family="Helvetica,sans-Serif" font-size="10.00">std::map&lt; KFKey, GinAR</text>
<text text-anchor="middle" x="545.5" y="-149" font-family="Helvetica,sans-Serif" font-size="10.00">_amb &gt;</text>
</a>
</g>
</g>
<!-- Node5&#45;&gt;Node1 -->
<g id="edge4" class="edge">
<title>Node5&#45;&gt;Node1</title>
<path fill="none" stroke="#9a32cd" stroke-dasharray="5,2" d="M618.24,-149.29C648.64,-146.02 683.31,-142.3 710.82,-139.34"/>
<polygon fill="#9a32cd" stroke="#9a32cd" points="617.68,-145.83 608.11,-150.38 618.43,-152.79 617.68,-145.83"/>
<text text-anchor="middle" x="660" y="-151" font-family="Helvetica,sans-Serif" font-size="10.00"> AR_meaMap</text>
</g>
<!-- Node6&#45;&gt;Node5 -->
<g id="edge5" class="edge">
<title>Node6&#45;&gt;Node5</title>
<path fill="none" stroke="#9a32cd" stroke-dasharray="5,2" d="M383.88,-151C390.18,-149.75 396.77,-148.66 403,-148 429.07,-145.25 457.94,-146.34 482.77,-148.56"/>
<polygon fill="#9a32cd" stroke="#9a32cd" points="382.68,-147.68 373.64,-153.2 384.16,-154.52 382.68,-147.68"/>
<text text-anchor="middle" x="433.5" y="-151" font-family="Helvetica,sans-Serif" font-size="10.00"> keys</text>
</g>
<!-- Node72 -->
<g id="node7" class="node">
<title>Node72</title>
<g id="a_node7"><a xlink:href="structGinAR__amb.html" target="_top" xlink:title=" ">
<polygon fill="white" stroke="red" points="316,-195.5 316,-214.5 385,-214.5 385,-195.5 316,-195.5"/>
<text text-anchor="middle" x="350.5" y="-202.5" font-family="Helvetica,sans-Serif" font-size="10.00">GinAR_amb</text>
</a>
</g>
</g>
<!-- Node72&#45;&gt;Node5 -->
<g id="edge7" class="edge">
<title>Node72&#45;&gt;Node5</title>
<path fill="none" stroke="#9a32cd" stroke-dasharray="5,2" d="M393.19,-192.65C396.5,-191.73 399.8,-190.84 403,-190 428.99,-183.19 457.84,-176.34 482.68,-170.65"/>
<polygon fill="#9a32cd" stroke="#9a32cd" points="391.96,-189.36 383.29,-195.45 393.87,-196.09 391.96,-189.36"/>
<text text-anchor="middle" x="433.5" y="-193" font-family="Helvetica,sans-Serif" font-size="10.00"> elements</text>
</g>
<!-- Node73 -->
<g id="node8" class="node">
<title>Node73</title>
<g id="a_node8"><a xlink:title=" ">
<polygon fill="white" stroke="black" points="482,-191 482,-221 609,-221 609,-191 482,-191"/>
<text text-anchor="start" x="490" y="-209" font-family="Helvetica,sans-Serif" font-size="10.00">std::map&lt; Z_Amb, GinAR</text>
<text text-anchor="middle" x="545.5" y="-198" font-family="Helvetica,sans-Serif" font-size="10.00">_amb &gt;</text>
</a>
</g>
</g>
<!-- Node72&#45;&gt;Node73 -->
<g id="edge9" class="edge">
<title>Node72&#45;&gt;Node73</title>
<path fill="none" stroke="#9a32cd" stroke-dasharray="5,2" d="M395.24,-205.23C420.76,-205.36 453.41,-205.53 481.66,-205.67"/>
<polygon fill="#9a32cd" stroke="#9a32cd" points="395.14,-201.73 385.12,-205.17 395.1,-208.73 395.14,-201.73"/>
<text text-anchor="middle" x="433.5" y="-208" font-family="Helvetica,sans-Serif" font-size="10.00"> elements</text>
</g>
<!-- Node73&#45;&gt;Node1 -->
<g id="edge8" class="edge">
<title>Node73&#45;&gt;Node1</title>
<path fill="none" stroke="#9a32cd" stroke-dasharray="5,2" d="M613.52,-188.16C638.66,-180.99 667.35,-172.24 693,-163 709.08,-157.21 726.82,-149.54 740.08,-143.54"/>
<polygon fill="#9a32cd" stroke="#9a32cd" points="612.39,-184.85 603.71,-190.93 614.29,-191.58 612.39,-184.85"/>
<text text-anchor="middle" x="660" y="-186" font-family="Helvetica,sans-Serif" font-size="10.00"> ZAmb_archive</text>
</g>
<!-- Node19&#45;&gt;Node1 -->
<g id="edge10" class="edge">
<title>Node19&#45;&gt;Node1</title>
<path fill="none" stroke="#9a32cd" stroke-dasharray="5,2" d="M470.51,-113.83C505.81,-115.69 561.12,-118.73 609,-122 642.96,-124.32 681.16,-127.35 710.71,-129.78"/>
<polygon fill="#9a32cd" stroke="#9a32cd" points="470.4,-110.32 460.23,-113.3 470.04,-117.31 470.4,-110.32"/>
<text text-anchor="middle" x="545.5" y="-125" font-family="Helvetica,sans-Serif" font-size="10.00"> kfState_fixed</text>
</g>
<!-- Node17 -->
<g id="node10" class="node">
<title>Node17</title>
<g id="a_node10"><a xlink:title=" ">
<polygon fill="white" stroke="black" points="517.5,-0.5 517.5,-19.5 573.5,-19.5 573.5,-0.5 517.5,-0.5"/>
<text text-anchor="middle" x="545.5" y="-7.5" font-family="Helvetica,sans-Serif" font-size="10.00">Vector3d</text>
</a>
</g>
</g>
<!-- Node17&#45;&gt;Node1 -->
<g id="edge12" class="edge">
<title>Node17&#45;&gt;Node1</title>
<path fill="none" stroke="#9a32cd" stroke-dasharray="5,2" d="M583.73,-7.53C615.21,-7.22 660.27,-11.13 693,-32 728.63,-54.72 749.65,-103.75 757.25,-124.46"/>
<polygon fill="#9a32cd" stroke="#9a32cd" points="583.53,-4.03 573.62,-7.78 583.7,-11.03 583.53,-4.03"/>
<text text-anchor="middle" x="660" y="-57" font-family="Helvetica,sans-Serif" font-size="10.00"> fixPos_</text>
<text text-anchor="middle" x="660" y="-46" font-family="Helvetica,sans-Serif" font-size="10.00">fltPos_</text>
<text text-anchor="middle" x="660" y="-35" font-family="Helvetica,sans-Serif" font-size="10.00">snxPos_</text>
</g>
</g>
</svg>
        <g id="navigator" transform="translate(0 0)" fill="#404254">
                <rect fill="#f2f5e9" fill-opacity="0.5" stroke="#606060" stroke-width=".5" x="0" y="0" width="60" height="60"/>
                <use id="zoomplus" xlink:href="#zoomPlus" x="17" y="9" onmousedown="handleZoom(evt,'in')"/>
                <use id="zoomminus" xlink:href="#zoomMin" x="42" y="9" onmousedown="handleZoom(evt,'out')"/>
                <use id="reset" xlink:href="#resetDef" x="30" y="36" onmousedown="handleReset()"/>
                <g id="arrowUp" xlink:href="#dirArrow" transform="translate(30 24)" onmousedown="handlePan(0,-1)">
                  <use xlink:href="#rim" fill="#404040">
                        <set attributeName="fill" to="#808080" begin="arrowUp.mouseover" end="arrowUp.mouseout"/>
                  </use>
                  <path fill="none" stroke="white" stroke-width="1.5" d="M0,-3.0v7 M-2.5,-0.5L0,-3.0L2.5,-0.5"/>
                </g>
                <g id="arrowRight" xlink:href="#dirArrow" transform="rotate(90) translate(36 -43)" onmousedown="handlePan(1,0)">
                  <use xlink:href="#rim" fill="#404040">
                        <set attributeName="fill" to="#808080" begin="arrowRight.mouseover" end="arrowRight.mouseout"/>
                  </use>
                  <path fill="none" stroke="white" stroke-width="1.5" d="M0,-3.0v7 M-2.5,-0.5L0,-3.0L2.5,-0.5"/>
                </g>
                <g id="arrowDown" xlink:href="#dirArrow" transform="rotate(180) translate(-30 -48)" onmousedown="handlePan(0,1)">
                  <use xlink:href="#rim" fill="#404040">
                        <set attributeName="fill" to="#808080" begin="arrowDown.mouseover" end="arrowDown.mouseout"/>
                  </use>
                  <path fill="none" stroke="white" stroke-width="1.5" d="M0,-3.0v7 M-2.5,-0.5L0,-3.0L2.5,-0.5"/>
                </g>
                <g id="arrowLeft" xlink:href="#dirArrow" transform="rotate(270) translate(-36 17)" onmousedown="handlePan(-1,0)">
                  <use xlink:href="#rim" fill="#404040">
                        <set attributeName="fill" to="#808080" begin="arrowLeft.mouseover" end="arrowLeft.mouseout"/>
                  </use>
                  <path fill="none" stroke="white" stroke-width="1.5" d="M0,-3.0v7 M-2.5,-0.5L0,-3.0L2.5,-0.5"/>
                </g>
        </g>
        <svg viewBox="0 0 15 15" width="100%" height="30px" preserveAspectRatio="xMaxYMin meet">
         <g id="arrow_out" transform="scale(0.3 0.3)">
          <a xlink:href="structStation__AR__control__coll__graph_org.svg" target="_base">
           <rect id="button" ry="5" rx="5" y="6" x="6" height="38" width="38"
                fill="#f2f5e9" fill-opacity="0.5" stroke="#606060" stroke-width="1.0"/>
           <path id="arrow"
             d="M 11.500037,31.436501 C 11.940474,20.09759 22.043105,11.32322 32.158766,21.979434 L 37.068811,17.246167 C 37.068811,17.246167 37.088388,32 37.088388,32 L 22.160133,31.978069 C 22.160133,31.978069 26.997745,27.140456 26.997745,27.140456 C 18.528582,18.264221 13.291696,25.230495 11.500037,31.436501 z"
             style="fill:#404040;"/>
          </a>
         </g>
        </svg>
</svg>
