<?xml version="1.0" encoding="UTF-8" standalone="no"?>
<!DOCTYPE svg PUBLIC "-//W3C//DTD SVG 1.1//EN"
 "http://www.w3.org/Graphics/SVG/1.1/DTD/svg11.dtd">
<!-- Generated by graphviz version 2.50.0 (20220203.2022)
 -->
<!-- Title: NetworkStatistics Pages: 1 -->
<svg width="337pt" height="174pt"
 viewBox="0.00 0.00 336.50 174.00" xmlns="http://www.w3.org/2000/svg" xmlns:xlink="http://www.w3.org/1999/xlink">
<g id="graph0" class="graph" transform="scale(1 1) rotate(0) translate(4 170)">
<title>NetworkStatistics</title>
<polygon fill="white" stroke="transparent" points="-4,4 -4,-170 332.5,-170 332.5,4 -4,4"/>
<!-- Node1 -->
<g id="node1" class="node">
<title>Node1</title>
<g id="a_node1"><a xlink:title=" ">
<polygon fill="#bfbfbf" stroke="black" points="124,-0.5 124,-19.5 219,-19.5 219,-0.5 124,-0.5"/>
<text text-anchor="middle" x="171.5" y="-7.5" font-family="Helvetica,sans-Serif" font-size="10.00">NetworkStatistics</text>
</a>
</g>
</g>
<!-- Node2 -->
<g id="node2" class="node">
<title>Node2</title>
<g id="a_node2"><a xlink:title=" ">
<polygon fill="white" stroke="black" points="17,-78.5 17,-97.5 76,-97.5 76,-78.5 17,-78.5"/>
<text text-anchor="middle" x="46.5" y="-85.5" font-family="Helvetica,sans-Serif" font-size="10.00">std::string</text>
</a>
</g>
</g>
<!-- Node2&#45;&gt;Node1 -->
<g id="edge1" class="edge">
<title>Node2&#45;&gt;Node1</title>
<path fill="none" stroke="#9a32cd" stroke-dasharray="5,2" d="M49.46,-68.26C52.03,-57.95 56.77,-45.73 65.5,-38 81.49,-23.83 103.9,-16.9 123.99,-13.58"/>
<polygon fill="#9a32cd" stroke="#9a32cd" points="45.96,-67.89 47.44,-78.38 52.83,-69.26 45.96,-67.89"/>
<text text-anchor="middle" x="116.5" y="-52" font-family="Helvetica,sans-Serif" font-size="10.00"> networkTraceFilename</text>
<text text-anchor="middle" x="116.5" y="-41" font-family="Helvetica,sans-Serif" font-size="10.00">streamName</text>
</g>
<!-- Node3 -->
<g id="node3" class="node">
<title>Node3</title>
<g id="a_node3"><a xlink:title=" ">
<polygon fill="white" stroke="black" points="0,-135.5 0,-165.5 93,-165.5 93,-135.5 0,-135.5"/>
<text text-anchor="start" x="8" y="-153.5" font-family="Helvetica,sans-Serif" font-size="10.00">std::basic_string&lt;</text>
<text text-anchor="middle" x="46.5" y="-142.5" font-family="Helvetica,sans-Serif" font-size="10.00"> Char &gt;</text>
</a>
</g>
</g>
<!-- Node3&#45;&gt;Node2 -->
<g id="edge2" class="edge">
<title>Node3&#45;&gt;Node2</title>
<path fill="none" stroke="midnightblue" d="M46.5,-125.35C46.5,-115.51 46.5,-104.78 46.5,-97.54"/>
<polygon fill="midnightblue" stroke="midnightblue" points="43,-125.47 46.5,-135.47 50,-125.47 43,-125.47"/>
</g>
<!-- Node4 -->
<g id="node4" class="node">
<title>Node4</title>
<g id="a_node4"><a xlink:href="structGTime.html" target="_top" xlink:title="Time structure used throughout this software.">
<polygon fill="white" stroke="black" points="148.5,-78.5 148.5,-97.5 194.5,-97.5 194.5,-78.5 148.5,-78.5"/>
<text text-anchor="middle" x="171.5" y="-85.5" font-family="Helvetica,sans-Serif" font-size="10.00">GTime</text>
</a>
</g>
</g>
<!-- Node4&#45;&gt;Node1 -->
<g id="edge3" class="edge">
<title>Node4&#45;&gt;Node1</title>
<path fill="none" stroke="#9a32cd" stroke-dasharray="5,2" d="M171.5,-68.22C171.5,-52.7 171.5,-31.36 171.5,-19.62"/>
<polygon fill="#9a32cd" stroke="#9a32cd" points="168,-68.28 171.5,-78.28 175,-68.28 168,-68.28"/>
<text text-anchor="middle" x="192.5" y="-52" font-family="Helvetica,sans-Serif" font-size="10.00"> endTime</text>
<text text-anchor="middle" x="192.5" y="-41" font-family="Helvetica,sans-Serif" font-size="10.00">startTime</text>
</g>
<!-- Node5 -->
<g id="node5" class="node">
<title>Node5</title>
<g id="a_node5"><a xlink:title=" ">
<polygon fill="white" stroke="black" points="213,-78.5 213,-97.5 288,-97.5 288,-78.5 213,-78.5"/>
<text text-anchor="middle" x="250.5" y="-85.5" font-family="Helvetica,sans-Serif" font-size="10.00">time_duration</text>
</a>
</g>
</g>
<!-- Node5&#45;&gt;Node1 -->
<g id="edge4" class="edge">
<title>Node5&#45;&gt;Node1</title>
<path fill="none" stroke="#9a32cd" stroke-dasharray="5,2" d="M241.11,-69.13C235.25,-59.15 227.03,-46.96 217.5,-38 209.54,-30.52 199.14,-24.2 190.25,-19.55"/>
<polygon fill="#9a32cd" stroke="#9a32cd" points="238.21,-71.13 246.13,-78.17 244.33,-67.73 238.21,-71.13"/>
<text text-anchor="middle" x="281.5" y="-52" font-family="Helvetica,sans-Serif" font-size="10.00"> connectedDuration</text>
<text text-anchor="middle" x="281.5" y="-41" font-family="Helvetica,sans-Serif" font-size="10.00">disconnectedDuration</text>
</g>
</g>
</svg>
