<?xml version="1.0" encoding="UTF-8" standalone="no"?>
<!DOCTYPE svg PUBLIC "-//W3C//DTD SVG 1.1//EN"
 "http://www.w3.org/Graphics/SVG/1.1/DTD/svg11.dtd">
<!-- Generated by graphviz version 2.50.0 (20220203.2022)
 -->
<!-- Title: RtcmEncoder::encodeSsrCode Pages: 1 -->
<svg width="431pt" height="180pt"
 viewBox="0.00 0.00 431.00 180.00" xmlns="http://www.w3.org/2000/svg" xmlns:xlink="http://www.w3.org/1999/xlink">
<g id="graph0" class="graph" transform="scale(1 1) rotate(0) translate(4 176)">
<title>RtcmEncoder::encodeSsrCode</title>
<polygon fill="white" stroke="transparent" points="-4,4 -4,-176 427,-176 427,4 -4,4"/>
<!-- Node1 -->
<g id="node1" class="node">
<title>Node1</title>
<g id="a_node1"><a xlink:title=" ">
<polygon fill="#bfbfbf" stroke="black" points="0,-114.5 0,-133.5 149,-133.5 149,-114.5 0,-114.5"/>
<text text-anchor="middle" x="74.5" y="-121.5" font-family="Helvetica,sans-Serif" font-size="10.00">RtcmEncoder::encodeSsrCode</text>
</a>
</g>
</g>
<!-- Node2 -->
<g id="node2" class="node">
<title>Node2</title>
<g id="a_node2"><a xlink:href="common_8cpp.html#a601072b6fadfeb365f51fbcaf7e4f5f8" target="_top" xlink:title=" ">
<polygon fill="white" stroke="black" points="223,-152.5 223,-171.5 282,-171.5 282,-152.5 223,-152.5"/>
<text text-anchor="middle" x="252.5" y="-159.5" font-family="Helvetica,sans-Serif" font-size="10.00">setbitsInc</text>
</a>
</g>
</g>
<!-- Node1&#45;&gt;Node2 -->
<g id="edge1" class="edge">
<title>Node1&#45;&gt;Node2</title>
<path fill="none" stroke="midnightblue" d="M119.91,-133.59C148.54,-139.77 185.39,-147.73 212.81,-153.65"/>
<polygon fill="midnightblue" stroke="midnightblue" points="212.31,-157.12 222.82,-155.81 213.79,-150.28 212.31,-157.12"/>
</g>
<!-- Node4 -->
<g id="node4" class="node">
<title>Node4</title>
<g id="a_node4"><a xlink:href="common_8cpp.html#af46d40a3b1917639b0318b11a974701c" target="_top" xlink:title=" ">
<polygon fill="white" stroke="black" points="223,-114.5 223,-133.5 282,-133.5 282,-114.5 223,-114.5"/>
<text text-anchor="middle" x="252.5" y="-121.5" font-family="Helvetica,sans-Serif" font-size="10.00">setbituInc</text>
</a>
</g>
</g>
<!-- Node1&#45;&gt;Node4 -->
<g id="edge3" class="edge">
<title>Node1&#45;&gt;Node4</title>
<path fill="none" stroke="midnightblue" d="M149.12,-124C170.95,-124 194,-124 212.69,-124"/>
<polygon fill="midnightblue" stroke="midnightblue" points="212.87,-127.5 222.87,-124 212.87,-120.5 212.87,-127.5"/>
</g>
<!-- Node6 -->
<g id="node6" class="node">
<title>Node6</title>
<g id="a_node6"><a xlink:href="structRtcmTrace.html#a1e29763105f2e550eaa74be6aacbfaae" target="_top" xlink:title=" ">
<polygon fill="white" stroke="black" points="185,-57.5 185,-76.5 320,-76.5 320,-57.5 185,-57.5"/>
<text text-anchor="middle" x="252.5" y="-64.5" font-family="Helvetica,sans-Serif" font-size="10.00">RtcmTrace::traceSsrCodeB</text>
</a>
</g>
</g>
<!-- Node1&#45;&gt;Node6 -->
<g id="edge5" class="edge">
<title>Node1&#45;&gt;Node6</title>
<path fill="none" stroke="midnightblue" d="M104.96,-114.46C134.4,-104.92 179.85,-90.21 212.32,-79.69"/>
<polygon fill="midnightblue" stroke="midnightblue" points="213.51,-82.98 221.95,-76.57 211.35,-76.32 213.51,-82.98"/>
</g>
<!-- Node3 -->
<g id="node3" class="node">
<title>Node3</title>
<g id="a_node3"><a xlink:href="common_8cpp.html#a532dceb14654d78e3a771c6e8d416d8e" target="_top" xlink:title=" ">
<polygon fill="white" stroke="black" points="366.5,-152.5 366.5,-171.5 412.5,-171.5 412.5,-152.5 366.5,-152.5"/>
<text text-anchor="middle" x="389.5" y="-159.5" font-family="Helvetica,sans-Serif" font-size="10.00">setbits</text>
</a>
</g>
</g>
<!-- Node2&#45;&gt;Node3 -->
<g id="edge2" class="edge">
<title>Node2&#45;&gt;Node3</title>
<path fill="none" stroke="midnightblue" d="M282.13,-162C303.78,-162 333.52,-162 356.05,-162"/>
<polygon fill="midnightblue" stroke="midnightblue" points="356.15,-165.5 366.15,-162 356.15,-158.5 356.15,-165.5"/>
</g>
<!-- Node5 -->
<g id="node5" class="node">
<title>Node5</title>
<g id="a_node5"><a xlink:href="common_8cpp.html#a9c05395dda020aa4e0f22ba5380fdc63" target="_top" xlink:title=" ">
<polygon fill="white" stroke="black" points="366.5,-114.5 366.5,-133.5 412.5,-133.5 412.5,-114.5 366.5,-114.5"/>
<text text-anchor="middle" x="389.5" y="-121.5" font-family="Helvetica,sans-Serif" font-size="10.00">setbitu</text>
</a>
</g>
</g>
<!-- Node4&#45;&gt;Node5 -->
<g id="edge4" class="edge">
<title>Node4&#45;&gt;Node5</title>
<path fill="none" stroke="midnightblue" d="M282.13,-124C303.78,-124 333.52,-124 356.05,-124"/>
<polygon fill="midnightblue" stroke="midnightblue" points="356.15,-127.5 366.15,-124 356.15,-120.5 356.15,-127.5"/>
</g>
<!-- Node7 -->
<g id="node7" class="node">
<title>Node7</title>
<g id="a_node7"><a xlink:href="gTime_8cpp.html#a42a98c9bc4ba5249c22e031840d672e0" target="_top" xlink:title=" ">
<polygon fill="white" stroke="black" points="358,-76.5 358,-95.5 421,-95.5 421,-76.5 358,-76.5"/>
<text text-anchor="middle" x="389.5" y="-83.5" font-family="Helvetica,sans-Serif" font-size="10.00">epoch2yds</text>
</a>
</g>
</g>
<!-- Node6&#45;&gt;Node7 -->
<g id="edge6" class="edge">
<title>Node6&#45;&gt;Node7</title>
<path fill="none" stroke="midnightblue" d="M320.21,-76.39C329.56,-77.7 338.93,-79.02 347.6,-80.24"/>
<polygon fill="midnightblue" stroke="midnightblue" points="347.4,-83.75 357.79,-81.68 348.38,-76.82 347.4,-83.75"/>
</g>
<!-- Node8 -->
<g id="node8" class="node">
<title>Node8</title>
<g id="a_node8"><a xlink:href="structSatSys.html#aec6d07b90d1e8172b8b6a6966abef4fd" target="_top" xlink:title="Returns a std::string of this satellite&#39;s id.">
<polygon fill="white" stroke="red" points="359.5,-38.5 359.5,-57.5 419.5,-57.5 419.5,-38.5 359.5,-38.5"/>
<text text-anchor="middle" x="389.5" y="-45.5" font-family="Helvetica,sans-Serif" font-size="10.00">SatSys::id</text>
</a>
</g>
</g>
<!-- Node6&#45;&gt;Node8 -->
<g id="edge7" class="edge">
<title>Node6&#45;&gt;Node8</title>
<path fill="none" stroke="midnightblue" d="M320.21,-57.61C330.25,-56.2 340.31,-54.78 349.51,-53.49"/>
<polygon fill="midnightblue" stroke="midnightblue" points="350.06,-56.94 359.48,-52.08 349.09,-50.01 350.06,-56.94"/>
</g>
<!-- Node11 -->
<g id="node9" class="node">
<title>Node11</title>
<g id="a_node9"><a xlink:href="gTime_8cpp.html#a7a747c44ca37f2ebe379fc4309d3cfba" target="_top" xlink:title=" ">
<polygon fill="white" stroke="black" points="356,-0.5 356,-19.5 423,-19.5 423,-0.5 356,-0.5"/>
<text text-anchor="middle" x="389.5" y="-7.5" font-family="Helvetica,sans-Serif" font-size="10.00">time2epoch</text>
</a>
</g>
</g>
<!-- Node6&#45;&gt;Node11 -->
<g id="edge8" class="edge">
<title>Node6&#45;&gt;Node11</title>
<path fill="none" stroke="midnightblue" d="M276.1,-57.46C298.1,-48.17 331.74,-33.96 356.49,-23.51"/>
<polygon fill="midnightblue" stroke="midnightblue" points="357.98,-26.69 365.83,-19.57 355.26,-20.24 357.98,-26.69"/>
</g>
</g>
</svg>
