<?xml version="1.0" encoding="UTF-8" standalone="no"?>
<!DOCTYPE svg PUBLIC "-//W3C//DTD SVG 1.1//EN"
 "http://www.w3.org/Graphics/SVG/1.1/DTD/svg11.dtd">
<!-- Generated by graphviz version 2.50.0 (20220203.2022)
 -->
<!-- Title: KFMeasEntry::setValue Pages: 1 -->
<!--zoomable 357 -->
<svg id="main" version="1.1" xmlns="http://www.w3.org/2000/svg" xmlns:xlink="http://www.w3.org/1999/xlink" xml:space="preserve" onload="init(evt)">
<style type="text/css"><![CDATA[
.edge:hover path { stroke: red; }
.edge:hover polygon { stroke: red; fill: red; }
]]></style>
<script type="text/javascript"><![CDATA[
var edges = document.getElementsByTagName('g');
if (edges && edges.length) {
  for (var i=0;i<edges.length;i++) {
    if (edges[i].id.substr(0,4)=='edge') {
      edges[i].setAttribute('class','edge');
    }
  }
}
]]></script>
        <defs>
                <circle id="rim" cx="0" cy="0" r="7"/>
                <circle id="rim2" cx="0" cy="0" r="3.5"/>
                <g id="zoomPlus">
                        <use xlink:href="#rim" fill="#404040">
                                <set attributeName="fill" to="#808080" begin="zoomplus.mouseover" end="zoomplus.mouseout"/>
                        </use>
                        <path d="M-4,0h8M0,-4v8" fill="none" stroke="white" stroke-width="1.5" pointer-events="none"/>
                </g>
                <g id="zoomMin">
                        <use xlink:href="#rim" fill="#404040">
                                <set attributeName="fill" to="#808080" begin="zoomminus.mouseover" end="zoomminus.mouseout"/>
                        </use>
                        <path d="M-4,0h8" fill="none" stroke="white" stroke-width="1.5" pointer-events="none"/>
                </g>
                <g id="dirArrow">
                        <path fill="none" stroke="white" stroke-width="1.5" d="M0,-3.0v7 M-2.5,-0.5L0,-3.0L2.5,-0.5"/>
                </g>
               <g id="resetDef">
                       <use xlink:href="#rim2" fill="#404040">
                               <set attributeName="fill" to="#808080" begin="reset.mouseover" end="reset.mouseout"/>
                       </use>
               </g>
        </defs>

<script type="text/javascript">
var viewWidth = 715;
var viewHeight = 357;
var sectionId = 'dynsection-6';
</script>
<script xlink:href="svgpan.js"/>
<svg id="graph" class="graph">
<g id="viewport">
<title>KFMeasEntry::setValue</title>
<polygon fill="white" stroke="transparent" points="-4,4 -4,-353.13 711,-353.13 711,4 -4,4"/>
<!-- Node1 -->
<g id="node1" class="node">
<title>Node1</title>
<g id="a_node1"><a xlink:title="Adds the actual measurement value for this measurement.">
<polygon fill="#bfbfbf" stroke="black" points="589,-164.5 589,-183.5 707,-183.5 707,-164.5 589,-164.5"/>
<text text-anchor="middle" x="648" y="-171.5" font-family="Helvetica,sans-Serif" font-size="10.00">KFMeasEntry::setValue</text>
</a>
</g>
</g>
<!-- Node2 -->
<g id="node2" class="node">
<title>Node2</title>
<g id="a_node2"><a xlink:href="GinARNLamb_8cpp.html#ad93bb9c322526f57beacb5aeb5c4e66a" target="_top" xlink:title="Apply archived Z&#45;ambiguities to float solution.">
<polygon fill="white" stroke="black" points="458,-316.5 458,-335.5 532,-335.5 532,-316.5 458,-316.5"/>
<text text-anchor="middle" x="495" y="-323.5" font-family="Helvetica,sans-Serif" font-size="10.00">apply_ambigt</text>
</a>
</g>
</g>
<!-- Node1&#45;&gt;Node2 -->
<g id="edge1" class="edge">
<title>Node1&#45;&gt;Node2</title>
<path fill="none" stroke="midnightblue" d="M638.47,-192.95C624.59,-221.7 594.45,-276.23 553,-307 546.8,-311.6 539.42,-315.13 532.07,-317.82"/>
<polygon fill="midnightblue" stroke="midnightblue" points="641.77,-194.16 642.84,-183.62 635.43,-191.19 641.77,-194.16"/>
</g>
<!-- Node11 -->
<g id="node5" class="node">
<title>Node11</title>
<g id="a_node5"><a xlink:href="spp_8cpp.html#a939492c482104cf7cdf7597d24b5b8fb" target="_top" xlink:title="Estimate receiver position and biases using code measurements.">
<polygon fill="white" stroke="black" points="472,-202.5 472,-221.5 518,-221.5 518,-202.5 472,-202.5"/>
<text text-anchor="middle" x="495" y="-209.5" font-family="Helvetica,sans-Serif" font-size="10.00">estpos</text>
</a>
</g>
</g>
<!-- Node1&#45;&gt;Node11 -->
<g id="edge4" class="edge">
<title>Node1&#45;&gt;Node11</title>
<path fill="none" stroke="midnightblue" d="M599.18,-186.03C572.04,-192.86 539.36,-201.09 518.16,-206.42"/>
<polygon fill="midnightblue" stroke="midnightblue" points="600.05,-189.42 608.9,-183.59 598.34,-182.64 600.05,-189.42"/>
</g>
<!-- Node14 -->
<g id="node8" class="node">
<title>Node14</title>
<g id="a_node8"><a xlink:href="preceph_8cpp.html#ad8a2ac73c89c0ab95ef7b2812b1cb6d7" target="_top" xlink:title=" ">
<polygon fill="white" stroke="black" points="464,-164.5 464,-183.5 526,-183.5 526,-164.5 464,-164.5"/>
<text text-anchor="middle" x="495" y="-171.5" font-family="Helvetica,sans-Serif" font-size="10.00">interpolate</text>
</a>
</g>
</g>
<!-- Node1&#45;&gt;Node14 -->
<g id="edge8" class="edge">
<title>Node1&#45;&gt;Node14</title>
<path fill="none" stroke="midnightblue" d="M578.55,-174C560.27,-174 541.43,-174 526.38,-174"/>
<polygon fill="midnightblue" stroke="midnightblue" points="578.62,-177.5 588.62,-174 578.62,-170.5 578.62,-177.5"/>
</g>
<!-- Node15 -->
<g id="node9" class="node">
<title>Node15</title>
<g id="a_node9"><a xlink:href="minimumConstraints_8cpp.html#a6644baa0ee22e2cb52a4975b7d8f218e" target="_top" xlink:title=" ">
<polygon fill="white" stroke="black" points="467,-126.5 467,-145.5 523,-145.5 523,-126.5 467,-126.5"/>
<text text-anchor="middle" x="495" y="-133.5" font-family="Helvetica,sans-Serif" font-size="10.00">minimum</text>
</a>
</g>
</g>
<!-- Node1&#45;&gt;Node15 -->
<g id="edge9" class="edge">
<title>Node1&#45;&gt;Node15</title>
<path fill="none" stroke="midnightblue" d="M599.18,-161.97C574.09,-155.65 544.25,-148.14 523.14,-142.83"/>
<polygon fill="midnightblue" stroke="midnightblue" points="598.34,-165.36 608.9,-164.41 600.05,-158.58 598.34,-165.36"/>
</g>
<!-- Node19 -->
<g id="node14" class="node">
<title>Node19</title>
<g id="a_node14"><a xlink:href="networkEstimator_8cpp.html#a36828506971a6b66c6e61db51197c9e1" target="_top" xlink:title="Estimates parameters for a network of stations simultaneously.">
<polygon fill="white" stroke="black" points="449,-88.5 449,-107.5 541,-107.5 541,-88.5 449,-88.5"/>
<text text-anchor="middle" x="495" y="-95.5" font-family="Helvetica,sans-Serif" font-size="10.00">networkEstimator</text>
</a>
</g>
</g>
<!-- Node1&#45;&gt;Node19 -->
<g id="edge17" class="edge">
<title>Node1&#45;&gt;Node19</title>
<path fill="none" stroke="midnightblue" d="M625.19,-158.84C606.61,-146.42 578.9,-128.99 553,-117 545.33,-113.45 536.81,-110.25 528.74,-107.52"/>
<polygon fill="midnightblue" stroke="midnightblue" points="623.28,-161.78 633.52,-164.49 627.21,-155.99 623.28,-161.78"/>
</g>
<!-- Node20 -->
<g id="node16" class="node">
<title>Node20</title>
<g id="a_node16"><a xlink:href="GinARWLamb_8cpp.html#a6cfe77e4642a57d54c9204244cd403a0" target="_top" xlink:title="Resolve wide&#45;lane ambiguities.">
<polygon fill="white" stroke="black" points="454,-278.5 454,-297.5 536,-297.5 536,-278.5 454,-278.5"/>
<text text-anchor="middle" x="495" y="-285.5" font-family="Helvetica,sans-Serif" font-size="10.00">reslv_WLambg</text>
</a>
</g>
</g>
<!-- Node1&#45;&gt;Node20 -->
<g id="edge19" class="edge">
<title>Node1&#45;&gt;Node20</title>
<path fill="none" stroke="midnightblue" d="M633.83,-191.68C617.18,-212.86 586.62,-248.1 553,-269 546.89,-272.8 539.93,-275.93 533.02,-278.48"/>
<polygon fill="midnightblue" stroke="midnightblue" points="636.76,-193.6 640.08,-183.54 631.21,-189.34 636.76,-193.6"/>
</g>
<!-- Node22 -->
<g id="node18" class="node">
<title>Node22</title>
<g id="a_node18"><a xlink:href="debug_8cpp.html#a8124338bada59afb17fd6633687744f5" target="_top" xlink:title=" ">
<polygon fill="white" stroke="black" points="443.5,-12.5 443.5,-31.5 546.5,-31.5 546.5,-12.5 443.5,-12.5"/>
<text text-anchor="middle" x="495" y="-19.5" font-family="Helvetica,sans-Serif" font-size="10.00">testOutlierDetection</text>
</a>
</g>
</g>
<!-- Node1&#45;&gt;Node22 -->
<g id="edge22" class="edge">
<title>Node1&#45;&gt;Node22</title>
<path fill="none" stroke="midnightblue" d="M638.47,-155.05C624.59,-126.3 594.45,-71.77 553,-41 547.81,-37.14 541.79,-34.04 535.64,-31.55"/>
<polygon fill="midnightblue" stroke="midnightblue" points="635.43,-156.81 642.84,-164.38 641.77,-153.84 635.43,-156.81"/>
</g>
<!-- Node23 -->
<g id="node19" class="node">
<title>Node23</title>
<g id="a_node19"><a xlink:href="GinARWLamb_8cpp.html#ab95d4f2ff0f6e0d2b92d4d4d14f7f787" target="_top" xlink:title="Update WL filter.">
<polygon fill="white" stroke="black" points="459.5,-240.5 459.5,-259.5 530.5,-259.5 530.5,-240.5 459.5,-240.5"/>
<text text-anchor="middle" x="495" y="-247.5" font-family="Helvetica,sans-Serif" font-size="10.00">updat_WLfilt</text>
</a>
</g>
</g>
<!-- Node1&#45;&gt;Node23 -->
<g id="edge23" class="edge">
<title>Node1&#45;&gt;Node23</title>
<path fill="none" stroke="midnightblue" d="M625.19,-189.16C606.61,-201.58 578.9,-219.01 553,-231 545.33,-234.55 536.81,-237.75 528.74,-240.48"/>
<polygon fill="midnightblue" stroke="midnightblue" points="627.21,-192.01 633.52,-183.51 623.28,-186.22 627.21,-192.01"/>
</g>
<!-- Node24 -->
<g id="node20" class="node">
<title>Node24</title>
<g id="a_node20"><a xlink:href="ionoModel_8cpp.html#ab85ac3f246b5ef9cc88aa9f195c441a3" target="_top" xlink:title=" ">
<polygon fill="white" stroke="black" points="437,-50.5 437,-69.5 553,-69.5 553,-50.5 437,-50.5"/>
<text text-anchor="middle" x="495" y="-57.5" font-family="Helvetica,sans-Serif" font-size="10.00">update_ionosph_model</text>
</a>
</g>
</g>
<!-- Node1&#45;&gt;Node24 -->
<g id="edge25" class="edge">
<title>Node1&#45;&gt;Node24</title>
<path fill="none" stroke="midnightblue" d="M633.83,-156.32C617.18,-135.14 586.62,-99.9 553,-79 546.89,-75.2 539.93,-72.07 533.02,-69.52"/>
<polygon fill="midnightblue" stroke="midnightblue" points="631.21,-158.66 640.08,-164.46 636.76,-154.4 631.21,-158.66"/>
</g>
<!-- Node3 -->
<g id="node3" class="node">
<title>Node3</title>
<g id="a_node3"><a xlink:href="GinAR__main_8cpp.html#a5d80c7f56e03c96dc400839ceca50698" target="_top" xlink:title="Ambiguity resolution for network solutions.">
<polygon fill="white" stroke="red" points="146,-316.5 146,-335.5 244,-335.5 244,-316.5 146,-316.5"/>
<text text-anchor="middle" x="195" y="-323.5" font-family="Helvetica,sans-Serif" font-size="10.00">networkAmbigResl</text>
</a>
</g>
</g>
<!-- Node2&#45;&gt;Node3 -->
<g id="edge2" class="edge">
<title>Node2&#45;&gt;Node3</title>
<path fill="none" stroke="midnightblue" d="M447.66,-337.38C432.85,-340.5 416.32,-343.45 401,-345 348.82,-350.28 335.14,-350.63 283,-345 265.78,-343.14 246.98,-339.27 231.27,-335.51"/>
<polygon fill="midnightblue" stroke="midnightblue" points="448.58,-340.76 457.6,-335.21 447.08,-333.92 448.58,-340.76"/>
</g>
<!-- Node6 -->
<g id="node4" class="node">
<title>Node6</title>
<g id="a_node4"><a xlink:href="GinAR__main_8cpp.html#a99547395860accf77f4d3dc4328cb139" target="_top" xlink:title="Ambiguity resolution on smoothed KF solutions.">
<polygon fill="white" stroke="red" points="291.5,-316.5 291.5,-335.5 392.5,-335.5 392.5,-316.5 291.5,-316.5"/>
<text text-anchor="middle" x="342" y="-323.5" font-family="Helvetica,sans-Serif" font-size="10.00">smoothdAmbigResl</text>
</a>
</g>
</g>
<!-- Node2&#45;&gt;Node6 -->
<g id="edge3" class="edge">
<title>Node2&#45;&gt;Node6</title>
<path fill="none" stroke="midnightblue" d="M447.36,-326C429.98,-326 410.21,-326 392.57,-326"/>
<polygon fill="midnightblue" stroke="midnightblue" points="447.83,-329.5 457.83,-326 447.83,-322.5 447.83,-329.5"/>
</g>
<!-- Node12 -->
<g id="node6" class="node">
<title>Node12</title>
<g id="a_node6"><a xlink:href="spp_8cpp.html#a377ec0db0b94700f96e82a487cfe6761" target="_top" xlink:title="Receiver autonomous integrity monitoring (RAIM) failure detection and exclution.">
<polygon fill="white" stroke="black" points="315,-202.5 315,-221.5 369,-221.5 369,-202.5 315,-202.5"/>
<text text-anchor="middle" x="342" y="-209.5" font-family="Helvetica,sans-Serif" font-size="10.00">raim_fde</text>
</a>
</g>
</g>
<!-- Node11&#45;&gt;Node12 -->
<g id="edge5" class="edge">
<title>Node11&#45;&gt;Node12</title>
<path fill="none" stroke="midnightblue" d="M461.39,-212C433.8,-212 394.77,-212 369.18,-212"/>
<polygon fill="midnightblue" stroke="midnightblue" points="461.72,-215.5 471.72,-212 461.72,-208.5 461.72,-215.5"/>
</g>
<!-- Node13 -->
<g id="node7" class="node">
<title>Node13</title>
<g id="a_node7"><a xlink:href="spp_8cpp.html#a80e3d976b8371ffec2003e91fbd86282" target="_top" xlink:title="Compute receiver position, velocity, clock bias by single&#45;point positioning with pseudorange observab...">
<polygon fill="white" stroke="red" points="173.5,-221.5 173.5,-240.5 216.5,-240.5 216.5,-221.5 173.5,-221.5"/>
<text text-anchor="middle" x="195" y="-228.5" font-family="Helvetica,sans-Serif" font-size="10.00">sppos</text>
</a>
</g>
</g>
<!-- Node11&#45;&gt;Node13 -->
<g id="edge7" class="edge">
<title>Node11&#45;&gt;Node13</title>
<path fill="none" stroke="midnightblue" d="M461.77,-220.25C443.99,-224.38 421.42,-228.94 401,-231 333.9,-237.78 253.81,-234.52 216.73,-232.37"/>
<polygon fill="midnightblue" stroke="midnightblue" points="462.73,-223.62 471.64,-217.89 461.1,-216.81 462.73,-223.62"/>
</g>
<!-- Node12&#45;&gt;Node13 -->
<g id="edge6" class="edge">
<title>Node12&#45;&gt;Node13</title>
<path fill="none" stroke="midnightblue" d="M304.64,-216.76C276.94,-220.39 239.79,-225.26 216.9,-228.26"/>
<polygon fill="midnightblue" stroke="midnightblue" points="305.28,-220.21 314.74,-215.44 304.37,-213.27 305.28,-220.21"/>
</g>
<!-- Node10 -->
<g id="node10" class="node">
<title>Node10</title>
<g id="a_node10"><a xlink:href="main_8cpp.html#a93c49123b4afe8e199430439fd682acd" target="_top" xlink:title=" ">
<polygon fill="white" stroke="black" points="288.5,-164.5 288.5,-183.5 395.5,-183.5 395.5,-164.5 288.5,-164.5"/>
<text text-anchor="middle" x="342" y="-171.5" font-family="Helvetica,sans-Serif" font-size="10.00">mainPostProcessing</text>
</a>
</g>
</g>
<!-- Node15&#45;&gt;Node10 -->
<g id="edge10" class="edge">
<title>Node15&#45;&gt;Node10</title>
<path fill="none" stroke="midnightblue" d="M456.87,-145.34C433.78,-151.15 404.17,-158.61 380.93,-164.45"/>
<polygon fill="midnightblue" stroke="midnightblue" points="457.81,-148.72 466.66,-142.88 456.1,-141.93 457.81,-148.72"/>
</g>
<!-- Node16 -->
<g id="node11" class="node">
<title>Node16</title>
<g id="a_node11"><a xlink:href="namespaceyaml__settings.html#ac9d7a5ebee43ae709c9fb9ae6e59a483" target="_top" xlink:title=" ">
<polygon fill="white" stroke="black" points="0,-104.5 0,-123.5 107,-123.5 107,-104.5 0,-104.5"/>
<text text-anchor="middle" x="53.5" y="-111.5" font-family="Helvetica,sans-Serif" font-size="10.00">yaml_settings::option</text>
</a>
</g>
</g>
<!-- Node15&#45;&gt;Node16 -->
<g id="edge11" class="edge">
<title>Node15&#45;&gt;Node16</title>
<path fill="none" stroke="midnightblue" d="M456.5,-134.12C378.22,-130.2 197.28,-121.15 107.29,-116.64"/>
<polygon fill="midnightblue" stroke="midnightblue" points="456.68,-137.64 466.84,-134.64 457.03,-130.64 456.68,-137.64"/>
</g>
<!-- Node17 -->
<g id="node12" class="node">
<title>Node17</title>
<g id="a_node12"><a xlink:href="namespaceyaml__settings.html#af06e8e4d30d8e2a7bda90429f30edc4e" target="_top" xlink:title=" ">
<polygon fill="white" stroke="black" points="283,-39 283,-69 401,-69 401,-39 283,-39"/>
<text text-anchor="start" x="291" y="-57" font-family="Helvetica,sans-Serif" font-size="10.00">yaml_settings::type</text>
<text text-anchor="middle" x="342" y="-46" font-family="Helvetica,sans-Serif" font-size="10.00">_integer_setting_create</text>
</a>
</g>
</g>
<!-- Node15&#45;&gt;Node17 -->
<g id="edge13" class="edge">
<title>Node15&#45;&gt;Node17</title>
<path fill="none" stroke="midnightblue" d="M456.98,-126.19C450.11,-123.67 443.16,-120.63 437,-117 418.29,-105.99 418.79,-96.43 401,-84 393.19,-78.55 384.26,-73.44 375.79,-69.05"/>
<polygon fill="midnightblue" stroke="midnightblue" points="456.3,-129.65 466.89,-129.5 458.52,-123.01 456.3,-129.65"/>
</g>
<!-- Node18 -->
<g id="node13" class="node">
<title>Node18</title>
<g id="a_node13"><a xlink:href="namespaceyaml__settings.html#a272015627b7da584c91ef06808218070" target="_top" xlink:title=" ">
<polygon fill="white" stroke="black" points="143,-77 143,-107 247,-107 247,-77 143,-77"/>
<text text-anchor="start" x="151" y="-95" font-family="Helvetica,sans-Serif" font-size="10.00">yaml_settings::type</text>
<text text-anchor="middle" x="195" y="-84" font-family="Helvetica,sans-Serif" font-size="10.00">_real_setting_create</text>
</a>
</g>
</g>
<!-- Node15&#45;&gt;Node18 -->
<g id="edge16" class="edge">
<title>Node15&#45;&gt;Node18</title>
<path fill="none" stroke="midnightblue" d="M456.65,-130.34C439.67,-127.78 419.32,-124.72 401,-122 348.7,-114.24 288.87,-105.5 247.4,-99.46"/>
<polygon fill="midnightblue" stroke="midnightblue" points="456.33,-133.83 466.74,-131.87 457.37,-126.91 456.33,-133.83"/>
</g>
<!-- Node16&#45;&gt;Node16 -->
<g id="edge12" class="edge">
<title>Node16&#45;&gt;Node16</title>
<path fill="none" stroke="midnightblue" d="M79.54,-133.03C78.12,-138.13 69.44,-142 53.5,-142 28.62,-142 21.42,-132.57 31.92,-123.76"/>
<polygon fill="midnightblue" stroke="midnightblue" points="82.57,-131.25 75.08,-123.76 76.26,-134.29 82.57,-131.25"/>
</g>
<!-- Node17&#45;&gt;Node18 -->
<g id="edge14" class="edge">
<title>Node17&#45;&gt;Node18</title>
<path fill="none" stroke="midnightblue" d="M274.01,-71.56C265.02,-73.91 255.91,-76.3 247.25,-78.57"/>
<polygon fill="midnightblue" stroke="midnightblue" points="274.91,-74.94 283.69,-69.02 273.13,-68.17 274.91,-74.94"/>
</g>
<!-- Node18&#45;&gt;Node16 -->
<g id="edge15" class="edge">
<title>Node18&#45;&gt;Node16</title>
<path fill="none" stroke="midnightblue" d="M132.86,-101.64C124.26,-103 115.47,-104.38 107.05,-105.71"/>
<polygon fill="midnightblue" stroke="midnightblue" points="133.51,-105.08 142.85,-100.07 132.42,-98.17 133.51,-105.08"/>
</g>
<!-- Node5 -->
<g id="node15" class="node">
<title>Node5</title>
<g id="a_node15"><a xlink:href="main_8cpp.html#a30c68344d30ddfe1e926f8472b86f094" target="_top" xlink:title=" ">
<polygon fill="white" stroke="black" points="290.5,-0.5 290.5,-19.5 393.5,-19.5 393.5,-0.5 290.5,-0.5"/>
<text text-anchor="middle" x="342" y="-7.5" font-family="Helvetica,sans-Serif" font-size="10.00">mainOncePerEpoch</text>
</a>
</g>
</g>
<!-- Node19&#45;&gt;Node5 -->
<g id="edge18" class="edge">
<title>Node19&#45;&gt;Node5</title>
<path fill="none" stroke="midnightblue" d="M445.07,-84.06C442.24,-82.54 439.52,-80.86 437,-79 414.94,-62.77 423.1,-45.17 401,-29 395.7,-25.12 389.56,-22.01 383.31,-19.51"/>
<polygon fill="midnightblue" stroke="midnightblue" points="443.84,-87.35 454.39,-88.41 446.8,-81.01 443.84,-87.35"/>
</g>
<!-- Node21 -->
<g id="node17" class="node">
<title>Node21</title>
<g id="a_node17"><a xlink:href="GinARWLamb_8cpp.html#a12713865301eea1dac84952dd9fd1149" target="_top" xlink:title="Update WL ambiguities and save then to archive.">
<polygon fill="white" stroke="black" points="299.5,-278.5 299.5,-297.5 384.5,-297.5 384.5,-278.5 299.5,-278.5"/>
<text text-anchor="middle" x="342" y="-285.5" font-family="Helvetica,sans-Serif" font-size="10.00">updat_WLambg</text>
</a>
</g>
</g>
<!-- Node20&#45;&gt;Node21 -->
<g id="edge20" class="edge">
<title>Node20&#45;&gt;Node21</title>
<path fill="none" stroke="midnightblue" d="M443.84,-288C424.61,-288 402.91,-288 384.57,-288"/>
<polygon fill="midnightblue" stroke="midnightblue" points="443.93,-291.5 453.93,-288 443.93,-284.5 443.93,-291.5"/>
</g>
<!-- Node21&#45;&gt;Node3 -->
<g id="edge21" class="edge">
<title>Node21&#45;&gt;Node3</title>
<path fill="none" stroke="midnightblue" d="M294.51,-300.18C274.38,-305.46 251.16,-311.54 232.33,-316.48"/>
<polygon fill="midnightblue" stroke="midnightblue" points="295.62,-303.51 304.41,-297.59 293.85,-296.74 295.62,-303.51"/>
</g>
<!-- Node23&#45;&gt;Node21 -->
<g id="edge24" class="edge">
<title>Node23&#45;&gt;Node21</title>
<path fill="none" stroke="midnightblue" d="M449.37,-261.23C427.61,-266.71 401.71,-273.22 380.92,-278.46"/>
<polygon fill="midnightblue" stroke="midnightblue" points="450.51,-264.55 459.36,-258.72 448.81,-257.76 450.51,-264.55"/>
</g>
<!-- Node24&#45;&gt;Node5 -->
<g id="edge26" class="edge">
<title>Node24&#45;&gt;Node5</title>
<path fill="none" stroke="midnightblue" d="M455.95,-47.31C431.52,-39.17 403.84,-29.94 401,-29 391.64,-25.91 381.43,-22.56 372.22,-19.54"/>
<polygon fill="midnightblue" stroke="midnightblue" points="454.85,-50.63 465.45,-50.48 457.07,-43.99 454.85,-50.63"/>
</g>
</g>
</svg>
        <g id="navigator" transform="translate(0 0)" fill="#404254">
                <rect fill="#f2f5e9" fill-opacity="0.5" stroke="#606060" stroke-width=".5" x="0" y="0" width="60" height="60"/>
                <use id="zoomplus" xlink:href="#zoomPlus" x="17" y="9" onmousedown="handleZoom(evt,'in')"/>
                <use id="zoomminus" xlink:href="#zoomMin" x="42" y="9" onmousedown="handleZoom(evt,'out')"/>
                <use id="reset" xlink:href="#resetDef" x="30" y="36" onmousedown="handleReset()"/>
                <g id="arrowUp" xlink:href="#dirArrow" transform="translate(30 24)" onmousedown="handlePan(0,-1)">
                  <use xlink:href="#rim" fill="#404040">
                        <set attributeName="fill" to="#808080" begin="arrowUp.mouseover" end="arrowUp.mouseout"/>
                  </use>
                  <path fill="none" stroke="white" stroke-width="1.5" d="M0,-3.0v7 M-2.5,-0.5L0,-3.0L2.5,-0.5"/>
                </g>
                <g id="arrowRight" xlink:href="#dirArrow" transform="rotate(90) translate(36 -43)" onmousedown="handlePan(1,0)">
                  <use xlink:href="#rim" fill="#404040">
                        <set attributeName="fill" to="#808080" begin="arrowRight.mouseover" end="arrowRight.mouseout"/>
                  </use>
                  <path fill="none" stroke="white" stroke-width="1.5" d="M0,-3.0v7 M-2.5,-0.5L0,-3.0L2.5,-0.5"/>
                </g>
                <g id="arrowDown" xlink:href="#dirArrow" transform="rotate(180) translate(-30 -48)" onmousedown="handlePan(0,1)">
                  <use xlink:href="#rim" fill="#404040">
                        <set attributeName="fill" to="#808080" begin="arrowDown.mouseover" end="arrowDown.mouseout"/>
                  </use>
                  <path fill="none" stroke="white" stroke-width="1.5" d="M0,-3.0v7 M-2.5,-0.5L0,-3.0L2.5,-0.5"/>
                </g>
                <g id="arrowLeft" xlink:href="#dirArrow" transform="rotate(270) translate(-36 17)" onmousedown="handlePan(-1,0)">
                  <use xlink:href="#rim" fill="#404040">
                        <set attributeName="fill" to="#808080" begin="arrowLeft.mouseover" end="arrowLeft.mouseout"/>
                  </use>
                  <path fill="none" stroke="white" stroke-width="1.5" d="M0,-3.0v7 M-2.5,-0.5L0,-3.0L2.5,-0.5"/>
                </g>
        </g>
        <svg viewBox="0 0 15 15" width="100%" height="30px" preserveAspectRatio="xMaxYMin meet">
         <g id="arrow_out" transform="scale(0.3 0.3)">
          <a xlink:href="structKFMeasEntry_a56ed46a7048dcd7e87e75eebc342dc7d_icgraph_org.svg" target="_base">
           <rect id="button" ry="5" rx="5" y="6" x="6" height="38" width="38"
                fill="#f2f5e9" fill-opacity="0.5" stroke="#606060" stroke-width="1.0"/>
           <path id="arrow"
             d="M 11.500037,31.436501 C 11.940474,20.09759 22.043105,11.32322 32.158766,21.979434 L 37.068811,17.246167 C 37.068811,17.246167 37.088388,32 37.088388,32 L 22.160133,31.978069 C 22.160133,31.978069 26.997745,27.140456 26.997745,27.140456 C 18.528582,18.264221 13.291696,25.230495 11.500037,31.436501 z"
             style="fill:#404040;"/>
          </a>
         </g>
        </svg>
</svg>
