<?xml version="1.0" encoding="UTF-8" standalone="no"?>
<!DOCTYPE svg PUBLIC "-//W3C//DTD SVG 1.1//EN"
 "http://www.w3.org/Graphics/SVG/1.1/DTD/svg11.dtd">
<!-- Generated by graphviz version 2.50.0 (20220203.2022)
 -->
<!-- Title: RtcmEncoder::encodeSsrComb Pages: 1 -->
<svg width="533pt" height="57pt"
 viewBox="0.00 0.00 533.00 57.00" xmlns="http://www.w3.org/2000/svg" xmlns:xlink="http://www.w3.org/1999/xlink">
<g id="graph0" class="graph" transform="scale(1 1) rotate(0) translate(4 53)">
<title>RtcmEncoder::encodeSsrComb</title>
<polygon fill="white" stroke="transparent" points="-4,4 -4,-53 529,-53 529,4 -4,4"/>
<!-- Node1 -->
<g id="node1" class="node">
<title>Node1</title>
<g id="a_node1"><a xlink:title=" ">
<polygon fill="#bfbfbf" stroke="black" points="373,-6 373,-25 525,-25 525,-6 373,-6"/>
<text text-anchor="middle" x="449" y="-13" font-family="Helvetica,sans-Serif" font-size="10.00">RtcmEncoder::encodeSsrComb</text>
</a>
</g>
</g>
<!-- Node2 -->
<g id="node2" class="node">
<title>Node2</title>
<g id="a_node2"><a xlink:href="structNtripUploader.html#a0763f31214a177f3d9be2301138fd0e7" target="_top" xlink:title=" ">
<polygon fill="white" stroke="black" points="181,-0.5 181,-30.5 337,-30.5 337,-0.5 181,-0.5"/>
<text text-anchor="start" x="189" y="-18.5" font-family="Helvetica,sans-Serif" font-size="10.00">NtripUploader::messageTimeout</text>
<text text-anchor="middle" x="259" y="-7.5" font-family="Helvetica,sans-Serif" font-size="10.00">_hanlder</text>
</a>
</g>
</g>
<!-- Node1&#45;&gt;Node2 -->
<g id="edge1" class="edge">
<title>Node1&#45;&gt;Node2</title>
<path fill="none" stroke="midnightblue" d="M362.88,-15.5C354.31,-15.5 345.63,-15.5 337.15,-15.5"/>
<polygon fill="midnightblue" stroke="midnightblue" points="362.89,-19 372.89,-15.5 362.89,-12 362.89,-19"/>
</g>
<!-- Node2&#45;&gt;Node2 -->
<g id="edge2" class="edge">
<title>Node2&#45;&gt;Node2</title>
<path fill="none" stroke="midnightblue" d="M292.05,-40.96C287.95,-45.68 276.93,-49 259,-49 229.57,-49 218.77,-40.06 226.59,-30.66"/>
<polygon fill="midnightblue" stroke="midnightblue" points="295.52,-40.42 291.41,-30.66 288.54,-40.86 295.52,-40.42"/>
</g>
<!-- Node3 -->
<g id="node3" class="node">
<title>Node3</title>
<g id="a_node3"><a xlink:href="structNtripUploader.html#af0617de893f9f0c1873cbc7cfd12ccb0" target="_top" xlink:title=" ">
<polygon fill="white" stroke="red" points="0,-6 0,-25 145,-25 145,-6 0,-6"/>
<text text-anchor="middle" x="72.5" y="-13" font-family="Helvetica,sans-Serif" font-size="10.00">NtripUploader::startBroadcast</text>
</a>
</g>
</g>
<!-- Node2&#45;&gt;Node3 -->
<g id="edge3" class="edge">
<title>Node2&#45;&gt;Node3</title>
<path fill="none" stroke="midnightblue" d="M170.76,-15.5C162.15,-15.5 153.49,-15.5 145.06,-15.5"/>
<polygon fill="midnightblue" stroke="midnightblue" points="170.82,-19 180.82,-15.5 170.82,-12 170.82,-19"/>
</g>
</g>
</svg>
