<?xml version="1.0" encoding="UTF-8" standalone="no"?>
<!DOCTYPE svg PUBLIC "-//W3C//DTD SVG 1.1//EN"
 "http://www.w3.org/Graphics/SVG/1.1/DTD/svg11.dtd">
<!-- Generated by graphviz version 2.50.0 (20220203.2022)
 -->
<!-- Title: FileRtcmStream::getObs Pages: 1 -->
<!--zoomable 622 -->
<svg id="main" version="1.1" xmlns="http://www.w3.org/2000/svg" xmlns:xlink="http://www.w3.org/1999/xlink" xml:space="preserve" onload="init(evt)">
<style type="text/css"><![CDATA[
.edge:hover path { stroke: red; }
.edge:hover polygon { stroke: red; fill: red; }
]]></style>
<script type="text/javascript"><![CDATA[
var edges = document.getElementsByTagName('g');
if (edges && edges.length) {
  for (var i=0;i<edges.length;i++) {
    if (edges[i].id.substr(0,4)=='edge') {
      edges[i].setAttribute('class','edge');
    }
  }
}
]]></script>
        <defs>
                <circle id="rim" cx="0" cy="0" r="7"/>
                <circle id="rim2" cx="0" cy="0" r="3.5"/>
                <g id="zoomPlus">
                        <use xlink:href="#rim" fill="#404040">
                                <set attributeName="fill" to="#808080" begin="zoomplus.mouseover" end="zoomplus.mouseout"/>
                        </use>
                        <path d="M-4,0h8M0,-4v8" fill="none" stroke="white" stroke-width="1.5" pointer-events="none"/>
                </g>
                <g id="zoomMin">
                        <use xlink:href="#rim" fill="#404040">
                                <set attributeName="fill" to="#808080" begin="zoomminus.mouseover" end="zoomminus.mouseout"/>
                        </use>
                        <path d="M-4,0h8" fill="none" stroke="white" stroke-width="1.5" pointer-events="none"/>
                </g>
                <g id="dirArrow">
                        <path fill="none" stroke="white" stroke-width="1.5" d="M0,-3.0v7 M-2.5,-0.5L0,-3.0L2.5,-0.5"/>
                </g>
               <g id="resetDef">
                       <use xlink:href="#rim2" fill="#404040">
                               <set attributeName="fill" to="#808080" begin="reset.mouseover" end="reset.mouseout"/>
                       </use>
               </g>
        </defs>

<script type="text/javascript">
var viewWidth = 781;
var viewHeight = 622;
var sectionId = 'dynsection-4';
</script>
<script xlink:href="svgpan.js"/>
<svg id="graph" class="graph">
<g id="viewport">
<title>FileRtcmStream::getObs</title>
<polygon fill="white" stroke="transparent" points="-4,4 -4,-618 777,-618 777,4 -4,4"/>
<!-- Node1 -->
<g id="node1" class="node">
<title>Node1</title>
<g id="a_node1"><a xlink:title="Return a list of observations from the stream.">
<polygon fill="#bfbfbf" stroke="black" points="0,-335.5 0,-354.5 123,-354.5 123,-335.5 0,-335.5"/>
<text text-anchor="middle" x="61.5" y="-342.5" font-family="Helvetica,sans-Serif" font-size="10.00">FileRtcmStream::getObs</text>
</a>
</g>
</g>
<!-- Node2 -->
<g id="node2" class="node">
<title>Node2</title>
<g id="a_node2"><a xlink:href="structObsStream.html#a72abbf0503505bc3f1a2c45f0dd5ae95" target="_top" xlink:title="Return a list of observations from the stream.">
<polygon fill="white" stroke="black" points="172,-373.5 172,-392.5 274,-392.5 274,-373.5 172,-373.5"/>
<text text-anchor="middle" x="223" y="-380.5" font-family="Helvetica,sans-Serif" font-size="10.00">ObsStream::getObs</text>
</a>
</g>
</g>
<!-- Node1&#45;&gt;Node2 -->
<g id="edge1" class="edge">
<title>Node1&#45;&gt;Node2</title>
<path fill="none" stroke="midnightblue" d="M102.75,-354.59C123.8,-359.6 149.76,-365.79 172.07,-371.11"/>
<polygon fill="midnightblue" stroke="midnightblue" points="171.5,-374.57 182.04,-373.48 173.12,-367.76 171.5,-374.57"/>
</g>
<!-- Node3 -->
<g id="node3" class="node">
<title>Node3</title>
<g id="a_node3"><a xlink:href="structACSFileStream.html#a58b8f25aa5bcdb840d16acf3f2d8ff8c" target="_top" xlink:title=" ">
<polygon fill="white" stroke="black" points="160.5,-335.5 160.5,-354.5 285.5,-354.5 285.5,-335.5 160.5,-335.5"/>
<text text-anchor="middle" x="223" y="-342.5" font-family="Helvetica,sans-Serif" font-size="10.00">ACSFileStream::openFile</text>
</a>
</g>
</g>
<!-- Node1&#45;&gt;Node3 -->
<g id="edge2" class="edge">
<title>Node1&#45;&gt;Node3</title>
<path fill="none" stroke="midnightblue" d="M123.26,-345C132.08,-345 141.24,-345 150.26,-345"/>
<polygon fill="midnightblue" stroke="midnightblue" points="150.36,-348.5 160.36,-345 150.36,-341.5 150.36,-348.5"/>
</g>
<!-- Node4 -->
<g id="node4" class="node">
<title>Node4</title>
<g id="a_node4"><a xlink:href="structRtcmStream.html#a34a7a941dab214b7ff6b17e8a53eb55a" target="_top" xlink:title=" ">
<polygon fill="white" stroke="black" points="159,-297.5 159,-316.5 287,-316.5 287,-297.5 159,-297.5"/>
<text text-anchor="middle" x="223" y="-304.5" font-family="Helvetica,sans-Serif" font-size="10.00">RtcmStream::parseRTCM</text>
</a>
</g>
</g>
<!-- Node1&#45;&gt;Node4 -->
<g id="edge3" class="edge">
<title>Node1&#45;&gt;Node4</title>
<path fill="none" stroke="midnightblue" d="M102.75,-335.41C123.8,-330.4 149.76,-324.21 172.07,-318.89"/>
<polygon fill="midnightblue" stroke="midnightblue" points="173.12,-322.24 182.04,-316.52 171.5,-315.43 173.12,-322.24"/>
</g>
<!-- Node5 -->
<g id="node5" class="node">
<title>Node5</title>
<g id="a_node5"><a xlink:href="common_8cpp.html#a143f5fa72a5c2aa56901ad78710eb4c2" target="_top" xlink:title=" ">
<polygon fill="white" stroke="black" points="394.5,-594.5 394.5,-613.5 440.5,-613.5 440.5,-594.5 394.5,-594.5"/>
<text text-anchor="middle" x="417.5" y="-601.5" font-family="Helvetica,sans-Serif" font-size="10.00">crc24q</text>
</a>
</g>
</g>
<!-- Node4&#45;&gt;Node5 -->
<g id="edge4" class="edge">
<title>Node4&#45;&gt;Node5</title>
<path fill="none" stroke="midnightblue" d="M275.32,-316.66C279.72,-319.12 283.73,-322.19 287,-326 361.26,-412.52 246.95,-495.05 323,-580 338.23,-597.01 363.73,-602.71 384.26,-604.33"/>
<polygon fill="midnightblue" stroke="midnightblue" points="384.3,-607.83 394.46,-604.83 384.65,-600.84 384.3,-607.83"/>
</g>
<!-- Node6 -->
<g id="node6" class="node">
<title>Node6</title>
<g id="a_node6"><a xlink:href="structRtcmDecoder.html#aa4f10b765f29810a57a883a57625b1cc" target="_top" xlink:title=" ">
<polygon fill="white" stroke="black" points="340.5,-480.5 340.5,-499.5 494.5,-499.5 494.5,-480.5 340.5,-480.5"/>
<text text-anchor="middle" x="417.5" y="-487.5" font-family="Helvetica,sans-Serif" font-size="10.00">RtcmDecoder::decodeCustomId</text>
</a>
</g>
</g>
<!-- Node4&#45;&gt;Node6 -->
<g id="edge5" class="edge">
<title>Node4&#45;&gt;Node6</title>
<path fill="none" stroke="midnightblue" d="M274.01,-316.54C278.83,-319.01 283.3,-322.11 287,-326 332.77,-374.1 275.05,-425.06 323,-471 325.59,-473.48 328.41,-475.68 331.41,-477.62"/>
<polygon fill="midnightblue" stroke="midnightblue" points="329.8,-480.74 340.26,-482.46 333.16,-474.59 329.8,-480.74"/>
</g>
<!-- Node7 -->
<g id="node7" class="node">
<title>Node7</title>
<g id="a_node7"><a xlink:href="common_8cpp.html#aaa6463f592ed6478626814466d3d02a5" target="_top" xlink:title=" ">
<polygon fill="white" stroke="black" points="590,-392.5 590,-411.5 649,-411.5 649,-392.5 590,-392.5"/>
<text text-anchor="middle" x="619.5" y="-399.5" font-family="Helvetica,sans-Serif" font-size="10.00">getbituInc</text>
</a>
</g>
</g>
<!-- Node4&#45;&gt;Node7 -->
<g id="edge22" class="edge">
<title>Node4&#45;&gt;Node7</title>
<path fill="none" stroke="midnightblue" d="M274.51,-316.52C279.18,-319 283.47,-322.11 287,-326 342.65,-387.43 258.98,-456.35 323,-509 387.88,-562.36 434.43,-541.24 512,-509 555.35,-490.98 590.18,-445.8 607.18,-420.28"/>
<polygon fill="midnightblue" stroke="midnightblue" points="610.33,-421.86 612.81,-411.56 604.45,-418.07 610.33,-421.86"/>
</g>
<!-- Node8 -->
<g id="node8" class="node">
<title>Node8</title>
<g id="a_node8"><a xlink:href="common_8cpp.html#a85a03123ae20efc3b06434f616140943" target="_top" xlink:title=" ">
<polygon fill="white" stroke="black" points="727,-370.5 727,-389.5 773,-389.5 773,-370.5 727,-370.5"/>
<text text-anchor="middle" x="750" y="-377.5" font-family="Helvetica,sans-Serif" font-size="10.00">getbitu</text>
</a>
</g>
</g>
<!-- Node4&#45;&gt;Node8 -->
<g id="edge21" class="edge">
<title>Node4&#45;&gt;Node8</title>
<path fill="none" stroke="midnightblue" d="M274.92,-316.59C279.45,-319.06 283.6,-322.14 287,-326 350.5,-398.01 249.67,-477.03 323,-539 454.27,-649.95 670.39,-457.17 732.08,-397.04"/>
<polygon fill="midnightblue" stroke="midnightblue" points="734.78,-399.3 739.44,-389.78 729.86,-394.32 734.78,-399.3"/>
</g>
<!-- Node9 -->
<g id="node9" class="node">
<title>Node9</title>
<g id="a_node9"><a xlink:href="structRtcmDecoder.html#acd55ac9ab7db974b462c8671d899a120" target="_top" xlink:title=" ">
<polygon fill="white" stroke="black" points="344.5,-431 344.5,-461 490.5,-461 490.5,-431 344.5,-431"/>
<text text-anchor="start" x="352.5" y="-449" font-family="Helvetica,sans-Serif" font-size="10.00">RtcmDecoder::decodeCustom</text>
<text text-anchor="middle" x="417.5" y="-438" font-family="Helvetica,sans-Serif" font-size="10.00">Timestamp</text>
</a>
</g>
</g>
<!-- Node4&#45;&gt;Node9 -->
<g id="edge8" class="edge">
<title>Node4&#45;&gt;Node9</title>
<path fill="none" stroke="midnightblue" d="M272.62,-316.54C277.88,-319 282.82,-322.1 287,-326 320.01,-356.8 289.5,-390.72 323,-421 326.7,-424.34 330.8,-427.25 335.16,-429.77"/>
<polygon fill="midnightblue" stroke="midnightblue" points="333.91,-433.06 344.41,-434.43 337.06,-426.81 333.91,-433.06"/>
</g>
<!-- Node10 -->
<g id="node10" class="node">
<title>Node10</title>
<g id="a_node10"><a xlink:href="structRtcmDecoder.html#a6673aa5a16d7e997de9ce5e43fac7860" target="_top" xlink:title=" ">
<polygon fill="white" stroke="red" points="338.5,-354.5 338.5,-373.5 496.5,-373.5 496.5,-354.5 338.5,-354.5"/>
<text text-anchor="middle" x="417.5" y="-361.5" font-family="Helvetica,sans-Serif" font-size="10.00">RtcmDecoder::decodeEphemeris</text>
</a>
</g>
</g>
<!-- Node4&#45;&gt;Node10 -->
<g id="edge10" class="edge">
<title>Node4&#45;&gt;Node10</title>
<path fill="none" stroke="midnightblue" d="M260.07,-316.57C268.99,-319.3 278.44,-322.49 287,-326 303.74,-332.87 305.96,-338.91 323,-345 330.54,-347.69 338.57,-350.05 346.63,-352.09"/>
<polygon fill="midnightblue" stroke="midnightblue" points="345.91,-355.52 356.45,-354.44 347.54,-348.71 345.91,-355.52"/>
</g>
<!-- Node28 -->
<g id="node11" class="node">
<title>Node28</title>
<g id="a_node11"><a xlink:href="structRtcmDecoder.html#a16b9cbd625b354b77b46b093a638bdf3" target="_top" xlink:title=" ">
<polygon fill="white" stroke="black" points="559.5,-327 559.5,-357 679.5,-357 679.5,-327 559.5,-327"/>
<text text-anchor="start" x="567.5" y="-345" font-family="Helvetica,sans-Serif" font-size="10.00">RtcmDecoder::message</text>
<text text-anchor="middle" x="619.5" y="-334" font-family="Helvetica,sans-Serif" font-size="10.00">_length</text>
</a>
</g>
</g>
<!-- Node4&#45;&gt;Node28 -->
<g id="edge23" class="edge">
<title>Node4&#45;&gt;Node28</title>
<path fill="none" stroke="midnightblue" d="M287.1,-301.3C345.75,-297.34 435.35,-294.73 512,-307 532.36,-310.26 554.11,-316.82 572.62,-323.38"/>
<polygon fill="midnightblue" stroke="midnightblue" points="571.66,-326.76 582.25,-326.91 574.06,-320.19 571.66,-326.76"/>
</g>
<!-- Node32 -->
<g id="node12" class="node">
<title>Node32</title>
<g id="a_node12"><a xlink:href="structRtcmDecoder.html#a255b1924964121ecb5ac55d1efc0cd64" target="_top" xlink:title=" ">
<polygon fill="white" stroke="red" points="347.5,-392.5 347.5,-411.5 487.5,-411.5 487.5,-392.5 347.5,-392.5"/>
<text text-anchor="middle" x="417.5" y="-399.5" font-family="Helvetica,sans-Serif" font-size="10.00">RtcmDecoder::decodeMSM7</text>
</a>
</g>
</g>
<!-- Node4&#45;&gt;Node32 -->
<g id="edge14" class="edge">
<title>Node4&#45;&gt;Node32</title>
<path fill="none" stroke="midnightblue" d="M269.95,-316.58C276.03,-319.04 281.91,-322.13 287,-326 310.85,-344.14 298.34,-365.98 323,-383 327.6,-386.17 332.61,-388.84 337.85,-391.08"/>
<polygon fill="midnightblue" stroke="midnightblue" points="336.88,-394.46 347.48,-394.67 339.33,-387.9 336.88,-394.46"/>
</g>
<!-- Node39 -->
<g id="node13" class="node">
<title>Node39</title>
<g id="a_node13"><a xlink:href="structRtcmDecoder.html#a187d2bf36da0d4de61f4c603b203b09f" target="_top" xlink:title=" ">
<polygon fill="white" stroke="red" points="351.5,-316.5 351.5,-335.5 483.5,-335.5 483.5,-316.5 351.5,-316.5"/>
<text text-anchor="middle" x="417.5" y="-323.5" font-family="Helvetica,sans-Serif" font-size="10.00">RtcmDecoder::decodeSSR</text>
</a>
</g>
</g>
<!-- Node4&#45;&gt;Node39 -->
<g id="edge16" class="edge">
<title>Node4&#45;&gt;Node39</title>
<path fill="none" stroke="midnightblue" d="M287.03,-313.22C304.34,-314.93 323.29,-316.8 341.22,-318.57"/>
<polygon fill="midnightblue" stroke="midnightblue" points="341.05,-322.07 351.35,-319.57 341.74,-315.1 341.05,-322.07"/>
</g>
<!-- Node45 -->
<g id="node14" class="node">
<title>Node45</title>
<g id="a_node14"><a xlink:href="structRtcmEncoder.html#aec43680779bba008687e1f4f792960e1" target="_top" xlink:title=" ">
<polygon fill="white" stroke="red" points="323,-202.5 323,-221.5 512,-221.5 512,-202.5 323,-202.5"/>
<text text-anchor="middle" x="417.5" y="-209.5" font-family="Helvetica,sans-Serif" font-size="10.00">RtcmEncoder::encodeTimeStampRTCM</text>
</a>
</g>
</g>
<!-- Node4&#45;&gt;Node45 -->
<g id="edge19" class="edge">
<title>Node4&#45;&gt;Node45</title>
<path fill="none" stroke="midnightblue" d="M234.44,-297.46C251.63,-282.26 287.54,-252.55 323,-236 333.22,-231.23 344.53,-227.31 355.64,-224.12"/>
<polygon fill="midnightblue" stroke="midnightblue" points="356.59,-227.49 365.33,-221.51 354.76,-220.73 356.59,-227.49"/>
</g>
<!-- Node48 -->
<g id="node15" class="node">
<title>Node48</title>
<g id="a_node15"><a xlink:href="structRtcmEncoder.html#ac3796c0618a67c888d1d06cc0f055c12" target="_top" xlink:title=" ">
<polygon fill="white" stroke="black" points="350.5,-153 350.5,-183 484.5,-183 484.5,-153 350.5,-153"/>
<text text-anchor="start" x="358.5" y="-171" font-family="Helvetica,sans-Serif" font-size="10.00">RtcmEncoder::encodeWrite</text>
<text text-anchor="middle" x="417.5" y="-160" font-family="Helvetica,sans-Serif" font-size="10.00">Messages</text>
</a>
</g>
</g>
<!-- Node4&#45;&gt;Node48 -->
<g id="edge20" class="edge">
<title>Node4&#45;&gt;Node48</title>
<path fill="none" stroke="midnightblue" d="M229.56,-297.34C242.77,-275.27 278.32,-220.92 323,-193 328.42,-189.61 334.3,-186.68 340.38,-184.14"/>
<polygon fill="midnightblue" stroke="midnightblue" points="341.95,-187.29 350.06,-180.46 339.46,-180.74 341.95,-187.29"/>
</g>
<!-- Node49 -->
<g id="node16" class="node">
<title>Node49</title>
<g id="a_node16"><a xlink:href="structRtcmDecoder.html#a26525622756ebcbb60d90c2bf27ac899" target="_top" xlink:title=" ">
<polygon fill="white" stroke="black" points="548,-272.5 548,-291.5 691,-291.5 691,-272.5 548,-272.5"/>
<text text-anchor="middle" x="619.5" y="-279.5" font-family="Helvetica,sans-Serif" font-size="10.00">RtcmDecoder::message_type</text>
</a>
</g>
</g>
<!-- Node4&#45;&gt;Node49 -->
<g id="edge24" class="edge">
<title>Node4&#45;&gt;Node49</title>
<path fill="none" stroke="midnightblue" d="M245.89,-297.43C265.62,-289.36 295.64,-278.44 323,-274 394.95,-262.32 478.02,-266.07 537.73,-271.71"/>
<polygon fill="midnightblue" stroke="midnightblue" points="537.56,-275.21 547.85,-272.71 538.24,-268.25 537.56,-275.21"/>
</g>
<!-- Node50 -->
<g id="node17" class="node">
<title>Node50</title>
<g id="a_node17"><a xlink:href="structRtcmTrace.html#a4b1c85cac6c9887a50ce3f059e4570bc" target="_top" xlink:title=" ">
<polygon fill="white" stroke="black" points="343,-114.5 343,-133.5 492,-133.5 492,-114.5 343,-114.5"/>
<text text-anchor="middle" x="417.5" y="-121.5" font-family="Helvetica,sans-Serif" font-size="10.00">RtcmTrace::messageRtcmLog</text>
</a>
</g>
</g>
<!-- Node4&#45;&gt;Node50 -->
<g id="edge26" class="edge">
<title>Node4&#45;&gt;Node50</title>
<path fill="none" stroke="midnightblue" d="M226.79,-297.33C235.58,-268.63 265.65,-183.43 323,-143 326.26,-140.7 329.73,-138.67 333.34,-136.87"/>
<polygon fill="midnightblue" stroke="midnightblue" points="334.81,-140.05 342.59,-132.87 332.02,-133.63 334.81,-140.05"/>
</g>
<!-- Node13 -->
<g id="node18" class="node">
<title>Node13</title>
<g id="a_node18"><a xlink:href="structGTime.html#aaa8a379d11cd6c040a6bbe680c0e913e" target="_top" xlink:title="Uninitialised time for comparisons.">
<polygon fill="white" stroke="black" points="376,-76.5 376,-95.5 459,-95.5 459,-76.5 376,-76.5"/>
<text text-anchor="middle" x="417.5" y="-83.5" font-family="Helvetica,sans-Serif" font-size="10.00">GTime::noTime</text>
</a>
</g>
</g>
<!-- Node4&#45;&gt;Node13 -->
<g id="edge27" class="edge">
<title>Node4&#45;&gt;Node13</title>
<path fill="none" stroke="midnightblue" d="M225.69,-297.07C231.89,-263.92 256.55,-156.34 323,-105 335.14,-95.62 350.74,-90.54 365.7,-87.88"/>
<polygon fill="midnightblue" stroke="midnightblue" points="366.51,-91.3 375.9,-86.4 365.5,-84.37 366.51,-91.3"/>
</g>
<!-- Node51 -->
<g id="node19" class="node">
<title>Node51</title>
<g id="a_node19"><a xlink:href="acsConfig_8cpp.html#a4384ae3d8da08f4e8562857e46291559" target="_top" xlink:title="search for and replace section of string">
<polygon fill="white" stroke="black" points="380.5,-38.5 380.5,-57.5 454.5,-57.5 454.5,-38.5 380.5,-38.5"/>
<text text-anchor="middle" x="417.5" y="-45.5" font-family="Helvetica,sans-Serif" font-size="10.00">replaceString</text>
</a>
</g>
</g>
<!-- Node4&#45;&gt;Node51 -->
<g id="edge28" class="edge">
<title>Node4&#45;&gt;Node51</title>
<path fill="none" stroke="midnightblue" d="M224.84,-297.35C228.54,-260.8 246.87,-129.83 323,-67 336.12,-56.17 353.76,-50.97 370.18,-48.63"/>
<polygon fill="midnightblue" stroke="midnightblue" points="370.64,-52.1 380.19,-47.52 369.87,-45.14 370.64,-52.1"/>
</g>
<!-- Node52 -->
<g id="node20" class="node">
<title>Node52</title>
<g id="a_node20"><a xlink:href="structGTime.html#a64394968bbfdecbbeec4ba5134fdb682" target="_top" xlink:title=" ">
<polygon fill="white" stroke="red" points="373.5,-0.5 373.5,-19.5 461.5,-19.5 461.5,-0.5 373.5,-0.5"/>
<text text-anchor="middle" x="417.5" y="-7.5" font-family="Helvetica,sans-Serif" font-size="10.00">GTime::to_string</text>
</a>
</g>
</g>
<!-- Node4&#45;&gt;Node52 -->
<g id="edge29" class="edge">
<title>Node4&#45;&gt;Node52</title>
<path fill="none" stroke="midnightblue" d="M224.24,-297.27C225.78,-257.16 237.28,-103.36 323,-29 334.18,-19.3 348.95,-14.06 363.44,-11.34"/>
<polygon fill="midnightblue" stroke="midnightblue" points="364.02,-14.79 373.38,-9.84 362.97,-7.87 364.02,-14.79"/>
</g>
<!-- Node6&#45;&gt;Node7 -->
<g id="edge6" class="edge">
<title>Node6&#45;&gt;Node7</title>
<path fill="none" stroke="midnightblue" d="M481.82,-480.49C492.11,-478 502.49,-474.88 512,-471 544.84,-457.59 578.49,-433.76 598.95,-417.91"/>
<polygon fill="midnightblue" stroke="midnightblue" points="601.19,-420.61 606.87,-411.67 596.85,-415.11 601.19,-420.61"/>
</g>
<!-- Node7&#45;&gt;Node8 -->
<g id="edge7" class="edge">
<title>Node7&#45;&gt;Node8</title>
<path fill="none" stroke="midnightblue" d="M649.02,-397.12C669.13,-393.67 696.1,-389.06 716.96,-385.49"/>
<polygon fill="midnightblue" stroke="midnightblue" points="717.68,-388.91 726.94,-383.78 716.49,-382.01 717.68,-388.91"/>
</g>
<!-- Node9&#45;&gt;Node7 -->
<g id="edge9" class="edge">
<title>Node9&#45;&gt;Node7</title>
<path fill="none" stroke="midnightblue" d="M486.77,-430.98C517.84,-424.15 553.47,-416.31 579.83,-410.51"/>
<polygon fill="midnightblue" stroke="midnightblue" points="580.79,-413.88 589.81,-408.31 579.29,-407.04 580.79,-413.88"/>
</g>
<!-- Node10&#45;&gt;Node7 -->
<g id="edge11" class="edge">
<title>Node10&#45;&gt;Node7</title>
<path fill="none" stroke="midnightblue" d="M468.71,-373.54C503.12,-380.08 548.09,-388.62 579.75,-394.64"/>
<polygon fill="midnightblue" stroke="midnightblue" points="579.46,-398.14 589.94,-396.57 580.76,-391.27 579.46,-398.14"/>
</g>
<!-- Node10&#45;&gt;Node28 -->
<g id="edge12" class="edge">
<title>Node10&#45;&gt;Node28</title>
<path fill="none" stroke="midnightblue" d="M496.68,-355.4C513.92,-353.5 532.07,-351.51 548.94,-349.65"/>
<polygon fill="midnightblue" stroke="midnightblue" points="549.7,-353.09 559.26,-348.52 548.94,-346.13 549.7,-353.09"/>
</g>
<!-- Node28&#45;&gt;Node8 -->
<g id="edge13" class="edge">
<title>Node28&#45;&gt;Node8</title>
<path fill="none" stroke="midnightblue" d="M671.29,-357.02C686.6,-361.55 702.99,-366.39 716.75,-370.46"/>
<polygon fill="midnightblue" stroke="midnightblue" points="716.11,-373.92 726.69,-373.4 718.1,-367.21 716.11,-373.92"/>
</g>
<!-- Node32&#45;&gt;Node7 -->
<g id="edge15" class="edge">
<title>Node32&#45;&gt;Node7</title>
<path fill="none" stroke="midnightblue" d="M487.61,-402C518.37,-402 553.46,-402 579.56,-402"/>
<polygon fill="midnightblue" stroke="midnightblue" points="579.8,-405.5 589.8,-402 579.8,-398.5 579.8,-405.5"/>
</g>
<!-- Node39&#45;&gt;Node7 -->
<g id="edge17" class="edge">
<title>Node39&#45;&gt;Node7</title>
<path fill="none" stroke="midnightblue" d="M480.18,-335.54C490.96,-338.05 501.94,-341.16 512,-345 529.31,-351.6 531.75,-357.12 548,-366 561.55,-373.4 576.79,-381.24 589.62,-387.71"/>
<polygon fill="midnightblue" stroke="midnightblue" points="588.39,-391.01 598.9,-392.36 591.52,-384.75 588.39,-391.01"/>
</g>
<!-- Node39&#45;&gt;Node28 -->
<g id="edge18" class="edge">
<title>Node39&#45;&gt;Node28</title>
<path fill="none" stroke="midnightblue" d="M483.71,-331.22C504.67,-332.89 527.97,-334.76 549.21,-336.46"/>
<polygon fill="midnightblue" stroke="midnightblue" points="549.21,-339.97 559.46,-337.28 549.77,-332.99 549.21,-339.97"/>
</g>
<!-- Node49&#45;&gt;Node8 -->
<g id="edge25" class="edge">
<title>Node49&#45;&gt;Node8</title>
<path fill="none" stroke="midnightblue" d="M645.26,-291.63C659.38,-297.75 677.01,-306.5 691,-317 708.36,-330.03 724.79,-348.69 735.7,-362.32"/>
<polygon fill="midnightblue" stroke="midnightblue" points="733.12,-364.7 742.02,-370.44 738.64,-360.4 733.12,-364.7"/>
</g>
</g>
</svg>
        <g id="navigator" transform="translate(0 0)" fill="#404254">
                <rect fill="#f2f5e9" fill-opacity="0.5" stroke="#606060" stroke-width=".5" x="0" y="0" width="60" height="60"/>
                <use id="zoomplus" xlink:href="#zoomPlus" x="17" y="9" onmousedown="handleZoom(evt,'in')"/>
                <use id="zoomminus" xlink:href="#zoomMin" x="42" y="9" onmousedown="handleZoom(evt,'out')"/>
                <use id="reset" xlink:href="#resetDef" x="30" y="36" onmousedown="handleReset()"/>
                <g id="arrowUp" xlink:href="#dirArrow" transform="translate(30 24)" onmousedown="handlePan(0,-1)">
                  <use xlink:href="#rim" fill="#404040">
                        <set attributeName="fill" to="#808080" begin="arrowUp.mouseover" end="arrowUp.mouseout"/>
                  </use>
                  <path fill="none" stroke="white" stroke-width="1.5" d="M0,-3.0v7 M-2.5,-0.5L0,-3.0L2.5,-0.5"/>
                </g>
                <g id="arrowRight" xlink:href="#dirArrow" transform="rotate(90) translate(36 -43)" onmousedown="handlePan(1,0)">
                  <use xlink:href="#rim" fill="#404040">
                        <set attributeName="fill" to="#808080" begin="arrowRight.mouseover" end="arrowRight.mouseout"/>
                  </use>
                  <path fill="none" stroke="white" stroke-width="1.5" d="M0,-3.0v7 M-2.5,-0.5L0,-3.0L2.5,-0.5"/>
                </g>
                <g id="arrowDown" xlink:href="#dirArrow" transform="rotate(180) translate(-30 -48)" onmousedown="handlePan(0,1)">
                  <use xlink:href="#rim" fill="#404040">
                        <set attributeName="fill" to="#808080" begin="arrowDown.mouseover" end="arrowDown.mouseout"/>
                  </use>
                  <path fill="none" stroke="white" stroke-width="1.5" d="M0,-3.0v7 M-2.5,-0.5L0,-3.0L2.5,-0.5"/>
                </g>
                <g id="arrowLeft" xlink:href="#dirArrow" transform="rotate(270) translate(-36 17)" onmousedown="handlePan(-1,0)">
                  <use xlink:href="#rim" fill="#404040">
                        <set attributeName="fill" to="#808080" begin="arrowLeft.mouseover" end="arrowLeft.mouseout"/>
                  </use>
                  <path fill="none" stroke="white" stroke-width="1.5" d="M0,-3.0v7 M-2.5,-0.5L0,-3.0L2.5,-0.5"/>
                </g>
        </g>
        <svg viewBox="0 0 15 15" width="100%" height="30px" preserveAspectRatio="xMaxYMin meet">
         <g id="arrow_out" transform="scale(0.3 0.3)">
          <a xlink:href="structFileRtcmStream_a60fb40d30b75c23712ce49ff8b9655ab_cgraph_org.svg" target="_base">
           <rect id="button" ry="5" rx="5" y="6" x="6" height="38" width="38"
                fill="#f2f5e9" fill-opacity="0.5" stroke="#606060" stroke-width="1.0"/>
           <path id="arrow"
             d="M 11.500037,31.436501 C 11.940474,20.09759 22.043105,11.32322 32.158766,21.979434 L 37.068811,17.246167 C 37.068811,17.246167 37.088388,32 37.088388,32 L 22.160133,31.978069 C 22.160133,31.978069 26.997745,27.140456 26.997745,27.140456 C 18.528582,18.264221 13.291696,25.230495 11.500037,31.436501 z"
             style="fill:#404040;"/>
          </a>
         </g>
        </svg>
</svg>
