<?xml version="1.0" encoding="UTF-8" standalone="no"?>
<!DOCTYPE svg PUBLIC "-//W3C//DTD SVG 1.1//EN"
 "http://www.w3.org/Graphics/SVG/1.1/DTD/svg11.dtd">
<!-- Generated by graphviz version 2.50.0 (20220203.2022)
 -->
<!-- Title: ObsStream::getObs Pages: 1 -->
<svg width="274pt" height="142pt"
 viewBox="0.00 0.00 274.00 142.00" xmlns="http://www.w3.org/2000/svg" xmlns:xlink="http://www.w3.org/1999/xlink">
<g id="graph0" class="graph" transform="scale(1 1) rotate(0) translate(4 138)">
<title>ObsStream::getObs</title>
<polygon fill="white" stroke="transparent" points="-4,4 -4,-138 270,-138 270,4 -4,4"/>
<!-- Node1 -->
<g id="node1" class="node">
<title>Node1</title>
<g id="a_node1"><a xlink:title="Return a list of observations from the stream.">
<polygon fill="#bfbfbf" stroke="black" points="164,-57.5 164,-76.5 266,-76.5 266,-57.5 164,-57.5"/>
<text text-anchor="middle" x="215" y="-64.5" font-family="Helvetica,sans-Serif" font-size="10.00">ObsStream::getObs</text>
</a>
</g>
</g>
<!-- Node2 -->
<g id="node2" class="node">
<title>Node2</title>
<g id="a_node2"><a xlink:href="structNtripRtcmStream.html#a7ae2807fa53dc422270a34553e1f80c9" target="_top" xlink:title="Return a list of observations from the stream.">
<polygon fill="white" stroke="black" points="0,-114.5 0,-133.5 128,-133.5 128,-114.5 0,-114.5"/>
<text text-anchor="middle" x="64" y="-121.5" font-family="Helvetica,sans-Serif" font-size="10.00">NtripRtcmStream::getObs</text>
</a>
</g>
</g>
<!-- Node1&#45;&gt;Node2 -->
<g id="edge1" class="edge">
<title>Node1&#45;&gt;Node2</title>
<path fill="none" stroke="midnightblue" d="M185,-80.88C168.5,-88.51 147.32,-97.85 128,-105 118.89,-108.37 108.89,-111.6 99.59,-114.4"/>
<polygon fill="midnightblue" stroke="midnightblue" points="186.55,-84.02 194.13,-76.62 183.59,-77.68 186.55,-84.02"/>
</g>
<!-- Node3 -->
<g id="node3" class="node">
<title>Node3</title>
<g id="a_node3"><a xlink:href="structFileRtcmStream.html#a60fb40d30b75c23712ce49ff8b9655ab" target="_top" xlink:title="Return a list of observations from the stream.">
<polygon fill="white" stroke="black" points="2.5,-76.5 2.5,-95.5 125.5,-95.5 125.5,-76.5 2.5,-76.5"/>
<text text-anchor="middle" x="64" y="-83.5" font-family="Helvetica,sans-Serif" font-size="10.00">FileRtcmStream::getObs</text>
</a>
</g>
</g>
<!-- Node1&#45;&gt;Node3 -->
<g id="edge2" class="edge">
<title>Node1&#45;&gt;Node3</title>
<path fill="none" stroke="midnightblue" d="M154.02,-74.65C144.71,-75.84 135.09,-77.06 125.76,-78.25"/>
<polygon fill="midnightblue" stroke="midnightblue" points="154.49,-78.12 163.97,-73.38 153.61,-71.17 154.49,-78.12"/>
</g>
<!-- Node4 -->
<g id="node4" class="node">
<title>Node4</title>
<g id="a_node4"><a xlink:href="structFileRinexStream.html#a8032f619708821820655c1ed3c7f2e57" target="_top" xlink:title="Return a list of observations from the stream.">
<polygon fill="white" stroke="black" points="2,-38.5 2,-57.5 126,-57.5 126,-38.5 2,-38.5"/>
<text text-anchor="middle" x="64" y="-45.5" font-family="Helvetica,sans-Serif" font-size="10.00">FileRinexStream::getObs</text>
</a>
</g>
</g>
<!-- Node1&#45;&gt;Node4 -->
<g id="edge3" class="edge">
<title>Node1&#45;&gt;Node4</title>
<path fill="none" stroke="midnightblue" d="M153.79,-59.32C144.64,-58.16 135.19,-56.95 126.02,-55.78"/>
<polygon fill="midnightblue" stroke="midnightblue" points="153.61,-62.83 163.97,-60.62 154.49,-55.88 153.61,-62.83"/>
</g>
<!-- Node5 -->
<g id="node5" class="node">
<title>Node5</title>
<g id="a_node5"><a xlink:href="structObsStream.html#a6d0ad39e5f301fc9455cfe5d9d3c3f99" target="_top" xlink:title="Return a list of observations from the stream, with a specified timestamp.">
<polygon fill="white" stroke="black" points="13,-0.5 13,-19.5 115,-19.5 115,-0.5 13,-0.5"/>
<text text-anchor="middle" x="64" y="-7.5" font-family="Helvetica,sans-Serif" font-size="10.00">ObsStream::getObs</text>
</a>
</g>
</g>
<!-- Node1&#45;&gt;Node5 -->
<g id="edge4" class="edge">
<title>Node1&#45;&gt;Node5</title>
<path fill="none" stroke="midnightblue" d="M185,-53.12C168.5,-45.49 147.32,-36.15 128,-29 118.89,-25.63 108.89,-22.4 99.59,-19.6"/>
<polygon fill="midnightblue" stroke="midnightblue" points="183.59,-56.32 194.13,-57.38 186.55,-49.98 183.59,-56.32"/>
</g>
</g>
</svg>
