<?xml version="1.0" encoding="UTF-8" standalone="no"?>
<!DOCTYPE svg PUBLIC "-//W3C//DTD SVG 1.1//EN"
 "http://www.w3.org/Graphics/SVG/1.1/DTD/svg11.dtd">
<!-- Generated by graphviz version 2.50.0 (20220203.2022)
 -->
<!-- Title: RtcmStream Pages: 1 -->
<!--zoomable 453 -->
<svg id="main" version="1.1" xmlns="http://www.w3.org/2000/svg" xmlns:xlink="http://www.w3.org/1999/xlink" xml:space="preserve" onload="init(evt)">
<style type="text/css"><![CDATA[
.edge:hover path { stroke: red; }
.edge:hover polygon { stroke: red; fill: red; }
]]></style>
<script type="text/javascript"><![CDATA[
var edges = document.getElementsByTagName('g');
if (edges && edges.length) {
  for (var i=0;i<edges.length;i++) {
    if (edges[i].id.substr(0,4)=='edge') {
      edges[i].setAttribute('class','edge');
    }
  }
}
]]></script>
        <defs>
                <circle id="rim" cx="0" cy="0" r="7"/>
                <circle id="rim2" cx="0" cy="0" r="3.5"/>
                <g id="zoomPlus">
                        <use xlink:href="#rim" fill="#404040">
                                <set attributeName="fill" to="#808080" begin="zoomplus.mouseover" end="zoomplus.mouseout"/>
                        </use>
                        <path d="M-4,0h8M0,-4v8" fill="none" stroke="white" stroke-width="1.5" pointer-events="none"/>
                </g>
                <g id="zoomMin">
                        <use xlink:href="#rim" fill="#404040">
                                <set attributeName="fill" to="#808080" begin="zoomminus.mouseover" end="zoomminus.mouseout"/>
                        </use>
                        <path d="M-4,0h8" fill="none" stroke="white" stroke-width="1.5" pointer-events="none"/>
                </g>
                <g id="dirArrow">
                        <path fill="none" stroke="white" stroke-width="1.5" d="M0,-3.0v7 M-2.5,-0.5L0,-3.0L2.5,-0.5"/>
                </g>
               <g id="resetDef">
                       <use xlink:href="#rim2" fill="#404040">
                               <set attributeName="fill" to="#808080" begin="reset.mouseover" end="reset.mouseout"/>
                       </use>
               </g>
        </defs>

<script type="text/javascript">
var viewWidth = 742;
var viewHeight = 453;
var sectionId = 'dynsection-1';
</script>
<script xlink:href="svgpan.js"/>
<svg id="graph" class="graph">
<g id="viewport">
<title>RtcmStream</title>
<polygon fill="white" stroke="transparent" points="-4,4 -4,-449.48 738,-449.48 738,4 -4,4"/>
<!-- Node1 -->
<g id="node1" class="node">
<title>Node1</title>
<g id="a_node1"><a xlink:title=" ">
<polygon fill="#bfbfbf" stroke="black" points="663,-188 663,-207 734,-207 734,-188 663,-188"/>
<text text-anchor="middle" x="698.5" y="-195" font-family="Helvetica,sans-Serif" font-size="10.00">RtcmStream</text>
</a>
</g>
</g>
<!-- Node2 -->
<g id="node2" class="node">
<title>Node2</title>
<g id="a_node2"><a xlink:href="structObsStream.html" target="_top" xlink:title="Interface for streams that supply observations.">
<polygon fill="white" stroke="black" points="440,-315 440,-334 506,-334 506,-315 440,-315"/>
<text text-anchor="middle" x="473" y="-322" font-family="Helvetica,sans-Serif" font-size="10.00">ObsStream</text>
</a>
</g>
</g>
<!-- Node2&#45;&gt;Node1 -->
<g id="edge1" class="edge">
<title>Node2&#45;&gt;Node1</title>
<path fill="none" stroke="midnightblue" d="M516.07,-319.91C552.98,-314.15 606.62,-301.37 645,-273.5 669.27,-255.88 686.09,-223.45 693.4,-207.25"/>
<polygon fill="midnightblue" stroke="midnightblue" points="515.52,-316.46 506.12,-321.36 516.52,-323.38 515.52,-316.46"/>
</g>
<!-- Node3 -->
<g id="node3" class="node">
<title>Node3</title>
<g id="a_node3"><a xlink:href="structRinexStation.html" target="_top" xlink:title=" ">
<polygon fill="white" stroke="red" points="203,-352 203,-371 274,-371 274,-352 203,-352"/>
<text text-anchor="middle" x="238.5" y="-359" font-family="Helvetica,sans-Serif" font-size="10.00">RinexStation</text>
</a>
</g>
</g>
<!-- Node3&#45;&gt;Node2 -->
<g id="edge2" class="edge">
<title>Node3&#45;&gt;Node2</title>
<path fill="none" stroke="#9a32cd" stroke-dasharray="5,2" d="M284.26,-355.77C318.06,-351.28 365.54,-344.61 407,-337.5 417.78,-335.65 429.5,-333.39 440,-331.27"/>
<polygon fill="#9a32cd" stroke="#9a32cd" points="283.69,-352.31 274.23,-357.09 284.61,-359.25 283.69,-352.31"/>
<text text-anchor="middle" x="361" y="-353.5" font-family="Helvetica,sans-Serif" font-size="10.00"> rnxStation</text>
</g>
<!-- Node4 -->
<g id="node4" class="node">
<title>Node4</title>
<g id="a_node4"><a xlink:title=" ">
<polygon fill="white" stroke="red" points="0,-306 0,-325 59,-325 59,-306 0,-306"/>
<text text-anchor="middle" x="29.5" y="-313" font-family="Helvetica,sans-Serif" font-size="10.00">std::string</text>
</a>
</g>
</g>
<!-- Node4&#45;&gt;Node1 -->
<g id="edge20" class="edge">
<title>Node4&#45;&gt;Node1</title>
<path fill="none" stroke="#9a32cd" stroke-dasharray="5,2" d="M33.71,-335.23C38.63,-358.45 50.42,-396.13 77,-414.5 157.5,-470.12 200.08,-435.9 297,-422.5 383.66,-410.52 640.14,-312.87 645,-308.5 676.71,-280 690.91,-228.28 695.61,-207.02"/>
<polygon fill="#9a32cd" stroke="#9a32cd" points="37.1,-334.33 31.82,-325.15 30.22,-335.63 37.1,-334.33"/>
<text text-anchor="middle" x="361" y="-421.5" font-family="Helvetica,sans-Serif" font-size="10.00"> rtcm_filename</text>
</g>
<!-- Node4&#45;&gt;Node2 -->
<g id="edge5" class="edge">
<title>Node4&#45;&gt;Node2</title>
<path fill="none" stroke="#9a32cd" stroke-dasharray="5,2" d="M35.91,-334.78C42.32,-353.55 55.01,-381.01 77,-393.5 140.99,-429.85 337.84,-390.68 407,-365.5 427.31,-358.11 447.94,-343.65 460.36,-334.03"/>
<polygon fill="#9a32cd" stroke="#9a32cd" points="39.23,-333.66 32.91,-325.16 32.55,-335.74 39.23,-333.66"/>
<text text-anchor="middle" x="238.5" y="-410.5" font-family="Helvetica,sans-Serif" font-size="10.00"> sourceString</text>
</g>
<!-- Node4&#45;&gt;Node3 -->
<g id="edge3" class="edge">
<title>Node4&#45;&gt;Node3</title>
<path fill="none" stroke="#9a32cd" stroke-dasharray="5,2" d="M69.05,-306.81C96.55,-302.68 133.55,-301.45 162,-316.5 174.42,-323.07 168.75,-334.08 180,-342.5 186.74,-347.54 194.88,-351.28 202.89,-354.05"/>
<polygon fill="#9a32cd" stroke="#9a32cd" points="68.28,-303.39 59.01,-308.51 69.45,-310.29 68.28,-303.39"/>
<text text-anchor="middle" x="119.5" y="-385.5" font-family="Helvetica,sans-Serif" font-size="10.00"> antDesc</text>
<text text-anchor="middle" x="119.5" y="-374.5" font-family="Helvetica,sans-Serif" font-size="10.00">antSerial</text>
<text text-anchor="middle" x="119.5" y="-363.5" font-family="Helvetica,sans-Serif" font-size="10.00">id</text>
<text text-anchor="middle" x="119.5" y="-352.5" font-family="Helvetica,sans-Serif" font-size="10.00">marker</text>
<text text-anchor="middle" x="119.5" y="-341.5" font-family="Helvetica,sans-Serif" font-size="10.00">recFWVersion</text>
<text text-anchor="middle" x="119.5" y="-330.5" font-family="Helvetica,sans-Serif" font-size="10.00">recSerial</text>
<text text-anchor="middle" x="119.5" y="-319.5" font-family="Helvetica,sans-Serif" font-size="10.00">recType</text>
</g>
<!-- Node12 -->
<g id="node8" class="node">
<title>Node12</title>
<g id="a_node8"><a xlink:href="structRtcmTrace.html" target="_top" xlink:title=" ">
<polygon fill="white" stroke="black" points="206,-150 206,-169 271,-169 271,-150 206,-150"/>
<text text-anchor="middle" x="238.5" y="-157" font-family="Helvetica,sans-Serif" font-size="10.00">RtcmTrace</text>
</a>
</g>
</g>
<!-- Node4&#45;&gt;Node12 -->
<g id="edge9" class="edge">
<title>Node4&#45;&gt;Node12</title>
<path fill="none" stroke="#9a32cd" stroke-dasharray="5,2" d="M40.59,-296.81C49.04,-282.27 62.09,-262.17 77,-247.5 116.1,-209.03 130.83,-203.81 180,-179.5 188.15,-175.47 197.31,-171.89 205.89,-168.92"/>
<polygon fill="#9a32cd" stroke="#9a32cd" points="37.36,-295.42 35.51,-305.85 43.46,-298.85 37.36,-295.42"/>
<text text-anchor="middle" x="119.5" y="-261.5" font-family="Helvetica,sans-Serif" font-size="10.00"> rtcmMountPoint</text>
<text text-anchor="middle" x="119.5" y="-250.5" font-family="Helvetica,sans-Serif" font-size="10.00">rtcmTraceFilename</text>
</g>
<!-- Node24 -->
<g id="node16" class="node">
<title>Node24</title>
<g id="a_node16"><a xlink:href="structObs.html" target="_top" xlink:title="Observation, and data derived from it.">
<polygon fill="white" stroke="red" points="221,-276 221,-295 256,-295 256,-276 221,-276"/>
<text text-anchor="middle" x="238.5" y="-283" font-family="Helvetica,sans-Serif" font-size="10.00">Obs</text>
</a>
</g>
</g>
<!-- Node4&#45;&gt;Node24 -->
<g id="edge18" class="edge">
<title>Node4&#45;&gt;Node24</title>
<path fill="none" stroke="#9a32cd" stroke-dasharray="5,2" d="M47.88,-299.26C56.07,-292.7 66.36,-285.89 77,-282.5 127.19,-266.5 190.75,-275.76 220.59,-281.7"/>
<polygon fill="#9a32cd" stroke="#9a32cd" points="45.51,-296.69 40.19,-305.85 50.06,-302 45.51,-296.69"/>
<text text-anchor="middle" x="119.5" y="-285.5" font-family="Helvetica,sans-Serif" font-size="10.00"> mount</text>
</g>
<!-- Node7 -->
<g id="node5" class="node">
<title>Node7</title>
<g id="a_node5"><a xlink:title=" ">
<polygon fill="white" stroke="red" points="189.5,-314 189.5,-333 287.5,-333 287.5,-314 189.5,-314"/>
<text text-anchor="middle" x="238.5" y="-321" font-family="Helvetica,sans-Serif" font-size="10.00">std::list&lt; ObsList &gt;</text>
</a>
</g>
</g>
<!-- Node7&#45;&gt;Node2 -->
<g id="edge4" class="edge">
<title>Node7&#45;&gt;Node2</title>
<path fill="none" stroke="#9a32cd" stroke-dasharray="5,2" d="M297.88,-323.75C342.87,-323.94 403.36,-324.2 439.92,-324.36"/>
<polygon fill="#9a32cd" stroke="#9a32cd" points="297.69,-320.25 287.67,-323.71 297.66,-327.25 297.69,-320.25"/>
<text text-anchor="middle" x="361" y="-326.5" font-family="Helvetica,sans-Serif" font-size="10.00"> obsListList</text>
</g>
<!-- Node10 -->
<g id="node6" class="node">
<title>Node10</title>
<g id="a_node6"><a xlink:href="structNavStream.html" target="_top" xlink:title="Interface for objects that provide navigation data.">
<polygon fill="white" stroke="black" points="440,-66 440,-85 506,-85 506,-66 440,-66"/>
<text text-anchor="middle" x="473" y="-73" font-family="Helvetica,sans-Serif" font-size="10.00">NavStream</text>
</a>
</g>
</g>
<!-- Node10&#45;&gt;Node1 -->
<g id="edge6" class="edge">
<title>Node10&#45;&gt;Node1</title>
<path fill="none" stroke="midnightblue" d="M516.49,-73.95C553.59,-74.66 607.25,-80.9 645,-107.5 673.69,-127.71 689.04,-168.98 694.8,-187.78"/>
<polygon fill="midnightblue" stroke="midnightblue" points="516.04,-70.44 506.02,-73.88 516,-77.44 516.04,-70.44"/>
</g>
<!-- Node11 -->
<g id="node7" class="node">
<title>Node11</title>
<g id="a_node7"><a xlink:href="structRtcmDecoder.html" target="_top" xlink:title=" ">
<polygon fill="white" stroke="black" points="435,-188 435,-207 511,-207 511,-188 435,-188"/>
<text text-anchor="middle" x="473" y="-195" font-family="Helvetica,sans-Serif" font-size="10.00">RtcmDecoder</text>
</a>
</g>
</g>
<!-- Node11&#45;&gt;Node1 -->
<g id="edge7" class="edge">
<title>Node11&#45;&gt;Node1</title>
<path fill="none" stroke="midnightblue" d="M521.23,-197.5C563.61,-197.5 624.82,-197.5 662.83,-197.5"/>
<polygon fill="midnightblue" stroke="midnightblue" points="521.16,-194 511.16,-197.5 521.16,-201 521.16,-194"/>
</g>
<!-- Node12&#45;&gt;Node11 -->
<g id="edge8" class="edge">
<title>Node12&#45;&gt;Node11</title>
<path fill="none" stroke="midnightblue" d="M281.36,-166.34C325.05,-173.48 392.91,-184.57 434.79,-191.42"/>
<polygon fill="midnightblue" stroke="midnightblue" points="281.77,-162.86 271.34,-164.7 280.65,-169.77 281.77,-162.86"/>
</g>
<!-- Node13 -->
<g id="node9" class="node">
<title>Node13</title>
<g id="a_node9"><a xlink:href="structRtcmStatistics.html" target="_top" xlink:title=" ">
<polygon fill="white" stroke="black" points="198,-238 198,-257 279,-257 279,-238 198,-238"/>
<text text-anchor="middle" x="238.5" y="-245" font-family="Helvetica,sans-Serif" font-size="10.00">RtcmStatistics</text>
</a>
</g>
</g>
<!-- Node13&#45;&gt;Node11 -->
<g id="edge10" class="edge">
<title>Node13&#45;&gt;Node11</title>
<path fill="none" stroke="midnightblue" d="M289.28,-239.09C322.71,-233.17 367.68,-224.68 407,-215.5 417.6,-213.02 429.08,-209.97 439.4,-207.09"/>
<polygon fill="midnightblue" stroke="midnightblue" points="288.53,-235.66 279.29,-240.84 289.74,-242.56 288.53,-235.66"/>
</g>
<!-- Node14 -->
<g id="node10" class="node">
<title>Node14</title>
<g id="a_node10"><a xlink:title=" ">
<polygon fill="white" stroke="red" points="180,-188.5 180,-218.5 297,-218.5 297,-188.5 180,-188.5"/>
<text text-anchor="start" x="188" y="-206.5" font-family="Helvetica,sans-Serif" font-size="10.00">std::map&lt; SatSys, map</text>
<text text-anchor="middle" x="238.5" y="-195.5" font-family="Helvetica,sans-Serif" font-size="10.00">&lt; E_ObsCode, int &gt; &gt;</text>
</a>
</g>
</g>
<!-- Node14&#45;&gt;Node11 -->
<g id="edge11" class="edge">
<title>Node14&#45;&gt;Node11</title>
<path fill="none" stroke="#9a32cd" stroke-dasharray="5,2" d="M307.34,-201.75C348.95,-200.68 400.63,-199.34 434.87,-198.46"/>
<polygon fill="#9a32cd" stroke="#9a32cd" points="307.18,-198.25 297.27,-202.01 307.36,-205.25 307.18,-198.25"/>
<text text-anchor="middle" x="361" y="-203.5" font-family="Helvetica,sans-Serif" font-size="10.00"> MSM7_lock_time</text>
</g>
<!-- Node18 -->
<g id="node11" class="node">
<title>Node18</title>
<g id="a_node11"><a xlink:href="structGTime.html" target="_top" xlink:title="Time structure used throughout this software.">
<polygon fill="white" stroke="black" points="215.5,-112 215.5,-131 261.5,-131 261.5,-112 215.5,-112"/>
<text text-anchor="middle" x="238.5" y="-119" font-family="Helvetica,sans-Serif" font-size="10.00">GTime</text>
</a>
</g>
</g>
<!-- Node18&#45;&gt;Node1 -->
<g id="edge19" class="edge">
<title>Node18&#45;&gt;Node1</title>
<path fill="none" stroke="#9a32cd" stroke-dasharray="5,2" d="M271.77,-122.98C305.6,-124.82 360.24,-128.59 407,-135.5 500.36,-149.31 608.69,-175.06 662.88,-188.62"/>
<polygon fill="#9a32cd" stroke="#9a32cd" points="271.72,-119.47 261.55,-122.45 271.36,-126.46 271.72,-119.47"/>
<text text-anchor="middle" x="473" y="-158.5" font-family="Helvetica,sans-Serif" font-size="10.00"> rtcmDeltaTime</text>
</g>
<!-- Node18&#45;&gt;Node11 -->
<g id="edge12" class="edge">
<title>Node18&#45;&gt;Node11</title>
<path fill="none" stroke="#9a32cd" stroke-dasharray="5,2" d="M271.5,-127.04C312.95,-134.45 382.76,-147.77 407,-157.5 426.43,-165.3 446.64,-178.71 459.26,-187.83"/>
<polygon fill="#9a32cd" stroke="#9a32cd" points="272.08,-123.59 261.62,-125.29 270.86,-130.48 272.08,-123.59"/>
<text text-anchor="middle" x="361" y="-160.5" font-family="Helvetica,sans-Serif" font-size="10.00"> rtcm_UTC</text>
</g>
<!-- Node19 -->
<g id="node12" class="node">
<title>Node19</title>
<g id="a_node12"><a xlink:href="structLockTimeInfo.html" target="_top" xlink:title=" ">
<polygon fill="white" stroke="black" points="434.5,-28 434.5,-47 511.5,-47 511.5,-28 434.5,-28"/>
<text text-anchor="middle" x="473" y="-35" font-family="Helvetica,sans-Serif" font-size="10.00">LockTimeInfo</text>
</a>
</g>
</g>
<!-- Node19&#45;&gt;Node1 -->
<g id="edge13" class="edge">
<title>Node19&#45;&gt;Node1</title>
<path fill="none" stroke="#9a32cd" stroke-dasharray="5,2" d="M521.87,-27.4C559.13,-22.39 610.21,-22.15 645,-48.5 690.7,-83.11 696.77,-160.52 697.46,-187.78"/>
<polygon fill="#9a32cd" stroke="#9a32cd" points="521.11,-23.97 511.74,-28.92 522.15,-30.89 521.11,-23.97"/>
<text text-anchor="middle" x="592" y="-62.5" font-family="Helvetica,sans-Serif" font-size="10.00"> lock_time_info_current</text>
<text text-anchor="middle" x="592" y="-51.5" font-family="Helvetica,sans-Serif" font-size="10.00">lock_time_info_previous</text>
</g>
<!-- Node20 -->
<g id="node13" class="node">
<title>Node20</title>
<g id="a_node13"><a xlink:title=" ">
<polygon fill="white" stroke="black" points="218,-50 218,-69 259,-69 259,-50 218,-50"/>
<text text-anchor="middle" x="238.5" y="-57" font-family="Helvetica,sans-Serif" font-size="10.00">ptime</text>
</a>
</g>
</g>
<!-- Node20&#45;&gt;Node19 -->
<g id="edge14" class="edge">
<title>Node20&#45;&gt;Node19</title>
<path fill="none" stroke="#9a32cd" stroke-dasharray="5,2" d="M269.51,-56.66C311.69,-52.67 388.49,-45.4 434.42,-41.06"/>
<polygon fill="#9a32cd" stroke="#9a32cd" points="268.95,-53.2 259.32,-57.62 269.61,-60.17 268.95,-53.2"/>
<text text-anchor="middle" x="361" y="-54.5" font-family="Helvetica,sans-Serif" font-size="10.00"> epoch</text>
</g>
<!-- Node21 -->
<g id="node14" class="node">
<title>Node21</title>
<g id="a_node14"><a xlink:title=" ">
<polygon fill="white" stroke="red" points="180.5,-0.5 180.5,-30.5 296.5,-30.5 296.5,-0.5 180.5,-0.5"/>
<text text-anchor="start" x="188.5" y="-18.5" font-family="Helvetica,sans-Serif" font-size="10.00">std::map&lt; pair&lt; uint8</text>
<text text-anchor="middle" x="238.5" y="-7.5" font-family="Helvetica,sans-Serif" font-size="10.00">_t, uint8_t &gt;, uint16_t &gt;</text>
</a>
</g>
</g>
<!-- Node21&#45;&gt;Node19 -->
<g id="edge15" class="edge">
<title>Node21&#45;&gt;Node19</title>
<path fill="none" stroke="#9a32cd" stroke-dasharray="5,2" d="M306.67,-20.51C337.3,-22.95 374.01,-26.09 407,-29.5 415.82,-30.41 425.3,-31.51 434.22,-32.6"/>
<polygon fill="#9a32cd" stroke="#9a32cd" points="306.78,-17.01 296.53,-19.71 306.23,-23.99 306.78,-17.01"/>
<text text-anchor="middle" x="361" y="-32.5" font-family="Helvetica,sans-Serif" font-size="10.00"> lock_time_indicators</text>
</g>
<!-- Node23 -->
<g id="node15" class="node">
<title>Node23</title>
<g id="a_node15"><a xlink:title=" ">
<polygon fill="white" stroke="black" points="425,-275 425,-294 521,-294 521,-275 425,-275"/>
<text text-anchor="middle" x="473" y="-282" font-family="Helvetica,sans-Serif" font-size="10.00">std::vector&lt; Obs &gt;</text>
</a>
</g>
</g>
<!-- Node23&#45;&gt;Node1 -->
<g id="edge16" class="edge">
<title>Node23&#45;&gt;Node1</title>
<path fill="none" stroke="#9a32cd" stroke-dasharray="5,2" d="M508.21,-271.18C553.69,-253.48 632.98,-222.62 672.96,-207.05"/>
<polygon fill="#9a32cd" stroke="#9a32cd" points="506.82,-267.97 498.77,-274.86 509.36,-274.49 506.82,-267.97"/>
<text text-anchor="middle" x="592" y="-261.5" font-family="Helvetica,sans-Serif" font-size="10.00"> SuperList</text>
</g>
<!-- Node24&#45;&gt;Node23 -->
<g id="edge17" class="edge">
<title>Node24&#45;&gt;Node23</title>
<path fill="none" stroke="#9a32cd" stroke-dasharray="5,2" d="M266.7,-285.38C305.53,-285.22 377.41,-284.91 424.97,-284.7"/>
<polygon fill="#9a32cd" stroke="#9a32cd" points="266.21,-281.89 256.22,-285.43 266.24,-288.88 266.21,-281.89"/>
<text text-anchor="middle" x="361" y="-287.5" font-family="Helvetica,sans-Serif" font-size="10.00"> elements</text>
</g>
</g>
</svg>
        <g id="navigator" transform="translate(0 0)" fill="#404254">
                <rect fill="#f2f5e9" fill-opacity="0.5" stroke="#606060" stroke-width=".5" x="0" y="0" width="60" height="60"/>
                <use id="zoomplus" xlink:href="#zoomPlus" x="17" y="9" onmousedown="handleZoom(evt,'in')"/>
                <use id="zoomminus" xlink:href="#zoomMin" x="42" y="9" onmousedown="handleZoom(evt,'out')"/>
                <use id="reset" xlink:href="#resetDef" x="30" y="36" onmousedown="handleReset()"/>
                <g id="arrowUp" xlink:href="#dirArrow" transform="translate(30 24)" onmousedown="handlePan(0,-1)">
                  <use xlink:href="#rim" fill="#404040">
                        <set attributeName="fill" to="#808080" begin="arrowUp.mouseover" end="arrowUp.mouseout"/>
                  </use>
                  <path fill="none" stroke="white" stroke-width="1.5" d="M0,-3.0v7 M-2.5,-0.5L0,-3.0L2.5,-0.5"/>
                </g>
                <g id="arrowRight" xlink:href="#dirArrow" transform="rotate(90) translate(36 -43)" onmousedown="handlePan(1,0)">
                  <use xlink:href="#rim" fill="#404040">
                        <set attributeName="fill" to="#808080" begin="arrowRight.mouseover" end="arrowRight.mouseout"/>
                  </use>
                  <path fill="none" stroke="white" stroke-width="1.5" d="M0,-3.0v7 M-2.5,-0.5L0,-3.0L2.5,-0.5"/>
                </g>
                <g id="arrowDown" xlink:href="#dirArrow" transform="rotate(180) translate(-30 -48)" onmousedown="handlePan(0,1)">
                  <use xlink:href="#rim" fill="#404040">
                        <set attributeName="fill" to="#808080" begin="arrowDown.mouseover" end="arrowDown.mouseout"/>
                  </use>
                  <path fill="none" stroke="white" stroke-width="1.5" d="M0,-3.0v7 M-2.5,-0.5L0,-3.0L2.5,-0.5"/>
                </g>
                <g id="arrowLeft" xlink:href="#dirArrow" transform="rotate(270) translate(-36 17)" onmousedown="handlePan(-1,0)">
                  <use xlink:href="#rim" fill="#404040">
                        <set attributeName="fill" to="#808080" begin="arrowLeft.mouseover" end="arrowLeft.mouseout"/>
                  </use>
                  <path fill="none" stroke="white" stroke-width="1.5" d="M0,-3.0v7 M-2.5,-0.5L0,-3.0L2.5,-0.5"/>
                </g>
        </g>
        <svg viewBox="0 0 15 15" width="100%" height="30px" preserveAspectRatio="xMaxYMin meet">
         <g id="arrow_out" transform="scale(0.3 0.3)">
          <a xlink:href="structRtcmStream__coll__graph_org.svg" target="_base">
           <rect id="button" ry="5" rx="5" y="6" x="6" height="38" width="38"
                fill="#f2f5e9" fill-opacity="0.5" stroke="#606060" stroke-width="1.0"/>
           <path id="arrow"
             d="M 11.500037,31.436501 C 11.940474,20.09759 22.043105,11.32322 32.158766,21.979434 L 37.068811,17.246167 C 37.068811,17.246167 37.088388,32 37.088388,32 L 22.160133,31.978069 C 22.160133,31.978069 26.997745,27.140456 26.997745,27.140456 C 18.528582,18.264221 13.291696,25.230495 11.500037,31.436501 z"
             style="fill:#404040;"/>
          </a>
         </g>
        </svg>
</svg>
