<?xml version="1.0" encoding="UTF-8" standalone="no"?>
<!DOCTYPE svg PUBLIC "-//W3C//DTD SVG 1.1//EN"
 "http://www.w3.org/Graphics/SVG/1.1/DTD/svg11.dtd">
<!-- Generated by graphviz version 2.50.0 (20220203.2022)
 -->
<!-- Title: NtripUploader::startBroadcast Pages: 1 -->
<svg width="535pt" height="595pt"
 viewBox="0.00 0.00 535.00 594.50" xmlns="http://www.w3.org/2000/svg" xmlns:xlink="http://www.w3.org/1999/xlink">
<g id="graph0" class="graph" transform="scale(1 1) rotate(0) translate(4 590.5)">
<title>NtripUploader::startBroadcast</title>
<polygon fill="white" stroke="transparent" points="-4,4 -4,-590.5 531,-590.5 531,4 -4,4"/>
<!-- Node1 -->
<g id="node1" class="node">
<title>Node1</title>
<g id="a_node1"><a xlink:title=" ">
<polygon fill="#bfbfbf" stroke="black" points="0,-278 0,-297 145,-297 145,-278 0,-278"/>
<text text-anchor="middle" x="72.5" y="-285" font-family="Helvetica,sans-Serif" font-size="10.00">NtripUploader::startBroadcast</text>
</a>
</g>
</g>
<!-- Node2 -->
<g id="node2" class="node">
<title>Node2</title>
<g id="a_node2"><a xlink:href="structNtripUploader.html#a0763f31214a177f3d9be2301138fd0e7" target="_top" xlink:title=" ">
<polygon fill="white" stroke="black" points="181,-272.5 181,-302.5 337,-302.5 337,-272.5 181,-272.5"/>
<text text-anchor="start" x="189" y="-290.5" font-family="Helvetica,sans-Serif" font-size="10.00">NtripUploader::messageTimeout</text>
<text text-anchor="middle" x="259" y="-279.5" font-family="Helvetica,sans-Serif" font-size="10.00">_hanlder</text>
</a>
</g>
</g>
<!-- Node1&#45;&gt;Node2 -->
<g id="edge1" class="edge">
<title>Node1&#45;&gt;Node2</title>
<path fill="none" stroke="midnightblue" d="M145.1,-287.5C153.54,-287.5 162.23,-287.5 170.86,-287.5"/>
<polygon fill="midnightblue" stroke="midnightblue" points="170.94,-291 180.94,-287.5 170.94,-284 170.94,-291"/>
</g>
<!-- Node2&#45;&gt;Node2 -->
<g id="edge10" class="edge">
<title>Node2&#45;&gt;Node2</title>
<path fill="none" stroke="midnightblue" d="M226.59,-302.66C218.77,-312.06 229.57,-321 259,-321 276.93,-321 287.95,-317.68 292.05,-312.96"/>
<polygon fill="midnightblue" stroke="midnightblue" points="295.52,-312.42 291.41,-302.66 288.54,-312.86 295.52,-312.42"/>
</g>
<!-- Node3 -->
<g id="node3" class="node">
<title>Node3</title>
<g id="a_node3"><a xlink:href="rtcmEncoder_8cpp.html#a476bbbc84db313790006799d5b6e2554" target="_top" xlink:title=" ">
<polygon fill="white" stroke="red" points="402,-567 402,-586 498,-586 498,-567 402,-567"/>
<text text-anchor="middle" x="450" y="-574" font-family="Helvetica,sans-Serif" font-size="10.00">calculateSsrComb</text>
</a>
</g>
</g>
<!-- Node2&#45;&gt;Node3 -->
<g id="edge2" class="edge">
<title>Node2&#45;&gt;Node3</title>
<path fill="none" stroke="midnightblue" d="M261.67,-302.79C267.53,-348.86 291.48,-487.47 373,-557.5 378.6,-562.31 385.25,-565.94 392.24,-568.67"/>
<polygon fill="midnightblue" stroke="midnightblue" points="391.34,-572.05 401.93,-571.85 393.53,-565.4 391.34,-572.05"/>
</g>
<!-- Node6 -->
<g id="node4" class="node">
<title>Node6</title>
<g id="a_node4"><a xlink:href="structRtcmEncoder.html#a4730e3ba96b43e644eaf0b3547287f4e" target="_top" xlink:title=" ">
<polygon fill="white" stroke="red" points="375.5,-529 375.5,-548 524.5,-548 524.5,-529 375.5,-529"/>
<text text-anchor="middle" x="450" y="-536" font-family="Helvetica,sans-Serif" font-size="10.00">RtcmEncoder::encodeSsrCode</text>
</a>
</g>
</g>
<!-- Node2&#45;&gt;Node6 -->
<g id="edge3" class="edge">
<title>Node2&#45;&gt;Node6</title>
<path fill="none" stroke="midnightblue" d="M262.79,-302.72C271.26,-344.34 300.61,-460.81 373,-519.5 375.08,-521.19 377.29,-522.73 379.6,-524.13"/>
<polygon fill="midnightblue" stroke="midnightblue" points="378.41,-527.46 388.91,-528.91 381.61,-521.23 378.41,-527.46"/>
</g>
<!-- Node17 -->
<g id="node5" class="node">
<title>Node17</title>
<g id="a_node5"><a xlink:href="structRtcmEncoder.html#af1c137bc7d09727b2a6f6ec350586fbc" target="_top" xlink:title=" ">
<polygon fill="white" stroke="red" points="374,-491 374,-510 526,-510 526,-491 374,-491"/>
<text text-anchor="middle" x="450" y="-498" font-family="Helvetica,sans-Serif" font-size="10.00">RtcmEncoder::encodeSsrComb</text>
</a>
</g>
</g>
<!-- Node2&#45;&gt;Node17 -->
<g id="edge4" class="edge">
<title>Node2&#45;&gt;Node17</title>
<path fill="none" stroke="midnightblue" d="M264.31,-302.62C275.58,-339.37 309.58,-433.87 373,-481.5 375.48,-483.36 378.11,-485.04 380.86,-486.55"/>
<polygon fill="midnightblue" stroke="midnightblue" points="379.43,-489.75 389.96,-490.86 382.42,-483.42 379.43,-489.75"/>
</g>
<!-- Node20 -->
<g id="node6" class="node">
<title>Node20</title>
<g id="a_node6"><a xlink:href="structRtcmEncoder.html#ac2fbfa6dd6b80b00caa82f7e04366ffd" target="_top" xlink:title=" ">
<polygon fill="white" stroke="red" points="373,-453 373,-472 527,-472 527,-453 373,-453"/>
<text text-anchor="middle" x="450" y="-460" font-family="Helvetica,sans-Serif" font-size="10.00">RtcmEncoder::encodeSsrPhase</text>
</a>
</g>
</g>
<!-- Node2&#45;&gt;Node20 -->
<g id="edge5" class="edge">
<title>Node2&#45;&gt;Node20</title>
<path fill="none" stroke="midnightblue" d="M266.54,-302.66C280.93,-334.11 318.42,-406.6 373,-443.5 375.96,-445.5 379.12,-447.3 382.4,-448.9"/>
<polygon fill="midnightblue" stroke="midnightblue" points="381.33,-452.25 391.9,-452.93 384.07,-445.8 381.33,-452.25"/>
</g>
<!-- Node22 -->
<g id="node7" class="node">
<title>Node22</title>
<g id="a_node7"><a xlink:href="structRtcmEncoder.html#ac3796c0618a67c888d1d06cc0f055c12" target="_top" xlink:title=" ">
<polygon fill="white" stroke="black" points="383,-403.5 383,-433.5 517,-433.5 517,-403.5 383,-403.5"/>
<text text-anchor="start" x="391" y="-421.5" font-family="Helvetica,sans-Serif" font-size="10.00">RtcmEncoder::encodeWrite</text>
<text text-anchor="middle" x="450" y="-410.5" font-family="Helvetica,sans-Serif" font-size="10.00">Messages</text>
</a>
</g>
</g>
<!-- Node2&#45;&gt;Node22 -->
<g id="edge6" class="edge">
<title>Node2&#45;&gt;Node22</title>
<path fill="none" stroke="midnightblue" d="M271.93,-302.52C290.96,-325.52 330.39,-369.42 373,-394.5 375.86,-396.18 378.86,-397.76 381.93,-399.24"/>
<polygon fill="midnightblue" stroke="midnightblue" points="380.79,-402.56 391.35,-403.39 383.61,-396.16 380.79,-402.56"/>
</g>
<!-- Node23 -->
<g id="node8" class="node">
<title>Node23</title>
<g id="a_node8"><a xlink:href="structRtcmEncoder.html#a714186471ab96d85b1fac9d1a18789a0" target="_top" xlink:title=" ">
<polygon fill="white" stroke="red" points="383,-354.5 383,-384.5 517,-384.5 517,-354.5 383,-354.5"/>
<text text-anchor="start" x="391" y="-372.5" font-family="Helvetica,sans-Serif" font-size="10.00">RtcmEncoder::encodeWrite</text>
<text text-anchor="middle" x="450" y="-361.5" font-family="Helvetica,sans-Serif" font-size="10.00">MessageToBuffer</text>
</a>
</g>
</g>
<!-- Node2&#45;&gt;Node23 -->
<g id="edge7" class="edge">
<title>Node2&#45;&gt;Node23</title>
<path fill="none" stroke="midnightblue" d="M287.32,-302.73C309.88,-314.95 342.95,-332.06 373,-344.5 378.43,-346.75 384.13,-348.93 389.88,-351.02"/>
<polygon fill="midnightblue" stroke="midnightblue" points="388.95,-354.4 399.55,-354.42 391.28,-347.8 388.95,-354.4"/>
</g>
<!-- Node25 -->
<g id="node9" class="node">
<title>Node25</title>
<g id="a_node9"><a xlink:href="structRtcmEncoder.html#a7d44e45822f54c629d33bfa9588b0b64" target="_top" xlink:title=" ">
<polygon fill="white" stroke="black" points="384.5,-316 384.5,-335 515.5,-335 515.5,-316 384.5,-316"/>
<text text-anchor="middle" x="450" y="-323" font-family="Helvetica,sans-Serif" font-size="10.00">RtcmEncoder::getUdiIndex</text>
</a>
</g>
</g>
<!-- Node2&#45;&gt;Node25 -->
<g id="edge8" class="edge">
<title>Node2&#45;&gt;Node25</title>
<path fill="none" stroke="midnightblue" d="M334.7,-302.52C353.68,-306.33 373.77,-310.37 391.73,-313.98"/>
<polygon fill="midnightblue" stroke="midnightblue" points="391.25,-317.46 401.75,-316 392.63,-310.6 391.25,-317.46"/>
</g>
<!-- Node26 -->
<g id="node10" class="node">
<title>Node26</title>
<g id="a_node10"><a xlink:href="gTime_8cpp.html#a6ab7d9a372acf84508cf00f0befd6095" target="_top" xlink:title=" ">
<polygon fill="white" stroke="red" points="420.5,-278 420.5,-297 479.5,-297 479.5,-278 420.5,-278"/>
<text text-anchor="middle" x="450" y="-285" font-family="Helvetica,sans-Serif" font-size="10.00">gpst2time</text>
</a>
</g>
</g>
<!-- Node2&#45;&gt;Node26 -->
<g id="edge9" class="edge">
<title>Node2&#45;&gt;Node26</title>
<path fill="none" stroke="midnightblue" d="M337.15,-287.5C362.29,-287.5 389.14,-287.5 410.23,-287.5"/>
<polygon fill="midnightblue" stroke="midnightblue" points="410.38,-291 420.38,-287.5 410.38,-284 410.38,-291"/>
</g>
<!-- Node28 -->
<g id="node11" class="node">
<title>Node28</title>
<g id="a_node11"><a xlink:href="mongoRead_8cpp.html#a93f0eec38aea13fa7ba8d671a7a6f8e2" target="_top" xlink:title=" ">
<polygon fill="white" stroke="red" points="395,-240 395,-259 505,-259 505,-240 395,-240"/>
<text text-anchor="middle" x="450" y="-247" font-family="Helvetica,sans-Serif" font-size="10.00">mongoReadCodeBias</text>
</a>
</g>
</g>
<!-- Node2&#45;&gt;Node28 -->
<g id="edge11" class="edge">
<title>Node2&#45;&gt;Node28</title>
<path fill="none" stroke="midnightblue" d="M334.7,-272.48C353.68,-268.67 373.77,-264.63 391.73,-261.02"/>
<polygon fill="midnightblue" stroke="midnightblue" points="392.63,-264.4 401.75,-259 391.25,-257.54 392.63,-264.4"/>
</g>
<!-- Node30 -->
<g id="node12" class="node">
<title>Node30</title>
<g id="a_node12"><a xlink:href="mongoRead_8cpp.html#a256f2754863719971fa483cac78b829d" target="_top" xlink:title=" ">
<polygon fill="white" stroke="red" points="392,-202 392,-221 508,-221 508,-202 392,-202"/>
<text text-anchor="middle" x="450" y="-209" font-family="Helvetica,sans-Serif" font-size="10.00">mongoReadPhaseBias</text>
</a>
</g>
</g>
<!-- Node2&#45;&gt;Node30 -->
<g id="edge12" class="edge">
<title>Node2&#45;&gt;Node30</title>
<path fill="none" stroke="midnightblue" d="M285.74,-272.44C308.18,-259.82 341.9,-242.07 373,-230.5 379.75,-227.99 386.96,-225.71 394.14,-223.66"/>
<polygon fill="midnightblue" stroke="midnightblue" points="395.15,-227.01 403.89,-221.02 393.32,-220.26 395.15,-227.01"/>
</g>
<!-- Node31 -->
<g id="node13" class="node">
<title>Node31</title>
<g id="a_node13"><a xlink:href="mongoRead_8cpp.html#a03a22276552d8af1649b1472eef24b1e" target="_top" xlink:title=" ">
<polygon fill="white" stroke="red" points="395.5,-164 395.5,-183 504.5,-183 504.5,-164 395.5,-164"/>
<text text-anchor="middle" x="450" y="-171" font-family="Helvetica,sans-Serif" font-size="10.00">mongoReadSSRData</text>
</a>
</g>
</g>
<!-- Node2&#45;&gt;Node31 -->
<g id="edge13" class="edge">
<title>Node2&#45;&gt;Node31</title>
<path fill="none" stroke="midnightblue" d="M273.76,-272.19C293.61,-251.07 332.37,-213.24 373,-192.5 377.58,-190.16 382.46,-188.1 387.45,-186.29"/>
<polygon fill="midnightblue" stroke="midnightblue" points="388.75,-189.55 397.15,-183.09 386.56,-182.9 388.75,-189.55"/>
</g>
<!-- Node32 -->
<g id="node14" class="node">
<title>Node32</title>
<g id="a_node14"><a xlink:href="ntripBroadcast_8cpp.html#a459b77edb11858d83c5d789925ab690a" target="_top" xlink:title=" ">
<polygon fill="white" stroke="black" points="423,-126 423,-145 477,-145 477,-126 423,-126"/>
<text text-anchor="middle" x="450" y="-133" font-family="Helvetica,sans-Serif" font-size="10.00">round_to</text>
</a>
</g>
</g>
<!-- Node2&#45;&gt;Node32 -->
<g id="edge14" class="edge">
<title>Node2&#45;&gt;Node32</title>
<path fill="none" stroke="midnightblue" d="M268.39,-272.47C284.73,-244.66 323.58,-185.19 373,-154.5 384.85,-147.14 399.41,-142.63 412.6,-139.86"/>
<polygon fill="midnightblue" stroke="midnightblue" points="413.6,-143.24 422.81,-138 412.34,-136.35 413.6,-143.24"/>
</g>
<!-- Node33 -->
<g id="node15" class="node">
<title>Node33</title>
<g id="a_node15"><a xlink:href="gTime_8cpp.html#abf196aa655d8ca10168c2301a68a8101" target="_top" xlink:title=" ">
<polygon fill="white" stroke="red" points="420.5,-88 420.5,-107 479.5,-107 479.5,-88 420.5,-88"/>
<text text-anchor="middle" x="450" y="-95" font-family="Helvetica,sans-Serif" font-size="10.00">time2gpst</text>
</a>
</g>
</g>
<!-- Node2&#45;&gt;Node33 -->
<g id="edge15" class="edge">
<title>Node2&#45;&gt;Node33</title>
<path fill="none" stroke="midnightblue" d="M265.52,-272.43C278.62,-238.86 314.91,-157.61 373,-116.5 383.86,-108.81 397.52,-104.23 410.26,-101.49"/>
<polygon fill="midnightblue" stroke="midnightblue" points="410.99,-104.92 420.2,-99.67 409.73,-98.03 410.99,-104.92"/>
</g>
<!-- Node34 -->
<g id="node16" class="node">
<title>Node34</title>
<g id="a_node16"><a xlink:href="gTime_8cpp.html#a2a318fa02e2d05aa22eabbcf1a537fcf" target="_top" xlink:title="get current time in utc">
<polygon fill="white" stroke="red" points="425.5,-50 425.5,-69 474.5,-69 474.5,-50 425.5,-50"/>
<text text-anchor="middle" x="450" y="-57" font-family="Helvetica,sans-Serif" font-size="10.00">timeget</text>
</a>
</g>
</g>
<!-- Node2&#45;&gt;Node34 -->
<g id="edge16" class="edge">
<title>Node2&#45;&gt;Node34</title>
<path fill="none" stroke="midnightblue" d="M263.64,-272.38C273.77,-233.68 306.04,-130.48 373,-78.5 385.02,-69.17 401.04,-64.37 415.28,-61.92"/>
<polygon fill="midnightblue" stroke="midnightblue" points="415.83,-65.37 425.24,-60.51 414.85,-58.44 415.83,-65.37"/>
</g>
<!-- Node35 -->
<g id="node17" class="node">
<title>Node35</title>
<g id="a_node17"><a xlink:href="structNtripUploader.html#ad5747e7814389189d06c1270edcf6103" target="_top" xlink:title=" ">
<polygon fill="white" stroke="red" points="399,-0.5 399,-30.5 501,-30.5 501,-0.5 399,-0.5"/>
<text text-anchor="start" x="407" y="-18.5" font-family="Helvetica,sans-Serif" font-size="10.00">NtripUploader::write</text>
<text text-anchor="middle" x="450" y="-7.5" font-family="Helvetica,sans-Serif" font-size="10.00">_handler</text>
</a>
</g>
</g>
<!-- Node2&#45;&gt;Node35 -->
<g id="edge17" class="edge">
<title>Node2&#45;&gt;Node35</title>
<path fill="none" stroke="midnightblue" d="M262.6,-272.22C270.71,-229.26 299.54,-106.21 373,-40.5 377.82,-36.19 383.41,-32.61 389.32,-29.66"/>
<polygon fill="midnightblue" stroke="midnightblue" points="391.06,-32.72 398.81,-25.5 388.25,-26.3 391.06,-32.72"/>
</g>
</g>
</svg>
