<?xml version="1.0" encoding="UTF-8" standalone="no"?>
<!DOCTYPE svg PUBLIC "-//W3C//DTD SVG 1.1//EN"
 "http://www.w3.org/Graphics/SVG/1.1/DTD/svg11.dtd">
<!-- Generated by graphviz version 2.50.0 (20220203.2022)
 -->
<!-- Title: InputOptions Pages: 1 -->
<svg width="215pt" height="307pt"
 viewBox="0.00 0.00 214.50 307.00" xmlns="http://www.w3.org/2000/svg" xmlns:xlink="http://www.w3.org/1999/xlink">
<g id="graph0" class="graph" transform="scale(1 1) rotate(0) translate(4 303)">
<title>InputOptions</title>
<polygon fill="white" stroke="transparent" points="-4,4 -4,-303 210.5,-303 210.5,4 -4,4"/>
<!-- Node1 -->
<g id="node1" class="node">
<title>Node1</title>
<g id="a_node1"><a xlink:title="Input source filenames and directories.">
<polygon fill="#bfbfbf" stroke="black" points="20.5,-0.5 20.5,-19.5 92.5,-19.5 92.5,-0.5 20.5,-0.5"/>
<text text-anchor="middle" x="56.5" y="-7.5" font-family="Helvetica,sans-Serif" font-size="10.00">InputOptions</text>
</a>
</g>
</g>
<!-- Node2 -->
<g id="node2" class="node">
<title>Node2</title>
<g id="a_node2"><a xlink:title=" ">
<polygon fill="white" stroke="black" points="104.5,-195 104.5,-214 206.5,-214 206.5,-195 104.5,-195"/>
<text text-anchor="middle" x="155.5" y="-202" font-family="Helvetica,sans-Serif" font-size="10.00">std::vector&lt; string &gt;</text>
</a>
</g>
</g>
<!-- Node2&#45;&gt;Node1 -->
<g id="edge1" class="edge">
<title>Node2&#45;&gt;Node1</title>
<path fill="none" stroke="#9a32cd" stroke-dasharray="5,2" d="M146.46,-185.91C125.91,-145.97 76.33,-49.56 61.06,-19.86"/>
<polygon fill="#9a32cd" stroke="#9a32cd" points="143.43,-187.69 151.12,-194.98 149.66,-184.49 143.43,-187.69"/>
<text text-anchor="middle" x="160.5" y="-151" font-family="Helvetica,sans-Serif" font-size="10.00"> atxfiles</text>
<text text-anchor="middle" x="160.5" y="-140" font-family="Helvetica,sans-Serif" font-size="10.00">blqfiles</text>
<text text-anchor="middle" x="160.5" y="-129" font-family="Helvetica,sans-Serif" font-size="10.00">bsxfiles</text>
<text text-anchor="middle" x="160.5" y="-118" font-family="Helvetica,sans-Serif" font-size="10.00">clkfiles</text>
<text text-anchor="middle" x="160.5" y="-107" font-family="Helvetica,sans-Serif" font-size="10.00">dcbfiles</text>
<text text-anchor="middle" x="160.5" y="-96" font-family="Helvetica,sans-Serif" font-size="10.00">egmfiles</text>
<text text-anchor="middle" x="160.5" y="-85" font-family="Helvetica,sans-Serif" font-size="10.00">erpfiles</text>
<text text-anchor="middle" x="160.5" y="-74" font-family="Helvetica,sans-Serif" font-size="10.00">ionfiles</text>
<text text-anchor="middle" x="160.5" y="-63" font-family="Helvetica,sans-Serif" font-size="10.00">jplfiles</text>
<text text-anchor="middle" x="160.5" y="-52" font-family="Helvetica,sans-Serif" font-size="10.00">nav_rtcmfiles</text>
<text text-anchor="middle" x="160.5" y="-41" font-family="Helvetica,sans-Serif" font-size="10.00">...</text>
</g>
<!-- Node3 -->
<g id="node3" class="node">
<title>Node3</title>
<g id="a_node3"><a xlink:title=" ">
<polygon fill="white" stroke="red" points="0,-279.5 0,-298.5 59,-298.5 59,-279.5 0,-279.5"/>
<text text-anchor="middle" x="29.5" y="-286.5" font-family="Helvetica,sans-Serif" font-size="10.00">std::string</text>
</a>
</g>
</g>
<!-- Node3&#45;&gt;Node1 -->
<g id="edge3" class="edge">
<title>Node3&#45;&gt;Node1</title>
<path fill="none" stroke="#9a32cd" stroke-dasharray="5,2" d="M26.57,-269.3C25.02,-258.44 23.28,-244.48 22.5,-232 20.98,-207.6 20.04,-201.32 22.5,-177 28.7,-115.83 47.44,-43.9 54.11,-19.55"/>
<polygon fill="#9a32cd" stroke="#9a32cd" points="23.13,-269.93 28.07,-279.3 30.05,-268.89 23.13,-269.93"/>
<text text-anchor="middle" x="59" y="-224" font-family="Helvetica,sans-Serif" font-size="10.00"> root_input_dir</text>
<text text-anchor="middle" x="59" y="-213" font-family="Helvetica,sans-Serif" font-size="10.00">root_stations_dir</text>
<text text-anchor="middle" x="59" y="-202" font-family="Helvetica,sans-Serif" font-size="10.00">stream_pass</text>
<text text-anchor="middle" x="59" y="-191" font-family="Helvetica,sans-Serif" font-size="10.00">stream_root</text>
<text text-anchor="middle" x="59" y="-180" font-family="Helvetica,sans-Serif" font-size="10.00">stream_user</text>
</g>
<!-- Node3&#45;&gt;Node2 -->
<g id="edge2" class="edge">
<title>Node3&#45;&gt;Node2</title>
<path fill="none" stroke="#9a32cd" stroke-dasharray="5,2" d="M51,-273.92C77.21,-256.76 120.69,-228.29 142.37,-214.1"/>
<polygon fill="#9a32cd" stroke="#9a32cd" points="48.96,-271.08 42.51,-279.48 52.79,-276.93 48.96,-271.08"/>
<text text-anchor="middle" x="106" y="-253" font-family="Helvetica,sans-Serif" font-size="10.00"> elements</text>
</g>
</g>
</svg>
