<?xml version="1.0" encoding="UTF-8" standalone="no"?>
<!DOCTYPE svg PUBLIC "-//W3C//DTD SVG 1.1//EN"
 "http://www.w3.org/Graphics/SVG/1.1/DTD/svg11.dtd">
<!-- Generated by graphviz version 2.50.0 (20220203.2022)
 -->
<!-- Title: RtcmDecoder::message_length Pages: 1 -->
<svg width="486pt" height="104pt"
 viewBox="0.00 0.00 486.00 104.00" xmlns="http://www.w3.org/2000/svg" xmlns:xlink="http://www.w3.org/1999/xlink">
<g id="graph0" class="graph" transform="scale(1 1) rotate(0) translate(4 100)">
<title>RtcmDecoder::message_length</title>
<polygon fill="white" stroke="transparent" points="-4,4 -4,-100 482,-100 482,4 -4,4"/>
<!-- Node1 -->
<g id="node1" class="node">
<title>Node1</title>
<g id="a_node1"><a xlink:title=" ">
<polygon fill="#bfbfbf" stroke="black" points="358,-33 358,-63 478,-63 478,-33 358,-33"/>
<text text-anchor="start" x="366" y="-51" font-family="Helvetica,sans-Serif" font-size="10.00">RtcmDecoder::message</text>
<text text-anchor="middle" x="418" y="-40" font-family="Helvetica,sans-Serif" font-size="10.00">_length</text>
</a>
</g>
</g>
<!-- Node2 -->
<g id="node2" class="node">
<title>Node2</title>
<g id="a_node2"><a xlink:href="structRtcmDecoder.html#a6673aa5a16d7e997de9ce5e43fac7860" target="_top" xlink:title=" ">
<polygon fill="white" stroke="black" points="164,-76.5 164,-95.5 322,-95.5 322,-76.5 164,-76.5"/>
<text text-anchor="middle" x="243" y="-83.5" font-family="Helvetica,sans-Serif" font-size="10.00">RtcmDecoder::decodeEphemeris</text>
</a>
</g>
</g>
<!-- Node1&#45;&gt;Node2 -->
<g id="edge1" class="edge">
<title>Node1&#45;&gt;Node2</title>
<path fill="none" stroke="midnightblue" d="M348.05,-63.15C327.62,-67.63 305.83,-72.42 287.5,-76.45"/>
<polygon fill="midnightblue" stroke="midnightblue" points="348.93,-66.54 357.95,-60.97 347.43,-59.7 348.93,-66.54"/>
</g>
<!-- Node3 -->
<g id="node3" class="node">
<title>Node3</title>
<g id="a_node3"><a xlink:href="structRtcmStream.html#a34a7a941dab214b7ff6b17e8a53eb55a" target="_top" xlink:title=" ">
<polygon fill="white" stroke="red" points="0,-38.5 0,-57.5 128,-57.5 128,-38.5 0,-38.5"/>
<text text-anchor="middle" x="64" y="-45.5" font-family="Helvetica,sans-Serif" font-size="10.00">RtcmStream::parseRTCM</text>
</a>
</g>
</g>
<!-- Node1&#45;&gt;Node3 -->
<g id="edge5" class="edge">
<title>Node1&#45;&gt;Node3</title>
<path fill="none" stroke="midnightblue" d="M347.31,-48C283.48,-48 189.81,-48 128.13,-48"/>
<polygon fill="midnightblue" stroke="midnightblue" points="347.69,-51.5 357.69,-48 347.69,-44.5 347.69,-51.5"/>
</g>
<!-- Node8 -->
<g id="node4" class="node">
<title>Node8</title>
<g id="a_node4"><a xlink:href="structRtcmDecoder.html#a187d2bf36da0d4de61f4c603b203b09f" target="_top" xlink:title=" ">
<polygon fill="white" stroke="black" points="177,-0.5 177,-19.5 309,-19.5 309,-0.5 177,-0.5"/>
<text text-anchor="middle" x="243" y="-7.5" font-family="Helvetica,sans-Serif" font-size="10.00">RtcmDecoder::decodeSSR</text>
</a>
</g>
</g>
<!-- Node1&#45;&gt;Node8 -->
<g id="edge3" class="edge">
<title>Node1&#45;&gt;Node8</title>
<path fill="none" stroke="midnightblue" d="M348.05,-32.85C327.62,-28.37 305.83,-23.58 287.5,-19.55"/>
<polygon fill="midnightblue" stroke="midnightblue" points="347.43,-36.3 357.95,-35.03 348.93,-29.46 347.43,-36.3"/>
</g>
<!-- Node2&#45;&gt;Node3 -->
<g id="edge2" class="edge">
<title>Node2&#45;&gt;Node3</title>
<path fill="none" stroke="midnightblue" d="M187.26,-74.25C162.23,-68.87 132.97,-62.59 109.34,-57.52"/>
<polygon fill="midnightblue" stroke="midnightblue" points="186.82,-77.73 197.34,-76.41 188.29,-70.89 186.82,-77.73"/>
</g>
<!-- Node8&#45;&gt;Node3 -->
<g id="edge4" class="edge">
<title>Node8&#45;&gt;Node3</title>
<path fill="none" stroke="midnightblue" d="M187.26,-21.75C162.23,-27.13 132.97,-33.41 109.34,-38.48"/>
<polygon fill="midnightblue" stroke="midnightblue" points="188.29,-25.11 197.34,-19.59 186.82,-18.27 188.29,-25.11"/>
</g>
</g>
</svg>
