<?xml version="1.0" encoding="UTF-8" standalone="no"?>
<!DOCTYPE svg PUBLIC "-//W3C//DTD SVG 1.1//EN"
 "http://www.w3.org/Graphics/SVG/1.1/DTD/svg11.dtd">
<!-- Generated by graphviz version 2.50.0 (20220203.2022)
 -->
<!-- Title: GinAR_piv Pages: 1 -->
<!--zoomable 173 -->
<svg id="main" version="1.1" xmlns="http://www.w3.org/2000/svg" xmlns:xlink="http://www.w3.org/1999/xlink" xml:space="preserve" onload="init(evt)">
<style type="text/css"><![CDATA[
.edge:hover path { stroke: red; }
.edge:hover polygon { stroke: red; fill: red; }
]]></style>
<script type="text/javascript"><![CDATA[
var edges = document.getElementsByTagName('g');
if (edges && edges.length) {
  for (var i=0;i<edges.length;i++) {
    if (edges[i].id.substr(0,4)=='edge') {
      edges[i].setAttribute('class','edge');
    }
  }
}
]]></script>
        <defs>
                <circle id="rim" cx="0" cy="0" r="7"/>
                <circle id="rim2" cx="0" cy="0" r="3.5"/>
                <g id="zoomPlus">
                        <use xlink:href="#rim" fill="#404040">
                                <set attributeName="fill" to="#808080" begin="zoomplus.mouseover" end="zoomplus.mouseout"/>
                        </use>
                        <path d="M-4,0h8M0,-4v8" fill="none" stroke="white" stroke-width="1.5" pointer-events="none"/>
                </g>
                <g id="zoomMin">
                        <use xlink:href="#rim" fill="#404040">
                                <set attributeName="fill" to="#808080" begin="zoomminus.mouseover" end="zoomminus.mouseout"/>
                        </use>
                        <path d="M-4,0h8" fill="none" stroke="white" stroke-width="1.5" pointer-events="none"/>
                </g>
                <g id="dirArrow">
                        <path fill="none" stroke="white" stroke-width="1.5" d="M0,-3.0v7 M-2.5,-0.5L0,-3.0L2.5,-0.5"/>
                </g>
               <g id="resetDef">
                       <use xlink:href="#rim2" fill="#404040">
                               <set attributeName="fill" to="#808080" begin="reset.mouseover" end="reset.mouseout"/>
                       </use>
               </g>
        </defs>

<script type="text/javascript">
var viewWidth = 524;
var viewHeight = 173;
var sectionId = 'dynsection-0';
</script>
<script xlink:href="svgpan.js"/>
<svg id="graph" class="graph">
<g id="viewport">
<title>GinAR_piv</title>
<polygon fill="white" stroke="transparent" points="-4,4 -4,-169 520.15,-169 520.15,4 -4,4"/>
<!-- Node1 -->
<g id="node1" class="node">
<title>Node1</title>
<g id="a_node1"><a xlink:title=" ">
<polygon fill="#bfbfbf" stroke="black" points="293.65,-0.5 293.65,-19.5 356.65,-19.5 356.65,-0.5 293.65,-0.5"/>
<text text-anchor="middle" x="325.15" y="-7.5" font-family="Helvetica,sans-Serif" font-size="10.00">GinAR_piv</text>
</a>
</g>
</g>
<!-- Node2 -->
<g id="node2" class="node">
<title>Node2</title>
<g id="a_node2"><a xlink:href="structSatSys.html" target="_top" xlink:title="Object holding satellite id, and providing related functions.">
<polygon fill="white" stroke="black" points="92.15,-145.5 92.15,-164.5 140.15,-164.5 140.15,-145.5 92.15,-145.5"/>
<text text-anchor="middle" x="116.15" y="-152.5" font-family="Helvetica,sans-Serif" font-size="10.00">SatSys</text>
</a>
</g>
</g>
<!-- Node2&#45;&gt;Node1 -->
<g id="edge1" class="edge">
<title>Node2&#45;&gt;Node1</title>
<path fill="none" stroke="#9a32cd" stroke-dasharray="5,2" d="M82.45,-143.24C41.16,-128.34 -20.15,-99.54 7.15,-67 43.55,-23.63 220.5,-13.84 293.53,-11.63"/>
<polygon fill="#9a32cd" stroke="#9a32cd" points="81.34,-146.56 91.94,-146.55 83.65,-139.95 81.34,-146.56"/>
<text text-anchor="middle" x="24.65" y="-80" font-family="Helvetica,sans-Serif" font-size="10.00"> pre_sat</text>
</g>
<!-- Node3 -->
<g id="node3" class="node">
<title>Node3</title>
<g id="a_node3"><a xlink:title=" ">
<polygon fill="white" stroke="red" points="51.15,-67.5 51.15,-97.5 181.15,-97.5 181.15,-67.5 51.15,-67.5"/>
<text text-anchor="start" x="59.15" y="-85.5" font-family="Helvetica,sans-Serif" font-size="10.00">std::map&lt; SatSys, SatSys</text>
<text text-anchor="middle" x="116.15" y="-74.5" font-family="Helvetica,sans-Serif" font-size="10.00">::SatData &gt;</text>
</a>
</g>
</g>
<!-- Node2&#45;&gt;Node3 -->
<g id="edge3" class="edge">
<title>Node2&#45;&gt;Node3</title>
<path fill="none" stroke="#9a32cd" stroke-dasharray="5,2" d="M96.64,-138.03C91.18,-131.6 87.4,-123.85 90.15,-116 92.5,-109.32 96.86,-102.99 101.35,-97.72"/>
<polygon fill="#9a32cd" stroke="#9a32cd" points="94.51,-140.84 104.09,-145.38 99.43,-135.86 94.51,-140.84"/>
<text text-anchor="middle" x="101.65" y="-119" font-family="Helvetica,sans-Serif" font-size="10.00"> keys</text>
</g>
<!-- Node8 -->
<g id="node6" class="node">
<title>Node8</title>
<g id="a_node6"><a xlink:title=" ">
<polygon fill="white" stroke="black" points="199.65,-73 199.65,-92 316.65,-92 316.65,-73 199.65,-73"/>
<text text-anchor="middle" x="258.15" y="-80" font-family="Helvetica,sans-Serif" font-size="10.00">std::map&lt; SatSys, int &gt;</text>
</a>
</g>
</g>
<!-- Node2&#45;&gt;Node8 -->
<g id="edge8" class="edge">
<title>Node2&#45;&gt;Node8</title>
<path fill="none" stroke="#9a32cd" stroke-dasharray="5,2" d="M147.11,-141.45C157.41,-137.09 168.86,-132.02 179.15,-127 202.09,-115.8 227.85,-101.23 243.53,-92.12"/>
<polygon fill="#9a32cd" stroke="#9a32cd" points="145.56,-138.31 137.68,-145.39 148.25,-144.76 145.56,-138.31"/>
<text text-anchor="middle" x="210.65" y="-119" font-family="Helvetica,sans-Serif" font-size="10.00"> keys</text>
</g>
<!-- Node3&#45;&gt;Node2 -->
<g id="edge2" class="edge">
<title>Node3&#45;&gt;Node2</title>
<path fill="none" stroke="#9a32cd" stroke-dasharray="5,2" d="M117.08,-108.06C117.21,-114.24 117.27,-120.86 117.15,-127 117.04,-133.19 116.78,-140.18 116.55,-145.49"/>
<polygon fill="#9a32cd" stroke="#9a32cd" points="120.56,-107.5 116.78,-97.6 113.56,-107.7 120.56,-107.5"/>
<text text-anchor="middle" x="146.65" y="-119" font-family="Helvetica,sans-Serif" font-size="10.00"> SatDataMap</text>
</g>
<!-- Node5 -->
<g id="node4" class="node">
<title>Node5</title>
<g id="a_node4"><a xlink:title=" ">
<polygon fill="white" stroke="red" points="358.65,-145.5 358.65,-164.5 417.65,-164.5 417.65,-145.5 358.65,-145.5"/>
<text text-anchor="middle" x="388.15" y="-152.5" font-family="Helvetica,sans-Serif" font-size="10.00">std::string</text>
</a>
</g>
</g>
<!-- Node5&#45;&gt;Node1 -->
<g id="edge4" class="edge">
<title>Node5&#45;&gt;Node1</title>
<path fill="none" stroke="#9a32cd" stroke-dasharray="5,2" d="M379.45,-136.07C374.24,-125.15 367.6,-110.87 362.15,-98 351.02,-71.7 350.86,-64.05 339.15,-38 336.39,-31.83 332.89,-25.08 330.08,-19.88"/>
<polygon fill="#9a32cd" stroke="#9a32cd" points="376.43,-137.86 383.91,-145.35 382.73,-134.82 376.43,-137.86"/>
<text text-anchor="middle" x="379.65" y="-80" font-family="Helvetica,sans-Serif" font-size="10.00"> pre_rec</text>
</g>
<!-- Node7 -->
<g id="node5" class="node">
<title>Node7</title>
<g id="a_node5"><a xlink:title=" ">
<polygon fill="white" stroke="black" points="406.15,-73 406.15,-92 516.15,-92 516.15,-73 406.15,-73"/>
<text text-anchor="middle" x="461.15" y="-80" font-family="Helvetica,sans-Serif" font-size="10.00">std::map&lt; string, int &gt;</text>
</a>
</g>
</g>
<!-- Node5&#45;&gt;Node7 -->
<g id="edge6" class="edge">
<title>Node5&#45;&gt;Node7</title>
<path fill="none" stroke="#9a32cd" stroke-dasharray="5,2" d="M404.52,-138.19C419.23,-123.99 440.27,-103.67 452.13,-92.22"/>
<polygon fill="#9a32cd" stroke="#9a32cd" points="401.87,-135.89 397.11,-145.36 406.73,-140.93 401.87,-135.89"/>
<text text-anchor="middle" x="438.65" y="-119" font-family="Helvetica,sans-Serif" font-size="10.00"> keys</text>
</g>
<!-- Node7&#45;&gt;Node1 -->
<g id="edge5" class="edge">
<title>Node7&#45;&gt;Node1</title>
<path fill="none" stroke="#9a32cd" stroke-dasharray="5,2" d="M435.71,-68.31C408.17,-54.03 365.03,-31.67 341.62,-19.53"/>
<polygon fill="#9a32cd" stroke="#9a32cd" points="434.26,-71.5 444.75,-73 437.48,-65.29 434.26,-71.5"/>
<text text-anchor="middle" x="418.15" y="-41" font-family="Helvetica,sans-Serif" font-size="10.00"> rec_amb</text>
</g>
<!-- Node8&#45;&gt;Node1 -->
<g id="edge7" class="edge">
<title>Node8&#45;&gt;Node1</title>
<path fill="none" stroke="#9a32cd" stroke-dasharray="5,2" d="M273.3,-65.35C281.02,-57.14 290.56,-47.02 299.15,-38 304.9,-31.97 311.4,-25.22 316.46,-19.98"/>
<polygon fill="#9a32cd" stroke="#9a32cd" points="270.59,-63.12 266.3,-72.81 275.69,-67.91 270.59,-63.12"/>
<text text-anchor="middle" x="319.15" y="-41" font-family="Helvetica,sans-Serif" font-size="10.00"> sat_amb</text>
</g>
</g>
</svg>
        <g id="navigator" transform="translate(0 0)" fill="#404254">
                <rect fill="#f2f5e9" fill-opacity="0.5" stroke="#606060" stroke-width=".5" x="0" y="0" width="60" height="60"/>
                <use id="zoomplus" xlink:href="#zoomPlus" x="17" y="9" onmousedown="handleZoom(evt,'in')"/>
                <use id="zoomminus" xlink:href="#zoomMin" x="42" y="9" onmousedown="handleZoom(evt,'out')"/>
                <use id="reset" xlink:href="#resetDef" x="30" y="36" onmousedown="handleReset()"/>
                <g id="arrowUp" xlink:href="#dirArrow" transform="translate(30 24)" onmousedown="handlePan(0,-1)">
                  <use xlink:href="#rim" fill="#404040">
                        <set attributeName="fill" to="#808080" begin="arrowUp.mouseover" end="arrowUp.mouseout"/>
                  </use>
                  <path fill="none" stroke="white" stroke-width="1.5" d="M0,-3.0v7 M-2.5,-0.5L0,-3.0L2.5,-0.5"/>
                </g>
                <g id="arrowRight" xlink:href="#dirArrow" transform="rotate(90) translate(36 -43)" onmousedown="handlePan(1,0)">
                  <use xlink:href="#rim" fill="#404040">
                        <set attributeName="fill" to="#808080" begin="arrowRight.mouseover" end="arrowRight.mouseout"/>
                  </use>
                  <path fill="none" stroke="white" stroke-width="1.5" d="M0,-3.0v7 M-2.5,-0.5L0,-3.0L2.5,-0.5"/>
                </g>
                <g id="arrowDown" xlink:href="#dirArrow" transform="rotate(180) translate(-30 -48)" onmousedown="handlePan(0,1)">
                  <use xlink:href="#rim" fill="#404040">
                        <set attributeName="fill" to="#808080" begin="arrowDown.mouseover" end="arrowDown.mouseout"/>
                  </use>
                  <path fill="none" stroke="white" stroke-width="1.5" d="M0,-3.0v7 M-2.5,-0.5L0,-3.0L2.5,-0.5"/>
                </g>
                <g id="arrowLeft" xlink:href="#dirArrow" transform="rotate(270) translate(-36 17)" onmousedown="handlePan(-1,0)">
                  <use xlink:href="#rim" fill="#404040">
                        <set attributeName="fill" to="#808080" begin="arrowLeft.mouseover" end="arrowLeft.mouseout"/>
                  </use>
                  <path fill="none" stroke="white" stroke-width="1.5" d="M0,-3.0v7 M-2.5,-0.5L0,-3.0L2.5,-0.5"/>
                </g>
        </g>
        <svg viewBox="0 0 15 15" width="100%" height="30px" preserveAspectRatio="xMaxYMin meet">
         <g id="arrow_out" transform="scale(0.3 0.3)">
          <a xlink:href="structGinAR__piv__coll__graph_org.svg" target="_base">
           <rect id="button" ry="5" rx="5" y="6" x="6" height="38" width="38"
                fill="#f2f5e9" fill-opacity="0.5" stroke="#606060" stroke-width="1.0"/>
           <path id="arrow"
             d="M 11.500037,31.436501 C 11.940474,20.09759 22.043105,11.32322 32.158766,21.979434 L 37.068811,17.246167 C 37.068811,17.246167 37.088388,32 37.088388,32 L 22.160133,31.978069 C 22.160133,31.978069 26.997745,27.140456 26.997745,27.140456 C 18.528582,18.264221 13.291696,25.230495 11.500037,31.436501 z"
             style="fill:#404040;"/>
          </a>
         </g>
        </svg>
</svg>
