<?xml version="1.0" encoding="UTF-8" standalone="no"?>
<!DOCTYPE svg PUBLIC "-//W3C//DTD SVG 1.1//EN"
 "http://www.w3.org/Graphics/SVG/1.1/DTD/svg11.dtd">
<!-- Generated by graphviz version 2.50.0 (20220203.2022)
 -->
<!-- Title: SinexTropDesc Pages: 1 -->
<svg width="767pt" height="250pt"
 viewBox="0.00 0.00 767.00 249.50" xmlns="http://www.w3.org/2000/svg" xmlns:xlink="http://www.w3.org/1999/xlink">
<g id="graph0" class="graph" transform="scale(1 1) rotate(0) translate(4 245.5)">
<title>SinexTropDesc</title>
<polygon fill="white" stroke="transparent" points="-4,4 -4,-245.5 763,-245.5 763,4 -4,4"/>
<!-- Node1 -->
<g id="node1" class="node">
<title>Node1</title>
<g id="a_node1"><a xlink:title=" ">
<polygon fill="#bfbfbf" stroke="black" points="676,-131 676,-150 759,-150 759,-131 676,-131"/>
<text text-anchor="middle" x="717.5" y="-138" font-family="Helvetica,sans-Serif" font-size="10.00">SinexTropDesc</text>
</a>
</g>
</g>
<!-- Node2 -->
<g id="node2" class="node">
<title>Node2</title>
<g id="a_node2"><a xlink:title=" ">
<polygon fill="white" stroke="black" points="322,-222 322,-241 445,-241 445,-222 322,-222"/>
<text text-anchor="middle" x="383.5" y="-229" font-family="Helvetica,sans-Serif" font-size="10.00">std::map&lt; string, string &gt;</text>
</a>
</g>
</g>
<!-- Node2&#45;&gt;Node1 -->
<g id="edge1" class="edge">
<title>Node2&#45;&gt;Node1</title>
<path fill="none" stroke="#9a32cd" stroke-dasharray="5,2" d="M455.06,-224.63C511.79,-217.23 592.54,-202.38 658,-173.5 673.36,-166.72 689.95,-157.13 701.53,-150.03"/>
<polygon fill="#9a32cd" stroke="#9a32cd" points="454.59,-221.16 445.11,-225.89 455.47,-228.11 454.59,-221.16"/>
<text text-anchor="middle" x="527" y="-225.5" font-family="Helvetica,sans-Serif" font-size="10.00"> strings</text>
</g>
<!-- Node3 -->
<g id="node3" class="node">
<title>Node3</title>
<g id="a_node3"><a xlink:title=" ">
<polygon fill="white" stroke="red" points="24,-119 24,-138 83,-138 83,-119 24,-119"/>
<text text-anchor="middle" x="53.5" y="-126" font-family="Helvetica,sans-Serif" font-size="10.00">std::string</text>
</a>
</g>
</g>
<!-- Node3&#45;&gt;Node2 -->
<g id="edge2" class="edge">
<title>Node3&#45;&gt;Node2</title>
<path fill="none" stroke="#9a32cd" stroke-dasharray="5,2" d="M69.25,-146.1C82.35,-160.48 102.81,-180.06 125,-190.5 187.88,-220.07 267.93,-228.92 321.96,-231.27"/>
<polygon fill="#9a32cd" stroke="#9a32cd" points="71.66,-143.55 62.43,-138.35 66.41,-148.17 71.66,-143.55"/>
<text text-anchor="middle" x="146.5" y="-220.5" font-family="Helvetica,sans-Serif" font-size="10.00"> elements</text>
<text text-anchor="middle" x="146.5" y="-209.5" font-family="Helvetica,sans-Serif" font-size="10.00">keys</text>
</g>
<!-- Node5 -->
<g id="node4" class="node">
<title>Node5</title>
<g id="a_node4"><a xlink:title=" ">
<polygon fill="white" stroke="black" points="328.5,-178 328.5,-197 438.5,-197 438.5,-178 328.5,-178"/>
<text text-anchor="middle" x="383.5" y="-185" font-family="Helvetica,sans-Serif" font-size="10.00">std::map&lt; string, int &gt;</text>
</a>
</g>
</g>
<!-- Node3&#45;&gt;Node5 -->
<g id="edge4" class="edge">
<title>Node3&#45;&gt;Node5</title>
<path fill="none" stroke="#9a32cd" stroke-dasharray="5,2" d="M76.58,-143.48C89.98,-151.77 107.78,-161.4 125,-166.5 193.06,-186.65 275.37,-189.91 328.31,-189.47"/>
<polygon fill="#9a32cd" stroke="#9a32cd" points="78.37,-140.47 68.06,-138.03 74.6,-146.37 78.37,-140.47"/>
<text text-anchor="middle" x="146.5" y="-178.5" font-family="Helvetica,sans-Serif" font-size="10.00"> keys</text>
</g>
<!-- Node6 -->
<g id="node5" class="node">
<title>Node6</title>
<g id="a_node5"><a xlink:title=" ">
<polygon fill="white" stroke="black" points="463,-131 463,-150 591,-150 591,-131 463,-131"/>
<text text-anchor="middle" x="527" y="-138" font-family="Helvetica,sans-Serif" font-size="10.00">std::map&lt; string, double &gt;</text>
</a>
</g>
</g>
<!-- Node3&#45;&gt;Node6 -->
<g id="edge6" class="edge">
<title>Node3&#45;&gt;Node6</title>
<path fill="none" stroke="#9a32cd" stroke-dasharray="5,2" d="M93.59,-129.49C175.08,-131.57 363.73,-136.37 462.73,-138.89"/>
<polygon fill="#9a32cd" stroke="#9a32cd" points="93.37,-125.99 83.28,-129.23 93.19,-132.99 93.37,-125.99"/>
<text text-anchor="middle" x="245" y="-137.5" font-family="Helvetica,sans-Serif" font-size="10.00"> keys</text>
</g>
<!-- Node7 -->
<g id="node6" class="node">
<title>Node7</title>
<g id="a_node6"><a xlink:title=" ">
<polygon fill="white" stroke="black" points="468,-81.5 468,-111.5 586,-111.5 586,-81.5 468,-81.5"/>
<text text-anchor="start" x="476" y="-99.5" font-family="Helvetica,sans-Serif" font-size="10.00">std::map&lt; string, vector</text>
<text text-anchor="middle" x="527" y="-88.5" font-family="Helvetica,sans-Serif" font-size="10.00">&lt; string &gt; &gt;</text>
</a>
</g>
</g>
<!-- Node3&#45;&gt;Node7 -->
<g id="edge8" class="edge">
<title>Node3&#45;&gt;Node7</title>
<path fill="none" stroke="#9a32cd" stroke-dasharray="5,2" d="M93.47,-124.61C119.62,-122.08 154.86,-118.84 186,-116.5 284.91,-109.08 400.19,-102.8 467.91,-99.35"/>
<polygon fill="#9a32cd" stroke="#9a32cd" points="92.82,-121.16 83.21,-125.61 93.5,-128.13 92.82,-121.16"/>
<text text-anchor="middle" x="245" y="-119.5" font-family="Helvetica,sans-Serif" font-size="10.00"> keys</text>
</g>
<!-- Node8 -->
<g id="node7" class="node">
<title>Node8</title>
<g id="a_node7"><a xlink:title=" ">
<polygon fill="white" stroke="black" points="194,-50 194,-69 296,-69 296,-50 194,-50"/>
<text text-anchor="middle" x="245" y="-57" font-family="Helvetica,sans-Serif" font-size="10.00">std::vector&lt; string &gt;</text>
</a>
</g>
</g>
<!-- Node3&#45;&gt;Node8 -->
<g id="edge10" class="edge">
<title>Node3&#45;&gt;Node8</title>
<path fill="none" stroke="#9a32cd" stroke-dasharray="5,2" d="M73.62,-112.17C87.12,-101.51 106.1,-88.19 125,-80.5 146.67,-71.69 172.04,-66.57 193.77,-63.6"/>
<polygon fill="#9a32cd" stroke="#9a32cd" points="71.14,-109.68 65.6,-118.71 75.56,-115.1 71.14,-109.68"/>
<text text-anchor="middle" x="146.5" y="-83.5" font-family="Helvetica,sans-Serif" font-size="10.00"> elements</text>
</g>
<!-- Node9 -->
<g id="node8" class="node">
<title>Node9</title>
<g id="a_node8"><a xlink:title=" ">
<polygon fill="white" stroke="black" points="186,-0.5 186,-30.5 304,-30.5 304,-0.5 186,-0.5"/>
<text text-anchor="start" x="194" y="-18.5" font-family="Helvetica,sans-Serif" font-size="10.00">std::map&lt; string, vector</text>
<text text-anchor="middle" x="245" y="-7.5" font-family="Helvetica,sans-Serif" font-size="10.00">&lt; double &gt; &gt;</text>
</a>
</g>
</g>
<!-- Node3&#45;&gt;Node9 -->
<g id="edge12" class="edge">
<title>Node3&#45;&gt;Node9</title>
<path fill="none" stroke="#9a32cd" stroke-dasharray="5,2" d="M66.71,-110.68C79.39,-93.45 100.75,-67.78 125,-52.5 143.4,-40.91 165.69,-32.72 185.98,-27.04"/>
<polygon fill="#9a32cd" stroke="#9a32cd" points="63.86,-108.65 60.9,-118.82 69.56,-112.72 63.86,-108.65"/>
<text text-anchor="middle" x="146.5" y="-55.5" font-family="Helvetica,sans-Serif" font-size="10.00"> keys</text>
</g>
<!-- Node5&#45;&gt;Node1 -->
<g id="edge3" class="edge">
<title>Node5&#45;&gt;Node1</title>
<path fill="none" stroke="#9a32cd" stroke-dasharray="5,2" d="M448.6,-182.46C504.26,-177.49 586.87,-168.72 658,-155.5 666.04,-154.01 674.61,-152.03 682.64,-150"/>
<polygon fill="#9a32cd" stroke="#9a32cd" points="448.19,-178.98 438.53,-183.34 448.8,-185.95 448.19,-178.98"/>
<text text-anchor="middle" x="527" y="-183.5" font-family="Helvetica,sans-Serif" font-size="10.00"> ints</text>
</g>
<!-- Node6&#45;&gt;Node1 -->
<g id="edge5" class="edge">
<title>Node6&#45;&gt;Node1</title>
<path fill="none" stroke="#9a32cd" stroke-dasharray="5,2" d="M601.34,-140.5C626.62,-140.5 654.02,-140.5 675.74,-140.5"/>
<polygon fill="#9a32cd" stroke="#9a32cd" points="601.03,-137 591.03,-140.5 601.03,-144 601.03,-137"/>
<text text-anchor="middle" x="633.5" y="-143.5" font-family="Helvetica,sans-Serif" font-size="10.00"> doubles</text>
</g>
<!-- Node7&#45;&gt;Node1 -->
<g id="edge7" class="edge">
<title>Node7&#45;&gt;Node1</title>
<path fill="none" stroke="#9a32cd" stroke-dasharray="5,2" d="M595.97,-111.24C615.98,-115.69 637.9,-120.68 658,-125.5 665.14,-127.21 672.75,-129.11 680.03,-130.96"/>
<polygon fill="#9a32cd" stroke="#9a32cd" points="596.53,-107.78 586.01,-109.03 595.01,-114.61 596.53,-107.78"/>
<text text-anchor="middle" x="633.5" y="-128.5" font-family="Helvetica,sans-Serif" font-size="10.00"> vecStrings</text>
</g>
<!-- Node8&#45;&gt;Node7 -->
<g id="edge9" class="edge">
<title>Node8&#45;&gt;Node7</title>
<path fill="none" stroke="#9a32cd" stroke-dasharray="5,2" d="M306.07,-64.42C345.64,-68.01 398.55,-73.48 445,-80.5 452.37,-81.61 460.09,-82.94 467.71,-84.34"/>
<polygon fill="#9a32cd" stroke="#9a32cd" points="306.32,-60.93 296.05,-63.53 305.69,-67.9 306.32,-60.93"/>
<text text-anchor="middle" x="383.5" y="-83.5" font-family="Helvetica,sans-Serif" font-size="10.00"> elements</text>
</g>
<!-- Node9&#45;&gt;Node1 -->
<g id="edge11" class="edge">
<title>Node9&#45;&gt;Node1</title>
<path fill="none" stroke="#9a32cd" stroke-dasharray="5,2" d="M314.43,-16.09C385.54,-18.64 499.07,-28.24 591,-61.5 637,-78.14 683.85,-113.6 704.95,-130.77"/>
<polygon fill="#9a32cd" stroke="#9a32cd" points="314.36,-12.59 304.25,-15.76 314.13,-19.58 314.36,-12.59"/>
<text text-anchor="middle" x="527" y="-64.5" font-family="Helvetica,sans-Serif" font-size="10.00"> vecDoubles</text>
</g>
<!-- Node10 -->
<g id="node9" class="node">
<title>Node10</title>
<g id="a_node9"><a xlink:title=" ">
<polygon fill="white" stroke="black" points="0,-2 0,-21 107,-21 107,-2 0,-2"/>
<text text-anchor="middle" x="53.5" y="-9" font-family="Helvetica,sans-Serif" font-size="10.00">std::vector&lt; double &gt;</text>
</a>
</g>
</g>
<!-- Node10&#45;&gt;Node9 -->
<g id="edge13" class="edge">
<title>Node10&#45;&gt;Node9</title>
<path fill="none" stroke="#9a32cd" stroke-dasharray="5,2" d="M117.16,-11.71C133.7,-11.86 151.52,-12.1 168,-12.5 173.81,-12.64 179.87,-12.82 185.91,-13.02"/>
<polygon fill="#9a32cd" stroke="#9a32cd" points="117.09,-8.21 107.06,-11.63 117.03,-15.21 117.09,-8.21"/>
<text text-anchor="middle" x="146.5" y="-15.5" font-family="Helvetica,sans-Serif" font-size="10.00"> elements</text>
</g>
</g>
</svg>
