<?xml version="1.0" encoding="UTF-8" standalone="no"?>
<!DOCTYPE svg PUBLIC "-//W3C//DTD SVG 1.1//EN"
 "http://www.w3.org/Graphics/SVG/1.1/DTD/svg11.dtd">
<!-- Generated by graphviz version 2.50.0 (20220203.2022)
 -->
<!-- Title: NtripStream::NtripStream Pages: 1 -->
<svg width="393pt" height="84pt"
 viewBox="0.00 0.00 393.00 84.00" xmlns="http://www.w3.org/2000/svg" xmlns:xlink="http://www.w3.org/1999/xlink">
<g id="graph0" class="graph" transform="scale(1 1) rotate(0) translate(4 80)">
<title>NtripStream::NtripStream</title>
<polygon fill="white" stroke="transparent" points="-4,4 -4,-80 389,-80 389,4 -4,4"/>
<!-- Node1 -->
<g id="node1" class="node">
<title>Node1</title>
<g id="a_node1"><a xlink:title=" ">
<polygon fill="#bfbfbf" stroke="black" points="0,-28.5 0,-47.5 126,-47.5 126,-28.5 0,-28.5"/>
<text text-anchor="middle" x="63" y="-35.5" font-family="Helvetica,sans-Serif" font-size="10.00">NtripStream::NtripStream</text>
</a>
</g>
</g>
<!-- Node2 -->
<g id="node2" class="node">
<title>Node2</title>
<g id="a_node2"><a xlink:href="structNtripSocket.html#a07a5b9e92a7fa439e08136f69c882307" target="_top" xlink:title=" ">
<polygon fill="white" stroke="black" points="162,-56.5 162,-75.5 269,-75.5 269,-56.5 162,-56.5"/>
<text text-anchor="middle" x="215.5" y="-63.5" font-family="Helvetica,sans-Serif" font-size="10.00">NtripSocket::connect</text>
</a>
</g>
</g>
<!-- Node1&#45;&gt;Node2 -->
<g id="edge1" class="edge">
<title>Node1&#45;&gt;Node2</title>
<path fill="none" stroke="midnightblue" d="M115.37,-47.56C127.6,-49.83 140.77,-52.28 153.39,-54.63"/>
<polygon fill="midnightblue" stroke="midnightblue" points="152.89,-58.1 163.36,-56.49 154.17,-51.22 152.89,-58.1"/>
</g>
<!-- Node4 -->
<g id="node4" class="node">
<title>Node4</title>
<g id="a_node4"><a xlink:href="structBase64.html#a3e8d4028aff313b0a28f4c65a808f43e" target="_top" xlink:title=" ">
<polygon fill="white" stroke="black" points="172.5,-0.5 172.5,-19.5 258.5,-19.5 258.5,-0.5 172.5,-0.5"/>
<text text-anchor="middle" x="215.5" y="-7.5" font-family="Helvetica,sans-Serif" font-size="10.00">Base64::encode</text>
</a>
</g>
</g>
<!-- Node1&#45;&gt;Node4 -->
<g id="edge3" class="edge">
<title>Node1&#45;&gt;Node4</title>
<path fill="none" stroke="midnightblue" d="M115.37,-28.44C130.46,-25.64 146.97,-22.56 162.11,-19.75"/>
<polygon fill="midnightblue" stroke="midnightblue" points="163.15,-23.11 172.34,-17.84 161.87,-16.23 163.15,-23.11"/>
</g>
<!-- Node3 -->
<g id="node3" class="node">
<title>Node3</title>
<g id="a_node3"><a xlink:href="structURL.html#ab0ccd3714f16e338f40eb008b2a25cf2" target="_top" xlink:title=" ">
<polygon fill="white" stroke="black" points="305,-56.5 305,-75.5 385,-75.5 385,-56.5 305,-56.5"/>
<text text-anchor="middle" x="345" y="-63.5" font-family="Helvetica,sans-Serif" font-size="10.00">URL::sanitised</text>
</a>
</g>
</g>
<!-- Node2&#45;&gt;Node3 -->
<g id="edge2" class="edge">
<title>Node2&#45;&gt;Node3</title>
<path fill="none" stroke="midnightblue" d="M269.1,-66C277.58,-66 286.34,-66 294.74,-66"/>
<polygon fill="midnightblue" stroke="midnightblue" points="294.77,-69.5 304.77,-66 294.77,-62.5 294.77,-69.5"/>
</g>
<!-- Node4&#45;&gt;Node4 -->
<g id="edge4" class="edge">
<title>Node4&#45;&gt;Node4</title>
<path fill="none" stroke="midnightblue" d="M195.77,-19.76C186.17,-28.57 192.75,-38 215.5,-38 230.07,-38 238.01,-34.13 239.31,-29.03"/>
<polygon fill="midnightblue" stroke="midnightblue" points="242.46,-27.5 235.23,-19.76 236.05,-30.32 242.46,-27.5"/>
</g>
</g>
</svg>
