<?xml version="1.0" encoding="UTF-8" standalone="no"?>
<!DOCTYPE svg PUBLIC "-//W3C//DTD SVG 1.1//EN"
 "http://www.w3.org/Graphics/SVG/1.1/DTD/svg11.dtd">
<!-- Generated by graphviz version 2.50.0 (20220203.2022)
 -->
<!-- Title: GinAR_mtx Pages: 1 -->
<svg width="271pt" height="206pt"
 viewBox="0.00 0.00 271.00 206.00" xmlns="http://www.w3.org/2000/svg" xmlns:xlink="http://www.w3.org/1999/xlink">
<g id="graph0" class="graph" transform="scale(1 1) rotate(0) translate(4 202)">
<title>GinAR_mtx</title>
<polygon fill="white" stroke="transparent" points="-4,4 -4,-202 267,-202 267,4 -4,4"/>
<!-- Node1 -->
<g id="node1" class="node">
<title>Node1</title>
<g id="a_node1"><a xlink:title=" ">
<polygon fill="#bfbfbf" stroke="black" points="128.5,-0.5 128.5,-19.5 194.5,-19.5 194.5,-0.5 128.5,-0.5"/>
<text text-anchor="middle" x="161.5" y="-7.5" font-family="Helvetica,sans-Serif" font-size="10.00">GinAR_mtx</text>
</a>
</g>
</g>
<!-- Node2 -->
<g id="node2" class="node">
<title>Node2</title>
<g id="a_node2"><a xlink:title=" ">
<polygon fill="white" stroke="black" points="0,-111.5 0,-130.5 115,-130.5 115,-111.5 0,-111.5"/>
<text text-anchor="middle" x="57.5" y="-118.5" font-family="Helvetica,sans-Serif" font-size="10.00">std::map&lt; int, KFKey &gt;</text>
</a>
</g>
</g>
<!-- Node2&#45;&gt;Node1 -->
<g id="edge1" class="edge">
<title>Node2&#45;&gt;Node1</title>
<path fill="none" stroke="#9a32cd" stroke-dasharray="5,2" d="M67.33,-102.79C78.04,-85.06 96.49,-57.37 117.5,-38 125.41,-30.71 135.57,-24.32 144.14,-19.59"/>
<polygon fill="#9a32cd" stroke="#9a32cd" points="64.26,-101.1 62.21,-111.49 70.29,-104.65 64.26,-101.1"/>
<text text-anchor="middle" x="137.5" y="-63" font-family="Helvetica,sans-Serif" font-size="10.00"> ambmap</text>
</g>
<!-- Node3 -->
<g id="node3" class="node">
<title>Node3</title>
<g id="a_node3"><a xlink:href="structKFKey.html" target="_top" xlink:title="Keys used to interface with Kalman filter objects.">
<polygon fill="white" stroke="red" points="34.5,-178.5 34.5,-197.5 80.5,-197.5 80.5,-178.5 34.5,-178.5"/>
<text text-anchor="middle" x="57.5" y="-185.5" font-family="Helvetica,sans-Serif" font-size="10.00">KFKey</text>
</a>
</g>
</g>
<!-- Node3&#45;&gt;Node2 -->
<g id="edge2" class="edge">
<title>Node3&#45;&gt;Node2</title>
<path fill="none" stroke="#9a32cd" stroke-dasharray="5,2" d="M57.5,-168.04C57.5,-155.67 57.5,-140.12 57.5,-130.63"/>
<polygon fill="#9a32cd" stroke="#9a32cd" points="54,-168.23 57.5,-178.23 61,-168.23 54,-168.23"/>
<text text-anchor="middle" x="79" y="-152" font-family="Helvetica,sans-Serif" font-size="10.00"> elements</text>
</g>
<!-- Node19 -->
<g id="node4" class="node">
<title>Node19</title>
<g id="a_node4"><a xlink:title=" ">
<polygon fill="white" stroke="black" points="133,-111.5 133,-130.5 190,-130.5 190,-111.5 133,-111.5"/>
<text text-anchor="middle" x="161.5" y="-118.5" font-family="Helvetica,sans-Serif" font-size="10.00">VectorXd</text>
</a>
</g>
</g>
<!-- Node19&#45;&gt;Node1 -->
<g id="edge3" class="edge">
<title>Node19&#45;&gt;Node1</title>
<path fill="none" stroke="#9a32cd" stroke-dasharray="5,2" d="M161.5,-101.19C161.5,-77.28 161.5,-36.99 161.5,-19.51"/>
<polygon fill="#9a32cd" stroke="#9a32cd" points="158,-101.45 161.5,-111.45 165,-101.45 158,-101.45"/>
<text text-anchor="middle" x="172" y="-85" font-family="Helvetica,sans-Serif" font-size="10.00"> Dtrs</text>
<text text-anchor="middle" x="172" y="-74" font-family="Helvetica,sans-Serif" font-size="10.00">afix</text>
<text text-anchor="middle" x="172" y="-63" font-family="Helvetica,sans-Serif" font-size="10.00">aflt</text>
<text text-anchor="middle" x="172" y="-52" font-family="Helvetica,sans-Serif" font-size="10.00">zfix</text>
<text text-anchor="middle" x="172" y="-41" font-family="Helvetica,sans-Serif" font-size="10.00">zflt</text>
</g>
<!-- Node20 -->
<g id="node5" class="node">
<title>Node20</title>
<g id="a_node5"><a xlink:title=" ">
<polygon fill="white" stroke="black" points="208,-111.5 208,-130.5 263,-130.5 263,-111.5 208,-111.5"/>
<text text-anchor="middle" x="235.5" y="-118.5" font-family="Helvetica,sans-Serif" font-size="10.00">MatrixXd</text>
</a>
</g>
</g>
<!-- Node20&#45;&gt;Node1 -->
<g id="edge4" class="edge">
<title>Node20&#45;&gt;Node1</title>
<path fill="none" stroke="#9a32cd" stroke-dasharray="5,2" d="M226.5,-102.64C217.35,-85.57 202.29,-59.08 186.5,-38 181.6,-31.45 175.35,-24.7 170.32,-19.59"/>
<polygon fill="#9a32cd" stroke="#9a32cd" points="223.41,-104.28 231.17,-111.49 229.6,-101.01 223.41,-104.28"/>
<text text-anchor="middle" x="231.5" y="-79.5" font-family="Helvetica,sans-Serif" font-size="10.00"> Ltrs</text>
<text text-anchor="middle" x="231.5" y="-68.5" font-family="Helvetica,sans-Serif" font-size="10.00">Pafix</text>
<text text-anchor="middle" x="231.5" y="-57.5" font-family="Helvetica,sans-Serif" font-size="10.00">Paflt</text>
<text text-anchor="middle" x="231.5" y="-46.5" font-family="Helvetica,sans-Serif" font-size="10.00">Ztrs</text>
</g>
</g>
</svg>
