<?xml version="1.0" encoding="UTF-8" standalone="no"?>
<!DOCTYPE svg PUBLIC "-//W3C//DTD SVG 1.1//EN"
 "http://www.w3.org/Graphics/SVG/1.1/DTD/svg11.dtd">
<!-- Generated by graphviz version 2.50.0 (20220203.2022)
 -->
<!-- Title: RtcmEncoder Pages: 1 -->
<svg width="198pt" height="173pt"
 viewBox="0.00 0.00 198.00 173.00" xmlns="http://www.w3.org/2000/svg" xmlns:xlink="http://www.w3.org/1999/xlink">
<g id="graph0" class="graph" transform="scale(1 1) rotate(0) translate(4 169)">
<title>RtcmEncoder</title>
<polygon fill="white" stroke="transparent" points="-4,4 -4,-169 194,-169 194,4 -4,4"/>
<!-- Node1 -->
<g id="node1" class="node">
<title>Node1</title>
<g id="a_node1"><a xlink:title=" ">
<polygon fill="#bfbfbf" stroke="black" points="73,-0.5 73,-19.5 148,-19.5 148,-0.5 73,-0.5"/>
<text text-anchor="middle" x="110.5" y="-7.5" font-family="Helvetica,sans-Serif" font-size="10.00">RtcmEncoder</text>
</a>
</g>
</g>
<!-- Node2 -->
<g id="node2" class="node">
<title>Node2</title>
<g id="a_node2"><a xlink:href="structRtcmTrace.html" target="_top" xlink:title=" ">
<polygon fill="white" stroke="black" points="0,-67.5 0,-86.5 65,-86.5 65,-67.5 0,-67.5"/>
<text text-anchor="middle" x="32.5" y="-74.5" font-family="Helvetica,sans-Serif" font-size="10.00">RtcmTrace</text>
</a>
</g>
</g>
<!-- Node2&#45;&gt;Node1 -->
<g id="edge1" class="edge">
<title>Node2&#45;&gt;Node1</title>
<path fill="none" stroke="midnightblue" d="M50.84,-60.71C66.21,-47.91 87.59,-30.09 100.15,-19.63"/>
<polygon fill="midnightblue" stroke="midnightblue" points="48.46,-58.14 43.02,-67.23 52.94,-63.52 48.46,-58.14"/>
</g>
<!-- Node3 -->
<g id="node3" class="node">
<title>Node3</title>
<g id="a_node3"><a xlink:title=" ">
<polygon fill="white" stroke="red" points="3,-145.5 3,-164.5 62,-164.5 62,-145.5 3,-145.5"/>
<text text-anchor="middle" x="32.5" y="-152.5" font-family="Helvetica,sans-Serif" font-size="10.00">std::string</text>
</a>
</g>
</g>
<!-- Node3&#45;&gt;Node2 -->
<g id="edge2" class="edge">
<title>Node3&#45;&gt;Node2</title>
<path fill="none" stroke="#9a32cd" stroke-dasharray="5,2" d="M32.5,-135.22C32.5,-119.7 32.5,-98.36 32.5,-86.62"/>
<polygon fill="#9a32cd" stroke="#9a32cd" points="29,-135.28 32.5,-145.28 36,-135.28 29,-135.28"/>
<text text-anchor="middle" x="75" y="-119" font-family="Helvetica,sans-Serif" font-size="10.00"> rtcmMountPoint</text>
<text text-anchor="middle" x="75" y="-108" font-family="Helvetica,sans-Serif" font-size="10.00">rtcmTraceFilename</text>
</g>
<!-- Node5 -->
<g id="node4" class="node">
<title>Node5</title>
<g id="a_node4"><a xlink:title=" ">
<polygon fill="white" stroke="black" points="83,-67.5 83,-86.5 190,-86.5 190,-67.5 83,-67.5"/>
<text text-anchor="middle" x="136.5" y="-74.5" font-family="Helvetica,sans-Serif" font-size="10.00">std::vector&lt; uint8_t &gt;</text>
</a>
</g>
</g>
<!-- Node5&#45;&gt;Node1 -->
<g id="edge3" class="edge">
<title>Node5&#45;&gt;Node1</title>
<path fill="none" stroke="#9a32cd" stroke-dasharray="5,2" d="M129.22,-57.79C124.22,-45.31 117.83,-29.31 113.95,-19.63"/>
<polygon fill="#9a32cd" stroke="#9a32cd" points="126.03,-59.25 132.99,-67.23 132.53,-56.65 126.03,-59.25"/>
<text text-anchor="middle" x="135.5" y="-41" font-family="Helvetica,sans-Serif" font-size="10.00"> data</text>
</g>
</g>
</svg>
