<?xml version="1.0" encoding="UTF-8" standalone="no"?>
<!DOCTYPE svg PUBLIC "-//W3C//DTD SVG 1.1//EN"
 "http://www.w3.org/Graphics/SVG/1.1/DTD/svg11.dtd">
<!-- Generated by graphviz version 2.50.0 (20220203.2022)
 -->
<!-- Title: LockTimeInfo Pages: 1 -->
<svg width="184pt" height="173pt"
 viewBox="0.00 0.00 183.50 173.00" xmlns="http://www.w3.org/2000/svg" xmlns:xlink="http://www.w3.org/1999/xlink">
<g id="graph0" class="graph" transform="scale(1 1) rotate(0) translate(4 169)">
<title>LockTimeInfo</title>
<polygon fill="white" stroke="transparent" points="-4,4 -4,-169 179.5,-169 179.5,4 -4,4"/>
<!-- Node1 -->
<g id="node1" class="node">
<title>Node1</title>
<g id="a_node1"><a xlink:title=" ">
<polygon fill="#bfbfbf" stroke="black" points="8,-0.5 8,-19.5 85,-19.5 85,-0.5 8,-0.5"/>
<text text-anchor="middle" x="46.5" y="-7.5" font-family="Helvetica,sans-Serif" font-size="10.00">LockTimeInfo</text>
</a>
</g>
</g>
<!-- Node2 -->
<g id="node2" class="node">
<title>Node2</title>
<g id="a_node2"><a xlink:title=" ">
<polygon fill="white" stroke="black" points="0,-73 0,-92 41,-92 41,-73 0,-73"/>
<text text-anchor="middle" x="20.5" y="-80" font-family="Helvetica,sans-Serif" font-size="10.00">ptime</text>
</a>
</g>
</g>
<!-- Node2&#45;&gt;Node1 -->
<g id="edge1" class="edge">
<title>Node2&#45;&gt;Node1</title>
<path fill="none" stroke="#9a32cd" stroke-dasharray="5,2" d="M27.22,-63.27C32.39,-49.26 39.3,-30.53 43.29,-19.72"/>
<polygon fill="#9a32cd" stroke="#9a32cd" points="23.86,-62.26 23.69,-72.86 30.43,-64.68 23.86,-62.26"/>
<text text-anchor="middle" x="51" y="-41" font-family="Helvetica,sans-Serif" font-size="10.00"> epoch</text>
</g>
<!-- Node3 -->
<g id="node3" class="node">
<title>Node3</title>
<g id="a_node3"><a xlink:title=" ">
<polygon fill="white" stroke="black" points="59.5,-67.5 59.5,-97.5 175.5,-97.5 175.5,-67.5 59.5,-67.5"/>
<text text-anchor="start" x="67.5" y="-85.5" font-family="Helvetica,sans-Serif" font-size="10.00">std::map&lt; pair&lt; uint8</text>
<text text-anchor="middle" x="117.5" y="-74.5" font-family="Helvetica,sans-Serif" font-size="10.00">_t, uint8_t &gt;, uint16_t &gt;</text>
</a>
</g>
</g>
<!-- Node3&#45;&gt;Node1 -->
<g id="edge2" class="edge">
<title>Node3&#45;&gt;Node1</title>
<path fill="none" stroke="#9a32cd" stroke-dasharray="5,2" d="M95.99,-60.14C82.41,-46.65 65.58,-29.94 55.46,-19.89"/>
<polygon fill="#9a32cd" stroke="#9a32cd" points="93.57,-62.67 103.13,-67.23 98.5,-57.7 93.57,-62.67"/>
<text text-anchor="middle" x="129.5" y="-41" font-family="Helvetica,sans-Serif" font-size="10.00"> lock_time_indicators</text>
</g>
<!-- Node4 -->
<g id="node4" class="node">
<title>Node4</title>
<g id="a_node4"><a xlink:title=" ">
<polygon fill="white" stroke="black" points="61,-145.5 61,-164.5 174,-164.5 174,-145.5 61,-145.5"/>
<text text-anchor="middle" x="117.5" y="-152.5" font-family="Helvetica,sans-Serif" font-size="10.00">pair&lt; uint8_t, uint8_t &gt;</text>
</a>
</g>
</g>
<!-- Node4&#45;&gt;Node3 -->
<g id="edge3" class="edge">
<title>Node4&#45;&gt;Node3</title>
<path fill="none" stroke="#9a32cd" stroke-dasharray="5,2" d="M117.5,-135.24C117.5,-123.41 117.5,-108.38 117.5,-97.58"/>
<polygon fill="#9a32cd" stroke="#9a32cd" points="114,-135.36 117.5,-145.36 121,-135.36 114,-135.36"/>
<text text-anchor="middle" x="129" y="-119" font-family="Helvetica,sans-Serif" font-size="10.00"> keys</text>
</g>
</g>
</svg>
