<?xml version="1.0" encoding="UTF-8" standalone="no"?>
<!DOCTYPE svg PUBLIC "-//W3C//DTD SVG 1.1//EN"
 "http://www.w3.org/Graphics/SVG/1.1/DTD/svg11.dtd">
<!-- Generated by graphviz version 2.50.0 (20220203.2022)
 -->
<!-- Title: DBEntry Pages: 1 -->
<svg width="453pt" height="342pt"
 viewBox="0.00 0.00 453.00 342.00" xmlns="http://www.w3.org/2000/svg" xmlns:xlink="http://www.w3.org/1999/xlink">
<g id="graph0" class="graph" transform="scale(1 1) rotate(0) translate(4 338)">
<title>DBEntry</title>
<polygon fill="white" stroke="transparent" points="-4,4 -4,-338 449,-338 449,4 -4,4"/>
<!-- Node1 -->
<g id="node1" class="node">
<title>Node1</title>
<g id="a_node1"><a xlink:title=" ">
<polygon fill="#bfbfbf" stroke="black" points="393,-164.5 393,-183.5 445,-183.5 445,-164.5 393,-164.5"/>
<text text-anchor="middle" x="419" y="-171.5" font-family="Helvetica,sans-Serif" font-size="10.00">DBEntry</text>
</a>
</g>
</g>
<!-- Node2 -->
<g id="node2" class="node">
<title>Node2</title>
<g id="a_node2"><a xlink:title=" ">
<polygon fill="white" stroke="black" points="195,-208 195,-238 307,-238 307,-208 195,-208"/>
<text text-anchor="start" x="203" y="-226" font-family="Helvetica,sans-Serif" font-size="10.00">std::map&lt; string, tuple</text>
<text text-anchor="middle" x="251" y="-215" font-family="Helvetica,sans-Serif" font-size="10.00">&lt; string, bool &gt; &gt;</text>
</a>
</g>
</g>
<!-- Node2&#45;&gt;Node1 -->
<g id="edge1" class="edge">
<title>Node2&#45;&gt;Node1</title>
<path fill="none" stroke="#9a32cd" stroke-dasharray="5,2" d="M316.72,-205.97C335.58,-200.78 356.18,-194.88 375,-189 380.74,-187.21 386.86,-185.16 392.63,-183.16"/>
<polygon fill="#9a32cd" stroke="#9a32cd" points="315.75,-202.61 307.03,-208.62 317.6,-209.36 315.75,-202.61"/>
<text text-anchor="middle" x="350" y="-205" font-family="Helvetica,sans-Serif" font-size="10.00"> stringMap</text>
</g>
<!-- Node3 -->
<g id="node3" class="node">
<title>Node3</title>
<g id="a_node3"><a xlink:title=" ">
<polygon fill="white" stroke="red" points="28.5,-174.5 28.5,-193.5 87.5,-193.5 87.5,-174.5 28.5,-174.5"/>
<text text-anchor="middle" x="58" y="-181.5" font-family="Helvetica,sans-Serif" font-size="10.00">std::string</text>
</a>
</g>
</g>
<!-- Node3&#45;&gt;Node2 -->
<g id="edge2" class="edge">
<title>Node3&#45;&gt;Node2</title>
<path fill="none" stroke="#9a32cd" stroke-dasharray="5,2" d="M97.75,-191.91C125.62,-197.6 163.61,-205.36 194.67,-211.7"/>
<polygon fill="#9a32cd" stroke="#9a32cd" points="98.09,-188.41 87.59,-189.84 96.69,-195.27 98.09,-188.41"/>
<text text-anchor="middle" x="155.5" y="-209" font-family="Helvetica,sans-Serif" font-size="10.00"> keys</text>
</g>
<!-- Node6 -->
<g id="node5" class="node">
<title>Node6</title>
<g id="a_node5"><a xlink:title=" ">
<polygon fill="white" stroke="black" points="195,-257 195,-287 307,-287 307,-257 195,-257"/>
<text text-anchor="start" x="203" y="-275" font-family="Helvetica,sans-Serif" font-size="10.00">std::map&lt; string, tuple</text>
<text text-anchor="middle" x="251" y="-264" font-family="Helvetica,sans-Serif" font-size="10.00">&lt; GTime, bool &gt; &gt;</text>
</a>
</g>
</g>
<!-- Node3&#45;&gt;Node6 -->
<g id="edge5" class="edge">
<title>Node3&#45;&gt;Node6</title>
<path fill="none" stroke="#9a32cd" stroke-dasharray="5,2" d="M87.13,-198.22C101.15,-205.22 118.4,-213.7 134,-221 160.86,-233.56 167.86,-236.07 195,-248 201.58,-250.89 208.61,-253.97 215.37,-256.92"/>
<polygon fill="#9a32cd" stroke="#9a32cd" points="88.51,-195 78.01,-193.65 85.38,-201.26 88.51,-195"/>
<text text-anchor="middle" x="155.5" y="-242" font-family="Helvetica,sans-Serif" font-size="10.00"> keys</text>
</g>
<!-- Node8 -->
<g id="node7" class="node">
<title>Node8</title>
<g id="a_node7"><a xlink:title=" ">
<polygon fill="white" stroke="black" points="195,-110 195,-140 307,-140 307,-110 195,-110"/>
<text text-anchor="start" x="203" y="-128" font-family="Helvetica,sans-Serif" font-size="10.00">std::map&lt; string, tuple</text>
<text text-anchor="middle" x="251" y="-117" font-family="Helvetica,sans-Serif" font-size="10.00">&lt; double, bool &gt; &gt;</text>
</a>
</g>
</g>
<!-- Node3&#45;&gt;Node8 -->
<g id="edge8" class="edge">
<title>Node3&#45;&gt;Node8</title>
<path fill="none" stroke="#9a32cd" stroke-dasharray="5,2" d="M97.24,-172.19C127.12,-162.96 168.86,-150.07 201.15,-140.09"/>
<polygon fill="#9a32cd" stroke="#9a32cd" points="96.12,-168.87 87.59,-175.17 98.18,-175.56 96.12,-168.87"/>
<text text-anchor="middle" x="155.5" y="-162" font-family="Helvetica,sans-Serif" font-size="10.00"> keys</text>
</g>
<!-- Node10 -->
<g id="node9" class="node">
<title>Node10</title>
<g id="a_node9"><a xlink:title=" ">
<polygon fill="white" stroke="black" points="195,-61 195,-91 307,-91 307,-61 195,-61"/>
<text text-anchor="start" x="203" y="-79" font-family="Helvetica,sans-Serif" font-size="10.00">std::map&lt; string, tuple</text>
<text text-anchor="middle" x="251" y="-68" font-family="Helvetica,sans-Serif" font-size="10.00">&lt; int, bool &gt; &gt;</text>
</a>
</g>
</g>
<!-- Node3&#45;&gt;Node10 -->
<g id="edge11" class="edge">
<title>Node3&#45;&gt;Node10</title>
<path fill="none" stroke="#9a32cd" stroke-dasharray="5,2" d="M82.1,-168.21C93.5,-159.48 106.76,-147.82 116,-135 128.35,-117.86 117.25,-103.88 134,-91 151.06,-77.88 173.88,-73.05 194.77,-71.9"/>
<polygon fill="#9a32cd" stroke="#9a32cd" points="79.82,-165.54 73.84,-174.28 83.97,-171.18 79.82,-165.54"/>
<text text-anchor="middle" x="155.5" y="-94" font-family="Helvetica,sans-Serif" font-size="10.00"> keys</text>
</g>
<!-- Node12 -->
<g id="node11" class="node">
<title>Node12</title>
<g id="a_node11"><a xlink:title=" ">
<polygon fill="white" stroke="black" points="195,-159 195,-189 307,-189 307,-159 195,-159"/>
<text text-anchor="start" x="203" y="-177" font-family="Helvetica,sans-Serif" font-size="10.00">std::map&lt; string, tuple</text>
<text text-anchor="middle" x="251" y="-166" font-family="Helvetica,sans-Serif" font-size="10.00">&lt; Vector3d, bool &gt; &gt;</text>
</a>
</g>
</g>
<!-- Node3&#45;&gt;Node12 -->
<g id="edge14" class="edge">
<title>Node3&#45;&gt;Node12</title>
<path fill="none" stroke="#9a32cd" stroke-dasharray="5,2" d="M97.75,-181.97C125.62,-180.51 163.61,-178.52 194.67,-176.9"/>
<polygon fill="#9a32cd" stroke="#9a32cd" points="97.4,-178.48 87.59,-182.5 97.76,-185.48 97.4,-178.48"/>
<text text-anchor="middle" x="155.5" y="-182" font-family="Helvetica,sans-Serif" font-size="10.00"> keys</text>
</g>
<!-- Node5 -->
<g id="node4" class="node">
<title>Node5</title>
<g id="a_node4"><a xlink:title=" ">
<polygon fill="white" stroke="black" points="7.5,-276.5 7.5,-295.5 108.5,-295.5 108.5,-276.5 7.5,-276.5"/>
<text text-anchor="middle" x="58" y="-283.5" font-family="Helvetica,sans-Serif" font-size="10.00">tuple&lt; string, bool &gt;</text>
</a>
</g>
</g>
<!-- Node5&#45;&gt;Node2 -->
<g id="edge3" class="edge">
<title>Node5&#45;&gt;Node2</title>
<path fill="none" stroke="#9a32cd" stroke-dasharray="5,2" d="M118.47,-281.3C137.85,-278.12 158.99,-272.82 177,-264 186.61,-259.29 186.03,-253.84 195,-248 200.54,-244.4 206.68,-241.05 212.8,-238.06"/>
<polygon fill="#9a32cd" stroke="#9a32cd" points="117.91,-277.84 108.53,-282.77 118.93,-284.77 117.91,-277.84"/>
<text text-anchor="middle" x="155.5" y="-280" font-family="Helvetica,sans-Serif" font-size="10.00"> elements</text>
</g>
<!-- Node6&#45;&gt;Node1 -->
<g id="edge4" class="edge">
<title>Node6&#45;&gt;Node1</title>
<path fill="none" stroke="#9a32cd" stroke-dasharray="5,2" d="M305.34,-253.22C327.86,-244.04 353.73,-231.76 375,-217 388.88,-207.37 402.21,-192.98 410.25,-183.54"/>
<polygon fill="#9a32cd" stroke="#9a32cd" points="303.92,-250.02 295.92,-256.97 306.5,-256.53 303.92,-250.02"/>
<text text-anchor="middle" x="350" y="-246" font-family="Helvetica,sans-Serif" font-size="10.00"> timeMap</text>
</g>
<!-- Node7 -->
<g id="node6" class="node">
<title>Node7</title>
<g id="a_node6"><a xlink:title=" ">
<polygon fill="white" stroke="black" points="4.5,-314.5 4.5,-333.5 111.5,-333.5 111.5,-314.5 4.5,-314.5"/>
<text text-anchor="middle" x="58" y="-321.5" font-family="Helvetica,sans-Serif" font-size="10.00">tuple&lt; GTime, bool &gt;</text>
</a>
</g>
</g>
<!-- Node7&#45;&gt;Node6 -->
<g id="edge6" class="edge">
<title>Node7&#45;&gt;Node6</title>
<path fill="none" stroke="#9a32cd" stroke-dasharray="5,2" d="M121.62,-314.03C139.66,-310.56 159.26,-306.2 177,-301 189.95,-297.2 203.81,-292 215.93,-287.06"/>
<polygon fill="#9a32cd" stroke="#9a32cd" points="120.97,-310.6 111.78,-315.87 122.25,-317.48 120.97,-310.6"/>
<text text-anchor="middle" x="155.5" y="-314" font-family="Helvetica,sans-Serif" font-size="10.00"> elements</text>
</g>
<!-- Node8&#45;&gt;Node1 -->
<g id="edge7" class="edge">
<title>Node8&#45;&gt;Node1</title>
<path fill="none" stroke="#9a32cd" stroke-dasharray="5,2" d="M316.72,-142.03C335.58,-147.22 356.18,-153.12 375,-159 380.74,-160.79 386.86,-162.84 392.63,-164.84"/>
<polygon fill="#9a32cd" stroke="#9a32cd" points="317.6,-138.64 307.03,-139.38 315.75,-145.39 317.6,-138.64"/>
<text text-anchor="middle" x="350" y="-162" font-family="Helvetica,sans-Serif" font-size="10.00"> doubleMap</text>
</g>
<!-- Node9 -->
<g id="node8" class="node">
<title>Node9</title>
<g id="a_node8"><a xlink:title=" ">
<polygon fill="white" stroke="black" points="5,-38.5 5,-57.5 111,-57.5 111,-38.5 5,-38.5"/>
<text text-anchor="middle" x="58" y="-45.5" font-family="Helvetica,sans-Serif" font-size="10.00">tuple&lt; double, bool &gt;</text>
</a>
</g>
</g>
<!-- Node9&#45;&gt;Node8 -->
<g id="edge9" class="edge">
<title>Node9&#45;&gt;Node8</title>
<path fill="none" stroke="#9a32cd" stroke-dasharray="5,2" d="M103.63,-36.84C127.48,-33.53 156.14,-34.11 177,-49 196.56,-62.97 178.76,-82.28 195,-100 198.54,-103.87 202.8,-107.18 207.36,-110"/>
<polygon fill="#9a32cd" stroke="#9a32cd" points="103.04,-33.39 93.74,-38.46 104.17,-40.3 103.04,-33.39"/>
<text text-anchor="middle" x="155.5" y="-52" font-family="Helvetica,sans-Serif" font-size="10.00"> elements</text>
</g>
<!-- Node10&#45;&gt;Node1 -->
<g id="edge10" class="edge">
<title>Node10&#45;&gt;Node1</title>
<path fill="none" stroke="#9a32cd" stroke-dasharray="5,2" d="M306.47,-94.66C328.74,-103.59 354.12,-115.53 375,-130 389.04,-139.74 402.33,-154.49 410.32,-164.19"/>
<polygon fill="#9a32cd" stroke="#9a32cd" points="307.72,-91.39 297.13,-91.01 305.18,-97.91 307.72,-91.39"/>
<text text-anchor="middle" x="350" y="-133" font-family="Helvetica,sans-Serif" font-size="10.00"> intMap</text>
</g>
<!-- Node11 -->
<g id="node10" class="node">
<title>Node11</title>
<g id="a_node10"><a xlink:title=" ">
<polygon fill="white" stroke="black" points="14,-0.5 14,-19.5 102,-19.5 102,-0.5 14,-0.5"/>
<text text-anchor="middle" x="58" y="-7.5" font-family="Helvetica,sans-Serif" font-size="10.00">tuple&lt; int, bool &gt;</text>
</a>
</g>
</g>
<!-- Node11&#45;&gt;Node10 -->
<g id="edge12" class="edge">
<title>Node11&#45;&gt;Node10</title>
<path fill="none" stroke="#9a32cd" stroke-dasharray="5,2" d="M112.39,-5.06C133.17,-4.97 156.8,-7.18 177,-15 201.8,-24.6 224.28,-46.25 237.55,-61"/>
<polygon fill="#9a32cd" stroke="#9a32cd" points="112.05,-1.57 102.13,-5.29 112.21,-8.56 112.05,-1.57"/>
<text text-anchor="middle" x="155.5" y="-18" font-family="Helvetica,sans-Serif" font-size="10.00"> elements</text>
</g>
<!-- Node12&#45;&gt;Node1 -->
<g id="edge13" class="edge">
<title>Node12&#45;&gt;Node1</title>
<path fill="none" stroke="#9a32cd" stroke-dasharray="5,2" d="M317.6,-174C343.93,-174 372.7,-174 392.67,-174"/>
<polygon fill="#9a32cd" stroke="#9a32cd" points="317.28,-170.5 307.28,-174 317.28,-177.5 317.28,-170.5"/>
<text text-anchor="middle" x="350" y="-177" font-family="Helvetica,sans-Serif" font-size="10.00"> vectorMap</text>
</g>
<!-- Node13 -->
<g id="node12" class="node">
<title>Node13</title>
<g id="a_node12"><a xlink:title=" ">
<polygon fill="white" stroke="black" points="0,-106.5 0,-125.5 116,-125.5 116,-106.5 0,-106.5"/>
<text text-anchor="middle" x="58" y="-113.5" font-family="Helvetica,sans-Serif" font-size="10.00">tuple&lt; Vector3d, bool &gt;</text>
</a>
</g>
</g>
<!-- Node13&#45;&gt;Node12 -->
<g id="edge15" class="edge">
<title>Node13&#45;&gt;Node12</title>
<path fill="none" stroke="#9a32cd" stroke-dasharray="5,2" d="M111.13,-105.45C132.86,-103.73 157.51,-105.49 177,-117 191.05,-125.3 182.98,-137.97 195,-149 199.1,-152.76 203.85,-156.03 208.82,-158.86"/>
<polygon fill="#9a32cd" stroke="#9a32cd" points="110.65,-101.98 101.07,-106.5 111.37,-108.94 110.65,-101.98"/>
<text text-anchor="middle" x="155.5" y="-120" font-family="Helvetica,sans-Serif" font-size="10.00"> elements</text>
</g>
</g>
</svg>
