<?xml version="1.0" encoding="UTF-8" standalone="no"?>
<!DOCTYPE svg PUBLIC "-//W3C//DTD SVG 1.1//EN"
 "http://www.w3.org/Graphics/SVG/1.1/DTD/svg11.dtd">
<!-- Generated by graphviz version 2.50.0 (20220203.2022)
 -->
<!-- Title: SourceTableEntry Pages: 1 -->
<svg width="300pt" height="195pt"
 viewBox="0.00 0.00 300.00 195.00" xmlns="http://www.w3.org/2000/svg" xmlns:xlink="http://www.w3.org/1999/xlink">
<g id="graph0" class="graph" transform="scale(1 1) rotate(0) translate(4 191)">
<title>SourceTableEntry</title>
<polygon fill="white" stroke="transparent" points="-4,4 -4,-191 296,-191 296,4 -4,4"/>
<!-- Node1 -->
<g id="node1" class="node">
<title>Node1</title>
<g id="a_node1"><a xlink:title=" ">
<polygon fill="#bfbfbf" stroke="black" points="67,-0.5 67,-19.5 160,-19.5 160,-0.5 67,-0.5"/>
<text text-anchor="middle" x="113.5" y="-7.5" font-family="Helvetica,sans-Serif" font-size="10.00">SourceTableEntry</text>
</a>
</g>
</g>
<!-- Node2 -->
<g id="node2" class="node">
<title>Node2</title>
<g id="a_node2"><a xlink:title=" ">
<polygon fill="white" stroke="black" points="27,-84 27,-103 86,-103 86,-84 27,-84"/>
<text text-anchor="middle" x="56.5" y="-91" font-family="Helvetica,sans-Serif" font-size="10.00">std::string</text>
</a>
</g>
</g>
<!-- Node2&#45;&gt;Node1 -->
<g id="edge1" class="edge">
<title>Node2&#45;&gt;Node1</title>
<path fill="none" stroke="#9a32cd" stroke-dasharray="5,2" d="M68.53,-75.3C80.44,-58.26 98.21,-32.86 107.44,-19.66"/>
<polygon fill="#9a32cd" stroke="#9a32cd" points="65.46,-73.58 62.6,-83.78 71.2,-77.59 65.46,-73.58"/>
<text text-anchor="middle" x="118.5" y="-52" font-family="Helvetica,sans-Serif" font-size="10.00"> location</text>
<text text-anchor="middle" x="118.5" y="-41" font-family="Helvetica,sans-Serif" font-size="10.00">mountPoint</text>
</g>
<!-- Node3 -->
<g id="node3" class="node">
<title>Node3</title>
<g id="a_node3"><a xlink:title=" ">
<polygon fill="white" stroke="black" points="0,-156.5 0,-186.5 93,-186.5 93,-156.5 0,-156.5"/>
<text text-anchor="start" x="8" y="-174.5" font-family="Helvetica,sans-Serif" font-size="10.00">std::basic_string&lt;</text>
<text text-anchor="middle" x="46.5" y="-163.5" font-family="Helvetica,sans-Serif" font-size="10.00"> Char &gt;</text>
</a>
</g>
</g>
<!-- Node3&#45;&gt;Node2 -->
<g id="edge2" class="edge">
<title>Node3&#45;&gt;Node2</title>
<path fill="none" stroke="midnightblue" d="M49.7,-146.17C51.65,-131.4 54.01,-113.45 55.37,-103.06"/>
<polygon fill="midnightblue" stroke="midnightblue" points="46.22,-145.83 48.38,-156.2 53.16,-146.75 46.22,-145.83"/>
</g>
<!-- Node4 -->
<g id="node4" class="node">
<title>Node4</title>
<g id="a_node4"><a xlink:title=" ">
<polygon fill="white" stroke="black" points="124.5,-78.5 124.5,-108.5 258.5,-108.5 258.5,-78.5 124.5,-78.5"/>
<text text-anchor="start" x="132.5" y="-96.5" font-family="Helvetica,sans-Serif" font-size="10.00">std::vector&lt; SourceTable</text>
<text text-anchor="middle" x="191.5" y="-85.5" font-family="Helvetica,sans-Serif" font-size="10.00">Entry::RtcmMessageData &gt;</text>
</a>
</g>
</g>
<!-- Node4&#45;&gt;Node1 -->
<g id="edge3" class="edge">
<title>Node4&#45;&gt;Node1</title>
<path fill="none" stroke="#9a32cd" stroke-dasharray="5,2" d="M175.32,-70.24C167.42,-59.98 157.48,-47.9 147.5,-38 140.76,-31.31 132.42,-24.67 125.68,-19.64"/>
<polygon fill="#9a32cd" stroke="#9a32cd" points="172.62,-72.47 181.44,-78.35 178.21,-68.26 172.62,-72.47"/>
<text text-anchor="middle" x="199" y="-46.5" font-family="Helvetica,sans-Serif" font-size="10.00"> messageData</text>
</g>
<!-- Node5 -->
<g id="node5" class="node">
<title>Node5</title>
<g id="a_node5"><a xlink:href="structSourceTableEntry_1_1RtcmMessageData.html" target="_top" xlink:title=" ">
<polygon fill="white" stroke="black" points="111,-162 111,-181 292,-181 292,-162 111,-162"/>
<text text-anchor="middle" x="201.5" y="-169" font-family="Helvetica,sans-Serif" font-size="10.00">SourceTableEntry::RtcmMessageData</text>
</a>
</g>
</g>
<!-- Node5&#45;&gt;Node4 -->
<g id="edge4" class="edge">
<title>Node5&#45;&gt;Node4</title>
<path fill="none" stroke="#9a32cd" stroke-dasharray="5,2" d="M199.04,-151.78C197.28,-138.4 194.95,-120.69 193.34,-108.52"/>
<polygon fill="#9a32cd" stroke="#9a32cd" points="195.58,-152.32 200.35,-161.78 202.52,-151.41 195.58,-152.32"/>
<text text-anchor="middle" x="219" y="-130" font-family="Helvetica,sans-Serif" font-size="10.00"> elements</text>
</g>
</g>
</svg>
