<?xml version="1.0" encoding="UTF-8" standalone="no"?>
<!DOCTYPE svg PUBLIC "-//W3C//DTD SVG 1.1//EN"
 "http://www.w3.org/Graphics/SVG/1.1/DTD/svg11.dtd">
<!-- Generated by graphviz version 2.50.0 (20220203.2022)
 -->
<!-- Title: StationLogs Pages: 1 -->
<svg width="316pt" height="184pt"
 viewBox="0.00 0.00 316.00 184.00" xmlns="http://www.w3.org/2000/svg" xmlns:xlink="http://www.w3.org/1999/xlink">
<g id="graph0" class="graph" transform="scale(1 1) rotate(0) translate(4 180)">
<title>StationLogs</title>
<polygon fill="white" stroke="transparent" points="-4,4 -4,-180 312,-180 312,4 -4,4"/>
<!-- Node1 -->
<g id="node1" class="node">
<title>Node1</title>
<g id="a_node1"><a xlink:title=" ">
<polygon fill="#bfbfbf" stroke="black" points="87.5,-0.5 87.5,-19.5 156.5,-19.5 156.5,-0.5 87.5,-0.5"/>
<text text-anchor="middle" x="122" y="-7.5" font-family="Helvetica,sans-Serif" font-size="10.00">StationLogs</text>
</a>
</g>
</g>
<!-- Node2 -->
<g id="node2" class="node">
<title>Node2</title>
<g id="a_node2"><a xlink:href="structGTime.html" target="_top" xlink:title="Time structure used throughout this software.">
<polygon fill="white" stroke="black" points="0,-84 0,-103 46,-103 46,-84 0,-84"/>
<text text-anchor="middle" x="23" y="-91" font-family="Helvetica,sans-Serif" font-size="10.00">GTime</text>
</a>
</g>
</g>
<!-- Node2&#45;&gt;Node1 -->
<g id="edge1" class="edge">
<title>Node2&#45;&gt;Node1</title>
<path fill="none" stroke="#9a32cd" stroke-dasharray="5,2" d="M35.39,-75.92C44.61,-64.34 57.98,-49.04 72,-38 81.3,-30.68 92.87,-24.29 102.54,-19.56"/>
<polygon fill="#9a32cd" stroke="#9a32cd" points="32.56,-73.87 29.21,-83.92 38.09,-78.15 32.56,-73.87"/>
<text text-anchor="middle" x="95" y="-52" font-family="Helvetica,sans-Serif" font-size="10.00"> firstEpoch</text>
<text text-anchor="middle" x="95" y="-41" font-family="Helvetica,sans-Serif" font-size="10.00">lastEpoch</text>
</g>
<!-- Node3 -->
<g id="node3" class="node">
<title>Node3</title>
<g id="a_node3"><a xlink:title=" ">
<polygon fill="white" stroke="black" points="64,-78.5 64,-108.5 180,-108.5 180,-78.5 64,-78.5"/>
<text text-anchor="start" x="72" y="-96.5" font-family="Helvetica,sans-Serif" font-size="10.00">std::map&lt; E_ObsCode,</text>
<text text-anchor="middle" x="122" y="-85.5" font-family="Helvetica,sans-Serif" font-size="10.00"> int &gt;</text>
</a>
</g>
</g>
<!-- Node3&#45;&gt;Node1 -->
<g id="edge2" class="edge">
<title>Node3&#45;&gt;Node1</title>
<path fill="none" stroke="#9a32cd" stroke-dasharray="5,2" d="M122,-68.25C122,-51.78 122,-30.99 122,-19.54"/>
<polygon fill="#9a32cd" stroke="#9a32cd" points="118.5,-68.3 122,-78.3 125.5,-68.3 118.5,-68.3"/>
<text text-anchor="middle" x="146.5" y="-46.5" font-family="Helvetica,sans-Serif" font-size="10.00"> codeCount</text>
</g>
<!-- Node4 -->
<g id="node4" class="node">
<title>Node4</title>
<g id="a_node4"><a xlink:title=" ">
<polygon fill="white" stroke="black" points="198,-84 198,-103 308,-103 308,-84 198,-84"/>
<text text-anchor="middle" x="253" y="-91" font-family="Helvetica,sans-Serif" font-size="10.00">std::map&lt; string, int &gt;</text>
</a>
</g>
</g>
<!-- Node4&#45;&gt;Node1 -->
<g id="edge3" class="edge">
<title>Node4&#45;&gt;Node1</title>
<path fill="none" stroke="#9a32cd" stroke-dasharray="5,2" d="M233.45,-77.71C217.97,-66.27 195.6,-50.36 175,-38 163.84,-31.3 150.83,-24.66 140.49,-19.64"/>
<polygon fill="#9a32cd" stroke="#9a32cd" points="231.6,-80.69 241.7,-83.86 235.78,-75.08 231.6,-80.69"/>
<text text-anchor="middle" x="228" y="-46.5" font-family="Helvetica,sans-Serif" font-size="10.00"> satCount</text>
</g>
<!-- Node5 -->
<g id="node5" class="node">
<title>Node5</title>
<g id="a_node5"><a xlink:title=" ">
<polygon fill="white" stroke="red" points="223.5,-156.5 223.5,-175.5 282.5,-175.5 282.5,-156.5 223.5,-156.5"/>
<text text-anchor="middle" x="253" y="-163.5" font-family="Helvetica,sans-Serif" font-size="10.00">std::string</text>
</a>
</g>
</g>
<!-- Node5&#45;&gt;Node4 -->
<g id="edge4" class="edge">
<title>Node5&#45;&gt;Node4</title>
<path fill="none" stroke="#9a32cd" stroke-dasharray="5,2" d="M253,-145.94C253,-132.03 253,-113.82 253,-103.22"/>
<polygon fill="#9a32cd" stroke="#9a32cd" points="249.5,-146.36 253,-156.36 256.5,-146.36 249.5,-146.36"/>
<text text-anchor="middle" x="264.5" y="-130" font-family="Helvetica,sans-Serif" font-size="10.00"> keys</text>
</g>
</g>
</svg>
