<?xml version="1.0" encoding="UTF-8" standalone="no"?>
<!DOCTYPE svg PUBLIC "-//W3C//DTD SVG 1.1//EN"
 "http://www.w3.org/Graphics/SVG/1.1/DTD/svg11.dtd">
<!-- Generated by graphviz version 2.50.0 (20220203.2022)
 -->
<!-- Title: RinexStream::readRinexHeader Pages: 1 -->
<svg width="343pt" height="142pt"
 viewBox="0.00 0.00 343.00 142.00" xmlns="http://www.w3.org/2000/svg" xmlns:xlink="http://www.w3.org/1999/xlink">
<g id="graph0" class="graph" transform="scale(1 1) rotate(0) translate(4 138)">
<title>RinexStream::readRinexHeader</title>
<polygon fill="white" stroke="transparent" points="-4,4 -4,-138 339,-138 339,4 -4,4"/>
<!-- Node1 -->
<g id="node1" class="node">
<title>Node1</title>
<g id="a_node1"><a xlink:title=" ">
<polygon fill="#bfbfbf" stroke="black" points="0,-57.5 0,-76.5 151,-76.5 151,-57.5 0,-57.5"/>
<text text-anchor="middle" x="75.5" y="-64.5" font-family="Helvetica,sans-Serif" font-size="10.00">RinexStream::readRinexHeader</text>
</a>
</g>
</g>
<!-- Node2 -->
<g id="node2" class="node">
<title>Node2</title>
<g id="a_node2"><a xlink:href="rinex_8cpp.html#a1ac3bfad9a214cd63300759aecadcb21" target="_top" xlink:title=" ">
<polygon fill="white" stroke="black" points="187,-57.5 187,-76.5 235,-76.5 235,-57.5 187,-57.5"/>
<text text-anchor="middle" x="211" y="-64.5" font-family="Helvetica,sans-Serif" font-size="10.00">readrnx</text>
</a>
</g>
</g>
<!-- Node1&#45;&gt;Node2 -->
<g id="edge1" class="edge">
<title>Node1&#45;&gt;Node2</title>
<path fill="none" stroke="midnightblue" d="M151.06,-67C160.01,-67 168.77,-67 176.69,-67"/>
<polygon fill="midnightblue" stroke="midnightblue" points="176.89,-70.5 186.89,-67 176.89,-63.5 176.89,-70.5"/>
</g>
<!-- Node3 -->
<g id="node3" class="node">
<title>Node3</title>
<g id="a_node3"><a xlink:href="rinex_8cpp.html#a9bcafc420d22153ecc929aee6cc3e56d" target="_top" xlink:title=" ">
<polygon fill="white" stroke="red" points="272.5,-114.5 272.5,-133.5 333.5,-133.5 333.5,-114.5 272.5,-114.5"/>
<text text-anchor="middle" x="303" y="-121.5" font-family="Helvetica,sans-Serif" font-size="10.00">readrnxclk</text>
</a>
</g>
</g>
<!-- Node2&#45;&gt;Node3 -->
<g id="edge2" class="edge">
<title>Node2&#45;&gt;Node3</title>
<path fill="none" stroke="midnightblue" d="M226.98,-76.78C238.87,-84.51 255.94,-95.54 271,-105 273.15,-106.35 275.39,-107.75 277.64,-109.14"/>
<polygon fill="midnightblue" stroke="midnightblue" points="275.84,-112.14 286.19,-114.4 279.51,-106.18 275.84,-112.14"/>
</g>
<!-- Node7 -->
<g id="node4" class="node">
<title>Node7</title>
<g id="a_node4"><a xlink:href="rinex_8cpp.html#abfdf86b0c638cef30e7c8b3dbfed6973" target="_top" xlink:title=" ">
<polygon fill="white" stroke="red" points="276.5,-76.5 276.5,-95.5 329.5,-95.5 329.5,-76.5 276.5,-76.5"/>
<text text-anchor="middle" x="303" y="-83.5" font-family="Helvetica,sans-Serif" font-size="10.00">readrnxh</text>
</a>
</g>
</g>
<!-- Node2&#45;&gt;Node7 -->
<g id="edge3" class="edge">
<title>Node2&#45;&gt;Node7</title>
<path fill="none" stroke="midnightblue" d="M235.18,-71.89C244.73,-73.91 256.01,-76.29 266.56,-78.52"/>
<polygon fill="midnightblue" stroke="midnightblue" points="265.86,-81.95 276.37,-80.59 267.3,-75.1 265.86,-81.95"/>
</g>
<!-- Node12 -->
<g id="node5" class="node">
<title>Node12</title>
<g id="a_node5"><a xlink:href="rinex_8cpp.html#a32df8e726fe3787b8b1f3ecae9a14dcd" target="_top" xlink:title=" ">
<polygon fill="white" stroke="red" points="271,-38.5 271,-57.5 335,-57.5 335,-38.5 271,-38.5"/>
<text text-anchor="middle" x="303" y="-45.5" font-family="Helvetica,sans-Serif" font-size="10.00">readrnxnav</text>
</a>
</g>
</g>
<!-- Node2&#45;&gt;Node12 -->
<g id="edge4" class="edge">
<title>Node2&#45;&gt;Node12</title>
<path fill="none" stroke="midnightblue" d="M235.18,-62.11C243.05,-60.45 252.09,-58.54 260.94,-56.67"/>
<polygon fill="midnightblue" stroke="midnightblue" points="261.7,-60.09 270.76,-54.6 260.25,-53.24 261.7,-60.09"/>
</g>
<!-- Node32 -->
<g id="node6" class="node">
<title>Node32</title>
<g id="a_node6"><a xlink:href="rinex_8cpp.html#a7ac0513671bff5c91f961ebca3ae1673" target="_top" xlink:title=" ">
<polygon fill="white" stroke="red" points="271,-0.5 271,-19.5 335,-19.5 335,-0.5 271,-0.5"/>
<text text-anchor="middle" x="303" y="-7.5" font-family="Helvetica,sans-Serif" font-size="10.00">readrnxobs</text>
</a>
</g>
</g>
<!-- Node2&#45;&gt;Node32 -->
<g id="edge5" class="edge">
<title>Node2&#45;&gt;Node32</title>
<path fill="none" stroke="midnightblue" d="M226.98,-57.22C238.87,-49.49 255.94,-38.46 271,-29 273.15,-27.65 275.39,-26.25 277.64,-24.86"/>
<polygon fill="midnightblue" stroke="midnightblue" points="279.51,-27.82 286.19,-19.6 275.84,-21.86 279.51,-27.82"/>
</g>
</g>
</svg>
