<?xml version="1.0" encoding="UTF-8" standalone="no"?>
<!DOCTYPE svg PUBLIC "-//W3C//DTD SVG 1.1//EN"
 "http://www.w3.org/Graphics/SVG/1.1/DTD/svg11.dtd">
<!-- Generated by graphviz version 2.50.0 (20220203.2022)
 -->
<!-- Title: SubState Pages: 1 -->
<svg width="209pt" height="273pt"
 viewBox="0.00 0.00 209.00 273.00" xmlns="http://www.w3.org/2000/svg" xmlns:xlink="http://www.w3.org/1999/xlink">
<g id="graph0" class="graph" transform="scale(1 1) rotate(0) translate(4 269)">
<title>SubState</title>
<polygon fill="white" stroke="transparent" points="-4,4 -4,-269 205,-269 205,4 -4,4"/>
<!-- Node1 -->
<g id="node1" class="node">
<title>Node1</title>
<g id="a_node1"><a xlink:title="Minimum viable kfState element object.">
<polygon fill="#bfbfbf" stroke="black" points="55.5,-0.5 55.5,-19.5 112.5,-19.5 112.5,-0.5 55.5,-0.5"/>
<text text-anchor="middle" x="84" y="-7.5" font-family="Helvetica,sans-Serif" font-size="10.00">SubState</text>
</a>
</g>
</g>
<!-- Node2 -->
<g id="node2" class="node">
<title>Node2</title>
<g id="a_node2"><a xlink:href="structKFKey.html" target="_top" xlink:title="Keys used to interface with Kalman filter objects.">
<polygon fill="white" stroke="black" points="61,-67.5 61,-86.5 107,-86.5 107,-67.5 61,-67.5"/>
<text text-anchor="middle" x="84" y="-74.5" font-family="Helvetica,sans-Serif" font-size="10.00">KFKey</text>
</a>
</g>
</g>
<!-- Node2&#45;&gt;Node1 -->
<g id="edge1" class="edge">
<title>Node2&#45;&gt;Node1</title>
<path fill="none" stroke="#9a32cd" stroke-dasharray="5,2" d="M84,-57.04C84,-44.67 84,-29.12 84,-19.63"/>
<polygon fill="#9a32cd" stroke="#9a32cd" points="80.5,-57.23 84,-67.23 87.5,-57.23 80.5,-57.23"/>
<text text-anchor="middle" x="98" y="-41" font-family="Helvetica,sans-Serif" font-size="10.00"> kfKey</text>
</g>
<!-- Node3 -->
<g id="node3" class="node">
<title>Node3</title>
<g id="a_node3"><a xlink:href="structSatSys.html" target="_top" xlink:title="Object holding satellite id, and providing related functions.">
<polygon fill="white" stroke="red" points="0,-134.5 0,-153.5 48,-153.5 48,-134.5 0,-134.5"/>
<text text-anchor="middle" x="24" y="-141.5" font-family="Helvetica,sans-Serif" font-size="10.00">SatSys</text>
</a>
</g>
</g>
<!-- Node3&#45;&gt;Node2 -->
<g id="edge2" class="edge">
<title>Node3&#45;&gt;Node2</title>
<path fill="none" stroke="#9a32cd" stroke-dasharray="5,2" d="M35.29,-125.92C40.11,-119.13 45.99,-111.42 52,-105 58.26,-98.31 66.11,-91.67 72.47,-86.64"/>
<polygon fill="#9a32cd" stroke="#9a32cd" points="32.24,-124.18 29.48,-134.41 38.02,-128.13 32.24,-124.18"/>
<text text-anchor="middle" x="61" y="-108" font-family="Helvetica,sans-Serif" font-size="10.00"> Sat</text>
</g>
<!-- Node6 -->
<g id="node4" class="node">
<title>Node6</title>
<g id="a_node4"><a xlink:title=" ">
<polygon fill="white" stroke="red" points="70.5,-245.5 70.5,-264.5 129.5,-264.5 129.5,-245.5 70.5,-245.5"/>
<text text-anchor="middle" x="100" y="-252.5" font-family="Helvetica,sans-Serif" font-size="10.00">std::string</text>
</a>
</g>
</g>
<!-- Node6&#45;&gt;Node2 -->
<g id="edge3" class="edge">
<title>Node6&#45;&gt;Node2</title>
<path fill="none" stroke="#9a32cd" stroke-dasharray="5,2" d="M98.26,-234.84C94.82,-196.97 87.26,-113.86 84.79,-86.74"/>
<polygon fill="#9a32cd" stroke="#9a32cd" points="94.79,-235.39 99.18,-245.03 101.76,-234.75 94.79,-235.39"/>
<text text-anchor="middle" x="98" y="-141.5" font-family="Helvetica,sans-Serif" font-size="10.00"> str</text>
</g>
<!-- Node8 -->
<g id="node5" class="node">
<title>Node8</title>
<g id="a_node5"><a xlink:href="structStation.html" target="_top" xlink:title="Object to maintain receiver station data.">
<polygon fill="white" stroke="red" points="116.5,-134.5 116.5,-153.5 163.5,-153.5 163.5,-134.5 116.5,-134.5"/>
<text text-anchor="middle" x="140" y="-141.5" font-family="Helvetica,sans-Serif" font-size="10.00">Station</text>
</a>
</g>
</g>
<!-- Node6&#45;&gt;Node8 -->
<g id="edge5" class="edge">
<title>Node6&#45;&gt;Node8</title>
<path fill="none" stroke="#9a32cd" stroke-dasharray="5,2" d="M106.66,-235.84C115.41,-212.01 130.4,-171.15 136.88,-153.51"/>
<polygon fill="#9a32cd" stroke="#9a32cd" points="103.3,-234.85 103.14,-245.45 109.87,-237.26 103.3,-234.85"/>
<text text-anchor="middle" x="165.5" y="-219" font-family="Helvetica,sans-Serif" font-size="10.00"> id</text>
<text text-anchor="middle" x="165.5" y="-208" font-family="Helvetica,sans-Serif" font-size="10.00">rtsTropFilename</text>
<text text-anchor="middle" x="165.5" y="-197" font-family="Helvetica,sans-Serif" font-size="10.00">solutFilename</text>
<text text-anchor="middle" x="165.5" y="-186" font-family="Helvetica,sans-Serif" font-size="10.00">traceFilename</text>
<text text-anchor="middle" x="165.5" y="-175" font-family="Helvetica,sans-Serif" font-size="10.00">tropFilename</text>
</g>
<!-- Node8&#45;&gt;Node2 -->
<g id="edge4" class="edge">
<title>Node8&#45;&gt;Node2</title>
<path fill="none" stroke="#9a32cd" stroke-dasharray="5,2" d="M125.9,-126.63C114.95,-113.92 100.2,-96.8 91.43,-86.63"/>
<polygon fill="#9a32cd" stroke="#9a32cd" points="123.27,-128.94 132.45,-134.23 128.57,-124.37 123.27,-128.94"/>
<text text-anchor="middle" x="132.5" y="-108" font-family="Helvetica,sans-Serif" font-size="10.00"> rec_ptr</text>
</g>
</g>
</svg>
