<?xml version="1.0" encoding="UTF-8" standalone="no"?>
<!DOCTYPE svg PUBLIC "-//W3C//DTD SVG 1.1//EN"
 "http://www.w3.org/Graphics/SVG/1.1/DTD/svg11.dtd">
<!-- Generated by graphviz version 2.50.0 (20220203.2022)
 -->
<!-- Title: OrbitVEQPropagator Pages: 1 -->
<svg width="457pt" height="251pt"
 viewBox="0.00 0.00 457.00 251.00" xmlns="http://www.w3.org/2000/svg" xmlns:xlink="http://www.w3.org/1999/xlink">
<g id="graph0" class="graph" transform="scale(1 1) rotate(0) translate(4 247)">
<title>OrbitVEQPropagator</title>
<polygon fill="white" stroke="transparent" points="-4,4 -4,-247 453,-247 453,4 -4,4"/>
<!-- Node1 -->
<g id="node1" class="node">
<title>Node1</title>
<g id="a_node1"><a xlink:title=" ">
<polygon fill="#bfbfbf" stroke="black" points="176,-0.5 176,-19.5 281,-19.5 281,-0.5 176,-0.5"/>
<text text-anchor="middle" x="228.5" y="-7.5" font-family="Helvetica,sans-Serif" font-size="10.00">OrbitVEQPropagator</text>
</a>
</g>
</g>
<!-- Node2 -->
<g id="node2" class="node">
<title>Node2</title>
<g id="a_node2"><a xlink:title=" ">
<polygon fill="white" stroke="black" points="38,-78.5 38,-97.5 95,-97.5 95,-78.5 38,-78.5"/>
<text text-anchor="middle" x="66.5" y="-85.5" font-family="Helvetica,sans-Serif" font-size="10.00">VectorXd</text>
</a>
</g>
</g>
<!-- Node2&#45;&gt;Node1 -->
<g id="edge1" class="edge">
<title>Node2&#45;&gt;Node1</title>
<path fill="none" stroke="#9a32cd" stroke-dasharray="5,2" d="M76.12,-69.61C82.94,-58.88 93.08,-45.74 105.5,-38 126.47,-24.93 152.89,-18.14 175.87,-14.63"/>
<polygon fill="#9a32cd" stroke="#9a32cd" points="73.1,-67.83 71,-78.22 79.12,-71.41 73.1,-67.83"/>
<text text-anchor="middle" x="128.5" y="-52" font-family="Helvetica,sans-Serif" font-size="10.00"> mRVPhiS</text>
<text text-anchor="middle" x="128.5" y="-41" font-family="Helvetica,sans-Serif" font-size="10.00">xSTMSM</text>
</g>
<!-- Node3 -->
<g id="node3" class="node">
<title>Node3</title>
<g id="a_node3"><a xlink:href="structGravityModel.html" target="_top" xlink:title="The gravity model of the central body.">
<polygon fill="white" stroke="black" points="113.5,-78.5 113.5,-97.5 187.5,-97.5 187.5,-78.5 113.5,-78.5"/>
<text text-anchor="middle" x="150.5" y="-85.5" font-family="Helvetica,sans-Serif" font-size="10.00">GravityModel</text>
</a>
</g>
</g>
<!-- Node3&#45;&gt;Node1 -->
<g id="edge2" class="edge">
<title>Node3&#45;&gt;Node1</title>
<path fill="none" stroke="#9a32cd" stroke-dasharray="5,2" d="M152.87,-68.13C154.99,-58.15 158.98,-46.27 166.5,-38 174.16,-29.57 184.92,-23.66 195.32,-19.56"/>
<polygon fill="#9a32cd" stroke="#9a32cd" points="149.37,-67.88 151.19,-78.31 156.27,-69.02 149.37,-67.88"/>
<text text-anchor="middle" x="195.5" y="-46.5" font-family="Helvetica,sans-Serif" font-size="10.00"> gravityModel</text>
</g>
<!-- Node4 -->
<g id="node4" class="node">
<title>Node4</title>
<g id="a_node4"><a xlink:href="structEarthGravityDeg.html" target="_top" xlink:title=" ">
<polygon fill="white" stroke="black" points="0,-156.5 0,-175.5 87,-175.5 87,-156.5 0,-156.5"/>
<text text-anchor="middle" x="43.5" y="-163.5" font-family="Helvetica,sans-Serif" font-size="10.00">EarthGravityDeg</text>
</a>
</g>
</g>
<!-- Node4&#45;&gt;Node3 -->
<g id="edge3" class="edge">
<title>Node4&#45;&gt;Node3</title>
<path fill="none" stroke="#9a32cd" stroke-dasharray="5,2" d="M44.93,-146.45C46.66,-136.21 50.41,-123.99 58.5,-116 66.43,-108.16 91.27,-101.13 113.14,-96.21"/>
<polygon fill="#9a32cd" stroke="#9a32cd" points="41.45,-146.14 43.74,-156.49 48.4,-146.97 41.45,-146.14"/>
<text text-anchor="middle" x="104" y="-130" font-family="Helvetica,sans-Serif" font-size="10.00"> mEarthGravAccDeg</text>
<text text-anchor="middle" x="104" y="-119" font-family="Helvetica,sans-Serif" font-size="10.00">mEarthGravSTMDeg</text>
</g>
<!-- Node5 -->
<g id="node5" class="node">
<title>Node5</title>
<g id="a_node5"><a xlink:href="structEGMCoef.html" target="_top" xlink:title="Struct to save Earth gravity coefficients.">
<polygon fill="white" stroke="red" points="128,-156.5 128,-175.5 187,-175.5 187,-156.5 128,-156.5"/>
<text text-anchor="middle" x="157.5" y="-163.5" font-family="Helvetica,sans-Serif" font-size="10.00">EGMCoef</text>
</a>
</g>
</g>
<!-- Node5&#45;&gt;Node3 -->
<g id="edge4" class="edge">
<title>Node5&#45;&gt;Node3</title>
<path fill="none" stroke="#9a32cd" stroke-dasharray="5,2" d="M155.77,-146.22C154.34,-130.7 152.38,-109.36 151.29,-97.62"/>
<polygon fill="#9a32cd" stroke="#9a32cd" points="152.29,-146.65 156.7,-156.28 159.26,-146 152.29,-146.65"/>
<text text-anchor="middle" x="201" y="-130" font-family="Helvetica,sans-Serif" font-size="10.00"> correctedEgmCoef</text>
<text text-anchor="middle" x="201" y="-119" font-family="Helvetica,sans-Serif" font-size="10.00">uncorrectedEgmCoef</text>
</g>
<!-- Node7 -->
<g id="node6" class="node">
<title>Node7</title>
<g id="a_node6"><a xlink:href="structIERS.html" target="_top" xlink:title=" ">
<polygon fill="white" stroke="black" points="209,-78.5 209,-97.5 248,-97.5 248,-78.5 209,-78.5"/>
<text text-anchor="middle" x="228.5" y="-85.5" font-family="Helvetica,sans-Serif" font-size="10.00">IERS</text>
</a>
</g>
</g>
<!-- Node7&#45;&gt;Node1 -->
<g id="edge5" class="edge">
<title>Node7&#45;&gt;Node1</title>
<path fill="none" stroke="#9a32cd" stroke-dasharray="5,2" d="M228.5,-68.22C228.5,-52.7 228.5,-31.36 228.5,-19.62"/>
<polygon fill="#9a32cd" stroke="#9a32cd" points="225,-68.28 228.5,-78.28 232,-68.28 225,-68.28"/>
<text text-anchor="middle" x="245.5" y="-46.5" font-family="Helvetica,sans-Serif" font-size="10.00"> mIERS</text>
</g>
<!-- Node8 -->
<g id="node7" class="node">
<title>Node8</title>
<g id="a_node7"><a xlink:href="structERP.html" target="_top" xlink:title=" ">
<polygon fill="white" stroke="black" points="332.5,-78.5 332.5,-97.5 368.5,-97.5 368.5,-78.5 332.5,-78.5"/>
<text text-anchor="middle" x="350.5" y="-85.5" font-family="Helvetica,sans-Serif" font-size="10.00">ERP</text>
</a>
</g>
</g>
<!-- Node8&#45;&gt;Node1 -->
<g id="edge6" class="edge">
<title>Node8&#45;&gt;Node1</title>
<path fill="none" stroke="#9a32cd" stroke-dasharray="5,2" d="M334.54,-71.57C323.19,-61.16 307.22,-47.62 291.5,-38 279.42,-30.61 264.96,-24.26 252.94,-19.57"/>
<polygon fill="#9a32cd" stroke="#9a32cd" points="332.24,-74.2 341.92,-78.5 337.03,-69.1 332.24,-74.2"/>
<text text-anchor="middle" x="336" y="-46.5" font-family="Helvetica,sans-Serif" font-size="10.00"> mERP</text>
</g>
<!-- Node9 -->
<g id="node8" class="node">
<title>Node9</title>
<g id="a_node8"><a xlink:title=" ">
<polygon fill="white" stroke="black" points="306,-156.5 306,-175.5 449,-175.5 449,-156.5 306,-156.5"/>
<text text-anchor="middle" x="377.5" y="-163.5" font-family="Helvetica,sans-Serif" font-size="10.00">std::map&lt; double, ERPData &gt;</text>
</a>
</g>
</g>
<!-- Node9&#45;&gt;Node8 -->
<g id="edge7" class="edge">
<title>Node9&#45;&gt;Node8</title>
<path fill="none" stroke="#9a32cd" stroke-dasharray="5,2" d="M370.99,-146.67C365.46,-131.11 357.77,-109.47 353.56,-97.62"/>
<polygon fill="#9a32cd" stroke="#9a32cd" points="367.76,-148.03 374.4,-156.28 374.35,-145.69 367.76,-148.03"/>
<text text-anchor="middle" x="385" y="-124.5" font-family="Helvetica,sans-Serif" font-size="10.00"> erpMap</text>
</g>
<!-- Node10 -->
<g id="node9" class="node">
<title>Node10</title>
<g id="a_node9"><a xlink:href="structERPData.html" target="_top" xlink:title="earth rotation parameter data type">
<polygon fill="white" stroke="black" points="265.5,-223.5 265.5,-242.5 321.5,-242.5 321.5,-223.5 265.5,-223.5"/>
<text text-anchor="middle" x="293.5" y="-230.5" font-family="Helvetica,sans-Serif" font-size="10.00">ERPData</text>
</a>
</g>
</g>
<!-- Node10&#45;&gt;Node1 -->
<g id="edge9" class="edge">
<title>Node10&#45;&gt;Node1</title>
<path fill="none" stroke="#9a32cd" stroke-dasharray="5,2" d="M295.02,-212.88C297.02,-176.22 296.97,-94.66 263.5,-38 258.97,-30.34 251.36,-24.07 244.39,-19.52"/>
<polygon fill="#9a32cd" stroke="#9a32cd" points="291.51,-212.91 294.34,-223.12 298.49,-213.37 291.51,-212.91"/>
<text text-anchor="middle" x="311.5" y="-124.5" font-family="Helvetica,sans-Serif" font-size="10.00"> mERPv</text>
</g>
<!-- Node10&#45;&gt;Node9 -->
<g id="edge8" class="edge">
<title>Node10&#45;&gt;Node9</title>
<path fill="none" stroke="#9a32cd" stroke-dasharray="5,2" d="M312.8,-217.07C329.38,-204.24 352.71,-186.19 366.35,-175.63"/>
<polygon fill="#9a32cd" stroke="#9a32cd" points="310.6,-214.35 304.83,-223.23 314.88,-219.88 310.6,-214.35"/>
<text text-anchor="middle" x="363" y="-197" font-family="Helvetica,sans-Serif" font-size="10.00"> elements</text>
</g>
</g>
</svg>
