<?xml version="1.0" encoding="UTF-8" standalone="no"?>
<!DOCTYPE svg PUBLIC "-//W3C//DTD SVG 1.1//EN"
 "http://www.w3.org/Graphics/SVG/1.1/DTD/svg11.dtd">
<!-- Generated by graphviz version 2.50.0 (20220203.2022)
 -->
<!-- Title: NtripStream Pages: 1 -->
<!--zoomable 268 -->
<svg id="main" version="1.1" xmlns="http://www.w3.org/2000/svg" xmlns:xlink="http://www.w3.org/1999/xlink" xml:space="preserve" onload="init(evt)">
<style type="text/css"><![CDATA[
.edge:hover path { stroke: red; }
.edge:hover polygon { stroke: red; fill: red; }
]]></style>
<script type="text/javascript"><![CDATA[
var edges = document.getElementsByTagName('g');
if (edges && edges.length) {
  for (var i=0;i<edges.length;i++) {
    if (edges[i].id.substr(0,4)=='edge') {
      edges[i].setAttribute('class','edge');
    }
  }
}
]]></script>
        <defs>
                <circle id="rim" cx="0" cy="0" r="7"/>
                <circle id="rim2" cx="0" cy="0" r="3.5"/>
                <g id="zoomPlus">
                        <use xlink:href="#rim" fill="#404040">
                                <set attributeName="fill" to="#808080" begin="zoomplus.mouseover" end="zoomplus.mouseout"/>
                        </use>
                        <path d="M-4,0h8M0,-4v8" fill="none" stroke="white" stroke-width="1.5" pointer-events="none"/>
                </g>
                <g id="zoomMin">
                        <use xlink:href="#rim" fill="#404040">
                                <set attributeName="fill" to="#808080" begin="zoomminus.mouseover" end="zoomminus.mouseout"/>
                        </use>
                        <path d="M-4,0h8" fill="none" stroke="white" stroke-width="1.5" pointer-events="none"/>
                </g>
                <g id="dirArrow">
                        <path fill="none" stroke="white" stroke-width="1.5" d="M0,-3.0v7 M-2.5,-0.5L0,-3.0L2.5,-0.5"/>
                </g>
               <g id="resetDef">
                       <use xlink:href="#rim2" fill="#404040">
                               <set attributeName="fill" to="#808080" begin="reset.mouseover" end="reset.mouseout"/>
                       </use>
               </g>
        </defs>

<script type="text/javascript">
var viewWidth = 655;
var viewHeight = 268;
var sectionId = 'dynsection-1';
</script>
<script xlink:href="svgpan.js"/>
<svg id="graph" class="graph">
<g id="viewport">
<title>NtripStream</title>
<polygon fill="white" stroke="transparent" points="-4,4 -4,-263.5 651,-263.5 651,4 -4,4"/>
<!-- Node1 -->
<g id="node1" class="node">
<title>Node1</title>
<g id="a_node1"><a xlink:title=" ">
<polygon fill="#bfbfbf" stroke="black" points="578,-98 578,-117 647,-117 647,-98 578,-98"/>
<text text-anchor="middle" x="612.5" y="-105" font-family="Helvetica,sans-Serif" font-size="10.00">NtripStream</text>
</a>
</g>
</g>
<!-- Node2 -->
<g id="node2" class="node">
<title>Node2</title>
<g id="a_node2"><a xlink:href="structNtripSocket.html" target="_top" xlink:title=" ">
<polygon fill="white" stroke="black" points="399.5,-123 399.5,-142 467.5,-142 467.5,-123 399.5,-123"/>
<text text-anchor="middle" x="433.5" y="-130" font-family="Helvetica,sans-Serif" font-size="10.00">NtripSocket</text>
</a>
</g>
</g>
<!-- Node2&#45;&gt;Node1 -->
<g id="edge1" class="edge">
<title>Node2&#45;&gt;Node1</title>
<path fill="none" stroke="midnightblue" d="M477.82,-126.38C508.61,-122.03 549.37,-116.28 577.76,-112.27"/>
<polygon fill="midnightblue" stroke="midnightblue" points="477.2,-122.93 467.79,-127.8 478.18,-129.86 477.2,-122.93"/>
</g>
<!-- Node3 -->
<g id="node3" class="node">
<title>Node3</title>
<g id="a_node3"><a xlink:href="structNetworkStatistics.html" target="_top" xlink:title=" ">
<polygon fill="white" stroke="red" points="200.5,-186 200.5,-205 295.5,-205 295.5,-186 200.5,-186"/>
<text text-anchor="middle" x="248" y="-193" font-family="Helvetica,sans-Serif" font-size="10.00">NetworkStatistics</text>
</a>
</g>
</g>
<!-- Node3&#45;&gt;Node2 -->
<g id="edge2" class="edge">
<title>Node3&#45;&gt;Node2</title>
<path fill="none" stroke="midnightblue" d="M298.88,-183.41C320.12,-177.78 345.01,-170.55 367,-162.5 383.09,-156.61 400.72,-148.43 413.63,-142.1"/>
<polygon fill="midnightblue" stroke="midnightblue" points="297.89,-180.05 289.1,-185.95 299.65,-186.82 297.89,-180.05"/>
</g>
<!-- Node4 -->
<g id="node4" class="node">
<title>Node4</title>
<g id="a_node4"><a xlink:title=" ">
<polygon fill="white" stroke="red" points="0,-195 0,-214 59,-214 59,-195 0,-195"/>
<text text-anchor="middle" x="29.5" y="-202" font-family="Helvetica,sans-Serif" font-size="10.00">std::string</text>
</a>
</g>
</g>
<!-- Node4&#45;&gt;Node2 -->
<g id="edge7" class="edge">
<title>Node4&#45;&gt;Node2</title>
<path fill="none" stroke="#9a32cd" stroke-dasharray="5,2" d="M54.32,-218.88C61.38,-222.41 69.28,-225.7 77,-227.5 173.24,-250 203.69,-240.66 299,-214.5 331.03,-205.71 338.59,-200.71 367,-183.5 387.46,-171.1 408.93,-153.34 421.49,-142.38"/>
<polygon fill="#9a32cd" stroke="#9a32cd" points="55.79,-215.7 45.33,-214.03 52.47,-221.86 55.79,-215.7"/>
<text text-anchor="middle" x="248" y="-251.5" font-family="Helvetica,sans-Serif" font-size="10.00"> request_string</text>
<text text-anchor="middle" x="248" y="-240.5" font-family="Helvetica,sans-Serif" font-size="10.00">response_string</text>
</g>
<!-- Node4&#45;&gt;Node3 -->
<g id="edge3" class="edge">
<title>Node4&#45;&gt;Node3</title>
<path fill="none" stroke="#9a32cd" stroke-dasharray="5,2" d="M69.55,-202.88C106.26,-201.35 161.25,-199.06 200.28,-197.44"/>
<polygon fill="#9a32cd" stroke="#9a32cd" points="69.1,-199.39 59.25,-203.3 69.39,-206.39 69.1,-199.39"/>
<text text-anchor="middle" x="128" y="-216.5" font-family="Helvetica,sans-Serif" font-size="10.00"> networkTraceFilename</text>
<text text-anchor="middle" x="128" y="-205.5" font-family="Helvetica,sans-Serif" font-size="10.00">streamName</text>
</g>
<!-- Node11 -->
<g id="node8" class="node">
<title>Node11</title>
<g id="a_node8"><a xlink:href="structURL.html" target="_top" xlink:title=" ">
<polygon fill="white" stroke="black" points="229.5,-148 229.5,-167 266.5,-167 266.5,-148 229.5,-148"/>
<text text-anchor="middle" x="248" y="-155" font-family="Helvetica,sans-Serif" font-size="10.00">URL</text>
</a>
</g>
</g>
<!-- Node4&#45;&gt;Node11 -->
<g id="edge9" class="edge">
<title>Node4&#45;&gt;Node11</title>
<path fill="none" stroke="#9a32cd" stroke-dasharray="5,2" d="M34.59,-185.03C40.17,-163.93 52.42,-131.31 77,-116.5 115.83,-93.1 138.03,-97.09 179,-116.5 190.42,-121.91 186.75,-131.12 197,-138.5 206.65,-145.45 219.15,-150.2 229.23,-153.21"/>
<polygon fill="#9a32cd" stroke="#9a32cd" points="31.16,-184.32 32.25,-194.85 37.97,-185.94 31.16,-184.32"/>
<text text-anchor="middle" x="128" y="-185.5" font-family="Helvetica,sans-Serif" font-size="10.00"> host</text>
<text text-anchor="middle" x="128" y="-174.5" font-family="Helvetica,sans-Serif" font-size="10.00">pass</text>
<text text-anchor="middle" x="128" y="-163.5" font-family="Helvetica,sans-Serif" font-size="10.00">path</text>
<text text-anchor="middle" x="128" y="-152.5" font-family="Helvetica,sans-Serif" font-size="10.00">port_str</text>
<text text-anchor="middle" x="128" y="-141.5" font-family="Helvetica,sans-Serif" font-size="10.00">protocol</text>
<text text-anchor="middle" x="128" y="-130.5" font-family="Helvetica,sans-Serif" font-size="10.00">url</text>
<text text-anchor="middle" x="128" y="-119.5" font-family="Helvetica,sans-Serif" font-size="10.00">user</text>
</g>
<!-- Node8 -->
<g id="node5" class="node">
<title>Node8</title>
<g id="a_node5"><a xlink:title=" ">
<polygon fill="white" stroke="black" points="197,-98.5 197,-128.5 299,-128.5 299,-98.5 197,-98.5"/>
<text text-anchor="start" x="205" y="-116.5" font-family="Helvetica,sans-Serif" font-size="10.00">std::shared_ptr&lt; tcp</text>
<text text-anchor="middle" x="248" y="-105.5" font-family="Helvetica,sans-Serif" font-size="10.00">::socket &gt;</text>
</a>
</g>
</g>
<!-- Node8&#45;&gt;Node2 -->
<g id="edge4" class="edge">
<title>Node8&#45;&gt;Node2</title>
<path fill="none" stroke="#9a32cd" stroke-dasharray="5,2" d="M309.2,-114.87C327.78,-115.75 348.28,-117.18 367,-119.5 377.58,-120.81 389.02,-122.86 399.33,-124.95"/>
<polygon fill="#9a32cd" stroke="#9a32cd" points="309.23,-111.37 299.09,-114.44 308.93,-118.37 309.23,-111.37"/>
<text text-anchor="middle" x="342" y="-122.5" font-family="Helvetica,sans-Serif" font-size="10.00"> _socket</text>
</g>
<!-- Node9 -->
<g id="node6" class="node">
<title>Node9</title>
<g id="a_node6"><a xlink:title=" ">
<polygon fill="white" stroke="black" points="197.5,-49.5 197.5,-79.5 298.5,-79.5 298.5,-49.5 197.5,-49.5"/>
<text text-anchor="start" x="205.5" y="-67.5" font-family="Helvetica,sans-Serif" font-size="10.00">std::shared_ptr&lt; ssl</text>
<text text-anchor="middle" x="248" y="-56.5" font-family="Helvetica,sans-Serif" font-size="10.00">_socket &gt;</text>
</a>
</g>
</g>
<!-- Node9&#45;&gt;Node2 -->
<g id="edge5" class="edge">
<title>Node9&#45;&gt;Node2</title>
<path fill="none" stroke="#9a32cd" stroke-dasharray="5,2" d="M308.4,-77.47C327.69,-82.89 348.79,-90.14 367,-99.5 376.01,-104.13 376.21,-108.46 385,-113.5 391.16,-117.04 398.11,-120.22 404.76,-122.92"/>
<polygon fill="#9a32cd" stroke="#9a32cd" points="309.08,-74.03 298.51,-74.81 307.25,-80.79 309.08,-74.03"/>
<text text-anchor="middle" x="342" y="-102.5" font-family="Helvetica,sans-Serif" font-size="10.00"> _sslsocket</text>
</g>
<!-- Node10 -->
<g id="node7" class="node">
<title>Node10</title>
<g id="a_node7"><a xlink:title=" ">
<polygon fill="white" stroke="black" points="197,-0.5 197,-30.5 299,-30.5 299,-0.5 197,-0.5"/>
<text text-anchor="start" x="205" y="-18.5" font-family="Helvetica,sans-Serif" font-size="10.00">std::shared_ptr&lt; tcp</text>
<text text-anchor="middle" x="248" y="-7.5" font-family="Helvetica,sans-Serif" font-size="10.00">::resolver &gt;</text>
</a>
</g>
</g>
<!-- Node10&#45;&gt;Node2 -->
<g id="edge6" class="edge">
<title>Node10&#45;&gt;Node2</title>
<path fill="none" stroke="#9a32cd" stroke-dasharray="5,2" d="M308.71,-30.85C329.37,-38.66 351.27,-50.09 367,-66.5 382.48,-82.65 369.3,-97.57 385,-113.5 388.99,-117.55 393.95,-120.76 399.15,-123.3"/>
<polygon fill="#9a32cd" stroke="#9a32cd" points="309.61,-27.46 299.01,-27.41 307.26,-34.05 309.61,-27.46"/>
<text text-anchor="middle" x="342" y="-69.5" font-family="Helvetica,sans-Serif" font-size="10.00"> _resolver</text>
</g>
<!-- Node11&#45;&gt;Node2 -->
<g id="edge8" class="edge">
<title>Node11&#45;&gt;Node2</title>
<path fill="none" stroke="#9a32cd" stroke-dasharray="5,2" d="M276.84,-153.71C309.67,-149.23 364.21,-141.8 399.24,-137.03"/>
<polygon fill="#9a32cd" stroke="#9a32cd" points="276.03,-150.28 266.59,-155.1 276.98,-157.22 276.03,-150.28"/>
<text text-anchor="middle" x="342" y="-150.5" font-family="Helvetica,sans-Serif" font-size="10.00"> url</text>
</g>
<!-- Node12 -->
<g id="node9" class="node">
<title>Node12</title>
<g id="a_node9"><a xlink:title=" ">
<polygon fill="white" stroke="black" points="385,-85 385,-104 482,-104 482,-85 385,-85"/>
<text text-anchor="middle" x="433.5" y="-92" font-family="Helvetica,sans-Serif" font-size="10.00">std::vector&lt; char &gt;</text>
</a>
</g>
</g>
<!-- Node12&#45;&gt;Node1 -->
<g id="edge10" class="edge">
<title>Node12&#45;&gt;Node1</title>
<path fill="none" stroke="#9a32cd" stroke-dasharray="5,2" d="M492.4,-97C513.68,-98.11 537.95,-99.6 560,-101.5 565.74,-101.99 571.83,-102.62 577.73,-103.27"/>
<polygon fill="#9a32cd" stroke="#9a32cd" points="492.39,-93.49 482.22,-96.48 492.03,-100.49 492.39,-93.49"/>
<text text-anchor="middle" x="530" y="-104.5" font-family="Helvetica,sans-Serif" font-size="10.00"> receivedData</text>
</g>
</g>
</svg>
        <g id="navigator" transform="translate(0 0)" fill="#404254">
                <rect fill="#f2f5e9" fill-opacity="0.5" stroke="#606060" stroke-width=".5" x="0" y="0" width="60" height="60"/>
                <use id="zoomplus" xlink:href="#zoomPlus" x="17" y="9" onmousedown="handleZoom(evt,'in')"/>
                <use id="zoomminus" xlink:href="#zoomMin" x="42" y="9" onmousedown="handleZoom(evt,'out')"/>
                <use id="reset" xlink:href="#resetDef" x="30" y="36" onmousedown="handleReset()"/>
                <g id="arrowUp" xlink:href="#dirArrow" transform="translate(30 24)" onmousedown="handlePan(0,-1)">
                  <use xlink:href="#rim" fill="#404040">
                        <set attributeName="fill" to="#808080" begin="arrowUp.mouseover" end="arrowUp.mouseout"/>
                  </use>
                  <path fill="none" stroke="white" stroke-width="1.5" d="M0,-3.0v7 M-2.5,-0.5L0,-3.0L2.5,-0.5"/>
                </g>
                <g id="arrowRight" xlink:href="#dirArrow" transform="rotate(90) translate(36 -43)" onmousedown="handlePan(1,0)">
                  <use xlink:href="#rim" fill="#404040">
                        <set attributeName="fill" to="#808080" begin="arrowRight.mouseover" end="arrowRight.mouseout"/>
                  </use>
                  <path fill="none" stroke="white" stroke-width="1.5" d="M0,-3.0v7 M-2.5,-0.5L0,-3.0L2.5,-0.5"/>
                </g>
                <g id="arrowDown" xlink:href="#dirArrow" transform="rotate(180) translate(-30 -48)" onmousedown="handlePan(0,1)">
                  <use xlink:href="#rim" fill="#404040">
                        <set attributeName="fill" to="#808080" begin="arrowDown.mouseover" end="arrowDown.mouseout"/>
                  </use>
                  <path fill="none" stroke="white" stroke-width="1.5" d="M0,-3.0v7 M-2.5,-0.5L0,-3.0L2.5,-0.5"/>
                </g>
                <g id="arrowLeft" xlink:href="#dirArrow" transform="rotate(270) translate(-36 17)" onmousedown="handlePan(-1,0)">
                  <use xlink:href="#rim" fill="#404040">
                        <set attributeName="fill" to="#808080" begin="arrowLeft.mouseover" end="arrowLeft.mouseout"/>
                  </use>
                  <path fill="none" stroke="white" stroke-width="1.5" d="M0,-3.0v7 M-2.5,-0.5L0,-3.0L2.5,-0.5"/>
                </g>
        </g>
        <svg viewBox="0 0 15 15" width="100%" height="30px" preserveAspectRatio="xMaxYMin meet">
         <g id="arrow_out" transform="scale(0.3 0.3)">
          <a xlink:href="structNtripStream__coll__graph_org.svg" target="_base">
           <rect id="button" ry="5" rx="5" y="6" x="6" height="38" width="38"
                fill="#f2f5e9" fill-opacity="0.5" stroke="#606060" stroke-width="1.0"/>
           <path id="arrow"
             d="M 11.500037,31.436501 C 11.940474,20.09759 22.043105,11.32322 32.158766,21.979434 L 37.068811,17.246167 C 37.068811,17.246167 37.088388,32 37.088388,32 L 22.160133,31.978069 C 22.160133,31.978069 26.997745,27.140456 26.997745,27.140456 C 18.528582,18.264221 13.291696,25.230495 11.500037,31.436501 z"
             style="fill:#404040;"/>
          </a>
         </g>
        </svg>
</svg>
