<?xml version="1.0" encoding="UTF-8" standalone="no"?>
<!DOCTYPE svg PUBLIC "-//W3C//DTD SVG 1.1//EN"
 "http://www.w3.org/Graphics/SVG/1.1/DTD/svg11.dtd">
<!-- Generated by graphviz version 2.50.0 (20220203.2022)
 -->
<!-- Title: ObsKey Pages: 1 -->
<svg width="243pt" height="117pt"
 viewBox="0.00 0.00 242.50 117.00" xmlns="http://www.w3.org/2000/svg" xmlns:xlink="http://www.w3.org/1999/xlink">
<g id="graph0" class="graph" transform="scale(1 1) rotate(0) translate(4 113)">
<title>ObsKey</title>
<polygon fill="white" stroke="transparent" points="-4,4 -4,-113 238.5,-113 238.5,4 -4,4"/>
<!-- Node1 -->
<g id="node1" class="node">
<title>Node1</title>
<g id="a_node1"><a xlink:title=" ">
<polygon fill="#bfbfbf" stroke="black" points="156.5,-6 156.5,-25 207.5,-25 207.5,-6 156.5,-6"/>
<text text-anchor="middle" x="182" y="-13" font-family="Helvetica,sans-Serif" font-size="10.00">ObsKey</text>
</a>
</g>
</g>
<!-- Node2 -->
<g id="node2" class="node">
<title>Node2</title>
<g id="a_node2"><a xlink:href="structSatSys.html" target="_top" xlink:title="Object holding satellite id, and providing related functions.">
<polygon fill="white" stroke="black" points="60,-89.5 60,-108.5 108,-108.5 108,-89.5 60,-89.5"/>
<text text-anchor="middle" x="84" y="-96.5" font-family="Helvetica,sans-Serif" font-size="10.00">SatSys</text>
</a>
</g>
</g>
<!-- Node2&#45;&gt;Node1 -->
<g id="edge1" class="edge">
<title>Node2&#45;&gt;Node1</title>
<path fill="none" stroke="#9a32cd" stroke-dasharray="5,2" d="M116.09,-85.23C124,-81.3 132.16,-76.53 139,-71 155.5,-57.67 169.64,-36.91 176.86,-25.23"/>
<polygon fill="#9a32cd" stroke="#9a32cd" points="114.61,-82.06 107.02,-89.45 117.56,-88.41 114.61,-82.06"/>
<text text-anchor="middle" x="170" y="-57.5" font-family="Helvetica,sans-Serif" font-size="10.00"> Sat</text>
</g>
<!-- Node3 -->
<g id="node3" class="node">
<title>Node3</title>
<g id="a_node3"><a xlink:title=" ">
<polygon fill="white" stroke="red" points="0,-0.5 0,-30.5 130,-30.5 130,-0.5 0,-0.5"/>
<text text-anchor="start" x="8" y="-18.5" font-family="Helvetica,sans-Serif" font-size="10.00">std::map&lt; SatSys, SatSys</text>
<text text-anchor="middle" x="65" y="-7.5" font-family="Helvetica,sans-Serif" font-size="10.00">::SatData &gt;</text>
</a>
</g>
</g>
<!-- Node2&#45;&gt;Node3 -->
<g id="edge3" class="edge">
<title>Node2&#45;&gt;Node3</title>
<path fill="none" stroke="#9a32cd" stroke-dasharray="5,2" d="M56.52,-83.46C52.28,-79.97 48.49,-75.82 46,-71 39.29,-58 46.41,-42.1 53.77,-30.84"/>
<polygon fill="#9a32cd" stroke="#9a32cd" points="54.8,-86.53 65,-89.39 58.81,-80.79 54.8,-86.53"/>
<text text-anchor="middle" x="57.5" y="-57.5" font-family="Helvetica,sans-Serif" font-size="10.00"> keys</text>
</g>
<!-- Node3&#45;&gt;Node2 -->
<g id="edge2" class="edge">
<title>Node3&#45;&gt;Node2</title>
<path fill="none" stroke="#9a32cd" stroke-dasharray="5,2" d="M70.62,-40.61C74.44,-57.01 79.28,-77.76 81.97,-89.28"/>
<polygon fill="#9a32cd" stroke="#9a32cd" points="73.97,-39.54 68.29,-30.6 67.15,-41.13 73.97,-39.54"/>
<text text-anchor="middle" x="106.5" y="-57.5" font-family="Helvetica,sans-Serif" font-size="10.00"> SatDataMap</text>
</g>
<!-- Node5 -->
<g id="node4" class="node">
<title>Node5</title>
<g id="a_node4"><a xlink:title=" ">
<polygon fill="white" stroke="red" points="175.5,-89.5 175.5,-108.5 234.5,-108.5 234.5,-89.5 175.5,-89.5"/>
<text text-anchor="middle" x="205" y="-96.5" font-family="Helvetica,sans-Serif" font-size="10.00">std::string</text>
</a>
</g>
</g>
<!-- Node5&#45;&gt;Node1 -->
<g id="edge4" class="edge">
<title>Node5&#45;&gt;Node1</title>
<path fill="none" stroke="#9a32cd" stroke-dasharray="5,2" d="M199.74,-79.36C194.94,-62.36 188.06,-37.99 184.44,-25.16"/>
<polygon fill="#9a32cd" stroke="#9a32cd" points="196.45,-80.6 202.54,-89.28 203.19,-78.7 196.45,-80.6"/>
<text text-anchor="middle" x="206.5" y="-63" font-family="Helvetica,sans-Serif" font-size="10.00"> str</text>
<text text-anchor="middle" x="206.5" y="-52" font-family="Helvetica,sans-Serif" font-size="10.00">type</text>
</g>
</g>
</svg>
