<?xml version="1.0" encoding="UTF-8" standalone="no"?>
<!DOCTYPE svg PUBLIC "-//W3C//DTD SVG 1.1//EN"
 "http://www.w3.org/Graphics/SVG/1.1/DTD/svg11.dtd">
<!-- Generated by graphviz version 2.50.0 (20220203.2022)
 -->
<!-- Title: Seph Pages: 1 -->
<svg width="314pt" height="128pt"
 viewBox="0.00 0.00 314.00 128.00" xmlns="http://www.w3.org/2000/svg" xmlns:xlink="http://www.w3.org/1999/xlink">
<g id="graph0" class="graph" transform="scale(1 1) rotate(0) translate(4 124)">
<title>Seph</title>
<polygon fill="white" stroke="transparent" points="-4,4 -4,-124 310,-124 310,4 -4,4"/>
<!-- Node1 -->
<g id="node1" class="node">
<title>Node1</title>
<g id="a_node1"><a xlink:title=" ">
<polygon fill="#bfbfbf" stroke="black" points="189.5,-6 189.5,-25 228.5,-25 228.5,-6 189.5,-6"/>
<text text-anchor="middle" x="209" y="-13" font-family="Helvetica,sans-Serif" font-size="10.00">Seph</text>
</a>
</g>
</g>
<!-- Node2 -->
<g id="node2" class="node">
<title>Node2</title>
<g id="a_node2"><a xlink:href="structSatSys.html" target="_top" xlink:title="Object holding satellite id, and providing related functions.">
<polygon fill="white" stroke="black" points="64,-100.5 64,-119.5 112,-119.5 112,-100.5 64,-100.5"/>
<text text-anchor="middle" x="88" y="-107.5" font-family="Helvetica,sans-Serif" font-size="10.00">SatSys</text>
</a>
</g>
</g>
<!-- Node2&#45;&gt;Node1 -->
<g id="edge1" class="edge">
<title>Node2&#45;&gt;Node1</title>
<path fill="none" stroke="#9a32cd" stroke-dasharray="5,2" d="M118.83,-96.05C126.99,-92.04 135.59,-87.28 143,-82 167.19,-64.77 190.7,-38.47 202.02,-25.04"/>
<polygon fill="#9a32cd" stroke="#9a32cd" points="117.12,-92.99 109.54,-100.39 120.08,-99.33 117.12,-92.99"/>
<text text-anchor="middle" x="189" y="-63" font-family="Helvetica,sans-Serif" font-size="10.00"> Sat</text>
</g>
<!-- Node3 -->
<g id="node3" class="node">
<title>Node3</title>
<g id="a_node3"><a xlink:title=" ">
<polygon fill="white" stroke="red" points="0,-0.5 0,-30.5 130,-30.5 130,-0.5 0,-0.5"/>
<text text-anchor="start" x="8" y="-18.5" font-family="Helvetica,sans-Serif" font-size="10.00">std::map&lt; SatSys, SatSys</text>
<text text-anchor="middle" x="65" y="-7.5" font-family="Helvetica,sans-Serif" font-size="10.00">::SatData &gt;</text>
</a>
</g>
</g>
<!-- Node2&#45;&gt;Node3 -->
<g id="edge3" class="edge">
<title>Node2&#45;&gt;Node3</title>
<path fill="none" stroke="#9a32cd" stroke-dasharray="5,2" d="M58.49,-94.88C53.87,-91.34 49.73,-87.06 47,-82 38.16,-65.6 47.09,-44.49 55.22,-30.74"/>
<polygon fill="#9a32cd" stroke="#9a32cd" points="56.82,-97.97 67.11,-100.49 60.64,-92.1 56.82,-97.97"/>
<text text-anchor="middle" x="58.5" y="-63" font-family="Helvetica,sans-Serif" font-size="10.00"> keys</text>
</g>
<!-- Node3&#45;&gt;Node2 -->
<g id="edge2" class="edge">
<title>Node3&#45;&gt;Node2</title>
<path fill="none" stroke="#9a32cd" stroke-dasharray="5,2" d="M70.97,-40.52C75.87,-60.21 82.52,-86.97 85.88,-100.46"/>
<polygon fill="#9a32cd" stroke="#9a32cd" points="74.34,-39.56 68.53,-30.7 67.55,-41.25 74.34,-39.56"/>
<text text-anchor="middle" x="110.5" y="-63" font-family="Helvetica,sans-Serif" font-size="10.00"> SatDataMap</text>
</g>
<!-- Node7 -->
<g id="node4" class="node">
<title>Node7</title>
<g id="a_node4"><a xlink:href="structGTime.html" target="_top" xlink:title="Time structure used throughout this software.">
<polygon fill="white" stroke="black" points="186,-100.5 186,-119.5 232,-119.5 232,-100.5 186,-100.5"/>
<text text-anchor="middle" x="209" y="-107.5" font-family="Helvetica,sans-Serif" font-size="10.00">GTime</text>
</a>
</g>
</g>
<!-- Node7&#45;&gt;Node1 -->
<g id="edge4" class="edge">
<title>Node7&#45;&gt;Node1</title>
<path fill="none" stroke="#9a32cd" stroke-dasharray="5,2" d="M209,-90.44C209,-70.54 209,-39.8 209,-25.02"/>
<polygon fill="#9a32cd" stroke="#9a32cd" points="205.5,-90.46 209,-100.46 212.5,-90.46 205.5,-90.46"/>
<text text-anchor="middle" x="215" y="-68.5" font-family="Helvetica,sans-Serif" font-size="10.00"> t0</text>
<text text-anchor="middle" x="215" y="-57.5" font-family="Helvetica,sans-Serif" font-size="10.00">tof</text>
</g>
<!-- Node8 -->
<g id="node5" class="node">
<title>Node8</title>
<g id="a_node5"><a xlink:title=" ">
<polygon fill="white" stroke="black" points="250,-100.5 250,-119.5 306,-119.5 306,-100.5 250,-100.5"/>
<text text-anchor="middle" x="278" y="-107.5" font-family="Helvetica,sans-Serif" font-size="10.00">Vector3d</text>
</a>
</g>
</g>
<!-- Node8&#45;&gt;Node1 -->
<g id="edge5" class="edge">
<title>Node8&#45;&gt;Node1</title>
<path fill="none" stroke="#9a32cd" stroke-dasharray="5,2" d="M265.58,-92.35C250.82,-72.56 226.74,-40.28 215.35,-25.02"/>
<polygon fill="#9a32cd" stroke="#9a32cd" points="262.85,-94.54 271.63,-100.46 268.46,-90.36 262.85,-94.54"/>
<text text-anchor="middle" x="266.5" y="-74" font-family="Helvetica,sans-Serif" font-size="10.00"> acc</text>
<text text-anchor="middle" x="266.5" y="-63" font-family="Helvetica,sans-Serif" font-size="10.00">pos</text>
<text text-anchor="middle" x="266.5" y="-52" font-family="Helvetica,sans-Serif" font-size="10.00">vel</text>
</g>
</g>
</svg>
