<?xml version="1.0" encoding="UTF-8" standalone="no"?>
<!DOCTYPE svg PUBLIC "-//W3C//DTD SVG 1.1//EN"
 "http://www.w3.org/Graphics/SVG/1.1/DTD/svg11.dtd">
<!-- Generated by graphviz version 2.50.0 (20220203.2022)
 -->
<!-- Title: TestStack::printStatus Pages: 1 -->
<svg width="407pt" height="66pt"
 viewBox="0.00 0.00 407.00 66.00" xmlns="http://www.w3.org/2000/svg" xmlns:xlink="http://www.w3.org/1999/xlink">
<g id="graph0" class="graph" transform="scale(1 1) rotate(0) translate(4 62)">
<title>TestStack::printStatus</title>
<polygon fill="white" stroke="transparent" points="-4,4 -4,-62 403,-62 403,4 -4,4"/>
<!-- Node1 -->
<g id="node1" class="node">
<title>Node1</title>
<g id="a_node1"><a xlink:title="Print the status of completed (passed/failed) and remaining tests.">
<polygon fill="#bfbfbf" stroke="black" points="286,-19.5 286,-38.5 399,-38.5 399,-19.5 286,-19.5"/>
<text text-anchor="middle" x="342.5" y="-26.5" font-family="Helvetica,sans-Serif" font-size="10.00">TestStack::printStatus</text>
</a>
</g>
</g>
<!-- Node2 -->
<g id="node2" class="node">
<title>Node2</title>
<g id="a_node2"><a xlink:href="main_8cpp.html#a93c49123b4afe8e199430439fd682acd" target="_top" xlink:title=" ">
<polygon fill="white" stroke="black" points="141,-38.5 141,-57.5 248,-57.5 248,-38.5 141,-38.5"/>
<text text-anchor="middle" x="194.5" y="-45.5" font-family="Helvetica,sans-Serif" font-size="10.00">mainPostProcessing</text>
</a>
</g>
</g>
<!-- Node1&#45;&gt;Node2 -->
<g id="edge1" class="edge">
<title>Node1&#45;&gt;Node2</title>
<path fill="none" stroke="midnightblue" d="M275.88,-37.54C266.57,-38.75 257.09,-39.98 248.07,-41.16"/>
<polygon fill="midnightblue" stroke="midnightblue" points="276.42,-41 285.89,-36.24 275.52,-34.06 276.42,-41"/>
</g>
<!-- Node3 -->
<g id="node3" class="node">
<title>Node3</title>
<g id="a_node3"><a xlink:href="structTestStack.html#ad976294a460b5e90bbf08699ef98a2d1" target="_top" xlink:title="Get current status of test set.">
<polygon fill="white" stroke="black" points="139,-0.5 139,-19.5 250,-19.5 250,-0.5 139,-0.5"/>
<text text-anchor="middle" x="194.5" y="-7.5" font-family="Helvetica,sans-Serif" font-size="10.00">TestStack::testStatus</text>
</a>
</g>
</g>
<!-- Node1&#45;&gt;Node3 -->
<g id="edge2" class="edge">
<title>Node1&#45;&gt;Node3</title>
<path fill="none" stroke="midnightblue" d="M275.7,-20.44C267.27,-19.34 258.71,-18.23 250.48,-17.15"/>
<polygon fill="midnightblue" stroke="midnightblue" points="275.52,-23.94 285.89,-21.76 276.42,-17 275.52,-23.94"/>
</g>
<!-- Node4 -->
<g id="node4" class="node">
<title>Node4</title>
<g id="a_node4"><a xlink:href="main_8cpp.html#a30c68344d30ddfe1e926f8472b86f094" target="_top" xlink:title=" ">
<polygon fill="white" stroke="black" points="0,-0.5 0,-19.5 103,-19.5 103,-0.5 0,-0.5"/>
<text text-anchor="middle" x="51.5" y="-7.5" font-family="Helvetica,sans-Serif" font-size="10.00">mainOncePerEpoch</text>
</a>
</g>
</g>
<!-- Node3&#45;&gt;Node4 -->
<g id="edge3" class="edge">
<title>Node3&#45;&gt;Node4</title>
<path fill="none" stroke="midnightblue" d="M128.93,-10C120.29,-10 111.53,-10 103.17,-10"/>
<polygon fill="midnightblue" stroke="midnightblue" points="128.99,-13.5 138.99,-10 128.99,-6.5 128.99,-13.5"/>
</g>
</g>
</svg>
