<?xml version="1.0" encoding="UTF-8" standalone="no"?>
<!DOCTYPE svg PUBLIC "-//W3C//DTD SVG 1.1//EN"
 "http://www.w3.org/Graphics/SVG/1.1/DTD/svg11.dtd">
<!-- Generated by graphviz version 2.50.0 (20220203.2022)
 -->
<!-- Title: ionomodel_t Pages: 1 -->
<svg width="206pt" height="162pt"
 viewBox="0.00 0.00 206.00 162.00" xmlns="http://www.w3.org/2000/svg" xmlns:xlink="http://www.w3.org/1999/xlink">
<g id="graph0" class="graph" transform="scale(1 1) rotate(0) translate(4 158)">
<title>ionomodel_t</title>
<polygon fill="white" stroke="transparent" points="-4,4 -4,-158 202,-158 202,4 -4,4"/>
<!-- Node1 -->
<g id="node1" class="node">
<title>Node1</title>
<g id="a_node1"><a xlink:title=" ">
<polygon fill="#bfbfbf" stroke="black" points="30.5,-0.5 30.5,-19.5 99.5,-19.5 99.5,-0.5 30.5,-0.5"/>
<text text-anchor="middle" x="65" y="-7.5" font-family="Helvetica,sans-Serif" font-size="10.00">ionomodel_t</text>
</a>
</g>
</g>
<!-- Node2 -->
<g id="node2" class="node">
<title>Node2</title>
<g id="a_node2"><a xlink:href="structGTime.html" target="_top" xlink:title="Time structure used throughout this software.">
<polygon fill="white" stroke="black" points="0,-67.5 0,-86.5 46,-86.5 46,-67.5 0,-67.5"/>
<text text-anchor="middle" x="23" y="-74.5" font-family="Helvetica,sans-Serif" font-size="10.00">GTime</text>
</a>
</g>
</g>
<!-- Node2&#45;&gt;Node1 -->
<g id="edge1" class="edge">
<title>Node2&#45;&gt;Node1</title>
<path fill="none" stroke="#9a32cd" stroke-dasharray="5,2" d="M33.12,-58.72C37.04,-52.17 41.64,-44.68 46,-38 50.01,-31.86 54.76,-25.11 58.51,-19.89"/>
<polygon fill="#9a32cd" stroke="#9a32cd" points="30.03,-57.06 27.95,-67.44 36.06,-60.62 30.03,-57.06"/>
<text text-anchor="middle" x="66" y="-41" font-family="Helvetica,sans-Serif" font-size="10.00"> ion_time</text>
</g>
<!-- Node3 -->
<g id="node3" class="node">
<title>Node3</title>
<g id="a_node3"><a xlink:title=" ">
<polygon fill="white" stroke="black" points="64,-67.5 64,-86.5 198,-86.5 198,-67.5 64,-67.5"/>
<text text-anchor="middle" x="131" y="-74.5" font-family="Helvetica,sans-Serif" font-size="10.00">std::map&lt; E_Sys, Station &gt;</text>
</a>
</g>
</g>
<!-- Node3&#45;&gt;Node1 -->
<g id="edge2" class="edge">
<title>Node3&#45;&gt;Node1</title>
<path fill="none" stroke="#9a32cd" stroke-dasharray="5,2" d="M114.75,-60C101.81,-47.25 84.19,-29.89 73.76,-19.63"/>
<polygon fill="#9a32cd" stroke="#9a32cd" points="112.52,-62.71 122.1,-67.23 117.43,-57.72 112.52,-62.71"/>
<text text-anchor="middle" x="126" y="-41" font-family="Helvetica,sans-Serif" font-size="10.00"> refStations</text>
</g>
<!-- Node4 -->
<g id="node4" class="node">
<title>Node4</title>
<g id="a_node4"><a xlink:href="structStation.html" target="_top" xlink:title="Object to maintain receiver station data.">
<polygon fill="white" stroke="red" points="107.5,-134.5 107.5,-153.5 154.5,-153.5 154.5,-134.5 107.5,-134.5"/>
<text text-anchor="middle" x="131" y="-141.5" font-family="Helvetica,sans-Serif" font-size="10.00">Station</text>
</a>
</g>
</g>
<!-- Node4&#45;&gt;Node3 -->
<g id="edge3" class="edge">
<title>Node4&#45;&gt;Node3</title>
<path fill="none" stroke="#9a32cd" stroke-dasharray="5,2" d="M131,-124.04C131,-111.67 131,-96.12 131,-86.63"/>
<polygon fill="#9a32cd" stroke="#9a32cd" points="127.5,-124.23 131,-134.23 134.5,-124.23 127.5,-124.23"/>
<text text-anchor="middle" x="152.5" y="-108" font-family="Helvetica,sans-Serif" font-size="10.00"> elements</text>
</g>
</g>
</svg>
