<?xml version="1.0" encoding="UTF-8" standalone="no"?>
<!DOCTYPE svg PUBLIC "-//W3C//DTD SVG 1.1//EN"
 "http://www.w3.org/Graphics/SVG/1.1/DTD/svg11.dtd">
<!-- Generated by graphviz version 2.50.0 (20220203.2022)
 -->
<!-- Title: PseudoObsStream::getObs Pages: 1 -->
<svg width="314pt" height="104pt"
 viewBox="0.00 0.00 314.00 104.00" xmlns="http://www.w3.org/2000/svg" xmlns:xlink="http://www.w3.org/1999/xlink">
<g id="graph0" class="graph" transform="scale(1 1) rotate(0) translate(4 100)">
<title>PseudoObsStream::getObs</title>
<polygon fill="white" stroke="transparent" points="-4,4 -4,-100 310,-100 310,4 -4,4"/>
<!-- Node1 -->
<g id="node1" class="node">
<title>Node1</title>
<g id="a_node1"><a xlink:title="Return a list of observations from the stream, with a specified timestamp.">
<polygon fill="#bfbfbf" stroke="black" points="0,-38.5 0,-57.5 135,-57.5 135,-38.5 0,-38.5"/>
<text text-anchor="middle" x="67.5" y="-45.5" font-family="Helvetica,sans-Serif" font-size="10.00">PseudoObsStream::getObs</text>
</a>
</g>
</g>
<!-- Node2 -->
<g id="node2" class="node">
<title>Node2</title>
<g id="a_node2"><a xlink:href="structPseudoObsStream.html#af29d5f033f67ae611e909f9e1df0ca0a" target="_top" xlink:title="Remove some observations from memory.">
<polygon fill="white" stroke="black" points="171,-76.5 171,-95.5 306,-95.5 306,-76.5 171,-76.5"/>
<text text-anchor="middle" x="238.5" y="-83.5" font-family="Helvetica,sans-Serif" font-size="10.00">PseudoObsStream::eatObs</text>
</a>
</g>
</g>
<!-- Node1&#45;&gt;Node2 -->
<g id="edge1" class="edge">
<title>Node1&#45;&gt;Node2</title>
<path fill="none" stroke="midnightblue" d="M111.15,-57.59C133.65,-62.65 161.45,-68.9 185.24,-74.25"/>
<polygon fill="midnightblue" stroke="midnightblue" points="184.64,-77.7 195.16,-76.48 186.17,-70.87 184.64,-77.7"/>
</g>
<!-- Node3 -->
<g id="node3" class="node">
<title>Node3</title>
<g id="a_node3"><a xlink:href="structPseudoObsStream.html#a55786373f50f83b317a825b983a17610" target="_top" xlink:title="Return a list of observations from the stream.">
<polygon fill="white" stroke="black" points="171,-38.5 171,-57.5 306,-57.5 306,-38.5 171,-38.5"/>
<text text-anchor="middle" x="238.5" y="-45.5" font-family="Helvetica,sans-Serif" font-size="10.00">PseudoObsStream::getObs</text>
</a>
</g>
</g>
<!-- Node1&#45;&gt;Node3 -->
<g id="edge2" class="edge">
<title>Node1&#45;&gt;Node3</title>
<path fill="none" stroke="midnightblue" d="M135.29,-48C143.62,-48 152.19,-48 160.66,-48"/>
<polygon fill="midnightblue" stroke="midnightblue" points="160.92,-51.5 170.92,-48 160.92,-44.5 160.92,-51.5"/>
</g>
<!-- Node4 -->
<g id="node4" class="node">
<title>Node4</title>
<g id="a_node4"><a xlink:href="structGTime.html#aaa8a379d11cd6c040a6bbe680c0e913e" target="_top" xlink:title="Uninitialised time for comparisons.">
<polygon fill="white" stroke="black" points="197,-0.5 197,-19.5 280,-19.5 280,-0.5 197,-0.5"/>
<text text-anchor="middle" x="238.5" y="-7.5" font-family="Helvetica,sans-Serif" font-size="10.00">GTime::noTime</text>
</a>
</g>
</g>
<!-- Node1&#45;&gt;Node4 -->
<g id="edge3" class="edge">
<title>Node1&#45;&gt;Node4</title>
<path fill="none" stroke="midnightblue" d="M111.15,-38.41C134.16,-33.24 162.72,-26.81 186.86,-21.39"/>
<polygon fill="midnightblue" stroke="midnightblue" points="187.92,-24.74 196.91,-19.13 186.38,-17.91 187.92,-24.74"/>
</g>
</g>
</svg>
