<?xml version="1.0" encoding="UTF-8" standalone="no"?>
<!DOCTYPE svg PUBLIC "-//W3C//DTD SVG 1.1//EN"
 "http://www.w3.org/Graphics/SVG/1.1/DTD/svg11.dtd">
<!-- Generated by graphviz version 2.50.0 (20220203.2022)
 -->
<!-- Title: Solution Pages: 1 -->
<!--zoomable 557 -->
<svg id="main" version="1.1" xmlns="http://www.w3.org/2000/svg" xmlns:xlink="http://www.w3.org/1999/xlink" xml:space="preserve" onload="init(evt)">
<style type="text/css"><![CDATA[
.edge:hover path { stroke: red; }
.edge:hover polygon { stroke: red; fill: red; }
]]></style>
<script type="text/javascript"><![CDATA[
var edges = document.getElementsByTagName('g');
if (edges && edges.length) {
  for (var i=0;i<edges.length;i++) {
    if (edges[i].id.substr(0,4)=='edge') {
      edges[i].setAttribute('class','edge');
    }
  }
}
]]></script>
        <defs>
                <circle id="rim" cx="0" cy="0" r="7"/>
                <circle id="rim2" cx="0" cy="0" r="3.5"/>
                <g id="zoomPlus">
                        <use xlink:href="#rim" fill="#404040">
                                <set attributeName="fill" to="#808080" begin="zoomplus.mouseover" end="zoomplus.mouseout"/>
                        </use>
                        <path d="M-4,0h8M0,-4v8" fill="none" stroke="white" stroke-width="1.5" pointer-events="none"/>
                </g>
                <g id="zoomMin">
                        <use xlink:href="#rim" fill="#404040">
                                <set attributeName="fill" to="#808080" begin="zoomminus.mouseover" end="zoomminus.mouseout"/>
                        </use>
                        <path d="M-4,0h8" fill="none" stroke="white" stroke-width="1.5" pointer-events="none"/>
                </g>
                <g id="dirArrow">
                        <path fill="none" stroke="white" stroke-width="1.5" d="M0,-3.0v7 M-2.5,-0.5L0,-3.0L2.5,-0.5"/>
                </g>
               <g id="resetDef">
                       <use xlink:href="#rim2" fill="#404040">
                               <set attributeName="fill" to="#808080" begin="reset.mouseover" end="reset.mouseout"/>
                       </use>
               </g>
        </defs>

<script type="text/javascript">
var viewWidth = 792;
var viewHeight = 557;
var sectionId = 'dynsection-0';
</script>
<script xlink:href="svgpan.js"/>
<svg id="graph" class="graph">
<g id="viewport">
<title>Solution</title>
<polygon fill="white" stroke="transparent" points="-4,4 -4,-552.64 788,-552.64 788,4 -4,4"/>
<!-- Node1 -->
<g id="node1" class="node">
<title>Node1</title>
<g id="a_node1"><a xlink:title="Solution of user mode processing functinos.">
<polygon fill="#bfbfbf" stroke="black" points="732,-259.69 732,-278.69 784,-278.69 784,-259.69 732,-259.69"/>
<text text-anchor="middle" x="758" y="-266.69" font-family="Helvetica,sans-Serif" font-size="10.00">Solution</text>
</a>
</g>
</g>
<!-- Node2 -->
<g id="node2" class="node">
<title>Node2</title>
<g id="a_node2"><a xlink:href="structGTime.html" target="_top" xlink:title="Time structure used throughout this software.">
<polygon fill="white" stroke="black" points="265.5,-525.69 265.5,-544.69 311.5,-544.69 311.5,-525.69 265.5,-525.69"/>
<text text-anchor="middle" x="288.5" y="-532.69" font-family="Helvetica,sans-Serif" font-size="10.00">GTime</text>
</a>
</g>
</g>
<!-- Node2&#45;&gt;Node1 -->
<g id="edge1" class="edge">
<title>Node2&#45;&gt;Node1</title>
<path fill="none" stroke="#9a32cd" stroke-dasharray="5,2" d="M321.89,-542.06C360.96,-548.79 427.87,-555.27 480,-534.19 617.28,-478.68 725.18,-319.48 751.06,-278.76"/>
<polygon fill="#9a32cd" stroke="#9a32cd" points="322.12,-538.54 311.65,-540.18 320.85,-545.43 322.12,-538.54"/>
<text text-anchor="middle" x="555" y="-527.19" font-family="Helvetica,sans-Serif" font-size="10.00"> time</text>
</g>
<!-- Node4 -->
<g id="node4" class="node">
<title>Node4</title>
<g id="a_node4"><a xlink:href="structKFState.html" target="_top" xlink:title="Kalman filter object.">
<polygon fill="white" stroke="black" points="528.5,-278.69 528.5,-297.69 581.5,-297.69 581.5,-278.69 528.5,-278.69"/>
<text text-anchor="middle" x="555" y="-285.69" font-family="Helvetica,sans-Serif" font-size="10.00">KFState</text>
</a>
</g>
</g>
<!-- Node2&#45;&gt;Node4 -->
<g id="edge4" class="edge">
<title>Node2&#45;&gt;Node4</title>
<path fill="none" stroke="#9a32cd" stroke-dasharray="5,2" d="M321.64,-530.19C372.78,-521.98 468.15,-505.53 480,-495.19 542.13,-441 552.1,-330.89 553.69,-297.8"/>
<polygon fill="#9a32cd" stroke="#9a32cd" points="321.07,-526.74 311.74,-531.77 322.17,-533.65 321.07,-526.74"/>
<text text-anchor="middle" x="431.5" y="-522.19" font-family="Helvetica,sans-Serif" font-size="10.00"> time</text>
</g>
<!-- Node3 -->
<g id="node3" class="node">
<title>Node3</title>
<g id="a_node3"><a xlink:title=" ">
<polygon fill="white" stroke="black" points="498,-220.69 498,-239.69 612,-239.69 612,-220.69 498,-220.69"/>
<text text-anchor="middle" x="555" y="-227.69" font-family="Helvetica,sans-Serif" font-size="10.00">std::map&lt; int, double &gt;</text>
</a>
</g>
</g>
<!-- Node3&#45;&gt;Node1 -->
<g id="edge2" class="edge">
<title>Node3&#45;&gt;Node1</title>
<path fill="none" stroke="#9a32cd" stroke-dasharray="5,2" d="M607.88,-219.12C639.66,-214.75 680.53,-213.55 714,-227.19 730.04,-233.72 743.36,-249.44 750.74,-259.69"/>
<polygon fill="#9a32cd" stroke="#9a32cd" points="607.26,-215.67 597.9,-220.63 608.31,-222.59 607.26,-215.67"/>
<text text-anchor="middle" x="672" y="-274.19" font-family="Helvetica,sans-Serif" font-size="10.00"> deltaDt_net_old</text>
<text text-anchor="middle" x="672" y="-263.19" font-family="Helvetica,sans-Serif" font-size="10.00">dtRec_m</text>
<text text-anchor="middle" x="672" y="-252.19" font-family="Helvetica,sans-Serif" font-size="10.00">dtRec_m_ppp_old</text>
<text text-anchor="middle" x="672" y="-241.19" font-family="Helvetica,sans-Serif" font-size="10.00">dtRec_m_pppp_old</text>
<text text-anchor="middle" x="672" y="-230.19" font-family="Helvetica,sans-Serif" font-size="10.00">pppdtRec_m</text>
</g>
<!-- Node4&#45;&gt;Node1 -->
<g id="edge3" class="edge">
<title>Node4&#45;&gt;Node1</title>
<path fill="none" stroke="#9a32cd" stroke-dasharray="5,2" d="M592.03,-291.41C624.31,-293.43 672.77,-294.31 714,-286.19 721.88,-284.64 730.16,-281.7 737.33,-278.7"/>
<polygon fill="#9a32cd" stroke="#9a32cd" points="591.96,-287.9 581.74,-290.69 591.48,-294.88 591.96,-287.9"/>
<text text-anchor="middle" x="672" y="-295.19" font-family="Helvetica,sans-Serif" font-size="10.00"> sppState</text>
</g>
<!-- Node5 -->
<g id="node5" class="node">
<title>Node5</title>
<g id="a_node5"><a xlink:title=" ">
<polygon fill="white" stroke="black" points="260,-469.69 260,-488.69 317,-488.69 317,-469.69 260,-469.69"/>
<text text-anchor="middle" x="288.5" y="-476.69" font-family="Helvetica,sans-Serif" font-size="10.00">VectorXd</text>
</a>
</g>
</g>
<!-- Node5&#45;&gt;Node4 -->
<g id="edge5" class="edge">
<title>Node5&#45;&gt;Node4</title>
<path fill="none" stroke="#9a32cd" stroke-dasharray="5,2" d="M327.13,-476.32C375.65,-471.95 456.58,-462.17 480,-444.19 529.93,-405.85 547.74,-325.44 552.53,-297.78"/>
<polygon fill="#9a32cd" stroke="#9a32cd" points="326.67,-472.85 317.01,-477.2 327.27,-479.82 326.67,-472.85"/>
<text text-anchor="middle" x="431.5" y="-483.19" font-family="Helvetica,sans-Serif" font-size="10.00"> dx</text>
<text text-anchor="middle" x="431.5" y="-472.19" font-family="Helvetica,sans-Serif" font-size="10.00">x</text>
</g>
<!-- Node6 -->
<g id="node6" class="node">
<title>Node6</title>
<g id="a_node6"><a xlink:title=" ">
<polygon fill="white" stroke="black" points="261,-431.69 261,-450.69 316,-450.69 316,-431.69 261,-431.69"/>
<text text-anchor="middle" x="288.5" y="-438.69" font-family="Helvetica,sans-Serif" font-size="10.00">MatrixXd</text>
</a>
</g>
</g>
<!-- Node6&#45;&gt;Node4 -->
<g id="edge6" class="edge">
<title>Node6&#45;&gt;Node4</title>
<path fill="none" stroke="#9a32cd" stroke-dasharray="5,2" d="M326.08,-434.85C366.75,-426.41 432.89,-408.38 480,-374.19 510.45,-352.09 536.65,-315.09 548,-297.73"/>
<polygon fill="#9a32cd" stroke="#9a32cd" points="325.2,-431.46 316.07,-436.84 326.56,-438.32 325.2,-431.46"/>
<text text-anchor="middle" x="431.5" y="-432.19" font-family="Helvetica,sans-Serif" font-size="10.00"> P</text>
<text text-anchor="middle" x="431.5" y="-421.19" font-family="Helvetica,sans-Serif" font-size="10.00">Z</text>
</g>
<!-- Node7 -->
<g id="node7" class="node">
<title>Node7</title>
<g id="a_node7"><a xlink:title=" ">
<polygon fill="white" stroke="red" points="229.5,-382.19 229.5,-412.19 347.5,-412.19 347.5,-382.19 229.5,-382.19"/>
<text text-anchor="start" x="237.5" y="-400.19" font-family="Helvetica,sans-Serif" font-size="10.00">std::map&lt; KFKey, short</text>
<text text-anchor="middle" x="288.5" y="-389.19" font-family="Helvetica,sans-Serif" font-size="10.00"> int &gt;</text>
</a>
</g>
</g>
<!-- Node7&#45;&gt;Node4 -->
<g id="edge7" class="edge">
<title>Node7&#45;&gt;Node4</title>
<path fill="none" stroke="#9a32cd" stroke-dasharray="5,2" d="M338.99,-378.57C377.62,-363.83 432.52,-342.42 480,-322.19 498.47,-314.32 519.22,-304.72 534.03,-297.73"/>
<polygon fill="#9a32cd" stroke="#9a32cd" points="337.63,-375.34 329.53,-382.17 340.12,-381.88 337.63,-375.34"/>
<text text-anchor="middle" x="431.5" y="-362.19" font-family="Helvetica,sans-Serif" font-size="10.00"> kfIndexMap</text>
</g>
<!-- Node62 -->
<g id="node8" class="node">
<title>Node62</title>
<g id="a_node8"><a xlink:title=" ">
<polygon fill="white" stroke="red" points="231,-241.19 231,-271.19 346,-271.19 346,-241.19 231,-241.19"/>
<text text-anchor="start" x="239" y="-259.19" font-family="Helvetica,sans-Serif" font-size="10.00">std::map&lt; KFKey, map</text>
<text text-anchor="middle" x="288.5" y="-248.19" font-family="Helvetica,sans-Serif" font-size="10.00">&lt; KFKey, double &gt; &gt;</text>
</a>
</g>
</g>
<!-- Node62&#45;&gt;Node4 -->
<g id="edge8" class="edge">
<title>Node62&#45;&gt;Node4</title>
<path fill="none" stroke="#9a32cd" stroke-dasharray="5,2" d="M356.41,-264.28C412.23,-271.04 488.8,-280.3 528.22,-285.07"/>
<polygon fill="#9a32cd" stroke="#9a32cd" points="356.59,-260.78 346.24,-263.05 355.75,-267.73 356.59,-260.78"/>
<text text-anchor="middle" x="431.5" y="-281.19" font-family="Helvetica,sans-Serif" font-size="10.00"> ZTransitionMap</text>
</g>
<!-- Node63 -->
<g id="node9" class="node">
<title>Node63</title>
<g id="a_node9"><a xlink:title=" ">
<polygon fill="white" stroke="red" points="0,-272.69 0,-291.69 133,-291.69 133,-272.69 0,-272.69"/>
<text text-anchor="middle" x="66.5" y="-279.69" font-family="Helvetica,sans-Serif" font-size="10.00">std::map&lt; KFKey, double &gt;</text>
</a>
</g>
</g>
<!-- Node63&#45;&gt;Node4 -->
<g id="edge10" class="edge">
<title>Node63&#45;&gt;Node4</title>
<path fill="none" stroke="#9a32cd" stroke-dasharray="5,2" d="M143.27,-286.84C145.88,-286.96 148.46,-287.08 151,-287.19 297.11,-293.45 333.84,-298.12 480,-293.19 496.09,-292.65 514.11,-291.44 528.34,-290.35"/>
<polygon fill="#9a32cd" stroke="#9a32cd" points="143.29,-283.33 133.13,-286.33 142.94,-290.33 143.29,-283.33"/>
<text text-anchor="middle" x="288.5" y="-342.19" font-family="Helvetica,sans-Serif" font-size="10.00"> ZAdditionMap</text>
<text text-anchor="middle" x="288.5" y="-331.19" font-family="Helvetica,sans-Serif" font-size="10.00">gaussMarkovMuMap</text>
<text text-anchor="middle" x="288.5" y="-320.19" font-family="Helvetica,sans-Serif" font-size="10.00">gaussMarkovTauMap</text>
<text text-anchor="middle" x="288.5" y="-309.19" font-family="Helvetica,sans-Serif" font-size="10.00">initNoiseMap</text>
<text text-anchor="middle" x="288.5" y="-298.19" font-family="Helvetica,sans-Serif" font-size="10.00">procNoiseMap</text>
</g>
<!-- Node63&#45;&gt;Node62 -->
<g id="edge9" class="edge">
<title>Node63&#45;&gt;Node62</title>
<path fill="none" stroke="#9a32cd" stroke-dasharray="5,2" d="M143.2,-273.24C171.89,-269.85 204.03,-266.05 230.69,-262.9"/>
<polygon fill="#9a32cd" stroke="#9a32cd" points="142.73,-269.77 133.21,-274.42 143.55,-276.73 142.73,-269.77"/>
<text text-anchor="middle" x="172.5" y="-275.19" font-family="Helvetica,sans-Serif" font-size="10.00"> elements</text>
</g>
<!-- Node64 -->
<g id="node10" class="node">
<title>Node64</title>
<g id="a_node10"><a xlink:title=" ">
<polygon fill="white" stroke="red" points="228.5,-181.69 228.5,-222.69 348.5,-222.69 348.5,-181.69 228.5,-181.69"/>
<text text-anchor="start" x="236.5" y="-210.69" font-family="Helvetica,sans-Serif" font-size="10.00">std::map&lt; KFKey, map</text>
<text text-anchor="start" x="236.5" y="-199.69" font-family="Helvetica,sans-Serif" font-size="10.00">&lt; KFKey, tuple&lt; double,</text>
<text text-anchor="middle" x="288.5" y="-188.69" font-family="Helvetica,sans-Serif" font-size="10.00"> int &gt; &gt; &gt;</text>
</a>
</g>
</g>
<!-- Node64&#45;&gt;Node4 -->
<g id="edge11" class="edge">
<title>Node64&#45;&gt;Node4</title>
<path fill="none" stroke="#9a32cd" stroke-dasharray="5,2" d="M358.78,-217.55C395.33,-226.45 440.63,-238.74 480,-253.19 499.75,-260.43 521.39,-271 536.14,-278.63"/>
<polygon fill="#9a32cd" stroke="#9a32cd" points="359.25,-214.06 348.71,-215.13 357.62,-220.87 359.25,-214.06"/>
<text text-anchor="middle" x="431.5" y="-256.19" font-family="Helvetica,sans-Serif" font-size="10.00"> stateTransitionMap</text>
</g>
<!-- Node65 -->
<g id="node11" class="node">
<title>Node65</title>
<g id="a_node11"><a xlink:title=" ">
<polygon fill="white" stroke="red" points="219.5,-143.69 219.5,-162.69 357.5,-162.69 357.5,-143.69 219.5,-143.69"/>
<text text-anchor="middle" x="288.5" y="-150.69" font-family="Helvetica,sans-Serif" font-size="10.00">std::map&lt; ObsKey, double &gt;</text>
</a>
</g>
</g>
<!-- Node65&#45;&gt;Node4 -->
<g id="edge12" class="edge">
<title>Node65&#45;&gt;Node4</title>
<path fill="none" stroke="#9a32cd" stroke-dasharray="5,2" d="M367.75,-160.5C405.53,-167.63 449.22,-181.66 480,-209.19 494.53,-222.18 485.55,-234.19 498,-249.19 508.29,-261.59 523.45,-271.82 535.4,-278.69"/>
<polygon fill="#9a32cd" stroke="#9a32cd" points="368.24,-157.03 357.78,-158.75 367.03,-163.93 368.24,-157.03"/>
<text text-anchor="middle" x="431.5" y="-212.19" font-family="Helvetica,sans-Serif" font-size="10.00"> noiseElementMap</text>
</g>
<!-- Node67 -->
<g id="node12" class="node">
<title>Node67</title>
<g id="a_node12"><a xlink:title=" ">
<polygon fill="white" stroke="black" points="212.5,-105.69 212.5,-124.69 364.5,-124.69 364.5,-105.69 212.5,-105.69"/>
<text text-anchor="middle" x="288.5" y="-112.69" font-family="Helvetica,sans-Serif" font-size="10.00">std::list&lt; StateRejectCallback &gt;</text>
</a>
</g>
</g>
<!-- Node67&#45;&gt;Node4 -->
<g id="edge13" class="edge">
<title>Node67&#45;&gt;Node4</title>
<path fill="none" stroke="#9a32cd" stroke-dasharray="5,2" d="M375.05,-109.97C411.97,-112.38 452.84,-122.07 480,-149.19 511.96,-181.1 473.62,-211.18 498,-249.19 506.32,-262.15 520.63,-272.01 532.7,-278.57"/>
<polygon fill="#9a32cd" stroke="#9a32cd" points="374.91,-106.46 364.75,-109.48 374.57,-113.45 374.91,-106.46"/>
<text text-anchor="middle" x="431.5" y="-152.19" font-family="Helvetica,sans-Serif" font-size="10.00"> stateRejectCallbacks</text>
</g>
<!-- Node68 -->
<g id="node13" class="node">
<title>Node68</title>
<g id="a_node13"><a xlink:title=" ">
<polygon fill="white" stroke="black" points="212,-67.69 212,-86.69 365,-86.69 365,-67.69 212,-67.69"/>
<text text-anchor="middle" x="288.5" y="-74.69" font-family="Helvetica,sans-Serif" font-size="10.00">std::list&lt; MeasRejectCallback &gt;</text>
</a>
</g>
</g>
<!-- Node68&#45;&gt;Node4 -->
<g id="edge14" class="edge">
<title>Node68&#45;&gt;Node4</title>
<path fill="none" stroke="#9a32cd" stroke-dasharray="5,2" d="M342.56,-66.24C385.53,-60.73 444.55,-61.36 480,-96.19 504.42,-120.18 480.4,-219.82 498,-249.19 505.86,-262.3 520.01,-272.1 532.13,-278.6"/>
<polygon fill="#9a32cd" stroke="#9a32cd" points="341.96,-62.79 332.56,-67.67 342.95,-69.72 341.96,-62.79"/>
<text text-anchor="middle" x="431.5" y="-99.19" font-family="Helvetica,sans-Serif" font-size="10.00"> measRejectCallbacks</text>
</g>
<!-- Node12 -->
<g id="node14" class="node">
<title>Node12</title>
<g id="a_node14"><a xlink:title=" ">
<polygon fill="white" stroke="red" points="259,-13.69 259,-32.69 318,-32.69 318,-13.69 259,-13.69"/>
<text text-anchor="middle" x="288.5" y="-20.69" font-family="Helvetica,sans-Serif" font-size="10.00">std::string</text>
</a>
</g>
</g>
<!-- Node12&#45;&gt;Node4 -->
<g id="edge15" class="edge">
<title>Node12&#45;&gt;Node4</title>
<path fill="none" stroke="#9a32cd" stroke-dasharray="5,2" d="M326.84,-10.88C369.74,0.67 439.42,11.03 480,-27.19 516.03,-61.12 473.33,-206.28 498,-249.19 505.56,-262.34 519.56,-272.09 531.67,-278.55"/>
<polygon fill="#9a32cd" stroke="#9a32cd" points="325.73,-7.55 317.06,-13.65 327.64,-14.29 325.73,-7.55"/>
<text text-anchor="middle" x="431.5" y="-52.19" font-family="Helvetica,sans-Serif" font-size="10.00"> id</text>
<text text-anchor="middle" x="431.5" y="-41.19" font-family="Helvetica,sans-Serif" font-size="10.00">rts_filename</text>
<text text-anchor="middle" x="431.5" y="-30.19" font-family="Helvetica,sans-Serif" font-size="10.00">rts_forward_filename</text>
</g>
<!-- Node20 -->
<g id="node15" class="node">
<title>Node20</title>
<g id="a_node15"><a xlink:title=" ">
<polygon fill="white" stroke="black" points="527,-175.69 527,-194.69 583,-194.69 583,-175.69 527,-175.69"/>
<text text-anchor="middle" x="555" y="-182.69" font-family="Helvetica,sans-Serif" font-size="10.00">Vector3d</text>
</a>
</g>
</g>
<!-- Node20&#45;&gt;Node1 -->
<g id="edge16" class="edge">
<title>Node20&#45;&gt;Node1</title>
<path fill="none" stroke="#9a32cd" stroke-dasharray="5,2" d="M593.18,-176.54C627.22,-170.77 677.68,-167.82 714,-190.19 739.4,-205.83 750.83,-242.11 755,-259.52"/>
<polygon fill="#9a32cd" stroke="#9a32cd" points="592.37,-173.13 583.18,-178.4 593.65,-180.01 592.37,-173.13"/>
<text text-anchor="middle" x="672" y="-204.19" font-family="Helvetica,sans-Serif" font-size="10.00"> pppRRec</text>
<text text-anchor="middle" x="672" y="-193.19" font-family="Helvetica,sans-Serif" font-size="10.00">sppRRec</text>
</g>
</g>
</svg>
        <g id="navigator" transform="translate(0 0)" fill="#404254">
                <rect fill="#f2f5e9" fill-opacity="0.5" stroke="#606060" stroke-width=".5" x="0" y="0" width="60" height="60"/>
                <use id="zoomplus" xlink:href="#zoomPlus" x="17" y="9" onmousedown="handleZoom(evt,'in')"/>
                <use id="zoomminus" xlink:href="#zoomMin" x="42" y="9" onmousedown="handleZoom(evt,'out')"/>
                <use id="reset" xlink:href="#resetDef" x="30" y="36" onmousedown="handleReset()"/>
                <g id="arrowUp" xlink:href="#dirArrow" transform="translate(30 24)" onmousedown="handlePan(0,-1)">
                  <use xlink:href="#rim" fill="#404040">
                        <set attributeName="fill" to="#808080" begin="arrowUp.mouseover" end="arrowUp.mouseout"/>
                  </use>
                  <path fill="none" stroke="white" stroke-width="1.5" d="M0,-3.0v7 M-2.5,-0.5L0,-3.0L2.5,-0.5"/>
                </g>
                <g id="arrowRight" xlink:href="#dirArrow" transform="rotate(90) translate(36 -43)" onmousedown="handlePan(1,0)">
                  <use xlink:href="#rim" fill="#404040">
                        <set attributeName="fill" to="#808080" begin="arrowRight.mouseover" end="arrowRight.mouseout"/>
                  </use>
                  <path fill="none" stroke="white" stroke-width="1.5" d="M0,-3.0v7 M-2.5,-0.5L0,-3.0L2.5,-0.5"/>
                </g>
                <g id="arrowDown" xlink:href="#dirArrow" transform="rotate(180) translate(-30 -48)" onmousedown="handlePan(0,1)">
                  <use xlink:href="#rim" fill="#404040">
                        <set attributeName="fill" to="#808080" begin="arrowDown.mouseover" end="arrowDown.mouseout"/>
                  </use>
                  <path fill="none" stroke="white" stroke-width="1.5" d="M0,-3.0v7 M-2.5,-0.5L0,-3.0L2.5,-0.5"/>
                </g>
                <g id="arrowLeft" xlink:href="#dirArrow" transform="rotate(270) translate(-36 17)" onmousedown="handlePan(-1,0)">
                  <use xlink:href="#rim" fill="#404040">
                        <set attributeName="fill" to="#808080" begin="arrowLeft.mouseover" end="arrowLeft.mouseout"/>
                  </use>
                  <path fill="none" stroke="white" stroke-width="1.5" d="M0,-3.0v7 M-2.5,-0.5L0,-3.0L2.5,-0.5"/>
                </g>
        </g>
        <svg viewBox="0 0 15 15" width="100%" height="30px" preserveAspectRatio="xMaxYMin meet">
         <g id="arrow_out" transform="scale(0.3 0.3)">
          <a xlink:href="structSolution__coll__graph_org.svg" target="_base">
           <rect id="button" ry="5" rx="5" y="6" x="6" height="38" width="38"
                fill="#f2f5e9" fill-opacity="0.5" stroke="#606060" stroke-width="1.0"/>
           <path id="arrow"
             d="M 11.500037,31.436501 C 11.940474,20.09759 22.043105,11.32322 32.158766,21.979434 L 37.068811,17.246167 C 37.068811,17.246167 37.088388,32 37.088388,32 L 22.160133,31.978069 C 22.160133,31.978069 26.997745,27.140456 26.997745,27.140456 C 18.528582,18.264221 13.291696,25.230495 11.500037,31.436501 z"
             style="fill:#404040;"/>
          </a>
         </g>
        </svg>
</svg>
