<?xml version="1.0" encoding="UTF-8" standalone="no"?>
<!DOCTYPE svg PUBLIC "-//W3C//DTD SVG 1.1//EN"
 "http://www.w3.org/Graphics/SVG/1.1/DTD/svg11.dtd">
<!-- Generated by graphviz version 2.50.0 (20220203.2022)
 -->
<!-- Title: OrbitPropagator Pages: 1 -->
<svg width="820pt" height="420pt"
 viewBox="0.00 0.00 820.00 419.50" xmlns="http://www.w3.org/2000/svg" xmlns:xlink="http://www.w3.org/1999/xlink">
<g id="graph0" class="graph" transform="scale(1 1) rotate(0) translate(4 415.5)">
<title>OrbitPropagator</title>
<polygon fill="white" stroke="transparent" points="-4,4 -4,-415.5 816,-415.5 816,4 -4,4"/>
<!-- Node1 -->
<g id="node1" class="node">
<title>Node1</title>
<g id="a_node1"><a xlink:title=" ">
<polygon fill="#bfbfbf" stroke="black" points="727,-183 727,-202 812,-202 812,-183 727,-183"/>
<text text-anchor="middle" x="769.5" y="-190" font-family="Helvetica,sans-Serif" font-size="10.00">OrbitPropagator</text>
</a>
</g>
</g>
<!-- Node2 -->
<g id="node2" class="node">
<title>Node2</title>
<g id="a_node2"><a xlink:title=" ">
<polygon fill="white" stroke="black" points="505,-375 505,-394 564,-394 564,-375 505,-375"/>
<text text-anchor="middle" x="534.5" y="-382" font-family="Helvetica,sans-Serif" font-size="10.00">std::string</text>
</a>
</g>
</g>
<!-- Node2&#45;&gt;Node1 -->
<g id="edge1" class="edge">
<title>Node2&#45;&gt;Node1</title>
<path fill="none" stroke="#9a32cd" stroke-dasharray="5,2" d="M574.53,-389.6C612.99,-392.39 671.33,-390.33 709,-359.5 759.26,-318.37 767.09,-231.59 768.29,-202.35"/>
<polygon fill="#9a32cd" stroke="#9a32cd" points="574.5,-386.09 564.24,-388.71 573.9,-393.06 574.5,-386.09"/>
<text text-anchor="middle" x="660.5" y="-403.5" font-family="Helvetica,sans-Serif" font-size="10.00"> id</text>
<text text-anchor="middle" x="660.5" y="-392.5" font-family="Helvetica,sans-Serif" font-size="10.00">traceFilename</text>
</g>
<!-- Node3 -->
<g id="node3" class="node">
<title>Node3</title>
<g id="a_node3"><a xlink:title=" ">
<polygon fill="white" stroke="black" points="230,-369.5 230,-399.5 323,-399.5 323,-369.5 230,-369.5"/>
<text text-anchor="start" x="238" y="-387.5" font-family="Helvetica,sans-Serif" font-size="10.00">std::basic_string&lt;</text>
<text text-anchor="middle" x="276.5" y="-376.5" font-family="Helvetica,sans-Serif" font-size="10.00"> Char &gt;</text>
</a>
</g>
</g>
<!-- Node3&#45;&gt;Node2 -->
<g id="edge2" class="edge">
<title>Node3&#45;&gt;Node2</title>
<path fill="none" stroke="midnightblue" d="M333.5,-384.5C386.35,-384.5 463.47,-384.5 504.81,-384.5"/>
<polygon fill="midnightblue" stroke="midnightblue" points="333.27,-381 323.27,-384.5 333.27,-388 333.27,-381"/>
</g>
<!-- Node4 -->
<g id="node4" class="node">
<title>Node4</title>
<g id="a_node4"><a xlink:href="structPropOpt.html" target="_top" xlink:title=" ">
<polygon fill="white" stroke="black" points="508,-240 508,-259 561,-259 561,-240 508,-240"/>
<text text-anchor="middle" x="534.5" y="-247" font-family="Helvetica,sans-Serif" font-size="10.00">PropOpt</text>
</a>
</g>
</g>
<!-- Node4&#45;&gt;Node1 -->
<g id="edge3" class="edge">
<title>Node4&#45;&gt;Node1</title>
<path fill="none" stroke="#9a32cd" stroke-dasharray="5,2" d="M571.62,-245.97C607.15,-241.87 662.67,-233.76 709,-219.5 723.53,-215.03 739.15,-207.84 750.74,-202"/>
<polygon fill="#9a32cd" stroke="#9a32cd" points="570.82,-242.54 561.26,-247.12 571.59,-249.49 570.82,-242.54"/>
<text text-anchor="middle" x="660.5" y="-242.5" font-family="Helvetica,sans-Serif" font-size="10.00"> propOpt</text>
</g>
<!-- Node5 -->
<g id="node5" class="node">
<title>Node5</title>
<g id="a_node5"><a xlink:href="structEarthGravMdlOpt.html" target="_top" xlink:title=" ">
<polygon fill="white" stroke="black" points="230.5,-220 230.5,-239 322.5,-239 322.5,-220 230.5,-220"/>
<text text-anchor="middle" x="276.5" y="-227" font-family="Helvetica,sans-Serif" font-size="10.00">EarthGravMdlOpt</text>
</a>
</g>
</g>
<!-- Node5&#45;&gt;Node4 -->
<g id="edge4" class="edge">
<title>Node5&#45;&gt;Node4</title>
<path fill="none" stroke="#9a32cd" stroke-dasharray="5,2" d="M332.81,-233.82C387.01,-238.06 467.2,-244.32 507.86,-247.5"/>
<polygon fill="#9a32cd" stroke="#9a32cd" points="332.92,-230.32 322.68,-233.03 332.38,-237.3 332.92,-230.32"/>
<text text-anchor="middle" x="411.5" y="-245.5" font-family="Helvetica,sans-Serif" font-size="10.00"> optEarthGravMdl</text>
</g>
<!-- Node6 -->
<g id="node6" class="node">
<title>Node6</title>
<g id="a_node6"><a xlink:href="structEarthGravityDeg.html" target="_top" xlink:title=" ">
<polygon fill="white" stroke="black" points="0,-246 0,-265 87,-265 87,-246 0,-246"/>
<text text-anchor="middle" x="43.5" y="-253" font-family="Helvetica,sans-Serif" font-size="10.00">EarthGravityDeg</text>
</a>
</g>
</g>
<!-- Node6&#45;&gt;Node5 -->
<g id="edge5" class="edge">
<title>Node6&#45;&gt;Node5</title>
<path fill="none" stroke="#9a32cd" stroke-dasharray="5,2" d="M85.58,-243.46C92.03,-241.91 98.66,-240.51 105,-239.5 147.16,-232.76 195.84,-230.44 230.36,-229.7"/>
<polygon fill="#9a32cd" stroke="#9a32cd" points="84.47,-240.13 75.65,-245.99 86.2,-246.91 84.47,-240.13"/>
<text text-anchor="middle" x="146" y="-253.5" font-family="Helvetica,sans-Serif" font-size="10.00"> earthGravAccDeg</text>
<text text-anchor="middle" x="146" y="-242.5" font-family="Helvetica,sans-Serif" font-size="10.00">earthGravSTMDeg</text>
</g>
<!-- Node16 -->
<g id="node15" class="node">
<title>Node16</title>
<g id="a_node15"><a xlink:href="structGravityModel.html" target="_top" xlink:title="The gravity model of the central body.">
<polygon fill="white" stroke="black" points="497.5,-278 497.5,-297 571.5,-297 571.5,-278 497.5,-278"/>
<text text-anchor="middle" x="534.5" y="-285" font-family="Helvetica,sans-Serif" font-size="10.00">GravityModel</text>
</a>
</g>
</g>
<!-- Node6&#45;&gt;Node16 -->
<g id="edge15" class="edge">
<title>Node6&#45;&gt;Node16</title>
<path fill="none" stroke="#9a32cd" stroke-dasharray="5,2" d="M97.26,-260.85C99.88,-261.08 102.47,-261.3 105,-261.5 250.24,-273.1 423.55,-282.15 497.35,-285.77"/>
<polygon fill="#9a32cd" stroke="#9a32cd" points="97.4,-257.35 87.12,-259.93 96.76,-264.32 97.4,-257.35"/>
<text text-anchor="middle" x="276.5" y="-291.5" font-family="Helvetica,sans-Serif" font-size="10.00"> mEarthGravAccDeg</text>
<text text-anchor="middle" x="276.5" y="-280.5" font-family="Helvetica,sans-Serif" font-size="10.00">mEarthGravSTMDeg</text>
</g>
<!-- Node7 -->
<g id="node7" class="node">
<title>Node7</title>
<g id="a_node7"><a xlink:href="structSRPPara.html" target="_top" xlink:title=" ">
<polygon fill="white" stroke="black" points="248,-177 248,-196 305,-196 305,-177 248,-177"/>
<text text-anchor="middle" x="276.5" y="-184" font-family="Helvetica,sans-Serif" font-size="10.00">SRPPara</text>
</a>
</g>
</g>
<!-- Node7&#45;&gt;Node4 -->
<g id="edge6" class="edge">
<title>Node7&#45;&gt;Node4</title>
<path fill="none" stroke="#9a32cd" stroke-dasharray="5,2" d="M315.46,-190.86C352.33,-195.8 409.54,-205.34 457,-221.5 465.47,-224.38 466.72,-227.11 475,-230.5 485.57,-234.83 497.53,-238.86 507.86,-242.09"/>
<polygon fill="#9a32cd" stroke="#9a32cd" points="315.53,-187.34 305.16,-189.53 314.63,-194.28 315.53,-187.34"/>
<text text-anchor="middle" x="411.5" y="-224.5" font-family="Helvetica,sans-Serif" font-size="10.00"> paraSRP</text>
</g>
<!-- Node17 -->
<g id="node16" class="node">
<title>Node17</title>
<g id="a_node16"><a xlink:href="structSolarRadPressure.html" target="_top" xlink:title=" ">
<polygon fill="white" stroke="black" points="487,-202 487,-221 582,-221 582,-202 487,-202"/>
<text text-anchor="middle" x="534.5" y="-209" font-family="Helvetica,sans-Serif" font-size="10.00">SolarRadPressure</text>
</a>
</g>
</g>
<!-- Node7&#45;&gt;Node17 -->
<g id="edge18" class="edge">
<title>Node7&#45;&gt;Node17</title>
<path fill="none" stroke="#9a32cd" stroke-dasharray="5,2" d="M315.38,-179.75C352.19,-174.56 409.35,-170.15 457,-182.5 465.86,-184.8 466.61,-188.85 475,-192.5 483.03,-195.99 491.92,-199.2 500.29,-201.94"/>
<polygon fill="#9a32cd" stroke="#9a32cd" points="314.47,-176.35 305.1,-181.29 315.51,-183.27 314.47,-176.35"/>
<text text-anchor="middle" x="411.5" y="-185.5" font-family="Helvetica,sans-Serif" font-size="10.00"> mSRPPara</text>
</g>
<!-- Node8 -->
<g id="node8" class="node">
<title>Node8</title>
<g id="a_node8"><a xlink:href="structIERS.html" target="_top" xlink:title=" ">
<polygon fill="white" stroke="black" points="515,-164 515,-183 554,-183 554,-164 515,-164"/>
<text text-anchor="middle" x="534.5" y="-171" font-family="Helvetica,sans-Serif" font-size="10.00">IERS</text>
</a>
</g>
</g>
<!-- Node8&#45;&gt;Node1 -->
<g id="edge7" class="edge">
<title>Node8&#45;&gt;Node1</title>
<path fill="none" stroke="#9a32cd" stroke-dasharray="5,2" d="M564.41,-171.85C598.99,-170.37 658.53,-169.39 709,-176.5 718.85,-177.89 729.4,-180.38 738.83,-182.99"/>
<polygon fill="#9a32cd" stroke="#9a32cd" points="563.93,-168.37 554.1,-172.34 564.26,-175.36 563.93,-168.37"/>
<text text-anchor="middle" x="660.5" y="-179.5" font-family="Helvetica,sans-Serif" font-size="10.00"> iers</text>
</g>
<!-- Node9 -->
<g id="node9" class="node">
<title>Node9</title>
<g id="a_node9"><a xlink:href="structERP.html" target="_top" xlink:title=" ">
<polygon fill="white" stroke="black" points="516.5,-126 516.5,-145 552.5,-145 552.5,-126 516.5,-126"/>
<text text-anchor="middle" x="534.5" y="-133" font-family="Helvetica,sans-Serif" font-size="10.00">ERP</text>
</a>
</g>
</g>
<!-- Node9&#45;&gt;Node1 -->
<g id="edge8" class="edge">
<title>Node9&#45;&gt;Node1</title>
<path fill="none" stroke="#9a32cd" stroke-dasharray="5,2" d="M562.89,-135C597.79,-135.17 659.53,-138.25 709,-155.5 726.92,-161.75 745.09,-174.12 756.56,-182.83"/>
<polygon fill="#9a32cd" stroke="#9a32cd" points="562.54,-131.5 552.55,-135.03 562.56,-138.5 562.54,-131.5"/>
<text text-anchor="middle" x="660.5" y="-158.5" font-family="Helvetica,sans-Serif" font-size="10.00"> erp</text>
</g>
<!-- Node10 -->
<g id="node10" class="node">
<title>Node10</title>
<g id="a_node10"><a xlink:title=" ">
<polygon fill="white" stroke="red" points="205,-126 205,-145 348,-145 348,-126 205,-126"/>
<text text-anchor="middle" x="276.5" y="-133" font-family="Helvetica,sans-Serif" font-size="10.00">std::map&lt; double, ERPData &gt;</text>
</a>
</g>
</g>
<!-- Node10&#45;&gt;Node9 -->
<g id="edge9" class="edge">
<title>Node10&#45;&gt;Node9</title>
<path fill="none" stroke="#9a32cd" stroke-dasharray="5,2" d="M358.41,-135.5C414.41,-135.5 484.38,-135.5 516.25,-135.5"/>
<polygon fill="#9a32cd" stroke="#9a32cd" points="358.13,-132 348.13,-135.5 358.13,-139 358.13,-132"/>
<text text-anchor="middle" x="411.5" y="-138.5" font-family="Helvetica,sans-Serif" font-size="10.00"> erpMap</text>
</g>
<!-- Node12 -->
<g id="node11" class="node">
<title>Node12</title>
<g id="a_node11"><a xlink:href="structERPValues.html" target="_top" xlink:title=" ">
<polygon fill="white" stroke="black" points="501.5,-88 501.5,-107 567.5,-107 567.5,-88 501.5,-88"/>
<text text-anchor="middle" x="534.5" y="-95" font-family="Helvetica,sans-Serif" font-size="10.00">ERPValues</text>
</a>
</g>
</g>
<!-- Node12&#45;&gt;Node1 -->
<g id="edge10" class="edge">
<title>Node12&#45;&gt;Node1</title>
<path fill="none" stroke="#9a32cd" stroke-dasharray="5,2" d="M578.12,-95.09C614.98,-94.86 668.56,-99.12 709,-121.5 735.31,-136.06 754.93,-167.23 763.6,-182.98"/>
<polygon fill="#9a32cd" stroke="#9a32cd" points="577.65,-91.59 567.72,-95.27 577.78,-98.59 577.65,-91.59"/>
<text text-anchor="middle" x="660.5" y="-124.5" font-family="Helvetica,sans-Serif" font-size="10.00"> erpv</text>
</g>
<!-- Node13 -->
<g id="node12" class="node">
<title>Node13</title>
<g id="a_node12"><a xlink:href="structEGMCoef.html" target="_top" xlink:title="Struct to save Earth gravity coefficients.">
<polygon fill="white" stroke="black" points="247,-323 247,-342 306,-342 306,-323 247,-323"/>
<text text-anchor="middle" x="276.5" y="-330" font-family="Helvetica,sans-Serif" font-size="10.00">EGMCoef</text>
</a>
</g>
</g>
<!-- Node13&#45;&gt;Node1 -->
<g id="edge11" class="edge">
<title>Node13&#45;&gt;Node1</title>
<path fill="none" stroke="#9a32cd" stroke-dasharray="5,2" d="M316.3,-334.09C410,-337.18 645.61,-340.38 709,-297.5 743.71,-274.02 760.5,-223.14 766.19,-202"/>
<polygon fill="#9a32cd" stroke="#9a32cd" points="316.23,-330.58 306.11,-333.73 315.99,-337.58 316.23,-330.58"/>
<text text-anchor="middle" x="534.5" y="-337.5" font-family="Helvetica,sans-Serif" font-size="10.00"> egmCoef</text>
</g>
<!-- Node13&#45;&gt;Node16 -->
<g id="edge16" class="edge">
<title>Node13&#45;&gt;Node16</title>
<path fill="none" stroke="#9a32cd" stroke-dasharray="5,2" d="M316.11,-321.36C331.53,-317.2 349.51,-312.71 366,-309.5 410.91,-300.75 463.28,-294.49 497.35,-290.94"/>
<polygon fill="#9a32cd" stroke="#9a32cd" points="315.11,-318 306.39,-324.03 316.96,-324.75 315.11,-318"/>
<text text-anchor="middle" x="411.5" y="-323.5" font-family="Helvetica,sans-Serif" font-size="10.00"> correctedEgmCoef</text>
<text text-anchor="middle" x="411.5" y="-312.5" font-family="Helvetica,sans-Serif" font-size="10.00">uncorrectedEgmCoef</text>
</g>
<!-- Node14 -->
<g id="node13" class="node">
<title>Node14</title>
<g id="a_node13"><a xlink:title=" ">
<polygon fill="white" stroke="black" points="16,-323 16,-342 71,-342 71,-323 16,-323"/>
<text text-anchor="middle" x="43.5" y="-330" font-family="Helvetica,sans-Serif" font-size="10.00">MatrixXd</text>
</a>
</g>
</g>
<!-- Node14&#45;&gt;Node13 -->
<g id="edge12" class="edge">
<title>Node14&#45;&gt;Node13</title>
<path fill="none" stroke="#9a32cd" stroke-dasharray="5,2" d="M81.61,-332.5C127.67,-332.5 205.22,-332.5 246.92,-332.5"/>
<polygon fill="#9a32cd" stroke="#9a32cd" points="81.45,-329 71.45,-332.5 81.45,-336 81.45,-329"/>
<text text-anchor="middle" x="146" y="-346.5" font-family="Helvetica,sans-Serif" font-size="10.00"> cmn</text>
<text text-anchor="middle" x="146" y="-335.5" font-family="Helvetica,sans-Serif" font-size="10.00">smn</text>
</g>
<!-- Node15 -->
<g id="node14" class="node">
<title>Node15</title>
<g id="a_node14"><a xlink:title=" ">
<polygon fill="white" stroke="black" points="508,-50 508,-69 561,-69 561,-50 508,-50"/>
<text text-anchor="middle" x="534.5" y="-57" font-family="Helvetica,sans-Serif" font-size="10.00">Matrix3d</text>
</a>
</g>
</g>
<!-- Node15&#45;&gt;Node1 -->
<g id="edge13" class="edge">
<title>Node15&#45;&gt;Node1</title>
<path fill="none" stroke="#9a32cd" stroke-dasharray="5,2" d="M571.25,-51.7C608.83,-45.61 668.06,-42.16 709,-69.5 749.24,-96.38 763.13,-158.53 767.11,-182.66"/>
<polygon fill="#9a32cd" stroke="#9a32cd" points="570.5,-48.28 561.26,-53.47 571.72,-55.17 570.5,-48.28"/>
<text text-anchor="middle" x="660.5" y="-83.5" font-family="Helvetica,sans-Serif" font-size="10.00"> mECI2ECEF</text>
<text text-anchor="middle" x="660.5" y="-72.5" font-family="Helvetica,sans-Serif" font-size="10.00">mdECI2ECEF</text>
</g>
<!-- Node16&#45;&gt;Node1 -->
<g id="edge14" class="edge">
<title>Node16&#45;&gt;Node1</title>
<path fill="none" stroke="#9a32cd" stroke-dasharray="5,2" d="M581.88,-286.31C618.38,-283.63 669.51,-275.92 709,-254.5 732.61,-241.7 752.43,-216.25 762.12,-202.26"/>
<polygon fill="#9a32cd" stroke="#9a32cd" points="581.28,-282.84 571.52,-286.96 581.72,-289.83 581.28,-282.84"/>
<text text-anchor="middle" x="660.5" y="-285.5" font-family="Helvetica,sans-Serif" font-size="10.00"> gravityModel</text>
</g>
<!-- Node17&#45;&gt;Node1 -->
<g id="edge17" class="edge">
<title>Node17&#45;&gt;Node1</title>
<path fill="none" stroke="#9a32cd" stroke-dasharray="5,2" d="M592.06,-206.89C633.6,-203.5 689.1,-198.97 726.68,-195.91"/>
<polygon fill="#9a32cd" stroke="#9a32cd" points="591.77,-203.4 582.09,-207.7 592.34,-210.38 591.77,-203.4"/>
<text text-anchor="middle" x="660.5" y="-207.5" font-family="Helvetica,sans-Serif" font-size="10.00"> solarRadPressure</text>
</g>
<!-- Node18 -->
<g id="node17" class="node">
<title>Node18</title>
<g id="a_node17"><a xlink:title=" ">
<polygon fill="white" stroke="black" points="475,-0.5 475,-30.5 594,-30.5 594,-0.5 475,-0.5"/>
<text text-anchor="start" x="483" y="-18.5" font-family="Helvetica,sans-Serif" font-size="10.00">std::map&lt; E_ThirdBody,</text>
<text text-anchor="middle" x="534.5" y="-7.5" font-family="Helvetica,sans-Serif" font-size="10.00"> Vector3d &gt;</text>
</a>
</g>
</g>
<!-- Node18&#45;&gt;Node1 -->
<g id="edge19" class="edge">
<title>Node18&#45;&gt;Node1</title>
<path fill="none" stroke="#9a32cd" stroke-dasharray="5,2" d="M604.33,-6.08C639,-5.06 679.75,-9.98 709,-32.5 758.54,-70.65 766.84,-154.61 768.22,-182.94"/>
<polygon fill="#9a32cd" stroke="#9a32cd" points="604.09,-2.59 594.26,-6.54 604.41,-9.58 604.09,-2.59"/>
<text text-anchor="middle" x="660.5" y="-35.5" font-family="Helvetica,sans-Serif" font-size="10.00"> thirdBodyPositionMap</text>
</g>
<!-- Node19 -->
<g id="node18" class="node">
<title>Node19</title>
<g id="a_node18"><a xlink:title=" ">
<polygon fill="white" stroke="black" points="248.5,-6 248.5,-25 304.5,-25 304.5,-6 248.5,-6"/>
<text text-anchor="middle" x="276.5" y="-13" font-family="Helvetica,sans-Serif" font-size="10.00">Vector3d</text>
</a>
</g>
</g>
<!-- Node19&#45;&gt;Node18 -->
<g id="edge20" class="edge">
<title>Node19&#45;&gt;Node18</title>
<path fill="none" stroke="#9a32cd" stroke-dasharray="5,2" d="M314.97,-15.5C356.98,-15.5 425.64,-15.5 474.78,-15.5"/>
<polygon fill="#9a32cd" stroke="#9a32cd" points="314.9,-12 304.9,-15.5 314.9,-19 314.9,-12"/>
<text text-anchor="middle" x="411.5" y="-18.5" font-family="Helvetica,sans-Serif" font-size="10.00"> elements</text>
</g>
</g>
</svg>
