<?xml version="1.0" encoding="UTF-8" standalone="no"?>
<!DOCTYPE svg PUBLIC "-//W3C//DTD SVG 1.1//EN"
 "http://www.w3.org/Graphics/SVG/1.1/DTD/svg11.dtd">
<!-- Generated by graphviz version 2.50.0 (20220203.2022)
 -->
<!-- Title: nav_t Pages: 1 -->
<svg width="667pt" height="631pt"
 viewBox="0.00 0.00 667.00 631.00" xmlns="http://www.w3.org/2000/svg" xmlns:xlink="http://www.w3.org/1999/xlink">
<g id="graph0" class="graph" transform="scale(1 1) rotate(0) translate(4 627)">
<title>nav_t</title>
<polygon fill="white" stroke="transparent" points="-4,4 -4,-627 663,-627 663,4 -4,4"/>
<!-- Node1 -->
<g id="node1" class="node">
<title>Node1</title>
<g id="a_node1"><a xlink:title=" ">
<polygon fill="#bfbfbf" stroke="black" points="618,-270.5 618,-289.5 659,-289.5 659,-270.5 618,-270.5"/>
<text text-anchor="middle" x="638.5" y="-277.5" font-family="Helvetica,sans-Serif" font-size="10.00">nav_t</text>
</a>
</g>
</g>
<!-- Node2 -->
<g id="node2" class="node">
<title>Node2</title>
<g id="a_node2"><a xlink:title=" ">
<polygon fill="white" stroke="black" points="390,-581.5 390,-622.5 529,-622.5 529,-581.5 390,-581.5"/>
<text text-anchor="start" x="398" y="-610.5" font-family="Helvetica,sans-Serif" font-size="10.00">std::map&lt; string, map</text>
<text text-anchor="start" x="398" y="-599.5" font-family="Helvetica,sans-Serif" font-size="10.00">&lt; GTime, PhaseCenterData,</text>
<text text-anchor="middle" x="459.5" y="-588.5" font-family="Helvetica,sans-Serif" font-size="10.00"> std::greater&lt; GTime &gt; &gt; &gt;</text>
</a>
</g>
</g>
<!-- Node2&#45;&gt;Node1 -->
<g id="edge1" class="edge">
<title>Node2&#45;&gt;Node1</title>
<path fill="none" stroke="#9a32cd" stroke-dasharray="5,2" d="M539.01,-590.44C561.85,-583.28 584.73,-571.7 600,-553 633.89,-511.5 637.18,-333.61 637.48,-289.79"/>
<polygon fill="#9a32cd" stroke="#9a32cd" points="537.89,-587.12 529.24,-593.24 539.82,-593.84 537.89,-587.12"/>
<text text-anchor="middle" x="573.5" y="-590" font-family="Helvetica,sans-Serif" font-size="10.00"> pcMap</text>
</g>
<!-- Node3 -->
<g id="node3" class="node">
<title>Node3</title>
<g id="a_node3"><a xlink:title=" ">
<polygon fill="white" stroke="red" points="194,-543.5 194,-562.5 253,-562.5 253,-543.5 194,-543.5"/>
<text text-anchor="middle" x="223.5" y="-550.5" font-family="Helvetica,sans-Serif" font-size="10.00">std::string</text>
</a>
</g>
</g>
<!-- Node3&#45;&gt;Node2 -->
<g id="edge2" class="edge">
<title>Node3&#45;&gt;Node2</title>
<path fill="none" stroke="#9a32cd" stroke-dasharray="5,2" d="M263.29,-561.12C297.64,-568.32 348.58,-578.98 389.81,-587.62"/>
<polygon fill="#9a32cd" stroke="#9a32cd" points="263.7,-557.63 253.19,-559.01 262.26,-564.48 263.7,-557.63"/>
<text text-anchor="middle" x="342.5" y="-586" font-family="Helvetica,sans-Serif" font-size="10.00"> keys</text>
</g>
<!-- Node9 -->
<g id="node8" class="node">
<title>Node9</title>
<g id="a_node8"><a xlink:title=" ">
<polygon fill="white" stroke="black" points="392,-543.5 392,-562.5 527,-562.5 527,-543.5 392,-543.5"/>
<text text-anchor="middle" x="459.5" y="-550.5" font-family="Helvetica,sans-Serif" font-size="10.00">std::map&lt; string, PclkList &gt;</text>
</a>
</g>
</g>
<!-- Node3&#45;&gt;Node9 -->
<g id="edge8" class="edge">
<title>Node3&#45;&gt;Node9</title>
<path fill="none" stroke="#9a32cd" stroke-dasharray="5,2" d="M263.45,-553C298.34,-553 350.27,-553 391.78,-553"/>
<polygon fill="#9a32cd" stroke="#9a32cd" points="263.19,-549.5 253.19,-553 263.19,-556.5 263.19,-549.5"/>
<text text-anchor="middle" x="342.5" y="-556" font-family="Helvetica,sans-Serif" font-size="10.00"> keys</text>
</g>
<!-- Node41 -->
<g id="node22" class="node">
<title>Node41</title>
<g id="a_node22"><a xlink:title=" ">
<polygon fill="white" stroke="black" points="415.5,-505.5 415.5,-524.5 503.5,-524.5 503.5,-505.5 415.5,-505.5"/>
<text text-anchor="middle" x="459.5" y="-512.5" font-family="Helvetica,sans-Serif" font-size="10.00">std::list&lt; string &gt;</text>
</a>
</g>
</g>
<!-- Node3&#45;&gt;Node41 -->
<g id="edge25" class="edge">
<title>Node3&#45;&gt;Node41</title>
<path fill="none" stroke="#9a32cd" stroke-dasharray="5,2" d="M263.42,-546.31C278.85,-543.68 296.76,-540.66 313,-538 347.32,-532.38 386.24,-526.24 415.19,-521.72"/>
<polygon fill="#9a32cd" stroke="#9a32cd" points="262.45,-542.92 253.18,-548.06 263.63,-549.82 262.45,-542.92"/>
<text text-anchor="middle" x="342.5" y="-541" font-family="Helvetica,sans-Serif" font-size="10.00"> elements</text>
</g>
<!-- Node5 -->
<g id="node4" class="node">
<title>Node5</title>
<g id="a_node4"><a xlink:title=" ">
<polygon fill="white" stroke="black" points="395,-445.5 395,-486.5 524,-486.5 524,-445.5 395,-445.5"/>
<text text-anchor="start" x="403" y="-474.5" font-family="Helvetica,sans-Serif" font-size="10.00">std::map&lt; int, map</text>
<text text-anchor="start" x="403" y="-463.5" font-family="Helvetica,sans-Serif" font-size="10.00">&lt; GTime, Eph, std::greater</text>
<text text-anchor="middle" x="459.5" y="-452.5" font-family="Helvetica,sans-Serif" font-size="10.00">&lt; GTime &gt; &gt; &gt;</text>
</a>
</g>
</g>
<!-- Node5&#45;&gt;Node1 -->
<g id="edge3" class="edge">
<title>Node5&#45;&gt;Node1</title>
<path fill="none" stroke="#9a32cd" stroke-dasharray="5,2" d="M528.67,-441.04C554.43,-428.46 581.88,-410.74 600,-387 623.53,-356.17 633.05,-309.43 636.19,-289.52"/>
<polygon fill="#9a32cd" stroke="#9a32cd" points="526.84,-438.03 519.27,-445.44 529.81,-444.37 526.84,-438.03"/>
<text text-anchor="middle" x="573.5" y="-434" font-family="Helvetica,sans-Serif" font-size="10.00"> ephMap</text>
</g>
<!-- Node6 -->
<g id="node5" class="node">
<title>Node6</title>
<g id="a_node5"><a xlink:title=" ">
<polygon fill="white" stroke="black" points="405,-385.5 405,-426.5 514,-426.5 514,-385.5 405,-385.5"/>
<text text-anchor="start" x="413" y="-414.5" font-family="Helvetica,sans-Serif" font-size="10.00">std::map&lt; int, map</text>
<text text-anchor="start" x="413" y="-403.5" font-family="Helvetica,sans-Serif" font-size="10.00">&lt; GTime, Geph, std::</text>
<text text-anchor="middle" x="459.5" y="-392.5" font-family="Helvetica,sans-Serif" font-size="10.00">greater&lt; GTime &gt; &gt; &gt;</text>
</a>
</g>
</g>
<!-- Node6&#45;&gt;Node1 -->
<g id="edge4" class="edge">
<title>Node6&#45;&gt;Node1</title>
<path fill="none" stroke="#9a32cd" stroke-dasharray="5,2" d="M523.56,-383.94C549.34,-372.74 578.17,-357.16 600,-337 614.97,-323.18 626.75,-302.2 632.87,-289.92"/>
<polygon fill="#9a32cd" stroke="#9a32cd" points="522.08,-380.77 514.22,-387.87 524.8,-387.22 522.08,-380.77"/>
<text text-anchor="middle" x="573.5" y="-375" font-family="Helvetica,sans-Serif" font-size="10.00"> gephMap</text>
</g>
<!-- Node7 -->
<g id="node6" class="node">
<title>Node7</title>
<g id="a_node6"><a xlink:title=" ">
<polygon fill="white" stroke="black" points="405,-325.5 405,-366.5 514,-366.5 514,-325.5 405,-325.5"/>
<text text-anchor="start" x="413" y="-354.5" font-family="Helvetica,sans-Serif" font-size="10.00">std::map&lt; int, map</text>
<text text-anchor="start" x="413" y="-343.5" font-family="Helvetica,sans-Serif" font-size="10.00">&lt; GTime, Seph, std::</text>
<text text-anchor="middle" x="459.5" y="-332.5" font-family="Helvetica,sans-Serif" font-size="10.00">greater&lt; GTime &gt; &gt; &gt;</text>
</a>
</g>
</g>
<!-- Node7&#45;&gt;Node1 -->
<g id="edge5" class="edge">
<title>Node7&#45;&gt;Node1</title>
<path fill="none" stroke="#9a32cd" stroke-dasharray="5,2" d="M524.13,-330.04C548.38,-323.02 575.95,-313.87 600,-303 608.21,-299.29 616.82,-294.11 623.72,-289.61"/>
<polygon fill="#9a32cd" stroke="#9a32cd" points="522.98,-326.72 514.32,-332.82 524.89,-333.46 522.98,-326.72"/>
<text text-anchor="middle" x="573.5" y="-325" font-family="Helvetica,sans-Serif" font-size="10.00"> sephMap</text>
</g>
<!-- Node8 -->
<g id="node7" class="node">
<title>Node8</title>
<g id="a_node7"><a xlink:title=" ">
<polygon fill="white" stroke="black" points="397,-287.5 397,-306.5 522,-306.5 522,-287.5 397,-287.5"/>
<text text-anchor="middle" x="459.5" y="-294.5" font-family="Helvetica,sans-Serif" font-size="10.00">std::map&lt; int, PephList &gt;</text>
</a>
</g>
</g>
<!-- Node8&#45;&gt;Node1 -->
<g id="edge6" class="edge">
<title>Node8&#45;&gt;Node1</title>
<path fill="none" stroke="#9a32cd" stroke-dasharray="5,2" d="M532.76,-290.06C563.68,-287.09 597.33,-283.86 617.92,-281.88"/>
<polygon fill="#9a32cd" stroke="#9a32cd" points="532.03,-286.61 522.41,-291.05 532.69,-293.58 532.03,-286.61"/>
<text text-anchor="middle" x="573.5" y="-291" font-family="Helvetica,sans-Serif" font-size="10.00"> pephMap</text>
</g>
<!-- Node9&#45;&gt;Node1 -->
<g id="edge7" class="edge">
<title>Node9&#45;&gt;Node1</title>
<path fill="none" stroke="#9a32cd" stroke-dasharray="5,2" d="M536.91,-541.98C560.62,-534.75 584.55,-522.78 600,-503 626.64,-468.88 635.21,-328.1 637.07,-289.71"/>
<polygon fill="#9a32cd" stroke="#9a32cd" points="535.84,-538.65 527.15,-544.71 537.72,-545.39 535.84,-538.65"/>
<text text-anchor="middle" x="573.5" y="-541" font-family="Helvetica,sans-Serif" font-size="10.00"> pclkMap</text>
</g>
<!-- Node10 -->
<g id="node9" class="node">
<title>Node10</title>
<g id="a_node9"><a xlink:title=" ">
<polygon fill="white" stroke="black" points="393.5,-238 393.5,-268 525.5,-268 525.5,-238 393.5,-238"/>
<text text-anchor="start" x="401.5" y="-256" font-family="Helvetica,sans-Serif" font-size="10.00">std::map&lt; GTime, tec</text>
<text text-anchor="middle" x="459.5" y="-245" font-family="Helvetica,sans-Serif" font-size="10.00">_t, std::greater&lt; GTime &gt; &gt;</text>
</a>
</g>
</g>
<!-- Node10&#45;&gt;Node1 -->
<g id="edge9" class="edge">
<title>Node10&#45;&gt;Node1</title>
<path fill="none" stroke="#9a32cd" stroke-dasharray="5,2" d="M535.66,-258.26C556.62,-260.49 579.32,-263.63 600,-268 605.89,-269.24 612.16,-271.05 617.85,-272.89"/>
<polygon fill="#9a32cd" stroke="#9a32cd" points="535.82,-254.76 525.52,-257.24 535.12,-261.73 535.82,-254.76"/>
<text text-anchor="middle" x="573.5" y="-271" font-family="Helvetica,sans-Serif" font-size="10.00"> tecMap</text>
</g>
<!-- Node11 -->
<g id="node10" class="node">
<title>Node11</title>
<g id="a_node10"><a xlink:href="structGTime.html" target="_top" xlink:title="Time structure used throughout this software.">
<polygon fill="white" stroke="black" points="4.5,-251.5 4.5,-270.5 50.5,-270.5 50.5,-251.5 4.5,-251.5"/>
<text text-anchor="middle" x="27.5" y="-258.5" font-family="Helvetica,sans-Serif" font-size="10.00">GTime</text>
</a>
</g>
</g>
<!-- Node11&#45;&gt;Node10 -->
<g id="edge10" class="edge">
<title>Node11&#45;&gt;Node10</title>
<path fill="none" stroke="#9a32cd" stroke-dasharray="5,2" d="M60.79,-270.77C64.87,-271.69 69.01,-272.47 73,-273 99.88,-276.56 106.89,-273.4 134,-273 239.81,-271.44 266.6,-275.44 372,-266 378.96,-265.38 386.21,-264.56 393.42,-263.63"/>
<polygon fill="#9a32cd" stroke="#9a32cd" points="61.46,-267.33 50.9,-268.27 59.74,-274.11 61.46,-267.33"/>
<text text-anchor="middle" x="223.5" y="-275" font-family="Helvetica,sans-Serif" font-size="10.00"> keys</text>
</g>
<!-- Node12 -->
<g id="node11" class="node">
<title>Node12</title>
<g id="a_node11"><a xlink:href="structtec__t.html" target="_top" xlink:title=" ">
<polygon fill="white" stroke="red" points="204.5,-239.5 204.5,-258.5 242.5,-258.5 242.5,-239.5 204.5,-239.5"/>
<text text-anchor="middle" x="223.5" y="-246.5" font-family="Helvetica,sans-Serif" font-size="10.00">tec_t</text>
</a>
</g>
</g>
<!-- Node11&#45;&gt;Node12 -->
<g id="edge12" class="edge">
<title>Node11&#45;&gt;Node12</title>
<path fill="none" stroke="#9a32cd" stroke-dasharray="5,2" d="M60.79,-259C101.85,-256.46 171.36,-252.16 204.23,-250.13"/>
<polygon fill="#9a32cd" stroke="#9a32cd" points="60.52,-255.51 50.75,-259.62 60.95,-262.5 60.52,-255.51"/>
<text text-anchor="middle" x="103.5" y="-261" font-family="Helvetica,sans-Serif" font-size="10.00"> time</text>
</g>
<!-- Node12&#45;&gt;Node10 -->
<g id="edge11" class="edge">
<title>Node12&#45;&gt;Node10</title>
<path fill="none" stroke="#9a32cd" stroke-dasharray="5,2" d="M253.2,-249.49C287.87,-250.08 347.28,-251.1 393.29,-251.89"/>
<polygon fill="#9a32cd" stroke="#9a32cd" points="252.92,-245.99 242.86,-249.31 252.8,-252.98 252.92,-245.99"/>
<text text-anchor="middle" x="342.5" y="-254" font-family="Helvetica,sans-Serif" font-size="10.00"> elements</text>
</g>
<!-- Node15 -->
<g id="node12" class="node">
<title>Node15</title>
<g id="a_node12"><a xlink:title=" ">
<polygon fill="white" stroke="black" points="400,-199.5 400,-218.5 519,-218.5 519,-199.5 400,-199.5"/>
<text text-anchor="middle" x="459.5" y="-206.5" font-family="Helvetica,sans-Serif" font-size="10.00">std::map&lt; int, SatNav &gt;</text>
</a>
</g>
</g>
<!-- Node15&#45;&gt;Node1 -->
<g id="edge13" class="edge">
<title>Node15&#45;&gt;Node1</title>
<path fill="none" stroke="#9a32cd" stroke-dasharray="5,2" d="M528.92,-218.79C552.45,-224.04 578.3,-231.99 600,-244 612,-250.64 622.97,-262.09 629.9,-270.29"/>
<polygon fill="#9a32cd" stroke="#9a32cd" points="529.51,-215.34 519,-216.71 528.07,-222.19 529.51,-215.34"/>
<text text-anchor="middle" x="573.5" y="-247" font-family="Helvetica,sans-Serif" font-size="10.00"> satNavMap</text>
</g>
<!-- Node16 -->
<g id="node13" class="node">
<title>Node16</title>
<g id="a_node13"><a xlink:href="structSatNav.html" target="_top" xlink:title=" ">
<polygon fill="white" stroke="red" points="198.5,-200.5 198.5,-219.5 248.5,-219.5 248.5,-200.5 198.5,-200.5"/>
<text text-anchor="middle" x="223.5" y="-207.5" font-family="Helvetica,sans-Serif" font-size="10.00">SatNav</text>
</a>
</g>
</g>
<!-- Node16&#45;&gt;Node15 -->
<g id="edge14" class="edge">
<title>Node16&#45;&gt;Node15</title>
<path fill="none" stroke="#9a32cd" stroke-dasharray="5,2" d="M258.93,-209.85C295.93,-209.69 355.42,-209.44 399.84,-209.25"/>
<polygon fill="#9a32cd" stroke="#9a32cd" points="258.65,-206.35 248.66,-209.9 258.68,-213.35 258.65,-206.35"/>
<text text-anchor="middle" x="342.5" y="-212" font-family="Helvetica,sans-Serif" font-size="10.00"> elements</text>
</g>
<!-- Node27 -->
<g id="node14" class="node">
<title>Node27</title>
<g id="a_node14"><a xlink:title=" ">
<polygon fill="white" stroke="black" points="0,-193.5 0,-212.5 55,-212.5 55,-193.5 0,-193.5"/>
<text text-anchor="middle" x="27.5" y="-200.5" font-family="Helvetica,sans-Serif" font-size="10.00">MatrixXd</text>
</a>
</g>
</g>
<!-- Node27&#45;&gt;Node16 -->
<g id="edge15" class="edge">
<title>Node27&#45;&gt;Node16</title>
<path fill="none" stroke="#9a32cd" stroke-dasharray="5,2" d="M65.48,-204.33C104.56,-205.74 165.04,-207.93 198.39,-209.13"/>
<polygon fill="#9a32cd" stroke="#9a32cd" points="65.19,-200.82 55.07,-203.96 64.94,-207.82 65.19,-200.82"/>
<text text-anchor="middle" x="103.5" y="-209" font-family="Helvetica,sans-Serif" font-size="10.00"> satPartialMat</text>
</g>
<!-- Node38 -->
<g id="node19" class="node">
<title>Node38</title>
<g id="a_node19"><a xlink:href="structEGMCoef.html" target="_top" xlink:title="Struct to save Earth gravity coefficients.">
<polygon fill="white" stroke="black" points="313,-159.5 313,-178.5 372,-178.5 372,-159.5 313,-159.5"/>
<text text-anchor="middle" x="342.5" y="-166.5" font-family="Helvetica,sans-Serif" font-size="10.00">EGMCoef</text>
</a>
</g>
</g>
<!-- Node27&#45;&gt;Node38 -->
<g id="edge21" class="edge">
<title>Node27&#45;&gt;Node38</title>
<path fill="none" stroke="#9a32cd" stroke-dasharray="5,2" d="M50.51,-187.9C57.41,-183.94 65.26,-180.17 73,-178 157.44,-154.39 262.67,-160.6 312.61,-165.57"/>
<polygon fill="#9a32cd" stroke="#9a32cd" points="48.44,-185.07 41.78,-193.3 52.12,-191.02 48.44,-185.07"/>
<text text-anchor="middle" x="103.5" y="-192" font-family="Helvetica,sans-Serif" font-size="10.00"> cmn</text>
<text text-anchor="middle" x="103.5" y="-181" font-family="Helvetica,sans-Serif" font-size="10.00">smn</text>
</g>
<!-- Node33 -->
<g id="node15" class="node">
<title>Node33</title>
<g id="a_node15"><a xlink:href="structvmf3__t.html" target="_top" xlink:title=" ">
<polygon fill="white" stroke="black" points="436,-114.5 436,-133.5 483,-133.5 483,-114.5 436,-114.5"/>
<text text-anchor="middle" x="459.5" y="-121.5" font-family="Helvetica,sans-Serif" font-size="10.00">vmf3_t</text>
</a>
</g>
</g>
<!-- Node33&#45;&gt;Node1 -->
<g id="edge16" class="edge">
<title>Node33&#45;&gt;Node1</title>
<path fill="none" stroke="#9a32cd" stroke-dasharray="5,2" d="M493.1,-119.62C524.34,-117.35 570.92,-119.26 600,-145 637.52,-178.22 638.94,-245.39 638.06,-270.36"/>
<polygon fill="#9a32cd" stroke="#9a32cd" points="492.78,-116.14 483.14,-120.53 493.42,-123.11 492.78,-116.14"/>
<text text-anchor="middle" x="573.5" y="-148" font-family="Helvetica,sans-Serif" font-size="10.00"> vmf3</text>
</g>
<!-- Node34 -->
<g id="node16" class="node">
<title>Node34</title>
<g id="a_node16"><a xlink:href="structvmf3grid__t.html" target="_top" xlink:title=" ">
<polygon fill="white" stroke="black" points="192.5,-114.5 192.5,-133.5 254.5,-133.5 254.5,-114.5 192.5,-114.5"/>
<text text-anchor="middle" x="223.5" y="-121.5" font-family="Helvetica,sans-Serif" font-size="10.00">vmf3grid_t</text>
</a>
</g>
</g>
<!-- Node34&#45;&gt;Node33 -->
<g id="edge17" class="edge">
<title>Node34&#45;&gt;Node33</title>
<path fill="none" stroke="#9a32cd" stroke-dasharray="5,2" d="M264.63,-124C314.05,-124 396.29,-124 435.86,-124"/>
<polygon fill="#9a32cd" stroke="#9a32cd" points="264.61,-120.5 254.61,-124 264.61,-127.5 264.61,-120.5"/>
<text text-anchor="middle" x="342.5" y="-127" font-family="Helvetica,sans-Serif" font-size="10.00"> vmf3g</text>
</g>
<!-- Node35 -->
<g id="node17" class="node">
<title>Node35</title>
<g id="a_node17"><a xlink:href="structERP.html" target="_top" xlink:title=" ">
<polygon fill="white" stroke="black" points="441.5,-76.5 441.5,-95.5 477.5,-95.5 477.5,-76.5 441.5,-76.5"/>
<text text-anchor="middle" x="459.5" y="-83.5" font-family="Helvetica,sans-Serif" font-size="10.00">ERP</text>
</a>
</g>
</g>
<!-- Node35&#45;&gt;Node1 -->
<g id="edge18" class="edge">
<title>Node35&#45;&gt;Node1</title>
<path fill="none" stroke="#9a32cd" stroke-dasharray="5,2" d="M487.88,-81.77C519.19,-78.6 569.96,-78.82 600,-107 624.21,-129.71 634.26,-237.26 636.81,-270.31"/>
<polygon fill="#9a32cd" stroke="#9a32cd" points="487.2,-78.33 477.69,-82.99 488.04,-85.28 487.2,-78.33"/>
<text text-anchor="middle" x="573.5" y="-110" font-family="Helvetica,sans-Serif" font-size="10.00"> erp</text>
</g>
<!-- Node36 -->
<g id="node18" class="node">
<title>Node36</title>
<g id="a_node18"><a xlink:title=" ">
<polygon fill="white" stroke="red" points="152,-76.5 152,-95.5 295,-95.5 295,-76.5 152,-76.5"/>
<text text-anchor="middle" x="223.5" y="-83.5" font-family="Helvetica,sans-Serif" font-size="10.00">std::map&lt; double, ERPData &gt;</text>
</a>
</g>
</g>
<!-- Node36&#45;&gt;Node35 -->
<g id="edge19" class="edge">
<title>Node36&#45;&gt;Node35</title>
<path fill="none" stroke="#9a32cd" stroke-dasharray="5,2" d="M305.33,-86C354.36,-86 412.78,-86 441.22,-86"/>
<polygon fill="#9a32cd" stroke="#9a32cd" points="305.03,-82.5 295.03,-86 305.03,-89.5 305.03,-82.5"/>
<text text-anchor="middle" x="342.5" y="-89" font-family="Helvetica,sans-Serif" font-size="10.00"> erpMap</text>
</g>
<!-- Node38&#45;&gt;Node1 -->
<g id="edge20" class="edge">
<title>Node38&#45;&gt;Node1</title>
<path fill="none" stroke="#9a32cd" stroke-dasharray="5,2" d="M382.3,-166.03C420.44,-164.28 479.89,-164.7 529,-179 563.77,-189.13 573.91,-193.88 600,-219 615.76,-234.17 627.58,-257.32 633.42,-270.3"/>
<polygon fill="#9a32cd" stroke="#9a32cd" points="381.94,-162.54 372.14,-166.57 382.31,-169.53 381.94,-162.54"/>
<text text-anchor="middle" x="459.5" y="-182" font-family="Helvetica,sans-Serif" font-size="10.00"> egm</text>
</g>
<!-- Node39 -->
<g id="node20" class="node">
<title>Node39</title>
<g id="a_node20"><a xlink:href="structjpl__eph__data.html" target="_top" xlink:title=" ">
<polygon fill="white" stroke="black" points="424,-38.5 424,-57.5 495,-57.5 495,-38.5 424,-38.5"/>
<text text-anchor="middle" x="459.5" y="-45.5" font-family="Helvetica,sans-Serif" font-size="10.00">jpl_eph_data</text>
</a>
</g>
</g>
<!-- Node39&#45;&gt;Node1 -->
<g id="edge22" class="edge">
<title>Node39&#45;&gt;Node1</title>
<path fill="none" stroke="#9a32cd" stroke-dasharray="5,2" d="M505.21,-41.93C535.89,-40.42 575.36,-44.15 600,-68 629.54,-96.59 636,-232.61 637.24,-270.3"/>
<polygon fill="#9a32cd" stroke="#9a32cd" points="504.91,-38.44 495.17,-42.62 505.39,-45.43 504.91,-38.44"/>
<text text-anchor="middle" x="573.5" y="-71" font-family="Helvetica,sans-Serif" font-size="10.00"> jplEph_ptr</text>
</g>
<!-- Node40 -->
<g id="node21" class="node">
<title>Node40</title>
<g id="a_node21"><a xlink:href="structinterpolation__info.html" target="_top" xlink:title=" ">
<polygon fill="white" stroke="black" points="178.5,-38.5 178.5,-57.5 268.5,-57.5 268.5,-38.5 178.5,-38.5"/>
<text text-anchor="middle" x="223.5" y="-45.5" font-family="Helvetica,sans-Serif" font-size="10.00">interpolation_info</text>
</a>
</g>
</g>
<!-- Node40&#45;&gt;Node39 -->
<g id="edge23" class="edge">
<title>Node40&#45;&gt;Node39</title>
<path fill="none" stroke="#9a32cd" stroke-dasharray="5,2" d="M278.63,-48C323.36,-48 385.52,-48 423.82,-48"/>
<polygon fill="#9a32cd" stroke="#9a32cd" points="278.51,-44.5 268.51,-48 278.51,-51.5 278.51,-44.5"/>
<text text-anchor="middle" x="342.5" y="-51" font-family="Helvetica,sans-Serif" font-size="10.00"> iinfo</text>
</g>
<!-- Node41&#45;&gt;Node1 -->
<g id="edge24" class="edge">
<title>Node41&#45;&gt;Node1</title>
<path fill="none" stroke="#9a32cd" stroke-dasharray="5,2" d="M513.52,-502.82C544.09,-492.87 580.27,-475.48 600,-446 634.34,-394.68 637.6,-316.51 637.64,-289.54"/>
<polygon fill="#9a32cd" stroke="#9a32cd" points="512.35,-499.52 503.81,-505.79 514.4,-506.21 512.35,-499.52"/>
<text text-anchor="middle" x="573.5" y="-491" font-family="Helvetica,sans-Serif" font-size="10.00"> podInfoList</text>
</g>
<!-- Node42 -->
<g id="node23" class="node">
<title>Node42</title>
<g id="a_node23"><a xlink:href="structgptgrid__t.html" target="_top" xlink:title="gpt grid file contents">
<polygon fill="white" stroke="black" points="432.5,-0.5 432.5,-19.5 486.5,-19.5 486.5,-0.5 432.5,-0.5"/>
<text text-anchor="middle" x="459.5" y="-7.5" font-family="Helvetica,sans-Serif" font-size="10.00">gptgrid_t</text>
</a>
</g>
</g>
<!-- Node42&#45;&gt;Node1 -->
<g id="edge26" class="edge">
<title>Node42&#45;&gt;Node1</title>
<path fill="none" stroke="#9a32cd" stroke-dasharray="5,2" d="M496.79,-4.33C528.43,-1.61 573.33,-3.51 600,-30 634.71,-64.49 637.41,-228.59 637.52,-270.33"/>
<polygon fill="#9a32cd" stroke="#9a32cd" points="496.19,-0.87 486.61,-5.4 496.92,-7.83 496.19,-0.87"/>
<text text-anchor="middle" x="573.5" y="-33" font-family="Helvetica,sans-Serif" font-size="10.00"> gptg</text>
</g>
</g>
</svg>
