<?xml version="1.0" encoding="UTF-8" standalone="no"?>
<!DOCTYPE svg PUBLIC "-//W3C//DTD SVG 1.1//EN"
 "http://www.w3.org/Graphics/SVG/1.1/DTD/svg11.dtd">
<!-- Generated by graphviz version 2.50.0 (20220203.2022)
 -->
<!-- Title: NtripSocket Pages: 1 -->
<svg width="477pt" height="325pt"
 viewBox="0.00 0.00 477.00 324.50" xmlns="http://www.w3.org/2000/svg" xmlns:xlink="http://www.w3.org/1999/xlink">
<g id="graph0" class="graph" transform="scale(1 1) rotate(0) translate(4 320.5)">
<title>NtripSocket</title>
<polygon fill="white" stroke="transparent" points="-4,4 -4,-320.5 473,-320.5 473,4 -4,4"/>
<!-- Node1 -->
<g id="node1" class="node">
<title>Node1</title>
<g id="a_node1"><a xlink:title=" ">
<polygon fill="#bfbfbf" stroke="black" points="401,-126 401,-145 469,-145 469,-126 401,-126"/>
<text text-anchor="middle" x="435" y="-133" font-family="Helvetica,sans-Serif" font-size="10.00">NtripSocket</text>
</a>
</g>
</g>
<!-- Node2 -->
<g id="node2" class="node">
<title>Node2</title>
<g id="a_node2"><a xlink:href="structNetworkStatistics.html" target="_top" xlink:title=" ">
<polygon fill="white" stroke="black" points="216.5,-148 216.5,-167 311.5,-167 311.5,-148 216.5,-148"/>
<text text-anchor="middle" x="264" y="-155" font-family="Helvetica,sans-Serif" font-size="10.00">NetworkStatistics</text>
</a>
</g>
</g>
<!-- Node2&#45;&gt;Node1 -->
<g id="edge1" class="edge">
<title>Node2&#45;&gt;Node1</title>
<path fill="none" stroke="midnightblue" d="M321.86,-150.1C348.14,-146.68 378.44,-142.73 400.91,-139.81"/>
<polygon fill="midnightblue" stroke="midnightblue" points="321.09,-146.67 311.63,-151.43 322,-153.61 321.09,-146.67"/>
</g>
<!-- Node3 -->
<g id="node3" class="node">
<title>Node3</title>
<g id="a_node3"><a xlink:title=" ">
<polygon fill="white" stroke="red" points="8,-194 8,-213 67,-213 67,-194 8,-194"/>
<text text-anchor="middle" x="37.5" y="-201" font-family="Helvetica,sans-Serif" font-size="10.00">std::string</text>
</a>
</g>
</g>
<!-- Node3&#45;&gt;Node1 -->
<g id="edge8" class="edge">
<title>Node3&#45;&gt;Node1</title>
<path fill="none" stroke="#9a32cd" stroke-dasharray="5,2" d="M77.49,-201.64C131.27,-198.63 231.09,-191.46 315,-176.5 345.67,-171.03 353.66,-169.96 383,-159.5 394.25,-155.49 406.36,-149.85 415.95,-145.05"/>
<polygon fill="#9a32cd" stroke="#9a32cd" points="77.16,-198.15 67.36,-202.19 77.54,-205.14 77.16,-198.15"/>
<text text-anchor="middle" x="264" y="-204.5" font-family="Helvetica,sans-Serif" font-size="10.00"> request_string</text>
<text text-anchor="middle" x="264" y="-193.5" font-family="Helvetica,sans-Serif" font-size="10.00">response_string</text>
</g>
<!-- Node3&#45;&gt;Node2 -->
<g id="edge2" class="edge">
<title>Node3&#45;&gt;Node2</title>
<path fill="none" stroke="#9a32cd" stroke-dasharray="5,2" d="M57.21,-187.58C67.17,-180.06 80.02,-171.82 93,-167.5 133.11,-154.15 181.46,-152.59 216.32,-153.82"/>
<polygon fill="#9a32cd" stroke="#9a32cd" points="54.93,-184.91 49.27,-193.87 59.28,-190.4 54.93,-184.91"/>
<text text-anchor="middle" x="144" y="-181.5" font-family="Helvetica,sans-Serif" font-size="10.00"> networkTraceFilename</text>
<text text-anchor="middle" x="144" y="-170.5" font-family="Helvetica,sans-Serif" font-size="10.00">streamName</text>
</g>
<!-- Node10 -->
<g id="node9" class="node">
<title>Node10</title>
<g id="a_node9"><a xlink:href="structURL.html" target="_top" xlink:title=" ">
<polygon fill="white" stroke="black" points="245.5,-244 245.5,-263 282.5,-263 282.5,-244 245.5,-244"/>
<text text-anchor="middle" x="264" y="-251" font-family="Helvetica,sans-Serif" font-size="10.00">URL</text>
</a>
</g>
</g>
<!-- Node3&#45;&gt;Node10 -->
<g id="edge10" class="edge">
<title>Node3&#45;&gt;Node10</title>
<path fill="none" stroke="#9a32cd" stroke-dasharray="5,2" d="M77.09,-213.63C82.42,-214.97 87.84,-216.29 93,-217.5 148.22,-230.43 214.02,-243.79 245.08,-249.97"/>
<polygon fill="#9a32cd" stroke="#9a32cd" points="77.57,-210.14 67.01,-211.07 75.84,-216.92 77.57,-210.14"/>
<text text-anchor="middle" x="144" y="-308.5" font-family="Helvetica,sans-Serif" font-size="10.00"> host</text>
<text text-anchor="middle" x="144" y="-297.5" font-family="Helvetica,sans-Serif" font-size="10.00">pass</text>
<text text-anchor="middle" x="144" y="-286.5" font-family="Helvetica,sans-Serif" font-size="10.00">path</text>
<text text-anchor="middle" x="144" y="-275.5" font-family="Helvetica,sans-Serif" font-size="10.00">port_str</text>
<text text-anchor="middle" x="144" y="-264.5" font-family="Helvetica,sans-Serif" font-size="10.00">protocol</text>
<text text-anchor="middle" x="144" y="-253.5" font-family="Helvetica,sans-Serif" font-size="10.00">url</text>
<text text-anchor="middle" x="144" y="-242.5" font-family="Helvetica,sans-Serif" font-size="10.00">user</text>
</g>
<!-- Node5 -->
<g id="node4" class="node">
<title>Node5</title>
<g id="a_node4"><a xlink:href="structGTime.html" target="_top" xlink:title="Time structure used throughout this software.">
<polygon fill="white" stroke="black" points="14.5,-112 14.5,-131 60.5,-131 60.5,-112 14.5,-112"/>
<text text-anchor="middle" x="37.5" y="-119" font-family="Helvetica,sans-Serif" font-size="10.00">GTime</text>
</a>
</g>
</g>
<!-- Node5&#45;&gt;Node2 -->
<g id="edge3" class="edge">
<title>Node5&#45;&gt;Node2</title>
<path fill="none" stroke="#9a32cd" stroke-dasharray="5,2" d="M70.94,-115.24C103.48,-110.42 154.43,-106.93 195,-122.5 204.99,-126.34 203.85,-132.95 213,-138.5 219.04,-142.16 225.89,-145.32 232.56,-147.95"/>
<polygon fill="#9a32cd" stroke="#9a32cd" points="69.97,-111.85 60.66,-116.89 71.09,-118.76 69.97,-111.85"/>
<text text-anchor="middle" x="144" y="-136.5" font-family="Helvetica,sans-Serif" font-size="10.00"> endTime</text>
<text text-anchor="middle" x="144" y="-125.5" font-family="Helvetica,sans-Serif" font-size="10.00">startTime</text>
</g>
<!-- Node6 -->
<g id="node5" class="node">
<title>Node6</title>
<g id="a_node5"><a xlink:title=" ">
<polygon fill="white" stroke="black" points="0,-67 0,-86 75,-86 75,-67 0,-67"/>
<text text-anchor="middle" x="37.5" y="-74" font-family="Helvetica,sans-Serif" font-size="10.00">time_duration</text>
</a>
</g>
</g>
<!-- Node6&#45;&gt;Node2 -->
<g id="edge4" class="edge">
<title>Node6&#45;&gt;Node2</title>
<path fill="none" stroke="#9a32cd" stroke-dasharray="5,2" d="M85.14,-66.01C119,-61.22 164.09,-61 195,-84.5 215.14,-99.81 195.49,-120.25 213,-138.5 216.73,-142.39 221.33,-145.49 226.23,-147.96"/>
<polygon fill="#9a32cd" stroke="#9a32cd" points="84.35,-62.59 75.03,-67.62 85.45,-69.5 84.35,-62.59"/>
<text text-anchor="middle" x="144" y="-98.5" font-family="Helvetica,sans-Serif" font-size="10.00"> connectedDuration</text>
<text text-anchor="middle" x="144" y="-87.5" font-family="Helvetica,sans-Serif" font-size="10.00">disconnectedDuration</text>
</g>
<!-- Node7 -->
<g id="node6" class="node">
<title>Node7</title>
<g id="a_node6"><a xlink:title=" ">
<polygon fill="white" stroke="black" points="213,-98.5 213,-128.5 315,-128.5 315,-98.5 213,-98.5"/>
<text text-anchor="start" x="221" y="-116.5" font-family="Helvetica,sans-Serif" font-size="10.00">std::shared_ptr&lt; tcp</text>
<text text-anchor="middle" x="264" y="-105.5" font-family="Helvetica,sans-Serif" font-size="10.00">::socket &gt;</text>
</a>
</g>
</g>
<!-- Node7&#45;&gt;Node1 -->
<g id="edge5" class="edge">
<title>Node7&#45;&gt;Node1</title>
<path fill="none" stroke="#9a32cd" stroke-dasharray="5,2" d="M325.1,-120.19C343.68,-122.38 364.2,-124.91 383,-127.5 388.77,-128.29 394.9,-129.2 400.83,-130.11"/>
<polygon fill="#9a32cd" stroke="#9a32cd" points="325.34,-116.69 315,-119.01 324.53,-123.65 325.34,-116.69"/>
<text text-anchor="middle" x="358" y="-130.5" font-family="Helvetica,sans-Serif" font-size="10.00"> _socket</text>
</g>
<!-- Node8 -->
<g id="node7" class="node">
<title>Node8</title>
<g id="a_node7"><a xlink:title=" ">
<polygon fill="white" stroke="black" points="213.5,-49.5 213.5,-79.5 314.5,-79.5 314.5,-49.5 213.5,-49.5"/>
<text text-anchor="start" x="221.5" y="-67.5" font-family="Helvetica,sans-Serif" font-size="10.00">std::shared_ptr&lt; ssl</text>
<text text-anchor="middle" x="264" y="-56.5" font-family="Helvetica,sans-Serif" font-size="10.00">_socket &gt;</text>
</a>
</g>
</g>
<!-- Node8&#45;&gt;Node1 -->
<g id="edge6" class="edge">
<title>Node8&#45;&gt;Node1</title>
<path fill="none" stroke="#9a32cd" stroke-dasharray="5,2" d="M324.15,-82.5C343.25,-88.99 364.31,-96.86 383,-105.5 395.68,-111.36 409.28,-119.46 419.25,-125.77"/>
<polygon fill="#9a32cd" stroke="#9a32cd" points="325.25,-79.18 314.65,-79.34 323.03,-85.82 325.25,-79.18"/>
<text text-anchor="middle" x="358" y="-108.5" font-family="Helvetica,sans-Serif" font-size="10.00"> _sslsocket</text>
</g>
<!-- Node9 -->
<g id="node8" class="node">
<title>Node9</title>
<g id="a_node8"><a xlink:title=" ">
<polygon fill="white" stroke="black" points="213,-0.5 213,-30.5 315,-30.5 315,-0.5 213,-0.5"/>
<text text-anchor="start" x="221" y="-18.5" font-family="Helvetica,sans-Serif" font-size="10.00">std::shared_ptr&lt; tcp</text>
<text text-anchor="middle" x="264" y="-7.5" font-family="Helvetica,sans-Serif" font-size="10.00">::resolver &gt;</text>
</a>
</g>
</g>
<!-- Node9&#45;&gt;Node1 -->
<g id="edge7" class="edge">
<title>Node9&#45;&gt;Node1</title>
<path fill="none" stroke="#9a32cd" stroke-dasharray="5,2" d="M317.69,-34.41C339.22,-43.64 363.58,-56.1 383,-71.5 402.81,-87.21 419.73,-112.02 428.2,-125.67"/>
<polygon fill="#9a32cd" stroke="#9a32cd" points="318.92,-31.14 308.35,-30.53 316.24,-37.6 318.92,-31.14"/>
<text text-anchor="middle" x="358" y="-74.5" font-family="Helvetica,sans-Serif" font-size="10.00"> _resolver</text>
</g>
<!-- Node10&#45;&gt;Node1 -->
<g id="edge9" class="edge">
<title>Node10&#45;&gt;Node1</title>
<path fill="none" stroke="#9a32cd" stroke-dasharray="5,2" d="M292.95,-250.61C318.61,-246.75 356.55,-237.83 383,-217.5 408.26,-198.09 424.12,-162.32 430.61,-145.17"/>
<polygon fill="#9a32cd" stroke="#9a32cd" points="292.21,-247.18 282.77,-251.98 293.15,-254.12 292.21,-247.18"/>
<text text-anchor="middle" x="358" y="-243.5" font-family="Helvetica,sans-Serif" font-size="10.00"> url</text>
</g>
</g>
</svg>
