<?xml version="1.0" encoding="UTF-8" standalone="no"?>
<!DOCTYPE svg PUBLIC "-//W3C//DTD SVG 1.1//EN"
 "http://www.w3.org/Graphics/SVG/1.1/DTD/svg11.dtd">
<!-- Generated by graphviz version 2.50.0 (20220203.2022)
 -->
<!-- Title: TestStack::checkMat Pages: 1 -->
<svg width="341pt" height="66pt"
 viewBox="0.00 0.00 341.00 66.00" xmlns="http://www.w3.org/2000/svg" xmlns:xlink="http://www.w3.org/1999/xlink">
<g id="graph0" class="graph" transform="scale(1 1) rotate(0) translate(4 62)">
<title>TestStack::checkMat</title>
<polygon fill="white" stroke="transparent" points="-4,4 -4,-62 337,-62 337,4 -4,4"/>
<!-- Node1 -->
<g id="node1" class="node">
<title>Node1</title>
<g id="a_node1"><a xlink:title="Check matrix entries for invalid values.">
<polygon fill="#bfbfbf" stroke="black" points="0,-19.5 0,-38.5 109,-38.5 109,-19.5 0,-19.5"/>
<text text-anchor="middle" x="54.5" y="-26.5" font-family="Helvetica,sans-Serif" font-size="10.00">TestStack::checkMat</text>
</a>
</g>
</g>
<!-- Node2 -->
<g id="node2" class="node">
<title>Node2</title>
<g id="a_node2"><a xlink:href="structTestStack.html#afbc78d5bcc032f03034721e763558313" target="_top" xlink:title="Get the test stack as a string.">
<polygon fill="white" stroke="black" points="145,-38.5 145,-57.5 250,-57.5 250,-38.5 145,-38.5"/>
<text text-anchor="middle" x="197.5" y="-45.5" font-family="Helvetica,sans-Serif" font-size="10.00">TestStack::getStack</text>
</a>
</g>
</g>
<!-- Node1&#45;&gt;Node2 -->
<g id="edge1" class="edge">
<title>Node1&#45;&gt;Node2</title>
<path fill="none" stroke="midnightblue" d="M109.21,-36.24C117.6,-37.37 126.33,-38.54 134.88,-39.7"/>
<polygon fill="midnightblue" stroke="midnightblue" points="134.42,-43.17 144.8,-41.03 135.36,-36.23 134.42,-43.17"/>
</g>
<!-- Node3 -->
<g id="node3" class="node">
<title>Node3</title>
<g id="a_node3"><a xlink:href="algebra__old_8cpp.html#a1d2c1ecab5b17dcc773fcd83c0b87b7e" target="_top" xlink:title=" ">
<polygon fill="white" stroke="black" points="181,-0.5 181,-19.5 214,-19.5 214,-0.5 181,-0.5"/>
<text text-anchor="middle" x="197.5" y="-7.5" font-family="Helvetica,sans-Serif" font-size="10.00">mat</text>
</a>
</g>
</g>
<!-- Node1&#45;&gt;Node3 -->
<g id="edge2" class="edge">
<title>Node1&#45;&gt;Node3</title>
<path fill="none" stroke="midnightblue" d="M109.21,-21.76C130.28,-18.92 153.47,-15.8 170.65,-13.48"/>
<polygon fill="midnightblue" stroke="midnightblue" points="171.54,-16.89 180.99,-12.09 170.61,-9.96 171.54,-16.89"/>
</g>
<!-- Node4 -->
<g id="node4" class="node">
<title>Node4</title>
<g id="a_node4"><a xlink:href="streamTrace_8cpp.html#a21317feb447406c5be7ca4a27dc3e862" target="_top" xlink:title=" ">
<polygon fill="white" stroke="black" points="286,-0.5 286,-19.5 333,-19.5 333,-0.5 286,-0.5"/>
<text text-anchor="middle" x="309.5" y="-7.5" font-family="Helvetica,sans-Serif" font-size="10.00">fatalerr</text>
</a>
</g>
</g>
<!-- Node3&#45;&gt;Node4 -->
<g id="edge3" class="edge">
<title>Node3&#45;&gt;Node4</title>
<path fill="none" stroke="midnightblue" d="M214.26,-10C230.25,-10 255.46,-10 275.79,-10"/>
<polygon fill="midnightblue" stroke="midnightblue" points="275.9,-13.5 285.9,-10 275.9,-6.5 275.9,-13.5"/>
</g>
</g>
</svg>
