<?xml version="1.0" encoding="UTF-8" standalone="no"?>
<!DOCTYPE svg PUBLIC "-//W3C//DTD SVG 1.1//EN"
 "http://www.w3.org/Graphics/SVG/1.1/DTD/svg11.dtd">
<!-- Generated by graphviz version 2.50.0 (20220203.2022)
 -->
<!-- Title: SsrBroadcast Pages: 1 -->
<svg width="333pt" height="163pt"
 viewBox="0.00 0.00 332.50 163.00" xmlns="http://www.w3.org/2000/svg" xmlns:xlink="http://www.w3.org/1999/xlink">
<g id="graph0" class="graph" transform="scale(1 1) rotate(0) translate(4 159)">
<title>SsrBroadcast</title>
<polygon fill="white" stroke="transparent" points="-4,4 -4,-159 328.5,-159 328.5,4 -4,4"/>
<!-- Node1 -->
<g id="node1" class="node">
<title>Node1</title>
<g id="a_node1"><a xlink:title=" ">
<polygon fill="#bfbfbf" stroke="black" points="90,-0.5 90,-19.5 166,-19.5 166,-0.5 90,-0.5"/>
<text text-anchor="middle" x="128" y="-7.5" font-family="Helvetica,sans-Serif" font-size="10.00">SsrBroadcast</text>
</a>
</g>
</g>
<!-- Node2 -->
<g id="node2" class="node">
<title>Node2</title>
<g id="a_node2"><a xlink:href="structSSRMetaOpts.html" target="_top" xlink:title=" ">
<polygon fill="white" stroke="black" points="0,-67.5 0,-86.5 80,-86.5 80,-67.5 0,-67.5"/>
<text text-anchor="middle" x="40" y="-74.5" font-family="Helvetica,sans-Serif" font-size="10.00">SSRMetaOpts</text>
</a>
</g>
</g>
<!-- Node2&#45;&gt;Node1 -->
<g id="edge1" class="edge">
<title>Node2&#45;&gt;Node1</title>
<path fill="none" stroke="midnightblue" d="M60.22,-61.07C77.59,-48.24 102.03,-30.19 116.32,-19.63"/>
<polygon fill="midnightblue" stroke="midnightblue" points="57.83,-58.48 51.87,-67.23 61.99,-64.11 57.83,-58.48"/>
</g>
<!-- Node3 -->
<g id="node3" class="node">
<title>Node3</title>
<g id="a_node3"><a xlink:title=" ">
<polygon fill="white" stroke="black" points="98.5,-67.5 98.5,-86.5 157.5,-86.5 157.5,-67.5 98.5,-67.5"/>
<text text-anchor="middle" x="128" y="-74.5" font-family="Helvetica,sans-Serif" font-size="10.00">std::string</text>
</a>
</g>
</g>
<!-- Node3&#45;&gt;Node1 -->
<g id="edge2" class="edge">
<title>Node3&#45;&gt;Node1</title>
<path fill="none" stroke="#9a32cd" stroke-dasharray="5,2" d="M128,-57.04C128,-44.67 128,-29.12 128,-19.63"/>
<polygon fill="#9a32cd" stroke="#9a32cd" points="124.5,-57.23 128,-67.23 131.5,-57.23 124.5,-57.23"/>
<text text-anchor="middle" x="149.5" y="-41" font-family="Helvetica,sans-Serif" font-size="10.00"> target_url</text>
</g>
<!-- Node4 -->
<g id="node4" class="node">
<title>Node4</title>
<g id="a_node4"><a xlink:title=" ">
<polygon fill="white" stroke="black" points="81.5,-124.5 81.5,-154.5 174.5,-154.5 174.5,-124.5 81.5,-124.5"/>
<text text-anchor="start" x="89.5" y="-142.5" font-family="Helvetica,sans-Serif" font-size="10.00">std::basic_string&lt;</text>
<text text-anchor="middle" x="128" y="-131.5" font-family="Helvetica,sans-Serif" font-size="10.00"> Char &gt;</text>
</a>
</g>
</g>
<!-- Node4&#45;&gt;Node3 -->
<g id="edge3" class="edge">
<title>Node4&#45;&gt;Node3</title>
<path fill="none" stroke="midnightblue" d="M128,-114.35C128,-104.51 128,-93.78 128,-86.54"/>
<polygon fill="midnightblue" stroke="midnightblue" points="124.5,-114.47 128,-124.47 131.5,-114.47 124.5,-114.47"/>
</g>
<!-- Node5 -->
<g id="node5" class="node">
<title>Node5</title>
<g id="a_node5"><a xlink:title=" ">
<polygon fill="white" stroke="black" points="175.5,-67.5 175.5,-86.5 324.5,-86.5 324.5,-67.5 175.5,-67.5"/>
<text text-anchor="middle" x="250" y="-74.5" font-family="Helvetica,sans-Serif" font-size="10.00">std::set&lt; RtcmMessageType &gt;</text>
</a>
</g>
</g>
<!-- Node5&#45;&gt;Node1 -->
<g id="edge4" class="edge">
<title>Node5&#45;&gt;Node1</title>
<path fill="none" stroke="#9a32cd" stroke-dasharray="5,2" d="M224.86,-62.6C200.69,-49.73 164.9,-30.66 144.27,-19.67"/>
<polygon fill="#9a32cd" stroke="#9a32cd" points="223.33,-65.76 233.8,-67.37 226.62,-59.58 223.33,-65.76"/>
<text text-anchor="middle" x="243" y="-41" font-family="Helvetica,sans-Serif" font-size="10.00"> rtcmMessagesTypes</text>
</g>
</g>
</svg>
