<?xml version="1.0" encoding="UTF-8" standalone="no"?>
<!DOCTYPE svg PUBLIC "-//W3C//DTD SVG 1.1//EN"
 "http://www.w3.org/Graphics/SVG/1.1/DTD/svg11.dtd">
<!-- Generated by graphviz version 2.50.0 (20220203.2022)
 -->
<!-- Title: KFKey Pages: 1 -->
<!--zoomable 556 -->
<svg id="main" version="1.1" xmlns="http://www.w3.org/2000/svg" xmlns:xlink="http://www.w3.org/1999/xlink" xml:space="preserve" onload="init(evt)">
<style type="text/css"><![CDATA[
.edge:hover path { stroke: red; }
.edge:hover polygon { stroke: red; fill: red; }
]]></style>
<script type="text/javascript"><![CDATA[
var edges = document.getElementsByTagName('g');
if (edges && edges.length) {
  for (var i=0;i<edges.length;i++) {
    if (edges[i].id.substr(0,4)=='edge') {
      edges[i].setAttribute('class','edge');
    }
  }
}
]]></script>
        <defs>
                <circle id="rim" cx="0" cy="0" r="7"/>
                <circle id="rim2" cx="0" cy="0" r="3.5"/>
                <g id="zoomPlus">
                        <use xlink:href="#rim" fill="#404040">
                                <set attributeName="fill" to="#808080" begin="zoomplus.mouseover" end="zoomplus.mouseout"/>
                        </use>
                        <path d="M-4,0h8M0,-4v8" fill="none" stroke="white" stroke-width="1.5" pointer-events="none"/>
                </g>
                <g id="zoomMin">
                        <use xlink:href="#rim" fill="#404040">
                                <set attributeName="fill" to="#808080" begin="zoomminus.mouseover" end="zoomminus.mouseout"/>
                        </use>
                        <path d="M-4,0h8" fill="none" stroke="white" stroke-width="1.5" pointer-events="none"/>
                </g>
                <g id="dirArrow">
                        <path fill="none" stroke="white" stroke-width="1.5" d="M0,-3.0v7 M-2.5,-0.5L0,-3.0L2.5,-0.5"/>
                </g>
               <g id="resetDef">
                       <use xlink:href="#rim2" fill="#404040">
                               <set attributeName="fill" to="#808080" begin="reset.mouseover" end="reset.mouseout"/>
                       </use>
               </g>
        </defs>

<script type="text/javascript">
var viewWidth = 670;
var viewHeight = 556;
var sectionId = 'dynsection-0';
</script>
<script xlink:href="svgpan.js"/>
<svg id="graph" class="graph">
<g id="viewport">
<title>KFKey</title>
<polygon fill="white" stroke="transparent" points="-4,4 -4,-552.34 666,-552.34 666,4 -4,4"/>
<!-- Node1 -->
<g id="node1" class="node">
<title>Node1</title>
<g id="a_node1"><a xlink:title="Keys used to interface with Kalman filter objects.">
<polygon fill="#bfbfbf" stroke="black" points="574,-439.34 574,-458.34 620,-458.34 620,-439.34 574,-439.34"/>
<text text-anchor="middle" x="597" y="-446.34" font-family="Helvetica,sans-Serif" font-size="10.00">KFKey</text>
</a>
</g>
</g>
<!-- Node2 -->
<g id="node2" class="node">
<title>Node2</title>
<g id="a_node2"><a xlink:href="structSatSys.html" target="_top" xlink:title="Object holding satellite id, and providing related functions.">
<polygon fill="white" stroke="black" points="391,-506.34 391,-525.34 439,-525.34 439,-506.34 391,-506.34"/>
<text text-anchor="middle" x="415" y="-513.34" font-family="Helvetica,sans-Serif" font-size="10.00">SatSys</text>
</a>
</g>
</g>
<!-- Node2&#45;&gt;Node1 -->
<g id="edge1" class="edge">
<title>Node2&#45;&gt;Node1</title>
<path fill="none" stroke="#9a32cd" stroke-dasharray="5,2" d="M448.02,-502.4C451.05,-501.18 454.08,-499.98 457,-498.84 497.9,-483.02 546.18,-466.03 573.73,-456.49"/>
<polygon fill="#9a32cd" stroke="#9a32cd" points="446.41,-499.27 438.48,-506.3 449.06,-505.75 446.41,-499.27"/>
<text text-anchor="middle" x="485.5" y="-501.84" font-family="Helvetica,sans-Serif" font-size="10.00"> Sat</text>
</g>
<!-- Node3 -->
<g id="node3" class="node">
<title>Node3</title>
<g id="a_node3"><a xlink:title=" ">
<polygon fill="white" stroke="red" points="532,-517.84 532,-547.84 662,-547.84 662,-517.84 532,-517.84"/>
<text text-anchor="start" x="540" y="-535.84" font-family="Helvetica,sans-Serif" font-size="10.00">std::map&lt; SatSys, SatSys</text>
<text text-anchor="middle" x="597" y="-524.84" font-family="Helvetica,sans-Serif" font-size="10.00">::SatData &gt;</text>
</a>
</g>
</g>
<!-- Node2&#45;&gt;Node3 -->
<g id="edge3" class="edge">
<title>Node2&#45;&gt;Node3</title>
<path fill="none" stroke="#9a32cd" stroke-dasharray="5,2" d="M448.9,-526.24C451.62,-526.87 454.35,-527.41 457,-527.84 481.2,-531.76 508.06,-533.35 531.66,-533.85"/>
<polygon fill="#9a32cd" stroke="#9a32cd" points="449.74,-522.84 439.19,-523.72 447.98,-529.62 449.74,-522.84"/>
<text text-anchor="middle" x="485.5" y="-535.84" font-family="Helvetica,sans-Serif" font-size="10.00"> keys</text>
</g>
<!-- Node3&#45;&gt;Node2 -->
<g id="edge2" class="edge">
<title>Node3&#45;&gt;Node2</title>
<path fill="none" stroke="#9a32cd" stroke-dasharray="5,2" d="M521.67,-517.73C519.09,-517.4 516.53,-517.1 514,-516.84 488.44,-514.24 458.94,-514.36 439.04,-514.9"/>
<polygon fill="#9a32cd" stroke="#9a32cd" points="521.32,-521.21 531.71,-519.15 522.3,-514.28 521.32,-521.21"/>
<text text-anchor="middle" x="485.5" y="-519.84" font-family="Helvetica,sans-Serif" font-size="10.00"> SatDataMap</text>
</g>
<!-- Node5 -->
<g id="node4" class="node">
<title>Node5</title>
<g id="a_node4"><a xlink:title=" ">
<polygon fill="white" stroke="red" points="0,-310.34 0,-329.34 59,-329.34 59,-310.34 0,-310.34"/>
<text text-anchor="middle" x="29.5" y="-317.34" font-family="Helvetica,sans-Serif" font-size="10.00">std::string</text>
</a>
</g>
</g>
<!-- Node5&#45;&gt;Node1 -->
<g id="edge4" class="edge">
<title>Node5&#45;&gt;Node1</title>
<path fill="none" stroke="#9a32cd" stroke-dasharray="5,2" d="M45,-337.53C53.61,-347.28 65.13,-359.14 77,-367.84 109.06,-391.34 118.78,-396.92 157,-407.84 311.56,-452.02 507.95,-451.31 573.54,-449.63"/>
<polygon fill="#9a32cd" stroke="#9a32cd" points="47.41,-334.96 38.25,-329.63 42.09,-339.5 47.41,-334.96"/>
<text text-anchor="middle" x="338.5" y="-446.84" font-family="Helvetica,sans-Serif" font-size="10.00"> str</text>
</g>
<!-- Node7 -->
<g id="node5" class="node">
<title>Node7</title>
<g id="a_node5"><a xlink:href="structStation.html" target="_top" xlink:title="Object to maintain receiver station data.">
<polygon fill="white" stroke="black" points="391.5,-177.34 391.5,-196.34 438.5,-196.34 438.5,-177.34 391.5,-177.34"/>
<text text-anchor="middle" x="415" y="-184.34" font-family="Helvetica,sans-Serif" font-size="10.00">Station</text>
</a>
</g>
</g>
<!-- Node5&#45;&gt;Node7 -->
<g id="edge17" class="edge">
<title>Node5&#45;&gt;Node7</title>
<path fill="none" stroke="#9a32cd" stroke-dasharray="5,2" d="M48.54,-336.05C56.64,-342.27 66.69,-348.64 77,-351.84 103.31,-360.02 111.7,-355.57 139,-351.84 245.95,-337.27 292.3,-358.53 373,-286.84 400.64,-262.29 410.02,-216.31 412.87,-196.42"/>
<polygon fill="#9a32cd" stroke="#9a32cd" points="50.54,-333.16 40.59,-329.52 46.1,-338.57 50.54,-333.16"/>
<text text-anchor="middle" x="221.5" y="-395.84" font-family="Helvetica,sans-Serif" font-size="10.00"> id</text>
<text text-anchor="middle" x="221.5" y="-384.84" font-family="Helvetica,sans-Serif" font-size="10.00">rtsTropFilename</text>
<text text-anchor="middle" x="221.5" y="-373.84" font-family="Helvetica,sans-Serif" font-size="10.00">solutFilename</text>
<text text-anchor="middle" x="221.5" y="-362.84" font-family="Helvetica,sans-Serif" font-size="10.00">traceFilename</text>
<text text-anchor="middle" x="221.5" y="-351.84" font-family="Helvetica,sans-Serif" font-size="10.00">tropFilename</text>
</g>
<!-- Node13 -->
<g id="node8" class="node">
<title>Node13</title>
<g id="a_node8"><a xlink:href="structRinexStation.html" target="_top" xlink:title=" ">
<polygon fill="white" stroke="black" points="186,-272.34 186,-291.34 257,-291.34 257,-272.34 186,-272.34"/>
<text text-anchor="middle" x="221.5" y="-279.34" font-family="Helvetica,sans-Serif" font-size="10.00">RinexStation</text>
</a>
</g>
</g>
<!-- Node5&#45;&gt;Node13 -->
<g id="edge9" class="edge">
<title>Node5&#45;&gt;Node13</title>
<path fill="none" stroke="#9a32cd" stroke-dasharray="5,2" d="M43.13,-302.14C51.46,-292.06 63.33,-280.37 77,-274.84 112.26,-260.58 156.43,-265.79 186.39,-272.34"/>
<polygon fill="#9a32cd" stroke="#9a32cd" points="40.35,-300.01 37,-310.06 45.89,-304.29 40.35,-300.01"/>
<text text-anchor="middle" x="108" y="-343.84" font-family="Helvetica,sans-Serif" font-size="10.00"> antDesc</text>
<text text-anchor="middle" x="108" y="-332.84" font-family="Helvetica,sans-Serif" font-size="10.00">antSerial</text>
<text text-anchor="middle" x="108" y="-321.84" font-family="Helvetica,sans-Serif" font-size="10.00">id</text>
<text text-anchor="middle" x="108" y="-310.84" font-family="Helvetica,sans-Serif" font-size="10.00">marker</text>
<text text-anchor="middle" x="108" y="-299.84" font-family="Helvetica,sans-Serif" font-size="10.00">recFWVersion</text>
<text text-anchor="middle" x="108" y="-288.84" font-family="Helvetica,sans-Serif" font-size="10.00">recSerial</text>
<text text-anchor="middle" x="108" y="-277.84" font-family="Helvetica,sans-Serif" font-size="10.00">recType</text>
</g>
<!-- Node47 -->
<g id="node11" class="node">
<title>Node47</title>
<g id="a_node11"><a xlink:href="structSinex__stn__snx__t.html" target="_top" xlink:title=" ">
<polygon fill="white" stroke="black" points="177.5,-120.34 177.5,-139.34 265.5,-139.34 265.5,-120.34 177.5,-120.34"/>
<text text-anchor="middle" x="221.5" y="-127.34" font-family="Helvetica,sans-Serif" font-size="10.00">Sinex_stn_snx_t</text>
</a>
</g>
</g>
<!-- Node5&#45;&gt;Node47 -->
<g id="edge13" class="edge">
<title>Node5&#45;&gt;Node47</title>
<path fill="none" stroke="#9a32cd" stroke-dasharray="5,2" d="M32.73,-299.96C37.94,-257.54 52.34,-160.36 77,-139.84 104.46,-117.01 146.02,-116.56 177.35,-120.62"/>
<polygon fill="#9a32cd" stroke="#9a32cd" points="29.23,-299.8 31.53,-310.14 36.18,-300.62 29.23,-299.8"/>
<text text-anchor="middle" x="108" y="-252.84" font-family="Helvetica,sans-Serif" font-size="10.00"> antsn</text>
<text text-anchor="middle" x="108" y="-241.84" font-family="Helvetica,sans-Serif" font-size="10.00">anttype</text>
<text text-anchor="middle" x="108" y="-230.84" font-family="Helvetica,sans-Serif" font-size="10.00">desc</text>
<text text-anchor="middle" x="108" y="-219.84" font-family="Helvetica,sans-Serif" font-size="10.00">eccrs</text>
<text text-anchor="middle" x="108" y="-208.84" font-family="Helvetica,sans-Serif" font-size="10.00">monuid</text>
<text text-anchor="middle" x="108" y="-197.84" font-family="Helvetica,sans-Serif" font-size="10.00">ptcode</text>
<text text-anchor="middle" x="108" y="-186.84" font-family="Helvetica,sans-Serif" font-size="10.00">recfirm</text>
<text text-anchor="middle" x="108" y="-175.84" font-family="Helvetica,sans-Serif" font-size="10.00">recsn</text>
<text text-anchor="middle" x="108" y="-164.84" font-family="Helvetica,sans-Serif" font-size="10.00">rectype</text>
<text text-anchor="middle" x="108" y="-153.84" font-family="Helvetica,sans-Serif" font-size="10.00">sitecode</text>
<text text-anchor="middle" x="108" y="-142.84" font-family="Helvetica,sans-Serif" font-size="10.00">...</text>
</g>
<!-- Node7&#45;&gt;Node1 -->
<g id="edge5" class="edge">
<title>Node7&#45;&gt;Node1</title>
<path fill="none" stroke="#9a32cd" stroke-dasharray="5,2" d="M428.39,-204.88C463.47,-255.94 562.64,-400.29 589.32,-439.12"/>
<polygon fill="#9a32cd" stroke="#9a32cd" points="431.17,-202.74 422.62,-196.48 425.4,-206.7 431.17,-202.74"/>
<text text-anchor="middle" x="485.5" y="-327.84" font-family="Helvetica,sans-Serif" font-size="10.00"> rec_ptr</text>
</g>
<!-- Node8 -->
<g id="node6" class="node">
<title>Node8</title>
<g id="a_node6"><a xlink:href="structIonoStation.html" target="_top" xlink:title=" ">
<polygon fill="white" stroke="black" points="188.5,-82.34 188.5,-101.34 254.5,-101.34 254.5,-82.34 188.5,-82.34"/>
<text text-anchor="middle" x="221.5" y="-89.34" font-family="Helvetica,sans-Serif" font-size="10.00">IonoStation</text>
</a>
</g>
</g>
<!-- Node8&#45;&gt;Node7 -->
<g id="edge6" class="edge">
<title>Node8&#45;&gt;Node7</title>
<path fill="none" stroke="midnightblue" d="M264.7,-95.1C296.74,-99.3 340.65,-108.89 373,-130.84 390.35,-142.62 403.06,-164.26 409.42,-176.91"/>
<polygon fill="midnightblue" stroke="midnightblue" points="265.08,-91.62 254.74,-93.92 264.26,-98.57 265.08,-91.62"/>
</g>
<!-- Node9 -->
<g id="node7" class="node">
<title>Node9</title>
<g id="a_node7"><a xlink:href="structStationLogs.html" target="_top" xlink:title=" ">
<polygon fill="white" stroke="red" points="187,-44.34 187,-63.34 256,-63.34 256,-44.34 187,-44.34"/>
<text text-anchor="middle" x="221.5" y="-51.34" font-family="Helvetica,sans-Serif" font-size="10.00">StationLogs</text>
</a>
</g>
</g>
<!-- Node9&#45;&gt;Node7 -->
<g id="edge7" class="edge">
<title>Node9&#45;&gt;Node7</title>
<path fill="none" stroke="midnightblue" d="M266.4,-57.37C299.15,-62.08 343.21,-73.1 373,-98.84 397.61,-120.11 408.42,-159.33 412.24,-177.34"/>
<polygon fill="midnightblue" stroke="midnightblue" points="266.56,-53.86 256.19,-56.05 265.66,-60.8 266.56,-53.86"/>
</g>
<!-- Node13&#45;&gt;Node7 -->
<g id="edge8" class="edge">
<title>Node13&#45;&gt;Node7</title>
<path fill="none" stroke="#9a32cd" stroke-dasharray="5,2" d="M267.66,-279.48C299.48,-275.91 341.81,-267.15 373,-245.84 391.34,-233.32 404,-209.69 410.01,-196.45"/>
<polygon fill="#9a32cd" stroke="#9a32cd" points="266.91,-276.04 257.3,-280.5 267.59,-283 266.91,-276.04"/>
<text text-anchor="middle" x="338.5" y="-274.84" font-family="Helvetica,sans-Serif" font-size="10.00"> rnxStation</text>
</g>
<!-- Node14 -->
<g id="node9" class="node">
<title>Node14</title>
<g id="a_node9"><a xlink:title=" ">
<polygon fill="white" stroke="black" points="1.5,-30.34 1.5,-49.34 57.5,-49.34 57.5,-30.34 1.5,-30.34"/>
<text text-anchor="middle" x="29.5" y="-37.34" font-family="Helvetica,sans-Serif" font-size="10.00">Vector3d</text>
</a>
</g>
</g>
<!-- Node14&#45;&gt;Node7 -->
<g id="edge18" class="edge">
<title>Node14&#45;&gt;Node7</title>
<path fill="none" stroke="#9a32cd" stroke-dasharray="5,2" d="M65.06,-27.13C69.05,-25.9 73.09,-24.77 77,-23.84 167.48,-2.27 195.92,10.36 286,-12.84 328.77,-23.86 344.87,-26.8 373,-60.84 402.6,-96.66 411.02,-154.41 413.25,-177.17"/>
<polygon fill="#9a32cd" stroke="#9a32cd" points="63.76,-23.87 55.33,-30.3 65.93,-30.53 63.76,-23.87"/>
<text text-anchor="middle" x="221.5" y="-26.84" font-family="Helvetica,sans-Serif" font-size="10.00"> aprioriPos</text>
<text text-anchor="middle" x="221.5" y="-15.84" font-family="Helvetica,sans-Serif" font-size="10.00">aprioriVar</text>
</g>
<!-- Node14&#45;&gt;Node13 -->
<g id="edge10" class="edge">
<title>Node14&#45;&gt;Node13</title>
<path fill="none" stroke="#9a32cd" stroke-dasharray="5,2" d="M58.96,-53.97C64.92,-56.91 71.16,-59.99 77,-62.84 104.5,-76.3 121.39,-67.8 139,-92.84 182.7,-155 108.47,-204.38 157,-262.84 164.13,-271.43 174.97,-276.24 185.69,-278.9"/>
<polygon fill="#9a32cd" stroke="#9a32cd" points="60.45,-50.8 49.94,-49.51 57.35,-57.08 60.45,-50.8"/>
<text text-anchor="middle" x="108" y="-106.84" font-family="Helvetica,sans-Serif" font-size="10.00"> del</text>
<text text-anchor="middle" x="108" y="-95.84" font-family="Helvetica,sans-Serif" font-size="10.00">pos</text>
</g>
<!-- Node14&#45;&gt;Node47 -->
<g id="edge14" class="edge">
<title>Node14&#45;&gt;Node47</title>
<path fill="none" stroke="#9a32cd" stroke-dasharray="5,2" d="M67.63,-29.67C90.52,-25.74 119.19,-25.34 139,-40.84 164.29,-60.64 134.73,-87.69 157,-110.84 162.58,-116.65 169.86,-120.7 177.49,-123.52"/>
<polygon fill="#9a32cd" stroke="#9a32cd" points="66.69,-26.29 57.57,-31.68 68.06,-33.15 66.69,-26.29"/>
<text text-anchor="middle" x="108" y="-54.84" font-family="Helvetica,sans-Serif" font-size="10.00"> ecc</text>
<text text-anchor="middle" x="108" y="-43.84" font-family="Helvetica,sans-Serif" font-size="10.00">pos</text>
</g>
<!-- Node15 -->
<g id="node10" class="node">
<title>Node15</title>
<g id="a_node10"><a xlink:href="structrtk__t.html" target="_top" xlink:title=" ">
<polygon fill="white" stroke="red" points="203.5,-234.34 203.5,-253.34 239.5,-253.34 239.5,-234.34 203.5,-234.34"/>
<text text-anchor="middle" x="221.5" y="-241.34" font-family="Helvetica,sans-Serif" font-size="10.00">rtk_t</text>
</a>
</g>
</g>
<!-- Node15&#45;&gt;Node7 -->
<g id="edge11" class="edge">
<title>Node15&#45;&gt;Node7</title>
<path fill="none" stroke="#9a32cd" stroke-dasharray="5,2" d="M249.73,-240.86C280.51,-236.86 331.7,-228.27 373,-211.84 382.92,-207.9 393.17,-201.65 400.94,-196.39"/>
<polygon fill="#9a32cd" stroke="#9a32cd" points="249.25,-237.4 239.75,-242.09 250.1,-244.34 249.25,-237.4"/>
<text text-anchor="middle" x="338.5" y="-233.84" font-family="Helvetica,sans-Serif" font-size="10.00"> rtk</text>
</g>
<!-- Node47&#45;&gt;Node7 -->
<g id="edge12" class="edge">
<title>Node47&#45;&gt;Node7</title>
<path fill="none" stroke="#9a32cd" stroke-dasharray="5,2" d="M275.85,-131.65C305.52,-134.28 342.5,-140.3 373,-153.84 385.36,-159.33 397.13,-169.5 404.86,-177.11"/>
<polygon fill="#9a32cd" stroke="#9a32cd" points="275.93,-128.14 265.68,-130.86 275.38,-135.12 275.93,-128.14"/>
<text text-anchor="middle" x="338.5" y="-156.84" font-family="Helvetica,sans-Serif" font-size="10.00"> snx</text>
</g>
<!-- Node48 -->
<g id="node12" class="node">
<title>Node48</title>
<g id="a_node12"><a xlink:title=" ">
<polygon fill="white" stroke="red" points="173.5,-196.34 173.5,-215.34 269.5,-215.34 269.5,-196.34 173.5,-196.34"/>
<text text-anchor="middle" x="221.5" y="-203.34" font-family="Helvetica,sans-Serif" font-size="10.00">std::vector&lt; Obs &gt;</text>
</a>
</g>
</g>
<!-- Node48&#45;&gt;Node7 -->
<g id="edge15" class="edge">
<title>Node48&#45;&gt;Node7</title>
<path fill="none" stroke="#9a32cd" stroke-dasharray="5,2" d="M280.13,-200.13C317.56,-196.41 364.29,-191.78 391.48,-189.08"/>
<polygon fill="#9a32cd" stroke="#9a32cd" points="279.44,-196.68 269.84,-201.15 280.13,-203.64 279.44,-196.68"/>
<text text-anchor="middle" x="338.5" y="-199.84" font-family="Helvetica,sans-Serif" font-size="10.00"> obsList</text>
</g>
<!-- Node67 -->
<g id="node13" class="node">
<title>Node67</title>
<g id="a_node13"><a xlink:title=" ">
<polygon fill="white" stroke="red" points="157,-158.34 157,-177.34 286,-177.34 286,-158.34 157,-158.34"/>
<text text-anchor="middle" x="221.5" y="-165.34" font-family="Helvetica,sans-Serif" font-size="10.00">std::vector&lt; PseudoObs &gt;</text>
</a>
</g>
</g>
<!-- Node67&#45;&gt;Node7 -->
<g id="edge16" class="edge">
<title>Node67&#45;&gt;Node7</title>
<path fill="none" stroke="#9a32cd" stroke-dasharray="5,2" d="M296.45,-168.7C320.93,-169.8 348.24,-171.91 373,-175.84 378.97,-176.79 385.32,-178.26 391.2,-179.82"/>
<polygon fill="#9a32cd" stroke="#9a32cd" points="296.28,-165.19 286.15,-168.29 296,-172.18 296.28,-165.19"/>
<text text-anchor="middle" x="338.5" y="-178.84" font-family="Helvetica,sans-Serif" font-size="10.00"> pseudoObsList</text>
</g>
</g>
</svg>
        <g id="navigator" transform="translate(0 0)" fill="#404254">
                <rect fill="#f2f5e9" fill-opacity="0.5" stroke="#606060" stroke-width=".5" x="0" y="0" width="60" height="60"/>
                <use id="zoomplus" xlink:href="#zoomPlus" x="17" y="9" onmousedown="handleZoom(evt,'in')"/>
                <use id="zoomminus" xlink:href="#zoomMin" x="42" y="9" onmousedown="handleZoom(evt,'out')"/>
                <use id="reset" xlink:href="#resetDef" x="30" y="36" onmousedown="handleReset()"/>
                <g id="arrowUp" xlink:href="#dirArrow" transform="translate(30 24)" onmousedown="handlePan(0,-1)">
                  <use xlink:href="#rim" fill="#404040">
                        <set attributeName="fill" to="#808080" begin="arrowUp.mouseover" end="arrowUp.mouseout"/>
                  </use>
                  <path fill="none" stroke="white" stroke-width="1.5" d="M0,-3.0v7 M-2.5,-0.5L0,-3.0L2.5,-0.5"/>
                </g>
                <g id="arrowRight" xlink:href="#dirArrow" transform="rotate(90) translate(36 -43)" onmousedown="handlePan(1,0)">
                  <use xlink:href="#rim" fill="#404040">
                        <set attributeName="fill" to="#808080" begin="arrowRight.mouseover" end="arrowRight.mouseout"/>
                  </use>
                  <path fill="none" stroke="white" stroke-width="1.5" d="M0,-3.0v7 M-2.5,-0.5L0,-3.0L2.5,-0.5"/>
                </g>
                <g id="arrowDown" xlink:href="#dirArrow" transform="rotate(180) translate(-30 -48)" onmousedown="handlePan(0,1)">
                  <use xlink:href="#rim" fill="#404040">
                        <set attributeName="fill" to="#808080" begin="arrowDown.mouseover" end="arrowDown.mouseout"/>
                  </use>
                  <path fill="none" stroke="white" stroke-width="1.5" d="M0,-3.0v7 M-2.5,-0.5L0,-3.0L2.5,-0.5"/>
                </g>
                <g id="arrowLeft" xlink:href="#dirArrow" transform="rotate(270) translate(-36 17)" onmousedown="handlePan(-1,0)">
                  <use xlink:href="#rim" fill="#404040">
                        <set attributeName="fill" to="#808080" begin="arrowLeft.mouseover" end="arrowLeft.mouseout"/>
                  </use>
                  <path fill="none" stroke="white" stroke-width="1.5" d="M0,-3.0v7 M-2.5,-0.5L0,-3.0L2.5,-0.5"/>
                </g>
        </g>
        <svg viewBox="0 0 15 15" width="100%" height="30px" preserveAspectRatio="xMaxYMin meet">
         <g id="arrow_out" transform="scale(0.3 0.3)">
          <a xlink:href="structKFKey__coll__graph_org.svg" target="_base">
           <rect id="button" ry="5" rx="5" y="6" x="6" height="38" width="38"
                fill="#f2f5e9" fill-opacity="0.5" stroke="#606060" stroke-width="1.0"/>
           <path id="arrow"
             d="M 11.500037,31.436501 C 11.940474,20.09759 22.043105,11.32322 32.158766,21.979434 L 37.068811,17.246167 C 37.068811,17.246167 37.088388,32 37.088388,32 L 22.160133,31.978069 C 22.160133,31.978069 26.997745,27.140456 26.997745,27.140456 C 18.528582,18.264221 13.291696,25.230495 11.500037,31.436501 z"
             style="fill:#404040;"/>
          </a>
         </g>
        </svg>
</svg>
