<?xml version="1.0" encoding="UTF-8" standalone="no"?>
<!DOCTYPE svg PUBLIC "-//W3C//DTD SVG 1.1//EN"
 "http://www.w3.org/Graphics/SVG/1.1/DTD/svg11.dtd">
<!-- Generated by graphviz version 2.50.0 (20220203.2022)
 -->
<!-- Title: RinexOutput Pages: 1 -->
<svg width="256pt" height="195pt"
 viewBox="0.00 0.00 255.50 195.00" xmlns="http://www.w3.org/2000/svg" xmlns:xlink="http://www.w3.org/1999/xlink">
<g id="graph0" class="graph" transform="scale(1 1) rotate(0) translate(4 191)">
<title>RinexOutput</title>
<polygon fill="white" stroke="transparent" points="-4,4 -4,-191 251.5,-191 251.5,4 -4,4"/>
<!-- Node1 -->
<g id="node1" class="node">
<title>Node1</title>
<g id="a_node1"><a xlink:title=" ">
<polygon fill="#bfbfbf" stroke="black" points="70.5,-0.5 70.5,-19.5 140.5,-19.5 140.5,-0.5 70.5,-0.5"/>
<text text-anchor="middle" x="105.5" y="-7.5" font-family="Helvetica,sans-Serif" font-size="10.00">RinexOutput</text>
</a>
</g>
</g>
<!-- Node2 -->
<g id="node2" class="node">
<title>Node2</title>
<g id="a_node2"><a xlink:title=" ">
<polygon fill="white" stroke="black" points="25,-78.5 25,-97.5 84,-97.5 84,-78.5 25,-78.5"/>
<text text-anchor="middle" x="54.5" y="-85.5" font-family="Helvetica,sans-Serif" font-size="10.00">std::string</text>
</a>
</g>
</g>
<!-- Node2&#45;&gt;Node1 -->
<g id="edge1" class="edge">
<title>Node2&#45;&gt;Node1</title>
<path fill="none" stroke="#9a32cd" stroke-dasharray="5,2" d="M66.2,-69.57C76.68,-53.95 91.61,-31.7 99.72,-19.62"/>
<polygon fill="#9a32cd" stroke="#9a32cd" points="63.02,-68.03 60.35,-78.28 68.83,-71.93 63.02,-68.03"/>
<text text-anchor="middle" x="106.5" y="-41" font-family="Helvetica,sans-Serif" font-size="10.00"> sysDesc</text>
</g>
<!-- Node3 -->
<g id="node3" class="node">
<title>Node3</title>
<g id="a_node3"><a xlink:title=" ">
<polygon fill="white" stroke="black" points="0,-156.5 0,-186.5 93,-186.5 93,-156.5 0,-156.5"/>
<text text-anchor="start" x="8" y="-174.5" font-family="Helvetica,sans-Serif" font-size="10.00">std::basic_string&lt;</text>
<text text-anchor="middle" x="46.5" y="-163.5" font-family="Helvetica,sans-Serif" font-size="10.00"> Char &gt;</text>
</a>
</g>
</g>
<!-- Node3&#45;&gt;Node2 -->
<g id="edge2" class="edge">
<title>Node3&#45;&gt;Node2</title>
<path fill="none" stroke="midnightblue" d="M48.88,-146.25C50.5,-129.78 52.54,-108.99 53.66,-97.54"/>
<polygon fill="midnightblue" stroke="midnightblue" points="45.39,-146.01 47.89,-156.3 52.35,-146.69 45.39,-146.01"/>
</g>
<!-- Node4 -->
<g id="node4" class="node">
<title>Node4</title>
<g id="a_node4"><a xlink:title=" ">
<polygon fill="white" stroke="black" points="116.5,-67.5 116.5,-108.5 228.5,-108.5 228.5,-67.5 116.5,-67.5"/>
<text text-anchor="start" x="124.5" y="-96.5" font-family="Helvetica,sans-Serif" font-size="10.00">std::map&lt; E_Sys, list</text>
<text text-anchor="start" x="124.5" y="-85.5" font-family="Helvetica,sans-Serif" font-size="10.00">&lt; pair&lt; E_ObsCode, E</text>
<text text-anchor="middle" x="172.5" y="-74.5" font-family="Helvetica,sans-Serif" font-size="10.00">_ObsDesc &gt; &gt; &gt;</text>
</a>
</g>
</g>
<!-- Node4&#45;&gt;Node1 -->
<g id="edge3" class="edge">
<title>Node4&#45;&gt;Node1</title>
<path fill="none" stroke="#9a32cd" stroke-dasharray="5,2" d="M149.12,-59.35C143.11,-52.34 136.61,-44.85 130.5,-38 125.06,-31.89 118.81,-25.14 113.92,-19.92"/>
<polygon fill="#9a32cd" stroke="#9a32cd" points="146.76,-61.97 155.91,-67.3 152.08,-57.42 146.76,-61.97"/>
<text text-anchor="middle" x="171" y="-41" font-family="Helvetica,sans-Serif" font-size="10.00"> codesPerSys</text>
</g>
<!-- Node5 -->
<g id="node5" class="node">
<title>Node5</title>
<g id="a_node5"><a xlink:title=" ">
<polygon fill="white" stroke="red" points="111.5,-156.5 111.5,-186.5 247.5,-186.5 247.5,-156.5 111.5,-156.5"/>
<text text-anchor="start" x="119.5" y="-174.5" font-family="Helvetica,sans-Serif" font-size="10.00">std::list&lt; pair&lt; E</text>
<text text-anchor="middle" x="179.5" y="-163.5" font-family="Helvetica,sans-Serif" font-size="10.00">_ObsCode, E_ObsDesc &gt; &gt;</text>
</a>
</g>
</g>
<!-- Node5&#45;&gt;Node4 -->
<g id="edge4" class="edge">
<title>Node5&#45;&gt;Node4</title>
<path fill="none" stroke="#9a32cd" stroke-dasharray="5,2" d="M177.4,-146.07C176.37,-134.06 175.14,-119.79 174.18,-108.53"/>
<polygon fill="#9a32cd" stroke="#9a32cd" points="173.94,-146.64 178.28,-156.3 180.91,-146.04 173.94,-146.64"/>
<text text-anchor="middle" x="199" y="-130" font-family="Helvetica,sans-Serif" font-size="10.00"> elements</text>
</g>
</g>
</svg>
