<?xml version="1.0" encoding="UTF-8" standalone="no"?>
<!DOCTYPE svg PUBLIC "-//W3C//DTD SVG 1.1//EN"
 "http://www.w3.org/Graphics/SVG/1.1/DTD/svg11.dtd">
<!-- Generated by graphviz version 2.50.0 (20220203.2022)
 -->
<!-- Title: RtcmDecoder::adjgpsweek Pages: 1 -->
<!--zoomable 104 -->
<svg id="main" version="1.1" xmlns="http://www.w3.org/2000/svg" xmlns:xlink="http://www.w3.org/1999/xlink" xml:space="preserve" onload="init(evt)">
<style type="text/css"><![CDATA[
.edge:hover path { stroke: red; }
.edge:hover polygon { stroke: red; fill: red; }
]]></style>
<script type="text/javascript"><![CDATA[
var edges = document.getElementsByTagName('g');
if (edges && edges.length) {
  for (var i=0;i<edges.length;i++) {
    if (edges[i].id.substr(0,4)=='edge') {
      edges[i].setAttribute('class','edge');
    }
  }
}
]]></script>
        <defs>
                <circle id="rim" cx="0" cy="0" r="7"/>
                <circle id="rim2" cx="0" cy="0" r="3.5"/>
                <g id="zoomPlus">
                        <use xlink:href="#rim" fill="#404040">
                                <set attributeName="fill" to="#808080" begin="zoomplus.mouseover" end="zoomplus.mouseout"/>
                        </use>
                        <path d="M-4,0h8M0,-4v8" fill="none" stroke="white" stroke-width="1.5" pointer-events="none"/>
                </g>
                <g id="zoomMin">
                        <use xlink:href="#rim" fill="#404040">
                                <set attributeName="fill" to="#808080" begin="zoomminus.mouseover" end="zoomminus.mouseout"/>
                        </use>
                        <path d="M-4,0h8" fill="none" stroke="white" stroke-width="1.5" pointer-events="none"/>
                </g>
                <g id="dirArrow">
                        <path fill="none" stroke="white" stroke-width="1.5" d="M0,-3.0v7 M-2.5,-0.5L0,-3.0L2.5,-0.5"/>
                </g>
               <g id="resetDef">
                       <use xlink:href="#rim2" fill="#404040">
                               <set attributeName="fill" to="#808080" begin="reset.mouseover" end="reset.mouseout"/>
                       </use>
               </g>
        </defs>

<script type="text/javascript">
var viewWidth = 518;
var viewHeight = 104;
var sectionId = 'dynsection-2';
</script>
<script xlink:href="svgpan.js"/>
<svg id="graph" class="graph">
<g id="viewport">
<title>RtcmDecoder::adjgpsweek</title>
<polygon fill="white" stroke="transparent" points="-4,4 -4,-100 514,-100 514,4 -4,4"/>
<!-- Node1 -->
<g id="node1" class="node">
<title>Node1</title>
<g id="a_node1"><a xlink:title=" ">
<polygon fill="#bfbfbf" stroke="black" points="0,-19.5 0,-38.5 132,-38.5 132,-19.5 0,-19.5"/>
<text text-anchor="middle" x="66" y="-26.5" font-family="Helvetica,sans-Serif" font-size="10.00">RtcmDecoder::adjgpsweek</text>
</a>
</g>
</g>
<!-- Node2 -->
<g id="node2" class="node">
<title>Node2</title>
<g id="a_node2"><a xlink:href="structRtcmDecoder.html#ac8a62e36b397dfb8333cd13b47b9b5de" target="_top" xlink:title=" ">
<polygon fill="white" stroke="black" points="168,-38.5 168,-57.5 288,-57.5 288,-38.5 168,-38.5"/>
<text text-anchor="middle" x="228" y="-45.5" font-family="Helvetica,sans-Serif" font-size="10.00">RtcmDecoder::nowTime</text>
</a>
</g>
</g>
<!-- Node1&#45;&gt;Node2 -->
<g id="edge1" class="edge">
<title>Node1&#45;&gt;Node2</title>
<path fill="none" stroke="midnightblue" d="M132.08,-36.73C140.6,-37.74 149.35,-38.78 157.93,-39.8"/>
<polygon fill="midnightblue" stroke="midnightblue" points="157.56,-43.28 167.9,-40.98 158.39,-36.33 157.56,-43.28"/>
</g>
<!-- Node6 -->
<g id="node6" class="node">
<title>Node6</title>
<g id="a_node6"><a xlink:href="gTime_8cpp.html#abf196aa655d8ca10168c2301a68a8101" target="_top" xlink:title=" ">
<polygon fill="white" stroke="black" points="198.5,-0.5 198.5,-19.5 257.5,-19.5 257.5,-0.5 198.5,-0.5"/>
<text text-anchor="middle" x="228" y="-7.5" font-family="Helvetica,sans-Serif" font-size="10.00">time2gpst</text>
</a>
</g>
</g>
<!-- Node1&#45;&gt;Node6 -->
<g id="edge5" class="edge">
<title>Node1&#45;&gt;Node6</title>
<path fill="none" stroke="midnightblue" d="M132.08,-21.27C151.14,-19.01 171.37,-16.61 188.23,-14.6"/>
<polygon fill="midnightblue" stroke="midnightblue" points="188.74,-18.07 198.26,-13.41 187.91,-11.12 188.74,-18.07"/>
</g>
<!-- Node3 -->
<g id="node3" class="node">
<title>Node3</title>
<g id="a_node3"><a xlink:href="structGTime.html#aaa8a379d11cd6c040a6bbe680c0e913e" target="_top" xlink:title="Uninitialised time for comparisons.">
<polygon fill="white" stroke="black" points="324,-76.5 324,-95.5 407,-95.5 407,-76.5 324,-76.5"/>
<text text-anchor="middle" x="365.5" y="-83.5" font-family="Helvetica,sans-Serif" font-size="10.00">GTime::noTime</text>
</a>
</g>
</g>
<!-- Node2&#45;&gt;Node3 -->
<g id="edge2" class="edge">
<title>Node2&#45;&gt;Node3</title>
<path fill="none" stroke="midnightblue" d="M263.19,-57.59C280.6,-62.47 301.97,-68.46 320.59,-73.68"/>
<polygon fill="midnightblue" stroke="midnightblue" points="319.74,-77.08 330.32,-76.41 321.64,-70.34 319.74,-77.08"/>
</g>
<!-- Node4 -->
<g id="node4" class="node">
<title>Node4</title>
<g id="a_node4"><a xlink:href="gTime_8cpp.html#a2a318fa02e2d05aa22eabbcf1a537fcf" target="_top" xlink:title="get current time in utc">
<polygon fill="white" stroke="black" points="341,-38.5 341,-57.5 390,-57.5 390,-38.5 341,-38.5"/>
<text text-anchor="middle" x="365.5" y="-45.5" font-family="Helvetica,sans-Serif" font-size="10.00">timeget</text>
</a>
</g>
</g>
<!-- Node2&#45;&gt;Node4 -->
<g id="edge3" class="edge">
<title>Node2&#45;&gt;Node4</title>
<path fill="none" stroke="midnightblue" d="M288.04,-48C302.64,-48 317.78,-48 330.71,-48"/>
<polygon fill="midnightblue" stroke="midnightblue" points="330.98,-51.5 340.98,-48 330.98,-44.5 330.98,-51.5"/>
</g>
<!-- Node5 -->
<g id="node5" class="node">
<title>Node5</title>
<g id="a_node5"><a xlink:href="gTime_8cpp.html#aa46173b9085096882d09e53d96e9dc41" target="_top" xlink:title=" ">
<polygon fill="white" stroke="black" points="443,-19.5 443,-38.5 510,-38.5 510,-19.5 443,-19.5"/>
<text text-anchor="middle" x="476.5" y="-26.5" font-family="Helvetica,sans-Serif" font-size="10.00">epoch2time</text>
</a>
</g>
</g>
<!-- Node4&#45;&gt;Node5 -->
<g id="edge4" class="edge">
<title>Node4&#45;&gt;Node5</title>
<path fill="none" stroke="midnightblue" d="M390.15,-43.88C402.55,-41.72 418.11,-39 432.55,-36.49"/>
<polygon fill="midnightblue" stroke="midnightblue" points="433.55,-39.87 442.8,-34.7 432.35,-32.97 433.55,-39.87"/>
</g>
<!-- Node6&#45;&gt;Node5 -->
<g id="edge6" class="edge">
<title>Node6&#45;&gt;Node5</title>
<path fill="none" stroke="midnightblue" d="M257.76,-12.22C300.8,-15.53 382.26,-21.81 432.42,-25.68"/>
<polygon fill="midnightblue" stroke="midnightblue" points="432.38,-29.19 442.62,-26.47 432.92,-22.21 432.38,-29.19"/>
</g>
</g>
</svg>
        <g id="navigator" transform="translate(0 0)" fill="#404254">
                <rect fill="#f2f5e9" fill-opacity="0.5" stroke="#606060" stroke-width=".5" x="0" y="0" width="60" height="60"/>
                <use id="zoomplus" xlink:href="#zoomPlus" x="17" y="9" onmousedown="handleZoom(evt,'in')"/>
                <use id="zoomminus" xlink:href="#zoomMin" x="42" y="9" onmousedown="handleZoom(evt,'out')"/>
                <use id="reset" xlink:href="#resetDef" x="30" y="36" onmousedown="handleReset()"/>
                <g id="arrowUp" xlink:href="#dirArrow" transform="translate(30 24)" onmousedown="handlePan(0,-1)">
                  <use xlink:href="#rim" fill="#404040">
                        <set attributeName="fill" to="#808080" begin="arrowUp.mouseover" end="arrowUp.mouseout"/>
                  </use>
                  <path fill="none" stroke="white" stroke-width="1.5" d="M0,-3.0v7 M-2.5,-0.5L0,-3.0L2.5,-0.5"/>
                </g>
                <g id="arrowRight" xlink:href="#dirArrow" transform="rotate(90) translate(36 -43)" onmousedown="handlePan(1,0)">
                  <use xlink:href="#rim" fill="#404040">
                        <set attributeName="fill" to="#808080" begin="arrowRight.mouseover" end="arrowRight.mouseout"/>
                  </use>
                  <path fill="none" stroke="white" stroke-width="1.5" d="M0,-3.0v7 M-2.5,-0.5L0,-3.0L2.5,-0.5"/>
                </g>
                <g id="arrowDown" xlink:href="#dirArrow" transform="rotate(180) translate(-30 -48)" onmousedown="handlePan(0,1)">
                  <use xlink:href="#rim" fill="#404040">
                        <set attributeName="fill" to="#808080" begin="arrowDown.mouseover" end="arrowDown.mouseout"/>
                  </use>
                  <path fill="none" stroke="white" stroke-width="1.5" d="M0,-3.0v7 M-2.5,-0.5L0,-3.0L2.5,-0.5"/>
                </g>
                <g id="arrowLeft" xlink:href="#dirArrow" transform="rotate(270) translate(-36 17)" onmousedown="handlePan(-1,0)">
                  <use xlink:href="#rim" fill="#404040">
                        <set attributeName="fill" to="#808080" begin="arrowLeft.mouseover" end="arrowLeft.mouseout"/>
                  </use>
                  <path fill="none" stroke="white" stroke-width="1.5" d="M0,-3.0v7 M-2.5,-0.5L0,-3.0L2.5,-0.5"/>
                </g>
        </g>
        <svg viewBox="0 0 15 15" width="100%" height="30px" preserveAspectRatio="xMaxYMin meet">
         <g id="arrow_out" transform="scale(0.3 0.3)">
          <a xlink:href="structRtcmDecoder_a1396a506d3b48a90a3c160f80a78173a_cgraph_org.svg" target="_base">
           <rect id="button" ry="5" rx="5" y="6" x="6" height="38" width="38"
                fill="#f2f5e9" fill-opacity="0.5" stroke="#606060" stroke-width="1.0"/>
           <path id="arrow"
             d="M 11.500037,31.436501 C 11.940474,20.09759 22.043105,11.32322 32.158766,21.979434 L 37.068811,17.246167 C 37.068811,17.246167 37.088388,32 37.088388,32 L 22.160133,31.978069 C 22.160133,31.978069 26.997745,27.140456 26.997745,27.140456 C 18.528582,18.264221 13.291696,25.230495 11.500037,31.436501 z"
             style="fill:#404040;"/>
          </a>
         </g>
        </svg>
</svg>
