<?xml version="1.0" encoding="UTF-8" standalone="no"?>
<!DOCTYPE svg PUBLIC "-//W3C//DTD SVG 1.1//EN"
 "http://www.w3.org/Graphics/SVG/1.1/DTD/svg11.dtd">
<!-- Generated by graphviz version 2.50.0 (20220203.2022)
 -->
<!-- Title: better_enums::map::to_enum_nothrow Pages: 1 -->
<svg width="252pt" height="57pt"
 viewBox="0.00 0.00 252.00 57.00" xmlns="http://www.w3.org/2000/svg" xmlns:xlink="http://www.w3.org/1999/xlink">
<g id="graph0" class="graph" transform="scale(1 1) rotate(0) translate(4 53)">
<title>better_enums::map::to_enum_nothrow</title>
<polygon fill="white" stroke="transparent" points="-4,4 -4,-53 248,-53 248,4 -4,4"/>
<!-- Node1 -->
<g id="node1" class="node">
<title>Node1</title>
<g id="a_node1"><a xlink:title=" ">
<polygon fill="#bfbfbf" stroke="black" points="140,-0.5 140,-30.5 244,-30.5 244,-0.5 140,-0.5"/>
<text text-anchor="start" x="148" y="-18.5" font-family="Helvetica,sans-Serif" font-size="10.00">better_enums::map::</text>
<text text-anchor="middle" x="192" y="-7.5" font-family="Helvetica,sans-Serif" font-size="10.00">to_enum_nothrow</text>
</a>
</g>
</g>
<!-- Node1&#45;&gt;Node1 -->
<g id="edge2" class="edge">
<title>Node1&#45;&gt;Node1</title>
<path fill="none" stroke="midnightblue" d="M216.88,-40.96C213.79,-45.68 205.5,-49 192,-49 169.85,-49 161.72,-40.06 167.6,-30.66"/>
<polygon fill="midnightblue" stroke="midnightblue" points="220.36,-40.49 216.4,-30.66 213.37,-40.81 220.36,-40.49"/>
</g>
<!-- Node2 -->
<g id="node2" class="node">
<title>Node2</title>
<g id="a_node2"><a xlink:href="structbetter__enums_1_1map.html#a18ad2328a67af6d866e2fbc16b890ece" target="_top" xlink:title=" ">
<polygon fill="white" stroke="black" points="0,-0.5 0,-30.5 104,-30.5 104,-0.5 0,-0.5"/>
<text text-anchor="start" x="8" y="-18.5" font-family="Helvetica,sans-Serif" font-size="10.00">better_enums::map::</text>
<text text-anchor="middle" x="52" y="-7.5" font-family="Helvetica,sans-Serif" font-size="10.00">to_enum</text>
</a>
</g>
</g>
<!-- Node1&#45;&gt;Node2 -->
<g id="edge1" class="edge">
<title>Node1&#45;&gt;Node2</title>
<path fill="none" stroke="midnightblue" d="M129.5,-15.5C121.13,-15.5 112.6,-15.5 104.43,-15.5"/>
<polygon fill="midnightblue" stroke="midnightblue" points="129.61,-19 139.61,-15.5 129.61,-12 129.61,-19"/>
</g>
</g>
</svg>
