<?xml version="1.0" encoding="UTF-8" standalone="no"?>
<!DOCTYPE svg PUBLIC "-//W3C//DTD SVG 1.1//EN"
 "http://www.w3.org/Graphics/SVG/1.1/DTD/svg11.dtd">
<!-- Generated by graphviz version 2.50.0 (20220203.2022)
 -->
<!-- Title: NtripUploader::messageTimeout_hanlder Pages: 1 -->
<svg width="507pt" height="57pt"
 viewBox="0.00 0.00 507.00 57.00" xmlns="http://www.w3.org/2000/svg" xmlns:xlink="http://www.w3.org/1999/xlink">
<g id="graph0" class="graph" transform="scale(1 1) rotate(0) translate(4 53)">
<title>NtripUploader::messageTimeout_hanlder</title>
<polygon fill="white" stroke="transparent" points="-4,4 -4,-53 503,-53 503,4 -4,4"/>
<!-- Node1 -->
<g id="node1" class="node">
<title>Node1</title>
<g id="a_node1"><a xlink:title=" ">
<polygon fill="#bfbfbf" stroke="black" points="343,-0.5 343,-30.5 499,-30.5 499,-0.5 343,-0.5"/>
<text text-anchor="start" x="351" y="-18.5" font-family="Helvetica,sans-Serif" font-size="10.00">NtripUploader::messageTimeout</text>
<text text-anchor="middle" x="421" y="-7.5" font-family="Helvetica,sans-Serif" font-size="10.00">_hanlder</text>
</a>
</g>
</g>
<!-- Node1&#45;&gt;Node1 -->
<g id="edge1" class="edge">
<title>Node1&#45;&gt;Node1</title>
<path fill="none" stroke="midnightblue" d="M454.05,-40.96C449.95,-45.68 438.93,-49 421,-49 391.57,-49 380.77,-40.06 388.59,-30.66"/>
<polygon fill="midnightblue" stroke="midnightblue" points="457.52,-40.42 453.41,-30.66 450.54,-40.86 457.52,-40.42"/>
</g>
<!-- Node2 -->
<g id="node2" class="node">
<title>Node2</title>
<g id="a_node2"><a xlink:href="structNtripUploader.html#af0617de893f9f0c1873cbc7cfd12ccb0" target="_top" xlink:title=" ">
<polygon fill="white" stroke="black" points="162,-6 162,-25 307,-25 307,-6 162,-6"/>
<text text-anchor="middle" x="234.5" y="-13" font-family="Helvetica,sans-Serif" font-size="10.00">NtripUploader::startBroadcast</text>
</a>
</g>
</g>
<!-- Node1&#45;&gt;Node2 -->
<g id="edge2" class="edge">
<title>Node1&#45;&gt;Node2</title>
<path fill="none" stroke="midnightblue" d="M332.76,-15.5C324.15,-15.5 315.49,-15.5 307.06,-15.5"/>
<polygon fill="midnightblue" stroke="midnightblue" points="332.82,-19 342.82,-15.5 332.82,-12 332.82,-19"/>
</g>
<!-- Node3 -->
<g id="node3" class="node">
<title>Node3</title>
<g id="a_node3"><a xlink:href="structNtripUploader.html#a898eb17a065327e8637abb7876c06bd9" target="_top" xlink:title=" ">
<polygon fill="white" stroke="black" points="0,-6 0,-25 126,-25 126,-6 0,-6"/>
<text text-anchor="middle" x="63" y="-13" font-family="Helvetica,sans-Serif" font-size="10.00">NtripUploader::connected</text>
</a>
</g>
</g>
<!-- Node2&#45;&gt;Node3 -->
<g id="edge3" class="edge">
<title>Node2&#45;&gt;Node3</title>
<path fill="none" stroke="midnightblue" d="M151.58,-15.5C143,-15.5 134.39,-15.5 126.08,-15.5"/>
<polygon fill="midnightblue" stroke="midnightblue" points="151.62,-19 161.62,-15.5 151.62,-12 151.62,-19"/>
</g>
</g>
</svg>
