<?xml version="1.0" encoding="UTF-8" standalone="no"?>
<!DOCTYPE svg PUBLIC "-//W3C//DTD SVG 1.1//EN"
 "http://www.w3.org/Graphics/SVG/1.1/DTD/svg11.dtd">
<!-- Generated by graphviz version 2.50.0 (20220203.2022)
 -->
<!-- Title: RtcmTrace::traceSsrCodeB Pages: 1 -->
<svg width="520pt" height="96pt"
 viewBox="0.00 0.00 520.00 95.50" xmlns="http://www.w3.org/2000/svg" xmlns:xlink="http://www.w3.org/1999/xlink">
<g id="graph0" class="graph" transform="scale(1 1) rotate(0) translate(4 91.5)">
<title>RtcmTrace::traceSsrCodeB</title>
<polygon fill="white" stroke="transparent" points="-4,4 -4,-91.5 516,-91.5 516,4 -4,4"/>
<!-- Node1 -->
<g id="node1" class="node">
<title>Node1</title>
<g id="a_node1"><a xlink:title=" ">
<polygon fill="#bfbfbf" stroke="black" points="377,-37 377,-56 512,-56 512,-37 377,-37"/>
<text text-anchor="middle" x="444.5" y="-44" font-family="Helvetica,sans-Serif" font-size="10.00">RtcmTrace::traceSsrCodeB</text>
</a>
</g>
</g>
<!-- Node2 -->
<g id="node2" class="node">
<title>Node2</title>
<g id="a_node2"><a xlink:href="structRtcmDecoder.html#a187d2bf36da0d4de61f4c603b203b09f" target="_top" xlink:title=" ">
<polygon fill="white" stroke="black" points="200.5,-62 200.5,-81 332.5,-81 332.5,-62 200.5,-62"/>
<text text-anchor="middle" x="266.5" y="-69" font-family="Helvetica,sans-Serif" font-size="10.00">RtcmDecoder::decodeSSR</text>
</a>
</g>
</g>
<!-- Node1&#45;&gt;Node2 -->
<g id="edge1" class="edge">
<title>Node1&#45;&gt;Node2</title>
<path fill="none" stroke="midnightblue" d="M367,-57.37C355.56,-58.99 343.85,-60.65 332.67,-62.24"/>
<polygon fill="midnightblue" stroke="midnightblue" points="367.55,-60.82 376.96,-55.95 366.57,-53.89 367.55,-60.82"/>
</g>
<!-- Node8 -->
<g id="node4" class="node">
<title>Node8</title>
<g id="a_node4"><a xlink:href="structRtcmEncoder.html#a4730e3ba96b43e644eaf0b3547287f4e" target="_top" xlink:title=" ">
<polygon fill="white" stroke="black" points="192,-18 192,-37 341,-37 341,-18 192,-18"/>
<text text-anchor="middle" x="266.5" y="-25" font-family="Helvetica,sans-Serif" font-size="10.00">RtcmEncoder::encodeSsrCode</text>
</a>
</g>
</g>
<!-- Node1&#45;&gt;Node8 -->
<g id="edge3" class="edge">
<title>Node1&#45;&gt;Node8</title>
<path fill="none" stroke="midnightblue" d="M367,-38.24C358.44,-37.32 349.73,-36.38 341.2,-35.46"/>
<polygon fill="midnightblue" stroke="midnightblue" points="366.64,-41.72 376.96,-39.32 367.4,-34.76 366.64,-41.72"/>
</g>
<!-- Node3 -->
<g id="node3" class="node">
<title>Node3</title>
<g id="a_node3"><a xlink:href="structRtcmStream.html#a34a7a941dab214b7ff6b17e8a53eb55a" target="_top" xlink:title=" ">
<polygon fill="white" stroke="red" points="14,-68 14,-87 142,-87 142,-68 14,-68"/>
<text text-anchor="middle" x="78" y="-75" font-family="Helvetica,sans-Serif" font-size="10.00">RtcmStream::parseRTCM</text>
</a>
</g>
</g>
<!-- Node2&#45;&gt;Node3 -->
<g id="edge2" class="edge">
<title>Node2&#45;&gt;Node3</title>
<path fill="none" stroke="midnightblue" d="M189.99,-73.93C174.17,-74.44 157.63,-74.97 142.31,-75.46"/>
<polygon fill="midnightblue" stroke="midnightblue" points="190.39,-77.42 200.27,-73.6 190.16,-70.42 190.39,-77.42"/>
</g>
<!-- Node9 -->
<g id="node5" class="node">
<title>Node9</title>
<g id="a_node5"><a xlink:href="structNtripUploader.html#a0763f31214a177f3d9be2301138fd0e7" target="_top" xlink:title=" ">
<polygon fill="white" stroke="red" points="0,-0.5 0,-30.5 156,-30.5 156,-0.5 0,-0.5"/>
<text text-anchor="start" x="8" y="-18.5" font-family="Helvetica,sans-Serif" font-size="10.00">NtripUploader::messageTimeout</text>
<text text-anchor="middle" x="78" y="-7.5" font-family="Helvetica,sans-Serif" font-size="10.00">_hanlder</text>
</a>
</g>
</g>
<!-- Node8&#45;&gt;Node9 -->
<g id="edge4" class="edge">
<title>Node8&#45;&gt;Node9</title>
<path fill="none" stroke="midnightblue" d="M181.55,-22.1C173.09,-21.55 164.54,-21 156.16,-20.46"/>
<polygon fill="midnightblue" stroke="midnightblue" points="181.59,-25.61 191.79,-22.76 182.04,-18.62 181.59,-25.61"/>
</g>
<!-- Node9&#45;&gt;Node9 -->
<g id="edge5" class="edge">
<title>Node9&#45;&gt;Node9</title>
<path fill="none" stroke="midnightblue" d="M111.41,-40.96C107.26,-45.68 96.12,-49 78,-49 48.26,-49 37.34,-40.06 45.24,-30.66"/>
<polygon fill="midnightblue" stroke="midnightblue" points="114.88,-40.42 110.76,-30.66 107.89,-40.86 114.88,-40.42"/>
</g>
</g>
</svg>
