<?xml version="1.0" encoding="UTF-8" standalone="no"?>
<!DOCTYPE svg PUBLIC "-//W3C//DTD SVG 1.1//EN"
 "http://www.w3.org/Graphics/SVG/1.1/DTD/svg11.dtd">
<!-- Generated by graphviz version 2.50.0 (20220203.2022)
 -->
<!-- Title: NtripSourceTable::NtripSourceTable Pages: 1 -->
<svg width="416pt" height="122pt"
 viewBox="0.00 0.00 416.00 122.00" xmlns="http://www.w3.org/2000/svg" xmlns:xlink="http://www.w3.org/1999/xlink">
<g id="graph0" class="graph" transform="scale(1 1) rotate(0) translate(4 118)">
<title>NtripSourceTable::NtripSourceTable</title>
<polygon fill="white" stroke="transparent" points="-4,4 -4,-118 412,-118 412,4 -4,4"/>
<!-- Node1 -->
<g id="node1" class="node">
<title>Node1</title>
<g id="a_node1"><a xlink:title=" ">
<polygon fill="#bfbfbf" stroke="black" points="0,-51 0,-81 149,-81 149,-51 0,-51"/>
<text text-anchor="start" x="8" y="-69" font-family="Helvetica,sans-Serif" font-size="10.00">NtripSourceTable::NtripSource</text>
<text text-anchor="middle" x="74.5" y="-58" font-family="Helvetica,sans-Serif" font-size="10.00">Table</text>
</a>
</g>
</g>
<!-- Node2 -->
<g id="node2" class="node">
<title>Node2</title>
<g id="a_node2"><a xlink:href="structNtripSocket.html#a07a5b9e92a7fa439e08136f69c882307" target="_top" xlink:title=" ">
<polygon fill="white" stroke="black" points="185,-94.5 185,-113.5 292,-113.5 292,-94.5 185,-94.5"/>
<text text-anchor="middle" x="238.5" y="-101.5" font-family="Helvetica,sans-Serif" font-size="10.00">NtripSocket::connect</text>
</a>
</g>
</g>
<!-- Node1&#45;&gt;Node2 -->
<g id="edge1" class="edge">
<title>Node1&#45;&gt;Node2</title>
<path fill="none" stroke="midnightblue" d="M139.53,-81.02C155.19,-84.69 171.74,-88.58 186.69,-92.08"/>
<polygon fill="midnightblue" stroke="midnightblue" points="186.22,-95.57 196.76,-94.44 187.82,-88.75 186.22,-95.57"/>
</g>
<!-- Node3 -->
<g id="node3" class="node">
<title>Node3</title>
<g id="a_node3"><a xlink:href="structURL.html#ab0ccd3714f16e338f40eb008b2a25cf2" target="_top" xlink:title=" ">
<polygon fill="white" stroke="black" points="328,-75.5 328,-94.5 408,-94.5 408,-75.5 328,-75.5"/>
<text text-anchor="middle" x="368" y="-82.5" font-family="Helvetica,sans-Serif" font-size="10.00">URL::sanitised</text>
</a>
</g>
</g>
<!-- Node1&#45;&gt;Node3 -->
<g id="edge5" class="edge">
<title>Node1&#45;&gt;Node3</title>
<path fill="none" stroke="midnightblue" d="M149.06,-70.79C201.9,-74.24 271.68,-78.79 317.88,-81.8"/>
<polygon fill="midnightblue" stroke="midnightblue" points="317.74,-85.3 327.94,-82.45 318.19,-78.31 317.74,-85.3"/>
</g>
<!-- Node4 -->
<g id="node4" class="node">
<title>Node4</title>
<g id="a_node4"><a xlink:href="structBase64.html#a3e8d4028aff313b0a28f4c65a808f43e" target="_top" xlink:title=" ">
<polygon fill="white" stroke="black" points="195.5,-0.5 195.5,-19.5 281.5,-19.5 281.5,-0.5 195.5,-0.5"/>
<text text-anchor="middle" x="238.5" y="-7.5" font-family="Helvetica,sans-Serif" font-size="10.00">Base64::encode</text>
</a>
</g>
</g>
<!-- Node1&#45;&gt;Node4 -->
<g id="edge3" class="edge">
<title>Node1&#45;&gt;Node4</title>
<path fill="none" stroke="midnightblue" d="M118.91,-50.99C144.28,-42.22 175.98,-31.27 200.21,-22.89"/>
<polygon fill="midnightblue" stroke="midnightblue" points="201.46,-26.16 209.77,-19.58 199.18,-19.54 201.46,-26.16"/>
</g>
<!-- Node2&#45;&gt;Node3 -->
<g id="edge2" class="edge">
<title>Node2&#45;&gt;Node3</title>
<path fill="none" stroke="midnightblue" d="M292.1,-96.16C300.58,-94.9 309.34,-93.59 317.74,-92.34"/>
<polygon fill="midnightblue" stroke="midnightblue" points="318.4,-95.78 327.77,-90.85 317.37,-88.86 318.4,-95.78"/>
</g>
<!-- Node4&#45;&gt;Node4 -->
<g id="edge4" class="edge">
<title>Node4&#45;&gt;Node4</title>
<path fill="none" stroke="midnightblue" d="M218.77,-19.76C209.17,-28.57 215.75,-38 238.5,-38 253.07,-38 261.01,-34.13 262.31,-29.03"/>
<polygon fill="midnightblue" stroke="midnightblue" points="265.46,-27.5 258.23,-19.76 259.05,-30.32 265.46,-27.5"/>
</g>
</g>
</svg>
