<?xml version="1.0" encoding="UTF-8" standalone="no"?>
<!DOCTYPE svg PUBLIC "-//W3C//DTD SVG 1.1//EN"
 "http://www.w3.org/Graphics/SVG/1.1/DTD/svg11.dtd">
<!-- Generated by graphviz version 2.50.0 (20220203.2022)
 -->
<!-- Title: KFMeasEntry::setInnov Pages: 1 -->
<svg width="319pt" height="104pt"
 viewBox="0.00 0.00 319.00 104.00" xmlns="http://www.w3.org/2000/svg" xmlns:xlink="http://www.w3.org/1999/xlink">
<g id="graph0" class="graph" transform="scale(1 1) rotate(0) translate(4 100)">
<title>KFMeasEntry::setInnov</title>
<polygon fill="white" stroke="transparent" points="-4,4 -4,-100 315,-100 315,4 -4,4"/>
<!-- Node1 -->
<g id="node1" class="node">
<title>Node1</title>
<g id="a_node1"><a xlink:title="Adds the innovation value for this measurement.">
<polygon fill="#bfbfbf" stroke="black" points="194,-38.5 194,-57.5 311,-57.5 311,-38.5 194,-38.5"/>
<text text-anchor="middle" x="252.5" y="-45.5" font-family="Helvetica,sans-Serif" font-size="10.00">KFMeasEntry::setInnov</text>
</a>
</g>
</g>
<!-- Node2 -->
<g id="node2" class="node">
<title>Node2</title>
<g id="a_node2"><a xlink:href="ppp__user_8cpp.html#a6840432dd58d1e58178b15080b92bdd8" target="_top" xlink:title=" ">
<polygon fill="white" stroke="black" points="90.5,-76.5 90.5,-95.5 146.5,-95.5 146.5,-76.5 90.5,-76.5"/>
<text text-anchor="middle" x="118.5" y="-83.5" font-family="Helvetica,sans-Serif" font-size="10.00">ppp_filter</text>
</a>
</g>
</g>
<!-- Node1&#45;&gt;Node2 -->
<g id="edge1" class="edge">
<title>Node1&#45;&gt;Node2</title>
<path fill="none" stroke="midnightblue" d="M208.5,-60.38C188.12,-66.25 164.41,-73.07 146.58,-78.2"/>
<polygon fill="midnightblue" stroke="midnightblue" points="209.55,-63.72 218.19,-57.59 207.61,-56.99 209.55,-63.72"/>
</g>
<!-- Node6 -->
<g id="node4" class="node">
<title>Node6</title>
<g id="a_node4"><a xlink:href="ppppp__obs_8cpp.html#a3db2ffced7ab37c4874c3a53fcb7953e" target="_top" xlink:title=" ">
<polygon fill="white" stroke="black" points="85.5,-38.5 85.5,-57.5 151.5,-57.5 151.5,-38.5 85.5,-38.5"/>
<text text-anchor="middle" x="118.5" y="-45.5" font-family="Helvetica,sans-Serif" font-size="10.00">stationPPP</text>
</a>
</g>
</g>
<!-- Node1&#45;&gt;Node6 -->
<g id="edge3" class="edge">
<title>Node1&#45;&gt;Node6</title>
<path fill="none" stroke="midnightblue" d="M183.77,-48C172.63,-48 161.55,-48 151.81,-48"/>
<polygon fill="midnightblue" stroke="midnightblue" points="183.99,-51.5 193.99,-48 183.99,-44.5 183.99,-51.5"/>
</g>
<!-- Node8 -->
<g id="node6" class="node">
<title>Node8</title>
<g id="a_node6"><a xlink:href="ppppp__pseudoobs_8cpp.html#ab255260e2ca2e89c21d280174f5a5a0b" target="_top" xlink:title=" ">
<polygon fill="white" stroke="black" points="79,-0.5 79,-19.5 158,-19.5 158,-0.5 79,-0.5"/>
<text text-anchor="middle" x="118.5" y="-7.5" font-family="Helvetica,sans-Serif" font-size="10.00">stationPseudo</text>
</a>
</g>
</g>
<!-- Node1&#45;&gt;Node8 -->
<g id="edge5" class="edge">
<title>Node1&#45;&gt;Node8</title>
<path fill="none" stroke="midnightblue" d="M208.46,-35.61C190.38,-30.41 169.68,-24.45 152.8,-19.59"/>
<polygon fill="midnightblue" stroke="midnightblue" points="207.61,-39.01 218.19,-38.41 209.55,-32.28 207.61,-39.01"/>
</g>
<!-- Node3 -->
<g id="node3" class="node">
<title>Node3</title>
<g id="a_node3"><a xlink:href="ppp__user_8cpp.html#aad22d0ff0d06af12ea66aefd09d89af3" target="_top" xlink:title=" ">
<polygon fill="white" stroke="red" points="0,-76.5 0,-95.5 43,-95.5 43,-76.5 0,-76.5"/>
<text text-anchor="middle" x="21.5" y="-83.5" font-family="Helvetica,sans-Serif" font-size="10.00">pppos</text>
</a>
</g>
</g>
<!-- Node2&#45;&gt;Node3 -->
<g id="edge2" class="edge">
<title>Node2&#45;&gt;Node3</title>
<path fill="none" stroke="midnightblue" d="M80.02,-86C67.44,-86 53.88,-86 43.08,-86"/>
<polygon fill="midnightblue" stroke="midnightblue" points="80.28,-89.5 90.28,-86 80.28,-82.5 80.28,-89.5"/>
</g>
<!-- Node7 -->
<g id="node5" class="node">
<title>Node7</title>
<g id="a_node5"><a xlink:href="ppppp_8cpp.html#a936f239adc72073920104f4acc2aea67" target="_top" xlink:title=" ">
<polygon fill="white" stroke="red" points="3,-19.5 3,-38.5 40,-38.5 40,-19.5 3,-19.5"/>
<text text-anchor="middle" x="21.5" y="-26.5" font-family="Helvetica,sans-Serif" font-size="10.00">PPP</text>
</a>
</g>
</g>
<!-- Node6&#45;&gt;Node7 -->
<g id="edge4" class="edge">
<title>Node6&#45;&gt;Node7</title>
<path fill="none" stroke="midnightblue" d="M75.19,-39.54C62.89,-37.08 50.12,-34.52 40.23,-32.55"/>
<polygon fill="midnightblue" stroke="midnightblue" points="74.85,-43.04 85.34,-41.57 76.22,-36.17 74.85,-43.04"/>
</g>
<!-- Node8&#45;&gt;Node7 -->
<g id="edge6" class="edge">
<title>Node8&#45;&gt;Node7</title>
<path fill="none" stroke="midnightblue" d="M69.05,-19.69C58.77,-21.75 48.55,-23.79 40.31,-25.44"/>
<polygon fill="midnightblue" stroke="midnightblue" points="69.74,-23.12 78.86,-17.73 68.37,-16.26 69.74,-23.12"/>
</g>
</g>
</svg>
