<?xml version="1.0" encoding="UTF-8" standalone="no"?>
<!DOCTYPE svg PUBLIC "-//W3C//DTD SVG 1.1//EN"
 "http://www.w3.org/Graphics/SVG/1.1/DTD/svg11.dtd">
<!-- Generated by graphviz version 2.50.0 (20220203.2022)
 -->
<!-- Title: GinAR_piv Pages: 1 -->
<svg width="524pt" height="173pt"
 viewBox="0.00 0.00 524.15 173.00" xmlns="http://www.w3.org/2000/svg" xmlns:xlink="http://www.w3.org/1999/xlink">
<g id="graph0" class="graph" transform="scale(1 1) rotate(0) translate(4 169)">
<title>GinAR_piv</title>
<polygon fill="white" stroke="transparent" points="-4,4 -4,-169 520.15,-169 520.15,4 -4,4"/>
<!-- Node1 -->
<g id="node1" class="node">
<title>Node1</title>
<g id="a_node1"><a xlink:title=" ">
<polygon fill="#bfbfbf" stroke="black" points="293.65,-0.5 293.65,-19.5 356.65,-19.5 356.65,-0.5 293.65,-0.5"/>
<text text-anchor="middle" x="325.15" y="-7.5" font-family="Helvetica,sans-Serif" font-size="10.00">GinAR_piv</text>
</a>
</g>
</g>
<!-- Node2 -->
<g id="node2" class="node">
<title>Node2</title>
<g id="a_node2"><a xlink:href="structSatSys.html" target="_top" xlink:title="Object holding satellite id, and providing related functions.">
<polygon fill="white" stroke="black" points="92.15,-145.5 92.15,-164.5 140.15,-164.5 140.15,-145.5 92.15,-145.5"/>
<text text-anchor="middle" x="116.15" y="-152.5" font-family="Helvetica,sans-Serif" font-size="10.00">SatSys</text>
</a>
</g>
</g>
<!-- Node2&#45;&gt;Node1 -->
<g id="edge1" class="edge">
<title>Node2&#45;&gt;Node1</title>
<path fill="none" stroke="#9a32cd" stroke-dasharray="5,2" d="M82.45,-143.24C41.16,-128.34 -20.15,-99.54 7.15,-67 43.55,-23.63 220.5,-13.84 293.53,-11.63"/>
<polygon fill="#9a32cd" stroke="#9a32cd" points="81.34,-146.56 91.94,-146.55 83.65,-139.95 81.34,-146.56"/>
<text text-anchor="middle" x="24.65" y="-80" font-family="Helvetica,sans-Serif" font-size="10.00"> pre_sat</text>
</g>
<!-- Node3 -->
<g id="node3" class="node">
<title>Node3</title>
<g id="a_node3"><a xlink:title=" ">
<polygon fill="white" stroke="red" points="51.15,-67.5 51.15,-97.5 181.15,-97.5 181.15,-67.5 51.15,-67.5"/>
<text text-anchor="start" x="59.15" y="-85.5" font-family="Helvetica,sans-Serif" font-size="10.00">std::map&lt; SatSys, SatSys</text>
<text text-anchor="middle" x="116.15" y="-74.5" font-family="Helvetica,sans-Serif" font-size="10.00">::SatData &gt;</text>
</a>
</g>
</g>
<!-- Node2&#45;&gt;Node3 -->
<g id="edge3" class="edge">
<title>Node2&#45;&gt;Node3</title>
<path fill="none" stroke="#9a32cd" stroke-dasharray="5,2" d="M96.64,-138.03C91.18,-131.6 87.4,-123.85 90.15,-116 92.5,-109.32 96.86,-102.99 101.35,-97.72"/>
<polygon fill="#9a32cd" stroke="#9a32cd" points="94.51,-140.84 104.09,-145.38 99.43,-135.86 94.51,-140.84"/>
<text text-anchor="middle" x="101.65" y="-119" font-family="Helvetica,sans-Serif" font-size="10.00"> keys</text>
</g>
<!-- Node8 -->
<g id="node6" class="node">
<title>Node8</title>
<g id="a_node6"><a xlink:title=" ">
<polygon fill="white" stroke="black" points="199.65,-73 199.65,-92 316.65,-92 316.65,-73 199.65,-73"/>
<text text-anchor="middle" x="258.15" y="-80" font-family="Helvetica,sans-Serif" font-size="10.00">std::map&lt; SatSys, int &gt;</text>
</a>
</g>
</g>
<!-- Node2&#45;&gt;Node8 -->
<g id="edge8" class="edge">
<title>Node2&#45;&gt;Node8</title>
<path fill="none" stroke="#9a32cd" stroke-dasharray="5,2" d="M147.11,-141.45C157.41,-137.09 168.86,-132.02 179.15,-127 202.09,-115.8 227.85,-101.23 243.53,-92.12"/>
<polygon fill="#9a32cd" stroke="#9a32cd" points="145.56,-138.31 137.68,-145.39 148.25,-144.76 145.56,-138.31"/>
<text text-anchor="middle" x="210.65" y="-119" font-family="Helvetica,sans-Serif" font-size="10.00"> keys</text>
</g>
<!-- Node3&#45;&gt;Node2 -->
<g id="edge2" class="edge">
<title>Node3&#45;&gt;Node2</title>
<path fill="none" stroke="#9a32cd" stroke-dasharray="5,2" d="M117.08,-108.06C117.21,-114.24 117.27,-120.86 117.15,-127 117.04,-133.19 116.78,-140.18 116.55,-145.49"/>
<polygon fill="#9a32cd" stroke="#9a32cd" points="120.56,-107.5 116.78,-97.6 113.56,-107.7 120.56,-107.5"/>
<text text-anchor="middle" x="146.65" y="-119" font-family="Helvetica,sans-Serif" font-size="10.00"> SatDataMap</text>
</g>
<!-- Node5 -->
<g id="node4" class="node">
<title>Node5</title>
<g id="a_node4"><a xlink:title=" ">
<polygon fill="white" stroke="red" points="358.65,-145.5 358.65,-164.5 417.65,-164.5 417.65,-145.5 358.65,-145.5"/>
<text text-anchor="middle" x="388.15" y="-152.5" font-family="Helvetica,sans-Serif" font-size="10.00">std::string</text>
</a>
</g>
</g>
<!-- Node5&#45;&gt;Node1 -->
<g id="edge4" class="edge">
<title>Node5&#45;&gt;Node1</title>
<path fill="none" stroke="#9a32cd" stroke-dasharray="5,2" d="M379.45,-136.07C374.24,-125.15 367.6,-110.87 362.15,-98 351.02,-71.7 350.86,-64.05 339.15,-38 336.39,-31.83 332.89,-25.08 330.08,-19.88"/>
<polygon fill="#9a32cd" stroke="#9a32cd" points="376.43,-137.86 383.91,-145.35 382.73,-134.82 376.43,-137.86"/>
<text text-anchor="middle" x="379.65" y="-80" font-family="Helvetica,sans-Serif" font-size="10.00"> pre_rec</text>
</g>
<!-- Node7 -->
<g id="node5" class="node">
<title>Node7</title>
<g id="a_node5"><a xlink:title=" ">
<polygon fill="white" stroke="black" points="406.15,-73 406.15,-92 516.15,-92 516.15,-73 406.15,-73"/>
<text text-anchor="middle" x="461.15" y="-80" font-family="Helvetica,sans-Serif" font-size="10.00">std::map&lt; string, int &gt;</text>
</a>
</g>
</g>
<!-- Node5&#45;&gt;Node7 -->
<g id="edge6" class="edge">
<title>Node5&#45;&gt;Node7</title>
<path fill="none" stroke="#9a32cd" stroke-dasharray="5,2" d="M404.52,-138.19C419.23,-123.99 440.27,-103.67 452.13,-92.22"/>
<polygon fill="#9a32cd" stroke="#9a32cd" points="401.87,-135.89 397.11,-145.36 406.73,-140.93 401.87,-135.89"/>
<text text-anchor="middle" x="438.65" y="-119" font-family="Helvetica,sans-Serif" font-size="10.00"> keys</text>
</g>
<!-- Node7&#45;&gt;Node1 -->
<g id="edge5" class="edge">
<title>Node7&#45;&gt;Node1</title>
<path fill="none" stroke="#9a32cd" stroke-dasharray="5,2" d="M435.71,-68.31C408.17,-54.03 365.03,-31.67 341.62,-19.53"/>
<polygon fill="#9a32cd" stroke="#9a32cd" points="434.26,-71.5 444.75,-73 437.48,-65.29 434.26,-71.5"/>
<text text-anchor="middle" x="418.15" y="-41" font-family="Helvetica,sans-Serif" font-size="10.00"> rec_amb</text>
</g>
<!-- Node8&#45;&gt;Node1 -->
<g id="edge7" class="edge">
<title>Node8&#45;&gt;Node1</title>
<path fill="none" stroke="#9a32cd" stroke-dasharray="5,2" d="M273.3,-65.35C281.02,-57.14 290.56,-47.02 299.15,-38 304.9,-31.97 311.4,-25.22 316.46,-19.98"/>
<polygon fill="#9a32cd" stroke="#9a32cd" points="270.59,-63.12 266.3,-72.81 275.69,-67.91 270.59,-63.12"/>
<text text-anchor="middle" x="319.15" y="-41" font-family="Helvetica,sans-Serif" font-size="10.00"> sat_amb</text>
</g>
</g>
</svg>
