<?xml version="1.0" encoding="UTF-8" standalone="no"?>
<!DOCTYPE svg PUBLIC "-//W3C//DTD SVG 1.1//EN"
 "http://www.w3.org/Graphics/SVG/1.1/DTD/svg11.dtd">
<!-- Generated by graphviz version 2.50.0 (20220203.2022)
 -->
<!-- Title: KFState::chiQC Pages: 1 -->
<svg width="416pt" height="294pt"
 viewBox="0.00 0.00 416.00 294.00" xmlns="http://www.w3.org/2000/svg" xmlns:xlink="http://www.w3.org/1999/xlink">
<g id="graph0" class="graph" transform="scale(1 1) rotate(0) translate(4 290)">
<title>KFState::chiQC</title>
<polygon fill="white" stroke="transparent" points="-4,4 -4,-290 412,-290 412,4 -4,4"/>
<!-- Node1 -->
<g id="node1" class="node">
<title>Node1</title>
<g id="a_node1"><a xlink:title="Perform chi squared quality control.">
<polygon fill="#bfbfbf" stroke="black" points="324,-133.5 324,-152.5 408,-152.5 408,-133.5 324,-133.5"/>
<text text-anchor="middle" x="366" y="-140.5" font-family="Helvetica,sans-Serif" font-size="10.00">KFState::chiQC</text>
</a>
</g>
</g>
<!-- Node2 -->
<g id="node2" class="node">
<title>Node2</title>
<g id="a_node2"><a xlink:href="structKFState.html#a5ff3b6f3177ec33bdd3e51dbcefa2a9d" target="_top" xlink:title="Perform least squares using the measurements in the KFMeas object.">
<polygon fill="white" stroke="black" points="152,-177.5 152,-196.5 288,-196.5 288,-177.5 152,-177.5"/>
<text text-anchor="middle" x="220" y="-184.5" font-family="Helvetica,sans-Serif" font-size="10.00">KFState::filterLeastSquares</text>
</a>
</g>
</g>
<!-- Node1&#45;&gt;Node2 -->
<g id="edge1" class="edge">
<title>Node1&#45;&gt;Node2</title>
<path fill="none" stroke="midnightblue" d="M326.98,-155.66C314.58,-159.7 300.73,-164.13 288,-168 277.47,-171.2 265.96,-174.53 255.5,-177.48"/>
<polygon fill="midnightblue" stroke="midnightblue" points="328.15,-158.96 336.56,-152.52 325.97,-152.31 328.15,-158.96"/>
</g>
<!-- Node3 -->
<g id="node3" class="node">
<title>Node3</title>
<g id="a_node3"><a xlink:href="structKFState.html#ae1fc274c403b77dc814ed90763b4dea1" target="_top" xlink:title="Least squares estimator for new kalman filter states.">
<polygon fill="white" stroke="black" points="159,-128 159,-158 281,-158 281,-128 159,-128"/>
<text text-anchor="start" x="167" y="-146" font-family="Helvetica,sans-Serif" font-size="10.00">KFState::leastSquareInit</text>
<text text-anchor="middle" x="220" y="-135" font-family="Helvetica,sans-Serif" font-size="10.00">States</text>
</a>
</g>
</g>
<!-- Node1&#45;&gt;Node3 -->
<g id="edge2" class="edge">
<title>Node1&#45;&gt;Node3</title>
<path fill="none" stroke="midnightblue" d="M313.48,-143C302.97,-143 291.83,-143 281.05,-143"/>
<polygon fill="midnightblue" stroke="midnightblue" points="313.74,-146.5 323.74,-143 313.74,-139.5 313.74,-146.5"/>
</g>
<!-- Node23 -->
<g id="node11" class="node">
<title>Node23</title>
<g id="a_node11"><a xlink:href="structKFState.html#a56a457141bb1f7f33cd473b008e27e92" target="_top" xlink:title=" ">
<polygon fill="white" stroke="black" points="159,-47 159,-77 281,-77 281,-47 159,-47"/>
<text text-anchor="start" x="167" y="-65" font-family="Helvetica,sans-Serif" font-size="10.00">KFState::leastSquareInit</text>
<text text-anchor="middle" x="220" y="-54" font-family="Helvetica,sans-Serif" font-size="10.00">StatesA</text>
</a>
</g>
</g>
<!-- Node1&#45;&gt;Node23 -->
<g id="edge10" class="edge">
<title>Node1&#45;&gt;Node23</title>
<path fill="none" stroke="midnightblue" d="M339.09,-128.42C313.31,-113.93 273.96,-91.79 247.86,-77.11"/>
<polygon fill="midnightblue" stroke="midnightblue" points="337.48,-131.54 347.92,-133.39 340.92,-125.44 337.48,-131.54"/>
</g>
<!-- Node4 -->
<g id="node4" class="node">
<title>Node4</title>
<g id="a_node4"><a xlink:href="spp_8cpp.html#a939492c482104cf7cdf7597d24b5b8fb" target="_top" xlink:title="Estimate receiver position and biases using code measurements.">
<polygon fill="white" stroke="red" points="35,-266.5 35,-285.5 81,-285.5 81,-266.5 35,-266.5"/>
<text text-anchor="middle" x="58" y="-273.5" font-family="Helvetica,sans-Serif" font-size="10.00">estpos</text>
</a>
</g>
</g>
<!-- Node3&#45;&gt;Node4 -->
<g id="edge3" class="edge">
<title>Node3&#45;&gt;Node4</title>
<path fill="none" stroke="midnightblue" d="M157.18,-163.54C155.36,-164.93 153.63,-166.42 152,-168 121.42,-197.76 147.1,-227.79 116,-257 106.5,-265.93 92.68,-270.67 81.04,-273.18"/>
<polygon fill="midnightblue" stroke="midnightblue" points="159.19,-166.41 165.64,-158.01 155.36,-160.55 159.19,-166.41"/>
</g>
<!-- Node9 -->
<g id="node5" class="node">
<title>Node9</title>
<g id="a_node5"><a xlink:href="preceph_8cpp.html#ad8a2ac73c89c0ab95ef7b2812b1cb6d7" target="_top" xlink:title=" ">
<polygon fill="white" stroke="black" points="27,-228.5 27,-247.5 89,-247.5 89,-228.5 27,-228.5"/>
<text text-anchor="middle" x="58" y="-235.5" font-family="Helvetica,sans-Serif" font-size="10.00">interpolate</text>
</a>
</g>
</g>
<!-- Node3&#45;&gt;Node9 -->
<g id="edge4" class="edge">
<title>Node3&#45;&gt;Node9</title>
<path fill="none" stroke="midnightblue" d="M159.29,-163.01C156.75,-164.56 154.3,-166.22 152,-168 130.02,-184.94 138.27,-202.45 116,-219 108.13,-224.85 98.35,-228.96 89.13,-231.83"/>
<polygon fill="midnightblue" stroke="midnightblue" points="161.11,-166 168.22,-158.15 157.76,-159.86 161.11,-166"/>
</g>
<!-- Node10 -->
<g id="node6" class="node">
<title>Node10</title>
<g id="a_node6"><a xlink:href="minimumConstraints_8cpp.html#a6644baa0ee22e2cb52a4975b7d8f218e" target="_top" xlink:title=" ">
<polygon fill="white" stroke="red" points="30,-190.5 30,-209.5 86,-209.5 86,-190.5 30,-190.5"/>
<text text-anchor="middle" x="58" y="-197.5" font-family="Helvetica,sans-Serif" font-size="10.00">minimum</text>
</a>
</g>
</g>
<!-- Node3&#45;&gt;Node10 -->
<g id="edge5" class="edge">
<title>Node3&#45;&gt;Node10</title>
<path fill="none" stroke="midnightblue" d="M169.04,-161.6C148.14,-169.35 126.33,-177.37 116,-181 106.26,-184.42 95.52,-188.04 86.03,-191.19"/>
<polygon fill="midnightblue" stroke="midnightblue" points="170.38,-164.84 178.53,-158.08 167.94,-158.28 170.38,-164.84"/>
</g>
<!-- Node15 -->
<g id="node7" class="node">
<title>Node15</title>
<g id="a_node7"><a xlink:href="networkEstimator_8cpp.html#a36828506971a6b66c6e61db51197c9e1" target="_top" xlink:title="Estimates parameters for a network of stations simultaneously.">
<polygon fill="white" stroke="red" points="12,-152.5 12,-171.5 104,-171.5 104,-152.5 12,-152.5"/>
<text text-anchor="middle" x="58" y="-159.5" font-family="Helvetica,sans-Serif" font-size="10.00">networkEstimator</text>
</a>
</g>
</g>
<!-- Node3&#45;&gt;Node15 -->
<g id="edge6" class="edge">
<title>Node3&#45;&gt;Node15</title>
<path fill="none" stroke="midnightblue" d="M148.66,-151.35C133.64,-153.14 118.15,-154.98 104.36,-156.61"/>
<polygon fill="midnightblue" stroke="midnightblue" points="149.45,-154.78 158.97,-150.13 148.62,-147.83 149.45,-154.78"/>
</g>
<!-- Node16 -->
<g id="node8" class="node">
<title>Node16</title>
<g id="a_node8"><a xlink:href="ppp__user_8cpp.html#a6840432dd58d1e58178b15080b92bdd8" target="_top" xlink:title=" ">
<polygon fill="white" stroke="red" points="30,-114.5 30,-133.5 86,-133.5 86,-114.5 30,-114.5"/>
<text text-anchor="middle" x="58" y="-121.5" font-family="Helvetica,sans-Serif" font-size="10.00">ppp_filter</text>
</a>
</g>
</g>
<!-- Node3&#45;&gt;Node16 -->
<g id="edge7" class="edge">
<title>Node3&#45;&gt;Node16</title>
<path fill="none" stroke="midnightblue" d="M148.88,-134.67C126.72,-132.04 103.53,-129.29 86.26,-127.24"/>
<polygon fill="midnightblue" stroke="midnightblue" points="148.62,-138.17 158.97,-135.87 149.45,-131.22 148.62,-138.17"/>
</g>
<!-- Node18 -->
<g id="node9" class="node">
<title>Node18</title>
<g id="a_node9"><a xlink:href="GinARWLamb_8cpp.html#ab95d4f2ff0f6e0d2b92d4d4d14f7f787" target="_top" xlink:title="Update WL filter.">
<polygon fill="white" stroke="red" points="22.5,-76.5 22.5,-95.5 93.5,-95.5 93.5,-76.5 22.5,-76.5"/>
<text text-anchor="middle" x="58" y="-83.5" font-family="Helvetica,sans-Serif" font-size="10.00">updat_WLfilt</text>
</a>
</g>
</g>
<!-- Node3&#45;&gt;Node18 -->
<g id="edge8" class="edge">
<title>Node3&#45;&gt;Node18</title>
<path fill="none" stroke="midnightblue" d="M169.33,-124.31C152.45,-118.06 133.44,-111.12 116,-105 107.04,-101.86 97.25,-98.55 88.35,-95.59"/>
<polygon fill="midnightblue" stroke="midnightblue" points="168.4,-127.7 179,-127.91 170.84,-121.14 168.4,-127.7"/>
</g>
<!-- Node22 -->
<g id="node10" class="node">
<title>Node22</title>
<g id="a_node10"><a xlink:href="ionoModel_8cpp.html#ab85ac3f246b5ef9cc88aa9f195c441a3" target="_top" xlink:title=" ">
<polygon fill="white" stroke="red" points="0,-38.5 0,-57.5 116,-57.5 116,-38.5 0,-38.5"/>
<text text-anchor="middle" x="58" y="-45.5" font-family="Helvetica,sans-Serif" font-size="10.00">update_ionosph_model</text>
</a>
</g>
</g>
<!-- Node3&#45;&gt;Node22 -->
<g id="edge9" class="edge">
<title>Node3&#45;&gt;Node22</title>
<path fill="none" stroke="midnightblue" d="M194.2,-121.21C174.21,-104.53 144.78,-81.94 116,-67 108.96,-63.35 101.08,-60.19 93.48,-57.55"/>
<polygon fill="midnightblue" stroke="midnightblue" points="192.01,-123.93 201.9,-127.73 196.53,-118.59 192.01,-123.93"/>
</g>
<!-- Node24 -->
<g id="node12" class="node">
<title>Node24</title>
<g id="a_node12"><a xlink:href="ppppp_8cpp.html#a936f239adc72073920104f4acc2aea67" target="_top" xlink:title=" ">
<polygon fill="white" stroke="red" points="39.5,-0.5 39.5,-19.5 76.5,-19.5 76.5,-0.5 39.5,-0.5"/>
<text text-anchor="middle" x="58" y="-7.5" font-family="Helvetica,sans-Serif" font-size="10.00">PPP</text>
</a>
</g>
</g>
<!-- Node23&#45;&gt;Node24 -->
<g id="edge11" class="edge">
<title>Node23&#45;&gt;Node24</title>
<path fill="none" stroke="midnightblue" d="M163.08,-43.83C132.77,-33.97 97.37,-22.47 76.64,-15.73"/>
<polygon fill="midnightblue" stroke="midnightblue" points="162.13,-47.2 172.72,-46.96 164.29,-40.54 162.13,-47.2"/>
</g>
</g>
</svg>
