<?xml version="1.0" encoding="UTF-8" standalone="no"?>
<!DOCTYPE svg PUBLIC "-//W3C//DTD SVG 1.1//EN"
 "http://www.w3.org/Graphics/SVG/1.1/DTD/svg11.dtd">
<!-- Generated by graphviz version 2.50.0 (20220203.2022)
 -->
<!-- Title: IERS::TT_UTC Pages: 1 -->
<!--zoomable 224 -->
<svg id="main" version="1.1" xmlns="http://www.w3.org/2000/svg" xmlns:xlink="http://www.w3.org/1999/xlink" xml:space="preserve" onload="init(evt)">
<style type="text/css"><![CDATA[
.edge:hover path { stroke: red; }
.edge:hover polygon { stroke: red; fill: red; }
]]></style>
<script type="text/javascript"><![CDATA[
var edges = document.getElementsByTagName('g');
if (edges && edges.length) {
  for (var i=0;i<edges.length;i++) {
    if (edges[i].id.substr(0,4)=='edge') {
      edges[i].setAttribute('class','edge');
    }
  }
}
]]></script>
        <defs>
                <circle id="rim" cx="0" cy="0" r="7"/>
                <circle id="rim2" cx="0" cy="0" r="3.5"/>
                <g id="zoomPlus">
                        <use xlink:href="#rim" fill="#404040">
                                <set attributeName="fill" to="#808080" begin="zoomplus.mouseover" end="zoomplus.mouseout"/>
                        </use>
                        <path d="M-4,0h8M0,-4v8" fill="none" stroke="white" stroke-width="1.5" pointer-events="none"/>
                </g>
                <g id="zoomMin">
                        <use xlink:href="#rim" fill="#404040">
                                <set attributeName="fill" to="#808080" begin="zoomminus.mouseover" end="zoomminus.mouseout"/>
                        </use>
                        <path d="M-4,0h8" fill="none" stroke="white" stroke-width="1.5" pointer-events="none"/>
                </g>
                <g id="dirArrow">
                        <path fill="none" stroke="white" stroke-width="1.5" d="M0,-3.0v7 M-2.5,-0.5L0,-3.0L2.5,-0.5"/>
                </g>
               <g id="resetDef">
                       <use xlink:href="#rim2" fill="#404040">
                               <set attributeName="fill" to="#808080" begin="reset.mouseover" end="reset.mouseout"/>
                       </use>
               </g>
        </defs>

<script type="text/javascript">
var viewWidth = 575;
var viewHeight = 224;
var sectionId = 'dynsection-1';
</script>
<script xlink:href="svgpan.js"/>
<svg id="graph" class="graph">
<g id="viewport">
<title>IERS::TT_UTC</title>
<polygon fill="white" stroke="transparent" points="-4,4 -4,-219.89 571,-219.89 571,4 -4,4"/>
<!-- Node1 -->
<g id="node1" class="node">
<title>Node1</title>
<g id="a_node1"><a xlink:title=" ">
<polygon fill="#bfbfbf" stroke="black" points="486,-114.5 486,-133.5 567,-133.5 567,-114.5 486,-114.5"/>
<text text-anchor="middle" x="526.5" y="-121.5" font-family="Helvetica,sans-Serif" font-size="10.00">IERS::TT_UTC</text>
</a>
</g>
</g>
<!-- Node2 -->
<g id="node2" class="node">
<title>Node2</title>
<g id="a_node2"><a xlink:href="structGravityModel.html#a0e1dabb37011988e3b1d54da0cd6517b" target="_top" xlink:title=" ">
<polygon fill="white" stroke="black" points="155,-153 155,-183 283,-183 283,-153 155,-153"/>
<text text-anchor="start" x="163" y="-171" font-family="Helvetica,sans-Serif" font-size="10.00">GravityModel::correctEgm</text>
<text text-anchor="middle" x="219" y="-160" font-family="Helvetica,sans-Serif" font-size="10.00">Coefficients</text>
</a>
</g>
</g>
<!-- Node1&#45;&gt;Node2 -->
<g id="edge1" class="edge">
<title>Node1&#45;&gt;Node2</title>
<path fill="none" stroke="midnightblue" d="M475.46,-126.86C433.47,-129.73 372.04,-135.05 319,-144 304.96,-146.37 289.96,-149.62 276,-152.97"/>
<polygon fill="midnightblue" stroke="midnightblue" points="475.95,-130.34 485.69,-126.18 475.48,-123.35 475.95,-130.34"/>
</g>
<!-- Node3 -->
<g id="node3" class="node">
<title>Node3</title>
<g id="a_node3"><a xlink:href="structOrbitPropagator.html#ad6ae055f90d570dd668cf5965c4d06f9" target="_top" xlink:title="mjdUTC at the current moment">
<polygon fill="white" stroke="black" points="0,-158.5 0,-177.5 119,-177.5 119,-158.5 0,-158.5"/>
<text text-anchor="middle" x="59.5" y="-165.5" font-family="Helvetica,sans-Serif" font-size="10.00">OrbitPropagator::update</text>
</a>
</g>
</g>
<!-- Node1&#45;&gt;Node3 -->
<g id="edge11" class="edge">
<title>Node1&#45;&gt;Node3</title>
<path fill="none" stroke="midnightblue" d="M512.59,-141.74C499.14,-158.57 476.36,-182.77 450,-193 322.71,-242.4 154.49,-198.55 88.64,-177.63"/>
<polygon fill="midnightblue" stroke="midnightblue" points="515.44,-143.78 518.75,-133.72 509.88,-139.52 515.44,-143.78"/>
</g>
<!-- Node4 -->
<g id="node4" class="node">
<title>Node4</title>
<g id="a_node4"><a xlink:href="rtkcmn_8cpp.html#a470bf7b49dcb299ab533958252a1dfe0" target="_top" xlink:title="eci to ecef transformation matrix using the sofa library">
<polygon fill="white" stroke="black" points="346,-38.5 346,-57.5 423,-57.5 423,-38.5 346,-38.5"/>
<text text-anchor="middle" x="384.5" y="-45.5" font-family="Helvetica,sans-Serif" font-size="10.00">eci2ecef_sofa</text>
</a>
</g>
</g>
<!-- Node1&#45;&gt;Node4 -->
<g id="edge3" class="edge">
<title>Node1&#45;&gt;Node4</title>
<path fill="none" stroke="midnightblue" d="M507.36,-107.3C492.8,-94.68 471.34,-77.75 450,-67 441.66,-62.8 432.23,-59.37 423.21,-56.64"/>
<polygon fill="midnightblue" stroke="midnightblue" points="505.28,-110.14 515.08,-114.16 509.92,-104.9 505.28,-110.14"/>
</g>
<!-- Node10 -->
<g id="node8" class="node">
<title>Node10</title>
<g id="a_node8"><a xlink:href="structOrbitPropagator.html#a1110817f2823b35262c48ce347a31a12" target="_top" xlink:title="Propagate orbits by ODE functor.">
<polygon fill="white" stroke="black" points="319,-76.5 319,-95.5 450,-95.5 450,-76.5 319,-76.5"/>
<text text-anchor="middle" x="384.5" y="-83.5" font-family="Helvetica,sans-Serif" font-size="10.00">OrbitPropagator::operator()</text>
</a>
</g>
</g>
<!-- Node1&#45;&gt;Node10 -->
<g id="edge8" class="edge">
<title>Node1&#45;&gt;Node10</title>
<path fill="none" stroke="midnightblue" d="M480.38,-111.75C461.09,-106.52 438.89,-100.49 420.82,-95.59"/>
<polygon fill="midnightblue" stroke="midnightblue" points="479.6,-115.17 490.17,-114.41 481.44,-108.41 479.6,-115.17"/>
</g>
<!-- Node11 -->
<g id="node9" class="node">
<title>Node11</title>
<g id="a_node9"><a xlink:href="structGravityModel.html#a74d19df51b8c0789f2bb405ec4540e90" target="_top" xlink:title="Rho, azimuth and altitude information of Moon.">
<polygon fill="white" stroke="black" points="324,-153 324,-183 445,-183 445,-153 324,-153"/>
<text text-anchor="start" x="332" y="-171" font-family="Helvetica,sans-Serif" font-size="10.00">GravityModel::solidEarth</text>
<text text-anchor="middle" x="384.5" y="-160" font-family="Helvetica,sans-Serif" font-size="10.00">TidesCorrection</text>
</a>
</g>
</g>
<!-- Node1&#45;&gt;Node11 -->
<g id="edge9" class="edge">
<title>Node1&#45;&gt;Node11</title>
<path fill="none" stroke="midnightblue" d="M485.41,-136.6C469.2,-141.69 450.36,-147.62 433.44,-152.93"/>
<polygon fill="midnightblue" stroke="midnightblue" points="486.63,-139.88 495.12,-133.55 484.53,-133.21 486.63,-139.88"/>
</g>
<!-- Node2&#45;&gt;Node3 -->
<g id="edge2" class="edge">
<title>Node2&#45;&gt;Node3</title>
<path fill="none" stroke="midnightblue" d="M144.79,-168C136.17,-168 127.46,-168 119.07,-168"/>
<polygon fill="midnightblue" stroke="midnightblue" points="144.85,-171.5 154.85,-168 144.85,-164.5 144.85,-171.5"/>
</g>
<!-- Node4&#45;&gt;Node3 -->
<g id="edge6" class="edge">
<title>Node4&#45;&gt;Node3</title>
<path fill="none" stroke="midnightblue" d="M335.92,-57.86C278.92,-70.01 187.1,-90.81 155,-105 122.54,-119.35 89.01,-144.67 71.96,-158.43"/>
<polygon fill="midnightblue" stroke="midnightblue" points="336.73,-61.26 345.79,-55.76 335.28,-54.41 336.73,-61.26"/>
</g>
<!-- Node5 -->
<g id="node5" class="node">
<title>Node5</title>
<g id="a_node5"><a xlink:href="rtkcmn_8cpp.html#ac2b6cc31f68b273128f1a15ff409b1e9" target="_top" xlink:title="vector transformed from ecef to eci using the sofa library">
<polygon fill="white" stroke="black" points="180.5,-38.5 180.5,-57.5 257.5,-57.5 257.5,-38.5 180.5,-38.5"/>
<text text-anchor="middle" x="219" y="-45.5" font-family="Helvetica,sans-Serif" font-size="10.00">ecef2eci_sofa</text>
</a>
</g>
</g>
<!-- Node4&#45;&gt;Node5 -->
<g id="edge4" class="edge">
<title>Node4&#45;&gt;Node5</title>
<path fill="none" stroke="midnightblue" d="M335.67,-48C310.8,-48 280.82,-48 257.62,-48"/>
<polygon fill="midnightblue" stroke="midnightblue" points="335.99,-51.5 345.99,-48 335.99,-44.5 335.99,-51.5"/>
</g>
<!-- Node6 -->
<g id="node6" class="node">
<title>Node6</title>
<g id="a_node6"><a xlink:href="rtkcmn_8cpp.html#acff32e24f536f55cf057586b5e157046" target="_top" xlink:title="vector transformed from eci to ecef using the sofa library">
<polygon fill="white" stroke="black" points="180.5,-0.5 180.5,-19.5 257.5,-19.5 257.5,-0.5 180.5,-0.5"/>
<text text-anchor="middle" x="219" y="-7.5" font-family="Helvetica,sans-Serif" font-size="10.00">eci2ecef_sofa</text>
</a>
</g>
</g>
<!-- Node4&#45;&gt;Node6 -->
<g id="edge5" class="edge">
<title>Node4&#45;&gt;Node6</title>
<path fill="none" stroke="midnightblue" d="M336.01,-36.96C311.06,-31.16 280.92,-24.16 257.62,-18.74"/>
<polygon fill="midnightblue" stroke="midnightblue" points="335.46,-40.43 345.99,-39.28 337.04,-33.61 335.46,-40.43"/>
</g>
<!-- Node7 -->
<g id="node7" class="node">
<title>Node7</title>
<g id="a_node7"><a xlink:href="forceModels_8cpp.html#adc8a87f58bb4e50044b472ffb013e651" target="_top" xlink:title="ODE of variational equation to be solved, i.e.">
<polygon fill="white" stroke="red" points="183,-114.5 183,-133.5 255,-133.5 255,-114.5 183,-114.5"/>
<text text-anchor="middle" x="219" y="-121.5" font-family="Helvetica,sans-Serif" font-size="10.00">updateOrbits</text>
</a>
</g>
</g>
<!-- Node4&#45;&gt;Node7 -->
<g id="edge7" class="edge">
<title>Node4&#45;&gt;Node7</title>
<path fill="none" stroke="midnightblue" d="M335.93,-59.29C330.06,-61.47 324.27,-64.02 319,-67 300.1,-77.68 301.47,-88.6 283,-100 273.54,-105.84 262.42,-110.65 252.18,-114.39"/>
<polygon fill="midnightblue" stroke="midnightblue" points="337.46,-62.47 345.83,-55.98 335.23,-55.84 337.46,-62.47"/>
</g>
<!-- Node11&#45;&gt;Node2 -->
<g id="edge10" class="edge">
<title>Node11&#45;&gt;Node2</title>
<path fill="none" stroke="midnightblue" d="M313.26,-168C303.28,-168 293.08,-168 283.24,-168"/>
<polygon fill="midnightblue" stroke="midnightblue" points="313.55,-171.5 323.55,-168 313.55,-164.5 313.55,-171.5"/>
</g>
</g>
</svg>
        <g id="navigator" transform="translate(0 0)" fill="#404254">
                <rect fill="#f2f5e9" fill-opacity="0.5" stroke="#606060" stroke-width=".5" x="0" y="0" width="60" height="60"/>
                <use id="zoomplus" xlink:href="#zoomPlus" x="17" y="9" onmousedown="handleZoom(evt,'in')"/>
                <use id="zoomminus" xlink:href="#zoomMin" x="42" y="9" onmousedown="handleZoom(evt,'out')"/>
                <use id="reset" xlink:href="#resetDef" x="30" y="36" onmousedown="handleReset()"/>
                <g id="arrowUp" xlink:href="#dirArrow" transform="translate(30 24)" onmousedown="handlePan(0,-1)">
                  <use xlink:href="#rim" fill="#404040">
                        <set attributeName="fill" to="#808080" begin="arrowUp.mouseover" end="arrowUp.mouseout"/>
                  </use>
                  <path fill="none" stroke="white" stroke-width="1.5" d="M0,-3.0v7 M-2.5,-0.5L0,-3.0L2.5,-0.5"/>
                </g>
                <g id="arrowRight" xlink:href="#dirArrow" transform="rotate(90) translate(36 -43)" onmousedown="handlePan(1,0)">
                  <use xlink:href="#rim" fill="#404040">
                        <set attributeName="fill" to="#808080" begin="arrowRight.mouseover" end="arrowRight.mouseout"/>
                  </use>
                  <path fill="none" stroke="white" stroke-width="1.5" d="M0,-3.0v7 M-2.5,-0.5L0,-3.0L2.5,-0.5"/>
                </g>
                <g id="arrowDown" xlink:href="#dirArrow" transform="rotate(180) translate(-30 -48)" onmousedown="handlePan(0,1)">
                  <use xlink:href="#rim" fill="#404040">
                        <set attributeName="fill" to="#808080" begin="arrowDown.mouseover" end="arrowDown.mouseout"/>
                  </use>
                  <path fill="none" stroke="white" stroke-width="1.5" d="M0,-3.0v7 M-2.5,-0.5L0,-3.0L2.5,-0.5"/>
                </g>
                <g id="arrowLeft" xlink:href="#dirArrow" transform="rotate(270) translate(-36 17)" onmousedown="handlePan(-1,0)">
                  <use xlink:href="#rim" fill="#404040">
                        <set attributeName="fill" to="#808080" begin="arrowLeft.mouseover" end="arrowLeft.mouseout"/>
                  </use>
                  <path fill="none" stroke="white" stroke-width="1.5" d="M0,-3.0v7 M-2.5,-0.5L0,-3.0L2.5,-0.5"/>
                </g>
        </g>
        <svg viewBox="0 0 15 15" width="100%" height="30px" preserveAspectRatio="xMaxYMin meet">
         <g id="arrow_out" transform="scale(0.3 0.3)">
          <a xlink:href="structIERS_a5d7e8d9edc982b387583d37e96d331c0_icgraph_org.svg" target="_base">
           <rect id="button" ry="5" rx="5" y="6" x="6" height="38" width="38"
                fill="#f2f5e9" fill-opacity="0.5" stroke="#606060" stroke-width="1.0"/>
           <path id="arrow"
             d="M 11.500037,31.436501 C 11.940474,20.09759 22.043105,11.32322 32.158766,21.979434 L 37.068811,17.246167 C 37.068811,17.246167 37.088388,32 37.088388,32 L 22.160133,31.978069 C 22.160133,31.978069 26.997745,27.140456 26.997745,27.140456 C 18.528582,18.264221 13.291696,25.230495 11.500037,31.436501 z"
             style="fill:#404040;"/>
          </a>
         </g>
        </svg>
</svg>
