<?xml version="1.0" encoding="UTF-8" standalone="no"?>
<!DOCTYPE svg PUBLIC "-//W3C//DTD SVG 1.1//EN"
 "http://www.w3.org/Graphics/SVG/1.1/DTD/svg11.dtd">
<!-- Generated by graphviz version 2.50.0 (20220203.2022)
 -->
<!-- Title: Sp3Entry Pages: 1 -->
<svg width="239pt" height="117pt"
 viewBox="0.00 0.00 239.00 117.00" xmlns="http://www.w3.org/2000/svg" xmlns:xlink="http://www.w3.org/1999/xlink">
<g id="graph0" class="graph" transform="scale(1 1) rotate(0) translate(4 113)">
<title>Sp3Entry</title>
<polygon fill="white" stroke="transparent" points="-4,4 -4,-113 235,-113 235,4 -4,4"/>
<!-- Node1 -->
<g id="node1" class="node">
<title>Node1</title>
<g id="a_node1"><a xlink:title=" ">
<polygon fill="#bfbfbf" stroke="black" points="155,-6 155,-25 211,-25 211,-6 155,-6"/>
<text text-anchor="middle" x="183" y="-13" font-family="Helvetica,sans-Serif" font-size="10.00">Sp3Entry</text>
</a>
</g>
</g>
<!-- Node2 -->
<g id="node2" class="node">
<title>Node2</title>
<g id="a_node2"><a xlink:href="structSatSys.html" target="_top" xlink:title="Object holding satellite id, and providing related functions.">
<polygon fill="white" stroke="black" points="60,-89.5 60,-108.5 108,-108.5 108,-89.5 60,-89.5"/>
<text text-anchor="middle" x="84" y="-96.5" font-family="Helvetica,sans-Serif" font-size="10.00">SatSys</text>
</a>
</g>
</g>
<!-- Node2&#45;&gt;Node1 -->
<g id="edge1" class="edge">
<title>Node2&#45;&gt;Node1</title>
<path fill="none" stroke="#9a32cd" stroke-dasharray="5,2" d="M116.05,-85.17C123.96,-81.25 132.13,-76.49 139,-71 155.72,-57.64 170.25,-36.89 177.69,-25.23"/>
<polygon fill="#9a32cd" stroke="#9a32cd" points="114.57,-82.01 106.98,-89.4 117.52,-88.35 114.57,-82.01"/>
<text text-anchor="middle" x="168" y="-57.5" font-family="Helvetica,sans-Serif" font-size="10.00"> sat</text>
</g>
<!-- Node3 -->
<g id="node3" class="node">
<title>Node3</title>
<g id="a_node3"><a xlink:title=" ">
<polygon fill="white" stroke="red" points="0,-0.5 0,-30.5 130,-30.5 130,-0.5 0,-0.5"/>
<text text-anchor="start" x="8" y="-18.5" font-family="Helvetica,sans-Serif" font-size="10.00">std::map&lt; SatSys, SatSys</text>
<text text-anchor="middle" x="65" y="-7.5" font-family="Helvetica,sans-Serif" font-size="10.00">::SatData &gt;</text>
</a>
</g>
</g>
<!-- Node2&#45;&gt;Node3 -->
<g id="edge3" class="edge">
<title>Node2&#45;&gt;Node3</title>
<path fill="none" stroke="#9a32cd" stroke-dasharray="5,2" d="M56.52,-83.46C52.28,-79.97 48.49,-75.82 46,-71 39.29,-58 46.41,-42.1 53.77,-30.84"/>
<polygon fill="#9a32cd" stroke="#9a32cd" points="54.8,-86.53 65,-89.39 58.81,-80.79 54.8,-86.53"/>
<text text-anchor="middle" x="57.5" y="-57.5" font-family="Helvetica,sans-Serif" font-size="10.00"> keys</text>
</g>
<!-- Node3&#45;&gt;Node2 -->
<g id="edge2" class="edge">
<title>Node3&#45;&gt;Node2</title>
<path fill="none" stroke="#9a32cd" stroke-dasharray="5,2" d="M70.62,-40.61C74.44,-57.01 79.28,-77.76 81.97,-89.28"/>
<polygon fill="#9a32cd" stroke="#9a32cd" points="73.97,-39.54 68.29,-30.6 67.15,-41.13 73.97,-39.54"/>
<text text-anchor="middle" x="106.5" y="-57.5" font-family="Helvetica,sans-Serif" font-size="10.00"> SatDataMap</text>
</g>
<!-- Node7 -->
<g id="node4" class="node">
<title>Node7</title>
<g id="a_node4"><a xlink:title=" ">
<polygon fill="white" stroke="black" points="175,-89.5 175,-108.5 231,-108.5 231,-89.5 175,-89.5"/>
<text text-anchor="middle" x="203" y="-96.5" font-family="Helvetica,sans-Serif" font-size="10.00">Vector3d</text>
</a>
</g>
</g>
<!-- Node7&#45;&gt;Node1 -->
<g id="edge4" class="edge">
<title>Node7&#45;&gt;Node1</title>
<path fill="none" stroke="#9a32cd" stroke-dasharray="5,2" d="M198.43,-79.36C194.25,-62.36 188.27,-37.99 185.12,-25.16"/>
<polygon fill="#9a32cd" stroke="#9a32cd" points="195.08,-80.4 200.86,-89.28 201.88,-78.73 195.08,-80.4"/>
<text text-anchor="middle" x="212" y="-63" font-family="Helvetica,sans-Serif" font-size="10.00"> satPos</text>
<text text-anchor="middle" x="212" y="-52" font-family="Helvetica,sans-Serif" font-size="10.00">satVel</text>
</g>
</g>
</svg>
