<?xml version="1.0" encoding="UTF-8" standalone="no"?>
<!DOCTYPE svg PUBLIC "-//W3C//DTD SVG 1.1//EN"
 "http://www.w3.org/Graphics/SVG/1.1/DTD/svg11.dtd">
<!-- Generated by graphviz version 2.50.0 (20220203.2022)
 -->
<!-- Title: RtcmEncoder::encodeTimeStampRTCM Pages: 1 -->
<svg width="525pt" height="142pt"
 viewBox="0.00 0.00 525.00 142.00" xmlns="http://www.w3.org/2000/svg" xmlns:xlink="http://www.w3.org/1999/xlink">
<g id="graph0" class="graph" transform="scale(1 1) rotate(0) translate(4 138)">
<title>RtcmEncoder::encodeTimeStampRTCM</title>
<polygon fill="white" stroke="transparent" points="-4,4 -4,-138 521,-138 521,4 -4,4"/>
<!-- Node1 -->
<g id="node1" class="node">
<title>Node1</title>
<g id="a_node1"><a xlink:title=" ">
<polygon fill="#bfbfbf" stroke="black" points="328,-57.5 328,-76.5 517,-76.5 517,-57.5 328,-57.5"/>
<text text-anchor="middle" x="422.5" y="-64.5" font-family="Helvetica,sans-Serif" font-size="10.00">RtcmEncoder::encodeTimeStampRTCM</text>
</a>
</g>
</g>
<!-- Node2 -->
<g id="node2" class="node">
<title>Node2</title>
<g id="a_node2"><a xlink:href="structRtcmStream.html#a34a7a941dab214b7ff6b17e8a53eb55a" target="_top" xlink:title=" ">
<polygon fill="white" stroke="black" points="164,-57.5 164,-76.5 292,-76.5 292,-57.5 164,-57.5"/>
<text text-anchor="middle" x="228" y="-64.5" font-family="Helvetica,sans-Serif" font-size="10.00">RtcmStream::parseRTCM</text>
</a>
</g>
</g>
<!-- Node1&#45;&gt;Node2 -->
<g id="edge1" class="edge">
<title>Node1&#45;&gt;Node2</title>
<path fill="none" stroke="midnightblue" d="M317.63,-67C308.99,-67 300.43,-67 292.24,-67"/>
<polygon fill="midnightblue" stroke="midnightblue" points="317.79,-70.5 327.79,-67 317.79,-63.5 317.79,-70.5"/>
</g>
<!-- Node3 -->
<g id="node3" class="node">
<title>Node3</title>
<g id="a_node3"><a xlink:href="structNtripRtcmStream.html#aa25d7e4eec397879e43cde5ac97e80bc" target="_top" xlink:title=" ">
<polygon fill="white" stroke="black" points="0,-114.5 0,-133.5 128,-133.5 128,-114.5 0,-114.5"/>
<text text-anchor="middle" x="64" y="-121.5" font-family="Helvetica,sans-Serif" font-size="10.00">NtripRtcmStream::getNav</text>
</a>
</g>
</g>
<!-- Node2&#45;&gt;Node3 -->
<g id="edge2" class="edge">
<title>Node2&#45;&gt;Node3</title>
<path fill="none" stroke="midnightblue" d="M194.1,-80.33C174.94,-87.91 150.25,-97.39 128,-105 118.38,-108.29 107.83,-111.59 98.17,-114.5"/>
<polygon fill="midnightblue" stroke="midnightblue" points="195.58,-83.5 203.57,-76.55 192.99,-77 195.58,-83.5"/>
</g>
<!-- Node4 -->
<g id="node4" class="node">
<title>Node4</title>
<g id="a_node4"><a xlink:href="structFileRtcmStream.html#aa2675b0e676825115c4b476941e7b53d" target="_top" xlink:title=" ">
<polygon fill="white" stroke="black" points="2.5,-76.5 2.5,-95.5 125.5,-95.5 125.5,-76.5 2.5,-76.5"/>
<text text-anchor="middle" x="64" y="-83.5" font-family="Helvetica,sans-Serif" font-size="10.00">FileRtcmStream::getNav</text>
</a>
</g>
</g>
<!-- Node2&#45;&gt;Node4 -->
<g id="edge3" class="edge">
<title>Node2&#45;&gt;Node4</title>
<path fill="none" stroke="midnightblue" d="M153.75,-75.59C144.31,-76.7 134.73,-77.82 125.54,-78.9"/>
<polygon fill="midnightblue" stroke="midnightblue" points="154.38,-79.04 163.9,-74.4 153.56,-72.09 154.38,-79.04"/>
</g>
<!-- Node5 -->
<g id="node5" class="node">
<title>Node5</title>
<g id="a_node5"><a xlink:href="structNtripRtcmStream.html#a7ae2807fa53dc422270a34553e1f80c9" target="_top" xlink:title="Return a list of observations from the stream.">
<polygon fill="white" stroke="black" points="0,-38.5 0,-57.5 128,-57.5 128,-38.5 0,-38.5"/>
<text text-anchor="middle" x="64" y="-45.5" font-family="Helvetica,sans-Serif" font-size="10.00">NtripRtcmStream::getObs</text>
</a>
</g>
</g>
<!-- Node2&#45;&gt;Node5 -->
<g id="edge4" class="edge">
<title>Node2&#45;&gt;Node5</title>
<path fill="none" stroke="midnightblue" d="M153.91,-58.43C145.32,-57.42 136.62,-56.4 128.19,-55.41"/>
<polygon fill="midnightblue" stroke="midnightblue" points="153.56,-61.91 163.9,-59.6 154.38,-54.96 153.56,-61.91"/>
</g>
<!-- Node6 -->
<g id="node6" class="node">
<title>Node6</title>
<g id="a_node6"><a xlink:href="structFileRtcmStream.html#a60fb40d30b75c23712ce49ff8b9655ab" target="_top" xlink:title="Return a list of observations from the stream.">
<polygon fill="white" stroke="black" points="2.5,-0.5 2.5,-19.5 125.5,-19.5 125.5,-0.5 2.5,-0.5"/>
<text text-anchor="middle" x="64" y="-7.5" font-family="Helvetica,sans-Serif" font-size="10.00">FileRtcmStream::getObs</text>
</a>
</g>
</g>
<!-- Node2&#45;&gt;Node6 -->
<g id="edge5" class="edge">
<title>Node2&#45;&gt;Node6</title>
<path fill="none" stroke="midnightblue" d="M194.1,-53.67C174.94,-46.09 150.25,-36.61 128,-29 118.38,-25.71 107.83,-22.41 98.17,-19.5"/>
<polygon fill="midnightblue" stroke="midnightblue" points="192.99,-57 203.57,-57.45 195.58,-50.5 192.99,-57"/>
</g>
</g>
</svg>
