<?xml version="1.0" encoding="UTF-8" standalone="no"?>
<!DOCTYPE svg PUBLIC "-//W3C//DTD SVG 1.1//EN"
 "http://www.w3.org/Graphics/SVG/1.1/DTD/svg11.dtd">
<!-- Generated by graphviz version 2.50.0 (20220203.2022)
 -->
<!-- Title: NtripSourceTable Pages: 1 -->
<!--zoomable 339 -->
<svg id="main" version="1.1" xmlns="http://www.w3.org/2000/svg" xmlns:xlink="http://www.w3.org/1999/xlink" xml:space="preserve" onload="init(evt)">
<style type="text/css"><![CDATA[
.edge:hover path { stroke: red; }
.edge:hover polygon { stroke: red; fill: red; }
]]></style>
<script type="text/javascript"><![CDATA[
var edges = document.getElementsByTagName('g');
if (edges && edges.length) {
  for (var i=0;i<edges.length;i++) {
    if (edges[i].id.substr(0,4)=='edge') {
      edges[i].setAttribute('class','edge');
    }
  }
}
]]></script>
        <defs>
                <circle id="rim" cx="0" cy="0" r="7"/>
                <circle id="rim2" cx="0" cy="0" r="3.5"/>
                <g id="zoomPlus">
                        <use xlink:href="#rim" fill="#404040">
                                <set attributeName="fill" to="#808080" begin="zoomplus.mouseover" end="zoomplus.mouseout"/>
                        </use>
                        <path d="M-4,0h8M0,-4v8" fill="none" stroke="white" stroke-width="1.5" pointer-events="none"/>
                </g>
                <g id="zoomMin">
                        <use xlink:href="#rim" fill="#404040">
                                <set attributeName="fill" to="#808080" begin="zoomminus.mouseover" end="zoomminus.mouseout"/>
                        </use>
                        <path d="M-4,0h8" fill="none" stroke="white" stroke-width="1.5" pointer-events="none"/>
                </g>
                <g id="dirArrow">
                        <path fill="none" stroke="white" stroke-width="1.5" d="M0,-3.0v7 M-2.5,-0.5L0,-3.0L2.5,-0.5"/>
                </g>
               <g id="resetDef">
                       <use xlink:href="#rim2" fill="#404040">
                               <set attributeName="fill" to="#808080" begin="reset.mouseover" end="reset.mouseout"/>
                       </use>
               </g>
        </defs>

<script type="text/javascript">
var viewWidth = 754;
var viewHeight = 339;
var sectionId = 'dynsection-1';
</script>
<script xlink:href="svgpan.js"/>
<svg id="graph" class="graph">
<g id="viewport">
<title>NtripSourceTable</title>
<polygon fill="white" stroke="transparent" points="-4,4 -4,-334.5 750,-334.5 750,4 -4,4"/>
<!-- Node1 -->
<g id="node1" class="node">
<title>Node1</title>
<g id="a_node1"><a xlink:title=" ">
<polygon fill="#bfbfbf" stroke="black" points="654,-277 654,-296 746,-296 746,-277 654,-277"/>
<text text-anchor="middle" x="700" y="-284" font-family="Helvetica,sans-Serif" font-size="10.00">NtripSourceTable</text>
</a>
</g>
</g>
<!-- Node2 -->
<g id="node2" class="node">
<title>Node2</title>
<g id="a_node2"><a xlink:href="structNtripSocket.html" target="_top" xlink:title=" ">
<polygon fill="white" stroke="black" points="445.5,-137 445.5,-156 513.5,-156 513.5,-137 445.5,-137"/>
<text text-anchor="middle" x="479.5" y="-144" font-family="Helvetica,sans-Serif" font-size="10.00">NtripSocket</text>
</a>
</g>
</g>
<!-- Node2&#45;&gt;Node1 -->
<g id="edge1" class="edge">
<title>Node2&#45;&gt;Node1</title>
<path fill="none" stroke="midnightblue" d="M504.08,-161.61C549.27,-190.57 646.93,-253.14 684.17,-277"/>
<polygon fill="midnightblue" stroke="midnightblue" points="505.83,-158.57 495.52,-156.12 502.05,-164.46 505.83,-158.57"/>
</g>
<!-- Node3 -->
<g id="node3" class="node">
<title>Node3</title>
<g id="a_node3"><a xlink:href="structNetworkStatistics.html" target="_top" xlink:title=" ">
<polygon fill="white" stroke="red" points="200.5,-137 200.5,-156 295.5,-156 295.5,-137 200.5,-137"/>
<text text-anchor="middle" x="248" y="-144" font-family="Helvetica,sans-Serif" font-size="10.00">NetworkStatistics</text>
</a>
</g>
</g>
<!-- Node3&#45;&gt;Node2 -->
<g id="edge2" class="edge">
<title>Node3&#45;&gt;Node2</title>
<path fill="none" stroke="midnightblue" d="M305.94,-146.5C349.76,-146.5 408.79,-146.5 445.22,-146.5"/>
<polygon fill="midnightblue" stroke="midnightblue" points="305.72,-143 295.72,-146.5 305.72,-150 305.72,-143"/>
</g>
<!-- Node4 -->
<g id="node4" class="node">
<title>Node4</title>
<g id="a_node4"><a xlink:title=" ">
<polygon fill="white" stroke="red" points="0,-183 0,-202 59,-202 59,-183 0,-183"/>
<text text-anchor="middle" x="29.5" y="-190" font-family="Helvetica,sans-Serif" font-size="10.00">std::string</text>
</a>
</g>
</g>
<!-- Node4&#45;&gt;Node1 -->
<g id="edge10" class="edge">
<title>Node4&#45;&gt;Node1</title>
<path fill="none" stroke="#9a32cd" stroke-dasharray="5,2" d="M34.16,-211.97C39.48,-234.56 51.63,-271.19 77,-290.5 120.09,-323.29 143.06,-306.82 197,-311.5 349.76,-324.77 388.88,-319.62 542,-311.5 583.95,-309.27 594.59,-308.6 636,-301.5 644.64,-300.02 653.87,-298.05 662.52,-296.02"/>
<polygon fill="#9a32cd" stroke="#9a32cd" points="37.57,-211.19 32.07,-202.14 30.72,-212.65 37.57,-211.19"/>
<text text-anchor="middle" x="358" y="-322.5" font-family="Helvetica,sans-Serif" font-size="10.00"> sourceTableString</text>
</g>
<!-- Node4&#45;&gt;Node2 -->
<g id="edge7" class="edge">
<title>Node4&#45;&gt;Node2</title>
<path fill="none" stroke="#9a32cd" stroke-dasharray="5,2" d="M69.41,-190.25C136.76,-186.1 279.33,-176.2 399,-160.5 414.28,-158.49 431.11,-155.63 445.34,-153.01"/>
<polygon fill="#9a32cd" stroke="#9a32cd" points="69.03,-186.76 59.26,-190.86 69.46,-193.75 69.03,-186.76"/>
<text text-anchor="middle" x="248" y="-194.5" font-family="Helvetica,sans-Serif" font-size="10.00"> request_string</text>
<text text-anchor="middle" x="248" y="-183.5" font-family="Helvetica,sans-Serif" font-size="10.00">response_string</text>
</g>
<!-- Node4&#45;&gt;Node3 -->
<g id="edge3" class="edge">
<title>Node4&#45;&gt;Node3</title>
<path fill="none" stroke="#9a32cd" stroke-dasharray="5,2" d="M46.85,-175.9C55.14,-168.57 65.82,-160.69 77,-156.5 116.72,-141.6 165.33,-140.26 200.38,-141.97"/>
<polygon fill="#9a32cd" stroke="#9a32cd" points="44.31,-173.48 39.42,-182.87 49.1,-178.58 44.31,-173.48"/>
<text text-anchor="middle" x="128" y="-170.5" font-family="Helvetica,sans-Serif" font-size="10.00"> networkTraceFilename</text>
<text text-anchor="middle" x="128" y="-159.5" font-family="Helvetica,sans-Serif" font-size="10.00">streamName</text>
</g>
<!-- Node11 -->
<g id="node8" class="node">
<title>Node11</title>
<g id="a_node8"><a xlink:href="structURL.html" target="_top" xlink:title=" ">
<polygon fill="white" stroke="black" points="229.5,-99 229.5,-118 266.5,-118 266.5,-99 229.5,-99"/>
<text text-anchor="middle" x="248" y="-106" font-family="Helvetica,sans-Serif" font-size="10.00">URL</text>
</a>
</g>
</g>
<!-- Node4&#45;&gt;Node11 -->
<g id="edge9" class="edge">
<title>Node4&#45;&gt;Node11</title>
<path fill="none" stroke="#9a32cd" stroke-dasharray="5,2" d="M30.77,-172.82C32.37,-142.58 40.39,-85.49 77,-59.5 113.97,-33.26 139.55,-37.16 179,-59.5 192.53,-67.16 185.07,-79.52 197,-89.5 206.26,-97.25 219.01,-102.03 229.31,-104.85"/>
<polygon fill="#9a32cd" stroke="#9a32cd" points="27.26,-172.85 30.42,-182.97 34.26,-173.09 27.26,-172.85"/>
<text text-anchor="middle" x="128" y="-128.5" font-family="Helvetica,sans-Serif" font-size="10.00"> host</text>
<text text-anchor="middle" x="128" y="-117.5" font-family="Helvetica,sans-Serif" font-size="10.00">pass</text>
<text text-anchor="middle" x="128" y="-106.5" font-family="Helvetica,sans-Serif" font-size="10.00">path</text>
<text text-anchor="middle" x="128" y="-95.5" font-family="Helvetica,sans-Serif" font-size="10.00">port_str</text>
<text text-anchor="middle" x="128" y="-84.5" font-family="Helvetica,sans-Serif" font-size="10.00">protocol</text>
<text text-anchor="middle" x="128" y="-73.5" font-family="Helvetica,sans-Serif" font-size="10.00">url</text>
<text text-anchor="middle" x="128" y="-62.5" font-family="Helvetica,sans-Serif" font-size="10.00">user</text>
</g>
<!-- Node13 -->
<g id="node10" class="node">
<title>Node13</title>
<g id="a_node10"><a xlink:href="structSourceTableEntry.html" target="_top" xlink:title=" ">
<polygon fill="white" stroke="red" points="201.5,-283 201.5,-302 294.5,-302 294.5,-283 201.5,-283"/>
<text text-anchor="middle" x="248" y="-290" font-family="Helvetica,sans-Serif" font-size="10.00">SourceTableEntry</text>
</a>
</g>
</g>
<!-- Node4&#45;&gt;Node13 -->
<g id="edge13" class="edge">
<title>Node4&#45;&gt;Node13</title>
<path fill="none" stroke="#9a32cd" stroke-dasharray="5,2" d="M57.67,-206.65C90.35,-223.45 147.05,-251.91 197,-273.5 204.59,-276.78 212.94,-280.07 220.61,-282.98"/>
<polygon fill="#9a32cd" stroke="#9a32cd" points="59.22,-203.51 48.73,-202.04 56.01,-209.73 59.22,-203.51"/>
<text text-anchor="middle" x="128" y="-278.5" font-family="Helvetica,sans-Serif" font-size="10.00"> location</text>
<text text-anchor="middle" x="128" y="-267.5" font-family="Helvetica,sans-Serif" font-size="10.00">mountPoint</text>
</g>
<!-- Node8 -->
<g id="node5" class="node">
<title>Node8</title>
<g id="a_node5"><a xlink:title=" ">
<polygon fill="white" stroke="black" points="197,-0.5 197,-30.5 299,-30.5 299,-0.5 197,-0.5"/>
<text text-anchor="start" x="205" y="-18.5" font-family="Helvetica,sans-Serif" font-size="10.00">std::shared_ptr&lt; tcp</text>
<text text-anchor="middle" x="248" y="-7.5" font-family="Helvetica,sans-Serif" font-size="10.00">::socket &gt;</text>
</a>
</g>
</g>
<!-- Node8&#45;&gt;Node2 -->
<g id="edge4" class="edge">
<title>Node8&#45;&gt;Node2</title>
<path fill="none" stroke="#9a32cd" stroke-dasharray="5,2" d="M309.23,-26.95C337.9,-34.19 371.77,-45.49 399,-62.5 431.53,-82.82 459.77,-119.58 472.02,-136.93"/>
<polygon fill="#9a32cd" stroke="#9a32cd" points="309.87,-23.5 299.33,-24.55 308.22,-30.3 309.87,-23.5"/>
<text text-anchor="middle" x="358" y="-65.5" font-family="Helvetica,sans-Serif" font-size="10.00"> _socket</text>
</g>
<!-- Node9 -->
<g id="node6" class="node">
<title>Node9</title>
<g id="a_node6"><a xlink:title=" ">
<polygon fill="white" stroke="black" points="197.5,-233.5 197.5,-263.5 298.5,-263.5 298.5,-233.5 197.5,-233.5"/>
<text text-anchor="start" x="205.5" y="-251.5" font-family="Helvetica,sans-Serif" font-size="10.00">std::shared_ptr&lt; ssl</text>
<text text-anchor="middle" x="248" y="-240.5" font-family="Helvetica,sans-Serif" font-size="10.00">_socket &gt;</text>
</a>
</g>
</g>
<!-- Node9&#45;&gt;Node2 -->
<g id="edge5" class="edge">
<title>Node9&#45;&gt;Node2</title>
<path fill="none" stroke="#9a32cd" stroke-dasharray="5,2" d="M308.43,-237.25C336.77,-230.55 370.6,-220.56 399,-206.5 426.58,-192.84 454.24,-169.17 468.54,-156.01"/>
<polygon fill="#9a32cd" stroke="#9a32cd" points="307.63,-233.84 298.66,-239.48 309.18,-240.67 307.63,-233.84"/>
<text text-anchor="middle" x="358" y="-237.5" font-family="Helvetica,sans-Serif" font-size="10.00"> _sslsocket</text>
</g>
<!-- Node10 -->
<g id="node7" class="node">
<title>Node10</title>
<g id="a_node7"><a xlink:title=" ">
<polygon fill="white" stroke="black" points="197,-49.5 197,-79.5 299,-79.5 299,-49.5 197,-49.5"/>
<text text-anchor="start" x="205" y="-67.5" font-family="Helvetica,sans-Serif" font-size="10.00">std::shared_ptr&lt; tcp</text>
<text text-anchor="middle" x="248" y="-56.5" font-family="Helvetica,sans-Serif" font-size="10.00">::resolver &gt;</text>
</a>
</g>
</g>
<!-- Node10&#45;&gt;Node2 -->
<g id="edge6" class="edge">
<title>Node10&#45;&gt;Node2</title>
<path fill="none" stroke="#9a32cd" stroke-dasharray="5,2" d="M309.32,-76.06C337.15,-82.33 370.3,-91.14 399,-102.5 422.76,-111.9 448.29,-127.03 463.83,-136.86"/>
<polygon fill="#9a32cd" stroke="#9a32cd" points="309.85,-72.59 299.33,-73.86 308.35,-79.43 309.85,-72.59"/>
<text text-anchor="middle" x="358" y="-105.5" font-family="Helvetica,sans-Serif" font-size="10.00"> _resolver</text>
</g>
<!-- Node11&#45;&gt;Node2 -->
<g id="edge8" class="edge">
<title>Node11&#45;&gt;Node2</title>
<path fill="none" stroke="#9a32cd" stroke-dasharray="5,2" d="M276.76,-112.47C306.9,-116.84 356.44,-124.22 399,-131.5 414.23,-134.1 431.05,-137.24 445.28,-139.97"/>
<polygon fill="#9a32cd" stroke="#9a32cd" points="276.98,-108.96 266.58,-111 275.98,-115.89 276.98,-108.96"/>
<text text-anchor="middle" x="358" y="-134.5" font-family="Helvetica,sans-Serif" font-size="10.00"> url</text>
</g>
<!-- Node12 -->
<g id="node9" class="node">
<title>Node12</title>
<g id="a_node9"><a xlink:title=" ">
<polygon fill="white" stroke="black" points="417,-271.5 417,-301.5 542,-301.5 542,-271.5 417,-271.5"/>
<text text-anchor="start" x="425" y="-289.5" font-family="Helvetica,sans-Serif" font-size="10.00">std::vector&lt; SourceTable</text>
<text text-anchor="middle" x="479.5" y="-278.5" font-family="Helvetica,sans-Serif" font-size="10.00">Entry &gt;</text>
</a>
</g>
</g>
<!-- Node12&#45;&gt;Node1 -->
<g id="edge11" class="edge">
<title>Node12&#45;&gt;Node1</title>
<path fill="none" stroke="#9a32cd" stroke-dasharray="5,2" d="M552.41,-286.5C585.8,-286.5 624.48,-286.5 653.72,-286.5"/>
<polygon fill="#9a32cd" stroke="#9a32cd" points="552.24,-283 542.24,-286.5 552.24,-290 552.24,-283"/>
<text text-anchor="middle" x="598" y="-289.5" font-family="Helvetica,sans-Serif" font-size="10.00"> sourceTableData</text>
</g>
<!-- Node13&#45;&gt;Node12 -->
<g id="edge12" class="edge">
<title>Node13&#45;&gt;Node12</title>
<path fill="none" stroke="#9a32cd" stroke-dasharray="5,2" d="M304.81,-291.04C338.7,-290.15 382,-289.02 416.89,-288.11"/>
<polygon fill="#9a32cd" stroke="#9a32cd" points="304.52,-287.55 294.62,-291.31 304.7,-294.54 304.52,-287.55"/>
<text text-anchor="middle" x="358" y="-293.5" font-family="Helvetica,sans-Serif" font-size="10.00"> elements</text>
</g>
</g>
</svg>
        <g id="navigator" transform="translate(0 0)" fill="#404254">
                <rect fill="#f2f5e9" fill-opacity="0.5" stroke="#606060" stroke-width=".5" x="0" y="0" width="60" height="60"/>
                <use id="zoomplus" xlink:href="#zoomPlus" x="17" y="9" onmousedown="handleZoom(evt,'in')"/>
                <use id="zoomminus" xlink:href="#zoomMin" x="42" y="9" onmousedown="handleZoom(evt,'out')"/>
                <use id="reset" xlink:href="#resetDef" x="30" y="36" onmousedown="handleReset()"/>
                <g id="arrowUp" xlink:href="#dirArrow" transform="translate(30 24)" onmousedown="handlePan(0,-1)">
                  <use xlink:href="#rim" fill="#404040">
                        <set attributeName="fill" to="#808080" begin="arrowUp.mouseover" end="arrowUp.mouseout"/>
                  </use>
                  <path fill="none" stroke="white" stroke-width="1.5" d="M0,-3.0v7 M-2.5,-0.5L0,-3.0L2.5,-0.5"/>
                </g>
                <g id="arrowRight" xlink:href="#dirArrow" transform="rotate(90) translate(36 -43)" onmousedown="handlePan(1,0)">
                  <use xlink:href="#rim" fill="#404040">
                        <set attributeName="fill" to="#808080" begin="arrowRight.mouseover" end="arrowRight.mouseout"/>
                  </use>
                  <path fill="none" stroke="white" stroke-width="1.5" d="M0,-3.0v7 M-2.5,-0.5L0,-3.0L2.5,-0.5"/>
                </g>
                <g id="arrowDown" xlink:href="#dirArrow" transform="rotate(180) translate(-30 -48)" onmousedown="handlePan(0,1)">
                  <use xlink:href="#rim" fill="#404040">
                        <set attributeName="fill" to="#808080" begin="arrowDown.mouseover" end="arrowDown.mouseout"/>
                  </use>
                  <path fill="none" stroke="white" stroke-width="1.5" d="M0,-3.0v7 M-2.5,-0.5L0,-3.0L2.5,-0.5"/>
                </g>
                <g id="arrowLeft" xlink:href="#dirArrow" transform="rotate(270) translate(-36 17)" onmousedown="handlePan(-1,0)">
                  <use xlink:href="#rim" fill="#404040">
                        <set attributeName="fill" to="#808080" begin="arrowLeft.mouseover" end="arrowLeft.mouseout"/>
                  </use>
                  <path fill="none" stroke="white" stroke-width="1.5" d="M0,-3.0v7 M-2.5,-0.5L0,-3.0L2.5,-0.5"/>
                </g>
        </g>
        <svg viewBox="0 0 15 15" width="100%" height="30px" preserveAspectRatio="xMaxYMin meet">
         <g id="arrow_out" transform="scale(0.3 0.3)">
          <a xlink:href="structNtripSourceTable__coll__graph_org.svg" target="_base">
           <rect id="button" ry="5" rx="5" y="6" x="6" height="38" width="38"
                fill="#f2f5e9" fill-opacity="0.5" stroke="#606060" stroke-width="1.0"/>
           <path id="arrow"
             d="M 11.500037,31.436501 C 11.940474,20.09759 22.043105,11.32322 32.158766,21.979434 L 37.068811,17.246167 C 37.068811,17.246167 37.088388,32 37.088388,32 L 22.160133,31.978069 C 22.160133,31.978069 26.997745,27.140456 26.997745,27.140456 C 18.528582,18.264221 13.291696,25.230495 11.500037,31.436501 z"
             style="fill:#404040;"/>
          </a>
         </g>
        </svg>
</svg>
