<?xml version="1.0" encoding="UTF-8" standalone="no"?>
<!DOCTYPE svg PUBLIC "-//W3C//DTD SVG 1.1//EN"
 "http://www.w3.org/Graphics/SVG/1.1/DTD/svg11.dtd">
<!-- Generated by graphviz version 2.50.0 (20220203.2022)
 -->
<!-- Title: otl_input Pages: 1 -->
<svg width="543pt" height="244pt"
 viewBox="0.00 0.00 543.00 244.00" xmlns="http://www.w3.org/2000/svg" xmlns:xlink="http://www.w3.org/1999/xlink">
<g id="graph0" class="graph" transform="scale(1 1) rotate(0) translate(4 240)">
<title>otl_input</title>
<polygon fill="white" stroke="transparent" points="-4,4 -4,-240 539,-240 539,4 -4,4"/>
<!-- Node1 -->
<g id="node1" class="node">
<title>Node1</title>
<g id="a_node1"><a xlink:title=" ">
<polygon fill="#bfbfbf" stroke="black" points="482,-95.5 482,-114.5 535,-114.5 535,-95.5 482,-95.5"/>
<text text-anchor="middle" x="508.5" y="-102.5" font-family="Helvetica,sans-Serif" font-size="10.00">otl_input</text>
</a>
</g>
</g>
<!-- Node2 -->
<g id="node2" class="node">
<title>Node2</title>
<g id="a_node2"><a xlink:title=" ">
<polygon fill="white" stroke="black" points="130,-169.5 130,-188.5 189,-188.5 189,-169.5 130,-169.5"/>
<text text-anchor="middle" x="159.5" y="-176.5" font-family="Helvetica,sans-Serif" font-size="10.00">std::string</text>
</a>
</g>
</g>
<!-- Node2&#45;&gt;Node1 -->
<g id="edge1" class="edge">
<title>Node2&#45;&gt;Node1</title>
<path fill="none" stroke="#9a32cd" stroke-dasharray="5,2" d="M198.02,-191.63C258.78,-209.64 380.3,-235.29 464,-185 490.02,-169.37 501.48,-132.18 505.58,-114.57"/>
<polygon fill="#9a32cd" stroke="#9a32cd" points="198.7,-188.18 188.11,-188.6 196.65,-194.87 198.7,-188.18"/>
<text text-anchor="middle" x="328" y="-228" font-family="Helvetica,sans-Serif" font-size="10.00"> green</text>
<text text-anchor="middle" x="328" y="-217" font-family="Helvetica,sans-Serif" font-size="10.00">output_blq_file</text>
</g>
<!-- Node4 -->
<g id="node4" class="node">
<title>Node4</title>
<g id="a_node4"><a xlink:title=" ">
<polygon fill="white" stroke="black" points="268,-146.5 268,-165.5 388,-165.5 388,-146.5 268,-146.5"/>
<text text-anchor="middle" x="328" y="-153.5" font-family="Helvetica,sans-Serif" font-size="10.00">std::vector&lt; std::string &gt;</text>
</a>
</g>
</g>
<!-- Node2&#45;&gt;Node4 -->
<g id="edge4" class="edge">
<title>Node2&#45;&gt;Node4</title>
<path fill="none" stroke="#9a32cd" stroke-dasharray="5,2" d="M199.27,-173.64C219.62,-170.83 244.99,-167.33 267.75,-164.18"/>
<polygon fill="#9a32cd" stroke="#9a32cd" points="198.55,-170.21 189.12,-175.05 199.51,-177.14 198.55,-170.21"/>
<text text-anchor="middle" x="228.5" y="-175" font-family="Helvetica,sans-Serif" font-size="10.00"> elements</text>
</g>
<!-- Node3 -->
<g id="node3" class="node">
<title>Node3</title>
<g id="a_node3"><a xlink:title=" ">
<polygon fill="white" stroke="black" points="0,-164 0,-194 93,-194 93,-164 0,-164"/>
<text text-anchor="start" x="8" y="-182" font-family="Helvetica,sans-Serif" font-size="10.00">std::basic_string&lt;</text>
<text text-anchor="middle" x="46.5" y="-171" font-family="Helvetica,sans-Serif" font-size="10.00"> Char &gt;</text>
</a>
</g>
</g>
<!-- Node3&#45;&gt;Node2 -->
<g id="edge2" class="edge">
<title>Node3&#45;&gt;Node2</title>
<path fill="none" stroke="midnightblue" d="M103.58,-179C112.73,-179 121.86,-179 129.97,-179"/>
<polygon fill="midnightblue" stroke="midnightblue" points="103.29,-175.5 93.29,-179 103.29,-182.5 103.29,-175.5"/>
</g>
<!-- Node4&#45;&gt;Node1 -->
<g id="edge3" class="edge">
<title>Node4&#45;&gt;Node1</title>
<path fill="none" stroke="#9a32cd" stroke-dasharray="5,2" d="M398.26,-149.66C419.82,-146.25 443.34,-141.02 464,-133 475.55,-128.51 487.29,-120.73 495.66,-114.5"/>
<polygon fill="#9a32cd" stroke="#9a32cd" points="397.57,-146.22 388.19,-151.14 398.59,-153.15 397.57,-146.22"/>
<text text-anchor="middle" x="435" y="-173" font-family="Helvetica,sans-Serif" font-size="10.00"> code</text>
<text text-anchor="middle" x="435" y="-162" font-family="Helvetica,sans-Serif" font-size="10.00">tide_file</text>
<text text-anchor="middle" x="435" y="-151" font-family="Helvetica,sans-Serif" font-size="10.00">wave_names</text>
</g>
<!-- Node5 -->
<g id="node5" class="node">
<title>Node5</title>
<g id="a_node5"><a xlink:title=" ">
<polygon fill="white" stroke="black" points="270.5,-40 270.5,-70 385.5,-70 385.5,-40 270.5,-40"/>
<text text-anchor="start" x="278.5" y="-58" font-family="Helvetica,sans-Serif" font-size="10.00">std::vector&lt; std::vector</text>
<text text-anchor="middle" x="328" y="-47" font-family="Helvetica,sans-Serif" font-size="10.00">&lt; float &gt; &gt;</text>
</a>
</g>
</g>
<!-- Node5&#45;&gt;Node1 -->
<g id="edge5" class="edge">
<title>Node5&#45;&gt;Node1</title>
<path fill="none" stroke="#9a32cd" stroke-dasharray="5,2" d="M395.9,-44.82C418.4,-44.14 443.09,-46.51 464,-56 481.82,-64.09 495.33,-83.43 502.28,-95.25"/>
<polygon fill="#9a32cd" stroke="#9a32cd" points="395.54,-41.34 385.74,-45.34 395.9,-48.33 395.54,-41.34"/>
<text text-anchor="middle" x="435" y="-125" font-family="Helvetica,sans-Serif" font-size="10.00"> dispEW_in</text>
<text text-anchor="middle" x="435" y="-114" font-family="Helvetica,sans-Serif" font-size="10.00">dispEW_out</text>
<text text-anchor="middle" x="435" y="-103" font-family="Helvetica,sans-Serif" font-size="10.00">dispNS_in</text>
<text text-anchor="middle" x="435" y="-92" font-family="Helvetica,sans-Serif" font-size="10.00">dispNS_out</text>
<text text-anchor="middle" x="435" y="-81" font-family="Helvetica,sans-Serif" font-size="10.00">dispZ_in</text>
<text text-anchor="middle" x="435" y="-70" font-family="Helvetica,sans-Serif" font-size="10.00">dispZ_out</text>
<text text-anchor="middle" x="435" y="-59" font-family="Helvetica,sans-Serif" font-size="10.00">xyz_coords</text>
</g>
<!-- Node6 -->
<g id="node6" class="node">
<title>Node6</title>
<g id="a_node6"><a xlink:title=" ">
<polygon fill="white" stroke="black" points="280,-0.5 280,-19.5 376,-19.5 376,-0.5 280,-0.5"/>
<text text-anchor="middle" x="328" y="-7.5" font-family="Helvetica,sans-Serif" font-size="10.00">std::vector&lt; float &gt;</text>
</a>
</g>
</g>
<!-- Node6&#45;&gt;Node1 -->
<g id="edge6" class="edge">
<title>Node6&#45;&gt;Node1</title>
<path fill="none" stroke="#9a32cd" stroke-dasharray="5,2" d="M386.11,-1.62C411.84,-0.75 441.43,-4.07 464,-19 491.07,-36.91 502.09,-77.06 505.84,-95.46"/>
<polygon fill="#9a32cd" stroke="#9a32cd" points="385.88,1.87 376.09,-2.17 386.27,-5.12 385.88,1.87"/>
<text text-anchor="middle" x="435" y="-33" font-family="Helvetica,sans-Serif" font-size="10.00"> lat</text>
<text text-anchor="middle" x="435" y="-22" font-family="Helvetica,sans-Serif" font-size="10.00">lon</text>
</g>
</g>
</svg>
