<?xml version="1.0" encoding="UTF-8" standalone="no"?>
<!DOCTYPE svg PUBLIC "-//W3C//DTD SVG 1.1//EN"
 "http://www.w3.org/Graphics/SVG/1.1/DTD/svg11.dtd">
<!-- Generated by graphviz version 2.50.0 (20220203.2022)
 -->
<!-- Title: flt_t Pages: 1 -->
<svg width="317pt" height="187pt"
 viewBox="0.00 0.00 317.00 187.00" xmlns="http://www.w3.org/2000/svg" xmlns:xlink="http://www.w3.org/1999/xlink">
<g id="graph0" class="graph" transform="scale(1 1) rotate(0) translate(4 183)">
<title>flt_t</title>
<polygon fill="white" stroke="transparent" points="-4,4 -4,-183 313,-183 313,4 -4,4"/>
<!-- Node1 -->
<g id="node1" class="node">
<title>Node1</title>
<g id="a_node1"><a xlink:title="Cycle slip repair filter.">
<polygon fill="#bfbfbf" stroke="black" points="277,-93.5 277,-112.5 309,-112.5 309,-93.5 277,-93.5"/>
<text text-anchor="middle" x="293" y="-100.5" font-family="Helvetica,sans-Serif" font-size="10.00">flt_t</text>
</a>
</g>
</g>
<!-- Node2 -->
<g id="node2" class="node">
<title>Node2</title>
<g id="a_node2"><a xlink:href="structlc__t.html" target="_top" xlink:title=" ">
<polygon fill="white" stroke="black" points="180,-93.5 180,-112.5 212,-112.5 212,-93.5 180,-93.5"/>
<text text-anchor="middle" x="196" y="-100.5" font-family="Helvetica,sans-Serif" font-size="10.00">lc_t</text>
</a>
</g>
</g>
<!-- Node2&#45;&gt;Node1 -->
<g id="edge1" class="edge">
<title>Node2&#45;&gt;Node1</title>
<path fill="none" stroke="#9a32cd" stroke-dasharray="5,2" d="M222.29,-103C239.65,-103 262.11,-103 276.77,-103"/>
<polygon fill="#9a32cd" stroke="#9a32cd" points="222.26,-99.5 212.26,-103 222.26,-106.5 222.26,-99.5"/>
<text text-anchor="middle" x="244.5" y="-106" font-family="Helvetica,sans-Serif" font-size="10.00"> lc_pre</text>
</g>
<!-- Node3 -->
<g id="node3" class="node">
<title>Node3</title>
<g id="a_node3"><a xlink:href="structGTime.html" target="_top" xlink:title="Time structure used throughout this software.">
<polygon fill="white" stroke="black" points="34.5,-159.5 34.5,-178.5 80.5,-178.5 80.5,-159.5 34.5,-159.5"/>
<text text-anchor="middle" x="57.5" y="-166.5" font-family="Helvetica,sans-Serif" font-size="10.00">GTime</text>
</a>
</g>
</g>
<!-- Node3&#45;&gt;Node2 -->
<g id="edge2" class="edge">
<title>Node3&#45;&gt;Node2</title>
<path fill="none" stroke="#9a32cd" stroke-dasharray="5,2" d="M90.38,-160.33C111.58,-153.77 139.55,-143.58 162,-130 170.23,-125.02 178.62,-118.13 184.87,-112.56"/>
<polygon fill="#9a32cd" stroke="#9a32cd" points="89.15,-157.04 80.57,-163.25 91.15,-163.75 89.15,-157.04"/>
<text text-anchor="middle" x="147.5" y="-146" font-family="Helvetica,sans-Serif" font-size="10.00"> time</text>
</g>
<!-- Node4 -->
<g id="node4" class="node">
<title>Node4</title>
<g id="a_node4"><a xlink:href="structSatSys.html" target="_top" xlink:title="Object holding satellite id, and providing related functions.">
<polygon fill="white" stroke="red" points="33.5,-121.5 33.5,-140.5 81.5,-140.5 81.5,-121.5 33.5,-121.5"/>
<text text-anchor="middle" x="57.5" y="-128.5" font-family="Helvetica,sans-Serif" font-size="10.00">SatSys</text>
</a>
</g>
</g>
<!-- Node4&#45;&gt;Node2 -->
<g id="edge3" class="edge">
<title>Node4&#45;&gt;Node2</title>
<path fill="none" stroke="#9a32cd" stroke-dasharray="5,2" d="M91.81,-124.17C119.85,-118.42 158.65,-110.46 179.79,-106.12"/>
<polygon fill="#9a32cd" stroke="#9a32cd" points="90.75,-120.81 81.66,-126.25 92.15,-127.67 90.75,-120.81"/>
<text text-anchor="middle" x="147.5" y="-118" font-family="Helvetica,sans-Serif" font-size="10.00"> Sat</text>
</g>
<!-- Node9 -->
<g id="node5" class="node">
<title>Node9</title>
<g id="a_node5"><a xlink:title=" ">
<polygon fill="white" stroke="black" points="6,-60 6,-90 109,-90 109,-60 6,-60"/>
<text text-anchor="start" x="14" y="-78" font-family="Helvetica,sans-Serif" font-size="10.00">std::map&lt; E_FType,</text>
<text text-anchor="middle" x="57.5" y="-67" font-family="Helvetica,sans-Serif" font-size="10.00"> double &gt;</text>
</a>
</g>
</g>
<!-- Node9&#45;&gt;Node2 -->
<g id="edge4" class="edge">
<title>Node9&#45;&gt;Node2</title>
<path fill="none" stroke="#9a32cd" stroke-dasharray="5,2" d="M119.38,-66.11C133.73,-66.1 148.71,-67.86 162,-73 172.54,-77.08 181.79,-86.26 187.8,-93.4"/>
<polygon fill="#9a32cd" stroke="#9a32cd" points="118.97,-62.62 109.07,-66.41 119.17,-69.62 118.97,-62.62"/>
<text text-anchor="middle" x="147.5" y="-98" font-family="Helvetica,sans-Serif" font-size="10.00"> L_m</text>
<text text-anchor="middle" x="147.5" y="-87" font-family="Helvetica,sans-Serif" font-size="10.00">P</text>
<text text-anchor="middle" x="147.5" y="-76" font-family="Helvetica,sans-Serif" font-size="10.00">mp</text>
</g>
<!-- Node10 -->
<g id="node6" class="node">
<title>Node10</title>
<g id="a_node6"><a xlink:title=" ">
<polygon fill="white" stroke="red" points="0,-0.5 0,-41.5 115,-41.5 115,-0.5 0,-0.5"/>
<text text-anchor="start" x="8" y="-29.5" font-family="Helvetica,sans-Serif" font-size="10.00">std::map&lt; std::pair</text>
<text text-anchor="start" x="8" y="-18.5" font-family="Helvetica,sans-Serif" font-size="10.00">&lt; E_FType, E_FType &gt;</text>
<text text-anchor="middle" x="57.5" y="-7.5" font-family="Helvetica,sans-Serif" font-size="10.00">, S_LC &gt;</text>
</a>
</g>
</g>
<!-- Node10&#45;&gt;Node2 -->
<g id="edge5" class="edge">
<title>Node10&#45;&gt;Node2</title>
<path fill="none" stroke="#9a32cd" stroke-dasharray="5,2" d="M124.68,-32.47C137.88,-36.8 151.04,-42.78 162,-51 176.71,-62.04 186.55,-81.72 191.42,-93.44"/>
<polygon fill="#9a32cd" stroke="#9a32cd" points="125.68,-29.11 115.09,-29.59 123.66,-35.82 125.68,-29.11"/>
<text text-anchor="middle" x="147.5" y="-54" font-family="Helvetica,sans-Serif" font-size="10.00"> lcMap</text>
</g>
</g>
</svg>
