<?xml version="1.0" encoding="UTF-8" standalone="no"?>
<!DOCTYPE svg PUBLIC "-//W3C//DTD SVG 1.1//EN"
 "http://www.w3.org/Graphics/SVG/1.1/DTD/svg11.dtd">
<!-- Generated by graphviz version 2.50.0 (20220203.2022)
 -->
<!-- Title: KFMeas Pages: 1 -->
<svg width="476pt" height="195pt"
 viewBox="0.00 0.00 476.00 195.00" xmlns="http://www.w3.org/2000/svg" xmlns:xlink="http://www.w3.org/1999/xlink">
<g id="graph0" class="graph" transform="scale(1 1) rotate(0) translate(4 191)">
<title>KFMeas</title>
<polygon fill="white" stroke="transparent" points="-4,4 -4,-191 472,-191 472,4 -4,4"/>
<!-- Node1 -->
<g id="node1" class="node">
<title>Node1</title>
<g id="a_node1"><a xlink:title="Object to hold measurements, design matrices, and residuals for multiple observations.">
<polygon fill="#bfbfbf" stroke="black" points="140.5,-0.5 140.5,-19.5 193.5,-19.5 193.5,-0.5 140.5,-0.5"/>
<text text-anchor="middle" x="167" y="-7.5" font-family="Helvetica,sans-Serif" font-size="10.00">KFMeas</text>
</a>
</g>
</g>
<!-- Node2 -->
<g id="node2" class="node">
<title>Node2</title>
<g id="a_node2"><a xlink:href="structGTime.html" target="_top" xlink:title="Time structure used throughout this software.">
<polygon fill="white" stroke="black" points="0,-95 0,-114 46,-114 46,-95 0,-95"/>
<text text-anchor="middle" x="23" y="-102" font-family="Helvetica,sans-Serif" font-size="10.00">GTime</text>
</a>
</g>
</g>
<!-- Node2&#45;&gt;Node1 -->
<g id="edge1" class="edge">
<title>Node2&#45;&gt;Node1</title>
<path fill="none" stroke="#9a32cd" stroke-dasharray="5,2" d="M37.39,-86.96C50.81,-72.4 72,-51.48 94,-38 108.29,-29.25 125.86,-22.64 140.19,-18.15"/>
<polygon fill="#9a32cd" stroke="#9a32cd" points="34.53,-84.92 30.45,-94.7 39.73,-89.6 34.53,-84.92"/>
<text text-anchor="middle" x="105" y="-52" font-family="Helvetica,sans-Serif" font-size="10.00"> time</text>
</g>
<!-- Node3 -->
<g id="node3" class="node">
<title>Node3</title>
<g id="a_node3"><a xlink:title=" ">
<polygon fill="white" stroke="black" points="64.5,-95 64.5,-114 121.5,-114 121.5,-95 64.5,-95"/>
<text text-anchor="middle" x="93" y="-102" font-family="Helvetica,sans-Serif" font-size="10.00">VectorXd</text>
</a>
</g>
</g>
<!-- Node3&#45;&gt;Node1 -->
<g id="edge2" class="edge">
<title>Node3&#45;&gt;Node1</title>
<path fill="none" stroke="#9a32cd" stroke-dasharray="5,2" d="M106.1,-87.12C121.92,-67.35 147.92,-34.85 160.19,-19.52"/>
<polygon fill="#9a32cd" stroke="#9a32cd" points="103.34,-84.97 99.83,-94.96 108.81,-89.34 103.34,-84.97"/>
<text text-anchor="middle" x="151" y="-63" font-family="Helvetica,sans-Serif" font-size="10.00"> V</text>
<text text-anchor="middle" x="151" y="-52" font-family="Helvetica,sans-Serif" font-size="10.00">W</text>
<text text-anchor="middle" x="151" y="-41" font-family="Helvetica,sans-Serif" font-size="10.00">Y</text>
</g>
<!-- Node4 -->
<g id="node4" class="node">
<title>Node4</title>
<g id="a_node4"><a xlink:title=" ">
<polygon fill="white" stroke="black" points="139.5,-95 139.5,-114 194.5,-114 194.5,-95 139.5,-95"/>
<text text-anchor="middle" x="167" y="-102" font-family="Helvetica,sans-Serif" font-size="10.00">MatrixXd</text>
</a>
</g>
</g>
<!-- Node4&#45;&gt;Node1 -->
<g id="edge3" class="edge">
<title>Node4&#45;&gt;Node1</title>
<path fill="none" stroke="#9a32cd" stroke-dasharray="5,2" d="M167,-84.94C167,-65.04 167,-34.3 167,-19.52"/>
<polygon fill="#9a32cd" stroke="#9a32cd" points="163.5,-84.96 167,-94.96 170.5,-84.96 163.5,-84.96"/>
<text text-anchor="middle" x="172" y="-57.5" font-family="Helvetica,sans-Serif" font-size="10.00"> A</text>
<text text-anchor="middle" x="172" y="-46.5" font-family="Helvetica,sans-Serif" font-size="10.00">R</text>
</g>
<!-- Node5 -->
<g id="node5" class="node">
<title>Node5</title>
<g id="a_node5"><a xlink:title=" ">
<polygon fill="white" stroke="black" points="212.5,-95 212.5,-114 325.5,-114 325.5,-95 212.5,-95"/>
<text text-anchor="middle" x="269" y="-102" font-family="Helvetica,sans-Serif" font-size="10.00">std::vector&lt; ObsKey &gt;</text>
</a>
</g>
</g>
<!-- Node5&#45;&gt;Node1 -->
<g id="edge4" class="edge">
<title>Node5&#45;&gt;Node1</title>
<path fill="none" stroke="#9a32cd" stroke-dasharray="5,2" d="M252.1,-88.17C230.43,-68.52 193.6,-35.13 176.39,-19.52"/>
<polygon fill="#9a32cd" stroke="#9a32cd" points="249.83,-90.84 259.59,-94.96 254.53,-85.65 249.83,-90.84"/>
<text text-anchor="middle" x="254" y="-52" font-family="Helvetica,sans-Serif" font-size="10.00"> obsKeys</text>
</g>
<!-- Node6 -->
<g id="node6" class="node">
<title>Node6</title>
<g id="a_node6"><a xlink:href="structObsKey.html" target="_top" xlink:title=" ">
<polygon fill="white" stroke="red" points="243.5,-167.5 243.5,-186.5 294.5,-186.5 294.5,-167.5 243.5,-167.5"/>
<text text-anchor="middle" x="269" y="-174.5" font-family="Helvetica,sans-Serif" font-size="10.00">ObsKey</text>
</a>
</g>
</g>
<!-- Node6&#45;&gt;Node5 -->
<g id="edge5" class="edge">
<title>Node6&#45;&gt;Node5</title>
<path fill="none" stroke="#9a32cd" stroke-dasharray="5,2" d="M269,-156.94C269,-143.03 269,-124.82 269,-114.22"/>
<polygon fill="#9a32cd" stroke="#9a32cd" points="265.5,-157.36 269,-167.36 272.5,-157.36 265.5,-157.36"/>
<text text-anchor="middle" x="290.5" y="-141" font-family="Helvetica,sans-Serif" font-size="10.00"> elements</text>
</g>
<!-- Node12 -->
<g id="node7" class="node">
<title>Node12</title>
<g id="a_node7"><a xlink:title=" ">
<polygon fill="white" stroke="black" points="344,-89.5 344,-119.5 468,-119.5 468,-89.5 344,-89.5"/>
<text text-anchor="start" x="352" y="-107.5" font-family="Helvetica,sans-Serif" font-size="10.00">std::vector&lt; map&lt; string,</text>
<text text-anchor="middle" x="406" y="-96.5" font-family="Helvetica,sans-Serif" font-size="10.00"> void * &gt; &gt;</text>
</a>
</g>
</g>
<!-- Node12&#45;&gt;Node1 -->
<g id="edge6" class="edge">
<title>Node12&#45;&gt;Node1</title>
<path fill="none" stroke="#9a32cd" stroke-dasharray="5,2" d="M373.9,-84.4C348.57,-69.99 311.97,-50.62 278,-38 249.93,-27.57 216.35,-20.05 193.53,-15.64"/>
<polygon fill="#9a32cd" stroke="#9a32cd" points="372.28,-87.51 382.7,-89.46 375.77,-81.44 372.28,-87.51"/>
<text text-anchor="middle" x="383.5" y="-52" font-family="Helvetica,sans-Serif" font-size="10.00"> metaDataMaps</text>
</g>
<!-- Node13 -->
<g id="node8" class="node">
<title>Node13</title>
<g id="a_node8"><a xlink:title=" ">
<polygon fill="white" stroke="red" points="344.5,-167.5 344.5,-186.5 467.5,-186.5 467.5,-167.5 344.5,-167.5"/>
<text text-anchor="middle" x="406" y="-174.5" font-family="Helvetica,sans-Serif" font-size="10.00">std::map&lt; string, void * &gt;</text>
</a>
</g>
</g>
<!-- Node13&#45;&gt;Node12 -->
<g id="edge7" class="edge">
<title>Node13&#45;&gt;Node12</title>
<path fill="none" stroke="#9a32cd" stroke-dasharray="5,2" d="M406,-157.24C406,-145.41 406,-130.38 406,-119.58"/>
<polygon fill="#9a32cd" stroke="#9a32cd" points="402.5,-157.36 406,-167.36 409.5,-157.36 402.5,-157.36"/>
<text text-anchor="middle" x="427.5" y="-141" font-family="Helvetica,sans-Serif" font-size="10.00"> elements</text>
</g>
</g>
</svg>
