<?xml version="1.0" encoding="UTF-8" standalone="no"?>
<!DOCTYPE svg PUBLIC "-//W3C//DTD SVG 1.1//EN"
 "http://www.w3.org/Graphics/SVG/1.1/DTD/svg11.dtd">
<!-- Generated by graphviz version 2.50.0 (20220203.2022)
 -->
<!-- Title: OutputOptions Pages: 1 -->
<svg width="182pt" height="273pt"
 viewBox="0.00 0.00 181.50 273.00" xmlns="http://www.w3.org/2000/svg" xmlns:xlink="http://www.w3.org/1999/xlink">
<g id="graph0" class="graph" transform="scale(1 1) rotate(0) translate(4 269)">
<title>OutputOptions</title>
<polygon fill="white" stroke="transparent" points="-4,4 -4,-269 177.5,-269 177.5,4 -4,4"/>
<!-- Node1 -->
<g id="node1" class="node">
<title>Node1</title>
<g id="a_node1"><a xlink:title="Enabling and setting destiations of program outputs.">
<polygon fill="#bfbfbf" stroke="black" points="6.5,-0.5 6.5,-19.5 86.5,-19.5 86.5,-0.5 6.5,-0.5"/>
<text text-anchor="middle" x="46.5" y="-7.5" font-family="Helvetica,sans-Serif" font-size="10.00">OutputOptions</text>
</a>
</g>
</g>
<!-- Node2 -->
<g id="node2" class="node">
<title>Node2</title>
<g id="a_node2"><a xlink:title=" ">
<polygon fill="white" stroke="black" points="17,-177.5 17,-196.5 76,-196.5 76,-177.5 17,-177.5"/>
<text text-anchor="middle" x="46.5" y="-184.5" font-family="Helvetica,sans-Serif" font-size="10.00">std::string</text>
</a>
</g>
</g>
<!-- Node2&#45;&gt;Node1 -->
<g id="edge1" class="edge">
<title>Node2&#45;&gt;Node1</title>
<path fill="none" stroke="#9a32cd" stroke-dasharray="5,2" d="M46.5,-166.95C46.5,-129.3 46.5,-46.65 46.5,-19.69"/>
<polygon fill="#9a32cd" stroke="#9a32cd" points="43,-167.08 46.5,-177.08 50,-167.08 43,-167.08"/>
<text text-anchor="middle" x="110" y="-151" font-family="Helvetica,sans-Serif" font-size="10.00"> bias_sinex_directory</text>
<text text-anchor="middle" x="110" y="-140" font-family="Helvetica,sans-Serif" font-size="10.00">bias_sinex_filename</text>
<text text-anchor="middle" x="110" y="-129" font-family="Helvetica,sans-Serif" font-size="10.00">clocks_directory</text>
<text text-anchor="middle" x="110" y="-118" font-family="Helvetica,sans-Serif" font-size="10.00">clocks_filename</text>
<text text-anchor="middle" x="110" y="-107" font-family="Helvetica,sans-Serif" font-size="10.00">decoded_rtcm_json_directory</text>
<text text-anchor="middle" x="110" y="-96" font-family="Helvetica,sans-Serif" font-size="10.00">decoded_rtcm_json_filename</text>
<text text-anchor="middle" x="110" y="-85" font-family="Helvetica,sans-Serif" font-size="10.00">encoded_rtcm_json_directory</text>
<text text-anchor="middle" x="110" y="-74" font-family="Helvetica,sans-Serif" font-size="10.00">encoded_rtcm_json_filename</text>
<text text-anchor="middle" x="110" y="-63" font-family="Helvetica,sans-Serif" font-size="10.00">erp_directory</text>
<text text-anchor="middle" x="110" y="-52" font-family="Helvetica,sans-Serif" font-size="10.00">erp_filename</text>
<text text-anchor="middle" x="110" y="-41" font-family="Helvetica,sans-Serif" font-size="10.00">...</text>
</g>
<!-- Node3 -->
<g id="node3" class="node">
<title>Node3</title>
<g id="a_node3"><a xlink:title=" ">
<polygon fill="white" stroke="black" points="0,-234.5 0,-264.5 93,-264.5 93,-234.5 0,-234.5"/>
<text text-anchor="start" x="8" y="-252.5" font-family="Helvetica,sans-Serif" font-size="10.00">std::basic_string&lt;</text>
<text text-anchor="middle" x="46.5" y="-241.5" font-family="Helvetica,sans-Serif" font-size="10.00"> Char &gt;</text>
</a>
</g>
</g>
<!-- Node3&#45;&gt;Node2 -->
<g id="edge2" class="edge">
<title>Node3&#45;&gt;Node2</title>
<path fill="none" stroke="midnightblue" d="M46.5,-224.35C46.5,-214.51 46.5,-203.78 46.5,-196.54"/>
<polygon fill="midnightblue" stroke="midnightblue" points="43,-224.47 46.5,-234.47 50,-224.47 43,-224.47"/>
</g>
</g>
</svg>
