<?xml version="1.0" encoding="UTF-8" standalone="no"?>
<!DOCTYPE svg PUBLIC "-//W3C//DTD SVG 1.1//EN"
 "http://www.w3.org/Graphics/SVG/1.1/DTD/svg11.dtd">
<!-- Generated by graphviz version 2.50.0 (20220203.2022)
 -->
<!-- Title: FileRinexStream::FileRinexStream Pages: 1 -->
<svg width="485pt" height="85pt"
 viewBox="0.00 0.00 485.00 85.00" xmlns="http://www.w3.org/2000/svg" xmlns:xlink="http://www.w3.org/1999/xlink">
<g id="graph0" class="graph" transform="scale(1 1) rotate(0) translate(4 81)">
<title>FileRinexStream::FileRinexStream</title>
<polygon fill="white" stroke="transparent" points="-4,4 -4,-81 481,-81 481,4 -4,4"/>
<!-- Node1 -->
<g id="node1" class="node">
<title>Node1</title>
<g id="a_node1"><a xlink:title=" ">
<polygon fill="#bfbfbf" stroke="black" points="0,-14 0,-44 132,-44 132,-14 0,-14"/>
<text text-anchor="start" x="8" y="-32" font-family="Helvetica,sans-Serif" font-size="10.00">FileRinexStream::FileRinex</text>
<text text-anchor="middle" x="66" y="-21" font-family="Helvetica,sans-Serif" font-size="10.00">Stream</text>
</a>
</g>
</g>
<!-- Node2 -->
<g id="node2" class="node">
<title>Node2</title>
<g id="a_node2"><a xlink:href="structFileRinexStream.html#ae82068e3112fdad8f9846855285e5eb6" target="_top" xlink:title=" ">
<polygon fill="white" stroke="black" points="172.5,-38.5 172.5,-57.5 285.5,-57.5 285.5,-38.5 172.5,-38.5"/>
<text text-anchor="middle" x="229" y="-45.5" font-family="Helvetica,sans-Serif" font-size="10.00">FileRinexStream::open</text>
</a>
</g>
</g>
<!-- Node1&#45;&gt;Node2 -->
<g id="edge1" class="edge">
<title>Node1&#45;&gt;Node2</title>
<path fill="none" stroke="midnightblue" d="M132.02,-36.67C141.93,-37.84 152.17,-39.05 162.1,-40.22"/>
<polygon fill="midnightblue" stroke="midnightblue" points="161.96,-43.73 172.3,-41.43 162.78,-36.78 161.96,-43.73"/>
</g>
<!-- Node40 -->
<g id="node5" class="node">
<title>Node40</title>
<g id="a_node5"><a xlink:href="structACSFileStream.html#a1554e80ed3bd78311b0b6a1764c054bb" target="_top" xlink:title=" ">
<polygon fill="white" stroke="black" points="168,-0.5 168,-19.5 290,-19.5 290,-0.5 168,-0.5"/>
<text text-anchor="middle" x="229" y="-7.5" font-family="Helvetica,sans-Serif" font-size="10.00">ACSFileStream::setPath</text>
</a>
</g>
</g>
<!-- Node1&#45;&gt;Node40 -->
<g id="edge4" class="edge">
<title>Node1&#45;&gt;Node40</title>
<path fill="none" stroke="midnightblue" d="M132.02,-21.33C140.55,-20.32 149.32,-19.28 157.93,-18.27"/>
<polygon fill="midnightblue" stroke="midnightblue" points="158.42,-21.74 167.94,-17.09 157.6,-14.78 158.42,-21.74"/>
</g>
<!-- Node3 -->
<g id="node3" class="node">
<title>Node3</title>
<g id="a_node3"><a xlink:href="structACSFileStream.html#a58b8f25aa5bcdb840d16acf3f2d8ff8c" target="_top" xlink:title=" ">
<polygon fill="white" stroke="black" points="339,-57.5 339,-76.5 464,-76.5 464,-57.5 339,-57.5"/>
<text text-anchor="middle" x="401.5" y="-64.5" font-family="Helvetica,sans-Serif" font-size="10.00">ACSFileStream::openFile</text>
</a>
</g>
</g>
<!-- Node2&#45;&gt;Node3 -->
<g id="edge2" class="edge">
<title>Node2&#45;&gt;Node3</title>
<path fill="none" stroke="midnightblue" d="M285.83,-54.22C299.5,-55.75 314.33,-57.4 328.64,-58.99"/>
<polygon fill="midnightblue" stroke="midnightblue" points="328.62,-62.51 338.95,-60.14 329.4,-55.55 328.62,-62.51"/>
</g>
<!-- Node4 -->
<g id="node4" class="node">
<title>Node4</title>
<g id="a_node4"><a xlink:href="structRinexStream.html#addb10fe5d803fa72db2c1b4c68965618" target="_top" xlink:title=" ">
<polygon fill="white" stroke="red" points="326,-19.5 326,-38.5 477,-38.5 477,-19.5 326,-19.5"/>
<text text-anchor="middle" x="401.5" y="-26.5" font-family="Helvetica,sans-Serif" font-size="10.00">RinexStream::readRinexHeader</text>
</a>
</g>
</g>
<!-- Node2&#45;&gt;Node4 -->
<g id="edge3" class="edge">
<title>Node2&#45;&gt;Node4</title>
<path fill="none" stroke="midnightblue" d="M285.83,-41.78C295.44,-40.71 305.63,-39.57 315.8,-38.44"/>
<polygon fill="midnightblue" stroke="midnightblue" points="316.4,-41.89 325.95,-37.31 315.62,-34.94 316.4,-41.89"/>
</g>
</g>
</svg>
