<?xml version="1.0" encoding="UTF-8" standalone="no"?>
<!DOCTYPE svg PUBLIC "-//W3C//DTD SVG 1.1//EN"
 "http://www.w3.org/Graphics/SVG/1.1/DTD/svg11.dtd">
<!-- Generated by graphviz version 2.50.0 (20220203.2022)
 -->
<!-- Title: OrbitPropagator::operator() Pages: 1 -->
<svg width="415pt" height="165pt"
 viewBox="0.00 0.00 415.00 165.00" xmlns="http://www.w3.org/2000/svg" xmlns:xlink="http://www.w3.org/1999/xlink">
<g id="graph0" class="graph" transform="scale(1 1) rotate(0) translate(4 161)">
<title>OrbitPropagator::operator()</title>
<polygon fill="white" stroke="transparent" points="-4,4 -4,-161 411,-161 411,4 -4,4"/>
<!-- Node1 -->
<g id="node1" class="node">
<title>Node1</title>
<g id="a_node1"><a xlink:title="Propagate orbits by ODE functor.">
<polygon fill="#bfbfbf" stroke="black" points="0,-68.5 0,-87.5 131,-87.5 131,-68.5 0,-68.5"/>
<text text-anchor="middle" x="65.5" y="-75.5" font-family="Helvetica,sans-Serif" font-size="10.00">OrbitPropagator::operator()</text>
</a>
</g>
</g>
<!-- Node2 -->
<g id="node2" class="node">
<title>Node2</title>
<g id="a_node2"><a xlink:href="gravity_8cpp.html#ae40c6333c265230eefe0bdbd9286b203" target="_top" xlink:title=" ">
<polygon fill="white" stroke="black" points="170.5,-137.5 170.5,-156.5 287.5,-156.5 287.5,-137.5 170.5,-137.5"/>
<text text-anchor="middle" x="229" y="-144.5" font-family="Helvetica,sans-Serif" font-size="10.00">accelPointMassGravity</text>
</a>
</g>
</g>
<!-- Node1&#45;&gt;Node2 -->
<g id="edge1" class="edge">
<title>Node1&#45;&gt;Node2</title>
<path fill="none" stroke="midnightblue" d="M83.54,-87.53C103.23,-98.29 136.8,-115.87 167,-128 172.54,-130.22 178.44,-132.35 184.32,-134.33"/>
<polygon fill="midnightblue" stroke="midnightblue" points="183.51,-137.74 194.1,-137.5 185.67,-131.09 183.51,-137.74"/>
</g>
<!-- Node3 -->
<g id="node3" class="node">
<title>Node3</title>
<g id="a_node3"><a xlink:href="structSolarRadPressure.html#abaf459e6b40c61326b55af00e9452a95" target="_top" xlink:title="Satellite position vector, unit: m, m/s.">
<polygon fill="white" stroke="black" points="167,-88 167,-118 291,-118 291,-88 167,-88"/>
<text text-anchor="start" x="175" y="-106" font-family="Helvetica,sans-Serif" font-size="10.00">SolarRadPressure::direct</text>
<text text-anchor="middle" x="229" y="-95" font-family="Helvetica,sans-Serif" font-size="10.00">SolarRadiationAcc</text>
</a>
</g>
</g>
<!-- Node1&#45;&gt;Node3 -->
<g id="edge2" class="edge">
<title>Node1&#45;&gt;Node3</title>
<path fill="none" stroke="midnightblue" d="M128.02,-87.52C137.48,-88.99 147.31,-90.51 156.96,-92"/>
<polygon fill="midnightblue" stroke="midnightblue" points="156.5,-95.47 166.92,-93.55 157.57,-88.56 156.5,-95.47"/>
</g>
<!-- Node15 -->
<g id="node7" class="node">
<title>Node15</title>
<g id="a_node7"><a xlink:href="structGravityModel.html#a9da15d57ccd8d81f3da013bc5cf53734" target="_top" xlink:title="Inertial velocity of satellite (m/s)">
<polygon fill="white" stroke="black" points="172,-39 172,-69 286,-69 286,-39 172,-39"/>
<text text-anchor="start" x="180" y="-57" font-family="Helvetica,sans-Serif" font-size="10.00">GravityModel::relativity</text>
<text text-anchor="middle" x="229" y="-46" font-family="Helvetica,sans-Serif" font-size="10.00">EffectsAcc</text>
</a>
</g>
</g>
<!-- Node1&#45;&gt;Node15 -->
<g id="edge7" class="edge">
<title>Node1&#45;&gt;Node15</title>
<path fill="none" stroke="midnightblue" d="M130.79,-68.45C140.95,-66.94 151.48,-65.37 161.68,-63.86"/>
<polygon fill="midnightblue" stroke="midnightblue" points="162.38,-67.29 171.75,-62.36 161.35,-60.37 162.38,-67.29"/>
</g>
<!-- Node16 -->
<g id="node8" class="node">
<title>Node16</title>
<g id="a_node8"><a xlink:href="structIERS.html#a5d7e8d9edc982b387583d37e96d331c0" target="_top" xlink:title=" ">
<polygon fill="white" stroke="black" points="188.5,-0.5 188.5,-19.5 269.5,-19.5 269.5,-0.5 188.5,-0.5"/>
<text text-anchor="middle" x="229" y="-7.5" font-family="Helvetica,sans-Serif" font-size="10.00">IERS::TT_UTC</text>
</a>
</g>
</g>
<!-- Node1&#45;&gt;Node16 -->
<g id="edge9" class="edge">
<title>Node1&#45;&gt;Node16</title>
<path fill="none" stroke="midnightblue" d="M83.93,-68.5C103.68,-57.96 137.05,-40.89 167,-29 172.55,-26.8 178.46,-24.68 184.34,-22.71"/>
<polygon fill="midnightblue" stroke="midnightblue" points="185.68,-25.96 194.12,-19.55 183.53,-19.3 185.68,-25.96"/>
</g>
<!-- Node4 -->
<g id="node4" class="node">
<title>Node4</title>
<g id="a_node4"><a xlink:href="forceModels_8cpp.html#a74a12e98d45698d8fd4989fdabe38004" target="_top" xlink:title=" ">
<polygon fill="white" stroke="red" points="334,-135.5 334,-154.5 400,-154.5 400,-135.5 334,-135.5"/>
<text text-anchor="middle" x="367" y="-142.5" font-family="Helvetica,sans-Serif" font-size="10.00">Illumination</text>
</a>
</g>
</g>
<!-- Node3&#45;&gt;Node4 -->
<g id="edge3" class="edge">
<title>Node3&#45;&gt;Node4</title>
<path fill="none" stroke="midnightblue" d="M278.71,-118.04C293.95,-122.75 310.59,-127.89 325.22,-132.41"/>
<polygon fill="midnightblue" stroke="midnightblue" points="324.4,-135.81 334.98,-135.42 326.46,-129.13 324.4,-135.81"/>
</g>
<!-- Node7 -->
<g id="node5" class="node">
<title>Node7</title>
<g id="a_node5"><a xlink:href="jplEph_8cpp.html#a6e71fd82928bd5cfe04945e4bd27384b" target="_top" xlink:title=" ">
<polygon fill="white" stroke="red" points="337,-97.5 337,-116.5 397,-116.5 397,-97.5 337,-97.5"/>
<text text-anchor="middle" x="367" y="-104.5" font-family="Helvetica,sans-Serif" font-size="10.00">jplEphPos</text>
</a>
</g>
</g>
<!-- Node3&#45;&gt;Node7 -->
<g id="edge4" class="edge">
<title>Node3&#45;&gt;Node7</title>
<path fill="none" stroke="midnightblue" d="M291.24,-104.8C303.31,-105.16 315.67,-105.52 326.78,-105.85"/>
<polygon fill="midnightblue" stroke="midnightblue" points="326.89,-109.35 336.99,-106.15 327.1,-102.35 326.89,-109.35"/>
</g>
<!-- Node14 -->
<g id="node6" class="node">
<title>Node14</title>
<g id="a_node6"><a xlink:href="namespacepod__yaml.html#a59ea539cabb34ef7985e7e57c4b9dd93" target="_top" xlink:title=" ">
<polygon fill="white" stroke="black" points="327,-41.5 327,-60.5 407,-60.5 407,-41.5 327,-41.5"/>
<text text-anchor="middle" x="367" y="-48.5" font-family="Helvetica,sans-Serif" font-size="10.00">pod_yaml::pow</text>
</a>
</g>
</g>
<!-- Node3&#45;&gt;Node14 -->
<g id="edge5" class="edge">
<title>Node3&#45;&gt;Node14</title>
<path fill="none" stroke="midnightblue" d="M269.34,-87.96C288.98,-80.45 312.52,-71.45 331.46,-64.21"/>
<polygon fill="midnightblue" stroke="midnightblue" points="332.8,-67.44 340.89,-60.6 330.3,-60.9 332.8,-67.44"/>
</g>
<!-- Node14&#45;&gt;Node14 -->
<g id="edge6" class="edge">
<title>Node14&#45;&gt;Node14</title>
<path fill="none" stroke="midnightblue" d="M345.73,-60.76C335.38,-69.57 342.47,-79 367,-79 382.71,-79 391.27,-75.13 392.67,-70.03"/>
<polygon fill="midnightblue" stroke="midnightblue" points="395.72,-68.29 388.27,-60.76 389.39,-71.29 395.72,-68.29"/>
</g>
<!-- Node15&#45;&gt;Node14 -->
<g id="edge8" class="edge">
<title>Node15&#45;&gt;Node14</title>
<path fill="none" stroke="midnightblue" d="M286.1,-52.76C296.2,-52.54 306.66,-52.31 316.56,-52.09"/>
<polygon fill="midnightblue" stroke="midnightblue" points="316.71,-55.59 326.63,-51.87 316.55,-48.59 316.71,-55.59"/>
</g>
</g>
</svg>
