<?xml version="1.0" encoding="UTF-8" standalone="no"?>
<!DOCTYPE svg PUBLIC "-//W3C//DTD SVG 1.1//EN"
 "http://www.w3.org/Graphics/SVG/1.1/DTD/svg11.dtd">
<!-- Generated by graphviz version 2.50.0 (20220203.2022)
 -->
<!-- Title: rtk_t Pages: 1 -->
<svg width="1020pt" height="804pt"
 viewBox="0.00 0.00 1020.00 804.00" xmlns="http://www.w3.org/2000/svg" xmlns:xlink="http://www.w3.org/1999/xlink">
<g id="graph0" class="graph" transform="scale(1 1) rotate(0) translate(4 800)">
<title>rtk_t</title>
<polygon fill="white" stroke="transparent" points="-4,4 -4,-800 1016,-800 1016,4 -4,4"/>
<!-- Node1 -->
<g id="node1" class="node">
<title>Node1</title>
<g id="a_node1"><a xlink:title=" ">
<polygon fill="#bfbfbf" stroke="black" points="976,-201.5 976,-220.5 1012,-220.5 1012,-201.5 976,-201.5"/>
<text text-anchor="middle" x="994" y="-208.5" font-family="Helvetica,sans-Serif" font-size="10.00">rtk_t</text>
</a>
</g>
</g>
<!-- Node2 -->
<g id="node2" class="node">
<title>Node2</title>
<g id="a_node2"><a xlink:href="structKFState.html" target="_top" xlink:title="Kalman filter object.">
<polygon fill="white" stroke="black" points="536,-516.5 536,-535.5 589,-535.5 589,-516.5 536,-516.5"/>
<text text-anchor="middle" x="562.5" y="-523.5" font-family="Helvetica,sans-Serif" font-size="10.00">KFState</text>
</a>
</g>
</g>
<!-- Node2&#45;&gt;Node1 -->
<g id="edge1" class="edge">
<title>Node2&#45;&gt;Node1</title>
<path fill="none" stroke="#9a32cd" stroke-dasharray="5,2" d="M585.27,-510.04C662.01,-453.75 918.66,-265.52 979.83,-220.66"/>
<polygon fill="#9a32cd" stroke="#9a32cd" points="582.82,-507.49 576.83,-516.23 586.96,-513.14 582.82,-507.49"/>
<text text-anchor="middle" x="817" y="-393" font-family="Helvetica,sans-Serif" font-size="10.00"> pppState</text>
</g>
<!-- Node61 -->
<g id="node14" class="node">
<title>Node61</title>
<g id="a_node14"><a xlink:href="structSolution.html" target="_top" xlink:title="Solution of user mode processing functinos.">
<polygon fill="white" stroke="black" points="791,-516.5 791,-535.5 843,-535.5 843,-516.5 791,-516.5"/>
<text text-anchor="middle" x="817" y="-523.5" font-family="Helvetica,sans-Serif" font-size="10.00">Solution</text>
</a>
</g>
</g>
<!-- Node2&#45;&gt;Node61 -->
<g id="edge17" class="edge">
<title>Node2&#45;&gt;Node61</title>
<path fill="none" stroke="#9a32cd" stroke-dasharray="5,2" d="M599.15,-526C650.9,-526 745.54,-526 790.71,-526"/>
<polygon fill="#9a32cd" stroke="#9a32cd" points="599.1,-522.5 589.1,-526 599.1,-529.5 599.1,-522.5"/>
<text text-anchor="middle" x="687" y="-529" font-family="Helvetica,sans-Serif" font-size="10.00"> sppState</text>
</g>
<!-- Node3 -->
<g id="node3" class="node">
<title>Node3</title>
<g id="a_node3"><a xlink:href="structGTime.html" target="_top" xlink:title="Time structure used throughout this software.">
<polygon fill="white" stroke="black" points="265.5,-776.5 265.5,-795.5 311.5,-795.5 311.5,-776.5 265.5,-776.5"/>
<text text-anchor="middle" x="288.5" y="-783.5" font-family="Helvetica,sans-Serif" font-size="10.00">GTime</text>
</a>
</g>
</g>
<!-- Node3&#45;&gt;Node2 -->
<g id="edge2" class="edge">
<title>Node3&#45;&gt;Node2</title>
<path fill="none" stroke="#9a32cd" stroke-dasharray="5,2" d="M321.54,-778.5C335.02,-775.2 350.84,-771.14 365,-767 373.09,-764.64 374.89,-763.31 383,-761 425.61,-748.87 450.94,-771.44 480,-738 508.26,-705.49 470.7,-578.32 498,-545 507.12,-533.87 522.47,-529.08 535.8,-527.09"/>
<polygon fill="#9a32cd" stroke="#9a32cd" points="320.65,-775.12 311.75,-780.87 322.29,-781.92 320.65,-775.12"/>
<text text-anchor="middle" x="431.5" y="-764" font-family="Helvetica,sans-Serif" font-size="10.00"> time</text>
</g>
<!-- Node3&#45;&gt;Node61 -->
<g id="edge15" class="edge">
<title>Node3&#45;&gt;Node61</title>
<path fill="none" stroke="#9a32cd" stroke-dasharray="5,2" d="M321.75,-788.38C360.41,-790.17 426.67,-789.81 480,-772 631.55,-721.4 771.85,-574.83 807.37,-535.7"/>
<polygon fill="#9a32cd" stroke="#9a32cd" points="321.78,-784.88 311.61,-787.83 321.41,-791.87 321.78,-784.88"/>
<text text-anchor="middle" x="562.5" y="-766" font-family="Helvetica,sans-Serif" font-size="10.00"> time</text>
</g>
<!-- Node4 -->
<g id="node4" class="node">
<title>Node4</title>
<g id="a_node4"><a xlink:title=" ">
<polygon fill="white" stroke="black" points="260,-564.5 260,-583.5 317,-583.5 317,-564.5 260,-564.5"/>
<text text-anchor="middle" x="288.5" y="-571.5" font-family="Helvetica,sans-Serif" font-size="10.00">VectorXd</text>
</a>
</g>
</g>
<!-- Node4&#45;&gt;Node2 -->
<g id="edge3" class="edge">
<title>Node4&#45;&gt;Node2</title>
<path fill="none" stroke="#9a32cd" stroke-dasharray="5,2" d="M327.42,-570.65C366.06,-566.86 427.59,-559.78 480,-549 498.86,-545.12 519.76,-539.19 535.68,-534.32"/>
<polygon fill="#9a32cd" stroke="#9a32cd" points="326.78,-567.2 317.15,-571.64 327.44,-574.17 326.78,-567.2"/>
<text text-anchor="middle" x="431.5" y="-578" font-family="Helvetica,sans-Serif" font-size="10.00"> dx</text>
<text text-anchor="middle" x="431.5" y="-567" font-family="Helvetica,sans-Serif" font-size="10.00">x</text>
</g>
<!-- Node5 -->
<g id="node5" class="node">
<title>Node5</title>
<g id="a_node5"><a xlink:title=" ">
<polygon fill="white" stroke="black" points="261,-526.5 261,-545.5 316,-545.5 316,-526.5 261,-526.5"/>
<text text-anchor="middle" x="288.5" y="-533.5" font-family="Helvetica,sans-Serif" font-size="10.00">MatrixXd</text>
</a>
</g>
</g>
<!-- Node5&#45;&gt;Node2 -->
<g id="edge4" class="edge">
<title>Node5&#45;&gt;Node2</title>
<path fill="none" stroke="#9a32cd" stroke-dasharray="5,2" d="M326.25,-531.69C343.46,-529.87 364.25,-527.95 383,-527 437.32,-524.24 501.05,-524.79 535.76,-525.42"/>
<polygon fill="#9a32cd" stroke="#9a32cd" points="325.61,-528.24 316.05,-532.8 326.37,-535.2 325.61,-528.24"/>
<text text-anchor="middle" x="431.5" y="-541" font-family="Helvetica,sans-Serif" font-size="10.00"> P</text>
<text text-anchor="middle" x="431.5" y="-530" font-family="Helvetica,sans-Serif" font-size="10.00">Z</text>
</g>
<!-- Node6 -->
<g id="node6" class="node">
<title>Node6</title>
<g id="a_node6"><a xlink:title=" ">
<polygon fill="white" stroke="red" points="229.5,-477 229.5,-507 347.5,-507 347.5,-477 229.5,-477"/>
<text text-anchor="start" x="237.5" y="-495" font-family="Helvetica,sans-Serif" font-size="10.00">std::map&lt; KFKey, short</text>
<text text-anchor="middle" x="288.5" y="-484" font-family="Helvetica,sans-Serif" font-size="10.00"> int &gt;</text>
</a>
</g>
</g>
<!-- Node6&#45;&gt;Node2 -->
<g id="edge5" class="edge">
<title>Node6&#45;&gt;Node2</title>
<path fill="none" stroke="#9a32cd" stroke-dasharray="5,2" d="M357.64,-496.78C394.05,-499.75 439.58,-504.14 480,-510 498.84,-512.73 519.92,-516.9 535.92,-520.3"/>
<polygon fill="#9a32cd" stroke="#9a32cd" points="357.87,-493.29 347.62,-495.98 357.31,-500.27 357.87,-493.29"/>
<text text-anchor="middle" x="431.5" y="-513" font-family="Helvetica,sans-Serif" font-size="10.00"> kfIndexMap</text>
</g>
<!-- Node54 -->
<g id="node7" class="node">
<title>Node54</title>
<g id="a_node7"><a xlink:title=" ">
<polygon fill="white" stroke="red" points="231,-428 231,-458 346,-458 346,-428 231,-428"/>
<text text-anchor="start" x="239" y="-446" font-family="Helvetica,sans-Serif" font-size="10.00">std::map&lt; KFKey, map</text>
<text text-anchor="middle" x="288.5" y="-435" font-family="Helvetica,sans-Serif" font-size="10.00">&lt; KFKey, double &gt; &gt;</text>
</a>
</g>
</g>
<!-- Node54&#45;&gt;Node2 -->
<g id="edge6" class="edge">
<title>Node54&#45;&gt;Node2</title>
<path fill="none" stroke="#9a32cd" stroke-dasharray="5,2" d="M356.56,-453.56C393.59,-460.44 440.04,-470.79 480,-485 503.73,-493.44 529.42,-507.21 545.48,-516.43"/>
<polygon fill="#9a32cd" stroke="#9a32cd" points="356.85,-450.06 346.38,-451.71 355.6,-456.94 356.85,-450.06"/>
<text text-anchor="middle" x="431.5" y="-488" font-family="Helvetica,sans-Serif" font-size="10.00"> ZTransitionMap</text>
</g>
<!-- Node55 -->
<g id="node8" class="node">
<title>Node55</title>
<g id="a_node8"><a xlink:title=" ">
<polygon fill="white" stroke="red" points="0,-360.5 0,-379.5 133,-379.5 133,-360.5 0,-360.5"/>
<text text-anchor="middle" x="66.5" y="-367.5" font-family="Helvetica,sans-Serif" font-size="10.00">std::map&lt; KFKey, double &gt;</text>
</a>
</g>
</g>
<!-- Node55&#45;&gt;Node2 -->
<g id="edge8" class="edge">
<title>Node55&#45;&gt;Node2</title>
<path fill="none" stroke="#9a32cd" stroke-dasharray="5,2" d="M108.41,-357.77C168.18,-342.29 281.36,-322.25 365,-363 376.67,-368.69 373.64,-377 383,-386 421.32,-422.85 438.24,-423.1 480,-456 506.22,-476.66 535.62,-502.65 550.93,-516.42"/>
<polygon fill="#9a32cd" stroke="#9a32cd" points="107.34,-354.43 98.58,-360.39 109.15,-361.19 107.34,-354.43"/>
<text text-anchor="middle" x="288.5" y="-410" font-family="Helvetica,sans-Serif" font-size="10.00"> ZAdditionMap</text>
<text text-anchor="middle" x="288.5" y="-399" font-family="Helvetica,sans-Serif" font-size="10.00">gaussMarkovMuMap</text>
<text text-anchor="middle" x="288.5" y="-388" font-family="Helvetica,sans-Serif" font-size="10.00">gaussMarkovTauMap</text>
<text text-anchor="middle" x="288.5" y="-377" font-family="Helvetica,sans-Serif" font-size="10.00">initNoiseMap</text>
<text text-anchor="middle" x="288.5" y="-366" font-family="Helvetica,sans-Serif" font-size="10.00">procNoiseMap</text>
</g>
<!-- Node55&#45;&gt;Node54 -->
<g id="edge7" class="edge">
<title>Node55&#45;&gt;Node54</title>
<path fill="none" stroke="#9a32cd" stroke-dasharray="5,2" d="M105.91,-382.74C143.79,-395.31 201.69,-414.53 241.89,-427.87"/>
<polygon fill="#9a32cd" stroke="#9a32cd" points="106.85,-379.37 96.26,-379.54 104.65,-386.01 106.85,-379.37"/>
<text text-anchor="middle" x="172.5" y="-414" font-family="Helvetica,sans-Serif" font-size="10.00"> elements</text>
</g>
<!-- Node56 -->
<g id="node9" class="node">
<title>Node56</title>
<g id="a_node9"><a xlink:title=" ">
<polygon fill="white" stroke="red" points="228.5,-716.5 228.5,-757.5 348.5,-757.5 348.5,-716.5 228.5,-716.5"/>
<text text-anchor="start" x="236.5" y="-745.5" font-family="Helvetica,sans-Serif" font-size="10.00">std::map&lt; KFKey, map</text>
<text text-anchor="start" x="236.5" y="-734.5" font-family="Helvetica,sans-Serif" font-size="10.00">&lt; KFKey, tuple&lt; double,</text>
<text text-anchor="middle" x="288.5" y="-723.5" font-family="Helvetica,sans-Serif" font-size="10.00"> int &gt; &gt; &gt;</text>
</a>
</g>
</g>
<!-- Node56&#45;&gt;Node2 -->
<g id="edge9" class="edge">
<title>Node56&#45;&gt;Node2</title>
<path fill="none" stroke="#9a32cd" stroke-dasharray="5,2" d="M358.68,-727.59C409.67,-720 471.56,-709.11 480,-700 527.13,-649.13 453.44,-598.14 498,-545 507.24,-533.98 522.6,-529.19 535.89,-527.18"/>
<polygon fill="#9a32cd" stroke="#9a32cd" points="358.04,-724.15 348.65,-729.07 359.05,-731.08 358.04,-724.15"/>
<text text-anchor="middle" x="431.5" y="-726" font-family="Helvetica,sans-Serif" font-size="10.00"> stateTransitionMap</text>
</g>
<!-- Node57 -->
<g id="node10" class="node">
<title>Node57</title>
<g id="a_node10"><a xlink:title=" ">
<polygon fill="white" stroke="red" points="219.5,-678.5 219.5,-697.5 357.5,-697.5 357.5,-678.5 219.5,-678.5"/>
<text text-anchor="middle" x="288.5" y="-685.5" font-family="Helvetica,sans-Serif" font-size="10.00">std::map&lt; ObsKey, double &gt;</text>
</a>
</g>
</g>
<!-- Node57&#45;&gt;Node2 -->
<g id="edge10" class="edge">
<title>Node57&#45;&gt;Node2</title>
<path fill="none" stroke="#9a32cd" stroke-dasharray="5,2" d="M367.79,-686.56C413.06,-684.01 464.12,-677.61 480,-662 517.52,-625.12 463.45,-584.68 498,-545 507.37,-534.24 522.56,-529.44 535.74,-527.36"/>
<polygon fill="#9a32cd" stroke="#9a32cd" points="367.45,-683.08 357.64,-687.08 367.8,-690.07 367.45,-683.08"/>
<text text-anchor="middle" x="431.5" y="-688" font-family="Helvetica,sans-Serif" font-size="10.00"> noiseElementMap</text>
</g>
<!-- Node59 -->
<g id="node11" class="node">
<title>Node59</title>
<g id="a_node11"><a xlink:title=" ">
<polygon fill="white" stroke="black" points="212.5,-640.5 212.5,-659.5 364.5,-659.5 364.5,-640.5 212.5,-640.5"/>
<text text-anchor="middle" x="288.5" y="-647.5" font-family="Helvetica,sans-Serif" font-size="10.00">std::list&lt; StateRejectCallback &gt;</text>
</a>
</g>
</g>
<!-- Node59&#45;&gt;Node2 -->
<g id="edge11" class="edge">
<title>Node59&#45;&gt;Node2</title>
<path fill="none" stroke="#9a32cd" stroke-dasharray="5,2" d="M374.56,-648.2C417.79,-645.49 464.43,-639.22 480,-625 506.91,-600.43 473.14,-571.65 498,-545 507.65,-534.65 522.69,-529.86 535.71,-527.68"/>
<polygon fill="#9a32cd" stroke="#9a32cd" points="374.32,-644.7 364.54,-648.76 374.72,-651.69 374.32,-644.7"/>
<text text-anchor="middle" x="431.5" y="-650" font-family="Helvetica,sans-Serif" font-size="10.00"> stateRejectCallbacks</text>
</g>
<!-- Node60 -->
<g id="node12" class="node">
<title>Node60</title>
<g id="a_node12"><a xlink:title=" ">
<polygon fill="white" stroke="black" points="212,-602.5 212,-621.5 365,-621.5 365,-602.5 212,-602.5"/>
<text text-anchor="middle" x="288.5" y="-609.5" font-family="Helvetica,sans-Serif" font-size="10.00">std::list&lt; MeasRejectCallback &gt;</text>
</a>
</g>
</g>
<!-- Node60&#45;&gt;Node2 -->
<g id="edge12" class="edge">
<title>Node60&#45;&gt;Node2</title>
<path fill="none" stroke="#9a32cd" stroke-dasharray="5,2" d="M375.37,-610.53C417.85,-608.16 463.5,-602.61 480,-590 497.11,-576.92 482.1,-559.53 498,-545 508.28,-535.61 523.03,-530.85 535.72,-528.44"/>
<polygon fill="#9a32cd" stroke="#9a32cd" points="375.04,-607.04 365.23,-611.04 375.39,-614.03 375.04,-607.04"/>
<text text-anchor="middle" x="431.5" y="-613" font-family="Helvetica,sans-Serif" font-size="10.00"> measRejectCallbacks</text>
</g>
<!-- Node11 -->
<g id="node13" class="node">
<title>Node11</title>
<g id="a_node13"><a xlink:title=" ">
<polygon fill="white" stroke="red" points="259,-298.5 259,-317.5 318,-317.5 318,-298.5 259,-298.5"/>
<text text-anchor="middle" x="288.5" y="-305.5" font-family="Helvetica,sans-Serif" font-size="10.00">std::string</text>
</a>
</g>
</g>
<!-- Node11&#45;&gt;Node2 -->
<g id="edge13" class="edge">
<title>Node11&#45;&gt;Node2</title>
<path fill="none" stroke="#9a32cd" stroke-dasharray="5,2" d="M328.29,-317.13C383.93,-330.24 479.82,-352.84 480,-353 495.55,-366.07 489.57,-376.52 498,-395 518.88,-440.76 545.67,-494.53 556.56,-516.21"/>
<polygon fill="#9a32cd" stroke="#9a32cd" points="328.93,-313.69 318.4,-314.8 327.33,-320.5 328.93,-313.69"/>
<text text-anchor="middle" x="431.5" y="-378" font-family="Helvetica,sans-Serif" font-size="10.00"> id</text>
<text text-anchor="middle" x="431.5" y="-367" font-family="Helvetica,sans-Serif" font-size="10.00">rts_filename</text>
<text text-anchor="middle" x="431.5" y="-356" font-family="Helvetica,sans-Serif" font-size="10.00">rts_forward_filename</text>
</g>
<!-- Node62 -->
<g id="node17" class="node">
<title>Node62</title>
<g id="a_node17"><a xlink:href="structPhaseCenterData.html" target="_top" xlink:title=" ">
<polygon fill="white" stroke="black" points="770.5,-201.5 770.5,-220.5 863.5,-220.5 863.5,-201.5 770.5,-201.5"/>
<text text-anchor="middle" x="817" y="-208.5" font-family="Helvetica,sans-Serif" font-size="10.00">PhaseCenterData</text>
</a>
</g>
</g>
<!-- Node11&#45;&gt;Node62 -->
<g id="edge20" class="edge">
<title>Node11&#45;&gt;Node62</title>
<path fill="none" stroke="#9a32cd" stroke-dasharray="5,2" d="M327.97,-312.99C391.33,-320 521.18,-329.29 627,-304 697.43,-287.17 771.97,-240.74 802.14,-220.57"/>
<polygon fill="#9a32cd" stroke="#9a32cd" points="328.35,-309.51 318.02,-311.84 327.55,-316.46 328.35,-309.51"/>
<text text-anchor="middle" x="562.5" y="-367" font-family="Helvetica,sans-Serif" font-size="10.00"> calibModel</text>
<text text-anchor="middle" x="562.5" y="-356" font-family="Helvetica,sans-Serif" font-size="10.00">code</text>
<text text-anchor="middle" x="562.5" y="-345" font-family="Helvetica,sans-Serif" font-size="10.00">cospar</text>
<text text-anchor="middle" x="562.5" y="-334" font-family="Helvetica,sans-Serif" font-size="10.00">svn</text>
<text text-anchor="middle" x="562.5" y="-323" font-family="Helvetica,sans-Serif" font-size="10.00">type</text>
</g>
<!-- Node68 -->
<g id="node24" class="node">
<title>Node68</title>
<g id="a_node24"><a xlink:href="structprcopt__t.html" target="_top" xlink:title="Legacy processing options from rtklib.">
<polygon fill="white" stroke="black" points="536.5,-76.5 536.5,-95.5 588.5,-95.5 588.5,-76.5 536.5,-76.5"/>
<text text-anchor="middle" x="562.5" y="-83.5" font-family="Helvetica,sans-Serif" font-size="10.00">prcopt_t</text>
</a>
</g>
</g>
<!-- Node11&#45;&gt;Node68 -->
<g id="edge31" class="edge">
<title>Node11&#45;&gt;Node68</title>
<path fill="none" stroke="#9a32cd" stroke-dasharray="5,2" d="M327.77,-298.62C371.81,-285.74 442.81,-258.11 480,-207 507.08,-169.78 467.39,-139.38 498,-105 507.64,-94.17 523.17,-89.4 536.46,-87.34"/>
<polygon fill="#9a32cd" stroke="#9a32cd" points="326.68,-295.29 318,-301.37 328.58,-302.03 326.68,-295.29"/>
<text text-anchor="middle" x="431.5" y="-282" font-family="Helvetica,sans-Serif" font-size="10.00"> anttype</text>
</g>
<!-- Node61&#45;&gt;Node1 -->
<g id="edge14" class="edge">
<title>Node61&#45;&gt;Node1</title>
<path fill="none" stroke="#9a32cd" stroke-dasharray="5,2" d="M846.07,-511.19C878.6,-492.45 931.16,-456.99 958,-411 977.36,-377.81 989.13,-256.12 992.2,-220.72"/>
<polygon fill="#9a32cd" stroke="#9a32cd" points="844.07,-508.29 837.06,-516.24 847.5,-514.4 844.07,-508.29"/>
<text text-anchor="middle" x="931.5" y="-473" font-family="Helvetica,sans-Serif" font-size="10.00"> sol</text>
</g>
<!-- Node42 -->
<g id="node15" class="node">
<title>Node42</title>
<g id="a_node15"><a xlink:title=" ">
<polygon fill="white" stroke="black" points="505.5,-554.5 505.5,-573.5 619.5,-573.5 619.5,-554.5 505.5,-554.5"/>
<text text-anchor="middle" x="562.5" y="-561.5" font-family="Helvetica,sans-Serif" font-size="10.00">std::map&lt; int, double &gt;</text>
</a>
</g>
</g>
<!-- Node42&#45;&gt;Node61 -->
<g id="edge16" class="edge">
<title>Node42&#45;&gt;Node61</title>
<path fill="none" stroke="#9a32cd" stroke-dasharray="5,2" d="M629.89,-555.28C660.15,-551.17 696.42,-546.07 729,-541 749.9,-537.75 773.55,-533.64 790.91,-530.55"/>
<polygon fill="#9a32cd" stroke="#9a32cd" points="629.31,-551.82 619.87,-556.63 630.25,-558.76 629.31,-551.82"/>
<text text-anchor="middle" x="687" y="-600" font-family="Helvetica,sans-Serif" font-size="10.00"> deltaDt_net_old</text>
<text text-anchor="middle" x="687" y="-589" font-family="Helvetica,sans-Serif" font-size="10.00">dtRec_m</text>
<text text-anchor="middle" x="687" y="-578" font-family="Helvetica,sans-Serif" font-size="10.00">dtRec_m_ppp_old</text>
<text text-anchor="middle" x="687" y="-567" font-family="Helvetica,sans-Serif" font-size="10.00">dtRec_m_pppp_old</text>
<text text-anchor="middle" x="687" y="-556" font-family="Helvetica,sans-Serif" font-size="10.00">pppdtRec_m</text>
</g>
<!-- Node19 -->
<g id="node16" class="node">
<title>Node19</title>
<g id="a_node16"><a xlink:title=" ">
<polygon fill="white" stroke="black" points="260.5,-97.5 260.5,-116.5 316.5,-116.5 316.5,-97.5 260.5,-97.5"/>
<text text-anchor="middle" x="288.5" y="-104.5" font-family="Helvetica,sans-Serif" font-size="10.00">Vector3d</text>
</a>
</g>
</g>
<!-- Node19&#45;&gt;Node61 -->
<g id="edge18" class="edge">
<title>Node19&#45;&gt;Node61</title>
<path fill="none" stroke="#9a32cd" stroke-dasharray="5,2" d="M313.94,-122.35C330.93,-134.33 352.67,-152.52 365,-174 385.31,-209.38 352.21,-237.24 383,-264 424,-299.62 579.04,-252.51 627,-278 680.42,-306.39 784.62,-474.24 810.22,-516.4"/>
<polygon fill="#9a32cd" stroke="#9a32cd" points="315.8,-119.38 305.56,-116.67 311.87,-125.18 315.8,-119.38"/>
<text text-anchor="middle" x="562.5" y="-292" font-family="Helvetica,sans-Serif" font-size="10.00"> pppRRec</text>
<text text-anchor="middle" x="562.5" y="-281" font-family="Helvetica,sans-Serif" font-size="10.00">sppRRec</text>
</g>
<!-- Node63 -->
<g id="node18" class="node">
<title>Node63</title>
<g id="a_node18"><a xlink:title=" ">
<polygon fill="white" stroke="black" points="511,-115 511,-145 614,-145 614,-115 511,-115"/>
<text text-anchor="start" x="519" y="-133" font-family="Helvetica,sans-Serif" font-size="10.00">std::map&lt; E_FType,</text>
<text text-anchor="middle" x="562.5" y="-122" font-family="Helvetica,sans-Serif" font-size="10.00"> Vector3d &gt;</text>
</a>
</g>
</g>
<!-- Node19&#45;&gt;Node63 -->
<g id="edge22" class="edge">
<title>Node19&#45;&gt;Node63</title>
<path fill="none" stroke="#9a32cd" stroke-dasharray="5,2" d="M326.77,-110.15C374.5,-114.19 457.41,-121.2 510.83,-125.72"/>
<polygon fill="#9a32cd" stroke="#9a32cd" points="326.83,-106.64 316.57,-109.29 326.24,-113.62 326.83,-106.64"/>
<text text-anchor="middle" x="431.5" y="-126" font-family="Helvetica,sans-Serif" font-size="10.00"> elements</text>
</g>
<!-- Node30 -->
<g id="node23" class="node">
<title>Node30</title>
<g id="a_node23"><a xlink:href="structSatStat.html" target="_top" xlink:title="Object containing persistant status parameters of individual satellites.">
<polygon fill="white" stroke="red" points="537.5,-0.5 537.5,-19.5 587.5,-19.5 587.5,-0.5 537.5,-0.5"/>
<text text-anchor="middle" x="562.5" y="-7.5" font-family="Helvetica,sans-Serif" font-size="10.00">SatStat</text>
</a>
</g>
</g>
<!-- Node19&#45;&gt;Node30 -->
<g id="edge29" class="edge">
<title>Node19&#45;&gt;Node30</title>
<path fill="none" stroke="#9a32cd" stroke-dasharray="5,2" d="M322.87,-93.72C363.84,-77.61 435.56,-49.99 498,-29 510.87,-24.67 525.37,-20.3 537.26,-16.84"/>
<polygon fill="#9a32cd" stroke="#9a32cd" points="321.41,-90.54 313.39,-97.46 323.98,-97.05 321.41,-90.54"/>
<text text-anchor="middle" x="431.5" y="-74" font-family="Helvetica,sans-Serif" font-size="10.00"> e</text>
</g>
<!-- Node19&#45;&gt;Node68 -->
<g id="edge32" class="edge">
<title>Node19&#45;&gt;Node68</title>
<path fill="none" stroke="#9a32cd" stroke-dasharray="5,2" d="M326.92,-99.9C343.96,-96.94 364.43,-93.79 383,-92 437.47,-86.74 501.68,-85.88 536.31,-85.85"/>
<polygon fill="#9a32cd" stroke="#9a32cd" points="326.03,-96.5 316.79,-101.69 327.25,-103.39 326.03,-96.5"/>
<text text-anchor="middle" x="431.5" y="-95" font-family="Helvetica,sans-Serif" font-size="10.00"> antdel</text>
</g>
<!-- Node62&#45;&gt;Node1 -->
<g id="edge19" class="edge">
<title>Node62&#45;&gt;Node1</title>
<path fill="none" stroke="#9a32cd" stroke-dasharray="5,2" d="M873.69,-211C908.89,-211 952.05,-211 975.61,-211"/>
<polygon fill="#9a32cd" stroke="#9a32cd" points="873.52,-207.5 863.52,-211 873.52,-214.5 873.52,-207.5"/>
<text text-anchor="middle" x="931.5" y="-214" font-family="Helvetica,sans-Serif" font-size="10.00"> pcvrec</text>
</g>
<!-- Node63&#45;&gt;Node62 -->
<g id="edge21" class="edge">
<title>Node63&#45;&gt;Node62</title>
<path fill="none" stroke="#9a32cd" stroke-dasharray="5,2" d="M624.3,-144.56C655.83,-152.61 694.8,-163.33 729,-175 751.9,-182.81 777.4,-193.63 794.84,-201.36"/>
<polygon fill="#9a32cd" stroke="#9a32cd" points="624.89,-141.1 614.34,-142.05 623.18,-147.89 624.89,-141.1"/>
<text text-anchor="middle" x="687" y="-178" font-family="Helvetica,sans-Serif" font-size="10.00"> pcoMap</text>
</g>
<!-- Node64 -->
<g id="node19" class="node">
<title>Node64</title>
<g id="a_node19"><a xlink:title=" ">
<polygon fill="white" stroke="red" points="236.5,-184 236.5,-214 340.5,-214 340.5,-184 236.5,-184"/>
<text text-anchor="start" x="244.5" y="-202" font-family="Helvetica,sans-Serif" font-size="10.00">std::map&lt; int, vector</text>
<text text-anchor="middle" x="288.5" y="-191" font-family="Helvetica,sans-Serif" font-size="10.00">&lt; double &gt; &gt;</text>
</a>
</g>
</g>
<!-- Node64&#45;&gt;Node62 -->
<g id="edge23" class="edge">
<title>Node64&#45;&gt;Node62</title>
<path fill="none" stroke="#9a32cd" stroke-dasharray="5,2" d="M351.02,-203.18C361.68,-203.83 372.66,-204.47 383,-205 536.64,-212.86 575.2,-218.53 729,-215 742.45,-214.69 757.07,-214.11 770.41,-213.49"/>
<polygon fill="#9a32cd" stroke="#9a32cd" points="351.13,-199.68 340.93,-202.54 350.69,-206.66 351.13,-199.68"/>
<text text-anchor="middle" x="562.5" y="-219" font-family="Helvetica,sans-Serif" font-size="10.00"> PCVMap1D</text>
</g>
<!-- Node66 -->
<g id="node20" class="node">
<title>Node66</title>
<g id="a_node20"><a xlink:title=" ">
<polygon fill="white" stroke="black" points="498,-164 498,-194 627,-194 627,-164 498,-164"/>
<text text-anchor="start" x="506" y="-182" font-family="Helvetica,sans-Serif" font-size="10.00">std::map&lt; int, map</text>
<text text-anchor="middle" x="562.5" y="-171" font-family="Helvetica,sans-Serif" font-size="10.00">&lt; int, vector&lt; double &gt; &gt; &gt;</text>
</a>
</g>
</g>
<!-- Node64&#45;&gt;Node66 -->
<g id="edge25" class="edge">
<title>Node64&#45;&gt;Node66</title>
<path fill="none" stroke="#9a32cd" stroke-dasharray="5,2" d="M350.88,-194.49C394.64,-191.27 453.32,-186.95 497.62,-183.7"/>
<polygon fill="#9a32cd" stroke="#9a32cd" points="350.38,-191.01 340.66,-195.24 350.89,-198 350.38,-191.01"/>
<text text-anchor="middle" x="431.5" y="-195" font-family="Helvetica,sans-Serif" font-size="10.00"> elements</text>
</g>
<!-- Node66&#45;&gt;Node62 -->
<g id="edge24" class="edge">
<title>Node66&#45;&gt;Node62</title>
<path fill="none" stroke="#9a32cd" stroke-dasharray="5,2" d="M637.35,-188.36C680.35,-193.81 733.21,-200.51 770.23,-205.2"/>
<polygon fill="#9a32cd" stroke="#9a32cd" points="637.58,-184.86 627.22,-187.07 636.7,-191.8 637.58,-184.86"/>
<text text-anchor="middle" x="687" y="-203" font-family="Helvetica,sans-Serif" font-size="10.00"> PCVMap2D</text>
</g>
<!-- Node67 -->
<g id="node21" class="node">
<title>Node67</title>
<g id="a_node21"><a xlink:title=" ">
<polygon fill="white" stroke="black" points="747,-38.5 747,-57.5 887,-57.5 887,-38.5 747,-38.5"/>
<text text-anchor="middle" x="817" y="-45.5" font-family="Helvetica,sans-Serif" font-size="10.00">std::map&lt; SatSys, SatStat &gt;</text>
</a>
</g>
</g>
<!-- Node67&#45;&gt;Node1 -->
<g id="edge26" class="edge">
<title>Node67&#45;&gt;Node1</title>
<path fill="none" stroke="#9a32cd" stroke-dasharray="5,2" d="M896.9,-55.43C919.12,-61.08 941.65,-70.71 958,-87 990.16,-119.05 993.33,-178.24 993.26,-201.38"/>
<polygon fill="#9a32cd" stroke="#9a32cd" points="897.61,-52.01 887.08,-53.18 896.04,-58.83 897.61,-52.01"/>
<text text-anchor="middle" x="931.5" y="-90" font-family="Helvetica,sans-Serif" font-size="10.00"> satStatMap</text>
</g>
<!-- Node8 -->
<g id="node22" class="node">
<title>Node8</title>
<g id="a_node22"><a xlink:href="structSatSys.html" target="_top" xlink:title="Object holding satellite id, and providing related functions.">
<polygon fill="white" stroke="red" points="538.5,-38.5 538.5,-57.5 586.5,-57.5 586.5,-38.5 538.5,-38.5"/>
<text text-anchor="middle" x="562.5" y="-45.5" font-family="Helvetica,sans-Serif" font-size="10.00">SatSys</text>
</a>
</g>
</g>
<!-- Node8&#45;&gt;Node67 -->
<g id="edge27" class="edge">
<title>Node8&#45;&gt;Node67</title>
<path fill="none" stroke="#9a32cd" stroke-dasharray="5,2" d="M596.82,-48C634.83,-48 698.01,-48 746.79,-48"/>
<polygon fill="#9a32cd" stroke="#9a32cd" points="596.8,-44.5 586.8,-48 596.8,-51.5 596.8,-44.5"/>
<text text-anchor="middle" x="687" y="-51" font-family="Helvetica,sans-Serif" font-size="10.00"> keys</text>
</g>
<!-- Node30&#45;&gt;Node67 -->
<g id="edge28" class="edge">
<title>Node30&#45;&gt;Node67</title>
<path fill="none" stroke="#9a32cd" stroke-dasharray="5,2" d="M597.84,-14.44C631.34,-18.85 683.74,-25.95 729,-33 739.75,-34.67 751.23,-36.57 762.21,-38.44"/>
<polygon fill="#9a32cd" stroke="#9a32cd" points="598.03,-10.93 587.66,-13.11 597.12,-17.88 598.03,-10.93"/>
<text text-anchor="middle" x="687" y="-36" font-family="Helvetica,sans-Serif" font-size="10.00"> elements</text>
</g>
<!-- Node68&#45;&gt;Node1 -->
<g id="edge30" class="edge">
<title>Node68&#45;&gt;Node1</title>
<path fill="none" stroke="#9a32cd" stroke-dasharray="5,2" d="M598.49,-96.18C686.04,-121.66 912.08,-187.45 975.96,-206.04"/>
<polygon fill="#9a32cd" stroke="#9a32cd" points="599.34,-92.79 588.76,-93.35 597.39,-99.51 599.34,-92.79"/>
<text text-anchor="middle" x="817" y="-182" font-family="Helvetica,sans-Serif" font-size="10.00"> opt</text>
</g>
</g>
</svg>
