<?xml version="1.0" encoding="UTF-8" standalone="no"?>
<!DOCTYPE svg PUBLIC "-//W3C//DTD SVG 1.1//EN"
 "http://www.w3.org/Graphics/SVG/1.1/DTD/svg11.dtd">
<!-- Generated by graphviz version 2.50.0 (20220203.2022)
 -->
<!-- Title: NtripRtcmStream Pages: 1 -->
<svg width="338pt" height="140pt"
 viewBox="0.00 0.00 338.00 140.00" xmlns="http://www.w3.org/2000/svg" xmlns:xlink="http://www.w3.org/1999/xlink">
<g id="graph0" class="graph" transform="scale(1 1) rotate(0) translate(4 136)">
<title>NtripRtcmStream</title>
<polygon fill="white" stroke="transparent" points="-4,4 -4,-136 334,-136 334,4 -4,4"/>
<!-- Node1 -->
<g id="node1" class="node">
<title>Node1</title>
<g id="a_node1"><a xlink:title="Object that streams RTCM data from NTRIP castors.">
<polygon fill="#bfbfbf" stroke="black" points="72,-0.5 72,-19.5 164,-19.5 164,-0.5 72,-0.5"/>
<text text-anchor="middle" x="118" y="-7.5" font-family="Helvetica,sans-Serif" font-size="10.00">NtripRtcmStream</text>
</a>
</g>
</g>
<!-- Node2 -->
<g id="node2" class="node">
<title>Node2</title>
<g id="a_node2"><a xlink:href="structNtripStream.html" target="_top" xlink:title=" ">
<polygon fill="white" stroke="black" points="19.5,-56.5 19.5,-75.5 88.5,-75.5 88.5,-56.5 19.5,-56.5"/>
<text text-anchor="middle" x="54" y="-63.5" font-family="Helvetica,sans-Serif" font-size="10.00">NtripStream</text>
</a>
</g>
</g>
<!-- Node2&#45;&gt;Node1 -->
<g id="edge1" class="edge">
<title>Node2&#45;&gt;Node1</title>
<path fill="none" stroke="midnightblue" d="M71.99,-49.82C83.46,-40.15 97.91,-27.95 107.53,-19.83"/>
<polygon fill="midnightblue" stroke="midnightblue" points="69.67,-47.2 64.28,-56.32 74.18,-52.55 69.67,-47.2"/>
</g>
<!-- Node3 -->
<g id="node3" class="node">
<title>Node3</title>
<g id="a_node3"><a xlink:href="structNtripSocket.html" target="_top" xlink:title=" ">
<polygon fill="white" stroke="red" points="0,-112.5 0,-131.5 68,-131.5 68,-112.5 0,-112.5"/>
<text text-anchor="middle" x="34" y="-119.5" font-family="Helvetica,sans-Serif" font-size="10.00">NtripSocket</text>
</a>
</g>
</g>
<!-- Node3&#45;&gt;Node2 -->
<g id="edge2" class="edge">
<title>Node3&#45;&gt;Node2</title>
<path fill="none" stroke="midnightblue" d="M40.78,-102.69C44.15,-93.59 48.07,-83.01 50.76,-75.75"/>
<polygon fill="midnightblue" stroke="midnightblue" points="37.49,-101.49 37.3,-112.08 44.06,-103.92 37.49,-101.49"/>
</g>
<!-- Node5 -->
<g id="node4" class="node">
<title>Node5</title>
<g id="a_node4"><a xlink:href="structRtcmStream.html" target="_top" xlink:title=" ">
<polygon fill="white" stroke="black" points="146.5,-56.5 146.5,-75.5 217.5,-75.5 217.5,-56.5 146.5,-56.5"/>
<text text-anchor="middle" x="182" y="-63.5" font-family="Helvetica,sans-Serif" font-size="10.00">RtcmStream</text>
</a>
</g>
</g>
<!-- Node5&#45;&gt;Node1 -->
<g id="edge3" class="edge">
<title>Node5&#45;&gt;Node1</title>
<path fill="none" stroke="midnightblue" d="M164.01,-49.82C152.54,-40.15 138.09,-27.95 128.47,-19.83"/>
<polygon fill="midnightblue" stroke="midnightblue" points="161.82,-52.55 171.72,-56.32 166.33,-47.2 161.82,-52.55"/>
</g>
<!-- Node6 -->
<g id="node5" class="node">
<title>Node6</title>
<g id="a_node5"><a xlink:href="structObsStream.html" target="_top" xlink:title="Interface for streams that supply observations.">
<polygon fill="white" stroke="black" points="86,-112.5 86,-131.5 152,-131.5 152,-112.5 86,-112.5"/>
<text text-anchor="middle" x="119" y="-119.5" font-family="Helvetica,sans-Serif" font-size="10.00">ObsStream</text>
</a>
</g>
</g>
<!-- Node6&#45;&gt;Node5 -->
<g id="edge4" class="edge">
<title>Node6&#45;&gt;Node5</title>
<path fill="none" stroke="midnightblue" d="M137.04,-105.54C148.27,-95.91 162.32,-83.87 171.69,-75.83"/>
<polygon fill="midnightblue" stroke="midnightblue" points="134.44,-103.16 129.12,-112.32 138.99,-108.47 134.44,-103.16"/>
</g>
<!-- Node7 -->
<g id="node6" class="node">
<title>Node7</title>
<g id="a_node6"><a xlink:href="structNavStream.html" target="_top" xlink:title="Interface for objects that provide navigation data.">
<polygon fill="white" stroke="black" points="170,-112.5 170,-131.5 236,-131.5 236,-112.5 170,-112.5"/>
<text text-anchor="middle" x="203" y="-119.5" font-family="Helvetica,sans-Serif" font-size="10.00">NavStream</text>
</a>
</g>
</g>
<!-- Node7&#45;&gt;Node5 -->
<g id="edge5" class="edge">
<title>Node7&#45;&gt;Node5</title>
<path fill="none" stroke="midnightblue" d="M195.88,-102.69C192.34,-93.59 188.23,-83.01 185.4,-75.75"/>
<polygon fill="midnightblue" stroke="midnightblue" points="192.65,-104.03 199.53,-112.08 199.17,-101.49 192.65,-104.03"/>
</g>
<!-- Node8 -->
<g id="node7" class="node">
<title>Node8</title>
<g id="a_node7"><a xlink:href="structRtcmDecoder.html" target="_top" xlink:title=" ">
<polygon fill="white" stroke="red" points="254,-112.5 254,-131.5 330,-131.5 330,-112.5 254,-112.5"/>
<text text-anchor="middle" x="292" y="-119.5" font-family="Helvetica,sans-Serif" font-size="10.00">RtcmDecoder</text>
</a>
</g>
</g>
<!-- Node8&#45;&gt;Node5 -->
<g id="edge6" class="edge">
<title>Node8&#45;&gt;Node5</title>
<path fill="none" stroke="midnightblue" d="M265.24,-107.86C244.84,-97.85 217.33,-84.35 199.63,-75.65"/>
<polygon fill="midnightblue" stroke="midnightblue" points="263.81,-111.06 274.33,-112.32 266.89,-104.78 263.81,-111.06"/>
</g>
</g>
</svg>
