<?xml version="1.0" encoding="UTF-8" standalone="no"?>
<!DOCTYPE svg PUBLIC "-//W3C//DTD SVG 1.1//EN"
 "http://www.w3.org/Graphics/SVG/1.1/DTD/svg11.dtd">
<!-- Generated by graphviz version 2.50.0 (20220203.2022)
 -->
<!-- Title: NtripRtcmStream::getNav Pages: 1 -->
<!--zoomable 622 -->
<svg id="main" version="1.1" xmlns="http://www.w3.org/2000/svg" xmlns:xlink="http://www.w3.org/1999/xlink" xml:space="preserve" onload="init(evt)">
<style type="text/css"><![CDATA[
.edge:hover path { stroke: red; }
.edge:hover polygon { stroke: red; fill: red; }
]]></style>
<script type="text/javascript"><![CDATA[
var edges = document.getElementsByTagName('g');
if (edges && edges.length) {
  for (var i=0;i<edges.length;i++) {
    if (edges[i].id.substr(0,4)=='edge') {
      edges[i].setAttribute('class','edge');
    }
  }
}
]]></script>
        <defs>
                <circle id="rim" cx="0" cy="0" r="7"/>
                <circle id="rim2" cx="0" cy="0" r="3.5"/>
                <g id="zoomPlus">
                        <use xlink:href="#rim" fill="#404040">
                                <set attributeName="fill" to="#808080" begin="zoomplus.mouseover" end="zoomplus.mouseout"/>
                        </use>
                        <path d="M-4,0h8M0,-4v8" fill="none" stroke="white" stroke-width="1.5" pointer-events="none"/>
                </g>
                <g id="zoomMin">
                        <use xlink:href="#rim" fill="#404040">
                                <set attributeName="fill" to="#808080" begin="zoomminus.mouseover" end="zoomminus.mouseout"/>
                        </use>
                        <path d="M-4,0h8" fill="none" stroke="white" stroke-width="1.5" pointer-events="none"/>
                </g>
                <g id="dirArrow">
                        <path fill="none" stroke="white" stroke-width="1.5" d="M0,-3.0v7 M-2.5,-0.5L0,-3.0L2.5,-0.5"/>
                </g>
               <g id="resetDef">
                       <use xlink:href="#rim2" fill="#404040">
                               <set attributeName="fill" to="#808080" begin="reset.mouseover" end="reset.mouseout"/>
                       </use>
               </g>
        </defs>

<script type="text/javascript">
var viewWidth = 786;
var viewHeight = 622;
var sectionId = 'dynsection-3';
</script>
<script xlink:href="svgpan.js"/>
<svg id="graph" class="graph">
<g id="viewport">
<title>NtripRtcmStream::getNav</title>
<polygon fill="white" stroke="transparent" points="-4,4 -4,-618 782,-618 782,4 -4,4"/>
<!-- Node1 -->
<g id="node1" class="node">
<title>Node1</title>
<g id="a_node1"><a xlink:title=" ">
<polygon fill="#bfbfbf" stroke="black" points="0,-316.5 0,-335.5 128,-335.5 128,-316.5 0,-316.5"/>
<text text-anchor="middle" x="64" y="-323.5" font-family="Helvetica,sans-Serif" font-size="10.00">NtripRtcmStream::getNav</text>
</a>
</g>
</g>
<!-- Node2 -->
<g id="node2" class="node">
<title>Node2</title>
<g id="a_node2"><a xlink:href="structNtripStream.html#afab7dfd25c95b98eadfe937b7d37bb7f" target="_top" xlink:title="Retrieve data from the stream and store it for later removal.">
<polygon fill="white" stroke="black" points="174.5,-335.5 174.5,-354.5 281.5,-354.5 281.5,-335.5 174.5,-335.5"/>
<text text-anchor="middle" x="228" y="-342.5" font-family="Helvetica,sans-Serif" font-size="10.00">NtripStream::getData</text>
</a>
</g>
</g>
<!-- Node1&#45;&gt;Node2 -->
<g id="edge1" class="edge">
<title>Node1&#45;&gt;Node2</title>
<path fill="none" stroke="midnightblue" d="M128.1,-333.4C139.92,-334.79 152.27,-336.24 164.08,-337.62"/>
<polygon fill="midnightblue" stroke="midnightblue" points="163.96,-341.13 174.3,-338.82 164.77,-334.18 163.96,-341.13"/>
</g>
<!-- Node3 -->
<g id="node3" class="node">
<title>Node3</title>
<g id="a_node3"><a xlink:href="structRtcmStream.html#a34a7a941dab214b7ff6b17e8a53eb55a" target="_top" xlink:title=" ">
<polygon fill="white" stroke="black" points="164,-297.5 164,-316.5 292,-316.5 292,-297.5 164,-297.5"/>
<text text-anchor="middle" x="228" y="-304.5" font-family="Helvetica,sans-Serif" font-size="10.00">RtcmStream::parseRTCM</text>
</a>
</g>
</g>
<!-- Node1&#45;&gt;Node3 -->
<g id="edge2" class="edge">
<title>Node1&#45;&gt;Node3</title>
<path fill="none" stroke="midnightblue" d="M128.1,-318.6C136.53,-317.61 145.23,-316.59 153.81,-315.58"/>
<polygon fill="midnightblue" stroke="midnightblue" points="154.28,-319.05 163.81,-314.41 153.47,-312.1 154.28,-319.05"/>
</g>
<!-- Node4 -->
<g id="node4" class="node">
<title>Node4</title>
<g id="a_node4"><a xlink:href="common_8cpp.html#a143f5fa72a5c2aa56901ad78710eb4c2" target="_top" xlink:title=" ">
<polygon fill="white" stroke="black" points="399.5,-594.5 399.5,-613.5 445.5,-613.5 445.5,-594.5 399.5,-594.5"/>
<text text-anchor="middle" x="422.5" y="-601.5" font-family="Helvetica,sans-Serif" font-size="10.00">crc24q</text>
</a>
</g>
</g>
<!-- Node3&#45;&gt;Node4 -->
<g id="edge3" class="edge">
<title>Node3&#45;&gt;Node4</title>
<path fill="none" stroke="midnightblue" d="M280.32,-316.66C284.72,-319.12 288.73,-322.19 292,-326 366.26,-412.52 251.95,-495.05 328,-580 343.23,-597.01 368.73,-602.71 389.26,-604.33"/>
<polygon fill="midnightblue" stroke="midnightblue" points="389.3,-607.83 399.46,-604.83 389.65,-600.84 389.3,-607.83"/>
</g>
<!-- Node5 -->
<g id="node5" class="node">
<title>Node5</title>
<g id="a_node5"><a xlink:href="structRtcmDecoder.html#aa4f10b765f29810a57a883a57625b1cc" target="_top" xlink:title=" ">
<polygon fill="white" stroke="black" points="345.5,-480.5 345.5,-499.5 499.5,-499.5 499.5,-480.5 345.5,-480.5"/>
<text text-anchor="middle" x="422.5" y="-487.5" font-family="Helvetica,sans-Serif" font-size="10.00">RtcmDecoder::decodeCustomId</text>
</a>
</g>
</g>
<!-- Node3&#45;&gt;Node5 -->
<g id="edge4" class="edge">
<title>Node3&#45;&gt;Node5</title>
<path fill="none" stroke="midnightblue" d="M279.01,-316.54C283.83,-319.01 288.3,-322.11 292,-326 337.77,-374.1 280.05,-425.06 328,-471 330.59,-473.48 333.41,-475.68 336.41,-477.62"/>
<polygon fill="midnightblue" stroke="midnightblue" points="334.8,-480.74 345.26,-482.46 338.16,-474.59 334.8,-480.74"/>
</g>
<!-- Node6 -->
<g id="node6" class="node">
<title>Node6</title>
<g id="a_node6"><a xlink:href="common_8cpp.html#aaa6463f592ed6478626814466d3d02a5" target="_top" xlink:title=" ">
<polygon fill="white" stroke="black" points="595,-392.5 595,-411.5 654,-411.5 654,-392.5 595,-392.5"/>
<text text-anchor="middle" x="624.5" y="-399.5" font-family="Helvetica,sans-Serif" font-size="10.00">getbituInc</text>
</a>
</g>
</g>
<!-- Node3&#45;&gt;Node6 -->
<g id="edge21" class="edge">
<title>Node3&#45;&gt;Node6</title>
<path fill="none" stroke="midnightblue" d="M279.51,-316.52C284.18,-319 288.47,-322.11 292,-326 347.65,-387.43 263.98,-456.35 328,-509 392.88,-562.36 439.43,-541.24 517,-509 560.35,-490.98 595.18,-445.8 612.18,-420.28"/>
<polygon fill="midnightblue" stroke="midnightblue" points="615.33,-421.86 617.81,-411.56 609.45,-418.07 615.33,-421.86"/>
</g>
<!-- Node7 -->
<g id="node7" class="node">
<title>Node7</title>
<g id="a_node7"><a xlink:href="common_8cpp.html#a85a03123ae20efc3b06434f616140943" target="_top" xlink:title=" ">
<polygon fill="white" stroke="black" points="732,-370.5 732,-389.5 778,-389.5 778,-370.5 732,-370.5"/>
<text text-anchor="middle" x="755" y="-377.5" font-family="Helvetica,sans-Serif" font-size="10.00">getbitu</text>
</a>
</g>
</g>
<!-- Node3&#45;&gt;Node7 -->
<g id="edge20" class="edge">
<title>Node3&#45;&gt;Node7</title>
<path fill="none" stroke="midnightblue" d="M279.92,-316.59C284.45,-319.06 288.6,-322.14 292,-326 355.5,-398.01 254.67,-477.03 328,-539 459.27,-649.95 675.39,-457.17 737.08,-397.04"/>
<polygon fill="midnightblue" stroke="midnightblue" points="739.78,-399.3 744.44,-389.78 734.86,-394.32 739.78,-399.3"/>
</g>
<!-- Node8 -->
<g id="node8" class="node">
<title>Node8</title>
<g id="a_node8"><a xlink:href="structRtcmDecoder.html#acd55ac9ab7db974b462c8671d899a120" target="_top" xlink:title=" ">
<polygon fill="white" stroke="black" points="349.5,-431 349.5,-461 495.5,-461 495.5,-431 349.5,-431"/>
<text text-anchor="start" x="357.5" y="-449" font-family="Helvetica,sans-Serif" font-size="10.00">RtcmDecoder::decodeCustom</text>
<text text-anchor="middle" x="422.5" y="-438" font-family="Helvetica,sans-Serif" font-size="10.00">Timestamp</text>
</a>
</g>
</g>
<!-- Node3&#45;&gt;Node8 -->
<g id="edge7" class="edge">
<title>Node3&#45;&gt;Node8</title>
<path fill="none" stroke="midnightblue" d="M277.62,-316.54C282.88,-319 287.82,-322.1 292,-326 325.01,-356.8 294.5,-390.72 328,-421 331.7,-424.34 335.8,-427.25 340.16,-429.77"/>
<polygon fill="midnightblue" stroke="midnightblue" points="338.91,-433.06 349.41,-434.43 342.06,-426.81 338.91,-433.06"/>
</g>
<!-- Node9 -->
<g id="node9" class="node">
<title>Node9</title>
<g id="a_node9"><a xlink:href="structRtcmDecoder.html#a6673aa5a16d7e997de9ce5e43fac7860" target="_top" xlink:title=" ">
<polygon fill="white" stroke="red" points="343.5,-354.5 343.5,-373.5 501.5,-373.5 501.5,-354.5 343.5,-354.5"/>
<text text-anchor="middle" x="422.5" y="-361.5" font-family="Helvetica,sans-Serif" font-size="10.00">RtcmDecoder::decodeEphemeris</text>
</a>
</g>
</g>
<!-- Node3&#45;&gt;Node9 -->
<g id="edge9" class="edge">
<title>Node3&#45;&gt;Node9</title>
<path fill="none" stroke="midnightblue" d="M265.07,-316.57C273.99,-319.3 283.44,-322.49 292,-326 308.74,-332.87 310.96,-338.91 328,-345 335.54,-347.69 343.57,-350.05 351.63,-352.09"/>
<polygon fill="midnightblue" stroke="midnightblue" points="350.91,-355.52 361.45,-354.44 352.54,-348.71 350.91,-355.52"/>
</g>
<!-- Node27 -->
<g id="node10" class="node">
<title>Node27</title>
<g id="a_node10"><a xlink:href="structRtcmDecoder.html#a16b9cbd625b354b77b46b093a638bdf3" target="_top" xlink:title=" ">
<polygon fill="white" stroke="black" points="564.5,-327 564.5,-357 684.5,-357 684.5,-327 564.5,-327"/>
<text text-anchor="start" x="572.5" y="-345" font-family="Helvetica,sans-Serif" font-size="10.00">RtcmDecoder::message</text>
<text text-anchor="middle" x="624.5" y="-334" font-family="Helvetica,sans-Serif" font-size="10.00">_length</text>
</a>
</g>
</g>
<!-- Node3&#45;&gt;Node27 -->
<g id="edge22" class="edge">
<title>Node3&#45;&gt;Node27</title>
<path fill="none" stroke="midnightblue" d="M292.1,-301.3C350.75,-297.34 440.35,-294.73 517,-307 537.36,-310.26 559.11,-316.82 577.62,-323.38"/>
<polygon fill="midnightblue" stroke="midnightblue" points="576.66,-326.76 587.25,-326.91 579.06,-320.19 576.66,-326.76"/>
</g>
<!-- Node31 -->
<g id="node11" class="node">
<title>Node31</title>
<g id="a_node11"><a xlink:href="structRtcmDecoder.html#a255b1924964121ecb5ac55d1efc0cd64" target="_top" xlink:title=" ">
<polygon fill="white" stroke="red" points="352.5,-392.5 352.5,-411.5 492.5,-411.5 492.5,-392.5 352.5,-392.5"/>
<text text-anchor="middle" x="422.5" y="-399.5" font-family="Helvetica,sans-Serif" font-size="10.00">RtcmDecoder::decodeMSM7</text>
</a>
</g>
</g>
<!-- Node3&#45;&gt;Node31 -->
<g id="edge13" class="edge">
<title>Node3&#45;&gt;Node31</title>
<path fill="none" stroke="midnightblue" d="M274.95,-316.58C281.03,-319.04 286.91,-322.13 292,-326 315.85,-344.14 303.34,-365.98 328,-383 332.6,-386.17 337.61,-388.84 342.85,-391.08"/>
<polygon fill="midnightblue" stroke="midnightblue" points="341.88,-394.46 352.48,-394.67 344.33,-387.9 341.88,-394.46"/>
</g>
<!-- Node38 -->
<g id="node12" class="node">
<title>Node38</title>
<g id="a_node12"><a xlink:href="structRtcmDecoder.html#a187d2bf36da0d4de61f4c603b203b09f" target="_top" xlink:title=" ">
<polygon fill="white" stroke="red" points="356.5,-316.5 356.5,-335.5 488.5,-335.5 488.5,-316.5 356.5,-316.5"/>
<text text-anchor="middle" x="422.5" y="-323.5" font-family="Helvetica,sans-Serif" font-size="10.00">RtcmDecoder::decodeSSR</text>
</a>
</g>
</g>
<!-- Node3&#45;&gt;Node38 -->
<g id="edge15" class="edge">
<title>Node3&#45;&gt;Node38</title>
<path fill="none" stroke="midnightblue" d="M292.03,-313.22C309.34,-314.93 328.29,-316.8 346.22,-318.57"/>
<polygon fill="midnightblue" stroke="midnightblue" points="346.05,-322.07 356.35,-319.57 346.74,-315.1 346.05,-322.07"/>
</g>
<!-- Node44 -->
<g id="node13" class="node">
<title>Node44</title>
<g id="a_node13"><a xlink:href="structRtcmEncoder.html#aec43680779bba008687e1f4f792960e1" target="_top" xlink:title=" ">
<polygon fill="white" stroke="red" points="328,-202.5 328,-221.5 517,-221.5 517,-202.5 328,-202.5"/>
<text text-anchor="middle" x="422.5" y="-209.5" font-family="Helvetica,sans-Serif" font-size="10.00">RtcmEncoder::encodeTimeStampRTCM</text>
</a>
</g>
</g>
<!-- Node3&#45;&gt;Node44 -->
<g id="edge18" class="edge">
<title>Node3&#45;&gt;Node44</title>
<path fill="none" stroke="midnightblue" d="M239.44,-297.46C256.63,-282.26 292.54,-252.55 328,-236 338.22,-231.23 349.53,-227.31 360.64,-224.12"/>
<polygon fill="midnightblue" stroke="midnightblue" points="361.59,-227.49 370.33,-221.51 359.76,-220.73 361.59,-227.49"/>
</g>
<!-- Node47 -->
<g id="node14" class="node">
<title>Node47</title>
<g id="a_node14"><a xlink:href="structRtcmEncoder.html#ac3796c0618a67c888d1d06cc0f055c12" target="_top" xlink:title=" ">
<polygon fill="white" stroke="black" points="355.5,-153 355.5,-183 489.5,-183 489.5,-153 355.5,-153"/>
<text text-anchor="start" x="363.5" y="-171" font-family="Helvetica,sans-Serif" font-size="10.00">RtcmEncoder::encodeWrite</text>
<text text-anchor="middle" x="422.5" y="-160" font-family="Helvetica,sans-Serif" font-size="10.00">Messages</text>
</a>
</g>
</g>
<!-- Node3&#45;&gt;Node47 -->
<g id="edge19" class="edge">
<title>Node3&#45;&gt;Node47</title>
<path fill="none" stroke="midnightblue" d="M234.56,-297.34C247.77,-275.27 283.32,-220.92 328,-193 333.42,-189.61 339.3,-186.68 345.38,-184.14"/>
<polygon fill="midnightblue" stroke="midnightblue" points="346.95,-187.29 355.06,-180.46 344.46,-180.74 346.95,-187.29"/>
</g>
<!-- Node48 -->
<g id="node15" class="node">
<title>Node48</title>
<g id="a_node15"><a xlink:href="structRtcmDecoder.html#a26525622756ebcbb60d90c2bf27ac899" target="_top" xlink:title=" ">
<polygon fill="white" stroke="black" points="553,-272.5 553,-291.5 696,-291.5 696,-272.5 553,-272.5"/>
<text text-anchor="middle" x="624.5" y="-279.5" font-family="Helvetica,sans-Serif" font-size="10.00">RtcmDecoder::message_type</text>
</a>
</g>
</g>
<!-- Node3&#45;&gt;Node48 -->
<g id="edge23" class="edge">
<title>Node3&#45;&gt;Node48</title>
<path fill="none" stroke="midnightblue" d="M250.89,-297.43C270.62,-289.36 300.64,-278.44 328,-274 399.95,-262.32 483.02,-266.07 542.73,-271.71"/>
<polygon fill="midnightblue" stroke="midnightblue" points="542.56,-275.21 552.85,-272.71 543.24,-268.25 542.56,-275.21"/>
</g>
<!-- Node49 -->
<g id="node16" class="node">
<title>Node49</title>
<g id="a_node16"><a xlink:href="structRtcmTrace.html#a4b1c85cac6c9887a50ce3f059e4570bc" target="_top" xlink:title=" ">
<polygon fill="white" stroke="black" points="348,-114.5 348,-133.5 497,-133.5 497,-114.5 348,-114.5"/>
<text text-anchor="middle" x="422.5" y="-121.5" font-family="Helvetica,sans-Serif" font-size="10.00">RtcmTrace::messageRtcmLog</text>
</a>
</g>
</g>
<!-- Node3&#45;&gt;Node49 -->
<g id="edge25" class="edge">
<title>Node3&#45;&gt;Node49</title>
<path fill="none" stroke="midnightblue" d="M231.79,-297.33C240.58,-268.63 270.65,-183.43 328,-143 331.26,-140.7 334.73,-138.67 338.34,-136.87"/>
<polygon fill="midnightblue" stroke="midnightblue" points="339.81,-140.05 347.59,-132.87 337.02,-133.63 339.81,-140.05"/>
</g>
<!-- Node12 -->
<g id="node17" class="node">
<title>Node12</title>
<g id="a_node17"><a xlink:href="structGTime.html#aaa8a379d11cd6c040a6bbe680c0e913e" target="_top" xlink:title="Uninitialised time for comparisons.">
<polygon fill="white" stroke="black" points="381,-76.5 381,-95.5 464,-95.5 464,-76.5 381,-76.5"/>
<text text-anchor="middle" x="422.5" y="-83.5" font-family="Helvetica,sans-Serif" font-size="10.00">GTime::noTime</text>
</a>
</g>
</g>
<!-- Node3&#45;&gt;Node12 -->
<g id="edge26" class="edge">
<title>Node3&#45;&gt;Node12</title>
<path fill="none" stroke="midnightblue" d="M230.69,-297.07C236.89,-263.92 261.55,-156.34 328,-105 340.14,-95.62 355.74,-90.54 370.7,-87.88"/>
<polygon fill="midnightblue" stroke="midnightblue" points="371.51,-91.3 380.9,-86.4 370.5,-84.37 371.51,-91.3"/>
</g>
<!-- Node50 -->
<g id="node18" class="node">
<title>Node50</title>
<g id="a_node18"><a xlink:href="acsConfig_8cpp.html#a4384ae3d8da08f4e8562857e46291559" target="_top" xlink:title="search for and replace section of string">
<polygon fill="white" stroke="black" points="385.5,-38.5 385.5,-57.5 459.5,-57.5 459.5,-38.5 385.5,-38.5"/>
<text text-anchor="middle" x="422.5" y="-45.5" font-family="Helvetica,sans-Serif" font-size="10.00">replaceString</text>
</a>
</g>
</g>
<!-- Node3&#45;&gt;Node50 -->
<g id="edge27" class="edge">
<title>Node3&#45;&gt;Node50</title>
<path fill="none" stroke="midnightblue" d="M229.84,-297.35C233.54,-260.8 251.87,-129.83 328,-67 341.12,-56.17 358.76,-50.97 375.18,-48.63"/>
<polygon fill="midnightblue" stroke="midnightblue" points="375.64,-52.1 385.19,-47.52 374.87,-45.14 375.64,-52.1"/>
</g>
<!-- Node51 -->
<g id="node19" class="node">
<title>Node51</title>
<g id="a_node19"><a xlink:href="structGTime.html#a64394968bbfdecbbeec4ba5134fdb682" target="_top" xlink:title=" ">
<polygon fill="white" stroke="red" points="378.5,-0.5 378.5,-19.5 466.5,-19.5 466.5,-0.5 378.5,-0.5"/>
<text text-anchor="middle" x="422.5" y="-7.5" font-family="Helvetica,sans-Serif" font-size="10.00">GTime::to_string</text>
</a>
</g>
</g>
<!-- Node3&#45;&gt;Node51 -->
<g id="edge28" class="edge">
<title>Node3&#45;&gt;Node51</title>
<path fill="none" stroke="midnightblue" d="M229.24,-297.27C230.78,-257.16 242.28,-103.36 328,-29 339.18,-19.3 353.95,-14.06 368.44,-11.34"/>
<polygon fill="midnightblue" stroke="midnightblue" points="369.02,-14.79 378.38,-9.84 367.97,-7.87 369.02,-14.79"/>
</g>
<!-- Node5&#45;&gt;Node6 -->
<g id="edge5" class="edge">
<title>Node5&#45;&gt;Node6</title>
<path fill="none" stroke="midnightblue" d="M486.82,-480.49C497.11,-478 507.49,-474.88 517,-471 549.84,-457.59 583.49,-433.76 603.95,-417.91"/>
<polygon fill="midnightblue" stroke="midnightblue" points="606.19,-420.61 611.87,-411.67 601.85,-415.11 606.19,-420.61"/>
</g>
<!-- Node6&#45;&gt;Node7 -->
<g id="edge6" class="edge">
<title>Node6&#45;&gt;Node7</title>
<path fill="none" stroke="midnightblue" d="M654.02,-397.12C674.13,-393.67 701.1,-389.06 721.96,-385.49"/>
<polygon fill="midnightblue" stroke="midnightblue" points="722.68,-388.91 731.94,-383.78 721.49,-382.01 722.68,-388.91"/>
</g>
<!-- Node8&#45;&gt;Node6 -->
<g id="edge8" class="edge">
<title>Node8&#45;&gt;Node6</title>
<path fill="none" stroke="midnightblue" d="M491.77,-430.98C522.84,-424.15 558.47,-416.31 584.83,-410.51"/>
<polygon fill="midnightblue" stroke="midnightblue" points="585.79,-413.88 594.81,-408.31 584.29,-407.04 585.79,-413.88"/>
</g>
<!-- Node9&#45;&gt;Node6 -->
<g id="edge10" class="edge">
<title>Node9&#45;&gt;Node6</title>
<path fill="none" stroke="midnightblue" d="M473.71,-373.54C508.12,-380.08 553.09,-388.62 584.75,-394.64"/>
<polygon fill="midnightblue" stroke="midnightblue" points="584.46,-398.14 594.94,-396.57 585.76,-391.27 584.46,-398.14"/>
</g>
<!-- Node9&#45;&gt;Node27 -->
<g id="edge11" class="edge">
<title>Node9&#45;&gt;Node27</title>
<path fill="none" stroke="midnightblue" d="M501.68,-355.4C518.92,-353.5 537.07,-351.51 553.94,-349.65"/>
<polygon fill="midnightblue" stroke="midnightblue" points="554.7,-353.09 564.26,-348.52 553.94,-346.13 554.7,-353.09"/>
</g>
<!-- Node27&#45;&gt;Node7 -->
<g id="edge12" class="edge">
<title>Node27&#45;&gt;Node7</title>
<path fill="none" stroke="midnightblue" d="M676.29,-357.02C691.6,-361.55 707.99,-366.39 721.75,-370.46"/>
<polygon fill="midnightblue" stroke="midnightblue" points="721.11,-373.92 731.69,-373.4 723.1,-367.21 721.11,-373.92"/>
</g>
<!-- Node31&#45;&gt;Node6 -->
<g id="edge14" class="edge">
<title>Node31&#45;&gt;Node6</title>
<path fill="none" stroke="midnightblue" d="M492.61,-402C523.37,-402 558.46,-402 584.56,-402"/>
<polygon fill="midnightblue" stroke="midnightblue" points="584.8,-405.5 594.8,-402 584.8,-398.5 584.8,-405.5"/>
</g>
<!-- Node38&#45;&gt;Node6 -->
<g id="edge16" class="edge">
<title>Node38&#45;&gt;Node6</title>
<path fill="none" stroke="midnightblue" d="M485.18,-335.54C495.96,-338.05 506.94,-341.16 517,-345 534.31,-351.6 536.75,-357.12 553,-366 566.55,-373.4 581.79,-381.24 594.62,-387.71"/>
<polygon fill="midnightblue" stroke="midnightblue" points="593.39,-391.01 603.9,-392.36 596.52,-384.75 593.39,-391.01"/>
</g>
<!-- Node38&#45;&gt;Node27 -->
<g id="edge17" class="edge">
<title>Node38&#45;&gt;Node27</title>
<path fill="none" stroke="midnightblue" d="M488.71,-331.22C509.67,-332.89 532.97,-334.76 554.21,-336.46"/>
<polygon fill="midnightblue" stroke="midnightblue" points="554.21,-339.97 564.46,-337.28 554.77,-332.99 554.21,-339.97"/>
</g>
<!-- Node48&#45;&gt;Node7 -->
<g id="edge24" class="edge">
<title>Node48&#45;&gt;Node7</title>
<path fill="none" stroke="midnightblue" d="M650.26,-291.63C664.38,-297.75 682.01,-306.5 696,-317 713.36,-330.03 729.79,-348.69 740.7,-362.32"/>
<polygon fill="midnightblue" stroke="midnightblue" points="738.12,-364.7 747.02,-370.44 743.64,-360.4 738.12,-364.7"/>
</g>
</g>
</svg>
        <g id="navigator" transform="translate(0 0)" fill="#404254">
                <rect fill="#f2f5e9" fill-opacity="0.5" stroke="#606060" stroke-width=".5" x="0" y="0" width="60" height="60"/>
                <use id="zoomplus" xlink:href="#zoomPlus" x="17" y="9" onmousedown="handleZoom(evt,'in')"/>
                <use id="zoomminus" xlink:href="#zoomMin" x="42" y="9" onmousedown="handleZoom(evt,'out')"/>
                <use id="reset" xlink:href="#resetDef" x="30" y="36" onmousedown="handleReset()"/>
                <g id="arrowUp" xlink:href="#dirArrow" transform="translate(30 24)" onmousedown="handlePan(0,-1)">
                  <use xlink:href="#rim" fill="#404040">
                        <set attributeName="fill" to="#808080" begin="arrowUp.mouseover" end="arrowUp.mouseout"/>
                  </use>
                  <path fill="none" stroke="white" stroke-width="1.5" d="M0,-3.0v7 M-2.5,-0.5L0,-3.0L2.5,-0.5"/>
                </g>
                <g id="arrowRight" xlink:href="#dirArrow" transform="rotate(90) translate(36 -43)" onmousedown="handlePan(1,0)">
                  <use xlink:href="#rim" fill="#404040">
                        <set attributeName="fill" to="#808080" begin="arrowRight.mouseover" end="arrowRight.mouseout"/>
                  </use>
                  <path fill="none" stroke="white" stroke-width="1.5" d="M0,-3.0v7 M-2.5,-0.5L0,-3.0L2.5,-0.5"/>
                </g>
                <g id="arrowDown" xlink:href="#dirArrow" transform="rotate(180) translate(-30 -48)" onmousedown="handlePan(0,1)">
                  <use xlink:href="#rim" fill="#404040">
                        <set attributeName="fill" to="#808080" begin="arrowDown.mouseover" end="arrowDown.mouseout"/>
                  </use>
                  <path fill="none" stroke="white" stroke-width="1.5" d="M0,-3.0v7 M-2.5,-0.5L0,-3.0L2.5,-0.5"/>
                </g>
                <g id="arrowLeft" xlink:href="#dirArrow" transform="rotate(270) translate(-36 17)" onmousedown="handlePan(-1,0)">
                  <use xlink:href="#rim" fill="#404040">
                        <set attributeName="fill" to="#808080" begin="arrowLeft.mouseover" end="arrowLeft.mouseout"/>
                  </use>
                  <path fill="none" stroke="white" stroke-width="1.5" d="M0,-3.0v7 M-2.5,-0.5L0,-3.0L2.5,-0.5"/>
                </g>
        </g>
        <svg viewBox="0 0 15 15" width="100%" height="30px" preserveAspectRatio="xMaxYMin meet">
         <g id="arrow_out" transform="scale(0.3 0.3)">
          <a xlink:href="structNtripRtcmStream_aa25d7e4eec397879e43cde5ac97e80bc_cgraph_org.svg" target="_base">
           <rect id="button" ry="5" rx="5" y="6" x="6" height="38" width="38"
                fill="#f2f5e9" fill-opacity="0.5" stroke="#606060" stroke-width="1.0"/>
           <path id="arrow"
             d="M 11.500037,31.436501 C 11.940474,20.09759 22.043105,11.32322 32.158766,21.979434 L 37.068811,17.246167 C 37.068811,17.246167 37.088388,32 37.088388,32 L 22.160133,31.978069 C 22.160133,31.978069 26.997745,27.140456 26.997745,27.140456 C 18.528582,18.264221 13.291696,25.230495 11.500037,31.436501 z"
             style="fill:#404040;"/>
          </a>
         </g>
        </svg>
</svg>
