<?xml version="1.0" encoding="UTF-8" standalone="no"?>
<!DOCTYPE svg PUBLIC "-//W3C//DTD SVG 1.1//EN"
 "http://www.w3.org/Graphics/SVG/1.1/DTD/svg11.dtd">
<!-- Generated by graphviz version 2.50.0 (20220203.2022)
 -->
<!-- Title: ObsStream::getObs Pages: 1 -->
<svg width="248pt" height="104pt"
 viewBox="0.00 0.00 248.00 104.00" xmlns="http://www.w3.org/2000/svg" xmlns:xlink="http://www.w3.org/1999/xlink">
<g id="graph0" class="graph" transform="scale(1 1) rotate(0) translate(4 100)">
<title>ObsStream::getObs</title>
<polygon fill="white" stroke="transparent" points="-4,4 -4,-100 244,-100 244,4 -4,4"/>
<!-- Node1 -->
<g id="node1" class="node">
<title>Node1</title>
<g id="a_node1"><a xlink:title="Return a list of observations from the stream, with a specified timestamp.">
<polygon fill="#bfbfbf" stroke="black" points="0,-38.5 0,-57.5 102,-57.5 102,-38.5 0,-38.5"/>
<text text-anchor="middle" x="51" y="-45.5" font-family="Helvetica,sans-Serif" font-size="10.00">ObsStream::getObs</text>
</a>
</g>
</g>
<!-- Node2 -->
<g id="node2" class="node">
<title>Node2</title>
<g id="a_node2"><a xlink:href="structObsStream.html#a3b3648eec3b950447ed844f09589d20a" target="_top" xlink:title="Remove some observations from memory.">
<polygon fill="white" stroke="black" points="138,-76.5 138,-95.5 240,-95.5 240,-76.5 138,-76.5"/>
<text text-anchor="middle" x="189" y="-83.5" font-family="Helvetica,sans-Serif" font-size="10.00">ObsStream::eatObs</text>
</a>
</g>
</g>
<!-- Node1&#45;&gt;Node2 -->
<g id="edge1" class="edge">
<title>Node1&#45;&gt;Node2</title>
<path fill="none" stroke="midnightblue" d="M86.32,-57.59C103.79,-62.47 125.24,-68.46 143.93,-73.68"/>
<polygon fill="midnightblue" stroke="midnightblue" points="143.12,-77.09 153.69,-76.41 145,-70.35 143.12,-77.09"/>
</g>
<!-- Node3 -->
<g id="node3" class="node">
<title>Node3</title>
<g id="a_node3"><a xlink:href="structObsStream.html#a72abbf0503505bc3f1a2c45f0dd5ae95" target="_top" xlink:title="Return a list of observations from the stream.">
<polygon fill="white" stroke="black" points="138,-38.5 138,-57.5 240,-57.5 240,-38.5 138,-38.5"/>
<text text-anchor="middle" x="189" y="-45.5" font-family="Helvetica,sans-Serif" font-size="10.00">ObsStream::getObs</text>
</a>
</g>
</g>
<!-- Node1&#45;&gt;Node3 -->
<g id="edge2" class="edge">
<title>Node1&#45;&gt;Node3</title>
<path fill="none" stroke="midnightblue" d="M102.25,-48C110.54,-48 119.2,-48 127.7,-48"/>
<polygon fill="midnightblue" stroke="midnightblue" points="127.95,-51.5 137.95,-48 127.95,-44.5 127.95,-51.5"/>
</g>
<!-- Node4 -->
<g id="node4" class="node">
<title>Node4</title>
<g id="a_node4"><a xlink:href="structGTime.html#aaa8a379d11cd6c040a6bbe680c0e913e" target="_top" xlink:title="Uninitialised time for comparisons.">
<polygon fill="white" stroke="black" points="147.5,-0.5 147.5,-19.5 230.5,-19.5 230.5,-0.5 147.5,-0.5"/>
<text text-anchor="middle" x="189" y="-7.5" font-family="Helvetica,sans-Serif" font-size="10.00">GTime::noTime</text>
</a>
</g>
</g>
<!-- Node1&#45;&gt;Node4 -->
<g id="edge3" class="edge">
<title>Node1&#45;&gt;Node4</title>
<path fill="none" stroke="midnightblue" d="M86.32,-38.41C103.79,-33.53 125.24,-27.54 143.93,-22.32"/>
<polygon fill="midnightblue" stroke="midnightblue" points="145,-25.65 153.69,-19.59 143.12,-18.91 145,-25.65"/>
</g>
</g>
</svg>
