<?xml version="1.0" encoding="UTF-8" standalone="no"?>
<!DOCTYPE svg PUBLIC "-//W3C//DTD SVG 1.1//EN"
 "http://www.w3.org/Graphics/SVG/1.1/DTD/svg11.dtd">
<!-- Generated by graphviz version 2.50.0 (20220203.2022)
 -->
<!-- Title: RtcmStream Pages: 1 -->
<svg width="300pt" height="196pt"
 viewBox="0.00 0.00 299.50 196.00" xmlns="http://www.w3.org/2000/svg" xmlns:xlink="http://www.w3.org/1999/xlink">
<g id="graph0" class="graph" transform="scale(1 1) rotate(0) translate(4 192)">
<title>RtcmStream</title>
<polygon fill="white" stroke="transparent" points="-4,4 -4,-192 295.5,-192 295.5,4 -4,4"/>
<!-- Node1 -->
<g id="node1" class="node">
<title>Node1</title>
<g id="a_node1"><a xlink:title=" ">
<polygon fill="#bfbfbf" stroke="black" points="81.5,-56.5 81.5,-75.5 152.5,-75.5 152.5,-56.5 81.5,-56.5"/>
<text text-anchor="middle" x="117" y="-63.5" font-family="Helvetica,sans-Serif" font-size="10.00">RtcmStream</text>
</a>
</g>
</g>
<!-- Node7 -->
<g id="node7" class="node">
<title>Node7</title>
<g id="a_node7"><a xlink:href="structFileRtcmStream.html" target="_top" xlink:title="Object that streams RTCM data from a file.">
<polygon fill="white" stroke="black" points="19.5,-0.5 19.5,-19.5 106.5,-19.5 106.5,-0.5 19.5,-0.5"/>
<text text-anchor="middle" x="63" y="-7.5" font-family="Helvetica,sans-Serif" font-size="10.00">FileRtcmStream</text>
</a>
</g>
</g>
<!-- Node1&#45;&gt;Node7 -->
<g id="edge6" class="edge">
<title>Node1&#45;&gt;Node7</title>
<path fill="none" stroke="midnightblue" d="M101,-49C91.43,-39.43 79.64,-27.64 71.75,-19.75"/>
<polygon fill="midnightblue" stroke="midnightblue" points="98.54,-51.49 108.08,-56.08 103.49,-46.54 98.54,-51.49"/>
</g>
<!-- Node8 -->
<g id="node8" class="node">
<title>Node8</title>
<g id="a_node8"><a xlink:href="structNtripRtcmStream.html" target="_top" xlink:title="Object that streams RTCM data from NTRIP castors.">
<polygon fill="white" stroke="black" points="125,-0.5 125,-19.5 217,-19.5 217,-0.5 125,-0.5"/>
<text text-anchor="middle" x="171" y="-7.5" font-family="Helvetica,sans-Serif" font-size="10.00">NtripRtcmStream</text>
</a>
</g>
</g>
<!-- Node1&#45;&gt;Node8 -->
<g id="edge7" class="edge">
<title>Node1&#45;&gt;Node8</title>
<path fill="none" stroke="midnightblue" d="M133,-49C142.57,-39.43 154.36,-27.64 162.25,-19.75"/>
<polygon fill="midnightblue" stroke="midnightblue" points="130.51,-46.54 125.92,-56.08 135.46,-51.49 130.51,-46.54"/>
</g>
<!-- Node2 -->
<g id="node2" class="node">
<title>Node2</title>
<g id="a_node2"><a xlink:href="structObsStream.html" target="_top" xlink:title="Interface for streams that supply observations.">
<polygon fill="white" stroke="black" points="0,-112.5 0,-131.5 66,-131.5 66,-112.5 0,-112.5"/>
<text text-anchor="middle" x="33" y="-119.5" font-family="Helvetica,sans-Serif" font-size="10.00">ObsStream</text>
</a>
</g>
</g>
<!-- Node2&#45;&gt;Node1 -->
<g id="edge1" class="edge">
<title>Node2&#45;&gt;Node1</title>
<path fill="none" stroke="midnightblue" d="M54.93,-106.9C70.34,-97 90.45,-84.07 103.54,-75.65"/>
<polygon fill="midnightblue" stroke="midnightblue" points="53.02,-103.97 46.5,-112.32 56.8,-109.86 53.02,-103.97"/>
</g>
<!-- Node3 -->
<g id="node3" class="node">
<title>Node3</title>
<g id="a_node3"><a xlink:href="structNavStream.html" target="_top" xlink:title="Interface for objects that provide navigation data.">
<polygon fill="white" stroke="black" points="84,-112.5 84,-131.5 150,-131.5 150,-112.5 84,-112.5"/>
<text text-anchor="middle" x="117" y="-119.5" font-family="Helvetica,sans-Serif" font-size="10.00">NavStream</text>
</a>
</g>
</g>
<!-- Node3&#45;&gt;Node1 -->
<g id="edge2" class="edge">
<title>Node3&#45;&gt;Node1</title>
<path fill="none" stroke="midnightblue" d="M117,-101.8C117,-92.91 117,-82.78 117,-75.75"/>
<polygon fill="midnightblue" stroke="midnightblue" points="113.5,-102.08 117,-112.08 120.5,-102.08 113.5,-102.08"/>
</g>
<!-- Node4 -->
<g id="node4" class="node">
<title>Node4</title>
<g id="a_node4"><a xlink:href="structRtcmDecoder.html" target="_top" xlink:title=" ">
<polygon fill="white" stroke="black" points="168,-112.5 168,-131.5 244,-131.5 244,-112.5 168,-112.5"/>
<text text-anchor="middle" x="206" y="-119.5" font-family="Helvetica,sans-Serif" font-size="10.00">RtcmDecoder</text>
</a>
</g>
</g>
<!-- Node4&#45;&gt;Node1 -->
<g id="edge3" class="edge">
<title>Node4&#45;&gt;Node1</title>
<path fill="none" stroke="midnightblue" d="M182.76,-106.9C166.44,-97 145.13,-84.07 131.26,-75.65"/>
<polygon fill="midnightblue" stroke="midnightblue" points="181.34,-110.13 191.7,-112.32 184.97,-104.14 181.34,-110.13"/>
</g>
<!-- Node5 -->
<g id="node5" class="node">
<title>Node5</title>
<g id="a_node5"><a xlink:href="structRtcmTrace.html" target="_top" xlink:title=" ">
<polygon fill="white" stroke="black" points="127.5,-168.5 127.5,-187.5 192.5,-187.5 192.5,-168.5 127.5,-168.5"/>
<text text-anchor="middle" x="160" y="-175.5" font-family="Helvetica,sans-Serif" font-size="10.00">RtcmTrace</text>
</a>
</g>
</g>
<!-- Node5&#45;&gt;Node4 -->
<g id="edge4" class="edge">
<title>Node5&#45;&gt;Node4</title>
<path fill="none" stroke="midnightblue" d="M174.11,-160.43C182.18,-150.97 191.96,-139.48 198.55,-131.75"/>
<polygon fill="midnightblue" stroke="midnightblue" points="171.42,-158.2 167.6,-168.08 176.75,-162.74 171.42,-158.2"/>
</g>
<!-- Node6 -->
<g id="node6" class="node">
<title>Node6</title>
<g id="a_node6"><a xlink:href="structRtcmStatistics.html" target="_top" xlink:title=" ">
<polygon fill="white" stroke="black" points="210.5,-168.5 210.5,-187.5 291.5,-187.5 291.5,-168.5 210.5,-168.5"/>
<text text-anchor="middle" x="251" y="-175.5" font-family="Helvetica,sans-Serif" font-size="10.00">RtcmStatistics</text>
</a>
</g>
</g>
<!-- Node6&#45;&gt;Node4 -->
<g id="edge5" class="edge">
<title>Node6&#45;&gt;Node4</title>
<path fill="none" stroke="midnightblue" d="M236.95,-160.14C229.11,-150.74 219.67,-139.4 213.29,-131.75"/>
<polygon fill="midnightblue" stroke="midnightblue" points="234.48,-162.64 243.57,-168.08 239.86,-158.16 234.48,-162.64"/>
</g>
</g>
</svg>
