<?xml version="1.0" encoding="UTF-8" standalone="no"?>
<!DOCTYPE svg PUBLIC "-//W3C//DTD SVG 1.1//EN"
 "http://www.w3.org/Graphics/SVG/1.1/DTD/svg11.dtd">
<!-- Generated by graphviz version 2.50.0 (20220203.2022)
 -->
<!-- Title: FileRtcmStream::FileRtcmStream Pages: 1 -->
<svg width="458pt" height="66pt"
 viewBox="0.00 0.00 458.00 66.00" xmlns="http://www.w3.org/2000/svg" xmlns:xlink="http://www.w3.org/1999/xlink">
<g id="graph0" class="graph" transform="scale(1 1) rotate(0) translate(4 62)">
<title>FileRtcmStream::FileRtcmStream</title>
<polygon fill="white" stroke="transparent" points="-4,4 -4,-62 454,-62 454,4 -4,4"/>
<!-- Node1 -->
<g id="node1" class="node">
<title>Node1</title>
<g id="a_node1"><a xlink:title=" ">
<polygon fill="#bfbfbf" stroke="black" points="0,-14 0,-44 131,-44 131,-14 0,-14"/>
<text text-anchor="start" x="8" y="-32" font-family="Helvetica,sans-Serif" font-size="10.00">FileRtcmStream::FileRtcm</text>
<text text-anchor="middle" x="65.5" y="-21" font-family="Helvetica,sans-Serif" font-size="10.00">Stream</text>
</a>
</g>
</g>
<!-- Node2 -->
<g id="node2" class="node">
<title>Node2</title>
<g id="a_node2"><a xlink:href="structFileRtcmStream.html#a3f971a6e868d40ba7079442fed17f22d" target="_top" xlink:title=" ">
<polygon fill="white" stroke="black" points="171.5,-38.5 171.5,-57.5 284.5,-57.5 284.5,-38.5 171.5,-38.5"/>
<text text-anchor="middle" x="228" y="-45.5" font-family="Helvetica,sans-Serif" font-size="10.00">FileRtcmStream::open</text>
</a>
</g>
</g>
<!-- Node1&#45;&gt;Node2 -->
<g id="edge1" class="edge">
<title>Node1&#45;&gt;Node2</title>
<path fill="none" stroke="midnightblue" d="M131.32,-36.67C141.2,-37.84 151.4,-39.05 161.3,-40.22"/>
<polygon fill="midnightblue" stroke="midnightblue" points="161.14,-43.73 171.48,-41.43 161.96,-36.78 161.14,-43.73"/>
</g>
<!-- Node4 -->
<g id="node4" class="node">
<title>Node4</title>
<g id="a_node4"><a xlink:href="structACSFileStream.html#a1554e80ed3bd78311b0b6a1764c054bb" target="_top" xlink:title=" ">
<polygon fill="white" stroke="black" points="167,-0.5 167,-19.5 289,-19.5 289,-0.5 167,-0.5"/>
<text text-anchor="middle" x="228" y="-7.5" font-family="Helvetica,sans-Serif" font-size="10.00">ACSFileStream::setPath</text>
</a>
</g>
</g>
<!-- Node1&#45;&gt;Node4 -->
<g id="edge3" class="edge">
<title>Node1&#45;&gt;Node4</title>
<path fill="none" stroke="midnightblue" d="M131.32,-21.33C139.67,-20.34 148.25,-19.32 156.68,-18.32"/>
<polygon fill="midnightblue" stroke="midnightblue" points="157.35,-21.77 166.87,-17.12 156.53,-14.82 157.35,-21.77"/>
</g>
<!-- Node3 -->
<g id="node3" class="node">
<title>Node3</title>
<g id="a_node3"><a xlink:href="structACSFileStream.html#a58b8f25aa5bcdb840d16acf3f2d8ff8c" target="_top" xlink:title=" ">
<polygon fill="white" stroke="black" points="325,-38.5 325,-57.5 450,-57.5 450,-38.5 325,-38.5"/>
<text text-anchor="middle" x="387.5" y="-45.5" font-family="Helvetica,sans-Serif" font-size="10.00">ACSFileStream::openFile</text>
</a>
</g>
</g>
<!-- Node2&#45;&gt;Node3 -->
<g id="edge2" class="edge">
<title>Node2&#45;&gt;Node3</title>
<path fill="none" stroke="midnightblue" d="M284.53,-48C294.29,-48 304.58,-48 314.71,-48"/>
<polygon fill="midnightblue" stroke="midnightblue" points="314.77,-51.5 324.77,-48 314.77,-44.5 314.77,-51.5"/>
</g>
</g>
</svg>
