<?xml version="1.0" encoding="UTF-8" standalone="no"?>
<!DOCTYPE svg PUBLIC "-//W3C//DTD SVG 1.1//EN"
 "http://www.w3.org/Graphics/SVG/1.1/DTD/svg11.dtd">
<!-- Generated by graphviz version 2.50.0 (20220203.2022)
 -->
<!-- Title: MinimumConstraintOptions Pages: 1 -->
<svg width="206pt" height="173pt"
 viewBox="0.00 0.00 206.00 173.00" xmlns="http://www.w3.org/2000/svg" xmlns:xlink="http://www.w3.org/1999/xlink">
<g id="graph0" class="graph" transform="scale(1 1) rotate(0) translate(4 169)">
<title>MinimumConstraintOptions</title>
<polygon fill="white" stroke="transparent" points="-4,4 -4,-169 202,-169 202,4 -4,4"/>
<!-- Node1 -->
<g id="node1" class="node">
<title>Node1</title>
<g id="a_node1"><a xlink:title="Options associated with the minimum constraints mode of operation.">
<polygon fill="#bfbfbf" stroke="black" points="16.5,-0.5 16.5,-19.5 150.5,-19.5 150.5,-0.5 16.5,-0.5"/>
<text text-anchor="middle" x="83.5" y="-7.5" font-family="Helvetica,sans-Serif" font-size="10.00">MinimumConstraintOptions</text>
</a>
</g>
</g>
<!-- Node2 -->
<g id="node2" class="node">
<title>Node2</title>
<g id="a_node2"><a xlink:title=" ">
<polygon fill="white" stroke="black" points="18,-67.5 18,-97.5 149,-97.5 149,-67.5 18,-67.5"/>
<text text-anchor="start" x="26" y="-85.5" font-family="Helvetica,sans-Serif" font-size="10.00">std::map&lt; string, Minimum</text>
<text text-anchor="middle" x="83.5" y="-74.5" font-family="Helvetica,sans-Serif" font-size="10.00">StationOptions &gt;</text>
</a>
</g>
</g>
<!-- Node2&#45;&gt;Node1 -->
<g id="edge1" class="edge">
<title>Node2&#45;&gt;Node1</title>
<path fill="none" stroke="#9a32cd" stroke-dasharray="5,2" d="M83.5,-57.09C83.5,-44.21 83.5,-29.2 83.5,-19.89"/>
<polygon fill="#9a32cd" stroke="#9a32cd" points="80,-57.23 83.5,-67.23 87,-57.23 80,-57.23"/>
<text text-anchor="middle" x="109" y="-41" font-family="Helvetica,sans-Serif" font-size="10.00"> stationMap</text>
</g>
<!-- Node3 -->
<g id="node3" class="node">
<title>Node3</title>
<g id="a_node3"><a xlink:title=" ">
<polygon fill="white" stroke="red" points="0,-145.5 0,-164.5 59,-164.5 59,-145.5 0,-145.5"/>
<text text-anchor="middle" x="29.5" y="-152.5" font-family="Helvetica,sans-Serif" font-size="10.00">std::string</text>
</a>
</g>
</g>
<!-- Node3&#45;&gt;Node2 -->
<g id="edge2" class="edge">
<title>Node3&#45;&gt;Node2</title>
<path fill="none" stroke="#9a32cd" stroke-dasharray="5,2" d="M42.22,-137.39C51.5,-125.28 63.93,-109.05 72.72,-97.58"/>
<polygon fill="#9a32cd" stroke="#9a32cd" points="39.42,-135.29 36.12,-145.36 44.98,-139.54 39.42,-135.29"/>
<text text-anchor="middle" x="70" y="-119" font-family="Helvetica,sans-Serif" font-size="10.00"> keys</text>
</g>
<!-- Node5 -->
<g id="node4" class="node">
<title>Node5</title>
<g id="a_node4"><a xlink:href="structMinimumStationOptions.html" target="_top" xlink:title="Minimum constraint options for individual receivers.">
<polygon fill="white" stroke="black" points="77,-145.5 77,-164.5 198,-164.5 198,-145.5 77,-145.5"/>
<text text-anchor="middle" x="137.5" y="-152.5" font-family="Helvetica,sans-Serif" font-size="10.00">MinimumStationOptions</text>
</a>
</g>
</g>
<!-- Node5&#45;&gt;Node2 -->
<g id="edge3" class="edge">
<title>Node5&#45;&gt;Node2</title>
<path fill="none" stroke="#9a32cd" stroke-dasharray="5,2" d="M124.78,-137.39C115.5,-125.28 103.07,-109.05 94.28,-97.58"/>
<polygon fill="#9a32cd" stroke="#9a32cd" points="122.02,-139.54 130.88,-145.36 127.58,-135.29 122.02,-139.54"/>
<text text-anchor="middle" x="136" y="-119" font-family="Helvetica,sans-Serif" font-size="10.00"> elements</text>
</g>
</g>
</svg>
