<?xml version="1.0" encoding="UTF-8" standalone="no"?>
<!DOCTYPE svg PUBLIC "-//W3C//DTD SVG 1.1//EN"
 "http://www.w3.org/Graphics/SVG/1.1/DTD/svg11.dtd">
<!-- Generated by graphviz version 2.50.0 (20220203.2022)
 -->
<!-- Title: GravityModel::relativityEffectsAcc Pages: 1 -->
<svg width="238pt" height="52pt"
 viewBox="0.00 0.00 238.00 51.50" xmlns="http://www.w3.org/2000/svg" xmlns:xlink="http://www.w3.org/1999/xlink">
<g id="graph0" class="graph" transform="scale(1 1) rotate(0) translate(4 47.5)">
<title>GravityModel::relativityEffectsAcc</title>
<polygon fill="white" stroke="transparent" points="-4,4 -4,-47.5 234,-47.5 234,4 -4,4"/>
<!-- Node1 -->
<g id="node1" class="node">
<title>Node1</title>
<g id="a_node1"><a xlink:title="Inertial velocity of satellite (m/s)">
<polygon fill="#bfbfbf" stroke="black" points="0,-0.5 0,-30.5 114,-30.5 114,-0.5 0,-0.5"/>
<text text-anchor="start" x="8" y="-18.5" font-family="Helvetica,sans-Serif" font-size="10.00">GravityModel::relativity</text>
<text text-anchor="middle" x="57" y="-7.5" font-family="Helvetica,sans-Serif" font-size="10.00">EffectsAcc</text>
</a>
</g>
</g>
<!-- Node2 -->
<g id="node2" class="node">
<title>Node2</title>
<g id="a_node2"><a xlink:href="namespacepod__yaml.html#a59ea539cabb34ef7985e7e57c4b9dd93" target="_top" xlink:title=" ">
<polygon fill="white" stroke="black" points="150,-6 150,-25 230,-25 230,-6 150,-6"/>
<text text-anchor="middle" x="190" y="-13" font-family="Helvetica,sans-Serif" font-size="10.00">pod_yaml::pow</text>
</a>
</g>
</g>
<!-- Node1&#45;&gt;Node2 -->
<g id="edge1" class="edge">
<title>Node1&#45;&gt;Node2</title>
<path fill="none" stroke="midnightblue" d="M114.32,-15.5C122.7,-15.5 131.29,-15.5 139.53,-15.5"/>
<polygon fill="midnightblue" stroke="midnightblue" points="139.72,-19 149.72,-15.5 139.72,-12 139.72,-19"/>
</g>
<!-- Node2&#45;&gt;Node2 -->
<g id="edge2" class="edge">
<title>Node2&#45;&gt;Node2</title>
<path fill="none" stroke="midnightblue" d="M169.65,-25.26C159.76,-34.07 166.54,-43.5 190,-43.5 205.03,-43.5 213.21,-39.63 214.55,-34.53"/>
<polygon fill="midnightblue" stroke="midnightblue" points="217.67,-32.92 210.35,-25.26 211.29,-35.81 217.67,-32.92"/>
</g>
</g>
</svg>
