<?xml version="1.0" encoding="UTF-8" standalone="no"?>
<!DOCTYPE svg PUBLIC "-//W3C//DTD SVG 1.1//EN"
 "http://www.w3.org/Graphics/SVG/1.1/DTD/svg11.dtd">
<!-- Generated by graphviz version 2.50.0 (20220203.2022)
 -->
<!-- Title: SinexTropSol Pages: 1 -->
<svg width="201pt" height="319pt"
 viewBox="0.00 0.00 200.50 319.00" xmlns="http://www.w3.org/2000/svg" xmlns:xlink="http://www.w3.org/1999/xlink">
<g id="graph0" class="graph" transform="scale(1 1) rotate(0) translate(4 315)">
<title>SinexTropSol</title>
<polygon fill="white" stroke="transparent" points="-4,4 -4,-315 196.5,-315 196.5,4 -4,4"/>
<!-- Node1 -->
<g id="node1" class="node">
<title>Node1</title>
<g id="a_node1"><a xlink:title=" ">
<polygon fill="#bfbfbf" stroke="black" points="9.5,-0.5 9.5,-19.5 83.5,-19.5 83.5,-0.5 9.5,-0.5"/>
<text text-anchor="middle" x="46.5" y="-7.5" font-family="Helvetica,sans-Serif" font-size="10.00">SinexTropSol</text>
</a>
</g>
</g>
<!-- Node2 -->
<g id="node2" class="node">
<title>Node2</title>
<g id="a_node2"><a xlink:title=" ">
<polygon fill="white" stroke="black" points="17,-223.5 17,-242.5 76,-242.5 76,-223.5 17,-223.5"/>
<text text-anchor="middle" x="46.5" y="-230.5" font-family="Helvetica,sans-Serif" font-size="10.00">std::string</text>
</a>
</g>
</g>
<!-- Node2&#45;&gt;Node1 -->
<g id="edge1" class="edge">
<title>Node2&#45;&gt;Node1</title>
<path fill="none" stroke="#9a32cd" stroke-dasharray="5,2" d="M46.5,-213.09C46.5,-167.45 46.5,-52.6 46.5,-19.84"/>
<polygon fill="#9a32cd" stroke="#9a32cd" points="43,-213.34 46.5,-223.34 50,-213.34 43,-213.34"/>
<text text-anchor="middle" x="56" y="-119" font-family="Helvetica,sans-Serif" font-size="10.00"> site</text>
</g>
<!-- Node5 -->
<g id="node5" class="node">
<title>Node5</title>
<g id="a_node5"><a xlink:href="structSinexTropSol_1_1TropSolutionEntry.html" target="_top" xlink:title=" ">
<polygon fill="white" stroke="black" points="58.5,-145.5 58.5,-175.5 192.5,-175.5 192.5,-145.5 58.5,-145.5"/>
<text text-anchor="start" x="66.5" y="-163.5" font-family="Helvetica,sans-Serif" font-size="10.00">SinexTropSol::TropSolution</text>
<text text-anchor="middle" x="125.5" y="-152.5" font-family="Helvetica,sans-Serif" font-size="10.00">Entry</text>
</a>
</g>
</g>
<!-- Node2&#45;&gt;Node5 -->
<g id="edge5" class="edge">
<title>Node2&#45;&gt;Node5</title>
<path fill="none" stroke="#9a32cd" stroke-dasharray="5,2" d="M63.94,-216.44C77.62,-204.23 96.49,-187.39 109.73,-175.58"/>
<polygon fill="#9a32cd" stroke="#9a32cd" points="61.32,-214.09 56.19,-223.36 65.98,-219.31 61.32,-214.09"/>
<text text-anchor="middle" x="98" y="-197" font-family="Helvetica,sans-Serif" font-size="10.00"> type</text>
</g>
<!-- Node3 -->
<g id="node3" class="node">
<title>Node3</title>
<g id="a_node3"><a xlink:title=" ">
<polygon fill="white" stroke="black" points="0,-280.5 0,-310.5 93,-310.5 93,-280.5 0,-280.5"/>
<text text-anchor="start" x="8" y="-298.5" font-family="Helvetica,sans-Serif" font-size="10.00">std::basic_string&lt;</text>
<text text-anchor="middle" x="46.5" y="-287.5" font-family="Helvetica,sans-Serif" font-size="10.00"> Char &gt;</text>
</a>
</g>
</g>
<!-- Node3&#45;&gt;Node2 -->
<g id="edge2" class="edge">
<title>Node3&#45;&gt;Node2</title>
<path fill="none" stroke="midnightblue" d="M46.5,-270.35C46.5,-260.51 46.5,-249.78 46.5,-242.54"/>
<polygon fill="midnightblue" stroke="midnightblue" points="43,-270.47 46.5,-280.47 50,-270.47 43,-270.47"/>
</g>
<!-- Node4 -->
<g id="node4" class="node">
<title>Node4</title>
<g id="a_node4"><a xlink:title=" ">
<polygon fill="white" stroke="black" points="59.5,-67.5 59.5,-97.5 187.5,-97.5 187.5,-67.5 59.5,-67.5"/>
<text text-anchor="start" x="67.5" y="-85.5" font-family="Helvetica,sans-Serif" font-size="10.00">std::vector&lt; SinexTropSol</text>
<text text-anchor="middle" x="123.5" y="-74.5" font-family="Helvetica,sans-Serif" font-size="10.00">::TropSolutionEntry &gt;</text>
</a>
</g>
</g>
<!-- Node4&#45;&gt;Node1 -->
<g id="edge3" class="edge">
<title>Node4&#45;&gt;Node1</title>
<path fill="none" stroke="#9a32cd" stroke-dasharray="5,2" d="M100.17,-60.14C85.44,-46.65 67.19,-29.94 56.21,-19.89"/>
<polygon fill="#9a32cd" stroke="#9a32cd" points="98.18,-63.06 107.92,-67.23 102.91,-57.9 98.18,-63.06"/>
<text text-anchor="middle" x="107.5" y="-41" font-family="Helvetica,sans-Serif" font-size="10.00"> solutions</text>
</g>
<!-- Node5&#45;&gt;Node4 -->
<g id="edge4" class="edge">
<title>Node5&#45;&gt;Node4</title>
<path fill="none" stroke="#9a32cd" stroke-dasharray="5,2" d="M124.86,-135.09C124.53,-122.76 124.15,-108.22 123.87,-97.73"/>
<polygon fill="#9a32cd" stroke="#9a32cd" points="121.36,-135.3 125.12,-145.2 128.36,-135.12 121.36,-135.3"/>
<text text-anchor="middle" x="146" y="-119" font-family="Helvetica,sans-Serif" font-size="10.00"> elements</text>
</g>
</g>
</svg>
