<?xml version="1.0" encoding="UTF-8" standalone="no"?>
<!DOCTYPE svg PUBLIC "-//W3C//DTD SVG 1.1//EN"
 "http://www.w3.org/Graphics/SVG/1.1/DTD/svg11.dtd">
<!-- Generated by graphviz version 2.50.0 (20220203.2022)
 -->
<!-- Title: NtripSocket::delayed_reconnect Pages: 1 -->
<svg width="438pt" height="72pt"
 viewBox="0.00 0.00 438.00 71.50" xmlns="http://www.w3.org/2000/svg" xmlns:xlink="http://www.w3.org/1999/xlink">
<g id="graph0" class="graph" transform="scale(1 1) rotate(0) translate(4 67.5)">
<title>NtripSocket::delayed_reconnect</title>
<polygon fill="white" stroke="transparent" points="-4,4 -4,-67.5 434,-67.5 434,4 -4,4"/>
<!-- Node1 -->
<g id="node1" class="node">
<title>Node1</title>
<g id="a_node1"><a xlink:title=" ">
<polygon fill="#bfbfbf" stroke="black" points="0,-14 0,-44 106,-44 106,-14 0,-14"/>
<text text-anchor="start" x="8" y="-32" font-family="Helvetica,sans-Serif" font-size="10.00">NtripSocket::delayed</text>
<text text-anchor="middle" x="53" y="-21" font-family="Helvetica,sans-Serif" font-size="10.00">_reconnect</text>
</a>
</g>
</g>
<!-- Node2 -->
<g id="node2" class="node">
<title>Node2</title>
<g id="a_node2"><a xlink:href="structNtripSocket.html#a49354df68c2718d6b35ff1e090295979" target="_top" xlink:title=" ">
<polygon fill="white" stroke="black" points="144,-38.5 144,-57.5 264,-57.5 264,-38.5 144,-38.5"/>
<text text-anchor="middle" x="204" y="-45.5" font-family="Helvetica,sans-Serif" font-size="10.00">NtripSocket::disconnect</text>
</a>
</g>
</g>
<!-- Node1&#45;&gt;Node2 -->
<g id="edge1" class="edge">
<title>Node1&#45;&gt;Node2</title>
<path fill="none" stroke="midnightblue" d="M106.11,-35.65C115.05,-36.78 124.46,-37.98 133.76,-39.17"/>
<polygon fill="midnightblue" stroke="midnightblue" points="133.42,-42.66 143.78,-40.45 134.3,-35.71 133.42,-42.66"/>
</g>
<!-- Node4 -->
<g id="node4" class="node">
<title>Node4</title>
<g id="a_node4"><a xlink:href="structNtripSocket.html#a4051a1aa10eb60dc86c9c3e66a898435" target="_top" xlink:title=" ">
<polygon fill="white" stroke="black" points="142,-0.5 142,-19.5 266,-19.5 266,-0.5 142,-0.5"/>
<text text-anchor="middle" x="204" y="-7.5" font-family="Helvetica,sans-Serif" font-size="10.00">NtripSocket::networkLog</text>
</a>
</g>
</g>
<!-- Node1&#45;&gt;Node4 -->
<g id="edge3" class="edge">
<title>Node1&#45;&gt;Node4</title>
<path fill="none" stroke="midnightblue" d="M106.11,-22.35C114.44,-21.29 123.17,-20.18 131.85,-19.07"/>
<polygon fill="midnightblue" stroke="midnightblue" points="132.5,-22.52 141.97,-17.78 131.61,-15.58 132.5,-22.52"/>
</g>
<!-- Node3 -->
<g id="node3" class="node">
<title>Node3</title>
<g id="a_node3"><a xlink:href="structNetworkStatistics.html#a57107ce6502c6bae7dbdc8b76384a442" target="_top" xlink:title=" ">
<polygon fill="white" stroke="black" points="302,-33 302,-63 430,-63 430,-33 302,-33"/>
<text text-anchor="start" x="310" y="-51" font-family="Helvetica,sans-Serif" font-size="10.00">NetworkStatistics::</text>
<text text-anchor="middle" x="366" y="-40" font-family="Helvetica,sans-Serif" font-size="10.00">onDisconnectedStatistics</text>
</a>
</g>
</g>
<!-- Node2&#45;&gt;Node3 -->
<g id="edge2" class="edge">
<title>Node2&#45;&gt;Node3</title>
<path fill="none" stroke="midnightblue" d="M264.12,-48C273.05,-48 282.35,-48 291.53,-48"/>
<polygon fill="midnightblue" stroke="midnightblue" points="291.82,-51.5 301.82,-48 291.82,-44.5 291.82,-51.5"/>
</g>
</g>
</svg>
