<?xml version="1.0" encoding="UTF-8" standalone="no"?>
<!DOCTYPE svg PUBLIC "-//W3C//DTD SVG 1.1//EN"
 "http://www.w3.org/Graphics/SVG/1.1/DTD/svg11.dtd">
<!-- Generated by graphviz version 2.50.0 (20220203.2022)
 -->
<!-- Title: KFMeasEntry::setNoise Pages: 1 -->
<svg width="703pt" height="471pt"
 viewBox="0.00 0.00 703.00 471.24" xmlns="http://www.w3.org/2000/svg" xmlns:xlink="http://www.w3.org/1999/xlink">
<g id="graph0" class="graph" transform="scale(1 1) rotate(0) translate(4 467.24)">
<title>KFMeasEntry::setNoise</title>
<polygon fill="white" stroke="transparent" points="-4,4 -4,-467.24 699,-467.24 699,4 -4,4"/>
<!-- Node1 -->
<g id="node1" class="node">
<title>Node1</title>
<g id="a_node1"><a xlink:title="Adds the measurement noise entry for this measurement.">
<polygon fill="#bfbfbf" stroke="black" points="576,-221.5 576,-240.5 695,-240.5 695,-221.5 576,-221.5"/>
<text text-anchor="middle" x="635.5" y="-228.5" font-family="Helvetica,sans-Serif" font-size="10.00">KFMeasEntry::setNoise</text>
</a>
</g>
</g>
<!-- Node2 -->
<g id="node2" class="node">
<title>Node2</title>
<g id="a_node2"><a xlink:href="GinARNLamb_8cpp.html#ad93bb9c322526f57beacb5aeb5c4e66a" target="_top" xlink:title="Apply archived Z&#45;ambiguities to float solution.">
<polygon fill="white" stroke="black" points="451.5,-430.5 451.5,-449.5 525.5,-449.5 525.5,-430.5 451.5,-430.5"/>
<text text-anchor="middle" x="488.5" y="-437.5" font-family="Helvetica,sans-Serif" font-size="10.00">apply_ambigt</text>
</a>
</g>
</g>
<!-- Node1&#45;&gt;Node2 -->
<g id="edge1" class="edge">
<title>Node1&#45;&gt;Node2</title>
<path fill="none" stroke="midnightblue" d="M629.87,-250.69C619.92,-288.8 593,-373.13 540,-421 535.76,-424.83 530.67,-427.91 525.38,-430.39"/>
<polygon fill="midnightblue" stroke="midnightblue" points="633.3,-251.38 632.33,-240.83 626.51,-249.69 633.3,-251.38"/>
</g>
<!-- Node11 -->
<g id="node5" class="node">
<title>Node11</title>
<g id="a_node5"><a xlink:href="spp_8cpp.html#a939492c482104cf7cdf7597d24b5b8fb" target="_top" xlink:title="Estimate receiver position and biases using code measurements.">
<polygon fill="white" stroke="black" points="465.5,-316.5 465.5,-335.5 511.5,-335.5 511.5,-316.5 465.5,-316.5"/>
<text text-anchor="middle" x="488.5" y="-323.5" font-family="Helvetica,sans-Serif" font-size="10.00">estpos</text>
</a>
</g>
</g>
<!-- Node1&#45;&gt;Node11 -->
<g id="edge4" class="edge">
<title>Node1&#45;&gt;Node11</title>
<path fill="none" stroke="midnightblue" d="M611.19,-246.27C581.05,-266.02 529.45,-299.82 504.24,-316.34"/>
<polygon fill="midnightblue" stroke="midnightblue" points="613.35,-249.04 619.8,-240.63 609.52,-243.18 613.35,-249.04"/>
</g>
<!-- Node14 -->
<g id="node8" class="node">
<title>Node14</title>
<g id="a_node8"><a xlink:href="preceph_8cpp.html#ad8a2ac73c89c0ab95ef7b2812b1cb6d7" target="_top" xlink:title=" ">
<polygon fill="white" stroke="black" points="457.5,-259.5 457.5,-278.5 519.5,-278.5 519.5,-259.5 457.5,-259.5"/>
<text text-anchor="middle" x="488.5" y="-266.5" font-family="Helvetica,sans-Serif" font-size="10.00">interpolate</text>
</a>
</g>
</g>
<!-- Node1&#45;&gt;Node14 -->
<g id="edge8" class="edge">
<title>Node1&#45;&gt;Node14</title>
<path fill="none" stroke="midnightblue" d="M587.94,-243.2C565.59,-249.06 539.45,-255.91 519.72,-261.08"/>
<polygon fill="midnightblue" stroke="midnightblue" points="589.12,-246.51 597.91,-240.59 587.35,-239.74 589.12,-246.51"/>
</g>
<!-- Node15 -->
<g id="node9" class="node">
<title>Node15</title>
<g id="a_node9"><a xlink:href="minimumConstraints_8cpp.html#a6644baa0ee22e2cb52a4975b7d8f218e" target="_top" xlink:title=" ">
<polygon fill="white" stroke="black" points="460.5,-221.5 460.5,-240.5 516.5,-240.5 516.5,-221.5 460.5,-221.5"/>
<text text-anchor="middle" x="488.5" y="-228.5" font-family="Helvetica,sans-Serif" font-size="10.00">minimum</text>
</a>
</g>
</g>
<!-- Node1&#45;&gt;Node15 -->
<g id="edge9" class="edge">
<title>Node1&#45;&gt;Node15</title>
<path fill="none" stroke="midnightblue" d="M565.79,-231C548.44,-231 530.8,-231 516.86,-231"/>
<polygon fill="midnightblue" stroke="midnightblue" points="565.94,-234.5 575.94,-231 565.94,-227.5 565.94,-234.5"/>
</g>
<!-- Node19 -->
<g id="node14" class="node">
<title>Node19</title>
<g id="a_node14"><a xlink:href="networkEstimator_8cpp.html#a36828506971a6b66c6e61db51197c9e1" target="_top" xlink:title="Estimates parameters for a network of stations simultaneously.">
<polygon fill="white" stroke="black" points="296,-114.5 296,-133.5 388,-133.5 388,-114.5 296,-114.5"/>
<text text-anchor="middle" x="342" y="-121.5" font-family="Helvetica,sans-Serif" font-size="10.00">networkEstimator</text>
</a>
</g>
</g>
<!-- Node1&#45;&gt;Node19 -->
<g id="edge17" class="edge">
<title>Node1&#45;&gt;Node19</title>
<path fill="none" stroke="midnightblue" d="M584.36,-219.03C534.71,-206.74 462.51,-187.54 437,-174 418.6,-164.24 419.14,-154.23 401,-144 393.67,-139.87 385.34,-136.38 377.33,-133.53"/>
<polygon fill="midnightblue" stroke="midnightblue" points="583.73,-222.48 594.28,-221.47 585.4,-215.69 583.73,-222.48"/>
</g>
<!-- Node20 -->
<g id="node16" class="node">
<title>Node20</title>
<g id="a_node16"><a xlink:href="ppp__user_8cpp.html#a6840432dd58d1e58178b15080b92bdd8" target="_top" xlink:title=" ">
<polygon fill="white" stroke="black" points="460.5,-69.5 460.5,-88.5 516.5,-88.5 516.5,-69.5 460.5,-69.5"/>
<text text-anchor="middle" x="488.5" y="-76.5" font-family="Helvetica,sans-Serif" font-size="10.00">ppp_filter</text>
</a>
</g>
</g>
<!-- Node1&#45;&gt;Node20 -->
<g id="edge19" class="edge">
<title>Node1&#45;&gt;Node20</title>
<path fill="none" stroke="midnightblue" d="M624.8,-212.57C609.78,-185.5 578.54,-134.76 540,-103 532.88,-97.14 524.09,-92.32 515.85,-88.58"/>
<polygon fill="midnightblue" stroke="midnightblue" points="621.75,-214.28 629.59,-221.4 627.9,-210.94 621.75,-214.28"/>
</g>
<!-- Node22 -->
<g id="node18" class="node">
<title>Node22</title>
<g id="a_node18"><a xlink:href="GinARWLamb_8cpp.html#a6cfe77e4642a57d54c9204244cd403a0" target="_top" xlink:title="Resolve wide&#45;lane ambiguities.">
<polygon fill="white" stroke="black" points="447.5,-392.5 447.5,-411.5 529.5,-411.5 529.5,-392.5 447.5,-392.5"/>
<text text-anchor="middle" x="488.5" y="-399.5" font-family="Helvetica,sans-Serif" font-size="10.00">reslv_WLambg</text>
</a>
</g>
</g>
<!-- Node1&#45;&gt;Node22 -->
<g id="edge21" class="edge">
<title>Node1&#45;&gt;Node22</title>
<path fill="none" stroke="midnightblue" d="M627.37,-250.2C614.6,-282.11 584.89,-346.16 540,-383 535.37,-386.8 529.89,-389.89 524.29,-392.39"/>
<polygon fill="midnightblue" stroke="midnightblue" points="630.7,-251.29 631.05,-240.7 624.17,-248.76 630.7,-251.29"/>
</g>
<!-- Node24 -->
<g id="node20" class="node">
<title>Node24</title>
<g id="a_node20"><a xlink:href="ppppp__pseudoobs_8cpp.html#ab255260e2ca2e89c21d280174f5a5a0b" target="_top" xlink:title=" ">
<polygon fill="white" stroke="black" points="449,-145.5 449,-164.5 528,-164.5 528,-145.5 449,-145.5"/>
<text text-anchor="middle" x="488.5" y="-152.5" font-family="Helvetica,sans-Serif" font-size="10.00">stationPseudo</text>
</a>
</g>
</g>
<!-- Node1&#45;&gt;Node24 -->
<g id="edge24" class="edge">
<title>Node1&#45;&gt;Node24</title>
<path fill="none" stroke="midnightblue" d="M609.05,-216.46C590.16,-205.8 563.67,-191.12 540,-179 530.32,-174.04 519.45,-168.83 510.27,-164.53"/>
<polygon fill="midnightblue" stroke="midnightblue" points="607.51,-219.61 617.93,-221.49 610.96,-213.52 607.51,-219.61"/>
</g>
<!-- Node26 -->
<g id="node22" class="node">
<title>Node26</title>
<g id="a_node22"><a xlink:href="debug_8cpp.html#a8124338bada59afb17fd6633687744f5" target="_top" xlink:title=" ">
<polygon fill="white" stroke="black" points="437,-31.5 437,-50.5 540,-50.5 540,-31.5 437,-31.5"/>
<text text-anchor="middle" x="488.5" y="-38.5" font-family="Helvetica,sans-Serif" font-size="10.00">testOutlierDetection</text>
</a>
</g>
</g>
<!-- Node1&#45;&gt;Node26 -->
<g id="edge27" class="edge">
<title>Node1&#45;&gt;Node26</title>
<path fill="none" stroke="midnightblue" d="M628.69,-211.39C617.31,-176.23 588.85,-102.24 540,-60 535.54,-56.14 530.21,-53.03 524.72,-50.53"/>
<polygon fill="midnightblue" stroke="midnightblue" points="625.47,-212.84 631.79,-221.35 632.16,-210.76 625.47,-212.84"/>
</g>
<!-- Node27 -->
<g id="node23" class="node">
<title>Node27</title>
<g id="a_node23"><a xlink:href="GinARWLamb_8cpp.html#ab95d4f2ff0f6e0d2b92d4d4d14f7f787" target="_top" xlink:title="Update WL filter.">
<polygon fill="white" stroke="black" points="453,-354.5 453,-373.5 524,-373.5 524,-354.5 453,-354.5"/>
<text text-anchor="middle" x="488.5" y="-361.5" font-family="Helvetica,sans-Serif" font-size="10.00">updat_WLfilt</text>
</a>
</g>
</g>
<!-- Node1&#45;&gt;Node27 -->
<g id="edge28" class="edge">
<title>Node1&#45;&gt;Node27</title>
<path fill="none" stroke="midnightblue" d="M623.53,-249.51C607.89,-274.42 576.96,-318.65 540,-345 534.74,-348.75 528.64,-351.86 522.55,-354.4"/>
<polygon fill="midnightblue" stroke="midnightblue" points="626.69,-251.05 628.92,-240.69 620.72,-247.4 626.69,-251.05"/>
</g>
<!-- Node28 -->
<g id="node24" class="node">
<title>Node28</title>
<g id="a_node24"><a xlink:href="ionoModel_8cpp.html#ab85ac3f246b5ef9cc88aa9f195c441a3" target="_top" xlink:title=" ">
<polygon fill="white" stroke="black" points="284,-38.5 284,-57.5 400,-57.5 400,-38.5 284,-38.5"/>
<text text-anchor="middle" x="342" y="-45.5" font-family="Helvetica,sans-Serif" font-size="10.00">update_ionosph_model</text>
</a>
</g>
</g>
<!-- Node1&#45;&gt;Node28 -->
<g id="edge30" class="edge">
<title>Node1&#45;&gt;Node28</title>
<path fill="none" stroke="midnightblue" d="M620.86,-213.18C603.94,-192.15 573.23,-157.33 540,-136 498.94,-109.64 479.05,-122.76 437,-98 418.81,-87.29 419.39,-77.38 401,-67 394.36,-63.25 386.86,-60.11 379.52,-57.53"/>
<polygon fill="midnightblue" stroke="midnightblue" points="618.3,-215.58 627.24,-221.27 623.8,-211.25 618.3,-215.58"/>
</g>
<!-- Node3 -->
<g id="node3" class="node">
<title>Node3</title>
<g id="a_node3"><a xlink:href="GinAR__main_8cpp.html#a5d80c7f56e03c96dc400839ceca50698" target="_top" xlink:title="Ambiguity resolution for network solutions.">
<polygon fill="white" stroke="red" points="146,-430.5 146,-449.5 244,-449.5 244,-430.5 146,-430.5"/>
<text text-anchor="middle" x="195" y="-437.5" font-family="Helvetica,sans-Serif" font-size="10.00">networkAmbigResl</text>
</a>
</g>
</g>
<!-- Node2&#45;&gt;Node3 -->
<g id="edge2" class="edge">
<title>Node2&#45;&gt;Node3</title>
<path fill="none" stroke="midnightblue" d="M442.57,-451.8C429.29,-454.76 414.64,-457.52 401,-459 348.86,-464.66 335.14,-464.63 283,-459 265.78,-457.14 246.98,-453.27 231.27,-449.51"/>
<polygon fill="midnightblue" stroke="midnightblue" points="443.48,-455.18 452.43,-449.51 441.9,-448.36 443.48,-455.18"/>
</g>
<!-- Node6 -->
<g id="node4" class="node">
<title>Node6</title>
<g id="a_node4"><a xlink:href="GinAR__main_8cpp.html#a99547395860accf77f4d3dc4328cb139" target="_top" xlink:title="Ambiguity resolution on smoothed KF solutions.">
<polygon fill="white" stroke="red" points="291.5,-430.5 291.5,-449.5 392.5,-449.5 392.5,-430.5 291.5,-430.5"/>
<text text-anchor="middle" x="342" y="-437.5" font-family="Helvetica,sans-Serif" font-size="10.00">smoothdAmbigResl</text>
</a>
</g>
</g>
<!-- Node2&#45;&gt;Node6 -->
<g id="edge3" class="edge">
<title>Node2&#45;&gt;Node6</title>
<path fill="none" stroke="midnightblue" d="M441.02,-440C425.53,-440 408.23,-440 392.52,-440"/>
<polygon fill="midnightblue" stroke="midnightblue" points="441.41,-443.5 451.41,-440 441.41,-436.5 441.41,-443.5"/>
</g>
<!-- Node12 -->
<g id="node6" class="node">
<title>Node12</title>
<g id="a_node6"><a xlink:href="spp_8cpp.html#a377ec0db0b94700f96e82a487cfe6761" target="_top" xlink:title="Receiver autonomous integrity monitoring (RAIM) failure detection and exclution.">
<polygon fill="white" stroke="black" points="315,-316.5 315,-335.5 369,-335.5 369,-316.5 315,-316.5"/>
<text text-anchor="middle" x="342" y="-323.5" font-family="Helvetica,sans-Serif" font-size="10.00">raim_fde</text>
</a>
</g>
</g>
<!-- Node11&#45;&gt;Node12 -->
<g id="edge5" class="edge">
<title>Node11&#45;&gt;Node12</title>
<path fill="none" stroke="midnightblue" d="M455.15,-326C429.24,-326 393.34,-326 369.21,-326"/>
<polygon fill="midnightblue" stroke="midnightblue" points="455.24,-329.5 465.24,-326 455.24,-322.5 455.24,-329.5"/>
</g>
<!-- Node13 -->
<g id="node7" class="node">
<title>Node13</title>
<g id="a_node7"><a xlink:href="spp_8cpp.html#a80e3d976b8371ffec2003e91fbd86282" target="_top" xlink:title="Compute receiver position, velocity, clock bias by single&#45;point positioning with pseudorange observab...">
<polygon fill="white" stroke="red" points="173.5,-335.5 173.5,-354.5 216.5,-354.5 216.5,-335.5 173.5,-335.5"/>
<text text-anchor="middle" x="195" y="-342.5" font-family="Helvetica,sans-Serif" font-size="10.00">sppos</text>
</a>
</g>
</g>
<!-- Node11&#45;&gt;Node13 -->
<g id="edge7" class="edge">
<title>Node11&#45;&gt;Node13</title>
<path fill="none" stroke="midnightblue" d="M455.3,-334.81C439.14,-338.79 419.18,-343.03 401,-345 333.95,-352.28 253.84,-348.78 216.74,-346.47"/>
<polygon fill="midnightblue" stroke="midnightblue" points="456.49,-338.12 465.32,-332.26 454.76,-331.34 456.49,-338.12"/>
</g>
<!-- Node12&#45;&gt;Node13 -->
<g id="edge6" class="edge">
<title>Node12&#45;&gt;Node13</title>
<path fill="none" stroke="midnightblue" d="M304.64,-330.76C276.94,-334.39 239.79,-339.26 216.9,-342.26"/>
<polygon fill="midnightblue" stroke="midnightblue" points="305.28,-334.21 314.74,-329.44 304.37,-327.27 305.28,-334.21"/>
</g>
<!-- Node10 -->
<g id="node10" class="node">
<title>Node10</title>
<g id="a_node10"><a xlink:href="main_8cpp.html#a93c49123b4afe8e199430439fd682acd" target="_top" xlink:title=" ">
<polygon fill="white" stroke="black" points="288.5,-278.5 288.5,-297.5 395.5,-297.5 395.5,-278.5 288.5,-278.5"/>
<text text-anchor="middle" x="342" y="-285.5" font-family="Helvetica,sans-Serif" font-size="10.00">mainPostProcessing</text>
</a>
</g>
</g>
<!-- Node15&#45;&gt;Node10 -->
<g id="edge10" class="edge">
<title>Node15&#45;&gt;Node10</title>
<path fill="none" stroke="midnightblue" d="M452.16,-244.17C447.06,-246.11 441.89,-248.09 437,-250 412.73,-259.47 385.1,-270.69 366.12,-278.47"/>
<polygon fill="midnightblue" stroke="midnightblue" points="453.64,-247.35 461.76,-240.55 451.17,-240.8 453.64,-247.35"/>
</g>
<!-- Node16 -->
<g id="node11" class="node">
<title>Node16</title>
<g id="a_node11"><a xlink:href="namespaceyaml__settings.html#ac9d7a5ebee43ae709c9fb9ae6e59a483" target="_top" xlink:title=" ">
<polygon fill="white" stroke="black" points="0,-218.5 0,-237.5 107,-237.5 107,-218.5 0,-218.5"/>
<text text-anchor="middle" x="53.5" y="-225.5" font-family="Helvetica,sans-Serif" font-size="10.00">yaml_settings::option</text>
</a>
</g>
</g>
<!-- Node15&#45;&gt;Node16 -->
<g id="edge11" class="edge">
<title>Node15&#45;&gt;Node16</title>
<path fill="none" stroke="midnightblue" d="M450.14,-231.53C434.9,-231.72 417.11,-231.91 401,-232 286.33,-232.66 257.64,-233.35 143,-231 131.47,-230.76 119.1,-230.41 107.37,-230.02"/>
<polygon fill="midnightblue" stroke="midnightblue" points="450.28,-235.02 460.23,-231.4 450.19,-228.03 450.28,-235.02"/>
</g>
<!-- Node17 -->
<g id="node12" class="node">
<title>Node17</title>
<g id="a_node12"><a xlink:href="namespaceyaml__settings.html#af06e8e4d30d8e2a7bda90429f30edc4e" target="_top" xlink:title=" ">
<polygon fill="white" stroke="black" points="283,-153 283,-183 401,-183 401,-153 283,-153"/>
<text text-anchor="start" x="291" y="-171" font-family="Helvetica,sans-Serif" font-size="10.00">yaml_settings::type</text>
<text text-anchor="middle" x="342" y="-160" font-family="Helvetica,sans-Serif" font-size="10.00">_integer_setting_create</text>
</a>
</g>
</g>
<!-- Node15&#45;&gt;Node17 -->
<g id="edge13" class="edge">
<title>Node15&#45;&gt;Node17</title>
<path fill="none" stroke="midnightblue" d="M456.18,-217.35C433.01,-207.24 401.46,-193.49 377.55,-183.07"/>
<polygon fill="midnightblue" stroke="midnightblue" points="454.99,-220.64 465.55,-221.43 457.79,-214.23 454.99,-220.64"/>
</g>
<!-- Node18 -->
<g id="node13" class="node">
<title>Node18</title>
<g id="a_node13"><a xlink:href="namespaceyaml__settings.html#a272015627b7da584c91ef06808218070" target="_top" xlink:title=" ">
<polygon fill="white" stroke="black" points="143,-191 143,-221 247,-221 247,-191 143,-191"/>
<text text-anchor="start" x="151" y="-209" font-family="Helvetica,sans-Serif" font-size="10.00">yaml_settings::type</text>
<text text-anchor="middle" x="195" y="-198" font-family="Helvetica,sans-Serif" font-size="10.00">_real_setting_create</text>
</a>
</g>
</g>
<!-- Node15&#45;&gt;Node18 -->
<g id="edge16" class="edge">
<title>Node15&#45;&gt;Node18</title>
<path fill="none" stroke="midnightblue" d="M450.3,-227.81C398.76,-223.39 305.4,-215.38 247.27,-210.4"/>
<polygon fill="midnightblue" stroke="midnightblue" points="450.08,-231.3 460.34,-228.67 450.67,-224.33 450.08,-231.3"/>
</g>
<!-- Node16&#45;&gt;Node16 -->
<g id="edge12" class="edge">
<title>Node16&#45;&gt;Node16</title>
<path fill="none" stroke="midnightblue" d="M79.54,-247.03C78.12,-252.13 69.44,-256 53.5,-256 28.62,-256 21.42,-246.57 31.92,-237.76"/>
<polygon fill="midnightblue" stroke="midnightblue" points="82.57,-245.25 75.08,-237.76 76.26,-248.29 82.57,-245.25"/>
</g>
<!-- Node17&#45;&gt;Node18 -->
<g id="edge14" class="edge">
<title>Node17&#45;&gt;Node18</title>
<path fill="none" stroke="midnightblue" d="M274.01,-185.56C265.02,-187.91 255.91,-190.3 247.25,-192.57"/>
<polygon fill="midnightblue" stroke="midnightblue" points="274.91,-188.94 283.69,-183.02 273.13,-182.17 274.91,-188.94"/>
</g>
<!-- Node18&#45;&gt;Node16 -->
<g id="edge15" class="edge">
<title>Node18&#45;&gt;Node16</title>
<path fill="none" stroke="midnightblue" d="M132.86,-215.64C124.26,-217 115.47,-218.38 107.05,-219.71"/>
<polygon fill="midnightblue" stroke="midnightblue" points="133.51,-219.08 142.85,-214.07 132.42,-212.17 133.51,-219.08"/>
</g>
<!-- Node5 -->
<g id="node15" class="node">
<title>Node5</title>
<g id="a_node15"><a xlink:href="main_8cpp.html#a30c68344d30ddfe1e926f8472b86f094" target="_top" xlink:title=" ">
<polygon fill="white" stroke="black" points="143.5,-76.5 143.5,-95.5 246.5,-95.5 246.5,-76.5 143.5,-76.5"/>
<text text-anchor="middle" x="195" y="-83.5" font-family="Helvetica,sans-Serif" font-size="10.00">mainOncePerEpoch</text>
</a>
</g>
</g>
<!-- Node19&#45;&gt;Node5 -->
<g id="edge18" class="edge">
<title>Node19&#45;&gt;Node5</title>
<path fill="none" stroke="midnightblue" d="M294.51,-111.82C274.38,-106.54 251.16,-100.46 232.33,-95.52"/>
<polygon fill="midnightblue" stroke="midnightblue" points="293.85,-115.26 304.41,-114.41 295.62,-108.49 293.85,-115.26"/>
</g>
<!-- Node21 -->
<g id="node17" class="node">
<title>Node21</title>
<g id="a_node17"><a xlink:href="ppp__user_8cpp.html#aad22d0ff0d06af12ea66aefd09d89af3" target="_top" xlink:title=" ">
<polygon fill="white" stroke="red" points="320.5,-0.5 320.5,-19.5 363.5,-19.5 363.5,-0.5 320.5,-0.5"/>
<text text-anchor="middle" x="342" y="-7.5" font-family="Helvetica,sans-Serif" font-size="10.00">pppos</text>
</a>
</g>
</g>
<!-- Node20&#45;&gt;Node21 -->
<g id="edge20" class="edge">
<title>Node20&#45;&gt;Node21</title>
<path fill="none" stroke="midnightblue" d="M451.14,-67.1C446.26,-64.99 441.42,-62.62 437,-60 418.84,-49.23 419.39,-39.38 401,-29 389.37,-22.44 375.14,-17.73 363.68,-14.65"/>
<polygon fill="midnightblue" stroke="midnightblue" points="449.9,-70.37 460.48,-70.82 452.49,-63.87 449.9,-70.37"/>
</g>
<!-- Node23 -->
<g id="node19" class="node">
<title>Node23</title>
<g id="a_node19"><a xlink:href="GinARWLamb_8cpp.html#a12713865301eea1dac84952dd9fd1149" target="_top" xlink:title="Update WL ambiguities and save then to archive.">
<polygon fill="white" stroke="black" points="299.5,-392.5 299.5,-411.5 384.5,-411.5 384.5,-392.5 299.5,-392.5"/>
<text text-anchor="middle" x="342" y="-399.5" font-family="Helvetica,sans-Serif" font-size="10.00">updat_WLambg</text>
</a>
</g>
</g>
<!-- Node22&#45;&gt;Node23 -->
<g id="edge22" class="edge">
<title>Node22&#45;&gt;Node23</title>
<path fill="none" stroke="midnightblue" d="M436.86,-402C419.76,-402 400.87,-402 384.54,-402"/>
<polygon fill="midnightblue" stroke="midnightblue" points="437.25,-405.5 447.25,-402 437.25,-398.5 437.25,-405.5"/>
</g>
<!-- Node23&#45;&gt;Node3 -->
<g id="edge23" class="edge">
<title>Node23&#45;&gt;Node3</title>
<path fill="none" stroke="midnightblue" d="M294.51,-414.18C274.38,-419.46 251.16,-425.54 232.33,-430.48"/>
<polygon fill="midnightblue" stroke="midnightblue" points="295.62,-417.51 304.41,-411.59 293.85,-410.74 295.62,-417.51"/>
</g>
<!-- Node25 -->
<g id="node21" class="node">
<title>Node25</title>
<g id="a_node21"><a xlink:href="ppppp_8cpp.html#a936f239adc72073920104f4acc2aea67" target="_top" xlink:title=" ">
<polygon fill="white" stroke="black" points="323.5,-76.5 323.5,-95.5 360.5,-95.5 360.5,-76.5 323.5,-76.5"/>
<text text-anchor="middle" x="342" y="-83.5" font-family="Helvetica,sans-Serif" font-size="10.00">PPP</text>
</a>
</g>
</g>
<!-- Node24&#45;&gt;Node25 -->
<g id="edge25" class="edge">
<title>Node24&#45;&gt;Node25</title>
<path fill="none" stroke="midnightblue" d="M456.03,-141.13C449.62,-138.01 443,-134.56 437,-131 420.02,-120.94 418.59,-113.96 401,-105 388.06,-98.41 372.36,-93.43 360.56,-90.23"/>
<polygon fill="midnightblue" stroke="midnightblue" points="454.64,-144.35 465.17,-145.45 457.63,-138.02 454.64,-144.35"/>
</g>
<!-- Node25&#45;&gt;Node5 -->
<g id="edge26" class="edge">
<title>Node25&#45;&gt;Node5</title>
<path fill="none" stroke="midnightblue" d="M312.98,-86C294.2,-86 268.93,-86 246.68,-86"/>
<polygon fill="midnightblue" stroke="midnightblue" points="313.22,-89.5 323.22,-86 313.22,-82.5 313.22,-89.5"/>
</g>
<!-- Node27&#45;&gt;Node23 -->
<g id="edge29" class="edge">
<title>Node27&#45;&gt;Node23</title>
<path fill="none" stroke="midnightblue" d="M443.16,-375.66C422.7,-381.04 398.72,-387.35 379.35,-392.44"/>
<polygon fill="midnightblue" stroke="midnightblue" points="444.11,-379.03 452.89,-373.1 442.33,-372.26 444.11,-379.03"/>
</g>
<!-- Node28&#45;&gt;Node5 -->
<g id="edge31" class="edge">
<title>Node28&#45;&gt;Node5</title>
<path fill="none" stroke="midnightblue" d="M294.51,-60.18C274.38,-65.46 251.16,-71.54 232.33,-76.48"/>
<polygon fill="midnightblue" stroke="midnightblue" points="295.62,-63.51 304.41,-57.59 293.85,-56.74 295.62,-63.51"/>
</g>
</g>
</svg>
