<?xml version="1.0" encoding="UTF-8" standalone="no"?>
<!DOCTYPE svg PUBLIC "-//W3C//DTD SVG 1.1//EN"
 "http://www.w3.org/Graphics/SVG/1.1/DTD/svg11.dtd">
<!-- Generated by graphviz version 2.50.0 (20220203.2022)
 -->
<!-- Title: SolarRadPressure::directSolarRadiationAcc Pages: 1 -->
<svg width="339pt" height="122pt"
 viewBox="0.00 0.00 339.00 122.00" xmlns="http://www.w3.org/2000/svg" xmlns:xlink="http://www.w3.org/1999/xlink">
<g id="graph0" class="graph" transform="scale(1 1) rotate(0) translate(4 118)">
<title>SolarRadPressure::directSolarRadiationAcc</title>
<polygon fill="white" stroke="transparent" points="-4,4 -4,-118 335,-118 335,4 -4,4"/>
<!-- Node1 -->
<g id="node1" class="node">
<title>Node1</title>
<g id="a_node1"><a xlink:title="Satellite position vector, unit: m, m/s.">
<polygon fill="#bfbfbf" stroke="black" points="0,-51 0,-81 124,-81 124,-51 0,-51"/>
<text text-anchor="start" x="8" y="-69" font-family="Helvetica,sans-Serif" font-size="10.00">SolarRadPressure::direct</text>
<text text-anchor="middle" x="62" y="-58" font-family="Helvetica,sans-Serif" font-size="10.00">SolarRadiationAcc</text>
</a>
</g>
</g>
<!-- Node2 -->
<g id="node2" class="node">
<title>Node2</title>
<g id="a_node2"><a xlink:href="forceModels_8cpp.html#a74a12e98d45698d8fd4989fdabe38004" target="_top" xlink:title=" ">
<polygon fill="white" stroke="black" points="167,-94.5 167,-113.5 233,-113.5 233,-94.5 167,-94.5"/>
<text text-anchor="middle" x="200" y="-101.5" font-family="Helvetica,sans-Serif" font-size="10.00">Illumination</text>
</a>
</g>
</g>
<!-- Node1&#45;&gt;Node2 -->
<g id="edge1" class="edge">
<title>Node1&#45;&gt;Node2</title>
<path fill="none" stroke="midnightblue" d="M116.75,-81.02C130.11,-84.75 144.23,-88.7 156.94,-92.25"/>
<polygon fill="midnightblue" stroke="midnightblue" points="156.21,-95.68 166.78,-95 158.09,-88.94 156.21,-95.68"/>
</g>
<!-- Node5 -->
<g id="node4" class="node">
<title>Node5</title>
<g id="a_node4"><a xlink:href="jplEph_8cpp.html#a6e71fd82928bd5cfe04945e4bd27384b" target="_top" xlink:title=" ">
<polygon fill="white" stroke="black" points="170,-56.5 170,-75.5 230,-75.5 230,-56.5 170,-56.5"/>
<text text-anchor="middle" x="200" y="-63.5" font-family="Helvetica,sans-Serif" font-size="10.00">jplEphPos</text>
</a>
</g>
</g>
<!-- Node1&#45;&gt;Node5 -->
<g id="edge3" class="edge">
<title>Node1&#45;&gt;Node5</title>
<path fill="none" stroke="midnightblue" d="M124.24,-66C136.31,-66 148.67,-66 159.78,-66"/>
<polygon fill="midnightblue" stroke="midnightblue" points="159.99,-69.5 169.99,-66 159.99,-62.5 159.99,-69.5"/>
</g>
<!-- Node12 -->
<g id="node6" class="node">
<title>Node12</title>
<g id="a_node6"><a xlink:href="namespacepod__yaml.html#a59ea539cabb34ef7985e7e57c4b9dd93" target="_top" xlink:title=" ">
<polygon fill="white" stroke="black" points="160,-0.5 160,-19.5 240,-19.5 240,-0.5 160,-0.5"/>
<text text-anchor="middle" x="200" y="-7.5" font-family="Helvetica,sans-Serif" font-size="10.00">pod_yaml::pow</text>
</a>
</g>
</g>
<!-- Node1&#45;&gt;Node12 -->
<g id="edge5" class="edge">
<title>Node1&#45;&gt;Node12</title>
<path fill="none" stroke="midnightblue" d="M99.45,-50.99C120.27,-42.42 146.17,-31.75 166.33,-23.45"/>
<polygon fill="midnightblue" stroke="midnightblue" points="167.81,-26.63 175.72,-19.58 165.14,-20.16 167.81,-26.63"/>
</g>
<!-- Node3 -->
<g id="node3" class="node">
<title>Node3</title>
<g id="a_node3"><a xlink:href="algebra__old_8cpp.html#abaa5d4a31df361116a9b2be552624cf9" target="_top" xlink:title=" ">
<polygon fill="white" stroke="red" points="284.5,-94.5 284.5,-113.5 322.5,-113.5 322.5,-94.5 284.5,-94.5"/>
<text text-anchor="middle" x="303.5" y="-101.5" font-family="Helvetica,sans-Serif" font-size="10.00">norm</text>
</a>
</g>
</g>
<!-- Node2&#45;&gt;Node3 -->
<g id="edge2" class="edge">
<title>Node2&#45;&gt;Node3</title>
<path fill="none" stroke="midnightblue" d="M233.12,-104C246.36,-104 261.58,-104 274.38,-104"/>
<polygon fill="midnightblue" stroke="midnightblue" points="274.47,-107.5 284.47,-104 274.47,-100.5 274.47,-107.5"/>
</g>
<!-- Node6 -->
<g id="node5" class="node">
<title>Node6</title>
<g id="a_node5"><a xlink:href="jpl__eph_8cpp.html#a4553b296b553794049e44eaff19ce403" target="_top" xlink:title=" ">
<polygon fill="white" stroke="red" points="276,-56.5 276,-75.5 331,-75.5 331,-56.5 276,-56.5"/>
<text text-anchor="middle" x="303.5" y="-63.5" font-family="Helvetica,sans-Serif" font-size="10.00">jpl_pleph</text>
</a>
</g>
</g>
<!-- Node5&#45;&gt;Node6 -->
<g id="edge4" class="edge">
<title>Node5&#45;&gt;Node6</title>
<path fill="none" stroke="midnightblue" d="M230.09,-66C241.12,-66 253.83,-66 265.5,-66"/>
<polygon fill="midnightblue" stroke="midnightblue" points="265.84,-69.5 275.84,-66 265.84,-62.5 265.84,-69.5"/>
</g>
<!-- Node12&#45;&gt;Node12 -->
<g id="edge6" class="edge">
<title>Node12&#45;&gt;Node12</title>
<path fill="none" stroke="midnightblue" d="M184.28,-19.76C176.63,-28.57 181.87,-38 200,-38 211.33,-38 217.63,-34.31 218.89,-29.4"/>
<polygon fill="midnightblue" stroke="midnightblue" points="222.17,-28.17 215.72,-19.76 215.52,-30.35 222.17,-28.17"/>
</g>
</g>
</svg>
