<?xml version="1.0" encoding="UTF-8" standalone="no"?>
<!DOCTYPE svg PUBLIC "-//W3C//DTD SVG 1.1//EN"
 "http://www.w3.org/Graphics/SVG/1.1/DTD/svg11.dtd">
<!-- Generated by graphviz version 2.50.0 (20220203.2022)
 -->
<!-- Title: EGMCoef Pages: 1 -->
<svg width="67pt" height="106pt"
 viewBox="0.00 0.00 67.00 106.00" xmlns="http://www.w3.org/2000/svg" xmlns:xlink="http://www.w3.org/1999/xlink">
<g id="graph0" class="graph" transform="scale(1 1) rotate(0) translate(4 102)">
<title>EGMCoef</title>
<polygon fill="white" stroke="transparent" points="-4,4 -4,-102 63,-102 63,4 -4,4"/>
<!-- Node1 -->
<g id="node1" class="node">
<title>Node1</title>
<g id="a_node1"><a xlink:title="Struct to save Earth gravity coefficients.">
<polygon fill="#bfbfbf" stroke="black" points="0,-0.5 0,-19.5 59,-19.5 59,-0.5 0,-0.5"/>
<text text-anchor="middle" x="29.5" y="-7.5" font-family="Helvetica,sans-Serif" font-size="10.00">EGMCoef</text>
</a>
</g>
</g>
<!-- Node2 -->
<g id="node2" class="node">
<title>Node2</title>
<g id="a_node2"><a xlink:title=" ">
<polygon fill="white" stroke="black" points="2,-78.5 2,-97.5 57,-97.5 57,-78.5 2,-78.5"/>
<text text-anchor="middle" x="29.5" y="-85.5" font-family="Helvetica,sans-Serif" font-size="10.00">MatrixXd</text>
</a>
</g>
</g>
<!-- Node2&#45;&gt;Node1 -->
<g id="edge1" class="edge">
<title>Node2&#45;&gt;Node1</title>
<path fill="none" stroke="#9a32cd" stroke-dasharray="5,2" d="M29.5,-68.22C29.5,-52.7 29.5,-31.36 29.5,-19.62"/>
<polygon fill="#9a32cd" stroke="#9a32cd" points="26,-68.28 29.5,-78.28 33,-68.28 26,-68.28"/>
<text text-anchor="middle" x="40.5" y="-52" font-family="Helvetica,sans-Serif" font-size="10.00"> cmn</text>
<text text-anchor="middle" x="40.5" y="-41" font-family="Helvetica,sans-Serif" font-size="10.00">smn</text>
</g>
</g>
</svg>
