<?xml version="1.0" encoding="UTF-8" standalone="no"?>
<!DOCTYPE svg PUBLIC "-//W3C//DTD SVG 1.1//EN"
 "http://www.w3.org/Graphics/SVG/1.1/DTD/svg11.dtd">
<!-- Generated by graphviz version 2.50.0 (20220203.2022)
 -->
<!-- Title: URL::sanitised Pages: 1 -->
<svg width="589pt" height="159pt"
 viewBox="0.00 0.00 589.00 158.50" xmlns="http://www.w3.org/2000/svg" xmlns:xlink="http://www.w3.org/1999/xlink">
<g id="graph0" class="graph" transform="scale(1 1) rotate(0) translate(4 154.5)">
<title>URL::sanitised</title>
<polygon fill="white" stroke="transparent" points="-4,4 -4,-154.5 585,-154.5 585,4 -4,4"/>
<!-- Node1 -->
<g id="node1" class="node">
<title>Node1</title>
<g id="a_node1"><a xlink:title=" ">
<polygon fill="#bfbfbf" stroke="black" points="501,-70 501,-89 581,-89 581,-70 501,-70"/>
<text text-anchor="middle" x="541" y="-77" font-family="Helvetica,sans-Serif" font-size="10.00">URL::sanitised</text>
</a>
</g>
</g>
<!-- Node2 -->
<g id="node2" class="node">
<title>Node2</title>
<g id="a_node2"><a xlink:href="main_8cpp.html#a2d75b8e97c01e0fc332ddf680796fd21" target="_top" xlink:title=" ">
<polygon fill="white" stroke="black" points="139.5,-131 139.5,-150 287.5,-150 287.5,-131 139.5,-131"/>
<text text-anchor="middle" x="213.5" y="-138" font-family="Helvetica,sans-Serif" font-size="10.00">configureDownloadingStreams</text>
</a>
</g>
</g>
<!-- Node1&#45;&gt;Node2 -->
<g id="edge1" class="edge">
<title>Node1&#45;&gt;Node2</title>
<path fill="none" stroke="midnightblue" d="M520.63,-95.51C506.24,-106.39 485.62,-119.95 465,-126.5 407.4,-144.81 338.66,-147.39 287.76,-145.9"/>
<polygon fill="midnightblue" stroke="midnightblue" points="523.01,-98.09 528.72,-89.17 518.69,-92.58 523.01,-98.09"/>
</g>
<!-- Node4 -->
<g id="node4" class="node">
<title>Node4</title>
<g id="a_node4"><a xlink:href="structNtripSocket.html#a07a5b9e92a7fa439e08136f69c882307" target="_top" xlink:title=" ">
<polygon fill="white" stroke="black" points="341,-48 341,-67 448,-67 448,-48 341,-48"/>
<text text-anchor="middle" x="394.5" y="-55" font-family="Helvetica,sans-Serif" font-size="10.00">NtripSocket::connect</text>
</a>
</g>
</g>
<!-- Node1&#45;&gt;Node4 -->
<g id="edge3" class="edge">
<title>Node1&#45;&gt;Node4</title>
<path fill="none" stroke="midnightblue" d="M490.7,-71.99C477.01,-69.91 462.08,-67.64 448.2,-65.52"/>
<polygon fill="midnightblue" stroke="midnightblue" points="490.48,-75.5 500.9,-73.55 491.54,-68.58 490.48,-75.5"/>
</g>
<!-- Node5 -->
<g id="node5" class="node">
<title>Node5</title>
<g id="a_node5"><a xlink:href="structNtripSourceTable.html#af66d3b8f21f3edf1850816bafecff2d7" target="_top" xlink:title=" ">
<polygon fill="white" stroke="black" points="139,-0.5 139,-30.5 288,-30.5 288,-0.5 139,-0.5"/>
<text text-anchor="start" x="147" y="-18.5" font-family="Helvetica,sans-Serif" font-size="10.00">NtripSourceTable::NtripSource</text>
<text text-anchor="middle" x="213.5" y="-7.5" font-family="Helvetica,sans-Serif" font-size="10.00">Table</text>
</a>
</g>
</g>
<!-- Node1&#45;&gt;Node5 -->
<g id="edge9" class="edge">
<title>Node1&#45;&gt;Node5</title>
<path fill="none" stroke="midnightblue" d="M518,-64.33C503.59,-55.21 483.98,-44.29 465,-38.5 407.25,-20.89 338.82,-15.59 288.08,-14.45"/>
<polygon fill="midnightblue" stroke="midnightblue" points="516.37,-67.45 526.66,-69.99 520.2,-61.59 516.37,-67.45"/>
</g>
<!-- Node8 -->
<g id="node8" class="node">
<title>Node8</title>
<g id="a_node8"><a xlink:href="structNtripSourceTable.html#a255528a066ea7f0bd2254768a0b92314" target="_top" xlink:title=" ">
<polygon fill="white" stroke="black" points="324,-86.5 324,-116.5 465,-116.5 465,-86.5 324,-86.5"/>
<text text-anchor="start" x="332" y="-104.5" font-family="Helvetica,sans-Serif" font-size="10.00">NtripSourceTable::getSource</text>
<text text-anchor="middle" x="394.5" y="-93.5" font-family="Helvetica,sans-Serif" font-size="10.00">Table</text>
</a>
</g>
</g>
<!-- Node1&#45;&gt;Node8 -->
<g id="edge7" class="edge">
<title>Node1&#45;&gt;Node8</title>
<path fill="none" stroke="midnightblue" d="M490.76,-87C482.54,-88.25 473.88,-89.57 465.26,-90.88"/>
<polygon fill="midnightblue" stroke="midnightblue" points="491.54,-90.42 500.9,-85.45 490.48,-83.5 491.54,-90.42"/>
</g>
<!-- Node3 -->
<g id="node3" class="node">
<title>Node3</title>
<g id="a_node3"><a xlink:href="main_8cpp.html#a30c68344d30ddfe1e926f8472b86f094" target="_top" xlink:title=" ">
<polygon fill="white" stroke="black" points="0,-131 0,-150 103,-150 103,-131 0,-131"/>
<text text-anchor="middle" x="51.5" y="-138" font-family="Helvetica,sans-Serif" font-size="10.00">mainOncePerEpoch</text>
</a>
</g>
</g>
<!-- Node2&#45;&gt;Node3 -->
<g id="edge2" class="edge">
<title>Node2&#45;&gt;Node3</title>
<path fill="none" stroke="midnightblue" d="M128.77,-140.5C120.02,-140.5 111.32,-140.5 103.1,-140.5"/>
<polygon fill="midnightblue" stroke="midnightblue" points="129.06,-144 139.06,-140.5 129.06,-137 129.06,-144"/>
</g>
<!-- Node4&#45;&gt;Node5 -->
<g id="edge4" class="edge">
<title>Node4&#45;&gt;Node5</title>
<path fill="none" stroke="midnightblue" d="M343.03,-45.66C322.98,-40.95 299.69,-35.49 278.48,-30.51"/>
<polygon fill="midnightblue" stroke="midnightblue" points="342.35,-49.09 352.88,-47.97 343.95,-42.28 342.35,-49.09"/>
</g>
<!-- Node6 -->
<g id="node6" class="node">
<title>Node6</title>
<g id="a_node6"><a xlink:href="structNtripStream.html#aeb821b2c4050cc16c7ece01651d51724" target="_top" xlink:title=" ">
<polygon fill="white" stroke="black" points="150.5,-88 150.5,-107 276.5,-107 276.5,-88 150.5,-88"/>
<text text-anchor="middle" x="213.5" y="-95" font-family="Helvetica,sans-Serif" font-size="10.00">NtripStream::NtripStream</text>
</a>
</g>
</g>
<!-- Node4&#45;&gt;Node6 -->
<g id="edge5" class="edge">
<title>Node4&#45;&gt;Node6</title>
<path fill="none" stroke="midnightblue" d="M340.69,-69.3C314.02,-75.26 282.09,-82.4 257.03,-88"/>
<polygon fill="midnightblue" stroke="midnightblue" points="341.63,-72.68 350.63,-67.08 340.1,-65.85 341.63,-72.68"/>
</g>
<!-- Node7 -->
<g id="node7" class="node">
<title>Node7</title>
<g id="a_node7"><a xlink:href="structNtripUploader.html#a7053ed49ff175076bf8db14933fc3f12" target="_top" xlink:title=" ">
<polygon fill="white" stroke="black" points="143,-50 143,-69 284,-69 284,-50 143,-50"/>
<text text-anchor="middle" x="213.5" y="-57" font-family="Helvetica,sans-Serif" font-size="10.00">NtripUploader::NtripUploader</text>
</a>
</g>
</g>
<!-- Node4&#45;&gt;Node7 -->
<g id="edge6" class="edge">
<title>Node4&#45;&gt;Node7</title>
<path fill="none" stroke="midnightblue" d="M330.56,-58.2C315.54,-58.37 299.42,-58.55 284.12,-58.72"/>
<polygon fill="midnightblue" stroke="midnightblue" points="330.8,-61.7 340.76,-58.09 330.72,-54.7 330.8,-61.7"/>
</g>
<!-- Node8&#45;&gt;Node2 -->
<g id="edge8" class="edge">
<title>Node8&#45;&gt;Node2</title>
<path fill="none" stroke="midnightblue" d="M314.54,-118.7C295.24,-122.91 275.28,-127.26 258.32,-130.95"/>
<polygon fill="midnightblue" stroke="midnightblue" points="315.52,-122.07 324.55,-116.52 314.03,-115.23 315.52,-122.07"/>
</g>
</g>
</svg>
