<?xml version="1.0" encoding="UTF-8" standalone="no"?>
<!DOCTYPE svg PUBLIC "-//W3C//DTD SVG 1.1//EN"
 "http://www.w3.org/Graphics/SVG/1.1/DTD/svg11.dtd">
<!-- Generated by graphviz version 2.50.0 (20220203.2022)
 -->
<!-- Title: FileRtcmStream Pages: 1 -->
<!--zoomable 230 -->
<svg id="main" version="1.1" xmlns="http://www.w3.org/2000/svg" xmlns:xlink="http://www.w3.org/1999/xlink" xml:space="preserve" onload="init(evt)">
<style type="text/css"><![CDATA[
.edge:hover path { stroke: red; }
.edge:hover polygon { stroke: red; fill: red; }
]]></style>
<script type="text/javascript"><![CDATA[
var edges = document.getElementsByTagName('g');
if (edges && edges.length) {
  for (var i=0;i<edges.length;i++) {
    if (edges[i].id.substr(0,4)=='edge') {
      edges[i].setAttribute('class','edge');
    }
  }
}
]]></script>
        <defs>
                <circle id="rim" cx="0" cy="0" r="7"/>
                <circle id="rim2" cx="0" cy="0" r="3.5"/>
                <g id="zoomPlus">
                        <use xlink:href="#rim" fill="#404040">
                                <set attributeName="fill" to="#808080" begin="zoomplus.mouseover" end="zoomplus.mouseout"/>
                        </use>
                        <path d="M-4,0h8M0,-4v8" fill="none" stroke="white" stroke-width="1.5" pointer-events="none"/>
                </g>
                <g id="zoomMin">
                        <use xlink:href="#rim" fill="#404040">
                                <set attributeName="fill" to="#808080" begin="zoomminus.mouseover" end="zoomminus.mouseout"/>
                        </use>
                        <path d="M-4,0h8" fill="none" stroke="white" stroke-width="1.5" pointer-events="none"/>
                </g>
                <g id="dirArrow">
                        <path fill="none" stroke="white" stroke-width="1.5" d="M0,-3.0v7 M-2.5,-0.5L0,-3.0L2.5,-0.5"/>
                </g>
               <g id="resetDef">
                       <use xlink:href="#rim2" fill="#404040">
                               <set attributeName="fill" to="#808080" begin="reset.mouseover" end="reset.mouseout"/>
                       </use>
               </g>
        </defs>

<script type="text/javascript">
var viewWidth = 660;
var viewHeight = 230;
var sectionId = 'dynsection-1';
</script>
<script xlink:href="svgpan.js"/>
<svg id="graph" class="graph">
<g id="viewport">
<title>FileRtcmStream</title>
<polygon fill="white" stroke="transparent" points="-4,4 -4,-226 655.5,-226 655.5,4 -4,4"/>
<!-- Node1 -->
<g id="node1" class="node">
<title>Node1</title>
<g id="a_node1"><a xlink:title="Object that streams RTCM data from a file.">
<polygon fill="#bfbfbf" stroke="black" points="141,-0.5 141,-19.5 228,-19.5 228,-0.5 141,-0.5"/>
<text text-anchor="middle" x="184.5" y="-7.5" font-family="Helvetica,sans-Serif" font-size="10.00">FileRtcmStream</text>
</a>
</g>
</g>
<!-- Node2 -->
<g id="node2" class="node">
<title>Node2</title>
<g id="a_node2"><a xlink:href="structACSFileStream.html" target="_top" xlink:title="Interface to be used for file streams.">
<polygon fill="white" stroke="black" points="130.5,-57.5 130.5,-76.5 214.5,-76.5 214.5,-57.5 130.5,-57.5"/>
<text text-anchor="middle" x="172.5" y="-64.5" font-family="Helvetica,sans-Serif" font-size="10.00">ACSFileStream</text>
</a>
</g>
</g>
<!-- Node2&#45;&gt;Node1 -->
<g id="edge1" class="edge">
<title>Node2&#45;&gt;Node1</title>
<path fill="none" stroke="midnightblue" d="M176.55,-47.42C178.6,-38.05 180.98,-27.14 182.6,-19.71"/>
<polygon fill="midnightblue" stroke="midnightblue" points="173.09,-46.89 174.38,-57.41 179.93,-48.38 173.09,-46.89"/>
</g>
<!-- Node3 -->
<g id="node3" class="node">
<title>Node3</title>
<g id="a_node3"><a xlink:href="structRtcmStream.html" target="_top" xlink:title=" ">
<polygon fill="white" stroke="black" points="233,-57.5 233,-76.5 304,-76.5 304,-57.5 233,-57.5"/>
<text text-anchor="middle" x="268.5" y="-64.5" font-family="Helvetica,sans-Serif" font-size="10.00">RtcmStream</text>
</a>
</g>
</g>
<!-- Node3&#45;&gt;Node1 -->
<g id="edge2" class="edge">
<title>Node3&#45;&gt;Node1</title>
<path fill="none" stroke="midnightblue" d="M246.85,-51.82C231.24,-41.61 210.69,-28.15 197.53,-19.53"/>
<polygon fill="midnightblue" stroke="midnightblue" points="245.09,-54.86 255.38,-57.41 248.93,-49 245.09,-54.86"/>
</g>
<!-- Node4 -->
<g id="node4" class="node">
<title>Node4</title>
<g id="a_node4"><a xlink:href="structObsStream.html" target="_top" xlink:title="Interface for streams that supply observations.">
<polygon fill="white" stroke="red" points="82.5,-135.5 82.5,-154.5 148.5,-154.5 148.5,-135.5 82.5,-135.5"/>
<text text-anchor="middle" x="115.5" y="-142.5" font-family="Helvetica,sans-Serif" font-size="10.00">ObsStream</text>
</a>
</g>
</g>
<!-- Node4&#45;&gt;Node3 -->
<g id="edge3" class="edge">
<title>Node4&#45;&gt;Node3</title>
<path fill="none" stroke="midnightblue" d="M141.76,-130.96C173.02,-115.43 224.34,-89.94 251.07,-76.66"/>
<polygon fill="midnightblue" stroke="midnightblue" points="140.15,-127.85 132.75,-135.43 143.27,-134.12 140.15,-127.85"/>
</g>
<!-- Node6 -->
<g id="node5" class="node">
<title>Node6</title>
<g id="a_node5"><a xlink:title=" ">
<polygon fill="white" stroke="red" points="0,-202.5 0,-221.5 59,-221.5 59,-202.5 0,-202.5"/>
<text text-anchor="middle" x="29.5" y="-209.5" font-family="Helvetica,sans-Serif" font-size="10.00">std::string</text>
</a>
</g>
</g>
<!-- Node6&#45;&gt;Node3 -->
<g id="edge11" class="edge">
<title>Node6&#45;&gt;Node3</title>
<path fill="none" stroke="#9a32cd" stroke-dasharray="5,2" d="M16.99,-193.34C6.9,-176.73 -3.63,-151.95 9.5,-135 16.44,-126.04 163.45,-91.77 232.84,-76.01"/>
<polygon fill="#9a32cd" stroke="#9a32cd" points="14.29,-195.61 22.69,-202.05 20.14,-191.77 14.29,-195.61"/>
<text text-anchor="middle" x="41.5" y="-142.5" font-family="Helvetica,sans-Serif" font-size="10.00"> rtcm_filename</text>
</g>
<!-- Node6&#45;&gt;Node4 -->
<g id="edge4" class="edge">
<title>Node6&#45;&gt;Node4</title>
<path fill="none" stroke="#9a32cd" stroke-dasharray="5,2" d="M49.26,-196.07C66.23,-183.24 90.12,-165.19 104.09,-154.63"/>
<polygon fill="#9a32cd" stroke="#9a32cd" points="46.97,-193.41 41.1,-202.23 51.19,-199 46.97,-193.41"/>
<text text-anchor="middle" x="107.5" y="-176" font-family="Helvetica,sans-Serif" font-size="10.00"> sourceString</text>
</g>
<!-- Node12 -->
<g id="node6" class="node">
<title>Node12</title>
<g id="a_node6"><a xlink:href="structNavStream.html" target="_top" xlink:title="Interface for objects that provide navigation data.">
<polygon fill="white" stroke="black" points="166.5,-135.5 166.5,-154.5 232.5,-154.5 232.5,-135.5 166.5,-135.5"/>
<text text-anchor="middle" x="199.5" y="-142.5" font-family="Helvetica,sans-Serif" font-size="10.00">NavStream</text>
</a>
</g>
</g>
<!-- Node12&#45;&gt;Node3 -->
<g id="edge5" class="edge">
<title>Node12&#45;&gt;Node3</title>
<path fill="none" stroke="midnightblue" d="M214.14,-127.88C228.36,-112.22 249.4,-89.04 260.68,-76.62"/>
<polygon fill="midnightblue" stroke="midnightblue" points="211.55,-125.53 207.42,-135.28 216.73,-130.23 211.55,-125.53"/>
</g>
<!-- Node13 -->
<g id="node7" class="node">
<title>Node13</title>
<g id="a_node7"><a xlink:href="structRtcmDecoder.html" target="_top" xlink:title=" ">
<polygon fill="white" stroke="red" points="353.5,-135.5 353.5,-154.5 429.5,-154.5 429.5,-135.5 353.5,-135.5"/>
<text text-anchor="middle" x="391.5" y="-142.5" font-family="Helvetica,sans-Serif" font-size="10.00">RtcmDecoder</text>
</a>
</g>
</g>
<!-- Node13&#45;&gt;Node3 -->
<g id="edge6" class="edge">
<title>Node13&#45;&gt;Node3</title>
<path fill="none" stroke="midnightblue" d="M368.81,-129.98C343.54,-114.36 303.48,-89.61 282.45,-76.62"/>
<polygon fill="midnightblue" stroke="midnightblue" points="367.04,-133 377.39,-135.28 370.72,-127.05 367.04,-133"/>
</g>
<!-- Node20 -->
<g id="node8" class="node">
<title>Node20</title>
<g id="a_node8"><a xlink:href="structGTime.html" target="_top" xlink:title="Time structure used throughout this software.">
<polygon fill="white" stroke="black" points="284.5,-202.5 284.5,-221.5 330.5,-221.5 330.5,-202.5 284.5,-202.5"/>
<text text-anchor="middle" x="307.5" y="-209.5" font-family="Helvetica,sans-Serif" font-size="10.00">GTime</text>
</a>
</g>
</g>
<!-- Node20&#45;&gt;Node3 -->
<g id="edge10" class="edge">
<title>Node20&#45;&gt;Node3</title>
<path fill="none" stroke="#9a32cd" stroke-dasharray="5,2" d="M295.93,-193.66C289.39,-182.97 281.71,-168.73 277.5,-155 269,-127.27 268.17,-92.49 268.3,-76.62"/>
<polygon fill="#9a32cd" stroke="#9a32cd" points="293.15,-195.81 301.48,-202.36 299.05,-192.04 293.15,-195.81"/>
<text text-anchor="middle" x="311" y="-142.5" font-family="Helvetica,sans-Serif" font-size="10.00"> rtcmDeltaTime</text>
</g>
<!-- Node20&#45;&gt;Node13 -->
<g id="edge7" class="edge">
<title>Node20&#45;&gt;Node13</title>
<path fill="none" stroke="#9a32cd" stroke-dasharray="5,2" d="M326.8,-196.07C343.38,-183.24 366.71,-165.19 380.35,-154.63"/>
<polygon fill="#9a32cd" stroke="#9a32cd" points="324.6,-193.35 318.83,-202.23 328.88,-198.88 324.6,-193.35"/>
<text text-anchor="middle" x="378.5" y="-176" font-family="Helvetica,sans-Serif" font-size="10.00"> rtcm_UTC</text>
</g>
<!-- Node21 -->
<g id="node9" class="node">
<title>Node21</title>
<g id="a_node9"><a xlink:href="structLockTimeInfo.html" target="_top" xlink:title=" ">
<polygon fill="white" stroke="red" points="448,-135.5 448,-154.5 525,-154.5 525,-135.5 448,-135.5"/>
<text text-anchor="middle" x="486.5" y="-142.5" font-family="Helvetica,sans-Serif" font-size="10.00">LockTimeInfo</text>
</a>
</g>
</g>
<!-- Node21&#45;&gt;Node3 -->
<g id="edge8" class="edge">
<title>Node21&#45;&gt;Node3</title>
<path fill="none" stroke="#9a32cd" stroke-dasharray="5,2" d="M452.45,-132.13C408.19,-116.7 331.96,-90.13 292.99,-76.54"/>
<polygon fill="#9a32cd" stroke="#9a32cd" points="451.32,-135.44 461.92,-135.43 453.63,-128.83 451.32,-135.44"/>
<text text-anchor="middle" x="455.5" y="-109" font-family="Helvetica,sans-Serif" font-size="10.00"> lock_time_info_current</text>
<text text-anchor="middle" x="455.5" y="-98" font-family="Helvetica,sans-Serif" font-size="10.00">lock_time_info_previous</text>
</g>
<!-- Node25 -->
<g id="node10" class="node">
<title>Node25</title>
<g id="a_node10"><a xlink:title=" ">
<polygon fill="white" stroke="red" points="555.5,-135.5 555.5,-154.5 651.5,-154.5 651.5,-135.5 555.5,-135.5"/>
<text text-anchor="middle" x="603.5" y="-142.5" font-family="Helvetica,sans-Serif" font-size="10.00">std::vector&lt; Obs &gt;</text>
</a>
</g>
</g>
<!-- Node25&#45;&gt;Node3 -->
<g id="edge9" class="edge">
<title>Node25&#45;&gt;Node3</title>
<path fill="none" stroke="#9a32cd" stroke-dasharray="5,2" d="M582.79,-129.84C564.98,-118.43 538.17,-103 512.5,-95 440.89,-72.68 352.41,-68.29 304.11,-67.72"/>
<polygon fill="#9a32cd" stroke="#9a32cd" points="580.95,-132.82 591.23,-135.39 584.79,-126.97 580.95,-132.82"/>
<text text-anchor="middle" x="583" y="-103.5" font-family="Helvetica,sans-Serif" font-size="10.00"> SuperList</text>
</g>
</g>
</svg>
        <g id="navigator" transform="translate(0 0)" fill="#404254">
                <rect fill="#f2f5e9" fill-opacity="0.5" stroke="#606060" stroke-width=".5" x="0" y="0" width="60" height="60"/>
                <use id="zoomplus" xlink:href="#zoomPlus" x="17" y="9" onmousedown="handleZoom(evt,'in')"/>
                <use id="zoomminus" xlink:href="#zoomMin" x="42" y="9" onmousedown="handleZoom(evt,'out')"/>
                <use id="reset" xlink:href="#resetDef" x="30" y="36" onmousedown="handleReset()"/>
                <g id="arrowUp" xlink:href="#dirArrow" transform="translate(30 24)" onmousedown="handlePan(0,-1)">
                  <use xlink:href="#rim" fill="#404040">
                        <set attributeName="fill" to="#808080" begin="arrowUp.mouseover" end="arrowUp.mouseout"/>
                  </use>
                  <path fill="none" stroke="white" stroke-width="1.5" d="M0,-3.0v7 M-2.5,-0.5L0,-3.0L2.5,-0.5"/>
                </g>
                <g id="arrowRight" xlink:href="#dirArrow" transform="rotate(90) translate(36 -43)" onmousedown="handlePan(1,0)">
                  <use xlink:href="#rim" fill="#404040">
                        <set attributeName="fill" to="#808080" begin="arrowRight.mouseover" end="arrowRight.mouseout"/>
                  </use>
                  <path fill="none" stroke="white" stroke-width="1.5" d="M0,-3.0v7 M-2.5,-0.5L0,-3.0L2.5,-0.5"/>
                </g>
                <g id="arrowDown" xlink:href="#dirArrow" transform="rotate(180) translate(-30 -48)" onmousedown="handlePan(0,1)">
                  <use xlink:href="#rim" fill="#404040">
                        <set attributeName="fill" to="#808080" begin="arrowDown.mouseover" end="arrowDown.mouseout"/>
                  </use>
                  <path fill="none" stroke="white" stroke-width="1.5" d="M0,-3.0v7 M-2.5,-0.5L0,-3.0L2.5,-0.5"/>
                </g>
                <g id="arrowLeft" xlink:href="#dirArrow" transform="rotate(270) translate(-36 17)" onmousedown="handlePan(-1,0)">
                  <use xlink:href="#rim" fill="#404040">
                        <set attributeName="fill" to="#808080" begin="arrowLeft.mouseover" end="arrowLeft.mouseout"/>
                  </use>
                  <path fill="none" stroke="white" stroke-width="1.5" d="M0,-3.0v7 M-2.5,-0.5L0,-3.0L2.5,-0.5"/>
                </g>
        </g>
        <svg viewBox="0 0 15 15" width="100%" height="30px" preserveAspectRatio="xMaxYMin meet">
         <g id="arrow_out" transform="scale(0.3 0.3)">
          <a xlink:href="structFileRtcmStream__coll__graph_org.svg" target="_base">
           <rect id="button" ry="5" rx="5" y="6" x="6" height="38" width="38"
                fill="#f2f5e9" fill-opacity="0.5" stroke="#606060" stroke-width="1.0"/>
           <path id="arrow"
             d="M 11.500037,31.436501 C 11.940474,20.09759 22.043105,11.32322 32.158766,21.979434 L 37.068811,17.246167 C 37.068811,17.246167 37.088388,32 37.088388,32 L 22.160133,31.978069 C 22.160133,31.978069 26.997745,27.140456 26.997745,27.140456 C 18.528582,18.264221 13.291696,25.230495 11.500037,31.436501 z"
             style="fill:#404040;"/>
          </a>
         </g>
        </svg>
</svg>
