<?xml version="1.0" encoding="UTF-8" standalone="no"?>
<!DOCTYPE svg PUBLIC "-//W3C//DTD SVG 1.1//EN"
 "http://www.w3.org/Graphics/SVG/1.1/DTD/svg11.dtd">
<!-- Generated by graphviz version 2.50.0 (20220203.2022)
 -->
<!-- Title: ACSConfig::getMinConOpts Pages: 1 -->
<svg width="673pt" height="134pt"
 viewBox="0.00 0.00 673.00 134.02" xmlns="http://www.w3.org/2000/svg" xmlns:xlink="http://www.w3.org/1999/xlink">
<g id="graph0" class="graph" transform="scale(1 1) rotate(0) translate(4 130.02)">
<title>ACSConfig::getMinConOpts</title>
<polygon fill="white" stroke="transparent" points="-4,4 -4,-130.02 669,-130.02 669,4 -4,4"/>
<!-- Node1 -->
<g id="node1" class="node">
<title>Node1</title>
<g id="a_node1"><a xlink:title="Set minimum constraint options for a specific receiver using a hierarchy of sources.">
<polygon fill="#bfbfbf" stroke="black" points="529,-46.52 529,-65.52 665,-65.52 665,-46.52 529,-46.52"/>
<text text-anchor="middle" x="597" y="-53.52" font-family="Helvetica,sans-Serif" font-size="10.00">ACSConfig::getMinConOpts</text>
</a>
</g>
</g>
<!-- Node2 -->
<g id="node2" class="node">
<title>Node2</title>
<g id="a_node2"><a xlink:href="minimumConstraints_8cpp.html#a6644baa0ee22e2cb52a4975b7d8f218e" target="_top" xlink:title=" ">
<polygon fill="white" stroke="black" points="437,-46.52 437,-65.52 493,-65.52 493,-46.52 437,-46.52"/>
<text text-anchor="middle" x="465" y="-53.52" font-family="Helvetica,sans-Serif" font-size="10.00">minimum</text>
</a>
</g>
</g>
<!-- Node1&#45;&gt;Node2 -->
<g id="edge1" class="edge">
<title>Node1&#45;&gt;Node2</title>
<path fill="none" stroke="midnightblue" d="M518.7,-56.02C509.57,-56.02 500.77,-56.02 493.06,-56.02"/>
<polygon fill="midnightblue" stroke="midnightblue" points="518.72,-59.52 528.72,-56.02 518.72,-52.52 518.72,-59.52"/>
</g>
<!-- Node3 -->
<g id="node3" class="node">
<title>Node3</title>
<g id="a_node3"><a xlink:href="main_8cpp.html#a93c49123b4afe8e199430439fd682acd" target="_top" xlink:title=" ">
<polygon fill="white" stroke="black" points="288.5,-106.52 288.5,-125.52 395.5,-125.52 395.5,-106.52 288.5,-106.52"/>
<text text-anchor="middle" x="342" y="-113.52" font-family="Helvetica,sans-Serif" font-size="10.00">mainPostProcessing</text>
</a>
</g>
</g>
<!-- Node2&#45;&gt;Node3 -->
<g id="edge2" class="edge">
<title>Node2&#45;&gt;Node3</title>
<path fill="none" stroke="midnightblue" d="M439.85,-70.77C428.28,-77.59 414.12,-85.58 401,-92.02 390.43,-97.2 378.46,-102.28 368.15,-106.42"/>
<polygon fill="midnightblue" stroke="midnightblue" points="441.71,-73.74 448.51,-65.6 438.13,-67.73 441.71,-73.74"/>
</g>
<!-- Node4 -->
<g id="node4" class="node">
<title>Node4</title>
<g id="a_node4"><a xlink:href="namespaceyaml__settings.html#ac9d7a5ebee43ae709c9fb9ae6e59a483" target="_top" xlink:title=" ">
<polygon fill="white" stroke="black" points="0,-46.52 0,-65.52 107,-65.52 107,-46.52 0,-46.52"/>
<text text-anchor="middle" x="53.5" y="-53.52" font-family="Helvetica,sans-Serif" font-size="10.00">yaml_settings::option</text>
</a>
</g>
</g>
<!-- Node2&#45;&gt;Node4 -->
<g id="edge3" class="edge">
<title>Node2&#45;&gt;Node4</title>
<path fill="none" stroke="midnightblue" d="M426.72,-57.39C418.26,-57.65 409.32,-57.88 401,-58.02 286.35,-59.83 257.66,-59.31 143,-58.02 131.47,-57.88 119.11,-57.66 107.38,-57.41"/>
<polygon fill="midnightblue" stroke="midnightblue" points="426.83,-60.89 436.72,-57.07 426.61,-53.9 426.83,-60.89"/>
</g>
<!-- Node5 -->
<g id="node5" class="node">
<title>Node5</title>
<g id="a_node5"><a xlink:href="namespaceyaml__settings.html#af06e8e4d30d8e2a7bda90429f30edc4e" target="_top" xlink:title=" ">
<polygon fill="white" stroke="black" points="283,-19.02 283,-49.02 401,-49.02 401,-19.02 283,-19.02"/>
<text text-anchor="start" x="291" y="-37.02" font-family="Helvetica,sans-Serif" font-size="10.00">yaml_settings::type</text>
<text text-anchor="middle" x="342" y="-26.02" font-family="Helvetica,sans-Serif" font-size="10.00">_integer_setting_create</text>
</a>
</g>
</g>
<!-- Node2&#45;&gt;Node5 -->
<g id="edge5" class="edge">
<title>Node2&#45;&gt;Node5</title>
<path fill="none" stroke="midnightblue" d="M426.94,-49.28C418.8,-47.8 409.99,-46.19 401.24,-44.6"/>
<polygon fill="midnightblue" stroke="midnightblue" points="426.38,-52.73 436.85,-51.08 427.63,-45.85 426.38,-52.73"/>
</g>
<!-- Node6 -->
<g id="node6" class="node">
<title>Node6</title>
<g id="a_node6"><a xlink:href="namespaceyaml__settings.html#a272015627b7da584c91ef06808218070" target="_top" xlink:title=" ">
<polygon fill="white" stroke="black" points="143,-19.02 143,-49.02 247,-49.02 247,-19.02 143,-19.02"/>
<text text-anchor="start" x="151" y="-37.02" font-family="Helvetica,sans-Serif" font-size="10.00">yaml_settings::type</text>
<text text-anchor="middle" x="195" y="-26.02" font-family="Helvetica,sans-Serif" font-size="10.00">_real_setting_create</text>
</a>
</g>
</g>
<!-- Node2&#45;&gt;Node6 -->
<g id="edge8" class="edge">
<title>Node2&#45;&gt;Node6</title>
<path fill="none" stroke="midnightblue" d="M447.61,-39.07C435.81,-28.17 418.89,-14.95 401,-9.02 345.87,9.28 278.42,-5.59 236.32,-18.98"/>
<polygon fill="midnightblue" stroke="midnightblue" points="445.28,-41.7 454.9,-46.14 450.15,-36.67 445.28,-41.7"/>
</g>
<!-- Node4&#45;&gt;Node4 -->
<g id="edge4" class="edge">
<title>Node4&#45;&gt;Node4</title>
<path fill="none" stroke="midnightblue" d="M79.54,-75.04C78.12,-80.14 69.44,-84.02 53.5,-84.02 28.62,-84.02 21.42,-74.58 31.92,-65.77"/>
<polygon fill="midnightblue" stroke="midnightblue" points="82.57,-73.26 75.08,-65.77 76.26,-76.3 82.57,-73.26"/>
</g>
<!-- Node5&#45;&gt;Node6 -->
<g id="edge6" class="edge">
<title>Node5&#45;&gt;Node6</title>
<path fill="none" stroke="midnightblue" d="M272.79,-34.02C264.16,-34.02 255.44,-34.02 247.14,-34.02"/>
<polygon fill="midnightblue" stroke="midnightblue" points="272.86,-37.52 282.86,-34.02 272.86,-30.52 272.86,-37.52"/>
</g>
<!-- Node6&#45;&gt;Node4 -->
<g id="edge7" class="edge">
<title>Node6&#45;&gt;Node4</title>
<path fill="none" stroke="midnightblue" d="M132.86,-43.66C124.26,-45.01 115.47,-46.4 107.05,-47.73"/>
<polygon fill="midnightblue" stroke="midnightblue" points="133.51,-47.1 142.85,-42.08 132.42,-40.18 133.51,-47.1"/>
</g>
</g>
</svg>
