<?xml version="1.0" encoding="UTF-8" standalone="no"?>
<!DOCTYPE svg PUBLIC "-//W3C//DTD SVG 1.1//EN"
 "http://www.w3.org/Graphics/SVG/1.1/DTD/svg11.dtd">
<!-- Generated by graphviz version 2.50.0 (20220203.2022)
 -->
<!-- Title: IonFilterOptions Pages: 1 -->
<svg width="372pt" height="228pt"
 viewBox="0.00 0.00 372.00 228.00" xmlns="http://www.w3.org/2000/svg" xmlns:xlink="http://www.w3.org/1999/xlink">
<g id="graph0" class="graph" transform="scale(1 1) rotate(0) translate(4 224)">
<title>IonFilterOptions</title>
<polygon fill="white" stroke="transparent" points="-4,4 -4,-224 368,-224 368,4 -4,4"/>
<!-- Node1 -->
<g id="node1" class="node">
<title>Node1</title>
<g id="a_node1"><a xlink:title=" ">
<polygon fill="#bfbfbf" stroke="black" points="109.5,-0.5 109.5,-19.5 195.5,-19.5 195.5,-0.5 109.5,-0.5"/>
<text text-anchor="middle" x="152.5" y="-7.5" font-family="Helvetica,sans-Serif" font-size="10.00">IonFilterOptions</text>
</a>
</g>
</g>
<!-- Node2 -->
<g id="node2" class="node">
<title>Node2</title>
<g id="a_node2"><a xlink:href="structOutlierOptions.html" target="_top" xlink:title=" ">
<polygon fill="white" stroke="black" points="0,-78.5 0,-97.5 79,-97.5 79,-78.5 0,-78.5"/>
<text text-anchor="middle" x="39.5" y="-85.5" font-family="Helvetica,sans-Serif" font-size="10.00">OutlierOptions</text>
</a>
</g>
</g>
<!-- Node2&#45;&gt;Node1 -->
<g id="edge1" class="edge">
<title>Node2&#45;&gt;Node1</title>
<path fill="none" stroke="midnightblue" d="M57.08,-71.69C69.16,-61.54 85.78,-48.25 101.5,-38 111.91,-31.21 124.2,-24.67 134.1,-19.72"/>
<polygon fill="midnightblue" stroke="midnightblue" points="54.51,-69.29 49.18,-78.44 59.05,-74.61 54.51,-69.29"/>
</g>
<!-- Node3 -->
<g id="node3" class="node">
<title>Node3</title>
<g id="a_node3"><a xlink:title=" ">
<polygon fill="white" stroke="black" points="104,-195 104,-214 211,-214 211,-195 104,-195"/>
<text text-anchor="middle" x="157.5" y="-202" font-family="Helvetica,sans-Serif" font-size="10.00">std::vector&lt; double &gt;</text>
</a>
</g>
</g>
<!-- Node3&#45;&gt;Node1 -->
<g id="edge2" class="edge">
<title>Node3&#45;&gt;Node1</title>
<path fill="none" stroke="#9a32cd" stroke-dasharray="5,2" d="M147.54,-185.73C135.2,-161.55 116.71,-116.85 124.5,-78 128.91,-56 140.73,-32.2 147.51,-19.74"/>
<polygon fill="#9a32cd" stroke="#9a32cd" points="144.56,-187.58 152.35,-194.76 150.73,-184.29 144.56,-187.58"/>
<text text-anchor="middle" x="154.5" y="-85.5" font-family="Helvetica,sans-Serif" font-size="10.00"> layer_heights</text>
</g>
<!-- Node6 -->
<g id="node6" class="node">
<title>Node6</title>
<g id="a_node6"><a xlink:href="structKalmanModel.html" target="_top" xlink:title="Options associated with kalman filter states.">
<polygon fill="white" stroke="black" points="193.5,-78.5 193.5,-97.5 269.5,-97.5 269.5,-78.5 193.5,-78.5"/>
<text text-anchor="middle" x="231.5" y="-85.5" font-family="Helvetica,sans-Serif" font-size="10.00">KalmanModel</text>
</a>
</g>
</g>
<!-- Node3&#45;&gt;Node6 -->
<g id="edge6" class="edge">
<title>Node3&#45;&gt;Node6</title>
<path fill="none" stroke="#9a32cd" stroke-dasharray="5,2" d="M168.49,-186.49C184.5,-161.72 213.65,-116.61 225.87,-97.71"/>
<polygon fill="#9a32cd" stroke="#9a32cd" points="165.55,-184.6 163.06,-194.89 171.43,-188.4 165.55,-184.6"/>
<text text-anchor="middle" x="238.5" y="-163" font-family="Helvetica,sans-Serif" font-size="10.00"> apriori_val</text>
<text text-anchor="middle" x="238.5" y="-152" font-family="Helvetica,sans-Serif" font-size="10.00">mu</text>
<text text-anchor="middle" x="238.5" y="-141" font-family="Helvetica,sans-Serif" font-size="10.00">proc_noise</text>
<text text-anchor="middle" x="238.5" y="-130" font-family="Helvetica,sans-Serif" font-size="10.00">sigma</text>
<text text-anchor="middle" x="238.5" y="-119" font-family="Helvetica,sans-Serif" font-size="10.00">tau</text>
</g>
<!-- Node4 -->
<g id="node4" class="node">
<title>Node4</title>
<g id="a_node4"><a xlink:title=" ">
<polygon fill="white" stroke="black" points="288,-78.5 288,-97.5 347,-97.5 347,-78.5 288,-78.5"/>
<text text-anchor="middle" x="317.5" y="-85.5" font-family="Helvetica,sans-Serif" font-size="10.00">std::string</text>
</a>
</g>
</g>
<!-- Node4&#45;&gt;Node1 -->
<g id="edge3" class="edge">
<title>Node4&#45;&gt;Node1</title>
<path fill="none" stroke="#9a32cd" stroke-dasharray="5,2" d="M292.79,-73.54C273.6,-63.28 246.17,-49.09 221.5,-38 206.6,-31.3 189.5,-24.6 176.05,-19.56"/>
<polygon fill="#9a32cd" stroke="#9a32cd" points="291.3,-76.71 301.77,-78.36 294.62,-70.54 291.3,-76.71"/>
<text text-anchor="middle" x="295.5" y="-52" font-family="Helvetica,sans-Serif" font-size="10.00"> rts_directory</text>
<text text-anchor="middle" x="295.5" y="-41" font-family="Helvetica,sans-Serif" font-size="10.00">rts_filename</text>
</g>
<!-- Node5 -->
<g id="node5" class="node">
<title>Node5</title>
<g id="a_node5"><a xlink:title=" ">
<polygon fill="white" stroke="black" points="271,-189.5 271,-219.5 364,-219.5 364,-189.5 271,-189.5"/>
<text text-anchor="start" x="279" y="-207.5" font-family="Helvetica,sans-Serif" font-size="10.00">std::basic_string&lt;</text>
<text text-anchor="middle" x="317.5" y="-196.5" font-family="Helvetica,sans-Serif" font-size="10.00"> Char &gt;</text>
</a>
</g>
</g>
<!-- Node5&#45;&gt;Node4 -->
<g id="edge4" class="edge">
<title>Node5&#45;&gt;Node4</title>
<path fill="none" stroke="midnightblue" d="M317.5,-179.43C317.5,-153.84 317.5,-114.76 317.5,-97.59"/>
<polygon fill="midnightblue" stroke="midnightblue" points="314,-179.46 317.5,-189.46 321,-179.46 314,-179.46"/>
</g>
<!-- Node6&#45;&gt;Node1 -->
<g id="edge5" class="edge">
<title>Node6&#45;&gt;Node1</title>
<path fill="none" stroke="#9a32cd" stroke-dasharray="5,2" d="M215.18,-71.3C198.9,-55.64 174.49,-32.16 161.46,-19.62"/>
<polygon fill="#9a32cd" stroke="#9a32cd" points="212.8,-73.87 222.44,-78.28 217.66,-68.83 212.8,-73.87"/>
<text text-anchor="middle" x="209.5" y="-46.5" font-family="Helvetica,sans-Serif" font-size="10.00"> ion</text>
</g>
</g>
</svg>
