<?xml version="1.0" encoding="UTF-8" standalone="no"?>
<!DOCTYPE svg PUBLIC "-//W3C//DTD SVG 1.1//EN"
 "http://www.w3.org/Graphics/SVG/1.1/DTD/svg11.dtd">
<!-- Generated by graphviz version 2.50.0 (20220203.2022)
 -->
<!-- Title: FileSp3Stream Pages: 1 -->
<svg width="275pt" height="152pt"
 viewBox="0.00 0.00 274.50 152.00" xmlns="http://www.w3.org/2000/svg" xmlns:xlink="http://www.w3.org/1999/xlink">
<g id="graph0" class="graph" transform="scale(1 1) rotate(0) translate(4 148)">
<title>FileSp3Stream</title>
<polygon fill="white" stroke="transparent" points="-4,4 -4,-148 270.5,-148 270.5,4 -4,4"/>
<!-- Node1 -->
<g id="node1" class="node">
<title>Node1</title>
<g id="a_node1"><a xlink:title="Object that streams RINEX data from a file.">
<polygon fill="#bfbfbf" stroke="black" points="13.5,-0.5 13.5,-19.5 94.5,-19.5 94.5,-0.5 13.5,-0.5"/>
<text text-anchor="middle" x="54" y="-7.5" font-family="Helvetica,sans-Serif" font-size="10.00">FileSp3Stream</text>
</a>
</g>
</g>
<!-- Node2 -->
<g id="node2" class="node">
<title>Node2</title>
<g id="a_node2"><a xlink:href="structACSFileStream.html" target="_top" xlink:title="Interface to be used for file streams.">
<polygon fill="white" stroke="black" points="0,-57.5 0,-76.5 84,-76.5 84,-57.5 0,-57.5"/>
<text text-anchor="middle" x="42" y="-64.5" font-family="Helvetica,sans-Serif" font-size="10.00">ACSFileStream</text>
</a>
</g>
</g>
<!-- Node2&#45;&gt;Node1 -->
<g id="edge1" class="edge">
<title>Node2&#45;&gt;Node1</title>
<path fill="none" stroke="midnightblue" d="M46.05,-47.42C48.1,-38.05 50.48,-27.14 52.1,-19.71"/>
<polygon fill="midnightblue" stroke="midnightblue" points="42.59,-46.89 43.88,-57.41 49.43,-48.38 42.59,-46.89"/>
</g>
<!-- Node3 -->
<g id="node3" class="node">
<title>Node3</title>
<g id="a_node3"><a xlink:href="structSP3Stream.html" target="_top" xlink:title="Interface for rinex streams.">
<polygon fill="white" stroke="black" points="102.5,-57.5 102.5,-76.5 169.5,-76.5 169.5,-57.5 102.5,-57.5"/>
<text text-anchor="middle" x="136" y="-64.5" font-family="Helvetica,sans-Serif" font-size="10.00">SP3Stream</text>
</a>
</g>
</g>
<!-- Node3&#45;&gt;Node1 -->
<g id="edge2" class="edge">
<title>Node3&#45;&gt;Node1</title>
<path fill="none" stroke="midnightblue" d="M114.87,-51.82C99.63,-41.61 79.57,-28.15 66.72,-19.53"/>
<polygon fill="midnightblue" stroke="midnightblue" points="112.93,-54.74 123.19,-57.41 116.83,-48.93 112.93,-54.74"/>
</g>
<!-- Node4 -->
<g id="node4" class="node">
<title>Node4</title>
<g id="a_node4"><a xlink:href="structPseudoObsStream.html" target="_top" xlink:title="Interface for streams that supply observations.">
<polygon fill="white" stroke="red" points="20.5,-124.5 20.5,-143.5 119.5,-143.5 119.5,-124.5 20.5,-124.5"/>
<text text-anchor="middle" x="70" y="-131.5" font-family="Helvetica,sans-Serif" font-size="10.00">PseudoObsStream</text>
</a>
</g>
</g>
<!-- Node4&#45;&gt;Node3 -->
<g id="edge3" class="edge">
<title>Node4&#45;&gt;Node3</title>
<path fill="none" stroke="midnightblue" d="M86.25,-117C99.19,-104.25 116.81,-86.89 127.24,-76.63"/>
<polygon fill="midnightblue" stroke="midnightblue" points="83.57,-114.72 78.9,-124.23 88.48,-119.71 83.57,-114.72"/>
</g>
<!-- Node10 -->
<g id="node5" class="node">
<title>Node10</title>
<g id="a_node5"><a xlink:title=" ">
<polygon fill="white" stroke="red" points="137.5,-124.5 137.5,-143.5 266.5,-143.5 266.5,-124.5 137.5,-124.5"/>
<text text-anchor="middle" x="202" y="-131.5" font-family="Helvetica,sans-Serif" font-size="10.00">std::vector&lt; PseudoObs &gt;</text>
</a>
</g>
</g>
<!-- Node10&#45;&gt;Node3 -->
<g id="edge4" class="edge">
<title>Node10&#45;&gt;Node3</title>
<path fill="none" stroke="#9a32cd" stroke-dasharray="5,2" d="M185.75,-117C172.81,-104.25 155.19,-86.89 144.76,-76.63"/>
<polygon fill="#9a32cd" stroke="#9a32cd" points="183.52,-119.71 193.1,-124.23 188.43,-114.72 183.52,-119.71"/>
<text text-anchor="middle" x="218" y="-98" font-family="Helvetica,sans-Serif" font-size="10.00"> tempPseudoObsList</text>
</g>
</g>
</svg>
