<?xml version="1.0" encoding="UTF-8" standalone="no"?>
<!DOCTYPE svg PUBLIC "-//W3C//DTD SVG 1.1//EN"
 "http://www.w3.org/Graphics/SVG/1.1/DTD/svg11.dtd">
<!-- Generated by graphviz version 2.50.0 (20220203.2022)
 -->
<!-- Title: GlobalOptions Pages: 1 -->
<svg width="589pt" height="387pt"
 viewBox="0.00 0.00 589.00 386.50" xmlns="http://www.w3.org/2000/svg" xmlns:xlink="http://www.w3.org/1999/xlink">
<g id="graph0" class="graph" transform="scale(1 1) rotate(0) translate(4 382.5)">
<title>GlobalOptions</title>
<polygon fill="white" stroke="transparent" points="-4,4 -4,-382.5 585,-382.5 585,4 -4,4"/>
<!-- Node1 -->
<g id="node1" class="node">
<title>Node1</title>
<g id="a_node1"><a xlink:title="Options for the general operation of the software.">
<polygon fill="#bfbfbf" stroke="black" points="503,-124 503,-143 581,-143 581,-124 503,-124"/>
<text text-anchor="middle" x="542" y="-131" font-family="Helvetica,sans-Serif" font-size="10.00">GlobalOptions</text>
</a>
</g>
</g>
<!-- Node2 -->
<g id="node2" class="node">
<title>Node2</title>
<g id="a_node2"><a xlink:title=" ">
<polygon fill="white" stroke="black" points="312.5,-359 312.5,-378 353.5,-378 353.5,-359 312.5,-359"/>
<text text-anchor="middle" x="333" y="-366" font-family="Helvetica,sans-Serif" font-size="10.00">ptime</text>
</a>
</g>
</g>
<!-- Node2&#45;&gt;Node1 -->
<g id="edge1" class="edge">
<title>Node2&#45;&gt;Node1</title>
<path fill="none" stroke="#9a32cd" stroke-dasharray="5,2" d="M363.23,-361.25C374.78,-357.48 387.71,-352.04 398,-344.5 475.1,-288 523.9,-176.63 537.26,-143.21"/>
<polygon fill="#9a32cd" stroke="#9a32cd" points="362.12,-357.93 353.55,-364.15 364.13,-364.64 362.12,-357.93"/>
<text text-anchor="middle" x="450.5" y="-340.5" font-family="Helvetica,sans-Serif" font-size="10.00"> end_epoch</text>
<text text-anchor="middle" x="450.5" y="-329.5" font-family="Helvetica,sans-Serif" font-size="10.00">start_epoch</text>
</g>
<!-- Node3 -->
<g id="node3" class="node">
<title>Node3</title>
<g id="a_node3"><a xlink:title=" ">
<polygon fill="white" stroke="black" points="130,-187 130,-206 189,-206 189,-187 130,-187"/>
<text text-anchor="middle" x="159.5" y="-194" font-family="Helvetica,sans-Serif" font-size="10.00">std::string</text>
</a>
</g>
</g>
<!-- Node3&#45;&gt;Node1 -->
<g id="edge2" class="edge">
<title>Node3&#45;&gt;Node1</title>
<path fill="none" stroke="#9a32cd" stroke-dasharray="5,2" d="M199.33,-203.58C262.36,-213.2 389.51,-224.76 485,-182.5 505.08,-173.61 523.19,-154.92 533.09,-143.37"/>
<polygon fill="#9a32cd" stroke="#9a32cd" points="199.84,-200.12 189.41,-202 198.74,-207.03 199.84,-200.12"/>
<text text-anchor="middle" x="333" y="-325.5" font-family="Helvetica,sans-Serif" font-size="10.00"> analysis_agency</text>
<text text-anchor="middle" x="333" y="-314.5" font-family="Helvetica,sans-Serif" font-size="10.00">analysis_center</text>
<text text-anchor="middle" x="333" y="-303.5" font-family="Helvetica,sans-Serif" font-size="10.00">analysis_program</text>
<text text-anchor="middle" x="333" y="-292.5" font-family="Helvetica,sans-Serif" font-size="10.00">atmosph_tide_load</text>
<text text-anchor="middle" x="333" y="-281.5" font-family="Helvetica,sans-Serif" font-size="10.00">config_description</text>
<text text-anchor="middle" x="333" y="-270.5" font-family="Helvetica,sans-Serif" font-size="10.00">geoid_model</text>
<text text-anchor="middle" x="333" y="-259.5" font-family="Helvetica,sans-Serif" font-size="10.00">grads_mapping_fn</text>
<text text-anchor="middle" x="333" y="-248.5" font-family="Helvetica,sans-Serif" font-size="10.00">ocean_tide_load</text>
<text text-anchor="middle" x="333" y="-237.5" font-family="Helvetica,sans-Serif" font-size="10.00">pivot_station</text>
<text text-anchor="middle" x="333" y="-226.5" font-family="Helvetica,sans-Serif" font-size="10.00">reference_system</text>
<text text-anchor="middle" x="333" y="-215.5" font-family="Helvetica,sans-Serif" font-size="10.00">...</text>
</g>
<!-- Node7 -->
<g id="node7" class="node">
<title>Node7</title>
<g id="a_node7"><a xlink:title=" ">
<polygon fill="white" stroke="black" points="289,-164 289,-183 377,-183 377,-164 289,-164"/>
<text text-anchor="middle" x="333" y="-171" font-family="Helvetica,sans-Serif" font-size="10.00">std::list&lt; string &gt;</text>
</a>
</g>
</g>
<!-- Node3&#45;&gt;Node7 -->
<g id="edge7" class="edge">
<title>Node3&#45;&gt;Node7</title>
<path fill="none" stroke="#9a32cd" stroke-dasharray="5,2" d="M199.3,-191.3C225.89,-187.73 261.2,-183 288.71,-179.31"/>
<polygon fill="#9a32cd" stroke="#9a32cd" points="198.65,-187.85 189.21,-192.65 199.58,-194.79 198.65,-187.85"/>
<text text-anchor="middle" x="228.5" y="-192.5" font-family="Helvetica,sans-Serif" font-size="10.00"> elements</text>
</g>
<!-- Node4 -->
<g id="node4" class="node">
<title>Node4</title>
<g id="a_node4"><a xlink:title=" ">
<polygon fill="white" stroke="black" points="0,-181.5 0,-211.5 93,-211.5 93,-181.5 0,-181.5"/>
<text text-anchor="start" x="8" y="-199.5" font-family="Helvetica,sans-Serif" font-size="10.00">std::basic_string&lt;</text>
<text text-anchor="middle" x="46.5" y="-188.5" font-family="Helvetica,sans-Serif" font-size="10.00"> Char &gt;</text>
</a>
</g>
</g>
<!-- Node4&#45;&gt;Node3 -->
<g id="edge3" class="edge">
<title>Node4&#45;&gt;Node3</title>
<path fill="none" stroke="midnightblue" d="M103.58,-196.5C112.73,-196.5 121.86,-196.5 129.97,-196.5"/>
<polygon fill="midnightblue" stroke="midnightblue" points="103.29,-193 93.29,-196.5 103.29,-200 103.29,-193"/>
</g>
<!-- Node5 -->
<g id="node5" class="node">
<title>Node5</title>
<g id="a_node5"><a xlink:title=" ">
<polygon fill="white" stroke="black" points="272.5,-126 272.5,-145 393.5,-145 393.5,-126 272.5,-126"/>
<text text-anchor="middle" x="333" y="-133" font-family="Helvetica,sans-Serif" font-size="10.00">std::map&lt; E_Sys, bool &gt;</text>
</a>
</g>
</g>
<!-- Node5&#45;&gt;Node1 -->
<g id="edge4" class="edge">
<title>Node5&#45;&gt;Node1</title>
<path fill="none" stroke="#9a32cd" stroke-dasharray="5,2" d="M403.83,-134.63C407.95,-134.58 412.03,-134.54 416,-134.5 445.19,-134.21 478.21,-133.94 502.98,-133.76"/>
<polygon fill="#9a32cd" stroke="#9a32cd" points="403.53,-131.13 393.57,-134.74 403.6,-138.13 403.53,-131.13"/>
<text text-anchor="middle" x="450.5" y="-148.5" font-family="Helvetica,sans-Serif" font-size="10.00"> process_sys</text>
<text text-anchor="middle" x="450.5" y="-137.5" font-family="Helvetica,sans-Serif" font-size="10.00">solve_amb_for</text>
</g>
<!-- Node6 -->
<g id="node6" class="node">
<title>Node6</title>
<g id="a_node6"><a xlink:title=" ">
<polygon fill="white" stroke="black" points="281,-88 281,-107 385,-107 385,-88 281,-88"/>
<text text-anchor="middle" x="333" y="-95" font-family="Helvetica,sans-Serif" font-size="10.00">std::map&lt; int, bool &gt;</text>
</a>
</g>
</g>
<!-- Node6&#45;&gt;Node1 -->
<g id="edge5" class="edge">
<title>Node6&#45;&gt;Node1</title>
<path fill="none" stroke="#9a32cd" stroke-dasharray="5,2" d="M395.56,-104.31C423.06,-107.8 455.79,-112.58 485,-118.5 492.5,-120.02 500.48,-121.96 508,-123.93"/>
<polygon fill="#9a32cd" stroke="#9a32cd" points="395.64,-100.8 385.29,-103.04 394.78,-107.74 395.64,-100.8"/>
<text text-anchor="middle" x="450.5" y="-121.5" font-family="Helvetica,sans-Serif" font-size="10.00"> process_freq</text>
</g>
<!-- Node7&#45;&gt;Node1 -->
<g id="edge6" class="edge">
<title>Node7&#45;&gt;Node1</title>
<path fill="none" stroke="#9a32cd" stroke-dasharray="5,2" d="M387.21,-171.12C416.43,-168.92 453.11,-164.67 485,-156.5 497.52,-153.29 510.94,-147.86 521.5,-143.07"/>
<polygon fill="#9a32cd" stroke="#9a32cd" points="386.94,-167.63 377.2,-171.82 387.42,-174.62 386.94,-167.63"/>
<text text-anchor="middle" x="450.5" y="-170.5" font-family="Helvetica,sans-Serif" font-size="10.00"> station_files</text>
</g>
<!-- Node8 -->
<g id="node8" class="node">
<title>Node8</title>
<g id="a_node8"><a xlink:title=" ">
<polygon fill="white" stroke="black" points="268,-50 268,-69 398,-69 398,-50 268,-50"/>
<text text-anchor="middle" x="333" y="-57" font-family="Helvetica,sans-Serif" font-size="10.00">std::vector&lt; E_ObsCode &gt;</text>
</a>
</g>
</g>
<!-- Node8&#45;&gt;Node1 -->
<g id="edge8" class="edge">
<title>Node8&#45;&gt;Node1</title>
<path fill="none" stroke="#9a32cd" stroke-dasharray="5,2" d="M407.9,-68.55C433.11,-73.35 460.98,-80.6 485,-91.5 502.93,-99.64 520.59,-114.3 531.14,-123.96"/>
<polygon fill="#9a32cd" stroke="#9a32cd" points="408.48,-65.1 398.01,-66.77 407.23,-71.99 408.48,-65.1"/>
<text text-anchor="middle" x="450.5" y="-94.5" font-family="Helvetica,sans-Serif" font-size="10.00"> code_priorities</text>
</g>
<!-- Node9 -->
<g id="node9" class="node">
<title>Node9</title>
<g id="a_node9"><a xlink:title=" ">
<polygon fill="white" stroke="black" points="282.5,-0.5 282.5,-30.5 383.5,-30.5 383.5,-0.5 282.5,-0.5"/>
<text text-anchor="start" x="290.5" y="-18.5" font-family="Helvetica,sans-Serif" font-size="10.00">std::map&lt; E_Sys, E</text>
<text text-anchor="middle" x="333" y="-7.5" font-family="Helvetica,sans-Serif" font-size="10.00">_ObsCode &gt;</text>
</a>
</g>
</g>
<!-- Node9&#45;&gt;Node1 -->
<g id="edge9" class="edge">
<title>Node9&#45;&gt;Node1</title>
<path fill="none" stroke="#9a32cd" stroke-dasharray="5,2" d="M393.96,-15.52C423.56,-18.15 458.5,-25.42 485,-43.5 514.49,-63.62 531.44,-104.93 537.93,-123.76"/>
<polygon fill="#9a32cd" stroke="#9a32cd" points="393.96,-12.01 383.74,-14.78 393.46,-18.99 393.96,-12.01"/>
<text text-anchor="middle" x="450.5" y="-57.5" font-family="Helvetica,sans-Serif" font-size="10.00"> clock_codesL1</text>
<text text-anchor="middle" x="450.5" y="-46.5" font-family="Helvetica,sans-Serif" font-size="10.00">clock_codesL2</text>
</g>
</g>
</svg>
