<?xml version="1.0" encoding="UTF-8" standalone="no"?>
<!DOCTYPE svg PUBLIC "-//W3C//DTD SVG 1.1//EN"
 "http://www.w3.org/Graphics/SVG/1.1/DTD/svg11.dtd">
<!-- Generated by graphviz version 2.50.0 (20220203.2022)
 -->
<!-- Title: ObsStream Pages: 1 -->
<svg width="285pt" height="228pt"
 viewBox="0.00 0.00 284.50 228.00" xmlns="http://www.w3.org/2000/svg" xmlns:xlink="http://www.w3.org/1999/xlink">
<g id="graph0" class="graph" transform="scale(1 1) rotate(0) translate(4 224)">
<title>ObsStream</title>
<polygon fill="white" stroke="transparent" points="-4,4 -4,-224 280.5,-224 280.5,4 -4,4"/>
<!-- Node1 -->
<g id="node1" class="node">
<title>Node1</title>
<g id="a_node1"><a xlink:title="Interface for streams that supply observations.">
<polygon fill="#bfbfbf" stroke="black" points="91.5,-0.5 91.5,-19.5 157.5,-19.5 157.5,-0.5 91.5,-0.5"/>
<text text-anchor="middle" x="124.5" y="-7.5" font-family="Helvetica,sans-Serif" font-size="10.00">ObsStream</text>
</a>
</g>
</g>
<!-- Node2 -->
<g id="node2" class="node">
<title>Node2</title>
<g id="a_node2"><a xlink:href="structRinexStation.html" target="_top" xlink:title=" ">
<polygon fill="white" stroke="black" points="89,-67.5 89,-86.5 160,-86.5 160,-67.5 89,-67.5"/>
<text text-anchor="middle" x="124.5" y="-74.5" font-family="Helvetica,sans-Serif" font-size="10.00">RinexStation</text>
</a>
</g>
</g>
<!-- Node2&#45;&gt;Node1 -->
<g id="edge1" class="edge">
<title>Node2&#45;&gt;Node1</title>
<path fill="none" stroke="#9a32cd" stroke-dasharray="5,2" d="M124.5,-57.04C124.5,-44.67 124.5,-29.12 124.5,-19.63"/>
<polygon fill="#9a32cd" stroke="#9a32cd" points="121,-57.23 124.5,-67.23 128,-57.23 121,-57.23"/>
<text text-anchor="middle" x="147.5" y="-41" font-family="Helvetica,sans-Serif" font-size="10.00"> rnxStation</text>
</g>
<!-- Node3 -->
<g id="node3" class="node">
<title>Node3</title>
<g id="a_node3"><a xlink:title=" ">
<polygon fill="white" stroke="red" points="0,-200.5 0,-219.5 59,-219.5 59,-200.5 0,-200.5"/>
<text text-anchor="middle" x="29.5" y="-207.5" font-family="Helvetica,sans-Serif" font-size="10.00">std::string</text>
</a>
</g>
</g>
<!-- Node3&#45;&gt;Node1 -->
<g id="edge6" class="edge">
<title>Node3&#45;&gt;Node1</title>
<path fill="none" stroke="#9a32cd" stroke-dasharray="5,2" d="M22.38,-190.68C12.5,-162.05 -1.66,-105.96 21.5,-67 36.48,-41.81 67.2,-27.24 91.21,-19.31"/>
<polygon fill="#9a32cd" stroke="#9a32cd" points="19.14,-192.02 25.86,-200.21 25.71,-189.62 19.14,-192.02"/>
<text text-anchor="middle" x="50.5" y="-74.5" font-family="Helvetica,sans-Serif" font-size="10.00"> sourceString</text>
</g>
<!-- Node3&#45;&gt;Node2 -->
<g id="edge2" class="edge">
<title>Node3&#45;&gt;Node2</title>
<path fill="none" stroke="#9a32cd" stroke-dasharray="5,2" d="M30.37,-190.19C32.38,-167.38 38.99,-129.01 60.5,-105 68.06,-96.56 78.7,-90.67 89.14,-86.61"/>
<polygon fill="#9a32cd" stroke="#9a32cd" points="26.87,-190.06 29.69,-200.28 33.85,-190.53 26.87,-190.06"/>
<text text-anchor="middle" x="91.5" y="-174" font-family="Helvetica,sans-Serif" font-size="10.00"> antDesc</text>
<text text-anchor="middle" x="91.5" y="-163" font-family="Helvetica,sans-Serif" font-size="10.00">antSerial</text>
<text text-anchor="middle" x="91.5" y="-152" font-family="Helvetica,sans-Serif" font-size="10.00">id</text>
<text text-anchor="middle" x="91.5" y="-141" font-family="Helvetica,sans-Serif" font-size="10.00">marker</text>
<text text-anchor="middle" x="91.5" y="-130" font-family="Helvetica,sans-Serif" font-size="10.00">recFWVersion</text>
<text text-anchor="middle" x="91.5" y="-119" font-family="Helvetica,sans-Serif" font-size="10.00">recSerial</text>
<text text-anchor="middle" x="91.5" y="-108" font-family="Helvetica,sans-Serif" font-size="10.00">recType</text>
</g>
<!-- Node5 -->
<g id="node4" class="node">
<title>Node5</title>
<g id="a_node4"><a xlink:title=" ">
<polygon fill="white" stroke="black" points="102.5,-200.5 102.5,-219.5 158.5,-219.5 158.5,-200.5 102.5,-200.5"/>
<text text-anchor="middle" x="130.5" y="-207.5" font-family="Helvetica,sans-Serif" font-size="10.00">Vector3d</text>
</a>
</g>
</g>
<!-- Node5&#45;&gt;Node2 -->
<g id="edge3" class="edge">
<title>Node5&#45;&gt;Node2</title>
<path fill="none" stroke="#9a32cd" stroke-dasharray="5,2" d="M129.63,-190.09C128.32,-161.36 125.87,-107.82 124.9,-86.8"/>
<polygon fill="#9a32cd" stroke="#9a32cd" points="126.15,-190.58 130.11,-200.4 133.15,-190.26 126.15,-190.58"/>
<text text-anchor="middle" x="137.5" y="-146.5" font-family="Helvetica,sans-Serif" font-size="10.00"> del</text>
<text text-anchor="middle" x="137.5" y="-135.5" font-family="Helvetica,sans-Serif" font-size="10.00">pos</text>
</g>
<!-- Node6 -->
<g id="node5" class="node">
<title>Node6</title>
<g id="a_node5"><a xlink:title=" ">
<polygon fill="white" stroke="black" points="178.5,-67.5 178.5,-86.5 276.5,-86.5 276.5,-67.5 178.5,-67.5"/>
<text text-anchor="middle" x="227.5" y="-74.5" font-family="Helvetica,sans-Serif" font-size="10.00">std::list&lt; ObsList &gt;</text>
</a>
</g>
</g>
<!-- Node6&#45;&gt;Node1 -->
<g id="edge4" class="edge">
<title>Node6&#45;&gt;Node1</title>
<path fill="none" stroke="#9a32cd" stroke-dasharray="5,2" d="M208.13,-61.21C198.27,-53.92 185.97,-45.17 174.5,-38 163.96,-31.41 151.68,-24.77 141.93,-19.72"/>
<polygon fill="#9a32cd" stroke="#9a32cd" points="206.31,-64.22 216.41,-67.42 210.51,-58.62 206.31,-64.22"/>
<text text-anchor="middle" x="217.5" y="-41" font-family="Helvetica,sans-Serif" font-size="10.00"> obsListList</text>
</g>
<!-- Node7 -->
<g id="node6" class="node">
<title>Node7</title>
<g id="a_node6"><a xlink:title=" ">
<polygon fill="white" stroke="red" points="185.5,-200.5 185.5,-219.5 269.5,-219.5 269.5,-200.5 185.5,-200.5"/>
<text text-anchor="middle" x="227.5" y="-207.5" font-family="Helvetica,sans-Serif" font-size="10.00">std::vector&lt; T &gt;</text>
</a>
</g>
</g>
<!-- Node7&#45;&gt;Node6 -->
<g id="edge5" class="edge">
<title>Node7&#45;&gt;Node6</title>
<path fill="none" stroke="#9a32cd" stroke-dasharray="5,2" d="M227.5,-190.09C227.5,-161.36 227.5,-107.82 227.5,-86.8"/>
<polygon fill="#9a32cd" stroke="#9a32cd" points="224,-190.4 227.5,-200.4 231,-190.4 224,-190.4"/>
<text text-anchor="middle" x="249" y="-141" font-family="Helvetica,sans-Serif" font-size="10.00"> elements</text>
</g>
</g>
</svg>
