<?xml version="1.0" encoding="UTF-8" standalone="no"?>
<!DOCTYPE svg PUBLIC "-//W3C//DTD SVG 1.1//EN"
 "http://www.w3.org/Graphics/SVG/1.1/DTD/svg11.dtd">
<!-- Generated by graphviz version 2.50.0 (20220203.2022)
 -->
<!-- Title: SatSys::sysChar Pages: 1 -->
<!--zoomable 693 -->
<svg id="main" version="1.1" xmlns="http://www.w3.org/2000/svg" xmlns:xlink="http://www.w3.org/1999/xlink" xml:space="preserve" onload="init(evt)">
<style type="text/css"><![CDATA[
.edge:hover path { stroke: red; }
.edge:hover polygon { stroke: red; fill: red; }
]]></style>
<script type="text/javascript"><![CDATA[
var edges = document.getElementsByTagName('g');
if (edges && edges.length) {
  for (var i=0;i<edges.length;i++) {
    if (edges[i].id.substr(0,4)=='edge') {
      edges[i].setAttribute('class','edge');
    }
  }
}
]]></script>
        <defs>
                <circle id="rim" cx="0" cy="0" r="7"/>
                <circle id="rim2" cx="0" cy="0" r="3.5"/>
                <g id="zoomPlus">
                        <use xlink:href="#rim" fill="#404040">
                                <set attributeName="fill" to="#808080" begin="zoomplus.mouseover" end="zoomplus.mouseout"/>
                        </use>
                        <path d="M-4,0h8M0,-4v8" fill="none" stroke="white" stroke-width="1.5" pointer-events="none"/>
                </g>
                <g id="zoomMin">
                        <use xlink:href="#rim" fill="#404040">
                                <set attributeName="fill" to="#808080" begin="zoomminus.mouseover" end="zoomminus.mouseout"/>
                        </use>
                        <path d="M-4,0h8" fill="none" stroke="white" stroke-width="1.5" pointer-events="none"/>
                </g>
                <g id="dirArrow">
                        <path fill="none" stroke="white" stroke-width="1.5" d="M0,-3.0v7 M-2.5,-0.5L0,-3.0L2.5,-0.5"/>
                </g>
               <g id="resetDef">
                       <use xlink:href="#rim2" fill="#404040">
                               <set attributeName="fill" to="#808080" begin="reset.mouseover" end="reset.mouseout"/>
                       </use>
               </g>
        </defs>

<script type="text/javascript">
var viewWidth = 849;
var viewHeight = 693;
var sectionId = 'dynsection-14';
</script>
<script xlink:href="svgpan.js"/>
<svg id="graph" class="graph">
<g id="viewport">
<title>SatSys::sysChar</title>
<polygon fill="white" stroke="transparent" points="-4,4 -4,-689 845,-689 845,4 -4,4"/>
<!-- Node1 -->
<g id="node1" class="node">
<title>Node1</title>
<g id="a_node1"><a xlink:title="Returns the character used as a prefix for this system.">
<polygon fill="#bfbfbf" stroke="black" points="753,-190.5 753,-209.5 841,-209.5 841,-190.5 753,-190.5"/>
<text text-anchor="middle" x="797" y="-197.5" font-family="Helvetica,sans-Serif" font-size="10.00">SatSys::sysChar</text>
</a>
</g>
</g>
<!-- Node2 -->
<g id="node2" class="node">
<title>Node2</title>
<g id="a_node2"><a xlink:href="structRtcmDecoder.html#a187d2bf36da0d4de61f4c603b203b09f" target="_top" xlink:title=" ">
<polygon fill="white" stroke="black" points="379,-456.5 379,-475.5 511,-475.5 511,-456.5 379,-456.5"/>
<text text-anchor="middle" x="445" y="-463.5" font-family="Helvetica,sans-Serif" font-size="10.00">RtcmDecoder::decodeSSR</text>
</a>
</g>
</g>
<!-- Node1&#45;&gt;Node2 -->
<g id="edge1" class="edge">
<title>Node1&#45;&gt;Node2</title>
<path fill="none" stroke="midnightblue" d="M790.46,-219.33C780.52,-250.99 756.87,-314.22 717,-353 655.34,-412.98 557.22,-442.98 497.49,-456.47"/>
<polygon fill="midnightblue" stroke="midnightblue" points="793.88,-220.13 793.41,-209.55 787.17,-218.11 793.88,-220.13"/>
</g>
<!-- Node8 -->
<g id="node4" class="node">
<title>Node8</title>
<g id="a_node4"><a xlink:href="biasSINEXread_8cpp.html#a063ba8fe35a80404ea27345b60592828" target="_top" xlink:title="Convert GAL BGDs into OSBs &amp; DSB.">
<polygon fill="white" stroke="black" points="391.5,-418.5 391.5,-437.5 498.5,-437.5 498.5,-418.5 391.5,-418.5"/>
<text text-anchor="middle" x="445" y="-425.5" font-family="Helvetica,sans-Serif" font-size="10.00">decomposeBGDBias</text>
</a>
</g>
</g>
<!-- Node1&#45;&gt;Node8 -->
<g id="edge3" class="edge">
<title>Node1&#45;&gt;Node8</title>
<path fill="none" stroke="midnightblue" d="M787.2,-218.73C774.68,-243.62 749.61,-287.62 717,-315 648.68,-372.36 547.13,-404.11 489.71,-418.45"/>
<polygon fill="midnightblue" stroke="midnightblue" points="790.4,-220.15 791.64,-209.63 784.11,-217.08 790.4,-220.15"/>
</g>
<!-- Node22 -->
<g id="node7" class="node">
<title>Node22</title>
<g id="a_node7"><a xlink:href="biasSINEXread_8cpp.html#a4189b53abc056c39f46bd56d0032b546" target="_top" xlink:title="Convert GPS/QZS TGD into OSBs &amp; DSB.">
<polygon fill="white" stroke="black" points="391.5,-380.5 391.5,-399.5 498.5,-399.5 498.5,-380.5 391.5,-380.5"/>
<text text-anchor="middle" x="445" y="-387.5" font-family="Helvetica,sans-Serif" font-size="10.00">decomposeTGDBias</text>
</a>
</g>
</g>
<!-- Node1&#45;&gt;Node22 -->
<g id="edge7" class="edge">
<title>Node1&#45;&gt;Node22</title>
<path fill="none" stroke="midnightblue" d="M780.28,-217.29C765.02,-233.53 740.74,-257.96 717,-276 671.79,-310.36 658.89,-317.93 607,-341 566.15,-359.16 553.79,-358.06 511,-371 500.65,-374.13 489.34,-377.46 479.1,-380.45"/>
<polygon fill="midnightblue" stroke="midnightblue" points="783.15,-219.34 787.38,-209.63 778.02,-214.58 783.15,-219.34"/>
</g>
<!-- Node23 -->
<g id="node8" class="node">
<title>Node23</title>
<g id="a_node8"><a xlink:href="biasSINEXread_8cpp.html#ad8d3890eaff651716f2ad2d8240438c8" target="_top" xlink:title="Search for hardware biases in phase and code.">
<polygon fill="white" stroke="black" points="408,-152.5 408,-171.5 482,-171.5 482,-152.5 408,-152.5"/>
<text text-anchor="middle" x="445" y="-159.5" font-family="Helvetica,sans-Serif" font-size="10.00">getBiasSinex</text>
</a>
</g>
</g>
<!-- Node1&#45;&gt;Node23 -->
<g id="edge10" class="edge">
<title>Node1&#45;&gt;Node23</title>
<path fill="none" stroke="midnightblue" d="M742.5,-194.19C670.36,-186.36 543.83,-172.62 482.02,-165.91"/>
<polygon fill="midnightblue" stroke="midnightblue" points="742.41,-197.7 752.73,-195.3 743.17,-190.74 742.41,-197.7"/>
</g>
<!-- Node40 -->
<g id="node15" class="node">
<title>Node40</title>
<g id="a_node15"><a xlink:href="structSatSys.html#adbdf98ba1ef1f22b6aaed93916529513" target="_top" xlink:title="Sets a 4 character c_string of this satellite&#39;s id.">
<polygon fill="white" stroke="black" points="643,-247.5 643,-266.5 717,-266.5 717,-247.5 643,-247.5"/>
<text text-anchor="middle" x="680" y="-254.5" font-family="Helvetica,sans-Serif" font-size="10.00">SatSys::getId</text>
</a>
</g>
</g>
<!-- Node1&#45;&gt;Node40 -->
<g id="edge17" class="edge">
<title>Node1&#45;&gt;Node40</title>
<path fill="none" stroke="midnightblue" d="M767.68,-214.04C746.73,-224.42 718.74,-238.29 700.31,-247.43"/>
<polygon fill="midnightblue" stroke="midnightblue" points="769.35,-217.12 776.75,-209.54 766.24,-210.85 769.35,-217.12"/>
</g>
<!-- Node102 -->
<g id="node20" class="node">
<title>Node102</title>
<g id="a_node20"><a xlink:href="biasSINEXread_8cpp.html#afe3e2e7c8dbfe8bd5991dbbdac91ede2" target="_top" xlink:title="Read data line in bias SINEX file.">
<polygon fill="white" stroke="red" points="390.5,-114.5 390.5,-133.5 499.5,-133.5 499.5,-114.5 390.5,-114.5"/>
<text text-anchor="middle" x="445" y="-121.5" font-family="Helvetica,sans-Serif" font-size="10.00">read_biasSINEX_line</text>
</a>
</g>
</g>
<!-- Node1&#45;&gt;Node102 -->
<g id="edge44" class="edge">
<title>Node1&#45;&gt;Node102</title>
<path fill="none" stroke="midnightblue" d="M749.52,-187.87C738.86,-185.19 727.55,-182.43 717,-180 639.98,-162.3 550.04,-144.23 495.59,-133.57"/>
<polygon fill="midnightblue" stroke="midnightblue" points="748.95,-191.34 759.5,-190.4 750.67,-184.55 748.95,-191.34"/>
</g>
<!-- Node105 -->
<g id="node21" class="node">
<title>Node105</title>
<g id="a_node21"><a xlink:href="preceph_8cpp.html#afce393d951c02d5f6afc0dddf010bc92" target="_top" xlink:title=" ">
<polygon fill="white" stroke="red" points="419.5,-76.5 419.5,-95.5 470.5,-95.5 470.5,-76.5 419.5,-76.5"/>
<text text-anchor="middle" x="445" y="-83.5" font-family="Helvetica,sans-Serif" font-size="10.00">readdcb</text>
</a>
</g>
</g>
<!-- Node1&#45;&gt;Node105 -->
<g id="edge45" class="edge">
<title>Node1&#45;&gt;Node105</title>
<path fill="none" stroke="midnightblue" d="M769.62,-185.42C754.53,-177.47 735.05,-167.88 717,-161 628.74,-127.35 519.07,-101.72 470.79,-91.21"/>
<polygon fill="midnightblue" stroke="midnightblue" points="768.38,-188.72 778.85,-190.36 771.69,-182.55 768.38,-188.72"/>
</g>
<!-- Node106 -->
<g id="node22" class="node">
<title>Node106</title>
<g id="a_node22"><a xlink:href="ionex_8cpp.html#a8ebc2ddf815b9888aebc10af77fe7b18" target="_top" xlink:title=" ">
<polygon fill="white" stroke="red" points="408,-38.5 408,-57.5 482,-57.5 482,-38.5 408,-38.5"/>
<text text-anchor="middle" x="445" y="-45.5" font-family="Helvetica,sans-Serif" font-size="10.00">readionexdcb</text>
</a>
</g>
</g>
<!-- Node1&#45;&gt;Node106 -->
<g id="edge46" class="edge">
<title>Node1&#45;&gt;Node106</title>
<path fill="none" stroke="midnightblue" d="M780.19,-183.25C765.19,-168.23 741.37,-146.53 717,-133 638.97,-89.69 535.81,-65.13 482.06,-54.46"/>
<polygon fill="midnightblue" stroke="midnightblue" points="777.7,-185.71 787.19,-190.42 782.71,-180.82 777.7,-185.71"/>
</g>
<!-- Node134 -->
<g id="node23" class="node">
<title>Node134</title>
<g id="a_node23"><a xlink:href="biasSINEXwrite_8cpp.html#a4e4fe834c1dbcb6b4a41560de1d7432e" target="_top" xlink:title="print bias SINEX data line">
<polygon fill="white" stroke="red" points="396,-0.5 396,-19.5 494,-19.5 494,-0.5 396,-0.5"/>
<text text-anchor="middle" x="445" y="-7.5" font-family="Helvetica,sans-Serif" font-size="10.00">write_bSINEX_line</text>
</a>
</g>
</g>
<!-- Node1&#45;&gt;Node134 -->
<g id="edge47" class="edge">
<title>Node1&#45;&gt;Node134</title>
<path fill="none" stroke="midnightblue" d="M786.36,-181.41C773.51,-158.4 748.67,-119.5 717,-97 648.52,-48.35 551.48,-25.95 494.02,-16.39"/>
<polygon fill="midnightblue" stroke="midnightblue" points="783.28,-183.08 791.11,-190.21 789.43,-179.75 783.28,-183.08"/>
</g>
<!-- Node137 -->
<g id="node25" class="node">
<title>Node137</title>
<g id="a_node25"><a xlink:href="rinexClkWrite_8cpp.html#ae105b449da2c0d5e0ce91380d3b6907b" target="_top" xlink:title=" ">
<polygon fill="white" stroke="black" points="384.5,-551.5 384.5,-570.5 505.5,-570.5 505.5,-551.5 384.5,-551.5"/>
<text text-anchor="middle" x="445" y="-558.5" font-family="Helvetica,sans-Serif" font-size="10.00">getSysOutputFilenames</text>
</a>
</g>
</g>
<!-- Node1&#45;&gt;Node137 -->
<g id="edge36" class="edge">
<title>Node1&#45;&gt;Node137</title>
<path fill="none" stroke="midnightblue" d="M792.05,-220.02C783.8,-257.47 761.71,-339.11 717,-392 646.66,-475.21 524.64,-530.25 471.71,-551.34"/>
<polygon fill="midnightblue" stroke="midnightblue" points="795.55,-220.4 794.17,-209.89 788.69,-218.96 795.55,-220.4"/>
</g>
<!-- Node3 -->
<g id="node3" class="node">
<title>Node3</title>
<g id="a_node3"><a xlink:href="structRtcmStream.html#a34a7a941dab214b7ff6b17e8a53eb55a" target="_top" xlink:title=" ">
<polygon fill="white" stroke="red" points="10.5,-415.5 10.5,-434.5 138.5,-434.5 138.5,-415.5 10.5,-415.5"/>
<text text-anchor="middle" x="74.5" y="-422.5" font-family="Helvetica,sans-Serif" font-size="10.00">RtcmStream::parseRTCM</text>
</a>
</g>
</g>
<!-- Node2&#45;&gt;Node3 -->
<g id="edge2" class="edge">
<title>Node2&#45;&gt;Node3</title>
<path fill="none" stroke="midnightblue" d="M368.78,-457.63C300.99,-450.09 202.44,-439.12 138.65,-432.03"/>
<polygon fill="midnightblue" stroke="midnightblue" points="368.64,-461.14 378.97,-458.76 369.42,-454.18 368.64,-461.14"/>
</g>
<!-- Node9 -->
<g id="node5" class="node">
<title>Node9</title>
<g id="a_node5"><a xlink:href="rinex_8cpp.html#afb57cdb7cbbb718d96f87e59bb9baa1d" target="_top" xlink:title=" ">
<polygon fill="white" stroke="red" points="229.5,-361.5 229.5,-380.5 298.5,-380.5 298.5,-361.5 229.5,-361.5"/>
<text text-anchor="middle" x="264" y="-368.5" font-family="Helvetica,sans-Serif" font-size="10.00">decode_eph</text>
</a>
</g>
</g>
<!-- Node8&#45;&gt;Node9 -->
<g id="edge4" class="edge">
<title>Node8&#45;&gt;Node9</title>
<path fill="none" stroke="midnightblue" d="M396.49,-415.32C390.54,-413.38 384.58,-411.26 379,-409 362.23,-402.21 359.92,-396.41 343,-390 328.79,-384.62 312.54,-380.37 298.57,-377.27"/>
<polygon fill="midnightblue" stroke="midnightblue" points="395.85,-418.79 406.44,-418.42 397.93,-412.1 395.85,-418.79"/>
</g>
<!-- Node21 -->
<g id="node6" class="node">
<title>Node21</title>
<g id="a_node6"><a xlink:href="structRtcmDecoder.html#a6673aa5a16d7e997de9ce5e43fac7860" target="_top" xlink:title=" ">
<polygon fill="white" stroke="black" points="185,-399.5 185,-418.5 343,-418.5 343,-399.5 185,-399.5"/>
<text text-anchor="middle" x="264" y="-406.5" font-family="Helvetica,sans-Serif" font-size="10.00">RtcmDecoder::decodeEphemeris</text>
</a>
</g>
</g>
<!-- Node8&#45;&gt;Node21 -->
<g id="edge5" class="edge">
<title>Node8&#45;&gt;Node21</title>
<path fill="none" stroke="midnightblue" d="M381.16,-421.33C368.91,-420.03 355.92,-418.65 343.24,-417.3"/>
<polygon fill="midnightblue" stroke="midnightblue" points="380.95,-424.83 391.26,-422.4 381.69,-417.87 380.95,-424.83"/>
</g>
<!-- Node21&#45;&gt;Node3 -->
<g id="edge6" class="edge">
<title>Node21&#45;&gt;Node3</title>
<path fill="none" stroke="midnightblue" d="M174.69,-416.54C162.54,-417.57 150.28,-418.62 138.71,-419.61"/>
<polygon fill="midnightblue" stroke="midnightblue" points="175.17,-420.01 184.84,-415.67 174.58,-413.03 175.17,-420.01"/>
</g>
<!-- Node22&#45;&gt;Node9 -->
<g id="edge8" class="edge">
<title>Node22&#45;&gt;Node9</title>
<path fill="none" stroke="midnightblue" d="M381.23,-383.34C353.49,-380.39 321.97,-377.05 298.76,-374.58"/>
<polygon fill="midnightblue" stroke="midnightblue" points="380.95,-386.83 391.26,-384.4 381.69,-379.87 380.95,-386.83"/>
</g>
<!-- Node22&#45;&gt;Node21 -->
<g id="edge9" class="edge">
<title>Node22&#45;&gt;Node21</title>
<path fill="none" stroke="midnightblue" d="M381.16,-396.67C368.91,-397.97 355.92,-399.35 343.24,-400.7"/>
<polygon fill="midnightblue" stroke="midnightblue" points="381.69,-400.13 391.26,-395.6 380.95,-393.17 381.69,-400.13"/>
</g>
<!-- Node24 -->
<g id="node9" class="node">
<title>Node24</title>
<g id="a_node9"><a xlink:href="ppp_8cpp.html#aaf5e8ef15242164157594caa1b63f7e9" target="_top" xlink:title="Antenna corrected measurement.">
<polygon fill="white" stroke="red" points="233,-190.5 233,-209.5 295,-209.5 295,-190.5 233,-190.5"/>
<text text-anchor="middle" x="264" y="-197.5" font-family="Helvetica,sans-Serif" font-size="10.00">corr_meas</text>
</a>
</g>
</g>
<!-- Node23&#45;&gt;Node24 -->
<g id="edge11" class="edge">
<title>Node23&#45;&gt;Node24</title>
<path fill="none" stroke="midnightblue" d="M397.67,-171.83C365.39,-178.69 323.26,-187.63 295.23,-193.58"/>
<polygon fill="midnightblue" stroke="midnightblue" points="398.72,-175.19 407.78,-169.69 397.27,-168.34 398.72,-175.19"/>
</g>
<!-- Node31 -->
<g id="node10" class="node">
<title>Node31</title>
<g id="a_node10"><a xlink:href="biasSINEXread_8cpp.html#a23958b8fb1d3b1a42d4465331e776dea" target="_top" xlink:title="Search for absolute hardware biases in phase and code.">
<polygon fill="white" stroke="black" points="227,-76.5 227,-95.5 301,-95.5 301,-76.5 227,-76.5"/>
<text text-anchor="middle" x="264" y="-83.5" font-family="Helvetica,sans-Serif" font-size="10.00">getBiasSinex</text>
</a>
</g>
</g>
<!-- Node23&#45;&gt;Node31 -->
<g id="edge12" class="edge">
<title>Node23&#45;&gt;Node31</title>
<path fill="none" stroke="midnightblue" d="M398.1,-151.92C391.44,-149.52 384.86,-146.58 379,-143 359.15,-130.87 363.12,-116.67 343,-105 330.34,-97.66 314.94,-93.14 301.19,-90.37"/>
<polygon fill="midnightblue" stroke="midnightblue" points="397.24,-155.32 407.83,-155.06 399.39,-148.66 397.24,-155.32"/>
</g>
<!-- Node32 -->
<g id="node11" class="node">
<title>Node32</title>
<g id="a_node11"><a xlink:href="spp_8cpp.html#a94f6b70d37281b0c7712a6c05aab586c" target="_top" xlink:title="Calculate pseudorange with code bias correction.">
<polygon fill="white" stroke="red" points="241,-228.5 241,-247.5 287,-247.5 287,-228.5 241,-228.5"/>
<text text-anchor="middle" x="264" y="-235.5" font-family="Helvetica,sans-Serif" font-size="10.00">prange</text>
</a>
</g>
</g>
<!-- Node23&#45;&gt;Node32 -->
<g id="edge13" class="edge">
<title>Node23&#45;&gt;Node32</title>
<path fill="none" stroke="midnightblue" d="M421.26,-177.24C401.36,-189.98 371.29,-207.82 343,-219 324.72,-226.22 302.92,-231.25 287.01,-234.32"/>
<polygon fill="midnightblue" stroke="midnightblue" points="423.43,-180.01 429.91,-171.62 419.62,-174.14 423.43,-180.01"/>
</g>
<!-- Node36 -->
<g id="node12" class="node">
<title>Node36</title>
<g id="a_node12"><a xlink:href="mongoWrite_8cpp.html#ac5399222f483050332a2571ebcbc5ba1" target="_top" xlink:title=" ">
<polygon fill="white" stroke="black" points="218,-152.5 218,-171.5 310,-171.5 310,-152.5 218,-152.5"/>
<text text-anchor="middle" x="264" y="-159.5" font-family="Helvetica,sans-Serif" font-size="10.00">prepareSsrStates</text>
</a>
</g>
</g>
<!-- Node23&#45;&gt;Node36 -->
<g id="edge14" class="edge">
<title>Node23&#45;&gt;Node36</title>
<path fill="none" stroke="midnightblue" d="M397.44,-162C370.5,-162 336.75,-162 310.07,-162"/>
<polygon fill="midnightblue" stroke="midnightblue" points="397.78,-165.5 407.78,-162 397.78,-158.5 397.78,-165.5"/>
</g>
<!-- Node38 -->
<g id="node14" class="node">
<title>Node38</title>
<g id="a_node14"><a xlink:href="ppppp__obs_8cpp.html#a3db2ffced7ab37c4874c3a53fcb7953e" target="_top" xlink:title=" ">
<polygon fill="white" stroke="red" points="231,-114.5 231,-133.5 297,-133.5 297,-114.5 231,-114.5"/>
<text text-anchor="middle" x="264" y="-121.5" font-family="Helvetica,sans-Serif" font-size="10.00">stationPPP</text>
</a>
</g>
</g>
<!-- Node23&#45;&gt;Node38 -->
<g id="edge16" class="edge">
<title>Node23&#45;&gt;Node38</title>
<path fill="none" stroke="midnightblue" d="M397.9,-152.21C366.36,-145.52 325.34,-136.81 297.26,-130.85"/>
<polygon fill="midnightblue" stroke="midnightblue" points="397.27,-155.66 407.78,-154.31 398.72,-148.81 397.27,-155.66"/>
</g>
<!-- Node37 -->
<g id="node13" class="node">
<title>Node37</title>
<g id="a_node13"><a xlink:href="main_8cpp.html#a052aae1f895ebdbdaf816f70d9287e78" target="_top" xlink:title=" ">
<polygon fill="white" stroke="red" points="0,-470 0,-500 149,-500 149,-470 0,-470"/>
<text text-anchor="start" x="8" y="-488" font-family="Helvetica,sans-Serif" font-size="10.00">mainPerEpochPostProcessing</text>
<text text-anchor="middle" x="74.5" y="-477" font-family="Helvetica,sans-Serif" font-size="10.00">AndOutputs</text>
</a>
</g>
</g>
<!-- Node36&#45;&gt;Node37 -->
<g id="edge15" class="edge">
<title>Node36&#45;&gt;Node37</title>
<path fill="none" stroke="midnightblue" d="M208.1,-166.56C199.35,-169.59 191.17,-174.16 185,-181 105.98,-268.6 215.52,-346.56 149,-444 141.34,-455.22 129.54,-463.7 117.63,-469.95"/>
<polygon fill="midnightblue" stroke="midnightblue" points="209.06,-169.93 217.74,-163.86 207.17,-163.19 209.06,-169.93"/>
</g>
<!-- Node41 -->
<g id="node16" class="node">
<title>Node41</title>
<g id="a_node16"><a xlink:href="brdc2sp3__main_8cpp.html#a4d3471358091d3a4ea528b47af119710" target="_top" xlink:title=" ">
<polygon fill="white" stroke="black" points="408.5,-342.5 408.5,-361.5 481.5,-361.5 481.5,-342.5 408.5,-342.5"/>
<text text-anchor="middle" x="445" y="-349.5" font-family="Helvetica,sans-Serif" font-size="10.00">BS_satantoff</text>
</a>
</g>
</g>
<!-- Node40&#45;&gt;Node41 -->
<g id="edge18" class="edge">
<title>Node40&#45;&gt;Node41</title>
<path fill="none" stroke="midnightblue" d="M663.07,-273.83C649.43,-287.25 628.62,-305.47 607,-316 566.7,-335.63 515.5,-344.71 481.8,-348.81"/>
<polygon fill="midnightblue" stroke="midnightblue" points="665.69,-276.16 670.22,-266.59 660.71,-271.24 665.69,-276.16"/>
</g>
<!-- Node42 -->
<g id="node17" class="node">
<title>Node42</title>
<g id="a_node17"><a xlink:href="acsQC_8cpp.html#a099d227578f6d7896777651aca60fe1b" target="_top" xlink:title="Cycle slip detection and repair.">
<polygon fill="white" stroke="red" points="547.5,-266.5 547.5,-285.5 606.5,-285.5 606.5,-266.5 547.5,-266.5"/>
<text text-anchor="middle" x="577" y="-273.5" font-family="Helvetica,sans-Serif" font-size="10.00">detectslip</text>
</a>
</g>
</g>
<!-- Node40&#45;&gt;Node42 -->
<g id="edge19" class="edge">
<title>Node40&#45;&gt;Node42</title>
<path fill="none" stroke="midnightblue" d="M632.87,-265.68C623.94,-267.36 614.82,-269.07 606.65,-270.61"/>
<polygon fill="midnightblue" stroke="midnightblue" points="633.64,-269.09 642.82,-263.81 632.35,-262.21 633.64,-269.09"/>
</g>
<!-- Node44 -->
<g id="node18" class="node">
<title>Node44</title>
<g id="a_node18"><a xlink:href="structSatSys.html#aec6d07b90d1e8172b8b6a6966abef4fd" target="_top" xlink:title="Returns a std::string of this satellite&#39;s id.">
<polygon fill="white" stroke="red" points="547,-228.5 547,-247.5 607,-247.5 607,-228.5 547,-228.5"/>
<text text-anchor="middle" x="577" y="-235.5" font-family="Helvetica,sans-Serif" font-size="10.00">SatSys::id</text>
</a>
</g>
</g>
<!-- Node40&#45;&gt;Node44 -->
<g id="edge20" class="edge">
<title>Node40&#45;&gt;Node44</title>
<path fill="none" stroke="midnightblue" d="M632.78,-248.31C624.11,-246.67 615.27,-245.01 607.29,-243.51"/>
<polygon fill="midnightblue" stroke="midnightblue" points="632.35,-251.79 642.82,-250.19 633.64,-244.91 632.35,-251.79"/>
</g>
<!-- Node76 -->
<g id="node19" class="node">
<title>Node76</title>
<g id="a_node19"><a xlink:href="linearCombo_8cpp.html#aa1b18e5a14543945bb9c7929e8aa4fce" target="_top" xlink:title="Function to prepare some predefined linear combinations from an observation.">
<polygon fill="white" stroke="red" points="422.5,-304.5 422.5,-323.5 467.5,-323.5 467.5,-304.5 422.5,-304.5"/>
<text text-anchor="middle" x="445" y="-311.5" font-family="Helvetica,sans-Serif" font-size="10.00">obs2lc</text>
</a>
</g>
</g>
<!-- Node40&#45;&gt;Node76 -->
<g id="edge34" class="edge">
<title>Node40&#45;&gt;Node76</title>
<path fill="none" stroke="midnightblue" d="M656.08,-271.9C642.38,-280.07 624.33,-289.61 607,-295 558.76,-310 499.01,-313.31 467.61,-313.94"/>
<polygon fill="midnightblue" stroke="midnightblue" points="658.12,-274.75 664.8,-266.53 654.45,-268.79 658.12,-274.75"/>
</g>
<!-- Node136 -->
<g id="node24" class="node">
<title>Node136</title>
<g id="a_node24"><a xlink:href="preceph_8cpp.html#aef29999a1ade744059943c42d0d76ce3" target="_top" xlink:title=" ">
<polygon fill="white" stroke="red" points="550.5,-190.5 550.5,-209.5 603.5,-209.5 603.5,-190.5 550.5,-190.5"/>
<text text-anchor="middle" x="577" y="-197.5" font-family="Helvetica,sans-Serif" font-size="10.00">pephpos</text>
</a>
</g>
</g>
<!-- Node40&#45;&gt;Node136 -->
<g id="edge35" class="edge">
<title>Node40&#45;&gt;Node136</title>
<path fill="none" stroke="midnightblue" d="M653.14,-242.41C634.82,-232.07 610.78,-218.5 594.88,-209.53"/>
<polygon fill="midnightblue" stroke="midnightblue" points="651.44,-245.46 661.87,-247.33 654.88,-239.37 651.44,-245.46"/>
</g>
<!-- Node44&#45;&gt;Node2 -->
<g id="edge24" class="edge">
<title>Node44&#45;&gt;Node2</title>
<path fill="none" stroke="midnightblue" d="M549.03,-254.33C548.3,-255.18 547.62,-256.07 547,-257 499.25,-328.46 568.75,-383.35 511,-447 507.52,-450.83 503.32,-453.91 498.75,-456.37"/>
<polygon fill="midnightblue" stroke="midnightblue" points="551.5,-256.81 556.62,-247.54 546.83,-251.6 551.5,-256.81"/>
</g>
<!-- Node44&#45;&gt;Node8 -->
<g id="edge25" class="edge">
<title>Node44&#45;&gt;Node8</title>
<path fill="none" stroke="midnightblue" d="M549.08,-254.36C548.34,-255.21 547.64,-256.09 547,-257 507.13,-313.84 558.8,-358.65 511,-409 507.36,-412.84 502.99,-415.91 498.26,-418.37"/>
<polygon fill="midnightblue" stroke="midnightblue" points="551.55,-256.86 556.75,-247.63 546.93,-251.6 551.55,-256.86"/>
</g>
<!-- Node44&#45;&gt;Node9 -->
<g id="edge23" class="edge">
<title>Node44&#45;&gt;Node9</title>
<path fill="none" stroke="midnightblue" d="M537.06,-247.76C488.11,-260.28 407.11,-281.94 379,-295 338.66,-313.74 296.42,-345.65 276.59,-361.5"/>
<polygon fill="midnightblue" stroke="midnightblue" points="538.16,-251.09 546.98,-245.23 536.43,-244.31 538.16,-251.09"/>
</g>
<!-- Node44&#45;&gt;Node22 -->
<g id="edge26" class="edge">
<title>Node44&#45;&gt;Node22</title>
<path fill="none" stroke="midnightblue" d="M549.53,-254.04C548.63,-254.99 547.78,-255.97 547,-257 514.92,-299.35 548.97,-333.84 511,-371 507.05,-374.87 502.36,-377.95 497.34,-380.41"/>
<polygon fill="midnightblue" stroke="midnightblue" points="551.84,-256.67 557.25,-247.56 547.34,-251.31 551.84,-256.67"/>
</g>
<!-- Node44&#45;&gt;Node23 -->
<g id="edge27" class="edge">
<title>Node44&#45;&gt;Node23</title>
<path fill="none" stroke="midnightblue" d="M551.89,-222.64C550.21,-221.44 548.57,-220.22 547,-219 529.87,-205.68 529.53,-197.3 511,-186 501.35,-180.11 490.02,-175.31 479.55,-171.59"/>
<polygon fill="midnightblue" stroke="midnightblue" points="550.09,-225.65 560.33,-228.39 554.04,-219.87 550.09,-225.65"/>
</g>
<!-- Node44&#45;&gt;Node24 -->
<g id="edge22" class="edge">
<title>Node44&#45;&gt;Node24</title>
<path fill="none" stroke="midnightblue" d="M536.43,-233.17C473.48,-225.47 351.89,-210.62 295.32,-203.7"/>
<polygon fill="midnightblue" stroke="midnightblue" points="536.39,-236.69 546.74,-234.43 537.24,-229.74 536.39,-236.69"/>
</g>
<!-- Node44&#45;&gt;Node32 -->
<g id="edge29" class="edge">
<title>Node44&#45;&gt;Node32</title>
<path fill="none" stroke="midnightblue" d="M536.72,-238C470.62,-238 339.28,-238 287.11,-238"/>
<polygon fill="midnightblue" stroke="midnightblue" points="536.74,-241.5 546.74,-238 536.74,-234.5 536.74,-241.5"/>
</g>
<!-- Node44&#45;&gt;Node41 -->
<g id="edge21" class="edge">
<title>Node44&#45;&gt;Node41</title>
<path fill="none" stroke="midnightblue" d="M549.78,-254.11C548.8,-255.04 547.87,-256 547,-257 522.45,-285.18 539.43,-308.74 511,-333 502.77,-340.02 492.06,-344.45 481.72,-347.24"/>
<polygon fill="midnightblue" stroke="midnightblue" points="552.26,-256.61 557.91,-247.65 547.9,-251.13 552.26,-256.61"/>
</g>
<!-- Node44&#45;&gt;Node76 -->
<g id="edge28" class="edge">
<title>Node44&#45;&gt;Node76</title>
<path fill="none" stroke="midnightblue" d="M551.89,-253.36C550.21,-254.56 548.57,-255.78 547,-257 529.87,-270.32 529.53,-278.7 511,-290 497.55,-298.21 480.84,-304.3 467.74,-308.29"/>
<polygon fill="midnightblue" stroke="midnightblue" points="554.04,-256.13 560.33,-247.61 550.09,-250.35 554.04,-256.13"/>
</g>
<!-- Node44&#45;&gt;Node102 -->
<g id="edge30" class="edge">
<title>Node44&#45;&gt;Node102</title>
<path fill="none" stroke="midnightblue" d="M549.78,-221.89C548.8,-220.96 547.87,-220 547,-219 522.45,-190.82 539.43,-167.26 511,-143 506.44,-139.11 501.12,-136.01 495.51,-133.55"/>
<polygon fill="midnightblue" stroke="midnightblue" points="547.9,-224.87 557.91,-228.35 552.26,-219.39 547.9,-224.87"/>
</g>
<!-- Node44&#45;&gt;Node105 -->
<g id="edge31" class="edge">
<title>Node44&#45;&gt;Node105</title>
<path fill="none" stroke="midnightblue" d="M549.53,-221.96C548.63,-221.01 547.78,-220.03 547,-219 514.92,-176.65 548.97,-142.16 511,-105 500.33,-94.56 484.25,-89.8 470.75,-87.66"/>
<polygon fill="midnightblue" stroke="midnightblue" points="547.34,-224.69 557.25,-228.44 551.84,-219.33 547.34,-224.69"/>
</g>
<!-- Node44&#45;&gt;Node106 -->
<g id="edge32" class="edge">
<title>Node44&#45;&gt;Node106</title>
<path fill="none" stroke="midnightblue" d="M549.08,-221.64C548.34,-220.79 547.64,-219.91 547,-219 507.13,-162.16 558.8,-117.35 511,-67 503.39,-58.99 492.61,-54.29 482,-51.57"/>
<polygon fill="midnightblue" stroke="midnightblue" points="546.93,-224.4 556.75,-228.37 551.55,-219.14 546.93,-224.4"/>
</g>
<!-- Node44&#45;&gt;Node134 -->
<g id="edge33" class="edge">
<title>Node44&#45;&gt;Node134</title>
<path fill="none" stroke="midnightblue" d="M549.03,-221.67C548.3,-220.82 547.62,-219.93 547,-219 499.25,-147.54 568.75,-92.65 511,-29 506.42,-23.95 500.58,-20.21 494.28,-17.45"/>
<polygon fill="midnightblue" stroke="midnightblue" points="546.83,-224.4 556.62,-228.46 551.5,-219.19 546.83,-224.4"/>
</g>
<!-- Node137&#45;&gt;Node37 -->
<g id="edge38" class="edge">
<title>Node137&#45;&gt;Node37</title>
<path fill="none" stroke="midnightblue" d="M387.77,-549.4C323.63,-536.18 218.57,-514.51 148.25,-500"/>
<polygon fill="midnightblue" stroke="midnightblue" points="387.2,-552.86 397.7,-551.45 388.62,-546 387.2,-552.86"/>
</g>
<!-- Node138 -->
<g id="node26" class="node">
<title>Node138</title>
<g id="a_node26"><a xlink:href="main_8cpp.html#a29d52cfc981619584262b20b497865db" target="_top" xlink:title="Create new empty trace files only when required when the filename is changed.">
<polygon fill="white" stroke="red" points="221,-589.5 221,-608.5 307,-608.5 307,-589.5 221,-589.5"/>
<text text-anchor="middle" x="264" y="-596.5" font-family="Helvetica,sans-Serif" font-size="10.00">createTracefiles</text>
</a>
</g>
</g>
<!-- Node137&#45;&gt;Node138 -->
<g id="edge37" class="edge">
<title>Node137&#45;&gt;Node138</title>
<path fill="none" stroke="midnightblue" d="M388.98,-572.68C362.61,-578.28 331.53,-584.88 307.08,-590.07"/>
<polygon fill="midnightblue" stroke="midnightblue" points="389.78,-576.09 398.83,-570.59 388.32,-569.24 389.78,-576.09"/>
</g>
<!-- Node101 -->
<g id="node27" class="node">
<title>Node101</title>
<g id="a_node27"><a xlink:href="sp3Write_8cpp.html#a014c620b54545593c4cc4e8bd0b87b25" target="_top" xlink:title=" ">
<polygon fill="white" stroke="black" points="233.5,-475.5 233.5,-494.5 294.5,-494.5 294.5,-475.5 233.5,-475.5"/>
<text text-anchor="middle" x="264" y="-482.5" font-family="Helvetica,sans-Serif" font-size="10.00">outputSp3</text>
</a>
</g>
</g>
<!-- Node137&#45;&gt;Node101 -->
<g id="edge39" class="edge">
<title>Node137&#45;&gt;Node101</title>
<path fill="none" stroke="midnightblue" d="M418.81,-546.44C398.72,-535.23 369.65,-519.86 343,-509 327.39,-502.64 309.43,-497 294.69,-492.8"/>
<polygon fill="midnightblue" stroke="midnightblue" points="417.2,-549.55 427.63,-551.42 420.64,-543.46 417.2,-549.55"/>
</g>
<!-- Node53 -->
<g id="node28" class="node">
<title>Node53</title>
<g id="a_node28"><a xlink:href="rtsSmoothing_8cpp.html#a5578ecd05e227e9ffc9828e5c7ad287e" target="_top" xlink:title=" ">
<polygon fill="white" stroke="red" points="220,-551.5 220,-570.5 308,-570.5 308,-551.5 220,-551.5"/>
<text text-anchor="middle" x="264" y="-558.5" font-family="Helvetica,sans-Serif" font-size="10.00">postRTSActions</text>
</a>
</g>
</g>
<!-- Node137&#45;&gt;Node53 -->
<g id="edge41" class="edge">
<title>Node137&#45;&gt;Node53</title>
<path fill="none" stroke="midnightblue" d="M374.3,-561C352.03,-561 328.03,-561 308.21,-561"/>
<polygon fill="midnightblue" stroke="midnightblue" points="374.4,-564.5 384.4,-561 374.4,-557.5 374.4,-564.5"/>
</g>
<!-- Node87 -->
<g id="node29" class="node">
<title>Node87</title>
<g id="a_node29"><a xlink:href="rinexNavWrite_8cpp.html#acfa075e8efad5e2ebce159dfb921a4bc" target="_top" xlink:title=" ">
<polygon fill="white" stroke="red" points="224,-665.5 224,-684.5 304,-684.5 304,-665.5 224,-665.5"/>
<text text-anchor="middle" x="264" y="-672.5" font-family="Helvetica,sans-Serif" font-size="10.00">writeRinexNav</text>
</a>
</g>
</g>
<!-- Node137&#45;&gt;Node87 -->
<g id="edge42" class="edge">
<title>Node137&#45;&gt;Node87</title>
<path fill="none" stroke="midnightblue" d="M430.35,-578.5C412.58,-600.05 379.45,-636.23 343,-656 331.12,-662.44 317.04,-666.73 304.14,-669.57"/>
<polygon fill="midnightblue" stroke="midnightblue" points="433.24,-580.49 436.79,-570.5 427.79,-576.1 433.24,-580.49"/>
</g>
<!-- Node139 -->
<g id="node30" class="node">
<title>Node139</title>
<g id="a_node30"><a xlink:href="rinexObsWrite_8cpp.html#ab37a1bf1c4cd6f1099216ee508910dd9" target="_top" xlink:title=" ">
<polygon fill="white" stroke="red" points="224,-627.5 224,-646.5 304,-646.5 304,-627.5 224,-627.5"/>
<text text-anchor="middle" x="264" y="-634.5" font-family="Helvetica,sans-Serif" font-size="10.00">writeRinexObs</text>
</a>
</g>
</g>
<!-- Node137&#45;&gt;Node139 -->
<g id="edge43" class="edge">
<title>Node137&#45;&gt;Node139</title>
<path fill="none" stroke="midnightblue" d="M421.26,-576.24C401.36,-588.98 371.29,-606.82 343,-618 330.69,-622.87 316.77,-626.74 304.14,-629.68"/>
<polygon fill="midnightblue" stroke="midnightblue" points="423.43,-579.01 429.91,-570.62 419.62,-573.14 423.43,-579.01"/>
</g>
<!-- Node101&#45;&gt;Node37 -->
<g id="edge40" class="edge">
<title>Node101&#45;&gt;Node37</title>
<path fill="none" stroke="midnightblue" d="M223.22,-485C201.69,-485 174.41,-485 149.16,-485"/>
<polygon fill="midnightblue" stroke="midnightblue" points="223.29,-488.5 233.29,-485 223.29,-481.5 223.29,-488.5"/>
</g>
</g>
</svg>
        <g id="navigator" transform="translate(0 0)" fill="#404254">
                <rect fill="#f2f5e9" fill-opacity="0.5" stroke="#606060" stroke-width=".5" x="0" y="0" width="60" height="60"/>
                <use id="zoomplus" xlink:href="#zoomPlus" x="17" y="9" onmousedown="handleZoom(evt,'in')"/>
                <use id="zoomminus" xlink:href="#zoomMin" x="42" y="9" onmousedown="handleZoom(evt,'out')"/>
                <use id="reset" xlink:href="#resetDef" x="30" y="36" onmousedown="handleReset()"/>
                <g id="arrowUp" xlink:href="#dirArrow" transform="translate(30 24)" onmousedown="handlePan(0,-1)">
                  <use xlink:href="#rim" fill="#404040">
                        <set attributeName="fill" to="#808080" begin="arrowUp.mouseover" end="arrowUp.mouseout"/>
                  </use>
                  <path fill="none" stroke="white" stroke-width="1.5" d="M0,-3.0v7 M-2.5,-0.5L0,-3.0L2.5,-0.5"/>
                </g>
                <g id="arrowRight" xlink:href="#dirArrow" transform="rotate(90) translate(36 -43)" onmousedown="handlePan(1,0)">
                  <use xlink:href="#rim" fill="#404040">
                        <set attributeName="fill" to="#808080" begin="arrowRight.mouseover" end="arrowRight.mouseout"/>
                  </use>
                  <path fill="none" stroke="white" stroke-width="1.5" d="M0,-3.0v7 M-2.5,-0.5L0,-3.0L2.5,-0.5"/>
                </g>
                <g id="arrowDown" xlink:href="#dirArrow" transform="rotate(180) translate(-30 -48)" onmousedown="handlePan(0,1)">
                  <use xlink:href="#rim" fill="#404040">
                        <set attributeName="fill" to="#808080" begin="arrowDown.mouseover" end="arrowDown.mouseout"/>
                  </use>
                  <path fill="none" stroke="white" stroke-width="1.5" d="M0,-3.0v7 M-2.5,-0.5L0,-3.0L2.5,-0.5"/>
                </g>
                <g id="arrowLeft" xlink:href="#dirArrow" transform="rotate(270) translate(-36 17)" onmousedown="handlePan(-1,0)">
                  <use xlink:href="#rim" fill="#404040">
                        <set attributeName="fill" to="#808080" begin="arrowLeft.mouseover" end="arrowLeft.mouseout"/>
                  </use>
                  <path fill="none" stroke="white" stroke-width="1.5" d="M0,-3.0v7 M-2.5,-0.5L0,-3.0L2.5,-0.5"/>
                </g>
        </g>
        <svg viewBox="0 0 15 15" width="100%" height="30px" preserveAspectRatio="xMaxYMin meet">
         <g id="arrow_out" transform="scale(0.3 0.3)">
          <a xlink:href="structSatSys_abfd7e43b0d57c2718d05ca595ee360dd_icgraph_org.svg" target="_base">
           <rect id="button" ry="5" rx="5" y="6" x="6" height="38" width="38"
                fill="#f2f5e9" fill-opacity="0.5" stroke="#606060" stroke-width="1.0"/>
           <path id="arrow"
             d="M 11.500037,31.436501 C 11.940474,20.09759 22.043105,11.32322 32.158766,21.979434 L 37.068811,17.246167 C 37.068811,17.246167 37.088388,32 37.088388,32 L 22.160133,31.978069 C 22.160133,31.978069 26.997745,27.140456 26.997745,27.140456 C 18.528582,18.264221 13.291696,25.230495 11.500037,31.436501 z"
             style="fill:#404040;"/>
          </a>
         </g>
        </svg>
</svg>
