<?xml version="1.0" encoding="UTF-8" standalone="no"?>
<!DOCTYPE svg PUBLIC "-//W3C//DTD SVG 1.1//EN"
 "http://www.w3.org/Graphics/SVG/1.1/DTD/svg11.dtd">
<!-- Generated by graphviz version 2.50.0 (20220203.2022)
 -->
<!-- Title: RtcmDecoder::nowTime Pages: 1 -->
<svg width="490pt" height="104pt"
 viewBox="0.00 0.00 490.00 104.00" xmlns="http://www.w3.org/2000/svg" xmlns:xlink="http://www.w3.org/1999/xlink">
<g id="graph0" class="graph" transform="scale(1 1) rotate(0) translate(4 100)">
<title>RtcmDecoder::nowTime</title>
<polygon fill="white" stroke="transparent" points="-4,4 -4,-100 486,-100 486,4 -4,4"/>
<!-- Node1 -->
<g id="node1" class="node">
<title>Node1</title>
<g id="a_node1"><a xlink:title=" ">
<polygon fill="#bfbfbf" stroke="black" points="362,-57.5 362,-76.5 482,-76.5 482,-57.5 362,-57.5"/>
<text text-anchor="middle" x="422" y="-64.5" font-family="Helvetica,sans-Serif" font-size="10.00">RtcmDecoder::nowTime</text>
</a>
</g>
</g>
<!-- Node2 -->
<g id="node2" class="node">
<title>Node2</title>
<g id="a_node2"><a xlink:href="structRtcmDecoder.html#a1396a506d3b48a90a3c160f80a78173a" target="_top" xlink:title=" ">
<polygon fill="white" stroke="black" points="194,-76.5 194,-95.5 326,-95.5 326,-76.5 194,-76.5"/>
<text text-anchor="middle" x="260" y="-83.5" font-family="Helvetica,sans-Serif" font-size="10.00">RtcmDecoder::adjgpsweek</text>
</a>
</g>
</g>
<!-- Node1&#45;&gt;Node2 -->
<g id="edge1" class="edge">
<title>Node1&#45;&gt;Node2</title>
<path fill="none" stroke="midnightblue" d="M351.91,-75.2C343.33,-76.22 334.59,-77.26 326.07,-78.27"/>
<polygon fill="midnightblue" stroke="midnightblue" points="352.36,-78.68 361.88,-74.02 351.53,-71.72 352.36,-78.68"/>
</g>
<!-- Node9 -->
<g id="node4" class="node">
<title>Node9</title>
<g id="a_node4"><a xlink:href="structRtcmDecoder.html#a30e1272fcf539706e94183c7835a36e0" target="_top" xlink:title=" ">
<polygon fill="white" stroke="black" points="198.5,-38.5 198.5,-57.5 321.5,-57.5 321.5,-38.5 198.5,-38.5"/>
<text text-anchor="middle" x="260" y="-45.5" font-family="Helvetica,sans-Serif" font-size="10.00">RtcmDecoder::tow2Time</text>
</a>
</g>
</g>
<!-- Node1&#45;&gt;Node9 -->
<g id="edge3" class="edge">
<title>Node1&#45;&gt;Node9</title>
<path fill="none" stroke="midnightblue" d="M351.94,-58.8C341.89,-57.61 331.62,-56.39 321.75,-55.21"/>
<polygon fill="midnightblue" stroke="midnightblue" points="351.53,-62.28 361.88,-59.98 352.36,-55.32 351.53,-62.28"/>
</g>
<!-- Node3 -->
<g id="node3" class="node">
<title>Node3</title>
<g id="a_node3"><a xlink:href="structRtcmDecoder.html#a6673aa5a16d7e997de9ce5e43fac7860" target="_top" xlink:title=" ">
<polygon fill="white" stroke="red" points="0,-76.5 0,-95.5 158,-95.5 158,-76.5 0,-76.5"/>
<text text-anchor="middle" x="79" y="-83.5" font-family="Helvetica,sans-Serif" font-size="10.00">RtcmDecoder::decodeEphemeris</text>
</a>
</g>
</g>
<!-- Node2&#45;&gt;Node3 -->
<g id="edge2" class="edge">
<title>Node2&#45;&gt;Node3</title>
<path fill="none" stroke="midnightblue" d="M183.69,-86C175.25,-86 166.64,-86 158.17,-86"/>
<polygon fill="midnightblue" stroke="midnightblue" points="183.87,-89.5 193.87,-86 183.87,-82.5 183.87,-89.5"/>
</g>
<!-- Node10 -->
<g id="node5" class="node">
<title>Node10</title>
<g id="a_node5"><a xlink:href="structRtcmDecoder.html#a255b1924964121ecb5ac55d1efc0cd64" target="_top" xlink:title=" ">
<polygon fill="white" stroke="red" points="9,-38.5 9,-57.5 149,-57.5 149,-38.5 9,-38.5"/>
<text text-anchor="middle" x="79" y="-45.5" font-family="Helvetica,sans-Serif" font-size="10.00">RtcmDecoder::decodeMSM7</text>
</a>
</g>
</g>
<!-- Node9&#45;&gt;Node10 -->
<g id="edge4" class="edge">
<title>Node9&#45;&gt;Node10</title>
<path fill="none" stroke="midnightblue" d="M188.23,-48C175.37,-48 161.98,-48 149.17,-48"/>
<polygon fill="midnightblue" stroke="midnightblue" points="188.4,-51.5 198.4,-48 188.4,-44.5 188.4,-51.5"/>
</g>
<!-- Node11 -->
<g id="node6" class="node">
<title>Node11</title>
<g id="a_node6"><a xlink:href="structRtcmDecoder.html#a187d2bf36da0d4de61f4c603b203b09f" target="_top" xlink:title=" ">
<polygon fill="white" stroke="red" points="13,-0.5 13,-19.5 145,-19.5 145,-0.5 13,-0.5"/>
<text text-anchor="middle" x="79" y="-7.5" font-family="Helvetica,sans-Serif" font-size="10.00">RtcmDecoder::decodeSSR</text>
</a>
</g>
</g>
<!-- Node9&#45;&gt;Node11 -->
<g id="edge5" class="edge">
<title>Node9&#45;&gt;Node11</title>
<path fill="none" stroke="midnightblue" d="M203.98,-36.32C178.59,-30.93 148.84,-24.61 124.84,-19.52"/>
<polygon fill="midnightblue" stroke="midnightblue" points="203.32,-39.76 213.83,-38.41 204.78,-32.91 203.32,-39.76"/>
</g>
</g>
</svg>
