<?xml version="1.0" encoding="UTF-8" standalone="no"?>
<!DOCTYPE svg PUBLIC "-//W3C//DTD SVG 1.1//EN"
 "http://www.w3.org/Graphics/SVG/1.1/DTD/svg11.dtd">
<!-- Generated by graphviz version 2.50.0 (20220203.2022)
 -->
<!-- Title: NtripRtcmStream Pages: 1 -->
<!--zoomable 352 -->
<svg id="main" version="1.1" xmlns="http://www.w3.org/2000/svg" xmlns:xlink="http://www.w3.org/1999/xlink" xml:space="preserve" onload="init(evt)">
<style type="text/css"><![CDATA[
.edge:hover path { stroke: red; }
.edge:hover polygon { stroke: red; fill: red; }
]]></style>
<script type="text/javascript"><![CDATA[
var edges = document.getElementsByTagName('g');
if (edges && edges.length) {
  for (var i=0;i<edges.length;i++) {
    if (edges[i].id.substr(0,4)=='edge') {
      edges[i].setAttribute('class','edge');
    }
  }
}
]]></script>
        <defs>
                <circle id="rim" cx="0" cy="0" r="7"/>
                <circle id="rim2" cx="0" cy="0" r="3.5"/>
                <g id="zoomPlus">
                        <use xlink:href="#rim" fill="#404040">
                                <set attributeName="fill" to="#808080" begin="zoomplus.mouseover" end="zoomplus.mouseout"/>
                        </use>
                        <path d="M-4,0h8M0,-4v8" fill="none" stroke="white" stroke-width="1.5" pointer-events="none"/>
                </g>
                <g id="zoomMin">
                        <use xlink:href="#rim" fill="#404040">
                                <set attributeName="fill" to="#808080" begin="zoomminus.mouseover" end="zoomminus.mouseout"/>
                        </use>
                        <path d="M-4,0h8" fill="none" stroke="white" stroke-width="1.5" pointer-events="none"/>
                </g>
                <g id="dirArrow">
                        <path fill="none" stroke="white" stroke-width="1.5" d="M0,-3.0v7 M-2.5,-0.5L0,-3.0L2.5,-0.5"/>
                </g>
               <g id="resetDef">
                       <use xlink:href="#rim2" fill="#404040">
                               <set attributeName="fill" to="#808080" begin="reset.mouseover" end="reset.mouseout"/>
                       </use>
               </g>
        </defs>

<script type="text/javascript">
var viewWidth = 612;
var viewHeight = 352;
var sectionId = 'dynsection-1';
</script>
<script xlink:href="svgpan.js"/>
<svg id="graph" class="graph">
<g id="viewport">
<title>NtripRtcmStream</title>
<polygon fill="white" stroke="transparent" points="-4,4 -4,-347.72 608,-347.72 608,4 -4,4"/>
<!-- Node1 -->
<g id="node1" class="node">
<title>Node1</title>
<g id="a_node1"><a xlink:title="Object that streams RTCM data from NTRIP castors.">
<polygon fill="#bfbfbf" stroke="black" points="512,-205.22 512,-224.22 604,-224.22 604,-205.22 512,-205.22"/>
<text text-anchor="middle" x="558" y="-212.22" font-family="Helvetica,sans-Serif" font-size="10.00">NtripRtcmStream</text>
</a>
</g>
</g>
<!-- Node2 -->
<g id="node2" class="node">
<title>Node2</title>
<g id="a_node2"><a xlink:href="structNtripStream.html" target="_top" xlink:title=" ">
<polygon fill="white" stroke="black" points="405,-286.22 405,-305.22 474,-305.22 474,-286.22 405,-286.22"/>
<text text-anchor="middle" x="439.5" y="-293.22" font-family="Helvetica,sans-Serif" font-size="10.00">NtripStream</text>
</a>
</g>
</g>
<!-- Node2&#45;&gt;Node1 -->
<g id="edge1" class="edge">
<title>Node2&#45;&gt;Node1</title>
<path fill="none" stroke="midnightblue" d="M462.71,-280.28C486.44,-263.78 523.33,-238.14 543.2,-224.32"/>
<polygon fill="midnightblue" stroke="midnightblue" points="460.53,-277.53 454.32,-286.11 464.53,-283.28 460.53,-277.53"/>
</g>
<!-- Node3 -->
<g id="node3" class="node">
<title>Node3</title>
<g id="a_node3"><a xlink:href="structNtripSocket.html" target="_top" xlink:title=" ">
<polygon fill="white" stroke="red" points="179.5,-324.22 179.5,-343.22 247.5,-343.22 247.5,-324.22 179.5,-324.22"/>
<text text-anchor="middle" x="213.5" y="-331.22" font-family="Helvetica,sans-Serif" font-size="10.00">NtripSocket</text>
</a>
</g>
</g>
<!-- Node3&#45;&gt;Node2 -->
<g id="edge2" class="edge">
<title>Node3&#45;&gt;Node2</title>
<path fill="none" stroke="midnightblue" d="M257.92,-329.66C292.77,-325.98 342.83,-319.74 386,-310.72 393.15,-309.23 400.74,-307.28 407.87,-305.28"/>
<polygon fill="midnightblue" stroke="midnightblue" points="257.21,-326.22 247.62,-330.72 257.92,-333.18 257.21,-326.22"/>
</g>
<!-- Node5 -->
<g id="node4" class="node">
<title>Node5</title>
<g id="a_node4"><a xlink:title=" ">
<polygon fill="white" stroke="red" points="0,-247.22 0,-266.22 59,-266.22 59,-247.22 0,-247.22"/>
<text text-anchor="middle" x="29.5" y="-254.22" font-family="Helvetica,sans-Serif" font-size="10.00">std::string</text>
</a>
</g>
</g>
<!-- Node5&#45;&gt;Node3 -->
<g id="edge3" class="edge">
<title>Node5&#45;&gt;Node3</title>
<path fill="none" stroke="#9a32cd" stroke-dasharray="5,2" d="M61.7,-270.46C88.9,-282.36 129.45,-299.95 165,-314.72 172.55,-317.86 180.8,-321.2 188.28,-324.18"/>
<polygon fill="#9a32cd" stroke="#9a32cd" points="62.89,-267.16 52.32,-266.35 60.08,-273.57 62.89,-267.16"/>
<text text-anchor="middle" x="112" y="-320.72" font-family="Helvetica,sans-Serif" font-size="10.00"> request_string</text>
<text text-anchor="middle" x="112" y="-309.72" font-family="Helvetica,sans-Serif" font-size="10.00">response_string</text>
</g>
<!-- Node14 -->
<g id="node6" class="node">
<title>Node14</title>
<g id="a_node6"><a xlink:href="structRtcmStream.html" target="_top" xlink:title=" ">
<polygon fill="white" stroke="black" points="404,-144.22 404,-163.22 475,-163.22 475,-144.22 404,-144.22"/>
<text text-anchor="middle" x="439.5" y="-151.22" font-family="Helvetica,sans-Serif" font-size="10.00">RtcmStream</text>
</a>
</g>
</g>
<!-- Node5&#45;&gt;Node14 -->
<g id="edge14" class="edge">
<title>Node5&#45;&gt;Node14</title>
<path fill="none" stroke="#9a32cd" stroke-dasharray="5,2" d="M69.44,-258.82C137.69,-260.82 281.55,-257.46 386,-202.72 404.77,-192.89 421.77,-174.51 431.06,-163.27"/>
<polygon fill="#9a32cd" stroke="#9a32cd" points="69.27,-255.31 59.16,-258.46 69.03,-262.31 69.27,-255.31"/>
<text text-anchor="middle" x="213.5" y="-258.72" font-family="Helvetica,sans-Serif" font-size="10.00"> rtcm_filename</text>
</g>
<!-- Node15 -->
<g id="node7" class="node">
<title>Node15</title>
<g id="a_node7"><a xlink:href="structObsStream.html" target="_top" xlink:title="Interface for streams that supply observations.">
<polygon fill="white" stroke="red" points="180.5,-201.22 180.5,-220.22 246.5,-220.22 246.5,-201.22 180.5,-201.22"/>
<text text-anchor="middle" x="213.5" y="-208.22" font-family="Helvetica,sans-Serif" font-size="10.00">ObsStream</text>
</a>
</g>
</g>
<!-- Node5&#45;&gt;Node15 -->
<g id="edge7" class="edge">
<title>Node5&#45;&gt;Node15</title>
<path fill="none" stroke="#9a32cd" stroke-dasharray="5,2" d="M54.41,-241.87C61.47,-238.04 69.35,-234.29 77,-231.72 111.19,-220.26 152.37,-215.01 180.29,-212.63"/>
<polygon fill="#9a32cd" stroke="#9a32cd" points="52.35,-239.02 45.41,-247.02 55.83,-245.09 52.35,-239.02"/>
<text text-anchor="middle" x="112" y="-234.72" font-family="Helvetica,sans-Serif" font-size="10.00"> sourceString</text>
</g>
<!-- Node13 -->
<g id="node5" class="node">
<title>Node13</title>
<g id="a_node5"><a xlink:title=" ">
<polygon fill="white" stroke="black" points="165,-286.22 165,-305.22 262,-305.22 262,-286.22 165,-286.22"/>
<text text-anchor="middle" x="213.5" y="-293.22" font-family="Helvetica,sans-Serif" font-size="10.00">std::vector&lt; char &gt;</text>
</a>
</g>
</g>
<!-- Node13&#45;&gt;Node2 -->
<g id="edge4" class="edge">
<title>Node13&#45;&gt;Node2</title>
<path fill="none" stroke="#9a32cd" stroke-dasharray="5,2" d="M272.12,-295.72C314.21,-295.72 369.83,-295.72 404.89,-295.72"/>
<polygon fill="#9a32cd" stroke="#9a32cd" points="272,-292.22 262,-295.72 272,-299.22 272,-292.22"/>
<text text-anchor="middle" x="333" y="-298.72" font-family="Helvetica,sans-Serif" font-size="10.00"> receivedData</text>
</g>
<!-- Node14&#45;&gt;Node1 -->
<g id="edge5" class="edge">
<title>Node14&#45;&gt;Node1</title>
<path fill="none" stroke="midnightblue" d="M467.78,-168.01C489.56,-179.41 519.49,-195.08 538.54,-205.06"/>
<polygon fill="midnightblue" stroke="midnightblue" points="469.19,-164.79 458.7,-163.26 465.94,-171 469.19,-164.79"/>
</g>
<!-- Node15&#45;&gt;Node14 -->
<g id="edge6" class="edge">
<title>Node15&#45;&gt;Node14</title>
<path fill="none" stroke="midnightblue" d="M256.54,-205C291.65,-199.6 342.77,-190.3 386,-176.72 397.39,-173.15 409.64,-167.87 419.44,-163.27"/>
<polygon fill="midnightblue" stroke="midnightblue" points="256,-201.54 246.63,-206.49 257.04,-208.47 256,-201.54"/>
</g>
<!-- Node21 -->
<g id="node8" class="node">
<title>Node21</title>
<g id="a_node8"><a xlink:href="structNavStream.html" target="_top" xlink:title="Interface for objects that provide navigation data.">
<polygon fill="white" stroke="black" points="180.5,-163.22 180.5,-182.22 246.5,-182.22 246.5,-163.22 180.5,-163.22"/>
<text text-anchor="middle" x="213.5" y="-170.22" font-family="Helvetica,sans-Serif" font-size="10.00">NavStream</text>
</a>
</g>
</g>
<!-- Node21&#45;&gt;Node14 -->
<g id="edge8" class="edge">
<title>Node21&#45;&gt;Node14</title>
<path fill="none" stroke="midnightblue" d="M256.64,-169.15C299.22,-165.54 364.22,-160.02 403.89,-156.66"/>
<polygon fill="midnightblue" stroke="midnightblue" points="256.26,-165.67 246.59,-170 256.85,-172.64 256.26,-165.67"/>
</g>
<!-- Node22 -->
<g id="node9" class="node">
<title>Node22</title>
<g id="a_node9"><a xlink:href="structRtcmDecoder.html" target="_top" xlink:title=" ">
<polygon fill="white" stroke="red" points="175.5,-125.22 175.5,-144.22 251.5,-144.22 251.5,-125.22 175.5,-125.22"/>
<text text-anchor="middle" x="213.5" y="-132.22" font-family="Helvetica,sans-Serif" font-size="10.00">RtcmDecoder</text>
</a>
</g>
</g>
<!-- Node22&#45;&gt;Node14 -->
<g id="edge9" class="edge">
<title>Node22&#45;&gt;Node14</title>
<path fill="none" stroke="midnightblue" d="M261.84,-138.74C304.31,-142.34 365.66,-147.55 403.75,-150.78"/>
<polygon fill="midnightblue" stroke="midnightblue" points="262,-135.24 251.74,-137.88 261.41,-142.22 262,-135.24"/>
</g>
<!-- Node7 -->
<g id="node10" class="node">
<title>Node7</title>
<g id="a_node10"><a xlink:href="structGTime.html" target="_top" xlink:title="Time structure used throughout this software.">
<polygon fill="white" stroke="black" points="6.5,-104.22 6.5,-123.22 52.5,-123.22 52.5,-104.22 6.5,-104.22"/>
<text text-anchor="middle" x="29.5" y="-111.22" font-family="Helvetica,sans-Serif" font-size="10.00">GTime</text>
</a>
</g>
</g>
<!-- Node7&#45;&gt;Node14 -->
<g id="edge13" class="edge">
<title>Node7&#45;&gt;Node14</title>
<path fill="none" stroke="#9a32cd" stroke-dasharray="5,2" d="M62.98,-110.94C90.2,-108.75 130.1,-105.89 165,-104.72 208.09,-103.28 219.23,-99.3 262,-104.72 318.46,-111.89 331.35,-120.84 386,-136.72 393.82,-139 402.23,-141.64 409.99,-144.14"/>
<polygon fill="#9a32cd" stroke="#9a32cd" points="62.53,-107.47 52.85,-111.77 63.1,-114.44 62.53,-107.47"/>
<text text-anchor="middle" x="213.5" y="-107.72" font-family="Helvetica,sans-Serif" font-size="10.00"> rtcmDeltaTime</text>
</g>
<!-- Node7&#45;&gt;Node22 -->
<g id="edge10" class="edge">
<title>Node7&#45;&gt;Node22</title>
<path fill="none" stroke="#9a32cd" stroke-dasharray="5,2" d="M62.85,-117.46C94.42,-121.1 142.4,-126.64 175.48,-130.45"/>
<polygon fill="#9a32cd" stroke="#9a32cd" points="63.15,-113.97 52.82,-116.3 62.35,-120.92 63.15,-113.97"/>
<text text-anchor="middle" x="112" y="-129.72" font-family="Helvetica,sans-Serif" font-size="10.00"> rtcm_UTC</text>
</g>
<!-- Node29 -->
<g id="node11" class="node">
<title>Node29</title>
<g id="a_node11"><a xlink:href="structLockTimeInfo.html" target="_top" xlink:title=" ">
<polygon fill="white" stroke="red" points="175,-40.22 175,-59.22 252,-59.22 252,-40.22 175,-40.22"/>
<text text-anchor="middle" x="213.5" y="-47.22" font-family="Helvetica,sans-Serif" font-size="10.00">LockTimeInfo</text>
</a>
</g>
</g>
<!-- Node29&#45;&gt;Node14 -->
<g id="edge11" class="edge">
<title>Node29&#45;&gt;Node14</title>
<path fill="none" stroke="#9a32cd" stroke-dasharray="5,2" d="M262,-40.85C298.65,-36.6 349.16,-36.63 386,-59.72 417.2,-79.28 431.47,-124.4 436.39,-144.16"/>
<polygon fill="#9a32cd" stroke="#9a32cd" points="261.52,-37.38 252.05,-42.15 262.42,-44.33 261.52,-37.38"/>
<text text-anchor="middle" x="333" y="-73.72" font-family="Helvetica,sans-Serif" font-size="10.00"> lock_time_info_current</text>
<text text-anchor="middle" x="333" y="-62.72" font-family="Helvetica,sans-Serif" font-size="10.00">lock_time_info_previous</text>
</g>
<!-- Node33 -->
<g id="node12" class="node">
<title>Node33</title>
<g id="a_node12"><a xlink:title=" ">
<polygon fill="white" stroke="red" points="165.5,-2.22 165.5,-21.22 261.5,-21.22 261.5,-2.22 165.5,-2.22"/>
<text text-anchor="middle" x="213.5" y="-9.22" font-family="Helvetica,sans-Serif" font-size="10.00">std::vector&lt; Obs &gt;</text>
</a>
</g>
</g>
<!-- Node33&#45;&gt;Node14 -->
<g id="edge12" class="edge">
<title>Node33&#45;&gt;Node14</title>
<path fill="none" stroke="#9a32cd" stroke-dasharray="5,2" d="M271.98,-1.3C308.01,1.98 353.59,-0.17 386,-23.72 426.56,-53.2 435.84,-119.42 437.92,-144.16"/>
<polygon fill="#9a32cd" stroke="#9a32cd" points="271.18,2.13 261.61,-2.42 271.93,-4.83 271.18,2.13"/>
<text text-anchor="middle" x="333" y="-26.72" font-family="Helvetica,sans-Serif" font-size="10.00"> SuperList</text>
</g>
</g>
</svg>
        <g id="navigator" transform="translate(0 0)" fill="#404254">
                <rect fill="#f2f5e9" fill-opacity="0.5" stroke="#606060" stroke-width=".5" x="0" y="0" width="60" height="60"/>
                <use id="zoomplus" xlink:href="#zoomPlus" x="17" y="9" onmousedown="handleZoom(evt,'in')"/>
                <use id="zoomminus" xlink:href="#zoomMin" x="42" y="9" onmousedown="handleZoom(evt,'out')"/>
                <use id="reset" xlink:href="#resetDef" x="30" y="36" onmousedown="handleReset()"/>
                <g id="arrowUp" xlink:href="#dirArrow" transform="translate(30 24)" onmousedown="handlePan(0,-1)">
                  <use xlink:href="#rim" fill="#404040">
                        <set attributeName="fill" to="#808080" begin="arrowUp.mouseover" end="arrowUp.mouseout"/>
                  </use>
                  <path fill="none" stroke="white" stroke-width="1.5" d="M0,-3.0v7 M-2.5,-0.5L0,-3.0L2.5,-0.5"/>
                </g>
                <g id="arrowRight" xlink:href="#dirArrow" transform="rotate(90) translate(36 -43)" onmousedown="handlePan(1,0)">
                  <use xlink:href="#rim" fill="#404040">
                        <set attributeName="fill" to="#808080" begin="arrowRight.mouseover" end="arrowRight.mouseout"/>
                  </use>
                  <path fill="none" stroke="white" stroke-width="1.5" d="M0,-3.0v7 M-2.5,-0.5L0,-3.0L2.5,-0.5"/>
                </g>
                <g id="arrowDown" xlink:href="#dirArrow" transform="rotate(180) translate(-30 -48)" onmousedown="handlePan(0,1)">
                  <use xlink:href="#rim" fill="#404040">
                        <set attributeName="fill" to="#808080" begin="arrowDown.mouseover" end="arrowDown.mouseout"/>
                  </use>
                  <path fill="none" stroke="white" stroke-width="1.5" d="M0,-3.0v7 M-2.5,-0.5L0,-3.0L2.5,-0.5"/>
                </g>
                <g id="arrowLeft" xlink:href="#dirArrow" transform="rotate(270) translate(-36 17)" onmousedown="handlePan(-1,0)">
                  <use xlink:href="#rim" fill="#404040">
                        <set attributeName="fill" to="#808080" begin="arrowLeft.mouseover" end="arrowLeft.mouseout"/>
                  </use>
                  <path fill="none" stroke="white" stroke-width="1.5" d="M0,-3.0v7 M-2.5,-0.5L0,-3.0L2.5,-0.5"/>
                </g>
        </g>
        <svg viewBox="0 0 15 15" width="100%" height="30px" preserveAspectRatio="xMaxYMin meet">
         <g id="arrow_out" transform="scale(0.3 0.3)">
          <a xlink:href="structNtripRtcmStream__coll__graph_org.svg" target="_base">
           <rect id="button" ry="5" rx="5" y="6" x="6" height="38" width="38"
                fill="#f2f5e9" fill-opacity="0.5" stroke="#606060" stroke-width="1.0"/>
           <path id="arrow"
             d="M 11.500037,31.436501 C 11.940474,20.09759 22.043105,11.32322 32.158766,21.979434 L 37.068811,17.246167 C 37.068811,17.246167 37.088388,32 37.088388,32 L 22.160133,31.978069 C 22.160133,31.978069 26.997745,27.140456 26.997745,27.140456 C 18.528582,18.264221 13.291696,25.230495 11.500037,31.436501 z"
             style="fill:#404040;"/>
          </a>
         </g>
        </svg>
</svg>
