<?xml version="1.0" encoding="UTF-8" standalone="no"?>
<!DOCTYPE svg PUBLIC "-//W3C//DTD SVG 1.1//EN"
 "http://www.w3.org/Graphics/SVG/1.1/DTD/svg11.dtd">
<!-- Generated by graphviz version 2.50.0 (20220203.2022)
 -->
<!-- Title: ACSConfig::getRecOpts Pages: 1 -->
<svg width="662pt" height="85pt"
 viewBox="0.00 0.00 662.00 85.00" xmlns="http://www.w3.org/2000/svg" xmlns:xlink="http://www.w3.org/1999/xlink">
<g id="graph0" class="graph" transform="scale(1 1) rotate(0) translate(4 81)">
<title>ACSConfig::getRecOpts</title>
<polygon fill="white" stroke="transparent" points="-4,4 -4,-81 658,-81 658,4 -4,4"/>
<!-- Node1 -->
<g id="node1" class="node">
<title>Node1</title>
<g id="a_node1"><a xlink:title="Set receiver options for a specific receiver using a hierarchy of sources.">
<polygon fill="#bfbfbf" stroke="black" points="0,-38.5 0,-57.5 120,-57.5 120,-38.5 0,-38.5"/>
<text text-anchor="middle" x="60" y="-45.5" font-family="Helvetica,sans-Serif" font-size="10.00">ACSConfig::getRecOpts</text>
</a>
</g>
</g>
<!-- Node2 -->
<g id="node2" class="node">
<title>Node2</title>
<g id="a_node2"><a xlink:href="acsConfig_8cpp.html#a93b507f5cfa7760051904a0a1863118a" target="_top" xlink:title="Set satellite options from yaml.">
<polygon fill="white" stroke="black" points="156,-38.5 156,-57.5 231,-57.5 231,-38.5 156,-38.5"/>
<text text-anchor="middle" x="193.5" y="-45.5" font-family="Helvetica,sans-Serif" font-size="10.00">getFromYaml</text>
</a>
</g>
</g>
<!-- Node1&#45;&gt;Node2 -->
<g id="edge1" class="edge">
<title>Node1&#45;&gt;Node2</title>
<path fill="none" stroke="midnightblue" d="M120.21,-48C128.74,-48 137.42,-48 145.67,-48"/>
<polygon fill="midnightblue" stroke="midnightblue" points="145.84,-51.5 155.84,-48 145.84,-44.5 145.84,-51.5"/>
</g>
<!-- Node3 -->
<g id="node3" class="node">
<title>Node3</title>
<g id="a_node3"><a xlink:href="acsConfig_8cpp.html#aa9088fb45b63f10376cc7f0c65436e0d" target="_top" xlink:title="Find a yaml node object using a list of strings.">
<polygon fill="white" stroke="black" points="546,-57.5 546,-76.5 654,-76.5 654,-57.5 546,-57.5"/>
<text text-anchor="middle" x="600" y="-64.5" font-family="Helvetica,sans-Serif" font-size="10.00">stringsToYamlObject</text>
</a>
</g>
</g>
<!-- Node2&#45;&gt;Node3 -->
<g id="edge2" class="edge">
<title>Node2&#45;&gt;Node3</title>
<path fill="none" stroke="midnightblue" d="M231.21,-56.26C242.62,-58.51 255.28,-60.69 267,-62 359.99,-72.4 468.53,-71.62 535.52,-69.66"/>
<polygon fill="midnightblue" stroke="midnightblue" points="536.02,-73.15 545.9,-69.34 535.8,-66.15 536.02,-73.15"/>
</g>
<!-- Node4 -->
<g id="node4" class="node">
<title>Node4</title>
<g id="a_node4"><a xlink:href="acsConfig_8cpp.html#a555e819507c7608d463fedb0616a95ff" target="_top" xlink:title="Set an output from yaml object if found.">
<polygon fill="white" stroke="red" points="423,-38.5 423,-57.5 510,-57.5 510,-38.5 423,-38.5"/>
<text text-anchor="middle" x="466.5" y="-45.5" font-family="Helvetica,sans-Serif" font-size="10.00">trySetFromYaml</text>
</a>
</g>
</g>
<!-- Node2&#45;&gt;Node4 -->
<g id="edge3" class="edge">
<title>Node2&#45;&gt;Node4</title>
<path fill="none" stroke="midnightblue" d="M231.05,-48C277.78,-48 359.03,-48 412.54,-48"/>
<polygon fill="midnightblue" stroke="midnightblue" points="412.85,-51.5 422.85,-48 412.85,-44.5 412.85,-51.5"/>
</g>
<!-- Node6 -->
<g id="node5" class="node">
<title>Node6</title>
<g id="a_node5"><a xlink:href="acsConfig_8cpp.html#a07e32c516547b7d40d2c391ff83b60f4" target="_top" xlink:title="Set the variables associated with kalman filter states from yaml.">
<polygon fill="white" stroke="red" points="267,-0.5 267,-19.5 387,-19.5 387,-0.5 267,-0.5"/>
<text text-anchor="middle" x="327" y="-7.5" font-family="Helvetica,sans-Serif" font-size="10.00">trySetKalmanFromYaml</text>
</a>
</g>
</g>
<!-- Node2&#45;&gt;Node6 -->
<g id="edge5" class="edge">
<title>Node2&#45;&gt;Node6</title>
<path fill="none" stroke="midnightblue" d="M227.68,-38.41C244.5,-33.55 265.13,-27.59 283.13,-22.39"/>
<polygon fill="midnightblue" stroke="midnightblue" points="284.19,-25.72 292.83,-19.59 282.25,-19 284.19,-25.72"/>
</g>
<!-- Node4&#45;&gt;Node3 -->
<g id="edge4" class="edge">
<title>Node4&#45;&gt;Node3</title>
<path fill="none" stroke="midnightblue" d="M510.19,-54.17C518.39,-55.35 527.13,-56.62 535.81,-57.87"/>
<polygon fill="midnightblue" stroke="midnightblue" points="535.54,-61.37 545.93,-59.33 536.54,-54.44 535.54,-61.37"/>
</g>
<!-- Node6&#45;&gt;Node4 -->
<g id="edge6" class="edge">
<title>Node6&#45;&gt;Node4</title>
<path fill="none" stroke="midnightblue" d="M362.7,-19.59C380.37,-24.47 402.05,-30.46 420.94,-35.68"/>
<polygon fill="midnightblue" stroke="midnightblue" points="420.24,-39.12 430.81,-38.41 422.11,-32.38 420.24,-39.12"/>
</g>
</g>
</svg>
