<?xml version="1.0" encoding="UTF-8" standalone="no"?>
<!DOCTYPE svg PUBLIC "-//W3C//DTD SVG 1.1//EN"
 "http://www.w3.org/Graphics/SVG/1.1/DTD/svg11.dtd">
<!-- Generated by graphviz version 2.50.0 (20220203.2022)
 -->
<!-- Title: KFState::filterKalman Pages: 1 -->
<svg width="541pt" height="294pt"
 viewBox="0.00 0.00 541.00 294.00" xmlns="http://www.w3.org/2000/svg" xmlns:xlink="http://www.w3.org/1999/xlink">
<g id="graph0" class="graph" transform="scale(1 1) rotate(0) translate(4 290)">
<title>KFState::filterKalman</title>
<polygon fill="white" stroke="transparent" points="-4,4 -4,-290 537,-290 537,4 -4,4"/>
<!-- Node1 -->
<g id="node1" class="node">
<title>Node1</title>
<g id="a_node1"><a xlink:title="Kalman filter operation.">
<polygon fill="#bfbfbf" stroke="black" points="425,-133.5 425,-152.5 533,-152.5 533,-133.5 425,-133.5"/>
<text text-anchor="middle" x="479" y="-140.5" font-family="Helvetica,sans-Serif" font-size="10.00">KFState::filterKalman</text>
</a>
</g>
</g>
<!-- Node2 -->
<g id="node2" class="node">
<title>Node2</title>
<g id="a_node2"><a xlink:href="GinARNLamb_8cpp.html#ad93bb9c322526f57beacb5aeb5c4e66a" target="_top" xlink:title="Apply archived Z&#45;ambiguities to float solution.">
<polygon fill="white" stroke="black" points="294,-38.5 294,-57.5 368,-57.5 368,-38.5 294,-38.5"/>
<text text-anchor="middle" x="331" y="-45.5" font-family="Helvetica,sans-Serif" font-size="10.00">apply_ambigt</text>
</a>
</g>
</g>
<!-- Node1&#45;&gt;Node2 -->
<g id="edge1" class="edge">
<title>Node1&#45;&gt;Node2</title>
<path fill="none" stroke="midnightblue" d="M462,-125.92C445.24,-108.91 417.43,-83.06 389,-67 382.37,-63.25 374.89,-60.1 367.58,-57.5"/>
<polygon fill="midnightblue" stroke="midnightblue" points="459.84,-128.72 469.3,-133.49 464.87,-123.86 459.84,-128.72"/>
</g>
<!-- Node11 -->
<g id="node5" class="node">
<title>Node11</title>
<g id="a_node5"><a xlink:href="networkEstimator_8cpp.html#a36828506971a6b66c6e61db51197c9e1" target="_top" xlink:title="Estimates parameters for a network of stations simultaneously.">
<polygon fill="white" stroke="black" points="285,-114.5 285,-133.5 377,-133.5 377,-114.5 285,-114.5"/>
<text text-anchor="middle" x="331" y="-121.5" font-family="Helvetica,sans-Serif" font-size="10.00">networkEstimator</text>
</a>
</g>
</g>
<!-- Node1&#45;&gt;Node11 -->
<g id="edge4" class="edge">
<title>Node1&#45;&gt;Node11</title>
<path fill="none" stroke="midnightblue" d="M414.83,-134.78C402.15,-133.13 389.06,-131.43 377.15,-129.88"/>
<polygon fill="midnightblue" stroke="midnightblue" points="414.51,-138.27 424.88,-136.09 415.41,-131.33 414.51,-138.27"/>
</g>
<!-- Node12 -->
<g id="node7" class="node">
<title>Node12</title>
<g id="a_node7"><a xlink:href="ppppp_8cpp.html#a936f239adc72073920104f4acc2aea67" target="_top" xlink:title=" ">
<polygon fill="white" stroke="black" points="312.5,-190.5 312.5,-209.5 349.5,-209.5 349.5,-190.5 312.5,-190.5"/>
<text text-anchor="middle" x="331" y="-197.5" font-family="Helvetica,sans-Serif" font-size="10.00">PPP</text>
</a>
</g>
</g>
<!-- Node1&#45;&gt;Node12 -->
<g id="edge6" class="edge">
<title>Node1&#45;&gt;Node12</title>
<path fill="none" stroke="midnightblue" d="M447.52,-156.75C430.45,-164.26 408.7,-173.53 389,-181 375.93,-185.96 360.93,-190.93 349.59,-194.55"/>
<polygon fill="midnightblue" stroke="midnightblue" points="449.26,-159.8 456.98,-152.55 446.42,-153.41 449.26,-159.8"/>
</g>
<!-- Node13 -->
<g id="node8" class="node">
<title>Node13</title>
<g id="a_node8"><a xlink:href="ppp__user_8cpp.html#a6840432dd58d1e58178b15080b92bdd8" target="_top" xlink:title=" ">
<polygon fill="white" stroke="black" points="303,-0.5 303,-19.5 359,-19.5 359,-0.5 303,-0.5"/>
<text text-anchor="middle" x="331" y="-7.5" font-family="Helvetica,sans-Serif" font-size="10.00">ppp_filter</text>
</a>
</g>
</g>
<!-- Node1&#45;&gt;Node13 -->
<g id="edge8" class="edge">
<title>Node1&#45;&gt;Node13</title>
<path fill="none" stroke="midnightblue" d="M468.07,-124.27C453.81,-99.1 425.21,-54.57 389,-29 380.14,-22.74 369.07,-18.43 359.05,-15.52"/>
<polygon fill="midnightblue" stroke="midnightblue" points="465.09,-126.11 472.98,-133.18 471.22,-122.73 465.09,-126.11"/>
</g>
<!-- Node15 -->
<g id="node10" class="node">
<title>Node15</title>
<g id="a_node10"><a xlink:href="GinARWLamb_8cpp.html#a6cfe77e4642a57d54c9204244cd403a0" target="_top" xlink:title="Resolve wide&#45;lane ambiguities.">
<polygon fill="white" stroke="black" points="290,-266.5 290,-285.5 372,-285.5 372,-266.5 290,-266.5"/>
<text text-anchor="middle" x="331" y="-273.5" font-family="Helvetica,sans-Serif" font-size="10.00">reslv_WLambg</text>
</a>
</g>
</g>
<!-- Node1&#45;&gt;Node15 -->
<g id="edge10" class="edge">
<title>Node1&#45;&gt;Node15</title>
<path fill="none" stroke="midnightblue" d="M468.07,-161.73C453.81,-186.9 425.21,-231.43 389,-257 383.55,-260.85 377.26,-263.96 370.89,-266.47"/>
<polygon fill="midnightblue" stroke="midnightblue" points="471.22,-163.27 472.98,-152.82 465.09,-159.89 471.22,-163.27"/>
</g>
<!-- Node17 -->
<g id="node12" class="node">
<title>Node17</title>
<g id="a_node12"><a xlink:href="debug_8cpp.html#a8124338bada59afb17fd6633687744f5" target="_top" xlink:title=" ">
<polygon fill="white" stroke="black" points="279.5,-76.5 279.5,-95.5 382.5,-95.5 382.5,-76.5 279.5,-76.5"/>
<text text-anchor="middle" x="331" y="-83.5" font-family="Helvetica,sans-Serif" font-size="10.00">testOutlierDetection</text>
</a>
</g>
</g>
<!-- Node1&#45;&gt;Node17 -->
<g id="edge13" class="edge">
<title>Node1&#45;&gt;Node17</title>
<path fill="none" stroke="midnightblue" d="M447.52,-129.25C430.45,-121.74 408.7,-112.47 389,-105 380.32,-101.71 370.79,-98.41 362.04,-95.5"/>
<polygon fill="midnightblue" stroke="midnightblue" points="446.42,-132.59 456.98,-133.45 449.26,-126.2 446.42,-132.59"/>
</g>
<!-- Node18 -->
<g id="node13" class="node">
<title>Node18</title>
<g id="a_node13"><a xlink:href="GinARWLamb_8cpp.html#ab95d4f2ff0f6e0d2b92d4d4d14f7f787" target="_top" xlink:title="Update WL filter.">
<polygon fill="white" stroke="black" points="295.5,-228.5 295.5,-247.5 366.5,-247.5 366.5,-228.5 295.5,-228.5"/>
<text text-anchor="middle" x="331" y="-235.5" font-family="Helvetica,sans-Serif" font-size="10.00">updat_WLfilt</text>
</a>
</g>
</g>
<!-- Node1&#45;&gt;Node18 -->
<g id="edge14" class="edge">
<title>Node1&#45;&gt;Node18</title>
<path fill="none" stroke="midnightblue" d="M462,-160.08C445.24,-177.09 417.43,-202.94 389,-219 382.1,-222.9 374.27,-226.16 366.67,-228.81"/>
<polygon fill="midnightblue" stroke="midnightblue" points="464.87,-162.14 469.3,-152.51 459.84,-157.28 464.87,-162.14"/>
</g>
<!-- Node19 -->
<g id="node14" class="node">
<title>Node19</title>
<g id="a_node14"><a xlink:href="ionoModel_8cpp.html#ab85ac3f246b5ef9cc88aa9f195c441a3" target="_top" xlink:title=" ">
<polygon fill="white" stroke="black" points="273,-152.5 273,-171.5 389,-171.5 389,-152.5 273,-152.5"/>
<text text-anchor="middle" x="331" y="-159.5" font-family="Helvetica,sans-Serif" font-size="10.00">update_ionosph_model</text>
</a>
</g>
</g>
<!-- Node1&#45;&gt;Node19 -->
<g id="edge16" class="edge">
<title>Node1&#45;&gt;Node19</title>
<path fill="none" stroke="midnightblue" d="M414.69,-151.24C406.24,-152.34 397.61,-153.46 389.27,-154.55"/>
<polygon fill="midnightblue" stroke="midnightblue" points="415.41,-154.67 424.88,-149.91 414.51,-147.73 415.41,-154.67"/>
</g>
<!-- Node3 -->
<g id="node3" class="node">
<title>Node3</title>
<g id="a_node3"><a xlink:href="GinAR__main_8cpp.html#a5d80c7f56e03c96dc400839ceca50698" target="_top" xlink:title="Ambiguity resolution for network solutions.">
<polygon fill="white" stroke="red" points="0,-133.5 0,-152.5 98,-152.5 98,-133.5 0,-133.5"/>
<text text-anchor="middle" x="49" y="-140.5" font-family="Helvetica,sans-Serif" font-size="10.00">networkAmbigResl</text>
</a>
</g>
</g>
<!-- Node2&#45;&gt;Node3 -->
<g id="edge2" class="edge">
<title>Node2&#45;&gt;Node3</title>
<path fill="none" stroke="midnightblue" d="M283.98,-44.5C242.9,-43.19 182,-45.79 134,-67 99.82,-82.1 70.11,-116.65 57.06,-133.46"/>
<polygon fill="midnightblue" stroke="midnightblue" points="283.84,-48 293.97,-44.91 284.12,-41 283.84,-48"/>
</g>
<!-- Node6 -->
<g id="node4" class="node">
<title>Node6</title>
<g id="a_node4"><a xlink:href="GinAR__main_8cpp.html#a99547395860accf77f4d3dc4328cb139" target="_top" xlink:title="Ambiguity resolution on smoothed KF solutions.">
<polygon fill="white" stroke="red" points="135,-76.5 135,-95.5 236,-95.5 236,-76.5 135,-76.5"/>
<text text-anchor="middle" x="185.5" y="-83.5" font-family="Helvetica,sans-Serif" font-size="10.00">smoothdAmbigResl</text>
</a>
</g>
</g>
<!-- Node2&#45;&gt;Node6 -->
<g id="edge3" class="edge">
<title>Node2&#45;&gt;Node6</title>
<path fill="none" stroke="midnightblue" d="M284.03,-60.17C264.18,-65.43 241.31,-71.49 222.7,-76.41"/>
<polygon fill="midnightblue" stroke="midnightblue" points="285.02,-63.53 293.79,-57.59 283.23,-56.77 285.02,-63.53"/>
</g>
<!-- Node5 -->
<g id="node6" class="node">
<title>Node5</title>
<g id="a_node6"><a xlink:href="main_8cpp.html#a30c68344d30ddfe1e926f8472b86f094" target="_top" xlink:title=" ">
<polygon fill="white" stroke="black" points="134,-152.5 134,-171.5 237,-171.5 237,-152.5 134,-152.5"/>
<text text-anchor="middle" x="185.5" y="-159.5" font-family="Helvetica,sans-Serif" font-size="10.00">mainOncePerEpoch</text>
</a>
</g>
</g>
<!-- Node11&#45;&gt;Node5 -->
<g id="edge5" class="edge">
<title>Node11&#45;&gt;Node5</title>
<path fill="none" stroke="midnightblue" d="M284.03,-136.17C264.18,-141.43 241.31,-147.49 222.7,-152.41"/>
<polygon fill="midnightblue" stroke="midnightblue" points="285.02,-139.53 293.79,-133.59 283.23,-132.77 285.02,-139.53"/>
</g>
<!-- Node12&#45;&gt;Node5 -->
<g id="edge7" class="edge">
<title>Node12&#45;&gt;Node5</title>
<path fill="none" stroke="midnightblue" d="M302.7,-192.77C279.93,-186.74 247.3,-178.1 222.41,-171.51"/>
<polygon fill="midnightblue" stroke="midnightblue" points="301.84,-196.16 312.4,-195.34 303.63,-189.4 301.84,-196.16"/>
</g>
<!-- Node14 -->
<g id="node9" class="node">
<title>Node14</title>
<g id="a_node9"><a xlink:href="ppp__user_8cpp.html#aad22d0ff0d06af12ea66aefd09d89af3" target="_top" xlink:title=" ">
<polygon fill="white" stroke="red" points="164,-0.5 164,-19.5 207,-19.5 207,-0.5 164,-0.5"/>
<text text-anchor="middle" x="185.5" y="-7.5" font-family="Helvetica,sans-Serif" font-size="10.00">pppos</text>
</a>
</g>
</g>
<!-- Node13&#45;&gt;Node14 -->
<g id="edge9" class="edge">
<title>Node13&#45;&gt;Node14</title>
<path fill="none" stroke="midnightblue" d="M292.34,-10C265.14,-10 229.42,-10 207.22,-10"/>
<polygon fill="midnightblue" stroke="midnightblue" points="292.67,-13.5 302.67,-10 292.67,-6.5 292.67,-13.5"/>
</g>
<!-- Node16 -->
<g id="node11" class="node">
<title>Node16</title>
<g id="a_node11"><a xlink:href="GinARWLamb_8cpp.html#a12713865301eea1dac84952dd9fd1149" target="_top" xlink:title="Update WL ambiguities and save then to archive.">
<polygon fill="white" stroke="black" points="143,-228.5 143,-247.5 228,-247.5 228,-228.5 143,-228.5"/>
<text text-anchor="middle" x="185.5" y="-235.5" font-family="Helvetica,sans-Serif" font-size="10.00">updat_WLambg</text>
</a>
</g>
</g>
<!-- Node15&#45;&gt;Node16 -->
<g id="edge11" class="edge">
<title>Node15&#45;&gt;Node16</title>
<path fill="none" stroke="midnightblue" d="M284.03,-263.83C264.18,-258.57 241.31,-252.51 222.7,-247.59"/>
<polygon fill="midnightblue" stroke="midnightblue" points="283.23,-267.23 293.79,-266.41 285.02,-260.47 283.23,-267.23"/>
</g>
<!-- Node16&#45;&gt;Node3 -->
<g id="edge12" class="edge">
<title>Node16&#45;&gt;Node3</title>
<path fill="none" stroke="midnightblue" d="M162.23,-222.27C134.17,-202.45 86.8,-168.99 63.61,-152.61"/>
<polygon fill="midnightblue" stroke="midnightblue" points="160.43,-225.28 170.61,-228.19 164.46,-219.56 160.43,-225.28"/>
</g>
<!-- Node18&#45;&gt;Node16 -->
<g id="edge15" class="edge">
<title>Node18&#45;&gt;Node16</title>
<path fill="none" stroke="midnightblue" d="M285.16,-238C266.92,-238 245.96,-238 228.07,-238"/>
<polygon fill="midnightblue" stroke="midnightblue" points="285.26,-241.5 295.26,-238 285.26,-234.5 285.26,-241.5"/>
</g>
<!-- Node19&#45;&gt;Node5 -->
<g id="edge17" class="edge">
<title>Node19&#45;&gt;Node5</title>
<path fill="none" stroke="midnightblue" d="M262.6,-162C254.12,-162 245.56,-162 237.39,-162"/>
<polygon fill="midnightblue" stroke="midnightblue" points="262.87,-165.5 272.87,-162 262.87,-158.5 262.87,-165.5"/>
</g>
</g>
</svg>
