<?xml version="1.0" encoding="UTF-8" standalone="no"?>
<!DOCTYPE svg PUBLIC "-//W3C//DTD SVG 1.1//EN"
 "http://www.w3.org/Graphics/SVG/1.1/DTD/svg11.dtd">
<!-- Generated by graphviz version 2.50.0 (20220203.2022)
 -->
<!-- Title: surfboxw Pages: 1 -->
<svg width="306pt" height="142pt"
 viewBox="0.00 0.00 306.00 142.00" xmlns="http://www.w3.org/2000/svg" xmlns:xlink="http://www.w3.org/1999/xlink">
<g id="graph0" class="graph" transform="scale(1 1) rotate(0) translate(4 138)">
<title>surfboxw</title>
<polygon fill="white" stroke="transparent" points="-4,4 -4,-138 302,-138 302,4 -4,4"/>
<!-- Node1 -->
<g id="node1" class="node">
<title>Node1</title>
<g id="a_node1"><a xlink:title=" ">
<polygon fill="#bfbfbf" stroke="black" points="242,-76.5 242,-95.5 298,-95.5 298,-76.5 242,-76.5"/>
<text text-anchor="middle" x="270" y="-83.5" font-family="Helvetica,sans-Serif" font-size="10.00">surfboxw</text>
</a>
</g>
</g>
<!-- Node2 -->
<g id="node2" class="node">
<title>Node2</title>
<g id="a_node2"><a xlink:href="ERPFBOXW_8f90.html#a087883e81dd1378129987d5a2ab26312" target="_top" xlink:title=" ">
<polygon fill="white" stroke="black" points="150,-104.5 150,-123.5 206,-123.5 206,-104.5 150,-104.5"/>
<text text-anchor="middle" x="178" y="-111.5" font-family="Helvetica,sans-Serif" font-size="10.00">erpfboxw</text>
</a>
</g>
</g>
<!-- Node1&#45;&gt;Node2 -->
<g id="edge1" class="edge">
<title>Node1&#45;&gt;Node2</title>
<path fill="none" stroke="midnightblue" d="M232.41,-97.38C223.68,-100.1 214.52,-102.95 206.29,-105.51"/>
<polygon fill="midnightblue" stroke="midnightblue" points="233.49,-100.71 242,-94.4 231.41,-94.03 233.49,-100.71"/>
</g>
<!-- Node13 -->
<g id="node4" class="node">
<title>Node13</title>
<g id="a_node4"><a xlink:href="SRPFBOXW_8f90.html#a45ebb5961ded437337ecd4c1c598988d" target="_top" xlink:title=" ">
<polygon fill="white" stroke="black" points="150,-57.5 150,-76.5 206,-76.5 206,-57.5 150,-57.5"/>
<text text-anchor="middle" x="178" y="-64.5" font-family="Helvetica,sans-Serif" font-size="10.00">srpfboxw</text>
</a>
</g>
</g>
<!-- Node1&#45;&gt;Node13 -->
<g id="edge3" class="edge">
<title>Node1&#45;&gt;Node13</title>
<path fill="none" stroke="midnightblue" d="M232.12,-78.22C223.48,-76.39 214.43,-74.48 206.29,-72.76"/>
<polygon fill="midnightblue" stroke="midnightblue" points="231.49,-81.66 242,-80.3 232.94,-74.81 231.49,-81.66"/>
</g>
<!-- Node3 -->
<g id="node3" class="node">
<title>Node3</title>
<g id="a_node3"><a xlink:href="force__erp_8f90.html#ae0f656c85c5a2d34eb25270604f2baa9" target="_top" xlink:title=" ">
<polygon fill="white" stroke="red" points="28.5,-114.5 28.5,-133.5 85.5,-133.5 85.5,-114.5 28.5,-114.5"/>
<text text-anchor="middle" x="57" y="-121.5" font-family="Helvetica,sans-Serif" font-size="10.00">force_erp</text>
</a>
</g>
</g>
<!-- Node2&#45;&gt;Node3 -->
<g id="edge2" class="edge">
<title>Node2&#45;&gt;Node3</title>
<path fill="none" stroke="midnightblue" d="M139.58,-117.14C122.14,-118.61 101.75,-120.32 85.72,-121.67"/>
<polygon fill="midnightblue" stroke="midnightblue" points="140.33,-120.59 150,-116.27 139.74,-113.62 140.33,-120.59"/>
</g>
<!-- Node14 -->
<g id="node5" class="node">
<title>Node14</title>
<g id="a_node5"><a xlink:href="force__srp_8f90.html#ac60c56aaaf5a6f7118c763fe46ce8373" target="_top" xlink:title=" ">
<polygon fill="white" stroke="red" points="28.5,-76.5 28.5,-95.5 85.5,-95.5 85.5,-76.5 28.5,-76.5"/>
<text text-anchor="middle" x="57" y="-83.5" font-family="Helvetica,sans-Serif" font-size="10.00">force_srp</text>
</a>
</g>
</g>
<!-- Node13&#45;&gt;Node14 -->
<g id="edge4" class="edge">
<title>Node13&#45;&gt;Node14</title>
<path fill="none" stroke="midnightblue" d="M140.08,-72.9C122.53,-75.7 101.91,-78.99 85.72,-81.57"/>
<polygon fill="midnightblue" stroke="midnightblue" points="140.67,-76.34 150,-71.31 139.57,-69.43 140.67,-76.34"/>
</g>
<!-- Node19 -->
<g id="node6" class="node">
<title>Node19</title>
<g id="a_node6"><a xlink:href="namespacem__orbinfo.html#a7e90574cb9078c6ff14c6104446ee24a" target="_top" xlink:title=" ">
<polygon fill="white" stroke="red" points="10.5,-38.5 10.5,-57.5 103.5,-57.5 103.5,-38.5 10.5,-38.5"/>
<text text-anchor="middle" x="57" y="-45.5" font-family="Helvetica,sans-Serif" font-size="10.00">m_orbinfo::orbinfo</text>
</a>
</g>
</g>
<!-- Node13&#45;&gt;Node19 -->
<g id="edge5" class="edge">
<title>Node13&#45;&gt;Node19</title>
<path fill="none" stroke="midnightblue" d="M139.87,-61.07C128.37,-59.24 115.57,-57.19 103.57,-55.28"/>
<polygon fill="midnightblue" stroke="midnightblue" points="139.57,-64.57 150,-62.69 140.67,-57.66 139.57,-64.57"/>
</g>
<!-- Node22 -->
<g id="node7" class="node">
<title>Node22</title>
<g id="a_node7"><a xlink:href="namespacem__pd__ecom.html#a6566481abfae9e375586538e1de35f42" target="_top" xlink:title=" ">
<polygon fill="white" stroke="red" points="0,-0.5 0,-19.5 114,-19.5 114,-0.5 0,-0.5"/>
<text text-anchor="middle" x="57" y="-7.5" font-family="Helvetica,sans-Serif" font-size="10.00">m_pd_ecom::pd_ecom</text>
</a>
</g>
</g>
<!-- Node13&#45;&gt;Node22 -->
<g id="edge6" class="edge">
<title>Node13&#45;&gt;Node22</title>
<path fill="none" stroke="midnightblue" d="M154.3,-51.68C142.6,-44.2 127.89,-35.45 114,-29 106.46,-25.5 98.08,-22.31 90.16,-19.59"/>
<polygon fill="midnightblue" stroke="midnightblue" points="152.69,-54.8 162.97,-57.33 156.51,-48.94 152.69,-54.8"/>
</g>
</g>
</svg>
