<?xml version="1.0" encoding="UTF-8" standalone="no"?>
<!DOCTYPE svg PUBLIC "-//W3C//DTD SVG 1.1//EN"
 "http://www.w3.org/Graphics/SVG/1.1/DTD/svg11.dtd">
<!-- Generated by graphviz version 2.50.0 (20220203.2022)
 -->
<!-- Title: /github/workspace/src/cpp/common/testUtils.hpp Pages: 1 -->
<svg width="1905pt" height="117pt"
 viewBox="0.00 0.00 1905.00 117.00" xmlns="http://www.w3.org/2000/svg" xmlns:xlink="http://www.w3.org/1999/xlink">
<g id="graph0" class="graph" transform="scale(1 1) rotate(0) translate(4 113)">
<title>/github/workspace/src/cpp/common/testUtils.hpp</title>
<polygon fill="white" stroke="transparent" points="-4,4 -4,-113 1901,-113 1901,4 -4,4"/>
<!-- Node1 -->
<g id="node1" class="node">
<title>Node1</title>
<g id="a_node1"><a xlink:title=" ">
<polygon fill="#bfbfbf" stroke="black" points="924.5,-78.5 924.5,-108.5 1058.5,-108.5 1058.5,-78.5 924.5,-78.5"/>
<text text-anchor="start" x="932.5" y="-96.5" font-family="Helvetica,sans-Serif" font-size="10.00">/github/workspace/src</text>
<text text-anchor="middle" x="991.5" y="-85.5" font-family="Helvetica,sans-Serif" font-size="10.00">/cpp/common/testUtils.hpp</text>
</a>
</g>
</g>
<!-- Node2 -->
<g id="node2" class="node">
<title>Node2</title>
<g id="a_node2"><a xlink:href="brdc2sp3__main__bck_8cpp.html" target="_top" xlink:title=" ">
<polygon fill="white" stroke="black" points="0,-0.5 0,-41.5 121,-41.5 121,-0.5 0,-0.5"/>
<text text-anchor="start" x="8" y="-29.5" font-family="Helvetica,sans-Serif" font-size="10.00">/github/workspace/src</text>
<text text-anchor="start" x="8" y="-18.5" font-family="Helvetica,sans-Serif" font-size="10.00">/cpp/brdc2sp3/brdc2sp3</text>
<text text-anchor="middle" x="60.5" y="-7.5" font-family="Helvetica,sans-Serif" font-size="10.00">_main_bck.cpp</text>
</a>
</g>
</g>
<!-- Node1&#45;&gt;Node2 -->
<g id="edge1" class="edge">
<title>Node1&#45;&gt;Node2</title>
<path fill="none" stroke="midnightblue" d="M914.35,-90.19C732.13,-84.38 279.21,-67.75 129.5,-42 126.8,-41.53 124.05,-41 121.28,-40.42"/>
<polygon fill="midnightblue" stroke="midnightblue" points="914.28,-93.69 924.39,-90.51 914.5,-86.69 914.28,-93.69"/>
</g>
<!-- Node3 -->
<g id="node3" class="node">
<title>Node3</title>
<g id="a_node3"><a xlink:href="acsQC_8cpp.html" target="_top" xlink:title=" ">
<polygon fill="white" stroke="black" points="139,-6 139,-36 266,-36 266,-6 139,-6"/>
<text text-anchor="start" x="147" y="-24" font-family="Helvetica,sans-Serif" font-size="10.00">/github/workspace/src</text>
<text text-anchor="middle" x="202.5" y="-13" font-family="Helvetica,sans-Serif" font-size="10.00">/cpp/common/acsQC.cpp</text>
</a>
</g>
</g>
<!-- Node1&#45;&gt;Node3 -->
<g id="edge2" class="edge">
<title>Node1&#45;&gt;Node3</title>
<path fill="none" stroke="midnightblue" d="M914.34,-92.02C782.46,-90.1 505.67,-81.25 275.5,-42 266.69,-40.5 257.41,-38.38 248.53,-36.09"/>
<polygon fill="midnightblue" stroke="midnightblue" points="914.3,-95.52 924.35,-92.16 914.39,-88.52 914.3,-95.52"/>
</g>
<!-- Node4 -->
<g id="node4" class="node">
<title>Node4</title>
<g id="a_node4"><a xlink:href="algebra__old_8cpp.html" target="_top" xlink:title=" ">
<polygon fill="white" stroke="black" points="284.5,-6 284.5,-36 430.5,-36 430.5,-6 284.5,-6"/>
<text text-anchor="start" x="292.5" y="-24" font-family="Helvetica,sans-Serif" font-size="10.00">/github/workspace/src</text>
<text text-anchor="middle" x="357.5" y="-13" font-family="Helvetica,sans-Serif" font-size="10.00">/cpp/common/algebra_old.cpp</text>
</a>
</g>
</g>
<!-- Node1&#45;&gt;Node4 -->
<g id="edge3" class="edge">
<title>Node1&#45;&gt;Node4</title>
<path fill="none" stroke="midnightblue" d="M914.31,-89.05C807.16,-83.44 607.55,-70.02 439.5,-42 429.96,-40.41 419.89,-38.31 410.2,-36.07"/>
<polygon fill="midnightblue" stroke="midnightblue" points="914.22,-92.55 924.39,-89.57 914.58,-85.56 914.22,-92.55"/>
</g>
<!-- Node5 -->
<g id="node5" class="node">
<title>Node5</title>
<g id="a_node5"><a xlink:href="ephemeris_8cpp.html" target="_top" xlink:title=" ">
<polygon fill="white" stroke="black" points="448.5,-6 448.5,-36 590.5,-36 590.5,-6 448.5,-6"/>
<text text-anchor="start" x="456.5" y="-24" font-family="Helvetica,sans-Serif" font-size="10.00">/github/workspace/src</text>
<text text-anchor="middle" x="519.5" y="-13" font-family="Helvetica,sans-Serif" font-size="10.00">/cpp/common/ephemeris.cpp</text>
</a>
</g>
</g>
<!-- Node1&#45;&gt;Node5 -->
<g id="edge4" class="edge">
<title>Node1&#45;&gt;Node5</title>
<path fill="none" stroke="midnightblue" d="M913.79,-85.19C834.39,-77.1 707.75,-62.43 599.5,-42 590.5,-40.3 580.99,-38.2 571.81,-36.01"/>
<polygon fill="midnightblue" stroke="midnightblue" points="913.89,-88.72 924.19,-86.24 914.59,-81.76 913.89,-88.72"/>
</g>
<!-- Node6 -->
<g id="node6" class="node">
<title>Node6</title>
<g id="a_node6"><a xlink:href="linearCombo_8cpp.html" target="_top" xlink:title=" ">
<polygon fill="white" stroke="black" points="609,-6 609,-36 760,-36 760,-6 609,-6"/>
<text text-anchor="start" x="617" y="-24" font-family="Helvetica,sans-Serif" font-size="10.00">/github/workspace/src</text>
<text text-anchor="middle" x="684.5" y="-13" font-family="Helvetica,sans-Serif" font-size="10.00">/cpp/common/linearCombo.cpp</text>
</a>
</g>
</g>
<!-- Node1&#45;&gt;Node6 -->
<g id="edge5" class="edge">
<title>Node1&#45;&gt;Node6</title>
<path fill="none" stroke="midnightblue" d="M919.37,-76.23C875.93,-66.4 819.52,-53.57 769.5,-42 761.23,-40.09 752.51,-38.05 743.93,-36.04"/>
<polygon fill="midnightblue" stroke="midnightblue" points="918.75,-79.68 929.27,-78.47 920.29,-72.85 918.75,-79.68"/>
</g>
<!-- Node7 -->
<g id="node7" class="node">
<title>Node7</title>
<g id="a_node7"><a xlink:href="testUtils_8cpp.html" target="_top" xlink:title=" ">
<polygon fill="white" stroke="black" points="778.5,-6 778.5,-36 912.5,-36 912.5,-6 778.5,-6"/>
<text text-anchor="start" x="786.5" y="-24" font-family="Helvetica,sans-Serif" font-size="10.00">/github/workspace/src</text>
<text text-anchor="middle" x="845.5" y="-13" font-family="Helvetica,sans-Serif" font-size="10.00">/cpp/common/testUtils.cpp</text>
</a>
</g>
</g>
<!-- Node1&#45;&gt;Node7 -->
<g id="edge6" class="edge">
<title>Node1&#45;&gt;Node7</title>
<path fill="none" stroke="midnightblue" d="M953.25,-74.03C928.66,-62.16 897.21,-46.97 874.64,-36.07"/>
<polygon fill="midnightblue" stroke="midnightblue" points="951.78,-77.21 962.31,-78.4 954.82,-70.9 951.78,-77.21"/>
</g>
<!-- Node8 -->
<g id="node8" class="node">
<title>Node8</title>
<g id="a_node8"><a xlink:href="ionoModel_8cpp.html" target="_top" xlink:title=" ">
<polygon fill="white" stroke="black" points="930.5,-6 930.5,-36 1052.5,-36 1052.5,-6 930.5,-6"/>
<text text-anchor="start" x="938.5" y="-24" font-family="Helvetica,sans-Serif" font-size="10.00">/github/workspace/src</text>
<text text-anchor="middle" x="991.5" y="-13" font-family="Helvetica,sans-Serif" font-size="10.00">/cpp/iono/ionoModel.cpp</text>
</a>
</g>
</g>
<!-- Node1&#45;&gt;Node8 -->
<g id="edge7" class="edge">
<title>Node1&#45;&gt;Node8</title>
<path fill="none" stroke="midnightblue" d="M991.5,-68.23C991.5,-57.57 991.5,-45.41 991.5,-36.25"/>
<polygon fill="midnightblue" stroke="midnightblue" points="988,-68.23 991.5,-78.23 995,-68.23 988,-68.23"/>
</g>
<!-- Node9 -->
<g id="node9" class="node">
<title>Node9</title>
<g id="a_node9"><a xlink:href="main_8cpp.html" target="_top" xlink:title=" ">
<polygon fill="white" stroke="black" points="1071,-6 1071,-36 1184,-36 1184,-6 1071,-6"/>
<text text-anchor="start" x="1079" y="-24" font-family="Helvetica,sans-Serif" font-size="10.00">/github/workspace/src</text>
<text text-anchor="middle" x="1127.5" y="-13" font-family="Helvetica,sans-Serif" font-size="10.00">/cpp/pea/main.cpp</text>
</a>
</g>
</g>
<!-- Node1&#45;&gt;Node9 -->
<g id="edge8" class="edge">
<title>Node1&#45;&gt;Node9</title>
<path fill="none" stroke="midnightblue" d="M1027.74,-73.72C1050.55,-61.89 1079.52,-46.87 1100.35,-36.07"/>
<polygon fill="midnightblue" stroke="midnightblue" points="1025.96,-70.69 1018.69,-78.4 1029.18,-76.91 1025.96,-70.69"/>
</g>
<!-- Node10 -->
<g id="node10" class="node">
<title>Node10</title>
<g id="a_node10"><a xlink:href="networkEstimator_8cpp.html" target="_top" xlink:title=" ">
<polygon fill="white" stroke="black" points="1202,-6 1202,-36 1353,-36 1353,-6 1202,-6"/>
<text text-anchor="start" x="1210" y="-24" font-family="Helvetica,sans-Serif" font-size="10.00">/github/workspace/src</text>
<text text-anchor="middle" x="1277.5" y="-13" font-family="Helvetica,sans-Serif" font-size="10.00">/cpp/pea/networkEstimator.cpp</text>
</a>
</g>
</g>
<!-- Node1&#45;&gt;Node10 -->
<g id="edge9" class="edge">
<title>Node1&#45;&gt;Node10</title>
<path fill="none" stroke="midnightblue" d="M1058.25,-76.05C1107.4,-63.93 1173.53,-47.63 1220.27,-36.11"/>
<polygon fill="midnightblue" stroke="midnightblue" points="1057.22,-72.7 1048.35,-78.49 1058.89,-79.49 1057.22,-72.7"/>
</g>
<!-- Node11 -->
<g id="node11" class="node">
<title>Node11</title>
<g id="a_node11"><a xlink:href="ppp_8cpp.html" target="_top" xlink:title="ppp.c : precise point positioning">
<polygon fill="white" stroke="black" points="1371,-6 1371,-36 1484,-36 1484,-6 1371,-6"/>
<text text-anchor="start" x="1379" y="-24" font-family="Helvetica,sans-Serif" font-size="10.00">/github/workspace/src</text>
<text text-anchor="middle" x="1427.5" y="-13" font-family="Helvetica,sans-Serif" font-size="10.00">/cpp/pea/ppp.cpp</text>
</a>
</g>
</g>
<!-- Node1&#45;&gt;Node11 -->
<g id="edge10" class="edge">
<title>Node1&#45;&gt;Node11</title>
<path fill="none" stroke="midnightblue" d="M1069.13,-85.66C1144.65,-78.13 1262.31,-64.08 1362.5,-42 1369.99,-40.35 1377.87,-38.25 1385.46,-36.03"/>
<polygon fill="midnightblue" stroke="midnightblue" points="1068.37,-82.21 1058.76,-86.68 1069.06,-89.18 1068.37,-82.21"/>
</g>
<!-- Node12 -->
<g id="node12" class="node">
<title>Node12</title>
<g id="a_node12"><a xlink:href="ppp__network_8cpp.html" target="_top" xlink:title=" ">
<polygon fill="white" stroke="black" points="1502,-6 1502,-36 1633,-36 1633,-6 1502,-6"/>
<text text-anchor="start" x="1510" y="-24" font-family="Helvetica,sans-Serif" font-size="10.00">/github/workspace/src</text>
<text text-anchor="middle" x="1567.5" y="-13" font-family="Helvetica,sans-Serif" font-size="10.00">/cpp/pea/ppp_network.cpp</text>
</a>
</g>
</g>
<!-- Node1&#45;&gt;Node12 -->
<g id="edge11" class="edge">
<title>Node1&#45;&gt;Node12</title>
<path fill="none" stroke="midnightblue" d="M1068.8,-88.66C1167.85,-82.84 1344.57,-69.43 1493.5,-42 1502.14,-40.41 1511.24,-38.31 1519.99,-36.07"/>
<polygon fill="midnightblue" stroke="midnightblue" points="1068.36,-85.18 1058.58,-89.25 1068.76,-92.17 1068.36,-85.18"/>
</g>
<!-- Node13 -->
<g id="node13" class="node">
<title>Node13</title>
<g id="a_node13"><a xlink:href="ppp__user_8cpp.html" target="_top" xlink:title=" ">
<polygon fill="white" stroke="black" points="1651,-6 1651,-36 1766,-36 1766,-6 1651,-6"/>
<text text-anchor="start" x="1659" y="-24" font-family="Helvetica,sans-Serif" font-size="10.00">/github/workspace/src</text>
<text text-anchor="middle" x="1708.5" y="-13" font-family="Helvetica,sans-Serif" font-size="10.00">/cpp/pea/ppp_user.cpp</text>
</a>
</g>
</g>
<!-- Node1&#45;&gt;Node13 -->
<g id="edge12" class="edge">
<title>Node1&#45;&gt;Node13</title>
<path fill="none" stroke="midnightblue" d="M1068.71,-91.9C1191.33,-89.75 1437.7,-80.5 1642.5,-42 1650.5,-40.5 1658.91,-38.38 1666.94,-36.08"/>
<polygon fill="midnightblue" stroke="midnightblue" points="1068.61,-88.4 1058.66,-92.07 1068.72,-95.4 1068.61,-88.4"/>
</g>
<!-- Node14 -->
<g id="node14" class="node">
<title>Node14</title>
<g id="a_node14"><a xlink:href="spp_8cpp.html" target="_top" xlink:title=" ">
<polygon fill="white" stroke="black" points="1784,-6 1784,-36 1897,-36 1897,-6 1784,-6"/>
<text text-anchor="start" x="1792" y="-24" font-family="Helvetica,sans-Serif" font-size="10.00">/github/workspace/src</text>
<text text-anchor="middle" x="1840.5" y="-13" font-family="Helvetica,sans-Serif" font-size="10.00">/cpp/pea/spp.cpp</text>
</a>
</g>
</g>
<!-- Node1&#45;&gt;Node14 -->
<g id="edge13" class="edge">
<title>Node1&#45;&gt;Node14</title>
<path fill="none" stroke="midnightblue" d="M1068.9,-89.82C1239.12,-83.55 1641.48,-66.58 1775.5,-42 1783.51,-40.53 1791.93,-38.4 1799.95,-36.07"/>
<polygon fill="midnightblue" stroke="midnightblue" points="1068.63,-86.33 1058.77,-90.19 1068.89,-93.32 1068.63,-86.33"/>
</g>
</g>
</svg>
