<?xml version="1.0" encoding="UTF-8" standalone="no"?>
<!DOCTYPE svg PUBLIC "-//W3C//DTD SVG 1.1//EN"
 "http://www.w3.org/Graphics/SVG/1.1/DTD/svg11.dtd">
<!-- Generated by graphviz version 2.50.0 (20220203.2022)
 -->
<!-- Title: tidedisp Pages: 1 -->
<!--zoomable 484 -->
<svg id="main" version="1.1" xmlns="http://www.w3.org/2000/svg" xmlns:xlink="http://www.w3.org/1999/xlink" xml:space="preserve" onload="init(evt)">
<style type="text/css"><![CDATA[
.edge:hover path { stroke: red; }
.edge:hover polygon { stroke: red; fill: red; }
]]></style>
<script type="text/javascript"><![CDATA[
var edges = document.getElementsByTagName('g');
if (edges && edges.length) {
  for (var i=0;i<edges.length;i++) {
    if (edges[i].id.substr(0,4)=='edge') {
      edges[i].setAttribute('class','edge');
    }
  }
}
]]></script>
        <defs>
                <circle id="rim" cx="0" cy="0" r="7"/>
                <circle id="rim2" cx="0" cy="0" r="3.5"/>
                <g id="zoomPlus">
                        <use xlink:href="#rim" fill="#404040">
                                <set attributeName="fill" to="#808080" begin="zoomplus.mouseover" end="zoomplus.mouseout"/>
                        </use>
                        <path d="M-4,0h8M0,-4v8" fill="none" stroke="white" stroke-width="1.5" pointer-events="none"/>
                </g>
                <g id="zoomMin">
                        <use xlink:href="#rim" fill="#404040">
                                <set attributeName="fill" to="#808080" begin="zoomminus.mouseover" end="zoomminus.mouseout"/>
                        </use>
                        <path d="M-4,0h8" fill="none" stroke="white" stroke-width="1.5" pointer-events="none"/>
                </g>
                <g id="dirArrow">
                        <path fill="none" stroke="white" stroke-width="1.5" d="M0,-3.0v7 M-2.5,-0.5L0,-3.0L2.5,-0.5"/>
                </g>
               <g id="resetDef">
                       <use xlink:href="#rim2" fill="#404040">
                               <set attributeName="fill" to="#808080" begin="reset.mouseover" end="reset.mouseout"/>
                       </use>
               </g>
        </defs>

<script type="text/javascript">
var viewWidth = 508;
var viewHeight = 484;
var sectionId = 'dynsection-10';
</script>
<script xlink:href="svgpan.js"/>
<svg id="graph" class="graph">
<g id="viewport">
<title>tidedisp</title>
<polygon fill="white" stroke="transparent" points="-4,4 -4,-480 504,-480 504,4 -4,4"/>
<!-- Node1 -->
<g id="node1" class="node">
<title>Node1</title>
<g id="a_node1"><a xlink:title=" ">
<polygon fill="#bfbfbf" stroke="black" points="0,-209.5 0,-228.5 50,-228.5 50,-209.5 0,-209.5"/>
<text text-anchor="middle" x="25" y="-216.5" font-family="Helvetica,sans-Serif" font-size="10.00">tidedisp</text>
</a>
</g>
</g>
<!-- Node2 -->
<g id="node2" class="node">
<title>Node2</title>
<g id="a_node2"><a xlink:href="erp_8cpp.html#a16f89bd9c40ebe924feb3a4e23bc0c6f" target="_top" xlink:title="Get earth rotation parameter values.">
<polygon fill="white" stroke="black" points="108,-456.5 108,-475.5 152,-475.5 152,-456.5 108,-456.5"/>
<text text-anchor="middle" x="130" y="-463.5" font-family="Helvetica,sans-Serif" font-size="10.00">geterp</text>
</a>
</g>
</g>
<!-- Node1&#45;&gt;Node2 -->
<g id="edge1" class="edge">
<title>Node1&#45;&gt;Node2</title>
<path fill="none" stroke="midnightblue" d="M25.74,-228.56C25.33,-262.58 28.37,-379.41 86,-447 89.42,-451.01 93.85,-454.21 98.57,-456.75"/>
<polygon fill="midnightblue" stroke="midnightblue" points="97.23,-459.98 107.79,-460.86 100.08,-453.59 97.23,-459.98"/>
</g>
<!-- Node3 -->
<g id="node3" class="node">
<title>Node3</title>
<g id="a_node3"><a xlink:href="algebra__old_8cpp.html#adc33998911a24938042604ba1f8e6196" target="_top" xlink:title=" ">
<polygon fill="white" stroke="black" points="105.5,-418.5 105.5,-437.5 154.5,-437.5 154.5,-418.5 105.5,-418.5"/>
<text text-anchor="middle" x="130" y="-425.5" font-family="Helvetica,sans-Serif" font-size="10.00">matmul</text>
</a>
</g>
</g>
<!-- Node1&#45;&gt;Node3 -->
<g id="edge2" class="edge">
<title>Node1&#45;&gt;Node3</title>
<path fill="none" stroke="midnightblue" d="M26.35,-228.63C27.95,-259.03 36.85,-354.11 86,-409 88.88,-412.21 92.4,-414.91 96.18,-417.17"/>
<polygon fill="midnightblue" stroke="midnightblue" points="94.77,-420.37 105.28,-421.67 97.87,-414.1 94.77,-420.37"/>
</g>
<!-- Node4 -->
<g id="node4" class="node">
<title>Node4</title>
<g id="a_node4"><a xlink:href="rtkcmn_8cpp.html#ac9a81e78329f3b0dafee87842d6c1027" target="_top" xlink:title="get sun and moon position in ecef">
<polygon fill="white" stroke="black" points="94,-266.5 94,-285.5 166,-285.5 166,-266.5 94,-266.5"/>
<text text-anchor="middle" x="130" y="-273.5" font-family="Helvetica,sans-Serif" font-size="10.00">sunmoonpos</text>
</a>
</g>
</g>
<!-- Node1&#45;&gt;Node4 -->
<g id="edge3" class="edge">
<title>Node1&#45;&gt;Node4</title>
<path fill="none" stroke="midnightblue" d="M39.95,-228.67C51.89,-236.74 69.68,-248.29 86,-257 89.29,-258.76 92.77,-260.49 96.28,-262.15"/>
<polygon fill="midnightblue" stroke="midnightblue" points="94.94,-265.39 105.49,-266.36 97.85,-259.02 94.94,-265.39"/>
</g>
<!-- Node12 -->
<g id="node7" class="node">
<title>Node12</title>
<g id="a_node7"><a xlink:href="gTime_8cpp.html#abb00b59d1e35b7cc9e031a5faf536f9e" target="_top" xlink:title=" ">
<polygon fill="white" stroke="black" points="325,-342.5 325,-361.5 379,-361.5 379,-342.5 325,-342.5"/>
<text text-anchor="middle" x="352" y="-349.5" font-family="Helvetica,sans-Serif" font-size="10.00">utc2gpst</text>
</a>
</g>
</g>
<!-- Node1&#45;&gt;Node12 -->
<g id="edge23" class="edge">
<title>Node1&#45;&gt;Node12</title>
<path fill="none" stroke="midnightblue" d="M31.07,-228.72C40,-244.88 60.05,-277.25 86,-295 156.46,-343.2 260.13,-351.71 314.56,-352.58"/>
<polygon fill="midnightblue" stroke="midnightblue" points="314.74,-356.08 324.77,-352.66 314.79,-349.08 314.74,-356.08"/>
</g>
<!-- Node14 -->
<g id="node9" class="node">
<title>Node14</title>
<g id="a_node9"><a xlink:href="tides_8cpp.html#abf02a9eaf9a87a687a1f1e451e7dc316" target="_top" xlink:title=" ">
<polygon fill="white" stroke="black" points="210,-114.5 210,-133.5 271,-133.5 271,-114.5 210,-114.5"/>
<text text-anchor="middle" x="240.5" y="-121.5" font-family="Helvetica,sans-Serif" font-size="10.00">tide_oload</text>
</a>
</g>
</g>
<!-- Node1&#45;&gt;Node14 -->
<g id="edge10" class="edge">
<title>Node1&#45;&gt;Node14</title>
<path fill="none" stroke="midnightblue" d="M30.49,-209.31C38.81,-192.58 58.31,-158.59 86,-143 120.84,-123.38 167.07,-120.16 199.67,-120.89"/>
<polygon fill="midnightblue" stroke="midnightblue" points="199.62,-124.39 209.74,-121.25 199.87,-117.4 199.62,-124.39"/>
</g>
<!-- Node11 -->
<g id="node10" class="node">
<title>Node11</title>
<g id="a_node10"><a xlink:href="gTime_8cpp.html#a7a747c44ca37f2ebe379fc4309d3cfba" target="_top" xlink:title=" ">
<polygon fill="white" stroke="black" points="318.5,-190.5 318.5,-209.5 385.5,-209.5 385.5,-190.5 318.5,-190.5"/>
<text text-anchor="middle" x="352" y="-197.5" font-family="Helvetica,sans-Serif" font-size="10.00">time2epoch</text>
</a>
</g>
</g>
<!-- Node1&#45;&gt;Node11 -->
<g id="edge18" class="edge">
<title>Node1&#45;&gt;Node11</title>
<path fill="none" stroke="midnightblue" d="M50.16,-217.59C104.94,-214.38 239.18,-206.54 308.31,-202.5"/>
<polygon fill="midnightblue" stroke="midnightblue" points="308.64,-205.98 318.42,-201.9 308.24,-198.99 308.64,-205.98"/>
</g>
<!-- Node15 -->
<g id="node11" class="node">
<title>Node15</title>
<g id="a_node11"><a xlink:href="tides_8cpp.html#af30520a7f3dd68d03d68ee72c789fcda" target="_top" xlink:title=" ">
<polygon fill="white" stroke="black" points="102,-380.5 102,-399.5 158,-399.5 158,-380.5 102,-380.5"/>
<text text-anchor="middle" x="130" y="-387.5" font-family="Helvetica,sans-Serif" font-size="10.00">tide_pole</text>
</a>
</g>
</g>
<!-- Node1&#45;&gt;Node15 -->
<g id="edge13" class="edge">
<title>Node1&#45;&gt;Node15</title>
<path fill="none" stroke="midnightblue" d="M27.66,-228.77C32.45,-254.21 48.36,-323.48 86,-366 89.01,-369.4 92.63,-372.43 96.47,-375.09"/>
<polygon fill="midnightblue" stroke="midnightblue" points="94.72,-378.12 105.09,-380.32 98.36,-372.14 94.72,-378.12"/>
</g>
<!-- Node17 -->
<g id="node13" class="node">
<title>Node17</title>
<g id="a_node13"><a xlink:href="tides_8cpp.html#a1d0911c3f8047cac2e12d8c8fdf957d2" target="_top" xlink:title=" ">
<polygon fill="white" stroke="black" points="101,-152.5 101,-171.5 159,-171.5 159,-152.5 101,-152.5"/>
<text text-anchor="middle" x="130" y="-159.5" font-family="Helvetica,sans-Serif" font-size="10.00">tide_solid</text>
</a>
</g>
</g>
<!-- Node1&#45;&gt;Node17 -->
<g id="edge16" class="edge">
<title>Node1&#45;&gt;Node17</title>
<path fill="none" stroke="midnightblue" d="M43.47,-209.33C59.77,-200.31 84.31,-186.73 102.92,-176.43"/>
<polygon fill="midnightblue" stroke="midnightblue" points="104.73,-179.43 111.79,-171.53 101.34,-173.31 104.73,-179.43"/>
</g>
<!-- Node21 -->
<g id="node15" class="node">
<title>Node21</title>
<g id="a_node15"><a xlink:href="structGTime.html#a64394968bbfdecbbeec4ba5134fdb682" target="_top" xlink:title=" ">
<polygon fill="white" stroke="black" points="86,-228.5 86,-247.5 174,-247.5 174,-228.5 86,-228.5"/>
<text text-anchor="middle" x="130" y="-235.5" font-family="Helvetica,sans-Serif" font-size="10.00">GTime::to_string</text>
</a>
</g>
</g>
<!-- Node1&#45;&gt;Node21 -->
<g id="edge19" class="edge">
<title>Node1&#45;&gt;Node21</title>
<path fill="none" stroke="midnightblue" d="M50.15,-223.45C57.84,-224.87 66.67,-226.5 75.59,-228.15"/>
<polygon fill="midnightblue" stroke="midnightblue" points="75.16,-231.63 85.63,-230 76.43,-224.74 75.16,-231.63"/>
</g>
<!-- Node24 -->
<g id="node17" class="node">
<title>Node24</title>
<g id="a_node17"><a xlink:href="streamTrace_8cpp.html#a26d8a8c49d22d1ec101a45f8ee2e1fcc" target="_top" xlink:title=" ">
<polygon fill="white" stroke="black" points="103,-76.5 103,-95.5 157,-95.5 157,-76.5 103,-76.5"/>
<text text-anchor="middle" x="130" y="-83.5" font-family="Helvetica,sans-Serif" font-size="10.00">tracepde</text>
</a>
</g>
</g>
<!-- Node1&#45;&gt;Node24 -->
<g id="edge22" class="edge">
<title>Node1&#45;&gt;Node24</title>
<path fill="none" stroke="midnightblue" d="M29.2,-209.42C36.44,-188.95 55.85,-140.33 86,-110 89.44,-106.54 93.47,-103.44 97.67,-100.7"/>
<polygon fill="midnightblue" stroke="midnightblue" points="99.53,-103.66 106.39,-95.59 95.99,-97.63 99.53,-103.66"/>
</g>
<!-- Node25 -->
<g id="node18" class="node">
<title>Node25</title>
<g id="a_node18"><a xlink:href="rtkcmn_8cpp.html#a59a54664edbf3bc2ebeb1f5e5e7a67d0" target="_top" xlink:title=" ">
<polygon fill="white" stroke="black" points="104.5,-38.5 104.5,-57.5 155.5,-57.5 155.5,-38.5 104.5,-38.5"/>
<text text-anchor="middle" x="130" y="-45.5" font-family="Helvetica,sans-Serif" font-size="10.00">xyz2enu</text>
</a>
</g>
</g>
<!-- Node1&#45;&gt;Node25 -->
<g id="edge24" class="edge">
<title>Node1&#45;&gt;Node25</title>
<path fill="none" stroke="midnightblue" d="M27.23,-209.46C31.06,-183.3 45.12,-109.55 86,-67 88.64,-64.25 91.76,-61.87 95.08,-59.82"/>
<polygon fill="midnightblue" stroke="midnightblue" points="96.9,-62.81 104.18,-55.12 93.69,-56.59 96.9,-62.81"/>
</g>
<!-- Node26 -->
<g id="node19" class="node">
<title>Node26</title>
<g id="a_node19"><a xlink:href="gTime_8cpp.html#a282534ac1ef65d4844290ce80bf76fed" target="_top" xlink:title="YMDHMS to Julian Day &#160;&#160;return : julian day.">
<polygon fill="white" stroke="black" points="97,-0.5 97,-19.5 163,-19.5 163,-0.5 97,-0.5"/>
<text text-anchor="middle" x="130" y="-7.5" font-family="Helvetica,sans-Serif" font-size="10.00">ymdhms2jd</text>
</a>
</g>
</g>
<!-- Node1&#45;&gt;Node26 -->
<g id="edge25" class="edge">
<title>Node1&#45;&gt;Node26</title>
<path fill="none" stroke="midnightblue" d="M26.35,-209.37C27.95,-178.97 36.85,-83.89 86,-29 87.16,-27.7 88.43,-26.49 89.77,-25.36"/>
<polygon fill="midnightblue" stroke="midnightblue" points="91.83,-28.19 98.16,-19.7 87.91,-22.39 91.83,-28.19"/>
</g>
<!-- Node5 -->
<g id="node5" class="node">
<title>Node5</title>
<g id="a_node5"><a xlink:href="rtkcmn_8cpp.html#a304b15df0b6ab1452fd1f31277dad490" target="_top" xlink:title="eci to ecef transformation matrix">
<polygon fill="white" stroke="red" points="214,-304.5 214,-323.5 267,-323.5 267,-304.5 214,-304.5"/>
<text text-anchor="middle" x="240.5" y="-311.5" font-family="Helvetica,sans-Serif" font-size="10.00">eci2ecef</text>
</a>
</g>
</g>
<!-- Node4&#45;&gt;Node5 -->
<g id="edge4" class="edge">
<title>Node4&#45;&gt;Node5</title>
<path fill="none" stroke="midnightblue" d="M158.38,-285.59C172.39,-290.49 189.59,-296.52 204.55,-301.76"/>
<polygon fill="midnightblue" stroke="midnightblue" points="203.4,-305.06 213.99,-305.07 205.71,-298.46 203.4,-305.06"/>
</g>
<!-- Node13 -->
<g id="node8" class="node">
<title>Node13</title>
<g id="a_node8"><a xlink:href="rtkcmn_8cpp.html#ae750d4c658ef6ae3e065e949878edcee" target="_top" xlink:title=" ">
<polygon fill="white" stroke="red" points="307,-266.5 307,-285.5 397,-285.5 397,-266.5 307,-266.5"/>
<text text-anchor="middle" x="352" y="-273.5" font-family="Helvetica,sans-Serif" font-size="10.00">sunmoonpos_eci</text>
</a>
</g>
</g>
<!-- Node4&#45;&gt;Node13 -->
<g id="edge8" class="edge">
<title>Node4&#45;&gt;Node13</title>
<path fill="none" stroke="midnightblue" d="M166.35,-276C201.51,-276 255.93,-276 296.6,-276"/>
<polygon fill="midnightblue" stroke="midnightblue" points="296.62,-279.5 306.62,-276 296.62,-272.5 296.62,-279.5"/>
</g>
<!-- Node7 -->
<g id="node6" class="node">
<title>Node7</title>
<g id="a_node6"><a xlink:href="gTime_8cpp.html#aa46173b9085096882d09e53d96e9dc41" target="_top" xlink:title=" ">
<polygon fill="white" stroke="black" points="433,-304.5 433,-323.5 500,-323.5 500,-304.5 433,-304.5"/>
<text text-anchor="middle" x="466.5" y="-311.5" font-family="Helvetica,sans-Serif" font-size="10.00">epoch2time</text>
</a>
</g>
</g>
<!-- Node5&#45;&gt;Node7 -->
<g id="edge5" class="edge">
<title>Node5&#45;&gt;Node7</title>
<path fill="none" stroke="midnightblue" d="M267.2,-314C305.15,-314 376.65,-314 422.63,-314"/>
<polygon fill="midnightblue" stroke="midnightblue" points="422.88,-317.5 432.88,-314 422.88,-310.5 422.88,-317.5"/>
</g>
<!-- Node5&#45;&gt;Node12 -->
<g id="edge6" class="edge">
<title>Node5&#45;&gt;Node12</title>
<path fill="none" stroke="midnightblue" d="M267.17,-322.91C281.38,-327.84 299.27,-334.05 314.87,-339.46"/>
<polygon fill="midnightblue" stroke="midnightblue" points="314.13,-342.91 324.73,-342.88 316.43,-336.3 314.13,-342.91"/>
</g>
<!-- Node12&#45;&gt;Node7 -->
<g id="edge7" class="edge">
<title>Node12&#45;&gt;Node7</title>
<path fill="none" stroke="midnightblue" d="M379.09,-343.19C393.5,-338.32 411.65,-332.19 427.6,-326.8"/>
<polygon fill="midnightblue" stroke="midnightblue" points="428.83,-330.08 437.18,-323.56 426.59,-323.45 428.83,-330.08"/>
</g>
<!-- Node13&#45;&gt;Node7 -->
<g id="edge9" class="edge">
<title>Node13&#45;&gt;Node7</title>
<path fill="none" stroke="midnightblue" d="M381.39,-285.59C395.38,-290.31 412.44,-296.08 427.54,-301.18"/>
<polygon fill="midnightblue" stroke="midnightblue" points="426.53,-304.53 437.12,-304.41 428.77,-297.9 426.53,-304.53"/>
</g>
<!-- Node14&#45;&gt;Node7 -->
<g id="edge11" class="edge">
<title>Node14&#45;&gt;Node7</title>
<path fill="none" stroke="midnightblue" d="M271.15,-128.24C305.14,-134.47 360.79,-149.03 397,-181 432.39,-212.25 452.06,-266.18 460.49,-294.82"/>
<polygon fill="midnightblue" stroke="midnightblue" points="457.12,-295.77 463.18,-304.46 463.86,-293.89 457.12,-295.77"/>
</g>
<!-- Node14&#45;&gt;Node11 -->
<g id="edge12" class="edge">
<title>Node14&#45;&gt;Node11</title>
<path fill="none" stroke="midnightblue" d="M256.6,-133.53C261.25,-136.52 266.36,-139.86 271,-143 291.13,-156.64 313.66,-172.77 329.66,-184.38"/>
<polygon fill="midnightblue" stroke="midnightblue" points="327.68,-187.27 337.83,-190.33 331.8,-181.61 327.68,-187.27"/>
</g>
<!-- Node16 -->
<g id="node12" class="node">
<title>Node16</title>
<g id="a_node12"><a xlink:href="tides_8cpp.html#a532f98452ee829f9b1f5200696d16d1b" target="_top" xlink:title=" ">
<polygon fill="white" stroke="black" points="309.5,-380.5 309.5,-399.5 394.5,-399.5 394.5,-380.5 309.5,-380.5"/>
<text text-anchor="middle" x="352" y="-387.5" font-family="Helvetica,sans-Serif" font-size="10.00">iers_mean_pole</text>
</a>
</g>
</g>
<!-- Node15&#45;&gt;Node16 -->
<g id="edge14" class="edge">
<title>Node15&#45;&gt;Node16</title>
<path fill="none" stroke="midnightblue" d="M158.42,-390C193.5,-390 255,-390 299.06,-390"/>
<polygon fill="midnightblue" stroke="midnightblue" points="299.3,-393.5 309.3,-390 299.3,-386.5 299.3,-393.5"/>
</g>
<!-- Node16&#45;&gt;Node7 -->
<g id="edge15" class="edge">
<title>Node16&#45;&gt;Node7</title>
<path fill="none" stroke="midnightblue" d="M378.75,-380.35C384.9,-377.65 391.33,-374.48 397,-371 415.78,-359.47 434.87,-343.12 448.11,-330.89"/>
<polygon fill="midnightblue" stroke="midnightblue" points="450.66,-333.29 455.54,-323.88 445.86,-328.2 450.66,-333.29"/>
</g>
<!-- Node18 -->
<g id="node14" class="node">
<title>Node18</title>
<g id="a_node14"><a xlink:href="tides_8cpp.html#a48bf814e2226bfda975681002cbf4172" target="_top" xlink:title=" ">
<polygon fill="white" stroke="red" points="218,-152.5 218,-171.5 263,-171.5 263,-152.5 218,-152.5"/>
<text text-anchor="middle" x="240.5" y="-159.5" font-family="Helvetica,sans-Serif" font-size="10.00">tide_pl</text>
</a>
</g>
</g>
<!-- Node17&#45;&gt;Node18 -->
<g id="edge17" class="edge">
<title>Node17&#45;&gt;Node18</title>
<path fill="none" stroke="midnightblue" d="M159.22,-162C174.12,-162 192.45,-162 207.83,-162"/>
<polygon fill="midnightblue" stroke="midnightblue" points="207.93,-165.5 217.93,-162 207.93,-158.5 207.93,-165.5"/>
</g>
<!-- Node22 -->
<g id="node16" class="node">
<title>Node22</title>
<g id="a_node16"><a xlink:href="gTime_8cpp.html#a016d7b64e67752afcd07e5074a3cc516" target="_top" xlink:title=" ">
<polygon fill="white" stroke="red" points="214.5,-228.5 214.5,-247.5 266.5,-247.5 266.5,-228.5 214.5,-228.5"/>
<text text-anchor="middle" x="240.5" y="-235.5" font-family="Helvetica,sans-Serif" font-size="10.00">time2str</text>
</a>
</g>
</g>
<!-- Node21&#45;&gt;Node22 -->
<g id="edge20" class="edge">
<title>Node21&#45;&gt;Node22</title>
<path fill="none" stroke="midnightblue" d="M174.19,-238C184.07,-238 194.46,-238 203.97,-238"/>
<polygon fill="midnightblue" stroke="midnightblue" points="204.26,-241.5 214.26,-238 204.26,-234.5 204.26,-241.5"/>
</g>
<!-- Node22&#45;&gt;Node11 -->
<g id="edge21" class="edge">
<title>Node22&#45;&gt;Node11</title>
<path fill="none" stroke="midnightblue" d="M266.62,-229.28C280.5,-224.46 298.02,-218.39 313.49,-213.02"/>
<polygon fill="midnightblue" stroke="midnightblue" points="315,-216.2 323.3,-209.61 312.71,-209.58 315,-216.2"/>
</g>
</g>
</svg>
        <g id="navigator" transform="translate(0 0)" fill="#404254">
                <rect fill="#f2f5e9" fill-opacity="0.5" stroke="#606060" stroke-width=".5" x="0" y="0" width="60" height="60"/>
                <use id="zoomplus" xlink:href="#zoomPlus" x="17" y="9" onmousedown="handleZoom(evt,'in')"/>
                <use id="zoomminus" xlink:href="#zoomMin" x="42" y="9" onmousedown="handleZoom(evt,'out')"/>
                <use id="reset" xlink:href="#resetDef" x="30" y="36" onmousedown="handleReset()"/>
                <g id="arrowUp" xlink:href="#dirArrow" transform="translate(30 24)" onmousedown="handlePan(0,-1)">
                  <use xlink:href="#rim" fill="#404040">
                        <set attributeName="fill" to="#808080" begin="arrowUp.mouseover" end="arrowUp.mouseout"/>
                  </use>
                  <path fill="none" stroke="white" stroke-width="1.5" d="M0,-3.0v7 M-2.5,-0.5L0,-3.0L2.5,-0.5"/>
                </g>
                <g id="arrowRight" xlink:href="#dirArrow" transform="rotate(90) translate(36 -43)" onmousedown="handlePan(1,0)">
                  <use xlink:href="#rim" fill="#404040">
                        <set attributeName="fill" to="#808080" begin="arrowRight.mouseover" end="arrowRight.mouseout"/>
                  </use>
                  <path fill="none" stroke="white" stroke-width="1.5" d="M0,-3.0v7 M-2.5,-0.5L0,-3.0L2.5,-0.5"/>
                </g>
                <g id="arrowDown" xlink:href="#dirArrow" transform="rotate(180) translate(-30 -48)" onmousedown="handlePan(0,1)">
                  <use xlink:href="#rim" fill="#404040">
                        <set attributeName="fill" to="#808080" begin="arrowDown.mouseover" end="arrowDown.mouseout"/>
                  </use>
                  <path fill="none" stroke="white" stroke-width="1.5" d="M0,-3.0v7 M-2.5,-0.5L0,-3.0L2.5,-0.5"/>
                </g>
                <g id="arrowLeft" xlink:href="#dirArrow" transform="rotate(270) translate(-36 17)" onmousedown="handlePan(-1,0)">
                  <use xlink:href="#rim" fill="#404040">
                        <set attributeName="fill" to="#808080" begin="arrowLeft.mouseover" end="arrowLeft.mouseout"/>
                  </use>
                  <path fill="none" stroke="white" stroke-width="1.5" d="M0,-3.0v7 M-2.5,-0.5L0,-3.0L2.5,-0.5"/>
                </g>
        </g>
        <svg viewBox="0 0 15 15" width="100%" height="30px" preserveAspectRatio="xMaxYMin meet">
         <g id="arrow_out" transform="scale(0.3 0.3)">
          <a xlink:href="tides_8cpp_a3faed0b0aa3e0d79b8615c68c7e085a0_cgraph_org.svg" target="_base">
           <rect id="button" ry="5" rx="5" y="6" x="6" height="38" width="38"
                fill="#f2f5e9" fill-opacity="0.5" stroke="#606060" stroke-width="1.0"/>
           <path id="arrow"
             d="M 11.500037,31.436501 C 11.940474,20.09759 22.043105,11.32322 32.158766,21.979434 L 37.068811,17.246167 C 37.068811,17.246167 37.088388,32 37.088388,32 L 22.160133,31.978069 C 22.160133,31.978069 26.997745,27.140456 26.997745,27.140456 C 18.528582,18.264221 13.291696,25.230495 11.500037,31.436501 z"
             style="fill:#404040;"/>
          </a>
         </g>
        </svg>
</svg>
