<?xml version="1.0" encoding="UTF-8" standalone="no"?>
<!DOCTYPE svg PUBLIC "-//W3C//DTD SVG 1.1//EN"
 "http://www.w3.org/Graphics/SVG/1.1/DTD/svg11.dtd">
<!-- Generated by graphviz version 2.50.0 (20220203.2022)
 -->
<!-- Title: tide_oload Pages: 1 -->
<svg width="257pt" height="104pt"
 viewBox="0.00 0.00 257.00 104.00" xmlns="http://www.w3.org/2000/svg" xmlns:xlink="http://www.w3.org/1999/xlink">
<g id="graph0" class="graph" transform="scale(1 1) rotate(0) translate(4 100)">
<title>tide_oload</title>
<polygon fill="white" stroke="transparent" points="-4,4 -4,-100 253,-100 253,4 -4,4"/>
<!-- Node1 -->
<g id="node1" class="node">
<title>Node1</title>
<g id="a_node1"><a xlink:title=" ">
<polygon fill="#bfbfbf" stroke="black" points="188,-38.5 188,-57.5 249,-57.5 249,-38.5 188,-38.5"/>
<text text-anchor="middle" x="218.5" y="-45.5" font-family="Helvetica,sans-Serif" font-size="10.00">tide_oload</text>
</a>
</g>
</g>
<!-- Node2 -->
<g id="node2" class="node">
<title>Node2</title>
<g id="a_node2"><a xlink:href="tides_8cpp.html#a3faed0b0aa3e0d79b8615c68c7e085a0" target="_top" xlink:title=" ">
<polygon fill="white" stroke="black" points="102,-38.5 102,-57.5 152,-57.5 152,-38.5 102,-38.5"/>
<text text-anchor="middle" x="127" y="-45.5" font-family="Helvetica,sans-Serif" font-size="10.00">tidedisp</text>
</a>
</g>
</g>
<!-- Node1&#45;&gt;Node2 -->
<g id="edge1" class="edge">
<title>Node1&#45;&gt;Node2</title>
<path fill="none" stroke="midnightblue" d="M177.64,-48C168.9,-48 159.91,-48 152.02,-48"/>
<polygon fill="midnightblue" stroke="midnightblue" points="177.7,-51.5 187.7,-48 177.7,-44.5 177.7,-51.5"/>
</g>
<!-- Node3 -->
<g id="node3" class="node">
<title>Node3</title>
<g id="a_node3"><a xlink:href="ppp__network_8cpp.html#a58f075aaa941ce20e727a84401270780" target="_top" xlink:title=" ">
<polygon fill="white" stroke="red" points="7.5,-76.5 7.5,-95.5 58.5,-95.5 58.5,-76.5 7.5,-76.5"/>
<text text-anchor="middle" x="33" y="-83.5" font-family="Helvetica,sans-Serif" font-size="10.00">pppomc</text>
</a>
</g>
</g>
<!-- Node2&#45;&gt;Node3 -->
<g id="edge2" class="edge">
<title>Node2&#45;&gt;Node3</title>
<path fill="none" stroke="midnightblue" d="M93.53,-61.41C81.54,-66.36 68.21,-71.87 57.21,-76.41"/>
<polygon fill="midnightblue" stroke="midnightblue" points="94.88,-64.64 102.78,-57.59 92.21,-58.17 94.88,-64.64"/>
</g>
<!-- Node6 -->
<g id="node4" class="node">
<title>Node6</title>
<g id="a_node4"><a xlink:href="ppp__user_8cpp.html#aad22d0ff0d06af12ea66aefd09d89af3" target="_top" xlink:title=" ">
<polygon fill="white" stroke="red" points="11.5,-38.5 11.5,-57.5 54.5,-57.5 54.5,-38.5 11.5,-38.5"/>
<text text-anchor="middle" x="33" y="-45.5" font-family="Helvetica,sans-Serif" font-size="10.00">pppos</text>
</a>
</g>
</g>
<!-- Node2&#45;&gt;Node6 -->
<g id="edge3" class="edge">
<title>Node2&#45;&gt;Node6</title>
<path fill="none" stroke="midnightblue" d="M91.72,-48C79.23,-48 65.51,-48 54.58,-48"/>
<polygon fill="midnightblue" stroke="midnightblue" points="91.83,-51.5 101.83,-48 91.83,-44.5 91.83,-51.5"/>
</g>
<!-- Node7 -->
<g id="node5" class="node">
<title>Node7</title>
<g id="a_node5"><a xlink:href="ppppp__obs_8cpp.html#a3db2ffced7ab37c4874c3a53fcb7953e" target="_top" xlink:title=" ">
<polygon fill="white" stroke="red" points="0,-0.5 0,-19.5 66,-19.5 66,-0.5 0,-0.5"/>
<text text-anchor="middle" x="33" y="-7.5" font-family="Helvetica,sans-Serif" font-size="10.00">stationPPP</text>
</a>
</g>
</g>
<!-- Node2&#45;&gt;Node7 -->
<g id="edge4" class="edge">
<title>Node2&#45;&gt;Node7</title>
<path fill="none" stroke="midnightblue" d="M93.53,-34.59C81.54,-29.64 68.21,-24.13 57.21,-19.59"/>
<polygon fill="midnightblue" stroke="midnightblue" points="92.21,-37.83 102.78,-38.41 94.88,-31.36 92.21,-37.83"/>
</g>
</g>
</svg>
