<?xml version="1.0" encoding="UTF-8" standalone="no"?>
<!DOCTYPE svg PUBLIC "-//W3C//DTD SVG 1.1//EN"
 "http://www.w3.org/Graphics/SVG/1.1/DTD/svg11.dtd">
<!-- Generated by graphviz version 2.50.0 (20220203.2022)
 -->
<!-- Title: time_utc Pages: 1 -->
<!--zoomable 382 -->
<svg id="main" version="1.1" xmlns="http://www.w3.org/2000/svg" xmlns:xlink="http://www.w3.org/1999/xlink" xml:space="preserve" onload="init(evt)">
<style type="text/css"><![CDATA[
.edge:hover path { stroke: red; }
.edge:hover polygon { stroke: red; fill: red; }
]]></style>
<script type="text/javascript"><![CDATA[
var edges = document.getElementsByTagName('g');
if (edges && edges.length) {
  for (var i=0;i<edges.length;i++) {
    if (edges[i].id.substr(0,4)=='edge') {
      edges[i].setAttribute('class','edge');
    }
  }
}
]]></script>
        <defs>
                <circle id="rim" cx="0" cy="0" r="7"/>
                <circle id="rim2" cx="0" cy="0" r="3.5"/>
                <g id="zoomPlus">
                        <use xlink:href="#rim" fill="#404040">
                                <set attributeName="fill" to="#808080" begin="zoomplus.mouseover" end="zoomplus.mouseout"/>
                        </use>
                        <path d="M-4,0h8M0,-4v8" fill="none" stroke="white" stroke-width="1.5" pointer-events="none"/>
                </g>
                <g id="zoomMin">
                        <use xlink:href="#rim" fill="#404040">
                                <set attributeName="fill" to="#808080" begin="zoomminus.mouseover" end="zoomminus.mouseout"/>
                        </use>
                        <path d="M-4,0h8" fill="none" stroke="white" stroke-width="1.5" pointer-events="none"/>
                </g>
                <g id="dirArrow">
                        <path fill="none" stroke="white" stroke-width="1.5" d="M0,-3.0v7 M-2.5,-0.5L0,-3.0L2.5,-0.5"/>
                </g>
               <g id="resetDef">
                       <use xlink:href="#rim2" fill="#404040">
                               <set attributeName="fill" to="#808080" begin="reset.mouseover" end="reset.mouseout"/>
                       </use>
               </g>
        </defs>

<script type="text/javascript">
var viewWidth = 519;
var viewHeight = 382;
var sectionId = 'dynsection-1';
</script>
<script xlink:href="svgpan.js"/>
<svg id="graph" class="graph">
<g id="viewport">
<title>time_utc</title>
<polygon fill="white" stroke="transparent" points="-4,4 -4,-378 515,-378 515,4 -4,4"/>
<!-- Node1 -->
<g id="node1" class="node">
<title>Node1</title>
<g id="a_node1"><a xlink:title=" ">
<polygon fill="#bfbfbf" stroke="black" points="457,-221.5 457,-240.5 511,-240.5 511,-221.5 457,-221.5"/>
<text text-anchor="middle" x="484" y="-228.5" font-family="Helvetica,sans-Serif" font-size="10.00">time_utc</text>
</a>
</g>
</g>
<!-- Node2 -->
<g id="node2" class="node">
<title>Node2</title>
<g id="a_node2"><a xlink:href="attitude_8f95.html#a8ee7764bdfc5e3bea9130e1ca999cb6d" target="_top" xlink:title=" ">
<polygon fill="white" stroke="black" points="336.5,-316.5 336.5,-335.5 385.5,-335.5 385.5,-316.5 336.5,-316.5"/>
<text text-anchor="middle" x="361" y="-323.5" font-family="Helvetica,sans-Serif" font-size="10.00">attitude</text>
</a>
</g>
</g>
<!-- Node1&#45;&gt;Node2 -->
<g id="edge1" class="edge">
<title>Node1&#45;&gt;Node2</title>
<path fill="none" stroke="midnightblue" d="M472.42,-249.29C461.58,-266.51 443.19,-291.85 421,-307 410.42,-314.22 396.93,-318.83 385.52,-321.7"/>
<polygon fill="midnightblue" stroke="midnightblue" points="475.45,-251.04 477.65,-240.67 469.47,-247.41 475.45,-251.04"/>
</g>
<!-- Node18 -->
<g id="node6" class="node">
<title>Node18</title>
<g id="a_node6"><a xlink:href="main__brdcorbit_8f90.html#a34cbfb6f2004478de868a894a67a8b30" target="_top" xlink:title=" ">
<polygon fill="white" stroke="black" points="321,-278.5 321,-297.5 401,-297.5 401,-278.5 321,-278.5"/>
<text text-anchor="middle" x="361" y="-285.5" font-family="Helvetica,sans-Serif" font-size="10.00">main_brdcorbit</text>
</a>
</g>
</g>
<!-- Node1&#45;&gt;Node18 -->
<g id="edge5" class="edge">
<title>Node1&#45;&gt;Node18</title>
<path fill="none" stroke="midnightblue" d="M460.74,-246.44C449.23,-253.94 434.76,-262.68 421,-269 413.28,-272.55 404.7,-275.72 396.53,-278.4"/>
<polygon fill="midnightblue" stroke="midnightblue" points="462.88,-249.21 469.25,-240.75 458.99,-243.39 462.88,-249.21"/>
</g>
<!-- Node19 -->
<g id="node7" class="node">
<title>Node19</title>
<g id="a_node7"><a xlink:href="namespacem__obsorbt2c.html#a23877ecd7325dd1180eb315c14d3a6a6" target="_top" xlink:title=" ">
<polygon fill="white" stroke="black" points="301,-240.5 301,-259.5 421,-259.5 421,-240.5 301,-240.5"/>
<text text-anchor="middle" x="361" y="-247.5" font-family="Helvetica,sans-Serif" font-size="10.00">m_obsorbt2c::obsorbt2c</text>
</a>
</g>
</g>
<!-- Node1&#45;&gt;Node19 -->
<g id="edge6" class="edge">
<title>Node1&#45;&gt;Node19</title>
<path fill="none" stroke="midnightblue" d="M446.71,-236.7C438.74,-237.95 430.09,-239.31 421.48,-240.66"/>
<polygon fill="midnightblue" stroke="midnightblue" points="447.41,-240.13 456.74,-235.12 446.32,-233.22 447.41,-240.13"/>
</g>
<!-- Node21 -->
<g id="node11" class="node">
<title>Node21</title>
<g id="a_node11"><a xlink:href="namespacem__orbc2t.html#a199ab2f2c024cd6d18cf08f6580013a0" target="_top" xlink:title=" ">
<polygon fill="white" stroke="black" points="316.5,-164.5 316.5,-183.5 405.5,-183.5 405.5,-164.5 316.5,-164.5"/>
<text text-anchor="middle" x="361" y="-171.5" font-family="Helvetica,sans-Serif" font-size="10.00">m_orbc2t::orbc2t</text>
</a>
</g>
</g>
<!-- Node1&#45;&gt;Node21 -->
<g id="edge10" class="edge">
<title>Node1&#45;&gt;Node21</title>
<path fill="none" stroke="midnightblue" d="M460.74,-215.56C449.23,-208.06 434.76,-199.32 421,-193 413.28,-189.45 404.7,-186.28 396.53,-183.6"/>
<polygon fill="midnightblue" stroke="midnightblue" points="458.99,-218.61 469.25,-221.25 462.88,-212.79 458.99,-218.61"/>
</g>
<!-- Node25 -->
<g id="node13" class="node">
<title>Node25</title>
<g id="a_node13"><a xlink:href="namespacem__orbt2c.html#a876ee97d4b7569bf142ff8abf3512555" target="_top" xlink:title=" ">
<polygon fill="white" stroke="black" points="316.5,-202.5 316.5,-221.5 405.5,-221.5 405.5,-202.5 316.5,-202.5"/>
<text text-anchor="middle" x="361" y="-209.5" font-family="Helvetica,sans-Serif" font-size="10.00">m_orbt2c::orbt2c</text>
</a>
</g>
</g>
<!-- Node1&#45;&gt;Node25 -->
<g id="edge13" class="edge">
<title>Node1&#45;&gt;Node25</title>
<path fill="none" stroke="midnightblue" d="M446.84,-225.32C433.94,-223.3 419.28,-220.99 405.81,-218.88"/>
<polygon fill="midnightblue" stroke="midnightblue" points="446.32,-228.78 456.74,-226.88 447.41,-221.87 446.32,-228.78"/>
</g>
<!-- Node26 -->
<g id="node14" class="node">
<title>Node26</title>
<g id="a_node14"><a xlink:href="prm__main_8f95.html#a5278832d0474755edea23de7a540f359" target="_top" xlink:title=" ">
<polygon fill="white" stroke="black" points="331.5,-88.5 331.5,-107.5 390.5,-107.5 390.5,-88.5 331.5,-88.5"/>
<text text-anchor="middle" x="361" y="-95.5" font-family="Helvetica,sans-Serif" font-size="10.00">prm_main</text>
</a>
</g>
</g>
<!-- Node1&#45;&gt;Node26 -->
<g id="edge16" class="edge">
<title>Node1&#45;&gt;Node26</title>
<path fill="none" stroke="midnightblue" d="M469.32,-213.04C457.13,-197.32 438.53,-174.07 421,-155 405,-137.6 384.94,-118.8 372.82,-107.73"/>
<polygon fill="midnightblue" stroke="midnightblue" points="466.84,-215.55 475.71,-221.34 472.39,-211.28 466.84,-215.55"/>
</g>
<!-- Node3 -->
<g id="node3" class="node">
<title>Node3</title>
<g id="a_node3"><a xlink:href="att__matrix_8f95.html#ac1f312f7022d981046ebb52cb86c69b2" target="_top" xlink:title=" ">
<polygon fill="white" stroke="red" points="180.5,-354.5 180.5,-373.5 239.5,-373.5 239.5,-354.5 180.5,-354.5"/>
<text text-anchor="middle" x="210" y="-361.5" font-family="Helvetica,sans-Serif" font-size="10.00">att_matrix</text>
</a>
</g>
</g>
<!-- Node2&#45;&gt;Node3 -->
<g id="edge2" class="edge">
<title>Node2&#45;&gt;Node3</title>
<path fill="none" stroke="midnightblue" d="M326.54,-334.53C300.39,-341.2 264.42,-350.38 239.6,-356.71"/>
<polygon fill="midnightblue" stroke="midnightblue" points="327.57,-337.88 336.39,-332.02 325.84,-331.1 327.57,-337.88"/>
</g>
<!-- Node6 -->
<g id="node4" class="node">
<title>Node6</title>
<g id="a_node4"><a xlink:href="force__sum_8f95.html#a757e2ccbe362bf3b01a51e2c0431a490" target="_top" xlink:title=" ">
<polygon fill="white" stroke="red" points="179,-316.5 179,-335.5 241,-335.5 241,-316.5 179,-316.5"/>
<text text-anchor="middle" x="210" y="-323.5" font-family="Helvetica,sans-Serif" font-size="10.00">force_sum</text>
</a>
</g>
</g>
<!-- Node2&#45;&gt;Node6 -->
<g id="edge3" class="edge">
<title>Node2&#45;&gt;Node6</title>
<path fill="none" stroke="midnightblue" d="M326.06,-326C300.5,-326 265.79,-326 241.19,-326"/>
<polygon fill="midnightblue" stroke="midnightblue" points="326.39,-329.5 336.39,-326 326.39,-322.5 326.39,-329.5"/>
</g>
<!-- Node15 -->
<g id="node5" class="node">
<title>Node15</title>
<g id="a_node5"><a xlink:href="namespacem__pd__force.html#a942ea044856d62ee03ee7623436bc97e" target="_top" xlink:title=" ">
<polygon fill="white" stroke="red" points="155,-278.5 155,-297.5 265,-297.5 265,-278.5 155,-278.5"/>
<text text-anchor="middle" x="210" y="-285.5" font-family="Helvetica,sans-Serif" font-size="10.00">m_pd_force::pd_force</text>
</a>
</g>
</g>
<!-- Node2&#45;&gt;Node15 -->
<g id="edge4" class="edge">
<title>Node2&#45;&gt;Node15</title>
<path fill="none" stroke="midnightblue" d="M326.65,-317.49C303.44,-311.58 272.48,-303.68 248.43,-297.55"/>
<polygon fill="midnightblue" stroke="midnightblue" points="325.84,-320.9 336.39,-319.98 327.57,-314.12 325.84,-320.9"/>
</g>
<!-- Node20 -->
<g id="node8" class="node">
<title>Node20</title>
<g id="a_node8"><a xlink:href="prm__pseudobs_8f95.html#a9102cbfe661c31c134e733af690febc2" target="_top" xlink:title=" ">
<polygon fill="white" stroke="black" points="170,-240.5 170,-259.5 250,-259.5 250,-240.5 170,-240.5"/>
<text text-anchor="middle" x="210" y="-247.5" font-family="Helvetica,sans-Serif" font-size="10.00">prm_pseudobs</text>
</a>
</g>
</g>
<!-- Node19&#45;&gt;Node20 -->
<g id="edge7" class="edge">
<title>Node19&#45;&gt;Node20</title>
<path fill="none" stroke="midnightblue" d="M290.6,-250C276.65,-250 262.47,-250 250.01,-250"/>
<polygon fill="midnightblue" stroke="midnightblue" points="290.68,-253.5 300.68,-250 290.68,-246.5 290.68,-253.5"/>
</g>
<!-- Node10 -->
<g id="node9" class="node">
<title>Node10</title>
<g id="a_node9"><a xlink:href="namespacem__orbdet.html#a49487178b457ba359e3528454fee1a43" target="_top" xlink:title=" ">
<polygon fill="white" stroke="red" points="15,-116.5 15,-135.5 104,-135.5 104,-116.5 15,-116.5"/>
<text text-anchor="middle" x="59.5" y="-123.5" font-family="Helvetica,sans-Serif" font-size="10.00">m_orbdet::orbdet</text>
</a>
</g>
</g>
<!-- Node20&#45;&gt;Node10 -->
<g id="edge8" class="edge">
<title>Node20&#45;&gt;Node10</title>
<path fill="none" stroke="midnightblue" d="M161.38,-235.66C159.12,-234.25 156.98,-232.7 155,-231 129.32,-209.02 141.89,-188.87 119,-164 108.01,-152.06 92.5,-142.21 80.21,-135.53"/>
<polygon fill="midnightblue" stroke="midnightblue" points="160,-238.89 170.47,-240.46 163.27,-232.7 160,-238.89"/>
</g>
<!-- Node12 -->
<g id="node10" class="node">
<title>Node12</title>
<g id="a_node10"><a xlink:href="namespacem__pod__gnss.html#acc5f9a213cb0b59b5e4d35e4d0ebdc72" target="_top" xlink:title=" ">
<polygon fill="white" stroke="black" points="0,-173.5 0,-192.5 119,-192.5 119,-173.5 0,-173.5"/>
<text text-anchor="middle" x="59.5" y="-180.5" font-family="Helvetica,sans-Serif" font-size="10.00">m_pod_gnss::pod_gnss</text>
</a>
</g>
</g>
<!-- Node20&#45;&gt;Node12 -->
<g id="edge9" class="edge">
<title>Node20&#45;&gt;Node12</title>
<path fill="none" stroke="midnightblue" d="M169.95,-236.95C164.88,-235.05 159.79,-233.05 155,-231 127.25,-219.13 96.27,-202.77 77.59,-192.54"/>
<polygon fill="midnightblue" stroke="midnightblue" points="168.99,-240.32 179.58,-240.44 171.37,-233.74 168.99,-240.32"/>
</g>
<!-- Node21&#45;&gt;Node10 -->
<g id="edge11" class="edge">
<title>Node21&#45;&gt;Node10</title>
<path fill="none" stroke="midnightblue" d="M306.41,-165.41C248.61,-156.15 157.69,-141.58 104.1,-132.99"/>
<polygon fill="midnightblue" stroke="midnightblue" points="306.02,-168.89 316.45,-167.02 307.13,-161.98 306.02,-168.89"/>
</g>
<!-- Node22 -->
<g id="node12" class="node">
<title>Node22</title>
<g id="a_node12"><a xlink:href="prm__orbext_8f95.html#a22ef50da05110c9316a9e9a935fe47a2" target="_top" xlink:title=" ">
<polygon fill="white" stroke="red" points="177.5,-202.5 177.5,-221.5 242.5,-221.5 242.5,-202.5 177.5,-202.5"/>
<text text-anchor="middle" x="210" y="-209.5" font-family="Helvetica,sans-Serif" font-size="10.00">prm_orbext</text>
</a>
</g>
</g>
<!-- Node21&#45;&gt;Node22 -->
<g id="edge12" class="edge">
<title>Node21&#45;&gt;Node22</title>
<path fill="none" stroke="midnightblue" d="M312.54,-186.1C289.67,-191.94 262.87,-198.77 242.54,-203.96"/>
<polygon fill="midnightblue" stroke="midnightblue" points="313.58,-189.45 322.4,-183.59 311.85,-182.67 313.58,-189.45"/>
</g>
<!-- Node25&#45;&gt;Node20 -->
<g id="edge15" class="edge">
<title>Node25&#45;&gt;Node20</title>
<path fill="none" stroke="midnightblue" d="M312.51,-224.11C291.76,-229.4 267.77,-235.52 248.33,-240.48"/>
<polygon fill="midnightblue" stroke="midnightblue" points="313.58,-227.45 322.4,-221.59 311.85,-220.67 313.58,-227.45"/>
</g>
<!-- Node25&#45;&gt;Node22 -->
<g id="edge14" class="edge">
<title>Node25&#45;&gt;Node22</title>
<path fill="none" stroke="midnightblue" d="M305.92,-212C284.72,-212 261.13,-212 242.77,-212"/>
<polygon fill="midnightblue" stroke="midnightblue" points="306.1,-215.5 316.1,-212 306.1,-208.5 306.1,-215.5"/>
</g>
<!-- Node26&#45;&gt;Node10 -->
<g id="edge17" class="edge">
<title>Node26&#45;&gt;Node10</title>
<path fill="none" stroke="midnightblue" d="M321.09,-101.64C265.24,-106.86 162.66,-116.45 104.25,-121.91"/>
<polygon fill="midnightblue" stroke="midnightblue" points="321.65,-105.1 331.28,-100.68 321,-98.13 321.65,-105.1"/>
</g>
<!-- Node26&#45;&gt;Node12 -->
<g id="edge20" class="edge">
<title>Node26&#45;&gt;Node12</title>
<path fill="none" stroke="midnightblue" d="M321.6,-109.46C304.32,-114.58 283.65,-120.65 265,-126 205.48,-143.07 136.01,-162.28 95.28,-173.47"/>
<polygon fill="midnightblue" stroke="midnightblue" points="322.76,-112.77 331.35,-106.56 320.76,-106.06 322.76,-112.77"/>
</g>
<!-- Node9 -->
<g id="node15" class="node">
<title>Node9</title>
<g id="a_node15"><a xlink:href="namespacem__orbinteg.html#a5b2517e1f60f866948f18b9723198cff" target="_top" xlink:title=" ">
<polygon fill="white" stroke="black" points="158,-0.5 158,-19.5 262,-19.5 262,-0.5 158,-0.5"/>
<text text-anchor="middle" x="210" y="-7.5" font-family="Helvetica,sans-Serif" font-size="10.00">m_orbinteg::orbinteg</text>
</a>
</g>
</g>
<!-- Node26&#45;&gt;Node9 -->
<g id="edge18" class="edge">
<title>Node26&#45;&gt;Node9</title>
<path fill="none" stroke="midnightblue" d="M341.12,-81.73C322.69,-66.49 293.36,-43.88 265,-29 258.14,-25.4 250.44,-22.23 243.06,-19.56"/>
<polygon fill="midnightblue" stroke="midnightblue" points="339.1,-84.6 349.01,-88.36 343.61,-79.25 339.1,-84.6"/>
</g>
<!-- Node27 -->
<g id="node16" class="node">
<title>Node27</title>
<g id="a_node16"><a xlink:href="namespacem__writeorbit__multi.html#a417e83d6d78aea1b32e8b66b2a8efde0" target="_top" xlink:title=" ">
<polygon fill="white" stroke="black" points="162,-39 162,-69 258,-69 258,-39 162,-39"/>
<text text-anchor="start" x="170" y="-57" font-family="Helvetica,sans-Serif" font-size="10.00">m_writeorbit_multi</text>
<text text-anchor="middle" x="210" y="-46" font-family="Helvetica,sans-Serif" font-size="10.00">::writeorbit_multi</text>
</a>
</g>
</g>
<!-- Node26&#45;&gt;Node27 -->
<g id="edge21" class="edge">
<title>Node26&#45;&gt;Node27</title>
<path fill="none" stroke="midnightblue" d="M321.57,-86.65C302.21,-80.93 278.56,-73.95 258.11,-67.91"/>
<polygon fill="midnightblue" stroke="midnightblue" points="320.69,-90.04 331.27,-89.52 322.67,-83.33 320.69,-90.04"/>
</g>
<!-- Node9&#45;&gt;Node10 -->
<g id="edge19" class="edge">
<title>Node9&#45;&gt;Node10</title>
<path fill="none" stroke="midnightblue" d="M164.91,-23.55C161.46,-25.2 158.11,-27.01 155,-29 116.36,-53.68 81.76,-97.04 67.46,-116.31"/>
<polygon fill="midnightblue" stroke="midnightblue" points="166.37,-26.74 174.19,-19.58 163.62,-20.3 166.37,-26.74"/>
</g>
</g>
</svg>
        <g id="navigator" transform="translate(0 0)" fill="#404254">
                <rect fill="#f2f5e9" fill-opacity="0.5" stroke="#606060" stroke-width=".5" x="0" y="0" width="60" height="60"/>
                <use id="zoomplus" xlink:href="#zoomPlus" x="17" y="9" onmousedown="handleZoom(evt,'in')"/>
                <use id="zoomminus" xlink:href="#zoomMin" x="42" y="9" onmousedown="handleZoom(evt,'out')"/>
                <use id="reset" xlink:href="#resetDef" x="30" y="36" onmousedown="handleReset()"/>
                <g id="arrowUp" xlink:href="#dirArrow" transform="translate(30 24)" onmousedown="handlePan(0,-1)">
                  <use xlink:href="#rim" fill="#404040">
                        <set attributeName="fill" to="#808080" begin="arrowUp.mouseover" end="arrowUp.mouseout"/>
                  </use>
                  <path fill="none" stroke="white" stroke-width="1.5" d="M0,-3.0v7 M-2.5,-0.5L0,-3.0L2.5,-0.5"/>
                </g>
                <g id="arrowRight" xlink:href="#dirArrow" transform="rotate(90) translate(36 -43)" onmousedown="handlePan(1,0)">
                  <use xlink:href="#rim" fill="#404040">
                        <set attributeName="fill" to="#808080" begin="arrowRight.mouseover" end="arrowRight.mouseout"/>
                  </use>
                  <path fill="none" stroke="white" stroke-width="1.5" d="M0,-3.0v7 M-2.5,-0.5L0,-3.0L2.5,-0.5"/>
                </g>
                <g id="arrowDown" xlink:href="#dirArrow" transform="rotate(180) translate(-30 -48)" onmousedown="handlePan(0,1)">
                  <use xlink:href="#rim" fill="#404040">
                        <set attributeName="fill" to="#808080" begin="arrowDown.mouseover" end="arrowDown.mouseout"/>
                  </use>
                  <path fill="none" stroke="white" stroke-width="1.5" d="M0,-3.0v7 M-2.5,-0.5L0,-3.0L2.5,-0.5"/>
                </g>
                <g id="arrowLeft" xlink:href="#dirArrow" transform="rotate(270) translate(-36 17)" onmousedown="handlePan(-1,0)">
                  <use xlink:href="#rim" fill="#404040">
                        <set attributeName="fill" to="#808080" begin="arrowLeft.mouseover" end="arrowLeft.mouseout"/>
                  </use>
                  <path fill="none" stroke="white" stroke-width="1.5" d="M0,-3.0v7 M-2.5,-0.5L0,-3.0L2.5,-0.5"/>
                </g>
        </g>
        <svg viewBox="0 0 15 15" width="100%" height="30px" preserveAspectRatio="xMaxYMin meet">
         <g id="arrow_out" transform="scale(0.3 0.3)">
          <a xlink:href="time__UTC_8f90_a5c5b31c8678ff9da6694a16d7bb9387f_icgraph_org.svg" target="_base">
           <rect id="button" ry="5" rx="5" y="6" x="6" height="38" width="38"
                fill="#f2f5e9" fill-opacity="0.5" stroke="#606060" stroke-width="1.0"/>
           <path id="arrow"
             d="M 11.500037,31.436501 C 11.940474,20.09759 22.043105,11.32322 32.158766,21.979434 L 37.068811,17.246167 C 37.068811,17.246167 37.088388,32 37.088388,32 L 22.160133,31.978069 C 22.160133,31.978069 26.997745,27.140456 26.997745,27.140456 C 18.528582,18.264221 13.291696,25.230495 11.500037,31.436501 z"
             style="fill:#404040;"/>
          </a>
         </g>
        </svg>
</svg>
