<?xml version="1.0" encoding="UTF-8" standalone="no"?>
<!DOCTYPE svg PUBLIC "-//W3C//DTD SVG 1.1//EN"
 "http://www.w3.org/Graphics/SVG/1.1/DTD/svg11.dtd">
<!-- Generated by graphviz version 2.50.0 (20220203.2022)
 -->
<!-- Title: time_gpsweek Pages: 1 -->
<svg width="325pt" height="154pt"
 viewBox="0.00 0.00 325.00 154.00" xmlns="http://www.w3.org/2000/svg" xmlns:xlink="http://www.w3.org/1999/xlink">
<g id="graph0" class="graph" transform="scale(1 1) rotate(0) translate(4 150)">
<title>time_gpsweek</title>
<polygon fill="white" stroke="transparent" points="-4,4 -4,-150 321,-150 321,4 -4,4"/>
<!-- Node1 -->
<g id="node1" class="node">
<title>Node1</title>
<g id="a_node1"><a xlink:title=" ">
<polygon fill="#bfbfbf" stroke="black" points="237,-66.5 237,-85.5 317,-85.5 317,-66.5 237,-66.5"/>
<text text-anchor="middle" x="277" y="-73.5" font-family="Helvetica,sans-Serif" font-size="10.00">time_gpsweek</text>
</a>
</g>
</g>
<!-- Node2 -->
<g id="node2" class="node">
<title>Node2</title>
<g id="a_node2"><a xlink:href="main__brdcorbit_8f90.html#a34cbfb6f2004478de868a894a67a8b30" target="_top" xlink:title=" ">
<polygon fill="white" stroke="black" points="103,-126.5 103,-145.5 183,-145.5 183,-126.5 103,-126.5"/>
<text text-anchor="middle" x="143" y="-133.5" font-family="Helvetica,sans-Serif" font-size="10.00">main_brdcorbit</text>
</a>
</g>
</g>
<!-- Node1&#45;&gt;Node2 -->
<g id="edge1" class="edge">
<title>Node1&#45;&gt;Node2</title>
<path fill="none" stroke="midnightblue" d="M251.55,-90.81C237.15,-99.17 218.41,-109.41 201,-117 193.06,-120.46 184.28,-123.67 176.04,-126.44"/>
<polygon fill="midnightblue" stroke="midnightblue" points="253.48,-93.74 260.32,-85.65 249.93,-87.71 253.48,-93.74"/>
</g>
<!-- Node3 -->
<g id="node3" class="node">
<title>Node3</title>
<g id="a_node3"><a xlink:href="main__time_8f95.html#a79aac165f1718562f0dc60b59453ca28" target="_top" xlink:title=" ">
<polygon fill="white" stroke="black" points="112,-88.5 112,-107.5 174,-107.5 174,-88.5 112,-88.5"/>
<text text-anchor="middle" x="143" y="-95.5" font-family="Helvetica,sans-Serif" font-size="10.00">main_time</text>
</a>
</g>
</g>
<!-- Node1&#45;&gt;Node3 -->
<g id="edge2" class="edge">
<title>Node1&#45;&gt;Node3</title>
<path fill="none" stroke="midnightblue" d="M226.6,-84.23C208.95,-87.17 189.61,-90.4 174.08,-92.99"/>
<polygon fill="midnightblue" stroke="midnightblue" points="227.46,-87.64 236.75,-82.54 226.31,-80.73 227.46,-87.64"/>
</g>
<!-- Node4 -->
<g id="node4" class="node">
<title>Node4</title>
<g id="a_node4"><a xlink:href="namespacem__write__brd2sp3.html#a5adb8727ccffcfec42cfea1ffb31dc61" target="_top" xlink:title=" ">
<polygon fill="white" stroke="black" points="85,-39 85,-69 201,-69 201,-39 85,-39"/>
<text text-anchor="start" x="93" y="-57" font-family="Helvetica,sans-Serif" font-size="10.00">m_write_brd2sp3::write</text>
<text text-anchor="middle" x="143" y="-46" font-family="Helvetica,sans-Serif" font-size="10.00">_brd2sp3</text>
</a>
</g>
</g>
<!-- Node1&#45;&gt;Node4 -->
<g id="edge3" class="edge">
<title>Node1&#45;&gt;Node4</title>
<path fill="none" stroke="midnightblue" d="M226.87,-67.81C218.57,-66.43 209.9,-64.98 201.42,-63.57"/>
<polygon fill="midnightblue" stroke="midnightblue" points="226.31,-71.27 236.75,-69.46 227.46,-64.36 226.31,-71.27"/>
</g>
<!-- Node5 -->
<g id="node5" class="node">
<title>Node5</title>
<g id="a_node5"><a xlink:href="yaw__attitude_8f90.html#a2a7b2be081a9bc47101a253d8a94b7e3" target="_top" xlink:title=" ">
<polygon fill="white" stroke="black" points="107.5,-0.5 107.5,-19.5 178.5,-19.5 178.5,-0.5 107.5,-0.5"/>
<text text-anchor="middle" x="143" y="-7.5" font-family="Helvetica,sans-Serif" font-size="10.00">yaw_attitude</text>
</a>
</g>
</g>
<!-- Node1&#45;&gt;Node5 -->
<g id="edge4" class="edge">
<title>Node1&#45;&gt;Node5</title>
<path fill="none" stroke="midnightblue" d="M254.05,-60.82C239.46,-51.16 219.62,-38.85 201,-30 192.76,-26.08 183.54,-22.52 174.95,-19.52"/>
<polygon fill="midnightblue" stroke="midnightblue" points="252.15,-63.76 262.4,-66.43 256.05,-57.95 252.15,-63.76"/>
</g>
<!-- Node6 -->
<g id="node6" class="node">
<title>Node6</title>
<g id="a_node6"><a xlink:href="attitude_8f95.html#a8ee7764bdfc5e3bea9130e1ca999cb6d" target="_top" xlink:title=" ">
<polygon fill="white" stroke="red" points="0,-0.5 0,-19.5 49,-19.5 49,-0.5 0,-0.5"/>
<text text-anchor="middle" x="24.5" y="-7.5" font-family="Helvetica,sans-Serif" font-size="10.00">attitude</text>
</a>
</g>
</g>
<!-- Node5&#45;&gt;Node6 -->
<g id="edge5" class="edge">
<title>Node5&#45;&gt;Node6</title>
<path fill="none" stroke="midnightblue" d="M96.91,-10C80.61,-10 62.85,-10 49.12,-10"/>
<polygon fill="midnightblue" stroke="midnightblue" points="97.36,-13.5 107.36,-10 97.36,-6.5 97.36,-13.5"/>
</g>
</g>
</svg>
