<?xml version="1.0" encoding="UTF-8" standalone="no"?>
<!DOCTYPE svg PUBLIC "-//W3C//DTD SVG 1.1//EN"
 "http://www.w3.org/Graphics/SVG/1.1/DTD/svg11.dtd">
<!-- Generated by graphviz version 2.50.0 (20220203.2022)
 -->
<!-- Title: tropztd Pages: 1 -->
<svg width="258pt" height="218pt"
 viewBox="0.00 0.00 258.00 218.00" xmlns="http://www.w3.org/2000/svg" xmlns:xlink="http://www.w3.org/1999/xlink">
<g id="graph0" class="graph" transform="scale(1 1) rotate(0) translate(4 214)">
<title>tropztd</title>
<polygon fill="white" stroke="transparent" points="-4,4 -4,-214 254,-214 254,4 -4,4"/>
<!-- Node1 -->
<g id="node1" class="node">
<title>Node1</title>
<g id="a_node1"><a xlink:title="Troposphere zenith hydrastatic delay and mapping function.">
<polygon fill="#bfbfbf" stroke="black" points="0,-76.5 0,-95.5 46,-95.5 46,-76.5 0,-76.5"/>
<text text-anchor="middle" x="23" y="-83.5" font-family="Helvetica,sans-Serif" font-size="10.00">tropztd</text>
</a>
</g>
</g>
<!-- Node2 -->
<g id="node2" class="node">
<title>Node2</title>
<g id="a_node2"><a xlink:href="trop_8cpp.html#a080102fd2b8058490e933925884c4001" target="_top" xlink:title=" ">
<polygon fill="white" stroke="black" points="90.5,-152.5 90.5,-171.5 125.5,-171.5 125.5,-152.5 90.5,-152.5"/>
<text text-anchor="middle" x="108" y="-159.5" font-family="Helvetica,sans-Serif" font-size="10.00">gpt2</text>
</a>
</g>
</g>
<!-- Node1&#45;&gt;Node2 -->
<g id="edge1" class="edge">
<title>Node1&#45;&gt;Node2</title>
<path fill="none" stroke="midnightblue" d="M34.51,-95.63C48.23,-108.19 72.45,-130.37 89.09,-145.6"/>
<polygon fill="midnightblue" stroke="midnightblue" points="86.83,-148.28 96.57,-152.45 91.56,-143.12 86.83,-148.28"/>
</g>
<!-- Node6 -->
<g id="node6" class="node">
<title>Node6</title>
<g id="a_node6"><a xlink:href="namespacepod__yaml.html#a59ea539cabb34ef7985e7e57c4b9dd93" target="_top" xlink:title=" ">
<polygon fill="white" stroke="black" points="170,-48.5 170,-67.5 250,-67.5 250,-48.5 170,-48.5"/>
<text text-anchor="middle" x="210" y="-55.5" font-family="Helvetica,sans-Serif" font-size="10.00">pod_yaml::pow</text>
</a>
</g>
</g>
<!-- Node1&#45;&gt;Node6 -->
<g id="edge5" class="edge">
<title>Node1&#45;&gt;Node6</title>
<path fill="none" stroke="midnightblue" d="M46.23,-95.63C68.68,-104 104.2,-113.57 134,-105 155.04,-98.95 175.88,-85.09 190.24,-73.97"/>
<polygon fill="midnightblue" stroke="midnightblue" points="192.68,-76.5 198.28,-67.5 188.29,-71.04 192.68,-76.5"/>
</g>
<!-- Node7 -->
<g id="node7" class="node">
<title>Node7</title>
<g id="a_node7"><a xlink:href="trop_8cpp.html#a3ec23c264e23b22ea9d8f2439b7de380" target="_top" xlink:title=" ">
<polygon fill="white" stroke="black" points="82,-76.5 82,-95.5 134,-95.5 134,-76.5 82,-76.5"/>
<text text-anchor="middle" x="108" y="-83.5" font-family="Helvetica,sans-Serif" font-size="10.00">readvmf</text>
</a>
</g>
</g>
<!-- Node1&#45;&gt;Node7 -->
<g id="edge7" class="edge">
<title>Node1&#45;&gt;Node7</title>
<path fill="none" stroke="midnightblue" d="M46.24,-86C54.03,-86 62.97,-86 71.56,-86"/>
<polygon fill="midnightblue" stroke="midnightblue" points="71.76,-89.5 81.76,-86 71.76,-82.5 71.76,-89.5"/>
</g>
<!-- Node8 -->
<g id="node8" class="node">
<title>Node8</title>
<g id="a_node8"><a xlink:href="trop_8cpp.html#ae4229abd9d22264906d0fa858d632c73" target="_top" xlink:title="emipirical troposphere mapping function">
<polygon fill="white" stroke="black" points="82,-38.5 82,-57.5 134,-57.5 134,-38.5 82,-38.5"/>
<text text-anchor="middle" x="108" y="-45.5" font-family="Helvetica,sans-Serif" font-size="10.00">tropemp</text>
</a>
</g>
</g>
<!-- Node1&#45;&gt;Node8 -->
<g id="edge8" class="edge">
<title>Node1&#45;&gt;Node8</title>
<path fill="none" stroke="midnightblue" d="M44.94,-76.41C54.58,-72 66.19,-66.69 76.75,-61.85"/>
<polygon fill="midnightblue" stroke="midnightblue" points="78.43,-64.93 86.06,-57.59 75.51,-58.57 78.43,-64.93"/>
</g>
<!-- Node9 -->
<g id="node9" class="node">
<title>Node9</title>
<g id="a_node9"><a xlink:href="trop_8cpp.html#a8121dc5b0ed653a5a5b5f1cf903ac6f4" target="_top" xlink:title="vienna mapping function.">
<polygon fill="white" stroke="black" points="89,-0.5 89,-19.5 127,-19.5 127,-0.5 89,-0.5"/>
<text text-anchor="middle" x="108" y="-7.5" font-family="Helvetica,sans-Serif" font-size="10.00">vmf1</text>
</a>
</g>
</g>
<!-- Node1&#45;&gt;Node9 -->
<g id="edge10" class="edge">
<title>Node1&#45;&gt;Node9</title>
<path fill="none" stroke="midnightblue" d="M33.09,-76.34C44.23,-64.69 63.85,-44.7 82,-29 83.16,-28 84.37,-26.98 85.6,-25.98"/>
<polygon fill="midnightblue" stroke="midnightblue" points="88.07,-28.48 93.78,-19.56 83.75,-22.98 88.07,-28.48"/>
</g>
<!-- Node3 -->
<g id="node3" class="node">
<title>Node3</title>
<g id="a_node3"><a xlink:href="trop_8cpp.html#aee11659ecea14ca59feae2dbe9f160d5" target="_top" xlink:title="coefficients multiplication">
<polygon fill="white" stroke="black" points="192.5,-190.5 192.5,-209.5 227.5,-209.5 227.5,-190.5 192.5,-190.5"/>
<text text-anchor="middle" x="210" y="-197.5" font-family="Helvetica,sans-Serif" font-size="10.00">coef</text>
</a>
</g>
</g>
<!-- Node2&#45;&gt;Node3 -->
<g id="edge2" class="edge">
<title>Node2&#45;&gt;Node3</title>
<path fill="none" stroke="midnightblue" d="M125.51,-168.27C141.15,-174.22 164.86,-183.23 183.03,-190.13"/>
<polygon fill="midnightblue" stroke="midnightblue" points="181.87,-193.44 192.46,-193.72 184.36,-186.89 181.87,-193.44"/>
</g>
<!-- Node4 -->
<g id="node4" class="node">
<title>Node4</title>
<g id="a_node4"><a xlink:href="trop_8cpp.html#abe1185b4bd27367f22b4a393f1932d23" target="_top" xlink:title=" ">
<polygon fill="white" stroke="black" points="191,-152.5 191,-171.5 229,-171.5 229,-152.5 191,-152.5"/>
<text text-anchor="middle" x="210" y="-159.5" font-family="Helvetica,sans-Serif" font-size="10.00">coefr</text>
</a>
</g>
</g>
<!-- Node2&#45;&gt;Node4 -->
<g id="edge3" class="edge">
<title>Node2&#45;&gt;Node4</title>
<path fill="none" stroke="midnightblue" d="M125.51,-162C140.47,-162 162.82,-162 180.63,-162"/>
<polygon fill="midnightblue" stroke="midnightblue" points="180.77,-165.5 190.77,-162 180.77,-158.5 180.77,-165.5"/>
</g>
<!-- Node5 -->
<g id="node5" class="node">
<title>Node5</title>
<g id="a_node5"><a xlink:href="trop_8cpp.html#a09f11d2057b22449a395bd4f02513a61" target="_top" xlink:title=" ">
<polygon fill="white" stroke="black" points="192.5,-114.5 192.5,-133.5 227.5,-133.5 227.5,-114.5 192.5,-114.5"/>
<text text-anchor="middle" x="210" y="-121.5" font-family="Helvetica,sans-Serif" font-size="10.00">sign</text>
</a>
</g>
</g>
<!-- Node2&#45;&gt;Node5 -->
<g id="edge4" class="edge">
<title>Node2&#45;&gt;Node5</title>
<path fill="none" stroke="midnightblue" d="M125.51,-155.73C141.15,-149.78 164.86,-140.77 183.03,-133.87"/>
<polygon fill="midnightblue" stroke="midnightblue" points="184.36,-137.11 192.46,-130.28 181.87,-130.56 184.36,-137.11"/>
</g>
<!-- Node6&#45;&gt;Node6 -->
<g id="edge6" class="edge">
<title>Node6&#45;&gt;Node6</title>
<path fill="none" stroke="midnightblue" d="M194.28,-67.76C186.63,-76.57 191.87,-86 210,-86 221.33,-86 227.63,-82.31 228.89,-77.4"/>
<polygon fill="midnightblue" stroke="midnightblue" points="232.17,-76.17 225.72,-67.76 225.52,-78.35 232.17,-76.17"/>
</g>
<!-- Node8&#45;&gt;Node6 -->
<g id="edge9" class="edge">
<title>Node8&#45;&gt;Node6</title>
<path fill="none" stroke="midnightblue" d="M134.23,-50.52C141.97,-51.3 150.76,-52.18 159.53,-53.05"/>
<polygon fill="midnightblue" stroke="midnightblue" points="159.46,-56.56 169.76,-54.08 160.15,-49.6 159.46,-56.56"/>
</g>
</g>
</svg>
