<?xml version="1.0" encoding="UTF-8" standalone="no"?>
<!DOCTYPE svg PUBLIC "-//W3C//DTD SVG 1.1//EN"
 "http://www.w3.org/Graphics/SVG/1.1/DTD/svg11.dtd">
<!-- Generated by graphviz version 2.50.0 (20220203.2022)
 -->
<!-- Title: setTropHeaderData Pages: 1 -->
<svg width="253pt" height="104pt"
 viewBox="0.00 0.00 253.00 104.00" xmlns="http://www.w3.org/2000/svg" xmlns:xlink="http://www.w3.org/1999/xlink">
<g id="graph0" class="graph" transform="scale(1 1) rotate(0) translate(4 100)">
<title>setTropHeaderData</title>
<polygon fill="white" stroke="transparent" points="-4,4 -4,-100 249,-100 249,4 -4,4"/>
<!-- Node1 -->
<g id="node1" class="node">
<title>Node1</title>
<g id="a_node1"><a xlink:title=" ">
<polygon fill="#bfbfbf" stroke="black" points="0,-38.5 0,-57.5 101,-57.5 101,-38.5 0,-38.5"/>
<text text-anchor="middle" x="50.5" y="-45.5" font-family="Helvetica,sans-Serif" font-size="10.00">setTropHeaderData</text>
</a>
</g>
</g>
<!-- Node2 -->
<g id="node2" class="node">
<title>Node2</title>
<g id="a_node2"><a xlink:href="gTime_8cpp.html#a42a98c9bc4ba5249c22e031840d672e0" target="_top" xlink:title=" ">
<polygon fill="white" stroke="black" points="159.5,-76.5 159.5,-95.5 222.5,-95.5 222.5,-76.5 159.5,-76.5"/>
<text text-anchor="middle" x="191" y="-83.5" font-family="Helvetica,sans-Serif" font-size="10.00">epoch2yds</text>
</a>
</g>
</g>
<!-- Node1&#45;&gt;Node2 -->
<g id="edge1" class="edge">
<title>Node1&#45;&gt;Node2</title>
<path fill="none" stroke="midnightblue" d="M86.45,-57.59C105.64,-62.86 129.54,-69.41 149.54,-74.9"/>
<polygon fill="midnightblue" stroke="midnightblue" points="148.74,-78.31 159.31,-77.58 150.59,-71.56 148.74,-78.31"/>
</g>
<!-- Node3 -->
<g id="node3" class="node">
<title>Node3</title>
<g id="a_node3"><a xlink:href="sinex_8cpp.html#a3a182eb82bc3e7885feba85677baea2b" target="_top" xlink:title=" ">
<polygon fill="white" stroke="black" points="137,-38.5 137,-57.5 245,-57.5 245,-38.5 137,-38.5"/>
<text text-anchor="middle" x="191" y="-45.5" font-family="Helvetica,sans-Serif" font-size="10.00">sinex_update_header</text>
</a>
</g>
</g>
<!-- Node1&#45;&gt;Node3 -->
<g id="edge2" class="edge">
<title>Node1&#45;&gt;Node3</title>
<path fill="none" stroke="midnightblue" d="M101.11,-48C109.48,-48 118.26,-48 126.92,-48"/>
<polygon fill="midnightblue" stroke="midnightblue" points="126.99,-51.5 136.99,-48 126.99,-44.5 126.99,-51.5"/>
</g>
<!-- Node4 -->
<g id="node4" class="node">
<title>Node4</title>
<g id="a_node4"><a xlink:href="gTime_8cpp.html#a7a747c44ca37f2ebe379fc4309d3cfba" target="_top" xlink:title=" ">
<polygon fill="white" stroke="black" points="157.5,-0.5 157.5,-19.5 224.5,-19.5 224.5,-0.5 157.5,-0.5"/>
<text text-anchor="middle" x="191" y="-7.5" font-family="Helvetica,sans-Serif" font-size="10.00">time2epoch</text>
</a>
</g>
</g>
<!-- Node1&#45;&gt;Node4 -->
<g id="edge3" class="edge">
<title>Node1&#45;&gt;Node4</title>
<path fill="none" stroke="midnightblue" d="M86.45,-38.41C105.01,-33.32 127.97,-27.02 147.55,-21.65"/>
<polygon fill="midnightblue" stroke="midnightblue" points="148.72,-24.95 157.44,-18.93 146.87,-18.2 148.72,-24.95"/>
</g>
</g>
</svg>
