<?xml version="1.0" encoding="UTF-8" standalone="no"?>
<!DOCTYPE svg PUBLIC "-//W3C//DTD SVG 1.1//EN"
 "http://www.w3.org/Graphics/SVG/1.1/DTD/svg11.dtd">
<!-- Generated by graphviz version 2.50.0 (20220203.2022)
 -->
<!-- Title: writeTropSinexToFile Pages: 1 -->
<svg width="424pt" height="78pt"
 viewBox="0.00 0.00 424.00 77.50" xmlns="http://www.w3.org/2000/svg" xmlns:xlink="http://www.w3.org/1999/xlink">
<g id="graph0" class="graph" transform="scale(1 1) rotate(0) translate(4 73.5)">
<title>writeTropSinexToFile</title>
<polygon fill="white" stroke="transparent" points="-4,4 -4,-73.5 420,-73.5 420,4 -4,4"/>
<!-- Node1 -->
<g id="node1" class="node">
<title>Node1</title>
<g id="a_node1"><a xlink:title="Write troposphere Sinex data to file.">
<polygon fill="#bfbfbf" stroke="black" points="308,-22.5 308,-41.5 416,-41.5 416,-22.5 308,-22.5"/>
<text text-anchor="middle" x="362" y="-29.5" font-family="Helvetica,sans-Serif" font-size="10.00">writeTropSinexToFile</text>
</a>
</g>
</g>
<!-- Node2 -->
<g id="node2" class="node">
<title>Node2</title>
<g id="a_node2"><a xlink:href="tropSinex_8cpp.html#a69a4f80dc077e096360a1451c0d28e39" target="_top" xlink:title="Export troposphere Sinex data.">
<polygon fill="white" stroke="black" points="185,-22.5 185,-41.5 272,-41.5 272,-22.5 185,-22.5"/>
<text text-anchor="middle" x="228.5" y="-29.5" font-family="Helvetica,sans-Serif" font-size="10.00">outputTropSinex</text>
</a>
</g>
</g>
<!-- Node1&#45;&gt;Node2 -->
<g id="edge1" class="edge">
<title>Node1&#45;&gt;Node2</title>
<path fill="none" stroke="midnightblue" d="M297.81,-32C289.17,-32 280.47,-32 272.3,-32"/>
<polygon fill="midnightblue" stroke="midnightblue" points="297.89,-35.5 307.89,-32 297.89,-28.5 297.89,-35.5"/>
</g>
<!-- Node3 -->
<g id="node3" class="node">
<title>Node3</title>
<g id="a_node3"><a xlink:href="main_8cpp.html#a052aae1f895ebdbdaf816f70d9287e78" target="_top" xlink:title=" ">
<polygon fill="white" stroke="red" points="0,-39 0,-69 149,-69 149,-39 0,-39"/>
<text text-anchor="start" x="8" y="-57" font-family="Helvetica,sans-Serif" font-size="10.00">mainPerEpochPostProcessing</text>
<text text-anchor="middle" x="74.5" y="-46" font-family="Helvetica,sans-Serif" font-size="10.00">AndOutputs</text>
</a>
</g>
</g>
<!-- Node2&#45;&gt;Node3 -->
<g id="edge2" class="edge">
<title>Node2&#45;&gt;Node3</title>
<path fill="none" stroke="midnightblue" d="M174.82,-39.63C166.48,-40.83 157.72,-42.1 149.01,-43.36"/>
<polygon fill="midnightblue" stroke="midnightblue" points="175.36,-43.08 184.76,-38.19 174.36,-36.16 175.36,-43.08"/>
</g>
<!-- Node5 -->
<g id="node4" class="node">
<title>Node5</title>
<g id="a_node4"><a xlink:href="rtsSmoothing_8cpp.html#a5578ecd05e227e9ffc9828e5c7ad287e" target="_top" xlink:title=" ">
<polygon fill="white" stroke="red" points="30.5,-0.5 30.5,-19.5 118.5,-19.5 118.5,-0.5 30.5,-0.5"/>
<text text-anchor="middle" x="74.5" y="-7.5" font-family="Helvetica,sans-Serif" font-size="10.00">postRTSActions</text>
</a>
</g>
</g>
<!-- Node2&#45;&gt;Node5 -->
<g id="edge3" class="edge">
<title>Node2&#45;&gt;Node5</title>
<path fill="none" stroke="midnightblue" d="M174.81,-24.37C156.5,-21.72 136.18,-18.78 118.71,-16.25"/>
<polygon fill="midnightblue" stroke="midnightblue" points="174.36,-27.84 184.76,-25.81 175.36,-20.92 174.36,-27.84"/>
</g>
</g>
</svg>
