<?xml version="1.0" encoding="UTF-8" standalone="no"?>
<!DOCTYPE svg PUBLIC "-//W3C//DTD SVG 1.1//EN"
 "http://www.w3.org/Graphics/SVG/1.1/DTD/svg11.dtd">
<!-- Generated by graphviz version 2.50.0 (20220203.2022)
 -->
<!-- Title: tropacs Pages: 1 -->
<svg width="311pt" height="104pt"
 viewBox="0.00 0.00 311.00 104.00" xmlns="http://www.w3.org/2000/svg" xmlns:xlink="http://www.w3.org/1999/xlink">
<g id="graph0" class="graph" transform="scale(1 1) rotate(0) translate(4 100)">
<title>tropacs</title>
<polygon fill="white" stroke="transparent" points="-4,4 -4,-100 307,-100 307,4 -4,4"/>
<!-- Node1 -->
<g id="node1" class="node">
<title>Node1</title>
<g id="a_node1"><a xlink:title="troposphere zhd for acs.">
<polygon fill="#bfbfbf" stroke="black" points="254,-57.5 254,-76.5 303,-76.5 303,-57.5 254,-57.5"/>
<text text-anchor="middle" x="278.5" y="-64.5" font-family="Helvetica,sans-Serif" font-size="10.00">tropacs</text>
</a>
</g>
</g>
<!-- Node2 -->
<g id="node2" class="node">
<title>Node2</title>
<g id="a_node2"><a xlink:href="tropSinex_8cpp.html#a46c251b82049d97d17fe992587395761" target="_top" xlink:title="Set troposphere solution data from filter.">
<polygon fill="white" stroke="black" points="105,-76.5 105,-95.5 218,-95.5 218,-76.5 105,-76.5"/>
<text text-anchor="middle" x="161.5" y="-83.5" font-family="Helvetica,sans-Serif" font-size="10.00">setTropSolsFromFilter</text>
</a>
</g>
</g>
<!-- Node1&#45;&gt;Node2 -->
<g id="edge1" class="edge">
<title>Node1&#45;&gt;Node2</title>
<path fill="none" stroke="midnightblue" d="M243.89,-72.55C235.85,-73.88 227.05,-75.33 218.31,-76.78"/>
<polygon fill="midnightblue" stroke="midnightblue" points="244.65,-75.97 253.95,-70.89 243.51,-69.07 244.65,-75.97"/>
</g>
<!-- Node12 -->
<g id="node4" class="node">
<title>Node12</title>
<g id="a_node4"><a xlink:href="ppp_8cpp.html#ac3b334c7b75e0dda650bd38b16a212f6" target="_top" xlink:title=" ">
<polygon fill="white" stroke="black" points="117,-38.5 117,-57.5 206,-57.5 206,-38.5 117,-38.5"/>
<text text-anchor="middle" x="161.5" y="-45.5" font-family="Helvetica,sans-Serif" font-size="10.00">trop_model_prec</text>
</a>
</g>
</g>
<!-- Node1&#45;&gt;Node12 -->
<g id="edge3" class="edge">
<title>Node1&#45;&gt;Node12</title>
<path fill="none" stroke="midnightblue" d="M244.01,-61.47C232.14,-59.51 218.6,-57.27 206.01,-55.19"/>
<polygon fill="midnightblue" stroke="midnightblue" points="243.51,-64.93 253.95,-63.11 244.65,-58.03 243.51,-64.93"/>
</g>
<!-- Node3 -->
<g id="node3" class="node">
<title>Node3</title>
<g id="a_node3"><a xlink:href="tropSinex_8cpp.html#a4a465038c77f0160662676189ddd43f3" target="_top" xlink:title="Set troposphere solution data.">
<polygon fill="white" stroke="red" points="0,-76.5 0,-95.5 69,-95.5 69,-76.5 0,-76.5"/>
<text text-anchor="middle" x="34.5" y="-83.5" font-family="Helvetica,sans-Serif" font-size="10.00">setTropSols</text>
</a>
</g>
</g>
<!-- Node2&#45;&gt;Node3 -->
<g id="edge2" class="edge">
<title>Node2&#45;&gt;Node3</title>
<path fill="none" stroke="midnightblue" d="M94.85,-86C85.9,-86 77.04,-86 69.01,-86"/>
<polygon fill="midnightblue" stroke="midnightblue" points="94.95,-89.5 104.95,-86 94.95,-82.5 94.95,-89.5"/>
</g>
<!-- Node13 -->
<g id="node5" class="node">
<title>Node13</title>
<g id="a_node5"><a xlink:href="ppp__user_8cpp.html#a6840432dd58d1e58178b15080b92bdd8" target="_top" xlink:title=" ">
<polygon fill="white" stroke="red" points="6.5,-38.5 6.5,-57.5 62.5,-57.5 62.5,-38.5 6.5,-38.5"/>
<text text-anchor="middle" x="34.5" y="-45.5" font-family="Helvetica,sans-Serif" font-size="10.00">ppp_filter</text>
</a>
</g>
</g>
<!-- Node12&#45;&gt;Node13 -->
<g id="edge4" class="edge">
<title>Node12&#45;&gt;Node13</title>
<path fill="none" stroke="midnightblue" d="M106.45,-48C91.3,-48 75.47,-48 62.62,-48"/>
<polygon fill="midnightblue" stroke="midnightblue" points="106.78,-51.5 116.78,-48 106.78,-44.5 106.78,-51.5"/>
</g>
<!-- Node15 -->
<g id="node6" class="node">
<title>Node15</title>
<g id="a_node6"><a xlink:href="ppppp__obs_8cpp.html#a3db2ffced7ab37c4874c3a53fcb7953e" target="_top" xlink:title=" ">
<polygon fill="white" stroke="red" points="1.5,-0.5 1.5,-19.5 67.5,-19.5 67.5,-0.5 1.5,-0.5"/>
<text text-anchor="middle" x="34.5" y="-7.5" font-family="Helvetica,sans-Serif" font-size="10.00">stationPPP</text>
</a>
</g>
</g>
<!-- Node12&#45;&gt;Node15 -->
<g id="edge5" class="edge">
<title>Node12&#45;&gt;Node15</title>
<path fill="none" stroke="midnightblue" d="M119.27,-35.46C102.26,-30.3 82.87,-24.4 67.03,-19.59"/>
<polygon fill="midnightblue" stroke="midnightblue" points="118.37,-38.85 128.96,-38.41 120.41,-32.15 118.37,-38.85"/>
</g>
</g>
</svg>
