<?xml version="1.0" encoding="UTF-8" standalone="no"?>
<!DOCTYPE svg PUBLIC "-//W3C//DTD SVG 1.1//EN"
 "http://www.w3.org/Graphics/SVG/1.1/DTD/svg11.dtd">
<!-- Generated by graphviz version 2.50.0 (20220203.2022)
 -->
<!-- Title: /github/workspace/src/cpp/rtklib/trop.h Pages: 1 -->
<svg width="4141pt" height="396pt"
 viewBox="0.00 0.00 4141.00 396.00" xmlns="http://www.w3.org/2000/svg" xmlns:xlink="http://www.w3.org/1999/xlink">
<g id="graph0" class="graph" transform="scale(1 1) rotate(0) translate(4 392)">
<title>/github/workspace/src/cpp/rtklib/trop.h</title>
<polygon fill="white" stroke="transparent" points="-4,4 -4,-392 4137,-392 4137,4 -4,4"/>
<!-- Node1 -->
<g id="node1" class="node">
<title>Node1</title>
<g id="a_node1"><a xlink:title=" ">
<polygon fill="#bfbfbf" stroke="black" points="3758,-357.5 3758,-387.5 3871,-387.5 3871,-357.5 3758,-357.5"/>
<text text-anchor="start" x="3766" y="-375.5" font-family="Helvetica,sans-Serif" font-size="10.00">/github/workspace/src</text>
<text text-anchor="middle" x="3814.5" y="-364.5" font-family="Helvetica,sans-Serif" font-size="10.00">/cpp/rtklib/trop.h</text>
</a>
</g>
</g>
<!-- Node2 -->
<g id="node2" class="node">
<title>Node2</title>
<g id="a_node2"><a xlink:href="brdc2sp3__main__bck_8cpp.html" target="_top" xlink:title=" ">
<polygon fill="white" stroke="black" points="3467,-134.5 3467,-175.5 3588,-175.5 3588,-134.5 3467,-134.5"/>
<text text-anchor="start" x="3475" y="-163.5" font-family="Helvetica,sans-Serif" font-size="10.00">/github/workspace/src</text>
<text text-anchor="start" x="3475" y="-152.5" font-family="Helvetica,sans-Serif" font-size="10.00">/cpp/brdc2sp3/brdc2sp3</text>
<text text-anchor="middle" x="3527.5" y="-141.5" font-family="Helvetica,sans-Serif" font-size="10.00">_main_bck.cpp</text>
</a>
</g>
</g>
<!-- Node1&#45;&gt;Node2 -->
<g id="edge1" class="edge">
<title>Node1&#45;&gt;Node2</title>
<path fill="none" stroke="midnightblue" d="M3847.72,-352.02C3896.45,-321.1 3977.14,-259.42 3934.5,-212 3884,-155.83 3670.62,-190.57 3596.5,-176 3593.81,-175.47 3591.07,-174.88 3588.31,-174.26"/>
<polygon fill="midnightblue" stroke="midnightblue" points="3845.67,-349.17 3839.03,-357.43 3849.37,-355.12 3845.67,-349.17"/>
</g>
<!-- Node3 -->
<g id="node3" class="node">
<title>Node3</title>
<g id="a_node3"><a xlink:href="navigation_8hpp.html" target="_top" xlink:title=" ">
<polygon fill="white" stroke="black" points="1764,-290.5 1764,-320.5 1905,-320.5 1905,-290.5 1764,-290.5"/>
<text text-anchor="start" x="1772" y="-308.5" font-family="Helvetica,sans-Serif" font-size="10.00">/github/workspace/src</text>
<text text-anchor="middle" x="1834.5" y="-297.5" font-family="Helvetica,sans-Serif" font-size="10.00">/cpp/common/navigation.hpp</text>
</a>
</g>
</g>
<!-- Node1&#45;&gt;Node3 -->
<g id="edge2" class="edge">
<title>Node1&#45;&gt;Node3</title>
<path fill="none" stroke="midnightblue" d="M3747.57,-369.3C3445.96,-359.4 2214.4,-318.97 1905.19,-308.82"/>
<polygon fill="midnightblue" stroke="midnightblue" points="3747.8,-372.81 3757.91,-369.64 3748.03,-365.82 3747.8,-372.81"/>
</g>
<!-- Node15 -->
<g id="node6" class="node">
<title>Node15</title>
<g id="a_node6"><a xlink:href="main_8cpp.html" target="_top" xlink:title=" ">
<polygon fill="white" stroke="black" points="577,-0.5 577,-30.5 690,-30.5 690,-0.5 577,-0.5"/>
<text text-anchor="start" x="585" y="-18.5" font-family="Helvetica,sans-Serif" font-size="10.00">/github/workspace/src</text>
<text text-anchor="middle" x="633.5" y="-7.5" font-family="Helvetica,sans-Serif" font-size="10.00">/cpp/pea/main.cpp</text>
</a>
</g>
</g>
<!-- Node1&#45;&gt;Node15 -->
<g id="edge57" class="edge">
<title>Node1&#45;&gt;Node15</title>
<path fill="none" stroke="midnightblue" d="M3871.38,-353.92C3923.14,-333.97 3991.5,-295.91 3991.5,-234 3991.5,-234 3991.5,-234 3991.5,-154 3991.5,39.63 3317.78,-78.64 3124.5,-67 2628.1,-37.11 1013.81,-20.17 690.26,-17.03"/>
<polygon fill="midnightblue" stroke="midnightblue" points="3870.08,-350.67 3861.93,-357.44 3872.53,-357.23 3870.08,-350.67"/>
</g>
<!-- Node16 -->
<g id="node15" class="node">
<title>Node16</title>
<g id="a_node15"><a xlink:href="ppp_8cpp.html" target="_top" xlink:title="ppp.c : precise point positioning">
<polygon fill="white" stroke="black" points="2435,-140 2435,-170 2548,-170 2548,-140 2435,-140"/>
<text text-anchor="start" x="2443" y="-158" font-family="Helvetica,sans-Serif" font-size="10.00">/github/workspace/src</text>
<text text-anchor="middle" x="2491.5" y="-147" font-family="Helvetica,sans-Serif" font-size="10.00">/cpp/pea/ppp.cpp</text>
</a>
</g>
</g>
<!-- Node1&#45;&gt;Node16 -->
<g id="edge58" class="edge">
<title>Node1&#45;&gt;Node16</title>
<path fill="none" stroke="midnightblue" d="M3748.43,-354.87C3672.78,-334.87 3545.83,-298.39 3441.5,-254 3405.63,-238.74 3401.95,-222.84 3364.5,-212 3210.41,-167.41 2716.16,-158.28 2548.08,-156.45"/>
<polygon fill="midnightblue" stroke="midnightblue" points="3747.74,-358.3 3758.31,-357.46 3749.52,-351.53 3747.74,-358.3"/>
</g>
<!-- Node72 -->
<g id="node16" class="node">
<title>Node72</title>
<g id="a_node16"><a xlink:href="spp_8cpp.html" target="_top" xlink:title=" ">
<polygon fill="white" stroke="black" points="441,-140 441,-170 554,-170 554,-140 441,-140"/>
<text text-anchor="start" x="449" y="-158" font-family="Helvetica,sans-Serif" font-size="10.00">/github/workspace/src</text>
<text text-anchor="middle" x="497.5" y="-147" font-family="Helvetica,sans-Serif" font-size="10.00">/cpp/pea/spp.cpp</text>
</a>
</g>
</g>
<!-- Node1&#45;&gt;Node72 -->
<g id="edge61" class="edge">
<title>Node1&#45;&gt;Node72</title>
<path fill="none" stroke="midnightblue" d="M3747.65,-370.54C3490.2,-366.72 2538.14,-351.24 1754.5,-321 1471.65,-310.09 677.32,-459.35 482.5,-254 460.94,-231.27 477.62,-191.33 489.06,-170.14"/>
<polygon fill="midnightblue" stroke="midnightblue" points="3747.9,-374.05 3757.95,-370.7 3748.01,-367.05 3747.9,-374.05"/>
</g>
<!-- Node67 -->
<g id="node34" class="node">
<title>Node67</title>
<g id="a_node34"><a xlink:href="ppp__network_8cpp.html" target="_top" xlink:title=" ">
<polygon fill="white" stroke="black" points="3661,-218 3661,-248 3792,-248 3792,-218 3661,-218"/>
<text text-anchor="start" x="3669" y="-236" font-family="Helvetica,sans-Serif" font-size="10.00">/github/workspace/src</text>
<text text-anchor="middle" x="3726.5" y="-225" font-family="Helvetica,sans-Serif" font-size="10.00">/cpp/pea/ppp_network.cpp</text>
</a>
</g>
</g>
<!-- Node1&#45;&gt;Node67 -->
<g id="edge59" class="edge">
<title>Node1&#45;&gt;Node67</title>
<path fill="none" stroke="midnightblue" d="M3799.96,-348.79C3781.71,-320.26 3750.94,-272.19 3735.67,-248.33"/>
<polygon fill="midnightblue" stroke="midnightblue" points="3797.08,-350.77 3805.41,-357.3 3802.97,-346.99 3797.08,-350.77"/>
</g>
<!-- Node68 -->
<g id="node35" class="node">
<title>Node68</title>
<g id="a_node35"><a xlink:href="ppp__user_8cpp.html" target="_top" xlink:title=" ">
<polygon fill="white" stroke="black" points="3810,-218 3810,-248 3925,-248 3925,-218 3810,-218"/>
<text text-anchor="start" x="3818" y="-236" font-family="Helvetica,sans-Serif" font-size="10.00">/github/workspace/src</text>
<text text-anchor="middle" x="3867.5" y="-225" font-family="Helvetica,sans-Serif" font-size="10.00">/cpp/pea/ppp_user.cpp</text>
</a>
</g>
</g>
<!-- Node1&#45;&gt;Node68 -->
<g id="edge60" class="edge">
<title>Node1&#45;&gt;Node68</title>
<path fill="none" stroke="midnightblue" d="M3823.69,-347.66C3834.73,-319.02 3852.9,-271.88 3861.98,-248.33"/>
<polygon fill="midnightblue" stroke="midnightblue" points="3820.3,-346.71 3819.97,-357.3 3826.83,-349.23 3820.3,-346.71"/>
</g>
<!-- Node98 -->
<g id="node39" class="node">
<title>Node98</title>
<g id="a_node39"><a xlink:href="trop_8cpp.html" target="_top" xlink:title=" ">
<polygon fill="white" stroke="black" points="4020,-290.5 4020,-320.5 4133,-320.5 4133,-290.5 4020,-290.5"/>
<text text-anchor="start" x="4028" y="-308.5" font-family="Helvetica,sans-Serif" font-size="10.00">/github/workspace/src</text>
<text text-anchor="middle" x="4076.5" y="-297.5" font-family="Helvetica,sans-Serif" font-size="10.00">/cpp/rtklib/trop.cpp</text>
</a>
</g>
</g>
<!-- Node1&#45;&gt;Node98 -->
<g id="edge62" class="edge">
<title>Node1&#45;&gt;Node98</title>
<path fill="none" stroke="midnightblue" d="M3880.8,-355.05C3923.63,-344.43 3978.79,-330.74 4019.62,-320.61"/>
<polygon fill="midnightblue" stroke="midnightblue" points="3879.89,-351.67 3871.03,-357.48 3881.58,-358.47 3879.89,-351.67"/>
</g>
<!-- Node4 -->
<g id="node4" class="node">
<title>Node4</title>
<g id="a_node4"><a xlink:href="brdc2sp3__main_8cpp.html" target="_top" xlink:title=" ">
<polygon fill="white" stroke="black" points="555,-212.5 555,-253.5 676,-253.5 676,-212.5 555,-212.5"/>
<text text-anchor="start" x="563" y="-241.5" font-family="Helvetica,sans-Serif" font-size="10.00">/github/workspace/src</text>
<text text-anchor="start" x="563" y="-230.5" font-family="Helvetica,sans-Serif" font-size="10.00">/cpp/brdc2sp3/brdc2sp3</text>
<text text-anchor="middle" x="615.5" y="-219.5" font-family="Helvetica,sans-Serif" font-size="10.00">_main.cpp</text>
</a>
</g>
</g>
<!-- Node3&#45;&gt;Node4 -->
<g id="edge3" class="edge">
<title>Node3&#45;&gt;Node4</title>
<path fill="none" stroke="midnightblue" d="M1753.86,-303.21C1528.62,-299.24 895.88,-285.54 690.5,-254 685.84,-253.28 681.05,-252.39 676.25,-251.38"/>
<polygon fill="midnightblue" stroke="midnightblue" points="1753.9,-306.71 1763.96,-303.38 1754.02,-299.71 1753.9,-306.71"/>
</g>
<!-- Node5 -->
<g id="node5" class="node">
<title>Node5</title>
<g id="a_node5"><a xlink:href="acsQC_8hpp.html" target="_top" xlink:title=" ">
<polygon fill="white" stroke="red" points="0,-67.5 0,-97.5 127,-97.5 127,-67.5 0,-67.5"/>
<text text-anchor="start" x="8" y="-85.5" font-family="Helvetica,sans-Serif" font-size="10.00">/github/workspace/src</text>
<text text-anchor="middle" x="63.5" y="-74.5" font-family="Helvetica,sans-Serif" font-size="10.00">/cpp/common/acsQC.hpp</text>
</a>
</g>
</g>
<!-- Node3&#45;&gt;Node5 -->
<g id="edge4" class="edge">
<title>Node3&#45;&gt;Node5</title>
<path fill="none" stroke="midnightblue" d="M1753.54,-304.24C1428.22,-302.92 230.4,-295.27 161.5,-254 101.89,-218.3 75.13,-131.62 66.65,-97.57"/>
<polygon fill="midnightblue" stroke="midnightblue" points="1753.81,-307.74 1763.82,-304.28 1753.84,-300.74 1753.81,-307.74"/>
</g>
<!-- Node50 -->
<g id="node7" class="node">
<title>Node50</title>
<g id="a_node7"><a xlink:href="acsStream_8cpp.html" target="_top" xlink:title=" ">
<polygon fill="white" stroke="black" points="145.5,-67.5 145.5,-97.5 289.5,-97.5 289.5,-67.5 145.5,-67.5"/>
<text text-anchor="start" x="153.5" y="-85.5" font-family="Helvetica,sans-Serif" font-size="10.00">/github/workspace/src</text>
<text text-anchor="middle" x="217.5" y="-74.5" font-family="Helvetica,sans-Serif" font-size="10.00">/cpp/common/acsStream.cpp</text>
</a>
</g>
</g>
<!-- Node3&#45;&gt;Node50 -->
<g id="edge6" class="edge">
<title>Node3&#45;&gt;Node50</title>
<path fill="none" stroke="midnightblue" d="M1753.55,-303.54C1425.75,-299.45 213.09,-282.44 185.5,-254 148.37,-215.71 170.64,-185.22 185.5,-134 189.38,-120.64 197.96,-107.43 205.26,-97.88"/>
<polygon fill="midnightblue" stroke="midnightblue" points="1753.87,-307.04 1763.91,-303.67 1753.96,-300.04 1753.87,-307.04"/>
</g>
<!-- Node29 -->
<g id="node8" class="node">
<title>Node29</title>
<g id="a_node8"><a xlink:href="algebraTrace_8cpp.html" target="_top" xlink:title=" ">
<polygon fill="white" stroke="black" points="3257,-140 3257,-170 3410,-170 3410,-140 3257,-140"/>
<text text-anchor="start" x="3265" y="-158" font-family="Helvetica,sans-Serif" font-size="10.00">/github/workspace/src</text>
<text text-anchor="middle" x="3333.5" y="-147" font-family="Helvetica,sans-Serif" font-size="10.00">/cpp/common/algebraTrace.cpp</text>
</a>
</g>
</g>
<!-- Node3&#45;&gt;Node29 -->
<g id="edge7" class="edge">
<title>Node3&#45;&gt;Node29</title>
<path fill="none" stroke="midnightblue" d="M1915.3,-304.91C2223.93,-306.07 3313.76,-306.44 3364.5,-254 3386.96,-230.79 3362.16,-191.41 3345.71,-170.33"/>
<polygon fill="midnightblue" stroke="midnightblue" points="1915.1,-301.41 1905.08,-304.87 1915.07,-308.41 1915.1,-301.41"/>
</g>
<!-- Node30 -->
<g id="node9" class="node">
<title>Node30</title>
<g id="a_node9"><a xlink:href="algebraTrace_8hpp.html" target="_top" xlink:title=" ">
<polygon fill="white" stroke="red" points="3451,-218 3451,-248 3604,-248 3604,-218 3451,-218"/>
<text text-anchor="start" x="3459" y="-236" font-family="Helvetica,sans-Serif" font-size="10.00">/github/workspace/src</text>
<text text-anchor="middle" x="3527.5" y="-225" font-family="Helvetica,sans-Serif" font-size="10.00">/cpp/common/algebraTrace.hpp</text>
</a>
</g>
</g>
<!-- Node3&#45;&gt;Node30 -->
<g id="edge8" class="edge">
<title>Node3&#45;&gt;Node30</title>
<path fill="none" stroke="midnightblue" d="M1915.41,-303.19C2193.1,-298.48 3106.26,-281.27 3398.5,-254 3415.54,-252.41 3433.74,-250.02 3450.95,-247.44"/>
<polygon fill="midnightblue" stroke="midnightblue" points="1915.35,-299.69 1905.41,-303.36 1915.47,-306.69 1915.35,-299.69"/>
</g>
<!-- Node33 -->
<g id="node10" class="node">
<title>Node33</title>
<g id="a_node10"><a xlink:href="networkEstimator_8cpp.html" target="_top" xlink:title=" ">
<polygon fill="white" stroke="black" points="3606,-140 3606,-170 3757,-170 3757,-140 3606,-140"/>
<text text-anchor="start" x="3614" y="-158" font-family="Helvetica,sans-Serif" font-size="10.00">/github/workspace/src</text>
<text text-anchor="middle" x="3681.5" y="-147" font-family="Helvetica,sans-Serif" font-size="10.00">/cpp/pea/networkEstimator.cpp</text>
</a>
</g>
</g>
<!-- Node3&#45;&gt;Node33 -->
<g id="edge46" class="edge">
<title>Node3&#45;&gt;Node33</title>
<path fill="none" stroke="midnightblue" d="M1915.36,-304.21C2253.08,-302.76 3536.94,-294.58 3612.5,-254 3629.91,-244.65 3659.49,-195.19 3673.58,-170.32"/>
<polygon fill="midnightblue" stroke="midnightblue" points="1915.15,-300.71 1905.17,-304.26 1915.18,-307.71 1915.15,-300.71"/>
</g>
<!-- Node74 -->
<g id="node11" class="node">
<title>Node74</title>
<g id="a_node11"><a xlink:href="antenna_8cpp.html" target="_top" xlink:title=" ">
<polygon fill="white" stroke="black" points="733,-218 733,-248 864,-248 864,-218 733,-218"/>
<text text-anchor="start" x="741" y="-236" font-family="Helvetica,sans-Serif" font-size="10.00">/github/workspace/src</text>
<text text-anchor="middle" x="798.5" y="-225" font-family="Helvetica,sans-Serif" font-size="10.00">/cpp/common/antenna.cpp</text>
</a>
</g>
</g>
<!-- Node3&#45;&gt;Node74 -->
<g id="edge13" class="edge">
<title>Node3&#45;&gt;Node74</title>
<path fill="none" stroke="midnightblue" d="M1753.71,-302.46C1554.05,-297.06 1041.33,-280.93 872.5,-254 863.3,-252.53 853.6,-250.37 844.36,-248.01"/>
<polygon fill="midnightblue" stroke="midnightblue" points="1753.75,-305.96 1763.84,-302.73 1753.93,-298.96 1753.75,-305.96"/>
</g>
<!-- Node75 -->
<g id="node12" class="node">
<title>Node75</title>
<g id="a_node12"><a xlink:href="biasSINEX_8hpp.html" target="_top" xlink:title=" ">
<polygon fill="white" stroke="red" points="882,-218 882,-248 1027,-248 1027,-218 882,-218"/>
<text text-anchor="start" x="890" y="-236" font-family="Helvetica,sans-Serif" font-size="10.00">/github/workspace/src</text>
<text text-anchor="middle" x="954.5" y="-225" font-family="Helvetica,sans-Serif" font-size="10.00">/cpp/common/biasSINEX.hpp</text>
</a>
</g>
</g>
<!-- Node3&#45;&gt;Node75 -->
<g id="edge14" class="edge">
<title>Node3&#45;&gt;Node75</title>
<path fill="none" stroke="midnightblue" d="M1753.75,-304.07C1609.12,-302.27 1296.66,-293.64 1036.5,-254 1026.65,-252.5 1016.25,-250.38 1006.28,-248.09"/>
<polygon fill="midnightblue" stroke="midnightblue" points="1753.83,-307.57 1763.87,-304.19 1753.91,-300.57 1753.83,-307.57"/>
</g>
<!-- Node42 -->
<g id="node13" class="node">
<title>Node42</title>
<g id="a_node13"><a xlink:href="preceph_8cpp.html" target="_top" xlink:title=" ">
<polygon fill="white" stroke="black" points="844,-140 844,-170 975,-170 975,-140 844,-140"/>
<text text-anchor="start" x="852" y="-158" font-family="Helvetica,sans-Serif" font-size="10.00">/github/workspace/src</text>
<text text-anchor="middle" x="909.5" y="-147" font-family="Helvetica,sans-Serif" font-size="10.00">/cpp/common/preceph.cpp</text>
</a>
</g>
</g>
<!-- Node3&#45;&gt;Node42 -->
<g id="edge35" class="edge">
<title>Node3&#45;&gt;Node42</title>
<path fill="none" stroke="midnightblue" d="M1753.36,-304.38C1477.05,-303.58 587.43,-297.61 545.5,-254 468.75,-174.18 504.22,-240.3 834.5,-176 842.97,-174.35 851.89,-172.28 860.5,-170.09"/>
<polygon fill="midnightblue" stroke="midnightblue" points="1753.71,-307.88 1763.72,-304.41 1753.73,-300.88 1753.71,-307.88"/>
</g>
<!-- Node61 -->
<g id="node14" class="node">
<title>Node61</title>
<g id="a_node14"><a xlink:href="ionoModel_8hpp.html" target="_top" xlink:title=" ">
<polygon fill="white" stroke="red" points="572.5,-140 572.5,-170 694.5,-170 694.5,-140 572.5,-140"/>
<text text-anchor="start" x="580.5" y="-158" font-family="Helvetica,sans-Serif" font-size="10.00">/github/workspace/src</text>
<text text-anchor="middle" x="633.5" y="-147" font-family="Helvetica,sans-Serif" font-size="10.00">/cpp/iono/ionoModel.hpp</text>
</a>
</g>
</g>
<!-- Node3&#45;&gt;Node61 -->
<g id="edge42" class="edge">
<title>Node3&#45;&gt;Node61</title>
<path fill="none" stroke="midnightblue" d="M1753.51,-304.51C1470.18,-304.14 538.29,-299.47 494.5,-254 481.55,-240.55 484.05,-227.47 494.5,-212 504.91,-196.58 547.06,-180.92 582.25,-170.09"/>
<polygon fill="midnightblue" stroke="midnightblue" points="1753.71,-308.01 1763.71,-304.52 1753.72,-301.01 1753.71,-308.01"/>
</g>
<!-- Node3&#45;&gt;Node16 -->
<g id="edge48" class="edge">
<title>Node3&#45;&gt;Node16</title>
<path fill="none" stroke="midnightblue" d="M1915.58,-303.43C2077.89,-300.52 2430.72,-290.08 2471.5,-254 2495.3,-232.94 2495.29,-191.91 2493.35,-170.23"/>
<polygon fill="midnightblue" stroke="midnightblue" points="1915.11,-299.94 1905.17,-303.61 1915.23,-306.93 1915.11,-299.94"/>
</g>
<!-- Node3&#45;&gt;Node72 -->
<g id="edge53" class="edge">
<title>Node3&#45;&gt;Node72</title>
<path fill="none" stroke="midnightblue" d="M1753.73,-304.34C1513.78,-303.39 816.11,-296.91 723.5,-254 700.39,-243.29 706.14,-225.44 684.5,-212 636.84,-182.4 617.24,-192.14 563.5,-176 557.08,-174.07 550.31,-172.03 543.65,-170.02"/>
<polygon fill="midnightblue" stroke="midnightblue" points="1753.77,-307.84 1763.78,-304.38 1753.8,-300.84 1753.77,-307.84"/>
</g>
<!-- Node78 -->
<g id="node17" class="node">
<title>Node78</title>
<g id="a_node17"><a xlink:href="ionex_8cpp.html" target="_top" xlink:title=" ">
<polygon fill="white" stroke="black" points="713,-140 713,-170 826,-170 826,-140 713,-140"/>
<text text-anchor="start" x="721" y="-158" font-family="Helvetica,sans-Serif" font-size="10.00">/github/workspace/src</text>
<text text-anchor="middle" x="769.5" y="-147" font-family="Helvetica,sans-Serif" font-size="10.00">/cpp/rtklib/ionex.cpp</text>
</a>
</g>
</g>
<!-- Node3&#45;&gt;Node78 -->
<g id="edge54" class="edge">
<title>Node3&#45;&gt;Node78</title>
<path fill="none" stroke="midnightblue" d="M1753.81,-304.48C1472.67,-304 550.84,-299.02 507.5,-254 494.55,-240.55 495.55,-226.34 507.5,-212 535.84,-177.98 660.46,-186.44 703.5,-176 710.71,-174.25 718.3,-172.18 725.67,-170.03"/>
<polygon fill="midnightblue" stroke="midnightblue" points="1753.93,-307.98 1763.94,-304.49 1753.95,-300.98 1753.93,-307.98"/>
</g>
<!-- Node71 -->
<g id="node18" class="node">
<title>Node71</title>
<g id="a_node18"><a xlink:href="rinex_8cpp.html" target="_top" xlink:title=" ">
<polygon fill="white" stroke="black" points="1405,-140 1405,-170 1518,-170 1518,-140 1405,-140"/>
<text text-anchor="start" x="1413" y="-158" font-family="Helvetica,sans-Serif" font-size="10.00">/github/workspace/src</text>
<text text-anchor="middle" x="1461.5" y="-147" font-family="Helvetica,sans-Serif" font-size="10.00">/cpp/rtklib/rinex.cpp</text>
</a>
</g>
</g>
<!-- Node3&#45;&gt;Node71 -->
<g id="edge55" class="edge">
<title>Node3&#45;&gt;Node71</title>
<path fill="none" stroke="midnightblue" d="M1836.55,-280.16C1836.89,-259.09 1833.67,-229.36 1815.5,-212 1773.83,-172.19 1607.1,-160.67 1518.12,-157.35"/>
<polygon fill="midnightblue" stroke="midnightblue" points="1833.05,-280.13 1836.11,-290.27 1840.05,-280.44 1833.05,-280.13"/>
</g>
<!-- Node79 -->
<g id="node19" class="node">
<title>Node79</title>
<g id="a_node19"><a xlink:href="ephemeris_8cpp.html" target="_top" xlink:title=" ">
<polygon fill="white" stroke="black" points="1045.5,-218 1045.5,-248 1187.5,-248 1187.5,-218 1045.5,-218"/>
<text text-anchor="start" x="1053.5" y="-236" font-family="Helvetica,sans-Serif" font-size="10.00">/github/workspace/src</text>
<text text-anchor="middle" x="1116.5" y="-225" font-family="Helvetica,sans-Serif" font-size="10.00">/cpp/common/ephemeris.cpp</text>
</a>
</g>
</g>
<!-- Node3&#45;&gt;Node79 -->
<g id="edge24" class="edge">
<title>Node3&#45;&gt;Node79</title>
<path fill="none" stroke="midnightblue" d="M1753.36,-302.39C1631.66,-298.25 1394.95,-286.43 1196.5,-254 1187.03,-252.45 1177.04,-250.35 1167.45,-248.08"/>
<polygon fill="midnightblue" stroke="midnightblue" points="1753.6,-305.9 1763.71,-302.73 1753.83,-298.9 1753.6,-305.9"/>
</g>
<!-- Node80 -->
<g id="node20" class="node">
<title>Node80</title>
<g id="a_node20"><a xlink:href="erp_8cpp.html" target="_top" xlink:title=" ">
<polygon fill="white" stroke="black" points="1206,-218 1206,-248 1319,-248 1319,-218 1206,-218"/>
<text text-anchor="start" x="1214" y="-236" font-family="Helvetica,sans-Serif" font-size="10.00">/github/workspace/src</text>
<text text-anchor="middle" x="1262.5" y="-225" font-family="Helvetica,sans-Serif" font-size="10.00">/cpp/common/erp.cpp</text>
</a>
</g>
</g>
<!-- Node3&#45;&gt;Node80 -->
<g id="edge25" class="edge">
<title>Node3&#45;&gt;Node80</title>
<path fill="none" stroke="midnightblue" d="M1753.62,-301.41C1652.93,-296.43 1476.09,-283.95 1327.5,-254 1319.75,-252.44 1311.6,-250.32 1303.79,-248.05"/>
<polygon fill="midnightblue" stroke="midnightblue" points="1753.56,-304.91 1763.72,-301.9 1753.9,-297.92 1753.56,-304.91"/>
</g>
<!-- Node81 -->
<g id="node21" class="node">
<title>Node81</title>
<g id="a_node21"><a xlink:href="ntripBroadcast_8hpp.html" target="_top" xlink:title=" ">
<polygon fill="white" stroke="red" points="345.5,-67.5 345.5,-97.5 505.5,-97.5 505.5,-67.5 345.5,-67.5"/>
<text text-anchor="start" x="353.5" y="-85.5" font-family="Helvetica,sans-Serif" font-size="10.00">/github/workspace/src</text>
<text text-anchor="middle" x="425.5" y="-74.5" font-family="Helvetica,sans-Serif" font-size="10.00">/cpp/common/ntripBroadcast.hpp</text>
</a>
</g>
</g>
<!-- Node3&#45;&gt;Node81 -->
<g id="edge26" class="edge">
<title>Node3&#45;&gt;Node81</title>
<path fill="none" stroke="midnightblue" d="M1753.57,-303.52C1470.36,-299.83 537.95,-285.35 482.5,-254 446.44,-233.62 444.6,-215.29 431.5,-176 422.64,-149.44 423.05,-116.25 424.23,-97.72"/>
<polygon fill="midnightblue" stroke="midnightblue" points="1753.72,-307.02 1763.77,-303.65 1753.81,-300.02 1753.72,-307.02"/>
</g>
<!-- Node82 -->
<g id="node22" class="node">
<title>Node82</title>
<g id="a_node22"><a xlink:href="ntripTrace_8hpp.html" target="_top" xlink:title=" ">
<polygon fill="white" stroke="red" points="206.5,-218 206.5,-248 346.5,-248 346.5,-218 206.5,-218"/>
<text text-anchor="start" x="214.5" y="-236" font-family="Helvetica,sans-Serif" font-size="10.00">/github/workspace/src</text>
<text text-anchor="middle" x="276.5" y="-225" font-family="Helvetica,sans-Serif" font-size="10.00">/cpp/common/ntripTrace.hpp</text>
</a>
</g>
</g>
<!-- Node3&#45;&gt;Node82 -->
<g id="edge28" class="edge">
<title>Node3&#45;&gt;Node82</title>
<path fill="none" stroke="midnightblue" d="M1753.64,-303.01C1491.15,-297.97 664.45,-280.37 398.5,-254 381.63,-252.33 363.55,-249.78 346.62,-247.06"/>
<polygon fill="midnightblue" stroke="midnightblue" points="1753.79,-306.52 1763.86,-303.21 1753.93,-299.52 1753.79,-306.52"/>
</g>
<!-- Node90 -->
<g id="node23" class="node">
<title>Node90</title>
<g id="a_node23"><a xlink:href="rtcmEncoder_8hpp.html" target="_top" xlink:title=" ">
<polygon fill="white" stroke="red" points="194.5,-140 194.5,-170 346.5,-170 346.5,-140 194.5,-140"/>
<text text-anchor="start" x="202.5" y="-158" font-family="Helvetica,sans-Serif" font-size="10.00">/github/workspace/src</text>
<text text-anchor="middle" x="270.5" y="-147" font-family="Helvetica,sans-Serif" font-size="10.00">/cpp/common/rtcmEncoder.hpp</text>
</a>
</g>
</g>
<!-- Node3&#45;&gt;Node90 -->
<g id="edge38" class="edge">
<title>Node3&#45;&gt;Node90</title>
<path fill="none" stroke="midnightblue" d="M1753.59,-303.52C1427.38,-299.38 224.87,-282.22 197.5,-254 184.51,-240.6 189.24,-228.74 197.5,-212 206.61,-193.52 225.08,-179.44 241.16,-170.03"/>
<polygon fill="midnightblue" stroke="midnightblue" points="1753.86,-307.02 1763.91,-303.65 1753.95,-300.02 1753.86,-307.02"/>
</g>
<!-- Node41 -->
<g id="node24" class="node">
<title>Node41</title>
<g id="a_node24"><a xlink:href="orbits_8cpp.html" target="_top" xlink:title=" ">
<polygon fill="white" stroke="black" points="1337,-218 1337,-248 1458,-248 1458,-218 1337,-218"/>
<text text-anchor="start" x="1345" y="-236" font-family="Helvetica,sans-Serif" font-size="10.00">/github/workspace/src</text>
<text text-anchor="middle" x="1397.5" y="-225" font-family="Helvetica,sans-Serif" font-size="10.00">/cpp/common/orbits.cpp</text>
</a>
</g>
</g>
<!-- Node3&#45;&gt;Node41 -->
<g id="edge34" class="edge">
<title>Node3&#45;&gt;Node41</title>
<path fill="none" stroke="midnightblue" d="M1753.7,-296.71C1678.96,-288.71 1565.03,-274.53 1467.5,-254 1459.58,-252.33 1451.25,-250.25 1443.21,-248.06"/>
<polygon fill="midnightblue" stroke="midnightblue" points="1753.66,-300.22 1763.98,-297.79 1754.4,-293.26 1753.66,-300.22"/>
</g>
<!-- Node27 -->
<g id="node25" class="node">
<title>Node27</title>
<g id="a_node25"><a xlink:href="rinexClkWrite_8cpp.html" target="_top" xlink:title=" ">
<polygon fill="white" stroke="black" points="1476.5,-218 1476.5,-248 1630.5,-248 1630.5,-218 1476.5,-218"/>
<text text-anchor="start" x="1484.5" y="-236" font-family="Helvetica,sans-Serif" font-size="10.00">/github/workspace/src</text>
<text text-anchor="middle" x="1553.5" y="-225" font-family="Helvetica,sans-Serif" font-size="10.00">/cpp/common/rinexClkWrite.cpp</text>
</a>
</g>
</g>
<!-- Node3&#45;&gt;Node27 -->
<g id="edge36" class="edge">
<title>Node3&#45;&gt;Node27</title>
<path fill="none" stroke="midnightblue" d="M1768.92,-288.05C1720.63,-275.93 1655.65,-259.63 1609.73,-248.11"/>
<polygon fill="midnightblue" stroke="midnightblue" points="1768.1,-291.45 1778.65,-290.49 1769.8,-284.66 1768.1,-291.45"/>
</g>
<!-- Node44 -->
<g id="node26" class="node">
<title>Node44</title>
<g id="a_node26"><a xlink:href="rinexNavWrite_8cpp.html" target="_top" xlink:title=" ">
<polygon fill="white" stroke="black" points="1648.5,-218 1648.5,-248 1806.5,-248 1806.5,-218 1648.5,-218"/>
<text text-anchor="start" x="1656.5" y="-236" font-family="Helvetica,sans-Serif" font-size="10.00">/github/workspace/src</text>
<text text-anchor="middle" x="1727.5" y="-225" font-family="Helvetica,sans-Serif" font-size="10.00">/cpp/common/rinexNavWrite.cpp</text>
</a>
</g>
</g>
<!-- Node3&#45;&gt;Node44 -->
<g id="edge37" class="edge">
<title>Node3&#45;&gt;Node44</title>
<path fill="none" stroke="midnightblue" d="M1804.3,-284.6C1786.63,-272.96 1764.74,-258.54 1748.86,-248.07"/>
<polygon fill="midnightblue" stroke="midnightblue" points="1802.83,-287.82 1813.1,-290.4 1806.68,-281.98 1802.83,-287.82"/>
</g>
<!-- Node92 -->
<g id="node27" class="node">
<title>Node92</title>
<g id="a_node27"><a xlink:href="sp3_8cpp.html" target="_top" xlink:title=" ">
<polygon fill="white" stroke="black" points="1863,-218 1863,-248 1976,-248 1976,-218 1863,-218"/>
<text text-anchor="start" x="1871" y="-236" font-family="Helvetica,sans-Serif" font-size="10.00">/github/workspace/src</text>
<text text-anchor="middle" x="1919.5" y="-225" font-family="Helvetica,sans-Serif" font-size="10.00">/cpp/common/sp3.cpp</text>
</a>
</g>
</g>
<!-- Node3&#45;&gt;Node92 -->
<g id="edge39" class="edge">
<title>Node3&#45;&gt;Node92</title>
<path fill="none" stroke="midnightblue" d="M1859.47,-283.79C1873.36,-272.27 1890.28,-258.23 1902.61,-248"/>
<polygon fill="midnightblue" stroke="midnightblue" points="1857.16,-281.16 1851.7,-290.23 1861.63,-286.54 1857.16,-281.16"/>
</g>
<!-- Node28 -->
<g id="node28" class="node">
<title>Node28</title>
<g id="a_node28"><a xlink:href="sp3Write_8cpp.html" target="_top" xlink:title=" ">
<polygon fill="white" stroke="black" points="1994,-218 1994,-248 2129,-248 2129,-218 1994,-218"/>
<text text-anchor="start" x="2002" y="-236" font-family="Helvetica,sans-Serif" font-size="10.00">/github/workspace/src</text>
<text text-anchor="middle" x="2061.5" y="-225" font-family="Helvetica,sans-Serif" font-size="10.00">/cpp/common/sp3Write.cpp</text>
</a>
</g>
</g>
<!-- Node3&#45;&gt;Node28 -->
<g id="edge40" class="edge">
<title>Node3&#45;&gt;Node28</title>
<path fill="none" stroke="midnightblue" d="M1889.2,-287.51C1928.02,-275.46 1979.52,-259.46 2016.08,-248.11"/>
<polygon fill="midnightblue" stroke="midnightblue" points="1888.13,-284.18 1879.62,-290.49 1890.21,-290.86 1888.13,-284.18"/>
</g>
<!-- Node93 -->
<g id="node29" class="node">
<title>Node93</title>
<g id="a_node29"><a xlink:href="streamTrace_8cpp.html" target="_top" xlink:title=" ">
<polygon fill="white" stroke="black" points="2147.5,-218 2147.5,-248 2299.5,-248 2299.5,-218 2147.5,-218"/>
<text text-anchor="start" x="2155.5" y="-236" font-family="Helvetica,sans-Serif" font-size="10.00">/github/workspace/src</text>
<text text-anchor="middle" x="2223.5" y="-225" font-family="Helvetica,sans-Serif" font-size="10.00">/cpp/common/streamTrace.cpp</text>
</a>
</g>
</g>
<!-- Node3&#45;&gt;Node93 -->
<g id="edge41" class="edge">
<title>Node3&#45;&gt;Node93</title>
<path fill="none" stroke="midnightblue" d="M1915.12,-292.49C1976.32,-283.02 2062.44,-268.97 2137.5,-254 2146.52,-252.2 2156.04,-250.15 2165.32,-248.06"/>
<polygon fill="midnightblue" stroke="midnightblue" points="1914.49,-289.04 1905.14,-294.02 1915.55,-295.96 1914.49,-289.04"/>
</g>
<!-- Node94 -->
<g id="node30" class="node">
<title>Node94</title>
<g id="a_node30"><a xlink:href="forceModels_8cpp.html" target="_top" xlink:title=" ">
<polygon fill="white" stroke="black" points="2318,-218 2318,-248 2463,-248 2463,-218 2318,-218"/>
<text text-anchor="start" x="2326" y="-236" font-family="Helvetica,sans-Serif" font-size="10.00">/github/workspace/src</text>
<text text-anchor="middle" x="2390.5" y="-225" font-family="Helvetica,sans-Serif" font-size="10.00">/cpp/orbprop/forceModels.cpp</text>
</a>
</g>
</g>
<!-- Node3&#45;&gt;Node94 -->
<g id="edge43" class="edge">
<title>Node3&#45;&gt;Node94</title>
<path fill="none" stroke="midnightblue" d="M1915.26,-299.18C2009.96,-292.19 2171.43,-277.91 2308.5,-254 2317.88,-252.36 2327.79,-250.27 2337.34,-248.05"/>
<polygon fill="midnightblue" stroke="midnightblue" points="1914.9,-295.7 1905.18,-299.92 1915.41,-302.68 1914.9,-295.7"/>
</g>
<!-- Node95 -->
<g id="node31" class="node">
<title>Node95</title>
<g id="a_node31"><a xlink:href="gravity_8cpp.html" target="_top" xlink:title=" ">
<polygon fill="white" stroke="black" points="2519.5,-218 2519.5,-248 2639.5,-248 2639.5,-218 2519.5,-218"/>
<text text-anchor="start" x="2527.5" y="-236" font-family="Helvetica,sans-Serif" font-size="10.00">/github/workspace/src</text>
<text text-anchor="middle" x="2579.5" y="-225" font-family="Helvetica,sans-Serif" font-size="10.00">/cpp/orbprop/gravity.cpp</text>
</a>
</g>
</g>
<!-- Node3&#45;&gt;Node95 -->
<g id="edge44" class="edge">
<title>Node3&#45;&gt;Node95</title>
<path fill="none" stroke="midnightblue" d="M1915.07,-303.34C2041.65,-300.41 2294.45,-290.13 2505.5,-254 2514.42,-252.47 2523.82,-250.35 2532.82,-248.05"/>
<polygon fill="midnightblue" stroke="midnightblue" points="1914.99,-299.84 1905.07,-303.56 1915.14,-306.84 1914.99,-299.84"/>
</g>
<!-- Node96 -->
<g id="node32" class="node">
<title>Node96</title>
<g id="a_node32"><a xlink:href="test__egm_8cpp.html" target="_top" xlink:title=" ">
<polygon fill="white" stroke="black" points="2657.5,-218 2657.5,-248 2789.5,-248 2789.5,-218 2657.5,-218"/>
<text text-anchor="start" x="2665.5" y="-236" font-family="Helvetica,sans-Serif" font-size="10.00">/github/workspace/src</text>
<text text-anchor="middle" x="2723.5" y="-225" font-family="Helvetica,sans-Serif" font-size="10.00">/cpp/orbprop/test_egm.cpp</text>
</a>
</g>
</g>
<!-- Node3&#45;&gt;Node96 -->
<g id="edge45" class="edge">
<title>Node3&#45;&gt;Node96</title>
<path fill="none" stroke="midnightblue" d="M1915.54,-304.78C2062.57,-304.11 2382.71,-297.24 2648.5,-254 2657.68,-252.51 2667.36,-250.37 2676.6,-248.03"/>
<polygon fill="midnightblue" stroke="midnightblue" points="1915.24,-301.28 1905.25,-304.82 1915.27,-308.28 1915.24,-301.28"/>
</g>
<!-- Node66 -->
<g id="node33" class="node">
<title>Node66</title>
<g id="a_node33"><a xlink:href="pea__snx_8cpp.html" target="_top" xlink:title=" ">
<polygon fill="white" stroke="black" points="2808,-218 2808,-248 2921,-248 2921,-218 2808,-218"/>
<text text-anchor="start" x="2816" y="-236" font-family="Helvetica,sans-Serif" font-size="10.00">/github/workspace/src</text>
<text text-anchor="middle" x="2864.5" y="-225" font-family="Helvetica,sans-Serif" font-size="10.00">/cpp/pea/pea_snx.cpp</text>
</a>
</g>
</g>
<!-- Node3&#45;&gt;Node66 -->
<g id="edge47" class="edge">
<title>Node3&#45;&gt;Node66</title>
<path fill="none" stroke="midnightblue" d="M1915.15,-302.78C2115.09,-298.12 2629.65,-283.56 2798.5,-254 2806.76,-252.55 2815.43,-250.4 2823.68,-248.04"/>
<polygon fill="midnightblue" stroke="midnightblue" points="1914.93,-299.29 1905.01,-303.02 1915.09,-306.29 1914.93,-299.29"/>
</g>
<!-- Node3&#45;&gt;Node67 -->
<g id="edge49" class="edge">
<title>Node3&#45;&gt;Node67</title>
<path fill="none" stroke="midnightblue" d="M1915.15,-304.58C2220.4,-304.51 3304.89,-300.89 3646.5,-254 3656.57,-252.62 3667.21,-250.46 3677.32,-248.07"/>
<polygon fill="midnightblue" stroke="midnightblue" points="1915.05,-301.08 1905.05,-304.58 1915.05,-308.08 1915.05,-301.08"/>
</g>
<!-- Node3&#45;&gt;Node68 -->
<g id="edge50" class="edge">
<title>Node3&#45;&gt;Node68</title>
<path fill="none" stroke="midnightblue" d="M1915.35,-303.7C2262.02,-300.12 3613.59,-284.31 3801.5,-254 3810.01,-252.63 3818.95,-250.44 3827.41,-248.02"/>
<polygon fill="midnightblue" stroke="midnightblue" points="1915.11,-300.21 1905.15,-303.81 1915.19,-307.21 1915.11,-300.21"/>
</g>
<!-- Node53 -->
<g id="node36" class="node">
<title>Node53</title>
<g id="a_node36"><a xlink:href="ppppp_8cpp.html" target="_top" xlink:title=" ">
<polygon fill="white" stroke="black" points="2939,-218 2939,-248 3052,-248 3052,-218 2939,-218"/>
<text text-anchor="start" x="2947" y="-236" font-family="Helvetica,sans-Serif" font-size="10.00">/github/workspace/src</text>
<text text-anchor="middle" x="2995.5" y="-225" font-family="Helvetica,sans-Serif" font-size="10.00">/cpp/pea/ppppp.cpp</text>
</a>
</g>
</g>
<!-- Node3&#45;&gt;Node53 -->
<g id="edge51" class="edge">
<title>Node3&#45;&gt;Node53</title>
<path fill="none" stroke="midnightblue" d="M1915.14,-303.37C2133.77,-299.9 2734.49,-287.51 2929.5,-254 2937.76,-252.58 2946.44,-250.44 2954.69,-248.08"/>
<polygon fill="midnightblue" stroke="midnightblue" points="1914.96,-299.87 1905.02,-303.53 1915.07,-306.87 1914.96,-299.87"/>
</g>
<!-- Node70 -->
<g id="node37" class="node">
<title>Node70</title>
<g id="a_node37"><a xlink:href="ppppp__pseudoobs_8cpp.html" target="_top" xlink:title=" ">
<polygon fill="white" stroke="black" points="3070.5,-218 3070.5,-248 3224.5,-248 3224.5,-218 3070.5,-218"/>
<text text-anchor="start" x="3078.5" y="-236" font-family="Helvetica,sans-Serif" font-size="10.00">/github/workspace/src</text>
<text text-anchor="middle" x="3147.5" y="-225" font-family="Helvetica,sans-Serif" font-size="10.00">/cpp/pea/ppppp_pseudoobs.cpp</text>
</a>
</g>
</g>
<!-- Node3&#45;&gt;Node70 -->
<g id="edge52" class="edge">
<title>Node3&#45;&gt;Node70</title>
<path fill="none" stroke="midnightblue" d="M1915.46,-303.12C2151.81,-298.77 2838.16,-283.87 3060.5,-254 3071.25,-252.56 3082.63,-250.41 3093.48,-248.04"/>
<polygon fill="midnightblue" stroke="midnightblue" points="1915.15,-299.62 1905.22,-303.3 1915.28,-306.62 1915.15,-299.62"/>
</g>
<!-- Node97 -->
<g id="node38" class="node">
<title>Node97</title>
<g id="a_node38"><a xlink:href="rtkcmn_8cpp.html" target="_top" xlink:title=" ">
<polygon fill="white" stroke="black" points="3243,-218 3243,-248 3356,-248 3356,-218 3243,-218"/>
<text text-anchor="start" x="3251" y="-236" font-family="Helvetica,sans-Serif" font-size="10.00">/github/workspace/src</text>
<text text-anchor="middle" x="3299.5" y="-225" font-family="Helvetica,sans-Serif" font-size="10.00">/cpp/rtklib/rtkcmn.cpp</text>
</a>
</g>
</g>
<!-- Node3&#45;&gt;Node97 -->
<g id="edge56" class="edge">
<title>Node3&#45;&gt;Node97</title>
<path fill="none" stroke="midnightblue" d="M1915.23,-304.32C2173.46,-303.3 2977.26,-296.71 3233.5,-254 3241.89,-252.6 3250.7,-250.44 3259.05,-248.05"/>
<polygon fill="midnightblue" stroke="midnightblue" points="1915.17,-300.82 1905.18,-304.36 1915.19,-307.82 1915.17,-300.82"/>
</g>
<!-- Node5&#45;&gt;Node15 -->
<g id="edge5" class="edge">
<title>Node5&#45;&gt;Node15</title>
<path fill="none" stroke="midnightblue" d="M137.5,-66.95C302.89,-42.59 485.96,-27.3 576.63,-20.51"/>
<polygon fill="midnightblue" stroke="midnightblue" points="136.52,-63.56 127.14,-68.49 137.55,-70.48 136.52,-63.56"/>
</g>
<!-- Node30&#45;&gt;Node2 -->
<g id="edge9" class="edge">
<title>Node30&#45;&gt;Node2</title>
<path fill="none" stroke="midnightblue" d="M3527.5,-207.66C3527.5,-197.33 3527.5,-185.44 3527.5,-175.68"/>
<polygon fill="midnightblue" stroke="midnightblue" points="3524,-207.7 3527.5,-217.7 3531,-207.71 3524,-207.7"/>
</g>
<!-- Node30&#45;&gt;Node15 -->
<g id="edge11" class="edge">
<title>Node30&#45;&gt;Node15</title>
<path fill="none" stroke="midnightblue" d="M3500.18,-211.65C3486.91,-201.4 3470.97,-188.51 3457.5,-176 3438.84,-158.66 3441.63,-144.67 3418.5,-134 3162.4,-15.84 1063.21,-15.44 690.1,-16.32"/>
<polygon fill="midnightblue" stroke="midnightblue" points="3498.39,-214.69 3508.46,-217.98 3502.64,-209.13 3498.39,-214.69"/>
</g>
<!-- Node30&#45;&gt;Node29 -->
<g id="edge10" class="edge">
<title>Node30&#45;&gt;Node29</title>
<path fill="none" stroke="midnightblue" d="M3482.11,-214.22C3447.73,-200.75 3401.13,-182.5 3369.34,-170.04"/>
<polygon fill="midnightblue" stroke="midnightblue" points="3480.88,-217.49 3491.46,-217.88 3483.43,-210.98 3480.88,-217.49"/>
</g>
<!-- Node30&#45;&gt;Node33 -->
<g id="edge12" class="edge">
<title>Node30&#45;&gt;Node33</title>
<path fill="none" stroke="midnightblue" d="M3565.29,-213.35C3592.4,-199.97 3628.35,-182.23 3653.05,-170.04"/>
<polygon fill="midnightblue" stroke="midnightblue" points="3563.52,-210.32 3556.11,-217.88 3566.62,-216.6 3563.52,-210.32"/>
</g>
<!-- Node75&#45;&gt;Node2 -->
<g id="edge15" class="edge">
<title>Node75&#45;&gt;Node2</title>
<path fill="none" stroke="midnightblue" d="M1014.44,-215.75C1021.83,-214.23 1029.31,-212.92 1036.5,-212 1561.62,-144.86 2891.66,-227.95 3418.5,-176 3434.3,-174.44 3451.23,-171.81 3466.93,-168.96"/>
<polygon fill="midnightblue" stroke="midnightblue" points="1013.49,-212.38 1004.47,-217.93 1014.99,-219.21 1013.49,-212.38"/>
</g>
<!-- Node75&#45;&gt;Node15 -->
<g id="edge19" class="edge">
<title>Node75&#45;&gt;Node15</title>
<path fill="none" stroke="midnightblue" d="M971.55,-209.36C985.24,-188.2 999.73,-156.56 983.5,-134 916.23,-40.46 770.87,-20.35 690.25,-16.67"/>
<polygon fill="midnightblue" stroke="midnightblue" points="968.58,-207.5 965.83,-217.73 974.36,-211.46 968.58,-207.5"/>
</g>
<!-- Node75&#45;&gt;Node42 -->
<g id="edge16" class="edge">
<title>Node75&#45;&gt;Node42</title>
<path fill="none" stroke="midnightblue" d="M940.93,-209.07C933.44,-196.44 924.39,-181.15 917.93,-170.23"/>
<polygon fill="midnightblue" stroke="midnightblue" points="937.93,-210.88 946.04,-217.7 943.95,-207.32 937.93,-210.88"/>
</g>
<!-- Node75&#45;&gt;Node61 -->
<g id="edge17" class="edge">
<title>Node75&#45;&gt;Node61</title>
<path fill="none" stroke="midnightblue" d="M887.74,-215.54C882.59,-214.33 877.46,-213.13 872.5,-212 797.63,-194.9 778.02,-194.56 703.5,-176 696.26,-174.2 688.65,-172.16 681.2,-170.1"/>
<polygon fill="midnightblue" stroke="midnightblue" points="887.11,-218.99 897.65,-217.9 888.73,-212.18 887.11,-218.99"/>
</g>
<!-- Node75&#45;&gt;Node16 -->
<g id="edge20" class="edge">
<title>Node75&#45;&gt;Node16</title>
<path fill="none" stroke="midnightblue" d="M1015.57,-215.68C1022.59,-214.23 1029.67,-212.95 1036.5,-212 1313.93,-173.23 2201.49,-159.62 2434.85,-156.66"/>
<polygon fill="midnightblue" stroke="midnightblue" points="1014.39,-212.36 1005.37,-217.92 1015.89,-219.2 1014.39,-212.36"/>
</g>
<!-- Node75&#45;&gt;Node72 -->
<g id="edge21" class="edge">
<title>Node75&#45;&gt;Node72</title>
<path fill="none" stroke="midnightblue" d="M891.1,-215.72C884.83,-214.36 878.56,-213.09 872.5,-212 736.41,-187.57 698.86,-204.16 563.5,-176 555.76,-174.39 547.63,-172.28 539.82,-170.04"/>
<polygon fill="midnightblue" stroke="midnightblue" points="890.36,-219.14 900.89,-217.92 891.9,-212.31 890.36,-219.14"/>
</g>
<!-- Node75&#45;&gt;Node78 -->
<g id="edge22" class="edge">
<title>Node75&#45;&gt;Node78</title>
<path fill="none" stroke="midnightblue" d="M910.8,-214.05C878.05,-200.59 833.87,-182.44 803.68,-170.04"/>
<polygon fill="midnightblue" stroke="midnightblue" points="909.56,-217.32 920.14,-217.88 912.22,-210.85 909.56,-217.32"/>
</g>
<!-- Node75&#45;&gt;Node71 -->
<g id="edge23" class="edge">
<title>Node75&#45;&gt;Node71</title>
<path fill="none" stroke="midnightblue" d="M1018.65,-215.65C1024.67,-214.33 1030.69,-213.09 1036.5,-212 1167.44,-187.48 1323.05,-169.87 1404.82,-161.5"/>
<polygon fill="midnightblue" stroke="midnightblue" points="1017.55,-212.31 1008.57,-217.93 1019.1,-219.14 1017.55,-212.31"/>
</g>
<!-- Node61&#45;&gt;Node15 -->
<g id="edge18" class="edge">
<title>Node61&#45;&gt;Node15</title>
<path fill="none" stroke="midnightblue" d="M633.5,-129.79C633.5,-101.11 633.5,-54.28 633.5,-30.83"/>
<polygon fill="midnightblue" stroke="midnightblue" points="630,-129.8 633.5,-139.8 637,-129.8 630,-129.8"/>
</g>
<!-- Node81&#45;&gt;Node15 -->
<g id="edge27" class="edge">
<title>Node81&#45;&gt;Node15</title>
<path fill="none" stroke="midnightblue" d="M480.08,-64.44C513.8,-53.91 556.54,-40.55 588.35,-30.61"/>
<polygon fill="midnightblue" stroke="midnightblue" points="478.88,-61.15 470.38,-67.48 480.97,-67.83 478.88,-61.15"/>
</g>
<!-- Node82&#45;&gt;Node81 -->
<g id="edge29" class="edge">
<title>Node82&#45;&gt;Node81</title>
<path fill="none" stroke="midnightblue" d="M308.9,-212.3C323.9,-202.39 341.47,-189.6 355.5,-176 380.95,-151.33 404.49,-116.86 416.72,-97.73"/>
<polygon fill="midnightblue" stroke="midnightblue" points="306.9,-209.42 300.41,-217.79 310.7,-215.3 306.9,-209.42"/>
</g>
<!-- Node82&#45;&gt;Node90 -->
<g id="edge30" class="edge">
<title>Node82&#45;&gt;Node90</title>
<path fill="none" stroke="midnightblue" d="M274.57,-207.59C273.6,-195.26 272.45,-180.72 271.62,-170.23"/>
<polygon fill="midnightblue" stroke="midnightblue" points="271.1,-208.01 275.37,-217.7 278.07,-207.46 271.1,-208.01"/>
</g>
<!-- Node90&#45;&gt;Node15 -->
<g id="edge33" class="edge">
<title>Node90&#45;&gt;Node15</title>
<path fill="none" stroke="midnightblue" d="M281.58,-130.99C292.59,-110.74 311.45,-82.19 336.5,-67 375.97,-43.07 502.19,-28.13 576.78,-21.16"/>
<polygon fill="midnightblue" stroke="midnightblue" points="278.46,-129.41 276.95,-139.9 284.67,-132.64 278.46,-129.41"/>
</g>
<!-- Node90&#45;&gt;Node50 -->
<g id="edge31" class="edge">
<title>Node90&#45;&gt;Node50</title>
<path fill="none" stroke="midnightblue" d="M253.74,-131.71C245.39,-120.6 235.53,-107.49 228.21,-97.75"/>
<polygon fill="midnightblue" stroke="midnightblue" points="250.97,-133.84 259.77,-139.73 256.56,-129.64 250.97,-133.84"/>
</g>
<!-- Node90&#45;&gt;Node81 -->
<g id="edge32" class="edge">
<title>Node90&#45;&gt;Node81</title>
<path fill="none" stroke="midnightblue" d="M310.76,-135.69C336.92,-123.79 370.5,-108.52 394.56,-97.57"/>
<polygon fill="midnightblue" stroke="midnightblue" points="309.15,-132.58 301.49,-139.9 312.05,-138.95 309.15,-132.58"/>
</g>
</g>
</svg>
