<?xml version="1.0" encoding="UTF-8" standalone="no"?>
<!DOCTYPE svg PUBLIC "-//W3C//DTD SVG 1.1//EN"
 "http://www.w3.org/Graphics/SVG/1.1/DTD/svg11.dtd">
<!-- Generated by graphviz version 2.50.0 (20220203.2022)
 -->
<!-- Title: coef Pages: 1 -->
<svg width="541pt" height="588pt"
 viewBox="0.00 0.00 541.00 588.00" xmlns="http://www.w3.org/2000/svg" xmlns:xlink="http://www.w3.org/1999/xlink">
<g id="graph0" class="graph" transform="scale(1 1) rotate(0) translate(4 584)">
<title>coef</title>
<polygon fill="white" stroke="transparent" points="-4,4 -4,-584 537,-584 537,4 -4,4"/>
<!-- Node1 -->
<g id="node1" class="node">
<title>Node1</title>
<g id="a_node1"><a xlink:title="coefficients multiplication">
<polygon fill="#bfbfbf" stroke="black" points="498,-285.5 498,-304.5 533,-304.5 533,-285.5 498,-285.5"/>
<text text-anchor="middle" x="515.5" y="-292.5" font-family="Helvetica,sans-Serif" font-size="10.00">coef</text>
</a>
</g>
</g>
<!-- Node2 -->
<g id="node2" class="node">
<title>Node2</title>
<g id="a_node2"><a xlink:href="GinARNLamb_8cpp.html#ad93bb9c322526f57beacb5aeb5c4e66a" target="_top" xlink:title="Apply archived Z&#45;ambiguities to float solution.">
<polygon fill="white" stroke="black" points="137.5,-465.5 137.5,-484.5 211.5,-484.5 211.5,-465.5 137.5,-465.5"/>
<text text-anchor="middle" x="174.5" y="-472.5" font-family="Helvetica,sans-Serif" font-size="10.00">apply_ambigt</text>
</a>
</g>
</g>
<!-- Node1&#45;&gt;Node2 -->
<g id="edge1" class="edge">
<title>Node1&#45;&gt;Node2</title>
<path fill="none" stroke="midnightblue" d="M514.05,-315.15C512.11,-348.5 502.98,-414.68 462,-447 424.04,-476.94 279.78,-477.62 211.6,-476.16"/>
<polygon fill="midnightblue" stroke="midnightblue" points="517.56,-314.97 514.47,-304.84 510.56,-314.68 517.56,-314.97"/>
</g>
<!-- Node11 -->
<g id="node5" class="node">
<title>Node11</title>
<g id="a_node5"><a xlink:href="GinARNLamb_8cpp.html#ac4b99b950a4d40abefe99b35c1142570" target="_top" xlink:title="Check Z&#45;transformed ambiguities and remove old entries.">
<polygon fill="white" stroke="black" points="251,-560.5 251,-579.5 307,-579.5 307,-560.5 251,-560.5"/>
<text text-anchor="middle" x="279" y="-567.5" font-family="Helvetica,sans-Serif" font-size="10.00">chk_arch</text>
</a>
</g>
</g>
<!-- Node1&#45;&gt;Node11 -->
<g id="edge4" class="edge">
<title>Node1&#45;&gt;Node11</title>
<path fill="none" stroke="midnightblue" d="M513.27,-314.76C509.49,-368.5 496.18,-515.44 462,-547 419.76,-586 346.61,-581.44 307.13,-575.35"/>
<polygon fill="midnightblue" stroke="midnightblue" points="516.78,-314.73 513.95,-304.52 509.79,-314.26 516.78,-314.73"/>
</g>
<!-- Node13 -->
<g id="node7" class="node">
<title>Node13</title>
<g id="a_node7"><a xlink:href="GinARNLamb_8cpp.html#af71b69e23375694ef4e5f632002864d7" target="_top" xlink:title="Comapring two Z&#45;transformed ambiguities.">
<polygon fill="white" stroke="black" points="368.5,-494.5 368.5,-513.5 439.5,-513.5 439.5,-494.5 368.5,-494.5"/>
<text text-anchor="middle" x="404" y="-501.5" font-family="Helvetica,sans-Serif" font-size="10.00">comp_Zamb</text>
</a>
</g>
</g>
<!-- Node1&#45;&gt;Node13 -->
<g id="edge8" class="edge">
<title>Node1&#45;&gt;Node13</title>
<path fill="none" stroke="midnightblue" d="M514.26,-314.83C512.78,-351.83 504.51,-431.96 462,-480 456.02,-486.75 447.83,-491.66 439.52,-495.2"/>
<polygon fill="midnightblue" stroke="midnightblue" points="517.76,-314.91 514.54,-304.82 510.77,-314.72 517.76,-314.91"/>
</g>
<!-- Node14 -->
<g id="node8" class="node">
<title>Node14</title>
<g id="a_node8"><a xlink:href="GinARNLamb_8cpp.html#aec84319e21a1558de999b084be3e8cad" target="_top" xlink:title="Add Z&#45;transformed ambiguity to archive.">
<polygon fill="white" stroke="black" points="248,-503.5 248,-522.5 310,-522.5 310,-503.5 248,-503.5"/>
<text text-anchor="middle" x="279" y="-510.5" font-family="Helvetica,sans-Serif" font-size="10.00">incl_Zamb</text>
</a>
</g>
</g>
<!-- Node1&#45;&gt;Node14 -->
<g id="edge18" class="edge">
<title>Node1&#45;&gt;Node14</title>
<path fill="none" stroke="midnightblue" d="M513.02,-314.75C508.78,-365.24 494.73,-496.95 462,-523 415.45,-560.05 339.12,-537.29 301.85,-522.58"/>
<polygon fill="midnightblue" stroke="midnightblue" points="516.53,-314.76 513.83,-304.51 509.55,-314.2 516.53,-314.76"/>
</g>
<!-- Node15 -->
<g id="node9" class="node">
<title>Node15</title>
<g id="a_node9"><a xlink:href="acsQC_8cpp.html#ae52b478bb7d30e6aaf8f0e6b4e526681" target="_top" xlink:title="Cycle slip detection and repair for dual&#45;frequency.">
<polygon fill="white" stroke="black" points="374.5,-418.5 374.5,-437.5 433.5,-437.5 433.5,-418.5 374.5,-418.5"/>
<text text-anchor="middle" x="404" y="-425.5" font-family="Helvetica,sans-Serif" font-size="10.00">cycleslip2</text>
</a>
</g>
</g>
<!-- Node1&#45;&gt;Node15 -->
<g id="edge11" class="edge">
<title>Node1&#45;&gt;Node15</title>
<path fill="none" stroke="midnightblue" d="M510.51,-314.71C504.38,-340.02 490.28,-383.67 462,-409 454.15,-416.03 443.63,-420.47 433.75,-423.27"/>
<polygon fill="midnightblue" stroke="midnightblue" points="513.96,-315.33 512.72,-304.8 507.12,-313.8 513.96,-315.33"/>
</g>
<!-- Node18 -->
<g id="node11" class="node">
<title>Node18</title>
<g id="a_node11"><a xlink:href="acsQC_8cpp.html#a50b9ebf4a56ec6edec979531b0515887" target="_top" xlink:title="Cycle slip detection and repair for triple&#45;frequency.">
<polygon fill="white" stroke="black" points="374.5,-380.5 374.5,-399.5 433.5,-399.5 433.5,-380.5 374.5,-380.5"/>
<text text-anchor="middle" x="404" y="-387.5" font-family="Helvetica,sans-Serif" font-size="10.00">cycleslip3</text>
</a>
</g>
</g>
<!-- Node1&#45;&gt;Node18 -->
<g id="edge13" class="edge">
<title>Node1&#45;&gt;Node18</title>
<path fill="none" stroke="midnightblue" d="M504.68,-313.39C495.47,-329.16 480.36,-351.56 462,-366 453.64,-372.57 443.23,-377.65 433.59,-381.41"/>
<polygon fill="midnightblue" stroke="midnightblue" points="507.8,-314.99 509.64,-304.55 501.69,-311.56 507.8,-314.99"/>
</g>
<!-- Node19 -->
<g id="node12" class="node">
<title>Node19</title>
<g id="a_node12"><a xlink:href="trop_8cpp.html#a080102fd2b8058490e933925884c4001" target="_top" xlink:title=" ">
<polygon fill="white" stroke="black" points="386.5,-304.5 386.5,-323.5 421.5,-323.5 421.5,-304.5 386.5,-304.5"/>
<text text-anchor="middle" x="404" y="-311.5" font-family="Helvetica,sans-Serif" font-size="10.00">gpt2</text>
</a>
</g>
</g>
<!-- Node1&#45;&gt;Node19 -->
<g id="edge15" class="edge">
<title>Node1&#45;&gt;Node19</title>
<path fill="none" stroke="midnightblue" d="M487.85,-299.62C467.26,-303.2 439.37,-308.04 421.79,-311.09"/>
<polygon fill="midnightblue" stroke="midnightblue" points="488.61,-303.04 497.87,-297.89 487.42,-296.15 488.61,-303.04"/>
</g>
<!-- Node23 -->
<g id="node15" class="node">
<title>Node23</title>
<g id="a_node15"><a xlink:href="jpl__eph_8cpp.html#a2c3f9479fbd059964429b4cf251357d3" target="_top" xlink:title=" ">
<polygon fill="white" stroke="black" points="383.5,-266.5 383.5,-285.5 424.5,-285.5 424.5,-266.5 383.5,-266.5"/>
<text text-anchor="middle" x="404" y="-273.5" font-family="Helvetica,sans-Serif" font-size="10.00">interp</text>
</a>
</g>
</g>
<!-- Node1&#45;&gt;Node23 -->
<g id="edge19" class="edge">
<title>Node1&#45;&gt;Node23</title>
<path fill="none" stroke="midnightblue" d="M487.81,-290.37C468.35,-286.99 442.39,-282.49 424.76,-279.43"/>
<polygon fill="midnightblue" stroke="midnightblue" points="487.42,-293.85 497.87,-292.11 488.61,-286.96 487.42,-293.85"/>
</g>
<!-- Node31 -->
<g id="node17" class="node">
<title>Node31</title>
<g id="a_node17"><a xlink:href="corrections_8cpp.html#abae235364162e6df2195cc74a3d4277a" target="_top" xlink:title=" ">
<polygon fill="white" stroke="black" points="381,-190.5 381,-209.5 427,-209.5 427,-190.5 381,-190.5"/>
<text text-anchor="middle" x="404" y="-197.5" font-family="Helvetica,sans-Serif" font-size="10.00">interpc</text>
</a>
</g>
</g>
<!-- Node1&#45;&gt;Node31 -->
<g id="edge21" class="edge">
<title>Node1&#45;&gt;Node31</title>
<path fill="none" stroke="midnightblue" d="M504.68,-276.61C495.47,-260.84 480.36,-238.44 462,-224 451.7,-215.9 438.27,-210.07 427.04,-206.19"/>
<polygon fill="midnightblue" stroke="midnightblue" points="501.69,-278.44 509.64,-285.45 507.8,-275.01 501.69,-278.44"/>
</g>
<!-- Node32 -->
<g id="node18" class="node">
<title>Node32</title>
<g id="a_node18"><a xlink:href="corrections_8cpp.html#a2ea2641272a527a2a8f0ba726b99ccb1" target="_top" xlink:title=" ">
<polygon fill="white" stroke="red" points="262.5,-209.5 262.5,-228.5 295.5,-228.5 295.5,-209.5 262.5,-209.5"/>
<text text-anchor="middle" x="279" y="-216.5" font-family="Helvetica,sans-Serif" font-size="10.00">nmf</text>
</a>
</g>
</g>
<!-- Node1&#45;&gt;Node32 -->
<g id="edge29" class="edge">
<title>Node1&#45;&gt;Node32</title>
<path fill="none" stroke="midnightblue" d="M496.11,-278.73C486.54,-271.07 474.29,-262.43 462,-257 404.13,-231.42 328.19,-222.74 295.77,-220.07"/>
<polygon fill="midnightblue" stroke="midnightblue" points="494.16,-281.66 504.07,-285.38 498.64,-276.29 494.16,-281.66"/>
</g>
<!-- Node39 -->
<g id="node19" class="node">
<title>Node39</title>
<g id="a_node19"><a xlink:href="ionoBSplines_8cpp.html#a7191290c90cc37c9496f5d31d307ca61" target="_top" xlink:title=" ">
<polygon fill="white" stroke="black" points="362,-152.5 362,-171.5 446,-171.5 446,-152.5 362,-152.5"/>
<text text-anchor="middle" x="404" y="-159.5" font-family="Helvetica,sans-Serif" font-size="10.00">ion_vtec_bsplin</text>
</a>
</g>
</g>
<!-- Node1&#45;&gt;Node39 -->
<g id="edge23" class="edge">
<title>Node1&#45;&gt;Node39</title>
<path fill="none" stroke="midnightblue" d="M510.51,-275.29C504.38,-249.98 490.28,-206.33 462,-181 457.42,-176.89 451.92,-173.67 446.17,-171.14"/>
<polygon fill="midnightblue" stroke="midnightblue" points="507.12,-276.2 512.72,-285.2 513.96,-274.67 507.12,-276.2"/>
</g>
<!-- Node44 -->
<g id="node21" class="node">
<title>Node44</title>
<g id="a_node21"><a xlink:href="ionoSphericalCaps_8cpp.html#a62ebf6ded93b9ee44029b2887c944b72" target="_top" xlink:title=" ">
<polygon fill="white" stroke="black" points="359,-114.5 359,-133.5 449,-133.5 449,-114.5 359,-114.5"/>
<text text-anchor="middle" x="404" y="-121.5" font-family="Helvetica,sans-Serif" font-size="10.00">ion_vtec_sphcap</text>
</a>
</g>
</g>
<!-- Node1&#45;&gt;Node44 -->
<g id="edge25" class="edge">
<title>Node1&#45;&gt;Node44</title>
<path fill="none" stroke="midnightblue" d="M513.11,-274.92C509.81,-242.7 498.77,-179.37 462,-143 458.07,-139.11 453.32,-136.02 448.27,-133.56"/>
<polygon fill="midnightblue" stroke="midnightblue" points="509.66,-275.62 514.01,-285.28 516.63,-275.02 509.66,-275.62"/>
</g>
<!-- Node45 -->
<g id="node22" class="node">
<title>Node45</title>
<g id="a_node22"><a xlink:href="ionoSpherical_8cpp.html#a282feb5c6b09fd90879de5cddaa123bc" target="_top" xlink:title=" ">
<polygon fill="white" stroke="black" points="360,-76.5 360,-95.5 448,-95.5 448,-76.5 360,-76.5"/>
<text text-anchor="middle" x="404" y="-83.5" font-family="Helvetica,sans-Serif" font-size="10.00">ion_vtec_sphhar</text>
</a>
</g>
</g>
<!-- Node1&#45;&gt;Node45 -->
<g id="edge27" class="edge">
<title>Node1&#45;&gt;Node45</title>
<path fill="none" stroke="midnightblue" d="M514.79,-274.87C514.22,-236.6 507.48,-152.91 462,-105 458.12,-100.91 453.34,-97.71 448.22,-95.19"/>
<polygon fill="midnightblue" stroke="midnightblue" points="511.29,-275.2 514.8,-285.19 518.29,-275.19 511.29,-275.2"/>
</g>
<!-- Node46 -->
<g id="node23" class="node">
<title>Node46</title>
<g id="a_node23"><a xlink:href="vmf3_8cpp.html#aac15381a34bd52a98936b30664f63af0" target="_top" xlink:title=" ">
<polygon fill="white" stroke="black" points="251.5,-342.5 251.5,-361.5 306.5,-361.5 306.5,-342.5 251.5,-342.5"/>
<text text-anchor="middle" x="279" y="-349.5" font-family="Helvetica,sans-Serif" font-size="10.00">tropvmf3</text>
</a>
</g>
</g>
<!-- Node1&#45;&gt;Node46 -->
<g id="edge30" class="edge">
<title>Node1&#45;&gt;Node46</title>
<path fill="none" stroke="midnightblue" d="M496.99,-311.26C487.39,-319.21 474.84,-328.09 462,-333 409.63,-353.03 342.96,-354.47 306.6,-353.44"/>
<polygon fill="midnightblue" stroke="midnightblue" points="499.35,-313.85 504.61,-304.65 494.76,-308.56 499.35,-313.85"/>
</g>
<!-- Node47 -->
<g id="node24" class="node">
<title>Node47</title>
<g id="a_node24"><a xlink:href="vmf3_8cpp.html#a374fb2ddda710d0ccca2a2fbd3fae151" target="_top" xlink:title=" ">
<polygon fill="white" stroke="black" points="370,-38.5 370,-57.5 438,-57.5 438,-38.5 370,-38.5"/>
<text text-anchor="middle" x="404" y="-45.5" font-family="Helvetica,sans-Serif" font-size="10.00">tropvmf3full</text>
</a>
</g>
</g>
<!-- Node1&#45;&gt;Node47 -->
<g id="edge32" class="edge">
<title>Node1&#45;&gt;Node47</title>
<path fill="none" stroke="midnightblue" d="M512.42,-275.15C506.83,-225.52 490.01,-97.82 462,-67 455.76,-60.13 446.96,-55.74 438.15,-52.94"/>
<polygon fill="midnightblue" stroke="midnightblue" points="508.95,-275.68 513.52,-285.24 515.91,-274.92 508.95,-275.68"/>
</g>
<!-- Node43 -->
<g id="node25" class="node">
<title>Node43</title>
<g id="a_node25"><a xlink:href="ionoModel_8cpp.html#ab85ac3f246b5ef9cc88aa9f195c441a3" target="_top" xlink:title=" ">
<polygon fill="white" stroke="red" points="346,-0.5 346,-19.5 462,-19.5 462,-0.5 346,-0.5"/>
<text text-anchor="middle" x="404" y="-7.5" font-family="Helvetica,sans-Serif" font-size="10.00">update_ionosph_model</text>
</a>
</g>
</g>
<!-- Node1&#45;&gt;Node43 -->
<g id="edge33" class="edge">
<title>Node1&#45;&gt;Node43</title>
<path fill="none" stroke="midnightblue" d="M513.14,-275.23C508.95,-220.03 494.53,-65.94 462,-29 458.55,-25.09 454.28,-21.98 449.63,-19.5"/>
<polygon fill="midnightblue" stroke="midnightblue" points="509.66,-275.71 513.88,-285.43 516.64,-275.2 509.66,-275.71"/>
</g>
<!-- Node3 -->
<g id="node3" class="node">
<title>Node3</title>
<g id="a_node3"><a xlink:href="GinAR__main_8cpp.html#a5d80c7f56e03c96dc400839ceca50698" target="_top" xlink:title="Ambiguity resolution for network solutions.">
<polygon fill="white" stroke="red" points="1.5,-503.5 1.5,-522.5 99.5,-522.5 99.5,-503.5 1.5,-503.5"/>
<text text-anchor="middle" x="50.5" y="-510.5" font-family="Helvetica,sans-Serif" font-size="10.00">networkAmbigResl</text>
</a>
</g>
</g>
<!-- Node2&#45;&gt;Node3 -->
<g id="edge2" class="edge">
<title>Node2&#45;&gt;Node3</title>
<path fill="none" stroke="midnightblue" d="M132.79,-487.68C116.3,-492.81 97.59,-498.64 82.28,-503.41"/>
<polygon fill="midnightblue" stroke="midnightblue" points="134.21,-490.9 142.71,-484.59 132.13,-484.22 134.21,-490.9"/>
</g>
<!-- Node6 -->
<g id="node4" class="node">
<title>Node6</title>
<g id="a_node4"><a xlink:href="GinAR__main_8cpp.html#a99547395860accf77f4d3dc4328cb139" target="_top" xlink:title="Ambiguity resolution on smoothed KF solutions.">
<polygon fill="white" stroke="red" points="0,-465.5 0,-484.5 101,-484.5 101,-465.5 0,-465.5"/>
<text text-anchor="middle" x="50.5" y="-472.5" font-family="Helvetica,sans-Serif" font-size="10.00">smoothdAmbigResl</text>
</a>
</g>
</g>
<!-- Node2&#45;&gt;Node6 -->
<g id="edge3" class="edge">
<title>Node2&#45;&gt;Node6</title>
<path fill="none" stroke="midnightblue" d="M127.19,-475C118.76,-475 109.94,-475 101.41,-475"/>
<polygon fill="midnightblue" stroke="midnightblue" points="127.23,-478.5 137.23,-475 127.23,-471.5 127.23,-478.5"/>
</g>
<!-- Node12 -->
<g id="node6" class="node">
<title>Node12</title>
<g id="a_node6"><a xlink:href="GinARNLamb_8cpp.html#a150b7e4a892320cadb8bfd4c813a1aca" target="_top" xlink:title="Update float ambiguity estimates.">
<polygon fill="white" stroke="black" points="137,-503.5 137,-522.5 212,-522.5 212,-503.5 137,-503.5"/>
<text text-anchor="middle" x="174.5" y="-510.5" font-family="Helvetica,sans-Serif" font-size="10.00">updat_ambigt</text>
</a>
</g>
</g>
<!-- Node11&#45;&gt;Node12 -->
<g id="edge5" class="edge">
<title>Node11&#45;&gt;Node12</title>
<path fill="none" stroke="midnightblue" d="M251.76,-555.41C233.17,-545.07 208.77,-531.5 192.63,-522.53"/>
<polygon fill="midnightblue" stroke="midnightblue" points="250.17,-558.53 260.61,-560.33 253.57,-552.41 250.17,-558.53"/>
</g>
<!-- Node12&#45;&gt;Node3 -->
<g id="edge6" class="edge">
<title>Node12&#45;&gt;Node3</title>
<path fill="none" stroke="midnightblue" d="M126.78,-513C117.95,-513 108.7,-513 99.82,-513"/>
<polygon fill="midnightblue" stroke="midnightblue" points="126.9,-516.5 136.9,-513 126.9,-509.5 126.9,-516.5"/>
</g>
<!-- Node12&#45;&gt;Node6 -->
<g id="edge7" class="edge">
<title>Node12&#45;&gt;Node6</title>
<path fill="none" stroke="midnightblue" d="M132.79,-500.32C116.3,-495.19 97.59,-489.36 82.28,-484.59"/>
<polygon fill="midnightblue" stroke="midnightblue" points="132.13,-503.78 142.71,-503.41 134.21,-497.1 132.13,-503.78"/>
</g>
<!-- Node13&#45;&gt;Node14 -->
<g id="edge9" class="edge">
<title>Node13&#45;&gt;Node14</title>
<path fill="none" stroke="midnightblue" d="M358.19,-507.28C342.21,-508.45 324.61,-509.74 310.15,-510.79"/>
<polygon fill="midnightblue" stroke="midnightblue" points="358.69,-510.75 368.41,-506.53 358.18,-503.77 358.69,-510.75"/>
</g>
<!-- Node14&#45;&gt;Node12 -->
<g id="edge10" class="edge">
<title>Node14&#45;&gt;Node12</title>
<path fill="none" stroke="midnightblue" d="M237.73,-513C229.25,-513 220.34,-513 212.01,-513"/>
<polygon fill="midnightblue" stroke="midnightblue" points="237.8,-516.5 247.8,-513 237.8,-509.5 237.8,-516.5"/>
</g>
<!-- Node16 -->
<g id="node10" class="node">
<title>Node16</title>
<g id="a_node10"><a xlink:href="acsQC_8cpp.html#a099d227578f6d7896777651aca60fe1b" target="_top" xlink:title="Cycle slip detection and repair.">
<polygon fill="white" stroke="red" points="249.5,-399.5 249.5,-418.5 308.5,-418.5 308.5,-399.5 249.5,-399.5"/>
<text text-anchor="middle" x="279" y="-406.5" font-family="Helvetica,sans-Serif" font-size="10.00">detectslip</text>
</a>
</g>
</g>
<!-- Node15&#45;&gt;Node16 -->
<g id="edge12" class="edge">
<title>Node15&#45;&gt;Node16</title>
<path fill="none" stroke="midnightblue" d="M364.55,-422.06C346.53,-419.28 325.42,-416.02 308.8,-413.45"/>
<polygon fill="midnightblue" stroke="midnightblue" points="364.06,-425.53 374.47,-423.59 365.12,-418.61 364.06,-425.53"/>
</g>
<!-- Node18&#45;&gt;Node16 -->
<g id="edge14" class="edge">
<title>Node18&#45;&gt;Node16</title>
<path fill="none" stroke="midnightblue" d="M364.55,-395.94C346.53,-398.72 325.42,-401.98 308.8,-404.55"/>
<polygon fill="midnightblue" stroke="midnightblue" points="365.12,-399.39 374.47,-394.41 364.06,-392.47 365.12,-399.39"/>
</g>
<!-- Node20 -->
<g id="node13" class="node">
<title>Node20</title>
<g id="a_node13"><a xlink:href="trop_8cpp.html#a03d997bedee830fba97d759d43ff1443" target="_top" xlink:title="Troposphere zenith hydrastatic delay and mapping function.">
<polygon fill="white" stroke="black" points="256,-304.5 256,-323.5 302,-323.5 302,-304.5 256,-304.5"/>
<text text-anchor="middle" x="279" y="-311.5" font-family="Helvetica,sans-Serif" font-size="10.00">tropztd</text>
</a>
</g>
</g>
<!-- Node19&#45;&gt;Node20 -->
<g id="edge16" class="edge">
<title>Node19&#45;&gt;Node20</title>
<path fill="none" stroke="midnightblue" d="M376.33,-314C354.15,-314 322.95,-314 302.14,-314"/>
<polygon fill="midnightblue" stroke="midnightblue" points="376.41,-317.5 386.41,-314 376.41,-310.5 376.41,-317.5"/>
</g>
<!-- Node21 -->
<g id="node14" class="node">
<title>Node21</title>
<g id="a_node14"><a xlink:href="ppp__network_8cpp.html#a8841c4de50d731334b0aa349d64a2985" target="_top" xlink:title=" ">
<polygon fill="white" stroke="red" points="150,-323.5 150,-342.5 199,-342.5 199,-323.5 150,-323.5"/>
<text text-anchor="middle" x="174.5" y="-330.5" font-family="Helvetica,sans-Serif" font-size="10.00">resomc</text>
</a>
</g>
</g>
<!-- Node20&#45;&gt;Node21 -->
<g id="edge17" class="edge">
<title>Node20&#45;&gt;Node21</title>
<path fill="none" stroke="midnightblue" d="M245.78,-319.97C230.67,-322.77 212.98,-326.05 199.12,-328.62"/>
<polygon fill="midnightblue" stroke="midnightblue" points="246.56,-323.39 255.76,-318.12 245.29,-316.5 246.56,-323.39"/>
</g>
<!-- Node24 -->
<g id="node16" class="node">
<title>Node24</title>
<g id="a_node16"><a xlink:href="jpl__eph_8cpp.html#a665d2b922b9b722e69a60d7519a95426" target="_top" xlink:title=" ">
<polygon fill="white" stroke="red" points="252.5,-266.5 252.5,-285.5 305.5,-285.5 305.5,-266.5 252.5,-266.5"/>
<text text-anchor="middle" x="279" y="-273.5" font-family="Helvetica,sans-Serif" font-size="10.00">jpl_state</text>
</a>
</g>
</g>
<!-- Node23&#45;&gt;Node24 -->
<g id="edge20" class="edge">
<title>Node23&#45;&gt;Node24</title>
<path fill="none" stroke="midnightblue" d="M373.12,-276C352.5,-276 325.35,-276 305.7,-276"/>
<polygon fill="midnightblue" stroke="midnightblue" points="373.24,-279.5 383.24,-276 373.24,-272.5 373.24,-279.5"/>
</g>
<!-- Node31&#45;&gt;Node32 -->
<g id="edge22" class="edge">
<title>Node31&#45;&gt;Node32</title>
<path fill="none" stroke="midnightblue" d="M370.6,-205C346.51,-208.73 314.67,-213.65 295.85,-216.55"/>
<polygon fill="midnightblue" stroke="midnightblue" points="371.38,-208.43 380.73,-203.44 370.31,-201.51 371.38,-208.43"/>
</g>
<!-- Node40 -->
<g id="node20" class="node">
<title>Node40</title>
<g id="a_node20"><a xlink:href="ionexWrite_8cpp.html#a9f946c742979e6f65a280d6f0c0a8cc6" target="_top" xlink:title=" ">
<polygon fill="white" stroke="red" points="252.5,-114.5 252.5,-133.5 305.5,-133.5 305.5,-114.5 252.5,-114.5"/>
<text text-anchor="middle" x="279" y="-121.5" font-family="Helvetica,sans-Serif" font-size="10.00">ion_vtec</text>
</a>
</g>
</g>
<!-- Node39&#45;&gt;Node40 -->
<g id="edge24" class="edge">
<title>Node39&#45;&gt;Node40</title>
<path fill="none" stroke="midnightblue" d="M362.22,-149.4C343.55,-143.63 321.99,-136.97 305.64,-131.92"/>
<polygon fill="midnightblue" stroke="midnightblue" points="361.37,-152.8 371.96,-152.41 363.44,-146.12 361.37,-152.8"/>
</g>
<!-- Node44&#45;&gt;Node40 -->
<g id="edge26" class="edge">
<title>Node44&#45;&gt;Node40</title>
<path fill="none" stroke="midnightblue" d="M348.68,-124C333.65,-124 318.05,-124 305.52,-124"/>
<polygon fill="midnightblue" stroke="midnightblue" points="348.94,-127.5 358.94,-124 348.94,-120.5 348.94,-127.5"/>
</g>
<!-- Node45&#45;&gt;Node40 -->
<g id="edge28" class="edge">
<title>Node45&#45;&gt;Node40</title>
<path fill="none" stroke="midnightblue" d="M362.22,-98.6C343.55,-104.37 321.99,-111.03 305.64,-116.08"/>
<polygon fill="midnightblue" stroke="midnightblue" points="363.44,-101.88 371.96,-95.59 361.37,-95.2 363.44,-101.88"/>
</g>
<!-- Node46&#45;&gt;Node21 -->
<g id="edge31" class="edge">
<title>Node46&#45;&gt;Node21</title>
<path fill="none" stroke="midnightblue" d="M241.46,-345.23C227.42,-342.62 211.77,-339.72 199.23,-337.4"/>
<polygon fill="midnightblue" stroke="midnightblue" points="240.87,-348.68 251.34,-347.06 242.14,-341.79 240.87,-348.68"/>
</g>
</g>
</svg>
