<?xml version="1.0" encoding="UTF-8" standalone="no"?>
<!DOCTYPE svg PUBLIC "-//W3C//DTD SVG 1.1//EN"
 "http://www.w3.org/Graphics/SVG/1.1/DTD/svg11.dtd">
<!-- Generated by graphviz version 2.50.0 (20220203.2022)
 -->
<!-- Title: setTropSolsFromFilter Pages: 1 -->
<svg width="381pt" height="104pt"
 viewBox="0.00 0.00 381.00 104.00" xmlns="http://www.w3.org/2000/svg" xmlns:xlink="http://www.w3.org/1999/xlink">
<g id="graph0" class="graph" transform="scale(1 1) rotate(0) translate(4 100)">
<title>setTropSolsFromFilter</title>
<polygon fill="white" stroke="transparent" points="-4,4 -4,-100 377,-100 377,4 -4,4"/>
<!-- Node1 -->
<g id="node1" class="node">
<title>Node1</title>
<g id="a_node1"><a xlink:title="Set troposphere solution data from filter.">
<polygon fill="#bfbfbf" stroke="black" points="0,-38.5 0,-57.5 113,-57.5 113,-38.5 0,-38.5"/>
<text text-anchor="middle" x="56.5" y="-45.5" font-family="Helvetica,sans-Serif" font-size="10.00">setTropSolsFromFilter</text>
</a>
</g>
</g>
<!-- Node2 -->
<g id="node2" class="node">
<title>Node2</title>
<g id="a_node2"><a xlink:href="rtkcmn_8cpp.html#ae91d83cf693cdc7e1efacbe4d8d9656e" target="_top" xlink:title=" ">
<polygon fill="white" stroke="black" points="175,-76.5 175,-95.5 231,-95.5 231,-76.5 175,-76.5"/>
<text text-anchor="middle" x="203" y="-83.5" font-family="Helvetica,sans-Serif" font-size="10.00">ecef2pos</text>
</a>
</g>
</g>
<!-- Node1&#45;&gt;Node2 -->
<g id="edge1" class="edge">
<title>Node1&#45;&gt;Node2</title>
<path fill="none" stroke="midnightblue" d="M93.96,-57.59C115.62,-63.28 143.01,-70.49 164.79,-76.21"/>
<polygon fill="midnightblue" stroke="midnightblue" points="164.11,-79.65 174.67,-78.81 165.89,-72.89 164.11,-79.65"/>
</g>
<!-- Node3 -->
<g id="node3" class="node">
<title>Node3</title>
<g id="a_node3"><a xlink:href="structKFState.html#a84691f6bbbe3cdccaa14722995a61e1b" target="_top" xlink:title="Returns the value and variance of a state within the kalman filter object.">
<polygon fill="white" stroke="black" points="149,-38.5 149,-57.5 257,-57.5 257,-38.5 149,-38.5"/>
<text text-anchor="middle" x="203" y="-45.5" font-family="Helvetica,sans-Serif" font-size="10.00">KFState::getKFValue</text>
</a>
</g>
</g>
<!-- Node1&#45;&gt;Node3 -->
<g id="edge2" class="edge">
<title>Node1&#45;&gt;Node3</title>
<path fill="none" stroke="midnightblue" d="M113.37,-48C121.61,-48 130.15,-48 138.54,-48"/>
<polygon fill="midnightblue" stroke="midnightblue" points="138.65,-51.5 148.65,-48 138.65,-44.5 138.65,-51.5"/>
</g>
<!-- Node4 -->
<g id="node4" class="node">
<title>Node4</title>
<g id="a_node4"><a xlink:href="corrections_8cpp.html#afa38d01050a10a76e1eb6d0650cd9b31" target="_top" xlink:title="troposphere zhd for acs.">
<polygon fill="white" stroke="black" points="178.5,-0.5 178.5,-19.5 227.5,-19.5 227.5,-0.5 178.5,-0.5"/>
<text text-anchor="middle" x="203" y="-7.5" font-family="Helvetica,sans-Serif" font-size="10.00">tropacs</text>
</a>
</g>
</g>
<!-- Node1&#45;&gt;Node4 -->
<g id="edge3" class="edge">
<title>Node1&#45;&gt;Node4</title>
<path fill="none" stroke="midnightblue" d="M93.96,-38.41C116.87,-32.39 146.21,-24.67 168.53,-18.8"/>
<polygon fill="midnightblue" stroke="midnightblue" points="169.46,-22.18 178.24,-16.25 167.68,-15.41 169.46,-22.18"/>
</g>
<!-- Node5 -->
<g id="node5" class="node">
<title>Node5</title>
<g id="a_node5"><a xlink:href="namespacepod__yaml.html#a59ea539cabb34ef7985e7e57c4b9dd93" target="_top" xlink:title=" ">
<polygon fill="white" stroke="black" points="293,-0.5 293,-19.5 373,-19.5 373,-0.5 293,-0.5"/>
<text text-anchor="middle" x="333" y="-7.5" font-family="Helvetica,sans-Serif" font-size="10.00">pod_yaml::pow</text>
</a>
</g>
</g>
<!-- Node4&#45;&gt;Node5 -->
<g id="edge4" class="edge">
<title>Node4&#45;&gt;Node5</title>
<path fill="none" stroke="midnightblue" d="M227.78,-10C243.15,-10 263.73,-10 282.54,-10"/>
<polygon fill="midnightblue" stroke="midnightblue" points="282.76,-13.5 292.76,-10 282.76,-6.5 282.76,-13.5"/>
</g>
<!-- Node5&#45;&gt;Node5 -->
<g id="edge5" class="edge">
<title>Node5&#45;&gt;Node5</title>
<path fill="none" stroke="midnightblue" d="M312.96,-19.76C303.22,-28.57 309.89,-38 333,-38 347.8,-38 355.86,-34.13 357.18,-29.03"/>
<polygon fill="midnightblue" stroke="midnightblue" points="360.31,-27.46 353.04,-19.76 353.92,-30.31 360.31,-27.46"/>
</g>
</g>
</svg>
