<?xml version="1.0" encoding="UTF-8" standalone="no"?>
<!DOCTYPE svg PUBLIC "-//W3C//DTD SVG 1.1//EN"
 "http://www.w3.org/Graphics/SVG/1.1/DTD/svg11.dtd">
<!-- Generated by graphviz version 2.50.0 (20220203.2022)
 -->
<!-- Title: createTracefiles Pages: 1 -->
<svg width="455pt" height="122pt"
 viewBox="0.00 0.00 455.00 122.00" xmlns="http://www.w3.org/2000/svg" xmlns:xlink="http://www.w3.org/1999/xlink">
<g id="graph0" class="graph" transform="scale(1 1) rotate(0) translate(4 118)">
<title>createTracefiles</title>
<polygon fill="white" stroke="transparent" points="-4,4 -4,-118 451,-118 451,4 -4,4"/>
<!-- Node1 -->
<g id="node1" class="node">
<title>Node1</title>
<g id="a_node1"><a xlink:title="Create new empty trace files only when required when the filename is changed.">
<polygon fill="#bfbfbf" stroke="black" points="0,-28.5 0,-47.5 86,-47.5 86,-28.5 0,-28.5"/>
<text text-anchor="middle" x="43" y="-35.5" font-family="Helvetica,sans-Serif" font-size="10.00">createTracefiles</text>
</a>
</g>
</g>
<!-- Node2 -->
<g id="node2" class="node">
<title>Node2</title>
<g id="a_node2"><a xlink:href="uploadMain_8cpp.html#a0713f4c2d1dcfa5e593addca4ee909b6" target="_top" xlink:title=" ">
<polygon fill="white" stroke="black" points="122,-56.5 122,-75.5 226,-75.5 226,-56.5 122,-56.5"/>
<text text-anchor="middle" x="174" y="-63.5" font-family="Helvetica,sans-Serif" font-size="10.00">createNewTraceFile</text>
</a>
</g>
</g>
<!-- Node1&#45;&gt;Node2 -->
<g id="edge1" class="edge">
<title>Node1&#45;&gt;Node2</title>
<path fill="none" stroke="midnightblue" d="M86.24,-47.17C96.7,-49.44 108.06,-51.9 119,-54.28"/>
<polygon fill="midnightblue" stroke="midnightblue" points="118.38,-57.73 128.89,-56.43 119.86,-50.88 118.38,-57.73"/>
</g>
<!-- Node6 -->
<g id="node6" class="node">
<title>Node6</title>
<g id="a_node6"><a xlink:href="structGTime.html#a7ed28cc28b05a43069702e96295be269" target="_top" xlink:title=" ">
<polygon fill="white" stroke="black" points="126,-0.5 126,-19.5 222,-19.5 222,-0.5 126,-0.5"/>
<text text-anchor="middle" x="174" y="-7.5" font-family="Helvetica,sans-Serif" font-size="10.00">GTime::roundTime</text>
</a>
</g>
</g>
<!-- Node1&#45;&gt;Node6 -->
<g id="edge6" class="edge">
<title>Node1&#45;&gt;Node6</title>
<path fill="none" stroke="midnightblue" d="M86.24,-28.83C96.7,-26.56 108.06,-24.1 119,-21.72"/>
<polygon fill="midnightblue" stroke="midnightblue" points="119.86,-25.12 128.89,-19.57 118.38,-18.27 119.86,-25.12"/>
</g>
<!-- Node3 -->
<g id="node3" class="node">
<title>Node3</title>
<g id="a_node3"><a xlink:href="acsConfig_8cpp.html#a5566b10148341d277d15949c7669cfd5" target="_top" xlink:title=" ">
<polygon fill="white" stroke="black" points="265.5,-94.5 265.5,-113.5 333.5,-113.5 333.5,-94.5 265.5,-94.5"/>
<text text-anchor="middle" x="299.5" y="-101.5" font-family="Helvetica,sans-Serif" font-size="10.00">dumpConfig</text>
</a>
</g>
</g>
<!-- Node2&#45;&gt;Node3 -->
<g id="edge2" class="edge">
<title>Node2&#45;&gt;Node3</title>
<path fill="none" stroke="midnightblue" d="M206.16,-75.59C221.81,-80.4 240.97,-86.3 257.77,-91.47"/>
<polygon fill="midnightblue" stroke="midnightblue" points="256.76,-94.82 267.35,-94.41 258.82,-88.13 256.76,-94.82"/>
</g>
<!-- Node4 -->
<g id="node4" class="node">
<title>Node4</title>
<g id="a_node4"><a xlink:href="acsConfig_8cpp.html#a4384ae3d8da08f4e8562857e46291559" target="_top" xlink:title="search for and replace section of string">
<polygon fill="white" stroke="black" points="373,-37.5 373,-56.5 447,-56.5 447,-37.5 373,-37.5"/>
<text text-anchor="middle" x="410" y="-44.5" font-family="Helvetica,sans-Serif" font-size="10.00">replaceString</text>
</a>
</g>
</g>
<!-- Node2&#45;&gt;Node4 -->
<g id="edge3" class="edge">
<title>Node2&#45;&gt;Node4</title>
<path fill="none" stroke="midnightblue" d="M226.06,-61.85C266.8,-58.55 323.37,-53.95 362.78,-50.75"/>
<polygon fill="midnightblue" stroke="midnightblue" points="363.23,-54.23 372.91,-49.93 362.66,-47.25 363.23,-54.23"/>
</g>
<!-- Node5 -->
<g id="node5" class="node">
<title>Node5</title>
<g id="a_node5"><a xlink:href="acsConfig_8cpp.html#a75a34dc41e76a8680e3aa6d62ff4c800" target="_top" xlink:title="Replace macros for times with numeric values.">
<polygon fill="white" stroke="black" points="262,-18.5 262,-37.5 337,-37.5 337,-18.5 262,-18.5"/>
<text text-anchor="middle" x="299.5" y="-25.5" font-family="Helvetica,sans-Serif" font-size="10.00">replaceTimes</text>
</a>
</g>
</g>
<!-- Node2&#45;&gt;Node5 -->
<g id="edge4" class="edge">
<title>Node2&#45;&gt;Node5</title>
<path fill="none" stroke="midnightblue" d="M206.16,-56.41C221.81,-51.6 240.97,-45.7 257.77,-40.53"/>
<polygon fill="midnightblue" stroke="midnightblue" points="258.82,-43.87 267.35,-37.59 256.76,-37.18 258.82,-43.87"/>
</g>
<!-- Node5&#45;&gt;Node4 -->
<g id="edge5" class="edge">
<title>Node5&#45;&gt;Node4</title>
<path fill="none" stroke="midnightblue" d="M337.23,-34.43C345.45,-35.87 354.27,-37.42 362.82,-38.91"/>
<polygon fill="midnightblue" stroke="midnightblue" points="362.22,-42.36 372.67,-40.64 363.43,-35.47 362.22,-42.36"/>
</g>
<!-- Node6&#45;&gt;Node6 -->
<g id="edge7" class="edge">
<title>Node6&#45;&gt;Node6</title>
<path fill="none" stroke="midnightblue" d="M154.89,-19.76C145.59,-28.57 151.96,-38 174,-38 188.12,-38 195.81,-34.13 197.07,-29.03"/>
<polygon fill="midnightblue" stroke="midnightblue" points="200.25,-27.58 193.11,-19.76 193.81,-30.33 200.25,-27.58"/>
</g>
</g>
</svg>
