<?xml version="1.0" encoding="UTF-8" standalone="no"?>
<!DOCTYPE svg PUBLIC "-//W3C//DTD SVG 1.1//EN"
 "http://www.w3.org/Graphics/SVG/1.1/DTD/svg11.dtd">
<!-- Generated by graphviz version 2.50.0 (20220203.2022)
 -->
<!-- Title: /github/workspace/src/cpp/loading/utils.h Pages: 1 -->
<svg width="558pt" height="117pt"
 viewBox="0.00 0.00 558.00 117.00" xmlns="http://www.w3.org/2000/svg" xmlns:xlink="http://www.w3.org/1999/xlink">
<g id="graph0" class="graph" transform="scale(1 1) rotate(0) translate(4 113)">
<title>/github/workspace/src/cpp/loading/utils.h</title>
<polygon fill="white" stroke="transparent" points="-4,4 -4,-113 554,-113 554,4 -4,4"/>
<!-- Node1 -->
<g id="node1" class="node">
<title>Node1</title>
<g id="a_node1"><a xlink:title=" ">
<polygon fill="#bfbfbf" stroke="black" points="230,-78.5 230,-108.5 343,-108.5 343,-78.5 230,-78.5"/>
<text text-anchor="start" x="238" y="-96.5" font-family="Helvetica,sans-Serif" font-size="10.00">/github/workspace/src</text>
<text text-anchor="middle" x="286.5" y="-85.5" font-family="Helvetica,sans-Serif" font-size="10.00">/cpp/loading/utils.h</text>
</a>
</g>
</g>
<!-- Node2 -->
<g id="node2" class="node">
<title>Node2</title>
<g id="a_node2"><a xlink:href="interpolate__loading_8cpp.html" target="_top" xlink:title=" ">
<polygon fill="white" stroke="black" points="0,-0.5 0,-41.5 117,-41.5 117,-0.5 0,-0.5"/>
<text text-anchor="start" x="8" y="-29.5" font-family="Helvetica,sans-Serif" font-size="10.00">/github/workspace/src</text>
<text text-anchor="start" x="8" y="-18.5" font-family="Helvetica,sans-Serif" font-size="10.00">/cpp/loading/interpolate</text>
<text text-anchor="middle" x="58.5" y="-7.5" font-family="Helvetica,sans-Serif" font-size="10.00">_loading.cpp</text>
</a>
</g>
</g>
<!-- Node1&#45;&gt;Node2 -->
<g id="edge1" class="edge">
<title>Node1&#45;&gt;Node2</title>
<path fill="none" stroke="midnightblue" d="M231.26,-75.42C196.74,-64.74 152.31,-51.01 117.16,-40.14"/>
<polygon fill="midnightblue" stroke="midnightblue" points="230.59,-78.88 241.18,-78.49 232.66,-72.19 230.59,-78.88"/>
</g>
<!-- Node3 -->
<g id="node3" class="node">
<title>Node3</title>
<g id="a_node3"><a xlink:href="load__functions_8cpp.html" target="_top" xlink:title=" ">
<polygon fill="white" stroke="black" points="135,-6 135,-36 288,-36 288,-6 135,-6"/>
<text text-anchor="start" x="143" y="-24" font-family="Helvetica,sans-Serif" font-size="10.00">/github/workspace/src</text>
<text text-anchor="middle" x="211.5" y="-13" font-family="Helvetica,sans-Serif" font-size="10.00">/cpp/loading/load_functions.cpp</text>
</a>
</g>
</g>
<!-- Node1&#45;&gt;Node3 -->
<g id="edge2" class="edge">
<title>Node1&#45;&gt;Node3</title>
<path fill="none" stroke="midnightblue" d="M263.78,-71.14C251.65,-59.74 237.08,-46.04 226.4,-36"/>
<polygon fill="midnightblue" stroke="midnightblue" points="261.64,-73.93 271.32,-78.23 266.43,-68.83 261.64,-73.93"/>
</g>
<!-- Node4 -->
<g id="node4" class="node">
<title>Node4</title>
<g id="a_node4"><a xlink:href="make__otl__blq_8cpp.html" target="_top" xlink:title="Program to compute the ocean tide loading from a tide grid.">
<polygon fill="white" stroke="black" points="306,-0.5 306,-41.5 419,-41.5 419,-0.5 306,-0.5"/>
<text text-anchor="start" x="314" y="-29.5" font-family="Helvetica,sans-Serif" font-size="10.00">/github/workspace/src</text>
<text text-anchor="start" x="314" y="-18.5" font-family="Helvetica,sans-Serif" font-size="10.00">/cpp/loading/make_otl</text>
<text text-anchor="middle" x="362.5" y="-7.5" font-family="Helvetica,sans-Serif" font-size="10.00">_blq.cpp</text>
</a>
</g>
</g>
<!-- Node1&#45;&gt;Node4 -->
<g id="edge3" class="edge">
<title>Node1&#45;&gt;Node4</title>
<path fill="none" stroke="midnightblue" d="M309.27,-71.38C319.46,-61.93 331.4,-50.85 341.38,-41.59"/>
<polygon fill="midnightblue" stroke="midnightblue" points="306.83,-68.87 301.88,-78.23 311.59,-74 306.83,-68.87"/>
</g>
<!-- Node5 -->
<g id="node5" class="node">
<title>Node5</title>
<g id="a_node5"><a xlink:href="utils_8cpp.html" target="_top" xlink:title=" ">
<polygon fill="white" stroke="black" points="437,-6 437,-36 550,-36 550,-6 437,-6"/>
<text text-anchor="start" x="445" y="-24" font-family="Helvetica,sans-Serif" font-size="10.00">/github/workspace/src</text>
<text text-anchor="middle" x="493.5" y="-13" font-family="Helvetica,sans-Serif" font-size="10.00">/cpp/loading/utils.cpp</text>
</a>
</g>
</g>
<!-- Node1&#45;&gt;Node5 -->
<g id="edge4" class="edge">
<title>Node1&#45;&gt;Node5</title>
<path fill="none" stroke="midnightblue" d="M337.53,-75.12C372.83,-63.1 419.2,-47.31 452.18,-36.07"/>
<polygon fill="midnightblue" stroke="midnightblue" points="336.23,-71.87 327.89,-78.4 338.49,-78.49 336.23,-71.87"/>
</g>
</g>
</svg>
