<?xml version="1.0" encoding="UTF-8" standalone="no"?>
<!DOCTYPE svg PUBLIC "-//W3C//DTD SVG 1.1//EN"
 "http://www.w3.org/Graphics/SVG/1.1/DTD/svg11.dtd">
<!-- Generated by graphviz version 2.50.0 (20220203.2022)
 -->
<!-- Title: readvmf3 Pages: 1 -->
<svg width="297pt" height="104pt"
 viewBox="0.00 0.00 297.00 104.00" xmlns="http://www.w3.org/2000/svg" xmlns:xlink="http://www.w3.org/1999/xlink">
<g id="graph0" class="graph" transform="scale(1 1) rotate(0) translate(4 100)">
<title>readvmf3</title>
<polygon fill="white" stroke="transparent" points="-4,4 -4,-100 293,-100 293,4 -4,4"/>
<!-- Node1 -->
<g id="node1" class="node">
<title>Node1</title>
<g id="a_node1"><a xlink:title=" ">
<polygon fill="#bfbfbf" stroke="black" points="232,-38.5 232,-57.5 289,-57.5 289,-38.5 232,-38.5"/>
<text text-anchor="middle" x="260.5" y="-45.5" font-family="Helvetica,sans-Serif" font-size="10.00">readvmf3</text>
</a>
</g>
</g>
<!-- Node2 -->
<g id="node2" class="node">
<title>Node2</title>
<g id="a_node2"><a xlink:href="vmf3_8cpp.html#a096a5332958045c692cb7581ee384649" target="_top" xlink:title=" ">
<polygon fill="white" stroke="black" points="118,-76.5 118,-95.5 196,-95.5 196,-76.5 118,-76.5"/>
<text text-anchor="middle" x="157" y="-83.5" font-family="Helvetica,sans-Serif" font-size="10.00">readvmf3grids</text>
</a>
</g>
</g>
<!-- Node1&#45;&gt;Node2 -->
<g id="edge1" class="edge">
<title>Node1&#45;&gt;Node2</title>
<path fill="none" stroke="midnightblue" d="M224.46,-61.12C211.04,-66.14 195.98,-71.78 183.6,-76.41"/>
<polygon fill="midnightblue" stroke="midnightblue" points="225.75,-64.37 233.89,-57.59 223.29,-57.82 225.75,-64.37"/>
</g>
<!-- Node3 -->
<g id="node3" class="node">
<title>Node3</title>
<g id="a_node3"><a xlink:href="vmf3_8cpp.html#a374fb2ddda710d0ccca2a2fbd3fae151" target="_top" xlink:title=" ">
<polygon fill="white" stroke="black" points="123,-38.5 123,-57.5 191,-57.5 191,-38.5 123,-38.5"/>
<text text-anchor="middle" x="157" y="-45.5" font-family="Helvetica,sans-Serif" font-size="10.00">tropvmf3full</text>
</a>
</g>
</g>
<!-- Node1&#45;&gt;Node3 -->
<g id="edge2" class="edge">
<title>Node1&#45;&gt;Node3</title>
<path fill="none" stroke="midnightblue" d="M221.65,-48C211.62,-48 200.87,-48 191.11,-48"/>
<polygon fill="midnightblue" stroke="midnightblue" points="221.76,-51.5 231.76,-48 221.76,-44.5 221.76,-51.5"/>
</g>
<!-- Node4 -->
<g id="node4" class="node">
<title>Node4</title>
<g id="a_node4"><a xlink:href="vmf3_8cpp.html#a7b5e56ac28f7f16ddb29c02ab2f8a77c" target="_top" xlink:title=" ">
<polygon fill="white" stroke="black" points="135.5,-0.5 135.5,-19.5 178.5,-19.5 178.5,-0.5 135.5,-0.5"/>
<text text-anchor="middle" x="157" y="-7.5" font-family="Helvetica,sans-Serif" font-size="10.00">udgrid</text>
</a>
</g>
</g>
<!-- Node1&#45;&gt;Node4 -->
<g id="edge3" class="edge">
<title>Node1&#45;&gt;Node4</title>
<path fill="none" stroke="midnightblue" d="M224.28,-34.81C209.12,-29.14 191.91,-22.69 178.82,-17.8"/>
<polygon fill="midnightblue" stroke="midnightblue" points="223.29,-38.18 233.89,-38.41 225.75,-31.63 223.29,-38.18"/>
</g>
<!-- Node5 -->
<g id="node5" class="node">
<title>Node5</title>
<g id="a_node5"><a xlink:href="main_8cpp.html#a5cb00ded83c966f68284b841c381d1f0" target="_top" xlink:title=" ">
<polygon fill="white" stroke="red" points="0,-0.5 0,-19.5 82,-19.5 82,-0.5 0,-0.5"/>
<text text-anchor="middle" x="41" y="-7.5" font-family="Helvetica,sans-Serif" font-size="10.00">avoidCollisions</text>
</a>
</g>
</g>
<!-- Node4&#45;&gt;Node5 -->
<g id="edge4" class="edge">
<title>Node4&#45;&gt;Node5</title>
<path fill="none" stroke="midnightblue" d="M125.35,-10C112.13,-10 96.48,-10 82.33,-10"/>
<polygon fill="midnightblue" stroke="midnightblue" points="125.36,-13.5 135.36,-10 125.36,-6.5 125.36,-13.5"/>
</g>
</g>
</svg>
