<?xml version="1.0" encoding="UTF-8" standalone="no"?>
<!DOCTYPE svg PUBLIC "-//W3C//DTD SVG 1.1//EN"
 "http://www.w3.org/Graphics/SVG/1.1/DTD/svg11.dtd">
<!-- Generated by graphviz version 2.50.0 (20220203.2022)
 -->
<!-- Title: write_prmfile2 Pages: 1 -->
<svg width="255pt" height="47pt"
 viewBox="0.00 0.00 255.00 47.00" xmlns="http://www.w3.org/2000/svg" xmlns:xlink="http://www.w3.org/1999/xlink">
<g id="graph0" class="graph" transform="scale(1 1) rotate(0) translate(4 43)">
<title>write_prmfile2</title>
<polygon fill="white" stroke="transparent" points="-4,4 -4,-43 251,-43 251,4 -4,4"/>
<!-- Node1 -->
<g id="node1" class="node">
<title>Node1</title>
<g id="a_node1"><a xlink:title=" ">
<polygon fill="#bfbfbf" stroke="black" points="0,-19.5 0,-38.5 77,-38.5 77,-19.5 0,-19.5"/>
<text text-anchor="middle" x="38.5" y="-26.5" font-family="Helvetica,sans-Serif" font-size="10.00">write_prmfile2</text>
</a>
</g>
</g>
<!-- Node2 -->
<g id="node2" class="node">
<title>Node2</title>
<g id="a_node2"><a xlink:href="sinex_8cpp.html#a06fabc81a2cc41dfee260450a527ad2d" target="_top" xlink:title=" ">
<polygon fill="white" stroke="black" points="214,-19.5 214,-38.5 247,-38.5 247,-19.5 214,-19.5"/>
<text text-anchor="middle" x="230.5" y="-26.5" font-family="Helvetica,sans-Serif" font-size="10.00">trim</text>
</a>
</g>
</g>
<!-- Node1&#45;&gt;Node2 -->
<g id="edge1" class="edge">
<title>Node1&#45;&gt;Node2</title>
<path fill="none" stroke="midnightblue" d="M77.04,-29C114.54,-29 171.19,-29 203.84,-29"/>
<polygon fill="midnightblue" stroke="midnightblue" points="203.93,-32.5 213.93,-29 203.93,-25.5 203.93,-32.5"/>
</g>
<!-- Node3 -->
<g id="node3" class="node">
<title>Node3</title>
<g id="a_node3"><a xlink:href="writeparam_8f95.html#abb9f5fe056f4fd169ce91505e5a4fc24" target="_top" xlink:title=" ">
<polygon fill="white" stroke="black" points="113,-0.5 113,-19.5 178,-19.5 178,-0.5 113,-0.5"/>
<text text-anchor="middle" x="145.5" y="-7.5" font-family="Helvetica,sans-Serif" font-size="10.00">writeparam</text>
</a>
</g>
</g>
<!-- Node1&#45;&gt;Node3 -->
<g id="edge2" class="edge">
<title>Node1&#45;&gt;Node3</title>
<path fill="none" stroke="midnightblue" d="M77.11,-22.19C85.39,-20.7 94.22,-19.1 102.66,-17.57"/>
<polygon fill="midnightblue" stroke="midnightblue" points="103.48,-20.98 112.7,-15.75 102.23,-14.09 103.48,-20.98"/>
</g>
<!-- Node3&#45;&gt;Node2 -->
<g id="edge3" class="edge">
<title>Node3&#45;&gt;Node2</title>
<path fill="none" stroke="midnightblue" d="M178.35,-17.29C186.74,-19.21 195.69,-21.26 203.72,-23.1"/>
<polygon fill="midnightblue" stroke="midnightblue" points="203.09,-26.54 213.62,-25.36 204.65,-19.72 203.09,-26.54"/>
</g>
</g>
</svg>
