<?xml version="1.0" encoding="UTF-8" standalone="no"?>
<!DOCTYPE svg PUBLIC "-//W3C//DTD SVG 1.1//EN"
 "http://www.w3.org/Graphics/SVG/1.1/DTD/svg11.dtd">
<!-- Generated by graphviz version 2.50.0 (20220203.2022)
 -->
<!-- Title: write_prmfile_init0 Pages: 1 -->
<svg width="383pt" height="66pt"
 viewBox="0.00 0.00 383.00 66.00" xmlns="http://www.w3.org/2000/svg" xmlns:xlink="http://www.w3.org/1999/xlink">
<g id="graph0" class="graph" transform="scale(1 1) rotate(0) translate(4 62)">
<title>write_prmfile_init0</title>
<polygon fill="white" stroke="transparent" points="-4,4 -4,-62 379,-62 379,4 -4,4"/>
<!-- Node1 -->
<g id="node1" class="node">
<title>Node1</title>
<g id="a_node1"><a xlink:title=" ">
<polygon fill="#bfbfbf" stroke="black" points="280,-19.5 280,-38.5 375,-38.5 375,-19.5 280,-19.5"/>
<text text-anchor="middle" x="327.5" y="-26.5" font-family="Helvetica,sans-Serif" font-size="10.00">write_prmfile_init0</text>
</a>
</g>
</g>
<!-- Node2 -->
<g id="node2" class="node">
<title>Node2</title>
<g id="a_node2"><a xlink:href="namespacem__ecom__init.html#ade48aadf5d6549da880ce99de833baf6" target="_top" xlink:title=" ">
<polygon fill="white" stroke="black" points="125,-38.5 125,-57.5 244,-57.5 244,-38.5 125,-38.5"/>
<text text-anchor="middle" x="184.5" y="-45.5" font-family="Helvetica,sans-Serif" font-size="10.00">m_ecom_init::ecom_init</text>
</a>
</g>
</g>
<!-- Node1&#45;&gt;Node2 -->
<g id="edge1" class="edge">
<title>Node1&#45;&gt;Node2</title>
<path fill="none" stroke="midnightblue" d="M269.79,-36.64C261.32,-37.78 252.58,-38.96 244.08,-40.11"/>
<polygon fill="midnightblue" stroke="midnightblue" points="270.5,-40.08 279.94,-35.27 269.56,-33.14 270.5,-40.08"/>
</g>
<!-- Node6 -->
<g id="node4" class="node">
<title>Node6</title>
<g id="a_node4"><a xlink:href="namespacem__emp__init.html#a8b2579cef00afeaf44b1f77e6316ec44" target="_top" xlink:title=" ">
<polygon fill="white" stroke="black" points="130.5,-0.5 130.5,-19.5 238.5,-19.5 238.5,-0.5 130.5,-0.5"/>
<text text-anchor="middle" x="184.5" y="-7.5" font-family="Helvetica,sans-Serif" font-size="10.00">m_emp_init::emp_init</text>
</a>
</g>
</g>
<!-- Node1&#45;&gt;Node6 -->
<g id="edge3" class="edge">
<title>Node1&#45;&gt;Node6</title>
<path fill="none" stroke="midnightblue" d="M269.87,-21.37C259.63,-19.99 248.99,-18.56 238.85,-17.19"/>
<polygon fill="midnightblue" stroke="midnightblue" points="269.56,-24.86 279.94,-22.73 270.5,-17.92 269.56,-24.86"/>
</g>
<!-- Node3 -->
<g id="node3" class="node">
<title>Node3</title>
<g id="a_node3"><a xlink:href="namespacem__orbdet.html#a49487178b457ba359e3528454fee1a43" target="_top" xlink:title=" ">
<polygon fill="white" stroke="red" points="0,-19.5 0,-38.5 89,-38.5 89,-19.5 0,-19.5"/>
<text text-anchor="middle" x="44.5" y="-26.5" font-family="Helvetica,sans-Serif" font-size="10.00">m_orbdet::orbdet</text>
</a>
</g>
</g>
<!-- Node2&#45;&gt;Node3 -->
<g id="edge2" class="edge">
<title>Node2&#45;&gt;Node3</title>
<path fill="none" stroke="midnightblue" d="M115.03,-38.57C106.18,-37.35 97.33,-36.14 89.04,-34.99"/>
<polygon fill="midnightblue" stroke="midnightblue" points="114.59,-42.05 124.98,-39.94 115.55,-35.11 114.59,-42.05"/>
</g>
<!-- Node6&#45;&gt;Node3 -->
<g id="edge4" class="edge">
<title>Node6&#45;&gt;Node3</title>
<path fill="none" stroke="midnightblue" d="M120.22,-18.71C109.78,-20.15 99.16,-21.61 89.33,-22.97"/>
<polygon fill="midnightblue" stroke="midnightblue" points="120.72,-22.18 130.15,-17.35 119.76,-15.24 120.72,-22.18"/>
</g>
</g>
</svg>
