<?xml version="1.0" encoding="UTF-8" standalone="no"?>
<!DOCTYPE svg PUBLIC "-//W3C//DTD SVG 1.1//EN"
 "http://www.w3.org/Graphics/SVG/1.1/DTD/svg11.dtd">
<!-- Generated by graphviz version 2.50.0 (20220203.2022)
 -->
<!-- Title: write_prmfile2 Pages: 1 -->
<svg width="515pt" height="47pt"
 viewBox="0.00 0.00 515.00 47.00" xmlns="http://www.w3.org/2000/svg" xmlns:xlink="http://www.w3.org/1999/xlink">
<g id="graph0" class="graph" transform="scale(1 1) rotate(0) translate(4 43)">
<title>write_prmfile2</title>
<polygon fill="white" stroke="transparent" points="-4,4 -4,-43 511,-43 511,4 -4,4"/>
<!-- Node1 -->
<g id="node1" class="node">
<title>Node1</title>
<g id="a_node1"><a xlink:title=" ">
<polygon fill="#bfbfbf" stroke="black" points="430,-0.5 430,-19.5 507,-19.5 507,-0.5 430,-0.5"/>
<text text-anchor="middle" x="468.5" y="-7.5" font-family="Helvetica,sans-Serif" font-size="10.00">write_prmfile2</text>
</a>
</g>
</g>
<!-- Node2 -->
<g id="node2" class="node">
<title>Node2</title>
<g id="a_node2"><a xlink:href="namespacem__orbdet.html#a49487178b457ba359e3528454fee1a43" target="_top" xlink:title=" ">
<polygon fill="white" stroke="black" points="305,-19.5 305,-38.5 394,-38.5 394,-19.5 305,-19.5"/>
<text text-anchor="middle" x="349.5" y="-26.5" font-family="Helvetica,sans-Serif" font-size="10.00">m_orbdet::orbdet</text>
</a>
</g>
</g>
<!-- Node1&#45;&gt;Node2 -->
<g id="edge1" class="edge">
<title>Node1&#45;&gt;Node2</title>
<path fill="none" stroke="midnightblue" d="M419.74,-17.76C411.29,-19.13 402.53,-20.55 394.2,-21.9"/>
<polygon fill="midnightblue" stroke="midnightblue" points="420.53,-21.17 429.84,-16.12 419.4,-14.26 420.53,-21.17"/>
</g>
<!-- Node4 -->
<g id="node4" class="node">
<title>Node4</title>
<g id="a_node4"><a xlink:href="namespacem__pod__gnss.html#acc5f9a213cb0b59b5e4d35e4d0ebdc72" target="_top" xlink:title=" ">
<polygon fill="white" stroke="black" points="0,-0.5 0,-19.5 119,-19.5 119,-0.5 0,-0.5"/>
<text text-anchor="middle" x="59.5" y="-7.5" font-family="Helvetica,sans-Serif" font-size="10.00">m_pod_gnss::pod_gnss</text>
</a>
</g>
</g>
<!-- Node1&#45;&gt;Node4 -->
<g id="edge4" class="edge">
<title>Node1&#45;&gt;Node4</title>
<path fill="none" stroke="midnightblue" d="M419.86,-10C345.03,-10 200.13,-10 119.06,-10"/>
<polygon fill="midnightblue" stroke="midnightblue" points="419.94,-13.5 429.94,-10 419.94,-6.5 419.94,-13.5"/>
</g>
<!-- Node3 -->
<g id="node3" class="node">
<title>Node3</title>
<g id="a_node3"><a xlink:href="namespacem__orbitmain.html#a1f0644c9f3c2294329c1c62342d93717" target="_top" xlink:title=" ">
<polygon fill="white" stroke="black" points="155,-19.5 155,-38.5 269,-38.5 269,-19.5 155,-19.5"/>
<text text-anchor="middle" x="212" y="-26.5" font-family="Helvetica,sans-Serif" font-size="10.00">m_orbitmain::orbitmain</text>
</a>
</g>
</g>
<!-- Node2&#45;&gt;Node3 -->
<g id="edge2" class="edge">
<title>Node2&#45;&gt;Node3</title>
<path fill="none" stroke="midnightblue" d="M294.86,-29C286.5,-29 277.84,-29 269.41,-29"/>
<polygon fill="midnightblue" stroke="midnightblue" points="294.88,-32.5 304.88,-29 294.88,-25.5 294.88,-32.5"/>
</g>
<!-- Node3&#45;&gt;Node4 -->
<g id="edge3" class="edge">
<title>Node3&#45;&gt;Node4</title>
<path fill="none" stroke="midnightblue" d="M144.96,-20.66C136.35,-19.58 127.58,-18.47 119.1,-17.4"/>
<polygon fill="midnightblue" stroke="midnightblue" points="144.6,-24.14 154.96,-21.93 145.48,-17.2 144.6,-24.14"/>
</g>
</g>
</svg>
