<?xml version="1.0" encoding="UTF-8" standalone="no"?>
<!DOCTYPE svg PUBLIC "-//W3C//DTD SVG 1.1//EN"
 "http://www.w3.org/Graphics/SVG/1.1/DTD/svg11.dtd">
<!-- Generated by graphviz version 2.50.0 (20220203.2022)
 -->
<!-- Title: writeparam Pages: 1 -->
<svg width="466pt" height="164pt"
 viewBox="0.00 0.00 466.00 163.88" xmlns="http://www.w3.org/2000/svg" xmlns:xlink="http://www.w3.org/1999/xlink">
<g id="graph0" class="graph" transform="scale(1 1) rotate(0) translate(4 159.88)">
<title>writeparam</title>
<polygon fill="white" stroke="transparent" points="-4,4 -4,-159.88 462,-159.88 462,4 -4,4"/>
<!-- Node1 -->
<g id="node1" class="node">
<title>Node1</title>
<g id="a_node1"><a xlink:title=" ">
<polygon fill="#bfbfbf" stroke="black" points="393,-41.38 393,-60.38 458,-60.38 458,-41.38 393,-41.38"/>
<text text-anchor="middle" x="425.5" y="-48.38" font-family="Helvetica,sans-Serif" font-size="10.00">writeparam</text>
</a>
</g>
</g>
<!-- Node2 -->
<g id="node2" class="node">
<title>Node2</title>
<g id="a_node2"><a xlink:href="write__prmfile_8f95.html#a9c61b731b95c8ddbf9d3d250eed75230" target="_top" xlink:title=" ">
<polygon fill="white" stroke="black" points="283,-60.38 283,-79.38 354,-79.38 354,-60.38 283,-60.38"/>
<text text-anchor="middle" x="318.5" y="-67.38" font-family="Helvetica,sans-Serif" font-size="10.00">write_prmfile</text>
</a>
</g>
</g>
<!-- Node1&#45;&gt;Node2 -->
<g id="edge1" class="edge">
<title>Node1&#45;&gt;Node2</title>
<path fill="none" stroke="midnightblue" d="M382.95,-58.4C373.46,-60.12 363.46,-61.92 354.28,-63.58"/>
<polygon fill="midnightblue" stroke="midnightblue" points="383.78,-61.8 393,-56.58 382.53,-54.92 383.78,-61.8"/>
</g>
<!-- Node8 -->
<g id="node7" class="node">
<title>Node8</title>
<g id="a_node7"><a xlink:href="write__prmfile2_8f95.html#aa1fd0403535f5a935aecd867ec05c26a" target="_top" xlink:title=" ">
<polygon fill="white" stroke="black" points="280,-22.38 280,-41.38 357,-41.38 357,-22.38 280,-22.38"/>
<text text-anchor="middle" x="318.5" y="-29.38" font-family="Helvetica,sans-Serif" font-size="10.00">write_prmfile2</text>
</a>
</g>
</g>
<!-- Node1&#45;&gt;Node8 -->
<g id="edge7" class="edge">
<title>Node1&#45;&gt;Node8</title>
<path fill="none" stroke="midnightblue" d="M382.93,-43.36C374.47,-41.83 365.6,-40.22 357.28,-38.72"/>
<polygon fill="midnightblue" stroke="midnightblue" points="382.53,-46.84 393,-45.18 383.78,-39.95 382.53,-46.84"/>
</g>
<!-- Node3 -->
<g id="node3" class="node">
<title>Node3</title>
<g id="a_node3"><a xlink:href="eclipse__integstep_8f95.html#abd5877ad3d04e375bc5ee1319b6525c7" target="_top" xlink:title=" ">
<polygon fill="white" stroke="black" points="138.5,-136.38 138.5,-155.38 230.5,-155.38 230.5,-136.38 138.5,-136.38"/>
<text text-anchor="middle" x="184.5" y="-143.38" font-family="Helvetica,sans-Serif" font-size="10.00">eclipse_integstep</text>
</a>
</g>
</g>
<!-- Node2&#45;&gt;Node3 -->
<g id="edge2" class="edge">
<title>Node2&#45;&gt;Node3</title>
<path fill="none" stroke="midnightblue" d="M297.45,-85.95C283.11,-96.96 263.06,-111.4 244,-121.88 233.99,-127.38 222.46,-132.37 212.3,-136.36"/>
<polygon fill="midnightblue" stroke="midnightblue" points="299.84,-88.52 305.57,-79.6 295.54,-83 299.84,-88.52"/>
</g>
<!-- Node4 -->
<g id="node4" class="node">
<title>Node4</title>
<g id="a_node4"><a xlink:href="namespacem__orbdet.html#a49487178b457ba359e3528454fee1a43" target="_top" xlink:title=" ">
<polygon fill="white" stroke="red" points="0,-98.38 0,-117.38 89,-117.38 89,-98.38 0,-98.38"/>
<text text-anchor="middle" x="44.5" y="-105.38" font-family="Helvetica,sans-Serif" font-size="10.00">m_orbdet::orbdet</text>
</a>
</g>
</g>
<!-- Node2&#45;&gt;Node4 -->
<g id="edge5" class="edge">
<title>Node2&#45;&gt;Node4</title>
<path fill="none" stroke="midnightblue" d="M275.29,-82C265.11,-84.59 254.22,-87.08 244,-88.88 191.15,-98.18 129.53,-103.18 89.13,-105.68"/>
<polygon fill="midnightblue" stroke="midnightblue" points="276.39,-85.33 285.18,-79.41 274.62,-78.56 276.39,-85.33"/>
</g>
<!-- Node7 -->
<g id="node5" class="node">
<title>Node7</title>
<g id="a_node5"><a xlink:href="empirical__init_8f95.html#a52810e116453071831328db3d563d8e1" target="_top" xlink:title=" ">
<polygon fill="white" stroke="black" points="147.5,-60.38 147.5,-79.38 221.5,-79.38 221.5,-60.38 147.5,-60.38"/>
<text text-anchor="middle" x="184.5" y="-67.38" font-family="Helvetica,sans-Serif" font-size="10.00">empirical_init</text>
</a>
</g>
</g>
<!-- Node2&#45;&gt;Node7 -->
<g id="edge4" class="edge">
<title>Node2&#45;&gt;Node7</title>
<path fill="none" stroke="midnightblue" d="M272.78,-69.88C256.18,-69.88 237.56,-69.88 221.79,-69.88"/>
<polygon fill="midnightblue" stroke="midnightblue" points="272.82,-73.38 282.82,-69.88 272.82,-66.38 272.82,-73.38"/>
</g>
<!-- Node6 -->
<g id="node6" class="node">
<title>Node6</title>
<g id="a_node6"><a xlink:href="namespacem__pod__gnss.html#acc5f9a213cb0b59b5e4d35e4d0ebdc72" target="_top" xlink:title=" ">
<polygon fill="white" stroke="black" points="125,-22.38 125,-41.38 244,-41.38 244,-22.38 125,-22.38"/>
<text text-anchor="middle" x="184.5" y="-29.38" font-family="Helvetica,sans-Serif" font-size="10.00">m_pod_gnss::pod_gnss</text>
</a>
</g>
</g>
<!-- Node2&#45;&gt;Node6 -->
<g id="edge6" class="edge">
<title>Node2&#45;&gt;Node6</title>
<path fill="none" stroke="midnightblue" d="M274.46,-57.49C256.38,-52.28 235.68,-46.32 218.8,-41.46"/>
<polygon fill="midnightblue" stroke="midnightblue" points="273.61,-60.89 284.19,-60.29 275.55,-54.16 273.61,-60.89"/>
</g>
<!-- Node3&#45;&gt;Node4 -->
<g id="edge3" class="edge">
<title>Node3&#45;&gt;Node4</title>
<path fill="none" stroke="midnightblue" d="M139.03,-133.63C120.01,-128.39 98.12,-122.37 80.31,-117.46"/>
<polygon fill="midnightblue" stroke="midnightblue" points="138.11,-137.01 148.68,-136.29 139.96,-130.26 138.11,-137.01"/>
</g>
<!-- Node8&#45;&gt;Node4 -->
<g id="edge8" class="edge">
<title>Node8&#45;&gt;Node4</title>
<path fill="none" stroke="midnightblue" d="M285.14,-18.95C245.45,-5.22 177.03,11.43 125,-12.88 86.42,-30.9 59.96,-77.87 49.95,-98.23"/>
<polygon fill="midnightblue" stroke="midnightblue" points="283.99,-22.26 294.58,-22.35 286.36,-15.67 283.99,-22.26"/>
</g>
<!-- Node8&#45;&gt;Node6 -->
<g id="edge9" class="edge">
<title>Node8&#45;&gt;Node6</title>
<path fill="none" stroke="midnightblue" d="M269.46,-31.88C261.2,-31.88 252.52,-31.88 244.02,-31.88"/>
<polygon fill="midnightblue" stroke="midnightblue" points="269.67,-35.38 279.67,-31.88 269.67,-28.38 269.67,-35.38"/>
</g>
</g>
</svg>
