<?xml version="1.0" encoding="UTF-8" standalone="no"?>
<!DOCTYPE svg PUBLIC "-//W3C//DTD SVG 1.1//EN"
 "http://www.w3.org/Graphics/SVG/1.1/DTD/svg11.dtd">
<!-- Generated by graphviz version 2.50.0 (20220203.2022)
 -->
<!-- Title: yaw_gal_iov Pages: 1 -->
<svg width="382pt" height="275pt"
 viewBox="0.00 0.00 382.00 275.00" xmlns="http://www.w3.org/2000/svg" xmlns:xlink="http://www.w3.org/1999/xlink">
<g id="graph0" class="graph" transform="scale(1 1) rotate(0) translate(4 271)">
<title>yaw_gal_iov</title>
<polygon fill="white" stroke="transparent" points="-4,4 -4,-271 378,-271 378,4 -4,4"/>
<!-- Node1 -->
<g id="node1" class="node">
<title>Node1</title>
<g id="a_node1"><a xlink:title=" ">
<polygon fill="#bfbfbf" stroke="black" points="0,-152.5 0,-171.5 70,-171.5 70,-152.5 0,-152.5"/>
<text text-anchor="middle" x="35" y="-159.5" font-family="Helvetica,sans-Serif" font-size="10.00">yaw_gal_iov</text>
</a>
</g>
</g>
<!-- Node2 -->
<g id="node2" class="node">
<title>Node2</title>
<g id="a_node2"><a xlink:href="beta__angle_8f90.html#aa3986ad6e3bbfff7cbb65b502e569723" target="_top" xlink:title=" ">
<polygon fill="white" stroke="black" points="201,-228.5 201,-247.5 265,-247.5 265,-228.5 201,-228.5"/>
<text text-anchor="middle" x="233" y="-235.5" font-family="Helvetica,sans-Serif" font-size="10.00">beta_angle</text>
</a>
</g>
</g>
<!-- Node1&#45;&gt;Node2 -->
<g id="edge1" class="edge">
<title>Node1&#45;&gt;Node2</title>
<path fill="none" stroke="midnightblue" d="M45.96,-171.74C58.75,-183.66 82.16,-203.54 106,-214 132.88,-225.8 165.49,-231.81 190.8,-234.87"/>
<polygon fill="midnightblue" stroke="midnightblue" points="190.49,-238.35 200.81,-235.97 191.26,-231.39 190.49,-238.35"/>
</g>
<!-- Node3 -->
<g id="node3" class="node">
<title>Node3</title>
<g id="a_node3"><a xlink:href="productcross_8f90.html#a2e59e22456af10602cf068c75f925c76" target="_top" xlink:title=" ">
<polygon fill="white" stroke="red" points="301,-247.5 301,-266.5 374,-266.5 374,-247.5 301,-247.5"/>
<text text-anchor="middle" x="337.5" y="-254.5" font-family="Helvetica,sans-Serif" font-size="10.00">productcross</text>
</a>
</g>
</g>
<!-- Node1&#45;&gt;Node3 -->
<g id="edge13" class="edge">
<title>Node1&#45;&gt;Node3</title>
<path fill="none" stroke="midnightblue" d="M42.24,-171.68C53.14,-187.73 77.23,-219.7 106,-236 163.29,-268.45 241.66,-267.96 290.67,-263.41"/>
<polygon fill="midnightblue" stroke="midnightblue" points="291.07,-266.89 300.66,-262.39 290.36,-259.92 291.07,-266.89"/>
</g>
<!-- Node5 -->
<g id="node4" class="node">
<title>Node5</title>
<g id="a_node4"><a xlink:href="productdot_8f90.html#a14430d9cb0b48474effeb33068eaf0ed" target="_top" xlink:title=" ">
<polygon fill="white" stroke="red" points="306.5,-190.5 306.5,-209.5 368.5,-209.5 368.5,-190.5 306.5,-190.5"/>
<text text-anchor="middle" x="337.5" y="-197.5" font-family="Helvetica,sans-Serif" font-size="10.00">productdot</text>
</a>
</g>
</g>
<!-- Node1&#45;&gt;Node5 -->
<g id="edge14" class="edge">
<title>Node1&#45;&gt;Node5</title>
<path fill="none" stroke="midnightblue" d="M66.39,-171.55C78.59,-175.04 92.85,-178.69 106,-181 172.04,-192.58 250.01,-197.14 296.23,-198.91"/>
<polygon fill="midnightblue" stroke="midnightblue" points="296.32,-202.41 306.44,-199.27 296.57,-195.42 296.32,-202.41"/>
</g>
<!-- Node6 -->
<g id="node5" class="node">
<title>Node6</title>
<g id="a_node5"><a xlink:href="beta__pred_8f90.html#a9230794c3d919d2bcd20c96901c31e3c" target="_top" xlink:title=" ">
<polygon fill="white" stroke="black" points="106,-152.5 106,-171.5 165,-171.5 165,-152.5 106,-152.5"/>
<text text-anchor="middle" x="135.5" y="-159.5" font-family="Helvetica,sans-Serif" font-size="10.00">beta_pred</text>
</a>
</g>
</g>
<!-- Node1&#45;&gt;Node6 -->
<g id="edge4" class="edge">
<title>Node1&#45;&gt;Node6</title>
<path fill="none" stroke="midnightblue" d="M70.17,-162C78.47,-162 87.4,-162 95.88,-162"/>
<polygon fill="midnightblue" stroke="midnightblue" points="95.94,-165.5 105.94,-162 95.94,-158.5 95.94,-165.5"/>
</g>
<!-- Node19 -->
<g id="node11" class="node">
<title>Node19</title>
<g id="a_node11"><a xlink:href="algebra__old_8cpp.html#adc33998911a24938042604ba1f8e6196" target="_top" xlink:title=" ">
<polygon fill="white" stroke="black" points="111,-114.5 111,-133.5 160,-133.5 160,-114.5 111,-114.5"/>
<text text-anchor="middle" x="135.5" y="-121.5" font-family="Helvetica,sans-Serif" font-size="10.00">matmul</text>
</a>
</g>
</g>
<!-- Node1&#45;&gt;Node19 -->
<g id="edge12" class="edge">
<title>Node1&#45;&gt;Node19</title>
<path fill="none" stroke="midnightblue" d="M60.86,-152.41C73.03,-147.72 87.86,-141.99 101.01,-136.92"/>
<polygon fill="midnightblue" stroke="midnightblue" points="102.6,-140.06 110.67,-133.19 100.08,-133.53 102.6,-140.06"/>
</g>
<!-- Node20 -->
<g id="node12" class="node">
<title>Node20</title>
<g id="a_node12"><a xlink:href="trop_8cpp.html#a09f11d2057b22449a395bd4f02513a61" target="_top" xlink:title=" ">
<polygon fill="white" stroke="black" points="118,-76.5 118,-95.5 153,-95.5 153,-76.5 118,-76.5"/>
<text text-anchor="middle" x="135.5" y="-83.5" font-family="Helvetica,sans-Serif" font-size="10.00">sign</text>
</a>
</g>
</g>
<!-- Node1&#45;&gt;Node20 -->
<g id="edge15" class="edge">
<title>Node1&#45;&gt;Node20</title>
<path fill="none" stroke="midnightblue" d="M47.13,-152.38C60.73,-140.76 84.56,-120.82 106,-105 107.61,-103.81 109.3,-102.6 111.01,-101.4"/>
<polygon fill="midnightblue" stroke="midnightblue" points="113.23,-104.12 119.52,-95.6 109.29,-98.34 113.23,-104.12"/>
</g>
<!-- Node21 -->
<g id="node13" class="node">
<title>Node21</title>
<g id="a_node13"><a xlink:href="yaw__nom_8f90.html#add5fadccf74e8d81cc3552133d1ae49e" target="_top" xlink:title=" ">
<polygon fill="white" stroke="black" points="106.5,-38.5 106.5,-57.5 164.5,-57.5 164.5,-38.5 106.5,-38.5"/>
<text text-anchor="middle" x="135.5" y="-45.5" font-family="Helvetica,sans-Serif" font-size="10.00">yaw_nom</text>
</a>
</g>
</g>
<!-- Node1&#45;&gt;Node21 -->
<g id="edge16" class="edge">
<title>Node1&#45;&gt;Node21</title>
<path fill="none" stroke="midnightblue" d="M41.6,-152.25C52.39,-134.01 77.54,-94.15 106,-67 107.24,-65.81 108.57,-64.66 109.94,-63.53"/>
<polygon fill="midnightblue" stroke="midnightblue" points="112.11,-66.28 118.09,-57.54 107.96,-60.64 112.11,-66.28"/>
</g>
<!-- Node2&#45;&gt;Node3 -->
<g id="edge2" class="edge">
<title>Node2&#45;&gt;Node3</title>
<path fill="none" stroke="midnightblue" d="M265.03,-243.75C273.16,-245.26 282.1,-246.92 290.82,-248.53"/>
<polygon fill="midnightblue" stroke="midnightblue" points="290.43,-252.02 300.9,-250.4 291.71,-245.14 290.43,-252.02"/>
</g>
<!-- Node2&#45;&gt;Node5 -->
<g id="edge3" class="edge">
<title>Node2&#45;&gt;Node5</title>
<path fill="none" stroke="midnightblue" d="M259.87,-228.41C272.37,-223.78 287.57,-218.14 301.12,-213.11"/>
<polygon fill="midnightblue" stroke="midnightblue" points="302.48,-216.34 310.64,-209.59 300.05,-209.78 302.48,-216.34"/>
</g>
<!-- Node6&#45;&gt;Node2 -->
<g id="edge5" class="edge">
<title>Node6&#45;&gt;Node2</title>
<path fill="none" stroke="midnightblue" d="M148.6,-171.63C164.6,-184.36 193.01,-206.97 212.17,-222.22"/>
<polygon fill="midnightblue" stroke="midnightblue" points="210,-224.96 220,-228.45 214.36,-219.49 210,-224.96"/>
</g>
<!-- Node7 -->
<g id="node6" class="node">
<title>Node7</title>
<g id="a_node6"><a xlink:href="kepler__eq_8f90.html#aca8f5442ba73b5ab8fa15b30231a5b5b" target="_top" xlink:title=" ">
<polygon fill="white" stroke="black" points="203.5,-152.5 203.5,-171.5 262.5,-171.5 262.5,-152.5 203.5,-152.5"/>
<text text-anchor="middle" x="233" y="-159.5" font-family="Helvetica,sans-Serif" font-size="10.00">kepler_eq</text>
</a>
</g>
</g>
<!-- Node6&#45;&gt;Node7 -->
<g id="edge6" class="edge">
<title>Node6&#45;&gt;Node7</title>
<path fill="none" stroke="midnightblue" d="M165.15,-162C173.94,-162 183.75,-162 193.09,-162"/>
<polygon fill="midnightblue" stroke="midnightblue" points="193.37,-165.5 203.37,-162 193.37,-158.5 193.37,-165.5"/>
</g>
<!-- Node8 -->
<g id="node7" class="node">
<title>Node8</title>
<g id="a_node7"><a xlink:href="kepler__k2z_8f90.html#ab1518df85771df7a48fecf1d1b9f1b34" target="_top" xlink:title=" ">
<polygon fill="white" stroke="red" points="201.5,-114.5 201.5,-133.5 264.5,-133.5 264.5,-114.5 201.5,-114.5"/>
<text text-anchor="middle" x="233" y="-121.5" font-family="Helvetica,sans-Serif" font-size="10.00">kepler_k2z</text>
</a>
</g>
</g>
<!-- Node6&#45;&gt;Node8 -->
<g id="edge7" class="edge">
<title>Node6&#45;&gt;Node8</title>
<path fill="none" stroke="midnightblue" d="M160.6,-152.41C172.02,-147.87 185.86,-142.36 198.3,-137.41"/>
<polygon fill="midnightblue" stroke="midnightblue" points="199.91,-140.54 207.91,-133.59 197.32,-134.03 199.91,-140.54"/>
</g>
<!-- Node11 -->
<g id="node8" class="node">
<title>Node11</title>
<g id="a_node8"><a xlink:href="kepler__z2k_8f90.html#aaece6d2b7d204b571232ad144687f646" target="_top" xlink:title=" ">
<polygon fill="white" stroke="red" points="201.5,-0.5 201.5,-19.5 264.5,-19.5 264.5,-0.5 201.5,-0.5"/>
<text text-anchor="middle" x="233" y="-7.5" font-family="Helvetica,sans-Serif" font-size="10.00">kepler_z2k</text>
</a>
</g>
</g>
<!-- Node6&#45;&gt;Node11 -->
<g id="edge8" class="edge">
<title>Node6&#45;&gt;Node11</title>
<path fill="none" stroke="midnightblue" d="M154.93,-152.39C158.67,-149.76 162.29,-146.61 165,-143 196.92,-100.52 168.28,-70.86 201,-29 201.81,-27.96 202.69,-26.97 203.63,-26.02"/>
<polygon fill="midnightblue" stroke="midnightblue" points="206.04,-28.57 211.63,-19.57 201.65,-23.12 206.04,-28.57"/>
</g>
<!-- Node13 -->
<g id="node9" class="node">
<title>Node13</title>
<g id="a_node9"><a xlink:href="PLEPH_8f.html#aedc7e0a9526045bd01307271228e14a3" target="_top" xlink:title=" ">
<polygon fill="white" stroke="red" points="213,-76.5 213,-95.5 253,-95.5 253,-76.5 213,-76.5"/>
<text text-anchor="middle" x="233" y="-83.5" font-family="Helvetica,sans-Serif" font-size="10.00">pleph</text>
</a>
</g>
</g>
<!-- Node6&#45;&gt;Node13 -->
<g id="edge10" class="edge">
<title>Node6&#45;&gt;Node13</title>
<path fill="none" stroke="midnightblue" d="M152.34,-152.35C156.59,-149.52 161.09,-146.3 165,-143 182.79,-128.01 182.93,-119.65 201,-105 202.54,-103.75 204.18,-102.52 205.86,-101.32"/>
<polygon fill="midnightblue" stroke="midnightblue" points="207.98,-104.11 214.4,-95.68 204.13,-98.27 207.98,-104.11"/>
</g>
<!-- Node15 -->
<g id="node10" class="node">
<title>Node15</title>
<g id="a_node10"><a xlink:href="time__GPS_8f90.html#abc2a33c3ed6bda1d04db6c1e5ae6d0f2" target="_top" xlink:title=" ">
<polygon fill="white" stroke="red" points="205,-38.5 205,-57.5 261,-57.5 261,-38.5 205,-38.5"/>
<text text-anchor="middle" x="233" y="-45.5" font-family="Helvetica,sans-Serif" font-size="10.00">time_gps</text>
</a>
</g>
</g>
<!-- Node6&#45;&gt;Node15 -->
<g id="edge11" class="edge">
<title>Node6&#45;&gt;Node15</title>
<path fill="none" stroke="midnightblue" d="M154.28,-152.31C158.14,-149.64 161.97,-146.51 165,-143 189.44,-114.72 176.03,-94.81 201,-67 202,-65.88 203.08,-64.81 204.22,-63.79"/>
<polygon fill="midnightblue" stroke="midnightblue" points="206.45,-66.49 212.33,-57.68 202.24,-60.9 206.45,-66.49"/>
</g>
<!-- Node11&#45;&gt;Node5 -->
<g id="edge9" class="edge">
<title>Node11&#45;&gt;Node5</title>
<path fill="none" stroke="midnightblue" d="M253.8,-19.57C257.88,-22.2 261.88,-25.36 265,-29 304.5,-75.1 324.62,-146.13 332.46,-180.3"/>
<polygon fill="midnightblue" stroke="midnightblue" points="329.11,-181.37 334.66,-190.39 335.95,-179.87 329.11,-181.37"/>
</g>
</g>
</svg>
