<?xml version="1.0" encoding="UTF-8" standalone="no"?>
<!DOCTYPE svg PUBLIC "-//W3C//DTD SVG 1.1//EN"
 "http://www.w3.org/Graphics/SVG/1.1/DTD/svg11.dtd">
<!-- Generated by graphviz version 2.50.0 (20220203.2022)
 -->
<!-- Title: yaw_pred Pages: 1 -->
<svg width="306pt" height="294pt"
 viewBox="0.00 0.00 306.00 294.00" xmlns="http://www.w3.org/2000/svg" xmlns:xlink="http://www.w3.org/1999/xlink">
<g id="graph0" class="graph" transform="scale(1 1) rotate(0) translate(4 290)">
<title>yaw_pred</title>
<polygon fill="white" stroke="transparent" points="-4,4 -4,-290 302,-290 302,4 -4,4"/>
<!-- Node1 -->
<g id="node1" class="node">
<title>Node1</title>
<g id="a_node1"><a xlink:title=" ">
<polygon fill="#bfbfbf" stroke="black" points="0,-152.5 0,-171.5 58,-171.5 58,-152.5 0,-152.5"/>
<text text-anchor="middle" x="29" y="-159.5" font-family="Helvetica,sans-Serif" font-size="10.00">yaw_pred</text>
</a>
</g>
</g>
<!-- Node2 -->
<g id="node2" class="node">
<title>Node2</title>
<g id="a_node2"><a xlink:href="kepler__eq_8f90.html#aca8f5442ba73b5ab8fa15b30231a5b5b" target="_top" xlink:title=" ">
<polygon fill="white" stroke="black" points="112,-266.5 112,-285.5 171,-285.5 171,-266.5 112,-266.5"/>
<text text-anchor="middle" x="141.5" y="-273.5" font-family="Helvetica,sans-Serif" font-size="10.00">kepler_eq</text>
</a>
</g>
</g>
<!-- Node1&#45;&gt;Node2 -->
<g id="edge1" class="edge">
<title>Node1&#45;&gt;Node2</title>
<path fill="none" stroke="midnightblue" d="M34.18,-171.73C42.75,-190.65 64.07,-232.65 94,-257 96.72,-259.21 99.73,-261.2 102.88,-262.98"/>
<polygon fill="midnightblue" stroke="midnightblue" points="101.45,-266.18 111.97,-267.44 104.54,-259.89 101.45,-266.18"/>
</g>
<!-- Node3 -->
<g id="node3" class="node">
<title>Node3</title>
<g id="a_node3"><a xlink:href="kepler__k2z_8f90.html#ab1518df85771df7a48fecf1d1b9f1b34" target="_top" xlink:title=" ">
<polygon fill="white" stroke="black" points="110,-228.5 110,-247.5 173,-247.5 173,-228.5 110,-228.5"/>
<text text-anchor="middle" x="141.5" y="-235.5" font-family="Helvetica,sans-Serif" font-size="10.00">kepler_k2z</text>
</a>
</g>
</g>
<!-- Node1&#45;&gt;Node3 -->
<g id="edge2" class="edge">
<title>Node1&#45;&gt;Node3</title>
<path fill="none" stroke="midnightblue" d="M38.73,-171.58C50.36,-183.89 72.03,-205.3 94,-219 96.98,-220.86 100.16,-222.6 103.43,-224.22"/>
<polygon fill="midnightblue" stroke="midnightblue" points="102.14,-227.48 112.69,-228.44 105.04,-221.11 102.14,-227.48"/>
</g>
<!-- Node7 -->
<g id="node5" class="node">
<title>Node7</title>
<g id="a_node5"><a xlink:href="kepler__z2k_8f90.html#aaece6d2b7d204b571232ad144687f646" target="_top" xlink:title=" ">
<polygon fill="white" stroke="black" points="110,-152.5 110,-171.5 173,-171.5 173,-152.5 110,-152.5"/>
<text text-anchor="middle" x="141.5" y="-159.5" font-family="Helvetica,sans-Serif" font-size="10.00">kepler_z2k</text>
</a>
</g>
</g>
<!-- Node1&#45;&gt;Node7 -->
<g id="edge4" class="edge">
<title>Node1&#45;&gt;Node7</title>
<path fill="none" stroke="midnightblue" d="M58.17,-162C70.7,-162 85.71,-162 99.46,-162"/>
<polygon fill="midnightblue" stroke="midnightblue" points="99.66,-165.5 109.66,-162 99.66,-158.5 99.66,-165.5"/>
</g>
<!-- Node10 -->
<g id="node8" class="node">
<title>Node10</title>
<g id="a_node8"><a xlink:href="PLEPH_8f.html#aedc7e0a9526045bd01307271228e14a3" target="_top" xlink:title=" ">
<polygon fill="white" stroke="black" points="121.5,-190.5 121.5,-209.5 161.5,-209.5 161.5,-190.5 121.5,-190.5"/>
<text text-anchor="middle" x="141.5" y="-197.5" font-family="Helvetica,sans-Serif" font-size="10.00">pleph</text>
</a>
</g>
</g>
<!-- Node1&#45;&gt;Node10 -->
<g id="edge7" class="edge">
<title>Node1&#45;&gt;Node10</title>
<path fill="none" stroke="midnightblue" d="M57.88,-171.59C74.3,-177.23 95.02,-184.36 111.61,-190.06"/>
<polygon fill="midnightblue" stroke="midnightblue" points="110.73,-193.46 121.32,-193.41 113.01,-186.84 110.73,-193.46"/>
</g>
<!-- Node12 -->
<g id="node10" class="node">
<title>Node12</title>
<g id="a_node10"><a xlink:href="time__GPS_8f90.html#abc2a33c3ed6bda1d04db6c1e5ae6d0f2" target="_top" xlink:title=" ">
<polygon fill="white" stroke="black" points="113.5,-38.5 113.5,-57.5 169.5,-57.5 169.5,-38.5 113.5,-38.5"/>
<text text-anchor="middle" x="141.5" y="-45.5" font-family="Helvetica,sans-Serif" font-size="10.00">time_gps</text>
</a>
</g>
</g>
<!-- Node1&#45;&gt;Node12 -->
<g id="edge9" class="edge">
<title>Node1&#45;&gt;Node12</title>
<path fill="none" stroke="midnightblue" d="M34.18,-152.27C42.75,-133.35 64.07,-91.35 94,-67 97.11,-64.47 100.6,-62.24 104.23,-60.28"/>
<polygon fill="midnightblue" stroke="midnightblue" points="105.87,-63.37 113.43,-55.94 102.89,-57.04 105.87,-63.37"/>
</g>
<!-- Node16 -->
<g id="node13" class="node">
<title>Node16</title>
<g id="a_node13"><a xlink:href="yaw__angle_8f90.html#a1277ab64ce3b1dc308e68636c6d3e077" target="_top" xlink:title=" ">
<polygon fill="white" stroke="black" points="110.5,-76.5 110.5,-95.5 172.5,-95.5 172.5,-76.5 110.5,-76.5"/>
<text text-anchor="middle" x="141.5" y="-83.5" font-family="Helvetica,sans-Serif" font-size="10.00">yaw_angle</text>
</a>
</g>
</g>
<!-- Node1&#45;&gt;Node16 -->
<g id="edge12" class="edge">
<title>Node1&#45;&gt;Node16</title>
<path fill="none" stroke="midnightblue" d="M38.73,-152.42C50.36,-140.11 72.03,-118.7 94,-105 96.98,-103.14 100.16,-101.4 103.43,-99.78"/>
<polygon fill="midnightblue" stroke="midnightblue" points="105.04,-102.89 112.69,-95.56 102.14,-96.52 105.04,-102.89"/>
</g>
<!-- Node17 -->
<g id="node14" class="node">
<title>Node17</title>
<g id="a_node14"><a xlink:href="yaw__gal__foc__nom_8f95.html#a1871486b3a439e4e3fc2f63063603d07" target="_top" xlink:title=" ">
<polygon fill="white" stroke="black" points="94,-114.5 94,-133.5 189,-133.5 189,-114.5 94,-114.5"/>
<text text-anchor="middle" x="141.5" y="-121.5" font-family="Helvetica,sans-Serif" font-size="10.00">yaw_gal_foc_nom</text>
</a>
</g>
</g>
<!-- Node1&#45;&gt;Node17 -->
<g id="edge13" class="edge">
<title>Node1&#45;&gt;Node17</title>
<path fill="none" stroke="midnightblue" d="M57.88,-152.41C71.49,-147.73 88.07,-142.03 102.79,-136.97"/>
<polygon fill="midnightblue" stroke="midnightblue" points="104.31,-140.15 112.63,-133.59 102.03,-133.53 104.31,-140.15"/>
</g>
<!-- Node4 -->
<g id="node4" class="node">
<title>Node4</title>
<g id="a_node4"><a xlink:href="matrix__Rr_8f90.html#ac8734d74fb7ada7605575d3b9d26f2bb" target="_top" xlink:title=" ">
<polygon fill="white" stroke="red" points="234.5,-228.5 234.5,-247.5 288.5,-247.5 288.5,-228.5 234.5,-228.5"/>
<text text-anchor="middle" x="261.5" y="-235.5" font-family="Helvetica,sans-Serif" font-size="10.00">matrix_rr</text>
</a>
</g>
</g>
<!-- Node3&#45;&gt;Node4 -->
<g id="edge3" class="edge">
<title>Node3&#45;&gt;Node4</title>
<path fill="none" stroke="midnightblue" d="M173.2,-238C188.77,-238 207.79,-238 224.1,-238"/>
<polygon fill="midnightblue" stroke="midnightblue" points="224.36,-241.5 234.36,-238 224.36,-234.5 224.36,-241.5"/>
</g>
<!-- Node8 -->
<g id="node6" class="node">
<title>Node8</title>
<g id="a_node6"><a xlink:href="arctan_8f90.html#a6542129800abaa371ae7617afbcb4402" target="_top" xlink:title=" ">
<polygon fill="white" stroke="black" points="239.5,-152.5 239.5,-171.5 283.5,-171.5 283.5,-152.5 239.5,-152.5"/>
<text text-anchor="middle" x="261.5" y="-159.5" font-family="Helvetica,sans-Serif" font-size="10.00">arctan</text>
</a>
</g>
</g>
<!-- Node7&#45;&gt;Node8 -->
<g id="edge5" class="edge">
<title>Node7&#45;&gt;Node8</title>
<path fill="none" stroke="midnightblue" d="M173.2,-162C190.39,-162 211.78,-162 229.09,-162"/>
<polygon fill="midnightblue" stroke="midnightblue" points="229.26,-165.5 239.26,-162 229.26,-158.5 229.26,-165.5"/>
</g>
<!-- Node9 -->
<g id="node7" class="node">
<title>Node9</title>
<g id="a_node7"><a xlink:href="productdot_8f90.html#a14430d9cb0b48474effeb33068eaf0ed" target="_top" xlink:title=" ">
<polygon fill="white" stroke="red" points="230.5,-114.5 230.5,-133.5 292.5,-133.5 292.5,-114.5 230.5,-114.5"/>
<text text-anchor="middle" x="261.5" y="-121.5" font-family="Helvetica,sans-Serif" font-size="10.00">productdot</text>
</a>
</g>
</g>
<!-- Node7&#45;&gt;Node9 -->
<g id="edge6" class="edge">
<title>Node7&#45;&gt;Node9</title>
<path fill="none" stroke="midnightblue" d="M172.28,-152.41C187.09,-147.64 205.19,-141.81 221.13,-136.68"/>
<polygon fill="midnightblue" stroke="midnightblue" points="222.29,-139.98 230.73,-133.59 220.14,-133.32 222.29,-139.98"/>
</g>
<!-- Node11 -->
<g id="node9" class="node">
<title>Node11</title>
<g id="a_node9"><a xlink:href="jpl__eph_8cpp.html#a755e63250f4ea83300f467826c98c0b2" target="_top" xlink:title=" ">
<polygon fill="white" stroke="black" points="231,-190.5 231,-209.5 292,-209.5 292,-190.5 231,-190.5"/>
<text text-anchor="middle" x="261.5" y="-197.5" font-family="Helvetica,sans-Serif" font-size="10.00">dimension</text>
</a>
</g>
</g>
<!-- Node10&#45;&gt;Node11 -->
<g id="edge8" class="edge">
<title>Node10&#45;&gt;Node11</title>
<path fill="none" stroke="midnightblue" d="M161.72,-200C177.63,-200 200.75,-200 220.63,-200"/>
<polygon fill="midnightblue" stroke="midnightblue" points="220.67,-203.5 230.67,-200 220.67,-196.5 220.67,-203.5"/>
</g>
<!-- Node13 -->
<g id="node11" class="node">
<title>Node13</title>
<g id="a_node11"><a xlink:href="jd2cal_8for.html#a9bed91282551283d85294092fe0cc509" target="_top" xlink:title=" ">
<polygon fill="white" stroke="black" points="231.5,-0.5 231.5,-19.5 291.5,-19.5 291.5,-0.5 231.5,-0.5"/>
<text text-anchor="middle" x="261.5" y="-7.5" font-family="Helvetica,sans-Serif" font-size="10.00">iau_jd2cal</text>
</a>
</g>
</g>
<!-- Node12&#45;&gt;Node13 -->
<g id="edge10" class="edge">
<title>Node12&#45;&gt;Node13</title>
<path fill="none" stroke="midnightblue" d="M169.57,-39.28C185.04,-34.3 204.71,-27.97 221.79,-22.47"/>
<polygon fill="midnightblue" stroke="midnightblue" points="223.05,-25.74 231.49,-19.34 220.9,-19.08 223.05,-25.74"/>
</g>
<!-- Node14 -->
<g id="node12" class="node">
<title>Node14</title>
<g id="a_node12"><a xlink:href="taiutc_8for.html#a86edd73f696a0968f1600df656bad920" target="_top" xlink:title=" ">
<polygon fill="white" stroke="red" points="241,-38.5 241,-57.5 282,-57.5 282,-38.5 241,-38.5"/>
<text text-anchor="middle" x="261.5" y="-45.5" font-family="Helvetica,sans-Serif" font-size="10.00">taiutc</text>
</a>
</g>
</g>
<!-- Node12&#45;&gt;Node14 -->
<g id="edge11" class="edge">
<title>Node12&#45;&gt;Node14</title>
<path fill="none" stroke="midnightblue" d="M169.57,-48C187.86,-48 212,-48 230.81,-48"/>
<polygon fill="midnightblue" stroke="midnightblue" points="230.92,-51.5 240.92,-48 230.92,-44.5 230.92,-51.5"/>
</g>
<!-- Node17&#45;&gt;Node9 -->
<g id="edge15" class="edge">
<title>Node17&#45;&gt;Node9</title>
<path fill="none" stroke="midnightblue" d="M189.14,-124C199.46,-124 210.32,-124 220.36,-124"/>
<polygon fill="midnightblue" stroke="midnightblue" points="220.48,-127.5 230.48,-124 220.48,-120.5 220.48,-127.5"/>
</g>
<!-- Node18 -->
<g id="node15" class="node">
<title>Node18</title>
<g id="a_node15"><a xlink:href="productcross_8f90.html#a2e59e22456af10602cf068c75f925c76" target="_top" xlink:title=" ">
<polygon fill="white" stroke="red" points="225,-76.5 225,-95.5 298,-95.5 298,-76.5 225,-76.5"/>
<text text-anchor="middle" x="261.5" y="-83.5" font-family="Helvetica,sans-Serif" font-size="10.00">productcross</text>
</a>
</g>
</g>
<!-- Node17&#45;&gt;Node18 -->
<g id="edge14" class="edge">
<title>Node17&#45;&gt;Node18</title>
<path fill="none" stroke="midnightblue" d="M172.28,-114.41C187.09,-109.64 205.19,-103.81 221.13,-98.68"/>
<polygon fill="midnightblue" stroke="midnightblue" points="222.29,-101.98 230.73,-95.59 220.14,-95.32 222.29,-101.98"/>
</g>
</g>
</svg>
