<?xml version="1.0" encoding="UTF-8" standalone="no"?>
<!DOCTYPE svg PUBLIC "-//W3C//DTD SVG 1.1//EN"
 "http://www.w3.org/Graphics/SVG/1.1/DTD/svg11.dtd">
<!-- Generated by graphviz version 2.50.0 (20220203.2022)
 -->
<!-- Title: yaw_gal_foc Pages: 1 -->
<svg width="429pt" height="435pt"
 viewBox="0.00 0.00 429.00 434.60" xmlns="http://www.w3.org/2000/svg" xmlns:xlink="http://www.w3.org/1999/xlink">
<g id="graph0" class="graph" transform="scale(1 1) rotate(0) translate(4 430.6)">
<title>yaw_gal_foc</title>
<polygon fill="white" stroke="transparent" points="-4,4 -4,-430.6 425,-430.6 425,4 -4,4"/>
<!-- Node1 -->
<g id="node1" class="node">
<title>Node1</title>
<g id="a_node1"><a xlink:title=" ">
<polygon fill="#bfbfbf" stroke="black" points="0,-266.5 0,-285.5 71,-285.5 71,-266.5 0,-266.5"/>
<text text-anchor="middle" x="35.5" y="-273.5" font-family="Helvetica,sans-Serif" font-size="10.00">yaw_gal_foc</text>
</a>
</g>
</g>
<!-- Node2 -->
<g id="node2" class="node">
<title>Node2</title>
<g id="a_node2"><a xlink:href="beta__angle_8f90.html#aa3986ad6e3bbfff7cbb65b502e569723" target="_top" xlink:title=" ">
<polygon fill="white" stroke="black" points="232.5,-304.5 232.5,-323.5 296.5,-323.5 296.5,-304.5 232.5,-304.5"/>
<text text-anchor="middle" x="264.5" y="-311.5" font-family="Helvetica,sans-Serif" font-size="10.00">beta_angle</text>
</a>
</g>
</g>
<!-- Node1&#45;&gt;Node2 -->
<g id="edge1" class="edge">
<title>Node1&#45;&gt;Node2</title>
<path fill="none" stroke="midnightblue" d="M71.23,-283.21C82.61,-285.49 95.32,-287.95 107,-290 145.92,-296.84 190.47,-303.57 222.07,-308.15"/>
<polygon fill="midnightblue" stroke="midnightblue" points="221.86,-311.66 232.26,-309.62 222.86,-304.73 221.86,-311.66"/>
</g>
<!-- Node3 -->
<g id="node3" class="node">
<title>Node3</title>
<g id="a_node3"><a xlink:href="productcross_8f90.html#a2e59e22456af10602cf068c75f925c76" target="_top" xlink:title=" ">
<polygon fill="white" stroke="red" points="348,-323.5 348,-342.5 421,-342.5 421,-323.5 348,-323.5"/>
<text text-anchor="middle" x="384.5" y="-330.5" font-family="Helvetica,sans-Serif" font-size="10.00">productcross</text>
</a>
</g>
</g>
<!-- Node1&#45;&gt;Node3 -->
<g id="edge10" class="edge">
<title>Node1&#45;&gt;Node3</title>
<path fill="none" stroke="midnightblue" d="M38.17,-285.69C43.16,-311.36 60.65,-381.11 107,-409 193.14,-460.83 315.42,-383.61 363.24,-348.67"/>
<polygon fill="midnightblue" stroke="midnightblue" points="365.34,-351.47 371.27,-342.68 361.16,-345.86 365.34,-351.47"/>
</g>
<!-- Node5 -->
<g id="node4" class="node">
<title>Node5</title>
<g id="a_node4"><a xlink:href="productdot_8f90.html#a14430d9cb0b48474effeb33068eaf0ed" target="_top" xlink:title=" ">
<polygon fill="white" stroke="red" points="353.5,-266.5 353.5,-285.5 415.5,-285.5 415.5,-266.5 353.5,-266.5"/>
<text text-anchor="middle" x="384.5" y="-273.5" font-family="Helvetica,sans-Serif" font-size="10.00">productdot</text>
</a>
</g>
</g>
<!-- Node1&#45;&gt;Node5 -->
<g id="edge11" class="edge">
<title>Node1&#45;&gt;Node5</title>
<path fill="none" stroke="midnightblue" d="M71.43,-269.17C123.86,-259.91 225.95,-245.76 312,-257 322.81,-258.41 334.31,-260.98 344.86,-263.77"/>
<polygon fill="midnightblue" stroke="midnightblue" points="344.05,-267.18 354.62,-266.5 345.93,-260.44 344.05,-267.18"/>
</g>
<!-- Node6 -->
<g id="node5" class="node">
<title>Node6</title>
<g id="a_node5"><a xlink:href="colinear__pred_8f95.html#a55a0c9a0050e1af1966dca5ef964f2f3" target="_top" xlink:title=" ">
<polygon fill="white" stroke="black" points="107,-380.5 107,-399.5 181,-399.5 181,-380.5 107,-380.5"/>
<text text-anchor="middle" x="144" y="-387.5" font-family="Helvetica,sans-Serif" font-size="10.00">colinear_pred</text>
</a>
</g>
</g>
<!-- Node1&#45;&gt;Node6 -->
<g id="edge4" class="edge">
<title>Node1&#45;&gt;Node6</title>
<path fill="none" stroke="midnightblue" d="M42.62,-285.75C53.9,-303.21 79.33,-340.37 107,-366 110.22,-368.99 113.85,-371.86 117.54,-374.52"/>
<polygon fill="midnightblue" stroke="midnightblue" points="115.81,-377.58 126.06,-380.28 119.73,-371.78 115.81,-377.58"/>
</g>
<!-- Node7 -->
<g id="node6" class="node">
<title>Node7</title>
<g id="a_node6"><a xlink:href="colinearity__angle_8f95.html#a2e974b64f29e0f8d1a0a9e77fe56cba1" target="_top" xlink:title=" ">
<polygon fill="white" stroke="black" points="220,-342.5 220,-361.5 309,-361.5 309,-342.5 220,-342.5"/>
<text text-anchor="middle" x="264.5" y="-349.5" font-family="Helvetica,sans-Serif" font-size="10.00">colinearity_angle</text>
</a>
</g>
</g>
<!-- Node1&#45;&gt;Node7 -->
<g id="edge8" class="edge">
<title>Node1&#45;&gt;Node7</title>
<path fill="none" stroke="midnightblue" d="M54.69,-285.56C68.72,-292.67 88.74,-302.27 107,-309 141.09,-321.56 180.53,-332.37 211.3,-340.02"/>
<polygon fill="midnightblue" stroke="midnightblue" points="210.83,-343.51 221.38,-342.48 212.5,-336.71 210.83,-343.51"/>
</g>
<!-- Node8 -->
<g id="node7" class="node">
<title>Node8</title>
<g id="a_node7"><a xlink:href="algebra__old_8cpp.html#adc33998911a24938042604ba1f8e6196" target="_top" xlink:title=" ">
<polygon fill="white" stroke="black" points="119.5,-133.5 119.5,-152.5 168.5,-152.5 168.5,-133.5 119.5,-133.5"/>
<text text-anchor="middle" x="144" y="-140.5" font-family="Helvetica,sans-Serif" font-size="10.00">matmul</text>
</a>
</g>
</g>
<!-- Node1&#45;&gt;Node8 -->
<g id="edge9" class="edge">
<title>Node1&#45;&gt;Node8</title>
<path fill="none" stroke="midnightblue" d="M40.4,-266.26C49.33,-244.96 73.16,-193.61 107,-162 108.47,-160.63 110.06,-159.32 111.73,-158.09"/>
<polygon fill="midnightblue" stroke="midnightblue" points="113.9,-160.85 120.46,-152.53 110.14,-154.95 113.9,-160.85"/>
</g>
<!-- Node9 -->
<g id="node8" class="node">
<title>Node9</title>
<g id="a_node8"><a xlink:href="yaw__gal__foc__nom_8f95.html#a1871486b3a439e4e3fc2f63063603d07" target="_top" xlink:title=" ">
<polygon fill="white" stroke="black" points="217,-266.5 217,-285.5 312,-285.5 312,-266.5 217,-266.5"/>
<text text-anchor="middle" x="264.5" y="-273.5" font-family="Helvetica,sans-Serif" font-size="10.00">yaw_gal_foc_nom</text>
</a>
</g>
</g>
<!-- Node1&#45;&gt;Node9 -->
<g id="edge12" class="edge">
<title>Node1&#45;&gt;Node9</title>
<path fill="none" stroke="midnightblue" d="M71.47,-276C107.43,-276 164.02,-276 206.47,-276"/>
<polygon fill="midnightblue" stroke="midnightblue" points="206.66,-279.5 216.66,-276 206.66,-272.5 206.66,-279.5"/>
</g>
<!-- Node10 -->
<g id="node9" class="node">
<title>Node10</title>
<g id="a_node9"><a xlink:href="yaw__nom_8f90.html#add5fadccf74e8d81cc3552133d1ae49e" target="_top" xlink:title=" ">
<polygon fill="white" stroke="black" points="115,-95.5 115,-114.5 173,-114.5 173,-95.5 115,-95.5"/>
<text text-anchor="middle" x="144" y="-102.5" font-family="Helvetica,sans-Serif" font-size="10.00">yaw_nom</text>
</a>
</g>
</g>
<!-- Node1&#45;&gt;Node10 -->
<g id="edge15" class="edge">
<title>Node1&#45;&gt;Node10</title>
<path fill="none" stroke="midnightblue" d="M38.7,-266.22C45.03,-240.09 65.53,-167.66 107,-124 108.2,-122.73 109.51,-121.53 110.89,-120.4"/>
<polygon fill="midnightblue" stroke="midnightblue" points="113.08,-123.14 119.37,-114.62 109.14,-117.36 113.08,-123.14"/>
</g>
<!-- Node11 -->
<g id="node10" class="node">
<title>Node11</title>
<g id="a_node10"><a xlink:href="yaw__pred_8f95.html#a7a64b9ed25e02702f50c28ba82422963" target="_top" xlink:title=" ">
<polygon fill="white" stroke="black" points="115,-171.5 115,-190.5 173,-190.5 173,-171.5 115,-171.5"/>
<text text-anchor="middle" x="144" y="-178.5" font-family="Helvetica,sans-Serif" font-size="10.00">yaw_pred</text>
</a>
</g>
</g>
<!-- Node1&#45;&gt;Node11 -->
<g id="edge16" class="edge">
<title>Node1&#45;&gt;Node11</title>
<path fill="none" stroke="midnightblue" d="M47.5,-266.19C65.69,-249.97 102.24,-217.36 124.47,-197.53"/>
<polygon fill="midnightblue" stroke="midnightblue" points="127.09,-199.88 132.22,-190.61 122.43,-194.66 127.09,-199.88"/>
</g>
<!-- Node2&#45;&gt;Node3 -->
<g id="edge2" class="edge">
<title>Node2&#45;&gt;Node3</title>
<path fill="none" stroke="midnightblue" d="M296.5,-318.99C309.02,-321.01 323.72,-323.37 337.44,-325.58"/>
<polygon fill="midnightblue" stroke="midnightblue" points="337.26,-329.1 347.69,-327.23 338.37,-322.19 337.26,-329.1"/>
</g>
<!-- Node2&#45;&gt;Node5 -->
<g id="edge3" class="edge">
<title>Node2&#45;&gt;Node5</title>
<path fill="none" stroke="midnightblue" d="M295.28,-304.41C310.09,-299.64 328.19,-293.81 344.13,-288.68"/>
<polygon fill="midnightblue" stroke="midnightblue" points="345.29,-291.98 353.73,-285.59 343.14,-285.32 345.29,-291.98"/>
</g>
<!-- Node6&#45;&gt;Node7 -->
<g id="edge5" class="edge">
<title>Node6&#45;&gt;Node7</title>
<path fill="none" stroke="midnightblue" d="M174.9,-380.41C189.78,-375.64 207.96,-369.81 223.97,-364.68"/>
<polygon fill="midnightblue" stroke="midnightblue" points="225.15,-367.97 233.61,-361.59 223.02,-361.31 225.15,-367.97"/>
</g>
<!-- Node7&#45;&gt;Node3 -->
<g id="edge6" class="edge">
<title>Node7&#45;&gt;Node3</title>
<path fill="none" stroke="midnightblue" d="M309.1,-344.98C318.46,-343.47 328.37,-341.88 337.8,-340.36"/>
<polygon fill="midnightblue" stroke="midnightblue" points="338.48,-343.79 347.79,-338.75 337.36,-336.88 338.48,-343.79"/>
</g>
<!-- Node7&#45;&gt;Node5 -->
<g id="edge7" class="edge">
<title>Node7&#45;&gt;Node5</title>
<path fill="none" stroke="midnightblue" d="M292.68,-342.41C299.18,-339.71 305.98,-336.53 312,-333 331.5,-321.56 351.44,-305.2 365.29,-292.94"/>
<polygon fill="midnightblue" stroke="midnightblue" points="367.99,-295.22 373.06,-285.92 363.3,-290.03 367.99,-295.22"/>
</g>
<!-- Node9&#45;&gt;Node3 -->
<g id="edge13" class="edge">
<title>Node9&#45;&gt;Node3</title>
<path fill="none" stroke="midnightblue" d="M290.32,-285.6C297.38,-288.48 305.05,-291.74 312,-295 327.36,-302.2 344.14,-311.06 357.57,-318.41"/>
<polygon fill="midnightblue" stroke="midnightblue" points="356.25,-321.68 366.7,-323.45 359.64,-315.55 356.25,-321.68"/>
</g>
<!-- Node9&#45;&gt;Node5 -->
<g id="edge14" class="edge">
<title>Node9&#45;&gt;Node5</title>
<path fill="none" stroke="midnightblue" d="M312.14,-276C322.46,-276 333.32,-276 343.36,-276"/>
<polygon fill="midnightblue" stroke="midnightblue" points="343.48,-279.5 353.48,-276 343.48,-272.5 343.48,-279.5"/>
</g>
<!-- Node11&#45;&gt;Node9 -->
<g id="edge24" class="edge">
<title>Node11&#45;&gt;Node9</title>
<path fill="none" stroke="midnightblue" d="M157.24,-190.81C177.65,-207.18 218.86,-240.21 243.53,-259.99"/>
<polygon fill="midnightblue" stroke="midnightblue" points="241.52,-262.86 251.51,-266.39 245.89,-257.4 241.52,-262.86"/>
</g>
<!-- Node12 -->
<g id="node11" class="node">
<title>Node12</title>
<g id="a_node11"><a xlink:href="kepler__eq_8f90.html#aca8f5442ba73b5ab8fa15b30231a5b5b" target="_top" xlink:title=" ">
<polygon fill="white" stroke="black" points="235,-38.5 235,-57.5 294,-57.5 294,-38.5 235,-38.5"/>
<text text-anchor="middle" x="264.5" y="-45.5" font-family="Helvetica,sans-Serif" font-size="10.00">kepler_eq</text>
</a>
</g>
</g>
<!-- Node11&#45;&gt;Node12 -->
<g id="edge17" class="edge">
<title>Node11&#45;&gt;Node12</title>
<path fill="none" stroke="midnightblue" d="M169.21,-171.36C173.55,-168.81 177.72,-165.71 181,-162 210.9,-128.16 185.49,-99.33 217,-67 219.51,-64.42 222.42,-62.18 225.53,-60.24"/>
<polygon fill="midnightblue" stroke="midnightblue" points="227.41,-63.21 234.69,-55.51 224.2,-56.99 227.41,-63.21"/>
</g>
<!-- Node13 -->
<g id="node12" class="node">
<title>Node13</title>
<g id="a_node12"><a xlink:href="kepler__k2z_8f90.html#ab1518df85771df7a48fecf1d1b9f1b34" target="_top" xlink:title=" ">
<polygon fill="white" stroke="red" points="233,-0.5 233,-19.5 296,-19.5 296,-0.5 233,-0.5"/>
<text text-anchor="middle" x="264.5" y="-7.5" font-family="Helvetica,sans-Serif" font-size="10.00">kepler_k2z</text>
</a>
</g>
</g>
<!-- Node11&#45;&gt;Node13 -->
<g id="edge18" class="edge">
<title>Node11&#45;&gt;Node13</title>
<path fill="none" stroke="midnightblue" d="M169.87,-171.38C174.05,-168.85 178,-165.75 181,-162 219.26,-114.18 176.45,-74.89 217,-29 219,-26.73 221.32,-24.73 223.82,-22.97"/>
<polygon fill="midnightblue" stroke="midnightblue" points="225.92,-25.8 232.89,-17.82 222.46,-19.71 225.92,-25.8"/>
</g>
<!-- Node16 -->
<g id="node13" class="node">
<title>Node16</title>
<g id="a_node13"><a xlink:href="kepler__z2k_8f90.html#aaece6d2b7d204b571232ad144687f646" target="_top" xlink:title=" ">
<polygon fill="white" stroke="red" points="233,-76.5 233,-95.5 296,-95.5 296,-76.5 233,-76.5"/>
<text text-anchor="middle" x="264.5" y="-83.5" font-family="Helvetica,sans-Serif" font-size="10.00">kepler_z2k</text>
</a>
</g>
</g>
<!-- Node11&#45;&gt;Node16 -->
<g id="edge19" class="edge">
<title>Node11&#45;&gt;Node16</title>
<path fill="none" stroke="midnightblue" d="M167.52,-171.44C172.28,-168.8 177.06,-165.65 181,-162 202.99,-141.65 194.04,-124.25 217,-105 219.12,-103.22 221.43,-101.59 223.85,-100.11"/>
<polygon fill="midnightblue" stroke="midnightblue" points="225.73,-103.07 232.94,-95.3 222.46,-96.88 225.73,-103.07"/>
</g>
<!-- Node18 -->
<g id="node14" class="node">
<title>Node18</title>
<g id="a_node14"><a xlink:href="PLEPH_8f.html#aedc7e0a9526045bd01307271228e14a3" target="_top" xlink:title=" ">
<polygon fill="white" stroke="red" points="244.5,-190.5 244.5,-209.5 284.5,-209.5 284.5,-190.5 244.5,-190.5"/>
<text text-anchor="middle" x="264.5" y="-197.5" font-family="Helvetica,sans-Serif" font-size="10.00">pleph</text>
</a>
</g>
</g>
<!-- Node11&#45;&gt;Node18 -->
<g id="edge21" class="edge">
<title>Node11&#45;&gt;Node18</title>
<path fill="none" stroke="midnightblue" d="M173.08,-185.5C191.59,-188.47 215.77,-192.35 234.47,-195.35"/>
<polygon fill="midnightblue" stroke="midnightblue" points="234.06,-198.82 244.49,-196.95 235.17,-191.91 234.06,-198.82"/>
</g>
<!-- Node20 -->
<g id="node15" class="node">
<title>Node20</title>
<g id="a_node15"><a xlink:href="time__GPS_8f90.html#abc2a33c3ed6bda1d04db6c1e5ae6d0f2" target="_top" xlink:title=" ">
<polygon fill="white" stroke="red" points="236.5,-152.5 236.5,-171.5 292.5,-171.5 292.5,-152.5 236.5,-152.5"/>
<text text-anchor="middle" x="264.5" y="-159.5" font-family="Helvetica,sans-Serif" font-size="10.00">time_gps</text>
</a>
</g>
</g>
<!-- Node11&#45;&gt;Node20 -->
<g id="edge22" class="edge">
<title>Node11&#45;&gt;Node20</title>
<path fill="none" stroke="midnightblue" d="M173.08,-176.5C188.95,-173.95 208.99,-170.74 226.17,-167.99"/>
<polygon fill="midnightblue" stroke="midnightblue" points="227.11,-171.38 236.43,-166.34 226.01,-164.47 227.11,-171.38"/>
</g>
<!-- Node24 -->
<g id="node16" class="node">
<title>Node24</title>
<g id="a_node16"><a xlink:href="yaw__angle_8f90.html#a1277ab64ce3b1dc308e68636c6d3e077" target="_top" xlink:title=" ">
<polygon fill="white" stroke="black" points="233.5,-114.5 233.5,-133.5 295.5,-133.5 295.5,-114.5 233.5,-114.5"/>
<text text-anchor="middle" x="264.5" y="-121.5" font-family="Helvetica,sans-Serif" font-size="10.00">yaw_angle</text>
</a>
</g>
</g>
<!-- Node11&#45;&gt;Node24 -->
<g id="edge23" class="edge">
<title>Node11&#45;&gt;Node24</title>
<path fill="none" stroke="midnightblue" d="M163.06,-171.46C184.27,-160.26 216.66,-143.16 217,-143 220.91,-141.17 225.05,-139.34 229.18,-137.58"/>
<polygon fill="midnightblue" stroke="midnightblue" points="230.81,-140.69 238.69,-133.61 228.11,-134.23 230.81,-140.69"/>
</g>
<!-- Node16&#45;&gt;Node5 -->
<g id="edge20" class="edge">
<title>Node16&#45;&gt;Node5</title>
<path fill="none" stroke="midnightblue" d="M296.13,-94.48C301.91,-97.14 307.54,-100.58 312,-105 355.5,-148.14 373.84,-221.7 380.39,-256.57"/>
<polygon fill="midnightblue" stroke="midnightblue" points="376.95,-257.19 382.12,-266.44 383.84,-255.98 376.95,-257.19"/>
</g>
</g>
</svg>
