<?xml version="1.0" encoding="UTF-8" standalone="no"?>
<!DOCTYPE svg PUBLIC "-//W3C//DTD SVG 1.1//EN"
 "http://www.w3.org/Graphics/SVG/1.1/DTD/svg11.dtd">
<!-- Generated by graphviz version 2.50.0 (20220203.2022)
 -->
<!-- Title: yaw_attitude Pages: 1 -->
<svg width="304pt" height="322pt"
 viewBox="0.00 0.00 304.00 322.00" xmlns="http://www.w3.org/2000/svg" xmlns:xlink="http://www.w3.org/1999/xlink">
<g id="graph0" class="graph" transform="scale(1 1) rotate(0) translate(4 318)">
<title>yaw_attitude</title>
<polygon fill="white" stroke="transparent" points="-4,4 -4,-318 300,-318 300,4 -4,4"/>
<!-- Node1 -->
<g id="node1" class="node">
<title>Node1</title>
<g id="a_node1"><a xlink:title=" ">
<polygon fill="#bfbfbf" stroke="black" points="0,-152.5 0,-171.5 71,-171.5 71,-152.5 0,-152.5"/>
<text text-anchor="middle" x="35.5" y="-159.5" font-family="Helvetica,sans-Serif" font-size="10.00">yaw_attitude</text>
</a>
</g>
</g>
<!-- Node2 -->
<g id="node2" class="node">
<title>Node2</title>
<g id="a_node2"><a xlink:href="beta__angle_8f90.html#aa3986ad6e3bbfff7cbb65b502e569723" target="_top" xlink:title=" ">
<polygon fill="white" stroke="black" points="115,-266.5 115,-285.5 179,-285.5 179,-266.5 115,-266.5"/>
<text text-anchor="middle" x="147" y="-273.5" font-family="Helvetica,sans-Serif" font-size="10.00">beta_angle</text>
</a>
</g>
</g>
<!-- Node1&#45;&gt;Node2 -->
<g id="edge1" class="edge">
<title>Node1&#45;&gt;Node2</title>
<path fill="none" stroke="midnightblue" d="M42.36,-171.58C53.4,-189.08 78.72,-226.75 107,-252 110.66,-255.27 114.83,-258.36 119.04,-261.16"/>
<polygon fill="midnightblue" stroke="midnightblue" points="117.26,-264.18 127.6,-266.49 120.96,-258.24 117.26,-264.18"/>
</g>
<!-- Node3 -->
<g id="node3" class="node">
<title>Node3</title>
<g id="a_node3"><a xlink:href="productcross_8f90.html#a2e59e22456af10602cf068c75f925c76" target="_top" xlink:title=" ">
<polygon fill="white" stroke="red" points="223,-294.5 223,-313.5 296,-313.5 296,-294.5 223,-294.5"/>
<text text-anchor="middle" x="259.5" y="-301.5" font-family="Helvetica,sans-Serif" font-size="10.00">productcross</text>
</a>
</g>
</g>
<!-- Node1&#45;&gt;Node3 -->
<g id="edge13" class="edge">
<title>Node1&#45;&gt;Node3</title>
<path fill="none" stroke="midnightblue" d="M38.26,-171.54C43.49,-196.84 61.5,-265.75 107,-295 138.1,-314.99 180.62,-315.77 212.7,-312.4"/>
<polygon fill="midnightblue" stroke="midnightblue" points="213.22,-315.86 222.72,-311.17 212.37,-308.91 213.22,-315.86"/>
</g>
<!-- Node5 -->
<g id="node4" class="node">
<title>Node5</title>
<g id="a_node4"><a xlink:href="productdot_8f90.html#a14430d9cb0b48474effeb33068eaf0ed" target="_top" xlink:title=" ">
<polygon fill="white" stroke="red" points="228.5,-247.5 228.5,-266.5 290.5,-266.5 290.5,-247.5 228.5,-247.5"/>
<text text-anchor="middle" x="259.5" y="-254.5" font-family="Helvetica,sans-Serif" font-size="10.00">productdot</text>
</a>
</g>
</g>
<!-- Node1&#45;&gt;Node5 -->
<g id="edge14" class="edge">
<title>Node1&#45;&gt;Node5</title>
<path fill="none" stroke="midnightblue" d="M45.59,-171.6C58.19,-184.33 82.21,-206.63 107,-219 142.42,-236.68 186.72,-246.55 218.24,-251.77"/>
<polygon fill="midnightblue" stroke="midnightblue" points="217.99,-255.28 228.41,-253.37 219.08,-248.36 217.99,-255.28"/>
</g>
<!-- Node6 -->
<g id="node5" class="node">
<title>Node6</title>
<g id="a_node5"><a xlink:href="eclips_8f.html#ad28e824e74dfc3ff46e8b95a16e1859d" target="_top" xlink:title=" ">
<polygon fill="white" stroke="black" points="126,-190.5 126,-209.5 168,-209.5 168,-190.5 126,-190.5"/>
<text text-anchor="middle" x="147" y="-197.5" font-family="Helvetica,sans-Serif" font-size="10.00">eclips</text>
</a>
</g>
</g>
<!-- Node1&#45;&gt;Node6 -->
<g id="edge4" class="edge">
<title>Node1&#45;&gt;Node6</title>
<path fill="none" stroke="midnightblue" d="M64.13,-171.59C80.08,-177.12 100.14,-184.08 116.41,-189.73"/>
<polygon fill="midnightblue" stroke="midnightblue" points="115.38,-193.08 125.98,-193.05 117.68,-186.47 115.38,-193.08"/>
</g>
<!-- Node9 -->
<g id="node8" class="node">
<title>Node9</title>
<g id="a_node8"><a xlink:href="eclips2017_8f.html#aeef50b1c85cfcccd2af9f1ff36ac1e53" target="_top" xlink:title=" ">
<polygon fill="white" stroke="black" points="115.5,-152.5 115.5,-171.5 178.5,-171.5 178.5,-152.5 115.5,-152.5"/>
<text text-anchor="middle" x="147" y="-159.5" font-family="Helvetica,sans-Serif" font-size="10.00">eclips2017</text>
</a>
</g>
</g>
<!-- Node1&#45;&gt;Node9 -->
<g id="edge7" class="edge">
<title>Node1&#45;&gt;Node9</title>
<path fill="none" stroke="midnightblue" d="M71.15,-162C81.99,-162 94.05,-162 105.27,-162"/>
<polygon fill="midnightblue" stroke="midnightblue" points="105.28,-165.5 115.28,-162 105.28,-158.5 105.28,-165.5"/>
</g>
<!-- Node10 -->
<g id="node9" class="node">
<title>Node10</title>
<g id="a_node9"><a xlink:href="eclips201707_8f.html#a66d62d72ea7bea6c94d758d5d46ef05f" target="_top" xlink:title=" ">
<polygon fill="white" stroke="black" points="110,-114.5 110,-133.5 184,-133.5 184,-114.5 110,-114.5"/>
<text text-anchor="middle" x="147" y="-121.5" font-family="Helvetica,sans-Serif" font-size="10.00">eclips201707</text>
</a>
</g>
</g>
<!-- Node1&#45;&gt;Node10 -->
<g id="edge10" class="edge">
<title>Node1&#45;&gt;Node10</title>
<path fill="none" stroke="midnightblue" d="M64.13,-152.41C77.62,-147.73 94.04,-142.03 108.63,-136.97"/>
<polygon fill="midnightblue" stroke="midnightblue" points="110.08,-140.17 118.38,-133.59 107.78,-133.56 110.08,-140.17"/>
</g>
<!-- Node11 -->
<g id="node10" class="node">
<title>Node11</title>
<g id="a_node10"><a xlink:href="time__GPSweek_8f90.html#aa06fb5efbfd63360cbbfd2b3914f0885" target="_top" xlink:title=" ">
<polygon fill="white" stroke="black" points="107,-76.5 107,-95.5 187,-95.5 187,-76.5 107,-76.5"/>
<text text-anchor="middle" x="147" y="-83.5" font-family="Helvetica,sans-Serif" font-size="10.00">time_gpsweek</text>
</a>
</g>
</g>
<!-- Node1&#45;&gt;Node11 -->
<g id="edge15" class="edge">
<title>Node1&#45;&gt;Node11</title>
<path fill="none" stroke="midnightblue" d="M46.91,-152.31C60.19,-140.27 84.16,-119.53 107,-105 109.59,-103.36 112.33,-101.75 115.13,-100.22"/>
<polygon fill="midnightblue" stroke="midnightblue" points="116.79,-103.3 124.07,-95.61 113.58,-97.08 116.79,-103.3"/>
</g>
<!-- Node13 -->
<g id="node12" class="node">
<title>Node13</title>
<g id="a_node12"><a xlink:href="yaw__nom_8f90.html#add5fadccf74e8d81cc3552133d1ae49e" target="_top" xlink:title=" ">
<polygon fill="white" stroke="black" points="118,-38.5 118,-57.5 176,-57.5 176,-38.5 118,-38.5"/>
<text text-anchor="middle" x="147" y="-45.5" font-family="Helvetica,sans-Serif" font-size="10.00">yaw_nom</text>
</a>
</g>
</g>
<!-- Node1&#45;&gt;Node13 -->
<g id="edge17" class="edge">
<title>Node1&#45;&gt;Node13</title>
<path fill="none" stroke="midnightblue" d="M41.51,-152.46C51.66,-133.88 76.34,-92.45 107,-67 108.79,-65.51 110.71,-64.11 112.72,-62.79"/>
<polygon fill="midnightblue" stroke="midnightblue" points="114.89,-65.58 121.8,-57.55 111.39,-59.51 114.89,-65.58"/>
</g>
<!-- Node14 -->
<g id="node13" class="node">
<title>Node14</title>
<g id="a_node13"><a xlink:href="ppp_8cpp.html#aeec4be9da926fd56edd154d0e81a5d63" target="_top" xlink:title="Calculate nominal yaw&#45;angle.">
<polygon fill="white" stroke="black" points="110.5,-0.5 110.5,-19.5 183.5,-19.5 183.5,-0.5 110.5,-0.5"/>
<text text-anchor="middle" x="147" y="-7.5" font-family="Helvetica,sans-Serif" font-size="10.00">yaw_nominal</text>
</a>
</g>
</g>
<!-- Node1&#45;&gt;Node14 -->
<g id="edge18" class="edge">
<title>Node1&#45;&gt;Node14</title>
<path fill="none" stroke="midnightblue" d="M39.3,-152.35C46.66,-128.51 68.67,-66.05 107,-29 108.42,-27.63 109.96,-26.33 111.58,-25.12"/>
<polygon fill="midnightblue" stroke="midnightblue" points="113.57,-28.01 120.16,-19.71 109.83,-22.09 113.57,-28.01"/>
</g>
<!-- Node2&#45;&gt;Node3 -->
<g id="edge2" class="edge">
<title>Node2&#45;&gt;Node3</title>
<path fill="none" stroke="midnightblue" d="M179.07,-283.87C189.64,-286.55 201.67,-289.6 213.12,-292.5"/>
<polygon fill="midnightblue" stroke="midnightblue" points="212.43,-295.94 222.98,-295 214.15,-289.15 212.43,-295.94"/>
</g>
<!-- Node2&#45;&gt;Node5 -->
<g id="edge3" class="edge">
<title>Node2&#45;&gt;Node5</title>
<path fill="none" stroke="midnightblue" d="M179.07,-270.66C191.26,-268.56 205.41,-266.13 218.36,-263.9"/>
<polygon fill="midnightblue" stroke="midnightblue" points="219.16,-267.32 228.42,-262.17 217.97,-260.42 219.16,-267.32"/>
</g>
<!-- Node7 -->
<g id="node6" class="node">
<title>Node7</title>
<g id="a_node6"><a xlink:href="trop_8cpp.html#a09f11d2057b22449a395bd4f02513a61" target="_top" xlink:title=" ">
<polygon fill="white" stroke="black" points="242,-133.5 242,-152.5 277,-152.5 277,-133.5 242,-133.5"/>
<text text-anchor="middle" x="259.5" y="-140.5" font-family="Helvetica,sans-Serif" font-size="10.00">sign</text>
</a>
</g>
</g>
<!-- Node6&#45;&gt;Node7 -->
<g id="edge5" class="edge">
<title>Node6&#45;&gt;Node7</title>
<path fill="none" stroke="midnightblue" d="M167.91,-190.47C174.05,-187.48 180.83,-184.14 187,-181 195.72,-176.56 216.1,-165.71 232.88,-156.74"/>
<polygon fill="midnightblue" stroke="midnightblue" points="234.57,-159.8 241.74,-152 231.27,-153.63 234.57,-159.8"/>
</g>
<!-- Node8 -->
<g id="node7" class="node">
<title>Node8</title>
<g id="a_node7"><a xlink:href="yaw__angle_8f90.html#a1277ab64ce3b1dc308e68636c6d3e077" target="_top" xlink:title=" ">
<polygon fill="white" stroke="black" points="228.5,-171.5 228.5,-190.5 290.5,-190.5 290.5,-171.5 228.5,-171.5"/>
<text text-anchor="middle" x="259.5" y="-178.5" font-family="Helvetica,sans-Serif" font-size="10.00">yaw_angle</text>
</a>
</g>
</g>
<!-- Node6&#45;&gt;Node8 -->
<g id="edge6" class="edge">
<title>Node6&#45;&gt;Node8</title>
<path fill="none" stroke="midnightblue" d="M168.01,-196.56C181.92,-194.17 200.93,-190.9 217.95,-187.97"/>
<polygon fill="midnightblue" stroke="midnightblue" points="218.96,-191.35 228.22,-186.21 217.77,-184.45 218.96,-191.35"/>
</g>
<!-- Node9&#45;&gt;Node7 -->
<g id="edge8" class="edge">
<title>Node9&#45;&gt;Node7</title>
<path fill="none" stroke="midnightblue" d="M178.78,-156.71C195.38,-153.85 215.68,-150.36 231.64,-147.62"/>
<polygon fill="midnightblue" stroke="midnightblue" points="232.64,-151 241.9,-145.85 231.45,-144.1 232.64,-151"/>
</g>
<!-- Node9&#45;&gt;Node8 -->
<g id="edge9" class="edge">
<title>Node9&#45;&gt;Node8</title>
<path fill="none" stroke="midnightblue" d="M178.78,-167.29C190.97,-169.39 205.16,-171.83 218.16,-174.06"/>
<polygon fill="midnightblue" stroke="midnightblue" points="217.82,-177.56 228.27,-175.8 219,-170.66 217.82,-177.56"/>
</g>
<!-- Node10&#45;&gt;Node7 -->
<g id="edge11" class="edge">
<title>Node10&#45;&gt;Node7</title>
<path fill="none" stroke="midnightblue" d="M184.18,-130.22C199.63,-132.88 217.35,-135.92 231.6,-138.38"/>
<polygon fill="midnightblue" stroke="midnightblue" points="231.29,-141.87 241.74,-140.12 232.48,-134.97 231.29,-141.87"/>
</g>
<!-- Node10&#45;&gt;Node8 -->
<g id="edge12" class="edge">
<title>Node10&#45;&gt;Node8</title>
<path fill="none" stroke="midnightblue" d="M167.91,-133.53C174.05,-136.52 180.83,-139.86 187,-143 195.48,-147.32 215,-157.7 231.5,-166.52"/>
<polygon fill="midnightblue" stroke="midnightblue" points="230.3,-169.85 240.76,-171.48 233.6,-163.68 230.3,-169.85"/>
</g>
<!-- Node12 -->
<g id="node11" class="node">
<title>Node12</title>
<g id="a_node11"><a xlink:href="cal2jd_8for.html#af9bdf5980bab8c8324930b1a0af0175a" target="_top" xlink:title=" ">
<polygon fill="white" stroke="black" points="229.5,-76.5 229.5,-95.5 289.5,-95.5 289.5,-76.5 229.5,-76.5"/>
<text text-anchor="middle" x="259.5" y="-83.5" font-family="Helvetica,sans-Serif" font-size="10.00">iau_cal2jd</text>
</a>
</g>
</g>
<!-- Node11&#45;&gt;Node12 -->
<g id="edge16" class="edge">
<title>Node11&#45;&gt;Node12</title>
<path fill="none" stroke="midnightblue" d="M187.27,-86C197.69,-86 208.94,-86 219.36,-86"/>
<polygon fill="midnightblue" stroke="midnightblue" points="219.43,-89.5 229.43,-86 219.43,-82.5 219.43,-89.5"/>
</g>
</g>
</svg>
